%TF.GenerationSoftware,Altium Limited,Altium Designer,20.1.8 (145)*%
G04 Layer_Physical_Order=1*
G04 Layer_Color=255*
%FSLAX44Y44*%
%MOMM*%
%TF.SameCoordinates,E4642572-F947-42A3-9A2D-1DA0FD0549A1*%
%TF.FilePolarity,Positive*%
%TF.FileFunction,Copper,L1,Top,Signal*%
%TF.Part,Single*%
G01*
G75*
%TA.AperFunction,SMDPad,CuDef*%
G04:AMPARAMS|DCode=10|XSize=1.25mm|YSize=0.85mm|CornerRadius=0.0043mm|HoleSize=0mm|Usage=FLASHONLY|Rotation=270.000|XOffset=0mm|YOffset=0mm|HoleType=Round|Shape=RoundedRectangle|*
%AMROUNDEDRECTD10*
21,1,1.2500,0.8415,0,0,270.0*
21,1,1.2415,0.8500,0,0,270.0*
1,1,0.0085,-0.4208,-0.6208*
1,1,0.0085,-0.4208,0.6208*
1,1,0.0085,0.4208,0.6208*
1,1,0.0085,0.4208,-0.6208*
%
%ADD10ROUNDEDRECTD10*%
G04:AMPARAMS|DCode=11|XSize=1.25mm|YSize=0.85mm|CornerRadius=0.0043mm|HoleSize=0mm|Usage=FLASHONLY|Rotation=0.000|XOffset=0mm|YOffset=0mm|HoleType=Round|Shape=RoundedRectangle|*
%AMROUNDEDRECTD11*
21,1,1.2500,0.8415,0,0,0.0*
21,1,1.2415,0.8500,0,0,0.0*
1,1,0.0085,0.6208,-0.4208*
1,1,0.0085,-0.6208,-0.4208*
1,1,0.0085,-0.6208,0.4208*
1,1,0.0085,0.6208,0.4208*
%
%ADD11ROUNDEDRECTD11*%
%ADD12O,1.1500X0.4000*%
G04:AMPARAMS|DCode=13|XSize=0.6mm|YSize=0.8mm|CornerRadius=0.003mm|HoleSize=0mm|Usage=FLASHONLY|Rotation=270.000|XOffset=0mm|YOffset=0mm|HoleType=Round|Shape=RoundedRectangle|*
%AMROUNDEDRECTD13*
21,1,0.6000,0.7940,0,0,270.0*
21,1,0.5940,0.8000,0,0,270.0*
1,1,0.0060,-0.3970,-0.2970*
1,1,0.0060,-0.3970,0.2970*
1,1,0.0060,0.3970,0.2970*
1,1,0.0060,0.3970,-0.2970*
%
%ADD13ROUNDEDRECTD13*%
G04:AMPARAMS|DCode=14|XSize=0.3mm|YSize=0.4mm|CornerRadius=0.0015mm|HoleSize=0mm|Usage=FLASHONLY|Rotation=90.000|XOffset=0mm|YOffset=0mm|HoleType=Round|Shape=RoundedRectangle|*
%AMROUNDEDRECTD14*
21,1,0.3000,0.3970,0,0,90.0*
21,1,0.2970,0.4000,0,0,90.0*
1,1,0.0030,0.1985,0.1485*
1,1,0.0030,0.1985,-0.1485*
1,1,0.0030,-0.1985,-0.1485*
1,1,0.0030,-0.1985,0.1485*
%
%ADD14ROUNDEDRECTD14*%
G04:AMPARAMS|DCode=15|XSize=0.3mm|YSize=0.4mm|CornerRadius=0.0015mm|HoleSize=0mm|Usage=FLASHONLY|Rotation=0.000|XOffset=0mm|YOffset=0mm|HoleType=Round|Shape=RoundedRectangle|*
%AMROUNDEDRECTD15*
21,1,0.3000,0.3970,0,0,0.0*
21,1,0.2970,0.4000,0,0,0.0*
1,1,0.0030,0.1485,-0.1985*
1,1,0.0030,-0.1485,-0.1985*
1,1,0.0030,-0.1485,0.1985*
1,1,0.0030,0.1485,0.1985*
%
%ADD15ROUNDEDRECTD15*%
G04:AMPARAMS|DCode=16|XSize=0.85mm|YSize=0.65mm|CornerRadius=0.0033mm|HoleSize=0mm|Usage=FLASHONLY|Rotation=270.000|XOffset=0mm|YOffset=0mm|HoleType=Round|Shape=RoundedRectangle|*
%AMROUNDEDRECTD16*
21,1,0.8500,0.6435,0,0,270.0*
21,1,0.8435,0.6500,0,0,270.0*
1,1,0.0065,-0.3218,-0.4218*
1,1,0.0065,-0.3218,0.4218*
1,1,0.0065,0.3218,0.4218*
1,1,0.0065,0.3218,-0.4218*
%
%ADD16ROUNDEDRECTD16*%
G04:AMPARAMS|DCode=17|XSize=0.8mm|YSize=0.7mm|CornerRadius=0.0035mm|HoleSize=0mm|Usage=FLASHONLY|Rotation=270.000|XOffset=0mm|YOffset=0mm|HoleType=Round|Shape=RoundedRectangle|*
%AMROUNDEDRECTD17*
21,1,0.8000,0.6930,0,0,270.0*
21,1,0.7930,0.7000,0,0,270.0*
1,1,0.0070,-0.3465,-0.3965*
1,1,0.0070,-0.3465,0.3965*
1,1,0.0070,0.3465,0.3965*
1,1,0.0070,0.3465,-0.3965*
%
%ADD17ROUNDEDRECTD17*%
G04:AMPARAMS|DCode=18|XSize=0.85mm|YSize=0.65mm|CornerRadius=0.0033mm|HoleSize=0mm|Usage=FLASHONLY|Rotation=0.000|XOffset=0mm|YOffset=0mm|HoleType=Round|Shape=RoundedRectangle|*
%AMROUNDEDRECTD18*
21,1,0.8500,0.6435,0,0,0.0*
21,1,0.8435,0.6500,0,0,0.0*
1,1,0.0065,0.4218,-0.3218*
1,1,0.0065,-0.4218,-0.3218*
1,1,0.0065,-0.4218,0.3218*
1,1,0.0065,0.4218,0.3218*
%
%ADD18ROUNDEDRECTD18*%
G04:AMPARAMS|DCode=19|XSize=0.8mm|YSize=0.7mm|CornerRadius=0.0035mm|HoleSize=0mm|Usage=FLASHONLY|Rotation=0.000|XOffset=0mm|YOffset=0mm|HoleType=Round|Shape=RoundedRectangle|*
%AMROUNDEDRECTD19*
21,1,0.8000,0.6930,0,0,0.0*
21,1,0.7930,0.7000,0,0,0.0*
1,1,0.0070,0.3965,-0.3465*
1,1,0.0070,-0.3965,-0.3465*
1,1,0.0070,-0.3965,0.3465*
1,1,0.0070,0.3965,0.3465*
%
%ADD19ROUNDEDRECTD19*%
%TA.AperFunction,Conductor*%
%ADD20C,0.1270*%
%ADD21C,0.1524*%
%TA.AperFunction,ComponentPad*%
%ADD22O,2.0000X1.5000*%
G04:AMPARAMS|DCode=23|XSize=1mm|YSize=1mm|CornerRadius=0.005mm|HoleSize=0mm|Usage=FLASHONLY|Rotation=0.000|XOffset=0mm|YOffset=0mm|HoleType=Round|Shape=RoundedRectangle|*
%AMROUNDEDRECTD23*
21,1,1.0000,0.9900,0,0,0.0*
21,1,0.9900,1.0000,0,0,0.0*
1,1,0.0100,0.4950,-0.4950*
1,1,0.0100,-0.4950,-0.4950*
1,1,0.0100,-0.4950,0.4950*
1,1,0.0100,0.4950,0.4950*
%
%ADD23ROUNDEDRECTD23*%
G04:AMPARAMS|DCode=24|XSize=2.25mm|YSize=3.25mm|CornerRadius=1.125mm|HoleSize=0mm|Usage=FLASHONLY|Rotation=180.000|XOffset=0mm|YOffset=0mm|HoleType=Round|Shape=RoundedRectangle|*
%AMROUNDEDRECTD24*
21,1,2.2500,1.0000,0,0,180.0*
21,1,0.0000,3.2500,0,0,180.0*
1,1,2.2500,0.0000,0.5000*
1,1,2.2500,0.0000,0.5000*
1,1,2.2500,0.0000,-0.5000*
1,1,2.2500,0.0000,-0.5000*
%
%ADD24ROUNDEDRECTD24*%
%ADD25O,2.2500X3.2500*%
%ADD26O,1.5000X1.1000*%
%TA.AperFunction,ViaPad*%
%ADD27C,0.8000*%
%ADD28C,0.8000*%
G36*
X10220000Y10158165D02*
X10222113Y10157886D01*
X10224083Y10157071D01*
X10225773Y10155773D01*
X10227071Y10154083D01*
X10227886Y10152113D01*
X10228165Y10150000D01*
X10228187D01*
X10228187Y10150000D01*
Y10010000D01*
X10228165D01*
X10227887Y10007887D01*
X10227071Y10005917D01*
X10225773Y10004227D01*
X10224083Y10002929D01*
X10222113Y10002113D01*
X10220000Y10001835D01*
Y10001813D01*
X10186961D01*
X10186394Y10003083D01*
X10187145Y10004062D01*
X10187828Y10005709D01*
X10188060Y10007476D01*
X10187828Y10009244D01*
X10187145Y10010891D01*
X10186060Y10012305D01*
X10184646Y10013390D01*
X10182999Y10014072D01*
X10181232Y10014304D01*
X10180637D01*
Y10017469D01*
X10181156Y10017684D01*
X10181569Y10018683D01*
Y10026613D01*
X10181156Y10027612D01*
X10180157Y10028026D01*
X10173227D01*
X10172228Y10027612D01*
X10171815Y10026613D01*
Y10018683D01*
X10172228Y10017684D01*
X10173227Y10017271D01*
X10176752D01*
Y10014241D01*
X10175464Y10014072D01*
X10173818Y10013390D01*
X10172404Y10012305D01*
X10171318Y10010891D01*
X10170637Y10009244D01*
X10170403Y10007476D01*
X10170637Y10005709D01*
X10171318Y10004062D01*
X10172070Y10003083D01*
X10171503Y10001813D01*
X10161961D01*
X10161394Y10003083D01*
X10162145Y10004062D01*
X10162828Y10005709D01*
X10162927Y10006461D01*
X10154233D01*
X10145537D01*
X10145636Y10005709D01*
X10146318Y10004062D01*
X10147070Y10003083D01*
X10146503Y10001813D01*
X10136961D01*
X10136394Y10003083D01*
X10137145Y10004062D01*
X10137828Y10005709D01*
X10138060Y10007476D01*
X10137828Y10009244D01*
X10137145Y10010891D01*
X10136060Y10012305D01*
X10134646Y10013390D01*
X10132999Y10014072D01*
X10131232Y10014304D01*
X10127232D01*
X10125464Y10014072D01*
X10123818Y10013390D01*
X10122404Y10012305D01*
X10121318Y10010891D01*
X10120709Y10009418D01*
X10119095D01*
Y10013981D01*
X10118682Y10014980D01*
X10117683Y10015394D01*
X10110753D01*
X10109755Y10014980D01*
X10109341Y10013981D01*
Y10006051D01*
X10109755Y10005052D01*
X10110753Y10004639D01*
X10117683D01*
X10118682Y10005052D01*
X10118881Y10005534D01*
X10120709D01*
X10121318Y10004062D01*
X10122070Y10003083D01*
X10121503Y10001813D01*
X10040000D01*
Y10001835D01*
X10037887Y10002114D01*
X10035917Y10002929D01*
X10034227Y10004227D01*
X10032929Y10005917D01*
X10032114Y10007887D01*
X10031835Y10010000D01*
X10031813D01*
X10031813Y10010000D01*
Y10140000D01*
X10031818D01*
X10032167Y10143547D01*
X10033201Y10146958D01*
X10034882Y10150102D01*
X10037143Y10152857D01*
X10039898Y10155118D01*
X10043042Y10156799D01*
X10046453Y10157833D01*
X10050000Y10158182D01*
Y10158187D01*
X10121586D01*
X10122106Y10156917D01*
X10121318Y10155891D01*
X10120636Y10154244D01*
X10120537Y10153492D01*
X10129233D01*
Y10152476D01*
D01*
Y10153492D01*
X10137927D01*
X10137828Y10154244D01*
X10137145Y10155891D01*
X10136357Y10156917D01*
X10136879Y10158187D01*
X10171586D01*
X10172106Y10156917D01*
X10171318Y10155891D01*
X10170637Y10154244D01*
X10170403Y10152476D01*
X10170637Y10150709D01*
X10171318Y10149062D01*
X10172404Y10147648D01*
X10173818Y10146562D01*
X10175464Y10145880D01*
X10175938Y10145818D01*
Y10126074D01*
X10176085Y10125331D01*
X10176506Y10124701D01*
X10179270Y10121938D01*
X10179270Y10121938D01*
X10179900Y10121517D01*
X10180643Y10121368D01*
X10198076D01*
X10198445Y10120477D01*
X10199443Y10120064D01*
X10206373D01*
X10207372Y10120477D01*
X10207786Y10121476D01*
Y10129406D01*
X10207372Y10130405D01*
X10206373Y10130819D01*
X10199443D01*
X10198445Y10130405D01*
X10198031Y10129406D01*
Y10125253D01*
X10181448D01*
X10179822Y10126879D01*
Y10145648D01*
X10181232D01*
X10182999Y10145880D01*
X10184646Y10146562D01*
X10186060Y10147648D01*
X10187145Y10149062D01*
X10187828Y10150709D01*
X10188060Y10152476D01*
X10187828Y10154244D01*
X10187145Y10155891D01*
X10186357Y10156917D01*
X10186879Y10158187D01*
X10220000D01*
Y10158165D01*
D02*
G37*
%LPC*%
G36*
X10137927Y10151460D02*
X10130248D01*
Y10145648D01*
X10131232D01*
X10132999Y10145880D01*
X10134646Y10146562D01*
X10136060Y10147648D01*
X10137145Y10149062D01*
X10137828Y10150709D01*
X10137927Y10151460D01*
D02*
G37*
G36*
X10128217D02*
X10120537D01*
X10120636Y10150709D01*
X10121318Y10149062D01*
X10122404Y10147648D01*
X10123818Y10146562D01*
X10125464Y10145880D01*
X10127232Y10145648D01*
X10128217D01*
Y10151460D01*
D02*
G37*
G36*
X10090353Y10146191D02*
X10083423D01*
X10082425Y10145778D01*
X10082011Y10144779D01*
Y10139356D01*
X10081795Y10139313D01*
X10081165Y10138892D01*
X10081165Y10138892D01*
X10078695Y10136422D01*
X10078274Y10135792D01*
X10078185Y10135348D01*
X10063223Y10120385D01*
X10063126Y10120450D01*
X10061070Y10120859D01*
X10059014Y10120450D01*
X10057271Y10119285D01*
X10056106Y10117542D01*
X10055697Y10115485D01*
X10056106Y10113429D01*
X10057271Y10111686D01*
X10059014Y10110521D01*
X10061070Y10110112D01*
X10063126Y10110521D01*
X10064869Y10111686D01*
X10066035Y10113429D01*
X10066443Y10115485D01*
X10066035Y10117542D01*
X10065970Y10117639D01*
X10081442Y10133110D01*
X10081442Y10133110D01*
X10081863Y10133740D01*
X10081951Y10134185D01*
X10083268Y10135501D01*
X10083423Y10135436D01*
X10090353D01*
X10091353Y10135850D01*
X10091766Y10136849D01*
Y10144779D01*
X10091353Y10145778D01*
X10090353Y10146191D01*
D02*
G37*
G36*
X10192427Y10139368D02*
X10188492D01*
Y10134006D01*
X10193856D01*
Y10137939D01*
X10193437Y10138950D01*
X10192427Y10139368D01*
D02*
G37*
G36*
X10186461D02*
X10182526D01*
X10181516Y10138950D01*
X10181098Y10137939D01*
Y10134006D01*
X10186461D01*
Y10139368D01*
D02*
G37*
G36*
X10167026D02*
X10163093D01*
Y10134006D01*
X10168455D01*
Y10137939D01*
X10168036Y10138950D01*
X10167026Y10139368D01*
D02*
G37*
G36*
X10161061D02*
X10157126D01*
X10156116Y10138950D01*
X10155698Y10137939D01*
Y10134006D01*
X10161061D01*
Y10139368D01*
D02*
G37*
G36*
X10193856Y10131974D02*
X10188492D01*
Y10126611D01*
X10192427D01*
X10193437Y10127029D01*
X10193856Y10128040D01*
Y10131974D01*
D02*
G37*
G36*
X10186461D02*
X10181098D01*
Y10128040D01*
X10181516Y10127029D01*
X10182526Y10126611D01*
X10186461D01*
Y10131974D01*
D02*
G37*
G36*
X10168455D02*
X10163093D01*
Y10126611D01*
X10167026D01*
X10168036Y10127029D01*
X10168455Y10128040D01*
Y10131974D01*
D02*
G37*
G36*
X10161061D02*
X10155698D01*
Y10128040D01*
X10156116Y10127029D01*
X10157126Y10126611D01*
X10161061D01*
Y10131974D01*
D02*
G37*
G36*
X10050000Y10153889D02*
X10046405Y10153416D01*
X10043055Y10152028D01*
X10040179Y10149821D01*
X10037972Y10146945D01*
X10036584Y10143595D01*
X10036111Y10140000D01*
X10036584Y10136405D01*
X10037972Y10133055D01*
X10040179Y10130179D01*
X10043055Y10127972D01*
X10046405Y10126584D01*
X10050000Y10126111D01*
X10053595Y10126584D01*
X10056945Y10127972D01*
X10059821Y10130179D01*
X10062028Y10133055D01*
X10063416Y10136405D01*
X10063889Y10140000D01*
X10063416Y10143595D01*
X10062028Y10146945D01*
X10059821Y10149821D01*
X10056945Y10152028D01*
X10053595Y10153416D01*
X10050000Y10153889D01*
D02*
G37*
G36*
X10220374Y10130819D02*
X10213444D01*
X10212445Y10130405D01*
X10212031Y10129406D01*
Y10121476D01*
X10212047Y10121438D01*
X10206338Y10115729D01*
X10206295D01*
X10206126Y10115799D01*
X10199691D01*
X10199552Y10115741D01*
X10196129Y10119165D01*
X10195499Y10119586D01*
X10194755Y10119734D01*
X10180660D01*
X10179918Y10119586D01*
X10179287Y10119165D01*
X10176407Y10116284D01*
X10175986Y10115654D01*
X10175837Y10114911D01*
Y10094548D01*
X10175986Y10093804D01*
X10176407Y10093174D01*
X10177988Y10091592D01*
X10178619Y10091171D01*
X10179362Y10091024D01*
X10181439D01*
X10181716Y10090608D01*
X10181909Y10090480D01*
Y10088952D01*
X10181716Y10088823D01*
X10180994Y10087742D01*
X10180740Y10086466D01*
X10180994Y10085190D01*
X10181716Y10084108D01*
X10181909Y10083979D01*
Y10082452D01*
X10181716Y10082323D01*
X10180994Y10081241D01*
X10180740Y10079966D01*
X10180994Y10078690D01*
X10181716Y10077608D01*
X10181909Y10077479D01*
Y10075952D01*
X10181716Y10075823D01*
X10180994Y10074742D01*
X10180740Y10073466D01*
X10180994Y10072190D01*
X10181716Y10071108D01*
X10181909Y10070980D01*
Y10069452D01*
X10181716Y10069323D01*
X10180994Y10068242D01*
X10180740Y10066966D01*
X10180994Y10065690D01*
X10181716Y10064608D01*
X10181607Y10063343D01*
X10180811Y10062538D01*
X10179164D01*
X10178009Y10064265D01*
X10176266Y10065430D01*
X10174210Y10065839D01*
X10172153Y10065430D01*
X10170410Y10064265D01*
X10169246Y10062522D01*
X10168837Y10060466D01*
X10169246Y10058409D01*
X10170410Y10056666D01*
X10172153Y10055502D01*
X10174210Y10055093D01*
X10176266Y10055502D01*
X10178009Y10056666D01*
X10179164Y10058394D01*
X10181526D01*
X10181716Y10058108D01*
X10181909Y10057980D01*
Y10056452D01*
X10181716Y10056323D01*
X10180994Y10055242D01*
X10180740Y10053966D01*
X10180994Y10052690D01*
X10181716Y10051608D01*
X10181746Y10050316D01*
X10180864Y10049408D01*
X10174279D01*
X10174279Y10049408D01*
X10173536Y10049260D01*
X10172905Y10048839D01*
X10153852Y10029786D01*
X10121987D01*
Y10034168D01*
X10121573Y10035167D01*
X10120574Y10035580D01*
X10112645D01*
X10111646Y10035167D01*
X10111232Y10034168D01*
Y10027238D01*
X10111646Y10026239D01*
X10112645Y10025825D01*
X10120574D01*
X10120757Y10025901D01*
X10154657D01*
X10155400Y10026049D01*
X10156030Y10026470D01*
X10175084Y10045524D01*
X10181439D01*
X10181716Y10045108D01*
X10181746Y10043815D01*
X10180864Y10042908D01*
X10175513D01*
X10174770Y10042760D01*
X10174140Y10042339D01*
X10156392Y10024590D01*
X10122396D01*
X10121652Y10024443D01*
X10121022Y10024022D01*
X10119869Y10022868D01*
X10104846D01*
Y10026866D01*
X10104432Y10027863D01*
X10103436Y10028276D01*
X10097001D01*
X10096004Y10027863D01*
X10095591Y10026866D01*
Y10018431D01*
X10096004Y10017434D01*
X10097001Y10017021D01*
X10098276D01*
Y10015394D01*
X10096753D01*
X10095754Y10014980D01*
X10095341Y10013981D01*
Y10006051D01*
X10095754Y10005052D01*
X10096753Y10004639D01*
X10103683D01*
X10104682Y10005052D01*
X10105096Y10006051D01*
Y10013981D01*
X10104682Y10014980D01*
X10103683Y10015394D01*
X10102161D01*
Y10017021D01*
X10103436D01*
X10104432Y10017434D01*
X10104846Y10018431D01*
Y10018984D01*
X10120673D01*
X10121417Y10019131D01*
X10122047Y10019553D01*
X10123201Y10020706D01*
X10157196D01*
X10157939Y10020854D01*
X10158569Y10021275D01*
X10176318Y10039023D01*
X10181439D01*
X10181716Y10038608D01*
X10181909Y10038480D01*
Y10036952D01*
X10181716Y10036823D01*
X10180994Y10035742D01*
X10180740Y10034466D01*
X10180994Y10033190D01*
X10181716Y10032108D01*
X10182798Y10031385D01*
X10184074Y10031132D01*
X10185920D01*
Y10026867D01*
X10185814Y10026613D01*
Y10018683D01*
X10186228Y10017684D01*
X10187227Y10017271D01*
X10194157D01*
X10195156Y10017684D01*
X10195569Y10018683D01*
Y10020706D01*
X10199224D01*
Y10019431D01*
X10199636Y10018434D01*
X10200634Y10018021D01*
X10209069D01*
X10210065Y10018434D01*
X10210478Y10019431D01*
Y10025865D01*
X10210065Y10026863D01*
X10209069Y10027275D01*
X10200634D01*
X10199636Y10026863D01*
X10199224Y10025865D01*
Y10024590D01*
X10195569D01*
Y10026613D01*
X10195156Y10027612D01*
X10194157Y10028026D01*
X10189804D01*
Y10031132D01*
X10191574D01*
X10192850Y10031385D01*
X10193932Y10032108D01*
X10194655Y10033190D01*
X10194908Y10034466D01*
X10194655Y10035742D01*
X10193932Y10036823D01*
X10193739Y10036952D01*
Y10038480D01*
X10193932Y10038608D01*
X10194655Y10039690D01*
X10194908Y10040966D01*
X10194655Y10042242D01*
X10193932Y10043323D01*
X10193739Y10043452D01*
Y10044979D01*
X10193932Y10045108D01*
X10194655Y10046190D01*
X10194908Y10047466D01*
X10194655Y10048741D01*
X10193932Y10049823D01*
X10193902Y10051116D01*
X10194384Y10051613D01*
X10195886Y10051621D01*
X10196334Y10051174D01*
Y10045475D01*
X10196482Y10044733D01*
X10196903Y10044102D01*
X10201234Y10039772D01*
X10201863Y10039351D01*
X10202607Y10039203D01*
X10202607Y10039203D01*
X10213224D01*
Y10035313D01*
X10213637Y10034316D01*
X10214634Y10033903D01*
X10223069D01*
X10224066Y10034316D01*
X10224479Y10035313D01*
Y10041748D01*
X10224066Y10042745D01*
X10223334Y10043048D01*
Y10046377D01*
X10224857D01*
X10225855Y10046791D01*
X10226269Y10047789D01*
Y10055720D01*
X10225855Y10056718D01*
X10224857Y10057132D01*
X10220355D01*
X10220325Y10057281D01*
X10219904Y10057911D01*
X10219904Y10057911D01*
X10215630Y10062185D01*
X10215000Y10062606D01*
X10214257Y10062754D01*
X10208354D01*
X10200219Y10070889D01*
Y10098641D01*
X10200219Y10098642D01*
X10200071Y10099385D01*
X10199650Y10100015D01*
X10199650Y10100015D01*
X10194930Y10104734D01*
X10194301Y10105155D01*
X10193856Y10105244D01*
Y10112540D01*
X10193437Y10113550D01*
X10192427Y10113969D01*
X10182526D01*
X10181516Y10113550D01*
X10181098Y10112540D01*
Y10102640D01*
X10181516Y10101630D01*
X10182526Y10101211D01*
X10192427D01*
X10192804Y10101367D01*
X10196334Y10097837D01*
Y10070085D01*
X10196482Y10069341D01*
X10196903Y10068712D01*
X10206176Y10059438D01*
X10206807Y10059017D01*
X10207549Y10058869D01*
X10213452D01*
X10216540Y10055782D01*
X10216514Y10055720D01*
Y10047789D01*
X10216927Y10046791D01*
X10217927Y10046377D01*
X10219449D01*
Y10043158D01*
X10214634D01*
X10214463Y10043087D01*
X10203411D01*
X10200219Y10046280D01*
Y10051978D01*
X10200219Y10051978D01*
X10200071Y10052722D01*
X10199650Y10053351D01*
X10197662Y10055339D01*
X10197032Y10055760D01*
X10196288Y10055908D01*
X10194209D01*
X10193932Y10056323D01*
X10194041Y10057589D01*
X10194837Y10058394D01*
X10196641D01*
X10201507Y10053528D01*
X10201507Y10053528D01*
X10202180Y10053079D01*
X10202514Y10053012D01*
Y10047789D01*
X10202927Y10046791D01*
X10203926Y10046377D01*
X10210856D01*
X10211855Y10046791D01*
X10212269Y10047789D01*
Y10055720D01*
X10211855Y10056718D01*
X10210856Y10057132D01*
X10203926D01*
X10203810Y10057084D01*
X10198964Y10061931D01*
X10198292Y10062380D01*
X10197499Y10062538D01*
X10197499Y10062538D01*
X10194122D01*
X10193932Y10062823D01*
X10193739Y10062952D01*
Y10064479D01*
X10193932Y10064608D01*
X10194655Y10065690D01*
X10194908Y10066966D01*
X10194655Y10068242D01*
X10193932Y10069323D01*
X10193739Y10069452D01*
Y10070980D01*
X10193932Y10071108D01*
X10194655Y10072190D01*
X10194908Y10073466D01*
X10194655Y10074742D01*
X10193932Y10075823D01*
X10193739Y10075952D01*
Y10077479D01*
X10193932Y10077608D01*
X10194655Y10078690D01*
X10194908Y10079966D01*
X10194655Y10081241D01*
X10193932Y10082323D01*
X10193739Y10082452D01*
Y10083979D01*
X10193932Y10084108D01*
X10194655Y10085190D01*
X10194908Y10086466D01*
X10194655Y10087742D01*
X10193932Y10088823D01*
X10193739Y10088952D01*
Y10090480D01*
X10193932Y10090608D01*
X10194655Y10091690D01*
X10194908Y10092966D01*
X10194655Y10094242D01*
X10193932Y10095323D01*
X10192850Y10096046D01*
X10191574Y10096300D01*
X10184074D01*
X10182798Y10096046D01*
X10181716Y10095323D01*
X10181439Y10094908D01*
X10180167D01*
X10179722Y10095352D01*
Y10114106D01*
X10181465Y10115849D01*
X10193951D01*
X10197451Y10112349D01*
X10197451Y10112349D01*
X10198081Y10111928D01*
X10198281Y10111888D01*
Y10105954D01*
X10198694Y10104957D01*
X10199691Y10104544D01*
X10206126D01*
X10207123Y10104957D01*
X10207536Y10105954D01*
Y10111922D01*
X10207885Y10111992D01*
X10208516Y10112413D01*
X10215452Y10119349D01*
X10215873Y10119979D01*
X10215890Y10120064D01*
X10220374D01*
X10221373Y10120477D01*
X10221786Y10121476D01*
Y10129406D01*
X10221373Y10130405D01*
X10220374Y10130819D01*
D02*
G37*
G36*
X10082859Y10122355D02*
X10074919D01*
X10073924Y10121942D01*
X10073511Y10120947D01*
Y10117689D01*
X10073332Y10117653D01*
X10072660Y10117205D01*
X10072660Y10117205D01*
X10062834Y10107379D01*
X10062296D01*
X10062130Y10107447D01*
X10053715D01*
X10052711Y10107031D01*
X10052295Y10106026D01*
Y10093611D01*
X10052711Y10092607D01*
X10053715Y10092191D01*
X10057798D01*
Y10077434D01*
X10045613Y10065250D01*
X10045164Y10064578D01*
X10045007Y10063785D01*
X10045007Y10063785D01*
Y10058970D01*
X10043857D01*
X10042874Y10058562D01*
X10042467Y10057579D01*
Y10054609D01*
X10042874Y10053625D01*
X10043857Y10053218D01*
X10045007D01*
Y10046423D01*
X10045007Y10046423D01*
X10045164Y10045630D01*
X10045613Y10044957D01*
X10048749Y10041823D01*
X10048344Y10039785D01*
X10048752Y10037728D01*
X10049917Y10035985D01*
X10051660Y10034820D01*
X10053716Y10034411D01*
X10055773Y10034820D01*
X10057516Y10035985D01*
X10058681Y10037728D01*
X10059090Y10039785D01*
X10058681Y10041841D01*
X10057516Y10043584D01*
X10055773Y10044749D01*
X10053716Y10045157D01*
X10051679Y10044752D01*
X10049150Y10047281D01*
Y10054444D01*
X10049219Y10054609D01*
Y10057579D01*
X10049150Y10057743D01*
Y10062927D01*
X10061334Y10075111D01*
X10061334Y10075111D01*
X10061783Y10075783D01*
X10061942Y10076576D01*
Y10092191D01*
X10062130D01*
X10063135Y10092607D01*
X10063551Y10093611D01*
Y10102010D01*
X10063692Y10103235D01*
X10064485Y10103392D01*
X10065157Y10103842D01*
X10074916Y10113601D01*
X10074919Y10113600D01*
X10082859D01*
X10083854Y10114012D01*
X10084266Y10115007D01*
Y10120947D01*
X10083854Y10121942D01*
X10082859Y10122355D01*
D02*
G37*
G36*
X10122020Y10116519D02*
X10116829D01*
Y10111906D01*
X10123441D01*
Y10115098D01*
X10123025Y10116102D01*
X10122020Y10116519D01*
D02*
G37*
G36*
X10114797D02*
X10109605D01*
X10108600Y10116102D01*
X10108184Y10115098D01*
Y10111906D01*
X10114797D01*
Y10116519D01*
D02*
G37*
G36*
X10220626Y10115799D02*
X10218425D01*
Y10111188D01*
X10222036D01*
Y10114389D01*
X10221623Y10115386D01*
X10220626Y10115799D01*
D02*
G37*
G36*
X10216393D02*
X10214191D01*
X10213194Y10115386D01*
X10212781Y10114389D01*
Y10111188D01*
X10216393D01*
Y10115799D01*
D02*
G37*
G36*
X10104858Y10112855D02*
X10101904D01*
Y10109493D01*
X10106266D01*
Y10111447D01*
X10105854Y10112443D01*
X10104858Y10112855D01*
D02*
G37*
G36*
X10099872D02*
X10096919D01*
X10095923Y10112443D01*
X10095511Y10111447D01*
Y10109493D01*
X10099872D01*
Y10112855D01*
D02*
G37*
G36*
X10123441Y10109874D02*
X10116829D01*
Y10105262D01*
X10122020D01*
X10123025Y10105678D01*
X10123441Y10106683D01*
Y10109874D01*
D02*
G37*
G36*
X10114797D02*
X10108184D01*
Y10106683D01*
X10108600Y10105678D01*
X10109605Y10105262D01*
X10114797D01*
Y10109874D01*
D02*
G37*
G36*
X10222036Y10109156D02*
X10218425D01*
Y10104544D01*
X10220626D01*
X10221623Y10104957D01*
X10222036Y10105954D01*
Y10109156D01*
D02*
G37*
G36*
X10216393D02*
X10212781D01*
Y10105954D01*
X10213194Y10104957D01*
X10214191Y10104544D01*
X10216393D01*
Y10109156D01*
D02*
G37*
G36*
X10106266Y10107461D02*
X10101904D01*
Y10104100D01*
X10104858D01*
X10105854Y10104512D01*
X10106266Y10105507D01*
Y10107461D01*
D02*
G37*
G36*
X10099872D02*
X10095511D01*
Y10105507D01*
X10095923Y10104512D01*
X10096919Y10104100D01*
X10099872D01*
Y10107461D01*
D02*
G37*
G36*
X10080131Y10107447D02*
X10076939D01*
Y10100835D01*
X10081551D01*
Y10106026D01*
X10081135Y10107031D01*
X10080131Y10107447D01*
D02*
G37*
G36*
X10074907D02*
X10071716D01*
X10070711Y10107031D01*
X10070295Y10106026D01*
Y10100835D01*
X10074907D01*
Y10107447D01*
D02*
G37*
G36*
X10083776Y10154048D02*
X10083033Y10153901D01*
X10082402Y10153480D01*
X10065511Y10136588D01*
X10065090Y10135958D01*
X10064941Y10135214D01*
Y10132563D01*
X10058447Y10126068D01*
X10056263D01*
X10055520Y10125920D01*
X10054890Y10125499D01*
X10049843Y10120452D01*
X10049465Y10120704D01*
X10047409Y10121113D01*
X10045353Y10120704D01*
X10043610Y10119539D01*
X10042445Y10117795D01*
X10042036Y10115739D01*
X10042445Y10113683D01*
X10043610Y10111940D01*
X10045353Y10110775D01*
X10047409Y10110366D01*
X10049465Y10110775D01*
X10051208Y10111940D01*
X10052374Y10113683D01*
X10052783Y10115739D01*
X10052424Y10117540D01*
X10057068Y10122183D01*
X10059251D01*
X10059995Y10122331D01*
X10060624Y10122752D01*
X10068257Y10130385D01*
X10068679Y10131015D01*
X10068826Y10131758D01*
Y10134410D01*
X10084581Y10150164D01*
X10104415D01*
X10110187Y10144391D01*
Y10140743D01*
X10110335Y10140000D01*
X10110756Y10139370D01*
X10132916Y10117209D01*
X10133546Y10116788D01*
X10134290Y10116641D01*
X10141340D01*
X10145061Y10112919D01*
Y10099130D01*
X10140839Y10094908D01*
X10138209D01*
X10137932Y10095323D01*
X10136850Y10096046D01*
X10135574Y10096300D01*
X10128074D01*
X10126798Y10096046D01*
X10125717Y10095323D01*
X10124994Y10094242D01*
X10124740Y10092966D01*
X10124994Y10091690D01*
X10125717Y10090608D01*
X10125909Y10090480D01*
Y10088952D01*
X10125717Y10088823D01*
X10124994Y10087742D01*
X10124740Y10086466D01*
X10124994Y10085190D01*
X10125717Y10084108D01*
X10125909Y10083979D01*
Y10082452D01*
X10125717Y10082323D01*
X10124994Y10081241D01*
X10124740Y10079966D01*
X10124994Y10078690D01*
X10125717Y10077608D01*
X10125909Y10077479D01*
Y10075952D01*
X10125717Y10075823D01*
X10124994Y10074742D01*
X10124740Y10073466D01*
X10124994Y10072190D01*
X10125717Y10071108D01*
X10125909Y10070980D01*
Y10069452D01*
X10125717Y10069323D01*
X10124994Y10068242D01*
X10124942Y10067982D01*
X10131824D01*
X10138706D01*
X10138654Y10068242D01*
X10137932Y10069323D01*
X10137739Y10069452D01*
Y10070980D01*
X10137932Y10071108D01*
X10138654Y10072190D01*
X10138908Y10073466D01*
X10138654Y10074742D01*
X10137932Y10075823D01*
X10137739Y10075952D01*
Y10077479D01*
X10137932Y10077608D01*
X10138654Y10078690D01*
X10138908Y10079966D01*
X10138654Y10081241D01*
X10137932Y10082323D01*
X10137739Y10082452D01*
Y10083979D01*
X10137932Y10084108D01*
X10138654Y10085190D01*
X10138908Y10086466D01*
X10138654Y10087742D01*
X10137932Y10088823D01*
X10137902Y10090116D01*
X10138784Y10091024D01*
X10141644D01*
X10142387Y10091171D01*
X10143017Y10091592D01*
X10148377Y10096952D01*
X10148798Y10097582D01*
X10148945Y10098325D01*
Y10113724D01*
X10148798Y10114467D01*
X10148377Y10115098D01*
X10148376Y10115098D01*
X10143518Y10119957D01*
X10142888Y10120377D01*
X10142144Y10120526D01*
X10135094D01*
X10114072Y10141548D01*
Y10145195D01*
X10114072Y10145196D01*
X10113924Y10145939D01*
X10113503Y10146569D01*
X10113503Y10146569D01*
X10106592Y10153480D01*
X10105962Y10153901D01*
X10105219Y10154048D01*
X10083776D01*
X10083776Y10154048D01*
D02*
G37*
G36*
X10081551Y10098803D02*
X10076939D01*
Y10092191D01*
X10080131D01*
X10081135Y10092607D01*
X10081551Y10093611D01*
Y10098803D01*
D02*
G37*
G36*
X10074907D02*
X10070295D01*
Y10093611D01*
X10070711Y10092607D01*
X10071716Y10092191D01*
X10074907D01*
Y10098803D01*
D02*
G37*
G36*
X10095248Y10099970D02*
Y10083492D01*
X10106860D01*
Y10087476D01*
X10106429Y10090745D01*
X10105168Y10093790D01*
X10103161Y10096406D01*
X10100546Y10098412D01*
X10097501Y10099674D01*
X10095248Y10099970D01*
D02*
G37*
G36*
X10215247Y10099971D02*
Y10083492D01*
X10226860D01*
Y10087476D01*
X10226429Y10090745D01*
X10225168Y10093790D01*
X10223161Y10096406D01*
X10220546Y10098412D01*
X10217501Y10099674D01*
X10215247Y10099971D01*
D02*
G37*
G36*
X10213215Y10099970D02*
X10210964Y10099674D01*
X10207918Y10098412D01*
X10205303Y10096406D01*
X10203296Y10093790D01*
X10202034Y10090745D01*
X10201604Y10087476D01*
Y10083492D01*
X10213215D01*
Y10099970D01*
D02*
G37*
G36*
X10093217Y10099971D02*
X10090964Y10099674D01*
X10087918Y10098412D01*
X10085303Y10096406D01*
X10083296Y10093790D01*
X10082034Y10090745D01*
X10081604Y10087476D01*
Y10083492D01*
X10093217D01*
Y10099971D01*
D02*
G37*
G36*
X10047081Y10089930D02*
X10042081D01*
X10039791Y10089628D01*
X10037657Y10088745D01*
X10035826Y10087339D01*
X10034420Y10085507D01*
X10033536Y10083373D01*
X10033235Y10081085D01*
X10033536Y10078795D01*
X10034420Y10076661D01*
X10035826Y10074830D01*
X10037657Y10073423D01*
X10039791Y10072540D01*
X10042081Y10072239D01*
X10047081D01*
X10049370Y10072540D01*
X10051503Y10073423D01*
X10053336Y10074830D01*
X10054741Y10076661D01*
X10055625Y10078795D01*
X10055926Y10081085D01*
X10055625Y10083373D01*
X10054741Y10085507D01*
X10053336Y10087339D01*
X10051503Y10088745D01*
X10049370Y10089628D01*
X10047081Y10089930D01*
D02*
G37*
G36*
X10068080Y10076628D02*
X10066609Y10076335D01*
X10065363Y10075502D01*
X10064529Y10074255D01*
X10064236Y10072784D01*
X10064529Y10071313D01*
X10065363Y10070067D01*
X10066609Y10069233D01*
X10068080Y10068940D01*
X10069551Y10069233D01*
X10070798Y10070067D01*
X10071631Y10071313D01*
X10071924Y10072784D01*
X10071631Y10074255D01*
X10070798Y10075502D01*
X10069551Y10076335D01*
X10068080Y10076628D01*
D02*
G37*
G36*
X10110107Y10068026D02*
X10109639D01*
Y10065667D01*
X10111498D01*
Y10066635D01*
X10111091Y10067618D01*
X10110107Y10068026D01*
D02*
G37*
G36*
X10107607D02*
X10107137D01*
X10106154Y10067618D01*
X10105746Y10066635D01*
Y10065667D01*
X10107607D01*
Y10068026D01*
D02*
G37*
G36*
X10213215Y10081460D02*
X10201604D01*
Y10077476D01*
X10202034Y10074208D01*
X10203296Y10071162D01*
X10205303Y10068547D01*
X10207918Y10066540D01*
X10210964Y10065278D01*
X10213215Y10064982D01*
Y10081460D01*
D02*
G37*
G36*
X10106860D02*
X10095248D01*
Y10064982D01*
X10097501Y10065278D01*
X10100546Y10066540D01*
X10103161Y10068547D01*
X10105168Y10071162D01*
X10106429Y10074208D01*
X10106860Y10077476D01*
Y10081460D01*
D02*
G37*
G36*
X10093217D02*
X10081604D01*
Y10077476D01*
X10082034Y10074208D01*
X10083296Y10071162D01*
X10085303Y10068547D01*
X10087918Y10066540D01*
X10090964Y10065278D01*
X10093217Y10064982D01*
Y10081460D01*
D02*
G37*
G36*
X10226860D02*
X10215247D01*
Y10064982D01*
X10217501Y10065278D01*
X10220546Y10066540D01*
X10223161Y10068547D01*
X10225168Y10071162D01*
X10226429Y10074208D01*
X10226860Y10077476D01*
Y10081460D01*
D02*
G37*
G36*
X10111498Y10063635D02*
X10109639D01*
Y10061274D01*
X10110107D01*
X10111091Y10061682D01*
X10111498Y10062665D01*
Y10063635D01*
D02*
G37*
G36*
X10107607D02*
X10105746D01*
Y10062665D01*
X10106154Y10061682D01*
X10107137Y10061274D01*
X10107607D01*
Y10063635D01*
D02*
G37*
G36*
X10057328Y10058970D02*
X10056358D01*
Y10057110D01*
X10058718D01*
Y10057579D01*
X10058311Y10058562D01*
X10057328Y10058970D01*
D02*
G37*
G36*
X10054326D02*
X10053358D01*
X10052374Y10058562D01*
X10051967Y10057579D01*
Y10057110D01*
X10054326D01*
Y10058970D01*
D02*
G37*
G36*
X10104354Y10146191D02*
X10097424D01*
X10096425Y10145778D01*
X10096011Y10144779D01*
Y10136849D01*
X10096425Y10135850D01*
X10097424Y10135436D01*
X10098817D01*
Y10131854D01*
X10096919D01*
X10095923Y10131442D01*
X10095511Y10130447D01*
Y10124507D01*
X10095923Y10123513D01*
X10096919Y10123101D01*
X10104858D01*
X10105854Y10123513D01*
X10106266Y10124507D01*
Y10125406D01*
X10117046D01*
X10124727Y10117725D01*
Y10107590D01*
X10124727Y10107590D01*
X10124727Y10107590D01*
Y10104734D01*
X10119678Y10099685D01*
X10119229Y10099013D01*
X10119130Y10098519D01*
X10109605D01*
X10108600Y10098102D01*
X10108184Y10097098D01*
Y10088683D01*
X10108600Y10087678D01*
X10109605Y10087262D01*
X10112775D01*
Y10064467D01*
X10112775Y10064467D01*
X10112932Y10063674D01*
X10113381Y10063002D01*
X10117383Y10059001D01*
X10117383Y10059001D01*
X10118055Y10058552D01*
X10118848Y10058394D01*
X10118848Y10058394D01*
X10125526D01*
X10125717Y10058109D01*
X10125746Y10056816D01*
X10124865Y10055908D01*
X10111498D01*
Y10057135D01*
X10111091Y10058119D01*
X10110107Y10058526D01*
X10107137D01*
X10106154Y10058119D01*
X10105865Y10057420D01*
X10104935Y10057166D01*
X10104496Y10057183D01*
X10103987Y10057944D01*
X10102244Y10059109D01*
X10100187Y10059518D01*
X10098131Y10059109D01*
X10096388Y10057944D01*
X10095223Y10056201D01*
X10094814Y10054145D01*
X10095223Y10052089D01*
X10096388Y10050345D01*
X10098131Y10049181D01*
X10100187Y10048772D01*
X10102244Y10049181D01*
X10103987Y10050345D01*
X10104972Y10051819D01*
X10105839Y10052085D01*
X10106395Y10052082D01*
X10107137Y10051774D01*
X10110107D01*
X10110709Y10052023D01*
X10125439D01*
X10125717Y10051608D01*
X10125746Y10050316D01*
X10124865Y10049408D01*
X10120991D01*
X10120574Y10049581D01*
X10112645D01*
X10112228Y10049408D01*
X10106287D01*
X10105544Y10049260D01*
X10104914Y10048839D01*
X10103555Y10047480D01*
X10093015D01*
X10092826Y10047559D01*
X10092318D01*
X10092291Y10047690D01*
X10091870Y10048320D01*
X10091870Y10048320D01*
X10091312Y10048878D01*
X10091436Y10050142D01*
X10091851Y10050419D01*
X10093016Y10052162D01*
X10093425Y10054219D01*
X10093016Y10056275D01*
X10091851Y10058018D01*
X10090108Y10059183D01*
X10088052Y10059592D01*
X10085995Y10059183D01*
X10084252Y10058018D01*
X10083088Y10056275D01*
X10082678Y10054219D01*
X10083088Y10052162D01*
X10084252Y10050419D01*
X10085995Y10049255D01*
X10086143Y10049225D01*
X10086257Y10048649D01*
X10086678Y10048018D01*
X10088484Y10046213D01*
X10088466Y10046168D01*
Y10042198D01*
X10088873Y10041215D01*
X10089856Y10040807D01*
X10092826D01*
X10093810Y10041215D01*
X10094217Y10042198D01*
Y10043596D01*
X10104360D01*
X10105103Y10043744D01*
X10105733Y10044165D01*
X10107092Y10045524D01*
X10111232D01*
Y10041238D01*
X10111646Y10040239D01*
X10112645Y10039825D01*
X10120574D01*
X10121573Y10040239D01*
X10121987Y10041238D01*
Y10045524D01*
X10125439D01*
X10125717Y10045108D01*
X10125909Y10044979D01*
Y10043452D01*
X10125717Y10043323D01*
X10124994Y10042242D01*
X10124740Y10040966D01*
X10124994Y10039690D01*
X10125717Y10038608D01*
X10125909Y10038480D01*
Y10036952D01*
X10125717Y10036823D01*
X10124994Y10035742D01*
X10124740Y10034466D01*
X10124994Y10033190D01*
X10125717Y10032108D01*
X10126798Y10031385D01*
X10128074Y10031132D01*
X10135574D01*
X10136850Y10031385D01*
X10137932Y10032108D01*
X10138209Y10032523D01*
X10149491D01*
X10150234Y10032672D01*
X10150864Y10033092D01*
X10167000Y10049228D01*
X10167421Y10049858D01*
X10167569Y10050602D01*
Y10090200D01*
X10167421Y10090943D01*
X10167000Y10091573D01*
X10159695Y10098878D01*
Y10101211D01*
X10167026D01*
X10168036Y10101630D01*
X10168455Y10102640D01*
Y10112540D01*
X10168036Y10113550D01*
X10167026Y10113969D01*
X10157126D01*
X10156116Y10113550D01*
X10155698Y10112540D01*
Y10102640D01*
X10155811Y10102368D01*
Y10098074D01*
X10155958Y10097330D01*
X10156379Y10096700D01*
X10163684Y10089395D01*
Y10051406D01*
X10148686Y10036408D01*
X10138209D01*
X10137932Y10036823D01*
X10137902Y10038116D01*
X10138784Y10039023D01*
X10144568D01*
X10145311Y10039171D01*
X10145941Y10039592D01*
X10161728Y10055380D01*
X10162149Y10056010D01*
X10162297Y10056753D01*
Y10064501D01*
X10162149Y10065244D01*
X10161728Y10065874D01*
X10154113Y10073489D01*
Y10116061D01*
X10154113Y10116061D01*
X10153965Y10116804D01*
X10153544Y10117434D01*
X10143021Y10127958D01*
X10143055Y10128040D01*
Y10137939D01*
X10142637Y10138950D01*
X10141627Y10139368D01*
X10131727D01*
X10130716Y10138950D01*
X10130298Y10137939D01*
Y10128040D01*
X10130716Y10127029D01*
X10131727Y10126611D01*
X10139214D01*
X10139247Y10126447D01*
X10139668Y10125817D01*
X10150229Y10115256D01*
Y10072684D01*
X10150377Y10071941D01*
X10150798Y10071310D01*
X10158412Y10063696D01*
Y10057557D01*
X10143763Y10042908D01*
X10138209D01*
X10137932Y10043323D01*
X10137739Y10043452D01*
Y10044979D01*
X10137932Y10045108D01*
X10138654Y10046190D01*
X10138908Y10047466D01*
X10138654Y10048741D01*
X10137932Y10049823D01*
X10137739Y10049952D01*
Y10051479D01*
X10137932Y10051608D01*
X10138654Y10052690D01*
X10138908Y10053966D01*
X10138654Y10055242D01*
X10137932Y10056323D01*
X10138041Y10057589D01*
X10138837Y10058394D01*
X10146823D01*
X10147977Y10056666D01*
X10149720Y10055502D01*
X10151777Y10055093D01*
X10153833Y10055502D01*
X10155576Y10056666D01*
X10156741Y10058409D01*
X10157150Y10060466D01*
X10156741Y10062522D01*
X10155576Y10064265D01*
X10153833Y10065430D01*
X10151777Y10065839D01*
X10149720Y10065430D01*
X10147977Y10064265D01*
X10146823Y10062538D01*
X10138123D01*
X10137932Y10062823D01*
X10137739Y10062952D01*
Y10064479D01*
X10137932Y10064608D01*
X10138654Y10065690D01*
X10138706Y10065950D01*
X10131824D01*
X10124942D01*
X10124994Y10065690D01*
X10125717Y10064608D01*
X10125607Y10063343D01*
X10124811Y10062538D01*
X10119706D01*
X10116918Y10065325D01*
Y10087262D01*
X10122020D01*
X10123025Y10087678D01*
X10123441Y10088683D01*
Y10097098D01*
X10123297Y10097445D01*
X10128264Y10102411D01*
X10128264Y10102411D01*
X10128713Y10103083D01*
X10128871Y10103876D01*
X10128870Y10103877D01*
Y10105518D01*
X10130298D01*
Y10102640D01*
X10130716Y10101630D01*
X10131727Y10101211D01*
X10141627D01*
X10142637Y10101630D01*
X10143055Y10102640D01*
Y10112540D01*
X10142637Y10113550D01*
X10141627Y10113969D01*
X10131727D01*
X10130716Y10113550D01*
X10130298Y10112540D01*
Y10109661D01*
X10128870D01*
Y10118583D01*
X10128713Y10119376D01*
X10128264Y10120048D01*
X10128264Y10120048D01*
X10119370Y10128942D01*
X10118697Y10129391D01*
X10117904Y10129549D01*
X10117904Y10129549D01*
X10106266D01*
Y10130447D01*
X10105854Y10131442D01*
X10104858Y10131854D01*
X10102960D01*
Y10135436D01*
X10104354D01*
X10105353Y10135850D01*
X10105766Y10136849D01*
Y10144779D01*
X10105353Y10145778D01*
X10104354Y10146191D01*
D02*
G37*
G36*
X10058718Y10055078D02*
X10056358D01*
Y10053218D01*
X10057328D01*
X10058311Y10053625D01*
X10058718Y10054609D01*
Y10055078D01*
D02*
G37*
G36*
X10054326D02*
X10051967D01*
Y10054609D01*
X10052374Y10053625D01*
X10053358Y10053218D01*
X10054326D01*
Y10055078D01*
D02*
G37*
G36*
X10092826Y10038059D02*
X10092357D01*
Y10035699D01*
X10094217D01*
Y10036668D01*
X10093810Y10037651D01*
X10092826Y10038059D01*
D02*
G37*
G36*
X10090325D02*
X10089856D01*
X10088873Y10037651D01*
X10088466Y10036668D01*
Y10035699D01*
X10090325D01*
Y10038059D01*
D02*
G37*
G36*
X10094217Y10033667D02*
X10092357D01*
Y10031307D01*
X10092826D01*
X10093810Y10031714D01*
X10094217Y10032698D01*
Y10033667D01*
D02*
G37*
G36*
X10090325D02*
X10088466D01*
Y10032698D01*
X10088873Y10031714D01*
X10089856Y10031307D01*
X10090325D01*
Y10033667D01*
D02*
G37*
G36*
X10068080Y10036628D02*
X10066609Y10036335D01*
X10065363Y10035502D01*
X10064529Y10034255D01*
X10064236Y10032784D01*
X10064529Y10031313D01*
X10065363Y10030067D01*
X10066609Y10029233D01*
X10068080Y10028940D01*
X10069551Y10029233D01*
X10070798Y10030067D01*
X10071631Y10031313D01*
X10071924Y10032784D01*
X10071631Y10034255D01*
X10070798Y10035502D01*
X10069551Y10036335D01*
X10068080Y10036628D01*
D02*
G37*
G36*
X10223069Y10028658D02*
X10219868D01*
Y10025047D01*
X10224479D01*
Y10027249D01*
X10224066Y10028245D01*
X10223069Y10028658D01*
D02*
G37*
G36*
X10217836D02*
X10214634D01*
X10213637Y10028245D01*
X10213224Y10027249D01*
Y10025047D01*
X10217836D01*
Y10028658D01*
D02*
G37*
G36*
X10088936Y10028276D02*
X10086734D01*
Y10023664D01*
X10090345D01*
Y10026866D01*
X10089933Y10027863D01*
X10088936Y10028276D01*
D02*
G37*
G36*
X10084702D02*
X10082501D01*
X10081504Y10027863D01*
X10081091Y10026866D01*
Y10023664D01*
X10084702D01*
Y10028276D01*
D02*
G37*
G36*
X10224479Y10023015D02*
X10219868D01*
Y10019404D01*
X10223069D01*
X10224066Y10019816D01*
X10224479Y10020814D01*
Y10023015D01*
D02*
G37*
G36*
X10217836D02*
X10213224D01*
Y10020814D01*
X10213637Y10019816D01*
X10214634Y10019404D01*
X10217836D01*
Y10023015D01*
D02*
G37*
G36*
X10090345Y10021632D02*
X10086734D01*
Y10017021D01*
X10088936D01*
X10089933Y10017434D01*
X10090345Y10018431D01*
Y10021632D01*
D02*
G37*
G36*
X10084702D02*
X10081091D01*
Y10018431D01*
X10081504Y10017434D01*
X10082501Y10017021D01*
X10084702D01*
Y10021632D01*
D02*
G37*
G36*
X10047081Y10033330D02*
X10042081D01*
X10039791Y10033029D01*
X10037657Y10032145D01*
X10035826Y10030739D01*
X10034420Y10028907D01*
X10033536Y10026774D01*
X10033235Y10024484D01*
X10033536Y10022195D01*
X10034420Y10020062D01*
X10035826Y10018229D01*
X10037657Y10016824D01*
X10039791Y10015940D01*
X10042081Y10015638D01*
X10047081D01*
X10049370Y10015940D01*
X10051503Y10016824D01*
X10053336Y10018229D01*
X10054741Y10020062D01*
X10055625Y10022195D01*
X10055926Y10024484D01*
X10055625Y10026774D01*
X10054741Y10028907D01*
X10053336Y10030739D01*
X10051503Y10032145D01*
X10049370Y10033029D01*
X10047081Y10033330D01*
D02*
G37*
G36*
X10209069Y10012775D02*
X10205867D01*
Y10009164D01*
X10210478D01*
Y10011366D01*
X10210065Y10012363D01*
X10209069Y10012775D01*
D02*
G37*
G36*
X10203835D02*
X10200634D01*
X10199636Y10012363D01*
X10199224Y10011366D01*
Y10009164D01*
X10203835D01*
Y10012775D01*
D02*
G37*
G36*
X10156232Y10014304D02*
X10155249D01*
Y10008493D01*
X10162927D01*
X10162828Y10009244D01*
X10162145Y10010891D01*
X10161060Y10012305D01*
X10159646Y10013390D01*
X10157999Y10014072D01*
X10156232Y10014304D01*
D02*
G37*
G36*
X10153217D02*
X10152232D01*
X10150464Y10014072D01*
X10148818Y10013390D01*
X10147404Y10012305D01*
X10146318Y10010891D01*
X10145636Y10009244D01*
X10145537Y10008493D01*
X10153217D01*
Y10014304D01*
D02*
G37*
G36*
X10210478Y10007132D02*
X10205867D01*
Y10003521D01*
X10209069D01*
X10210065Y10003934D01*
X10210478Y10004930D01*
Y10007132D01*
D02*
G37*
G36*
X10203835D02*
X10199224D01*
Y10004930D01*
X10199636Y10003934D01*
X10200634Y10003521D01*
X10203835D01*
Y10007132D01*
D02*
G37*
%LPD*%
D10*
X10075923Y10099819D02*
D03*
X10057923D02*
D03*
D11*
X10115812Y10110891D02*
D03*
Y10092891D02*
D03*
D12*
X10131824Y10092966D02*
D03*
Y10086466D02*
D03*
Y10079966D02*
D03*
Y10073466D02*
D03*
Y10066966D02*
D03*
Y10060466D02*
D03*
Y10053966D02*
D03*
Y10047466D02*
D03*
Y10040966D02*
D03*
Y10034466D02*
D03*
X10187824Y10092966D02*
D03*
Y10086466D02*
D03*
Y10079966D02*
D03*
Y10073466D02*
D03*
Y10066966D02*
D03*
Y10060466D02*
D03*
Y10053966D02*
D03*
Y10047466D02*
D03*
Y10040966D02*
D03*
Y10034466D02*
D03*
D13*
X10100889Y10108477D02*
D03*
Y10127477D02*
D03*
X10078889Y10117977D02*
D03*
D14*
X10045843Y10056094D02*
D03*
X10055342D02*
D03*
D15*
X10091341Y10044183D02*
D03*
Y10034683D02*
D03*
X10108622Y10055150D02*
D03*
Y10064650D02*
D03*
D16*
X10217408Y10110172D02*
D03*
X10202908D02*
D03*
X10100218Y10022648D02*
D03*
X10085718D02*
D03*
D17*
X10202908Y10125441D02*
D03*
X10216909D02*
D03*
X10190692Y10022648D02*
D03*
X10176692D02*
D03*
X10086888Y10140814D02*
D03*
X10100889D02*
D03*
X10114218Y10010016D02*
D03*
X10100218D02*
D03*
X10221392Y10051755D02*
D03*
X10207391D02*
D03*
D18*
X10204851Y10022648D02*
D03*
Y10008148D02*
D03*
X10218851Y10038531D02*
D03*
X10218851Y10024031D02*
D03*
D19*
X10116609Y10030703D02*
D03*
Y10044703D02*
D03*
D20*
X10160355Y10056753D02*
Y10064501D01*
X10152171Y10072684D02*
Y10116061D01*
Y10072684D02*
X10160355Y10064501D01*
X10165627Y10050602D02*
Y10090200D01*
X10157753Y10098074D02*
Y10103266D01*
Y10098074D02*
X10165627Y10090200D01*
X10176692Y10022648D02*
X10178694Y10020646D01*
Y10008013D02*
Y10020646D01*
Y10008013D02*
X10179232Y10007476D01*
X10190692Y10022648D02*
X10204851D01*
X10187862Y10025478D02*
X10190692Y10022648D01*
X10187824Y10034466D02*
X10187862Y10034428D01*
Y10025478D02*
Y10034428D01*
X10092206Y10045538D02*
X10104360D01*
X10106287Y10047466D02*
X10113847D01*
X10104360Y10045538D02*
X10106287Y10047466D01*
X10113847D02*
X10116609Y10044703D01*
X10091341Y10044673D02*
X10092206Y10045538D01*
X10091341Y10044183D02*
Y10044673D01*
X10180660Y10117791D02*
X10194755D01*
X10202908Y10110172D02*
Y10111107D01*
X10200294Y10113722D02*
X10202908Y10111107D01*
X10198824Y10113722D02*
X10200294D01*
X10194755Y10117791D02*
X10198824Y10113722D01*
X10214078Y10120723D02*
Y10122612D01*
X10207142Y10113787D02*
X10214078Y10120723D01*
X10205524Y10113787D02*
X10207142D01*
X10214078Y10122612D02*
X10216909Y10125441D01*
X10202908Y10111171D02*
X10205524Y10113787D01*
X10198276Y10070085D02*
Y10098642D01*
X10191705Y10103361D02*
X10193557D01*
X10198276Y10098642D01*
X10187476Y10107590D02*
X10191705Y10103361D01*
X10221392Y10041145D02*
Y10051755D01*
X10218851Y10038605D02*
X10221392Y10041145D01*
X10218851Y10038531D02*
Y10038605D01*
X10216237Y10041145D02*
X10218851Y10038531D01*
X10202607Y10041145D02*
X10216237D01*
X10214257Y10060812D02*
X10218530Y10056538D01*
X10207549Y10060812D02*
X10214257D01*
X10218530Y10054615D02*
Y10056538D01*
Y10054615D02*
X10221392Y10051755D01*
X10198276Y10045475D02*
Y10051978D01*
Y10045475D02*
X10202607Y10041145D01*
X10187824Y10053966D02*
X10196288D01*
X10198276Y10051978D01*
Y10070085D02*
X10207549Y10060812D01*
X10122396Y10022648D02*
X10157196D01*
X10175513Y10040966D01*
X10187824D01*
X10059251Y10124125D02*
X10066884Y10131758D01*
Y10135214D02*
X10083776Y10152106D01*
X10066884Y10131758D02*
Y10135214D01*
X10080068Y10134484D02*
Y10135049D01*
X10061324Y10115739D02*
X10080068Y10134484D01*
X10134290Y10118583D02*
X10142144D01*
X10147003Y10113724D01*
Y10098325D02*
Y10113724D01*
X10083776Y10152106D02*
X10105219D01*
X10112130Y10140743D02*
Y10145196D01*
X10105219Y10152106D02*
X10112130Y10145196D01*
X10080068Y10135049D02*
X10082538Y10137519D01*
X10084023D01*
X10086888Y10140384D02*
Y10140814D01*
X10084023Y10137519D02*
X10086888Y10140384D01*
X10056263Y10124125D02*
X10059251D01*
X10112130Y10140743D02*
X10134290Y10118583D01*
X10047409Y10115739D02*
X10047877D01*
X10056263Y10124125D01*
X10141644Y10092966D02*
X10147003Y10098325D01*
X10131824Y10092966D02*
X10141644D01*
X10114218Y10010016D02*
X10116758Y10007476D01*
X10129232D01*
X10141041Y10127191D02*
Y10128625D01*
Y10127191D02*
X10152171Y10116061D01*
X10200778Y10123311D02*
X10202908Y10125441D01*
X10180643Y10123311D02*
X10200778D01*
X10177880Y10126074D02*
Y10156204D01*
Y10126074D02*
X10180643Y10123311D01*
X10177880Y10156204D02*
X10179232Y10157556D01*
X10179362Y10092966D02*
X10187824D01*
X10177780Y10094548D02*
Y10114911D01*
Y10094548D02*
X10179362Y10092966D01*
X10177780Y10114911D02*
X10180660Y10117791D01*
X10100218Y10010016D02*
Y10022648D01*
X10101940Y10020926D01*
X10120673D02*
X10122396Y10022648D01*
X10101940Y10020926D02*
X10120673D01*
X10090497Y10045027D02*
Y10046947D01*
X10088052Y10049391D02*
Y10054219D01*
Y10049391D02*
X10090497Y10046947D01*
X10131824Y10034466D02*
X10149491D01*
X10165627Y10050602D01*
X10119469Y10027844D02*
X10154657D01*
X10174279Y10047466D02*
X10187824D01*
X10154657Y10027844D02*
X10174279Y10047466D01*
X10157753Y10103266D02*
X10162076Y10107590D01*
X10090497Y10045027D02*
X10091341Y10044183D01*
X10131824Y10040966D02*
X10144568D01*
X10160355Y10056753D01*
X10108622Y10054831D02*
Y10055150D01*
Y10054831D02*
X10109487Y10053966D01*
X10131824D01*
X10100187Y10054145D02*
X10107758D01*
X10108622Y10055010D01*
Y10055150D01*
X10116609Y10030703D02*
X10119469Y10027844D01*
X10119118Y10047466D02*
X10131824D01*
X10116609Y10044957D02*
X10119118Y10047466D01*
X10136677Y10132990D02*
X10141041Y10128625D01*
D21*
X10114846Y10091924D02*
X10115812Y10092891D01*
X10114846Y10064467D02*
Y10091924D01*
X10197499Y10060466D02*
X10202972Y10054993D01*
X10204653D01*
X10174210Y10060466D02*
X10197499D01*
X10204653Y10054993D02*
X10207391Y10052255D01*
Y10051755D02*
Y10052255D01*
X10100889Y10127477D02*
Y10140814D01*
X10061411Y10105306D02*
X10063692D01*
X10074125Y10115739D02*
X10076651D01*
X10063692Y10105306D02*
X10074125Y10115739D01*
X10076651D02*
X10078889Y10117977D01*
X10057923Y10101819D02*
X10061411Y10105306D01*
X10057923Y10099819D02*
Y10101819D01*
X10047078Y10063785D02*
X10059869Y10076576D01*
X10057923Y10099819D02*
X10059869Y10097872D01*
Y10076576D02*
Y10097872D01*
X10117904Y10127477D02*
X10126799Y10118583D01*
X10100889Y10127477D02*
X10117904D01*
X10126799Y10107590D02*
Y10118583D01*
X10117654Y10092891D02*
X10121143Y10096378D01*
X10126799Y10103876D02*
Y10107590D01*
X10121143Y10098220D02*
X10126799Y10103876D01*
X10115812Y10092891D02*
X10117654D01*
X10121143Y10096378D02*
Y10098220D01*
X10126799Y10107590D02*
X10136677D01*
X10126799Y10107590D02*
X10126799Y10107590D01*
X10114846Y10064467D02*
X10118848Y10060466D01*
X10047078Y10046423D02*
Y10055356D01*
X10045843Y10056094D02*
X10046340D01*
X10047078Y10046423D02*
X10053716Y10039785D01*
Y10039785D02*
Y10039785D01*
X10047078Y10056832D02*
Y10063785D01*
X10046340Y10056094D02*
X10047078Y10055356D01*
X10046340Y10056094D02*
X10047078Y10056832D01*
X10118848Y10060466D02*
X10131824D01*
X10151777D01*
D22*
X10044581Y10081085D02*
D03*
Y10024484D02*
D03*
D23*
X10187476Y10107590D02*
D03*
X10162076D02*
D03*
X10136677D02*
D03*
X10187476Y10132990D02*
D03*
X10136677D02*
D03*
X10162076D02*
D03*
D24*
X10214232Y10082476D02*
D03*
D25*
X10094232D02*
D03*
D26*
X10129232Y10152476D02*
D03*
X10179232D02*
D03*
X10154232Y10007476D02*
D03*
X10129232D02*
D03*
X10179232D02*
D03*
D27*
X10085748Y10101782D02*
D03*
X10100889Y10116795D02*
D03*
X10195409Y10008148D02*
D03*
X10085718Y10013118D02*
D03*
X10055439Y10049109D02*
D03*
X10120878Y10066966D02*
D03*
X10055342Y10063311D02*
D03*
X10098417Y10034683D02*
D03*
X10107143D02*
D03*
X10218845Y10015436D02*
D03*
X10115812Y10120586D02*
D03*
X10142632Y10066966D02*
D03*
X10101825Y10063285D02*
D03*
D28*
X10061070Y10115485D02*
D03*
X10047409Y10115739D02*
D03*
X10088052Y10054219D02*
D03*
X10100187Y10054145D02*
D03*
X10053716Y10039785D02*
D03*
X10174210Y10060466D02*
D03*
X10151777D02*
D03*
%TF.MD5,bc259973927db49803e22492f07a979a*%
M02*
