%TF.GenerationSoftware,Altium Limited,Altium Designer,20.1.8 (145)*%
G04 Layer_Color=65535*
%FSLAX44Y44*%
%MOMM*%
%TF.SameCoordinates,E4642572-F947-42A3-9A2D-1DA0FD0549A1*%
%TF.FilePolarity,Positive*%
%TF.FileFunction,Legend,Top*%
%TF.Part,Single*%
G01*
G75*
%TA.AperFunction,NonConductor*%
%ADD32C,0.1000*%
%ADD33C,0.1016*%
%ADD45C,0.2500*%
%ADD46C,0.2032*%
D32*
X10045342Y10059832D02*
G03*
X10045342Y10059832I-500J0D01*
G01*
X10095579Y10045183D02*
G03*
X10095579Y10045183I-500J0D01*
G01*
X10105385Y10054150D02*
G03*
X10105385Y10054150I-500J0D01*
G01*
D33*
X10068173Y10096069D02*
Y10103569D01*
X10065673Y10096069D02*
Y10103569D01*
X10068173Y10099819D02*
X10069923D01*
X10063923D02*
X10065673D01*
X10112062Y10103140D02*
X10119562D01*
X10112062Y10100640D02*
X10119562D01*
X10115812Y10103140D02*
Y10104890D01*
Y10098890D02*
Y10100640D01*
X10141574Y10096216D02*
X10178074D01*
X10141574Y10031216D02*
Y10096216D01*
Y10031216D02*
X10170974D01*
X10178074Y10038316D01*
Y10096216D01*
X10084889Y10102977D02*
Y10132977D01*
X10092889Y10102977D02*
Y10132977D01*
X10084889Y10102977D02*
X10092889D01*
X10084889Y10132977D02*
X10092889D01*
X10049069Y10056094D02*
X10051863D01*
X10049069D02*
X10050339Y10054824D01*
Y10057110D01*
X10049069Y10056094D02*
X10050339Y10057110D01*
X10091341Y10038163D02*
Y10040957D01*
X10090071Y10039687D02*
X10091341Y10040957D01*
X10090071Y10039687D02*
X10092357D01*
X10091341Y10040957D02*
X10092357Y10039687D01*
X10108622Y10058376D02*
Y10061170D01*
Y10058376D02*
X10109893Y10059646D01*
X10107607D02*
X10109893D01*
X10107607D02*
X10108622Y10058376D01*
X10211409Y10107672D02*
Y10112672D01*
X10208909Y10107672D02*
Y10112672D01*
X10211409Y10110172D02*
X10212659D01*
X10207659Y10110172D02*
X10208909Y10110172D01*
X10207659Y10125441D02*
X10208159Y10127191D01*
X10209158Y10123441D01*
X10210159Y10127191D01*
X10211158Y10123441D01*
X10212158Y10125941D01*
X10094218Y10022648D02*
X10095468D01*
X10090468D02*
X10091718D01*
X10094218Y10020148D02*
Y10025148D01*
X10091718Y10020148D02*
Y10025148D01*
X10185442Y10020898D02*
X10185942Y10022648D01*
X10184442Y10024648D02*
X10185442Y10020898D01*
X10183442D02*
X10184442Y10024648D01*
X10182442D02*
X10183442Y10020898D01*
X10181442Y10022148D02*
X10182442Y10024648D01*
X10202351Y10016648D02*
X10207351D01*
X10202351Y10014148D02*
X10207351D01*
X10204851Y10016648D02*
Y10017898D01*
Y10012898D02*
Y10014148D01*
X10091639Y10140314D02*
X10092639Y10142814D01*
X10093638Y10139064D01*
X10094639Y10142814D01*
X10095638Y10139064D01*
X10096139Y10140814D01*
X10114860Y10035953D02*
X10116609Y10035453D01*
X10114860Y10035953D02*
X10118610Y10036953D01*
X10114860Y10037953D02*
X10118610Y10036953D01*
X10114860Y10037953D02*
X10118610Y10038953D01*
X10116110Y10039953D02*
X10118610Y10038953D01*
X10108468Y10008016D02*
X10109468Y10010516D01*
X10107468Y10011766D02*
X10108468Y10008016D01*
X10106468D02*
X10107468Y10011766D01*
X10105468Y10011766D02*
X10106468Y10008016D01*
X10104968Y10010016D02*
X10105468Y10011766D01*
X10218851Y10032531D02*
Y10033781D01*
Y10028781D02*
Y10030031D01*
X10216351Y10032531D02*
X10221351D01*
X10216351Y10030031D02*
X10221351D01*
X10215641Y10049755D02*
X10216641Y10052255D01*
X10214641Y10053505D02*
X10215641Y10049755D01*
X10213641Y10049755D02*
X10214641Y10053505D01*
X10212642Y10053505D02*
X10213641Y10049755D01*
X10212141Y10051755D02*
X10212642Y10053505D01*
D45*
X10178914Y10032286D02*
G03*
X10178914Y10032286I-1250J0D01*
G01*
D46*
X10194919Y10149069D02*
X10193253Y10150735D01*
X10189920D01*
X10188254Y10149069D01*
Y10142404D01*
X10189920Y10140738D01*
X10193253D01*
X10194919Y10142404D01*
Y10145737D01*
X10191586D01*
X10165409Y10123458D02*
X10163743Y10125125D01*
X10160410D01*
X10158745Y10123458D01*
Y10116794D01*
X10160410Y10115128D01*
X10163743D01*
X10165409Y10116794D01*
X10138773Y10151231D02*
Y10141234D01*
X10143771D01*
X10145437Y10142900D01*
Y10149565D01*
X10143771Y10151231D01*
X10138773D01*
X10184144Y10115128D02*
Y10125125D01*
X10189142D01*
X10190809Y10123458D01*
Y10120126D01*
X10189142Y10118460D01*
X10184144D01*
X10187476D02*
X10190809Y10115128D01*
X10133344Y10125125D02*
Y10118460D01*
X10136677Y10115128D01*
X10140009Y10118460D01*
Y10125125D01*
X10165409Y10148981D02*
X10163743Y10150648D01*
X10160410D01*
X10158745Y10148981D01*
Y10142317D01*
X10160410Y10140651D01*
X10163743D01*
X10165409Y10142317D01*
Y10145649D01*
X10162076D01*
%TF.MD5,1b988e2a6c049a7ceccf2b150187ecda*%
M02*
