%TF.GenerationSoftware,Altium Limited,Altium Designer,20.1.8 (145)*%
G04 Layer_Color=37055*
%FSLAX44Y44*%
%MOMM*%
%TF.SameCoordinates,E4642572-F947-42A3-9A2D-1DA0FD0549A1*%
%TF.FilePolarity,Negative*%
%TF.FileFunction,Soldermask,Top*%
%TF.Part,Single*%
G01*
G75*
%TA.AperFunction,ComponentPad*%
%ADD38C,0.5000*%
%ADD39O,2.1000X1.6000*%
G04:AMPARAMS|DCode=40|XSize=1.1mm|YSize=1.1mm|CornerRadius=0.055mm|HoleSize=0mm|Usage=FLASHONLY|Rotation=0.000|XOffset=0mm|YOffset=0mm|HoleType=Round|Shape=RoundedRectangle|*
%AMROUNDEDRECTD40*
21,1,1.1000,0.9900,0,0,0.0*
21,1,0.9900,1.1000,0,0,0.0*
1,1,0.1100,0.4950,-0.4950*
1,1,0.1100,-0.4950,-0.4950*
1,1,0.1100,-0.4950,0.4950*
1,1,0.1100,0.4950,0.4950*
%
%ADD40ROUNDEDRECTD40*%
G04:AMPARAMS|DCode=41|XSize=2.35mm|YSize=3.35mm|CornerRadius=1.175mm|HoleSize=0mm|Usage=FLASHONLY|Rotation=180.000|XOffset=0mm|YOffset=0mm|HoleType=Round|Shape=RoundedRectangle|*
%AMROUNDEDRECTD41*
21,1,2.3500,1.0000,0,0,180.0*
21,1,0.0000,3.3500,0,0,180.0*
1,1,2.3500,0.0000,0.5000*
1,1,2.3500,0.0000,0.5000*
1,1,2.3500,0.0000,-0.5000*
1,1,2.3500,0.0000,-0.5000*
%
%ADD41ROUNDEDRECTD41*%
%ADD42O,2.3500X3.3500*%
%ADD43O,1.6000X1.2000*%
%TA.AperFunction,WasherPad*%
%ADD44C,2.5000*%
%TA.AperFunction,SMDPad,CuDef*%
G04:AMPARAMS|DCode=47|XSize=1.35mm|YSize=0.95mm|CornerRadius=0.0543mm|HoleSize=0mm|Usage=FLASHONLY|Rotation=270.000|XOffset=0mm|YOffset=0mm|HoleType=Round|Shape=RoundedRectangle|*
%AMROUNDEDRECTD47*
21,1,1.3500,0.8415,0,0,270.0*
21,1,1.2415,0.9500,0,0,270.0*
1,1,0.1085,-0.4208,-0.6208*
1,1,0.1085,-0.4208,0.6208*
1,1,0.1085,0.4208,0.6208*
1,1,0.1085,0.4208,-0.6208*
%
%ADD47ROUNDEDRECTD47*%
G04:AMPARAMS|DCode=48|XSize=1.35mm|YSize=0.95mm|CornerRadius=0.0543mm|HoleSize=0mm|Usage=FLASHONLY|Rotation=0.000|XOffset=0mm|YOffset=0mm|HoleType=Round|Shape=RoundedRectangle|*
%AMROUNDEDRECTD48*
21,1,1.3500,0.8415,0,0,0.0*
21,1,1.2415,0.9500,0,0,0.0*
1,1,0.1085,0.6208,-0.4208*
1,1,0.1085,-0.6208,-0.4208*
1,1,0.1085,-0.6208,0.4208*
1,1,0.1085,0.6208,0.4208*
%
%ADD48ROUNDEDRECTD48*%
%ADD49O,1.2500X0.5000*%
G04:AMPARAMS|DCode=50|XSize=0.7mm|YSize=0.9mm|CornerRadius=0.053mm|HoleSize=0mm|Usage=FLASHONLY|Rotation=270.000|XOffset=0mm|YOffset=0mm|HoleType=Round|Shape=RoundedRectangle|*
%AMROUNDEDRECTD50*
21,1,0.7000,0.7940,0,0,270.0*
21,1,0.5940,0.9000,0,0,270.0*
1,1,0.1060,-0.3970,-0.2970*
1,1,0.1060,-0.3970,0.2970*
1,1,0.1060,0.3970,0.2970*
1,1,0.1060,0.3970,-0.2970*
%
%ADD50ROUNDEDRECTD50*%
G04:AMPARAMS|DCode=51|XSize=0.4mm|YSize=0.5mm|CornerRadius=0.0515mm|HoleSize=0mm|Usage=FLASHONLY|Rotation=90.000|XOffset=0mm|YOffset=0mm|HoleType=Round|Shape=RoundedRectangle|*
%AMROUNDEDRECTD51*
21,1,0.4000,0.3970,0,0,90.0*
21,1,0.2970,0.5000,0,0,90.0*
1,1,0.1030,0.1985,0.1485*
1,1,0.1030,0.1985,-0.1485*
1,1,0.1030,-0.1985,-0.1485*
1,1,0.1030,-0.1985,0.1485*
%
%ADD51ROUNDEDRECTD51*%
G04:AMPARAMS|DCode=52|XSize=0.4mm|YSize=0.5mm|CornerRadius=0.0515mm|HoleSize=0mm|Usage=FLASHONLY|Rotation=0.000|XOffset=0mm|YOffset=0mm|HoleType=Round|Shape=RoundedRectangle|*
%AMROUNDEDRECTD52*
21,1,0.4000,0.3970,0,0,0.0*
21,1,0.2970,0.5000,0,0,0.0*
1,1,0.1030,0.1485,-0.1985*
1,1,0.1030,-0.1485,-0.1985*
1,1,0.1030,-0.1485,0.1985*
1,1,0.1030,0.1485,0.1985*
%
%ADD52ROUNDEDRECTD52*%
G04:AMPARAMS|DCode=53|XSize=0.95mm|YSize=0.75mm|CornerRadius=0.0533mm|HoleSize=0mm|Usage=FLASHONLY|Rotation=270.000|XOffset=0mm|YOffset=0mm|HoleType=Round|Shape=RoundedRectangle|*
%AMROUNDEDRECTD53*
21,1,0.9500,0.6435,0,0,270.0*
21,1,0.8435,0.7500,0,0,270.0*
1,1,0.1065,-0.3218,-0.4218*
1,1,0.1065,-0.3218,0.4218*
1,1,0.1065,0.3218,0.4218*
1,1,0.1065,0.3218,-0.4218*
%
%ADD53ROUNDEDRECTD53*%
G04:AMPARAMS|DCode=54|XSize=0.9mm|YSize=0.8mm|CornerRadius=0.0535mm|HoleSize=0mm|Usage=FLASHONLY|Rotation=270.000|XOffset=0mm|YOffset=0mm|HoleType=Round|Shape=RoundedRectangle|*
%AMROUNDEDRECTD54*
21,1,0.9000,0.6930,0,0,270.0*
21,1,0.7930,0.8000,0,0,270.0*
1,1,0.1070,-0.3465,-0.3965*
1,1,0.1070,-0.3465,0.3965*
1,1,0.1070,0.3465,0.3965*
1,1,0.1070,0.3465,-0.3965*
%
%ADD54ROUNDEDRECTD54*%
G04:AMPARAMS|DCode=55|XSize=0.95mm|YSize=0.75mm|CornerRadius=0.0533mm|HoleSize=0mm|Usage=FLASHONLY|Rotation=0.000|XOffset=0mm|YOffset=0mm|HoleType=Round|Shape=RoundedRectangle|*
%AMROUNDEDRECTD55*
21,1,0.9500,0.6435,0,0,0.0*
21,1,0.8435,0.7500,0,0,0.0*
1,1,0.1065,0.4218,-0.3218*
1,1,0.1065,-0.4218,-0.3218*
1,1,0.1065,-0.4218,0.3218*
1,1,0.1065,0.4218,0.3218*
%
%ADD55ROUNDEDRECTD55*%
G04:AMPARAMS|DCode=56|XSize=0.9mm|YSize=0.8mm|CornerRadius=0.0535mm|HoleSize=0mm|Usage=FLASHONLY|Rotation=0.000|XOffset=0mm|YOffset=0mm|HoleType=Round|Shape=RoundedRectangle|*
%AMROUNDEDRECTD56*
21,1,0.9000,0.6930,0,0,0.0*
21,1,0.7930,0.8000,0,0,0.0*
1,1,0.1070,0.3965,-0.3465*
1,1,0.1070,-0.3965,-0.3465*
1,1,0.1070,-0.3965,0.3465*
1,1,0.1070,0.3965,0.3465*
%
%ADD56ROUNDEDRECTD56*%
D38*
X10068080Y10032784D02*
D03*
Y10072784D02*
D03*
D39*
X10044581Y10081085D02*
D03*
Y10024484D02*
D03*
D40*
X10187476Y10107590D02*
D03*
X10162076D02*
D03*
X10136677D02*
D03*
X10187476Y10132990D02*
D03*
X10136677D02*
D03*
X10162076D02*
D03*
D41*
X10214232Y10082476D02*
D03*
D42*
X10094232D02*
D03*
D43*
X10129232Y10152476D02*
D03*
X10179232D02*
D03*
X10154232Y10007476D02*
D03*
X10129232D02*
D03*
X10179232D02*
D03*
D44*
X10050000Y10140000D02*
D03*
D47*
X10075923Y10099819D02*
D03*
X10057923D02*
D03*
D48*
X10115812Y10110891D02*
D03*
Y10092891D02*
D03*
D49*
X10131824Y10092966D02*
D03*
Y10086466D02*
D03*
Y10079966D02*
D03*
Y10073466D02*
D03*
Y10066966D02*
D03*
Y10060466D02*
D03*
Y10053966D02*
D03*
Y10047466D02*
D03*
Y10040966D02*
D03*
Y10034466D02*
D03*
X10187824Y10092966D02*
D03*
Y10086466D02*
D03*
Y10079966D02*
D03*
Y10073466D02*
D03*
Y10066966D02*
D03*
Y10060466D02*
D03*
Y10053966D02*
D03*
Y10047466D02*
D03*
Y10040966D02*
D03*
Y10034466D02*
D03*
D50*
X10100889Y10108477D02*
D03*
Y10127477D02*
D03*
X10078889Y10117977D02*
D03*
D51*
X10045843Y10056094D02*
D03*
X10055342D02*
D03*
D52*
X10091341Y10044183D02*
D03*
Y10034683D02*
D03*
X10108622Y10055150D02*
D03*
Y10064650D02*
D03*
D53*
X10217408Y10110172D02*
D03*
X10202908D02*
D03*
X10100218Y10022648D02*
D03*
X10085718D02*
D03*
D54*
X10202908Y10125441D02*
D03*
X10216909D02*
D03*
X10190692Y10022648D02*
D03*
X10176692D02*
D03*
X10086888Y10140814D02*
D03*
X10100889D02*
D03*
X10114218Y10010016D02*
D03*
X10100218D02*
D03*
X10221392Y10051755D02*
D03*
X10207391D02*
D03*
D55*
X10204851Y10022648D02*
D03*
Y10008148D02*
D03*
X10218851Y10038531D02*
D03*
X10218851Y10024031D02*
D03*
D56*
X10116609Y10030703D02*
D03*
Y10044703D02*
D03*
%TF.MD5,0ae3fa50d466bc1148dea9e0f7d60f62*%
M02*
