%TF.GenerationSoftware,Altium Limited,Altium Designer,20.1.8 (145)*%
G04 Layer_Color=417716*
%FSLAX44Y44*%
%MOMM*%
%TF.SameCoordinates,E4642572-F947-42A3-9A2D-1DA0FD0549A1*%
%TF.FilePolarity,Negative*%
%TF.FileFunction,Soldermask,Bot*%
%TF.Part,Single*%
G01*
G75*
%TA.AperFunction,SMDPad,CuDef*%
G04:AMPARAMS|DCode=35|XSize=1mm|YSize=0.8mm|CornerRadius=0.0535mm|HoleSize=0mm|Usage=FLASHONLY|Rotation=90.000|XOffset=0mm|YOffset=0mm|HoleType=Round|Shape=RoundedRectangle|*
%AMROUNDEDRECTD35*
21,1,1.0000,0.6930,0,0,90.0*
21,1,0.8930,0.8000,0,0,90.0*
1,1,0.1070,0.3465,0.4465*
1,1,0.1070,0.3465,-0.4465*
1,1,0.1070,-0.3465,-0.4465*
1,1,0.1070,-0.3465,0.4465*
%
%ADD35ROUNDEDRECTD35*%
G04:AMPARAMS|DCode=36|XSize=2.2mm|YSize=1.7mm|CornerRadius=0.058mm|HoleSize=0mm|Usage=FLASHONLY|Rotation=90.000|XOffset=0mm|YOffset=0mm|HoleType=Round|Shape=RoundedRectangle|*
%AMROUNDEDRECTD36*
21,1,2.2000,1.5840,0,0,90.0*
21,1,2.0840,1.7000,0,0,90.0*
1,1,0.1160,0.7920,1.0420*
1,1,0.1160,0.7920,-1.0420*
1,1,0.1160,-0.7920,-1.0420*
1,1,0.1160,-0.7920,1.0420*
%
%ADD36ROUNDEDRECTD36*%
G04:AMPARAMS|DCode=37|XSize=0.5mm|YSize=2.1mm|CornerRadius=0.052mm|HoleSize=0mm|Usage=FLASHONLY|Rotation=90.000|XOffset=0mm|YOffset=0mm|HoleType=Round|Shape=RoundedRectangle|*
%AMROUNDEDRECTD37*
21,1,0.5000,1.9960,0,0,90.0*
21,1,0.3960,2.1000,0,0,90.0*
1,1,0.1040,0.9980,0.1980*
1,1,0.1040,0.9980,-0.1980*
1,1,0.1040,-0.9980,-0.1980*
1,1,0.1040,-0.9980,0.1980*
%
%ADD37ROUNDEDRECTD37*%
%TA.AperFunction,ComponentPad*%
%ADD38C,0.5000*%
%ADD39O,2.1000X1.6000*%
G04:AMPARAMS|DCode=40|XSize=1.1mm|YSize=1.1mm|CornerRadius=0.055mm|HoleSize=0mm|Usage=FLASHONLY|Rotation=0.000|XOffset=0mm|YOffset=0mm|HoleType=Round|Shape=RoundedRectangle|*
%AMROUNDEDRECTD40*
21,1,1.1000,0.9900,0,0,0.0*
21,1,0.9900,1.1000,0,0,0.0*
1,1,0.1100,0.4950,-0.4950*
1,1,0.1100,-0.4950,-0.4950*
1,1,0.1100,-0.4950,0.4950*
1,1,0.1100,0.4950,0.4950*
%
%ADD40ROUNDEDRECTD40*%
G04:AMPARAMS|DCode=41|XSize=2.35mm|YSize=3.35mm|CornerRadius=1.175mm|HoleSize=0mm|Usage=FLASHONLY|Rotation=180.000|XOffset=0mm|YOffset=0mm|HoleType=Round|Shape=RoundedRectangle|*
%AMROUNDEDRECTD41*
21,1,2.3500,1.0000,0,0,180.0*
21,1,0.0000,3.3500,0,0,180.0*
1,1,2.3500,0.0000,0.5000*
1,1,2.3500,0.0000,0.5000*
1,1,2.3500,0.0000,-0.5000*
1,1,2.3500,0.0000,-0.5000*
%
%ADD41ROUNDEDRECTD41*%
%ADD42O,2.3500X3.3500*%
%ADD43O,1.6000X1.2000*%
%TA.AperFunction,WasherPad*%
%ADD44C,2.5000*%
D35*
X10044570Y10103635D02*
D03*
X10061070D02*
D03*
D36*
X10070081Y10083784D02*
D03*
Y10021784D02*
D03*
D37*
X10070831Y10065784D02*
D03*
Y10059284D02*
D03*
Y10052784D02*
D03*
X10071080Y10039785D02*
D03*
Y10046284D02*
D03*
D38*
X10068080Y10032784D02*
D03*
Y10072784D02*
D03*
D39*
X10044581Y10081085D02*
D03*
Y10024484D02*
D03*
D40*
X10187476Y10107590D02*
D03*
X10162076D02*
D03*
X10136677D02*
D03*
X10187476Y10132990D02*
D03*
X10136677D02*
D03*
X10162076D02*
D03*
D41*
X10214232Y10082476D02*
D03*
D42*
X10094232D02*
D03*
D43*
X10129232Y10152476D02*
D03*
X10179232D02*
D03*
X10154232Y10007476D02*
D03*
X10129232D02*
D03*
X10179232D02*
D03*
D44*
X10050000Y10140000D02*
D03*
%TF.MD5,e336c1a386363f237ee748912a84b523*%
M02*
