%TF.GenerationSoftware,Altium Limited,Altium Designer,20.1.8 (145)*%
G04 Layer_Color=0*
%FSLAX44Y44*%
%MOMM*%
%TF.SameCoordinates,E4642572-F947-42A3-9A2D-1DA0FD0549A1*%
%TF.FilePolarity,Positive*%
%TF.FileFunction,Plated,1,2,PTH,Drill*%
%TF.Part,Single*%
G01*
G75*
%TA.AperFunction,ComponentDrill*%
%ADD61O,1.4000X0.9000*%
%ADD62C,0.7000*%
%ADD63O,1.5000X2.5000*%
%ADD64O,1.0000X0.6000*%
%TA.AperFunction,ViaDrill,NotFilled*%
%ADD65C,0.4000*%
D61*
X10044581Y10081085D02*
D03*
Y10024484D02*
D03*
D62*
X10187476Y10107590D02*
D03*
X10162076D02*
D03*
X10136677D02*
D03*
X10187476Y10132990D02*
D03*
X10136677D02*
D03*
X10162076D02*
D03*
D63*
X10214232Y10082476D02*
D03*
X10094232D02*
D03*
D64*
X10129232Y10152476D02*
D03*
X10179232D02*
D03*
X10154232Y10007476D02*
D03*
X10129232D02*
D03*
X10179232D02*
D03*
D65*
X10085748Y10101782D02*
D03*
X10061070Y10115485D02*
D03*
X10047409Y10115739D02*
D03*
X10100889Y10116795D02*
D03*
X10195409Y10008148D02*
D03*
X10088052Y10054219D02*
D03*
X10100187Y10054145D02*
D03*
X10085718Y10013118D02*
D03*
X10055439Y10049109D02*
D03*
X10120878Y10066966D02*
D03*
X10055342Y10063311D02*
D03*
X10098417Y10034683D02*
D03*
X10107143D02*
D03*
X10053716Y10039785D02*
D03*
X10174210Y10060466D02*
D03*
X10151777D02*
D03*
X10218845Y10015436D02*
D03*
X10115812Y10120586D02*
D03*
X10142632Y10066966D02*
D03*
X10101825Y10063285D02*
D03*
%TF.MD5,51dc695ead9bd52930ebc22729a6ac8f*%
M02*
