M48
;Layer_Color=0
;FILE_FORMAT=4:4
METRIC
;TYPE=PLATED
T1F00S00C0.4000
T3F00S00C0.7000
%
T01
X10115812Y10120586
X10100889Y10116795
X10085748Y10101782
X10061070Y10115485
X10047409Y10115739
X10055342Y10063311
X10055439Y10049109
X10053716Y10039785
X10088052Y10054219
X10100187Y10054145
X10101825Y10063285
X10120878Y10066966
X10142632
X10151777Y10060466
X10174210
X10195409Y10008148
X10218845Y10015436
X10107143Y10034683
X10098417
X10085718Y10013118
T03
X10187476Y10132990
Y10107590
X10162076
X10136677
Y10132990
X10162076
M30
