%TF.GenerationSoftware,Altium Limited,Altium Designer,20.1.8 (145)*%
G04 Layer_Color=15254943*
%FSLAX45Y45*%
%MOMM*%
%TF.SameCoordinates,B8344769-4606-4218-AAAC-353AEC7BCCEF*%
%TF.FilePolarity,Positive*%
%TF.FileFunction,Paste,Bot*%
%TF.Part,Single*%
G01*
G75*
%TA.AperFunction,SMDPad,CuDef*%
G04:AMPARAMS|DCode=16|XSize=0.85mm|YSize=1.4mm|CornerRadius=0.00425mm|HoleSize=0mm|Usage=FLASHONLY|Rotation=180.000|XOffset=0mm|YOffset=0mm|HoleType=Round|Shape=RoundedRectangle|*
%AMROUNDEDRECTD16*
21,1,0.85000,1.39150,0,0,180.0*
21,1,0.84150,1.40000,0,0,180.0*
1,1,0.00850,-0.42075,0.69575*
1,1,0.00850,0.42075,0.69575*
1,1,0.00850,0.42075,-0.69575*
1,1,0.00850,-0.42075,-0.69575*
%
%ADD16ROUNDEDRECTD16*%
G04:AMPARAMS|DCode=17|XSize=0.4mm|YSize=0.3mm|CornerRadius=0.0015mm|HoleSize=0mm|Usage=FLASHONLY|Rotation=270.000|XOffset=0mm|YOffset=0mm|HoleType=Round|Shape=RoundedRectangle|*
%AMROUNDEDRECTD17*
21,1,0.40000,0.29700,0,0,270.0*
21,1,0.39700,0.30000,0,0,270.0*
1,1,0.00300,-0.14850,-0.19850*
1,1,0.00300,-0.14850,0.19850*
1,1,0.00300,0.14850,0.19850*
1,1,0.00300,0.14850,-0.19850*
%
%ADD17ROUNDEDRECTD17*%
G04:AMPARAMS|DCode=18|XSize=0.4mm|YSize=0.3mm|CornerRadius=0.0015mm|HoleSize=0mm|Usage=FLASHONLY|Rotation=0.000|XOffset=0mm|YOffset=0mm|HoleType=Round|Shape=RoundedRectangle|*
%AMROUNDEDRECTD18*
21,1,0.40000,0.29700,0,0,0.0*
21,1,0.39700,0.30000,0,0,0.0*
1,1,0.00300,0.19850,-0.14850*
1,1,0.00300,-0.19850,-0.14850*
1,1,0.00300,-0.19850,0.14850*
1,1,0.00300,0.19850,0.14850*
%
%ADD18ROUNDEDRECTD18*%
G04:AMPARAMS|DCode=19|XSize=0.85mm|YSize=0.75mm|CornerRadius=0.00375mm|HoleSize=0mm|Usage=FLASHONLY|Rotation=0.000|XOffset=0mm|YOffset=0mm|HoleType=Round|Shape=RoundedRectangle|*
%AMROUNDEDRECTD19*
21,1,0.85000,0.74250,0,0,0.0*
21,1,0.84250,0.75000,0,0,0.0*
1,1,0.00750,0.42125,-0.37125*
1,1,0.00750,-0.42125,-0.37125*
1,1,0.00750,-0.42125,0.37125*
1,1,0.00750,0.42125,0.37125*
%
%ADD19ROUNDEDRECTD19*%
G04:AMPARAMS|DCode=20|XSize=0.8mm|YSize=0.7mm|CornerRadius=0.0035mm|HoleSize=0mm|Usage=FLASHONLY|Rotation=90.000|XOffset=0mm|YOffset=0mm|HoleType=Round|Shape=RoundedRectangle|*
%AMROUNDEDRECTD20*
21,1,0.80000,0.69300,0,0,90.0*
21,1,0.79300,0.70000,0,0,90.0*
1,1,0.00700,0.34650,0.39650*
1,1,0.00700,0.34650,-0.39650*
1,1,0.00700,-0.34650,-0.39650*
1,1,0.00700,-0.34650,0.39650*
%
%ADD20ROUNDEDRECTD20*%
G04:AMPARAMS|DCode=21|XSize=0.8mm|YSize=0.7mm|CornerRadius=0.0035mm|HoleSize=0mm|Usage=FLASHONLY|Rotation=0.000|XOffset=0mm|YOffset=0mm|HoleType=Round|Shape=RoundedRectangle|*
%AMROUNDEDRECTD21*
21,1,0.80000,0.69300,0,0,0.0*
21,1,0.79300,0.70000,0,0,0.0*
1,1,0.00700,0.39650,-0.34650*
1,1,0.00700,-0.39650,-0.34650*
1,1,0.00700,-0.39650,0.34650*
1,1,0.00700,0.39650,0.34650*
%
%ADD21ROUNDEDRECTD21*%
G04:AMPARAMS|DCode=22|XSize=0.85mm|YSize=0.75mm|CornerRadius=0.00375mm|HoleSize=0mm|Usage=FLASHONLY|Rotation=90.000|XOffset=0mm|YOffset=0mm|HoleType=Round|Shape=RoundedRectangle|*
%AMROUNDEDRECTD22*
21,1,0.85000,0.74250,0,0,90.0*
21,1,0.84250,0.75000,0,0,90.0*
1,1,0.00750,0.37125,0.42125*
1,1,0.00750,0.37125,-0.42125*
1,1,0.00750,-0.37125,-0.42125*
1,1,0.00750,-0.37125,0.42125*
%
%ADD22ROUNDEDRECTD22*%
%ADD23O,1.25000X0.30000*%
G04:AMPARAMS|DCode=24|XSize=0.35mm|YSize=2mm|CornerRadius=0.175mm|HoleSize=0mm|Usage=FLASHONLY|Rotation=270.000|XOffset=0mm|YOffset=0mm|HoleType=Round|Shape=RoundedRectangle|*
%AMROUNDEDRECTD24*
21,1,0.35000,1.65000,0,0,270.0*
21,1,0.00000,2.00000,0,0,270.0*
1,1,0.35000,-0.82500,0.00000*
1,1,0.35000,-0.82500,0.00000*
1,1,0.35000,0.82500,0.00000*
1,1,0.35000,0.82500,0.00000*
%
%ADD24ROUNDEDRECTD24*%
G04:AMPARAMS|DCode=25|XSize=2.1mm|YSize=1.6mm|CornerRadius=0.008mm|HoleSize=0mm|Usage=FLASHONLY|Rotation=270.000|XOffset=0mm|YOffset=0mm|HoleType=Round|Shape=RoundedRectangle|*
%AMROUNDEDRECTD25*
21,1,2.10000,1.58400,0,0,270.0*
21,1,2.08400,1.60000,0,0,270.0*
1,1,0.01600,-0.79200,-1.04200*
1,1,0.01600,-0.79200,1.04200*
1,1,0.01600,0.79200,1.04200*
1,1,0.01600,0.79200,-1.04200*
%
%ADD25ROUNDEDRECTD25*%
D16*
X1100895Y1478869D02*
D03*
X1310895D02*
D03*
D17*
X1056303Y1342752D02*
D03*
X1146303D02*
D03*
D18*
X1275479Y1289412D02*
D03*
Y1199412D02*
D03*
X1206899Y1153906D02*
D03*
Y1063906D02*
D03*
D19*
X242672Y1239233D02*
D03*
Y1084233D02*
D03*
X584923Y205096D02*
D03*
Y360096D02*
D03*
D20*
X1182500D02*
D03*
X1032500D02*
D03*
X584923Y1279556D02*
D03*
X434922D02*
D03*
X257992Y1507740D02*
D03*
X107992D02*
D03*
X867500Y212872D02*
D03*
X1032500D02*
D03*
D21*
X427041Y211652D02*
D03*
Y361653D02*
D03*
X1076825Y1134107D02*
D03*
Y984106D02*
D03*
D22*
X265532Y1377199D02*
D03*
X110532D02*
D03*
X908291Y840325D02*
D03*
X753291D02*
D03*
X746193Y1300060D02*
D03*
X901193D02*
D03*
D23*
X464541Y961674D02*
D03*
Y1011674D02*
D03*
X464542Y1061674D02*
D03*
Y1111674D02*
D03*
X464541Y1161674D02*
D03*
X889541Y961674D02*
D03*
Y1011674D02*
D03*
X889541Y1061674D02*
D03*
Y1111674D02*
D03*
X889541Y1161674D02*
D03*
D24*
X1486274Y1197022D02*
D03*
Y1262022D02*
D03*
Y1132022D02*
D03*
Y1067022D02*
D03*
Y1002022D02*
D03*
D25*
X1493774Y1442022D02*
D03*
Y822022D02*
D03*
%TF.MD5,dcb8675ad138deda8ef539ae7ee9ea3c*%
M02*
