%TF.GenerationSoftware,Altium Limited,Altium Designer,20.1.8 (145)*%
G04 Layer_Color=417716*
%FSLAX45Y45*%
%MOMM*%
%TF.SameCoordinates,B8344769-4606-4218-AAAC-353AEC7BCCEF*%
%TF.FilePolarity,Negative*%
%TF.FileFunction,Soldermask,Bot*%
%TF.Part,Single*%
G01*
G75*
%TA.AperFunction,SMDPad,CuDef*%
G04:AMPARAMS|DCode=32|XSize=0.95mm|YSize=1.5mm|CornerRadius=0.05425mm|HoleSize=0mm|Usage=FLASHONLY|Rotation=180.000|XOffset=0mm|YOffset=0mm|HoleType=Round|Shape=RoundedRectangle|*
%AMROUNDEDRECTD32*
21,1,0.95000,1.39150,0,0,180.0*
21,1,0.84150,1.50000,0,0,180.0*
1,1,0.10850,-0.42075,0.69575*
1,1,0.10850,0.42075,0.69575*
1,1,0.10850,0.42075,-0.69575*
1,1,0.10850,-0.42075,-0.69575*
%
%ADD32ROUNDEDRECTD32*%
G04:AMPARAMS|DCode=33|XSize=0.5mm|YSize=0.4mm|CornerRadius=0.0515mm|HoleSize=0mm|Usage=FLASHONLY|Rotation=270.000|XOffset=0mm|YOffset=0mm|HoleType=Round|Shape=RoundedRectangle|*
%AMROUNDEDRECTD33*
21,1,0.50000,0.29700,0,0,270.0*
21,1,0.39700,0.40000,0,0,270.0*
1,1,0.10300,-0.14850,-0.19850*
1,1,0.10300,-0.14850,0.19850*
1,1,0.10300,0.14850,0.19850*
1,1,0.10300,0.14850,-0.19850*
%
%ADD33ROUNDEDRECTD33*%
G04:AMPARAMS|DCode=34|XSize=0.5mm|YSize=0.4mm|CornerRadius=0.0515mm|HoleSize=0mm|Usage=FLASHONLY|Rotation=0.000|XOffset=0mm|YOffset=0mm|HoleType=Round|Shape=RoundedRectangle|*
%AMROUNDEDRECTD34*
21,1,0.50000,0.29700,0,0,0.0*
21,1,0.39700,0.40000,0,0,0.0*
1,1,0.10300,0.19850,-0.14850*
1,1,0.10300,-0.19850,-0.14850*
1,1,0.10300,-0.19850,0.14850*
1,1,0.10300,0.19850,0.14850*
%
%ADD34ROUNDEDRECTD34*%
G04:AMPARAMS|DCode=35|XSize=0.95mm|YSize=0.85mm|CornerRadius=0.05375mm|HoleSize=0mm|Usage=FLASHONLY|Rotation=0.000|XOffset=0mm|YOffset=0mm|HoleType=Round|Shape=RoundedRectangle|*
%AMROUNDEDRECTD35*
21,1,0.95000,0.74250,0,0,0.0*
21,1,0.84250,0.85000,0,0,0.0*
1,1,0.10750,0.42125,-0.37125*
1,1,0.10750,-0.42125,-0.37125*
1,1,0.10750,-0.42125,0.37125*
1,1,0.10750,0.42125,0.37125*
%
%ADD35ROUNDEDRECTD35*%
G04:AMPARAMS|DCode=36|XSize=0.9mm|YSize=0.8mm|CornerRadius=0.0535mm|HoleSize=0mm|Usage=FLASHONLY|Rotation=90.000|XOffset=0mm|YOffset=0mm|HoleType=Round|Shape=RoundedRectangle|*
%AMROUNDEDRECTD36*
21,1,0.90000,0.69300,0,0,90.0*
21,1,0.79300,0.80000,0,0,90.0*
1,1,0.10700,0.34650,0.39650*
1,1,0.10700,0.34650,-0.39650*
1,1,0.10700,-0.34650,-0.39650*
1,1,0.10700,-0.34650,0.39650*
%
%ADD36ROUNDEDRECTD36*%
G04:AMPARAMS|DCode=37|XSize=0.9mm|YSize=0.8mm|CornerRadius=0.0535mm|HoleSize=0mm|Usage=FLASHONLY|Rotation=0.000|XOffset=0mm|YOffset=0mm|HoleType=Round|Shape=RoundedRectangle|*
%AMROUNDEDRECTD37*
21,1,0.90000,0.69300,0,0,0.0*
21,1,0.79300,0.80000,0,0,0.0*
1,1,0.10700,0.39650,-0.34650*
1,1,0.10700,-0.39650,-0.34650*
1,1,0.10700,-0.39650,0.34650*
1,1,0.10700,0.39650,0.34650*
%
%ADD37ROUNDEDRECTD37*%
G04:AMPARAMS|DCode=38|XSize=0.95mm|YSize=0.85mm|CornerRadius=0.05375mm|HoleSize=0mm|Usage=FLASHONLY|Rotation=90.000|XOffset=0mm|YOffset=0mm|HoleType=Round|Shape=RoundedRectangle|*
%AMROUNDEDRECTD38*
21,1,0.95000,0.74250,0,0,90.0*
21,1,0.84250,0.85000,0,0,90.0*
1,1,0.10750,0.37125,0.42125*
1,1,0.10750,0.37125,-0.42125*
1,1,0.10750,-0.37125,-0.42125*
1,1,0.10750,-0.37125,0.42125*
%
%ADD38ROUNDEDRECTD38*%
%ADD39O,1.35000X0.40000*%
G04:AMPARAMS|DCode=40|XSize=0.45mm|YSize=2.1mm|CornerRadius=0.225mm|HoleSize=0mm|Usage=FLASHONLY|Rotation=270.000|XOffset=0mm|YOffset=0mm|HoleType=Round|Shape=RoundedRectangle|*
%AMROUNDEDRECTD40*
21,1,0.45000,1.65000,0,0,270.0*
21,1,0.00000,2.10000,0,0,270.0*
1,1,0.45000,-0.82500,0.00000*
1,1,0.45000,-0.82500,0.00000*
1,1,0.45000,0.82500,0.00000*
1,1,0.45000,0.82500,0.00000*
%
%ADD40ROUNDEDRECTD40*%
G04:AMPARAMS|DCode=41|XSize=2.2mm|YSize=1.7mm|CornerRadius=0.058mm|HoleSize=0mm|Usage=FLASHONLY|Rotation=270.000|XOffset=0mm|YOffset=0mm|HoleType=Round|Shape=RoundedRectangle|*
%AMROUNDEDRECTD41*
21,1,2.20000,1.58400,0,0,270.0*
21,1,2.08400,1.70000,0,0,270.0*
1,1,0.11600,-0.79200,-1.04200*
1,1,0.11600,-0.79200,1.04200*
1,1,0.11600,0.79200,1.04200*
1,1,0.11600,0.79200,-1.04200*
%
%ADD41ROUNDEDRECTD41*%
%TA.AperFunction,ComponentPad*%
G04:AMPARAMS|DCode=42|XSize=1.2mm|YSize=1.5mm|CornerRadius=0.6mm|HoleSize=0mm|Usage=FLASHONLY|Rotation=270.000|XOffset=0mm|YOffset=0mm|HoleType=Round|Shape=RoundedRectangle|*
%AMROUNDEDRECTD42*
21,1,1.20000,0.30000,0,0,270.0*
21,1,0.00000,1.50000,0,0,270.0*
1,1,1.20000,-0.15000,0.00000*
1,1,1.20000,-0.15000,0.00000*
1,1,1.20000,0.15000,0.00000*
1,1,1.20000,0.15000,0.00000*
%
%ADD42ROUNDEDRECTD42*%
%ADD43O,1.80000X1.10000*%
%ADD44O,2.35000X3.85000*%
G04:AMPARAMS|DCode=45|XSize=2.35mm|YSize=3.85mm|CornerRadius=1.175mm|HoleSize=0mm|Usage=FLASHONLY|Rotation=180.000|XOffset=0mm|YOffset=0mm|HoleType=Round|Shape=RoundedRectangle|*
%AMROUNDEDRECTD45*
21,1,2.35000,1.50000,0,0,180.0*
21,1,0.00000,3.85000,0,0,180.0*
1,1,2.35000,0.00000,0.75000*
1,1,2.35000,0.00000,0.75000*
1,1,2.35000,0.00000,-0.75000*
1,1,2.35000,0.00000,-0.75000*
%
%ADD45ROUNDEDRECTD45*%
%ADD46C,0.50000*%
%ADD47O,2.10000X1.60000*%
D32*
X1100895Y1478869D02*
D03*
X1310895D02*
D03*
D33*
X1056303Y1342752D02*
D03*
X1146303D02*
D03*
D34*
X1275479Y1289412D02*
D03*
Y1199412D02*
D03*
X1206899Y1153906D02*
D03*
Y1063906D02*
D03*
D35*
X242672Y1239233D02*
D03*
Y1084233D02*
D03*
X584923Y205096D02*
D03*
Y360096D02*
D03*
D36*
X1182500D02*
D03*
X1032500D02*
D03*
X584923Y1279556D02*
D03*
X434922D02*
D03*
X257992Y1507740D02*
D03*
X107992D02*
D03*
X867500Y212872D02*
D03*
X1032500D02*
D03*
D37*
X427041Y211652D02*
D03*
Y361653D02*
D03*
X1076825Y1134107D02*
D03*
Y984106D02*
D03*
D38*
X265532Y1377199D02*
D03*
X110532D02*
D03*
X908291Y840325D02*
D03*
X753291D02*
D03*
X746193Y1300060D02*
D03*
X901193D02*
D03*
D39*
X464541Y961674D02*
D03*
Y1011674D02*
D03*
X464542Y1061674D02*
D03*
Y1111674D02*
D03*
X464541Y1161674D02*
D03*
X889541Y961674D02*
D03*
Y1011674D02*
D03*
X889541Y1061674D02*
D03*
Y1111674D02*
D03*
X889541Y1161674D02*
D03*
D40*
X1486274Y1197022D02*
D03*
Y1262022D02*
D03*
Y1132022D02*
D03*
Y1067022D02*
D03*
Y1002022D02*
D03*
D41*
X1493774Y1442022D02*
D03*
Y822022D02*
D03*
D42*
X1727423Y106096D02*
D03*
Y614096D02*
D03*
Y360096D02*
D03*
D43*
X927041Y1525480D02*
D03*
X427041D02*
D03*
X677041D02*
D03*
X927041Y75479D02*
D03*
X427041D02*
D03*
D44*
X139541Y775480D02*
D03*
D45*
X1214541D02*
D03*
D46*
X1513774Y932022D02*
D03*
Y1332022D02*
D03*
D47*
X1748775Y1415022D02*
D03*
Y849022D02*
D03*
%TF.MD5,7bb7661bfabc8794b077c6638c4308d2*%
M02*
