%TF.GenerationSoftware,Altium Limited,Altium Designer,20.1.8 (145)*%
G04 Layer_Color=32768*
%FSLAX45Y45*%
%MOMM*%
%TF.SameCoordinates,B8344769-4606-4218-AAAC-353AEC7BCCEF*%
%TF.FilePolarity,Positive*%
%TF.FileFunction,Other,Bottom_Assembly*%
%TF.Part,Single*%
G01*
G75*
%TA.AperFunction,NonConductor*%
%ADD29C,0.10000*%
%ADD30C,0.10160*%
D29*
X650841Y985474D02*
G03*
X650841Y985474I-50000J0D01*
G01*
D30*
X1058803Y1312752D02*
Y1372752D01*
X1143803Y1312752D02*
Y1372752D01*
X1058803Y1312752D02*
X1143803D01*
X1058803Y1372752D02*
X1143803D01*
X1245479Y1201912D02*
Y1286912D01*
X1305479Y1201912D02*
Y1286912D01*
X1245479D02*
X1305479D01*
X1245479Y1201912D02*
X1305479D01*
X1176899Y1151406D02*
X1236899D01*
X1176899Y1066406D02*
X1236899D01*
X1176899D02*
Y1151406D01*
X1236899Y1066406D02*
Y1151406D01*
X297672Y1044233D02*
Y1279233D01*
X187672D02*
X297672D01*
X187672Y1044233D02*
Y1279233D01*
Y1044233D02*
X297672D01*
X529923Y165096D02*
X639923D01*
X529923D02*
Y400096D01*
X639923D01*
Y165096D02*
Y400096D01*
X1224999Y307596D02*
Y412596D01*
X990001Y307596D02*
Y412596D01*
X1224999D01*
X990001Y307596D02*
X1224999D01*
X374541Y169153D02*
X479542D01*
X374541Y404152D02*
X479542D01*
Y169153D02*
Y404152D01*
X374541Y169153D02*
Y404152D01*
X627422Y1227055D02*
Y1332056D01*
X392423Y1227055D02*
Y1332056D01*
X627422D01*
X392423Y1227055D02*
X627422D01*
X300492Y1455239D02*
Y1560240D01*
X65493Y1455239D02*
Y1560240D01*
X300492D01*
X65493Y1455239D02*
X300492D01*
X305532Y1322200D02*
Y1432200D01*
X70532Y1322200D02*
X305532D01*
X70532D02*
Y1432200D01*
X305532D01*
X527041Y1211674D02*
X827041D01*
X527041Y911674D02*
Y1211674D01*
Y911674D02*
X827041D01*
Y1211674D01*
X950000Y172872D02*
Y252871D01*
X910000Y212872D02*
X990000D01*
X812500Y150372D02*
X1087500D01*
X812500Y275372D02*
X1087500D01*
X812500Y150372D02*
Y275372D01*
X1087500Y150372D02*
Y275372D01*
X1961274Y757023D02*
Y1507022D01*
X1461274Y757022D02*
Y1507022D01*
Y757022D02*
X1961274Y757023D01*
X1461274Y1507022D02*
X1961274Y1507022D01*
X1711274Y1032022D02*
Y1232022D01*
X1611275Y1132022D02*
X1811275D01*
X713291Y785325D02*
X948291D01*
Y895325D01*
X713291D02*
X948291D01*
X713291Y785325D02*
Y895325D01*
X706193Y1355060D02*
X941193D01*
X706193Y1245060D02*
Y1355060D01*
Y1245060D02*
X941193D01*
Y1355060D01*
X1024325Y941607D02*
Y1176606D01*
X1129325Y941607D02*
Y1176606D01*
X1024325D02*
X1129325D01*
X1024325Y941607D02*
X1129325D01*
%TF.MD5,bf23ed60db8d9d0c76c3e4f12c5433d7*%
M02*
