%TF.GenerationSoftware,Altium Limited,Altium Designer,20.1.8 (145)*%
G04 Layer_Physical_Order=1*
G04 Layer_Color=255*
%FSLAX45Y45*%
%MOMM*%
%TF.SameCoordinates,B8344769-4606-4218-AAAC-353AEC7BCCEF*%
%TF.FilePolarity,Positive*%
%TF.FileFunction,Copper,L1,Top,Signal*%
%TF.Part,Single*%
G01*
G75*
%TA.AperFunction,ComponentPad*%
G04:AMPARAMS|DCode=10|XSize=1.1mm|YSize=1.4mm|CornerRadius=0.55mm|HoleSize=0mm|Usage=FLASHONLY|Rotation=270.000|XOffset=0mm|YOffset=0mm|HoleType=Round|Shape=RoundedRectangle|*
%AMROUNDEDRECTD10*
21,1,1.10000,0.30000,0,0,270.0*
21,1,0.00000,1.40000,0,0,270.0*
1,1,1.10000,-0.15000,0.00000*
1,1,1.10000,-0.15000,0.00000*
1,1,1.10000,0.15000,0.00000*
1,1,1.10000,0.15000,0.00000*
%
%ADD10ROUNDEDRECTD10*%
%ADD11O,1.70000X1.00000*%
%ADD12O,2.25000X3.75000*%
G04:AMPARAMS|DCode=13|XSize=2.25mm|YSize=3.75mm|CornerRadius=1.125mm|HoleSize=0mm|Usage=FLASHONLY|Rotation=180.000|XOffset=0mm|YOffset=0mm|HoleType=Round|Shape=RoundedRectangle|*
%AMROUNDEDRECTD13*
21,1,2.25000,1.50000,0,0,180.0*
21,1,0.00000,3.75000,0,0,180.0*
1,1,2.25000,0.00000,0.75000*
1,1,2.25000,0.00000,0.75000*
1,1,2.25000,0.00000,-0.75000*
1,1,2.25000,0.00000,-0.75000*
%
%ADD13ROUNDEDRECTD13*%
%ADD14O,2.00000X1.50000*%
%TA.AperFunction,ViaPad*%
%ADD15C,0.80000*%
G36*
X1879609Y20391D02*
X520829D01*
X513803Y35631D01*
X514984Y37014D01*
X520350Y45770D01*
X524280Y55257D01*
X526677Y65242D01*
X527483Y75479D01*
X526677Y85717D01*
X524280Y95702D01*
X520350Y105189D01*
X514984Y113945D01*
X508315Y121754D01*
X500507Y128423D01*
X491751Y133788D01*
X482264Y137718D01*
X472278Y140115D01*
X462041Y140921D01*
X392041D01*
X381804Y140115D01*
X371819Y137718D01*
X362332Y133788D01*
X353576Y128423D01*
X345767Y121754D01*
X339098Y113945D01*
X333733Y105189D01*
X329803Y95702D01*
X327405Y85717D01*
X326600Y75479D01*
X327405Y65242D01*
X329803Y55257D01*
X333733Y45770D01*
X339098Y37014D01*
X340279Y35631D01*
X333253Y20391D01*
X20391D01*
Y1579609D01*
X332434D01*
X339461Y1564369D01*
X339098Y1563945D01*
X333733Y1555189D01*
X329803Y1545702D01*
X327405Y1535717D01*
X326600Y1525480D01*
X327405Y1515242D01*
X329803Y1505257D01*
X333733Y1495770D01*
X339098Y1487014D01*
X345767Y1479205D01*
X353576Y1472536D01*
X362332Y1467171D01*
X371819Y1463241D01*
X381804Y1460844D01*
X392041Y1460038D01*
X462041D01*
X472278Y1460844D01*
X482264Y1463241D01*
X491751Y1467171D01*
X500507Y1472536D01*
X508315Y1479205D01*
X514984Y1487014D01*
X520350Y1495770D01*
X524280Y1505257D01*
X526677Y1515242D01*
X527483Y1525480D01*
X526677Y1535717D01*
X524280Y1545702D01*
X520350Y1555189D01*
X514984Y1563945D01*
X514622Y1564369D01*
X521648Y1579609D01*
X832434D01*
X839461Y1564369D01*
X839098Y1563945D01*
X833733Y1555189D01*
X829803Y1545702D01*
X827406Y1535717D01*
X826600Y1525480D01*
X827406Y1515242D01*
X829803Y1505257D01*
X833733Y1495770D01*
X839098Y1487014D01*
X845767Y1479205D01*
X853576Y1472536D01*
X862332Y1467171D01*
X871819Y1463241D01*
X881804Y1460844D01*
X892041Y1460038D01*
X962041D01*
X972278Y1460844D01*
X982264Y1463241D01*
X991751Y1467171D01*
X1000507Y1472536D01*
X1008315Y1479205D01*
X1014985Y1487014D01*
X1020350Y1495770D01*
X1024280Y1505257D01*
X1026677Y1515242D01*
X1027483Y1525480D01*
X1026677Y1535717D01*
X1024280Y1545702D01*
X1020350Y1555189D01*
X1014985Y1563945D01*
X1014622Y1564369D01*
X1021648Y1579609D01*
X1879609D01*
Y20391D01*
D02*
G37*
%LPC*%
G36*
X1773775Y1505456D02*
X1723774D01*
X1711970Y1504682D01*
X1700368Y1502374D01*
X1689167Y1498572D01*
X1678557Y1493340D01*
X1668722Y1486768D01*
X1659828Y1478968D01*
X1652029Y1470075D01*
X1645457Y1460239D01*
X1640225Y1449630D01*
X1636422Y1438428D01*
X1634115Y1426826D01*
X1633341Y1415022D01*
X1634115Y1403218D01*
X1636422Y1391616D01*
X1640225Y1380415D01*
X1645457Y1369806D01*
X1652029Y1359970D01*
X1659828Y1351076D01*
X1668722Y1343277D01*
X1678557Y1336705D01*
X1689167Y1331473D01*
X1700368Y1327670D01*
X1711970Y1325363D01*
X1723774Y1324589D01*
X1773775D01*
X1785579Y1325363D01*
X1797181Y1327670D01*
X1808382Y1331473D01*
X1818992Y1336705D01*
X1828827Y1343277D01*
X1837721Y1351076D01*
X1845520Y1359970D01*
X1852092Y1369806D01*
X1857324Y1380415D01*
X1861127Y1391616D01*
X1863434Y1403218D01*
X1864208Y1415022D01*
X1863434Y1426826D01*
X1861127Y1438428D01*
X1857324Y1449630D01*
X1852092Y1460239D01*
X1845520Y1470075D01*
X1837721Y1478968D01*
X1828827Y1486768D01*
X1818992Y1493340D01*
X1808382Y1498572D01*
X1797181Y1502374D01*
X1785579Y1504682D01*
X1773775Y1505456D01*
D02*
G37*
G36*
X1513774Y1372457D02*
X1505886Y1371680D01*
X1498301Y1369379D01*
X1491310Y1365643D01*
X1485183Y1360614D01*
X1480154Y1354487D01*
X1476418Y1347496D01*
X1474117Y1339911D01*
X1473340Y1332022D01*
X1474117Y1324134D01*
X1476418Y1316549D01*
X1480154Y1309558D01*
X1485183Y1303431D01*
X1491310Y1298402D01*
X1498301Y1294666D01*
X1505886Y1292365D01*
X1513774Y1291588D01*
X1521663Y1292365D01*
X1529248Y1294666D01*
X1536239Y1298402D01*
X1542366Y1303431D01*
X1547395Y1309558D01*
X1551131Y1316549D01*
X1553432Y1324134D01*
X1554209Y1332022D01*
X1553432Y1339911D01*
X1551131Y1347496D01*
X1547395Y1354487D01*
X1542366Y1360614D01*
X1536239Y1365643D01*
X1529248Y1369379D01*
X1521663Y1371680D01*
X1513774Y1372457D01*
D02*
G37*
G36*
Y972457D02*
X1505886Y971680D01*
X1498301Y969379D01*
X1491310Y965642D01*
X1485183Y960614D01*
X1480154Y954487D01*
X1476418Y947496D01*
X1474117Y939911D01*
X1473340Y932022D01*
X1474117Y924134D01*
X1476418Y916549D01*
X1480154Y909558D01*
X1485183Y903431D01*
X1491310Y898402D01*
X1498301Y894665D01*
X1505886Y892364D01*
X1513774Y891587D01*
X1521663Y892364D01*
X1529248Y894665D01*
X1536239Y898402D01*
X1542366Y903431D01*
X1547395Y909558D01*
X1551131Y916549D01*
X1553432Y924134D01*
X1554209Y932022D01*
X1553432Y939911D01*
X1551131Y947496D01*
X1547395Y954487D01*
X1542366Y960614D01*
X1536239Y965642D01*
X1529248Y969379D01*
X1521663Y971680D01*
X1513774Y972457D01*
D02*
G37*
G36*
X1773775Y939456D02*
X1723774D01*
X1711970Y938682D01*
X1700368Y936374D01*
X1689167Y932572D01*
X1678557Y927340D01*
X1668722Y920768D01*
X1659828Y912968D01*
X1652029Y904075D01*
X1645457Y894239D01*
X1640225Y883630D01*
X1636422Y872428D01*
X1634115Y860826D01*
X1633341Y849022D01*
X1634115Y837219D01*
X1636422Y825617D01*
X1640225Y814415D01*
X1645457Y803806D01*
X1652029Y793970D01*
X1659828Y785076D01*
X1668722Y777277D01*
X1678557Y770705D01*
X1689167Y765473D01*
X1700368Y761671D01*
X1711970Y759363D01*
X1723774Y758589D01*
X1773775D01*
X1785579Y759363D01*
X1797181Y761671D01*
X1808382Y765473D01*
X1818992Y770705D01*
X1828827Y777277D01*
X1837721Y785076D01*
X1845520Y793970D01*
X1852092Y803806D01*
X1857324Y814415D01*
X1861127Y825617D01*
X1863434Y837219D01*
X1864208Y849022D01*
X1863434Y860826D01*
X1861127Y872428D01*
X1857324Y883630D01*
X1852092Y894239D01*
X1845520Y904075D01*
X1837721Y912968D01*
X1828827Y920768D01*
X1818992Y927340D01*
X1808382Y932572D01*
X1797181Y936374D01*
X1785579Y938682D01*
X1773775Y939456D01*
D02*
G37*
G36*
X1742423Y684553D02*
X1712423D01*
X1701401Y683685D01*
X1690650Y681105D01*
X1680436Y676873D01*
X1671009Y671097D01*
X1662602Y663916D01*
X1655422Y655509D01*
X1649645Y646083D01*
X1645414Y635868D01*
X1642833Y625118D01*
X1641966Y614096D01*
X1642833Y603074D01*
X1645414Y592323D01*
X1649645Y582109D01*
X1655422Y572682D01*
X1662602Y564275D01*
X1671009Y557095D01*
X1680436Y551318D01*
X1690650Y547087D01*
X1701401Y544506D01*
X1712423Y543639D01*
X1742423D01*
X1753445Y544506D01*
X1764195Y547087D01*
X1774409Y551318D01*
X1783836Y557095D01*
X1792243Y564275D01*
X1799424Y572682D01*
X1805200Y582109D01*
X1809431Y592323D01*
X1812012Y603074D01*
X1812880Y614096D01*
X1812012Y625118D01*
X1809431Y635868D01*
X1805200Y646083D01*
X1799424Y655509D01*
X1792243Y663916D01*
X1783836Y671097D01*
X1774409Y676873D01*
X1764195Y681105D01*
X1753445Y683685D01*
X1742423Y684553D01*
D02*
G37*
G36*
Y430553D02*
X1712423D01*
X1701401Y429685D01*
X1690650Y427105D01*
X1680436Y422873D01*
X1671009Y417097D01*
X1662602Y409916D01*
X1655422Y401509D01*
X1649645Y392083D01*
X1645414Y381868D01*
X1642833Y371118D01*
X1641966Y360096D01*
X1642833Y349074D01*
X1645414Y338323D01*
X1649645Y328109D01*
X1655422Y318682D01*
X1662602Y310275D01*
X1671009Y303095D01*
X1680436Y297318D01*
X1690650Y293087D01*
X1701401Y290506D01*
X1712423Y289639D01*
X1742423D01*
X1753445Y290506D01*
X1764195Y293087D01*
X1774409Y297318D01*
X1783836Y303095D01*
X1792243Y310275D01*
X1799424Y318682D01*
X1805200Y328109D01*
X1809431Y338323D01*
X1812012Y349074D01*
X1812880Y360096D01*
X1812012Y371118D01*
X1809431Y381868D01*
X1805200Y392083D01*
X1799424Y401509D01*
X1792243Y409916D01*
X1783836Y417097D01*
X1774409Y422873D01*
X1764195Y427105D01*
X1753445Y429685D01*
X1742423Y430553D01*
D02*
G37*
%LPD*%
D10*
X1727423Y106096D02*
D03*
Y614096D02*
D03*
Y360096D02*
D03*
D11*
X927041Y1525480D02*
D03*
X427041D02*
D03*
X677041D02*
D03*
X927041Y75479D02*
D03*
X427041D02*
D03*
D12*
X139541Y775480D02*
D03*
D13*
X1214541D02*
D03*
D14*
X1748775Y1415022D02*
D03*
Y849022D02*
D03*
D15*
X1275479Y1348803D02*
D03*
X1146303Y1278278D02*
D03*
X1271240Y1063906D02*
D03*
X983113Y1300060D02*
D03*
X671937Y205096D02*
D03*
X649674Y628566D02*
D03*
X347278Y1377199D02*
D03*
X155797Y1084233D02*
D03*
X787279Y1061674D02*
D03*
X992051D02*
D03*
X977785Y745520D02*
D03*
X753291Y753573D02*
D03*
Y926998D02*
D03*
X523099Y890166D02*
D03*
X1345114Y1002022D02*
D03*
X1626195D02*
D03*
%TF.MD5,1e1116c7c7bbcbb6d55c610103cdc3a2*%
M02*
