%TF.GenerationSoftware,Altium Limited,Altium Designer,20.1.8 (145)*%
G04 Layer_Color=16711935*
%FSLAX45Y45*%
%MOMM*%
%TF.SameCoordinates,B8344769-4606-4218-AAAC-353AEC7BCCEF*%
%TF.FilePolarity,Positive*%
%TF.FileFunction,Other,Bottom_Courtyard*%
%TF.Part,Single*%
G01*
G75*
%TA.AperFunction,NonConductor*%
%ADD29C,0.10000*%
%ADD30C,0.10160*%
D29*
X627041Y1061674D02*
X727041D01*
X677041Y1011674D02*
Y1111674D01*
D30*
X1365895Y1398868D02*
Y1558869D01*
X1045895Y1398868D02*
X1365895D01*
X1045895D02*
Y1558869D01*
X1365895D01*
X1155895Y1478869D02*
X1255895D01*
X1205895Y1428869D02*
Y1528868D01*
X1171303Y1312752D02*
Y1372752D01*
X1031303Y1312752D02*
X1171303D01*
X1031303Y1372752D02*
X1171303D01*
X1081303Y1342752D02*
X1121303D01*
X1101303Y1322752D02*
Y1362752D01*
X1031303Y1312752D02*
Y1372752D01*
X1245479Y1174412D02*
X1305479D01*
X1255479Y1244412D02*
X1295479D01*
X1275479Y1224412D02*
Y1264412D01*
X1245479Y1174412D02*
Y1314412D01*
X1305479Y1174412D02*
Y1314412D01*
X1245479D02*
X1305479D01*
X1176899Y1038906D02*
X1236899D01*
X1176899D02*
Y1178906D01*
X1236899Y1038906D02*
Y1178906D01*
X1206899Y1088906D02*
Y1128906D01*
X1186899Y1108906D02*
X1226899D01*
X1176899Y1178906D02*
X1236899D01*
X197672Y1161733D02*
X287672D01*
X242672Y1116733D02*
Y1206733D01*
X187672Y1044233D02*
Y1279233D01*
X297672Y1044233D02*
Y1279233D01*
X187672D02*
X297672D01*
X187672Y1044233D02*
X297672D01*
X529923Y165096D02*
X639923D01*
X529923Y400096D02*
X639923D01*
Y165096D02*
Y400096D01*
X529923Y165096D02*
Y400096D01*
X584923Y237596D02*
Y327596D01*
X539922Y282596D02*
X629923D01*
X990001Y412596D02*
X1224999D01*
X990001Y307596D02*
X1224999D01*
Y412596D01*
X990001Y307596D02*
Y412596D01*
X1062500Y360096D02*
X1152501D01*
X1107500Y315096D02*
Y405096D01*
X479542Y169153D02*
Y404152D01*
X374541Y169153D02*
Y404152D01*
Y169153D02*
X479542D01*
X374541Y404152D02*
X479542D01*
X427041Y241653D02*
Y331653D01*
X382041Y286652D02*
X472041D01*
X392423Y1332056D02*
X627422D01*
X392423Y1227055D02*
X627422D01*
Y1332056D01*
X392423Y1227055D02*
Y1332056D01*
X464922Y1279556D02*
X554923D01*
X509923Y1234556D02*
Y1324556D01*
X65493Y1560240D02*
X300492D01*
X65493Y1455239D02*
X300492D01*
Y1560240D01*
X65493Y1455239D02*
Y1560240D01*
X137992Y1507740D02*
X227992D01*
X182992Y1462740D02*
Y1552740D01*
X305532Y1322200D02*
Y1432200D01*
X70532Y1322200D02*
Y1432200D01*
X305532D01*
X70532Y1322200D02*
X305532D01*
X143032Y1377199D02*
X233032D01*
X188032Y1332199D02*
Y1422200D01*
X379541Y886674D02*
X379542Y1236674D01*
X974541D02*
X974541Y886674D01*
X379541D02*
X974541D01*
X379542Y1236674D02*
X974541D01*
X812500Y150372D02*
X1087500D01*
X812500Y275372D02*
X1087500D01*
X812500Y150372D02*
Y275372D01*
X1087500Y150372D02*
Y275372D01*
X1381274Y1552022D02*
X1866274D01*
Y712022D02*
Y1552022D01*
X1381274Y712022D02*
X1866274D01*
X1381274D02*
Y1552022D01*
X830791Y795325D02*
Y885325D01*
X785791Y840325D02*
X875791D01*
X713291Y895325D02*
X948291D01*
X713291Y785325D02*
X948291D01*
Y895325D01*
X713291Y785325D02*
Y895325D01*
X823693Y1255059D02*
Y1345060D01*
X778693Y1300060D02*
X868693D01*
X706193Y1245060D02*
X941193D01*
X706193Y1355060D02*
X941193D01*
X706193Y1245060D02*
Y1355060D01*
X941193Y1245060D02*
Y1355060D01*
X1031825Y1059107D02*
X1121825D01*
X1076825Y1014107D02*
Y1104107D01*
X1024325Y1176606D02*
X1129325D01*
X1024325Y941607D02*
X1129325D01*
X1024325D02*
Y1176606D01*
X1129325Y941607D02*
Y1176606D01*
%TF.MD5,ac26b0b32e92c2f217a8de92d6325cde*%
M02*
