%TF.GenerationSoftware,Altium Limited,Altium Designer,20.1.8 (145)*%
G04 Layer_Physical_Order=2*
G04 Layer_Color=16729670*
%FSLAX45Y45*%
%MOMM*%
%TF.SameCoordinates,B8344769-4606-4218-AAAC-353AEC7BCCEF*%
%TF.FilePolarity,Positive*%
%TF.FileFunction,Copper,L2,Bot,Signal*%
%TF.Part,Single*%
G01*
G75*
%TA.AperFunction,ComponentPad*%
G04:AMPARAMS|DCode=10|XSize=1.1mm|YSize=1.4mm|CornerRadius=0.55mm|HoleSize=0mm|Usage=FLASHONLY|Rotation=270.000|XOffset=0mm|YOffset=0mm|HoleType=Round|Shape=RoundedRectangle|*
%AMROUNDEDRECTD10*
21,1,1.10000,0.30000,0,0,270.0*
21,1,0.00000,1.40000,0,0,270.0*
1,1,1.10000,-0.15000,0.00000*
1,1,1.10000,-0.15000,0.00000*
1,1,1.10000,0.15000,0.00000*
1,1,1.10000,0.15000,0.00000*
%
%ADD10ROUNDEDRECTD10*%
%ADD11O,1.70000X1.00000*%
%ADD12O,2.25000X3.75000*%
G04:AMPARAMS|DCode=13|XSize=2.25mm|YSize=3.75mm|CornerRadius=1.125mm|HoleSize=0mm|Usage=FLASHONLY|Rotation=180.000|XOffset=0mm|YOffset=0mm|HoleType=Round|Shape=RoundedRectangle|*
%AMROUNDEDRECTD13*
21,1,2.25000,1.50000,0,0,180.0*
21,1,0.00000,3.75000,0,0,180.0*
1,1,2.25000,0.00000,0.75000*
1,1,2.25000,0.00000,0.75000*
1,1,2.25000,0.00000,-0.75000*
1,1,2.25000,0.00000,-0.75000*
%
%ADD13ROUNDEDRECTD13*%
%ADD14O,2.00000X1.50000*%
%TA.AperFunction,ViaPad*%
%ADD15C,0.80000*%
%TA.AperFunction,SMDPad,CuDef*%
G04:AMPARAMS|DCode=16|XSize=0.85mm|YSize=1.4mm|CornerRadius=0.00425mm|HoleSize=0mm|Usage=FLASHONLY|Rotation=180.000|XOffset=0mm|YOffset=0mm|HoleType=Round|Shape=RoundedRectangle|*
%AMROUNDEDRECTD16*
21,1,0.85000,1.39150,0,0,180.0*
21,1,0.84150,1.40000,0,0,180.0*
1,1,0.00850,-0.42075,0.69575*
1,1,0.00850,0.42075,0.69575*
1,1,0.00850,0.42075,-0.69575*
1,1,0.00850,-0.42075,-0.69575*
%
%ADD16ROUNDEDRECTD16*%
G04:AMPARAMS|DCode=17|XSize=0.4mm|YSize=0.3mm|CornerRadius=0.0015mm|HoleSize=0mm|Usage=FLASHONLY|Rotation=270.000|XOffset=0mm|YOffset=0mm|HoleType=Round|Shape=RoundedRectangle|*
%AMROUNDEDRECTD17*
21,1,0.40000,0.29700,0,0,270.0*
21,1,0.39700,0.30000,0,0,270.0*
1,1,0.00300,-0.14850,-0.19850*
1,1,0.00300,-0.14850,0.19850*
1,1,0.00300,0.14850,0.19850*
1,1,0.00300,0.14850,-0.19850*
%
%ADD17ROUNDEDRECTD17*%
G04:AMPARAMS|DCode=18|XSize=0.4mm|YSize=0.3mm|CornerRadius=0.0015mm|HoleSize=0mm|Usage=FLASHONLY|Rotation=0.000|XOffset=0mm|YOffset=0mm|HoleType=Round|Shape=RoundedRectangle|*
%AMROUNDEDRECTD18*
21,1,0.40000,0.29700,0,0,0.0*
21,1,0.39700,0.30000,0,0,0.0*
1,1,0.00300,0.19850,-0.14850*
1,1,0.00300,-0.19850,-0.14850*
1,1,0.00300,-0.19850,0.14850*
1,1,0.00300,0.19850,0.14850*
%
%ADD18ROUNDEDRECTD18*%
G04:AMPARAMS|DCode=19|XSize=0.85mm|YSize=0.75mm|CornerRadius=0.00375mm|HoleSize=0mm|Usage=FLASHONLY|Rotation=0.000|XOffset=0mm|YOffset=0mm|HoleType=Round|Shape=RoundedRectangle|*
%AMROUNDEDRECTD19*
21,1,0.85000,0.74250,0,0,0.0*
21,1,0.84250,0.75000,0,0,0.0*
1,1,0.00750,0.42125,-0.37125*
1,1,0.00750,-0.42125,-0.37125*
1,1,0.00750,-0.42125,0.37125*
1,1,0.00750,0.42125,0.37125*
%
%ADD19ROUNDEDRECTD19*%
G04:AMPARAMS|DCode=20|XSize=0.8mm|YSize=0.7mm|CornerRadius=0.0035mm|HoleSize=0mm|Usage=FLASHONLY|Rotation=90.000|XOffset=0mm|YOffset=0mm|HoleType=Round|Shape=RoundedRectangle|*
%AMROUNDEDRECTD20*
21,1,0.80000,0.69300,0,0,90.0*
21,1,0.79300,0.70000,0,0,90.0*
1,1,0.00700,0.34650,0.39650*
1,1,0.00700,0.34650,-0.39650*
1,1,0.00700,-0.34650,-0.39650*
1,1,0.00700,-0.34650,0.39650*
%
%ADD20ROUNDEDRECTD20*%
G04:AMPARAMS|DCode=21|XSize=0.8mm|YSize=0.7mm|CornerRadius=0.0035mm|HoleSize=0mm|Usage=FLASHONLY|Rotation=0.000|XOffset=0mm|YOffset=0mm|HoleType=Round|Shape=RoundedRectangle|*
%AMROUNDEDRECTD21*
21,1,0.80000,0.69300,0,0,0.0*
21,1,0.79300,0.70000,0,0,0.0*
1,1,0.00700,0.39650,-0.34650*
1,1,0.00700,-0.39650,-0.34650*
1,1,0.00700,-0.39650,0.34650*
1,1,0.00700,0.39650,0.34650*
%
%ADD21ROUNDEDRECTD21*%
G04:AMPARAMS|DCode=22|XSize=0.85mm|YSize=0.75mm|CornerRadius=0.00375mm|HoleSize=0mm|Usage=FLASHONLY|Rotation=90.000|XOffset=0mm|YOffset=0mm|HoleType=Round|Shape=RoundedRectangle|*
%AMROUNDEDRECTD22*
21,1,0.85000,0.74250,0,0,90.0*
21,1,0.84250,0.75000,0,0,90.0*
1,1,0.00750,0.37125,0.42125*
1,1,0.00750,0.37125,-0.42125*
1,1,0.00750,-0.37125,-0.42125*
1,1,0.00750,-0.37125,0.42125*
%
%ADD22ROUNDEDRECTD22*%
%ADD23O,1.25000X0.30000*%
G04:AMPARAMS|DCode=24|XSize=0.35mm|YSize=2mm|CornerRadius=0.175mm|HoleSize=0mm|Usage=FLASHONLY|Rotation=270.000|XOffset=0mm|YOffset=0mm|HoleType=Round|Shape=RoundedRectangle|*
%AMROUNDEDRECTD24*
21,1,0.35000,1.65000,0,0,270.0*
21,1,0.00000,2.00000,0,0,270.0*
1,1,0.35000,-0.82500,0.00000*
1,1,0.35000,-0.82500,0.00000*
1,1,0.35000,0.82500,0.00000*
1,1,0.35000,0.82500,0.00000*
%
%ADD24ROUNDEDRECTD24*%
G04:AMPARAMS|DCode=25|XSize=2.1mm|YSize=1.6mm|CornerRadius=0.008mm|HoleSize=0mm|Usage=FLASHONLY|Rotation=270.000|XOffset=0mm|YOffset=0mm|HoleType=Round|Shape=RoundedRectangle|*
%AMROUNDEDRECTD25*
21,1,2.10000,1.58400,0,0,270.0*
21,1,2.08400,1.60000,0,0,270.0*
1,1,0.01600,-0.79200,-1.04200*
1,1,0.01600,-0.79200,1.04200*
1,1,0.01600,0.79200,1.04200*
1,1,0.01600,0.79200,-1.04200*
%
%ADD25ROUNDEDRECTD25*%
%TA.AperFunction,Conductor*%
%ADD26C,0.12700*%
%ADD27C,0.15240*%
%ADD28C,0.17780*%
G36*
X1879609Y20391D02*
X520829D01*
X513803Y35631D01*
X514984Y37014D01*
X520350Y45770D01*
X524280Y55257D01*
X526677Y65242D01*
X527483Y75479D01*
X526677Y85717D01*
X524280Y95702D01*
X520350Y105189D01*
X514984Y113945D01*
X508315Y121754D01*
X500507Y128423D01*
X491751Y133788D01*
X482264Y137718D01*
X472278Y140115D01*
X462041Y140921D01*
X451380D01*
Y161278D01*
X466691D01*
X470761Y161813D01*
X474554Y163384D01*
X477810Y165883D01*
X480309Y169140D01*
X481880Y172933D01*
X482416Y177002D01*
Y246302D01*
X481880Y250372D01*
X480309Y254165D01*
X477810Y257421D01*
X474554Y259920D01*
X470761Y261491D01*
X466691Y262027D01*
X387391D01*
X383322Y261491D01*
X379529Y259920D01*
X376272Y257421D01*
X373773Y254165D01*
X372202Y250372D01*
X371667Y246302D01*
Y177002D01*
X372202Y172933D01*
X373773Y169140D01*
X376272Y165883D01*
X379529Y163384D01*
X383322Y161813D01*
X387391Y161278D01*
X402703D01*
Y140921D01*
X392041D01*
X381804Y140115D01*
X371819Y137718D01*
X362332Y133788D01*
X353576Y128423D01*
X345767Y121754D01*
X339098Y113945D01*
X333733Y105189D01*
X329803Y95702D01*
X327405Y85717D01*
X326600Y75479D01*
X327405Y65242D01*
X329803Y55257D01*
X333733Y45770D01*
X339098Y37014D01*
X340279Y35631D01*
X333253Y20391D01*
X20391D01*
Y1579609D01*
X332434D01*
X339461Y1564369D01*
X339098Y1563945D01*
X333733Y1555189D01*
X330446Y1547256D01*
X308367D01*
Y1547390D01*
X307831Y1551459D01*
X306260Y1555252D01*
X303761Y1558509D01*
X300505Y1561008D01*
X296712Y1562579D01*
X292642Y1563114D01*
X223342D01*
X219273Y1562579D01*
X215480Y1561008D01*
X212223Y1558509D01*
X209724Y1555252D01*
X208154Y1551459D01*
X207618Y1547390D01*
Y1468090D01*
X208154Y1464020D01*
X209724Y1460227D01*
X212223Y1456971D01*
X215480Y1454472D01*
X219273Y1452901D01*
X223342Y1452365D01*
X292642D01*
X296712Y1452901D01*
X300505Y1454472D01*
X303761Y1456971D01*
X306260Y1460227D01*
X307831Y1464020D01*
X308367Y1468090D01*
Y1503703D01*
X330446D01*
X333733Y1495770D01*
X339098Y1487014D01*
X345767Y1479205D01*
X353576Y1472536D01*
X362332Y1467171D01*
X371819Y1463241D01*
X381804Y1460844D01*
X392041Y1460038D01*
X462041D01*
X472278Y1460844D01*
X482264Y1463241D01*
X491751Y1467171D01*
X500507Y1472536D01*
X508315Y1479205D01*
X514984Y1487014D01*
X520350Y1495770D01*
X524280Y1505257D01*
X526677Y1515242D01*
X527483Y1525480D01*
X526677Y1535717D01*
X524280Y1545702D01*
X520350Y1555189D01*
X514984Y1563945D01*
X514622Y1564369D01*
X521648Y1579609D01*
X832434D01*
X839461Y1564369D01*
X839098Y1563945D01*
X833733Y1555189D01*
X830446Y1547256D01*
X813285D01*
X807649Y1546514D01*
X802397Y1544338D01*
X797887Y1540878D01*
X714844Y1457835D01*
X694256D01*
X688620Y1457093D01*
X683368Y1454917D01*
X678858Y1451457D01*
X598175Y1370773D01*
X594714Y1366263D01*
X592539Y1361011D01*
X591797Y1355375D01*
Y1334930D01*
X550273D01*
X546203Y1334395D01*
X542410Y1332824D01*
X539154Y1330325D01*
X536655Y1327068D01*
X535084Y1323275D01*
X534548Y1319206D01*
Y1239906D01*
X535084Y1235836D01*
X536655Y1232044D01*
X539154Y1228787D01*
X542410Y1226288D01*
X546203Y1224717D01*
X550273Y1224181D01*
X619573D01*
X623642Y1224717D01*
X627435Y1226288D01*
X630692Y1228787D01*
X633191Y1232044D01*
X634761Y1235836D01*
X635297Y1239906D01*
Y1307812D01*
X635349Y1308206D01*
Y1346355D01*
X703276Y1414282D01*
X723864D01*
X729500Y1415024D01*
X734752Y1417200D01*
X739262Y1420660D01*
X816397Y1497796D01*
X833088Y1495845D01*
X834047Y1495257D01*
X839098Y1487014D01*
X845767Y1479205D01*
X853576Y1472536D01*
X862332Y1467171D01*
X871819Y1463241D01*
X881804Y1460844D01*
X892041Y1460038D01*
X962041D01*
X972278Y1460844D01*
X982264Y1463241D01*
X991751Y1467171D01*
X1000507Y1472536D01*
X1008315Y1479205D01*
X1014985Y1487014D01*
X1020350Y1495770D01*
X1024280Y1505257D01*
X1026677Y1515242D01*
X1027483Y1525480D01*
X1026677Y1535717D01*
X1024280Y1545702D01*
X1020350Y1555189D01*
X1014985Y1563945D01*
X1014622Y1564369D01*
X1021648Y1579609D01*
X1879609D01*
Y20391D01*
D02*
G37*
%LPC*%
G36*
X302657Y1435074D02*
X273145D01*
Y1384819D01*
X318407D01*
Y1419325D01*
X317870Y1423401D01*
X316297Y1427199D01*
X313794Y1430461D01*
X310532Y1432964D01*
X306733Y1434537D01*
X302657Y1435074D01*
D02*
G37*
G36*
X257905D02*
X228407D01*
X224331Y1434537D01*
X220532Y1432964D01*
X217270Y1430461D01*
X214767Y1427199D01*
X213194Y1423401D01*
X212657Y1419325D01*
Y1384819D01*
X257905D01*
Y1435074D01*
D02*
G37*
G36*
X1161153Y1378125D02*
X1153926D01*
Y1350369D01*
X1176676D01*
Y1362602D01*
X1176147Y1366619D01*
X1174596Y1370363D01*
X1172129Y1373578D01*
X1168914Y1376045D01*
X1165170Y1377596D01*
X1161153Y1378125D01*
D02*
G37*
G36*
X1138686D02*
X1131453D01*
X1127435Y1377596D01*
X1123691Y1376045D01*
X1120477Y1373578D01*
X1118010Y1370363D01*
X1116459Y1366619D01*
X1115930Y1362602D01*
Y1350369D01*
X1138686D01*
Y1378125D01*
D02*
G37*
G36*
X1773775Y1505456D02*
X1723774D01*
X1711970Y1504682D01*
X1700368Y1502374D01*
X1689167Y1498572D01*
X1678557Y1493340D01*
X1668722Y1486768D01*
X1659828Y1478968D01*
X1652029Y1470075D01*
X1645457Y1460239D01*
X1640225Y1449630D01*
X1636422Y1438428D01*
X1634115Y1426826D01*
X1633341Y1415022D01*
X1634115Y1403218D01*
X1636422Y1391616D01*
X1640225Y1380415D01*
X1645457Y1369806D01*
X1652029Y1359970D01*
X1659828Y1351076D01*
X1668722Y1343277D01*
X1678557Y1336705D01*
X1689167Y1331473D01*
X1700368Y1327670D01*
X1711970Y1325363D01*
X1723774Y1324589D01*
X1773775D01*
X1785579Y1325363D01*
X1797181Y1327670D01*
X1808382Y1331473D01*
X1818992Y1336705D01*
X1828827Y1343277D01*
X1837721Y1351076D01*
X1845520Y1359970D01*
X1852092Y1369806D01*
X1857324Y1380415D01*
X1861127Y1391616D01*
X1863434Y1403218D01*
X1864208Y1415022D01*
X1863434Y1426826D01*
X1861127Y1438428D01*
X1857324Y1449630D01*
X1852092Y1460239D01*
X1845520Y1470075D01*
X1837721Y1478968D01*
X1828827Y1486768D01*
X1818992Y1493340D01*
X1808382Y1498572D01*
X1797181Y1502374D01*
X1785579Y1504682D01*
X1773775Y1505456D01*
D02*
G37*
G36*
X318407Y1369579D02*
X273145D01*
Y1319325D01*
X302657D01*
X306733Y1319861D01*
X310532Y1321435D01*
X313794Y1323938D01*
X316297Y1327200D01*
X317870Y1330998D01*
X318407Y1335074D01*
Y1369579D01*
D02*
G37*
G36*
X257905D02*
X212657D01*
Y1335074D01*
X213194Y1330998D01*
X214767Y1327200D01*
X217270Y1323938D01*
X220532Y1321435D01*
X224331Y1319861D01*
X228407Y1319325D01*
X257905D01*
Y1369579D01*
D02*
G37*
G36*
X938318Y1357934D02*
X908816D01*
Y1307679D01*
X954068D01*
Y1342185D01*
X953531Y1346261D01*
X951958Y1350060D01*
X949455Y1353321D01*
X946193Y1355824D01*
X942395Y1357398D01*
X938318Y1357934D01*
D02*
G37*
G36*
X893576D02*
X864068D01*
X859992Y1357398D01*
X856193Y1355824D01*
X852931Y1353321D01*
X850429Y1350060D01*
X848855Y1346261D01*
X848319Y1342185D01*
Y1307679D01*
X893576D01*
Y1357934D01*
D02*
G37*
G36*
X1176676Y1335129D02*
X1153926D01*
Y1307379D01*
X1161153D01*
X1165170Y1307908D01*
X1168914Y1309459D01*
X1172129Y1311926D01*
X1174596Y1315141D01*
X1176147Y1318885D01*
X1176676Y1322902D01*
Y1335129D01*
D02*
G37*
G36*
X1138686D02*
X1115930D01*
Y1322902D01*
X1116459Y1318885D01*
X1118010Y1315141D01*
X1120477Y1311926D01*
X1123691Y1309459D01*
X1127435Y1307908D01*
X1131453Y1307379D01*
X1138686D01*
Y1335129D01*
D02*
G37*
G36*
X1142970Y1564244D02*
X1058820D01*
X1054730Y1563705D01*
X1050920Y1562127D01*
X1047647Y1559616D01*
X1045136Y1556344D01*
X1043558Y1552533D01*
X1043020Y1548443D01*
Y1441595D01*
X850899D01*
X845263Y1440853D01*
X840011Y1438677D01*
X835501Y1435217D01*
X761945Y1361661D01*
X759086Y1357934D01*
X709068D01*
X704992Y1357398D01*
X701193Y1355824D01*
X697932Y1353321D01*
X695429Y1350060D01*
X693855Y1346261D01*
X693319Y1342185D01*
Y1257934D01*
X693855Y1253858D01*
X695429Y1250060D01*
X697932Y1246798D01*
X701193Y1244295D01*
X703913Y1243168D01*
Y1036163D01*
X704655Y1030527D01*
X706831Y1025275D01*
X710291Y1020765D01*
X746370Y984686D01*
X750880Y981226D01*
X756132Y979050D01*
X761768Y978308D01*
X799861D01*
X804669Y974150D01*
X811792Y963068D01*
X811655Y961674D01*
X812239Y955746D01*
X813968Y950046D01*
X816776Y944793D01*
X820555Y940188D01*
X825160Y936409D01*
X830413Y933601D01*
X836113Y931872D01*
X842041Y931288D01*
X886515D01*
Y898199D01*
X871166D01*
X867090Y897663D01*
X863291Y896089D01*
X860029Y893586D01*
X857526Y890325D01*
X855953Y886526D01*
X855416Y882450D01*
Y798200D01*
X855953Y794123D01*
X857526Y790325D01*
X860029Y787063D01*
X863291Y784560D01*
X867090Y782987D01*
X871166Y782450D01*
X886515D01*
Y669515D01*
X887257Y663879D01*
X889432Y658627D01*
X892893Y654117D01*
X1132448Y414562D01*
Y402191D01*
X1132126Y399746D01*
Y320446D01*
X1132661Y316376D01*
X1134232Y312584D01*
X1136731Y309327D01*
X1139988Y306828D01*
X1143781Y305257D01*
X1147850Y304721D01*
X1217150D01*
X1221220Y305257D01*
X1225013Y306828D01*
X1228269Y309327D01*
X1230768Y312584D01*
X1232339Y316376D01*
X1232875Y320446D01*
Y338320D01*
X1645416D01*
X1649645Y328109D01*
X1655422Y318682D01*
X1662602Y310275D01*
X1671009Y303095D01*
X1680436Y297318D01*
X1690650Y293087D01*
X1701401Y290506D01*
X1712423Y289639D01*
X1742423D01*
X1753445Y290506D01*
X1764195Y293087D01*
X1774409Y297318D01*
X1783836Y303095D01*
X1792243Y310275D01*
X1799424Y318682D01*
X1805200Y328109D01*
X1809431Y338323D01*
X1812012Y349074D01*
X1812880Y360096D01*
X1812012Y371118D01*
X1809431Y381868D01*
X1805200Y392083D01*
X1799424Y401509D01*
X1792243Y409916D01*
X1783836Y417097D01*
X1774409Y422873D01*
X1764195Y427105D01*
X1753445Y429685D01*
X1742423Y430553D01*
X1712423D01*
X1701401Y429685D01*
X1690650Y427105D01*
X1680436Y422873D01*
X1671009Y417097D01*
X1662602Y409916D01*
X1655422Y401509D01*
X1649645Y392083D01*
X1645416Y381872D01*
X1232875D01*
Y399746D01*
X1232339Y403816D01*
X1230768Y407608D01*
X1228269Y410865D01*
X1225013Y413364D01*
X1221220Y414935D01*
X1217150Y415470D01*
X1176000D01*
Y423582D01*
X1175258Y429218D01*
X1173082Y434470D01*
X1169622Y438980D01*
X930067Y678535D01*
Y782450D01*
X945416D01*
X949492Y782987D01*
X953291Y784560D01*
X956553Y787063D01*
X959056Y790325D01*
X960629Y794123D01*
X961166Y798200D01*
Y882450D01*
X960629Y886526D01*
X959056Y890325D01*
X956553Y893586D01*
X953291Y896089D01*
X949492Y897663D01*
X945416Y898199D01*
X930067D01*
Y931288D01*
X937041D01*
X942969Y931872D01*
X948670Y933601D01*
X953923Y936409D01*
X958528Y940188D01*
X962307Y944793D01*
X965115Y950046D01*
X966844Y955746D01*
X967428Y961674D01*
X966844Y967602D01*
X965115Y973303D01*
X962307Y978556D01*
X959669Y986674D01*
X962307Y994793D01*
X965115Y1000046D01*
X966844Y1005746D01*
X967428Y1011674D01*
X966844Y1017602D01*
X965115Y1023302D01*
X962307Y1028556D01*
X958528Y1033160D01*
X953923Y1036940D01*
X948670Y1039747D01*
X942969Y1041476D01*
X937041Y1042060D01*
X842041D01*
X836113Y1041476D01*
X830413Y1039747D01*
X825160Y1036940D01*
X820555Y1033160D01*
X816776Y1028556D01*
X813968Y1023302D01*
X813531Y1021861D01*
X770788D01*
X747466Y1045183D01*
Y1242185D01*
X783318D01*
X787395Y1242722D01*
X791193Y1244295D01*
X794455Y1246798D01*
X796958Y1250060D01*
X798531Y1253858D01*
X799068Y1257934D01*
Y1330818D01*
X799120Y1331210D01*
Y1337243D01*
X859919Y1398042D01*
X1043117D01*
Y1378125D01*
X1041453D01*
X1037436Y1377596D01*
X1033692Y1376045D01*
X1030477Y1373578D01*
X1028010Y1370363D01*
X1026459Y1366619D01*
X1025930Y1362602D01*
Y1322902D01*
X1026459Y1318885D01*
X1028010Y1315141D01*
X1030477Y1311926D01*
X1033692Y1309459D01*
X1037436Y1307908D01*
X1041453Y1307379D01*
X1071153D01*
X1075170Y1307908D01*
X1078914Y1309459D01*
X1082129Y1311926D01*
X1084596Y1315141D01*
X1086147Y1318885D01*
X1086676Y1322902D01*
Y1362602D01*
X1086669Y1362650D01*
Y1393494D01*
X1142970D01*
X1147059Y1394032D01*
X1150870Y1395610D01*
X1154142Y1398121D01*
X1156653Y1401393D01*
X1158231Y1405204D01*
X1158770Y1409294D01*
Y1548443D01*
X1158231Y1552533D01*
X1156653Y1556344D01*
X1154142Y1559616D01*
X1150870Y1562127D01*
X1147059Y1563705D01*
X1142970Y1564244D01*
D02*
G37*
G36*
X1295329Y1319785D02*
X1283099D01*
Y1297032D01*
X1310852D01*
Y1304262D01*
X1310323Y1308279D01*
X1308772Y1312023D01*
X1306305Y1315238D01*
X1303091Y1317705D01*
X1299347Y1319256D01*
X1295329Y1319785D01*
D02*
G37*
G36*
X1267859D02*
X1255629D01*
X1251612Y1319256D01*
X1247868Y1317705D01*
X1244653Y1315238D01*
X1242186Y1312023D01*
X1240635Y1308279D01*
X1240106Y1304262D01*
Y1297032D01*
X1267859D01*
Y1319785D01*
D02*
G37*
G36*
X1310852Y1281792D02*
X1283099D01*
Y1259039D01*
X1295329D01*
X1299347Y1259568D01*
X1303091Y1261119D01*
X1306305Y1263586D01*
X1308772Y1266801D01*
X1310323Y1270545D01*
X1310852Y1274562D01*
Y1281792D01*
D02*
G37*
G36*
X1267859D02*
X1240106D01*
Y1274562D01*
X1240635Y1270545D01*
X1242186Y1266801D01*
X1244653Y1263586D01*
X1247868Y1261119D01*
X1251612Y1259568D01*
X1255629Y1259039D01*
X1267859D01*
Y1281792D01*
D02*
G37*
G36*
X954068Y1292439D02*
X908816D01*
Y1242185D01*
X938318D01*
X942395Y1242722D01*
X946193Y1244295D01*
X949455Y1246798D01*
X951958Y1250060D01*
X953531Y1253858D01*
X954068Y1257934D01*
Y1292439D01*
D02*
G37*
G36*
X893576D02*
X848319D01*
Y1257934D01*
X848855Y1253858D01*
X850429Y1250060D01*
X852931Y1246798D01*
X856193Y1244295D01*
X859992Y1242722D01*
X864068Y1242185D01*
X893576D01*
Y1292439D01*
D02*
G37*
G36*
X142642Y1563114D02*
X73342D01*
X69272Y1562579D01*
X65480Y1561008D01*
X62223Y1558509D01*
X59724Y1555252D01*
X58153Y1551459D01*
X57618Y1547390D01*
Y1479483D01*
X57566Y1479089D01*
Y1405850D01*
X57657Y1405153D01*
Y1349246D01*
X57566Y1348549D01*
Y1038671D01*
X58308Y1033035D01*
X60483Y1027783D01*
X63944Y1023273D01*
X108403Y978814D01*
X112913Y975353D01*
X118165Y973178D01*
X123801Y972436D01*
X371672D01*
X372826Y972588D01*
X375233Y971755D01*
X384872Y963868D01*
X386187Y962250D01*
X386761Y960598D01*
X387239Y955746D01*
X388968Y950046D01*
X391776Y944793D01*
X395555Y940188D01*
X400160Y936409D01*
X405413Y933601D01*
X411113Y931872D01*
X417041Y931288D01*
X438800D01*
Y412027D01*
X387391D01*
X383322Y411491D01*
X379529Y409920D01*
X376272Y407422D01*
X373773Y404165D01*
X372202Y400372D01*
X371667Y396302D01*
Y327003D01*
X372202Y322933D01*
X373773Y319140D01*
X376272Y315884D01*
X379529Y313385D01*
X383322Y311814D01*
X387391Y311278D01*
X466691D01*
X470761Y311814D01*
X474554Y313385D01*
X477810Y315884D01*
X480309Y319140D01*
X481880Y322933D01*
X482416Y327003D01*
Y338320D01*
X527048D01*
Y322971D01*
X527585Y318894D01*
X529158Y315096D01*
X531661Y311834D01*
X534923Y309331D01*
X538721Y307758D01*
X542797Y307221D01*
X627048D01*
X631124Y307758D01*
X634923Y309331D01*
X638184Y311834D01*
X640687Y315096D01*
X642261Y318894D01*
X642797Y322971D01*
Y397221D01*
X642261Y401297D01*
X640687Y405096D01*
X638184Y408358D01*
X634923Y410860D01*
X631124Y412434D01*
X627048Y412970D01*
X542797D01*
X538721Y412434D01*
X534923Y410860D01*
X531661Y408358D01*
X529158Y405096D01*
X527585Y401297D01*
X527048Y397221D01*
Y381872D01*
X482416D01*
Y396302D01*
X482353Y396783D01*
Y931288D01*
X512041D01*
X517969Y931872D01*
X523670Y933601D01*
X528923Y936409D01*
X533528Y940188D01*
X537307Y944793D01*
X540115Y950046D01*
X541844Y955746D01*
X542428Y961674D01*
X541844Y967602D01*
X540115Y973303D01*
X537307Y978556D01*
X534669Y986674D01*
X537307Y994793D01*
X540115Y1000046D01*
X541844Y1005746D01*
X542428Y1011674D01*
X541844Y1017602D01*
X540115Y1023302D01*
X537307Y1028556D01*
X533528Y1033160D01*
Y1040188D01*
X537307Y1044793D01*
X540115Y1050046D01*
X541844Y1055746D01*
X542428Y1061674D01*
X541844Y1067602D01*
X540115Y1073303D01*
X539391Y1074658D01*
X544019Y1085871D01*
X546947Y1089062D01*
X548107Y1089078D01*
X563146Y1074233D01*
Y581680D01*
X563888Y576044D01*
X566064Y570791D01*
X569525Y566282D01*
X817074Y318732D01*
Y241522D01*
X817126Y241128D01*
Y173222D01*
X817661Y169152D01*
X819232Y165359D01*
X821731Y162103D01*
X824988Y159604D01*
X828780Y158033D01*
X832850Y157497D01*
X902150D01*
X906220Y158033D01*
X910012Y159604D01*
X913269Y162103D01*
X915768Y165359D01*
X917339Y169152D01*
X917875Y173222D01*
Y252521D01*
X917339Y256591D01*
X915768Y260384D01*
X913269Y263641D01*
X910012Y266139D01*
X906220Y267710D01*
X902150Y268246D01*
X860626D01*
Y327752D01*
X859884Y333388D01*
X857709Y338640D01*
X854248Y343150D01*
X606699Y590699D01*
Y1097613D01*
X605957Y1103249D01*
X603781Y1108501D01*
X600321Y1113011D01*
X586259Y1127072D01*
X581749Y1130533D01*
X576497Y1132708D01*
X570861Y1133450D01*
X533175D01*
X528923Y1136940D01*
X523670Y1139748D01*
X517970Y1141477D01*
X512042Y1142060D01*
X417042D01*
X411113Y1141477D01*
X405413Y1139748D01*
X400160Y1136940D01*
X395555Y1133161D01*
X391776Y1128556D01*
X388968Y1123303D01*
X387239Y1117602D01*
X386655Y1111674D01*
X387239Y1105746D01*
X388016Y1103183D01*
X381470Y1089590D01*
X368081Y1096510D01*
Y1232052D01*
X386651D01*
X386655Y1232044D01*
X389153Y1228787D01*
X392410Y1226288D01*
X396203Y1224717D01*
X400273Y1224181D01*
X469572D01*
X473642Y1224717D01*
X477435Y1226288D01*
X480691Y1228787D01*
X483190Y1232044D01*
X484761Y1235836D01*
X485297Y1239906D01*
Y1319206D01*
X484761Y1323275D01*
X483190Y1327068D01*
X480691Y1330325D01*
X477435Y1332824D01*
X473642Y1334395D01*
X469572Y1334930D01*
X400273D01*
X396203Y1334395D01*
X392410Y1332824D01*
X389153Y1330325D01*
X386655Y1327068D01*
X385084Y1323275D01*
X384548Y1319206D01*
Y1275605D01*
X300547D01*
Y1276358D01*
X300010Y1280435D01*
X298437Y1284233D01*
X295934Y1287495D01*
X292672Y1289998D01*
X288873Y1291571D01*
X284797Y1292108D01*
X200547D01*
X196471Y1291571D01*
X192672Y1289998D01*
X189410Y1287495D01*
X186907Y1284233D01*
X185334Y1280435D01*
X184797Y1276358D01*
Y1202108D01*
X185334Y1198032D01*
X186907Y1194233D01*
X189410Y1190971D01*
X192672Y1188469D01*
X196471Y1186895D01*
X200547Y1186359D01*
X284797D01*
X288873Y1186895D01*
X292672Y1188469D01*
X295934Y1190971D01*
X298437Y1194233D01*
X300010Y1198032D01*
X300547Y1202108D01*
Y1232052D01*
X324529D01*
Y1079329D01*
X325271Y1073693D01*
X327446Y1068441D01*
X330907Y1063931D01*
X348561Y1046276D01*
X353071Y1042816D01*
X358323Y1040640D01*
X363210Y1039997D01*
X366146Y1033981D01*
X369037Y1026157D01*
X360206Y1015988D01*
X132821D01*
X101118Y1047691D01*
Y1319325D01*
X147657D01*
X151734Y1319861D01*
X155532Y1321435D01*
X158794Y1323938D01*
X161297Y1327200D01*
X162870Y1330998D01*
X163407Y1335074D01*
Y1419325D01*
X162870Y1423401D01*
X161297Y1427199D01*
X158794Y1430461D01*
X155532Y1432964D01*
X151734Y1434537D01*
X147657Y1435074D01*
X101118D01*
Y1452365D01*
X142642D01*
X146712Y1452901D01*
X150504Y1454472D01*
X153761Y1456971D01*
X156260Y1460227D01*
X157831Y1464020D01*
X158367Y1468090D01*
Y1547390D01*
X157831Y1551459D01*
X156260Y1555252D01*
X153761Y1558509D01*
X150504Y1561008D01*
X146712Y1562579D01*
X142642Y1563114D01*
D02*
G37*
G36*
X1352970Y1564244D02*
X1268820D01*
X1264730Y1563705D01*
X1260920Y1562127D01*
X1257647Y1559616D01*
X1255136Y1556344D01*
X1253558Y1552533D01*
X1253020Y1548443D01*
Y1409294D01*
X1253558Y1405204D01*
X1255136Y1401393D01*
X1257647Y1398121D01*
X1260920Y1395610D01*
X1264730Y1394032D01*
X1268820Y1393494D01*
X1325248D01*
Y1321868D01*
X1325990Y1316232D01*
X1328165Y1310980D01*
X1331626Y1306470D01*
X1371342Y1266754D01*
X1370876Y1262022D01*
X1371508Y1255604D01*
X1373380Y1249433D01*
X1376420Y1243745D01*
X1380512Y1238760D01*
X1381563Y1235726D01*
Y1228073D01*
X1369759Y1215024D01*
X1310752D01*
X1310323Y1218280D01*
X1308772Y1222023D01*
X1306305Y1225238D01*
X1303091Y1227705D01*
X1299347Y1229256D01*
X1295329Y1229785D01*
X1255629D01*
X1251612Y1229256D01*
X1247868Y1227705D01*
X1244653Y1225238D01*
X1242186Y1222023D01*
X1240635Y1218280D01*
X1240207Y1215024D01*
X969841D01*
X969027Y1215838D01*
X964252Y1219503D01*
X958691Y1221806D01*
X952723Y1222592D01*
X826359D01*
X820392Y1221806D01*
X814830Y1219503D01*
X810055Y1215838D01*
X787877Y1193660D01*
X784213Y1188885D01*
X781910Y1183324D01*
X781124Y1177356D01*
Y1145992D01*
X781910Y1140025D01*
X784213Y1134464D01*
X787877Y1129688D01*
X812421Y1105145D01*
X813968Y1100046D01*
X816776Y1094793D01*
X820555Y1090188D01*
X825159Y1086409D01*
X830413Y1083601D01*
X836113Y1081872D01*
X842041Y1081288D01*
X937041D01*
X942969Y1081872D01*
X948669Y1083601D01*
X953923Y1086409D01*
X958527Y1090188D01*
X962306Y1094793D01*
X965114Y1100046D01*
X966843Y1105746D01*
X967427Y1111674D01*
X966843Y1117602D01*
X965114Y1123302D01*
X971448Y1136329D01*
X973919Y1138430D01*
X1021451D01*
Y1099457D01*
X1021986Y1095387D01*
X1023557Y1091594D01*
X1026056Y1088338D01*
X1029313Y1085839D01*
X1033105Y1084268D01*
X1037175Y1083732D01*
X1116475D01*
X1120545Y1084268D01*
X1124337Y1085839D01*
X1127594Y1088338D01*
X1130093Y1091594D01*
X1131664Y1095387D01*
X1132200Y1099457D01*
Y1138430D01*
X1171609D01*
X1172055Y1135039D01*
X1173606Y1131295D01*
X1176073Y1128080D01*
X1179288Y1125613D01*
X1183032Y1124062D01*
X1187049Y1123533D01*
X1226749D01*
X1230767Y1124062D01*
X1234511Y1125613D01*
X1237725Y1128080D01*
X1240192Y1131295D01*
X1241743Y1135039D01*
X1242180Y1138360D01*
X1357111D01*
X1370876Y1132022D01*
X1371508Y1125604D01*
X1373380Y1119433D01*
X1376420Y1113745D01*
X1380512Y1108760D01*
X1381563Y1105725D01*
Y1093319D01*
X1380512Y1090285D01*
X1376420Y1085300D01*
X1373380Y1079612D01*
X1371508Y1073440D01*
X1370876Y1067022D01*
X1371508Y1060604D01*
X1373380Y1054432D01*
X1376420Y1048745D01*
X1380512Y1043760D01*
X1385497Y1039668D01*
X1391184Y1036628D01*
X1397356Y1034756D01*
X1403774Y1034124D01*
X1568775D01*
X1575193Y1034756D01*
X1581364Y1036628D01*
X1587052Y1039668D01*
X1592037Y1043760D01*
X1596129Y1048745D01*
X1599169Y1054432D01*
X1601041Y1060604D01*
X1601673Y1067022D01*
X1601041Y1073440D01*
X1599169Y1079612D01*
X1596129Y1085300D01*
X1592037Y1090285D01*
X1590985Y1093319D01*
Y1105725D01*
X1592037Y1108760D01*
X1596129Y1113745D01*
X1599169Y1119433D01*
X1601041Y1125604D01*
X1601673Y1132022D01*
X1601041Y1138440D01*
X1599169Y1144612D01*
X1596129Y1150300D01*
X1592037Y1155285D01*
X1590985Y1158320D01*
Y1170725D01*
X1592037Y1173760D01*
X1596129Y1178745D01*
X1599169Y1184433D01*
X1601041Y1190604D01*
X1601673Y1197022D01*
X1601041Y1203441D01*
X1599169Y1209612D01*
X1596129Y1215300D01*
X1592037Y1220285D01*
X1590986Y1223319D01*
Y1235726D01*
X1592037Y1238760D01*
X1596129Y1243745D01*
X1599169Y1249433D01*
X1601041Y1255604D01*
X1601673Y1262022D01*
X1601041Y1268440D01*
X1599169Y1274612D01*
X1596129Y1280300D01*
X1592037Y1285285D01*
X1587052Y1289376D01*
X1581364Y1292417D01*
X1575193Y1294288D01*
X1568775Y1294921D01*
X1555097D01*
X1548045Y1308322D01*
X1554883Y1321644D01*
X1572974D01*
X1577161Y1322195D01*
X1581063Y1323811D01*
X1584414Y1326382D01*
X1586985Y1329733D01*
X1588601Y1333635D01*
X1589153Y1337822D01*
Y1546222D01*
X1588601Y1550409D01*
X1586985Y1554312D01*
X1584414Y1557662D01*
X1581063Y1560233D01*
X1577161Y1561850D01*
X1572974Y1562401D01*
X1414575D01*
X1410387Y1561850D01*
X1406485Y1560233D01*
X1403135Y1557662D01*
X1400564Y1554312D01*
X1398947Y1550409D01*
X1398396Y1546222D01*
Y1337822D01*
X1398947Y1333635D01*
X1400564Y1329733D01*
X1403135Y1326382D01*
X1406485Y1323811D01*
X1410387Y1322195D01*
X1414575Y1321644D01*
X1472666D01*
X1479504Y1308322D01*
X1472451Y1294921D01*
X1404768D01*
X1368800Y1330888D01*
Y1439945D01*
X1368770Y1440177D01*
Y1548443D01*
X1368231Y1552533D01*
X1366653Y1556344D01*
X1364142Y1559616D01*
X1360870Y1562127D01*
X1357059Y1563705D01*
X1352970Y1564244D01*
D02*
G37*
G36*
X284797Y1137108D02*
X250292D01*
Y1091853D01*
X300547D01*
Y1121358D01*
X300010Y1125435D01*
X298437Y1129233D01*
X295934Y1132495D01*
X292672Y1134998D01*
X288873Y1136571D01*
X284797Y1137108D01*
D02*
G37*
G36*
X235052D02*
X200547D01*
X196471Y1136571D01*
X192672Y1134998D01*
X189410Y1132495D01*
X186907Y1129233D01*
X185334Y1125435D01*
X184797Y1121358D01*
Y1091853D01*
X235052D01*
Y1137108D01*
D02*
G37*
G36*
X1226749Y1094279D02*
X1214516D01*
Y1071533D01*
X1242272D01*
Y1078756D01*
X1241743Y1082774D01*
X1240192Y1086518D01*
X1237725Y1089732D01*
X1234511Y1092199D01*
X1230767Y1093750D01*
X1226749Y1094279D01*
D02*
G37*
G36*
X1199276D02*
X1187049D01*
X1183032Y1093750D01*
X1179288Y1092199D01*
X1176073Y1089732D01*
X1173606Y1086518D01*
X1172055Y1082774D01*
X1171526Y1078756D01*
Y1071533D01*
X1199276D01*
Y1094279D01*
D02*
G37*
G36*
X1242272Y1056293D02*
X1214516D01*
Y1033533D01*
X1226749D01*
X1230767Y1034062D01*
X1234511Y1035613D01*
X1237725Y1038080D01*
X1240192Y1041295D01*
X1241743Y1045039D01*
X1242272Y1049056D01*
Y1056293D01*
D02*
G37*
G36*
X1199276D02*
X1171526D01*
Y1049056D01*
X1172055Y1045039D01*
X1173606Y1041295D01*
X1176073Y1038080D01*
X1179288Y1035613D01*
X1183032Y1034062D01*
X1187049Y1033533D01*
X1199276D01*
Y1056293D01*
D02*
G37*
G36*
X300547Y1076613D02*
X250292D01*
Y1031359D01*
X284797D01*
X288873Y1031895D01*
X292672Y1033469D01*
X295934Y1035972D01*
X298437Y1039233D01*
X300010Y1043032D01*
X300547Y1047108D01*
Y1076613D01*
D02*
G37*
G36*
X235052D02*
X184797D01*
Y1047108D01*
X185334Y1043032D01*
X186907Y1039233D01*
X189410Y1035972D01*
X192672Y1033469D01*
X196471Y1031895D01*
X200547Y1031359D01*
X235052D01*
Y1076613D01*
D02*
G37*
G36*
X790416Y898199D02*
X760910D01*
Y847944D01*
X806166D01*
Y882450D01*
X805629Y886526D01*
X804056Y890325D01*
X801553Y893586D01*
X798291Y896089D01*
X794492Y897663D01*
X790416Y898199D01*
D02*
G37*
G36*
X745670D02*
X716166D01*
X712090Y897663D01*
X708291Y896089D01*
X705029Y893586D01*
X702526Y890325D01*
X700953Y886526D01*
X700416Y882450D01*
Y847944D01*
X745670D01*
Y898199D01*
D02*
G37*
G36*
X806166Y832704D02*
X760910D01*
Y782450D01*
X790416D01*
X794492Y782987D01*
X798291Y784560D01*
X801553Y787063D01*
X804056Y790325D01*
X805629Y794123D01*
X806166Y798200D01*
Y832704D01*
D02*
G37*
G36*
X745670D02*
X700416D01*
Y798200D01*
X700953Y794123D01*
X702526Y790325D01*
X705029Y787063D01*
X708291Y784560D01*
X712090Y782987D01*
X716166Y782450D01*
X745670D01*
Y832704D01*
D02*
G37*
G36*
X1773775Y939456D02*
X1723774D01*
X1711970Y938682D01*
X1700368Y936374D01*
X1689167Y932572D01*
X1678557Y927340D01*
X1668722Y920768D01*
X1659828Y912968D01*
X1652029Y904075D01*
X1645457Y894239D01*
X1640225Y883630D01*
X1636422Y872428D01*
X1634115Y860826D01*
X1633341Y849022D01*
X1634115Y837219D01*
X1636422Y825617D01*
X1640225Y814415D01*
X1645457Y803806D01*
X1652029Y793970D01*
X1659828Y785076D01*
X1668722Y777277D01*
X1678557Y770705D01*
X1689167Y765473D01*
X1700368Y761671D01*
X1711970Y759363D01*
X1723774Y758589D01*
X1773775D01*
X1785579Y759363D01*
X1797181Y761671D01*
X1808382Y765473D01*
X1818992Y770705D01*
X1828827Y777277D01*
X1837721Y785076D01*
X1845520Y793970D01*
X1852092Y803806D01*
X1857324Y814415D01*
X1861127Y825617D01*
X1863434Y837219D01*
X1864208Y849022D01*
X1863434Y860826D01*
X1861127Y872428D01*
X1857324Y883630D01*
X1852092Y894239D01*
X1845520Y904075D01*
X1837721Y912968D01*
X1828827Y920768D01*
X1818992Y927340D01*
X1808382Y932572D01*
X1797181Y936374D01*
X1785579Y938682D01*
X1773775Y939456D01*
D02*
G37*
G36*
X1513774Y972457D02*
X1505886Y971680D01*
X1498301Y969379D01*
X1491310Y965642D01*
X1485183Y960614D01*
X1480154Y954487D01*
X1476418Y947496D01*
X1474872Y942401D01*
X1414575D01*
X1410387Y941850D01*
X1406485Y940233D01*
X1403135Y937662D01*
X1400564Y934312D01*
X1398947Y930410D01*
X1398396Y926222D01*
Y717823D01*
X1398947Y713635D01*
X1400564Y709733D01*
X1403135Y706383D01*
X1406485Y703812D01*
X1410387Y702195D01*
X1414575Y701644D01*
X1572974D01*
X1577161Y702195D01*
X1581063Y703812D01*
X1584414Y706383D01*
X1586985Y709733D01*
X1588601Y713635D01*
X1589153Y717823D01*
Y926222D01*
X1588601Y930410D01*
X1586985Y934312D01*
X1584414Y937662D01*
X1581063Y940233D01*
X1577161Y941850D01*
X1572974Y942401D01*
X1552677D01*
X1551131Y947496D01*
X1547395Y954487D01*
X1542366Y960614D01*
X1536239Y965642D01*
X1529248Y969379D01*
X1521663Y971680D01*
X1513774Y972457D01*
D02*
G37*
G36*
X1116475Y1034481D02*
X1037175D01*
X1033105Y1033945D01*
X1029313Y1032374D01*
X1026056Y1029876D01*
X1023557Y1026619D01*
X1021986Y1022826D01*
X1021451Y1018756D01*
Y949457D01*
X1021986Y945387D01*
X1023557Y941594D01*
X1026056Y938337D01*
X1029313Y935839D01*
X1033105Y934268D01*
X1037175Y933732D01*
X1039882D01*
Y632118D01*
X1040624Y626482D01*
X1042800Y621230D01*
X1046260Y616720D01*
X1135148Y527832D01*
X1139658Y524371D01*
X1144910Y522196D01*
X1150546Y521454D01*
X1379422D01*
X1385058Y522196D01*
X1390311Y524371D01*
X1394820Y527832D01*
X1459308Y592320D01*
X1645416D01*
X1649645Y582109D01*
X1655422Y572682D01*
X1662602Y564275D01*
X1671009Y557095D01*
X1680436Y551318D01*
X1690650Y547087D01*
X1701401Y544506D01*
X1712423Y543639D01*
X1742423D01*
X1753445Y544506D01*
X1764195Y547087D01*
X1774409Y551318D01*
X1783836Y557095D01*
X1792243Y564275D01*
X1799424Y572682D01*
X1805200Y582109D01*
X1809431Y592323D01*
X1812012Y603074D01*
X1812880Y614096D01*
X1812012Y625118D01*
X1809431Y635868D01*
X1805200Y646083D01*
X1799424Y655509D01*
X1792243Y663916D01*
X1783836Y671097D01*
X1774409Y676873D01*
X1764195Y681105D01*
X1753445Y683685D01*
X1742423Y684553D01*
X1712423D01*
X1701401Y683685D01*
X1690650Y681105D01*
X1680436Y676873D01*
X1671009Y671097D01*
X1662602Y663916D01*
X1655422Y655509D01*
X1649645Y646083D01*
X1645416Y635872D01*
X1450288D01*
X1444652Y635130D01*
X1439400Y632955D01*
X1434890Y629494D01*
X1370403Y565006D01*
X1159566D01*
X1083434Y641138D01*
Y933732D01*
X1116475D01*
X1120545Y934268D01*
X1124337Y935839D01*
X1127594Y938337D01*
X1130093Y941594D01*
X1131664Y945387D01*
X1132200Y949457D01*
Y1018756D01*
X1131664Y1022826D01*
X1130093Y1026619D01*
X1127594Y1029876D01*
X1124337Y1032374D01*
X1120545Y1033945D01*
X1116475Y1034481D01*
D02*
G37*
G36*
X627048Y257971D02*
X592543D01*
Y212716D01*
X642797D01*
Y242221D01*
X642261Y246297D01*
X640687Y250096D01*
X638184Y253358D01*
X634923Y255861D01*
X631124Y257434D01*
X627048Y257971D01*
D02*
G37*
G36*
X577303D02*
X542797D01*
X538721Y257434D01*
X534923Y255861D01*
X531661Y253358D01*
X529158Y250096D01*
X527585Y246297D01*
X527048Y242221D01*
Y212716D01*
X577303D01*
Y257971D01*
D02*
G37*
G36*
X1067150Y415470D02*
X997850D01*
X993780Y414935D01*
X989988Y413364D01*
X986731Y410865D01*
X984232Y407608D01*
X982661Y403816D01*
X982126Y399746D01*
Y320446D01*
X982661Y316376D01*
X984232Y312584D01*
X986731Y309327D01*
X989988Y306828D01*
X993780Y305257D01*
X997850Y304721D01*
X1010724D01*
Y268246D01*
X997850D01*
X993780Y267710D01*
X989988Y266139D01*
X986731Y263641D01*
X984232Y260384D01*
X982661Y256591D01*
X982126Y252521D01*
Y173222D01*
X982661Y169152D01*
X984232Y165359D01*
X986731Y162103D01*
X989988Y159604D01*
X993780Y158033D01*
X997850Y157497D01*
X1067150D01*
X1071220Y158033D01*
X1075012Y159604D01*
X1078269Y162103D01*
X1080768Y165359D01*
X1082339Y169152D01*
X1082875Y173222D01*
Y252521D01*
X1082339Y256591D01*
X1080768Y260384D01*
X1078269Y263641D01*
X1075012Y266139D01*
X1071220Y267710D01*
X1067150Y268246D01*
X1054276D01*
Y304721D01*
X1067150D01*
X1071220Y305257D01*
X1075012Y306828D01*
X1078269Y309327D01*
X1080768Y312584D01*
X1082339Y316376D01*
X1082875Y320446D01*
Y399746D01*
X1082339Y403816D01*
X1080768Y407608D01*
X1078269Y410865D01*
X1075012Y413364D01*
X1071220Y414935D01*
X1067150Y415470D01*
D02*
G37*
G36*
X642797Y197476D02*
X592543D01*
Y152221D01*
X627048D01*
X631124Y152758D01*
X634923Y154331D01*
X638184Y156834D01*
X640687Y160096D01*
X642261Y163895D01*
X642797Y167971D01*
Y197476D01*
D02*
G37*
G36*
X577303D02*
X527048D01*
Y167971D01*
X527585Y163895D01*
X529158Y160096D01*
X531661Y156834D01*
X534923Y154331D01*
X538721Y152758D01*
X542797Y152221D01*
X577303D01*
Y197476D01*
D02*
G37*
%LPD*%
D10*
X1727423Y106096D02*
D03*
Y614096D02*
D03*
Y360096D02*
D03*
D11*
X927041Y1525480D02*
D03*
X427041D02*
D03*
X677041D02*
D03*
X927041Y75479D02*
D03*
X427041D02*
D03*
D12*
X139541Y775480D02*
D03*
D13*
X1214541D02*
D03*
D14*
X1748775Y1415022D02*
D03*
Y849022D02*
D03*
D15*
X1275479Y1348803D02*
D03*
X1146303Y1278278D02*
D03*
X1271240Y1063906D02*
D03*
X983113Y1300060D02*
D03*
X671937Y205096D02*
D03*
X649674Y628566D02*
D03*
X347278Y1377199D02*
D03*
X155797Y1084233D02*
D03*
X787279Y1061674D02*
D03*
X992051D02*
D03*
X977785Y745520D02*
D03*
X753291Y753573D02*
D03*
Y926998D02*
D03*
X523099Y890166D02*
D03*
X1345114Y1002022D02*
D03*
X1626195D02*
D03*
D16*
X1100895Y1478869D02*
D03*
X1310895D02*
D03*
D17*
X1056303Y1342752D02*
D03*
X1146303D02*
D03*
D18*
X1275479Y1289412D02*
D03*
Y1199412D02*
D03*
X1206899Y1153906D02*
D03*
Y1063906D02*
D03*
D19*
X242672Y1239233D02*
D03*
Y1084233D02*
D03*
X584923Y205096D02*
D03*
Y360096D02*
D03*
D20*
X1182500D02*
D03*
X1032500D02*
D03*
X584923Y1279556D02*
D03*
X434922D02*
D03*
X257992Y1507740D02*
D03*
X107992D02*
D03*
X867500Y212872D02*
D03*
X1032500D02*
D03*
D21*
X427041Y211652D02*
D03*
Y361653D02*
D03*
X1076825Y1134107D02*
D03*
Y984106D02*
D03*
D22*
X265532Y1377199D02*
D03*
X110532D02*
D03*
X908291Y840325D02*
D03*
X753291D02*
D03*
X746193Y1300060D02*
D03*
X901193D02*
D03*
D23*
X464541Y961674D02*
D03*
Y1011674D02*
D03*
X464542Y1061674D02*
D03*
Y1111674D02*
D03*
X464541Y1161674D02*
D03*
X889541Y961674D02*
D03*
Y1011674D02*
D03*
X889541Y1061674D02*
D03*
Y1111674D02*
D03*
X889541Y1161674D02*
D03*
D24*
X1486274Y1197022D02*
D03*
Y1262022D02*
D03*
Y1132022D02*
D03*
Y1067022D02*
D03*
Y1002022D02*
D03*
D25*
X1493774Y1442022D02*
D03*
Y822022D02*
D03*
D26*
X813285Y1525480D02*
X927041D01*
X723864Y1436058D02*
X813285Y1525480D01*
X694256Y1436058D02*
X723864D01*
X613573Y1355375D02*
X694256Y1436058D01*
X613573Y1308206D02*
Y1355375D01*
X1064893Y1351342D02*
Y1442867D01*
X1100895Y1478869D01*
X1056303Y1342752D02*
X1064893Y1351342D01*
X1068949Y1419819D02*
X1100895Y1451764D01*
Y1478869D01*
X850899Y1419819D02*
X1068949D01*
X1347024Y1321868D02*
Y1439945D01*
X1406870Y1262022D02*
X1485512D01*
X1347024Y1321868D02*
X1406870Y1262022D01*
X1309879Y1477091D02*
X1347024Y1439945D01*
X464542Y1111674D02*
X570861D01*
X584923Y581680D02*
Y1097613D01*
X570861Y1111674D02*
X584923Y1097613D01*
X777343Y1346263D02*
X850899Y1419819D01*
X746193Y1300060D02*
X777343Y1331210D01*
X725689Y1279556D02*
X746193Y1300060D01*
X777343Y1331210D02*
Y1346263D01*
X584923Y1279556D02*
X613573Y1308206D01*
X363959Y1061674D02*
X464542D01*
X346305Y1079329D02*
Y1253829D01*
Y1079329D02*
X363959Y1061674D01*
X257267Y1253829D02*
X346305D01*
X409195D01*
X242672Y1239233D02*
X257267Y1253829D01*
X409195D02*
X434922Y1279556D01*
X79342Y1348549D02*
X107992Y1377199D01*
X79342Y1038671D02*
Y1348549D01*
Y1405850D02*
X107992Y1377199D01*
X79342Y1405850D02*
Y1479089D01*
X123801Y994212D02*
X371672D01*
X79342Y1038671D02*
X123801Y994212D01*
X389134Y1011674D02*
X464541D01*
X371672Y994212D02*
X389134Y1011674D01*
X1154224Y388372D02*
Y423582D01*
X908291Y669515D02*
Y840325D01*
Y669515D02*
X1154224Y423582D01*
X1032500Y212872D02*
Y360096D01*
X1182500D02*
X1727423D01*
X1154224Y388372D02*
X1182500Y360096D01*
X1450288Y614096D02*
X1727423D01*
X79342Y1479089D02*
X107992Y1507740D01*
X257992D02*
X275732Y1525480D01*
X427041D01*
X908291Y840325D02*
Y953683D01*
X432041Y361653D02*
X460576Y390188D01*
Y957709D01*
X464541Y961674D01*
X838850Y241522D02*
Y327752D01*
X584923Y581680D02*
X838850Y327752D01*
Y241522D02*
X867500Y212872D01*
X1379422Y543230D02*
X1450288Y614096D01*
X1061658Y632118D02*
X1150546Y543230D01*
X1379422D01*
X889541Y961674D02*
X900300D01*
X908291Y953683D01*
X837541Y1011674D02*
X889541D01*
X761768Y1000084D02*
X825952D01*
X837541Y1011674D01*
X1061658Y968940D02*
X1076825Y984106D01*
X1061658Y632118D02*
Y968940D01*
X725689Y1036163D02*
Y1279556D01*
Y1036163D02*
X761768Y1000084D01*
X428598Y360096D02*
X584923D01*
X427041Y361653D02*
X428598Y360096D01*
D27*
X1199453Y1161487D02*
X1206899Y1154040D01*
X1084445Y1136727D02*
X1109205Y1161487D01*
X1199453D01*
X1206899Y1149040D02*
Y1154040D01*
X1377081Y1161418D02*
X1406477Y1132022D01*
X1206899Y1154040D02*
X1214277Y1161418D01*
X1377081D01*
X960291Y1191967D02*
X1268099D01*
X1275479Y1199347D01*
X1481731Y1193241D02*
X1485512Y1197022D01*
X1385479Y1193241D02*
X1481731D01*
X1384205Y1191967D02*
X1385479Y1193241D01*
X1282859Y1191967D02*
X1384205D01*
X1275479Y1199347D02*
X1282859Y1191967D01*
X1406477Y1132022D02*
X1485512D01*
X1084445Y1134107D02*
Y1136727D01*
X952723Y1199534D02*
X960291Y1191967D01*
X1057065Y1161487D02*
X1084445Y1134107D01*
X889541Y1161674D02*
X889729Y1161487D01*
X1057065D01*
X804181Y1145992D02*
X838499Y1111674D01*
X889541D01*
X804181Y1145992D02*
Y1177356D01*
X826359Y1199534D01*
X952723D01*
D28*
X427041Y75479D02*
Y211652D01*
%TF.MD5,66312356b7aa5d55dc22a10b31b9fd5d*%
M02*
