%TF.GenerationSoftware,Altium Limited,Altium Designer,20.1.8 (145)*%
G04 Layer_Color=15790320*
%FSLAX45Y45*%
%MOMM*%
%TF.SameCoordinates,B8344769-4606-4218-AAAC-353AEC7BCCEF*%
%TF.FilePolarity,Positive*%
%TF.FileFunction,Legend,Bot*%
%TF.Part,Single*%
G01*
G75*
%TA.AperFunction,NonConductor*%
%ADD29C,0.10000*%
%ADD30C,0.10160*%
%ADD31C,0.15000*%
D29*
X1058803Y1317754D02*
G03*
X1058803Y1317754I-5000J0D01*
G01*
X1305477Y1196912D02*
G03*
X1305477Y1196912I-5000J0D01*
G01*
X1186902Y1156406D02*
G03*
X1186902Y1156406I-5000J0D01*
G01*
X975000Y262871D02*
G03*
X975000Y262871I-5000J0D01*
G01*
D30*
X620841Y947374D02*
G03*
X620841Y947374I-20000J0D01*
G01*
X1086063Y1342752D02*
X1114003D01*
X1086063D02*
X1098763Y1355452D01*
X1098763Y1332592D02*
X1098763Y1355452D01*
X1086063Y1342752D02*
X1098763Y1332592D01*
X1275479Y1229172D02*
X1285639Y1241872D01*
X1262779D02*
X1285639D01*
X1262779D02*
X1275479Y1229172D01*
Y1257112D01*
X1206899Y1096206D02*
Y1124146D01*
X1219599Y1111446D01*
X1196739D02*
X1219599D01*
X1196739D02*
X1206899Y1124146D01*
X242672Y1174233D02*
Y1186733D01*
Y1136733D02*
Y1149233D01*
X217672Y1174233D02*
X267672D01*
X217672Y1149233D02*
X267672D01*
X559923Y270096D02*
X609923D01*
X559923Y295096D02*
X609923D01*
X584923Y257596D02*
Y270096D01*
Y295096D02*
Y307596D01*
X1120001Y380096D02*
X1130000Y355096D01*
X1110001Y342596D02*
X1120001Y380096D01*
X1100001D02*
X1110001Y342596D01*
X1090001D02*
X1100001Y380096D01*
X1085000Y360096D02*
X1090001Y342596D01*
X422041Y264153D02*
X447042Y274152D01*
X409541Y284152D02*
X447042Y274152D01*
X409541Y284152D02*
X447042Y294152D01*
X409541Y304152D02*
X447042Y294152D01*
X409541Y304152D02*
X427041Y309153D01*
X522423Y1299556D02*
X532422Y1274556D01*
X512423Y1262056D02*
X522423Y1299556D01*
X502423D02*
X512423Y1262056D01*
X492423D02*
X502423Y1299556D01*
X487422Y1279556D02*
X492423Y1262056D01*
X195493Y1527740D02*
X205492Y1502740D01*
X185492Y1490240D02*
X195493Y1527740D01*
X175492D02*
X185492Y1490240D01*
X165492D02*
X175492Y1527740D01*
X160492Y1507740D02*
X165492Y1490240D01*
X200532Y1352199D02*
Y1402199D01*
X175532Y1352199D02*
Y1402199D01*
X200532Y1377199D02*
X213032D01*
X163032D02*
X175532D01*
X567041Y911674D02*
Y1211674D01*
X787041Y911674D02*
Y1211674D01*
X567041Y911674D02*
X787041D01*
X567041Y1211674D02*
X787041D01*
X922500Y250372D02*
X932500Y240372D01*
Y257871D02*
X942500Y247871D01*
X950000Y187872D02*
Y212872D01*
X922500D02*
X950000Y187872D01*
X922500Y212872D02*
X950000Y237872D01*
Y212872D02*
Y237872D01*
Y212872D02*
X982500D01*
X1866274Y849022D02*
Y1415022D01*
X1589013D02*
X1626274D01*
X1461274Y1297283D02*
Y1317284D01*
X1595540Y849022D02*
X1626274D01*
X1461274Y946022D02*
Y966022D01*
X843291Y840325D02*
X855791D01*
X805791D02*
X818291D01*
X843291Y815325D02*
Y865325D01*
X818291Y815325D02*
Y865325D01*
X798693Y1300060D02*
X811193D01*
X836193D02*
X848693D01*
X811193Y1275060D02*
Y1325060D01*
X836193Y1275060D02*
Y1325060D01*
X1059325Y1076606D02*
X1076825Y1081607D01*
X1059325Y1076606D02*
X1096825Y1066606D01*
X1059325Y1056606D02*
X1096825Y1066606D01*
X1059325Y1056606D02*
X1096825Y1046606D01*
X1071825Y1036607D02*
X1096825Y1046606D01*
D31*
X1610731Y425725D02*
X1560747D01*
Y400734D01*
X1569078Y392403D01*
X1585739D01*
X1594070Y400734D01*
Y425725D01*
Y409064D02*
X1610731Y392403D01*
X1569078Y342419D02*
X1560747Y350750D01*
Y367411D01*
X1569078Y375742D01*
X1577408D01*
X1585739Y367411D01*
Y350750D01*
X1594070Y342419D01*
X1602400D01*
X1610731Y350750D01*
Y367411D01*
X1602400Y375742D01*
X1560747Y325758D02*
Y292436D01*
Y309097D01*
X1610731D01*
X1818006Y645895D02*
X1809676Y654226D01*
Y670887D01*
X1818006Y679218D01*
X1851329D01*
X1859659Y670887D01*
Y654226D01*
X1851329Y645895D01*
X1834668D01*
Y662557D01*
X1859659Y629234D02*
X1809676D01*
X1859659Y595912D01*
X1809676D01*
Y579251D02*
X1859659D01*
Y554259D01*
X1851329Y545928D01*
X1818006D01*
X1809676Y554259D01*
Y579251D01*
X1818007Y392403D02*
X1809676Y400734D01*
Y417395D01*
X1818007Y425725D01*
X1851329D01*
X1859660Y417395D01*
Y400734D01*
X1851329Y392403D01*
X1834668D01*
Y409064D01*
X1859660Y375742D02*
X1809676D01*
X1859660Y342419D01*
X1809676D01*
Y325758D02*
X1859660D01*
Y300766D01*
X1851329Y292436D01*
X1818007D01*
X1809676Y300766D01*
Y325758D01*
X1569087Y174265D02*
X1560756Y165935D01*
Y149274D01*
X1569087Y140943D01*
X1577417D01*
X1585748Y149274D01*
Y157604D01*
Y149274D01*
X1594079Y140943D01*
X1602409D01*
X1610740Y149274D01*
Y165935D01*
X1602409Y174265D01*
X1577417Y124282D02*
X1610740Y107621D01*
X1577417Y90959D01*
X1569087Y74298D02*
X1560756Y65967D01*
Y49306D01*
X1569087Y40976D01*
X1577417D01*
X1585748Y49306D01*
Y57637D01*
Y49306D01*
X1594079Y40976D01*
X1602409D01*
X1610740Y49306D01*
Y65967D01*
X1602409Y74298D01*
X1610740Y679218D02*
X1560756D01*
Y654226D01*
X1569087Y645895D01*
X1585748D01*
X1594079Y654226D01*
Y679218D01*
X1569087Y595911D02*
X1560756Y604242D01*
Y620903D01*
X1569087Y629234D01*
X1602409D01*
X1610740Y620903D01*
Y604242D01*
X1602409Y595911D01*
X1585748D01*
Y612573D01*
X1610740Y579250D02*
X1560756D01*
X1577417Y562589D01*
X1560756Y545928D01*
X1610740D01*
X1818007Y140943D02*
X1809676Y149274D01*
Y165935D01*
X1818007Y174265D01*
X1851329D01*
X1859660Y165935D01*
Y149274D01*
X1851329Y140943D01*
X1834668D01*
Y157604D01*
X1859660Y124282D02*
X1809676D01*
X1859660Y90959D01*
X1809676D01*
Y74298D02*
X1859660D01*
Y49306D01*
X1851329Y40976D01*
X1818007D01*
X1809676Y49306D01*
Y74298D01*
X561352Y1353236D02*
Y1403219D01*
X536361D01*
X528030Y1394889D01*
Y1378228D01*
X536361Y1369897D01*
X561352D01*
X544691D02*
X528030Y1353236D01*
X511369Y1394889D02*
X503038Y1403219D01*
X486377D01*
X478046Y1394889D01*
Y1386558D01*
X486377Y1378228D01*
X494708D01*
X486377D01*
X478046Y1369897D01*
Y1361566D01*
X486377Y1353236D01*
X503038D01*
X511369Y1361566D01*
X146686Y1252172D02*
Y1302156D01*
X121694D01*
X113364Y1293825D01*
Y1277164D01*
X121694Y1268833D01*
X146686D01*
X130025D02*
X113364Y1252172D01*
X63380D02*
X96703D01*
X63380Y1285495D01*
Y1293825D01*
X71711Y1302156D01*
X88372D01*
X96703Y1293825D01*
X455364Y436024D02*
Y486007D01*
X430372D01*
X422041Y477677D01*
Y461015D01*
X430372Y452685D01*
X455364D01*
X438702D02*
X422041Y436024D01*
X405380D02*
X388719D01*
X397049D01*
Y486007D01*
X405380Y477677D01*
X593253D02*
X601584Y486007D01*
X618245D01*
X626576Y477677D01*
Y444354D01*
X618245Y436024D01*
X601584D01*
X593253Y444354D01*
X543269Y486007D02*
X576592D01*
Y461015D01*
X559931Y469346D01*
X551600D01*
X543269Y461015D01*
Y444354D01*
X551600Y436024D01*
X568261D01*
X576592Y444354D01*
X117070Y1222169D02*
X125401Y1230499D01*
X142062D01*
X150393Y1222169D01*
Y1188846D01*
X142062Y1180516D01*
X125401D01*
X117070Y1188846D01*
X75417Y1180516D02*
Y1230499D01*
X100409Y1205508D01*
X67086D01*
X354375Y1151880D02*
X362706Y1143549D01*
Y1126888D01*
X354375Y1118557D01*
X321053D01*
X312722Y1126888D01*
Y1143549D01*
X321053Y1151880D01*
X354375Y1168541D02*
X362706Y1176871D01*
Y1193533D01*
X354375Y1201863D01*
X346045D01*
X337714Y1193533D01*
Y1185202D01*
Y1193533D01*
X329383Y1201863D01*
X321053D01*
X312722Y1193533D01*
Y1176871D01*
X321053Y1168541D01*
X994236Y1440730D02*
X1027559D01*
Y1415738D01*
X1010898D01*
X1027559D01*
Y1390747D01*
X977575D02*
X960914D01*
X969244D01*
Y1440730D01*
X977575Y1432400D01*
X611763Y890131D02*
Y848478D01*
X603432Y840147D01*
X586771D01*
X578440Y848478D01*
Y890131D01*
X561779Y840147D02*
X545118D01*
X553448D01*
Y890131D01*
X561779Y881800D01*
X1151654Y428641D02*
Y478625D01*
X1126662D01*
X1118332Y470294D01*
Y453633D01*
X1126662Y445302D01*
X1151654D01*
X1134993D02*
X1118332Y428641D01*
X1068348Y478625D02*
X1101670D01*
Y453633D01*
X1085009Y461964D01*
X1076679D01*
X1068348Y453633D01*
Y436972D01*
X1076679Y428641D01*
X1093340D01*
X1101670Y436972D01*
X1086413Y870164D02*
Y920148D01*
X1061421D01*
X1053091Y911818D01*
Y895156D01*
X1061421Y886826D01*
X1086413D01*
X1069752D02*
X1053091Y870164D01*
X1011438D02*
Y920148D01*
X1036429Y895156D01*
X1003107D01*
X973694Y341174D02*
Y291191D01*
X948702D01*
X940372Y299521D01*
Y332844D01*
X948702Y341174D01*
X973694D01*
X898719Y291191D02*
Y341174D01*
X923710Y316183D01*
X890388D01*
X1335626Y1141988D02*
Y1092004D01*
X1310634D01*
X1302303Y1100335D01*
Y1133657D01*
X1310634Y1141988D01*
X1335626D01*
X1285642Y1133657D02*
X1277311Y1141988D01*
X1260650D01*
X1252320Y1133657D01*
Y1125326D01*
X1260650Y1116996D01*
X1268981D01*
X1260650D01*
X1252320Y1108665D01*
Y1100335D01*
X1260650Y1092004D01*
X1277311D01*
X1285642Y1100335D01*
X1225630Y1248218D02*
Y1198235D01*
X1200638D01*
X1192307Y1206566D01*
Y1239888D01*
X1200638Y1248218D01*
X1225630D01*
X1142323Y1198235D02*
X1175646D01*
X1142323Y1231557D01*
Y1239888D01*
X1150654Y1248218D01*
X1167315D01*
X1175646Y1239888D01*
X1115723Y1294524D02*
Y1244540D01*
X1090731D01*
X1082401Y1252871D01*
Y1286193D01*
X1090731Y1294524D01*
X1115723D01*
X1065740Y1244540D02*
X1049078D01*
X1057409D01*
Y1294524D01*
X1065740Y1286193D01*
X844524Y1408247D02*
X852855Y1416577D01*
X869516D01*
X877846Y1408247D01*
Y1374924D01*
X869516Y1366593D01*
X852855D01*
X844524Y1374924D01*
X794540Y1366593D02*
X827863D01*
X794540Y1399916D01*
Y1408247D01*
X802871Y1416577D01*
X819532D01*
X827863Y1408247D01*
X830807Y764685D02*
X839137Y773015D01*
X855798D01*
X864129Y764685D01*
Y731362D01*
X855798Y723031D01*
X839137D01*
X830807Y731362D01*
X814145Y723031D02*
X797484D01*
X805815D01*
Y773015D01*
X814145Y764685D01*
%TF.MD5,af90b54e133510fd5e9269ffa14195c2*%
M02*
