%TF.GenerationSoftware,Altium Limited,Altium Designer,20.1.8 (145)*%
G04 Layer_Color=0*
%FSLAX45Y45*%
%MOMM*%
%TF.SameCoordinates,69C50D53-9BFA-4F85-B750-FB8D41B2BBF4*%
%TF.FilePolarity,Positive*%
%TF.FileFunction,Plated,1,2,PTH,Drill*%
%TF.Part,Single*%
G01*
G75*
%TA.AperFunction,ComponentDrill*%
%ADD48O,1.40000X0.90000*%
%ADD49C,0.80000*%
%ADD50O,1.50000X3.00000*%
%ADD51O,1.25000X0.50000*%
%TA.AperFunction,ViaDrill,NotFilled*%
%ADD52C,0.40000*%
D48*
X1748013Y1415022D02*
D03*
Y849022D02*
D03*
D49*
X1459369Y614096D02*
D03*
Y106096D02*
D03*
X1713369D02*
D03*
X1459369Y360096D02*
D03*
X1713369D02*
D03*
Y614096D02*
D03*
D50*
X1214541Y775480D02*
D03*
X139541D02*
D03*
D51*
X427041Y75479D02*
D03*
X927041D02*
D03*
X677041Y1525480D02*
D03*
X427041D02*
D03*
X927041D02*
D03*
D52*
X1345114Y1002022D02*
D03*
X1626195D02*
D03*
X326139Y1411197D02*
D03*
X1178573Y1278773D02*
D03*
X805451Y597704D02*
D03*
X1232525Y1046674D02*
D03*
X93980Y997645D02*
D03*
X1009942Y1318260D02*
D03*
X996183Y1069981D02*
D03*
X787041Y1084039D02*
D03*
%TF.MD5,cfe4534fc03695cbf94e3e59c615c204*%
M02*
