%TF.GenerationSoftware,Altium Limited,Altium Designer,20.1.8 (145)*%
G04 Layer_Physical_Order=2*
G04 Layer_Color=16729670*
%FSLAX45Y45*%
%MOMM*%
%TF.SameCoordinates,69C50D53-9BFA-4F85-B750-FB8D41B2BBF4*%
%TF.FilePolarity,Positive*%
%TF.FileFunction,Copper,L2,Bot,Signal*%
%TF.Part,Single*%
G01*
G75*
%TA.AperFunction,ComponentPad*%
%ADD10O,2.00000X1.50000*%
G04:AMPARAMS|DCode=11|XSize=1.1mm|YSize=1.4mm|CornerRadius=0.55mm|HoleSize=0mm|Usage=FLASHONLY|Rotation=90.000|XOffset=0mm|YOffset=0mm|HoleType=Round|Shape=RoundedRectangle|*
%AMROUNDEDRECTD11*
21,1,1.10000,0.30000,0,0,90.0*
21,1,0.00000,1.40000,0,0,90.0*
1,1,1.10000,0.15000,0.00000*
1,1,1.10000,0.15000,0.00000*
1,1,1.10000,-0.15000,0.00000*
1,1,1.10000,-0.15000,0.00000*
%
%ADD11ROUNDEDRECTD11*%
G04:AMPARAMS|DCode=12|XSize=2.25mm|YSize=3.75mm|CornerRadius=1.125mm|HoleSize=0mm|Usage=FLASHONLY|Rotation=180.000|XOffset=0mm|YOffset=0mm|HoleType=Round|Shape=RoundedRectangle|*
%AMROUNDEDRECTD12*
21,1,2.25000,1.50000,0,0,180.0*
21,1,0.00000,3.75000,0,0,180.0*
1,1,2.25000,0.00000,0.75000*
1,1,2.25000,0.00000,0.75000*
1,1,2.25000,0.00000,-0.75000*
1,1,2.25000,0.00000,-0.75000*
%
%ADD12ROUNDEDRECTD12*%
%ADD13O,2.25000X3.75000*%
%ADD14O,1.75000X1.00000*%
%TA.AperFunction,ViaPad*%
%ADD15C,0.80000*%
%TA.AperFunction,SMDPad,CuDef*%
G04:AMPARAMS|DCode=16|XSize=0.35mm|YSize=2mm|CornerRadius=0.175mm|HoleSize=0mm|Usage=FLASHONLY|Rotation=270.000|XOffset=0mm|YOffset=0mm|HoleType=Round|Shape=RoundedRectangle|*
%AMROUNDEDRECTD16*
21,1,0.35000,1.65000,0,0,270.0*
21,1,0.00000,2.00000,0,0,270.0*
1,1,0.35000,-0.82500,0.00000*
1,1,0.35000,-0.82500,0.00000*
1,1,0.35000,0.82500,0.00000*
1,1,0.35000,0.82500,0.00000*
%
%ADD16ROUNDEDRECTD16*%
G04:AMPARAMS|DCode=17|XSize=2.1mm|YSize=1.6mm|CornerRadius=0.008mm|HoleSize=0mm|Usage=FLASHONLY|Rotation=270.000|XOffset=0mm|YOffset=0mm|HoleType=Round|Shape=RoundedRectangle|*
%AMROUNDEDRECTD17*
21,1,2.10000,1.58400,0,0,270.0*
21,1,2.08400,1.60000,0,0,270.0*
1,1,0.01600,-0.79200,-1.04200*
1,1,0.01600,-0.79200,1.04200*
1,1,0.01600,0.79200,1.04200*
1,1,0.01600,0.79200,-1.04200*
%
%ADD17ROUNDEDRECTD17*%
G04:AMPARAMS|DCode=18|XSize=0.3mm|YSize=0.4mm|CornerRadius=0.0015mm|HoleSize=0mm|Usage=FLASHONLY|Rotation=180.000|XOffset=0mm|YOffset=0mm|HoleType=Round|Shape=RoundedRectangle|*
%AMROUNDEDRECTD18*
21,1,0.30000,0.39700,0,0,180.0*
21,1,0.29700,0.40000,0,0,180.0*
1,1,0.00300,-0.14850,0.19850*
1,1,0.00300,0.14850,0.19850*
1,1,0.00300,0.14850,-0.19850*
1,1,0.00300,-0.14850,-0.19850*
%
%ADD18ROUNDEDRECTD18*%
G04:AMPARAMS|DCode=19|XSize=0.8mm|YSize=0.7mm|CornerRadius=0.0035mm|HoleSize=0mm|Usage=FLASHONLY|Rotation=0.000|XOffset=0mm|YOffset=0mm|HoleType=Round|Shape=RoundedRectangle|*
%AMROUNDEDRECTD19*
21,1,0.80000,0.69300,0,0,0.0*
21,1,0.79300,0.70000,0,0,0.0*
1,1,0.00700,0.39650,-0.34650*
1,1,0.00700,-0.39650,-0.34650*
1,1,0.00700,-0.39650,0.34650*
1,1,0.00700,0.39650,0.34650*
%
%ADD19ROUNDEDRECTD19*%
G04:AMPARAMS|DCode=20|XSize=0.85mm|YSize=0.75mm|CornerRadius=0.00375mm|HoleSize=0mm|Usage=FLASHONLY|Rotation=0.000|XOffset=0mm|YOffset=0mm|HoleType=Round|Shape=RoundedRectangle|*
%AMROUNDEDRECTD20*
21,1,0.85000,0.74250,0,0,0.0*
21,1,0.84250,0.75000,0,0,0.0*
1,1,0.00750,0.42125,-0.37125*
1,1,0.00750,-0.42125,-0.37125*
1,1,0.00750,-0.42125,0.37125*
1,1,0.00750,0.42125,0.37125*
%
%ADD20ROUNDEDRECTD20*%
G04:AMPARAMS|DCode=21|XSize=0.8mm|YSize=0.8mm|CornerRadius=0.004mm|HoleSize=0mm|Usage=FLASHONLY|Rotation=180.000|XOffset=0mm|YOffset=0mm|HoleType=Round|Shape=RoundedRectangle|*
%AMROUNDEDRECTD21*
21,1,0.80000,0.79200,0,0,180.0*
21,1,0.79200,0.80000,0,0,180.0*
1,1,0.00800,-0.39600,0.39600*
1,1,0.00800,0.39600,0.39600*
1,1,0.00800,0.39600,-0.39600*
1,1,0.00800,-0.39600,-0.39600*
%
%ADD21ROUNDEDRECTD21*%
%ADD22O,1.25000X0.30000*%
G04:AMPARAMS|DCode=23|XSize=0.85mm|YSize=0.75mm|CornerRadius=0.00375mm|HoleSize=0mm|Usage=FLASHONLY|Rotation=90.000|XOffset=0mm|YOffset=0mm|HoleType=Round|Shape=RoundedRectangle|*
%AMROUNDEDRECTD23*
21,1,0.85000,0.74250,0,0,90.0*
21,1,0.84250,0.75000,0,0,90.0*
1,1,0.00750,0.37125,0.42125*
1,1,0.00750,0.37125,-0.42125*
1,1,0.00750,-0.37125,-0.42125*
1,1,0.00750,-0.37125,0.42125*
%
%ADD23ROUNDEDRECTD23*%
G04:AMPARAMS|DCode=24|XSize=0.8mm|YSize=0.7mm|CornerRadius=0.0035mm|HoleSize=0mm|Usage=FLASHONLY|Rotation=90.000|XOffset=0mm|YOffset=0mm|HoleType=Round|Shape=RoundedRectangle|*
%AMROUNDEDRECTD24*
21,1,0.80000,0.69300,0,0,90.0*
21,1,0.79300,0.70000,0,0,90.0*
1,1,0.00700,0.34650,0.39650*
1,1,0.00700,0.34650,-0.39650*
1,1,0.00700,-0.34650,-0.39650*
1,1,0.00700,-0.34650,0.39650*
%
%ADD24ROUNDEDRECTD24*%
%TA.AperFunction,Conductor*%
%ADD25C,0.12700*%
G36*
X1879609Y20391D02*
X523329D01*
X516303Y35631D01*
X517485Y37014D01*
X522850Y45770D01*
X526780Y55257D01*
X529177Y65242D01*
X529983Y75479D01*
X529177Y85717D01*
X526780Y95702D01*
X522850Y105189D01*
X517485Y113945D01*
X510816Y121754D01*
X503007Y128423D01*
X494251Y133788D01*
X484764Y137718D01*
X474779Y140115D01*
X464541Y140921D01*
X459724D01*
Y951438D01*
X512041D01*
X517969Y952022D01*
X523670Y953751D01*
X528923Y956559D01*
X533528Y960338D01*
X537307Y964942D01*
X540115Y970196D01*
X541844Y975896D01*
X542428Y981824D01*
X541844Y987752D01*
X540115Y993452D01*
X537307Y998705D01*
X534669Y1006824D01*
X537307Y1014943D01*
X540115Y1020196D01*
X541844Y1025896D01*
X542428Y1031824D01*
X541844Y1037752D01*
X540115Y1043452D01*
X537307Y1048706D01*
X533528Y1053310D01*
Y1060338D01*
X537307Y1064942D01*
X540115Y1070196D01*
X541844Y1075896D01*
X542428Y1081824D01*
X541844Y1087752D01*
X540115Y1093452D01*
X537307Y1098705D01*
X534670Y1106824D01*
X537307Y1114943D01*
X540115Y1120196D01*
X541844Y1125896D01*
X542428Y1131824D01*
X541844Y1137752D01*
X540115Y1143452D01*
X539391Y1144808D01*
X544018Y1156020D01*
X546406Y1158623D01*
X551632Y1158695D01*
X565565Y1144935D01*
Y962186D01*
X558946Y955567D01*
X555485Y951057D01*
X553310Y945805D01*
X552568Y940169D01*
Y268674D01*
X553310Y263038D01*
X555485Y257786D01*
X558946Y253276D01*
X641404Y170818D01*
X645914Y167357D01*
X651167Y165182D01*
X656803Y164440D01*
X1012723D01*
X1086465Y90698D01*
X1090975Y87237D01*
X1096227Y85062D01*
X1101863Y84320D01*
X1377362D01*
X1381591Y74109D01*
X1387368Y64682D01*
X1394548Y56275D01*
X1402955Y49095D01*
X1412382Y43318D01*
X1422597Y39087D01*
X1433347Y36506D01*
X1444369Y35639D01*
X1474369D01*
X1485391Y36506D01*
X1496141Y39087D01*
X1506356Y43318D01*
X1515783Y49095D01*
X1524189Y56275D01*
X1531370Y64682D01*
X1537147Y74109D01*
X1541378Y84323D01*
X1543959Y95074D01*
X1544826Y106096D01*
X1543959Y117118D01*
X1541378Y127868D01*
X1537147Y138083D01*
X1531370Y147509D01*
X1524189Y155916D01*
X1515783Y163097D01*
X1506356Y168873D01*
X1496141Y173105D01*
X1485391Y175685D01*
X1474369Y176553D01*
X1444369D01*
X1433347Y175685D01*
X1422597Y173105D01*
X1412382Y168873D01*
X1402955Y163097D01*
X1394548Y155916D01*
X1387368Y147509D01*
X1381591Y138083D01*
X1377362Y127872D01*
X1110883D01*
X1037141Y201614D01*
X1032631Y205075D01*
X1027379Y207250D01*
X1021743Y207992D01*
X665823D01*
X596120Y277694D01*
Y931149D01*
X602739Y937767D01*
X606199Y942278D01*
X608375Y947530D01*
X609117Y953166D01*
Y1164559D01*
X608375Y1170195D01*
X606199Y1175447D01*
X602739Y1179957D01*
X585474Y1197222D01*
X580964Y1200683D01*
X575712Y1202858D01*
X570076Y1203600D01*
X533175D01*
X528923Y1207090D01*
X523670Y1209898D01*
X517969Y1211626D01*
X512041Y1212210D01*
X417041D01*
X411113Y1211626D01*
X405413Y1209898D01*
X400160Y1207090D01*
X395555Y1203311D01*
X391776Y1198706D01*
X388968Y1193453D01*
X387239Y1187752D01*
X386655Y1181824D01*
X387037Y1177948D01*
X382774Y1174201D01*
X372958Y1170474D01*
X362600Y1180832D01*
Y1213129D01*
X386258Y1236787D01*
X589014D01*
X639283Y1186517D01*
Y550654D01*
X638099D01*
X634029Y550118D01*
X630236Y548547D01*
X626979Y546048D01*
X624481Y542791D01*
X622910Y538999D01*
X622374Y534929D01*
Y465629D01*
X622910Y461559D01*
X624481Y457767D01*
X626979Y454510D01*
X630236Y452011D01*
X634029Y450440D01*
X638099Y449905D01*
X717398D01*
X721468Y450440D01*
X725261Y452011D01*
X728517Y454510D01*
X731016Y457767D01*
X732587Y461559D01*
X733123Y465629D01*
Y534929D01*
X732587Y538999D01*
X731016Y542791D01*
X728517Y546048D01*
X725261Y548547D01*
X721468Y550118D01*
X717398Y550654D01*
X682836D01*
Y1195537D01*
X682094Y1201173D01*
X679918Y1206425D01*
X676458Y1210935D01*
X613431Y1273961D01*
X608922Y1277422D01*
X603669Y1279597D01*
X598033Y1280339D01*
X377238D01*
X371602Y1279597D01*
X366350Y1277422D01*
X361840Y1273961D01*
X325426Y1237547D01*
X321965Y1233037D01*
X319790Y1227785D01*
X319048Y1222149D01*
Y1171812D01*
X319790Y1166176D01*
X321965Y1160924D01*
X325426Y1156414D01*
X363000Y1118840D01*
X360899Y1109467D01*
X357094Y1103600D01*
X324690D01*
X297042Y1131248D01*
Y1238249D01*
X388892Y1330099D01*
X650616D01*
X656252Y1330841D01*
X661504Y1333017D01*
X666014Y1336478D01*
X777526Y1447989D01*
X831286D01*
X836922Y1448731D01*
X842175Y1450906D01*
X846684Y1454367D01*
X859619Y1467301D01*
X859831Y1467171D01*
X869319Y1463241D01*
X879304Y1460844D01*
X889541Y1460038D01*
X964541D01*
X974779Y1460844D01*
X984764Y1463241D01*
X994251Y1467171D01*
X1003007Y1472536D01*
X1010816Y1479205D01*
X1017485Y1487014D01*
X1022850Y1495770D01*
X1026780Y1505257D01*
X1029177Y1515242D01*
X1029983Y1525480D01*
X1029177Y1535717D01*
X1026780Y1545702D01*
X1022850Y1555189D01*
X1017485Y1563945D01*
X1017122Y1564369D01*
X1024148Y1579609D01*
X1879609D01*
Y20391D01*
D02*
G37*
G36*
X836960Y1564369D02*
X836598Y1563945D01*
X831233Y1555189D01*
X827303Y1545702D01*
X824905Y1535717D01*
X824100Y1525480D01*
X824905Y1515242D01*
X827303Y1505257D01*
X827584Y1504579D01*
X817511Y1491541D01*
X768506D01*
X762869Y1490799D01*
X757617Y1488624D01*
X753108Y1485163D01*
X641596Y1373652D01*
X379872D01*
X374236Y1372910D01*
X368984Y1370734D01*
X364475Y1367274D01*
X259868Y1262667D01*
X256407Y1258158D01*
X254232Y1252905D01*
X253490Y1247269D01*
Y1122228D01*
X254232Y1116592D01*
X256407Y1111340D01*
X259868Y1106830D01*
X300272Y1066426D01*
X304782Y1062965D01*
X310034Y1060790D01*
X315670Y1060048D01*
X371790D01*
X375595Y1054181D01*
X377695Y1044808D01*
X365237Y1032350D01*
X286627D01*
X226077Y1092900D01*
Y1452926D01*
X285066Y1511916D01*
X325704D01*
X327303Y1505257D01*
X331233Y1495770D01*
X336598Y1487014D01*
X343267Y1479205D01*
X351076Y1472536D01*
X359831Y1467171D01*
X369319Y1463241D01*
X379304Y1460844D01*
X389541Y1460038D01*
X464541D01*
X474779Y1460844D01*
X484764Y1463241D01*
X494251Y1467171D01*
X503007Y1472536D01*
X510816Y1479205D01*
X517485Y1487014D01*
X522850Y1495770D01*
X526780Y1505257D01*
X529177Y1515242D01*
X529983Y1525480D01*
X529177Y1535717D01*
X526780Y1545702D01*
X522850Y1555189D01*
X517485Y1563945D01*
X517122Y1564369D01*
X524148Y1579609D01*
X829934D01*
X836960Y1564369D01*
D02*
G37*
G36*
X332050Y1565246D02*
X325847Y1555468D01*
X276046D01*
X270410Y1554726D01*
X265158Y1552551D01*
X260648Y1549090D01*
X188903Y1477344D01*
X185442Y1472834D01*
X183266Y1467582D01*
X182524Y1461946D01*
Y1083880D01*
X183266Y1078244D01*
X185442Y1072992D01*
X188903Y1068482D01*
X262209Y995176D01*
X266719Y991715D01*
X271971Y989540D01*
X277607Y988798D01*
X372028D01*
X376735Y986603D01*
X385920Y978469D01*
X387221Y976079D01*
X387239Y975896D01*
X388968Y970196D01*
X391776Y964942D01*
X395555Y960338D01*
X400160Y956559D01*
X405413Y953751D01*
X411113Y952022D01*
X416172Y951523D01*
Y140921D01*
X389541D01*
X379304Y140115D01*
X369319Y137718D01*
X359831Y133788D01*
X351076Y128423D01*
X343267Y121754D01*
X336598Y113945D01*
X331233Y105189D01*
X327303Y95702D01*
X324905Y85717D01*
X324100Y75479D01*
X324905Y65242D01*
X327303Y55257D01*
X331233Y45770D01*
X336598Y37014D01*
X337779Y35631D01*
X330753Y20391D01*
X20391D01*
Y1579609D01*
X324759D01*
X332050Y1565246D01*
D02*
G37*
%LPC*%
G36*
X965280Y1376135D02*
X935775D01*
Y1325878D01*
X981029D01*
Y1360385D01*
X980493Y1364461D01*
X978919Y1368260D01*
X976416Y1371522D01*
X973155Y1374025D01*
X969356Y1375598D01*
X965280Y1376135D01*
D02*
G37*
G36*
X920535D02*
X891029D01*
X886953Y1375598D01*
X883155Y1374025D01*
X879893Y1371522D01*
X877390Y1368260D01*
X875817Y1364461D01*
X875280Y1360385D01*
Y1325878D01*
X920535D01*
Y1376135D01*
D02*
G37*
G36*
X1773013Y1505456D02*
X1723012D01*
X1711208Y1504682D01*
X1699606Y1502374D01*
X1688405Y1498572D01*
X1677795Y1493340D01*
X1667960Y1486768D01*
X1659066Y1478968D01*
X1651267Y1470075D01*
X1644695Y1460239D01*
X1639463Y1449630D01*
X1635660Y1438428D01*
X1633353Y1426826D01*
X1632579Y1415022D01*
X1633353Y1403218D01*
X1635660Y1391616D01*
X1639463Y1380415D01*
X1644695Y1369806D01*
X1651267Y1359970D01*
X1659066Y1351076D01*
X1667960Y1343277D01*
X1677795Y1336705D01*
X1688405Y1331473D01*
X1699606Y1327670D01*
X1711208Y1325363D01*
X1723012Y1324589D01*
X1773013D01*
X1784817Y1325363D01*
X1796419Y1327670D01*
X1807620Y1331473D01*
X1818230Y1336705D01*
X1828065Y1343277D01*
X1836959Y1351076D01*
X1844758Y1359970D01*
X1851330Y1369806D01*
X1856562Y1380415D01*
X1860365Y1391616D01*
X1862672Y1403218D01*
X1863446Y1415022D01*
X1862672Y1426826D01*
X1860365Y1438428D01*
X1856562Y1449630D01*
X1851330Y1460239D01*
X1844758Y1470075D01*
X1836959Y1478968D01*
X1828065Y1486768D01*
X1818230Y1493340D01*
X1807620Y1498572D01*
X1796419Y1502374D01*
X1784817Y1504682D01*
X1773013Y1505456D01*
D02*
G37*
G36*
X1168704Y1515488D02*
X1089504D01*
X1085421Y1514950D01*
X1081617Y1513374D01*
X1078349Y1510868D01*
X1075843Y1507600D01*
X1074267Y1503796D01*
X1073729Y1499713D01*
Y1448239D01*
X1050697D01*
X1045061Y1447497D01*
X1039809Y1445322D01*
X1035299Y1441861D01*
X1029197Y1435759D01*
X850078D01*
X844442Y1435017D01*
X839190Y1432841D01*
X834680Y1429381D01*
X788907Y1383607D01*
X785446Y1379097D01*
X784219Y1376135D01*
X736030D01*
X731953Y1375598D01*
X728155Y1374025D01*
X724893Y1371522D01*
X722390Y1368260D01*
X720817Y1364461D01*
X720280Y1360385D01*
Y1276135D01*
X720308Y1275919D01*
Y1135203D01*
X710053Y1124948D01*
X706593Y1120438D01*
X704417Y1115186D01*
X703675Y1109550D01*
Y1058528D01*
X704417Y1052892D01*
X706593Y1047640D01*
X710053Y1043130D01*
X746132Y1007051D01*
X750642Y1003590D01*
X755894Y1001415D01*
X761530Y1000673D01*
X800547D01*
X802568Y999586D01*
X810229Y990211D01*
X812011Y985433D01*
X811655Y981824D01*
X812239Y975896D01*
X813968Y970196D01*
X816776Y964942D01*
X820555Y960338D01*
X825160Y956559D01*
X830413Y953751D01*
X836113Y952022D01*
X842041Y951438D01*
X886515D01*
Y868916D01*
X863326D01*
Y884265D01*
X862789Y888341D01*
X861216Y892139D01*
X858713Y895401D01*
X855451Y897904D01*
X851653Y899478D01*
X847576Y900014D01*
X763326D01*
X759250Y899478D01*
X755451Y897904D01*
X752190Y895401D01*
X749687Y892139D01*
X748113Y888341D01*
X747577Y884265D01*
Y810014D01*
X748113Y805938D01*
X749687Y802140D01*
X752190Y798878D01*
X755451Y796375D01*
X759250Y794802D01*
X763326Y794265D01*
X847576D01*
X851653Y794802D01*
X855451Y796375D01*
X858713Y798878D01*
X861216Y802140D01*
X862789Y805938D01*
X863326Y810014D01*
Y825363D01*
X886515D01*
Y531324D01*
X868425D01*
X868402Y531499D01*
X866831Y535292D01*
X864332Y538549D01*
X861075Y541047D01*
X857283Y542618D01*
X853213Y543154D01*
X773913D01*
X769844Y542618D01*
X766051Y541047D01*
X762794Y538549D01*
X760295Y535292D01*
X758724Y531499D01*
X758189Y527429D01*
Y458130D01*
X758724Y454060D01*
X760295Y450267D01*
X762794Y447011D01*
X766051Y444512D01*
X769844Y442941D01*
X773913Y442405D01*
X853213D01*
X857283Y442941D01*
X861075Y444512D01*
X864332Y447011D01*
X866831Y450267D01*
X868402Y454060D01*
X868938Y458130D01*
Y487772D01*
X899271D01*
X1042345Y344698D01*
X1046855Y341237D01*
X1052107Y339062D01*
X1057743Y338320D01*
X1377362D01*
X1381591Y328109D01*
X1387368Y318682D01*
X1394548Y310275D01*
X1402955Y303095D01*
X1412382Y297318D01*
X1422597Y293087D01*
X1433347Y290506D01*
X1444369Y289639D01*
X1474369D01*
X1485391Y290506D01*
X1496141Y293087D01*
X1506356Y297318D01*
X1515783Y303095D01*
X1524189Y310275D01*
X1531370Y318682D01*
X1537147Y328109D01*
X1541378Y338323D01*
X1543959Y349074D01*
X1544826Y360096D01*
X1543959Y371118D01*
X1541378Y381868D01*
X1537147Y392083D01*
X1531370Y401509D01*
X1524189Y409916D01*
X1515783Y417097D01*
X1506356Y422873D01*
X1496141Y427105D01*
X1485391Y429685D01*
X1474369Y430553D01*
X1444369D01*
X1433347Y429685D01*
X1422597Y427105D01*
X1412382Y422873D01*
X1402955Y417097D01*
X1394548Y409916D01*
X1387368Y401509D01*
X1381591Y392083D01*
X1377362Y381872D01*
X1066763D01*
X930067Y518568D01*
Y847140D01*
Y951438D01*
X937041D01*
X942969Y952022D01*
X948670Y953751D01*
X953923Y956559D01*
X958528Y960338D01*
X962307Y964942D01*
X965115Y970196D01*
X966844Y975896D01*
X967428Y981824D01*
X966844Y987752D01*
X965115Y993452D01*
X962307Y998705D01*
X959669Y1006824D01*
X962307Y1014943D01*
X965115Y1020196D01*
X966844Y1025896D01*
X967428Y1031824D01*
X966844Y1037752D01*
X965115Y1043452D01*
X962307Y1048706D01*
X958528Y1053310D01*
X953923Y1057089D01*
X948670Y1059897D01*
X942969Y1061626D01*
X937041Y1062210D01*
X842041D01*
X836113Y1061626D01*
X830413Y1059897D01*
X825160Y1057089D01*
X820713Y1053440D01*
X816291Y1052858D01*
X811039Y1050683D01*
X806529Y1047222D01*
X803533Y1044225D01*
X770550D01*
X747228Y1067548D01*
Y1100530D01*
X757483Y1110785D01*
X760943Y1115295D01*
X763119Y1120547D01*
X763861Y1126183D01*
Y1260385D01*
X810280D01*
X814356Y1260922D01*
X818155Y1262495D01*
X821416Y1264998D01*
X823919Y1268260D01*
X825493Y1272059D01*
X826029Y1276135D01*
Y1338858D01*
X826081Y1339250D01*
Y1359189D01*
X859098Y1392207D01*
X1038217D01*
X1043853Y1392948D01*
X1049105Y1395124D01*
X1053615Y1398585D01*
X1059717Y1404687D01*
X1093811D01*
Y1389448D01*
X1093626D01*
X1089608Y1388919D01*
X1085864Y1387368D01*
X1082649Y1384901D01*
X1080182Y1381687D01*
X1078632Y1377943D01*
X1078103Y1373925D01*
Y1334225D01*
X1078632Y1330208D01*
X1080182Y1326464D01*
X1082649Y1323249D01*
X1085864Y1320782D01*
X1089608Y1319231D01*
X1093626Y1318702D01*
X1123325D01*
X1127343Y1319231D01*
X1131087Y1320782D01*
X1134302Y1323249D01*
X1136769Y1326464D01*
X1138320Y1330208D01*
X1138848Y1334225D01*
Y1373925D01*
X1138320Y1377943D01*
X1137364Y1380250D01*
Y1404738D01*
X1168704D01*
X1172787Y1405276D01*
X1176591Y1406852D01*
X1179858Y1409359D01*
X1182365Y1412626D01*
X1183941Y1416430D01*
X1184479Y1420513D01*
Y1499713D01*
X1183941Y1503796D01*
X1182365Y1507600D01*
X1179858Y1510868D01*
X1176591Y1513374D01*
X1172787Y1514950D01*
X1168704Y1515488D01*
D02*
G37*
G36*
X1263899Y1327395D02*
X1256669D01*
Y1299643D01*
X1279422D01*
Y1311872D01*
X1278893Y1315890D01*
X1277342Y1319634D01*
X1274876Y1322849D01*
X1271661Y1325316D01*
X1267917Y1326867D01*
X1263899Y1327395D01*
D02*
G37*
G36*
X1241429D02*
X1234199D01*
X1230182Y1326867D01*
X1226438Y1325316D01*
X1223223Y1322849D01*
X1220756Y1319634D01*
X1219205Y1315890D01*
X1218677Y1311872D01*
Y1299643D01*
X1241429D01*
Y1327395D01*
D02*
G37*
G36*
X1572212Y1562401D02*
X1413813D01*
X1409625Y1561850D01*
X1405723Y1560233D01*
X1402373Y1557662D01*
X1399802Y1554312D01*
X1398185Y1550409D01*
X1397634Y1546222D01*
Y1337822D01*
X1398185Y1333635D01*
X1399802Y1329733D01*
X1402373Y1326382D01*
X1405723Y1323811D01*
X1409625Y1322195D01*
X1413813Y1321644D01*
X1471904D01*
X1478742Y1308322D01*
X1471689Y1294921D01*
X1403012D01*
X1396594Y1294288D01*
X1390422Y1292417D01*
X1384735Y1289376D01*
X1379750Y1285285D01*
X1366436Y1292434D01*
X1344530Y1314339D01*
Y1426463D01*
X1344479Y1426855D01*
Y1499713D01*
X1343941Y1503796D01*
X1342365Y1507600D01*
X1339859Y1510868D01*
X1336591Y1513374D01*
X1332787Y1514950D01*
X1328704Y1515488D01*
X1249504D01*
X1245421Y1514950D01*
X1241617Y1513374D01*
X1238350Y1510868D01*
X1235843Y1507600D01*
X1234267Y1503796D01*
X1233729Y1499713D01*
Y1420513D01*
X1234267Y1416430D01*
X1235843Y1412626D01*
X1238350Y1409359D01*
X1241617Y1406852D01*
X1245421Y1405276D01*
X1249504Y1404738D01*
X1300978D01*
Y1305319D01*
X1301720Y1299683D01*
X1303896Y1294431D01*
X1307356Y1289921D01*
X1350653Y1246624D01*
X1355163Y1243164D01*
X1360415Y1240988D01*
X1366051Y1240246D01*
X1367328D01*
X1376088Y1225006D01*
X1372473Y1218799D01*
X1366837Y1218057D01*
X1361585Y1215881D01*
X1357076Y1212420D01*
X1349863Y1205208D01*
X1279422D01*
Y1216872D01*
X1278893Y1220890D01*
X1277342Y1224634D01*
X1274876Y1227849D01*
X1271661Y1230316D01*
X1267917Y1231866D01*
X1263899Y1232395D01*
X1234199D01*
X1230182Y1231866D01*
X1226438Y1230316D01*
X1223223Y1227849D01*
X1220756Y1224634D01*
X1219205Y1220890D01*
X1218677Y1216872D01*
Y1205208D01*
X1008089D01*
X979485Y1233812D01*
X974975Y1237273D01*
X969723Y1239448D01*
X964087Y1240190D01*
X826885D01*
X821249Y1239448D01*
X815997Y1237273D01*
X811487Y1233812D01*
X790053Y1212378D01*
X786593Y1207868D01*
X784417Y1202616D01*
X783675Y1196980D01*
Y1166668D01*
X784417Y1161032D01*
X786593Y1155780D01*
X790053Y1151270D01*
X811890Y1129433D01*
X812239Y1125896D01*
X813968Y1120196D01*
X816776Y1114942D01*
X820555Y1110338D01*
X825159Y1106559D01*
X830413Y1103751D01*
X836113Y1102022D01*
X842041Y1101438D01*
X937041D01*
X942969Y1102022D01*
X948669Y1103751D01*
X953923Y1106559D01*
X958527Y1110338D01*
X962306Y1114942D01*
X965114Y1120196D01*
X966843Y1125896D01*
X967809Y1126958D01*
X980368Y1134185D01*
X981637Y1134417D01*
X982490Y1134375D01*
X987496Y1133716D01*
X1038939D01*
Y593326D01*
X1039681Y587690D01*
X1041857Y582438D01*
X1045317Y577928D01*
X1082508Y540737D01*
Y505962D01*
X1082560Y505568D01*
Y437662D01*
X1083096Y433592D01*
X1084667Y429800D01*
X1087166Y426543D01*
X1090423Y424044D01*
X1094215Y422473D01*
X1098285Y421937D01*
X1167585D01*
X1171655Y422473D01*
X1175447Y424044D01*
X1178704Y426543D01*
X1181203Y429800D01*
X1182774Y433592D01*
X1183309Y437662D01*
Y516962D01*
X1182774Y521032D01*
X1181203Y524824D01*
X1178704Y528081D01*
X1175447Y530580D01*
X1171655Y532151D01*
X1167585Y532687D01*
X1126061D01*
Y549757D01*
X1125319Y555393D01*
X1123143Y560645D01*
X1119683Y565155D01*
X1082492Y602346D01*
Y1133716D01*
X1142477D01*
Y1121825D01*
X1143005Y1117807D01*
X1144556Y1114063D01*
X1147023Y1110848D01*
X1150238Y1108381D01*
X1153982Y1106830D01*
X1157999Y1106302D01*
X1187699D01*
X1191717Y1106830D01*
X1195461Y1108381D01*
X1198676Y1110848D01*
X1201142Y1114063D01*
X1202693Y1117807D01*
X1203222Y1121825D01*
Y1133548D01*
X1337859D01*
X1354783Y1116624D01*
X1359293Y1113164D01*
X1364545Y1110988D01*
X1370181Y1110246D01*
X1378530D01*
X1379750Y1108760D01*
X1380801Y1105725D01*
Y1093319D01*
X1379750Y1090285D01*
X1375658Y1085300D01*
X1372618Y1079612D01*
X1370746Y1073440D01*
X1370114Y1067022D01*
X1370746Y1060604D01*
X1372618Y1054432D01*
X1375658Y1048745D01*
X1379750Y1043760D01*
X1384735Y1039668D01*
X1390422Y1036628D01*
X1396594Y1034756D01*
X1403012Y1034124D01*
X1568013D01*
X1574431Y1034756D01*
X1580602Y1036628D01*
X1586290Y1039668D01*
X1591275Y1043760D01*
X1595367Y1048745D01*
X1598407Y1054432D01*
X1600279Y1060604D01*
X1600911Y1067022D01*
X1600279Y1073440D01*
X1598407Y1079612D01*
X1595367Y1085300D01*
X1591275Y1090285D01*
X1590223Y1093319D01*
Y1105725D01*
X1591275Y1108760D01*
X1595367Y1113745D01*
X1598407Y1119433D01*
X1600279Y1125604D01*
X1600911Y1132022D01*
X1600279Y1138440D01*
X1598407Y1144612D01*
X1595367Y1150300D01*
X1591275Y1155285D01*
X1590223Y1158320D01*
Y1170725D01*
X1591275Y1173760D01*
X1595367Y1178745D01*
X1598407Y1184433D01*
X1600279Y1190604D01*
X1600911Y1197022D01*
X1600279Y1203441D01*
X1598407Y1209612D01*
X1595367Y1215300D01*
X1591275Y1220285D01*
X1590224Y1223319D01*
Y1235726D01*
X1591275Y1238760D01*
X1595367Y1243745D01*
X1598407Y1249433D01*
X1600279Y1255604D01*
X1600911Y1262022D01*
X1600279Y1268440D01*
X1598407Y1274612D01*
X1595367Y1280300D01*
X1591275Y1285285D01*
X1586290Y1289376D01*
X1580602Y1292417D01*
X1574431Y1294288D01*
X1568013Y1294921D01*
X1554335D01*
X1547283Y1308322D01*
X1554121Y1321644D01*
X1572212D01*
X1576399Y1322195D01*
X1580301Y1323811D01*
X1583652Y1326382D01*
X1586223Y1329733D01*
X1587839Y1333635D01*
X1588391Y1337822D01*
Y1546222D01*
X1587839Y1550409D01*
X1586223Y1554312D01*
X1583652Y1557662D01*
X1580301Y1560233D01*
X1576399Y1561850D01*
X1572212Y1562401D01*
D02*
G37*
G36*
X1123325Y1294448D02*
X1116096D01*
Y1266703D01*
X1138848D01*
Y1278925D01*
X1138320Y1282943D01*
X1136769Y1286687D01*
X1134302Y1289901D01*
X1131087Y1292368D01*
X1127343Y1293919D01*
X1123325Y1294448D01*
D02*
G37*
G36*
X1100856D02*
X1093626D01*
X1089608Y1293919D01*
X1085864Y1292368D01*
X1082649Y1289901D01*
X1080182Y1286687D01*
X1078632Y1282943D01*
X1078103Y1278925D01*
Y1266703D01*
X1100856D01*
Y1294448D01*
D02*
G37*
G36*
X981029Y1310638D02*
X935775D01*
Y1260385D01*
X965280D01*
X969356Y1260922D01*
X973155Y1262495D01*
X976416Y1264998D01*
X978919Y1268260D01*
X980493Y1272059D01*
X981029Y1276135D01*
Y1310638D01*
D02*
G37*
G36*
X920535D02*
X875280D01*
Y1276135D01*
X875817Y1272059D01*
X877390Y1268260D01*
X879893Y1264998D01*
X883155Y1262495D01*
X886953Y1260922D01*
X891029Y1260385D01*
X920535D01*
Y1310638D01*
D02*
G37*
G36*
X1279422Y1284403D02*
X1256669D01*
Y1256650D01*
X1263899D01*
X1267917Y1257179D01*
X1271661Y1258730D01*
X1274876Y1261196D01*
X1277342Y1264411D01*
X1278893Y1268155D01*
X1279422Y1272173D01*
Y1284403D01*
D02*
G37*
G36*
X1241429D02*
X1218677D01*
Y1272173D01*
X1219205Y1268155D01*
X1220756Y1264411D01*
X1223223Y1261196D01*
X1226438Y1258730D01*
X1230182Y1257179D01*
X1234199Y1256650D01*
X1241429D01*
Y1284403D01*
D02*
G37*
G36*
X1138848Y1251463D02*
X1116096D01*
Y1223702D01*
X1123325D01*
X1127343Y1224231D01*
X1131087Y1225782D01*
X1134302Y1228249D01*
X1136769Y1231464D01*
X1138320Y1235208D01*
X1138848Y1239225D01*
Y1251463D01*
D02*
G37*
G36*
X1100856D02*
X1078103D01*
Y1239225D01*
X1078632Y1235208D01*
X1080182Y1231464D01*
X1082649Y1228249D01*
X1085864Y1225782D01*
X1089608Y1224231D01*
X1093626Y1223702D01*
X1100856D01*
Y1251463D01*
D02*
G37*
G36*
X1187699Y1082047D02*
X1180469D01*
Y1054302D01*
X1203222D01*
Y1066524D01*
X1202693Y1070542D01*
X1201142Y1074286D01*
X1198676Y1077501D01*
X1195461Y1079967D01*
X1191717Y1081518D01*
X1187699Y1082047D01*
D02*
G37*
G36*
X1165229D02*
X1157999D01*
X1153982Y1081518D01*
X1150238Y1079967D01*
X1147023Y1077501D01*
X1144556Y1074286D01*
X1143005Y1070542D01*
X1142477Y1066524D01*
Y1054302D01*
X1165229D01*
Y1082047D01*
D02*
G37*
G36*
X1203222Y1039062D02*
X1180469D01*
Y1011302D01*
X1187699D01*
X1191717Y1011830D01*
X1195461Y1013381D01*
X1198676Y1015848D01*
X1201142Y1019063D01*
X1202693Y1022807D01*
X1203222Y1026824D01*
Y1039062D01*
D02*
G37*
G36*
X1165229D02*
X1142477D01*
Y1026824D01*
X1143005Y1022807D01*
X1144556Y1019063D01*
X1147023Y1015848D01*
X1150238Y1013381D01*
X1153982Y1011830D01*
X1157999Y1011302D01*
X1165229D01*
Y1039062D01*
D02*
G37*
G36*
X1773013Y939456D02*
X1723012D01*
X1711208Y938682D01*
X1699606Y936374D01*
X1688405Y932572D01*
X1677795Y927340D01*
X1667960Y920768D01*
X1659066Y912968D01*
X1651267Y904075D01*
X1644695Y894239D01*
X1639463Y883630D01*
X1635660Y872428D01*
X1633353Y860826D01*
X1632579Y849022D01*
X1633353Y837219D01*
X1635660Y825617D01*
X1639463Y814415D01*
X1644695Y803806D01*
X1651267Y793970D01*
X1659066Y785076D01*
X1667960Y777277D01*
X1677795Y770705D01*
X1688405Y765473D01*
X1699606Y761671D01*
X1711208Y759363D01*
X1723012Y758589D01*
X1773013D01*
X1784817Y759363D01*
X1796419Y761671D01*
X1807620Y765473D01*
X1818230Y770705D01*
X1828065Y777277D01*
X1836959Y785076D01*
X1844758Y793970D01*
X1851330Y803806D01*
X1856562Y814415D01*
X1860365Y825617D01*
X1862672Y837219D01*
X1863446Y849022D01*
X1862672Y860826D01*
X1860365Y872428D01*
X1856562Y883630D01*
X1851330Y894239D01*
X1844758Y904075D01*
X1836959Y912968D01*
X1828065Y920768D01*
X1818230Y927340D01*
X1807620Y932572D01*
X1796419Y936374D01*
X1784817Y938682D01*
X1773013Y939456D01*
D02*
G37*
G36*
X1513012Y972457D02*
X1505124Y971680D01*
X1497539Y969379D01*
X1490548Y965642D01*
X1484421Y960614D01*
X1479392Y954487D01*
X1475656Y947496D01*
X1474110Y942401D01*
X1413813D01*
X1409625Y941850D01*
X1405723Y940233D01*
X1402373Y937662D01*
X1399802Y934312D01*
X1398185Y930410D01*
X1397634Y926222D01*
Y717823D01*
X1398185Y713635D01*
X1399802Y709733D01*
X1402373Y706383D01*
X1405723Y703812D01*
X1409625Y702195D01*
X1413813Y701644D01*
X1572212D01*
X1576399Y702195D01*
X1580301Y703812D01*
X1583652Y706383D01*
X1586223Y709733D01*
X1587839Y713635D01*
X1588391Y717823D01*
Y926222D01*
X1587839Y930410D01*
X1586223Y934312D01*
X1583652Y937662D01*
X1580301Y940233D01*
X1576399Y941850D01*
X1572212Y942401D01*
X1551915D01*
X1550369Y947496D01*
X1546633Y954487D01*
X1541604Y960614D01*
X1535477Y965642D01*
X1528486Y969379D01*
X1520901Y971680D01*
X1513012Y972457D01*
D02*
G37*
G36*
X847576Y745014D02*
X813071D01*
Y699760D01*
X863326D01*
Y729265D01*
X862789Y733341D01*
X861216Y737139D01*
X858713Y740401D01*
X855451Y742904D01*
X851653Y744478D01*
X847576Y745014D01*
D02*
G37*
G36*
X797831D02*
X763326D01*
X759250Y744478D01*
X755451Y742904D01*
X752190Y740401D01*
X749687Y737139D01*
X748113Y733341D01*
X747577Y729265D01*
Y699760D01*
X797831D01*
Y745014D01*
D02*
G37*
G36*
X863326Y684520D02*
X813071D01*
Y639265D01*
X847576D01*
X851653Y639802D01*
X855451Y641375D01*
X858713Y643878D01*
X861216Y647140D01*
X862789Y650938D01*
X863326Y655014D01*
Y684520D01*
D02*
G37*
G36*
X797831D02*
X747577D01*
Y655014D01*
X748113Y650938D01*
X749687Y647140D01*
X752190Y643878D01*
X755451Y641375D01*
X759250Y639802D01*
X763326Y639265D01*
X797831D01*
Y684520D01*
D02*
G37*
G36*
X1474369Y684553D02*
X1444369D01*
X1433347Y683685D01*
X1422597Y681105D01*
X1412382Y676873D01*
X1402955Y671097D01*
X1394548Y663916D01*
X1387368Y655509D01*
X1381591Y646083D01*
X1377360Y635868D01*
X1374779Y625118D01*
X1373912Y614096D01*
X1374779Y603074D01*
X1377360Y592323D01*
X1379764Y586520D01*
X1325983Y532738D01*
X1311585D01*
X1311191Y532687D01*
X1248285D01*
X1244215Y532151D01*
X1240423Y530580D01*
X1237166Y528081D01*
X1234667Y524824D01*
X1233096Y521032D01*
X1232560Y516962D01*
Y437662D01*
X1233096Y433592D01*
X1234667Y429800D01*
X1237166Y426543D01*
X1240423Y424044D01*
X1244215Y422473D01*
X1248285Y421937D01*
X1317585D01*
X1321655Y422473D01*
X1325447Y424044D01*
X1328704Y426543D01*
X1331203Y429800D01*
X1332774Y433592D01*
X1333309Y437662D01*
Y489186D01*
X1335003D01*
X1340639Y489928D01*
X1345891Y492103D01*
X1350401Y495564D01*
X1408521Y553684D01*
X1412382Y551318D01*
X1422597Y547087D01*
X1433347Y544506D01*
X1444369Y543639D01*
X1474369D01*
X1485391Y544506D01*
X1496141Y547087D01*
X1506356Y551318D01*
X1515783Y557095D01*
X1524189Y564275D01*
X1531370Y572682D01*
X1537147Y582109D01*
X1541378Y592323D01*
X1543959Y603074D01*
X1544826Y614096D01*
X1543959Y625118D01*
X1541378Y635868D01*
X1537147Y646083D01*
X1531370Y655509D01*
X1524189Y663916D01*
X1515783Y671097D01*
X1506356Y676873D01*
X1496141Y681105D01*
X1485391Y683685D01*
X1474369Y684553D01*
D02*
G37*
G36*
X853213Y393154D02*
X773913D01*
X769844Y392618D01*
X766051Y391047D01*
X762794Y388548D01*
X760295Y385292D01*
X758724Y381499D01*
X758189Y377429D01*
Y349316D01*
X733123D01*
Y369929D01*
X732587Y373999D01*
X731016Y377791D01*
X728517Y381048D01*
X725261Y383547D01*
X721468Y385118D01*
X717398Y385654D01*
X638099D01*
X634029Y385118D01*
X630236Y383547D01*
X626979Y381048D01*
X624481Y377791D01*
X622910Y373999D01*
X622374Y369929D01*
Y300629D01*
X622910Y296559D01*
X624481Y292767D01*
X626979Y289510D01*
X630236Y287011D01*
X634029Y285440D01*
X638099Y284905D01*
X717398D01*
X721468Y285440D01*
X725261Y287011D01*
X728517Y289510D01*
X731016Y292767D01*
X732587Y296559D01*
X733123Y300629D01*
Y305763D01*
X758500D01*
X758724Y304060D01*
X760295Y300267D01*
X762794Y297010D01*
X766051Y294511D01*
X769844Y292940D01*
X773913Y292405D01*
X853213D01*
X857283Y292940D01*
X861075Y294511D01*
X864332Y297010D01*
X866831Y300267D01*
X868402Y304060D01*
X868938Y308129D01*
Y377429D01*
X868402Y381499D01*
X866831Y385292D01*
X864332Y388548D01*
X861075Y391047D01*
X857283Y392618D01*
X853213Y393154D01*
D02*
G37*
%LPD*%
D10*
X1748013Y1415022D02*
D03*
Y849022D02*
D03*
D11*
X1459369Y614096D02*
D03*
Y106096D02*
D03*
X1713369D02*
D03*
X1459369Y360096D02*
D03*
X1713369D02*
D03*
Y614096D02*
D03*
D12*
X1214541Y775480D02*
D03*
D13*
X139541D02*
D03*
D14*
X427041Y75479D02*
D03*
X927041D02*
D03*
X677041Y1525480D02*
D03*
X427041D02*
D03*
X927041D02*
D03*
D15*
X1345114Y1002022D02*
D03*
X1626195D02*
D03*
X326139Y1411197D02*
D03*
X1178573Y1278773D02*
D03*
X805451Y597704D02*
D03*
X1232525Y1046674D02*
D03*
X93980Y997645D02*
D03*
X1009942Y1318260D02*
D03*
X996183Y1069981D02*
D03*
X787041Y1084039D02*
D03*
D16*
X1485512Y1197022D02*
D03*
Y1262022D02*
D03*
Y1132022D02*
D03*
Y1067022D02*
D03*
Y1002022D02*
D03*
D17*
X1493012Y1442022D02*
D03*
Y822022D02*
D03*
D18*
X1108476Y1354075D02*
D03*
Y1259075D02*
D03*
X1249049Y1292023D02*
D03*
Y1197022D02*
D03*
X1172849Y1141674D02*
D03*
Y1046674D02*
D03*
D19*
X677748Y335279D02*
D03*
Y500279D02*
D03*
X813563Y492780D02*
D03*
Y342779D02*
D03*
D20*
X805451Y847140D02*
D03*
Y692140D02*
D03*
D21*
X1129104Y1460113D02*
D03*
X1289104D02*
D03*
D22*
X464541Y981824D02*
D03*
Y1031824D02*
D03*
X464542Y1081824D02*
D03*
Y1131824D02*
D03*
X464541Y1181824D02*
D03*
X889541Y981824D02*
D03*
Y1031824D02*
D03*
X889541Y1081824D02*
D03*
Y1131824D02*
D03*
X889541Y1181824D02*
D03*
D23*
X773155Y1318260D02*
D03*
X928155D02*
D03*
D24*
X1132935Y477312D02*
D03*
X1282935D02*
D03*
D25*
X1311585Y510962D02*
X1335003D01*
X1438137Y614096D02*
X1459369D01*
X1335003Y510962D02*
X1438137Y614096D01*
X1282935Y477312D02*
Y482312D01*
X1311585Y510962D01*
X1156927Y1155324D02*
X1164199D01*
X1156760Y1155492D02*
X1156927Y1155324D01*
X1060715Y1155492D02*
X1156760D01*
X1164199Y1155324D02*
X1172849Y1146674D01*
X987496Y1155492D02*
X1060715D01*
Y593326D02*
Y1155492D01*
Y593326D02*
X1104285Y549757D01*
Y505962D02*
Y549757D01*
Y505962D02*
X1132935Y477312D01*
X1108476Y1354075D02*
X1115588Y1361187D01*
Y1446597D01*
X1129104Y1460113D01*
X1095454Y1426463D02*
X1115588Y1446597D01*
X850078Y1413983D02*
X1038217D01*
X1050697Y1426463D01*
X1095454D01*
X1274998Y1474219D02*
X1322754Y1426463D01*
Y1305319D02*
Y1426463D01*
X742085Y1282110D02*
X778235Y1318260D01*
X1181499Y1155324D02*
X1346879D01*
X1370181Y1132022D02*
X1485512D01*
X1346879Y1155324D02*
X1370181Y1132022D01*
X1257699Y1183432D02*
X1358883D01*
X1372474Y1197022D02*
X1485512D01*
X1358883Y1183432D02*
X1372474Y1197022D01*
X1322754Y1305319D02*
X1366051Y1262022D01*
X1485512D01*
X1172849Y1141674D02*
Y1146674D01*
X1181499Y1155324D01*
X999069Y1183432D02*
X1240399D01*
X964087Y1218414D02*
X999069Y1183432D01*
X826885Y1218414D02*
X964087D01*
X961164Y1181824D02*
X987496Y1155492D01*
X889541Y1181824D02*
X961164D01*
X1249049Y1192082D02*
Y1197022D01*
X1240399Y1183432D02*
X1249049Y1192082D01*
X1257699Y1183432D01*
X805451Y1166668D02*
X840296Y1131824D01*
X889541D01*
X805451Y1166668D02*
Y1196980D01*
X804305Y1339250D02*
Y1368209D01*
X850078Y1413983D01*
X790935Y1325880D02*
X804305Y1339250D01*
X725451Y1109550D02*
X742085Y1126183D01*
X778235Y1318260D02*
X790935D01*
X742085Y1126183D02*
Y1282110D01*
X725451Y1058528D02*
Y1109550D01*
X574344Y268674D02*
X656803Y186216D01*
X1021743D01*
X574344Y268674D02*
Y940169D01*
X813563Y492780D02*
X830332Y509548D01*
X908291D01*
Y847140D01*
Y973833D01*
X661060Y501728D02*
Y1195537D01*
X1021743Y186216D02*
X1101863Y106096D01*
X908291Y847140D02*
X908291Y847140D01*
X805451Y847140D02*
X908291D01*
X661060Y501728D02*
X677748Y485039D01*
X1057743Y360096D02*
X1459369D01*
X908291Y509548D02*
X1057743Y360096D01*
X821927Y1031824D02*
X889541D01*
X812553Y1022449D02*
X821927Y1031824D01*
X761530Y1022449D02*
X812553D01*
X725451Y1058528D02*
X761530Y1022449D01*
X805451Y1196980D02*
X826885Y1218414D01*
X900300Y981824D02*
X908291Y973833D01*
X650616Y1351876D02*
X768506Y1469765D01*
X831286D02*
X887001Y1525480D01*
X768506Y1469765D02*
X831286D01*
X887001Y1525480D02*
X927041D01*
X677748Y320039D02*
X685249Y327539D01*
X813563D01*
X598033Y1258563D02*
X661060Y1195537D01*
X427041Y75479D02*
X437948Y86386D01*
Y973833D01*
X445939Y981824D02*
X464541D01*
X437948Y973833D02*
X445939Y981824D01*
X377238Y1258563D02*
X598033D01*
X340824Y1171812D02*
Y1222149D01*
X380812Y1131824D02*
X464542D01*
X340824Y1171812D02*
X380812Y1131824D01*
X340824Y1222149D02*
X377238Y1258563D01*
X1101863Y106096D02*
X1468120D01*
X277607Y1010574D02*
X374257D01*
X204301Y1083880D02*
Y1461946D01*
Y1083880D02*
X277607Y1010574D01*
X204301Y1461946D02*
X276046Y1533692D01*
X418829D01*
X275266Y1247269D02*
X379872Y1351876D01*
X650616D01*
X275266Y1122228D02*
Y1247269D01*
X570076Y1181824D02*
X587341Y1164559D01*
X574344Y940169D02*
X587341Y953166D01*
Y1164559D01*
X395507Y1031824D02*
X464541D01*
X374257Y1010574D02*
X395507Y1031824D01*
X275266Y1122228D02*
X315670Y1081824D01*
X418829Y1533692D02*
X427041Y1525480D01*
X315670Y1081824D02*
X464542D01*
X889541Y981824D02*
X900300D01*
X464541Y1181824D02*
X570076D01*
%TF.MD5,6a4c48937ae4467d540df495ce92b5b1*%
M02*
