%TF.GenerationSoftware,Altium Limited,Altium Designer,20.1.8 (145)*%
G04 Layer_Color=417716*
%FSLAX45Y45*%
%MOMM*%
%TF.SameCoordinates,69C50D53-9BFA-4F85-B750-FB8D41B2BBF4*%
%TF.FilePolarity,Negative*%
%TF.FileFunction,Soldermask,Bot*%
%TF.Part,Single*%
G01*
G75*
%TA.AperFunction,SMDPad,CuDef*%
G04:AMPARAMS|DCode=29|XSize=0.45mm|YSize=2.1mm|CornerRadius=0.225mm|HoleSize=0mm|Usage=FLASHONLY|Rotation=270.000|XOffset=0mm|YOffset=0mm|HoleType=Round|Shape=RoundedRectangle|*
%AMROUNDEDRECTD29*
21,1,0.45000,1.65000,0,0,270.0*
21,1,0.00000,2.10000,0,0,270.0*
1,1,0.45000,-0.82500,0.00000*
1,1,0.45000,-0.82500,0.00000*
1,1,0.45000,0.82500,0.00000*
1,1,0.45000,0.82500,0.00000*
%
%ADD29ROUNDEDRECTD29*%
G04:AMPARAMS|DCode=30|XSize=2.2mm|YSize=1.7mm|CornerRadius=0.058mm|HoleSize=0mm|Usage=FLASHONLY|Rotation=270.000|XOffset=0mm|YOffset=0mm|HoleType=Round|Shape=RoundedRectangle|*
%AMROUNDEDRECTD30*
21,1,2.20000,1.58400,0,0,270.0*
21,1,2.08400,1.70000,0,0,270.0*
1,1,0.11600,-0.79200,-1.04200*
1,1,0.11600,-0.79200,1.04200*
1,1,0.11600,0.79200,1.04200*
1,1,0.11600,0.79200,-1.04200*
%
%ADD30ROUNDEDRECTD30*%
G04:AMPARAMS|DCode=31|XSize=0.4mm|YSize=0.5mm|CornerRadius=0.0515mm|HoleSize=0mm|Usage=FLASHONLY|Rotation=180.000|XOffset=0mm|YOffset=0mm|HoleType=Round|Shape=RoundedRectangle|*
%AMROUNDEDRECTD31*
21,1,0.40000,0.39700,0,0,180.0*
21,1,0.29700,0.50000,0,0,180.0*
1,1,0.10300,-0.14850,0.19850*
1,1,0.10300,0.14850,0.19850*
1,1,0.10300,0.14850,-0.19850*
1,1,0.10300,-0.14850,-0.19850*
%
%ADD31ROUNDEDRECTD31*%
G04:AMPARAMS|DCode=32|XSize=0.9mm|YSize=0.8mm|CornerRadius=0.0535mm|HoleSize=0mm|Usage=FLASHONLY|Rotation=0.000|XOffset=0mm|YOffset=0mm|HoleType=Round|Shape=RoundedRectangle|*
%AMROUNDEDRECTD32*
21,1,0.90000,0.69300,0,0,0.0*
21,1,0.79300,0.80000,0,0,0.0*
1,1,0.10700,0.39650,-0.34650*
1,1,0.10700,-0.39650,-0.34650*
1,1,0.10700,-0.39650,0.34650*
1,1,0.10700,0.39650,0.34650*
%
%ADD32ROUNDEDRECTD32*%
G04:AMPARAMS|DCode=33|XSize=0.95mm|YSize=0.85mm|CornerRadius=0.05375mm|HoleSize=0mm|Usage=FLASHONLY|Rotation=0.000|XOffset=0mm|YOffset=0mm|HoleType=Round|Shape=RoundedRectangle|*
%AMROUNDEDRECTD33*
21,1,0.95000,0.74250,0,0,0.0*
21,1,0.84250,0.85000,0,0,0.0*
1,1,0.10750,0.42125,-0.37125*
1,1,0.10750,-0.42125,-0.37125*
1,1,0.10750,-0.42125,0.37125*
1,1,0.10750,0.42125,0.37125*
%
%ADD33ROUNDEDRECTD33*%
G04:AMPARAMS|DCode=34|XSize=0.9mm|YSize=0.9mm|CornerRadius=0.054mm|HoleSize=0mm|Usage=FLASHONLY|Rotation=180.000|XOffset=0mm|YOffset=0mm|HoleType=Round|Shape=RoundedRectangle|*
%AMROUNDEDRECTD34*
21,1,0.90000,0.79200,0,0,180.0*
21,1,0.79200,0.90000,0,0,180.0*
1,1,0.10800,-0.39600,0.39600*
1,1,0.10800,0.39600,0.39600*
1,1,0.10800,0.39600,-0.39600*
1,1,0.10800,-0.39600,-0.39600*
%
%ADD34ROUNDEDRECTD34*%
%ADD35O,1.35000X0.40000*%
G04:AMPARAMS|DCode=36|XSize=0.95mm|YSize=0.85mm|CornerRadius=0.05375mm|HoleSize=0mm|Usage=FLASHONLY|Rotation=90.000|XOffset=0mm|YOffset=0mm|HoleType=Round|Shape=RoundedRectangle|*
%AMROUNDEDRECTD36*
21,1,0.95000,0.74250,0,0,90.0*
21,1,0.84250,0.85000,0,0,90.0*
1,1,0.10750,0.37125,0.42125*
1,1,0.10750,0.37125,-0.42125*
1,1,0.10750,-0.37125,-0.42125*
1,1,0.10750,-0.37125,0.42125*
%
%ADD36ROUNDEDRECTD36*%
G04:AMPARAMS|DCode=37|XSize=0.9mm|YSize=0.8mm|CornerRadius=0.0535mm|HoleSize=0mm|Usage=FLASHONLY|Rotation=90.000|XOffset=0mm|YOffset=0mm|HoleType=Round|Shape=RoundedRectangle|*
%AMROUNDEDRECTD37*
21,1,0.90000,0.69300,0,0,90.0*
21,1,0.79300,0.80000,0,0,90.0*
1,1,0.10700,0.34650,0.39650*
1,1,0.10700,0.34650,-0.39650*
1,1,0.10700,-0.34650,-0.39650*
1,1,0.10700,-0.34650,0.39650*
%
%ADD37ROUNDEDRECTD37*%
%TA.AperFunction,ComponentPad*%
%ADD38C,0.50000*%
%ADD39O,2.10000X1.60000*%
G04:AMPARAMS|DCode=40|XSize=1.2mm|YSize=1.5mm|CornerRadius=0.6mm|HoleSize=0mm|Usage=FLASHONLY|Rotation=90.000|XOffset=0mm|YOffset=0mm|HoleType=Round|Shape=RoundedRectangle|*
%AMROUNDEDRECTD40*
21,1,1.20000,0.30000,0,0,90.0*
21,1,0.00000,1.50000,0,0,90.0*
1,1,1.20000,0.15000,0.00000*
1,1,1.20000,0.15000,0.00000*
1,1,1.20000,-0.15000,0.00000*
1,1,1.20000,-0.15000,0.00000*
%
%ADD40ROUNDEDRECTD40*%
G04:AMPARAMS|DCode=41|XSize=2.35mm|YSize=3.85mm|CornerRadius=1.175mm|HoleSize=0mm|Usage=FLASHONLY|Rotation=180.000|XOffset=0mm|YOffset=0mm|HoleType=Round|Shape=RoundedRectangle|*
%AMROUNDEDRECTD41*
21,1,2.35000,1.50000,0,0,180.0*
21,1,0.00000,3.85000,0,0,180.0*
1,1,2.35000,0.00000,0.75000*
1,1,2.35000,0.00000,0.75000*
1,1,2.35000,0.00000,-0.75000*
1,1,2.35000,0.00000,-0.75000*
%
%ADD41ROUNDEDRECTD41*%
%ADD42O,2.35000X3.85000*%
%ADD43O,1.85000X1.10000*%
D29*
X1485512Y1197022D02*
D03*
Y1262022D02*
D03*
Y1132022D02*
D03*
Y1067022D02*
D03*
Y1002022D02*
D03*
D30*
X1493012Y1442022D02*
D03*
Y822022D02*
D03*
D31*
X1108476Y1354075D02*
D03*
Y1259075D02*
D03*
X1249049Y1292023D02*
D03*
Y1197022D02*
D03*
X1172849Y1141674D02*
D03*
Y1046674D02*
D03*
D32*
X677748Y335279D02*
D03*
Y500279D02*
D03*
X813563Y492780D02*
D03*
Y342779D02*
D03*
D33*
X805451Y847140D02*
D03*
Y692140D02*
D03*
D34*
X1129104Y1460113D02*
D03*
X1289104D02*
D03*
D35*
X464541Y981824D02*
D03*
Y1031824D02*
D03*
X464542Y1081824D02*
D03*
Y1131824D02*
D03*
X464541Y1181824D02*
D03*
X889541Y981824D02*
D03*
Y1031824D02*
D03*
X889541Y1081824D02*
D03*
Y1131824D02*
D03*
X889541Y1181824D02*
D03*
D36*
X773155Y1318260D02*
D03*
X928155D02*
D03*
D37*
X1132935Y477312D02*
D03*
X1282935D02*
D03*
D38*
X1513012Y932022D02*
D03*
Y1332022D02*
D03*
D39*
X1748013Y1415022D02*
D03*
Y849022D02*
D03*
D40*
X1459369Y614096D02*
D03*
Y106096D02*
D03*
X1713369D02*
D03*
X1459369Y360096D02*
D03*
X1713369D02*
D03*
Y614096D02*
D03*
D41*
X1214541Y775480D02*
D03*
D42*
X139541D02*
D03*
D43*
X427041Y75479D02*
D03*
X927041D02*
D03*
X677041Y1525480D02*
D03*
X427041D02*
D03*
X927041D02*
D03*
%TF.MD5,13d7dbeeddcb6cdcc805d2620c102cb2*%
M02*
