%TF.GenerationSoftware,Altium Limited,Altium Designer,20.1.8 (145)*%
G04 Layer_Color=15790320*
%FSLAX45Y45*%
%MOMM*%
%TF.SameCoordinates,69C50D53-9BFA-4F85-B750-FB8D41B2BBF4*%
%TF.FilePolarity,Positive*%
%TF.FileFunction,Legend,Bot*%
%TF.Part,Single*%
G01*
G75*
%TA.AperFunction,NonConductor*%
%ADD26C,0.10000*%
%ADD27C,0.10160*%
%ADD28C,0.15000*%
D26*
X1088478Y1354076D02*
G03*
X1088478Y1354076I-5000J0D01*
G01*
X1279047Y1197022D02*
G03*
X1279047Y1197022I-5000J0D01*
G01*
X1152851Y1141675D02*
G03*
X1152851Y1141675I-5000J0D01*
G01*
X732748Y397779D02*
G03*
X732748Y397779I-5000J0D01*
G01*
D27*
X620841Y967524D02*
G03*
X620841Y967524I-20000J0D01*
G01*
X1865512Y849022D02*
Y1415022D01*
X1588251D02*
X1625512D01*
X1460512Y1297283D02*
Y1317284D01*
X1594778Y849022D02*
X1625512D01*
X1460512Y946022D02*
Y966022D01*
X1108476Y1293875D02*
Y1321815D01*
X1121176Y1309115D01*
X1098316Y1309115D02*
X1121176Y1309115D01*
X1098316Y1309115D02*
X1108476Y1321815D01*
X1249049Y1229283D02*
X1259209Y1241982D01*
X1236349Y1241983D02*
X1259209Y1241982D01*
X1236349Y1241983D02*
X1249049Y1229283D01*
Y1257223D01*
X1172849Y1081474D02*
Y1109414D01*
X1185549Y1096714D01*
X1162689Y1096715D02*
X1185549Y1096714D01*
X1162689Y1096715D02*
X1172849Y1109414D01*
X677748Y385279D02*
Y417779D01*
X702748D01*
X677748Y445280D02*
X702748Y417779D01*
X652749D02*
X677748Y445280D01*
X652749Y417779D02*
X677748D01*
X712748Y425279D02*
X722748Y435279D01*
X705249D02*
X715249Y445279D01*
X793563Y430280D02*
X818563Y440279D01*
X793563Y430280D02*
X831063Y420280D01*
X793563Y410280D02*
X831063Y420280D01*
X793563Y410280D02*
X831063Y400280D01*
X813563Y395279D02*
X831063Y400280D01*
X805451Y782140D02*
Y794640D01*
Y744640D02*
Y757139D01*
X780451Y782140D02*
X830451D01*
X780451Y757139D02*
X830451D01*
X567041Y931824D02*
Y1231824D01*
X787041Y931824D02*
Y1231824D01*
X567041Y931824D02*
X787041D01*
X567041Y1231824D02*
X787041D01*
X825655Y1318260D02*
X838155D01*
X863155D02*
X875655D01*
X838155Y1293260D02*
Y1343260D01*
X863155Y1293260D02*
Y1343260D01*
X1185435Y477312D02*
X1190435Y459812D01*
X1200435Y497312D01*
X1210435Y459812D01*
X1220435Y497312D01*
X1230435Y472312D01*
D28*
X1610740Y174264D02*
X1560756D01*
Y149272D01*
X1569087Y140942D01*
X1585748D01*
X1594079Y149272D01*
Y174264D01*
Y157603D02*
X1610740Y140942D01*
X1569087Y90958D02*
X1560756Y99289D01*
Y115950D01*
X1569087Y124281D01*
X1577417D01*
X1585748Y115950D01*
Y99289D01*
X1594079Y90958D01*
X1602409D01*
X1610740Y99289D01*
Y115950D01*
X1602409Y124281D01*
X1560756Y74297D02*
Y40975D01*
Y57636D01*
X1610740D01*
X1569087Y425725D02*
X1560757Y417394D01*
Y400733D01*
X1569087Y392402D01*
X1577418D01*
X1585748Y400733D01*
Y409064D01*
Y400733D01*
X1594079Y392402D01*
X1602410D01*
X1610740Y400733D01*
Y417394D01*
X1602410Y425725D01*
X1577418Y375741D02*
X1610740Y359080D01*
X1577418Y342419D01*
X1569087Y325758D02*
X1560757Y317427D01*
Y300766D01*
X1569087Y292435D01*
X1577418D01*
X1585748Y300766D01*
Y309096D01*
Y300766D01*
X1594079Y292435D01*
X1602410D01*
X1610740Y300766D01*
Y317427D01*
X1602410Y325758D01*
X1818007Y645895D02*
X1809677Y654225D01*
Y670886D01*
X1818007Y679217D01*
X1851330D01*
X1859660Y670886D01*
Y654225D01*
X1851330Y645895D01*
X1834668D01*
Y662556D01*
X1859660Y629233D02*
X1809677D01*
X1859660Y595911D01*
X1809677D01*
Y579250D02*
X1859660D01*
Y554258D01*
X1851330Y545927D01*
X1818007D01*
X1809677Y554258D01*
Y579250D01*
X1610740Y679217D02*
X1560757D01*
Y654225D01*
X1569087Y645895D01*
X1585748D01*
X1594079Y654225D01*
Y679217D01*
X1569087Y595911D02*
X1560757Y604242D01*
Y620903D01*
X1569087Y629233D01*
X1602410D01*
X1610740Y620903D01*
Y604242D01*
X1602410Y595911D01*
X1585748D01*
Y612572D01*
X1610740Y579250D02*
X1560757D01*
X1577418Y562589D01*
X1560757Y545927D01*
X1610740D01*
X1818007Y140942D02*
X1809677Y149273D01*
Y165934D01*
X1818007Y174265D01*
X1851330D01*
X1859660Y165934D01*
Y149273D01*
X1851330Y140942D01*
X1834668D01*
Y157604D01*
X1859660Y124281D02*
X1809677D01*
X1859660Y90959D01*
X1809677D01*
Y74298D02*
X1859660D01*
Y49306D01*
X1851330Y40975D01*
X1818007D01*
X1809677Y49306D01*
Y74298D01*
X1818007Y392402D02*
X1809677Y400733D01*
Y417394D01*
X1818007Y425725D01*
X1851330D01*
X1859660Y417394D01*
Y400733D01*
X1851330Y392402D01*
X1834668D01*
Y409064D01*
X1859660Y375741D02*
X1809677D01*
X1859660Y342419D01*
X1809677D01*
Y325758D02*
X1859660D01*
Y300766D01*
X1851330Y292435D01*
X1818007D01*
X1809677Y300766D01*
Y325758D01*
X1213587Y1395384D02*
X1246909D01*
Y1370392D01*
X1230248D01*
X1246909D01*
Y1345400D01*
X1196925D02*
X1180264D01*
X1188595D01*
Y1395384D01*
X1196925Y1387054D01*
X705950Y1304806D02*
Y1263153D01*
X697619Y1254822D01*
X680958D01*
X672628Y1263153D01*
Y1304806D01*
X655966Y1254822D02*
X639305D01*
X647636D01*
Y1304806D01*
X655966Y1296475D01*
X869979Y216536D02*
Y266519D01*
X844987D01*
X836656Y258189D01*
Y241528D01*
X844987Y233197D01*
X869979D01*
X853318D02*
X836656Y216536D01*
X786673Y266519D02*
X819995D01*
Y241528D01*
X803334Y249858D01*
X795003D01*
X786673Y241528D01*
Y224866D01*
X795003Y216536D01*
X811664D01*
X819995Y224866D01*
X1252915Y354101D02*
Y404085D01*
X1227923D01*
X1219593Y395755D01*
Y379093D01*
X1227923Y370763D01*
X1252915D01*
X1236254D02*
X1219593Y354101D01*
X1177940D02*
Y404085D01*
X1202932Y379093D01*
X1169609D01*
X717597Y266713D02*
Y216729D01*
X692605D01*
X684274Y225060D01*
Y258382D01*
X692605Y266713D01*
X717597D01*
X642622Y216729D02*
Y266713D01*
X667613Y241721D01*
X634291D01*
X1070357Y1110878D02*
X1120340D01*
Y1085886D01*
X1112010Y1077556D01*
X1078687D01*
X1070357Y1085886D01*
Y1110878D01*
X1078687Y1060895D02*
X1070357Y1052564D01*
Y1035903D01*
X1078687Y1027572D01*
X1087018D01*
X1095349Y1035903D01*
Y1044233D01*
Y1035903D01*
X1103679Y1027572D01*
X1112010D01*
X1120340Y1035903D01*
Y1052564D01*
X1112010Y1060895D01*
X1302789Y1158363D02*
Y1108380D01*
X1277797D01*
X1269466Y1116710D01*
Y1150033D01*
X1277797Y1158363D01*
X1302789D01*
X1219482Y1108380D02*
X1252805D01*
X1219482Y1141702D01*
Y1150033D01*
X1227813Y1158363D01*
X1244474D01*
X1252805Y1150033D01*
X1121332Y1211951D02*
Y1161968D01*
X1096340D01*
X1088009Y1170298D01*
Y1203621D01*
X1096340Y1211951D01*
X1121332D01*
X1071348Y1161968D02*
X1054687D01*
X1063017D01*
Y1211951D01*
X1071348Y1203621D01*
X851333Y1429628D02*
X859664Y1437959D01*
X876325D01*
X884656Y1429628D01*
Y1396306D01*
X876325Y1387975D01*
X859664D01*
X851333Y1396306D01*
X801350Y1387975D02*
X834672D01*
X801350Y1421297D01*
Y1429628D01*
X809680Y1437959D01*
X826342D01*
X834672Y1429628D01*
X702748Y773801D02*
X711079Y782131D01*
X727740D01*
X736071Y773801D01*
Y740478D01*
X727740Y732148D01*
X711079D01*
X702748Y740478D01*
X686087Y732148D02*
X669426D01*
X677756D01*
Y782131D01*
X686087Y773801D01*
%TF.MD5,856e77329cb938b939a65acc0bdab916*%
M02*
