%TF.GenerationSoftware,Altium Limited,Altium Designer,20.1.8 (145)*%
G04 Layer_Color=65280*
%FSLAX45Y45*%
%MOMM*%
%TF.SameCoordinates,69C50D53-9BFA-4F85-B750-FB8D41B2BBF4*%
%TF.FilePolarity,Positive*%
%TF.FileFunction,Other,Dimensions*%
%TF.Part,Single*%
G01*
G75*
%TA.AperFunction,NonConductor*%
%ADD45C,0.10200*%
D45*
X1800000Y1717289D02*
X1900000Y1750622D01*
X1800000Y1783955D02*
X1900000Y1750622D01*
X0D02*
X100000Y1783955D01*
X0Y1750622D02*
X100000Y1717289D01*
X1058298Y1750622D02*
X1900000D01*
X0D02*
X800903D01*
X1900000Y1615280D02*
Y1760822D01*
X0Y1615280D02*
Y1760822D01*
X2053390Y1600000D02*
X2086723Y1500000D01*
X2020057D02*
X2053390Y1600000D01*
X2020057Y100000D02*
X2053390Y0D01*
X2086723Y100000D01*
X2053390Y908298D02*
Y1600000D01*
Y0D02*
Y650903D01*
X1915280Y1600000D02*
X2063590D01*
X1915280Y0D02*
X2063590D01*
X821302Y1715431D02*
X837964D01*
X829633D01*
Y1765414D01*
X821302Y1757084D01*
X862956Y1723761D02*
X871286Y1715431D01*
X887947D01*
X896278Y1723761D01*
Y1757084D01*
X887947Y1765414D01*
X871286D01*
X862956Y1757084D01*
Y1748753D01*
X871286Y1740422D01*
X896278D01*
X912939Y1715431D02*
Y1723761D01*
X921270D01*
Y1715431D01*
X912939D01*
X954592Y1757084D02*
X962923Y1765414D01*
X979584D01*
X987915Y1757084D01*
Y1723761D01*
X979584Y1715431D01*
X962923D01*
X954592Y1723761D01*
Y1757084D01*
X1004576D02*
X1012907Y1765414D01*
X1029568D01*
X1037899Y1757084D01*
Y1723761D01*
X1029568Y1715431D01*
X1012907D01*
X1004576Y1723761D01*
Y1757084D01*
X2088582Y671302D02*
Y687964D01*
Y679633D01*
X2038598D01*
X2046928Y671302D01*
X2038598Y746278D02*
X2046928Y729617D01*
X2063590Y712956D01*
X2080251D01*
X2088582Y721286D01*
Y737947D01*
X2080251Y746278D01*
X2071920D01*
X2063590Y737947D01*
Y712956D01*
X2088582Y762939D02*
X2080251D01*
Y771270D01*
X2088582D01*
Y762939D01*
X2046928Y804592D02*
X2038598Y812923D01*
Y829584D01*
X2046928Y837915D01*
X2080251D01*
X2088582Y829584D01*
Y812923D01*
X2080251Y804592D01*
X2046928D01*
Y854576D02*
X2038598Y862907D01*
Y879568D01*
X2046928Y887899D01*
X2080251D01*
X2088582Y879568D01*
Y862907D01*
X2080251Y854576D01*
X2046928D01*
%TF.MD5,12fa66e875636708e46adbe913b88510*%
M02*
