%TF.GenerationSoftware,Altium Limited,Altium Designer,20.1.8 (145)*%
G04 Layer_Color=65535*
%FSLAX44Y44*%
%MOMM*%
%TF.SameCoordinates,E54140C2-77ED-4701-9F9C-26571285D32F*%
%TF.FilePolarity,Positive*%
%TF.FileFunction,Legend,Top*%
%TF.Part,Single*%
G01*
G75*
%TA.AperFunction,NonConductor*%
%ADD30C,0.1000*%
%ADD31C,0.1016*%
%ADD40C,0.2500*%
%ADD41C,0.2032*%
D30*
X10054598Y10105572D02*
G03*
X10054598Y10105572I-500J0D01*
G01*
X10096548Y10051772D02*
G03*
X10096548Y10051772I-500J0D01*
G01*
X10104025Y10044567D02*
G03*
X10104025Y10044567I-500J0D01*
G01*
D31*
X10172994Y10035776D02*
Y10093676D01*
X10165894Y10028676D02*
X10172994Y10035776D01*
X10136494Y10028676D02*
X10165894D01*
X10136494D02*
Y10093676D01*
X10172994D01*
X10061665Y10123683D02*
X10066665D01*
X10061665Y10121183D02*
X10066665D01*
X10064165Y10123683D02*
Y10124933D01*
Y10119933D02*
Y10121183D01*
X10116685Y10109404D02*
X10121685D01*
X10116685Y10111904D02*
X10121685D01*
X10119185Y10108154D02*
Y10109404D01*
Y10111904D02*
Y10113154D01*
X10086876Y10100183D02*
Y10130183D01*
X10094877Y10100183D02*
Y10130183D01*
X10086876Y10100183D02*
X10094877D01*
X10086876Y10130183D02*
X10094877D01*
X10090839Y10014221D02*
X10095839D01*
X10090839Y10016721D02*
X10095839D01*
X10093339Y10012971D02*
Y10014221D01*
Y10016721D02*
Y10017971D01*
X10105106Y10014471D02*
X10107606Y10013471D01*
X10105106Y10014471D02*
X10108856Y10015471D01*
X10105106Y10016471D02*
X10108856Y10015471D01*
X10105106Y10016471D02*
X10108856Y10017471D01*
X10107106Y10017971D02*
X10108856Y10017471D01*
X10205812Y10051465D02*
Y10056465D01*
X10203312Y10051465D02*
Y10056465D01*
X10205812Y10053965D02*
X10207062D01*
X10202062D02*
X10203312D01*
X10058324Y10101834D02*
X10061118D01*
X10058324D02*
X10059594Y10100564D01*
X10059594Y10102850D02*
X10059594Y10100564D01*
X10058324Y10101834D02*
X10059594Y10102850D01*
X10201805Y10118602D02*
Y10119852D01*
Y10114852D02*
Y10116102D01*
X10199305Y10118602D02*
X10204305D01*
X10199305Y10116102D02*
X10204305D01*
X10203312Y10031966D02*
Y10036966D01*
X10205812Y10031966D02*
Y10036966D01*
X10202062Y10034466D02*
X10203312D01*
X10205812D02*
X10207062D01*
X10202062Y10019346D02*
X10202562Y10021096D01*
X10203561Y10017346D01*
X10204562Y10021096D01*
X10205562Y10017346D01*
X10206562Y10019846D01*
X10201805Y10145026D02*
X10203555Y10144526D01*
X10199805Y10143526D02*
X10203555Y10144526D01*
X10199805Y10143526D02*
X10203555Y10142526D01*
X10199805Y10141526D02*
X10203555Y10142526D01*
X10199805Y10141526D02*
X10202305Y10140526D01*
X10097957Y10142398D02*
X10098456Y10144148D01*
X10096957Y10146148D02*
X10097957Y10142398D01*
X10095956D02*
X10096957Y10146148D01*
X10094957D02*
X10095956Y10142398D01*
X10093957Y10143648D02*
X10094957Y10146148D01*
X10099787Y10055998D02*
Y10058792D01*
Y10055998D02*
X10101057Y10057268D01*
X10098771D02*
X10101057D01*
X10098771D02*
X10099787Y10055998D01*
Y10040341D02*
X10100803Y10039070D01*
X10098517Y10039070D02*
X10100803Y10039070D01*
X10098517Y10039070D02*
X10099787Y10040341D01*
Y10037546D02*
Y10040341D01*
D40*
X10173834Y10029747D02*
G03*
X10173834Y10029747I-1250J0D01*
G01*
D41*
X10151902Y10143438D02*
X10150236Y10145104D01*
X10146904D01*
X10145237Y10143438D01*
Y10136774D01*
X10146904Y10135107D01*
X10150236D01*
X10151902Y10136774D01*
Y10140106D01*
X10148570D01*
X10177369Y10143314D02*
X10175703Y10144980D01*
X10172371D01*
X10170705Y10143314D01*
Y10136649D01*
X10172371Y10134983D01*
X10175703D01*
X10177369Y10136649D01*
Y10139981D01*
X10174037D01*
X10120148Y10145104D02*
Y10135107D01*
X10125146D01*
X10126813Y10136774D01*
Y10143438D01*
X10125146Y10145104D01*
X10120148D01*
X10155659Y10124805D02*
X10153992Y10126470D01*
X10150660D01*
X10148994Y10124805D01*
Y10118140D01*
X10150660Y10116474D01*
X10153992D01*
X10155659Y10118140D01*
X10173137Y10116584D02*
Y10126581D01*
X10178135D01*
X10179801Y10124915D01*
Y10121583D01*
X10178135Y10119916D01*
X10173137D01*
X10176469D02*
X10179801Y10116584D01*
X10125440Y10126281D02*
Y10119616D01*
X10128772Y10116284D01*
X10132104Y10119616D01*
Y10126281D01*
%TF.MD5,65c6cffd69569852907583766633c50c*%
M02*
