%TF.GenerationSoftware,Altium Limited,Altium Designer,20.1.8 (145)*%
G04 Layer_Physical_Order=2*
G04 Layer_Color=16729670*
%FSLAX44Y44*%
%MOMM*%
%TF.SameCoordinates,E54140C2-77ED-4701-9F9C-26571285D32F*%
%TF.FilePolarity,Positive*%
%TF.FileFunction,Copper,L2,Bot,Signal*%
%TF.Part,Single*%
G01*
G75*
%TA.AperFunction,Conductor*%
%ADD20C,0.1270*%
%ADD21C,0.1524*%
%TA.AperFunction,ComponentPad*%
%ADD22O,2.0000X1.5000*%
G04:AMPARAMS|DCode=23|XSize=1.75mm|YSize=3.25mm|CornerRadius=0.875mm|HoleSize=0mm|Usage=FLASHONLY|Rotation=180.000|XOffset=0mm|YOffset=0mm|HoleType=Round|Shape=RoundedRectangle|*
%AMROUNDEDRECTD23*
21,1,1.7500,1.5000,0,0,180.0*
21,1,0.0000,3.2500,0,0,180.0*
1,1,1.7500,0.0000,0.7500*
1,1,1.7500,0.0000,0.7500*
1,1,1.7500,0.0000,-0.7500*
1,1,1.7500,0.0000,-0.7500*
%
%ADD23ROUNDEDRECTD23*%
%ADD24O,1.7500X3.2500*%
%ADD25O,1.7500X1.0000*%
G04:AMPARAMS|DCode=26|XSize=1.1mm|YSize=1.5mm|CornerRadius=0.55mm|HoleSize=0mm|Usage=FLASHONLY|Rotation=0.000|XOffset=0mm|YOffset=0mm|HoleType=Round|Shape=RoundedRectangle|*
%AMROUNDEDRECTD26*
21,1,1.1000,0.4000,0,0,0.0*
21,1,0.0000,1.5000,0,0,0.0*
1,1,1.1000,0.0000,-0.2000*
1,1,1.1000,0.0000,-0.2000*
1,1,1.1000,0.0000,0.2000*
1,1,1.1000,0.0000,0.2000*
%
%ADD26ROUNDEDRECTD26*%
%TA.AperFunction,ViaPad*%
%ADD27C,0.8000*%
%ADD28C,0.8000*%
%TA.AperFunction,SMDPad,CuDef*%
G04:AMPARAMS|DCode=29|XSize=0.9mm|YSize=0.7mm|CornerRadius=0.0035mm|HoleSize=0mm|Usage=FLASHONLY|Rotation=90.000|XOffset=0mm|YOffset=0mm|HoleType=Round|Shape=RoundedRectangle|*
%AMROUNDEDRECTD29*
21,1,0.9000,0.6930,0,0,90.0*
21,1,0.8930,0.7000,0,0,90.0*
1,1,0.0070,0.3465,0.4465*
1,1,0.0070,0.3465,-0.4465*
1,1,0.0070,-0.3465,-0.4465*
1,1,0.0070,-0.3465,0.4465*
%
%ADD29ROUNDEDRECTD29*%
G36*
X10218187Y10001813D02*
X10183469D01*
X10182919Y10003337D01*
X10184066Y10005054D01*
X10184553Y10007500D01*
X10184066Y10009946D01*
X10182681Y10012020D01*
X10180607Y10013406D01*
X10178160Y10013893D01*
X10170660D01*
X10168214Y10013406D01*
X10166140Y10012020D01*
X10164754Y10009946D01*
X10164267Y10007500D01*
X10164754Y10005054D01*
X10165901Y10003337D01*
X10165352Y10001813D01*
X10133469D01*
X10132919Y10003337D01*
X10134066Y10005054D01*
X10134553Y10007500D01*
X10134066Y10009946D01*
X10132681Y10012020D01*
X10130607Y10013406D01*
X10128160Y10013893D01*
X10120660D01*
X10118214Y10013406D01*
X10116140Y10012020D01*
X10114754Y10009946D01*
X10114267Y10007500D01*
X10114754Y10005054D01*
X10115901Y10003337D01*
X10115352Y10001813D01*
X10031813D01*
Y10017753D01*
X10032456Y10017971D01*
X10033337Y10018138D01*
X10035051Y10016824D01*
X10037184Y10015940D01*
X10039473Y10015638D01*
X10044473D01*
X10046763Y10015940D01*
X10048896Y10016824D01*
X10050728Y10018229D01*
X10052134Y10020062D01*
X10053018Y10022195D01*
X10053319Y10024484D01*
X10053018Y10026774D01*
X10052134Y10028907D01*
X10050728Y10030739D01*
X10048896Y10032145D01*
X10046763Y10033029D01*
X10044473Y10033330D01*
X10039473D01*
X10037184Y10033029D01*
X10035051Y10032145D01*
X10033337Y10030830D01*
X10032456Y10030998D01*
X10031813Y10031216D01*
Y10074352D01*
X10032456Y10074571D01*
X10033337Y10074739D01*
X10035051Y10073423D01*
X10037184Y10072540D01*
X10039473Y10072239D01*
X10044473D01*
X10046763Y10072540D01*
X10048896Y10073423D01*
X10050728Y10074830D01*
X10052134Y10076661D01*
X10053018Y10078795D01*
X10053319Y10081085D01*
X10053018Y10083373D01*
X10052134Y10085507D01*
X10050728Y10087339D01*
X10048896Y10088745D01*
X10046763Y10089628D01*
X10044473Y10089930D01*
X10039473D01*
X10037184Y10089628D01*
X10035051Y10088745D01*
X10033337Y10087430D01*
X10032456Y10087598D01*
X10031813Y10087816D01*
Y10158187D01*
X10165352Y10158187D01*
X10165901Y10156663D01*
X10164754Y10154946D01*
X10164267Y10152500D01*
X10164754Y10150054D01*
X10166140Y10147980D01*
X10168214Y10146594D01*
X10170660Y10146107D01*
X10178160D01*
X10180607Y10146594D01*
X10182681Y10147980D01*
X10184066Y10150054D01*
X10184553Y10152500D01*
X10184066Y10154946D01*
X10182919Y10156663D01*
X10183469Y10158187D01*
X10218187D01*
Y10001813D01*
D02*
G37*
%LPC*%
G36*
X10134987Y10143904D02*
X10133219Y10143671D01*
X10131572Y10142989D01*
X10130158Y10141904D01*
X10129073Y10140490D01*
X10128391Y10138843D01*
X10128158Y10137075D01*
Y10133076D01*
X10128391Y10131308D01*
X10129073Y10129661D01*
X10130158Y10128247D01*
X10131572Y10127162D01*
X10133219Y10126479D01*
X10134987Y10126247D01*
X10136754Y10126479D01*
X10138401Y10127162D01*
X10139815Y10128247D01*
X10140900Y10129661D01*
X10141582Y10131308D01*
X10141815Y10133076D01*
Y10137075D01*
X10141582Y10138843D01*
X10140900Y10140490D01*
X10139815Y10141904D01*
X10138401Y10142989D01*
X10136754Y10143671D01*
X10134987Y10143904D01*
D02*
G37*
G36*
X10054046Y10144557D02*
X10051990Y10144148D01*
X10050247Y10142983D01*
X10049081Y10141240D01*
X10048672Y10139183D01*
X10049081Y10137128D01*
X10050247Y10135384D01*
X10051990Y10134219D01*
X10054046Y10133810D01*
X10055321Y10134064D01*
X10056696Y10132959D01*
X10056720Y10132907D01*
Y10121600D01*
X10056212Y10121390D01*
X10055798Y10120391D01*
Y10111461D01*
X10056212Y10110462D01*
X10057211Y10110048D01*
X10064141D01*
X10065140Y10110462D01*
X10065554Y10111461D01*
Y10120391D01*
X10065140Y10121390D01*
X10064141Y10121804D01*
X10060605D01*
Y10134567D01*
X10060457Y10135310D01*
X10060036Y10135941D01*
X10058945Y10137031D01*
X10059010Y10137128D01*
X10059419Y10139183D01*
X10059010Y10141240D01*
X10057845Y10142983D01*
X10056102Y10144148D01*
X10054046Y10144557D01*
D02*
G37*
G36*
X10044176Y10135909D02*
X10042120Y10135500D01*
X10040377Y10134335D01*
X10039212Y10132592D01*
X10038803Y10130536D01*
X10039212Y10128480D01*
X10040377Y10126736D01*
X10042120Y10125572D01*
X10042234Y10125549D01*
Y10121804D01*
X10040711D01*
X10039712Y10121390D01*
X10039299Y10120391D01*
Y10111461D01*
X10039712Y10110462D01*
X10040711Y10110048D01*
X10047641D01*
X10048640Y10110462D01*
X10049053Y10111461D01*
Y10120391D01*
X10048640Y10121390D01*
X10047641Y10121804D01*
X10046118D01*
Y10125549D01*
X10046232Y10125572D01*
X10047975Y10126736D01*
X10049140Y10128480D01*
X10049549Y10130536D01*
X10049140Y10132592D01*
X10047975Y10134335D01*
X10046232Y10135500D01*
X10044176Y10135909D01*
D02*
G37*
G36*
X10185787Y10118504D02*
X10184019Y10118271D01*
X10182372Y10117589D01*
X10180958Y10116504D01*
X10179873Y10115090D01*
X10179191Y10113443D01*
X10178958Y10111675D01*
Y10107676D01*
X10179191Y10105908D01*
X10179873Y10104261D01*
X10180958Y10102847D01*
X10182372Y10101762D01*
X10184019Y10101080D01*
X10185787Y10100847D01*
X10187554Y10101080D01*
X10189201Y10101762D01*
X10190615Y10102847D01*
X10191700Y10104261D01*
X10192382Y10105908D01*
X10192615Y10107676D01*
Y10111675D01*
X10192382Y10113443D01*
X10191700Y10115090D01*
X10190615Y10116504D01*
X10189201Y10117589D01*
X10187554Y10118271D01*
X10185787Y10118504D01*
D02*
G37*
G36*
X10160386D02*
X10158619Y10118271D01*
X10156972Y10117589D01*
X10155558Y10116504D01*
X10154473Y10115090D01*
X10153791Y10113443D01*
X10153558Y10111675D01*
Y10107676D01*
X10153791Y10105908D01*
X10154473Y10104261D01*
X10155558Y10102847D01*
X10156972Y10101762D01*
X10158619Y10101080D01*
X10160386Y10100847D01*
X10162154Y10101080D01*
X10163801Y10101762D01*
X10165215Y10102847D01*
X10166300Y10104261D01*
X10166982Y10105908D01*
X10167215Y10107676D01*
Y10111675D01*
X10166982Y10113443D01*
X10166300Y10115090D01*
X10165215Y10116504D01*
X10163801Y10117589D01*
X10162154Y10118271D01*
X10160386Y10118504D01*
D02*
G37*
G36*
X10134987D02*
X10133219Y10118271D01*
X10131572Y10117589D01*
X10130158Y10116504D01*
X10129073Y10115090D01*
X10128391Y10113443D01*
X10128158Y10111675D01*
Y10107676D01*
X10128391Y10105908D01*
X10129073Y10104261D01*
X10130158Y10102847D01*
X10131572Y10101762D01*
X10132915Y10101206D01*
Y10098502D01*
X10132914Y10098502D01*
X10133073Y10097709D01*
X10133522Y10097036D01*
X10138073Y10092485D01*
X10138073Y10092485D01*
X10138745Y10092036D01*
X10139538Y10091878D01*
X10139538Y10091878D01*
X10143727D01*
X10144881Y10090150D01*
X10146624Y10088986D01*
X10148680Y10088577D01*
X10150737Y10088986D01*
X10152480Y10090150D01*
X10153644Y10091893D01*
X10154054Y10093950D01*
X10153644Y10096006D01*
X10152480Y10097749D01*
X10150737Y10098914D01*
X10148680Y10099323D01*
X10146624Y10098914D01*
X10144881Y10097749D01*
X10143727Y10096022D01*
X10140396D01*
X10137058Y10099360D01*
Y10101206D01*
X10138401Y10101762D01*
X10139815Y10102847D01*
X10140900Y10104261D01*
X10141582Y10105908D01*
X10141815Y10107676D01*
Y10111675D01*
X10141582Y10113443D01*
X10140900Y10115090D01*
X10139815Y10116504D01*
X10138401Y10117589D01*
X10136754Y10118271D01*
X10134987Y10118504D01*
D02*
G37*
G36*
X10065473Y10076628D02*
X10064002Y10076335D01*
X10062755Y10075502D01*
X10061922Y10074255D01*
X10061630Y10072784D01*
X10061922Y10071313D01*
X10062755Y10070067D01*
X10064002Y10069233D01*
X10065473Y10068940D01*
X10066945Y10069233D01*
X10068192Y10070067D01*
X10069025Y10071313D01*
X10069317Y10072784D01*
X10069025Y10074255D01*
X10068192Y10075502D01*
X10066945Y10076335D01*
X10065473Y10076628D01*
D02*
G37*
G36*
X10169336Y10063299D02*
X10167280Y10062890D01*
X10165536Y10061725D01*
X10164382Y10059998D01*
X10153634D01*
X10152480Y10061725D01*
X10150737Y10062890D01*
X10148680Y10063299D01*
X10146624Y10062890D01*
X10144881Y10061725D01*
X10143716Y10059982D01*
X10143307Y10057926D01*
X10143716Y10055870D01*
X10144881Y10054127D01*
X10146624Y10052961D01*
X10148680Y10052552D01*
X10150737Y10052961D01*
X10152480Y10054127D01*
X10153634Y10055854D01*
X10164382D01*
X10165536Y10054127D01*
X10167280Y10052961D01*
X10169336Y10052552D01*
X10171392Y10052961D01*
X10173135Y10054127D01*
X10174300Y10055870D01*
X10174709Y10057926D01*
X10174300Y10059982D01*
X10173135Y10061725D01*
X10171392Y10062890D01*
X10169336Y10063299D01*
D02*
G37*
G36*
X10065473Y10036628D02*
X10064002Y10036335D01*
X10062755Y10035502D01*
X10061922Y10034255D01*
X10061630Y10032784D01*
X10061922Y10031313D01*
X10062755Y10030067D01*
X10064002Y10029233D01*
X10065473Y10028940D01*
X10066945Y10029233D01*
X10068192Y10030067D01*
X10069025Y10031313D01*
X10069317Y10032784D01*
X10069025Y10034255D01*
X10068192Y10035502D01*
X10066945Y10036335D01*
X10065473Y10036628D01*
D02*
G37*
%LPD*%
D20*
X10054046Y10139183D02*
X10058663Y10134567D01*
Y10117939D02*
X10060676Y10115926D01*
X10058663Y10117939D02*
Y10134567D01*
X10044176Y10115926D02*
Y10130536D01*
D21*
X10134987Y10098502D02*
X10139538Y10093950D01*
X10148680D02*
X10148680Y10093950D01*
X10139538Y10093950D02*
X10148680D01*
X10134987Y10098502D02*
Y10109675D01*
X10134987Y10109675D02*
X10134987Y10109675D01*
X10148680Y10057926D02*
X10169336D01*
D22*
X10041973Y10081085D02*
D03*
Y10024484D02*
D03*
D23*
X10209410Y10082500D02*
D03*
D24*
X10089410D02*
D03*
D25*
X10124410Y10152500D02*
D03*
X10174410D02*
D03*
X10149410Y10007500D02*
D03*
X10124410D02*
D03*
X10174410D02*
D03*
D26*
X10185787Y10109675D02*
D03*
X10160386D02*
D03*
X10134987D02*
D03*
X10185787Y10135076D02*
D03*
X10134987D02*
D03*
X10160386D02*
D03*
D27*
X10054046Y10139183D02*
D03*
X10044176Y10130536D02*
D03*
X10148680Y10093950D02*
D03*
X10169336Y10057926D02*
D03*
X10148680D02*
D03*
D28*
X10084329Y10129683D02*
D03*
X10111495Y10069142D02*
D03*
X10073967Y10129683D02*
D03*
X10072223Y10101834D02*
D03*
X10090976Y10035594D02*
D03*
X10083662Y10031403D02*
D03*
Y10039785D02*
D03*
X10036048Y10045954D02*
D03*
Y10037572D02*
D03*
Y10054336D02*
D03*
X10052812D02*
D03*
X10044430D02*
D03*
X10052812Y10045954D02*
D03*
Y10037572D02*
D03*
X10044430D02*
D03*
X10091171Y10050853D02*
D03*
X10044430Y10045954D02*
D03*
X10111495Y10059775D02*
D03*
X10137552Y10064426D02*
D03*
D29*
X10060676Y10115926D02*
D03*
X10044176D02*
D03*
%TF.MD5,da832b776af146ecfdfd30c52e147f23*%
M02*
