%TF.GenerationSoftware,Altium Limited,Altium Designer,20.1.8 (145)*%
G04 Layer_Physical_Order=1*
G04 Layer_Color=255*
%FSLAX44Y44*%
%MOMM*%
%TF.SameCoordinates,E54140C2-77ED-4701-9F9C-26571285D32F*%
%TF.FilePolarity,Positive*%
%TF.FileFunction,Copper,L1,Top,Signal*%
%TF.Part,Single*%
G01*
G75*
%TA.AperFunction,SMDPad,CuDef*%
G04:AMPARAMS|DCode=10|XSize=0.35mm|YSize=1.15mm|CornerRadius=0.0875mm|HoleSize=0mm|Usage=FLASHONLY|Rotation=270.000|XOffset=0mm|YOffset=0mm|HoleType=Round|Shape=RoundedRectangle|*
%AMROUNDEDRECTD10*
21,1,0.3500,0.9750,0,0,270.0*
21,1,0.1750,1.1500,0,0,270.0*
1,1,0.1750,-0.4875,-0.0875*
1,1,0.1750,-0.4875,0.0875*
1,1,0.1750,0.4875,0.0875*
1,1,0.1750,0.4875,-0.0875*
%
%ADD10ROUNDEDRECTD10*%
G04:AMPARAMS|DCode=11|XSize=0.35mm|YSize=2mm|CornerRadius=0.0018mm|HoleSize=0mm|Usage=FLASHONLY|Rotation=270.000|XOffset=0mm|YOffset=0mm|HoleType=Round|Shape=RoundedRectangle|*
%AMROUNDEDRECTD11*
21,1,0.3500,1.9965,0,0,270.0*
21,1,0.3465,2.0000,0,0,270.0*
1,1,0.0035,-0.9983,-0.1733*
1,1,0.0035,-0.9983,0.1733*
1,1,0.0035,0.9983,0.1733*
1,1,0.0035,0.9983,-0.1733*
%
%ADD11ROUNDEDRECTD11*%
G04:AMPARAMS|DCode=12|XSize=2.1mm|YSize=1.6mm|CornerRadius=0.008mm|HoleSize=0mm|Usage=FLASHONLY|Rotation=270.000|XOffset=0mm|YOffset=0mm|HoleType=Round|Shape=RoundedRectangle|*
%AMROUNDEDRECTD12*
21,1,2.1000,1.5840,0,0,270.0*
21,1,2.0840,1.6000,0,0,270.0*
1,1,0.0160,-0.7920,-1.0420*
1,1,0.0160,-0.7920,1.0420*
1,1,0.0160,0.7920,1.0420*
1,1,0.0160,0.7920,-1.0420*
%
%ADD12ROUNDEDRECTD12*%
G04:AMPARAMS|DCode=13|XSize=0.85mm|YSize=0.65mm|CornerRadius=0.0033mm|HoleSize=0mm|Usage=FLASHONLY|Rotation=0.000|XOffset=0mm|YOffset=0mm|HoleType=Round|Shape=RoundedRectangle|*
%AMROUNDEDRECTD13*
21,1,0.8500,0.6435,0,0,0.0*
21,1,0.8435,0.6500,0,0,0.0*
1,1,0.0065,0.4218,-0.3218*
1,1,0.0065,-0.4218,-0.3218*
1,1,0.0065,-0.4218,0.3218*
1,1,0.0065,0.4218,0.3218*
%
%ADD13ROUNDEDRECTD13*%
G04:AMPARAMS|DCode=14|XSize=0.6mm|YSize=1mm|CornerRadius=0.003mm|HoleSize=0mm|Usage=FLASHONLY|Rotation=270.000|XOffset=0mm|YOffset=0mm|HoleType=Round|Shape=RoundedRectangle|*
%AMROUNDEDRECTD14*
21,1,0.6000,0.9940,0,0,270.0*
21,1,0.5940,1.0000,0,0,270.0*
1,1,0.0060,-0.4970,-0.2970*
1,1,0.0060,-0.4970,0.2970*
1,1,0.0060,0.4970,0.2970*
1,1,0.0060,0.4970,-0.2970*
%
%ADD14ROUNDEDRECTD14*%
G04:AMPARAMS|DCode=15|XSize=0.8mm|YSize=0.7mm|CornerRadius=0.0035mm|HoleSize=0mm|Usage=FLASHONLY|Rotation=180.000|XOffset=0mm|YOffset=0mm|HoleType=Round|Shape=RoundedRectangle|*
%AMROUNDEDRECTD15*
21,1,0.8000,0.6930,0,0,180.0*
21,1,0.7930,0.7000,0,0,180.0*
1,1,0.0070,-0.3965,0.3465*
1,1,0.0070,0.3965,0.3465*
1,1,0.0070,0.3965,-0.3465*
1,1,0.0070,-0.3965,-0.3465*
%
%ADD15ROUNDEDRECTD15*%
G04:AMPARAMS|DCode=16|XSize=0.85mm|YSize=0.65mm|CornerRadius=0.0033mm|HoleSize=0mm|Usage=FLASHONLY|Rotation=270.000|XOffset=0mm|YOffset=0mm|HoleType=Round|Shape=RoundedRectangle|*
%AMROUNDEDRECTD16*
21,1,0.8500,0.6435,0,0,270.0*
21,1,0.8435,0.6500,0,0,270.0*
1,1,0.0065,-0.3218,-0.4218*
1,1,0.0065,-0.3218,0.4218*
1,1,0.0065,0.3218,0.4218*
1,1,0.0065,0.3218,-0.4218*
%
%ADD16ROUNDEDRECTD16*%
G04:AMPARAMS|DCode=17|XSize=0.3mm|YSize=0.4mm|CornerRadius=0.0015mm|HoleSize=0mm|Usage=FLASHONLY|Rotation=90.000|XOffset=0mm|YOffset=0mm|HoleType=Round|Shape=RoundedRectangle|*
%AMROUNDEDRECTD17*
21,1,0.3000,0.3970,0,0,90.0*
21,1,0.2970,0.4000,0,0,90.0*
1,1,0.0030,0.1985,0.1485*
1,1,0.0030,0.1985,-0.1485*
1,1,0.0030,-0.1985,-0.1485*
1,1,0.0030,-0.1985,0.1485*
%
%ADD17ROUNDEDRECTD17*%
G04:AMPARAMS|DCode=18|XSize=0.8mm|YSize=0.7mm|CornerRadius=0.0035mm|HoleSize=0mm|Usage=FLASHONLY|Rotation=270.000|XOffset=0mm|YOffset=0mm|HoleType=Round|Shape=RoundedRectangle|*
%AMROUNDEDRECTD18*
21,1,0.8000,0.6930,0,0,270.0*
21,1,0.7930,0.7000,0,0,270.0*
1,1,0.0070,-0.3465,-0.3965*
1,1,0.0070,-0.3465,0.3965*
1,1,0.0070,0.3465,0.3965*
1,1,0.0070,0.3465,-0.3965*
%
%ADD18ROUNDEDRECTD18*%
G04:AMPARAMS|DCode=19|XSize=0.3mm|YSize=0.4mm|CornerRadius=0.0015mm|HoleSize=0mm|Usage=FLASHONLY|Rotation=180.000|XOffset=0mm|YOffset=0mm|HoleType=Round|Shape=RoundedRectangle|*
%AMROUNDEDRECTD19*
21,1,0.3000,0.3970,0,0,180.0*
21,1,0.2970,0.4000,0,0,180.0*
1,1,0.0030,-0.1485,0.1985*
1,1,0.0030,0.1485,0.1985*
1,1,0.0030,0.1485,-0.1985*
1,1,0.0030,-0.1485,-0.1985*
%
%ADD19ROUNDEDRECTD19*%
%TA.AperFunction,Conductor*%
%ADD20C,0.1270*%
%ADD21C,0.1524*%
%TA.AperFunction,ComponentPad*%
%ADD22O,2.0000X1.5000*%
G04:AMPARAMS|DCode=23|XSize=1.75mm|YSize=3.25mm|CornerRadius=0.875mm|HoleSize=0mm|Usage=FLASHONLY|Rotation=180.000|XOffset=0mm|YOffset=0mm|HoleType=Round|Shape=RoundedRectangle|*
%AMROUNDEDRECTD23*
21,1,1.7500,1.5000,0,0,180.0*
21,1,0.0000,3.2500,0,0,180.0*
1,1,1.7500,0.0000,0.7500*
1,1,1.7500,0.0000,0.7500*
1,1,1.7500,0.0000,-0.7500*
1,1,1.7500,0.0000,-0.7500*
%
%ADD23ROUNDEDRECTD23*%
%ADD24O,1.7500X3.2500*%
%ADD25O,1.7500X1.0000*%
G04:AMPARAMS|DCode=26|XSize=1.1mm|YSize=1.5mm|CornerRadius=0.55mm|HoleSize=0mm|Usage=FLASHONLY|Rotation=0.000|XOffset=0mm|YOffset=0mm|HoleType=Round|Shape=RoundedRectangle|*
%AMROUNDEDRECTD26*
21,1,1.1000,0.4000,0,0,0.0*
21,1,0.0000,1.5000,0,0,0.0*
1,1,1.1000,0.0000,-0.2000*
1,1,1.1000,0.0000,-0.2000*
1,1,1.1000,0.0000,0.2000*
1,1,1.1000,0.0000,0.2000*
%
%ADD26ROUNDEDRECTD26*%
%TA.AperFunction,ViaPad*%
%ADD27C,0.8000*%
%ADD28C,0.8000*%
G36*
X10218187Y10001813D02*
X10183680D01*
X10183004Y10003464D01*
X10184066Y10005054D01*
X10184166Y10005558D01*
X10201332D01*
X10202076Y10005706D01*
X10202706Y10006127D01*
X10209855Y10013276D01*
X10209855Y10013276D01*
X10210276Y10013906D01*
X10210289Y10013969D01*
X10214777D01*
X10215775Y10014382D01*
X10216189Y10015381D01*
Y10023311D01*
X10215775Y10024310D01*
X10214777Y10024724D01*
X10207847D01*
X10206848Y10024310D01*
X10206434Y10023311D01*
Y10015381D01*
X10206443Y10015358D01*
X10200528Y10009442D01*
X10184166D01*
X10184066Y10009946D01*
X10182681Y10012020D01*
X10180607Y10013406D01*
X10178160Y10013893D01*
X10170660D01*
X10168214Y10013406D01*
X10166140Y10012020D01*
X10164754Y10009946D01*
X10164267Y10007500D01*
X10164754Y10005054D01*
X10165816Y10003464D01*
X10165140Y10001813D01*
X10133680D01*
X10133004Y10003464D01*
X10134066Y10005054D01*
X10134553Y10007500D01*
X10134066Y10009946D01*
X10132681Y10012020D01*
X10130607Y10013406D01*
X10128160Y10013893D01*
X10120660D01*
X10118214Y10013406D01*
X10116140Y10012020D01*
X10114754Y10009946D01*
X10114653Y10009442D01*
X10112484D01*
Y10012186D01*
X10112070Y10013184D01*
X10111071Y10013598D01*
X10103141D01*
X10102142Y10013184D01*
X10101729Y10012186D01*
Y10005256D01*
X10102142Y10004257D01*
X10103141Y10003843D01*
X10111071D01*
X10112070Y10004257D01*
X10112484Y10005256D01*
Y10005558D01*
X10114653D01*
X10114754Y10005054D01*
X10115816Y10003464D01*
X10115140Y10001813D01*
X10031813D01*
Y10017614D01*
X10033464Y10018041D01*
X10035051Y10016824D01*
X10037184Y10015940D01*
X10039473Y10015638D01*
X10044473D01*
X10046763Y10015940D01*
X10048896Y10016824D01*
X10050728Y10018229D01*
X10052134Y10020062D01*
X10053018Y10022195D01*
X10053319Y10024484D01*
X10053018Y10026774D01*
X10052134Y10028907D01*
X10050728Y10030739D01*
X10048896Y10032145D01*
X10046763Y10033029D01*
X10044473Y10033330D01*
X10039473D01*
X10037184Y10033029D01*
X10035051Y10032145D01*
X10033464Y10030928D01*
X10031813Y10031356D01*
Y10074213D01*
X10033464Y10074641D01*
X10035051Y10073423D01*
X10037184Y10072540D01*
X10039473Y10072239D01*
X10044473D01*
X10046763Y10072540D01*
X10048896Y10073423D01*
X10050283Y10074487D01*
X10051934Y10073867D01*
Y10070246D01*
X10051934Y10070246D01*
X10052091Y10069453D01*
X10052540Y10068781D01*
X10056014Y10065308D01*
X10056014Y10065307D01*
X10056686Y10064858D01*
X10057097Y10064777D01*
Y10064052D01*
X10057505Y10063066D01*
Y10062002D01*
X10057097Y10061017D01*
Y10057552D01*
X10057314Y10057028D01*
X10057264Y10055732D01*
X10057064Y10055042D01*
X10056847Y10054517D01*
Y10051052D01*
X10057255Y10050067D01*
Y10049002D01*
X10056847Y10048017D01*
Y10044552D01*
X10057255Y10043566D01*
X10058241Y10043158D01*
X10078206D01*
X10079191Y10043566D01*
X10079599Y10044552D01*
Y10047117D01*
X10081250Y10047801D01*
X10085499Y10043552D01*
X10085499Y10043552D01*
X10086129Y10043131D01*
X10086873Y10042983D01*
X10086873Y10042983D01*
X10096911D01*
Y10041581D01*
X10097318Y10040598D01*
X10098302Y10040190D01*
X10101271D01*
X10102255Y10040598D01*
X10102662Y10041581D01*
Y10042983D01*
X10119003D01*
X10119186Y10042708D01*
X10119323Y10042485D01*
Y10040867D01*
X10119186Y10040643D01*
X10118848Y10040138D01*
X10118682Y10039301D01*
Y10037551D01*
X10118848Y10036714D01*
X10119241Y10036127D01*
X10119323Y10035992D01*
Y10034360D01*
X10119241Y10034225D01*
X10118848Y10033638D01*
X10118682Y10032801D01*
Y10031051D01*
X10118848Y10030214D01*
X10119323Y10029504D01*
X10120032Y10029030D01*
X10120869Y10028864D01*
X10130619D01*
X10131456Y10029030D01*
X10132166Y10029504D01*
X10132451Y10029930D01*
X10133017Y10030043D01*
X10133647Y10030464D01*
X10135119Y10031936D01*
X10144183D01*
X10144926Y10032084D01*
X10145556Y10032505D01*
X10161760Y10048708D01*
X10161760Y10048709D01*
X10162181Y10049339D01*
X10162329Y10050082D01*
Y10101152D01*
X10163801Y10101762D01*
X10165215Y10102847D01*
X10166300Y10104261D01*
X10166982Y10105908D01*
X10167215Y10107676D01*
Y10111675D01*
X10166982Y10113443D01*
X10166300Y10115090D01*
X10165215Y10116504D01*
X10163801Y10117589D01*
X10162154Y10118271D01*
X10160386Y10118504D01*
X10158619Y10118271D01*
X10156972Y10117589D01*
X10156575Y10117284D01*
X10154924Y10118098D01*
Y10126564D01*
X10154776Y10127308D01*
X10154355Y10127938D01*
X10145844Y10136449D01*
X10145214Y10136870D01*
X10144471Y10137018D01*
X10141815D01*
Y10137075D01*
X10141582Y10138843D01*
X10140900Y10140490D01*
X10139815Y10141904D01*
X10138401Y10142989D01*
X10136754Y10143671D01*
X10134987Y10143904D01*
X10133219Y10143671D01*
X10131572Y10142989D01*
X10130158Y10141904D01*
X10129073Y10140490D01*
X10128391Y10138843D01*
X10128158Y10137075D01*
Y10133076D01*
X10128391Y10131308D01*
X10129073Y10129661D01*
X10130158Y10128247D01*
X10131572Y10127162D01*
X10133219Y10126479D01*
X10134987Y10126247D01*
X10136754Y10126479D01*
X10138401Y10127162D01*
X10139815Y10128247D01*
X10140900Y10129661D01*
X10141582Y10131308D01*
X10141815Y10133076D01*
Y10133133D01*
X10143666D01*
X10151039Y10125760D01*
Y10104608D01*
X10151187Y10103865D01*
X10151608Y10103235D01*
X10155904Y10098939D01*
Y10051939D01*
X10142326Y10038361D01*
X10135128D01*
X10133689Y10039799D01*
X10133059Y10040220D01*
X10132512Y10040329D01*
X10132302Y10040643D01*
X10132166Y10040867D01*
Y10042485D01*
X10132302Y10042708D01*
X10132640Y10043214D01*
X10132806Y10044051D01*
Y10045801D01*
X10132640Y10046638D01*
X10132302Y10047144D01*
X10132166Y10047367D01*
Y10048985D01*
X10132302Y10049208D01*
X10132640Y10049714D01*
X10132806Y10050551D01*
Y10052301D01*
X10132640Y10053138D01*
X10132302Y10053643D01*
X10132166Y10053867D01*
Y10054300D01*
X10133663Y10055854D01*
X10143727D01*
X10144881Y10054127D01*
X10146624Y10052961D01*
X10148680Y10052552D01*
X10150737Y10052961D01*
X10152480Y10054127D01*
X10153644Y10055870D01*
X10154054Y10057926D01*
X10153644Y10059982D01*
X10152480Y10061725D01*
X10150753Y10062880D01*
Y10088996D01*
X10152480Y10090150D01*
X10153644Y10091893D01*
X10154054Y10093950D01*
X10153644Y10096006D01*
X10152480Y10097749D01*
X10150737Y10098914D01*
X10148680Y10099323D01*
X10146624Y10098914D01*
X10144881Y10097749D01*
X10143716Y10096006D01*
X10143307Y10093950D01*
X10143716Y10091893D01*
X10144881Y10090150D01*
X10146609Y10088996D01*
Y10062880D01*
X10144881Y10061725D01*
X10143727Y10059998D01*
X10132399D01*
X10132302Y10060143D01*
X10132166Y10060367D01*
Y10061985D01*
X10132302Y10062208D01*
X10132640Y10062714D01*
X10132778Y10063410D01*
X10125743D01*
X10118710D01*
X10118848Y10062714D01*
X10119186Y10062208D01*
X10119323Y10061985D01*
Y10060367D01*
X10119186Y10060143D01*
X10118848Y10059637D01*
X10118682Y10058801D01*
Y10057051D01*
X10118848Y10056214D01*
X10119186Y10055708D01*
X10119323Y10055485D01*
Y10054886D01*
X10117878Y10053368D01*
X10102662D01*
Y10054757D01*
X10102255Y10055740D01*
X10101271Y10056148D01*
X10098302D01*
X10097952Y10056003D01*
X10097119D01*
X10093566Y10059556D01*
X10092936Y10059977D01*
X10092192Y10060125D01*
X10079849D01*
Y10061017D01*
X10079441Y10062002D01*
Y10063066D01*
X10079849Y10064052D01*
Y10067517D01*
X10079441Y10068502D01*
X10078456Y10068911D01*
X10069254D01*
X10069169Y10069003D01*
X10068549Y10070498D01*
X10068910Y10071142D01*
X10069025Y10071313D01*
X10069034Y10071364D01*
X10069337Y10071903D01*
X10075393D01*
X10076426Y10072331D01*
X10076854Y10073364D01*
Y10094204D01*
X10076426Y10095237D01*
X10075393Y10095665D01*
X10059553D01*
X10058520Y10095237D01*
X10058092Y10094204D01*
Y10073364D01*
X10058520Y10072331D01*
X10059553Y10071903D01*
X10061609D01*
X10061912Y10071364D01*
X10061922Y10071313D01*
X10062036Y10071142D01*
X10062398Y10070498D01*
X10061778Y10069003D01*
X10061693Y10068911D01*
X10058491D01*
X10058335Y10068846D01*
X10056077Y10071104D01*
Y10098958D01*
X10057083D01*
X10058066Y10099365D01*
X10058474Y10100349D01*
Y10103319D01*
X10058408Y10103478D01*
Y10104656D01*
X10062160Y10108408D01*
X10062160Y10108408D01*
X10062609Y10109080D01*
X10062767Y10109873D01*
X10064146Y10110556D01*
X10068383D01*
X10069380Y10110969D01*
X10069792Y10111966D01*
Y10113112D01*
X10074500D01*
Y10112213D01*
X10074911Y10111218D01*
X10075906Y10110806D01*
X10085847D01*
X10086841Y10111218D01*
X10087253Y10112213D01*
Y10118154D01*
X10086841Y10119149D01*
X10085847Y10119561D01*
X10075906D01*
X10074911Y10119149D01*
X10074500Y10118154D01*
Y10117255D01*
X10069792D01*
Y10118401D01*
X10069380Y10119398D01*
X10068383Y10119811D01*
X10059948D01*
X10058951Y10119398D01*
X10058538Y10118401D01*
Y10111966D01*
X10058624Y10111759D01*
Y10110731D01*
X10054871Y10106979D01*
X10054422Y10106307D01*
X10054264Y10105514D01*
X10053113Y10104710D01*
X10052130Y10104302D01*
X10051722Y10103319D01*
Y10100349D01*
X10051934Y10099839D01*
Y10088302D01*
X10050283Y10087681D01*
X10048896Y10088745D01*
X10046763Y10089628D01*
X10044473Y10089930D01*
X10039473D01*
X10037184Y10089628D01*
X10035051Y10088745D01*
X10033464Y10087527D01*
X10031813Y10087955D01*
Y10158187D01*
X10165140Y10158187D01*
X10165816Y10156536D01*
X10164754Y10154946D01*
X10164267Y10152500D01*
X10164754Y10150054D01*
X10166140Y10147980D01*
X10168214Y10146594D01*
X10170660Y10146107D01*
X10178160D01*
X10180607Y10146594D01*
X10182681Y10147980D01*
X10184066Y10150054D01*
X10184166Y10150558D01*
X10196428D01*
Y10146311D01*
X10196841Y10145312D01*
X10197840Y10144899D01*
X10205770D01*
X10206769Y10145312D01*
X10207183Y10146311D01*
Y10153241D01*
X10206769Y10154240D01*
X10205770Y10154653D01*
X10197840D01*
X10197330Y10154442D01*
X10184166D01*
X10184066Y10154946D01*
X10183004Y10156536D01*
X10183680Y10158187D01*
X10218187D01*
Y10001813D01*
D02*
G37*
G36*
X10094940Y10052687D02*
X10095571Y10052266D01*
X10096314Y10052119D01*
X10096911D01*
Y10050787D01*
X10097318Y10049803D01*
X10098302Y10049396D01*
X10101271D01*
X10101483Y10049484D01*
X10118087D01*
X10118796Y10047833D01*
X10117878Y10046868D01*
X10101451D01*
X10101271Y10046942D01*
X10098302D01*
X10098123Y10046868D01*
X10087677D01*
X10081499Y10053046D01*
X10080869Y10053467D01*
X10080678Y10053505D01*
X10080055Y10054819D01*
X10080173Y10055047D01*
X10081212Y10056240D01*
X10091388D01*
X10094940Y10052687D01*
D02*
G37*
%LPC*%
G36*
X10092672Y10149525D02*
X10085742D01*
X10084743Y10149112D01*
X10084329Y10148113D01*
Y10146090D01*
X10059010D01*
X10059010Y10146090D01*
X10058267Y10145942D01*
X10057637Y10145521D01*
X10056199Y10144083D01*
X10056102Y10144148D01*
X10054046Y10144557D01*
X10051990Y10144148D01*
X10050247Y10142983D01*
X10049081Y10141240D01*
X10048672Y10139183D01*
X10049081Y10137128D01*
X10050247Y10135384D01*
X10051990Y10134219D01*
X10054046Y10133810D01*
X10056102Y10134219D01*
X10057845Y10135384D01*
X10059010Y10137128D01*
X10059419Y10139183D01*
X10059086Y10140856D01*
X10059978Y10141937D01*
X10060350Y10142205D01*
X10084329D01*
Y10140183D01*
X10084743Y10139184D01*
X10085742Y10138770D01*
X10092672D01*
X10093671Y10139184D01*
X10094084Y10140183D01*
Y10148113D01*
X10093671Y10149112D01*
X10092672Y10149525D01*
D02*
G37*
G36*
X10068383Y10134311D02*
X10065181D01*
Y10130699D01*
X10069792D01*
Y10132901D01*
X10069380Y10133898D01*
X10068383Y10134311D01*
D02*
G37*
G36*
X10063149D02*
X10059948D01*
X10058951Y10133898D01*
X10058538Y10132901D01*
Y10130699D01*
X10063149D01*
Y10134311D01*
D02*
G37*
G36*
X10069792Y10128668D02*
X10065181D01*
Y10125056D01*
X10068383D01*
X10069380Y10125469D01*
X10069792Y10126466D01*
Y10128668D01*
D02*
G37*
G36*
X10063149D02*
X10058538D01*
Y10126466D01*
X10058951Y10125469D01*
X10059948Y10125056D01*
X10063149D01*
Y10128668D01*
D02*
G37*
G36*
X10205770Y10140654D02*
X10197840D01*
X10196841Y10140240D01*
X10196428Y10139241D01*
Y10132311D01*
X10196841Y10131312D01*
X10197840Y10130898D01*
X10199863D01*
Y10129229D01*
X10197587D01*
X10196591Y10128816D01*
X10196177Y10127819D01*
Y10125145D01*
X10179761D01*
X10179019Y10124998D01*
X10178388Y10124576D01*
X10170135Y10116324D01*
X10169715Y10115694D01*
X10169567Y10114951D01*
Y10105480D01*
X10169715Y10104738D01*
X10170135Y10104107D01*
X10178582Y10095661D01*
Y10093431D01*
X10178032Y10093322D01*
X10177322Y10092847D01*
X10176849Y10092137D01*
X10176682Y10091301D01*
Y10089551D01*
X10176849Y10088714D01*
X10177186Y10088208D01*
X10177322Y10087985D01*
Y10086367D01*
X10177186Y10086143D01*
X10176849Y10085638D01*
X10176682Y10084801D01*
Y10083051D01*
X10176849Y10082214D01*
X10177186Y10081708D01*
X10177322Y10081485D01*
Y10079867D01*
X10177186Y10079644D01*
X10176849Y10079138D01*
X10176682Y10078301D01*
Y10076551D01*
X10176849Y10075714D01*
X10177186Y10075208D01*
X10177322Y10074985D01*
Y10073367D01*
X10177186Y10073143D01*
X10176849Y10072638D01*
X10176682Y10071801D01*
Y10070051D01*
X10176849Y10069214D01*
X10177186Y10068708D01*
X10177322Y10068484D01*
Y10066866D01*
X10177186Y10066643D01*
X10176849Y10066138D01*
X10176682Y10065301D01*
Y10063551D01*
X10176849Y10062714D01*
X10177186Y10062208D01*
X10177322Y10061985D01*
Y10061552D01*
X10175841Y10060015D01*
X10174224Y10060096D01*
X10173135Y10061725D01*
X10171392Y10062890D01*
X10169336Y10063299D01*
X10167280Y10062890D01*
X10165536Y10061725D01*
X10164371Y10059982D01*
X10163962Y10057926D01*
X10164371Y10055870D01*
X10165536Y10054127D01*
X10167280Y10052961D01*
X10169336Y10052552D01*
X10171392Y10052961D01*
X10173135Y10054127D01*
X10174290Y10055854D01*
X10177089D01*
X10177186Y10055708D01*
X10177322Y10055485D01*
Y10053867D01*
X10177186Y10053643D01*
X10176849Y10053138D01*
X10176682Y10052301D01*
Y10050551D01*
X10176849Y10049714D01*
X10177186Y10049208D01*
X10177322Y10048985D01*
Y10047367D01*
X10177186Y10047144D01*
X10176849Y10046638D01*
X10176682Y10045801D01*
Y10044051D01*
X10176849Y10043214D01*
X10177186Y10042708D01*
X10177322Y10042485D01*
Y10041887D01*
X10175878Y10040368D01*
X10173749D01*
X10173005Y10040220D01*
X10172375Y10039799D01*
X10154404Y10021828D01*
X10112484D01*
Y10026186D01*
X10112070Y10027184D01*
X10111071Y10027598D01*
X10103141D01*
X10102142Y10027184D01*
X10101729Y10026186D01*
Y10024663D01*
X10098965D01*
Y10025938D01*
X10098553Y10026935D01*
X10097556Y10027348D01*
X10089121D01*
X10088124Y10026935D01*
X10087711Y10025938D01*
Y10019503D01*
X10088124Y10018506D01*
X10089121Y10018093D01*
X10097556D01*
X10098553Y10018506D01*
X10098965Y10019503D01*
Y10020778D01*
X10101729D01*
Y10019256D01*
X10102142Y10018257D01*
X10103141Y10017843D01*
X10111071D01*
X10111312Y10017943D01*
X10155209D01*
X10155952Y10018091D01*
X10156582Y10018512D01*
X10174553Y10036484D01*
X10177003D01*
X10177186Y10036208D01*
X10177322Y10035984D01*
Y10034366D01*
X10177186Y10034143D01*
X10176849Y10033638D01*
X10176682Y10032801D01*
Y10031051D01*
X10176849Y10030214D01*
X10177322Y10029504D01*
X10178032Y10029030D01*
X10178869Y10028864D01*
X10188619D01*
X10189456Y10029030D01*
X10190165Y10029504D01*
X10190486Y10029984D01*
X10192794D01*
X10193097Y10029251D01*
X10194094Y10028839D01*
X10195369D01*
Y10024724D01*
X10193846D01*
X10192848Y10024310D01*
X10192434Y10023311D01*
Y10015381D01*
X10192848Y10014382D01*
X10193846Y10013969D01*
X10200776D01*
X10201776Y10014382D01*
X10202189Y10015381D01*
Y10023311D01*
X10201776Y10024310D01*
X10200776Y10024724D01*
X10199254D01*
Y10028839D01*
X10200529D01*
X10201526Y10029251D01*
X10201939Y10030248D01*
Y10038683D01*
X10201526Y10039680D01*
X10200529Y10040093D01*
X10194094D01*
X10193097Y10039680D01*
X10192684Y10038683D01*
Y10033868D01*
X10190486D01*
X10190302Y10034143D01*
X10190165Y10034366D01*
Y10035984D01*
X10190302Y10036208D01*
X10190640Y10036714D01*
X10190806Y10037551D01*
Y10039301D01*
X10190640Y10040138D01*
X10190302Y10040643D01*
X10190165Y10040867D01*
Y10042485D01*
X10190302Y10042708D01*
X10190640Y10043214D01*
X10190806Y10044051D01*
Y10045801D01*
X10190640Y10046638D01*
X10190302Y10047144D01*
X10190165Y10047367D01*
Y10047965D01*
X10191268Y10049125D01*
X10193027Y10048920D01*
X10193097Y10048751D01*
X10194094Y10048339D01*
X10200529D01*
X10201526Y10048751D01*
X10201939Y10049749D01*
Y10058183D01*
X10201526Y10059180D01*
X10200529Y10059593D01*
X10196690D01*
Y10098981D01*
X10196542Y10099724D01*
X10196121Y10100354D01*
X10191851Y10104625D01*
X10192382Y10105908D01*
X10192615Y10107676D01*
Y10111675D01*
X10192382Y10113443D01*
X10191700Y10115090D01*
X10190615Y10116504D01*
X10189201Y10117589D01*
X10187554Y10118271D01*
X10185787Y10118504D01*
X10184019Y10118271D01*
X10182372Y10117589D01*
X10180958Y10116504D01*
X10179873Y10115090D01*
X10179191Y10113443D01*
X10178958Y10111675D01*
Y10107676D01*
X10179191Y10105908D01*
X10179873Y10104261D01*
X10180958Y10102847D01*
X10182372Y10101762D01*
X10184019Y10101080D01*
X10185787Y10100847D01*
X10187554Y10101080D01*
X10189201Y10101762D01*
X10189211Y10101770D01*
X10192806Y10098176D01*
Y10058477D01*
X10192684Y10058183D01*
Y10053368D01*
X10190486D01*
X10190302Y10053643D01*
X10190165Y10053867D01*
Y10055485D01*
X10190302Y10055708D01*
X10190640Y10056214D01*
X10190806Y10057051D01*
Y10058801D01*
X10190640Y10059637D01*
X10190302Y10060143D01*
X10190165Y10060367D01*
Y10061985D01*
X10190302Y10062208D01*
X10190640Y10062714D01*
X10190806Y10063551D01*
Y10065301D01*
X10190640Y10066138D01*
X10190302Y10066643D01*
X10190165Y10066866D01*
Y10068484D01*
X10190302Y10068708D01*
X10190640Y10069214D01*
X10190806Y10070051D01*
Y10071801D01*
X10190640Y10072638D01*
X10190302Y10073143D01*
X10190165Y10073367D01*
Y10074985D01*
X10190302Y10075208D01*
X10190640Y10075714D01*
X10190806Y10076551D01*
Y10078301D01*
X10190640Y10079138D01*
X10190302Y10079644D01*
X10190165Y10079867D01*
Y10081485D01*
X10190302Y10081708D01*
X10190640Y10082214D01*
X10190806Y10083051D01*
Y10084801D01*
X10190640Y10085638D01*
X10190302Y10086143D01*
X10190165Y10086367D01*
Y10087985D01*
X10190302Y10088208D01*
X10190640Y10088714D01*
X10190806Y10089551D01*
Y10091301D01*
X10190640Y10092137D01*
X10190165Y10092847D01*
X10189456Y10093322D01*
X10188619Y10093488D01*
X10182466D01*
Y10096466D01*
X10182319Y10097209D01*
X10181898Y10097839D01*
X10181898Y10097839D01*
X10173452Y10106285D01*
Y10114146D01*
X10180566Y10121260D01*
X10196229D01*
X10196591Y10120387D01*
X10197587Y10119974D01*
X10206022D01*
X10207019Y10120387D01*
X10207432Y10121384D01*
Y10127819D01*
X10207019Y10128816D01*
X10206022Y10129229D01*
X10203747D01*
Y10130898D01*
X10205770D01*
X10206769Y10131312D01*
X10207183Y10132311D01*
Y10139241D01*
X10206769Y10140240D01*
X10205770Y10140654D01*
D02*
G37*
G36*
X10206022Y10114729D02*
X10202820D01*
Y10111117D01*
X10207432D01*
Y10113319D01*
X10207019Y10114316D01*
X10206022Y10114729D01*
D02*
G37*
G36*
X10200789D02*
X10197587D01*
X10196591Y10114316D01*
X10196177Y10113319D01*
Y10111117D01*
X10200789D01*
Y10114729D01*
D02*
G37*
G36*
X10107847Y10110060D02*
X10103892D01*
Y10106700D01*
X10109254D01*
Y10108654D01*
X10108842Y10109648D01*
X10107847Y10110060D01*
D02*
G37*
G36*
X10101860D02*
X10097906D01*
X10096912Y10109648D01*
X10096500Y10108654D01*
Y10106700D01*
X10101860D01*
Y10110060D01*
D02*
G37*
G36*
X10207432Y10109085D02*
X10202820D01*
Y10105474D01*
X10206022D01*
X10207019Y10105887D01*
X10207432Y10106884D01*
Y10109085D01*
D02*
G37*
G36*
X10200789D02*
X10196177D01*
Y10106884D01*
X10196591Y10105887D01*
X10197587Y10105474D01*
X10200789D01*
Y10109085D01*
D02*
G37*
G36*
X10123403Y10108031D02*
X10120201D01*
Y10104420D01*
X10124813D01*
Y10106622D01*
X10124399Y10107618D01*
X10123403Y10108031D01*
D02*
G37*
G36*
X10118169D02*
X10114968D01*
X10113971Y10107618D01*
X10113558Y10106622D01*
Y10104420D01*
X10118169D01*
Y10108031D01*
D02*
G37*
G36*
X10066583Y10104710D02*
X10065615D01*
Y10102850D01*
X10067974D01*
Y10103319D01*
X10067567Y10104302D01*
X10066583Y10104710D01*
D02*
G37*
G36*
X10063583D02*
X10062613D01*
X10061630Y10104302D01*
X10061222Y10103319D01*
Y10102850D01*
X10063583D01*
Y10104710D01*
D02*
G37*
G36*
X10109254Y10104668D02*
X10103892D01*
Y10101306D01*
X10107847D01*
X10108842Y10101719D01*
X10109254Y10102714D01*
Y10104668D01*
D02*
G37*
G36*
X10101860D02*
X10096500D01*
Y10102714D01*
X10096912Y10101719D01*
X10097906Y10101306D01*
X10101860D01*
Y10104668D01*
D02*
G37*
G36*
X10106672Y10149525D02*
X10099742D01*
X10098743Y10149112D01*
X10098329Y10148113D01*
Y10140183D01*
X10098743Y10139184D01*
X10099742Y10138770D01*
X10101135D01*
Y10129061D01*
X10097906D01*
X10096912Y10128649D01*
X10096500Y10127653D01*
Y10121713D01*
X10096912Y10120718D01*
X10097906Y10120306D01*
X10107847D01*
X10108050Y10120391D01*
X10109751D01*
X10111248Y10118895D01*
X10111248Y10118895D01*
X10111920Y10118445D01*
X10112712Y10118288D01*
X10113558D01*
Y10114686D01*
X10113971Y10113690D01*
X10114968Y10113277D01*
X10120714D01*
X10120759Y10113051D01*
X10121208Y10112379D01*
X10123505Y10110082D01*
X10124177Y10109633D01*
X10124970Y10109474D01*
X10124970Y10109475D01*
X10128158D01*
Y10107676D01*
X10128391Y10105908D01*
X10129073Y10104261D01*
X10130158Y10102847D01*
X10131572Y10101762D01*
X10133219Y10101080D01*
X10134987Y10100847D01*
X10136754Y10101080D01*
X10138401Y10101762D01*
X10139815Y10102847D01*
X10140900Y10104261D01*
X10141582Y10105908D01*
X10141815Y10107676D01*
Y10111675D01*
X10141582Y10113443D01*
X10140900Y10115090D01*
X10139815Y10116504D01*
X10138401Y10117589D01*
X10136754Y10118271D01*
X10134987Y10118504D01*
X10133219Y10118271D01*
X10131572Y10117589D01*
X10130158Y10116504D01*
X10129073Y10115090D01*
X10128464Y10113618D01*
X10125923D01*
X10124813Y10114686D01*
Y10121121D01*
X10124399Y10122119D01*
X10123403Y10122531D01*
X10114968D01*
X10114727Y10122431D01*
X10113571D01*
X10112075Y10123928D01*
X10111403Y10124377D01*
X10110609Y10124534D01*
X10109254Y10125463D01*
Y10127653D01*
X10108842Y10128649D01*
X10107847Y10129061D01*
X10105278D01*
Y10138770D01*
X10106672D01*
X10107670Y10139184D01*
X10108084Y10140183D01*
Y10148113D01*
X10107670Y10149112D01*
X10106672Y10149525D01*
D02*
G37*
G36*
X10067974Y10100818D02*
X10065615D01*
Y10098958D01*
X10066583D01*
X10067567Y10099365D01*
X10067974Y10100349D01*
Y10100818D01*
D02*
G37*
G36*
X10063583D02*
X10061222D01*
Y10100349D01*
X10061630Y10099365D01*
X10062613Y10098958D01*
X10063583D01*
Y10100818D01*
D02*
G37*
G36*
X10124813Y10102388D02*
X10120201D01*
Y10098777D01*
X10123403D01*
X10124399Y10099189D01*
X10124813Y10100187D01*
Y10102388D01*
D02*
G37*
G36*
X10118169D02*
X10113558D01*
Y10100187D01*
X10113971Y10099189D01*
X10114968Y10098777D01*
X10118169D01*
Y10102388D01*
D02*
G37*
G36*
X10052332Y10155112D02*
X10051589Y10154965D01*
X10050959Y10154543D01*
X10050959Y10154543D01*
X10042803Y10146387D01*
X10042382Y10145757D01*
X10042234Y10145014D01*
Y10135523D01*
X10042120Y10135500D01*
X10040377Y10134335D01*
X10039212Y10132592D01*
X10038803Y10130536D01*
X10039212Y10128480D01*
X10040377Y10126736D01*
X10042120Y10125572D01*
X10044176Y10125163D01*
X10046232Y10125572D01*
X10047975Y10126736D01*
X10049140Y10128480D01*
X10049549Y10130536D01*
X10049140Y10132592D01*
X10047975Y10134335D01*
X10046232Y10135500D01*
X10046118Y10135523D01*
Y10144210D01*
X10053137Y10151227D01*
X10107916D01*
X10111058Y10148086D01*
Y10139791D01*
X10111205Y10139047D01*
X10111627Y10138417D01*
X10128991Y10121052D01*
X10129621Y10120631D01*
X10130364Y10120483D01*
X10139575D01*
X10143752Y10116307D01*
Y10104465D01*
X10132146Y10092860D01*
X10131456Y10093322D01*
X10130619Y10093488D01*
X10120869D01*
X10120032Y10093322D01*
X10119323Y10092847D01*
X10118848Y10092137D01*
X10118682Y10091301D01*
Y10089551D01*
X10118848Y10088714D01*
X10119186Y10088208D01*
X10119323Y10087985D01*
Y10086367D01*
X10119186Y10086143D01*
X10118848Y10085638D01*
X10118682Y10084801D01*
Y10083051D01*
X10118848Y10082214D01*
X10119186Y10081708D01*
X10119323Y10081485D01*
Y10079867D01*
X10119186Y10079644D01*
X10118848Y10079138D01*
X10118682Y10078301D01*
Y10076551D01*
X10118848Y10075714D01*
X10119186Y10075208D01*
X10119323Y10074985D01*
Y10073367D01*
X10119186Y10073143D01*
X10118848Y10072638D01*
X10118682Y10071801D01*
Y10070051D01*
X10118848Y10069214D01*
X10119186Y10068708D01*
X10119323Y10068484D01*
Y10066866D01*
X10119186Y10066643D01*
X10118848Y10066138D01*
X10118710Y10065442D01*
X10125743D01*
X10132778D01*
X10132640Y10066138D01*
X10132302Y10066643D01*
X10132166Y10066866D01*
Y10068484D01*
X10132302Y10068708D01*
X10132640Y10069214D01*
X10132806Y10070051D01*
Y10071801D01*
X10132640Y10072638D01*
X10132302Y10073143D01*
X10132166Y10073367D01*
Y10074985D01*
X10132302Y10075208D01*
X10132640Y10075714D01*
X10132806Y10076551D01*
Y10078301D01*
X10132640Y10079138D01*
X10132302Y10079644D01*
X10132166Y10079867D01*
Y10081485D01*
X10132302Y10081708D01*
X10132640Y10082214D01*
X10132806Y10083051D01*
Y10084801D01*
X10132640Y10085638D01*
X10132302Y10086143D01*
X10132166Y10086367D01*
Y10087547D01*
X10132302Y10088208D01*
X10132490Y10088489D01*
X10133202Y10088632D01*
X10133832Y10089052D01*
X10147067Y10102288D01*
X10147067Y10102288D01*
X10147488Y10102917D01*
X10147636Y10103661D01*
Y10117112D01*
X10147488Y10117855D01*
X10147067Y10118485D01*
X10141753Y10123799D01*
X10141123Y10124221D01*
X10140380Y10124368D01*
X10131169D01*
X10114942Y10140595D01*
Y10148890D01*
X10114942Y10148890D01*
X10114794Y10149634D01*
X10114373Y10150264D01*
X10110094Y10154543D01*
X10109464Y10154965D01*
X10108721Y10155112D01*
X10052332D01*
X10052332Y10155112D01*
D02*
G37*
G36*
X10101271Y10065648D02*
X10100803D01*
Y10063289D01*
X10102662D01*
Y10064257D01*
X10102255Y10065240D01*
X10101271Y10065648D01*
D02*
G37*
G36*
X10098771D02*
X10098302D01*
X10097318Y10065240D01*
X10096911Y10064257D01*
Y10063289D01*
X10098771D01*
Y10065648D01*
D02*
G37*
G36*
X10102662Y10061256D02*
X10100803D01*
Y10058896D01*
X10101271D01*
X10102255Y10059304D01*
X10102662Y10060287D01*
Y10061256D01*
D02*
G37*
G36*
X10098771D02*
X10096911D01*
Y10060287D01*
X10097318Y10059304D01*
X10098302Y10058896D01*
X10098771D01*
Y10061256D01*
D02*
G37*
G36*
X10215029Y10059593D02*
X10212828D01*
Y10054982D01*
X10216439D01*
Y10058183D01*
X10216026Y10059180D01*
X10215029Y10059593D01*
D02*
G37*
G36*
X10210797D02*
X10208594D01*
X10207597Y10059180D01*
X10207184Y10058183D01*
Y10054982D01*
X10210797D01*
Y10059593D01*
D02*
G37*
G36*
X10216439Y10052950D02*
X10212828D01*
Y10048339D01*
X10215029D01*
X10216026Y10048751D01*
X10216439Y10049749D01*
Y10052950D01*
D02*
G37*
G36*
X10210797D02*
X10207184D01*
Y10049749D01*
X10207597Y10048751D01*
X10208594Y10048339D01*
X10210797D01*
Y10052950D01*
D02*
G37*
G36*
X10215029Y10040093D02*
X10212828D01*
Y10035481D01*
X10216439D01*
Y10038683D01*
X10216026Y10039680D01*
X10215029Y10040093D01*
D02*
G37*
G36*
X10210796D02*
X10208594D01*
X10207597Y10039680D01*
X10207184Y10038683D01*
Y10035481D01*
X10210796D01*
Y10040093D01*
D02*
G37*
G36*
X10101271Y10037442D02*
X10100803D01*
Y10035082D01*
X10102662D01*
Y10036052D01*
X10102255Y10037035D01*
X10101271Y10037442D01*
D02*
G37*
G36*
X10098771D02*
X10098302D01*
X10097318Y10037035D01*
X10096911Y10036052D01*
Y10035082D01*
X10098771D01*
Y10037442D01*
D02*
G37*
G36*
X10102662Y10033051D02*
X10100803D01*
Y10030690D01*
X10101271D01*
X10102255Y10031098D01*
X10102662Y10032081D01*
Y10033051D01*
D02*
G37*
G36*
X10098771D02*
X10096911D01*
Y10032081D01*
X10097318Y10031098D01*
X10098302Y10030690D01*
X10098771D01*
Y10033051D01*
D02*
G37*
G36*
X10216439Y10033449D02*
X10212828D01*
Y10028839D01*
X10215029D01*
X10216026Y10029251D01*
X10216439Y10030248D01*
Y10033449D01*
D02*
G37*
G36*
X10210796D02*
X10207184D01*
Y10030248D01*
X10207597Y10029251D01*
X10208594Y10028839D01*
X10210796D01*
Y10033449D01*
D02*
G37*
G36*
X10065473Y10036628D02*
X10064002Y10036335D01*
X10062755Y10035502D01*
X10061922Y10034255D01*
X10061805Y10033666D01*
X10059553D01*
X10058520Y10033237D01*
X10058092Y10032205D01*
Y10011364D01*
X10058520Y10010331D01*
X10059553Y10009903D01*
X10075393D01*
X10076426Y10010331D01*
X10076854Y10011364D01*
Y10032205D01*
X10076426Y10033237D01*
X10075393Y10033666D01*
X10069142D01*
X10069025Y10034255D01*
X10068192Y10035502D01*
X10066945Y10036335D01*
X10065473Y10036628D01*
D02*
G37*
G36*
X10097556Y10012848D02*
X10094354D01*
Y10009237D01*
X10098965D01*
Y10011439D01*
X10098553Y10012435D01*
X10097556Y10012848D01*
D02*
G37*
G36*
X10092322D02*
X10089121D01*
X10088124Y10012435D01*
X10087711Y10011439D01*
Y10009237D01*
X10092322D01*
Y10012848D01*
D02*
G37*
G36*
X10098965Y10007205D02*
X10094354D01*
Y10003594D01*
X10097556D01*
X10098553Y10004006D01*
X10098965Y10005003D01*
Y10007205D01*
D02*
G37*
G36*
X10092322D02*
X10087711D01*
Y10005003D01*
X10088124Y10004006D01*
X10089121Y10003594D01*
X10092322D01*
Y10007205D01*
D02*
G37*
%LPD*%
D10*
X10183744Y10090426D02*
D03*
Y10077426D02*
D03*
Y10070926D02*
D03*
Y10064426D02*
D03*
Y10057926D02*
D03*
Y10051426D02*
D03*
Y10044926D02*
D03*
Y10031926D02*
D03*
X10125744Y10090426D02*
D03*
Y10077426D02*
D03*
Y10070926D02*
D03*
Y10064426D02*
D03*
Y10057926D02*
D03*
Y10051426D02*
D03*
Y10044926D02*
D03*
Y10031926D02*
D03*
X10183744Y10083926D02*
D03*
Y10038426D02*
D03*
X10125744Y10083926D02*
D03*
Y10038426D02*
D03*
D11*
X10068474Y10059284D02*
D03*
Y10065784D02*
D03*
X10068223Y10052784D02*
D03*
Y10046284D02*
D03*
Y10039785D02*
D03*
D12*
X10067473Y10083784D02*
D03*
Y10021784D02*
D03*
D13*
X10064165Y10129683D02*
D03*
Y10115183D02*
D03*
X10119185Y10103404D02*
D03*
Y10117904D02*
D03*
X10093339Y10008221D02*
D03*
Y10022721D02*
D03*
X10201805Y10124601D02*
D03*
Y10110101D02*
D03*
D14*
X10102877Y10105684D02*
D03*
Y10124683D02*
D03*
X10080876Y10115183D02*
D03*
D15*
X10107106Y10008721D02*
D03*
Y10022721D02*
D03*
X10201805Y10149776D02*
D03*
Y10135776D02*
D03*
D16*
X10211812Y10053965D02*
D03*
X10197311D02*
D03*
Y10034466D02*
D03*
X10211812D02*
D03*
D17*
X10055098Y10101834D02*
D03*
X10064598D02*
D03*
D18*
X10197311Y10019346D02*
D03*
X10211312D02*
D03*
X10103207Y10144148D02*
D03*
X10089207D02*
D03*
D19*
X10099787Y10052772D02*
D03*
Y10062272D02*
D03*
Y10034066D02*
D03*
Y10043566D02*
D03*
D20*
X10132459Y10090426D02*
X10145694Y10103661D01*
Y10117112D01*
X10125744Y10090426D02*
X10132459D01*
X10044176Y10130536D02*
Y10145014D01*
X10052332Y10153170D02*
X10108721D01*
X10044176Y10145014D02*
X10052332Y10153170D01*
X10054046Y10139183D02*
X10059010Y10144148D01*
X10171509Y10105480D02*
X10180524Y10096466D01*
X10181620Y10090426D02*
X10182998D01*
X10180524Y10091522D02*
X10181620Y10090426D01*
X10180524Y10091522D02*
Y10096466D01*
X10183744Y10031926D02*
X10194772D01*
X10173749Y10038426D02*
X10183744D01*
X10125832Y10031838D02*
X10132274D01*
X10134315Y10033879D02*
X10144183D01*
X10132274Y10031838D02*
X10134315Y10033879D01*
X10125744Y10038426D02*
X10132316D01*
X10134323Y10036418D02*
X10143131D01*
X10132316Y10038426D02*
X10134323Y10036418D01*
X10125744Y10031926D02*
X10125832Y10031838D01*
X10100652Y10044926D02*
X10125744D01*
X10100652Y10051426D02*
X10125744D01*
X10086873Y10044926D02*
X10098922D01*
X10080126Y10051672D02*
X10086873Y10044926D01*
X10069335Y10051672D02*
X10080126D01*
X10068223Y10052784D02*
X10069335Y10051672D01*
X10068474Y10059284D02*
X10069575Y10058182D01*
X10092192D02*
X10096314Y10054061D01*
X10069575Y10058182D02*
X10092192D01*
X10059010Y10144148D02*
X10089207D01*
X10113000Y10139791D02*
Y10148890D01*
X10108721Y10153170D02*
X10113000Y10148890D01*
Y10139791D02*
X10130364Y10122426D01*
X10140380D01*
X10109941Y10019885D02*
X10155209D01*
X10173749Y10038426D01*
X10107106Y10022721D02*
X10109941Y10019885D01*
X10093339Y10022721D02*
X10107106D01*
Y10008721D02*
X10108327Y10007500D01*
X10124410D01*
X10099787Y10044061D02*
X10100652Y10044926D01*
X10171509Y10105480D02*
Y10114951D01*
X10096314Y10054061D02*
X10098922D01*
X10099787Y10053196D01*
Y10052291D02*
Y10053196D01*
Y10043566D02*
Y10044061D01*
X10098922Y10044926D02*
X10099787Y10044061D01*
X10152982Y10104608D02*
Y10126564D01*
X10134987Y10135076D02*
X10144471D01*
X10152982Y10126564D01*
X10174410Y10007500D02*
X10201332D01*
X10174410Y10152500D02*
X10199081D01*
X10194748Y10056530D02*
Y10098981D01*
X10185787Y10107942D02*
Y10109675D01*
Y10107942D02*
X10194748Y10098981D01*
X10171509Y10114951D02*
X10179761Y10123203D01*
X10200406D02*
X10201805Y10124601D01*
X10179761Y10123203D02*
X10200406D01*
X10201805Y10124601D02*
Y10135776D01*
X10143131Y10036418D02*
X10157847Y10051135D01*
X10152982Y10104608D02*
X10157847Y10099743D01*
Y10051135D02*
Y10099743D01*
X10160386Y10050082D02*
Y10109675D01*
X10144183Y10033879D02*
X10160386Y10050082D01*
X10140380Y10122426D02*
X10145694Y10117112D01*
X10208481Y10016516D02*
X10211312Y10019346D01*
X10208481Y10014649D02*
Y10016516D01*
X10201332Y10007500D02*
X10208481Y10014649D01*
X10194772Y10031926D02*
X10197311Y10034466D01*
X10197311Y10019346D02*
X10197311Y10019346D01*
X10197311Y10034466D02*
X10197311Y10034466D01*
X10197311Y10019346D02*
Y10034466D01*
X10194748Y10056530D02*
X10197311Y10053965D01*
X10194772Y10051426D02*
X10197311Y10053965D01*
X10182998Y10051426D02*
X10194772D01*
X10099787Y10052291D02*
X10100652Y10051426D01*
X10199081Y10152500D02*
X10201805Y10149776D01*
D21*
X10125744Y10057926D02*
X10148680D01*
X10169336D02*
X10183744D01*
X10057479Y10066772D02*
X10067485D01*
X10054005Y10070246D02*
Y10101096D01*
Y10070246D02*
X10057479Y10066772D01*
X10067485D02*
X10068474Y10065784D01*
X10122673Y10113843D02*
Y10115416D01*
Y10113843D02*
X10124970Y10111547D01*
X10133115D01*
X10134987Y10109675D01*
X10117730Y10120359D02*
X10122673Y10115416D01*
X10112712Y10120359D02*
X10117730D01*
X10105098Y10122463D02*
X10110609D01*
X10112712Y10120359D01*
X10102877Y10124683D02*
X10105098Y10122463D01*
X10102877Y10124683D02*
X10103207Y10125013D01*
Y10144148D01*
X10064165Y10115183D02*
X10080876D01*
X10056336Y10102572D02*
Y10105513D01*
X10060695Y10109873D01*
Y10112695D01*
X10054743Y10101834D02*
X10055598D01*
X10060695Y10112695D02*
X10063184Y10115183D01*
X10055598Y10101834D02*
X10056336Y10102572D01*
X10148680Y10093950D02*
X10148680Y10093950D01*
Y10057926D02*
Y10093950D01*
X10148680Y10057926D02*
X10148680Y10057926D01*
X10054005Y10101096D02*
X10054743Y10101834D01*
D22*
X10041973Y10081085D02*
D03*
Y10024484D02*
D03*
D23*
X10209410Y10082500D02*
D03*
D24*
X10089410D02*
D03*
D25*
X10124410Y10152500D02*
D03*
X10174410D02*
D03*
X10149410Y10007500D02*
D03*
X10124410D02*
D03*
X10174410D02*
D03*
D26*
X10185787Y10109675D02*
D03*
X10160386D02*
D03*
X10134987D02*
D03*
X10185787Y10135076D02*
D03*
X10134987D02*
D03*
X10160386D02*
D03*
D27*
X10054046Y10139183D02*
D03*
X10044176Y10130536D02*
D03*
X10148680Y10093950D02*
D03*
X10169336Y10057926D02*
D03*
X10148680D02*
D03*
D28*
X10084329Y10129683D02*
D03*
X10111495Y10069142D02*
D03*
X10073967Y10129683D02*
D03*
X10072223Y10101834D02*
D03*
X10090976Y10035594D02*
D03*
X10083662Y10031403D02*
D03*
Y10039785D02*
D03*
X10036048Y10045954D02*
D03*
Y10037572D02*
D03*
Y10054336D02*
D03*
X10052812D02*
D03*
X10044430D02*
D03*
X10052812Y10045954D02*
D03*
Y10037572D02*
D03*
X10044430D02*
D03*
X10091171Y10050853D02*
D03*
X10044430Y10045954D02*
D03*
X10111495Y10059775D02*
D03*
X10137552Y10064426D02*
D03*
%TF.MD5,edb3cb5fdc085ecd831b6c0bcb024249*%
M02*
