%TF.GenerationSoftware,Altium Limited,Altium Designer,20.1.8 (145)*%
G04 Layer_Color=417716*
%FSLAX44Y44*%
%MOMM*%
%TF.SameCoordinates,E54140C2-77ED-4701-9F9C-26571285D32F*%
%TF.FilePolarity,Negative*%
%TF.FileFunction,Soldermask,Bot*%
%TF.Part,Single*%
G01*
G75*
%TA.AperFunction,SMDPad,CuDef*%
G04:AMPARAMS|DCode=33|XSize=1mm|YSize=0.8mm|CornerRadius=0.0535mm|HoleSize=0mm|Usage=FLASHONLY|Rotation=90.000|XOffset=0mm|YOffset=0mm|HoleType=Round|Shape=RoundedRectangle|*
%AMROUNDEDRECTD33*
21,1,1.0000,0.6930,0,0,90.0*
21,1,0.8930,0.8000,0,0,90.0*
1,1,0.1070,0.3465,0.4465*
1,1,0.1070,0.3465,-0.4465*
1,1,0.1070,-0.3465,-0.4465*
1,1,0.1070,-0.3465,0.4465*
%
%ADD33ROUNDEDRECTD33*%
%TA.AperFunction,ComponentPad*%
%ADD34C,0.5000*%
%ADD35O,2.1000X1.6000*%
G04:AMPARAMS|DCode=36|XSize=1.85mm|YSize=3.35mm|CornerRadius=0.925mm|HoleSize=0mm|Usage=FLASHONLY|Rotation=180.000|XOffset=0mm|YOffset=0mm|HoleType=Round|Shape=RoundedRectangle|*
%AMROUNDEDRECTD36*
21,1,1.8500,1.5000,0,0,180.0*
21,1,0.0000,3.3500,0,0,180.0*
1,1,1.8500,0.0000,0.7500*
1,1,1.8500,0.0000,0.7500*
1,1,1.8500,0.0000,-0.7500*
1,1,1.8500,0.0000,-0.7500*
%
%ADD36ROUNDEDRECTD36*%
%ADD37O,1.8500X3.3500*%
%ADD38O,1.8500X1.1000*%
G04:AMPARAMS|DCode=39|XSize=1.2mm|YSize=1.6mm|CornerRadius=0.6mm|HoleSize=0mm|Usage=FLASHONLY|Rotation=0.000|XOffset=0mm|YOffset=0mm|HoleType=Round|Shape=RoundedRectangle|*
%AMROUNDEDRECTD39*
21,1,1.2000,0.4000,0,0,0.0*
21,1,0.0000,1.6000,0,0,0.0*
1,1,1.2000,0.0000,-0.2000*
1,1,1.2000,0.0000,-0.2000*
1,1,1.2000,0.0000,0.2000*
1,1,1.2000,0.0000,0.2000*
%
%ADD39ROUNDEDRECTD39*%
G36*
X10180521Y10086775D02*
X10180707Y10086729D01*
X10180892Y10086683D01*
X10181031Y10086613D01*
X10181169Y10086520D01*
X10181262Y10086474D01*
X10181309Y10086428D01*
X10181331Y10086405D01*
X10181470Y10086243D01*
X10181562Y10086081D01*
X10181655Y10085919D01*
X10181702Y10085757D01*
X10181725Y10085595D01*
X10181748Y10085502D01*
Y10085410D01*
Y10085387D01*
X10181725Y10085156D01*
X10181678Y10084947D01*
X10181609Y10084762D01*
X10181540Y10084623D01*
X10181470Y10084507D01*
X10181401Y10084415D01*
X10181354Y10084369D01*
X10181331Y10084346D01*
X10181169Y10084230D01*
X10180984Y10084137D01*
X10180822Y10084091D01*
X10180660Y10084045D01*
X10180521Y10084022D01*
X10180406Y10083998D01*
X10180313D01*
X10180105Y10084022D01*
X10179920Y10084068D01*
X10179734Y10084114D01*
X10179596Y10084183D01*
X10179481Y10084253D01*
X10179388Y10084323D01*
X10179341Y10084346D01*
X10179318Y10084369D01*
X10179180Y10084531D01*
X10179064Y10084692D01*
X10178994Y10084855D01*
X10178925Y10085016D01*
X10178902Y10085156D01*
X10178879Y10085271D01*
Y10085364D01*
Y10085387D01*
X10178902Y10085641D01*
X10178948Y10085850D01*
X10179017Y10086011D01*
X10179087Y10086174D01*
X10179180Y10086289D01*
X10179249Y10086359D01*
X10179295Y10086405D01*
X10179318Y10086428D01*
X10179481Y10086544D01*
X10179666Y10086636D01*
X10179827Y10086706D01*
X10179989Y10086752D01*
X10180105Y10086775D01*
X10180221Y10086798D01*
X10180313D01*
X10180521Y10086775D01*
D02*
G37*
G36*
X10174875Y10082610D02*
X10175060Y10082564D01*
X10175223Y10082495D01*
X10175361Y10082425D01*
X10175477Y10082355D01*
X10175547Y10082286D01*
X10175593Y10082240D01*
X10175616Y10082217D01*
X10175732Y10082054D01*
X10175825Y10081846D01*
X10175870Y10081638D01*
X10175917Y10081453D01*
X10175940Y10081268D01*
X10175963Y10081129D01*
Y10081036D01*
Y10080991D01*
Y10072683D01*
X10175940Y10072382D01*
X10175894Y10072128D01*
X10175847Y10071896D01*
X10175755Y10071735D01*
X10175685Y10071572D01*
X10175639Y10071480D01*
X10175593Y10071411D01*
X10175569Y10071387D01*
X10175408Y10071249D01*
X10175246Y10071133D01*
X10175084Y10071063D01*
X10174922Y10070994D01*
X10174760Y10070971D01*
X10174644Y10070948D01*
X10174551D01*
X10174320Y10070971D01*
X10174112Y10071017D01*
X10173927Y10071086D01*
X10173788Y10071156D01*
X10173672Y10071226D01*
X10173580Y10071295D01*
X10173533Y10071341D01*
X10173510Y10071364D01*
X10173372Y10071550D01*
X10173279Y10071758D01*
X10173187Y10071966D01*
X10173140Y10072197D01*
X10173117Y10072382D01*
X10173094Y10072545D01*
Y10072637D01*
Y10072683D01*
Y10076293D01*
Y10076617D01*
Y10076895D01*
X10173071Y10077172D01*
Y10077404D01*
X10173047Y10077635D01*
X10173024Y10077820D01*
X10172978Y10078144D01*
X10172955Y10078375D01*
X10172909Y10078561D01*
X10172886Y10078653D01*
Y10078676D01*
X10172770Y10078954D01*
X10172631Y10079208D01*
X10172469Y10079440D01*
X10172330Y10079625D01*
X10172191Y10079764D01*
X10172076Y10079857D01*
X10172006Y10079926D01*
X10171983Y10079949D01*
X10171729Y10080111D01*
X10171497Y10080226D01*
X10171243Y10080296D01*
X10171035Y10080366D01*
X10170849Y10080389D01*
X10170710Y10080412D01*
X10170572D01*
X10170155Y10080389D01*
X10169831Y10080296D01*
X10169553Y10080181D01*
X10169345Y10080042D01*
X10169183Y10079880D01*
X10169067Y10079764D01*
X10169021Y10079671D01*
X10168998Y10079648D01*
X10168859Y10079348D01*
X10168766Y10078977D01*
X10168674Y10078630D01*
X10168628Y10078283D01*
X10168605Y10077959D01*
X10168582Y10077704D01*
Y10077612D01*
Y10077543D01*
Y10077496D01*
Y10077473D01*
Y10072683D01*
X10168558Y10072382D01*
X10168512Y10072128D01*
X10168466Y10071896D01*
X10168373Y10071735D01*
X10168304Y10071572D01*
X10168257Y10071480D01*
X10168212Y10071411D01*
X10168188Y10071387D01*
X10168026Y10071249D01*
X10167864Y10071133D01*
X10167679Y10071063D01*
X10167517Y10070994D01*
X10167379Y10070971D01*
X10167263Y10070948D01*
X10167147D01*
X10166916Y10070971D01*
X10166730Y10071017D01*
X10166545Y10071086D01*
X10166406Y10071179D01*
X10166291Y10071249D01*
X10166198Y10071318D01*
X10166152Y10071364D01*
X10166129Y10071387D01*
X10165990Y10071572D01*
X10165897Y10071781D01*
X10165805Y10071989D01*
X10165759Y10072197D01*
X10165735Y10072382D01*
X10165712Y10072545D01*
Y10072637D01*
Y10072683D01*
Y10078029D01*
Y10078375D01*
X10165735Y10078676D01*
Y10078931D01*
X10165759Y10079163D01*
X10165782Y10079348D01*
Y10079463D01*
X10165805Y10079556D01*
Y10079579D01*
X10165897Y10080018D01*
X10165967Y10080226D01*
X10166013Y10080389D01*
X10166083Y10080527D01*
X10166129Y10080643D01*
X10166152Y10080713D01*
X10166175Y10080735D01*
X10166360Y10081060D01*
X10166569Y10081337D01*
X10166800Y10081569D01*
X10167008Y10081777D01*
X10167216Y10081916D01*
X10167379Y10082032D01*
X10167471Y10082101D01*
X10167517Y10082124D01*
X10167864Y10082286D01*
X10168212Y10082425D01*
X10168558Y10082518D01*
X10168882Y10082564D01*
X10169137Y10082610D01*
X10169368Y10082633D01*
X10169553D01*
X10169970Y10082610D01*
X10170363Y10082564D01*
X10170710Y10082471D01*
X10171011Y10082402D01*
X10171266Y10082309D01*
X10171451Y10082217D01*
X10171567Y10082170D01*
X10171613Y10082147D01*
X10171937Y10081962D01*
X10172261Y10081731D01*
X10172538Y10081476D01*
X10172793Y10081245D01*
X10172978Y10081036D01*
X10173140Y10080851D01*
X10173232Y10080735D01*
X10173279Y10080713D01*
Y10081036D01*
X10173302Y10081384D01*
X10173325Y10081522D01*
X10173372Y10081661D01*
X10173395Y10081754D01*
X10173441Y10081823D01*
X10173464Y10081870D01*
Y10081893D01*
X10173626Y10082147D01*
X10173765Y10082309D01*
X10173904Y10082425D01*
X10173927Y10082448D01*
X10173950D01*
X10174182Y10082564D01*
X10174413Y10082610D01*
X10174505Y10082633D01*
X10174644D01*
X10174875Y10082610D01*
D02*
G37*
G36*
X10162658D02*
X10162889Y10082541D01*
X10162959Y10082495D01*
X10163028Y10082448D01*
X10163074Y10082425D01*
X10163098D01*
X10163306Y10082263D01*
X10163468Y10082101D01*
X10163560Y10081962D01*
X10163607Y10081939D01*
Y10081916D01*
X10163723Y10081685D01*
X10163768Y10081476D01*
X10163792Y10081384D01*
Y10081314D01*
Y10081268D01*
Y10081245D01*
X10163768Y10081106D01*
X10163746Y10080921D01*
X10163630Y10080551D01*
X10163560Y10080389D01*
X10163514Y10080250D01*
X10163491Y10080157D01*
X10163468Y10080134D01*
X10159927Y10071202D01*
X10160205Y10070577D01*
X10160321Y10070323D01*
X10160413Y10070115D01*
X10160506Y10069930D01*
X10160576Y10069791D01*
X10160645Y10069675D01*
X10160691Y10069583D01*
X10160737Y10069536D01*
Y10069513D01*
X10160899Y10069282D01*
X10161061Y10069120D01*
X10161200Y10069027D01*
X10161223Y10069004D01*
X10161246D01*
X10161478Y10068912D01*
X10161732Y10068865D01*
X10161848Y10068842D01*
X10162010D01*
X10162172Y10068865D01*
X10162334Y10068889D01*
X10162450Y10068912D01*
X10162496D01*
X10162658Y10068958D01*
X10162797Y10068981D01*
X10163144D01*
X10163329Y10068934D01*
X10163491Y10068912D01*
X10163607Y10068865D01*
X10163699Y10068819D01*
X10163792Y10068773D01*
X10163815Y10068749D01*
X10163838Y10068726D01*
X10163931Y10068611D01*
X10164000Y10068495D01*
X10164092Y10068240D01*
X10164116Y10068125D01*
X10164139Y10068032D01*
Y10067963D01*
Y10067939D01*
X10164116Y10067685D01*
X10164046Y10067477D01*
X10163931Y10067315D01*
X10163815Y10067176D01*
X10163723Y10067061D01*
X10163607Y10066991D01*
X10163537Y10066968D01*
X10163514Y10066945D01*
X10163237Y10066852D01*
X10162936Y10066783D01*
X10162612Y10066736D01*
X10162311Y10066713D01*
X10162033Y10066690D01*
X10161802Y10066667D01*
X10161594D01*
X10161131Y10066690D01*
X10160714Y10066736D01*
X10160367Y10066806D01*
X10160067Y10066875D01*
X10159835Y10066945D01*
X10159673Y10067014D01*
X10159557Y10067061D01*
X10159534Y10067084D01*
X10159257Y10067245D01*
X10159025Y10067430D01*
X10158817Y10067616D01*
X10158632Y10067801D01*
X10158493Y10067963D01*
X10158400Y10068102D01*
X10158331Y10068194D01*
X10158307Y10068217D01*
X10158123Y10068518D01*
X10157961Y10068842D01*
X10157798Y10069166D01*
X10157660Y10069490D01*
X10157544Y10069791D01*
X10157452Y10070022D01*
X10157405Y10070115D01*
X10157382Y10070184D01*
X10157359Y10070208D01*
Y10070231D01*
X10153610Y10080042D01*
X10153518Y10080319D01*
X10153472Y10080551D01*
X10153425Y10080643D01*
Y10080713D01*
X10153402Y10080759D01*
Y10080782D01*
X10153333Y10081036D01*
X10153287Y10081222D01*
X10153240Y10081314D01*
Y10081360D01*
X10153264Y10081592D01*
X10153333Y10081777D01*
X10153402Y10081916D01*
X10153425Y10081939D01*
Y10081962D01*
X10153564Y10082170D01*
X10153726Y10082309D01*
X10153842Y10082425D01*
X10153865Y10082448D01*
X10153888D01*
X10154119Y10082564D01*
X10154305Y10082610D01*
X10154467Y10082633D01*
X10154513D01*
X10154814Y10082610D01*
X10155022Y10082564D01*
X10155161Y10082495D01*
X10155184Y10082471D01*
X10155207D01*
X10155300Y10082402D01*
X10155392Y10082309D01*
X10155554Y10082101D01*
X10155601Y10082009D01*
X10155647Y10081916D01*
X10155693Y10081870D01*
Y10081846D01*
X10155762Y10081661D01*
X10155855Y10081476D01*
X10156017Y10081060D01*
X10156086Y10080875D01*
X10156133Y10080735D01*
X10156156Y10080643D01*
X10156179Y10080597D01*
X10158470Y10074025D01*
X10160899Y10081083D01*
X10160992Y10081337D01*
X10161108Y10081569D01*
X10161200Y10081777D01*
X10161293Y10081939D01*
X10161362Y10082054D01*
X10161431Y10082147D01*
X10161454Y10082194D01*
X10161478Y10082217D01*
X10161594Y10082355D01*
X10161755Y10082448D01*
X10161895Y10082541D01*
X10162056Y10082587D01*
X10162195Y10082610D01*
X10162311Y10082633D01*
X10162404D01*
X10162658Y10082610D01*
D02*
G37*
G36*
X10144239Y10086891D02*
X10144447Y10086844D01*
X10144633Y10086752D01*
X10144794Y10086683D01*
X10144933Y10086590D01*
X10145026Y10086498D01*
X10145072Y10086451D01*
X10145095Y10086428D01*
X10145234Y10086243D01*
X10145327Y10086011D01*
X10145419Y10085780D01*
X10145466Y10085549D01*
X10145488Y10085341D01*
X10145511Y10085178D01*
Y10085063D01*
Y10085016D01*
Y10077589D01*
X10145488Y10076964D01*
X10145443Y10076385D01*
X10145396Y10075853D01*
X10145327Y10075414D01*
X10145257Y10075043D01*
X10145234Y10074905D01*
X10145188Y10074789D01*
X10145165Y10074697D01*
Y10074627D01*
X10145142Y10074581D01*
Y10074557D01*
X10144979Y10074118D01*
X10144794Y10073701D01*
X10144609Y10073354D01*
X10144401Y10073054D01*
X10144239Y10072822D01*
X10144100Y10072637D01*
X10144008Y10072545D01*
X10143961Y10072498D01*
X10143637Y10072220D01*
X10143290Y10071989D01*
X10142943Y10071781D01*
X10142619Y10071619D01*
X10142318Y10071480D01*
X10142087Y10071387D01*
X10141995Y10071364D01*
X10141925Y10071341D01*
X10141902Y10071318D01*
X10141879D01*
X10141370Y10071202D01*
X10140861Y10071110D01*
X10140328Y10071040D01*
X10139843Y10070994D01*
X10139426Y10070971D01*
X10139264D01*
X10139102Y10070948D01*
X10138801D01*
X10138246Y10070971D01*
X10137760Y10070994D01*
X10137321Y10071063D01*
X10136927Y10071133D01*
X10136626Y10071179D01*
X10136371Y10071249D01*
X10136302Y10071272D01*
X10136233D01*
X10136210Y10071295D01*
X10136187D01*
X10135793Y10071434D01*
X10135400Y10071619D01*
X10135076Y10071804D01*
X10134775Y10071989D01*
X10134543Y10072151D01*
X10134359Y10072290D01*
X10134266Y10072405D01*
X10134219Y10072429D01*
X10133873Y10072776D01*
X10133595Y10073146D01*
X10133364Y10073493D01*
X10133201Y10073817D01*
X10133063Y10074118D01*
X10132970Y10074326D01*
X10132947Y10074419D01*
X10132924Y10074488D01*
X10132901Y10074511D01*
Y10074534D01*
X10132785Y10075020D01*
X10132692Y10075529D01*
X10132623Y10076038D01*
X10132577Y10076525D01*
X10132554Y10076941D01*
X10132531Y10077126D01*
Y10077288D01*
Y10077404D01*
Y10077520D01*
Y10077565D01*
Y10077589D01*
Y10085016D01*
X10132554Y10085341D01*
X10132600Y10085641D01*
X10132669Y10085873D01*
X10132739Y10086081D01*
X10132831Y10086243D01*
X10132901Y10086335D01*
X10132947Y10086405D01*
X10132970Y10086428D01*
X10133155Y10086590D01*
X10133340Y10086706D01*
X10133525Y10086798D01*
X10133710Y10086844D01*
X10133873Y10086891D01*
X10134011Y10086914D01*
X10134127D01*
X10134382Y10086891D01*
X10134590Y10086844D01*
X10134775Y10086752D01*
X10134937Y10086683D01*
X10135076Y10086590D01*
X10135168Y10086498D01*
X10135215Y10086451D01*
X10135237Y10086428D01*
X10135377Y10086243D01*
X10135469Y10086011D01*
X10135562Y10085780D01*
X10135608Y10085549D01*
X10135631Y10085341D01*
X10135654Y10085178D01*
Y10085063D01*
Y10085016D01*
Y10077335D01*
Y10076987D01*
X10135677Y10076640D01*
X10135724Y10076339D01*
X10135770Y10076038D01*
X10135839Y10075784D01*
X10135886Y10075529D01*
X10136025Y10075136D01*
X10136187Y10074812D01*
X10136302Y10074581D01*
X10136395Y10074442D01*
X10136418Y10074396D01*
X10136580Y10074233D01*
X10136742Y10074072D01*
X10137135Y10073840D01*
X10137575Y10073655D01*
X10137991Y10073539D01*
X10138384Y10073470D01*
X10138570Y10073447D01*
X10138708D01*
X10138824Y10073423D01*
X10139009D01*
X10139472Y10073447D01*
X10139889Y10073493D01*
X10140259Y10073563D01*
X10140560Y10073655D01*
X10140791Y10073748D01*
X10140953Y10073817D01*
X10141046Y10073864D01*
X10141092Y10073887D01*
X10141346Y10074095D01*
X10141555Y10074303D01*
X10141740Y10074534D01*
X10141879Y10074742D01*
X10141971Y10074928D01*
X10142040Y10075090D01*
X10142087Y10075182D01*
X10142110Y10075229D01*
X10142203Y10075576D01*
X10142272Y10075946D01*
X10142318Y10076293D01*
X10142341Y10076640D01*
X10142365Y10076941D01*
X10142388Y10077195D01*
Y10077288D01*
Y10077357D01*
Y10077380D01*
Y10077404D01*
Y10085016D01*
X10142411Y10085341D01*
X10142457Y10085641D01*
X10142527Y10085873D01*
X10142596Y10086081D01*
X10142689Y10086243D01*
X10142758Y10086335D01*
X10142805Y10086405D01*
X10142828Y10086428D01*
X10142990Y10086590D01*
X10143174Y10086706D01*
X10143383Y10086798D01*
X10143568Y10086844D01*
X10143730Y10086891D01*
X10143868Y10086914D01*
X10143984D01*
X10144239Y10086891D01*
D02*
G37*
G36*
X10113209Y10086636D02*
X10113510Y10086590D01*
X10113765Y10086520D01*
X10113973Y10086428D01*
X10114135Y10086335D01*
X10114227Y10086266D01*
X10114297Y10086220D01*
X10114319Y10086197D01*
X10114459Y10086011D01*
X10114575Y10085780D01*
X10114644Y10085549D01*
X10114713Y10085294D01*
X10114736Y10085086D01*
X10114760Y10084901D01*
Y10084785D01*
Y10084762D01*
Y10084739D01*
Y10073100D01*
X10114736Y10072753D01*
X10114690Y10072452D01*
X10114620Y10072197D01*
X10114551Y10071989D01*
X10114482Y10071850D01*
X10114412Y10071735D01*
X10114366Y10071665D01*
X10114343Y10071642D01*
X10114158Y10071503D01*
X10113926Y10071387D01*
X10113672Y10071318D01*
X10113441Y10071249D01*
X10113209Y10071226D01*
X10113024Y10071202D01*
X10107702D01*
X10107285Y10071226D01*
X10106938Y10071249D01*
X10106614Y10071272D01*
X10106360D01*
X10106175Y10071295D01*
X10106059Y10071318D01*
X10106013D01*
X10105666Y10071364D01*
X10105365Y10071434D01*
X10105087Y10071503D01*
X10104856Y10071572D01*
X10104670Y10071642D01*
X10104509Y10071688D01*
X10104416Y10071711D01*
X10104393Y10071735D01*
X10104000Y10071943D01*
X10103629Y10072174D01*
X10103328Y10072429D01*
X10103074Y10072683D01*
X10102866Y10072914D01*
X10102704Y10073100D01*
X10102611Y10073215D01*
X10102588Y10073262D01*
X10102357Y10073655D01*
X10102195Y10074072D01*
X10102079Y10074465D01*
X10102010Y10074812D01*
X10101940Y10075136D01*
X10101917Y10075391D01*
Y10075483D01*
Y10075552D01*
Y10075576D01*
Y10075599D01*
X10101940Y10076108D01*
X10102056Y10076570D01*
X10102195Y10076987D01*
X10102403Y10077380D01*
X10102634Y10077704D01*
X10102889Y10078029D01*
X10103167Y10078306D01*
X10103444Y10078538D01*
X10103722Y10078746D01*
X10104000Y10078907D01*
X10104254Y10079070D01*
X10104485Y10079185D01*
X10104694Y10079255D01*
X10104833Y10079324D01*
X10104925Y10079371D01*
X10104971D01*
X10104555Y10079579D01*
X10104208Y10079833D01*
X10103907Y10080088D01*
X10103629Y10080366D01*
X10103398Y10080643D01*
X10103213Y10080921D01*
X10103074Y10081199D01*
X10102935Y10081476D01*
X10102842Y10081731D01*
X10102773Y10081985D01*
X10102727Y10082194D01*
X10102704Y10082402D01*
X10102681Y10082541D01*
X10102657Y10082679D01*
Y10082749D01*
Y10082772D01*
X10102704Y10083258D01*
X10102727Y10083466D01*
X10102773Y10083651D01*
X10102819Y10083813D01*
X10102842Y10083952D01*
X10102889Y10084022D01*
Y10084045D01*
X10103074Y10084484D01*
X10103167Y10084669D01*
X10103282Y10084832D01*
X10103375Y10084970D01*
X10103444Y10085063D01*
X10103491Y10085132D01*
X10103514Y10085155D01*
X10103838Y10085502D01*
X10104000Y10085641D01*
X10104161Y10085757D01*
X10104277Y10085850D01*
X10104393Y10085942D01*
X10104462Y10085965D01*
X10104485Y10085988D01*
X10104740Y10086127D01*
X10104995Y10086243D01*
X10105226Y10086335D01*
X10105457Y10086405D01*
X10105643Y10086451D01*
X10105804Y10086497D01*
X10105897Y10086520D01*
X10105944D01*
X10106267Y10086567D01*
X10106591Y10086613D01*
X10106915Y10086636D01*
X10107216D01*
X10107471Y10086660D01*
X10112862D01*
X10113209Y10086636D01*
D02*
G37*
G36*
X10195238Y10086636D02*
X10195469Y10086613D01*
X10195678Y10086544D01*
X10195840Y10086474D01*
X10195979Y10086405D01*
X10196071Y10086359D01*
X10196118Y10086312D01*
X10196141Y10086289D01*
X10196279Y10086151D01*
X10196372Y10085988D01*
X10196442Y10085826D01*
X10196487Y10085688D01*
X10196511Y10085549D01*
X10196534Y10085433D01*
Y10085364D01*
Y10085341D01*
X10196511Y10085132D01*
X10196465Y10084947D01*
X10196418Y10084785D01*
X10196349Y10084669D01*
X10196279Y10084554D01*
X10196210Y10084484D01*
X10196187Y10084438D01*
X10196164Y10084415D01*
X10196002Y10084299D01*
X10195817Y10084207D01*
X10195609Y10084160D01*
X10195424Y10084114D01*
X10195238Y10084091D01*
X10195099Y10084068D01*
X10191536D01*
Y10072845D01*
X10191513Y10072498D01*
X10191467Y10072220D01*
X10191397Y10071966D01*
X10191328Y10071758D01*
X10191258Y10071619D01*
X10191189Y10071503D01*
X10191143Y10071434D01*
X10191119Y10071411D01*
X10190934Y10071249D01*
X10190749Y10071133D01*
X10190564Y10071063D01*
X10190379Y10071017D01*
X10190217Y10070971D01*
X10190101Y10070948D01*
X10189985D01*
X10189731Y10070971D01*
X10189523Y10071017D01*
X10189315Y10071086D01*
X10189152Y10071179D01*
X10189037Y10071272D01*
X10188921Y10071341D01*
X10188875Y10071387D01*
X10188852Y10071411D01*
X10188713Y10071595D01*
X10188597Y10071827D01*
X10188528Y10072059D01*
X10188458Y10072313D01*
X10188435Y10072521D01*
X10188412Y10072683D01*
Y10072799D01*
Y10072845D01*
Y10084068D01*
X10185010D01*
X10184733Y10084091D01*
X10184478Y10084114D01*
X10184270Y10084183D01*
X10184108Y10084253D01*
X10183969Y10084299D01*
X10183877Y10084369D01*
X10183831Y10084392D01*
X10183807Y10084415D01*
X10183668Y10084554D01*
X10183576Y10084716D01*
X10183506Y10084855D01*
X10183460Y10085016D01*
X10183437Y10085132D01*
X10183414Y10085248D01*
Y10085317D01*
Y10085341D01*
X10183437Y10085549D01*
X10183483Y10085734D01*
X10183530Y10085896D01*
X10183599Y10086035D01*
X10183691Y10086151D01*
X10183738Y10086220D01*
X10183784Y10086266D01*
X10183807Y10086289D01*
X10183969Y10086405D01*
X10184155Y10086498D01*
X10184363Y10086567D01*
X10184548Y10086613D01*
X10184733Y10086636D01*
X10184872Y10086660D01*
X10194960D01*
X10195238Y10086636D01*
D02*
G37*
G36*
X10180568Y10082610D02*
X10180753Y10082564D01*
X10180938Y10082495D01*
X10181077Y10082425D01*
X10181193Y10082332D01*
X10181285Y10082263D01*
X10181331Y10082217D01*
X10181354Y10082194D01*
X10181494Y10082009D01*
X10181586Y10081800D01*
X10181655Y10081592D01*
X10181702Y10081384D01*
X10181725Y10081199D01*
X10181748Y10081036D01*
Y10080944D01*
Y10080898D01*
Y10072683D01*
X10181725Y10072382D01*
X10181678Y10072128D01*
X10181632Y10071896D01*
X10181540Y10071735D01*
X10181470Y10071572D01*
X10181424Y10071480D01*
X10181378Y10071411D01*
X10181354Y10071387D01*
X10181193Y10071249D01*
X10181031Y10071133D01*
X10180869Y10071063D01*
X10180707Y10070994D01*
X10180544Y10070971D01*
X10180429Y10070948D01*
X10180336D01*
X10180105Y10070971D01*
X10179920Y10071017D01*
X10179734Y10071086D01*
X10179573Y10071179D01*
X10179457Y10071249D01*
X10179365Y10071318D01*
X10179318Y10071364D01*
X10179295Y10071387D01*
X10179156Y10071572D01*
X10179064Y10071781D01*
X10178971Y10071989D01*
X10178925Y10072197D01*
X10178902Y10072382D01*
X10178879Y10072545D01*
Y10072637D01*
Y10072683D01*
Y10080991D01*
X10178902Y10081268D01*
X10178948Y10081499D01*
X10179017Y10081708D01*
X10179087Y10081870D01*
X10179156Y10082009D01*
X10179225Y10082124D01*
X10179272Y10082170D01*
X10179295Y10082194D01*
X10179457Y10082332D01*
X10179642Y10082448D01*
X10179804Y10082518D01*
X10179966Y10082587D01*
X10180105Y10082610D01*
X10180221Y10082633D01*
X10180336D01*
X10180568Y10082610D01*
D02*
G37*
G36*
X10124224Y10086891D02*
X10124802Y10086821D01*
X10125334Y10086752D01*
X10125797Y10086660D01*
X10125982Y10086590D01*
X10126167Y10086544D01*
X10126306Y10086498D01*
X10126445Y10086474D01*
X10126537Y10086428D01*
X10126606Y10086405D01*
X10126653Y10086382D01*
X10126676D01*
X10127139Y10086174D01*
X10127532Y10085919D01*
X10127880Y10085665D01*
X10128157Y10085410D01*
X10128389Y10085201D01*
X10128527Y10085016D01*
X10128643Y10084901D01*
X10128666Y10084878D01*
Y10084855D01*
X10128898Y10084461D01*
X10129059Y10084091D01*
X10129199Y10083698D01*
X10129268Y10083350D01*
X10129314Y10083050D01*
X10129337Y10082795D01*
X10129360Y10082703D01*
Y10082633D01*
Y10082610D01*
Y10082587D01*
X10129337Y10082101D01*
X10129268Y10081661D01*
X10129152Y10081291D01*
X10129036Y10080967D01*
X10128921Y10080690D01*
X10128805Y10080504D01*
X10128735Y10080389D01*
X10128712Y10080342D01*
X10128458Y10080018D01*
X10128157Y10079741D01*
X10127880Y10079486D01*
X10127579Y10079278D01*
X10127347Y10079116D01*
X10127139Y10079000D01*
X10127000Y10078931D01*
X10126977Y10078907D01*
X10126954D01*
X10126514Y10078723D01*
X10126028Y10078561D01*
X10125566Y10078398D01*
X10125126Y10078260D01*
X10124733Y10078167D01*
X10124570Y10078121D01*
X10124432Y10078075D01*
X10124316Y10078052D01*
X10124224Y10078029D01*
X10124177Y10078005D01*
X10124154D01*
X10123715Y10077913D01*
X10123321Y10077797D01*
X10122974Y10077704D01*
X10122696Y10077635D01*
X10122465Y10077565D01*
X10122303Y10077520D01*
X10122187Y10077496D01*
X10122164Y10077473D01*
X10121909Y10077357D01*
X10121655Y10077242D01*
X10121447Y10077126D01*
X10121285Y10077010D01*
X10121146Y10076895D01*
X10121053Y10076802D01*
X10120984Y10076756D01*
X10120961Y10076733D01*
X10120799Y10076547D01*
X10120683Y10076339D01*
X10120590Y10076131D01*
X10120544Y10075946D01*
X10120498Y10075760D01*
X10120475Y10075622D01*
Y10075529D01*
Y10075483D01*
X10120521Y10075136D01*
X10120613Y10074835D01*
X10120753Y10074557D01*
X10120914Y10074326D01*
X10121077Y10074141D01*
X10121215Y10074002D01*
X10121308Y10073909D01*
X10121354Y10073887D01*
X10121701Y10073678D01*
X10122072Y10073516D01*
X10122465Y10073400D01*
X10122812Y10073331D01*
X10123136Y10073285D01*
X10123391Y10073239D01*
X10123622D01*
X10123969Y10073262D01*
X10124293Y10073285D01*
X10124570Y10073331D01*
X10124802Y10073401D01*
X10124987Y10073447D01*
X10125126Y10073493D01*
X10125219Y10073516D01*
X10125242Y10073539D01*
X10125473Y10073678D01*
X10125658Y10073794D01*
X10125820Y10073932D01*
X10125959Y10074072D01*
X10126074Y10074187D01*
X10126144Y10074280D01*
X10126190Y10074326D01*
X10126213Y10074349D01*
X10126468Y10074766D01*
X10126561Y10074974D01*
X10126653Y10075159D01*
X10126722Y10075344D01*
X10126792Y10075483D01*
X10126815Y10075576D01*
X10126838Y10075599D01*
X10126931Y10075830D01*
X10127047Y10076015D01*
X10127139Y10076177D01*
X10127231Y10076293D01*
X10127324Y10076385D01*
X10127370Y10076478D01*
X10127416Y10076501D01*
X10127440Y10076525D01*
X10127579Y10076640D01*
X10127694Y10076710D01*
X10127972Y10076802D01*
X10128088Y10076825D01*
X10128180Y10076848D01*
X10128273D01*
X10128481Y10076825D01*
X10128690Y10076779D01*
X10128851Y10076710D01*
X10128990Y10076640D01*
X10129106Y10076570D01*
X10129199Y10076501D01*
X10129244Y10076455D01*
X10129268Y10076432D01*
X10129407Y10076270D01*
X10129499Y10076108D01*
X10129568Y10075969D01*
X10129615Y10075807D01*
X10129638Y10075692D01*
X10129661Y10075576D01*
Y10075506D01*
Y10075483D01*
X10129638Y10075113D01*
X10129568Y10074742D01*
X10129453Y10074396D01*
X10129337Y10074095D01*
X10129222Y10073840D01*
X10129106Y10073632D01*
X10129036Y10073493D01*
X10129013Y10073470D01*
Y10073447D01*
X10128735Y10073077D01*
X10128458Y10072753D01*
X10128180Y10072475D01*
X10127903Y10072244D01*
X10127671Y10072059D01*
X10127463Y10071920D01*
X10127347Y10071827D01*
X10127301Y10071804D01*
X10126722Y10071526D01*
X10126074Y10071318D01*
X10125450Y10071156D01*
X10124848Y10071063D01*
X10124594Y10071017D01*
X10124339Y10070994D01*
X10124108Y10070971D01*
X10123900Y10070971D01*
X10123760Y10070948D01*
X10123529D01*
X10122835Y10070971D01*
X10122210Y10071040D01*
X10121655Y10071156D01*
X10121169Y10071272D01*
X10120961Y10071318D01*
X10120776Y10071364D01*
X10120613Y10071434D01*
X10120498Y10071480D01*
X10120382Y10071526D01*
X10120312Y10071550D01*
X10120267Y10071572D01*
X10120244D01*
X10119758Y10071827D01*
X10119318Y10072104D01*
X10118971Y10072405D01*
X10118670Y10072683D01*
X10118439Y10072914D01*
X10118276Y10073123D01*
X10118161Y10073262D01*
X10118138Y10073285D01*
Y10073308D01*
X10117883Y10073748D01*
X10117698Y10074187D01*
X10117582Y10074604D01*
X10117490Y10074997D01*
X10117443Y10075321D01*
X10117397Y10075599D01*
Y10075692D01*
Y10075760D01*
Y10075807D01*
Y10075830D01*
X10117421Y10076247D01*
X10117466Y10076640D01*
X10117536Y10076964D01*
X10117606Y10077265D01*
X10117675Y10077496D01*
X10117744Y10077658D01*
X10117791Y10077751D01*
X10117814Y10077797D01*
X10117976Y10078098D01*
X10118161Y10078353D01*
X10118369Y10078584D01*
X10118554Y10078769D01*
X10118716Y10078931D01*
X10118855Y10079047D01*
X10118948Y10079116D01*
X10118971Y10079139D01*
X10119272Y10079324D01*
X10119572Y10079509D01*
X10119873Y10079648D01*
X10120151Y10079787D01*
X10120405Y10079903D01*
X10120590Y10079972D01*
X10120729Y10080018D01*
X10120753Y10080042D01*
X10120776D01*
X10121586Y10080296D01*
X10121979Y10080412D01*
X10122349Y10080527D01*
X10122673Y10080597D01*
X10122905Y10080667D01*
X10122997Y10080690D01*
X10123066D01*
X10123113Y10080713D01*
X10123136D01*
X10123506Y10080805D01*
X10123807Y10080875D01*
X10124061Y10080944D01*
X10124269Y10081013D01*
X10124432Y10081060D01*
X10124547Y10081083D01*
X10124617Y10081106D01*
X10124640D01*
X10124964Y10081222D01*
X10125265Y10081337D01*
X10125380Y10081407D01*
X10125473Y10081430D01*
X10125519Y10081476D01*
X10125543D01*
X10125843Y10081685D01*
X10126052Y10081870D01*
X10126190Y10082009D01*
X10126213Y10082032D01*
X10126237Y10082054D01*
X10126375Y10082332D01*
X10126445Y10082587D01*
Y10082703D01*
X10126468Y10082795D01*
Y10082841D01*
Y10082864D01*
X10126445Y10083142D01*
X10126352Y10083397D01*
X10126237Y10083605D01*
X10126097Y10083790D01*
X10125959Y10083952D01*
X10125843Y10084068D01*
X10125751Y10084137D01*
X10125728Y10084160D01*
X10125427Y10084346D01*
X10125103Y10084461D01*
X10124778Y10084554D01*
X10124478Y10084623D01*
X10124200Y10084669D01*
X10123992Y10084692D01*
X10123784Y10084692D01*
X10123321Y10084669D01*
X10122950Y10084623D01*
X10122627Y10084531D01*
X10122349Y10084438D01*
X10122164Y10084346D01*
X10122025Y10084253D01*
X10121932Y10084207D01*
X10121909Y10084183D01*
X10121701Y10083998D01*
X10121493Y10083767D01*
X10121308Y10083536D01*
X10121169Y10083327D01*
X10121030Y10083142D01*
X10120938Y10082980D01*
X10120891Y10082888D01*
X10120868Y10082841D01*
X10120753Y10082633D01*
X10120637Y10082448D01*
X10120544Y10082286D01*
X10120452Y10082147D01*
X10120382Y10082054D01*
X10120312Y10081985D01*
X10120290Y10081962D01*
X10120267Y10081939D01*
X10120151Y10081846D01*
X10120012Y10081800D01*
X10119758Y10081708D01*
X10119642D01*
X10119549Y10081685D01*
X10119457D01*
X10119249Y10081708D01*
X10119063Y10081754D01*
X10118901Y10081823D01*
X10118762Y10081916D01*
X10118647Y10081985D01*
X10118554Y10082054D01*
X10118508Y10082101D01*
X10118484Y10082124D01*
X10118346Y10082286D01*
X10118253Y10082471D01*
X10118184Y10082633D01*
X10118138Y10082795D01*
X10118115Y10082934D01*
X10118091Y10083050D01*
Y10083119D01*
Y10083142D01*
X10118115Y10083373D01*
X10118138Y10083582D01*
X10118184Y10083790D01*
X10118253Y10083975D01*
X10118323Y10084137D01*
X10118369Y10084253D01*
X10118392Y10084346D01*
X10118416Y10084369D01*
X10118554Y10084600D01*
X10118693Y10084832D01*
X10118855Y10085040D01*
X10119017Y10085225D01*
X10119179Y10085387D01*
X10119294Y10085502D01*
X10119387Y10085572D01*
X10119410Y10085595D01*
X10119665Y10085803D01*
X10119966Y10085988D01*
X10120244Y10086151D01*
X10120521Y10086289D01*
X10120753Y10086405D01*
X10120938Y10086474D01*
X10121077Y10086520D01*
X10121100Y10086544D01*
X10121122D01*
X10121516Y10086660D01*
X10121956Y10086752D01*
X10122349Y10086821D01*
X10122742Y10086868D01*
X10123066Y10086891D01*
X10123344Y10086914D01*
X10123575D01*
X10124224Y10086891D01*
D02*
G37*
G36*
X10141456Y10051453D02*
X10141641Y10051406D01*
X10141826Y10051337D01*
X10141965Y10051268D01*
X10142081Y10051198D01*
X10142150Y10051129D01*
X10142196Y10051083D01*
X10142219Y10051060D01*
X10142335Y10050897D01*
X10142427Y10050689D01*
X10142497Y10050481D01*
X10142543Y10050295D01*
X10142567Y10050110D01*
X10142589Y10049972D01*
Y10049879D01*
Y10049833D01*
Y10041619D01*
X10142567Y10041295D01*
X10142520Y10041017D01*
X10142474Y10040786D01*
X10142381Y10040601D01*
X10142312Y10040438D01*
X10142266Y10040346D01*
X10142219Y10040276D01*
X10142196Y10040253D01*
X10142034Y10040114D01*
X10141849Y10039999D01*
X10141664Y10039929D01*
X10141502Y10039860D01*
X10141340Y10039836D01*
X10141224Y10039814D01*
X10141108D01*
X10140877Y10039836D01*
X10140669Y10039883D01*
X10140484Y10039952D01*
X10140322Y10040045D01*
X10140206Y10040114D01*
X10140114Y10040184D01*
X10140067Y10040230D01*
X10140044Y10040253D01*
X10139905Y10040438D01*
X10139813Y10040670D01*
X10139720Y10040878D01*
X10139674Y10041110D01*
X10139651Y10041318D01*
X10139628Y10041479D01*
Y10041572D01*
Y10041619D01*
Y10045506D01*
X10139604Y10046154D01*
X10139558Y10046709D01*
X10139489Y10047172D01*
X10139396Y10047565D01*
X10139327Y10047889D01*
X10139257Y10048098D01*
X10139211Y10048236D01*
X10139188Y10048282D01*
X10138979Y10048607D01*
X10138702Y10048838D01*
X10138401Y10049023D01*
X10138101Y10049139D01*
X10137800Y10049208D01*
X10137568Y10049232D01*
X10137476Y10049255D01*
X10137337D01*
X10137083Y10049232D01*
X10136874Y10049185D01*
X10136689Y10049139D01*
X10136550Y10049069D01*
X10136434Y10048977D01*
X10136365Y10048931D01*
X10136319Y10048884D01*
X10136296Y10048861D01*
X10136180Y10048699D01*
X10136087Y10048537D01*
X10135972Y10048214D01*
X10135948Y10048074D01*
X10135925Y10047959D01*
X10135902Y10047889D01*
Y10047866D01*
X10135879Y10047612D01*
X10135856Y10047357D01*
X10135833Y10047079D01*
X10135809Y10046802D01*
Y10046570D01*
Y10046385D01*
Y10046246D01*
Y10046223D01*
Y10046200D01*
Y10041619D01*
X10135787Y10041295D01*
X10135740Y10041017D01*
X10135694Y10040786D01*
X10135601Y10040601D01*
X10135532Y10040438D01*
X10135486Y10040346D01*
X10135439Y10040276D01*
X10135416Y10040253D01*
X10135255Y10040114D01*
X10135069Y10039999D01*
X10134907Y10039929D01*
X10134722Y10039860D01*
X10134583Y10039836D01*
X10134468Y10039814D01*
X10134352D01*
X10134120Y10039836D01*
X10133889Y10039883D01*
X10133704Y10039952D01*
X10133565Y10040045D01*
X10133426Y10040114D01*
X10133334Y10040184D01*
X10133287Y10040230D01*
X10133264Y10040253D01*
X10133126Y10040438D01*
X10133033Y10040670D01*
X10132940Y10040878D01*
X10132894Y10041110D01*
X10132871Y10041318D01*
X10132848Y10041479D01*
Y10041572D01*
Y10041619D01*
Y10045436D01*
Y10045760D01*
X10132825Y10046061D01*
Y10046362D01*
X10132802Y10046617D01*
X10132778Y10046848D01*
X10132755Y10047056D01*
X10132686Y10047404D01*
X10132640Y10047681D01*
X10132593Y10047866D01*
X10132570Y10047982D01*
X10132547Y10048005D01*
X10132316Y10048375D01*
X10132177Y10048537D01*
X10132038Y10048676D01*
X10131945Y10048768D01*
X10131853Y10048838D01*
X10131783Y10048884D01*
X10131760Y10048907D01*
X10131552Y10049023D01*
X10131367Y10049116D01*
X10131182Y10049162D01*
X10131020Y10049208D01*
X10130881Y10049232D01*
X10130765Y10049255D01*
X10130673D01*
X10130418Y10049232D01*
X10130210Y10049185D01*
X10130024Y10049139D01*
X10129863Y10049069D01*
X10129747Y10048977D01*
X10129678Y10048931D01*
X10129631Y10048884D01*
X10129608Y10048861D01*
X10129493Y10048723D01*
X10129400Y10048560D01*
X10129261Y10048259D01*
X10129238Y10048121D01*
X10129215Y10048028D01*
X10129192Y10047959D01*
Y10047936D01*
X10129169Y10047704D01*
X10129146Y10047473D01*
X10129122Y10047218D01*
X10129099Y10046987D01*
Y10046779D01*
Y10046617D01*
Y10046501D01*
Y10046454D01*
Y10041619D01*
X10129076Y10041295D01*
X10129030Y10041017D01*
X10128961Y10040786D01*
X10128891Y10040601D01*
X10128821Y10040438D01*
X10128752Y10040346D01*
X10128706Y10040276D01*
X10128683Y10040253D01*
X10128521Y10040114D01*
X10128336Y10039999D01*
X10128174Y10039929D01*
X10127988Y10039860D01*
X10127850Y10039836D01*
X10127734Y10039814D01*
X10127618D01*
X10127387Y10039836D01*
X10127156Y10039883D01*
X10126970Y10039952D01*
X10126832Y10040045D01*
X10126693Y10040114D01*
X10126600Y10040184D01*
X10126554Y10040230D01*
X10126531Y10040253D01*
X10126392Y10040438D01*
X10126299Y10040670D01*
X10126207Y10040878D01*
X10126160Y10041110D01*
X10126137Y10041318D01*
X10126115Y10041479D01*
Y10041572D01*
Y10041619D01*
Y10047218D01*
X10126137Y10047820D01*
X10126160Y10048306D01*
X10126230Y10048745D01*
X10126299Y10049069D01*
X10126368Y10049347D01*
X10126415Y10049532D01*
X10126461Y10049625D01*
X10126484Y10049671D01*
X10126669Y10049972D01*
X10126878Y10050250D01*
X10127086Y10050458D01*
X10127294Y10050643D01*
X10127479Y10050805D01*
X10127642Y10050897D01*
X10127734Y10050967D01*
X10127780Y10050990D01*
X10128104Y10051152D01*
X10128452Y10051268D01*
X10128775Y10051360D01*
X10129099Y10051406D01*
X10129377Y10051453D01*
X10129585Y10051476D01*
X10129794D01*
X10130164Y10051453D01*
X10130511Y10051406D01*
X10130834Y10051337D01*
X10131089Y10051268D01*
X10131321Y10051175D01*
X10131506Y10051105D01*
X10131598Y10051060D01*
X10131644Y10051036D01*
X10131945Y10050851D01*
X10132246Y10050666D01*
X10132501Y10050435D01*
X10132732Y10050226D01*
X10132940Y10050018D01*
X10133079Y10049856D01*
X10133195Y10049764D01*
X10133218Y10049717D01*
X10133403Y10050018D01*
X10133611Y10050295D01*
X10133843Y10050527D01*
X10134028Y10050712D01*
X10134213Y10050851D01*
X10134352Y10050944D01*
X10134445Y10051013D01*
X10134491Y10051036D01*
X10134791Y10051175D01*
X10135115Y10051291D01*
X10135439Y10051360D01*
X10135717Y10051429D01*
X10135972Y10051453D01*
X10136180Y10051476D01*
X10136365D01*
X10136735Y10051453D01*
X10137105Y10051406D01*
X10137429Y10051337D01*
X10137707Y10051268D01*
X10137938Y10051175D01*
X10138101Y10051105D01*
X10138216Y10051060D01*
X10138262Y10051036D01*
X10138586Y10050851D01*
X10138864Y10050666D01*
X10139142Y10050435D01*
X10139373Y10050226D01*
X10139581Y10050018D01*
X10139720Y10049856D01*
X10139836Y10049764D01*
X10139859Y10049717D01*
Y10049995D01*
X10139882Y10050250D01*
X10139929Y10050458D01*
X10139975Y10050643D01*
X10140044Y10050805D01*
X10140137Y10050920D01*
X10140183Y10051013D01*
X10140229Y10051060D01*
X10140253Y10051083D01*
X10140414Y10051221D01*
X10140576Y10051314D01*
X10140739Y10051383D01*
X10140900Y10051429D01*
X10141039Y10051453D01*
X10141155Y10051476D01*
X10141248D01*
X10141456Y10051453D01*
D02*
G37*
G36*
X10188799Y10055757D02*
X10189007Y10055710D01*
X10189193Y10055641D01*
X10189354Y10055548D01*
X10189470Y10055456D01*
X10189586Y10055386D01*
X10189632Y10055340D01*
X10189655Y10055317D01*
X10189794Y10055155D01*
X10189886Y10054970D01*
X10189979Y10054808D01*
X10190025Y10054669D01*
X10190048Y10054530D01*
X10190071Y10054438D01*
Y10054368D01*
Y10054345D01*
Y10054183D01*
X10190048Y10054021D01*
X10190025Y10053882D01*
Y10053859D01*
Y10053836D01*
X10189979Y10053628D01*
X10189910Y10053443D01*
X10189886Y10053304D01*
X10189863Y10053281D01*
Y10053257D01*
X10189771Y10053073D01*
X10189724Y10052888D01*
X10189678Y10052772D01*
X10189655Y10052748D01*
Y10052725D01*
X10185976Y10042729D01*
X10185837Y10042313D01*
X10185768Y10042128D01*
X10185698Y10041965D01*
X10185652Y10041827D01*
X10185605Y10041711D01*
X10185582Y10041642D01*
Y10041619D01*
X10185421Y10041271D01*
X10185351Y10041110D01*
X10185281Y10040970D01*
X10185212Y10040855D01*
X10185166Y10040762D01*
X10185120Y10040716D01*
Y10040693D01*
X10184888Y10040438D01*
X10184657Y10040230D01*
X10184564Y10040161D01*
X10184472Y10040114D01*
X10184426Y10040068D01*
X10184402D01*
X10184240Y10039976D01*
X10184055Y10039929D01*
X10183708Y10039836D01*
X10183569D01*
X10183431Y10039814D01*
X10183338D01*
X10183107Y10039836D01*
X10182899Y10039860D01*
X10182713Y10039906D01*
X10182551Y10039952D01*
X10182435Y10039999D01*
X10182343Y10040022D01*
X10182297Y10040068D01*
X10182274D01*
X10181973Y10040253D01*
X10181765Y10040461D01*
X10181672Y10040554D01*
X10181625Y10040624D01*
X10181580Y10040670D01*
Y10040693D01*
X10181394Y10040994D01*
X10181232Y10041295D01*
X10181186Y10041433D01*
X10181140Y10041526D01*
X10181116Y10041595D01*
Y10041619D01*
X10180955Y10042012D01*
X10180885Y10042197D01*
X10180839Y10042382D01*
X10180770Y10042521D01*
X10180746Y10042637D01*
X10180700Y10042706D01*
Y10042729D01*
X10176951Y10052818D01*
X10176882Y10053003D01*
X10176813Y10053165D01*
X10176790Y10053281D01*
X10176766Y10053327D01*
X10176697Y10053535D01*
X10176650Y10053697D01*
X10176605Y10053813D01*
Y10053859D01*
X10176558Y10054067D01*
X10176535Y10054229D01*
Y10054322D01*
Y10054368D01*
X10176558Y10054623D01*
X10176627Y10054831D01*
X10176674Y10054924D01*
X10176720Y10054993D01*
X10176743Y10055016D01*
Y10055039D01*
X10176905Y10055271D01*
X10177067Y10055433D01*
X10177206Y10055526D01*
X10177252Y10055571D01*
X10177275D01*
X10177530Y10055687D01*
X10177784Y10055757D01*
X10177877Y10055780D01*
X10178201D01*
X10178386Y10055734D01*
X10178548Y10055687D01*
X10178664Y10055641D01*
X10178756Y10055594D01*
X10178826Y10055548D01*
X10178872Y10055526D01*
X10178895Y10055502D01*
X10179080Y10055294D01*
X10179219Y10055109D01*
X10179312Y10054970D01*
X10179335Y10054947D01*
Y10054924D01*
X10179381Y10054785D01*
X10179451Y10054600D01*
X10179589Y10054229D01*
X10179659Y10054067D01*
X10179705Y10053929D01*
X10179728Y10053836D01*
X10179752Y10053790D01*
X10183245Y10043377D01*
X10186763Y10053721D01*
X10186901Y10054091D01*
X10187017Y10054415D01*
X10187133Y10054669D01*
X10187225Y10054901D01*
X10187318Y10055062D01*
X10187387Y10055178D01*
X10187410Y10055248D01*
X10187433Y10055271D01*
X10187573Y10055433D01*
X10187758Y10055571D01*
X10187943Y10055664D01*
X10188128Y10055710D01*
X10188290Y10055757D01*
X10188428Y10055780D01*
X10188568D01*
X10188799Y10055757D01*
D02*
G37*
G36*
X10154368Y10051476D02*
X10154576Y10051429D01*
X10154761Y10051360D01*
X10154900Y10051291D01*
X10155015Y10051198D01*
X10155108Y10051129D01*
X10155154Y10051083D01*
X10155177Y10051060D01*
X10155293Y10050874D01*
X10155386Y10050689D01*
X10155455Y10050458D01*
X10155501Y10050250D01*
X10155524Y10050065D01*
X10155547Y10049902D01*
Y10049810D01*
Y10049764D01*
Y10044071D01*
X10155524Y10043470D01*
X10155455Y10042938D01*
X10155386Y10042498D01*
X10155270Y10042128D01*
X10155177Y10041827D01*
X10155108Y10041619D01*
X10155038Y10041503D01*
X10155015Y10041456D01*
X10154830Y10041179D01*
X10154622Y10040947D01*
X10154413Y10040739D01*
X10154205Y10040577D01*
X10154020Y10040438D01*
X10153881Y10040346D01*
X10153789Y10040276D01*
X10153743Y10040253D01*
X10153419Y10040114D01*
X10153094Y10040022D01*
X10152794Y10039929D01*
X10152493Y10039883D01*
X10152239Y10039860D01*
X10152053Y10039836D01*
X10151567D01*
X10151266Y10039860D01*
X10151012Y10039906D01*
X10150781Y10039952D01*
X10150596Y10039976D01*
X10150457Y10040022D01*
X10150364Y10040045D01*
X10150341D01*
X10149855Y10040230D01*
X10149647Y10040346D01*
X10149462Y10040438D01*
X10149300Y10040554D01*
X10149184Y10040624D01*
X10149115Y10040670D01*
X10149092Y10040693D01*
X10148675Y10041063D01*
X10148490Y10041248D01*
X10148328Y10041410D01*
X10148189Y10041572D01*
X10148096Y10041688D01*
X10148027Y10041780D01*
X10148004Y10041804D01*
Y10041433D01*
X10147981Y10041155D01*
X10147935Y10040924D01*
X10147888Y10040716D01*
X10147819Y10040531D01*
X10147750Y10040415D01*
X10147680Y10040300D01*
X10147657Y10040253D01*
X10147634Y10040230D01*
X10147472Y10040092D01*
X10147310Y10039999D01*
X10147148Y10039929D01*
X10146986Y10039883D01*
X10146847Y10039860D01*
X10146732Y10039836D01*
X10146639D01*
X10146431Y10039860D01*
X10146246Y10039906D01*
X10146083Y10039952D01*
X10145945Y10040045D01*
X10145829Y10040114D01*
X10145759Y10040161D01*
X10145714Y10040207D01*
X10145690Y10040230D01*
X10145551Y10040392D01*
X10145459Y10040577D01*
X10145389Y10040786D01*
X10145343Y10040994D01*
X10145320Y10041179D01*
X10145297Y10041318D01*
Y10041410D01*
Y10041456D01*
Y10049764D01*
X10145320Y10050065D01*
X10145366Y10050342D01*
X10145413Y10050551D01*
X10145482Y10050735D01*
X10145574Y10050874D01*
X10145621Y10050990D01*
X10145667Y10051036D01*
X10145690Y10051060D01*
X10145852Y10051198D01*
X10146014Y10051314D01*
X10146199Y10051383D01*
X10146361Y10051453D01*
X10146500Y10051476D01*
X10146616Y10051499D01*
X10146732D01*
X10146963Y10051476D01*
X10147171Y10051429D01*
X10147356Y10051360D01*
X10147495Y10051291D01*
X10147610Y10051198D01*
X10147703Y10051129D01*
X10147750Y10051083D01*
X10147773Y10051060D01*
X10147911Y10050874D01*
X10148004Y10050666D01*
X10148074Y10050458D01*
X10148120Y10050250D01*
X10148143Y10050065D01*
X10148166Y10049902D01*
Y10049810D01*
Y10049764D01*
Y10046270D01*
Y10045899D01*
Y10045576D01*
X10148189Y10045251D01*
X10148212Y10044997D01*
X10148235Y10044742D01*
Y10044534D01*
X10148259Y10044326D01*
X10148282Y10044164D01*
X10148305Y10044025D01*
X10148328Y10043909D01*
X10148374Y10043724D01*
X10148397Y10043632D01*
X10148420Y10043608D01*
X10148536Y10043354D01*
X10148698Y10043146D01*
X10148860Y10042938D01*
X10148999Y10042775D01*
X10149138Y10042660D01*
X10149254Y10042544D01*
X10149346Y10042498D01*
X10149370Y10042474D01*
X10149601Y10042336D01*
X10149855Y10042243D01*
X10150087Y10042151D01*
X10150295Y10042104D01*
X10150457Y10042081D01*
X10150619Y10042058D01*
X10150734D01*
X10150989Y10042081D01*
X10151221Y10042128D01*
X10151429Y10042174D01*
X10151591Y10042243D01*
X10151730Y10042313D01*
X10151822Y10042382D01*
X10151891Y10042405D01*
X10151915Y10042429D01*
X10152076Y10042590D01*
X10152192Y10042752D01*
X10152308Y10042938D01*
X10152377Y10043099D01*
X10152447Y10043261D01*
X10152493Y10043377D01*
X10152516Y10043470D01*
Y10043493D01*
X10152562Y10043748D01*
X10152609Y10044048D01*
X10152632Y10044326D01*
X10152655Y10044580D01*
X10152678Y10044835D01*
Y10045020D01*
Y10045135D01*
Y10045182D01*
Y10049764D01*
X10152701Y10050065D01*
X10152748Y10050319D01*
X10152817Y10050551D01*
X10152886Y10050735D01*
X10152956Y10050874D01*
X10153026Y10050967D01*
X10153072Y10051036D01*
X10153094Y10051060D01*
X10153257Y10051198D01*
X10153419Y10051314D01*
X10153604Y10051383D01*
X10153766Y10051453D01*
X10153904Y10051476D01*
X10154020Y10051499D01*
X10154136D01*
X10154368Y10051476D01*
D02*
G37*
G36*
X10118687Y10051499D02*
X10119149Y10051453D01*
X10119543Y10051383D01*
X10119890Y10051314D01*
X10120167Y10051245D01*
X10120399Y10051175D01*
X10120538Y10051129D01*
X10120561Y10051105D01*
X10120584D01*
X10120977Y10050944D01*
X10121324Y10050735D01*
X10121625Y10050551D01*
X10121880Y10050342D01*
X10122088Y10050180D01*
X10122250Y10050042D01*
X10122366Y10049949D01*
X10122389Y10049902D01*
X10122643Y10049601D01*
X10122852Y10049277D01*
X10123036Y10048954D01*
X10123199Y10048676D01*
X10123314Y10048422D01*
X10123407Y10048214D01*
X10123453Y10048074D01*
X10123477Y10048051D01*
Y10048028D01*
X10123592Y10047612D01*
X10123685Y10047195D01*
X10123754Y10046802D01*
X10123800Y10046431D01*
X10123823Y10046131D01*
X10123846Y10045876D01*
Y10045784D01*
Y10045714D01*
Y10045691D01*
Y10045668D01*
X10123823Y10045182D01*
X10123777Y10044696D01*
X10123708Y10044280D01*
X10123615Y10043863D01*
X10123499Y10043470D01*
X10123361Y10043123D01*
X10123222Y10042798D01*
X10123083Y10042521D01*
X10122944Y10042243D01*
X10122805Y10042035D01*
X10122667Y10041827D01*
X10122551Y10041665D01*
X10122458Y10041549D01*
X10122389Y10041456D01*
X10122343Y10041410D01*
X10122319Y10041387D01*
X10122018Y10041110D01*
X10121694Y10040878D01*
X10121348Y10040670D01*
X10121000Y10040485D01*
X10120653Y10040323D01*
X10120283Y10040207D01*
X10119589Y10040022D01*
X10119265Y10039952D01*
X10118964Y10039906D01*
X10118710Y10039860D01*
X10118478Y10039836D01*
X10118270Y10039814D01*
X10118015D01*
X10117576Y10039836D01*
X10117159Y10039860D01*
X10116789Y10039906D01*
X10116488Y10039976D01*
X10116210Y10040022D01*
X10116025Y10040068D01*
X10115909Y10040091D01*
X10115864Y10040114D01*
X10115540Y10040253D01*
X10115239Y10040369D01*
X10114961Y10040508D01*
X10114730Y10040624D01*
X10114568Y10040739D01*
X10114429Y10040832D01*
X10114336Y10040878D01*
X10114313Y10040901D01*
X10114081Y10041086D01*
X10113896Y10041271D01*
X10113735Y10041433D01*
X10113619Y10041572D01*
X10113527Y10041711D01*
X10113434Y10041804D01*
X10113411Y10041873D01*
X10113387Y10041896D01*
X10113295Y10042081D01*
X10113203Y10042266D01*
X10113156Y10042429D01*
X10113133Y10042567D01*
X10113110Y10042660D01*
X10113087Y10042752D01*
Y10042798D01*
Y10042822D01*
Y10042983D01*
X10113133Y10043123D01*
X10113226Y10043331D01*
X10113318Y10043447D01*
X10113341Y10043492D01*
X10113364D01*
X10113480Y10043585D01*
X10113596Y10043632D01*
X10113827Y10043724D01*
X10113920D01*
X10114012Y10043748D01*
X10114081D01*
X10114359Y10043724D01*
X10114545Y10043655D01*
X10114660Y10043585D01*
X10114706Y10043562D01*
X10115077Y10043215D01*
X10115215Y10043076D01*
X10115355Y10042960D01*
X10115447Y10042868D01*
X10115516Y10042798D01*
X10115563Y10042775D01*
X10115586Y10042752D01*
X10115840Y10042544D01*
X10116095Y10042359D01*
X10116187Y10042289D01*
X10116257Y10042243D01*
X10116303Y10042220D01*
X10116326Y10042197D01*
X10116627Y10042035D01*
X10116882Y10041920D01*
X10116997Y10041873D01*
X10117090Y10041850D01*
X10117136Y10041827D01*
X10117159D01*
X10117483Y10041757D01*
X10117784Y10041734D01*
X10117900Y10041711D01*
X10118085D01*
X10118362Y10041734D01*
X10118640Y10041780D01*
X10118895Y10041827D01*
X10119103Y10041896D01*
X10119265Y10041965D01*
X10119404Y10042035D01*
X10119496Y10042058D01*
X10119520Y10042081D01*
X10119751Y10042243D01*
X10119936Y10042405D01*
X10120121Y10042590D01*
X10120260Y10042775D01*
X10120375Y10042938D01*
X10120468Y10043076D01*
X10120515Y10043169D01*
X10120538Y10043192D01*
X10120653Y10043493D01*
X10120746Y10043793D01*
X10120815Y10044094D01*
X10120861Y10044349D01*
X10120884Y10044603D01*
X10120908Y10044789D01*
Y10044904D01*
Y10044951D01*
X10115285Y10044951D01*
X10114891Y10044974D01*
X10114545Y10044997D01*
X10114244Y10045043D01*
X10113989Y10045112D01*
X10113804Y10045159D01*
X10113665Y10045205D01*
X10113572Y10045228D01*
X10113550Y10045251D01*
X10113341Y10045413D01*
X10113179Y10045598D01*
X10113087Y10045830D01*
X10112994Y10046085D01*
X10112948Y10046293D01*
X10112925Y10046478D01*
Y10046617D01*
Y10046663D01*
X10112948Y10047103D01*
X10113018Y10047519D01*
X10113110Y10047913D01*
X10113226Y10048259D01*
X10113341Y10048537D01*
X10113434Y10048768D01*
X10113503Y10048907D01*
X10113527Y10048931D01*
Y10048954D01*
X10113781Y10049370D01*
X10114059Y10049717D01*
X10114359Y10050042D01*
X10114660Y10050295D01*
X10114915Y10050527D01*
X10115123Y10050666D01*
X10115285Y10050782D01*
X10115308Y10050805D01*
X10115331D01*
X10115794Y10051036D01*
X10116280Y10051221D01*
X10116766Y10051337D01*
X10117229Y10051429D01*
X10117622Y10051476D01*
X10117784Y10051499D01*
X10117946Y10051522D01*
X10118224D01*
X10118687Y10051499D01*
D02*
G37*
G36*
X10169824Y10051476D02*
X10170264Y10051429D01*
X10170657Y10051360D01*
X10171005Y10051291D01*
X10171306Y10051221D01*
X10171514Y10051152D01*
X10171652Y10051105D01*
X10171675Y10051083D01*
X10171699D01*
X10172092Y10050920D01*
X10172440Y10050712D01*
X10172740Y10050527D01*
X10173018Y10050319D01*
X10173226Y10050157D01*
X10173388Y10050018D01*
X10173480Y10049926D01*
X10173527Y10049879D01*
X10173781Y10049578D01*
X10174012Y10049277D01*
X10174221Y10048954D01*
X10174360Y10048676D01*
X10174499Y10048422D01*
X10174591Y10048214D01*
X10174637Y10048074D01*
X10174661Y10048051D01*
Y10048028D01*
X10174800Y10047612D01*
X10174892Y10047195D01*
X10174962Y10046802D01*
X10175008Y10046431D01*
X10175031Y10046108D01*
X10175054Y10045876D01*
Y10045784D01*
Y10045714D01*
Y10045668D01*
Y10045645D01*
X10175031Y10045182D01*
X10174985Y10044719D01*
X10174938Y10044326D01*
X10174846Y10043979D01*
X10174776Y10043701D01*
X10174730Y10043470D01*
X10174684Y10043331D01*
X10174661Y10043307D01*
Y10043284D01*
X10174499Y10042891D01*
X10174313Y10042544D01*
X10174128Y10042243D01*
X10173943Y10041965D01*
X10173758Y10041734D01*
X10173619Y10041572D01*
X10173527Y10041479D01*
X10173503Y10041433D01*
X10173203Y10041155D01*
X10172902Y10040924D01*
X10172601Y10040716D01*
X10172324Y10040531D01*
X10172069Y10040415D01*
X10171884Y10040300D01*
X10171745Y10040253D01*
X10171699Y10040230D01*
X10171306Y10040092D01*
X10170889Y10039999D01*
X10170496Y10039906D01*
X10170148Y10039860D01*
X10169824Y10039836D01*
X10169570Y10039814D01*
X10169362D01*
X10168876Y10039836D01*
X10168436Y10039883D01*
X10168043Y10039929D01*
X10167696Y10040022D01*
X10167395Y10040092D01*
X10167187Y10040137D01*
X10167048Y10040184D01*
X10167001Y10040207D01*
X10166608Y10040369D01*
X10166261Y10040577D01*
X10165960Y10040762D01*
X10165682Y10040970D01*
X10165474Y10041132D01*
X10165312Y10041271D01*
X10165197Y10041387D01*
X10165173Y10041410D01*
X10164896Y10041711D01*
X10164664Y10042035D01*
X10164479Y10042336D01*
X10164317Y10042637D01*
X10164178Y10042891D01*
X10164086Y10043076D01*
X10164040Y10043215D01*
X10164017Y10043261D01*
X10163878Y10043678D01*
X10163785Y10044094D01*
X10163693Y10044488D01*
X10163646Y10044858D01*
X10163623Y10045182D01*
X10163600Y10045436D01*
Y10045529D01*
Y10045599D01*
Y10045621D01*
Y10045645D01*
X10163623Y10046108D01*
X10163669Y10046570D01*
X10163739Y10046964D01*
X10163809Y10047311D01*
X10163878Y10047612D01*
X10163947Y10047820D01*
X10163994Y10047959D01*
X10164017Y10048005D01*
X10164178Y10048398D01*
X10164363Y10048745D01*
X10164549Y10049069D01*
X10164734Y10049347D01*
X10164919Y10049555D01*
X10165058Y10049717D01*
X10165150Y10049833D01*
X10165173Y10049856D01*
X10165474Y10050134D01*
X10165775Y10050388D01*
X10166076Y10050573D01*
X10166354Y10050759D01*
X10166608Y10050897D01*
X10166793Y10050990D01*
X10166932Y10051036D01*
X10166955Y10051060D01*
X10166978D01*
X10167395Y10051198D01*
X10167788Y10051314D01*
X10168205Y10051383D01*
X10168575Y10051453D01*
X10168899Y10051476D01*
X10169130Y10051499D01*
X10169362D01*
X10169824Y10051476D01*
D02*
G37*
G36*
X10160152Y10055757D02*
X10160361Y10055710D01*
X10160546Y10055641D01*
X10160684Y10055548D01*
X10160800Y10055456D01*
X10160893Y10055386D01*
X10160939Y10055340D01*
X10160962Y10055317D01*
X10161078Y10055132D01*
X10161171Y10054924D01*
X10161240Y10054716D01*
X10161286Y10054507D01*
X10161309Y10054322D01*
X10161332Y10054160D01*
Y10054067D01*
Y10054021D01*
Y10041549D01*
X10161309Y10041248D01*
X10161263Y10040994D01*
X10161216Y10040762D01*
X10161124Y10040601D01*
X10161055Y10040438D01*
X10161008Y10040346D01*
X10160962Y10040276D01*
X10160939Y10040253D01*
X10160777Y10040114D01*
X10160615Y10039999D01*
X10160453Y10039929D01*
X10160291Y10039860D01*
X10160129Y10039836D01*
X10160013Y10039814D01*
X10159921D01*
X10159689Y10039836D01*
X10159481Y10039883D01*
X10159296Y10039952D01*
X10159157Y10040022D01*
X10159042Y10040092D01*
X10158949Y10040161D01*
X10158903Y10040207D01*
X10158879Y10040230D01*
X10158741Y10040415D01*
X10158648Y10040624D01*
X10158555Y10040832D01*
X10158510Y10041063D01*
X10158486Y10041248D01*
X10158463Y10041410D01*
Y10041503D01*
Y10041549D01*
Y10054021D01*
X10158486Y10054322D01*
X10158533Y10054600D01*
X10158602Y10054831D01*
X10158671Y10055016D01*
X10158741Y10055155D01*
X10158810Y10055248D01*
X10158856Y10055317D01*
X10158879Y10055340D01*
X10159042Y10055479D01*
X10159203Y10055594D01*
X10159388Y10055664D01*
X10159551Y10055734D01*
X10159689Y10055757D01*
X10159805Y10055780D01*
X10159921D01*
X10160152Y10055757D01*
D02*
G37*
G36*
X10135127Y10036699D02*
X10135312Y10036653D01*
X10135497Y10036583D01*
X10135636Y10036491D01*
X10135752Y10036398D01*
X10135821Y10036329D01*
X10135867Y10036282D01*
X10135891Y10036259D01*
X10136006Y10036074D01*
X10136099Y10035866D01*
X10136145Y10035658D01*
X10136191Y10035427D01*
X10136215Y10035241D01*
X10136238Y10035079D01*
Y10034987D01*
Y10034940D01*
Y10022399D01*
X10136215Y10022098D01*
X10136191Y10021843D01*
X10136122Y10021635D01*
X10136052Y10021473D01*
X10136006Y10021334D01*
X10135937Y10021219D01*
X10135914Y10021172D01*
X10135891Y10021149D01*
X10135752Y10021011D01*
X10135566Y10020918D01*
X10135405Y10020848D01*
X10135243Y10020802D01*
X10135104Y10020779D01*
X10134988Y10020756D01*
X10134896D01*
X10134688Y10020779D01*
X10134479Y10020825D01*
X10134317Y10020872D01*
X10134178Y10020964D01*
X10134062Y10021034D01*
X10133970Y10021080D01*
X10133924Y10021126D01*
X10133901Y10021149D01*
X10133762Y10021311D01*
X10133669Y10021520D01*
X10133600Y10021728D01*
X10133553Y10021913D01*
X10133530Y10022098D01*
X10133507Y10022237D01*
Y10022330D01*
Y10022375D01*
Y10022676D01*
X10133345Y10022491D01*
X10133206Y10022307D01*
X10133068Y10022167D01*
X10132952Y10022052D01*
X10132883Y10021959D01*
X10132813Y10021890D01*
X10132790Y10021866D01*
X10132767Y10021843D01*
X10132535Y10021635D01*
X10132304Y10021473D01*
X10132188Y10021404D01*
X10132119Y10021357D01*
X10132073Y10021334D01*
X10132050Y10021311D01*
X10131725Y10021149D01*
X10131401Y10021011D01*
X10131263Y10020988D01*
X10131147Y10020941D01*
X10131078Y10020918D01*
X10131055D01*
X10130615Y10020825D01*
X10130406Y10020802D01*
X10130222Y10020779D01*
X10130036Y10020756D01*
X10129805D01*
X10129412Y10020779D01*
X10129041Y10020825D01*
X10128694Y10020895D01*
X10128394Y10020964D01*
X10128162Y10021034D01*
X10127977Y10021103D01*
X10127861Y10021149D01*
X10127815Y10021172D01*
X10127491Y10021357D01*
X10127190Y10021543D01*
X10126935Y10021751D01*
X10126704Y10021959D01*
X10126542Y10022121D01*
X10126403Y10022260D01*
X10126311Y10022375D01*
X10126288Y10022399D01*
X10126057Y10022723D01*
X10125871Y10023047D01*
X10125686Y10023348D01*
X10125547Y10023649D01*
X10125455Y10023903D01*
X10125385Y10024111D01*
X10125339Y10024250D01*
X10125316Y10024273D01*
Y10024296D01*
X10125200Y10024713D01*
X10125107Y10025153D01*
X10125061Y10025546D01*
X10125015Y10025916D01*
X10124992Y10026240D01*
X10124969Y10026495D01*
Y10026587D01*
Y10026656D01*
Y10026680D01*
Y10026703D01*
X10124992Y10027350D01*
X10125061Y10027929D01*
X10125154Y10028438D01*
X10125270Y10028901D01*
X10125385Y10029248D01*
X10125432Y10029410D01*
X10125478Y10029526D01*
X10125524Y10029619D01*
X10125547Y10029688D01*
X10125571Y10029734D01*
Y10029757D01*
X10125825Y10030220D01*
X10126080Y10030613D01*
X10126357Y10030961D01*
X10126635Y10031238D01*
X10126889Y10031447D01*
X10127075Y10031608D01*
X10127213Y10031701D01*
X10127236Y10031724D01*
X10127260D01*
X10127676Y10031956D01*
X10128116Y10032117D01*
X10128532Y10032256D01*
X10128926Y10032325D01*
X10129272Y10032372D01*
X10129412Y10032395D01*
X10129550Y10032418D01*
X10129782D01*
X10130222Y10032395D01*
X10130615Y10032349D01*
X10130985Y10032280D01*
X10131286Y10032187D01*
X10131517Y10032094D01*
X10131702Y10032025D01*
X10131818Y10031979D01*
X10131864Y10031956D01*
X10132165Y10031770D01*
X10132466Y10031562D01*
X10132744Y10031354D01*
X10132998Y10031146D01*
X10133206Y10030961D01*
X10133369Y10030798D01*
X10133461Y10030706D01*
X10133507Y10030660D01*
Y10035056D01*
X10133530Y10035334D01*
X10133553Y10035588D01*
X10133623Y10035797D01*
X10133692Y10035981D01*
X10133762Y10036097D01*
X10133808Y10036213D01*
X10133854Y10036259D01*
X10133878Y10036282D01*
X10134016Y10036422D01*
X10134202Y10036537D01*
X10134363Y10036606D01*
X10134525Y10036676D01*
X10134664Y10036699D01*
X10134780Y10036722D01*
X10134896D01*
X10135127Y10036699D01*
D02*
G37*
G36*
X10161251Y10032418D02*
X10161437Y10032372D01*
X10161599Y10032302D01*
X10161737Y10032233D01*
X10161853Y10032164D01*
X10161923Y10032094D01*
X10161969Y10032048D01*
X10161992Y10032025D01*
X10162108Y10031863D01*
X10162200Y10031655D01*
X10162247Y10031447D01*
X10162292Y10031262D01*
X10162316Y10031076D01*
X10162339Y10030938D01*
Y10030845D01*
Y10030798D01*
Y10022491D01*
X10162316Y10022191D01*
X10162269Y10021936D01*
X10162223Y10021705D01*
X10162131Y10021543D01*
X10162061Y10021381D01*
X10162015Y10021288D01*
X10161969Y10021219D01*
X10161946Y10021196D01*
X10161783Y10021057D01*
X10161622Y10020941D01*
X10161459Y10020872D01*
X10161298Y10020802D01*
X10161136Y10020779D01*
X10161020Y10020756D01*
X10160927D01*
X10160696Y10020779D01*
X10160488Y10020825D01*
X10160303Y10020895D01*
X10160164Y10020964D01*
X10160048Y10021034D01*
X10159955Y10021103D01*
X10159909Y10021149D01*
X10159886Y10021172D01*
X10159747Y10021357D01*
X10159655Y10021566D01*
X10159562Y10021774D01*
X10159516Y10022006D01*
X10159493Y10022191D01*
X10159470Y10022352D01*
Y10022445D01*
Y10022491D01*
Y10026101D01*
Y10026425D01*
Y10026703D01*
X10159446Y10026981D01*
Y10027212D01*
X10159423Y10027443D01*
X10159400Y10027628D01*
X10159354Y10027952D01*
X10159331Y10028184D01*
X10159285Y10028369D01*
X10159261Y10028461D01*
Y10028484D01*
X10159146Y10028762D01*
X10159007Y10029017D01*
X10158845Y10029248D01*
X10158706Y10029434D01*
X10158568Y10029572D01*
X10158452Y10029664D01*
X10158382Y10029734D01*
X10158359Y10029757D01*
X10158104Y10029919D01*
X10157873Y10030035D01*
X10157618Y10030104D01*
X10157410Y10030174D01*
X10157225Y10030197D01*
X10157086Y10030220D01*
X10156948D01*
X10156531Y10030197D01*
X10156207Y10030104D01*
X10155930Y10029988D01*
X10155721Y10029850D01*
X10155559Y10029688D01*
X10155443Y10029572D01*
X10155397Y10029479D01*
X10155374Y10029456D01*
X10155235Y10029156D01*
X10155143Y10028785D01*
X10155050Y10028438D01*
X10155004Y10028091D01*
X10154980Y10027767D01*
X10154957Y10027513D01*
Y10027420D01*
Y10027350D01*
Y10027305D01*
Y10027281D01*
Y10022491D01*
X10154934Y10022191D01*
X10154888Y10021936D01*
X10154842Y10021705D01*
X10154749Y10021543D01*
X10154680Y10021381D01*
X10154634Y10021288D01*
X10154587Y10021219D01*
X10154564Y10021196D01*
X10154402Y10021057D01*
X10154240Y10020941D01*
X10154055Y10020872D01*
X10153893Y10020802D01*
X10153754Y10020779D01*
X10153638Y10020756D01*
X10153523D01*
X10153292Y10020779D01*
X10153106Y10020825D01*
X10152921Y10020895D01*
X10152783Y10020988D01*
X10152667Y10021057D01*
X10152574Y10021126D01*
X10152528Y10021172D01*
X10152505Y10021196D01*
X10152366Y10021381D01*
X10152274Y10021589D01*
X10152181Y10021797D01*
X10152134Y10022006D01*
X10152111Y10022191D01*
X10152088Y10022352D01*
Y10022445D01*
Y10022491D01*
Y10027836D01*
Y10028184D01*
X10152111Y10028484D01*
Y10028739D01*
X10152134Y10028970D01*
X10152158Y10029156D01*
Y10029271D01*
X10152181Y10029364D01*
Y10029387D01*
X10152274Y10029827D01*
X10152343Y10030035D01*
X10152389Y10030197D01*
X10152458Y10030336D01*
X10152505Y10030452D01*
X10152528Y10030521D01*
X10152551Y10030544D01*
X10152736Y10030868D01*
X10152944Y10031146D01*
X10153176Y10031377D01*
X10153384Y10031585D01*
X10153592Y10031724D01*
X10153754Y10031840D01*
X10153846Y10031909D01*
X10153893Y10031932D01*
X10154240Y10032094D01*
X10154587Y10032233D01*
X10154934Y10032325D01*
X10155258Y10032372D01*
X10155513Y10032418D01*
X10155744Y10032441D01*
X10155930D01*
X10156346Y10032418D01*
X10156740Y10032372D01*
X10157086Y10032280D01*
X10157387Y10032210D01*
X10157642Y10032117D01*
X10157827Y10032025D01*
X10157943Y10031979D01*
X10157989Y10031956D01*
X10158313Y10031770D01*
X10158636Y10031539D01*
X10158914Y10031284D01*
X10159169Y10031053D01*
X10159354Y10030845D01*
X10159516Y10030660D01*
X10159609Y10030544D01*
X10159655Y10030521D01*
Y10030845D01*
X10159678Y10031192D01*
X10159701Y10031331D01*
X10159747Y10031470D01*
X10159771Y10031562D01*
X10159817Y10031631D01*
X10159840Y10031678D01*
Y10031701D01*
X10160002Y10031956D01*
X10160141Y10032117D01*
X10160280Y10032233D01*
X10160303Y10032256D01*
X10160326D01*
X10160557Y10032372D01*
X10160789Y10032418D01*
X10160881Y10032441D01*
X10161020D01*
X10161251Y10032418D01*
D02*
G37*
G36*
X10176755Y10036699D02*
X10176986Y10036653D01*
X10177171Y10036560D01*
X10177333Y10036491D01*
X10177472Y10036398D01*
X10177565Y10036306D01*
X10177611Y10036259D01*
X10177634Y10036236D01*
X10177773Y10036051D01*
X10177866Y10035820D01*
X10177935Y10035588D01*
X10177981Y10035357D01*
X10178004Y10035149D01*
X10178027Y10034987D01*
Y10034871D01*
Y10034825D01*
Y10023325D01*
Y10023070D01*
Y10022839D01*
Y10022653D01*
X10178004Y10022491D01*
Y10022375D01*
Y10022283D01*
Y10022237D01*
Y10022214D01*
X10177958Y10021936D01*
X10177912Y10021728D01*
X10177866Y10021635D01*
X10177842Y10021566D01*
X10177819Y10021543D01*
Y10021520D01*
X10177657Y10021288D01*
X10177472Y10021103D01*
X10177333Y10021011D01*
X10177287Y10020964D01*
X10177264D01*
X10176986Y10020848D01*
X10176732Y10020779D01*
X10176639D01*
X10176570Y10020756D01*
X10176500D01*
X10176246Y10020779D01*
X10176038Y10020825D01*
X10175829Y10020895D01*
X10175667Y10020988D01*
X10175552Y10021080D01*
X10175436Y10021149D01*
X10175389Y10021196D01*
X10175366Y10021219D01*
X10175204Y10021404D01*
X10175089Y10021635D01*
X10175020Y10021866D01*
X10174950Y10022121D01*
X10174927Y10022330D01*
X10174904Y10022491D01*
Y10022607D01*
Y10022653D01*
Y10025847D01*
X10172358Y10028300D01*
X10168656Y10022607D01*
X10168471Y10022330D01*
X10168309Y10022052D01*
X10168240Y10021936D01*
X10168193Y10021843D01*
X10168170Y10021797D01*
X10168147Y10021774D01*
X10167916Y10021473D01*
X10167684Y10021242D01*
X10167592Y10021149D01*
X10167522Y10021080D01*
X10167476Y10021057D01*
X10167453Y10021034D01*
X10167291Y10020941D01*
X10167106Y10020872D01*
X10166758Y10020802D01*
X10166620Y10020779D01*
X10166504Y10020756D01*
X10166389D01*
X10166134Y10020779D01*
X10165925Y10020825D01*
X10165740Y10020872D01*
X10165579Y10020941D01*
X10165463Y10021011D01*
X10165370Y10021080D01*
X10165324Y10021103D01*
X10165301Y10021126D01*
X10165162Y10021265D01*
X10165070Y10021427D01*
X10164977Y10021566D01*
X10164930Y10021728D01*
X10164907Y10021843D01*
X10164884Y10021936D01*
Y10022006D01*
Y10022029D01*
X10164930Y10022375D01*
X10165000Y10022676D01*
X10165046Y10022792D01*
X10165070Y10022885D01*
X10165115Y10022954D01*
Y10022977D01*
X10165324Y10023371D01*
X10165555Y10023718D01*
X10165648Y10023880D01*
X10165740Y10023995D01*
X10165787Y10024088D01*
X10165810Y10024111D01*
X10170183Y10030382D01*
X10166389Y10033992D01*
X10166157Y10034246D01*
X10165972Y10034478D01*
X10165856Y10034709D01*
X10165764Y10034918D01*
X10165717Y10035103D01*
X10165671Y10035241D01*
Y10035334D01*
Y10035357D01*
X10165694Y10035565D01*
X10165740Y10035750D01*
X10165810Y10035912D01*
X10165879Y10036051D01*
X10165948Y10036144D01*
X10166018Y10036236D01*
X10166064Y10036282D01*
X10166088Y10036306D01*
X10166249Y10036445D01*
X10166434Y10036537D01*
X10166620Y10036630D01*
X10166805Y10036676D01*
X10166967Y10036699D01*
X10167083Y10036722D01*
X10167198D01*
X10167545Y10036676D01*
X10167684Y10036653D01*
X10167800Y10036606D01*
X10167892Y10036560D01*
X10167962Y10036537D01*
X10168008Y10036491D01*
X10168031D01*
X10168262Y10036282D01*
X10168517Y10036051D01*
X10168610Y10035959D01*
X10168702Y10035866D01*
X10168749Y10035820D01*
X10168772Y10035797D01*
X10174904Y10029410D01*
Y10034825D01*
X10174927Y10035149D01*
X10174973Y10035449D01*
X10175042Y10035681D01*
X10175112Y10035889D01*
X10175204Y10036051D01*
X10175274Y10036144D01*
X10175320Y10036213D01*
X10175343Y10036236D01*
X10175529Y10036398D01*
X10175714Y10036514D01*
X10175898Y10036606D01*
X10176084Y10036653D01*
X10176246Y10036699D01*
X10176384Y10036722D01*
X10176500D01*
X10176755Y10036699D01*
D02*
G37*
G36*
X10144661Y10032418D02*
X10145100Y10032372D01*
X10145493Y10032302D01*
X10145840Y10032233D01*
X10146141Y10032164D01*
X10146349Y10032094D01*
X10146489Y10032048D01*
X10146512Y10032025D01*
X10146534D01*
X10146928Y10031863D01*
X10147275Y10031655D01*
X10147576Y10031470D01*
X10147853Y10031262D01*
X10148062Y10031099D01*
X10148224Y10030961D01*
X10148317Y10030868D01*
X10148362Y10030822D01*
X10148617Y10030521D01*
X10148849Y10030220D01*
X10149057Y10029896D01*
X10149196Y10029619D01*
X10149335Y10029364D01*
X10149427Y10029156D01*
X10149473Y10029017D01*
X10149496Y10028994D01*
Y10028970D01*
X10149636Y10028554D01*
X10149728Y10028137D01*
X10149797Y10027744D01*
X10149844Y10027374D01*
X10149867Y10027050D01*
X10149890Y10026818D01*
Y10026726D01*
Y10026656D01*
Y10026610D01*
Y10026587D01*
X10149867Y10026124D01*
X10149821Y10025662D01*
X10149774Y10025268D01*
X10149681Y10024921D01*
X10149612Y10024644D01*
X10149566Y10024412D01*
X10149520Y10024273D01*
X10149496Y10024250D01*
Y10024227D01*
X10149335Y10023834D01*
X10149150Y10023486D01*
X10148964Y10023185D01*
X10148779Y10022908D01*
X10148594Y10022676D01*
X10148455Y10022515D01*
X10148362Y10022422D01*
X10148340Y10022375D01*
X10148039Y10022098D01*
X10147738Y10021866D01*
X10147437Y10021658D01*
X10147159Y10021473D01*
X10146905Y10021357D01*
X10146720Y10021242D01*
X10146581Y10021196D01*
X10146534Y10021172D01*
X10146141Y10021034D01*
X10145725Y10020941D01*
X10145331Y10020848D01*
X10144984Y10020802D01*
X10144661Y10020779D01*
X10144406Y10020756D01*
X10144197D01*
X10143712Y10020779D01*
X10143272Y10020825D01*
X10142878Y10020872D01*
X10142532Y10020964D01*
X10142231Y10021034D01*
X10142023Y10021080D01*
X10141884Y10021126D01*
X10141837Y10021149D01*
X10141444Y10021311D01*
X10141097Y10021520D01*
X10140796Y10021705D01*
X10140519Y10021913D01*
X10140310Y10022075D01*
X10140148Y10022214D01*
X10140032Y10022330D01*
X10140009Y10022352D01*
X10139731Y10022653D01*
X10139500Y10022977D01*
X10139315Y10023278D01*
X10139153Y10023579D01*
X10139014Y10023834D01*
X10138922Y10024019D01*
X10138876Y10024158D01*
X10138853Y10024204D01*
X10138713Y10024620D01*
X10138621Y10025037D01*
X10138528Y10025430D01*
X10138482Y10025800D01*
X10138459Y10026124D01*
X10138436Y10026379D01*
Y10026472D01*
Y10026541D01*
Y10026564D01*
Y10026587D01*
X10138459Y10027050D01*
X10138505Y10027513D01*
X10138575Y10027906D01*
X10138644Y10028253D01*
X10138713Y10028554D01*
X10138783Y10028762D01*
X10138829Y10028901D01*
X10138853Y10028947D01*
X10139014Y10029341D01*
X10139199Y10029688D01*
X10139385Y10030012D01*
X10139570Y10030289D01*
X10139755Y10030497D01*
X10139894Y10030660D01*
X10139986Y10030775D01*
X10140009Y10030798D01*
X10140310Y10031076D01*
X10140611Y10031331D01*
X10140912Y10031516D01*
X10141190Y10031701D01*
X10141444Y10031840D01*
X10141629Y10031932D01*
X10141768Y10031979D01*
X10141791Y10032002D01*
X10141815D01*
X10142231Y10032141D01*
X10142624Y10032256D01*
X10143041Y10032325D01*
X10143411Y10032395D01*
X10143735Y10032418D01*
X10143966Y10032441D01*
X10144197D01*
X10144661Y10032418D01*
D02*
G37*
%LPC*%
G36*
X10111636Y10084323D02*
X10109090D01*
X10108489Y10084299D01*
X10107980Y10084253D01*
X10107540Y10084207D01*
X10107193Y10084137D01*
X10106915Y10084045D01*
X10106730Y10083998D01*
X10106614Y10083952D01*
X10106568Y10083929D01*
X10106290Y10083744D01*
X10106082Y10083513D01*
X10105920Y10083258D01*
X10105828Y10083004D01*
X10105758Y10082772D01*
X10105735Y10082563D01*
X10105712Y10082425D01*
Y10082402D01*
Y10082379D01*
Y10082170D01*
X10105758Y10081985D01*
X10105804Y10081823D01*
X10105851Y10081685D01*
X10105897Y10081545D01*
X10105944Y10081453D01*
X10105966Y10081407D01*
X10105989Y10081384D01*
X10106129Y10081176D01*
X10106267Y10080991D01*
X10106429Y10080828D01*
X10106591Y10080713D01*
X10106730Y10080643D01*
X10106846Y10080574D01*
X10106938Y10080551D01*
X10106962Y10080527D01*
X10107216Y10080458D01*
X10107516Y10080412D01*
X10107817Y10080366D01*
X10108095Y10080342D01*
X10108373D01*
X10108581Y10080319D01*
X10111636D01*
Y10084323D01*
D02*
G37*
G36*
Y10078075D02*
X10108373D01*
X10107794Y10078052D01*
X10107308Y10077982D01*
X10106892Y10077913D01*
X10106545Y10077820D01*
X10106267Y10077704D01*
X10106082Y10077635D01*
X10105966Y10077565D01*
X10105920Y10077543D01*
X10105643Y10077311D01*
X10105434Y10077057D01*
X10105295Y10076779D01*
X10105179Y10076478D01*
X10105134Y10076224D01*
X10105110Y10076015D01*
X10105087Y10075876D01*
Y10075853D01*
Y10075830D01*
X10105134Y10075437D01*
X10105226Y10075067D01*
X10105388Y10074766D01*
X10105596Y10074511D01*
X10105828Y10074280D01*
X10106105Y10074095D01*
X10106383Y10073956D01*
X10106684Y10073817D01*
X10106984Y10073724D01*
X10107262Y10073655D01*
X10107540Y10073609D01*
X10107771Y10073586D01*
X10107980Y10073563D01*
X10108141Y10073539D01*
X10111636D01*
Y10078075D01*
D02*
G37*
G36*
X10118502Y10049532D02*
X10118316D01*
X10117923Y10049509D01*
X10117552Y10049417D01*
X10117252Y10049301D01*
X10116997Y10049162D01*
X10116789Y10049023D01*
X10116627Y10048907D01*
X10116534Y10048815D01*
X10116511Y10048792D01*
X10116280Y10048491D01*
X10116095Y10048144D01*
X10115956Y10047773D01*
X10115840Y10047426D01*
X10115771Y10047103D01*
X10115724Y10046825D01*
Y10046732D01*
X10115701Y10046663D01*
Y10046617D01*
Y10046594D01*
X10120908Y10046594D01*
X10120839Y10047103D01*
X10120723Y10047542D01*
X10120584Y10047913D01*
X10120445Y10048214D01*
X10120306Y10048467D01*
X10120190Y10048630D01*
X10120098Y10048745D01*
X10120075Y10048768D01*
X10119797Y10049023D01*
X10119496Y10049208D01*
X10119219Y10049347D01*
X10118941Y10049440D01*
X10118687Y10049486D01*
X10118502Y10049532D01*
D02*
G37*
G36*
X10169501Y10049370D02*
X10169130D01*
X10168899Y10049324D01*
X10168483Y10049208D01*
X10168112Y10049046D01*
X10167834Y10048884D01*
X10167580Y10048699D01*
X10167418Y10048537D01*
X10167302Y10048422D01*
X10167279Y10048398D01*
Y10048375D01*
X10167025Y10047982D01*
X10166816Y10047542D01*
X10166678Y10047079D01*
X10166585Y10046639D01*
X10166539Y10046246D01*
X10166516Y10046085D01*
X10166492Y10045945D01*
Y10045807D01*
Y10045714D01*
Y10045668D01*
Y10045645D01*
X10166516Y10045020D01*
X10166608Y10044488D01*
X10166747Y10044025D01*
X10166886Y10043632D01*
X10167025Y10043331D01*
X10167164Y10043099D01*
X10167256Y10042961D01*
X10167279Y10042938D01*
Y10042914D01*
X10167580Y10042590D01*
X10167927Y10042359D01*
X10168274Y10042174D01*
X10168598Y10042058D01*
X10168899Y10041989D01*
X10169153Y10041965D01*
X10169223Y10041942D01*
X10169362D01*
X10169662Y10041965D01*
X10169963Y10042012D01*
X10170218Y10042081D01*
X10170426Y10042174D01*
X10170612Y10042243D01*
X10170750Y10042313D01*
X10170843Y10042359D01*
X10170866Y10042382D01*
X10171097Y10042567D01*
X10171282Y10042775D01*
X10171444Y10042983D01*
X10171583Y10043192D01*
X10171699Y10043377D01*
X10171768Y10043516D01*
X10171815Y10043608D01*
X10171838Y10043655D01*
X10171953Y10043979D01*
X10172023Y10044326D01*
X10172092Y10044673D01*
X10172115Y10044974D01*
X10172139Y10045251D01*
X10172162Y10045460D01*
Y10045599D01*
Y10045621D01*
Y10045645D01*
X10172139Y10046061D01*
X10172115Y10046431D01*
X10172046Y10046779D01*
X10171976Y10047056D01*
X10171930Y10047311D01*
X10171861Y10047473D01*
X10171838Y10047589D01*
X10171815Y10047635D01*
X10171675Y10047936D01*
X10171514Y10048190D01*
X10171352Y10048422D01*
X10171190Y10048607D01*
X10171051Y10048745D01*
X10170935Y10048838D01*
X10170866Y10048907D01*
X10170843Y10048931D01*
X10170588Y10049069D01*
X10170334Y10049185D01*
X10170079Y10049255D01*
X10169847Y10049324D01*
X10169662Y10049347D01*
X10169501Y10049370D01*
D02*
G37*
G36*
X10130661Y10030289D02*
X10130522D01*
X10130245Y10030266D01*
X10129967Y10030220D01*
X10129736Y10030151D01*
X10129527Y10030058D01*
X10129365Y10029965D01*
X10129250Y10029896D01*
X10129157Y10029850D01*
X10129134Y10029827D01*
X10128926Y10029642D01*
X10128740Y10029434D01*
X10128578Y10029225D01*
X10128440Y10029017D01*
X10128347Y10028832D01*
X10128278Y10028693D01*
X10128231Y10028600D01*
X10128208Y10028554D01*
X10128093Y10028230D01*
X10128000Y10027906D01*
X10127954Y10027582D01*
X10127908Y10027281D01*
X10127885Y10027004D01*
X10127861Y10026796D01*
Y10026656D01*
Y10026633D01*
Y10026610D01*
X10127885Y10025986D01*
X10127977Y10025453D01*
X10128116Y10024990D01*
X10128254Y10024597D01*
X10128394Y10024296D01*
X10128532Y10024088D01*
X10128625Y10023949D01*
X10128648Y10023903D01*
X10128949Y10023602D01*
X10129272Y10023371D01*
X10129597Y10023209D01*
X10129874Y10023093D01*
X10130129Y10023024D01*
X10130337Y10023000D01*
X10130476Y10022977D01*
X10130522D01*
X10130985Y10023024D01*
X10131401Y10023116D01*
X10131749Y10023255D01*
X10132050Y10023440D01*
X10132281Y10023602D01*
X10132466Y10023741D01*
X10132559Y10023834D01*
X10132605Y10023880D01*
X10132859Y10024250D01*
X10133068Y10024690D01*
X10133206Y10025129D01*
X10133299Y10025546D01*
X10133345Y10025939D01*
X10133369Y10026101D01*
Y10026240D01*
X10133392Y10026356D01*
Y10026448D01*
Y10026495D01*
Y10026518D01*
X10133369Y10026934D01*
X10133322Y10027328D01*
X10133276Y10027675D01*
X10133206Y10027975D01*
X10133137Y10028207D01*
X10133068Y10028392D01*
X10133044Y10028484D01*
X10133021Y10028531D01*
X10132859Y10028832D01*
X10132697Y10029086D01*
X10132535Y10029318D01*
X10132374Y10029503D01*
X10132234Y10029642D01*
X10132119Y10029734D01*
X10132026Y10029803D01*
X10132003Y10029827D01*
X10131749Y10029988D01*
X10131494Y10030104D01*
X10131240Y10030174D01*
X10131008Y10030243D01*
X10130823Y10030266D01*
X10130661Y10030289D01*
D02*
G37*
G36*
X10144337Y10030312D02*
X10143966D01*
X10143735Y10030266D01*
X10143318Y10030151D01*
X10142948Y10029988D01*
X10142670Y10029827D01*
X10142416Y10029642D01*
X10142254Y10029479D01*
X10142138Y10029364D01*
X10142115Y10029341D01*
Y10029318D01*
X10141860Y10028924D01*
X10141652Y10028484D01*
X10141514Y10028022D01*
X10141421Y10027582D01*
X10141375Y10027189D01*
X10141351Y10027027D01*
X10141328Y10026888D01*
Y10026749D01*
Y10026656D01*
Y10026610D01*
Y10026587D01*
X10141351Y10025963D01*
X10141444Y10025430D01*
X10141583Y10024968D01*
X10141722Y10024574D01*
X10141860Y10024273D01*
X10142000Y10024042D01*
X10142092Y10023903D01*
X10142115Y10023880D01*
Y10023857D01*
X10142416Y10023533D01*
X10142763Y10023301D01*
X10143110Y10023116D01*
X10143434Y10023000D01*
X10143735Y10022931D01*
X10143989Y10022908D01*
X10144059Y10022885D01*
X10144197D01*
X10144498Y10022908D01*
X10144799Y10022954D01*
X10145054Y10023024D01*
X10145262Y10023116D01*
X10145447Y10023185D01*
X10145586Y10023255D01*
X10145679Y10023301D01*
X10145702Y10023325D01*
X10145933Y10023510D01*
X10146118Y10023718D01*
X10146280Y10023926D01*
X10146419Y10024135D01*
X10146534Y10024319D01*
X10146604Y10024458D01*
X10146650Y10024551D01*
X10146674Y10024597D01*
X10146789Y10024921D01*
X10146859Y10025268D01*
X10146928Y10025615D01*
X10146951Y10025916D01*
X10146974Y10026194D01*
X10146998Y10026402D01*
Y10026541D01*
Y10026564D01*
Y10026587D01*
X10146974Y10027004D01*
X10146951Y10027374D01*
X10146882Y10027721D01*
X10146812Y10027999D01*
X10146766Y10028253D01*
X10146697Y10028415D01*
X10146674Y10028531D01*
X10146650Y10028577D01*
X10146512Y10028878D01*
X10146349Y10029133D01*
X10146188Y10029364D01*
X10146025Y10029549D01*
X10145887Y10029688D01*
X10145771Y10029780D01*
X10145702Y10029850D01*
X10145679Y10029873D01*
X10145424Y10030012D01*
X10145170Y10030128D01*
X10144915Y10030197D01*
X10144683Y10030266D01*
X10144498Y10030289D01*
X10144337Y10030312D01*
D02*
G37*
%LPD*%
D33*
X10060676Y10115926D02*
D03*
X10044176D02*
D03*
D34*
X10065473Y10032784D02*
D03*
Y10072784D02*
D03*
D35*
X10041973Y10081085D02*
D03*
Y10024484D02*
D03*
D36*
X10209410Y10082500D02*
D03*
D37*
X10089410D02*
D03*
D38*
X10124410Y10152500D02*
D03*
X10174410D02*
D03*
X10149410Y10007500D02*
D03*
X10124410D02*
D03*
X10174410D02*
D03*
D39*
X10185787Y10109675D02*
D03*
X10160386D02*
D03*
X10134987D02*
D03*
X10185787Y10135076D02*
D03*
X10134987D02*
D03*
X10160386D02*
D03*
%TF.MD5,606e10388786d0c9ca0f1985d8c62918*%
M02*
