%TF.GenerationSoftware,Altium Limited,Altium Designer,20.1.8 (145)*%
G04 Layer_Color=0*
%FSLAX44Y44*%
%MOMM*%
%TF.SameCoordinates,E54140C2-77ED-4701-9F9C-26571285D32F*%
%TF.FilePolarity,Positive*%
%TF.FileFunction,Plated,1,2,PTH,Drill*%
%TF.Part,Single*%
G01*
G75*
%TA.AperFunction,ComponentDrill*%
%ADD54O,1.4000X0.9000*%
%ADD55O,1.0000X2.5000*%
%ADD56O,1.2500X0.5000*%
%ADD57C,0.8000*%
%TA.AperFunction,ViaDrill,NotFilled*%
%ADD58C,0.4000*%
D54*
X10041973Y10081085D02*
D03*
Y10024484D02*
D03*
D55*
X10209410Y10082500D02*
D03*
X10089410D02*
D03*
D56*
X10124410Y10152500D02*
D03*
X10174410D02*
D03*
X10149410Y10007500D02*
D03*
X10124410D02*
D03*
X10174410D02*
D03*
D57*
X10185787Y10109675D02*
D03*
X10160386D02*
D03*
X10134987D02*
D03*
X10185787Y10135076D02*
D03*
X10134987D02*
D03*
X10160386D02*
D03*
D58*
X10054046Y10139183D02*
D03*
X10044176Y10130536D02*
D03*
X10084329Y10129683D02*
D03*
X10111495Y10069142D02*
D03*
X10148680Y10093950D02*
D03*
X10073967Y10129683D02*
D03*
X10072223Y10101834D02*
D03*
X10090976Y10035594D02*
D03*
X10083662Y10031403D02*
D03*
Y10039785D02*
D03*
X10036048Y10045954D02*
D03*
Y10037572D02*
D03*
Y10054336D02*
D03*
X10052812D02*
D03*
X10044430D02*
D03*
X10052812Y10045954D02*
D03*
Y10037572D02*
D03*
X10044430D02*
D03*
X10091171Y10050853D02*
D03*
X10044430Y10045954D02*
D03*
X10111495Y10059775D02*
D03*
X10137552Y10064426D02*
D03*
X10169336Y10057926D02*
D03*
X10148680D02*
D03*
%TF.MD5,4e44a57f150318ea5cae03d74fc7e23a*%
M02*
