%TF.GenerationSoftware,Altium Limited,Altium Designer,20.1.8 (145)*%
G04 Layer_Color=37055*
%FSLAX44Y44*%
%MOMM*%
%TF.SameCoordinates,E54140C2-77ED-4701-9F9C-26571285D32F*%
%TF.FilePolarity,Negative*%
%TF.FileFunction,Soldermask,Top*%
%TF.Part,Single*%
G01*
G75*
%TA.AperFunction,ComponentPad*%
%ADD34C,0.5000*%
%ADD35O,2.1000X1.6000*%
G04:AMPARAMS|DCode=36|XSize=1.85mm|YSize=3.35mm|CornerRadius=0.925mm|HoleSize=0mm|Usage=FLASHONLY|Rotation=180.000|XOffset=0mm|YOffset=0mm|HoleType=Round|Shape=RoundedRectangle|*
%AMROUNDEDRECTD36*
21,1,1.8500,1.5000,0,0,180.0*
21,1,0.0000,3.3500,0,0,180.0*
1,1,1.8500,0.0000,0.7500*
1,1,1.8500,0.0000,0.7500*
1,1,1.8500,0.0000,-0.7500*
1,1,1.8500,0.0000,-0.7500*
%
%ADD36ROUNDEDRECTD36*%
%ADD37O,1.8500X3.3500*%
%ADD38O,1.8500X1.1000*%
G04:AMPARAMS|DCode=39|XSize=1.2mm|YSize=1.6mm|CornerRadius=0.6mm|HoleSize=0mm|Usage=FLASHONLY|Rotation=0.000|XOffset=0mm|YOffset=0mm|HoleType=Round|Shape=RoundedRectangle|*
%AMROUNDEDRECTD39*
21,1,1.2000,0.4000,0,0,0.0*
21,1,0.0000,1.6000,0,0,0.0*
1,1,1.2000,0.0000,-0.2000*
1,1,1.2000,0.0000,-0.2000*
1,1,1.2000,0.0000,0.2000*
1,1,1.2000,0.0000,0.2000*
%
%ADD39ROUNDEDRECTD39*%
%TA.AperFunction,SMDPad,CuDef*%
G04:AMPARAMS|DCode=42|XSize=0.45mm|YSize=1.25mm|CornerRadius=0.1375mm|HoleSize=0mm|Usage=FLASHONLY|Rotation=270.000|XOffset=0mm|YOffset=0mm|HoleType=Round|Shape=RoundedRectangle|*
%AMROUNDEDRECTD42*
21,1,0.4500,0.9750,0,0,270.0*
21,1,0.1750,1.2500,0,0,270.0*
1,1,0.2750,-0.4875,-0.0875*
1,1,0.2750,-0.4875,0.0875*
1,1,0.2750,0.4875,0.0875*
1,1,0.2750,0.4875,-0.0875*
%
%ADD42ROUNDEDRECTD42*%
G04:AMPARAMS|DCode=43|XSize=0.45mm|YSize=2.1mm|CornerRadius=0.0518mm|HoleSize=0mm|Usage=FLASHONLY|Rotation=270.000|XOffset=0mm|YOffset=0mm|HoleType=Round|Shape=RoundedRectangle|*
%AMROUNDEDRECTD43*
21,1,0.4500,1.9965,0,0,270.0*
21,1,0.3465,2.1000,0,0,270.0*
1,1,0.1035,-0.9983,-0.1733*
1,1,0.1035,-0.9983,0.1733*
1,1,0.1035,0.9983,0.1733*
1,1,0.1035,0.9983,-0.1733*
%
%ADD43ROUNDEDRECTD43*%
G04:AMPARAMS|DCode=44|XSize=2.2mm|YSize=1.7mm|CornerRadius=0.058mm|HoleSize=0mm|Usage=FLASHONLY|Rotation=270.000|XOffset=0mm|YOffset=0mm|HoleType=Round|Shape=RoundedRectangle|*
%AMROUNDEDRECTD44*
21,1,2.2000,1.5840,0,0,270.0*
21,1,2.0840,1.7000,0,0,270.0*
1,1,0.1160,-0.7920,-1.0420*
1,1,0.1160,-0.7920,1.0420*
1,1,0.1160,0.7920,1.0420*
1,1,0.1160,0.7920,-1.0420*
%
%ADD44ROUNDEDRECTD44*%
G04:AMPARAMS|DCode=45|XSize=0.95mm|YSize=0.75mm|CornerRadius=0.0533mm|HoleSize=0mm|Usage=FLASHONLY|Rotation=0.000|XOffset=0mm|YOffset=0mm|HoleType=Round|Shape=RoundedRectangle|*
%AMROUNDEDRECTD45*
21,1,0.9500,0.6435,0,0,0.0*
21,1,0.8435,0.7500,0,0,0.0*
1,1,0.1065,0.4218,-0.3218*
1,1,0.1065,-0.4218,-0.3218*
1,1,0.1065,-0.4218,0.3218*
1,1,0.1065,0.4218,0.3218*
%
%ADD45ROUNDEDRECTD45*%
G04:AMPARAMS|DCode=46|XSize=0.7mm|YSize=1.1mm|CornerRadius=0.053mm|HoleSize=0mm|Usage=FLASHONLY|Rotation=270.000|XOffset=0mm|YOffset=0mm|HoleType=Round|Shape=RoundedRectangle|*
%AMROUNDEDRECTD46*
21,1,0.7000,0.9940,0,0,270.0*
21,1,0.5940,1.1000,0,0,270.0*
1,1,0.1060,-0.4970,-0.2970*
1,1,0.1060,-0.4970,0.2970*
1,1,0.1060,0.4970,0.2970*
1,1,0.1060,0.4970,-0.2970*
%
%ADD46ROUNDEDRECTD46*%
G04:AMPARAMS|DCode=47|XSize=0.9mm|YSize=0.8mm|CornerRadius=0.0535mm|HoleSize=0mm|Usage=FLASHONLY|Rotation=180.000|XOffset=0mm|YOffset=0mm|HoleType=Round|Shape=RoundedRectangle|*
%AMROUNDEDRECTD47*
21,1,0.9000,0.6930,0,0,180.0*
21,1,0.7930,0.8000,0,0,180.0*
1,1,0.1070,-0.3965,0.3465*
1,1,0.1070,0.3965,0.3465*
1,1,0.1070,0.3965,-0.3465*
1,1,0.1070,-0.3965,-0.3465*
%
%ADD47ROUNDEDRECTD47*%
G04:AMPARAMS|DCode=48|XSize=0.95mm|YSize=0.75mm|CornerRadius=0.0533mm|HoleSize=0mm|Usage=FLASHONLY|Rotation=270.000|XOffset=0mm|YOffset=0mm|HoleType=Round|Shape=RoundedRectangle|*
%AMROUNDEDRECTD48*
21,1,0.9500,0.6435,0,0,270.0*
21,1,0.8435,0.7500,0,0,270.0*
1,1,0.1065,-0.3218,-0.4218*
1,1,0.1065,-0.3218,0.4218*
1,1,0.1065,0.3218,0.4218*
1,1,0.1065,0.3218,-0.4218*
%
%ADD48ROUNDEDRECTD48*%
G04:AMPARAMS|DCode=49|XSize=0.4mm|YSize=0.5mm|CornerRadius=0.0515mm|HoleSize=0mm|Usage=FLASHONLY|Rotation=90.000|XOffset=0mm|YOffset=0mm|HoleType=Round|Shape=RoundedRectangle|*
%AMROUNDEDRECTD49*
21,1,0.4000,0.3970,0,0,90.0*
21,1,0.2970,0.5000,0,0,90.0*
1,1,0.1030,0.1985,0.1485*
1,1,0.1030,0.1985,-0.1485*
1,1,0.1030,-0.1985,-0.1485*
1,1,0.1030,-0.1985,0.1485*
%
%ADD49ROUNDEDRECTD49*%
G04:AMPARAMS|DCode=50|XSize=0.9mm|YSize=0.8mm|CornerRadius=0.0535mm|HoleSize=0mm|Usage=FLASHONLY|Rotation=270.000|XOffset=0mm|YOffset=0mm|HoleType=Round|Shape=RoundedRectangle|*
%AMROUNDEDRECTD50*
21,1,0.9000,0.6930,0,0,270.0*
21,1,0.7930,0.8000,0,0,270.0*
1,1,0.1070,-0.3465,-0.3965*
1,1,0.1070,-0.3465,0.3965*
1,1,0.1070,0.3465,0.3965*
1,1,0.1070,0.3465,-0.3965*
%
%ADD50ROUNDEDRECTD50*%
G04:AMPARAMS|DCode=51|XSize=0.4mm|YSize=0.5mm|CornerRadius=0.0515mm|HoleSize=0mm|Usage=FLASHONLY|Rotation=180.000|XOffset=0mm|YOffset=0mm|HoleType=Round|Shape=RoundedRectangle|*
%AMROUNDEDRECTD51*
21,1,0.4000,0.3970,0,0,180.0*
21,1,0.2970,0.5000,0,0,180.0*
1,1,0.1030,-0.1485,0.1985*
1,1,0.1030,0.1485,0.1985*
1,1,0.1030,0.1485,-0.1985*
1,1,0.1030,-0.1485,-0.1985*
%
%ADD51ROUNDEDRECTD51*%
D34*
X10065473Y10032784D02*
D03*
Y10072784D02*
D03*
D35*
X10041973Y10081085D02*
D03*
Y10024484D02*
D03*
D36*
X10209410Y10082500D02*
D03*
D37*
X10089410D02*
D03*
D38*
X10124410Y10152500D02*
D03*
X10174410D02*
D03*
X10149410Y10007500D02*
D03*
X10124410D02*
D03*
X10174410D02*
D03*
D39*
X10185787Y10109675D02*
D03*
X10160386D02*
D03*
X10134987D02*
D03*
X10185787Y10135076D02*
D03*
X10134987D02*
D03*
X10160386D02*
D03*
D42*
X10183744Y10090426D02*
D03*
Y10077426D02*
D03*
Y10070926D02*
D03*
Y10064426D02*
D03*
Y10057926D02*
D03*
Y10051426D02*
D03*
Y10044926D02*
D03*
Y10031926D02*
D03*
X10125744Y10090426D02*
D03*
Y10077426D02*
D03*
Y10070926D02*
D03*
Y10064426D02*
D03*
Y10057926D02*
D03*
Y10051426D02*
D03*
Y10044926D02*
D03*
Y10031926D02*
D03*
X10183744Y10083926D02*
D03*
Y10038426D02*
D03*
X10125744Y10083926D02*
D03*
Y10038426D02*
D03*
D43*
X10068474Y10059284D02*
D03*
Y10065784D02*
D03*
X10068223Y10052784D02*
D03*
Y10046284D02*
D03*
Y10039785D02*
D03*
D44*
X10067473Y10083784D02*
D03*
Y10021784D02*
D03*
D45*
X10064165Y10129683D02*
D03*
Y10115183D02*
D03*
X10119185Y10103404D02*
D03*
Y10117904D02*
D03*
X10093339Y10008221D02*
D03*
Y10022721D02*
D03*
X10201805Y10124601D02*
D03*
Y10110101D02*
D03*
D46*
X10102877Y10105684D02*
D03*
Y10124683D02*
D03*
X10080876Y10115183D02*
D03*
D47*
X10107106Y10008721D02*
D03*
Y10022721D02*
D03*
X10201805Y10149776D02*
D03*
Y10135776D02*
D03*
D48*
X10211812Y10053965D02*
D03*
X10197311D02*
D03*
Y10034466D02*
D03*
X10211812D02*
D03*
D49*
X10055098Y10101834D02*
D03*
X10064598D02*
D03*
D50*
X10197311Y10019346D02*
D03*
X10211312D02*
D03*
X10103207Y10144148D02*
D03*
X10089207D02*
D03*
D51*
X10099787Y10052772D02*
D03*
Y10062272D02*
D03*
Y10034066D02*
D03*
Y10043566D02*
D03*
%TF.MD5,0eafa2da75e6fa4f7569d3040d35d050*%
M02*
