M48
;Layer_Color=0
;FILE_FORMAT=4:4
METRIC
;TYPE=PLATED
T1F00S00C0.4000
T3F00S00C0.8000
%
T01
X10148680Y10093950
Y10057926
X10137552Y10064426
X10111495Y10059775
Y10069142
X10091171Y10050853
X10090976Y10035594
X10083662Y10039785
Y10031403
X10052812Y10037572
Y10045954
Y10054336
X10044430
X10036048
Y10045954
Y10037572
X10044430
Y10045954
X10072223Y10101834
X10073967Y10129683
X10084329
X10054046Y10139183
X10044176Y10130536
X10169336Y10057926
T03
X10185787Y10135076
Y10109675
X10160386
X10134987
Y10135076
X10160386
M30
