%TF.GenerationSoftware,Altium Limited,Altium Designer,20.1.8 (145)*%
G04 Layer_Color=8242323*
%FSLAX44Y44*%
%MOMM*%
%TF.SameCoordinates,E54140C2-77ED-4701-9F9C-26571285D32F*%
%TF.FilePolarity,Positive*%
%TF.FileFunction,Other,Dimensions*%
%TF.Part,Single*%
G01*
G75*
%TA.AperFunction,NonConductor*%
%ADD31C,0.1016*%
D31*
X10231334Y10005000D02*
X10233000Y10000000D01*
X10234667Y10005000D01*
X10233000Y10160000D02*
X10234667Y10155000D01*
X10231334D02*
X10233000Y10160000D01*
Y10000000D02*
Y10065106D01*
Y10090830D02*
Y10160000D01*
X10221524Y10000000D02*
X10234016D01*
X10221524Y10160000D02*
X10234016D01*
X10030000Y9987000D02*
X10035000Y9988666D01*
X10030000Y9987000D02*
X10035000Y9985333D01*
X10215000D02*
X10220000Y9987000D01*
X10215000Y9988666D02*
X10220000Y9987000D01*
X10030000D02*
X10110106D01*
X10135830D02*
X10220000D01*
X10030000Y9985984D02*
Y9998476D01*
X10220000Y9985984D02*
Y9998476D01*
X10236516Y10067138D02*
Y10068804D01*
Y10067971D01*
X10231517D01*
X10232350Y10067138D01*
X10231517Y10074636D02*
X10232350Y10072969D01*
X10234016Y10071304D01*
X10235682D01*
X10236516Y10072137D01*
Y10073802D01*
X10235682Y10074636D01*
X10234849D01*
X10234016Y10073802D01*
Y10071304D01*
X10236516Y10076302D02*
X10235682D01*
Y10077135D01*
X10236516D01*
Y10076302D01*
X10232350Y10080467D02*
X10231517Y10081300D01*
Y10082966D01*
X10232350Y10083799D01*
X10235682D01*
X10236516Y10082966D01*
Y10081300D01*
X10235682Y10080467D01*
X10232350D01*
Y10085466D02*
X10231517Y10086299D01*
Y10087964D01*
X10232350Y10088798D01*
X10235682D01*
X10236516Y10087964D01*
Y10086299D01*
X10235682Y10085466D01*
X10232350D01*
X10112138Y9983484D02*
X10113804D01*
X10112971D01*
Y9988483D01*
X10112138Y9987650D01*
X10116304Y9984318D02*
X10117137Y9983484D01*
X10118802D01*
X10119636Y9984318D01*
Y9987650D01*
X10118802Y9988483D01*
X10117137D01*
X10116304Y9987650D01*
Y9986817D01*
X10117137Y9985984D01*
X10119636D01*
X10121302Y9983484D02*
Y9984318D01*
X10122135D01*
Y9983484D01*
X10121302D01*
X10125467Y9987650D02*
X10126300Y9988483D01*
X10127966D01*
X10128799Y9987650D01*
Y9984318D01*
X10127966Y9983484D01*
X10126300D01*
X10125467Y9984318D01*
Y9987650D01*
X10130466D02*
X10131299Y9988483D01*
X10132964D01*
X10133798Y9987650D01*
Y9984318D01*
X10132964Y9983484D01*
X10131299D01*
X10130466Y9984318D01*
Y9987650D01*
%TF.MD5,1dae46aafe291e05df510320935e27c6*%
M02*
