%TF.GenerationSoftware,Altium Limited,Altium Designer,20.1.8 (145)*%
G04 Layer_Physical_Order=2*
G04 Layer_Color=16711680*
%FSLAX45Y45*%
%MOMM*%
%TF.SameCoordinates,0AB19B83-9B04-4470-A1CB-4E81E99A1085*%
%TF.FilePolarity,Positive*%
%TF.FileFunction,Copper,L2,Bot,Signal*%
%TF.Part,CustomerPanel*%
G01*
G75*
%TA.AperFunction,SMDPad,CuDef*%
%ADD10C,1.00000*%
%TA.AperFunction,WasherPad*%
%ADD11C,0.60000*%
%TA.AperFunction,ComponentPad*%
%ADD12O,1.80000X1.50000*%
G04:AMPARAMS|DCode=13|XSize=1.1mm|YSize=1.1mm|CornerRadius=0.55mm|HoleSize=0mm|Usage=FLASHONLY|Rotation=90.000|XOffset=0mm|YOffset=0mm|HoleType=Round|Shape=RoundedRectangle|*
%AMROUNDEDRECTD13*
21,1,1.10000,0.00000,0,0,90.0*
21,1,0.00000,1.10000,0,0,90.0*
1,1,1.10000,0.00000,0.00000*
1,1,1.10000,0.00000,0.00000*
1,1,1.10000,0.00000,0.00000*
1,1,1.10000,0.00000,0.00000*
%
%ADD13ROUNDEDRECTD13*%
%ADD14O,1.70000X1.00000*%
%ADD15O,2.00000X3.25000*%
G04:AMPARAMS|DCode=16|XSize=2mm|YSize=3.25mm|CornerRadius=1mm|HoleSize=0mm|Usage=FLASHONLY|Rotation=180.000|XOffset=0mm|YOffset=0mm|HoleType=Round|Shape=RoundedRectangle|*
%AMROUNDEDRECTD16*
21,1,2.00000,1.25000,0,0,180.0*
21,1,0.00000,3.25000,0,0,180.0*
1,1,2.00000,0.00000,0.62500*
1,1,2.00000,0.00000,0.62500*
1,1,2.00000,0.00000,-0.62500*
1,1,2.00000,0.00000,-0.62500*
%
%ADD16ROUNDEDRECTD16*%
%TA.AperFunction,ViaPad*%
%ADD17C,0.61000*%
%TA.AperFunction,SMDPad,CuDef*%
%ADD18O,1.25000X0.30000*%
G04:AMPARAMS|DCode=19|XSize=1.6mm|YSize=1.6mm|CornerRadius=0.008mm|HoleSize=0mm|Usage=FLASHONLY|Rotation=270.000|XOffset=0mm|YOffset=0mm|HoleType=Round|Shape=RoundedRectangle|*
%AMROUNDEDRECTD19*
21,1,1.60000,1.58400,0,0,270.0*
21,1,1.58400,1.60000,0,0,270.0*
1,1,0.01600,-0.79200,-0.79200*
1,1,0.01600,-0.79200,0.79200*
1,1,0.01600,0.79200,0.79200*
1,1,0.01600,0.79200,-0.79200*
%
%ADD19ROUNDEDRECTD19*%
%TA.AperFunction,ConnectorPad*%
G04:AMPARAMS|DCode=20|XSize=0.35mm|YSize=2mm|CornerRadius=0.175mm|HoleSize=0mm|Usage=FLASHONLY|Rotation=270.000|XOffset=0mm|YOffset=0mm|HoleType=Round|Shape=RoundedRectangle|*
%AMROUNDEDRECTD20*
21,1,0.35000,1.65000,0,0,270.0*
21,1,0.00000,2.00000,0,0,270.0*
1,1,0.35000,-0.82500,0.00000*
1,1,0.35000,-0.82500,0.00000*
1,1,0.35000,0.82500,0.00000*
1,1,0.35000,0.82500,0.00000*
%
%ADD20ROUNDEDRECTD20*%
%TA.AperFunction,SMDPad,CuDef*%
G04:AMPARAMS|DCode=21|XSize=0.8mm|YSize=0.7mm|CornerRadius=0.0035mm|HoleSize=0mm|Usage=FLASHONLY|Rotation=0.000|XOffset=0mm|YOffset=0mm|HoleType=Round|Shape=RoundedRectangle|*
%AMROUNDEDRECTD21*
21,1,0.80000,0.69300,0,0,0.0*
21,1,0.79300,0.70000,0,0,0.0*
1,1,0.00700,0.39650,-0.34650*
1,1,0.00700,-0.39650,-0.34650*
1,1,0.00700,-0.39650,0.34650*
1,1,0.00700,0.39650,0.34650*
%
%ADD21ROUNDEDRECTD21*%
G04:AMPARAMS|DCode=22|XSize=0.85mm|YSize=0.75mm|CornerRadius=0.00375mm|HoleSize=0mm|Usage=FLASHONLY|Rotation=270.000|XOffset=0mm|YOffset=0mm|HoleType=Round|Shape=RoundedRectangle|*
%AMROUNDEDRECTD22*
21,1,0.85000,0.74250,0,0,270.0*
21,1,0.84250,0.75000,0,0,270.0*
1,1,0.00750,-0.37125,-0.42125*
1,1,0.00750,-0.37125,0.42125*
1,1,0.00750,0.37125,0.42125*
1,1,0.00750,0.37125,-0.42125*
%
%ADD22ROUNDEDRECTD22*%
G04:AMPARAMS|DCode=23|XSize=0.85mm|YSize=0.75mm|CornerRadius=0.00375mm|HoleSize=0mm|Usage=FLASHONLY|Rotation=0.000|XOffset=0mm|YOffset=0mm|HoleType=Round|Shape=RoundedRectangle|*
%AMROUNDEDRECTD23*
21,1,0.85000,0.74250,0,0,0.0*
21,1,0.84250,0.75000,0,0,0.0*
1,1,0.00750,0.42125,-0.37125*
1,1,0.00750,-0.42125,-0.37125*
1,1,0.00750,-0.42125,0.37125*
1,1,0.00750,0.42125,0.37125*
%
%ADD23ROUNDEDRECTD23*%
G04:AMPARAMS|DCode=24|XSize=0.8mm|YSize=0.7mm|CornerRadius=0.0035mm|HoleSize=0mm|Usage=FLASHONLY|Rotation=90.000|XOffset=0mm|YOffset=0mm|HoleType=Round|Shape=RoundedRectangle|*
%AMROUNDEDRECTD24*
21,1,0.80000,0.69300,0,0,90.0*
21,1,0.79300,0.70000,0,0,90.0*
1,1,0.00700,0.34650,0.39650*
1,1,0.00700,0.34650,-0.39650*
1,1,0.00700,-0.34650,-0.39650*
1,1,0.00700,-0.34650,0.39650*
%
%ADD24ROUNDEDRECTD24*%
G04:AMPARAMS|DCode=25|XSize=0.4mm|YSize=0.4mm|CornerRadius=0.002mm|HoleSize=0mm|Usage=FLASHONLY|Rotation=180.000|XOffset=0mm|YOffset=0mm|HoleType=Round|Shape=RoundedRectangle|*
%AMROUNDEDRECTD25*
21,1,0.40000,0.39600,0,0,180.0*
21,1,0.39600,0.40000,0,0,180.0*
1,1,0.00400,-0.19800,0.19800*
1,1,0.00400,0.19800,0.19800*
1,1,0.00400,0.19800,-0.19800*
1,1,0.00400,-0.19800,-0.19800*
%
%ADD25ROUNDEDRECTD25*%
G04:AMPARAMS|DCode=26|XSize=0.9mm|YSize=0.9mm|CornerRadius=0.045mm|HoleSize=0mm|Usage=FLASHONLY|Rotation=180.000|XOffset=0mm|YOffset=0mm|HoleType=Round|Shape=RoundedRectangle|*
%AMROUNDEDRECTD26*
21,1,0.90000,0.81000,0,0,180.0*
21,1,0.81000,0.90000,0,0,180.0*
1,1,0.09000,-0.40500,0.40500*
1,1,0.09000,0.40500,0.40500*
1,1,0.09000,0.40500,-0.40500*
1,1,0.09000,-0.40500,-0.40500*
%
%ADD26ROUNDEDRECTD26*%
%TA.AperFunction,Conductor*%
%ADD27C,0.12700*%
%ADD28C,0.15240*%
%ADD29C,0.20320*%
%ADD30C,0.27940*%
%ADD31C,0.35560*%
%ADD32C,0.22860*%
D10*
X9500000Y8500000D02*
D03*
X500000D02*
D03*
X9500000Y1500000D02*
D03*
X500000D02*
D03*
D11*
X8000000Y2300000D02*
D03*
X8080000D02*
D03*
X8160000D02*
D03*
X8240000D02*
D03*
X6960000Y980000D02*
D03*
Y1060000D02*
D03*
Y1140000D02*
D03*
Y1220000D02*
D03*
Y1300000D02*
D03*
X8720000Y1060000D02*
D03*
Y1300000D02*
D03*
Y1140000D02*
D03*
Y1220000D02*
D03*
Y980000D02*
D03*
X8240000Y700000D02*
D03*
X8160000D02*
D03*
X8080000D02*
D03*
X8000000D02*
D03*
X6080000D02*
D03*
X6160000D02*
D03*
X6240000D02*
D03*
X6320000D02*
D03*
X6800000Y980000D02*
D03*
Y1220000D02*
D03*
Y1140000D02*
D03*
Y1300000D02*
D03*
Y1060000D02*
D03*
X5040000Y1300000D02*
D03*
Y1220000D02*
D03*
Y1140000D02*
D03*
Y1060000D02*
D03*
Y980000D02*
D03*
X6320000Y2300000D02*
D03*
X6240000D02*
D03*
X6160000D02*
D03*
X6080000D02*
D03*
X4160000D02*
D03*
X4240000D02*
D03*
X4320000D02*
D03*
X4400000D02*
D03*
X3120000Y980000D02*
D03*
Y1060000D02*
D03*
Y1140000D02*
D03*
Y1220000D02*
D03*
Y1300000D02*
D03*
X4880000Y1060000D02*
D03*
Y1300000D02*
D03*
Y1140000D02*
D03*
Y1220000D02*
D03*
Y980000D02*
D03*
X4400000Y700000D02*
D03*
X4320000D02*
D03*
X4240000D02*
D03*
X4160000D02*
D03*
X2240000D02*
D03*
X2320000D02*
D03*
X2400000D02*
D03*
X2480000D02*
D03*
X2960000Y980000D02*
D03*
Y1220000D02*
D03*
Y1140000D02*
D03*
Y1300000D02*
D03*
Y1060000D02*
D03*
X1200000Y1300000D02*
D03*
Y1220000D02*
D03*
Y1140000D02*
D03*
Y1060000D02*
D03*
Y980000D02*
D03*
X2480000Y2300000D02*
D03*
X2400000D02*
D03*
X2320000D02*
D03*
X2240000D02*
D03*
X8000000Y5820000D02*
D03*
X8080000D02*
D03*
X8160000D02*
D03*
X8240000D02*
D03*
X6960000Y4500000D02*
D03*
Y4580000D02*
D03*
Y4660000D02*
D03*
Y4740000D02*
D03*
Y4820000D02*
D03*
X8720000Y4580000D02*
D03*
Y4820000D02*
D03*
Y4660000D02*
D03*
Y4740000D02*
D03*
Y4500000D02*
D03*
X8240000Y4220000D02*
D03*
X8160000D02*
D03*
X8080000D02*
D03*
X8000000D02*
D03*
Y2460000D02*
D03*
X8080000D02*
D03*
X8160000D02*
D03*
X8240000D02*
D03*
X8720000Y2740000D02*
D03*
Y2980000D02*
D03*
Y2900000D02*
D03*
Y3060000D02*
D03*
Y2820000D02*
D03*
X6960000Y3060000D02*
D03*
Y2980000D02*
D03*
Y2900000D02*
D03*
Y2820000D02*
D03*
Y2740000D02*
D03*
X8240000Y4060000D02*
D03*
X8160000D02*
D03*
X8080000D02*
D03*
X8000000D02*
D03*
X6080000Y4220000D02*
D03*
X6160000D02*
D03*
X6240000D02*
D03*
X6320000D02*
D03*
X6800000Y4500000D02*
D03*
Y4740000D02*
D03*
Y4660000D02*
D03*
Y4820000D02*
D03*
Y4580000D02*
D03*
X5040000Y4820000D02*
D03*
Y4740000D02*
D03*
Y4660000D02*
D03*
Y4580000D02*
D03*
Y4500000D02*
D03*
X6320000Y5820000D02*
D03*
X6240000D02*
D03*
X6160000D02*
D03*
X6080000D02*
D03*
Y2460000D02*
D03*
X6160000D02*
D03*
X6240000D02*
D03*
X6320000D02*
D03*
X6800000Y2740000D02*
D03*
Y2980000D02*
D03*
Y2900000D02*
D03*
Y3060000D02*
D03*
Y2820000D02*
D03*
X5040000Y3060000D02*
D03*
Y2980000D02*
D03*
Y2900000D02*
D03*
Y2820000D02*
D03*
Y2740000D02*
D03*
X6320000Y4060000D02*
D03*
X6240000D02*
D03*
X6160000D02*
D03*
X6080000D02*
D03*
X4160000Y5820000D02*
D03*
X4240000D02*
D03*
X4320000D02*
D03*
X4400000D02*
D03*
X3120000Y4500000D02*
D03*
Y4580000D02*
D03*
Y4660000D02*
D03*
Y4740000D02*
D03*
Y4820000D02*
D03*
X4880000Y4580000D02*
D03*
Y4820000D02*
D03*
Y4660000D02*
D03*
Y4740000D02*
D03*
Y4500000D02*
D03*
X4400000Y4220000D02*
D03*
X4320000D02*
D03*
X4240000D02*
D03*
X4160000D02*
D03*
Y2460000D02*
D03*
X4240000D02*
D03*
X4320000D02*
D03*
X4400000D02*
D03*
X4880000Y2740000D02*
D03*
Y2980000D02*
D03*
Y2900000D02*
D03*
Y3060000D02*
D03*
Y2820000D02*
D03*
X3120000Y3060000D02*
D03*
Y2980000D02*
D03*
Y2900000D02*
D03*
Y2820000D02*
D03*
Y2740000D02*
D03*
X4400000Y4060000D02*
D03*
X4320000D02*
D03*
X4240000D02*
D03*
X4160000D02*
D03*
X2240000Y4220000D02*
D03*
X2320000D02*
D03*
X2400000D02*
D03*
X2480000D02*
D03*
X2960000Y4500000D02*
D03*
Y4740000D02*
D03*
Y4660000D02*
D03*
Y4820000D02*
D03*
Y4580000D02*
D03*
X1200000Y4820000D02*
D03*
Y4740000D02*
D03*
Y4660000D02*
D03*
Y4580000D02*
D03*
Y4500000D02*
D03*
X2480000Y5820000D02*
D03*
X2400000D02*
D03*
X2320000D02*
D03*
X2240000D02*
D03*
Y2460000D02*
D03*
X2320000D02*
D03*
X2400000D02*
D03*
X2480000D02*
D03*
X2960000Y2740000D02*
D03*
Y2980000D02*
D03*
Y2900000D02*
D03*
Y3060000D02*
D03*
Y2820000D02*
D03*
X1200000Y3060000D02*
D03*
Y2980000D02*
D03*
Y2900000D02*
D03*
Y2820000D02*
D03*
Y2740000D02*
D03*
X2480000Y4060000D02*
D03*
X2400000D02*
D03*
X2320000D02*
D03*
X2240000D02*
D03*
X4160000Y9340000D02*
D03*
X4240000D02*
D03*
X4320000D02*
D03*
X4400000D02*
D03*
X3120000Y8020000D02*
D03*
Y8100000D02*
D03*
Y8180000D02*
D03*
Y8260000D02*
D03*
Y8340000D02*
D03*
X4880000Y8100000D02*
D03*
Y8340000D02*
D03*
Y8180000D02*
D03*
Y8260000D02*
D03*
Y8020000D02*
D03*
X4400000Y7740000D02*
D03*
X4320000D02*
D03*
X4240000D02*
D03*
X4160000D02*
D03*
Y5980000D02*
D03*
X4240000D02*
D03*
X4320000D02*
D03*
X4400000D02*
D03*
X4880000Y6260000D02*
D03*
Y6500000D02*
D03*
Y6420000D02*
D03*
Y6580000D02*
D03*
Y6340000D02*
D03*
X3120000Y6580000D02*
D03*
Y6500000D02*
D03*
Y6420000D02*
D03*
Y6340000D02*
D03*
Y6260000D02*
D03*
X4400000Y7580000D02*
D03*
X4320000D02*
D03*
X4240000D02*
D03*
X4160000D02*
D03*
X2240000Y7740000D02*
D03*
X2320000D02*
D03*
X2400000D02*
D03*
X2480000D02*
D03*
X2960000Y8020000D02*
D03*
Y8260000D02*
D03*
Y8180000D02*
D03*
Y8340000D02*
D03*
Y8100000D02*
D03*
X1200000Y8340000D02*
D03*
Y8260000D02*
D03*
Y8180000D02*
D03*
Y8100000D02*
D03*
Y8020000D02*
D03*
X2480000Y9340000D02*
D03*
X2400000D02*
D03*
X2320000D02*
D03*
X2240000D02*
D03*
Y5980000D02*
D03*
X2320000D02*
D03*
X2400000D02*
D03*
X2480000D02*
D03*
X2960000Y6260000D02*
D03*
Y6500000D02*
D03*
Y6420000D02*
D03*
Y6580000D02*
D03*
Y6340000D02*
D03*
X1200000Y6580000D02*
D03*
Y6500000D02*
D03*
Y6420000D02*
D03*
Y6340000D02*
D03*
Y6260000D02*
D03*
X2480000Y7580000D02*
D03*
X2400000D02*
D03*
X2320000D02*
D03*
X2240000D02*
D03*
X6080000D02*
D03*
X6160000D02*
D03*
X6240000D02*
D03*
X6320000D02*
D03*
X5040000Y6260000D02*
D03*
Y6340000D02*
D03*
Y6420000D02*
D03*
Y6500000D02*
D03*
Y6580000D02*
D03*
X6800000Y6340000D02*
D03*
Y6580000D02*
D03*
Y6420000D02*
D03*
Y6500000D02*
D03*
Y6260000D02*
D03*
X6320000Y5980000D02*
D03*
X6240000D02*
D03*
X6160000D02*
D03*
X6080000D02*
D03*
Y9340000D02*
D03*
X6160000D02*
D03*
X6240000D02*
D03*
X6320000D02*
D03*
X5040000Y8020000D02*
D03*
Y8100000D02*
D03*
Y8180000D02*
D03*
Y8260000D02*
D03*
Y8340000D02*
D03*
X6800000Y8100000D02*
D03*
Y8340000D02*
D03*
Y8180000D02*
D03*
Y8260000D02*
D03*
Y8020000D02*
D03*
X6320000Y7740000D02*
D03*
X6240000D02*
D03*
X6160000D02*
D03*
X6080000D02*
D03*
X8000000Y7580000D02*
D03*
X8080000D02*
D03*
X8160000D02*
D03*
X8240000D02*
D03*
X6960000Y6260000D02*
D03*
Y6340000D02*
D03*
Y6420000D02*
D03*
Y6500000D02*
D03*
Y6580000D02*
D03*
X8720000Y6340000D02*
D03*
Y6580000D02*
D03*
Y6420000D02*
D03*
Y6500000D02*
D03*
Y6260000D02*
D03*
X8240000Y5980000D02*
D03*
X8160000D02*
D03*
X8080000D02*
D03*
X8000000D02*
D03*
Y7740000D02*
D03*
X8080000D02*
D03*
X8160000D02*
D03*
X8240000D02*
D03*
X8720000Y8020000D02*
D03*
Y8260000D02*
D03*
Y8180000D02*
D03*
Y8340000D02*
D03*
Y8100000D02*
D03*
X6960000Y8340000D02*
D03*
Y8260000D02*
D03*
Y8180000D02*
D03*
Y8100000D02*
D03*
Y8020000D02*
D03*
X8240000Y9340000D02*
D03*
X8160000D02*
D03*
X8080000D02*
D03*
X8000000D02*
D03*
D12*
X2848480Y1549000D02*
D03*
Y2115000D02*
D03*
X4768480Y1549000D02*
D03*
Y2115000D02*
D03*
X6688480Y1549000D02*
D03*
Y2115000D02*
D03*
X8608480Y1549000D02*
D03*
Y2115000D02*
D03*
X2848480Y3309000D02*
D03*
Y3875000D02*
D03*
X4768480Y3309000D02*
D03*
Y3875000D02*
D03*
X6688480Y3309000D02*
D03*
Y3875000D02*
D03*
X8608480Y3309000D02*
D03*
Y3875000D02*
D03*
X2848480Y5069000D02*
D03*
Y5635000D02*
D03*
X4768480Y5069000D02*
D03*
Y5635000D02*
D03*
X6688480Y5069000D02*
D03*
Y5635000D02*
D03*
X8608480Y5069000D02*
D03*
Y5635000D02*
D03*
X2848480Y6829000D02*
D03*
Y7395000D02*
D03*
X4768480Y6829000D02*
D03*
Y7395000D02*
D03*
X6688480Y6829000D02*
D03*
Y7395000D02*
D03*
X8608480Y6829000D02*
D03*
Y7395000D02*
D03*
X2848480Y8589000D02*
D03*
Y9155000D02*
D03*
X4768480Y8589000D02*
D03*
Y9155000D02*
D03*
X6688480Y8589000D02*
D03*
Y9155000D02*
D03*
X8608480Y8589000D02*
D03*
Y9155000D02*
D03*
D13*
X2644000Y1081000D02*
D03*
Y1335000D02*
D03*
Y827000D02*
D03*
X4564000Y1081000D02*
D03*
Y1335000D02*
D03*
Y827000D02*
D03*
X6484000Y1081000D02*
D03*
Y1335000D02*
D03*
Y827000D02*
D03*
X8404000Y1081000D02*
D03*
Y1335000D02*
D03*
Y827000D02*
D03*
X2644000Y2841000D02*
D03*
Y3095000D02*
D03*
Y2587000D02*
D03*
X4564000Y2841000D02*
D03*
Y3095000D02*
D03*
Y2587000D02*
D03*
X6484000Y2841000D02*
D03*
Y3095000D02*
D03*
Y2587000D02*
D03*
X8404000Y2841000D02*
D03*
Y3095000D02*
D03*
Y2587000D02*
D03*
X2644000Y4601000D02*
D03*
Y4855000D02*
D03*
Y4347000D02*
D03*
X4564000Y4601000D02*
D03*
Y4855000D02*
D03*
Y4347000D02*
D03*
X6484000Y4601000D02*
D03*
Y4855000D02*
D03*
Y4347000D02*
D03*
X8404000Y4601000D02*
D03*
Y4855000D02*
D03*
Y4347000D02*
D03*
X2644000Y6361000D02*
D03*
Y6615000D02*
D03*
Y6107000D02*
D03*
X4564000Y6361000D02*
D03*
Y6615000D02*
D03*
Y6107000D02*
D03*
X6484000Y6361000D02*
D03*
Y6615000D02*
D03*
Y6107000D02*
D03*
X8404000Y6361000D02*
D03*
Y6615000D02*
D03*
Y6107000D02*
D03*
X2644000Y8121000D02*
D03*
Y8375000D02*
D03*
Y7867000D02*
D03*
X4564000Y8121000D02*
D03*
Y8375000D02*
D03*
Y7867000D02*
D03*
X6484000Y8121000D02*
D03*
Y8375000D02*
D03*
Y7867000D02*
D03*
X8404000Y8121000D02*
D03*
Y8375000D02*
D03*
Y7867000D02*
D03*
D14*
X1605420Y775500D02*
D03*
X2105420D02*
D03*
X1855420Y2225500D02*
D03*
X1605420D02*
D03*
X2105420D02*
D03*
X3525420Y775500D02*
D03*
X4025420D02*
D03*
X3775420Y2225500D02*
D03*
X3525420D02*
D03*
X4025420D02*
D03*
X5445420Y775500D02*
D03*
X5945420D02*
D03*
X5695420Y2225500D02*
D03*
X5445420D02*
D03*
X5945420D02*
D03*
X7365420Y775500D02*
D03*
X7865420D02*
D03*
X7615420Y2225500D02*
D03*
X7365420D02*
D03*
X7865420D02*
D03*
X1605420Y2535500D02*
D03*
X2105420D02*
D03*
X1855420Y3985500D02*
D03*
X1605420D02*
D03*
X2105420D02*
D03*
X3525420Y2535500D02*
D03*
X4025420D02*
D03*
X3775420Y3985500D02*
D03*
X3525420D02*
D03*
X4025420D02*
D03*
X5445420Y2535500D02*
D03*
X5945420D02*
D03*
X5695420Y3985500D02*
D03*
X5445420D02*
D03*
X5945420D02*
D03*
X7365420Y2535500D02*
D03*
X7865420D02*
D03*
X7615420Y3985500D02*
D03*
X7365420D02*
D03*
X7865420D02*
D03*
X1605420Y4295500D02*
D03*
X2105420D02*
D03*
X1855420Y5745500D02*
D03*
X1605420D02*
D03*
X2105420D02*
D03*
X3525420Y4295500D02*
D03*
X4025420D02*
D03*
X3775420Y5745500D02*
D03*
X3525420D02*
D03*
X4025420D02*
D03*
X5445420Y4295500D02*
D03*
X5945420D02*
D03*
X5695420Y5745500D02*
D03*
X5445420D02*
D03*
X5945420D02*
D03*
X7365420Y4295500D02*
D03*
X7865420D02*
D03*
X7615420Y5745500D02*
D03*
X7365420D02*
D03*
X7865420D02*
D03*
X1605420Y6055500D02*
D03*
X2105420D02*
D03*
X1855420Y7505500D02*
D03*
X1605420D02*
D03*
X2105420D02*
D03*
X3525420Y6055500D02*
D03*
X4025420D02*
D03*
X3775420Y7505500D02*
D03*
X3525420D02*
D03*
X4025420D02*
D03*
X5445420Y6055500D02*
D03*
X5945420D02*
D03*
X5695420Y7505500D02*
D03*
X5445420D02*
D03*
X5945420D02*
D03*
X7365420Y6055500D02*
D03*
X7865420D02*
D03*
X7615420Y7505500D02*
D03*
X7365420D02*
D03*
X7865420D02*
D03*
X1605420Y7815500D02*
D03*
X2105420D02*
D03*
X1855420Y9265500D02*
D03*
X1605420D02*
D03*
X2105420D02*
D03*
X3525420Y7815500D02*
D03*
X4025420D02*
D03*
X3775420Y9265500D02*
D03*
X3525420D02*
D03*
X4025420D02*
D03*
X5445420Y7815500D02*
D03*
X5945420D02*
D03*
X5695420Y9265500D02*
D03*
X5445420D02*
D03*
X5945420D02*
D03*
X7365420Y7815500D02*
D03*
X7865420D02*
D03*
X7615420Y9265500D02*
D03*
X7365420D02*
D03*
X7865420D02*
D03*
D15*
X1317920Y1500500D02*
D03*
X3237920D02*
D03*
X5157920D02*
D03*
X7077920D02*
D03*
X1317920Y3260500D02*
D03*
X3237920D02*
D03*
X5157920D02*
D03*
X7077920D02*
D03*
X1317920Y5020500D02*
D03*
X3237920D02*
D03*
X5157920D02*
D03*
X7077920D02*
D03*
X1317920Y6780500D02*
D03*
X3237920D02*
D03*
X5157920D02*
D03*
X7077920D02*
D03*
X1317920Y8540500D02*
D03*
X3237920D02*
D03*
X5157920D02*
D03*
X7077920D02*
D03*
D16*
X2392920Y1500500D02*
D03*
X4312920D02*
D03*
X6232920D02*
D03*
X8152920D02*
D03*
X2392920Y3260500D02*
D03*
X4312920D02*
D03*
X6232920D02*
D03*
X8152920D02*
D03*
X2392920Y5020500D02*
D03*
X4312920D02*
D03*
X6232920D02*
D03*
X8152920D02*
D03*
X2392920Y6780500D02*
D03*
X4312920D02*
D03*
X6232920D02*
D03*
X8152920D02*
D03*
X2392920Y8540500D02*
D03*
X4312920D02*
D03*
X6232920D02*
D03*
X8152920D02*
D03*
D17*
X1570420Y1806660D02*
D03*
X1637450Y1808455D02*
D03*
X1926464Y1653300D02*
D03*
X1808945Y1374127D02*
D03*
X2187639Y1316876D02*
D03*
X2130500Y1653300D02*
D03*
X2322209Y1902080D02*
D03*
X2347208Y1987000D02*
D03*
X2727708Y1702000D02*
D03*
X2446843D02*
D03*
X3490420Y1806660D02*
D03*
X3557450Y1808455D02*
D03*
X3846464Y1653300D02*
D03*
X3728945Y1374127D02*
D03*
X4107639Y1316876D02*
D03*
X4050500Y1653300D02*
D03*
X4242209Y1902080D02*
D03*
X4267208Y1987000D02*
D03*
X4647708Y1702000D02*
D03*
X4366843D02*
D03*
X5410420Y1806660D02*
D03*
X5477450Y1808455D02*
D03*
X5766464Y1653300D02*
D03*
X5648945Y1374127D02*
D03*
X6027639Y1316876D02*
D03*
X5970500Y1653300D02*
D03*
X6162209Y1902080D02*
D03*
X6187208Y1987000D02*
D03*
X6567708Y1702000D02*
D03*
X6286843D02*
D03*
X7330420Y1806660D02*
D03*
X7397450Y1808455D02*
D03*
X7686464Y1653300D02*
D03*
X7568945Y1374127D02*
D03*
X7947639Y1316876D02*
D03*
X7890500Y1653300D02*
D03*
X8082209Y1902080D02*
D03*
X8107208Y1987000D02*
D03*
X8487708Y1702000D02*
D03*
X8206843D02*
D03*
X1570420Y3566660D02*
D03*
X1637450Y3568455D02*
D03*
X1926464Y3413300D02*
D03*
X1808945Y3134127D02*
D03*
X2187639Y3076876D02*
D03*
X2130500Y3413300D02*
D03*
X2322209Y3662080D02*
D03*
X2347208Y3747000D02*
D03*
X2727708Y3462000D02*
D03*
X2446843D02*
D03*
X3490420Y3566660D02*
D03*
X3557450Y3568455D02*
D03*
X3846464Y3413300D02*
D03*
X3728945Y3134127D02*
D03*
X4107639Y3076876D02*
D03*
X4050500Y3413300D02*
D03*
X4242209Y3662080D02*
D03*
X4267208Y3747000D02*
D03*
X4647708Y3462000D02*
D03*
X4366843D02*
D03*
X5410420Y3566660D02*
D03*
X5477450Y3568455D02*
D03*
X5766464Y3413300D02*
D03*
X5648945Y3134127D02*
D03*
X6027639Y3076876D02*
D03*
X5970500Y3413300D02*
D03*
X6162209Y3662080D02*
D03*
X6187208Y3747000D02*
D03*
X6567708Y3462000D02*
D03*
X6286843D02*
D03*
X7330420Y3566660D02*
D03*
X7397450Y3568455D02*
D03*
X7686464Y3413300D02*
D03*
X7568945Y3134127D02*
D03*
X7947639Y3076876D02*
D03*
X7890500Y3413300D02*
D03*
X8082209Y3662080D02*
D03*
X8107208Y3747000D02*
D03*
X8487708Y3462000D02*
D03*
X8206843D02*
D03*
X1570420Y5326660D02*
D03*
X1637450Y5328455D02*
D03*
X1926464Y5173300D02*
D03*
X1808945Y4894127D02*
D03*
X2187639Y4836876D02*
D03*
X2130500Y5173300D02*
D03*
X2322209Y5422080D02*
D03*
X2347208Y5507000D02*
D03*
X2727708Y5222000D02*
D03*
X2446843D02*
D03*
X3490420Y5326660D02*
D03*
X3557450Y5328455D02*
D03*
X3846464Y5173300D02*
D03*
X3728945Y4894127D02*
D03*
X4107639Y4836876D02*
D03*
X4050500Y5173300D02*
D03*
X4242209Y5422080D02*
D03*
X4267208Y5507000D02*
D03*
X4647708Y5222000D02*
D03*
X4366843D02*
D03*
X5410420Y5326660D02*
D03*
X5477450Y5328455D02*
D03*
X5766464Y5173300D02*
D03*
X5648945Y4894127D02*
D03*
X6027639Y4836876D02*
D03*
X5970500Y5173300D02*
D03*
X6162209Y5422080D02*
D03*
X6187208Y5507000D02*
D03*
X6567708Y5222000D02*
D03*
X6286843D02*
D03*
X7330420Y5326660D02*
D03*
X7397450Y5328455D02*
D03*
X7686464Y5173300D02*
D03*
X7568945Y4894127D02*
D03*
X7947639Y4836876D02*
D03*
X7890500Y5173300D02*
D03*
X8082209Y5422080D02*
D03*
X8107208Y5507000D02*
D03*
X8487708Y5222000D02*
D03*
X8206843D02*
D03*
X1570420Y7086660D02*
D03*
X1637450Y7088455D02*
D03*
X1926464Y6933300D02*
D03*
X1808945Y6654127D02*
D03*
X2187639Y6596876D02*
D03*
X2130500Y6933300D02*
D03*
X2322209Y7182080D02*
D03*
X2347208Y7267000D02*
D03*
X2727708Y6982000D02*
D03*
X2446843D02*
D03*
X3490420Y7086660D02*
D03*
X3557450Y7088455D02*
D03*
X3846464Y6933300D02*
D03*
X3728945Y6654127D02*
D03*
X4107639Y6596876D02*
D03*
X4050500Y6933300D02*
D03*
X4242209Y7182080D02*
D03*
X4267208Y7267000D02*
D03*
X4647708Y6982000D02*
D03*
X4366843D02*
D03*
X5410420Y7086660D02*
D03*
X5477450Y7088455D02*
D03*
X5766464Y6933300D02*
D03*
X5648945Y6654127D02*
D03*
X6027639Y6596876D02*
D03*
X5970500Y6933300D02*
D03*
X6162209Y7182080D02*
D03*
X6187208Y7267000D02*
D03*
X6567708Y6982000D02*
D03*
X6286843D02*
D03*
X7330420Y7086660D02*
D03*
X7397450Y7088455D02*
D03*
X7686464Y6933300D02*
D03*
X7568945Y6654127D02*
D03*
X7947639Y6596876D02*
D03*
X7890500Y6933300D02*
D03*
X8082209Y7182080D02*
D03*
X8107208Y7267000D02*
D03*
X8487708Y6982000D02*
D03*
X8206843D02*
D03*
X1570420Y8846660D02*
D03*
X1637450Y8848455D02*
D03*
X1926464Y8693300D02*
D03*
X1808945Y8414127D02*
D03*
X2187639Y8356876D02*
D03*
X2130500Y8693300D02*
D03*
X2322209Y8942080D02*
D03*
X2347208Y9027000D02*
D03*
X2727708Y8742000D02*
D03*
X2446843D02*
D03*
X3490420Y8846660D02*
D03*
X3557450Y8848455D02*
D03*
X3846464Y8693300D02*
D03*
X3728945Y8414127D02*
D03*
X4107639Y8356876D02*
D03*
X4050500Y8693300D02*
D03*
X4242209Y8942080D02*
D03*
X4267208Y9027000D02*
D03*
X4647708Y8742000D02*
D03*
X4366843D02*
D03*
X5410420Y8846660D02*
D03*
X5477450Y8848455D02*
D03*
X5766464Y8693300D02*
D03*
X5648945Y8414127D02*
D03*
X6027639Y8356876D02*
D03*
X5970500Y8693300D02*
D03*
X6162209Y8942080D02*
D03*
X6187208Y9027000D02*
D03*
X6567708Y8742000D02*
D03*
X6286843D02*
D03*
X7330420Y8846660D02*
D03*
X7397450Y8848455D02*
D03*
X7686464Y8693300D02*
D03*
X7568945Y8414127D02*
D03*
X7947639Y8356876D02*
D03*
X7890500Y8693300D02*
D03*
X8082209Y8942080D02*
D03*
X8107208Y9027000D02*
D03*
X8487708Y8742000D02*
D03*
X8206843D02*
D03*
D18*
X2027140Y1753300D02*
D03*
Y1703300D02*
D03*
Y1653300D02*
D03*
Y1603300D02*
D03*
Y1553300D02*
D03*
X1602141Y1753300D02*
D03*
Y1703300D02*
D03*
Y1653300D02*
D03*
Y1603300D02*
D03*
Y1553300D02*
D03*
X3947140Y1753300D02*
D03*
Y1703300D02*
D03*
Y1653300D02*
D03*
Y1603300D02*
D03*
Y1553300D02*
D03*
X3522141Y1753300D02*
D03*
Y1703300D02*
D03*
Y1653300D02*
D03*
Y1603300D02*
D03*
Y1553300D02*
D03*
X5867140Y1753300D02*
D03*
Y1703300D02*
D03*
Y1653300D02*
D03*
Y1603300D02*
D03*
Y1553300D02*
D03*
X5442140Y1753300D02*
D03*
Y1703300D02*
D03*
Y1653300D02*
D03*
Y1603300D02*
D03*
Y1553300D02*
D03*
X7787140Y1753300D02*
D03*
Y1703300D02*
D03*
Y1653300D02*
D03*
Y1603300D02*
D03*
Y1553300D02*
D03*
X7362140Y1753300D02*
D03*
Y1703300D02*
D03*
Y1653300D02*
D03*
Y1603300D02*
D03*
Y1553300D02*
D03*
X2027140Y3513300D02*
D03*
Y3463300D02*
D03*
Y3413300D02*
D03*
Y3363300D02*
D03*
Y3313300D02*
D03*
X1602141Y3513300D02*
D03*
Y3463300D02*
D03*
Y3413300D02*
D03*
Y3363300D02*
D03*
Y3313300D02*
D03*
X3947140Y3513300D02*
D03*
Y3463300D02*
D03*
Y3413300D02*
D03*
Y3363300D02*
D03*
Y3313300D02*
D03*
X3522141Y3513300D02*
D03*
Y3463300D02*
D03*
Y3413300D02*
D03*
Y3363300D02*
D03*
Y3313300D02*
D03*
X5867140Y3513300D02*
D03*
Y3463300D02*
D03*
Y3413300D02*
D03*
Y3363300D02*
D03*
Y3313300D02*
D03*
X5442140Y3513300D02*
D03*
Y3463300D02*
D03*
Y3413300D02*
D03*
Y3363300D02*
D03*
Y3313300D02*
D03*
X7787140Y3513300D02*
D03*
Y3463300D02*
D03*
Y3413300D02*
D03*
Y3363300D02*
D03*
Y3313300D02*
D03*
X7362140Y3513300D02*
D03*
Y3463300D02*
D03*
Y3413300D02*
D03*
Y3363300D02*
D03*
Y3313300D02*
D03*
X2027140Y5273300D02*
D03*
Y5223300D02*
D03*
Y5173300D02*
D03*
Y5123300D02*
D03*
Y5073300D02*
D03*
X1602141Y5273300D02*
D03*
Y5223300D02*
D03*
Y5173300D02*
D03*
Y5123300D02*
D03*
Y5073300D02*
D03*
X3947140Y5273300D02*
D03*
Y5223300D02*
D03*
Y5173300D02*
D03*
Y5123300D02*
D03*
Y5073300D02*
D03*
X3522141Y5273300D02*
D03*
Y5223300D02*
D03*
Y5173300D02*
D03*
Y5123300D02*
D03*
Y5073300D02*
D03*
X5867140Y5273300D02*
D03*
Y5223300D02*
D03*
Y5173300D02*
D03*
Y5123300D02*
D03*
Y5073300D02*
D03*
X5442140Y5273300D02*
D03*
Y5223300D02*
D03*
Y5173300D02*
D03*
Y5123300D02*
D03*
Y5073300D02*
D03*
X7787140Y5273300D02*
D03*
Y5223300D02*
D03*
Y5173300D02*
D03*
Y5123300D02*
D03*
Y5073300D02*
D03*
X7362140Y5273300D02*
D03*
Y5223300D02*
D03*
Y5173300D02*
D03*
Y5123300D02*
D03*
Y5073300D02*
D03*
X2027140Y7033300D02*
D03*
Y6983300D02*
D03*
Y6933300D02*
D03*
Y6883300D02*
D03*
Y6833300D02*
D03*
X1602141Y7033300D02*
D03*
Y6983300D02*
D03*
Y6933300D02*
D03*
Y6883300D02*
D03*
Y6833300D02*
D03*
X3947140Y7033300D02*
D03*
Y6983300D02*
D03*
Y6933300D02*
D03*
Y6883300D02*
D03*
Y6833300D02*
D03*
X3522141Y7033300D02*
D03*
Y6983300D02*
D03*
Y6933300D02*
D03*
Y6883300D02*
D03*
Y6833300D02*
D03*
X5867140Y7033300D02*
D03*
Y6983300D02*
D03*
Y6933300D02*
D03*
Y6883300D02*
D03*
Y6833300D02*
D03*
X5442140Y7033300D02*
D03*
Y6983300D02*
D03*
Y6933300D02*
D03*
Y6883300D02*
D03*
Y6833300D02*
D03*
X7787140Y7033300D02*
D03*
Y6983300D02*
D03*
Y6933300D02*
D03*
Y6883300D02*
D03*
Y6833300D02*
D03*
X7362140Y7033300D02*
D03*
Y6983300D02*
D03*
Y6933300D02*
D03*
Y6883300D02*
D03*
Y6833300D02*
D03*
X2027140Y8793300D02*
D03*
Y8743300D02*
D03*
Y8693300D02*
D03*
Y8643300D02*
D03*
Y8593300D02*
D03*
X1602141Y8793300D02*
D03*
Y8743300D02*
D03*
Y8693300D02*
D03*
Y8643300D02*
D03*
Y8593300D02*
D03*
X3947140Y8793300D02*
D03*
Y8743300D02*
D03*
Y8693300D02*
D03*
Y8643300D02*
D03*
Y8593300D02*
D03*
X3522141Y8793300D02*
D03*
Y8743300D02*
D03*
Y8693300D02*
D03*
Y8643300D02*
D03*
Y8593300D02*
D03*
X5867140Y8793300D02*
D03*
Y8743300D02*
D03*
Y8693300D02*
D03*
Y8643300D02*
D03*
Y8593300D02*
D03*
X5442140Y8793300D02*
D03*
Y8743300D02*
D03*
Y8693300D02*
D03*
Y8643300D02*
D03*
Y8593300D02*
D03*
X7787140Y8793300D02*
D03*
Y8743300D02*
D03*
Y8693300D02*
D03*
Y8643300D02*
D03*
Y8593300D02*
D03*
X7362140Y8793300D02*
D03*
Y8743300D02*
D03*
Y8693300D02*
D03*
Y8643300D02*
D03*
Y8593300D02*
D03*
D19*
X2593480Y1492000D02*
D03*
Y2172000D02*
D03*
X4513480Y1492000D02*
D03*
Y2172000D02*
D03*
X6433480Y1492000D02*
D03*
Y2172000D02*
D03*
X8353480Y1492000D02*
D03*
Y2172000D02*
D03*
X2593480Y3252000D02*
D03*
Y3932000D02*
D03*
X4513480Y3252000D02*
D03*
Y3932000D02*
D03*
X6433480Y3252000D02*
D03*
Y3932000D02*
D03*
X8353480Y3252000D02*
D03*
Y3932000D02*
D03*
X2593480Y5012000D02*
D03*
Y5692000D02*
D03*
X4513480Y5012000D02*
D03*
Y5692000D02*
D03*
X6433480Y5012000D02*
D03*
Y5692000D02*
D03*
X8353480Y5012000D02*
D03*
Y5692000D02*
D03*
X2593480Y6772000D02*
D03*
Y7452000D02*
D03*
X4513480Y6772000D02*
D03*
Y7452000D02*
D03*
X6433480Y6772000D02*
D03*
Y7452000D02*
D03*
X8353480Y6772000D02*
D03*
Y7452000D02*
D03*
X2593480Y8532000D02*
D03*
Y9212000D02*
D03*
X4513480Y8532000D02*
D03*
Y9212000D02*
D03*
X6433480Y8532000D02*
D03*
Y9212000D02*
D03*
X8353480Y8532000D02*
D03*
Y9212000D02*
D03*
D20*
X2585980Y1702000D02*
D03*
Y1767000D02*
D03*
Y1832000D02*
D03*
Y1962000D02*
D03*
Y1897000D02*
D03*
X4505980Y1702000D02*
D03*
Y1767000D02*
D03*
Y1832000D02*
D03*
Y1962000D02*
D03*
Y1897000D02*
D03*
X6425980Y1702000D02*
D03*
Y1767000D02*
D03*
Y1832000D02*
D03*
Y1962000D02*
D03*
Y1897000D02*
D03*
X8345980Y1702000D02*
D03*
Y1767000D02*
D03*
Y1832000D02*
D03*
Y1962000D02*
D03*
Y1897000D02*
D03*
X2585980Y3462000D02*
D03*
Y3527000D02*
D03*
Y3592000D02*
D03*
Y3722000D02*
D03*
Y3657000D02*
D03*
X4505980Y3462000D02*
D03*
Y3527000D02*
D03*
Y3592000D02*
D03*
Y3722000D02*
D03*
Y3657000D02*
D03*
X6425980Y3462000D02*
D03*
Y3527000D02*
D03*
Y3592000D02*
D03*
Y3722000D02*
D03*
Y3657000D02*
D03*
X8345980Y3462000D02*
D03*
Y3527000D02*
D03*
Y3592000D02*
D03*
Y3722000D02*
D03*
Y3657000D02*
D03*
X2585980Y5222000D02*
D03*
Y5287000D02*
D03*
Y5352000D02*
D03*
Y5482000D02*
D03*
Y5417000D02*
D03*
X4505980Y5222000D02*
D03*
Y5287000D02*
D03*
Y5352000D02*
D03*
Y5482000D02*
D03*
Y5417000D02*
D03*
X6425980Y5222000D02*
D03*
Y5287000D02*
D03*
Y5352000D02*
D03*
Y5482000D02*
D03*
Y5417000D02*
D03*
X8345980Y5222000D02*
D03*
Y5287000D02*
D03*
Y5352000D02*
D03*
Y5482000D02*
D03*
Y5417000D02*
D03*
X2585980Y6982000D02*
D03*
Y7047000D02*
D03*
Y7112000D02*
D03*
Y7242000D02*
D03*
Y7177000D02*
D03*
X4505980Y6982000D02*
D03*
Y7047000D02*
D03*
Y7112000D02*
D03*
Y7242000D02*
D03*
Y7177000D02*
D03*
X6425980Y6982000D02*
D03*
Y7047000D02*
D03*
Y7112000D02*
D03*
Y7242000D02*
D03*
Y7177000D02*
D03*
X8345980Y6982000D02*
D03*
Y7047000D02*
D03*
Y7112000D02*
D03*
Y7242000D02*
D03*
Y7177000D02*
D03*
X2585980Y8742000D02*
D03*
Y8807000D02*
D03*
Y8872000D02*
D03*
Y9002000D02*
D03*
Y8937000D02*
D03*
X4505980Y8742000D02*
D03*
Y8807000D02*
D03*
Y8872000D02*
D03*
Y9002000D02*
D03*
Y8937000D02*
D03*
X6425980Y8742000D02*
D03*
Y8807000D02*
D03*
Y8872000D02*
D03*
Y9002000D02*
D03*
Y8937000D02*
D03*
X8345980Y8742000D02*
D03*
Y8807000D02*
D03*
Y8872000D02*
D03*
Y9002000D02*
D03*
Y8937000D02*
D03*
D21*
X1313780Y1948165D02*
D03*
Y1783165D02*
D03*
X1602141Y1311776D02*
D03*
Y1161775D02*
D03*
X1597800Y2092125D02*
D03*
Y1942125D02*
D03*
X3233780Y1948165D02*
D03*
Y1783165D02*
D03*
X3522141Y1311776D02*
D03*
Y1161775D02*
D03*
X3517800Y2092125D02*
D03*
Y1942125D02*
D03*
X5153780Y1948165D02*
D03*
Y1783165D02*
D03*
X5442140Y1311776D02*
D03*
Y1161775D02*
D03*
X5437800Y2092125D02*
D03*
Y1942125D02*
D03*
X7073780Y1948165D02*
D03*
Y1783165D02*
D03*
X7362140Y1311776D02*
D03*
Y1161775D02*
D03*
X7357800Y2092125D02*
D03*
Y1942125D02*
D03*
X1313780Y3708165D02*
D03*
Y3543165D02*
D03*
X1602141Y3071776D02*
D03*
Y2921775D02*
D03*
X1597800Y3852125D02*
D03*
Y3702125D02*
D03*
X3233780Y3708165D02*
D03*
Y3543165D02*
D03*
X3522141Y3071776D02*
D03*
Y2921775D02*
D03*
X3517800Y3852125D02*
D03*
Y3702125D02*
D03*
X5153780Y3708165D02*
D03*
Y3543165D02*
D03*
X5442140Y3071776D02*
D03*
Y2921775D02*
D03*
X5437800Y3852125D02*
D03*
Y3702125D02*
D03*
X7073780Y3708165D02*
D03*
Y3543165D02*
D03*
X7362140Y3071776D02*
D03*
Y2921775D02*
D03*
X7357800Y3852125D02*
D03*
Y3702125D02*
D03*
X1313780Y5468165D02*
D03*
Y5303165D02*
D03*
X1602141Y4831776D02*
D03*
Y4681775D02*
D03*
X1597800Y5612125D02*
D03*
Y5462125D02*
D03*
X3233780Y5468165D02*
D03*
Y5303165D02*
D03*
X3522141Y4831776D02*
D03*
Y4681775D02*
D03*
X3517800Y5612125D02*
D03*
Y5462125D02*
D03*
X5153780Y5468165D02*
D03*
Y5303165D02*
D03*
X5442140Y4831776D02*
D03*
Y4681775D02*
D03*
X5437800Y5612125D02*
D03*
Y5462125D02*
D03*
X7073780Y5468165D02*
D03*
Y5303165D02*
D03*
X7362140Y4831776D02*
D03*
Y4681775D02*
D03*
X7357800Y5612125D02*
D03*
Y5462125D02*
D03*
X1313780Y7228165D02*
D03*
Y7063165D02*
D03*
X1602141Y6591776D02*
D03*
Y6441776D02*
D03*
X1597800Y7372125D02*
D03*
Y7222125D02*
D03*
X3233780Y7228165D02*
D03*
Y7063165D02*
D03*
X3522141Y6591776D02*
D03*
Y6441776D02*
D03*
X3517800Y7372125D02*
D03*
Y7222125D02*
D03*
X5153780Y7228165D02*
D03*
Y7063165D02*
D03*
X5442140Y6591776D02*
D03*
Y6441776D02*
D03*
X5437800Y7372125D02*
D03*
Y7222125D02*
D03*
X7073780Y7228165D02*
D03*
Y7063165D02*
D03*
X7362140Y6591776D02*
D03*
Y6441776D02*
D03*
X7357800Y7372125D02*
D03*
Y7222125D02*
D03*
X1313780Y8988165D02*
D03*
Y8823165D02*
D03*
X1602141Y8351776D02*
D03*
Y8201776D02*
D03*
X1597800Y9132125D02*
D03*
Y8982125D02*
D03*
X3233780Y8988165D02*
D03*
Y8823165D02*
D03*
X3522141Y8351776D02*
D03*
Y8201776D02*
D03*
X3517800Y9132125D02*
D03*
Y8982125D02*
D03*
X5153780Y8988165D02*
D03*
Y8823165D02*
D03*
X5442140Y8351776D02*
D03*
Y8201776D02*
D03*
X5437800Y9132125D02*
D03*
Y8982125D02*
D03*
X7073780Y8988165D02*
D03*
Y8823165D02*
D03*
X7362140Y8351776D02*
D03*
Y8201776D02*
D03*
X7357800Y9132125D02*
D03*
Y8982125D02*
D03*
D22*
X2047080Y1374127D02*
D03*
X1892081D02*
D03*
X3967080D02*
D03*
X3812081D02*
D03*
X5887080D02*
D03*
X5732080D02*
D03*
X7807080D02*
D03*
X7652080D02*
D03*
X2047080Y3134127D02*
D03*
X1892081D02*
D03*
X3967080D02*
D03*
X3812081D02*
D03*
X5887080D02*
D03*
X5732080D02*
D03*
X7807080D02*
D03*
X7652080D02*
D03*
X2047080Y4894127D02*
D03*
X1892081D02*
D03*
X3967080D02*
D03*
X3812081D02*
D03*
X5887080D02*
D03*
X5732080D02*
D03*
X7807080D02*
D03*
X7652080D02*
D03*
X2047080Y6654127D02*
D03*
X1892081D02*
D03*
X3967080D02*
D03*
X3812081D02*
D03*
X5887080D02*
D03*
X5732080D02*
D03*
X7807080D02*
D03*
X7652080D02*
D03*
X2047080Y8414127D02*
D03*
X1892081D02*
D03*
X3967080D02*
D03*
X3812081D02*
D03*
X5887080D02*
D03*
X5732080D02*
D03*
X7807080D02*
D03*
X7652080D02*
D03*
D23*
X2187639Y1400011D02*
D03*
Y1555011D02*
D03*
X4107639Y1400011D02*
D03*
Y1555011D02*
D03*
X6027639Y1400011D02*
D03*
Y1555011D02*
D03*
X7947639Y1400011D02*
D03*
Y1555011D02*
D03*
X2187639Y3160011D02*
D03*
Y3315011D02*
D03*
X4107639Y3160011D02*
D03*
Y3315011D02*
D03*
X6027639Y3160011D02*
D03*
Y3315011D02*
D03*
X7947639Y3160011D02*
D03*
Y3315011D02*
D03*
X2187639Y4920011D02*
D03*
Y5075011D02*
D03*
X4107639Y4920011D02*
D03*
Y5075011D02*
D03*
X6027639Y4920011D02*
D03*
Y5075011D02*
D03*
X7947639Y4920011D02*
D03*
Y5075011D02*
D03*
X2187639Y6680011D02*
D03*
Y6835011D02*
D03*
X4107639Y6680011D02*
D03*
Y6835011D02*
D03*
X6027639Y6680011D02*
D03*
Y6835011D02*
D03*
X7947639Y6680011D02*
D03*
Y6835011D02*
D03*
X2187639Y8440011D02*
D03*
Y8595011D02*
D03*
X4107639Y8440011D02*
D03*
Y8595011D02*
D03*
X6027639Y8440011D02*
D03*
Y8595011D02*
D03*
X7947639Y8440011D02*
D03*
Y8595011D02*
D03*
D24*
X1897460Y2067860D02*
D03*
X2047460D02*
D03*
X2463750Y1081000D02*
D03*
X2313750D02*
D03*
X1897080Y1236776D02*
D03*
X2047080D02*
D03*
X3817460Y2067860D02*
D03*
X3967460D02*
D03*
X4383750Y1081000D02*
D03*
X4233750D02*
D03*
X3817080Y1236776D02*
D03*
X3967080D02*
D03*
X5737460Y2067860D02*
D03*
X5887460D02*
D03*
X6303750Y1081000D02*
D03*
X6153750D02*
D03*
X5737080Y1236776D02*
D03*
X5887080D02*
D03*
X7657460Y2067860D02*
D03*
X7807460D02*
D03*
X8223750Y1081000D02*
D03*
X8073750D02*
D03*
X7657080Y1236776D02*
D03*
X7807080D02*
D03*
X1897460Y3827860D02*
D03*
X2047460D02*
D03*
X2463750Y2841000D02*
D03*
X2313750D02*
D03*
X1897080Y2996776D02*
D03*
X2047080D02*
D03*
X3817460Y3827860D02*
D03*
X3967460D02*
D03*
X4383750Y2841000D02*
D03*
X4233750D02*
D03*
X3817080Y2996776D02*
D03*
X3967080D02*
D03*
X5737460Y3827860D02*
D03*
X5887460D02*
D03*
X6303750Y2841000D02*
D03*
X6153750D02*
D03*
X5737080Y2996776D02*
D03*
X5887080D02*
D03*
X7657460Y3827860D02*
D03*
X7807460D02*
D03*
X8223750Y2841000D02*
D03*
X8073750D02*
D03*
X7657080Y2996776D02*
D03*
X7807080D02*
D03*
X1897460Y5587860D02*
D03*
X2047460D02*
D03*
X2463750Y4601000D02*
D03*
X2313750D02*
D03*
X1897080Y4756776D02*
D03*
X2047080D02*
D03*
X3817460Y5587860D02*
D03*
X3967460D02*
D03*
X4383750Y4601000D02*
D03*
X4233750D02*
D03*
X3817080Y4756776D02*
D03*
X3967080D02*
D03*
X5737460Y5587860D02*
D03*
X5887460D02*
D03*
X6303750Y4601000D02*
D03*
X6153750D02*
D03*
X5737080Y4756776D02*
D03*
X5887080D02*
D03*
X7657460Y5587860D02*
D03*
X7807460D02*
D03*
X8223750Y4601000D02*
D03*
X8073750D02*
D03*
X7657080Y4756776D02*
D03*
X7807080D02*
D03*
X1897460Y7347860D02*
D03*
X2047460D02*
D03*
X2463750Y6361000D02*
D03*
X2313750D02*
D03*
X1897080Y6516776D02*
D03*
X2047080D02*
D03*
X3817460Y7347860D02*
D03*
X3967460D02*
D03*
X4383750Y6361000D02*
D03*
X4233750D02*
D03*
X3817080Y6516776D02*
D03*
X3967080D02*
D03*
X5737460Y7347860D02*
D03*
X5887460D02*
D03*
X6303750Y6361000D02*
D03*
X6153750D02*
D03*
X5737080Y6516776D02*
D03*
X5887080D02*
D03*
X7657460Y7347860D02*
D03*
X7807460D02*
D03*
X8223750Y6361000D02*
D03*
X8073750D02*
D03*
X7657080Y6516776D02*
D03*
X7807080D02*
D03*
X1897460Y9107860D02*
D03*
X2047460D02*
D03*
X2463750Y8121000D02*
D03*
X2313750D02*
D03*
X1897080Y8276776D02*
D03*
X2047080D02*
D03*
X3817460Y9107860D02*
D03*
X3967460D02*
D03*
X4383750Y8121000D02*
D03*
X4233750D02*
D03*
X3817080Y8276776D02*
D03*
X3967080D02*
D03*
X5737460Y9107860D02*
D03*
X5887460D02*
D03*
X6303750Y8121000D02*
D03*
X6153750D02*
D03*
X5737080Y8276776D02*
D03*
X5887080D02*
D03*
X7657460Y9107860D02*
D03*
X7807460D02*
D03*
X8223750Y8121000D02*
D03*
X8073750D02*
D03*
X7657080Y8276776D02*
D03*
X7807080D02*
D03*
D25*
X2382848Y1799620D02*
D03*
Y1709620D02*
D03*
X2408248Y1987000D02*
D03*
Y1897000D02*
D03*
X2261440Y1992080D02*
D03*
Y1902080D02*
D03*
X4302848Y1799620D02*
D03*
Y1709620D02*
D03*
X4328248Y1987000D02*
D03*
Y1897000D02*
D03*
X4181440Y1992080D02*
D03*
Y1902080D02*
D03*
X6222848Y1799620D02*
D03*
Y1709620D02*
D03*
X6248248Y1987000D02*
D03*
Y1897000D02*
D03*
X6101440Y1992080D02*
D03*
Y1902080D02*
D03*
X8142848Y1799620D02*
D03*
Y1709620D02*
D03*
X8168248Y1987000D02*
D03*
Y1897000D02*
D03*
X8021440Y1992080D02*
D03*
Y1902080D02*
D03*
X2382848Y3559620D02*
D03*
Y3469620D02*
D03*
X2408248Y3747000D02*
D03*
Y3657000D02*
D03*
X2261440Y3752080D02*
D03*
Y3662080D02*
D03*
X4302848Y3559620D02*
D03*
Y3469620D02*
D03*
X4328248Y3747000D02*
D03*
Y3657000D02*
D03*
X4181440Y3752080D02*
D03*
Y3662080D02*
D03*
X6222848Y3559620D02*
D03*
Y3469620D02*
D03*
X6248248Y3747000D02*
D03*
Y3657000D02*
D03*
X6101440Y3752080D02*
D03*
Y3662080D02*
D03*
X8142848Y3559620D02*
D03*
Y3469620D02*
D03*
X8168248Y3747000D02*
D03*
Y3657000D02*
D03*
X8021440Y3752080D02*
D03*
Y3662080D02*
D03*
X2382848Y5319620D02*
D03*
Y5229620D02*
D03*
X2408248Y5507000D02*
D03*
Y5417000D02*
D03*
X2261440Y5512080D02*
D03*
Y5422080D02*
D03*
X4302848Y5319620D02*
D03*
Y5229620D02*
D03*
X4328248Y5507000D02*
D03*
Y5417000D02*
D03*
X4181440Y5512080D02*
D03*
Y5422080D02*
D03*
X6222848Y5319620D02*
D03*
Y5229620D02*
D03*
X6248248Y5507000D02*
D03*
Y5417000D02*
D03*
X6101440Y5512080D02*
D03*
Y5422080D02*
D03*
X8142848Y5319620D02*
D03*
Y5229620D02*
D03*
X8168248Y5507000D02*
D03*
Y5417000D02*
D03*
X8021440Y5512080D02*
D03*
Y5422080D02*
D03*
X2382848Y7079620D02*
D03*
Y6989620D02*
D03*
X2408248Y7267000D02*
D03*
Y7177000D02*
D03*
X2261440Y7272080D02*
D03*
Y7182080D02*
D03*
X4302848Y7079620D02*
D03*
Y6989620D02*
D03*
X4328248Y7267000D02*
D03*
Y7177000D02*
D03*
X4181440Y7272080D02*
D03*
Y7182080D02*
D03*
X6222848Y7079620D02*
D03*
Y6989620D02*
D03*
X6248248Y7267000D02*
D03*
Y7177000D02*
D03*
X6101440Y7272080D02*
D03*
Y7182080D02*
D03*
X8142848Y7079620D02*
D03*
Y6989620D02*
D03*
X8168248Y7267000D02*
D03*
Y7177000D02*
D03*
X8021440Y7272080D02*
D03*
Y7182080D02*
D03*
X2382848Y8839620D02*
D03*
Y8749620D02*
D03*
X2408248Y9027000D02*
D03*
Y8937000D02*
D03*
X2261440Y9032080D02*
D03*
Y8942080D02*
D03*
X4302848Y8839620D02*
D03*
Y8749620D02*
D03*
X4328248Y9027000D02*
D03*
Y8937000D02*
D03*
X4181440Y9032080D02*
D03*
Y8942080D02*
D03*
X6222848Y8839620D02*
D03*
Y8749620D02*
D03*
X6248248Y9027000D02*
D03*
Y8937000D02*
D03*
X6101440Y9032080D02*
D03*
Y8942080D02*
D03*
X8142848Y8839620D02*
D03*
Y8749620D02*
D03*
X8168248Y9027000D02*
D03*
Y8937000D02*
D03*
X8021440Y9032080D02*
D03*
Y8942080D02*
D03*
D26*
X2261140Y2112860D02*
D03*
X2421140D02*
D03*
X4181140D02*
D03*
X4341140D02*
D03*
X6101140D02*
D03*
X6261140D02*
D03*
X8021140D02*
D03*
X8181140D02*
D03*
X2261140Y3872860D02*
D03*
X2421140D02*
D03*
X4181140D02*
D03*
X4341140D02*
D03*
X6101140D02*
D03*
X6261140D02*
D03*
X8021140D02*
D03*
X8181140D02*
D03*
X2261140Y5632860D02*
D03*
X2421140D02*
D03*
X4181140D02*
D03*
X4341140D02*
D03*
X6101140D02*
D03*
X6261140D02*
D03*
X8021140D02*
D03*
X8181140D02*
D03*
X2261140Y7392860D02*
D03*
X2421140D02*
D03*
X4181140D02*
D03*
X4341140D02*
D03*
X6101140D02*
D03*
X6261140D02*
D03*
X8021140D02*
D03*
X8181140D02*
D03*
X2261140Y9152860D02*
D03*
X2421140D02*
D03*
X4181140D02*
D03*
X4341140D02*
D03*
X6101140D02*
D03*
X6261140D02*
D03*
X8021140D02*
D03*
X8181140D02*
D03*
D27*
X1602141Y778779D02*
Y1161775D01*
Y778779D02*
X1605420Y775500D01*
X1417920Y1708982D02*
X1523602Y1603300D01*
X1602140D01*
X1602141Y1603300D01*
X1526759Y1653300D02*
X1602141D01*
X1492532Y1687527D02*
Y1824158D01*
Y1687527D02*
X1526759Y1653300D01*
X1417920Y1708982D02*
Y1884790D01*
X1342430Y1919515D02*
X1383196D01*
X1417920Y1884790D01*
X1313780Y1948165D02*
X1342430Y1919515D01*
X2285100Y1109650D02*
X2313750Y1081000D01*
X2285100Y1109650D02*
Y1174416D01*
X2377220Y1799620D02*
X2390870Y1813270D01*
X2463750Y1081000D02*
X2644000D01*
X2260612Y1198904D02*
Y1753300D01*
Y1198904D02*
X2285100Y1174416D01*
X1492532Y1824158D02*
X1564150Y1895776D01*
X1602141Y1703300D02*
X1687154D01*
X1868810Y1884956D02*
Y2039210D01*
X1687154Y1703300D02*
X1868810Y1884956D01*
X1564150Y1895776D02*
Y1913475D01*
X1592800Y1942125D01*
X1868810Y2039210D02*
X1897460Y2067860D01*
X2072075Y2092474D02*
Y2192155D01*
X2047460Y2067860D02*
X2072075Y2092474D01*
X1934890Y1720657D02*
X1952247Y1703300D01*
X2027140D01*
X1934890Y1720657D02*
Y1772529D01*
X2027140Y1703300D02*
X2027140Y1703300D01*
X1934890Y1772529D02*
X1971840Y1809479D01*
X2303642D01*
X2260612Y1753300D02*
X2298457D01*
X2027140D02*
X2260612D01*
X2298457D02*
X2331127Y1785970D01*
X2303642Y1809479D02*
X2377513Y1883350D01*
X2394599D01*
X2331127Y1785970D02*
X2369198D01*
X2394599Y1883350D02*
X2408248Y1897000D01*
X1602141Y1311776D02*
Y1553300D01*
X1592800Y1942125D02*
X1597800D01*
Y2217880D02*
X1605420Y2225500D01*
X1597800Y2092125D02*
Y2217880D01*
X2408248Y1897000D02*
X2585980D01*
X2072075Y2192155D02*
X2105420Y2225500D01*
X2390870Y1813270D02*
X2436976D01*
X2455706Y1832000D02*
X2585980D01*
X2436976Y1813270D02*
X2455706Y1832000D01*
X2369198Y1785970D02*
X2382848Y1799620D01*
X3522141Y778779D02*
Y1161775D01*
Y778779D02*
X3525420Y775500D01*
X3337920Y1708982D02*
X3443602Y1603300D01*
X3522140D01*
X3522141Y1603300D01*
X3446759Y1653300D02*
X3522141D01*
X3412532Y1687527D02*
Y1824158D01*
Y1687527D02*
X3446759Y1653300D01*
X3337920Y1708982D02*
Y1884790D01*
X3262430Y1919515D02*
X3303196D01*
X3337920Y1884790D01*
X3233780Y1948165D02*
X3262430Y1919515D01*
X4205100Y1109650D02*
X4233750Y1081000D01*
X4205100Y1109650D02*
Y1174416D01*
X4297220Y1799620D02*
X4310870Y1813270D01*
X4383750Y1081000D02*
X4564000D01*
X4180612Y1198904D02*
Y1753300D01*
Y1198904D02*
X4205100Y1174416D01*
X3412532Y1824158D02*
X3484150Y1895776D01*
X3522141Y1703300D02*
X3607154D01*
X3788810Y1884956D02*
Y2039210D01*
X3607154Y1703300D02*
X3788810Y1884956D01*
X3484150Y1895776D02*
Y1913475D01*
X3512800Y1942125D01*
X3788810Y2039210D02*
X3817460Y2067860D01*
X3992075Y2092474D02*
Y2192155D01*
X3967460Y2067860D02*
X3992075Y2092474D01*
X3854890Y1720657D02*
X3872247Y1703300D01*
X3947140D01*
X3854890Y1720657D02*
Y1772529D01*
X3947140Y1703300D02*
X3947140Y1703300D01*
X3854890Y1772529D02*
X3891840Y1809479D01*
X4223642D01*
X4180612Y1753300D02*
X4218457D01*
X3947140D02*
X4180612D01*
X4218457D02*
X4251127Y1785970D01*
X4223642Y1809479D02*
X4297513Y1883350D01*
X4314599D01*
X4251127Y1785970D02*
X4289198D01*
X4314599Y1883350D02*
X4328248Y1897000D01*
X3522141Y1311776D02*
Y1553300D01*
X3512800Y1942125D02*
X3517800D01*
Y2217880D02*
X3525420Y2225500D01*
X3517800Y2092125D02*
Y2217880D01*
X4328248Y1897000D02*
X4505980D01*
X3992075Y2192155D02*
X4025420Y2225500D01*
X4310870Y1813270D02*
X4356976D01*
X4375706Y1832000D02*
X4505980D01*
X4356976Y1813270D02*
X4375706Y1832000D01*
X4289198Y1785970D02*
X4302848Y1799620D01*
X5442140Y778779D02*
Y1161775D01*
Y778779D02*
X5445420Y775500D01*
X5257920Y1708982D02*
X5363602Y1603300D01*
X5442140D01*
X5442140Y1603300D01*
X5366759Y1653300D02*
X5442140D01*
X5332532Y1687527D02*
Y1824158D01*
Y1687527D02*
X5366759Y1653300D01*
X5257920Y1708982D02*
Y1884790D01*
X5182430Y1919515D02*
X5223196D01*
X5257920Y1884790D01*
X5153780Y1948165D02*
X5182430Y1919515D01*
X6125100Y1109650D02*
X6153750Y1081000D01*
X6125100Y1109650D02*
Y1174416D01*
X6217220Y1799620D02*
X6230870Y1813270D01*
X6303750Y1081000D02*
X6484000D01*
X6100612Y1198904D02*
Y1753300D01*
Y1198904D02*
X6125100Y1174416D01*
X5332532Y1824158D02*
X5404150Y1895776D01*
X5442140Y1703300D02*
X5527154D01*
X5708810Y1884956D02*
Y2039210D01*
X5527154Y1703300D02*
X5708810Y1884956D01*
X5404150Y1895776D02*
Y1913475D01*
X5432800Y1942125D01*
X5708810Y2039210D02*
X5737460Y2067860D01*
X5912075Y2092474D02*
Y2192155D01*
X5887460Y2067860D02*
X5912075Y2092474D01*
X5774890Y1720657D02*
X5792247Y1703300D01*
X5867140D01*
X5774890Y1720657D02*
Y1772529D01*
X5867140Y1703300D02*
X5867140Y1703300D01*
X5774890Y1772529D02*
X5811840Y1809479D01*
X6143642D01*
X6100612Y1753300D02*
X6138457D01*
X5867140D02*
X6100612D01*
X6138457D02*
X6171127Y1785970D01*
X6143642Y1809479D02*
X6217513Y1883350D01*
X6234599D01*
X6171127Y1785970D02*
X6209198D01*
X6234599Y1883350D02*
X6248248Y1897000D01*
X5442140Y1311776D02*
Y1553300D01*
X5432800Y1942125D02*
X5437800D01*
Y2217880D02*
X5445420Y2225500D01*
X5437800Y2092125D02*
Y2217880D01*
X6248248Y1897000D02*
X6425980D01*
X5912075Y2192155D02*
X5945420Y2225500D01*
X6230870Y1813270D02*
X6276976D01*
X6295706Y1832000D02*
X6425980D01*
X6276976Y1813270D02*
X6295706Y1832000D01*
X6209198Y1785970D02*
X6222848Y1799620D01*
X7362140Y778779D02*
Y1161775D01*
Y778779D02*
X7365420Y775500D01*
X7177920Y1708982D02*
X7283602Y1603300D01*
X7362140D01*
X7362140Y1603300D01*
X7286759Y1653300D02*
X7362140D01*
X7252532Y1687527D02*
Y1824158D01*
Y1687527D02*
X7286759Y1653300D01*
X7177920Y1708982D02*
Y1884790D01*
X7102430Y1919515D02*
X7143196D01*
X7177920Y1884790D01*
X7073780Y1948165D02*
X7102430Y1919515D01*
X8045099Y1109650D02*
X8073750Y1081000D01*
X8045099Y1109650D02*
Y1174416D01*
X8137220Y1799620D02*
X8150870Y1813270D01*
X8223750Y1081000D02*
X8404000D01*
X8020612Y1198904D02*
Y1753300D01*
Y1198904D02*
X8045099Y1174416D01*
X7252532Y1824158D02*
X7324150Y1895776D01*
X7362140Y1703300D02*
X7447154D01*
X7628810Y1884956D02*
Y2039210D01*
X7447154Y1703300D02*
X7628810Y1884956D01*
X7324150Y1895776D02*
Y1913475D01*
X7352800Y1942125D01*
X7628810Y2039210D02*
X7657460Y2067860D01*
X7832075Y2092474D02*
Y2192155D01*
X7807460Y2067860D02*
X7832075Y2092474D01*
X7694890Y1720657D02*
X7712247Y1703300D01*
X7787140D01*
X7694890Y1720657D02*
Y1772529D01*
X7787140Y1703300D02*
X7787140Y1703300D01*
X7694890Y1772529D02*
X7731840Y1809479D01*
X8063641D01*
X8020612Y1753300D02*
X8058457D01*
X7787140D02*
X8020612D01*
X8058457D02*
X8091127Y1785970D01*
X8063641Y1809479D02*
X8137513Y1883350D01*
X8154599D01*
X8091127Y1785970D02*
X8129198D01*
X8154599Y1883350D02*
X8168248Y1897000D01*
X7362140Y1311776D02*
Y1553300D01*
X7352800Y1942125D02*
X7357800D01*
Y2217880D02*
X7365420Y2225500D01*
X7357800Y2092125D02*
Y2217880D01*
X8168248Y1897000D02*
X8345980D01*
X7832075Y2192155D02*
X7865420Y2225500D01*
X8150870Y1813270D02*
X8196976D01*
X8215706Y1832000D02*
X8345980D01*
X8196976Y1813270D02*
X8215706Y1832000D01*
X8129198Y1785970D02*
X8142848Y1799620D01*
X1602141Y2538779D02*
Y2921775D01*
Y2538779D02*
X1605420Y2535500D01*
X1417920Y3468982D02*
X1523602Y3363300D01*
X1602140D01*
X1602141Y3363300D01*
X1526759Y3413300D02*
X1602141D01*
X1492532Y3447527D02*
Y3584158D01*
Y3447527D02*
X1526759Y3413300D01*
X1417920Y3468982D02*
Y3644791D01*
X1342430Y3679515D02*
X1383196D01*
X1417920Y3644791D01*
X1313780Y3708165D02*
X1342430Y3679515D01*
X2285100Y2869650D02*
X2313750Y2841000D01*
X2285100Y2869650D02*
Y2934416D01*
X2377220Y3559620D02*
X2390870Y3573270D01*
X2463750Y2841000D02*
X2644000D01*
X2260612Y2958904D02*
Y3513300D01*
Y2958904D02*
X2285100Y2934416D01*
X1492532Y3584158D02*
X1564150Y3655776D01*
X1602141Y3463300D02*
X1687154D01*
X1868810Y3644956D02*
Y3799210D01*
X1687154Y3463300D02*
X1868810Y3644956D01*
X1564150Y3655776D02*
Y3673475D01*
X1592800Y3702125D01*
X1868810Y3799210D02*
X1897460Y3827860D01*
X2072075Y3852474D02*
Y3952155D01*
X2047460Y3827860D02*
X2072075Y3852474D01*
X1934890Y3480657D02*
X1952247Y3463300D01*
X2027140D01*
X1934890Y3480657D02*
Y3532529D01*
X2027140Y3463300D02*
X2027140Y3463300D01*
X1934890Y3532529D02*
X1971840Y3569479D01*
X2303642D01*
X2260612Y3513300D02*
X2298457D01*
X2027140D02*
X2260612D01*
X2298457D02*
X2331127Y3545970D01*
X2303642Y3569479D02*
X2377513Y3643350D01*
X2394599D01*
X2331127Y3545970D02*
X2369198D01*
X2394599Y3643350D02*
X2408248Y3657000D01*
X1602141Y3071776D02*
Y3313300D01*
X1592800Y3702125D02*
X1597800D01*
Y3977880D02*
X1605420Y3985500D01*
X1597800Y3852125D02*
Y3977880D01*
X2408248Y3657000D02*
X2585980D01*
X2072075Y3952155D02*
X2105420Y3985500D01*
X2390870Y3573270D02*
X2436976D01*
X2455706Y3592000D02*
X2585980D01*
X2436976Y3573270D02*
X2455706Y3592000D01*
X2369198Y3545970D02*
X2382848Y3559620D01*
X3522141Y2538779D02*
Y2921775D01*
Y2538779D02*
X3525420Y2535500D01*
X3337920Y3468982D02*
X3443602Y3363300D01*
X3522140D01*
X3522141Y3363300D01*
X3446759Y3413300D02*
X3522141D01*
X3412532Y3447527D02*
Y3584158D01*
Y3447527D02*
X3446759Y3413300D01*
X3337920Y3468982D02*
Y3644791D01*
X3262430Y3679515D02*
X3303196D01*
X3337920Y3644791D01*
X3233780Y3708165D02*
X3262430Y3679515D01*
X4205100Y2869650D02*
X4233750Y2841000D01*
X4205100Y2869650D02*
Y2934416D01*
X4297220Y3559620D02*
X4310870Y3573270D01*
X4383750Y2841000D02*
X4564000D01*
X4180612Y2958904D02*
Y3513300D01*
Y2958904D02*
X4205100Y2934416D01*
X3412532Y3584158D02*
X3484150Y3655776D01*
X3522141Y3463300D02*
X3607154D01*
X3788810Y3644956D02*
Y3799210D01*
X3607154Y3463300D02*
X3788810Y3644956D01*
X3484150Y3655776D02*
Y3673475D01*
X3512800Y3702125D01*
X3788810Y3799210D02*
X3817460Y3827860D01*
X3992075Y3852474D02*
Y3952155D01*
X3967460Y3827860D02*
X3992075Y3852474D01*
X3854890Y3480657D02*
X3872247Y3463300D01*
X3947140D01*
X3854890Y3480657D02*
Y3532529D01*
X3947140Y3463300D02*
X3947140Y3463300D01*
X3854890Y3532529D02*
X3891840Y3569479D01*
X4223642D01*
X4180612Y3513300D02*
X4218457D01*
X3947140D02*
X4180612D01*
X4218457D02*
X4251127Y3545970D01*
X4223642Y3569479D02*
X4297513Y3643350D01*
X4314599D01*
X4251127Y3545970D02*
X4289198D01*
X4314599Y3643350D02*
X4328248Y3657000D01*
X3522141Y3071776D02*
Y3313300D01*
X3512800Y3702125D02*
X3517800D01*
Y3977880D02*
X3525420Y3985500D01*
X3517800Y3852125D02*
Y3977880D01*
X4328248Y3657000D02*
X4505980D01*
X3992075Y3952155D02*
X4025420Y3985500D01*
X4310870Y3573270D02*
X4356976D01*
X4375706Y3592000D02*
X4505980D01*
X4356976Y3573270D02*
X4375706Y3592000D01*
X4289198Y3545970D02*
X4302848Y3559620D01*
X5442140Y2538779D02*
Y2921775D01*
Y2538779D02*
X5445420Y2535500D01*
X5257920Y3468982D02*
X5363602Y3363300D01*
X5442140D01*
X5442140Y3363300D01*
X5366759Y3413300D02*
X5442140D01*
X5332532Y3447527D02*
Y3584158D01*
Y3447527D02*
X5366759Y3413300D01*
X5257920Y3468982D02*
Y3644791D01*
X5182430Y3679515D02*
X5223196D01*
X5257920Y3644791D01*
X5153780Y3708165D02*
X5182430Y3679515D01*
X6125100Y2869650D02*
X6153750Y2841000D01*
X6125100Y2869650D02*
Y2934416D01*
X6217220Y3559620D02*
X6230870Y3573270D01*
X6303750Y2841000D02*
X6484000D01*
X6100612Y2958904D02*
Y3513300D01*
Y2958904D02*
X6125100Y2934416D01*
X5332532Y3584158D02*
X5404150Y3655776D01*
X5442140Y3463300D02*
X5527154D01*
X5708810Y3644956D02*
Y3799210D01*
X5527154Y3463300D02*
X5708810Y3644956D01*
X5404150Y3655776D02*
Y3673475D01*
X5432800Y3702125D01*
X5708810Y3799210D02*
X5737460Y3827860D01*
X5912075Y3852474D02*
Y3952155D01*
X5887460Y3827860D02*
X5912075Y3852474D01*
X5774890Y3480657D02*
X5792247Y3463300D01*
X5867140D01*
X5774890Y3480657D02*
Y3532529D01*
X5867140Y3463300D02*
X5867140Y3463300D01*
X5774890Y3532529D02*
X5811840Y3569479D01*
X6143642D01*
X6100612Y3513300D02*
X6138457D01*
X5867140D02*
X6100612D01*
X6138457D02*
X6171127Y3545970D01*
X6143642Y3569479D02*
X6217513Y3643350D01*
X6234599D01*
X6171127Y3545970D02*
X6209198D01*
X6234599Y3643350D02*
X6248248Y3657000D01*
X5442140Y3071776D02*
Y3313300D01*
X5432800Y3702125D02*
X5437800D01*
Y3977880D02*
X5445420Y3985500D01*
X5437800Y3852125D02*
Y3977880D01*
X6248248Y3657000D02*
X6425980D01*
X5912075Y3952155D02*
X5945420Y3985500D01*
X6230870Y3573270D02*
X6276976D01*
X6295706Y3592000D02*
X6425980D01*
X6276976Y3573270D02*
X6295706Y3592000D01*
X6209198Y3545970D02*
X6222848Y3559620D01*
X7362140Y2538779D02*
Y2921775D01*
Y2538779D02*
X7365420Y2535500D01*
X7177920Y3468982D02*
X7283602Y3363300D01*
X7362140D01*
X7362140Y3363300D01*
X7286759Y3413300D02*
X7362140D01*
X7252532Y3447527D02*
Y3584158D01*
Y3447527D02*
X7286759Y3413300D01*
X7177920Y3468982D02*
Y3644791D01*
X7102430Y3679515D02*
X7143196D01*
X7177920Y3644791D01*
X7073780Y3708165D02*
X7102430Y3679515D01*
X8045099Y2869650D02*
X8073750Y2841000D01*
X8045099Y2869650D02*
Y2934416D01*
X8137220Y3559620D02*
X8150870Y3573270D01*
X8223750Y2841000D02*
X8404000D01*
X8020612Y2958904D02*
Y3513300D01*
Y2958904D02*
X8045099Y2934416D01*
X7252532Y3584158D02*
X7324150Y3655776D01*
X7362140Y3463300D02*
X7447154D01*
X7628810Y3644956D02*
Y3799210D01*
X7447154Y3463300D02*
X7628810Y3644956D01*
X7324150Y3655776D02*
Y3673475D01*
X7352800Y3702125D01*
X7628810Y3799210D02*
X7657460Y3827860D01*
X7832075Y3852474D02*
Y3952155D01*
X7807460Y3827860D02*
X7832075Y3852474D01*
X7694890Y3480657D02*
X7712247Y3463300D01*
X7787140D01*
X7694890Y3480657D02*
Y3532529D01*
X7787140Y3463300D02*
X7787140Y3463300D01*
X7694890Y3532529D02*
X7731840Y3569479D01*
X8063641D01*
X8020612Y3513300D02*
X8058457D01*
X7787140D02*
X8020612D01*
X8058457D02*
X8091127Y3545970D01*
X8063641Y3569479D02*
X8137513Y3643350D01*
X8154599D01*
X8091127Y3545970D02*
X8129198D01*
X8154599Y3643350D02*
X8168248Y3657000D01*
X7362140Y3071776D02*
Y3313300D01*
X7352800Y3702125D02*
X7357800D01*
Y3977880D02*
X7365420Y3985500D01*
X7357800Y3852125D02*
Y3977880D01*
X8168248Y3657000D02*
X8345980D01*
X7832075Y3952155D02*
X7865420Y3985500D01*
X8150870Y3573270D02*
X8196976D01*
X8215706Y3592000D02*
X8345980D01*
X8196976Y3573270D02*
X8215706Y3592000D01*
X8129198Y3545970D02*
X8142848Y3559620D01*
X1602141Y4298779D02*
Y4681775D01*
Y4298779D02*
X1605420Y4295500D01*
X1417920Y5228982D02*
X1523602Y5123300D01*
X1602140D01*
X1602141Y5123300D01*
X1526759Y5173300D02*
X1602141D01*
X1492532Y5207527D02*
Y5344158D01*
Y5207527D02*
X1526759Y5173300D01*
X1417920Y5228982D02*
Y5404791D01*
X1342430Y5439515D02*
X1383196D01*
X1417920Y5404791D01*
X1313780Y5468165D02*
X1342430Y5439515D01*
X2285100Y4629650D02*
X2313750Y4601000D01*
X2285100Y4629650D02*
Y4694416D01*
X2377220Y5319620D02*
X2390870Y5333270D01*
X2463750Y4601000D02*
X2644000D01*
X2260612Y4718904D02*
Y5273300D01*
Y4718904D02*
X2285100Y4694416D01*
X1492532Y5344158D02*
X1564150Y5415776D01*
X1602141Y5223300D02*
X1687154D01*
X1868810Y5404956D02*
Y5559210D01*
X1687154Y5223300D02*
X1868810Y5404956D01*
X1564150Y5415776D02*
Y5433475D01*
X1592800Y5462125D01*
X1868810Y5559210D02*
X1897460Y5587860D01*
X2072075Y5612474D02*
Y5712155D01*
X2047460Y5587860D02*
X2072075Y5612474D01*
X1934890Y5240657D02*
X1952247Y5223300D01*
X2027140D01*
X1934890Y5240657D02*
Y5292529D01*
X2027140Y5223300D02*
X2027140Y5223300D01*
X1934890Y5292529D02*
X1971840Y5329479D01*
X2303642D01*
X2260612Y5273300D02*
X2298457D01*
X2027140D02*
X2260612D01*
X2298457D02*
X2331127Y5305970D01*
X2303642Y5329479D02*
X2377513Y5403350D01*
X2394599D01*
X2331127Y5305970D02*
X2369198D01*
X2394599Y5403350D02*
X2408248Y5417000D01*
X1602141Y4831776D02*
Y5073300D01*
X1592800Y5462125D02*
X1597800D01*
Y5737880D02*
X1605420Y5745500D01*
X1597800Y5612125D02*
Y5737880D01*
X2408248Y5417000D02*
X2585980D01*
X2072075Y5712155D02*
X2105420Y5745500D01*
X2390870Y5333270D02*
X2436976D01*
X2455706Y5352000D02*
X2585980D01*
X2436976Y5333270D02*
X2455706Y5352000D01*
X2369198Y5305970D02*
X2382848Y5319620D01*
X3522141Y4298779D02*
Y4681775D01*
Y4298779D02*
X3525420Y4295500D01*
X3337920Y5228982D02*
X3443602Y5123300D01*
X3522140D01*
X3522141Y5123300D01*
X3446759Y5173300D02*
X3522141D01*
X3412532Y5207527D02*
Y5344158D01*
Y5207527D02*
X3446759Y5173300D01*
X3337920Y5228982D02*
Y5404791D01*
X3262430Y5439515D02*
X3303196D01*
X3337920Y5404791D01*
X3233780Y5468165D02*
X3262430Y5439515D01*
X4205100Y4629650D02*
X4233750Y4601000D01*
X4205100Y4629650D02*
Y4694416D01*
X4297220Y5319620D02*
X4310870Y5333270D01*
X4383750Y4601000D02*
X4564000D01*
X4180612Y4718904D02*
Y5273300D01*
Y4718904D02*
X4205100Y4694416D01*
X3412532Y5344158D02*
X3484150Y5415776D01*
X3522141Y5223300D02*
X3607154D01*
X3788810Y5404956D02*
Y5559210D01*
X3607154Y5223300D02*
X3788810Y5404956D01*
X3484150Y5415776D02*
Y5433475D01*
X3512800Y5462125D01*
X3788810Y5559210D02*
X3817460Y5587860D01*
X3992075Y5612474D02*
Y5712155D01*
X3967460Y5587860D02*
X3992075Y5612474D01*
X3854890Y5240657D02*
X3872247Y5223300D01*
X3947140D01*
X3854890Y5240657D02*
Y5292529D01*
X3947140Y5223300D02*
X3947140Y5223300D01*
X3854890Y5292529D02*
X3891840Y5329479D01*
X4223642D01*
X4180612Y5273300D02*
X4218457D01*
X3947140D02*
X4180612D01*
X4218457D02*
X4251127Y5305970D01*
X4223642Y5329479D02*
X4297513Y5403350D01*
X4314599D01*
X4251127Y5305970D02*
X4289198D01*
X4314599Y5403350D02*
X4328248Y5417000D01*
X3522141Y4831776D02*
Y5073300D01*
X3512800Y5462125D02*
X3517800D01*
Y5737880D02*
X3525420Y5745500D01*
X3517800Y5612125D02*
Y5737880D01*
X4328248Y5417000D02*
X4505980D01*
X3992075Y5712155D02*
X4025420Y5745500D01*
X4310870Y5333270D02*
X4356976D01*
X4375706Y5352000D02*
X4505980D01*
X4356976Y5333270D02*
X4375706Y5352000D01*
X4289198Y5305970D02*
X4302848Y5319620D01*
X5442140Y4298779D02*
Y4681775D01*
Y4298779D02*
X5445420Y4295500D01*
X5257920Y5228982D02*
X5363602Y5123300D01*
X5442140D01*
X5442140Y5123300D01*
X5366759Y5173300D02*
X5442140D01*
X5332532Y5207527D02*
Y5344158D01*
Y5207527D02*
X5366759Y5173300D01*
X5257920Y5228982D02*
Y5404791D01*
X5182430Y5439515D02*
X5223196D01*
X5257920Y5404791D01*
X5153780Y5468165D02*
X5182430Y5439515D01*
X6125100Y4629650D02*
X6153750Y4601000D01*
X6125100Y4629650D02*
Y4694416D01*
X6217220Y5319620D02*
X6230870Y5333270D01*
X6303750Y4601000D02*
X6484000D01*
X6100612Y4718904D02*
Y5273300D01*
Y4718904D02*
X6125100Y4694416D01*
X5332532Y5344158D02*
X5404150Y5415776D01*
X5442140Y5223300D02*
X5527154D01*
X5708810Y5404956D02*
Y5559210D01*
X5527154Y5223300D02*
X5708810Y5404956D01*
X5404150Y5415776D02*
Y5433475D01*
X5432800Y5462125D01*
X5708810Y5559210D02*
X5737460Y5587860D01*
X5912075Y5612474D02*
Y5712155D01*
X5887460Y5587860D02*
X5912075Y5612474D01*
X5774890Y5240657D02*
X5792247Y5223300D01*
X5867140D01*
X5774890Y5240657D02*
Y5292529D01*
X5867140Y5223300D02*
X5867140Y5223300D01*
X5774890Y5292529D02*
X5811840Y5329479D01*
X6143642D01*
X6100612Y5273300D02*
X6138457D01*
X5867140D02*
X6100612D01*
X6138457D02*
X6171127Y5305970D01*
X6143642Y5329479D02*
X6217513Y5403350D01*
X6234599D01*
X6171127Y5305970D02*
X6209198D01*
X6234599Y5403350D02*
X6248248Y5417000D01*
X5442140Y4831776D02*
Y5073300D01*
X5432800Y5462125D02*
X5437800D01*
Y5737880D02*
X5445420Y5745500D01*
X5437800Y5612125D02*
Y5737880D01*
X6248248Y5417000D02*
X6425980D01*
X5912075Y5712155D02*
X5945420Y5745500D01*
X6230870Y5333270D02*
X6276976D01*
X6295706Y5352000D02*
X6425980D01*
X6276976Y5333270D02*
X6295706Y5352000D01*
X6209198Y5305970D02*
X6222848Y5319620D01*
X7362140Y4298779D02*
Y4681775D01*
Y4298779D02*
X7365420Y4295500D01*
X7177920Y5228982D02*
X7283602Y5123300D01*
X7362140D01*
X7362140Y5123300D01*
X7286759Y5173300D02*
X7362140D01*
X7252532Y5207527D02*
Y5344158D01*
Y5207527D02*
X7286759Y5173300D01*
X7177920Y5228982D02*
Y5404791D01*
X7102430Y5439515D02*
X7143196D01*
X7177920Y5404791D01*
X7073780Y5468165D02*
X7102430Y5439515D01*
X8045099Y4629650D02*
X8073750Y4601000D01*
X8045099Y4629650D02*
Y4694416D01*
X8137220Y5319620D02*
X8150870Y5333270D01*
X8223750Y4601000D02*
X8404000D01*
X8020612Y4718904D02*
Y5273300D01*
Y4718904D02*
X8045099Y4694416D01*
X7252532Y5344158D02*
X7324150Y5415776D01*
X7362140Y5223300D02*
X7447154D01*
X7628810Y5404956D02*
Y5559210D01*
X7447154Y5223300D02*
X7628810Y5404956D01*
X7324150Y5415776D02*
Y5433475D01*
X7352800Y5462125D01*
X7628810Y5559210D02*
X7657460Y5587860D01*
X7832075Y5612474D02*
Y5712155D01*
X7807460Y5587860D02*
X7832075Y5612474D01*
X7694890Y5240657D02*
X7712247Y5223300D01*
X7787140D01*
X7694890Y5240657D02*
Y5292529D01*
X7787140Y5223300D02*
X7787140Y5223300D01*
X7694890Y5292529D02*
X7731840Y5329479D01*
X8063641D01*
X8020612Y5273300D02*
X8058457D01*
X7787140D02*
X8020612D01*
X8058457D02*
X8091127Y5305970D01*
X8063641Y5329479D02*
X8137513Y5403350D01*
X8154599D01*
X8091127Y5305970D02*
X8129198D01*
X8154599Y5403350D02*
X8168248Y5417000D01*
X7362140Y4831776D02*
Y5073300D01*
X7352800Y5462125D02*
X7357800D01*
Y5737880D02*
X7365420Y5745500D01*
X7357800Y5612125D02*
Y5737880D01*
X8168248Y5417000D02*
X8345980D01*
X7832075Y5712155D02*
X7865420Y5745500D01*
X8150870Y5333270D02*
X8196976D01*
X8215706Y5352000D02*
X8345980D01*
X8196976Y5333270D02*
X8215706Y5352000D01*
X8129198Y5305970D02*
X8142848Y5319620D01*
X1602141Y6058779D02*
Y6441776D01*
Y6058779D02*
X1605420Y6055500D01*
X1417920Y6988982D02*
X1523602Y6883300D01*
X1602140D01*
X1602141Y6883300D01*
X1526759Y6933300D02*
X1602141D01*
X1492532Y6967527D02*
Y7104159D01*
Y6967527D02*
X1526759Y6933300D01*
X1417920Y6988982D02*
Y7164791D01*
X1342430Y7199515D02*
X1383196D01*
X1417920Y7164791D01*
X1313780Y7228165D02*
X1342430Y7199515D01*
X2285100Y6389650D02*
X2313750Y6361000D01*
X2285100Y6389650D02*
Y6454416D01*
X2377220Y7079620D02*
X2390870Y7093270D01*
X2463750Y6361000D02*
X2644000D01*
X2260612Y6478904D02*
Y7033300D01*
Y6478904D02*
X2285100Y6454416D01*
X1492532Y7104159D02*
X1564150Y7175776D01*
X1602141Y6983300D02*
X1687154D01*
X1868810Y7164956D02*
Y7319210D01*
X1687154Y6983300D02*
X1868810Y7164956D01*
X1564150Y7175776D02*
Y7193475D01*
X1592800Y7222125D01*
X1868810Y7319210D02*
X1897460Y7347860D01*
X2072075Y7372474D02*
Y7472155D01*
X2047460Y7347860D02*
X2072075Y7372474D01*
X1934890Y7000657D02*
X1952247Y6983300D01*
X2027140D01*
X1934890Y7000657D02*
Y7052529D01*
X2027140Y6983300D02*
X2027140Y6983300D01*
X1934890Y7052529D02*
X1971840Y7089479D01*
X2303642D01*
X2260612Y7033300D02*
X2298457D01*
X2027140D02*
X2260612D01*
X2298457D02*
X2331127Y7065970D01*
X2303642Y7089479D02*
X2377513Y7163350D01*
X2394599D01*
X2331127Y7065970D02*
X2369198D01*
X2394599Y7163350D02*
X2408248Y7177000D01*
X1602141Y6591776D02*
Y6833300D01*
X1592800Y7222125D02*
X1597800D01*
Y7497880D02*
X1605420Y7505500D01*
X1597800Y7372125D02*
Y7497880D01*
X2408248Y7177000D02*
X2585980D01*
X2072075Y7472155D02*
X2105420Y7505500D01*
X2390870Y7093270D02*
X2436976D01*
X2455706Y7112000D02*
X2585980D01*
X2436976Y7093270D02*
X2455706Y7112000D01*
X2369198Y7065970D02*
X2382848Y7079620D01*
X3522141Y6058779D02*
Y6441776D01*
Y6058779D02*
X3525420Y6055500D01*
X3337920Y6988982D02*
X3443602Y6883300D01*
X3522140D01*
X3522141Y6883300D01*
X3446759Y6933300D02*
X3522141D01*
X3412532Y6967527D02*
Y7104159D01*
Y6967527D02*
X3446759Y6933300D01*
X3337920Y6988982D02*
Y7164791D01*
X3262430Y7199515D02*
X3303196D01*
X3337920Y7164791D01*
X3233780Y7228165D02*
X3262430Y7199515D01*
X4205100Y6389650D02*
X4233750Y6361000D01*
X4205100Y6389650D02*
Y6454416D01*
X4297220Y7079620D02*
X4310870Y7093270D01*
X4383750Y6361000D02*
X4564000D01*
X4180612Y6478904D02*
Y7033300D01*
Y6478904D02*
X4205100Y6454416D01*
X3412532Y7104159D02*
X3484150Y7175776D01*
X3522141Y6983300D02*
X3607154D01*
X3788810Y7164956D02*
Y7319210D01*
X3607154Y6983300D02*
X3788810Y7164956D01*
X3484150Y7175776D02*
Y7193475D01*
X3512800Y7222125D01*
X3788810Y7319210D02*
X3817460Y7347860D01*
X3992075Y7372474D02*
Y7472155D01*
X3967460Y7347860D02*
X3992075Y7372474D01*
X3854890Y7000657D02*
X3872247Y6983300D01*
X3947140D01*
X3854890Y7000657D02*
Y7052529D01*
X3947140Y6983300D02*
X3947140Y6983300D01*
X3854890Y7052529D02*
X3891840Y7089479D01*
X4223642D01*
X4180612Y7033300D02*
X4218457D01*
X3947140D02*
X4180612D01*
X4218457D02*
X4251127Y7065970D01*
X4223642Y7089479D02*
X4297513Y7163350D01*
X4314599D01*
X4251127Y7065970D02*
X4289198D01*
X4314599Y7163350D02*
X4328248Y7177000D01*
X3522141Y6591776D02*
Y6833300D01*
X3512800Y7222125D02*
X3517800D01*
Y7497880D02*
X3525420Y7505500D01*
X3517800Y7372125D02*
Y7497880D01*
X4328248Y7177000D02*
X4505980D01*
X3992075Y7472155D02*
X4025420Y7505500D01*
X4310870Y7093270D02*
X4356976D01*
X4375706Y7112000D02*
X4505980D01*
X4356976Y7093270D02*
X4375706Y7112000D01*
X4289198Y7065970D02*
X4302848Y7079620D01*
X5442140Y6058779D02*
Y6441776D01*
Y6058779D02*
X5445420Y6055500D01*
X5257920Y6988982D02*
X5363602Y6883300D01*
X5442140D01*
X5442140Y6883300D01*
X5366759Y6933300D02*
X5442140D01*
X5332532Y6967527D02*
Y7104159D01*
Y6967527D02*
X5366759Y6933300D01*
X5257920Y6988982D02*
Y7164791D01*
X5182430Y7199515D02*
X5223196D01*
X5257920Y7164791D01*
X5153780Y7228165D02*
X5182430Y7199515D01*
X6125100Y6389650D02*
X6153750Y6361000D01*
X6125100Y6389650D02*
Y6454416D01*
X6217220Y7079620D02*
X6230870Y7093270D01*
X6303750Y6361000D02*
X6484000D01*
X6100612Y6478904D02*
Y7033300D01*
Y6478904D02*
X6125100Y6454416D01*
X5332532Y7104159D02*
X5404150Y7175776D01*
X5442140Y6983300D02*
X5527154D01*
X5708810Y7164956D02*
Y7319210D01*
X5527154Y6983300D02*
X5708810Y7164956D01*
X5404150Y7175776D02*
Y7193475D01*
X5432800Y7222125D01*
X5708810Y7319210D02*
X5737460Y7347860D01*
X5912075Y7372474D02*
Y7472155D01*
X5887460Y7347860D02*
X5912075Y7372474D01*
X5774890Y7000657D02*
X5792247Y6983300D01*
X5867140D01*
X5774890Y7000657D02*
Y7052529D01*
X5867140Y6983300D02*
X5867140Y6983300D01*
X5774890Y7052529D02*
X5811840Y7089479D01*
X6143642D01*
X6100612Y7033300D02*
X6138457D01*
X5867140D02*
X6100612D01*
X6138457D02*
X6171127Y7065970D01*
X6143642Y7089479D02*
X6217513Y7163350D01*
X6234599D01*
X6171127Y7065970D02*
X6209198D01*
X6234599Y7163350D02*
X6248248Y7177000D01*
X5442140Y6591776D02*
Y6833300D01*
X5432800Y7222125D02*
X5437800D01*
Y7497880D02*
X5445420Y7505500D01*
X5437800Y7372125D02*
Y7497880D01*
X6248248Y7177000D02*
X6425980D01*
X5912075Y7472155D02*
X5945420Y7505500D01*
X6230870Y7093270D02*
X6276976D01*
X6295706Y7112000D02*
X6425980D01*
X6276976Y7093270D02*
X6295706Y7112000D01*
X6209198Y7065970D02*
X6222848Y7079620D01*
X7362140Y6058779D02*
Y6441776D01*
Y6058779D02*
X7365420Y6055500D01*
X7177920Y6988982D02*
X7283602Y6883300D01*
X7362140D01*
X7362140Y6883300D01*
X7286759Y6933300D02*
X7362140D01*
X7252532Y6967527D02*
Y7104159D01*
Y6967527D02*
X7286759Y6933300D01*
X7177920Y6988982D02*
Y7164791D01*
X7102430Y7199515D02*
X7143196D01*
X7177920Y7164791D01*
X7073780Y7228165D02*
X7102430Y7199515D01*
X8045099Y6389650D02*
X8073750Y6361000D01*
X8045099Y6389650D02*
Y6454416D01*
X8137220Y7079620D02*
X8150870Y7093270D01*
X8223750Y6361000D02*
X8404000D01*
X8020612Y6478904D02*
Y7033300D01*
Y6478904D02*
X8045099Y6454416D01*
X7252532Y7104159D02*
X7324150Y7175776D01*
X7362140Y6983300D02*
X7447154D01*
X7628810Y7164956D02*
Y7319210D01*
X7447154Y6983300D02*
X7628810Y7164956D01*
X7324150Y7175776D02*
Y7193475D01*
X7352800Y7222125D01*
X7628810Y7319210D02*
X7657460Y7347860D01*
X7832075Y7372474D02*
Y7472155D01*
X7807460Y7347860D02*
X7832075Y7372474D01*
X7694890Y7000657D02*
X7712247Y6983300D01*
X7787140D01*
X7694890Y7000657D02*
Y7052529D01*
X7787140Y6983300D02*
X7787140Y6983300D01*
X7694890Y7052529D02*
X7731840Y7089479D01*
X8063641D01*
X8020612Y7033300D02*
X8058457D01*
X7787140D02*
X8020612D01*
X8058457D02*
X8091127Y7065970D01*
X8063641Y7089479D02*
X8137513Y7163350D01*
X8154599D01*
X8091127Y7065970D02*
X8129198D01*
X8154599Y7163350D02*
X8168248Y7177000D01*
X7362140Y6591776D02*
Y6833300D01*
X7352800Y7222125D02*
X7357800D01*
Y7497880D02*
X7365420Y7505500D01*
X7357800Y7372125D02*
Y7497880D01*
X8168248Y7177000D02*
X8345980D01*
X7832075Y7472155D02*
X7865420Y7505500D01*
X8150870Y7093270D02*
X8196976D01*
X8215706Y7112000D02*
X8345980D01*
X8196976Y7093270D02*
X8215706Y7112000D01*
X8129198Y7065970D02*
X8142848Y7079620D01*
X1602141Y7818779D02*
Y8201776D01*
Y7818779D02*
X1605420Y7815500D01*
X1417920Y8748982D02*
X1523602Y8643300D01*
X1602140D01*
X1602141Y8643300D01*
X1526759Y8693300D02*
X1602141D01*
X1492532Y8727527D02*
Y8864159D01*
Y8727527D02*
X1526759Y8693300D01*
X1417920Y8748982D02*
Y8924791D01*
X1342430Y8959515D02*
X1383196D01*
X1417920Y8924791D01*
X1313780Y8988165D02*
X1342430Y8959515D01*
X2285100Y8149650D02*
X2313750Y8121000D01*
X2285100Y8149650D02*
Y8214416D01*
X2377220Y8839620D02*
X2390870Y8853270D01*
X2463750Y8121000D02*
X2644000D01*
X2260612Y8238904D02*
Y8793300D01*
Y8238904D02*
X2285100Y8214416D01*
X1492532Y8864159D02*
X1564150Y8935776D01*
X1602141Y8743300D02*
X1687154D01*
X1868810Y8924956D02*
Y9079210D01*
X1687154Y8743300D02*
X1868810Y8924956D01*
X1564150Y8935776D02*
Y8953475D01*
X1592800Y8982125D01*
X1868810Y9079210D02*
X1897460Y9107860D01*
X2072075Y9132474D02*
Y9232155D01*
X2047460Y9107860D02*
X2072075Y9132474D01*
X1934890Y8760657D02*
X1952247Y8743300D01*
X2027140D01*
X1934890Y8760657D02*
Y8812529D01*
X2027140Y8743300D02*
X2027140Y8743300D01*
X1934890Y8812529D02*
X1971840Y8849479D01*
X2303642D01*
X2260612Y8793300D02*
X2298457D01*
X2027140D02*
X2260612D01*
X2298457D02*
X2331127Y8825970D01*
X2303642Y8849479D02*
X2377513Y8923350D01*
X2394599D01*
X2331127Y8825970D02*
X2369198D01*
X2394599Y8923350D02*
X2408248Y8937000D01*
X1602141Y8351776D02*
Y8593300D01*
X1592800Y8982125D02*
X1597800D01*
Y9257880D02*
X1605420Y9265500D01*
X1597800Y9132125D02*
Y9257880D01*
X2408248Y8937000D02*
X2585980D01*
X2072075Y9232155D02*
X2105420Y9265500D01*
X2390870Y8853270D02*
X2436976D01*
X2455706Y8872000D02*
X2585980D01*
X2436976Y8853270D02*
X2455706Y8872000D01*
X2369198Y8825970D02*
X2382848Y8839620D01*
X3522141Y7818779D02*
Y8201776D01*
Y7818779D02*
X3525420Y7815500D01*
X3337920Y8748982D02*
X3443602Y8643300D01*
X3522140D01*
X3522141Y8643300D01*
X3446759Y8693300D02*
X3522141D01*
X3412532Y8727527D02*
Y8864159D01*
Y8727527D02*
X3446759Y8693300D01*
X3337920Y8748982D02*
Y8924791D01*
X3262430Y8959515D02*
X3303196D01*
X3337920Y8924791D01*
X3233780Y8988165D02*
X3262430Y8959515D01*
X4205100Y8149650D02*
X4233750Y8121000D01*
X4205100Y8149650D02*
Y8214416D01*
X4297220Y8839620D02*
X4310870Y8853270D01*
X4383750Y8121000D02*
X4564000D01*
X4180612Y8238904D02*
Y8793300D01*
Y8238904D02*
X4205100Y8214416D01*
X3412532Y8864159D02*
X3484150Y8935776D01*
X3522141Y8743300D02*
X3607154D01*
X3788810Y8924956D02*
Y9079210D01*
X3607154Y8743300D02*
X3788810Y8924956D01*
X3484150Y8935776D02*
Y8953475D01*
X3512800Y8982125D01*
X3788810Y9079210D02*
X3817460Y9107860D01*
X3992075Y9132474D02*
Y9232155D01*
X3967460Y9107860D02*
X3992075Y9132474D01*
X3854890Y8760657D02*
X3872247Y8743300D01*
X3947140D01*
X3854890Y8760657D02*
Y8812529D01*
X3947140Y8743300D02*
X3947140Y8743300D01*
X3854890Y8812529D02*
X3891840Y8849479D01*
X4223642D01*
X4180612Y8793300D02*
X4218457D01*
X3947140D02*
X4180612D01*
X4218457D02*
X4251127Y8825970D01*
X4223642Y8849479D02*
X4297513Y8923350D01*
X4314599D01*
X4251127Y8825970D02*
X4289198D01*
X4314599Y8923350D02*
X4328248Y8937000D01*
X3522141Y8351776D02*
Y8593300D01*
X3512800Y8982125D02*
X3517800D01*
Y9257880D02*
X3525420Y9265500D01*
X3517800Y9132125D02*
Y9257880D01*
X4328248Y8937000D02*
X4505980D01*
X3992075Y9232155D02*
X4025420Y9265500D01*
X4310870Y8853270D02*
X4356976D01*
X4375706Y8872000D02*
X4505980D01*
X4356976Y8853270D02*
X4375706Y8872000D01*
X4289198Y8825970D02*
X4302848Y8839620D01*
X5442140Y7818779D02*
Y8201776D01*
Y7818779D02*
X5445420Y7815500D01*
X5257920Y8748982D02*
X5363602Y8643300D01*
X5442140D01*
X5442140Y8643300D01*
X5366759Y8693300D02*
X5442140D01*
X5332532Y8727527D02*
Y8864159D01*
Y8727527D02*
X5366759Y8693300D01*
X5257920Y8748982D02*
Y8924791D01*
X5182430Y8959515D02*
X5223196D01*
X5257920Y8924791D01*
X5153780Y8988165D02*
X5182430Y8959515D01*
X6125100Y8149650D02*
X6153750Y8121000D01*
X6125100Y8149650D02*
Y8214416D01*
X6217220Y8839620D02*
X6230870Y8853270D01*
X6303750Y8121000D02*
X6484000D01*
X6100612Y8238904D02*
Y8793300D01*
Y8238904D02*
X6125100Y8214416D01*
X5332532Y8864159D02*
X5404150Y8935776D01*
X5442140Y8743300D02*
X5527154D01*
X5708810Y8924956D02*
Y9079210D01*
X5527154Y8743300D02*
X5708810Y8924956D01*
X5404150Y8935776D02*
Y8953475D01*
X5432800Y8982125D01*
X5708810Y9079210D02*
X5737460Y9107860D01*
X5912075Y9132474D02*
Y9232155D01*
X5887460Y9107860D02*
X5912075Y9132474D01*
X5774890Y8760657D02*
X5792247Y8743300D01*
X5867140D01*
X5774890Y8760657D02*
Y8812529D01*
X5867140Y8743300D02*
X5867140Y8743300D01*
X5774890Y8812529D02*
X5811840Y8849479D01*
X6143642D01*
X6100612Y8793300D02*
X6138457D01*
X5867140D02*
X6100612D01*
X6138457D02*
X6171127Y8825970D01*
X6143642Y8849479D02*
X6217513Y8923350D01*
X6234599D01*
X6171127Y8825970D02*
X6209198D01*
X6234599Y8923350D02*
X6248248Y8937000D01*
X5442140Y8351776D02*
Y8593300D01*
X5432800Y8982125D02*
X5437800D01*
Y9257880D02*
X5445420Y9265500D01*
X5437800Y9132125D02*
Y9257880D01*
X6248248Y8937000D02*
X6425980D01*
X5912075Y9232155D02*
X5945420Y9265500D01*
X6230870Y8853270D02*
X6276976D01*
X6295706Y8872000D02*
X6425980D01*
X6276976Y8853270D02*
X6295706Y8872000D01*
X6209198Y8825970D02*
X6222848Y8839620D01*
X7362140Y7818779D02*
Y8201776D01*
Y7818779D02*
X7365420Y7815500D01*
X7177920Y8748982D02*
X7283602Y8643300D01*
X7362140D01*
X7362140Y8643300D01*
X7286759Y8693300D02*
X7362140D01*
X7252532Y8727527D02*
Y8864159D01*
Y8727527D02*
X7286759Y8693300D01*
X7177920Y8748982D02*
Y8924791D01*
X7102430Y8959515D02*
X7143196D01*
X7177920Y8924791D01*
X7073780Y8988165D02*
X7102430Y8959515D01*
X8045099Y8149650D02*
X8073750Y8121000D01*
X8045099Y8149650D02*
Y8214416D01*
X8137220Y8839620D02*
X8150870Y8853270D01*
X8223750Y8121000D02*
X8404000D01*
X8020612Y8238904D02*
Y8793300D01*
Y8238904D02*
X8045099Y8214416D01*
X7252532Y8864159D02*
X7324150Y8935776D01*
X7362140Y8743300D02*
X7447154D01*
X7628810Y8924956D02*
Y9079210D01*
X7447154Y8743300D02*
X7628810Y8924956D01*
X7324150Y8935776D02*
Y8953475D01*
X7352800Y8982125D01*
X7628810Y9079210D02*
X7657460Y9107860D01*
X7832075Y9132474D02*
Y9232155D01*
X7807460Y9107860D02*
X7832075Y9132474D01*
X7694890Y8760657D02*
X7712247Y8743300D01*
X7787140D01*
X7694890Y8760657D02*
Y8812529D01*
X7787140Y8743300D02*
X7787140Y8743300D01*
X7694890Y8812529D02*
X7731840Y8849479D01*
X8063641D01*
X8020612Y8793300D02*
X8058457D01*
X7787140D02*
X8020612D01*
X8058457D02*
X8091127Y8825970D01*
X8063641Y8849479D02*
X8137513Y8923350D01*
X8154599D01*
X8091127Y8825970D02*
X8129198D01*
X8154599Y8923350D02*
X8168248Y8937000D01*
X7362140Y8351776D02*
Y8593300D01*
X7352800Y8982125D02*
X7357800D01*
Y9257880D02*
X7365420Y9265500D01*
X7357800Y9132125D02*
Y9257880D01*
X8168248Y8937000D02*
X8345980D01*
X7832075Y9232155D02*
X7865420Y9265500D01*
X8150870Y8853270D02*
X8196976D01*
X8215706Y8872000D02*
X8345980D01*
X8196976Y8853270D02*
X8215706Y8872000D01*
X8129198Y8825970D02*
X8142848Y8839620D01*
D28*
X1492532Y1300927D02*
Y1570484D01*
X1556684Y1236776D02*
X1897080D01*
X1492532Y1300927D02*
X1556684Y1236776D01*
X1346160Y1716856D02*
Y1755785D01*
Y1716856D02*
X1492532Y1570484D01*
X1318780Y1783165D02*
X1346160Y1755785D01*
X1313780Y1783165D02*
X1318780D01*
X2074461Y1126021D02*
Y1209395D01*
Y1126021D02*
X2373482Y827000D01*
X2644000D01*
X2047080Y1236776D02*
X2074461Y1209395D01*
X2047080Y1231776D02*
Y1374127D01*
X2032140Y1389067D02*
X2047080Y1374127D01*
X2027140Y1603300D02*
X2103096D01*
X1870175Y1755899D02*
X2093976Y1979700D01*
X2249060D01*
X1870175Y1622893D02*
Y1755899D01*
X1952865Y1603300D02*
X2027140D01*
Y1389067D02*
Y1553300D01*
Y1389067D02*
X2032140D01*
X2121505Y1584891D02*
X2157759D01*
X2103096Y1603300D02*
X2121505Y1584891D01*
X2157759D02*
X2187639Y1555011D01*
X1870175Y1622893D02*
X1900444Y1592624D01*
X1942189D01*
X1952865Y1603300D01*
X2458421Y2005537D02*
Y2075579D01*
Y2005537D02*
X2501958Y1962000D01*
X2606300D01*
X2249060Y1979700D02*
X2261440Y1992080D01*
X2261140Y1992380D02*
X2261440Y1992080D01*
X2421140Y2112860D02*
X2458421Y2075579D01*
X2261140Y1992380D02*
Y2112860D01*
X3412532Y1300927D02*
Y1570484D01*
X3476684Y1236776D02*
X3817080D01*
X3412532Y1300927D02*
X3476684Y1236776D01*
X3266160Y1716856D02*
Y1755785D01*
Y1716856D02*
X3412532Y1570484D01*
X3238780Y1783165D02*
X3266160Y1755785D01*
X3233780Y1783165D02*
X3238780D01*
X3994461Y1126021D02*
Y1209395D01*
Y1126021D02*
X4293482Y827000D01*
X4564000D01*
X3967080Y1236776D02*
X3994461Y1209395D01*
X3967080Y1231776D02*
Y1374127D01*
X3952140Y1389067D02*
X3967080Y1374127D01*
X3947140Y1603300D02*
X4023096D01*
X3790175Y1755899D02*
X4013976Y1979700D01*
X4169060D01*
X3790175Y1622893D02*
Y1755899D01*
X3872865Y1603300D02*
X3947140D01*
Y1389067D02*
Y1553300D01*
Y1389067D02*
X3952140D01*
X4041505Y1584891D02*
X4077759D01*
X4023096Y1603300D02*
X4041505Y1584891D01*
X4077759D02*
X4107639Y1555011D01*
X3790175Y1622893D02*
X3820444Y1592624D01*
X3862189D01*
X3872865Y1603300D01*
X4378421Y2005537D02*
Y2075579D01*
Y2005537D02*
X4421958Y1962000D01*
X4526300D01*
X4169060Y1979700D02*
X4181440Y1992080D01*
X4181140Y1992380D02*
X4181440Y1992080D01*
X4341140Y2112860D02*
X4378421Y2075579D01*
X4181140Y1992380D02*
Y2112860D01*
X5332532Y1300927D02*
Y1570484D01*
X5396684Y1236776D02*
X5737080D01*
X5332532Y1300927D02*
X5396684Y1236776D01*
X5186160Y1716856D02*
Y1755785D01*
Y1716856D02*
X5332532Y1570484D01*
X5158780Y1783165D02*
X5186160Y1755785D01*
X5153780Y1783165D02*
X5158780D01*
X5914461Y1126021D02*
Y1209395D01*
Y1126021D02*
X6213482Y827000D01*
X6484000D01*
X5887080Y1236776D02*
X5914461Y1209395D01*
X5887080Y1231776D02*
Y1374127D01*
X5872140Y1389067D02*
X5887080Y1374127D01*
X5867140Y1603300D02*
X5943096D01*
X5710175Y1755899D02*
X5933976Y1979700D01*
X6089060D01*
X5710175Y1622893D02*
Y1755899D01*
X5792865Y1603300D02*
X5867140D01*
Y1389067D02*
Y1553300D01*
Y1389067D02*
X5872140D01*
X5961505Y1584891D02*
X5997759D01*
X5943096Y1603300D02*
X5961505Y1584891D01*
X5997759D02*
X6027639Y1555011D01*
X5710175Y1622893D02*
X5740444Y1592624D01*
X5782189D01*
X5792865Y1603300D01*
X6298421Y2005537D02*
Y2075579D01*
Y2005537D02*
X6341958Y1962000D01*
X6446300D01*
X6089060Y1979700D02*
X6101440Y1992080D01*
X6101140Y1992380D02*
X6101440Y1992080D01*
X6261140Y2112860D02*
X6298421Y2075579D01*
X6101140Y1992380D02*
Y2112860D01*
X7252532Y1300927D02*
Y1570484D01*
X7316684Y1236776D02*
X7657080D01*
X7252532Y1300927D02*
X7316684Y1236776D01*
X7106160Y1716856D02*
Y1755785D01*
Y1716856D02*
X7252532Y1570484D01*
X7078780Y1783165D02*
X7106160Y1755785D01*
X7073780Y1783165D02*
X7078780D01*
X7834461Y1126021D02*
Y1209395D01*
Y1126021D02*
X8133482Y827000D01*
X8404000D01*
X7807080Y1236776D02*
X7834461Y1209395D01*
X7807080Y1231776D02*
Y1374127D01*
X7792140Y1389067D02*
X7807080Y1374127D01*
X7787140Y1603300D02*
X7863096D01*
X7630175Y1755899D02*
X7853976Y1979700D01*
X8009060D01*
X7630175Y1622893D02*
Y1755899D01*
X7712865Y1603300D02*
X7787140D01*
Y1389067D02*
Y1553300D01*
Y1389067D02*
X7792140D01*
X7881505Y1584891D02*
X7917759D01*
X7863096Y1603300D02*
X7881505Y1584891D01*
X7917759D02*
X7947639Y1555011D01*
X7630175Y1622893D02*
X7660444Y1592624D01*
X7702189D01*
X7712865Y1603300D01*
X8218421Y2005537D02*
Y2075579D01*
Y2005537D02*
X8261958Y1962000D01*
X8366300D01*
X8009060Y1979700D02*
X8021440Y1992080D01*
X8021140Y1992380D02*
X8021440Y1992080D01*
X8181140Y2112860D02*
X8218421Y2075579D01*
X8021140Y1992380D02*
Y2112860D01*
X1492532Y3060927D02*
Y3330484D01*
X1556684Y2996776D02*
X1897080D01*
X1492532Y3060927D02*
X1556684Y2996776D01*
X1346160Y3476856D02*
Y3515785D01*
Y3476856D02*
X1492532Y3330484D01*
X1318780Y3543165D02*
X1346160Y3515785D01*
X1313780Y3543165D02*
X1318780D01*
X2074461Y2886021D02*
Y2969395D01*
Y2886021D02*
X2373482Y2587000D01*
X2644000D01*
X2047080Y2996776D02*
X2074461Y2969395D01*
X2047080Y2991776D02*
Y3134127D01*
X2032140Y3149067D02*
X2047080Y3134127D01*
X2027140Y3363300D02*
X2103096D01*
X1870175Y3515899D02*
X2093976Y3739700D01*
X2249060D01*
X1870175Y3382893D02*
Y3515899D01*
X1952865Y3363300D02*
X2027140D01*
Y3149067D02*
Y3313300D01*
Y3149067D02*
X2032140D01*
X2121505Y3344891D02*
X2157759D01*
X2103096Y3363300D02*
X2121505Y3344891D01*
X2157759D02*
X2187639Y3315011D01*
X1870175Y3382893D02*
X1900444Y3352624D01*
X1942189D01*
X1952865Y3363300D01*
X2458421Y3765537D02*
Y3835579D01*
Y3765537D02*
X2501958Y3722000D01*
X2606300D01*
X2249060Y3739700D02*
X2261440Y3752080D01*
X2261140Y3752380D02*
X2261440Y3752080D01*
X2421140Y3872860D02*
X2458421Y3835579D01*
X2261140Y3752380D02*
Y3872860D01*
X3412532Y3060927D02*
Y3330484D01*
X3476684Y2996776D02*
X3817080D01*
X3412532Y3060927D02*
X3476684Y2996776D01*
X3266160Y3476856D02*
Y3515785D01*
Y3476856D02*
X3412532Y3330484D01*
X3238780Y3543165D02*
X3266160Y3515785D01*
X3233780Y3543165D02*
X3238780D01*
X3994461Y2886021D02*
Y2969395D01*
Y2886021D02*
X4293482Y2587000D01*
X4564000D01*
X3967080Y2996776D02*
X3994461Y2969395D01*
X3967080Y2991776D02*
Y3134127D01*
X3952140Y3149067D02*
X3967080Y3134127D01*
X3947140Y3363300D02*
X4023096D01*
X3790175Y3515899D02*
X4013976Y3739700D01*
X4169060D01*
X3790175Y3382893D02*
Y3515899D01*
X3872865Y3363300D02*
X3947140D01*
Y3149067D02*
Y3313300D01*
Y3149067D02*
X3952140D01*
X4041505Y3344891D02*
X4077759D01*
X4023096Y3363300D02*
X4041505Y3344891D01*
X4077759D02*
X4107639Y3315011D01*
X3790175Y3382893D02*
X3820444Y3352624D01*
X3862189D01*
X3872865Y3363300D01*
X4378421Y3765537D02*
Y3835579D01*
Y3765537D02*
X4421958Y3722000D01*
X4526300D01*
X4169060Y3739700D02*
X4181440Y3752080D01*
X4181140Y3752380D02*
X4181440Y3752080D01*
X4341140Y3872860D02*
X4378421Y3835579D01*
X4181140Y3752380D02*
Y3872860D01*
X5332532Y3060927D02*
Y3330484D01*
X5396684Y2996776D02*
X5737080D01*
X5332532Y3060927D02*
X5396684Y2996776D01*
X5186160Y3476856D02*
Y3515785D01*
Y3476856D02*
X5332532Y3330484D01*
X5158780Y3543165D02*
X5186160Y3515785D01*
X5153780Y3543165D02*
X5158780D01*
X5914461Y2886021D02*
Y2969395D01*
Y2886021D02*
X6213482Y2587000D01*
X6484000D01*
X5887080Y2996776D02*
X5914461Y2969395D01*
X5887080Y2991776D02*
Y3134127D01*
X5872140Y3149067D02*
X5887080Y3134127D01*
X5867140Y3363300D02*
X5943096D01*
X5710175Y3515899D02*
X5933976Y3739700D01*
X6089060D01*
X5710175Y3382893D02*
Y3515899D01*
X5792865Y3363300D02*
X5867140D01*
Y3149067D02*
Y3313300D01*
Y3149067D02*
X5872140D01*
X5961505Y3344891D02*
X5997759D01*
X5943096Y3363300D02*
X5961505Y3344891D01*
X5997759D02*
X6027639Y3315011D01*
X5710175Y3382893D02*
X5740444Y3352624D01*
X5782189D01*
X5792865Y3363300D01*
X6298421Y3765537D02*
Y3835579D01*
Y3765537D02*
X6341958Y3722000D01*
X6446300D01*
X6089060Y3739700D02*
X6101440Y3752080D01*
X6101140Y3752380D02*
X6101440Y3752080D01*
X6261140Y3872860D02*
X6298421Y3835579D01*
X6101140Y3752380D02*
Y3872860D01*
X7252532Y3060927D02*
Y3330484D01*
X7316684Y2996776D02*
X7657080D01*
X7252532Y3060927D02*
X7316684Y2996776D01*
X7106160Y3476856D02*
Y3515785D01*
Y3476856D02*
X7252532Y3330484D01*
X7078780Y3543165D02*
X7106160Y3515785D01*
X7073780Y3543165D02*
X7078780D01*
X7834461Y2886021D02*
Y2969395D01*
Y2886021D02*
X8133482Y2587000D01*
X8404000D01*
X7807080Y2996776D02*
X7834461Y2969395D01*
X7807080Y2991776D02*
Y3134127D01*
X7792140Y3149067D02*
X7807080Y3134127D01*
X7787140Y3363300D02*
X7863096D01*
X7630175Y3515899D02*
X7853976Y3739700D01*
X8009060D01*
X7630175Y3382893D02*
Y3515899D01*
X7712865Y3363300D02*
X7787140D01*
Y3149067D02*
Y3313300D01*
Y3149067D02*
X7792140D01*
X7881505Y3344891D02*
X7917759D01*
X7863096Y3363300D02*
X7881505Y3344891D01*
X7917759D02*
X7947639Y3315011D01*
X7630175Y3382893D02*
X7660444Y3352624D01*
X7702189D01*
X7712865Y3363300D01*
X8218421Y3765537D02*
Y3835579D01*
Y3765537D02*
X8261958Y3722000D01*
X8366300D01*
X8009060Y3739700D02*
X8021440Y3752080D01*
X8021140Y3752380D02*
X8021440Y3752080D01*
X8181140Y3872860D02*
X8218421Y3835579D01*
X8021140Y3752380D02*
Y3872860D01*
X1492532Y4820927D02*
Y5090484D01*
X1556684Y4756776D02*
X1897080D01*
X1492532Y4820927D02*
X1556684Y4756776D01*
X1346160Y5236856D02*
Y5275785D01*
Y5236856D02*
X1492532Y5090484D01*
X1318780Y5303165D02*
X1346160Y5275785D01*
X1313780Y5303165D02*
X1318780D01*
X2074461Y4646021D02*
Y4729395D01*
Y4646021D02*
X2373482Y4347000D01*
X2644000D01*
X2047080Y4756776D02*
X2074461Y4729395D01*
X2047080Y4751776D02*
Y4894127D01*
X2032140Y4909067D02*
X2047080Y4894127D01*
X2027140Y5123300D02*
X2103096D01*
X1870175Y5275900D02*
X2093976Y5499700D01*
X2249060D01*
X1870175Y5142893D02*
Y5275900D01*
X1952865Y5123300D02*
X2027140D01*
Y4909067D02*
Y5073300D01*
Y4909067D02*
X2032140D01*
X2121505Y5104891D02*
X2157759D01*
X2103096Y5123300D02*
X2121505Y5104891D01*
X2157759D02*
X2187639Y5075011D01*
X1870175Y5142893D02*
X1900444Y5112624D01*
X1942189D01*
X1952865Y5123300D01*
X2458421Y5525537D02*
Y5595579D01*
Y5525537D02*
X2501958Y5482000D01*
X2606300D01*
X2249060Y5499700D02*
X2261440Y5512080D01*
X2261140Y5512380D02*
X2261440Y5512080D01*
X2421140Y5632860D02*
X2458421Y5595579D01*
X2261140Y5512380D02*
Y5632860D01*
X3412532Y4820927D02*
Y5090484D01*
X3476684Y4756776D02*
X3817080D01*
X3412532Y4820927D02*
X3476684Y4756776D01*
X3266160Y5236856D02*
Y5275785D01*
Y5236856D02*
X3412532Y5090484D01*
X3238780Y5303165D02*
X3266160Y5275785D01*
X3233780Y5303165D02*
X3238780D01*
X3994461Y4646021D02*
Y4729395D01*
Y4646021D02*
X4293482Y4347000D01*
X4564000D01*
X3967080Y4756776D02*
X3994461Y4729395D01*
X3967080Y4751776D02*
Y4894127D01*
X3952140Y4909067D02*
X3967080Y4894127D01*
X3947140Y5123300D02*
X4023096D01*
X3790175Y5275900D02*
X4013976Y5499700D01*
X4169060D01*
X3790175Y5142893D02*
Y5275900D01*
X3872865Y5123300D02*
X3947140D01*
Y4909067D02*
Y5073300D01*
Y4909067D02*
X3952140D01*
X4041505Y5104891D02*
X4077759D01*
X4023096Y5123300D02*
X4041505Y5104891D01*
X4077759D02*
X4107639Y5075011D01*
X3790175Y5142893D02*
X3820444Y5112624D01*
X3862189D01*
X3872865Y5123300D01*
X4378421Y5525537D02*
Y5595579D01*
Y5525537D02*
X4421958Y5482000D01*
X4526300D01*
X4169060Y5499700D02*
X4181440Y5512080D01*
X4181140Y5512380D02*
X4181440Y5512080D01*
X4341140Y5632860D02*
X4378421Y5595579D01*
X4181140Y5512380D02*
Y5632860D01*
X5332532Y4820927D02*
Y5090484D01*
X5396684Y4756776D02*
X5737080D01*
X5332532Y4820927D02*
X5396684Y4756776D01*
X5186160Y5236856D02*
Y5275785D01*
Y5236856D02*
X5332532Y5090484D01*
X5158780Y5303165D02*
X5186160Y5275785D01*
X5153780Y5303165D02*
X5158780D01*
X5914461Y4646021D02*
Y4729395D01*
Y4646021D02*
X6213482Y4347000D01*
X6484000D01*
X5887080Y4756776D02*
X5914461Y4729395D01*
X5887080Y4751776D02*
Y4894127D01*
X5872140Y4909067D02*
X5887080Y4894127D01*
X5867140Y5123300D02*
X5943096D01*
X5710175Y5275900D02*
X5933976Y5499700D01*
X6089060D01*
X5710175Y5142893D02*
Y5275900D01*
X5792865Y5123300D02*
X5867140D01*
Y4909067D02*
Y5073300D01*
Y4909067D02*
X5872140D01*
X5961505Y5104891D02*
X5997759D01*
X5943096Y5123300D02*
X5961505Y5104891D01*
X5997759D02*
X6027639Y5075011D01*
X5710175Y5142893D02*
X5740444Y5112624D01*
X5782189D01*
X5792865Y5123300D01*
X6298421Y5525537D02*
Y5595579D01*
Y5525537D02*
X6341958Y5482000D01*
X6446300D01*
X6089060Y5499700D02*
X6101440Y5512080D01*
X6101140Y5512380D02*
X6101440Y5512080D01*
X6261140Y5632860D02*
X6298421Y5595579D01*
X6101140Y5512380D02*
Y5632860D01*
X7252532Y4820927D02*
Y5090484D01*
X7316684Y4756776D02*
X7657080D01*
X7252532Y4820927D02*
X7316684Y4756776D01*
X7106160Y5236856D02*
Y5275785D01*
Y5236856D02*
X7252532Y5090484D01*
X7078780Y5303165D02*
X7106160Y5275785D01*
X7073780Y5303165D02*
X7078780D01*
X7834461Y4646021D02*
Y4729395D01*
Y4646021D02*
X8133482Y4347000D01*
X8404000D01*
X7807080Y4756776D02*
X7834461Y4729395D01*
X7807080Y4751776D02*
Y4894127D01*
X7792140Y4909067D02*
X7807080Y4894127D01*
X7787140Y5123300D02*
X7863096D01*
X7630175Y5275900D02*
X7853976Y5499700D01*
X8009060D01*
X7630175Y5142893D02*
Y5275900D01*
X7712865Y5123300D02*
X7787140D01*
Y4909067D02*
Y5073300D01*
Y4909067D02*
X7792140D01*
X7881505Y5104891D02*
X7917759D01*
X7863096Y5123300D02*
X7881505Y5104891D01*
X7917759D02*
X7947639Y5075011D01*
X7630175Y5142893D02*
X7660444Y5112624D01*
X7702189D01*
X7712865Y5123300D01*
X8218421Y5525537D02*
Y5595579D01*
Y5525537D02*
X8261958Y5482000D01*
X8366300D01*
X8009060Y5499700D02*
X8021440Y5512080D01*
X8021140Y5512380D02*
X8021440Y5512080D01*
X8181140Y5632860D02*
X8218421Y5595579D01*
X8021140Y5512380D02*
Y5632860D01*
X1492532Y6580927D02*
Y6850484D01*
X1556684Y6516776D02*
X1897080D01*
X1492532Y6580927D02*
X1556684Y6516776D01*
X1346160Y6996856D02*
Y7035785D01*
Y6996856D02*
X1492532Y6850484D01*
X1318780Y7063165D02*
X1346160Y7035785D01*
X1313780Y7063165D02*
X1318780D01*
X2074461Y6406021D02*
Y6489395D01*
Y6406021D02*
X2373482Y6107000D01*
X2644000D01*
X2047080Y6516776D02*
X2074461Y6489395D01*
X2047080Y6511776D02*
Y6654127D01*
X2032140Y6669067D02*
X2047080Y6654127D01*
X2027140Y6883300D02*
X2103096D01*
X1870175Y7035900D02*
X2093976Y7259700D01*
X2249060D01*
X1870175Y6902893D02*
Y7035900D01*
X1952865Y6883300D02*
X2027140D01*
Y6669067D02*
Y6833300D01*
Y6669067D02*
X2032140D01*
X2121505Y6864891D02*
X2157759D01*
X2103096Y6883300D02*
X2121505Y6864891D01*
X2157759D02*
X2187639Y6835011D01*
X1870175Y6902893D02*
X1900444Y6872624D01*
X1942189D01*
X1952865Y6883300D01*
X2458421Y7285537D02*
Y7355579D01*
Y7285537D02*
X2501958Y7242000D01*
X2606300D01*
X2249060Y7259700D02*
X2261440Y7272080D01*
X2261140Y7272380D02*
X2261440Y7272080D01*
X2421140Y7392860D02*
X2458421Y7355579D01*
X2261140Y7272380D02*
Y7392860D01*
X3412532Y6580927D02*
Y6850484D01*
X3476684Y6516776D02*
X3817080D01*
X3412532Y6580927D02*
X3476684Y6516776D01*
X3266160Y6996856D02*
Y7035785D01*
Y6996856D02*
X3412532Y6850484D01*
X3238780Y7063165D02*
X3266160Y7035785D01*
X3233780Y7063165D02*
X3238780D01*
X3994461Y6406021D02*
Y6489395D01*
Y6406021D02*
X4293482Y6107000D01*
X4564000D01*
X3967080Y6516776D02*
X3994461Y6489395D01*
X3967080Y6511776D02*
Y6654127D01*
X3952140Y6669067D02*
X3967080Y6654127D01*
X3947140Y6883300D02*
X4023096D01*
X3790175Y7035900D02*
X4013976Y7259700D01*
X4169060D01*
X3790175Y6902893D02*
Y7035900D01*
X3872865Y6883300D02*
X3947140D01*
Y6669067D02*
Y6833300D01*
Y6669067D02*
X3952140D01*
X4041505Y6864891D02*
X4077759D01*
X4023096Y6883300D02*
X4041505Y6864891D01*
X4077759D02*
X4107639Y6835011D01*
X3790175Y6902893D02*
X3820444Y6872624D01*
X3862189D01*
X3872865Y6883300D01*
X4378421Y7285537D02*
Y7355579D01*
Y7285537D02*
X4421958Y7242000D01*
X4526300D01*
X4169060Y7259700D02*
X4181440Y7272080D01*
X4181140Y7272380D02*
X4181440Y7272080D01*
X4341140Y7392860D02*
X4378421Y7355579D01*
X4181140Y7272380D02*
Y7392860D01*
X5332532Y6580927D02*
Y6850484D01*
X5396684Y6516776D02*
X5737080D01*
X5332532Y6580927D02*
X5396684Y6516776D01*
X5186160Y6996856D02*
Y7035785D01*
Y6996856D02*
X5332532Y6850484D01*
X5158780Y7063165D02*
X5186160Y7035785D01*
X5153780Y7063165D02*
X5158780D01*
X5914461Y6406021D02*
Y6489395D01*
Y6406021D02*
X6213482Y6107000D01*
X6484000D01*
X5887080Y6516776D02*
X5914461Y6489395D01*
X5887080Y6511776D02*
Y6654127D01*
X5872140Y6669067D02*
X5887080Y6654127D01*
X5867140Y6883300D02*
X5943096D01*
X5710175Y7035900D02*
X5933976Y7259700D01*
X6089060D01*
X5710175Y6902893D02*
Y7035900D01*
X5792865Y6883300D02*
X5867140D01*
Y6669067D02*
Y6833300D01*
Y6669067D02*
X5872140D01*
X5961505Y6864891D02*
X5997759D01*
X5943096Y6883300D02*
X5961505Y6864891D01*
X5997759D02*
X6027639Y6835011D01*
X5710175Y6902893D02*
X5740444Y6872624D01*
X5782189D01*
X5792865Y6883300D01*
X6298421Y7285537D02*
Y7355579D01*
Y7285537D02*
X6341958Y7242000D01*
X6446300D01*
X6089060Y7259700D02*
X6101440Y7272080D01*
X6101140Y7272380D02*
X6101440Y7272080D01*
X6261140Y7392860D02*
X6298421Y7355579D01*
X6101140Y7272380D02*
Y7392860D01*
X7252532Y6580927D02*
Y6850484D01*
X7316684Y6516776D02*
X7657080D01*
X7252532Y6580927D02*
X7316684Y6516776D01*
X7106160Y6996856D02*
Y7035785D01*
Y6996856D02*
X7252532Y6850484D01*
X7078780Y7063165D02*
X7106160Y7035785D01*
X7073780Y7063165D02*
X7078780D01*
X7834461Y6406021D02*
Y6489395D01*
Y6406021D02*
X8133482Y6107000D01*
X8404000D01*
X7807080Y6516776D02*
X7834461Y6489395D01*
X7807080Y6511776D02*
Y6654127D01*
X7792140Y6669067D02*
X7807080Y6654127D01*
X7787140Y6883300D02*
X7863096D01*
X7630175Y7035900D02*
X7853976Y7259700D01*
X8009060D01*
X7630175Y6902893D02*
Y7035900D01*
X7712865Y6883300D02*
X7787140D01*
Y6669067D02*
Y6833300D01*
Y6669067D02*
X7792140D01*
X7881505Y6864891D02*
X7917759D01*
X7863096Y6883300D02*
X7881505Y6864891D01*
X7917759D02*
X7947639Y6835011D01*
X7630175Y6902893D02*
X7660444Y6872624D01*
X7702189D01*
X7712865Y6883300D01*
X8218421Y7285537D02*
Y7355579D01*
Y7285537D02*
X8261958Y7242000D01*
X8366300D01*
X8009060Y7259700D02*
X8021440Y7272080D01*
X8021140Y7272380D02*
X8021440Y7272080D01*
X8181140Y7392860D02*
X8218421Y7355579D01*
X8021140Y7272380D02*
Y7392860D01*
X1492532Y8340927D02*
Y8610484D01*
X1556684Y8276776D02*
X1897080D01*
X1492532Y8340927D02*
X1556684Y8276776D01*
X1346160Y8756856D02*
Y8795785D01*
Y8756856D02*
X1492532Y8610484D01*
X1318780Y8823165D02*
X1346160Y8795785D01*
X1313780Y8823165D02*
X1318780D01*
X2074461Y8166022D02*
Y8249395D01*
Y8166022D02*
X2373482Y7867000D01*
X2644000D01*
X2047080Y8276776D02*
X2074461Y8249395D01*
X2047080Y8271776D02*
Y8414127D01*
X2032140Y8429067D02*
X2047080Y8414127D01*
X2027140Y8643300D02*
X2103096D01*
X1870175Y8795900D02*
X2093976Y9019700D01*
X2249060D01*
X1870175Y8662893D02*
Y8795900D01*
X1952865Y8643300D02*
X2027140D01*
Y8429067D02*
Y8593300D01*
Y8429067D02*
X2032140D01*
X2121505Y8624891D02*
X2157759D01*
X2103096Y8643300D02*
X2121505Y8624891D01*
X2157759D02*
X2187639Y8595011D01*
X1870175Y8662893D02*
X1900444Y8632624D01*
X1942189D01*
X1952865Y8643300D01*
X2458421Y9045537D02*
Y9115579D01*
Y9045537D02*
X2501958Y9002000D01*
X2606300D01*
X2249060Y9019700D02*
X2261440Y9032080D01*
X2261140Y9032380D02*
X2261440Y9032080D01*
X2421140Y9152860D02*
X2458421Y9115579D01*
X2261140Y9032380D02*
Y9152860D01*
X3412532Y8340927D02*
Y8610484D01*
X3476684Y8276776D02*
X3817080D01*
X3412532Y8340927D02*
X3476684Y8276776D01*
X3266160Y8756856D02*
Y8795785D01*
Y8756856D02*
X3412532Y8610484D01*
X3238780Y8823165D02*
X3266160Y8795785D01*
X3233780Y8823165D02*
X3238780D01*
X3994461Y8166022D02*
Y8249395D01*
Y8166022D02*
X4293482Y7867000D01*
X4564000D01*
X3967080Y8276776D02*
X3994461Y8249395D01*
X3967080Y8271776D02*
Y8414127D01*
X3952140Y8429067D02*
X3967080Y8414127D01*
X3947140Y8643300D02*
X4023096D01*
X3790175Y8795900D02*
X4013976Y9019700D01*
X4169060D01*
X3790175Y8662893D02*
Y8795900D01*
X3872865Y8643300D02*
X3947140D01*
Y8429067D02*
Y8593300D01*
Y8429067D02*
X3952140D01*
X4041505Y8624891D02*
X4077759D01*
X4023096Y8643300D02*
X4041505Y8624891D01*
X4077759D02*
X4107639Y8595011D01*
X3790175Y8662893D02*
X3820444Y8632624D01*
X3862189D01*
X3872865Y8643300D01*
X4378421Y9045537D02*
Y9115579D01*
Y9045537D02*
X4421958Y9002000D01*
X4526300D01*
X4169060Y9019700D02*
X4181440Y9032080D01*
X4181140Y9032380D02*
X4181440Y9032080D01*
X4341140Y9152860D02*
X4378421Y9115579D01*
X4181140Y9032380D02*
Y9152860D01*
X5332532Y8340927D02*
Y8610484D01*
X5396684Y8276776D02*
X5737080D01*
X5332532Y8340927D02*
X5396684Y8276776D01*
X5186160Y8756856D02*
Y8795785D01*
Y8756856D02*
X5332532Y8610484D01*
X5158780Y8823165D02*
X5186160Y8795785D01*
X5153780Y8823165D02*
X5158780D01*
X5914461Y8166022D02*
Y8249395D01*
Y8166022D02*
X6213482Y7867000D01*
X6484000D01*
X5887080Y8276776D02*
X5914461Y8249395D01*
X5887080Y8271776D02*
Y8414127D01*
X5872140Y8429067D02*
X5887080Y8414127D01*
X5867140Y8643300D02*
X5943096D01*
X5710175Y8795900D02*
X5933976Y9019700D01*
X6089060D01*
X5710175Y8662893D02*
Y8795900D01*
X5792865Y8643300D02*
X5867140D01*
Y8429067D02*
Y8593300D01*
Y8429067D02*
X5872140D01*
X5961505Y8624891D02*
X5997759D01*
X5943096Y8643300D02*
X5961505Y8624891D01*
X5997759D02*
X6027639Y8595011D01*
X5710175Y8662893D02*
X5740444Y8632624D01*
X5782189D01*
X5792865Y8643300D01*
X6298421Y9045537D02*
Y9115579D01*
Y9045537D02*
X6341958Y9002000D01*
X6446300D01*
X6089060Y9019700D02*
X6101440Y9032080D01*
X6101140Y9032380D02*
X6101440Y9032080D01*
X6261140Y9152860D02*
X6298421Y9115579D01*
X6101140Y9032380D02*
Y9152860D01*
X7252532Y8340927D02*
Y8610484D01*
X7316684Y8276776D02*
X7657080D01*
X7252532Y8340927D02*
X7316684Y8276776D01*
X7106160Y8756856D02*
Y8795785D01*
Y8756856D02*
X7252532Y8610484D01*
X7078780Y8823165D02*
X7106160Y8795785D01*
X7073780Y8823165D02*
X7078780D01*
X7834461Y8166022D02*
Y8249395D01*
Y8166022D02*
X8133482Y7867000D01*
X8404000D01*
X7807080Y8276776D02*
X7834461Y8249395D01*
X7807080Y8271776D02*
Y8414127D01*
X7792140Y8429067D02*
X7807080Y8414127D01*
X7787140Y8643300D02*
X7863096D01*
X7630175Y8795900D02*
X7853976Y9019700D01*
X8009060D01*
X7630175Y8662893D02*
Y8795900D01*
X7712865Y8643300D02*
X7787140D01*
Y8429067D02*
Y8593300D01*
Y8429067D02*
X7792140D01*
X7881505Y8624891D02*
X7917759D01*
X7863096Y8643300D02*
X7881505Y8624891D01*
X7917759D02*
X7947639Y8595011D01*
X7630175Y8662893D02*
X7660444Y8632624D01*
X7702189D01*
X7712865Y8643300D01*
X8218421Y9045537D02*
Y9115579D01*
Y9045537D02*
X8261958Y9002000D01*
X8366300D01*
X8009060Y9019700D02*
X8021440Y9032080D01*
X8021140Y9032380D02*
X8021440Y9032080D01*
X8181140Y9152860D02*
X8218421Y9115579D01*
X8021140Y9032380D02*
Y9152860D01*
D29*
X1570420Y1757771D02*
Y1806660D01*
Y1757771D02*
X1574891Y1753300D01*
X1632979D01*
X1637450Y1757771D02*
Y1808455D01*
X1632979Y1753300D02*
X1637450Y1757771D01*
X1926464Y1653300D02*
X2130500D01*
X2261440Y1902080D02*
X2322209D01*
X2347208Y1987000D02*
X2408248D01*
X3490420Y1757771D02*
Y1806660D01*
Y1757771D02*
X3494891Y1753300D01*
X3552979D01*
X3557450Y1757771D02*
Y1808455D01*
X3552979Y1753300D02*
X3557450Y1757771D01*
X3846464Y1653300D02*
X4050500D01*
X4181440Y1902080D02*
X4242209D01*
X4267208Y1987000D02*
X4328248D01*
X5410420Y1757771D02*
Y1806660D01*
Y1757771D02*
X5414891Y1753300D01*
X5472979D01*
X5477450Y1757771D02*
Y1808455D01*
X5472979Y1753300D02*
X5477450Y1757771D01*
X5766464Y1653300D02*
X5970500D01*
X6101440Y1902080D02*
X6162209D01*
X6187208Y1987000D02*
X6248248D01*
X7330420Y1757771D02*
Y1806660D01*
Y1757771D02*
X7334891Y1753300D01*
X7392979D01*
X7397450Y1757771D02*
Y1808455D01*
X7392979Y1753300D02*
X7397450Y1757771D01*
X7686464Y1653300D02*
X7890500D01*
X8021440Y1902080D02*
X8082209D01*
X8107208Y1987000D02*
X8168248D01*
X1570420Y3517771D02*
Y3566660D01*
Y3517771D02*
X1574891Y3513300D01*
X1632979D01*
X1637450Y3517771D02*
Y3568455D01*
X1632979Y3513300D02*
X1637450Y3517771D01*
X1926464Y3413300D02*
X2130500D01*
X2261440Y3662080D02*
X2322209D01*
X2347208Y3747000D02*
X2408248D01*
X3490420Y3517771D02*
Y3566660D01*
Y3517771D02*
X3494891Y3513300D01*
X3552979D01*
X3557450Y3517771D02*
Y3568455D01*
X3552979Y3513300D02*
X3557450Y3517771D01*
X3846464Y3413300D02*
X4050500D01*
X4181440Y3662080D02*
X4242209D01*
X4267208Y3747000D02*
X4328248D01*
X5410420Y3517771D02*
Y3566660D01*
Y3517771D02*
X5414891Y3513300D01*
X5472979D01*
X5477450Y3517771D02*
Y3568455D01*
X5472979Y3513300D02*
X5477450Y3517771D01*
X5766464Y3413300D02*
X5970500D01*
X6101440Y3662080D02*
X6162209D01*
X6187208Y3747000D02*
X6248248D01*
X7330420Y3517771D02*
Y3566660D01*
Y3517771D02*
X7334891Y3513300D01*
X7392979D01*
X7397450Y3517771D02*
Y3568455D01*
X7392979Y3513300D02*
X7397450Y3517771D01*
X7686464Y3413300D02*
X7890500D01*
X8021440Y3662080D02*
X8082209D01*
X8107208Y3747000D02*
X8168248D01*
X1570420Y5277772D02*
Y5326660D01*
Y5277772D02*
X1574891Y5273300D01*
X1632979D01*
X1637450Y5277772D02*
Y5328455D01*
X1632979Y5273300D02*
X1637450Y5277772D01*
X1926464Y5173300D02*
X2130500D01*
X2261440Y5422080D02*
X2322209D01*
X2347208Y5507000D02*
X2408248D01*
X3490420Y5277772D02*
Y5326660D01*
Y5277772D02*
X3494891Y5273300D01*
X3552979D01*
X3557450Y5277772D02*
Y5328455D01*
X3552979Y5273300D02*
X3557450Y5277772D01*
X3846464Y5173300D02*
X4050500D01*
X4181440Y5422080D02*
X4242209D01*
X4267208Y5507000D02*
X4328248D01*
X5410420Y5277772D02*
Y5326660D01*
Y5277772D02*
X5414891Y5273300D01*
X5472979D01*
X5477450Y5277772D02*
Y5328455D01*
X5472979Y5273300D02*
X5477450Y5277772D01*
X5766464Y5173300D02*
X5970500D01*
X6101440Y5422080D02*
X6162209D01*
X6187208Y5507000D02*
X6248248D01*
X7330420Y5277772D02*
Y5326660D01*
Y5277772D02*
X7334891Y5273300D01*
X7392979D01*
X7397450Y5277772D02*
Y5328455D01*
X7392979Y5273300D02*
X7397450Y5277772D01*
X7686464Y5173300D02*
X7890500D01*
X8021440Y5422080D02*
X8082209D01*
X8107208Y5507000D02*
X8168248D01*
X1570420Y7037772D02*
Y7086660D01*
Y7037772D02*
X1574891Y7033300D01*
X1632979D01*
X1637450Y7037772D02*
Y7088455D01*
X1632979Y7033300D02*
X1637450Y7037772D01*
X1926464Y6933300D02*
X2130500D01*
X2261440Y7182080D02*
X2322209D01*
X2347208Y7267000D02*
X2408248D01*
X3490420Y7037772D02*
Y7086660D01*
Y7037772D02*
X3494891Y7033300D01*
X3552979D01*
X3557450Y7037772D02*
Y7088455D01*
X3552979Y7033300D02*
X3557450Y7037772D01*
X3846464Y6933300D02*
X4050500D01*
X4181440Y7182080D02*
X4242209D01*
X4267208Y7267000D02*
X4328248D01*
X5410420Y7037772D02*
Y7086660D01*
Y7037772D02*
X5414891Y7033300D01*
X5472979D01*
X5477450Y7037772D02*
Y7088455D01*
X5472979Y7033300D02*
X5477450Y7037772D01*
X5766464Y6933300D02*
X5970500D01*
X6101440Y7182080D02*
X6162209D01*
X6187208Y7267000D02*
X6248248D01*
X7330420Y7037772D02*
Y7086660D01*
Y7037772D02*
X7334891Y7033300D01*
X7392979D01*
X7397450Y7037772D02*
Y7088455D01*
X7392979Y7033300D02*
X7397450Y7037772D01*
X7686464Y6933300D02*
X7890500D01*
X8021440Y7182080D02*
X8082209D01*
X8107208Y7267000D02*
X8168248D01*
X1570420Y8797772D02*
Y8846660D01*
Y8797772D02*
X1574891Y8793300D01*
X1632979D01*
X1637450Y8797772D02*
Y8848455D01*
X1632979Y8793300D02*
X1637450Y8797772D01*
X1926464Y8693300D02*
X2130500D01*
X2261440Y8942080D02*
X2322209D01*
X2347208Y9027000D02*
X2408248D01*
X3490420Y8797772D02*
Y8846660D01*
Y8797772D02*
X3494891Y8793300D01*
X3552979D01*
X3557450Y8797772D02*
Y8848455D01*
X3552979Y8793300D02*
X3557450Y8797772D01*
X3846464Y8693300D02*
X4050500D01*
X4181440Y8942080D02*
X4242209D01*
X4267208Y9027000D02*
X4328248D01*
X5410420Y8797772D02*
Y8846660D01*
Y8797772D02*
X5414891Y8793300D01*
X5472979D01*
X5477450Y8797772D02*
Y8848455D01*
X5472979Y8793300D02*
X5477450Y8797772D01*
X5766464Y8693300D02*
X5970500D01*
X6101440Y8942080D02*
X6162209D01*
X6187208Y9027000D02*
X6248248D01*
X7330420Y8797772D02*
Y8846660D01*
Y8797772D02*
X7334891Y8793300D01*
X7392979D01*
X7397450Y8797772D02*
Y8848455D01*
X7392979Y8793300D02*
X7397450Y8797772D01*
X7686464Y8693300D02*
X7890500D01*
X8021440Y8942080D02*
X8082209D01*
X8107208Y9027000D02*
X8168248D01*
D30*
X1808945Y1374127D02*
X1892081D01*
X2187639Y1316876D02*
Y1400011D01*
X3728945Y1374127D02*
X3812081D01*
X4107639Y1316876D02*
Y1400011D01*
X5648945Y1374127D02*
X5732080D01*
X6027639Y1316876D02*
Y1400011D01*
X7568945Y1374127D02*
X7652080D01*
X7947639Y1316876D02*
Y1400011D01*
X1808945Y3134127D02*
X1892081D01*
X2187639Y3076876D02*
Y3160011D01*
X3728945Y3134127D02*
X3812081D01*
X4107639Y3076876D02*
Y3160011D01*
X5648945Y3134127D02*
X5732080D01*
X6027639Y3076876D02*
Y3160011D01*
X7568945Y3134127D02*
X7652080D01*
X7947639Y3076876D02*
Y3160011D01*
X1808945Y4894127D02*
X1892081D01*
X2187639Y4836876D02*
Y4920011D01*
X3728945Y4894127D02*
X3812081D01*
X4107639Y4836876D02*
Y4920011D01*
X5648945Y4894127D02*
X5732080D01*
X6027639Y4836876D02*
Y4920011D01*
X7568945Y4894127D02*
X7652080D01*
X7947639Y4836876D02*
Y4920011D01*
X1808945Y6654127D02*
X1892081D01*
X2187639Y6596876D02*
Y6680011D01*
X3728945Y6654127D02*
X3812081D01*
X4107639Y6596876D02*
Y6680011D01*
X5648945Y6654127D02*
X5732080D01*
X6027639Y6596876D02*
Y6680011D01*
X7568945Y6654127D02*
X7652080D01*
X7947639Y6596876D02*
Y6680011D01*
X1808945Y8414127D02*
X1892081D01*
X2187639Y8356876D02*
Y8440011D01*
X3728945Y8414127D02*
X3812081D01*
X4107639Y8356876D02*
Y8440011D01*
X5648945Y8414127D02*
X5732080D01*
X6027639Y8356876D02*
Y8440011D01*
X7568945Y8414127D02*
X7652080D01*
X7947639Y8356876D02*
Y8440011D01*
D31*
X2446843Y1702000D02*
X2727708D01*
X4366843D02*
X4647708D01*
X6286843D02*
X6567708D01*
X8206843D02*
X8487708D01*
X2446843Y3462000D02*
X2727708D01*
X4366843D02*
X4647708D01*
X6286843D02*
X6567708D01*
X8206843D02*
X8487708D01*
X2446843Y5222000D02*
X2727708D01*
X4366843D02*
X4647708D01*
X6286843D02*
X6567708D01*
X8206843D02*
X8487708D01*
X2446843Y6982000D02*
X2727708D01*
X4366843D02*
X4647708D01*
X6286843D02*
X6567708D01*
X8206843D02*
X8487708D01*
X2446843Y8742000D02*
X2727708D01*
X4366843D02*
X4647708D01*
X6286843D02*
X6567708D01*
X8206843D02*
X8487708D01*
D32*
X2390468Y1702000D02*
X2446843D01*
X2386658Y1705810D02*
X2390468Y1702000D01*
X4310468D02*
X4366843D01*
X4306658Y1705810D02*
X4310468Y1702000D01*
X6230468D02*
X6286843D01*
X6226658Y1705810D02*
X6230468Y1702000D01*
X8150468D02*
X8206843D01*
X8146658Y1705810D02*
X8150468Y1702000D01*
X2390468Y3462000D02*
X2446843D01*
X2386658Y3465810D02*
X2390468Y3462000D01*
X4310468D02*
X4366843D01*
X4306658Y3465810D02*
X4310468Y3462000D01*
X6230468D02*
X6286843D01*
X6226658Y3465810D02*
X6230468Y3462000D01*
X8150468D02*
X8206843D01*
X8146658Y3465810D02*
X8150468Y3462000D01*
X2390468Y5222000D02*
X2446843D01*
X2386658Y5225810D02*
X2390468Y5222000D01*
X4310468D02*
X4366843D01*
X4306658Y5225810D02*
X4310468Y5222000D01*
X6230468D02*
X6286843D01*
X6226658Y5225810D02*
X6230468Y5222000D01*
X8150468D02*
X8206843D01*
X8146658Y5225810D02*
X8150468Y5222000D01*
X2390468Y6982000D02*
X2446843D01*
X2386658Y6985810D02*
X2390468Y6982000D01*
X4310468D02*
X4366843D01*
X4306658Y6985810D02*
X4310468Y6982000D01*
X6230468D02*
X6286843D01*
X6226658Y6985810D02*
X6230468Y6982000D01*
X8150468D02*
X8206843D01*
X8146658Y6985810D02*
X8150468Y6982000D01*
X2390468Y8742000D02*
X2446843D01*
X2386658Y8745810D02*
X2390468Y8742000D01*
X4310468D02*
X4366843D01*
X4306658Y8745810D02*
X4310468Y8742000D01*
X6230468D02*
X6286843D01*
X6226658Y8745810D02*
X6230468Y8742000D01*
X8150468D02*
X8206843D01*
X8146658Y8745810D02*
X8150468Y8742000D01*
%TF.MD5,5fefdabf578aa682c05f3dd6c0b5f685*%
M02*
