%TF.GenerationSoftware,Altium Limited,Altium Designer,20.1.8 (145)*%
G04 Layer_Color=16711935*
%FSLAX45Y45*%
%MOMM*%
%TF.SameCoordinates,0AB19B83-9B04-4470-A1CB-4E81E99A1085*%
%TF.FilePolarity,Negative*%
%TF.FileFunction,Soldermask,Bot*%
%TF.Part,CustomerPanel*%
G01*
G75*
%TA.AperFunction,WasherPad*%
%ADD11C,0.60000*%
%TA.AperFunction,SMDPad,CuDef*%
%ADD37C,1.20320*%
%ADD38O,1.35000X0.40000*%
G04:AMPARAMS|DCode=39|XSize=1.7mm|YSize=1.7mm|CornerRadius=0.058mm|HoleSize=0mm|Usage=FLASHONLY|Rotation=270.000|XOffset=0mm|YOffset=0mm|HoleType=Round|Shape=RoundedRectangle|*
%AMROUNDEDRECTD39*
21,1,1.70000,1.58400,0,0,270.0*
21,1,1.58400,1.70000,0,0,270.0*
1,1,0.11600,-0.79200,-0.79200*
1,1,0.11600,-0.79200,0.79200*
1,1,0.11600,0.79200,0.79200*
1,1,0.11600,0.79200,-0.79200*
%
%ADD39ROUNDEDRECTD39*%
%TA.AperFunction,ConnectorPad*%
G04:AMPARAMS|DCode=40|XSize=0.45mm|YSize=2.1mm|CornerRadius=0.225mm|HoleSize=0mm|Usage=FLASHONLY|Rotation=270.000|XOffset=0mm|YOffset=0mm|HoleType=Round|Shape=RoundedRectangle|*
%AMROUNDEDRECTD40*
21,1,0.45000,1.65000,0,0,270.0*
21,1,0.00000,2.10000,0,0,270.0*
1,1,0.45000,-0.82500,0.00000*
1,1,0.45000,-0.82500,0.00000*
1,1,0.45000,0.82500,0.00000*
1,1,0.45000,0.82500,0.00000*
%
%ADD40ROUNDEDRECTD40*%
%TA.AperFunction,SMDPad,CuDef*%
G04:AMPARAMS|DCode=41|XSize=0.9mm|YSize=0.8mm|CornerRadius=0.0535mm|HoleSize=0mm|Usage=FLASHONLY|Rotation=0.000|XOffset=0mm|YOffset=0mm|HoleType=Round|Shape=RoundedRectangle|*
%AMROUNDEDRECTD41*
21,1,0.90000,0.69300,0,0,0.0*
21,1,0.79300,0.80000,0,0,0.0*
1,1,0.10700,0.39650,-0.34650*
1,1,0.10700,-0.39650,-0.34650*
1,1,0.10700,-0.39650,0.34650*
1,1,0.10700,0.39650,0.34650*
%
%ADD41ROUNDEDRECTD41*%
G04:AMPARAMS|DCode=42|XSize=0.95mm|YSize=0.85mm|CornerRadius=0.05375mm|HoleSize=0mm|Usage=FLASHONLY|Rotation=270.000|XOffset=0mm|YOffset=0mm|HoleType=Round|Shape=RoundedRectangle|*
%AMROUNDEDRECTD42*
21,1,0.95000,0.74250,0,0,270.0*
21,1,0.84250,0.85000,0,0,270.0*
1,1,0.10750,-0.37125,-0.42125*
1,1,0.10750,-0.37125,0.42125*
1,1,0.10750,0.37125,0.42125*
1,1,0.10750,0.37125,-0.42125*
%
%ADD42ROUNDEDRECTD42*%
G04:AMPARAMS|DCode=43|XSize=0.95mm|YSize=0.85mm|CornerRadius=0.05375mm|HoleSize=0mm|Usage=FLASHONLY|Rotation=0.000|XOffset=0mm|YOffset=0mm|HoleType=Round|Shape=RoundedRectangle|*
%AMROUNDEDRECTD43*
21,1,0.95000,0.74250,0,0,0.0*
21,1,0.84250,0.85000,0,0,0.0*
1,1,0.10750,0.42125,-0.37125*
1,1,0.10750,-0.42125,-0.37125*
1,1,0.10750,-0.42125,0.37125*
1,1,0.10750,0.42125,0.37125*
%
%ADD43ROUNDEDRECTD43*%
G04:AMPARAMS|DCode=44|XSize=0.9mm|YSize=0.8mm|CornerRadius=0.0535mm|HoleSize=0mm|Usage=FLASHONLY|Rotation=90.000|XOffset=0mm|YOffset=0mm|HoleType=Round|Shape=RoundedRectangle|*
%AMROUNDEDRECTD44*
21,1,0.90000,0.69300,0,0,90.0*
21,1,0.79300,0.80000,0,0,90.0*
1,1,0.10700,0.34650,0.39650*
1,1,0.10700,0.34650,-0.39650*
1,1,0.10700,-0.34650,-0.39650*
1,1,0.10700,-0.34650,0.39650*
%
%ADD44ROUNDEDRECTD44*%
G04:AMPARAMS|DCode=45|XSize=0.5mm|YSize=0.5mm|CornerRadius=0.052mm|HoleSize=0mm|Usage=FLASHONLY|Rotation=180.000|XOffset=0mm|YOffset=0mm|HoleType=Round|Shape=RoundedRectangle|*
%AMROUNDEDRECTD45*
21,1,0.50000,0.39600,0,0,180.0*
21,1,0.39600,0.50000,0,0,180.0*
1,1,0.10400,-0.19800,0.19800*
1,1,0.10400,0.19800,0.19800*
1,1,0.10400,0.19800,-0.19800*
1,1,0.10400,-0.19800,-0.19800*
%
%ADD45ROUNDEDRECTD45*%
G04:AMPARAMS|DCode=46|XSize=1mm|YSize=1mm|CornerRadius=0.095mm|HoleSize=0mm|Usage=FLASHONLY|Rotation=180.000|XOffset=0mm|YOffset=0mm|HoleType=Round|Shape=RoundedRectangle|*
%AMROUNDEDRECTD46*
21,1,1.00000,0.81000,0,0,180.0*
21,1,0.81000,1.00000,0,0,180.0*
1,1,0.19000,-0.40500,0.40500*
1,1,0.19000,0.40500,0.40500*
1,1,0.19000,0.40500,-0.40500*
1,1,0.19000,-0.40500,-0.40500*
%
%ADD46ROUNDEDRECTD46*%
%TA.AperFunction,WasherPad*%
%ADD47C,0.29600*%
%TA.AperFunction,ComponentPad*%
%ADD48C,0.50000*%
%ADD49O,1.90000X1.60000*%
G04:AMPARAMS|DCode=50|XSize=1.2mm|YSize=1.2mm|CornerRadius=0.6mm|HoleSize=0mm|Usage=FLASHONLY|Rotation=90.000|XOffset=0mm|YOffset=0mm|HoleType=Round|Shape=RoundedRectangle|*
%AMROUNDEDRECTD50*
21,1,1.20000,0.00000,0,0,90.0*
21,1,0.00000,1.20000,0,0,90.0*
1,1,1.20000,0.00000,0.00000*
1,1,1.20000,0.00000,0.00000*
1,1,1.20000,0.00000,0.00000*
1,1,1.20000,0.00000,0.00000*
%
%ADD50ROUNDEDRECTD50*%
%ADD51O,1.80000X1.10000*%
%ADD52O,2.10000X3.35000*%
G04:AMPARAMS|DCode=53|XSize=2.1mm|YSize=3.35mm|CornerRadius=1.05mm|HoleSize=0mm|Usage=FLASHONLY|Rotation=180.000|XOffset=0mm|YOffset=0mm|HoleType=Round|Shape=RoundedRectangle|*
%AMROUNDEDRECTD53*
21,1,2.10000,1.25000,0,0,180.0*
21,1,0.00000,3.35000,0,0,180.0*
1,1,2.10000,0.00000,0.62500*
1,1,2.10000,0.00000,0.62500*
1,1,2.10000,0.00000,-0.62500*
1,1,2.10000,0.00000,-0.62500*
%
%ADD53ROUNDEDRECTD53*%
D11*
X8000000Y2300000D02*
D03*
X8080000D02*
D03*
X8160000D02*
D03*
X8240000D02*
D03*
X6960000Y980000D02*
D03*
Y1060000D02*
D03*
Y1140000D02*
D03*
Y1220000D02*
D03*
Y1300000D02*
D03*
X8720000Y1060000D02*
D03*
Y1300000D02*
D03*
Y1140000D02*
D03*
Y1220000D02*
D03*
Y980000D02*
D03*
X8240000Y700000D02*
D03*
X8160000D02*
D03*
X8080000D02*
D03*
X8000000D02*
D03*
X6080000D02*
D03*
X6160000D02*
D03*
X6240000D02*
D03*
X6320000D02*
D03*
X6800000Y980000D02*
D03*
Y1220000D02*
D03*
Y1140000D02*
D03*
Y1300000D02*
D03*
Y1060000D02*
D03*
X5040000Y1300000D02*
D03*
Y1220000D02*
D03*
Y1140000D02*
D03*
Y1060000D02*
D03*
Y980000D02*
D03*
X6320000Y2300000D02*
D03*
X6240000D02*
D03*
X6160000D02*
D03*
X6080000D02*
D03*
X4160000D02*
D03*
X4240000D02*
D03*
X4320000D02*
D03*
X4400000D02*
D03*
X3120000Y980000D02*
D03*
Y1060000D02*
D03*
Y1140000D02*
D03*
Y1220000D02*
D03*
Y1300000D02*
D03*
X4880000Y1060000D02*
D03*
Y1300000D02*
D03*
Y1140000D02*
D03*
Y1220000D02*
D03*
Y980000D02*
D03*
X4400000Y700000D02*
D03*
X4320000D02*
D03*
X4240000D02*
D03*
X4160000D02*
D03*
X2240000D02*
D03*
X2320000D02*
D03*
X2400000D02*
D03*
X2480000D02*
D03*
X2960000Y980000D02*
D03*
Y1220000D02*
D03*
Y1140000D02*
D03*
Y1300000D02*
D03*
Y1060000D02*
D03*
X1200000Y1300000D02*
D03*
Y1220000D02*
D03*
Y1140000D02*
D03*
Y1060000D02*
D03*
Y980000D02*
D03*
X2480000Y2300000D02*
D03*
X2400000D02*
D03*
X2320000D02*
D03*
X2240000D02*
D03*
X8000000Y5820000D02*
D03*
X8080000D02*
D03*
X8160000D02*
D03*
X8240000D02*
D03*
X6960000Y4500000D02*
D03*
Y4580000D02*
D03*
Y4660000D02*
D03*
Y4740000D02*
D03*
Y4820000D02*
D03*
X8720000Y4580000D02*
D03*
Y4820000D02*
D03*
Y4660000D02*
D03*
Y4740000D02*
D03*
Y4500000D02*
D03*
X8240000Y4220000D02*
D03*
X8160000D02*
D03*
X8080000D02*
D03*
X8000000D02*
D03*
Y2460000D02*
D03*
X8080000D02*
D03*
X8160000D02*
D03*
X8240000D02*
D03*
X8720000Y2740000D02*
D03*
Y2980000D02*
D03*
Y2900000D02*
D03*
Y3060000D02*
D03*
Y2820000D02*
D03*
X6960000Y3060000D02*
D03*
Y2980000D02*
D03*
Y2900000D02*
D03*
Y2820000D02*
D03*
Y2740000D02*
D03*
X8240000Y4060000D02*
D03*
X8160000D02*
D03*
X8080000D02*
D03*
X8000000D02*
D03*
X6080000Y4220000D02*
D03*
X6160000D02*
D03*
X6240000D02*
D03*
X6320000D02*
D03*
X6800000Y4500000D02*
D03*
Y4740000D02*
D03*
Y4660000D02*
D03*
Y4820000D02*
D03*
Y4580000D02*
D03*
X5040000Y4820000D02*
D03*
Y4740000D02*
D03*
Y4660000D02*
D03*
Y4580000D02*
D03*
Y4500000D02*
D03*
X6320000Y5820000D02*
D03*
X6240000D02*
D03*
X6160000D02*
D03*
X6080000D02*
D03*
Y2460000D02*
D03*
X6160000D02*
D03*
X6240000D02*
D03*
X6320000D02*
D03*
X6800000Y2740000D02*
D03*
Y2980000D02*
D03*
Y2900000D02*
D03*
Y3060000D02*
D03*
Y2820000D02*
D03*
X5040000Y3060000D02*
D03*
Y2980000D02*
D03*
Y2900000D02*
D03*
Y2820000D02*
D03*
Y2740000D02*
D03*
X6320000Y4060000D02*
D03*
X6240000D02*
D03*
X6160000D02*
D03*
X6080000D02*
D03*
X4160000Y5820000D02*
D03*
X4240000D02*
D03*
X4320000D02*
D03*
X4400000D02*
D03*
X3120000Y4500000D02*
D03*
Y4580000D02*
D03*
Y4660000D02*
D03*
Y4740000D02*
D03*
Y4820000D02*
D03*
X4880000Y4580000D02*
D03*
Y4820000D02*
D03*
Y4660000D02*
D03*
Y4740000D02*
D03*
Y4500000D02*
D03*
X4400000Y4220000D02*
D03*
X4320000D02*
D03*
X4240000D02*
D03*
X4160000D02*
D03*
Y2460000D02*
D03*
X4240000D02*
D03*
X4320000D02*
D03*
X4400000D02*
D03*
X4880000Y2740000D02*
D03*
Y2980000D02*
D03*
Y2900000D02*
D03*
Y3060000D02*
D03*
Y2820000D02*
D03*
X3120000Y3060000D02*
D03*
Y2980000D02*
D03*
Y2900000D02*
D03*
Y2820000D02*
D03*
Y2740000D02*
D03*
X4400000Y4060000D02*
D03*
X4320000D02*
D03*
X4240000D02*
D03*
X4160000D02*
D03*
X2240000Y4220000D02*
D03*
X2320000D02*
D03*
X2400000D02*
D03*
X2480000D02*
D03*
X2960000Y4500000D02*
D03*
Y4740000D02*
D03*
Y4660000D02*
D03*
Y4820000D02*
D03*
Y4580000D02*
D03*
X1200000Y4820000D02*
D03*
Y4740000D02*
D03*
Y4660000D02*
D03*
Y4580000D02*
D03*
Y4500000D02*
D03*
X2480000Y5820000D02*
D03*
X2400000D02*
D03*
X2320000D02*
D03*
X2240000D02*
D03*
Y2460000D02*
D03*
X2320000D02*
D03*
X2400000D02*
D03*
X2480000D02*
D03*
X2960000Y2740000D02*
D03*
Y2980000D02*
D03*
Y2900000D02*
D03*
Y3060000D02*
D03*
Y2820000D02*
D03*
X1200000Y3060000D02*
D03*
Y2980000D02*
D03*
Y2900000D02*
D03*
Y2820000D02*
D03*
Y2740000D02*
D03*
X2480000Y4060000D02*
D03*
X2400000D02*
D03*
X2320000D02*
D03*
X2240000D02*
D03*
X4160000Y9340000D02*
D03*
X4240000D02*
D03*
X4320000D02*
D03*
X4400000D02*
D03*
X3120000Y8020000D02*
D03*
Y8100000D02*
D03*
Y8180000D02*
D03*
Y8260000D02*
D03*
Y8340000D02*
D03*
X4880000Y8100000D02*
D03*
Y8340000D02*
D03*
Y8180000D02*
D03*
Y8260000D02*
D03*
Y8020000D02*
D03*
X4400000Y7740000D02*
D03*
X4320000D02*
D03*
X4240000D02*
D03*
X4160000D02*
D03*
Y5980000D02*
D03*
X4240000D02*
D03*
X4320000D02*
D03*
X4400000D02*
D03*
X4880000Y6260000D02*
D03*
Y6500000D02*
D03*
Y6420000D02*
D03*
Y6580000D02*
D03*
Y6340000D02*
D03*
X3120000Y6580000D02*
D03*
Y6500000D02*
D03*
Y6420000D02*
D03*
Y6340000D02*
D03*
Y6260000D02*
D03*
X4400000Y7580000D02*
D03*
X4320000D02*
D03*
X4240000D02*
D03*
X4160000D02*
D03*
X2240000Y7740000D02*
D03*
X2320000D02*
D03*
X2400000D02*
D03*
X2480000D02*
D03*
X2960000Y8020000D02*
D03*
Y8260000D02*
D03*
Y8180000D02*
D03*
Y8340000D02*
D03*
Y8100000D02*
D03*
X1200000Y8340000D02*
D03*
Y8260000D02*
D03*
Y8180000D02*
D03*
Y8100000D02*
D03*
Y8020000D02*
D03*
X2480000Y9340000D02*
D03*
X2400000D02*
D03*
X2320000D02*
D03*
X2240000D02*
D03*
Y5980000D02*
D03*
X2320000D02*
D03*
X2400000D02*
D03*
X2480000D02*
D03*
X2960000Y6260000D02*
D03*
Y6500000D02*
D03*
Y6420000D02*
D03*
Y6580000D02*
D03*
Y6340000D02*
D03*
X1200000Y6580000D02*
D03*
Y6500000D02*
D03*
Y6420000D02*
D03*
Y6340000D02*
D03*
Y6260000D02*
D03*
X2480000Y7580000D02*
D03*
X2400000D02*
D03*
X2320000D02*
D03*
X2240000D02*
D03*
X6080000D02*
D03*
X6160000D02*
D03*
X6240000D02*
D03*
X6320000D02*
D03*
X5040000Y6260000D02*
D03*
Y6340000D02*
D03*
Y6420000D02*
D03*
Y6500000D02*
D03*
Y6580000D02*
D03*
X6800000Y6340000D02*
D03*
Y6580000D02*
D03*
Y6420000D02*
D03*
Y6500000D02*
D03*
Y6260000D02*
D03*
X6320000Y5980000D02*
D03*
X6240000D02*
D03*
X6160000D02*
D03*
X6080000D02*
D03*
Y9340000D02*
D03*
X6160000D02*
D03*
X6240000D02*
D03*
X6320000D02*
D03*
X5040000Y8020000D02*
D03*
Y8100000D02*
D03*
Y8180000D02*
D03*
Y8260000D02*
D03*
Y8340000D02*
D03*
X6800000Y8100000D02*
D03*
Y8340000D02*
D03*
Y8180000D02*
D03*
Y8260000D02*
D03*
Y8020000D02*
D03*
X6320000Y7740000D02*
D03*
X6240000D02*
D03*
X6160000D02*
D03*
X6080000D02*
D03*
X8000000Y7580000D02*
D03*
X8080000D02*
D03*
X8160000D02*
D03*
X8240000D02*
D03*
X6960000Y6260000D02*
D03*
Y6340000D02*
D03*
Y6420000D02*
D03*
Y6500000D02*
D03*
Y6580000D02*
D03*
X8720000Y6340000D02*
D03*
Y6580000D02*
D03*
Y6420000D02*
D03*
Y6500000D02*
D03*
Y6260000D02*
D03*
X8240000Y5980000D02*
D03*
X8160000D02*
D03*
X8080000D02*
D03*
X8000000D02*
D03*
Y7740000D02*
D03*
X8080000D02*
D03*
X8160000D02*
D03*
X8240000D02*
D03*
X8720000Y8020000D02*
D03*
Y8260000D02*
D03*
Y8180000D02*
D03*
Y8340000D02*
D03*
Y8100000D02*
D03*
X6960000Y8340000D02*
D03*
Y8260000D02*
D03*
Y8180000D02*
D03*
Y8100000D02*
D03*
Y8020000D02*
D03*
X8240000Y9340000D02*
D03*
X8160000D02*
D03*
X8080000D02*
D03*
X8000000D02*
D03*
D37*
X9500000Y8500000D02*
D03*
X500000D02*
D03*
X9500000Y1500000D02*
D03*
X500000D02*
D03*
D38*
X2027140Y1753300D02*
D03*
Y1703300D02*
D03*
Y1653300D02*
D03*
Y1603300D02*
D03*
Y1553300D02*
D03*
X1602141Y1753300D02*
D03*
Y1703300D02*
D03*
Y1653300D02*
D03*
Y1603300D02*
D03*
Y1553300D02*
D03*
X3947140Y1753300D02*
D03*
Y1703300D02*
D03*
Y1653300D02*
D03*
Y1603300D02*
D03*
Y1553300D02*
D03*
X3522141Y1753300D02*
D03*
Y1703300D02*
D03*
Y1653300D02*
D03*
Y1603300D02*
D03*
Y1553300D02*
D03*
X5867140Y1753300D02*
D03*
Y1703300D02*
D03*
Y1653300D02*
D03*
Y1603300D02*
D03*
Y1553300D02*
D03*
X5442140Y1753300D02*
D03*
Y1703300D02*
D03*
Y1653300D02*
D03*
Y1603300D02*
D03*
Y1553300D02*
D03*
X7787140Y1753300D02*
D03*
Y1703300D02*
D03*
Y1653300D02*
D03*
Y1603300D02*
D03*
Y1553300D02*
D03*
X7362140Y1753300D02*
D03*
Y1703300D02*
D03*
Y1653300D02*
D03*
Y1603300D02*
D03*
Y1553300D02*
D03*
X2027140Y3513300D02*
D03*
Y3463300D02*
D03*
Y3413300D02*
D03*
Y3363300D02*
D03*
Y3313300D02*
D03*
X1602141Y3513300D02*
D03*
Y3463300D02*
D03*
Y3413300D02*
D03*
Y3363300D02*
D03*
Y3313300D02*
D03*
X3947140Y3513300D02*
D03*
Y3463300D02*
D03*
Y3413300D02*
D03*
Y3363300D02*
D03*
Y3313300D02*
D03*
X3522141Y3513300D02*
D03*
Y3463300D02*
D03*
Y3413300D02*
D03*
Y3363300D02*
D03*
Y3313300D02*
D03*
X5867140Y3513300D02*
D03*
Y3463300D02*
D03*
Y3413300D02*
D03*
Y3363300D02*
D03*
Y3313300D02*
D03*
X5442140Y3513300D02*
D03*
Y3463300D02*
D03*
Y3413300D02*
D03*
Y3363300D02*
D03*
Y3313300D02*
D03*
X7787140Y3513300D02*
D03*
Y3463300D02*
D03*
Y3413300D02*
D03*
Y3363300D02*
D03*
Y3313300D02*
D03*
X7362140Y3513300D02*
D03*
Y3463300D02*
D03*
Y3413300D02*
D03*
Y3363300D02*
D03*
Y3313300D02*
D03*
X2027140Y5273300D02*
D03*
Y5223300D02*
D03*
Y5173300D02*
D03*
Y5123300D02*
D03*
Y5073300D02*
D03*
X1602141Y5273300D02*
D03*
Y5223300D02*
D03*
Y5173300D02*
D03*
Y5123300D02*
D03*
Y5073300D02*
D03*
X3947140Y5273300D02*
D03*
Y5223300D02*
D03*
Y5173300D02*
D03*
Y5123300D02*
D03*
Y5073300D02*
D03*
X3522141Y5273300D02*
D03*
Y5223300D02*
D03*
Y5173300D02*
D03*
Y5123300D02*
D03*
Y5073300D02*
D03*
X5867140Y5273300D02*
D03*
Y5223300D02*
D03*
Y5173300D02*
D03*
Y5123300D02*
D03*
Y5073300D02*
D03*
X5442140Y5273300D02*
D03*
Y5223300D02*
D03*
Y5173300D02*
D03*
Y5123300D02*
D03*
Y5073300D02*
D03*
X7787140Y5273300D02*
D03*
Y5223300D02*
D03*
Y5173300D02*
D03*
Y5123300D02*
D03*
Y5073300D02*
D03*
X7362140Y5273300D02*
D03*
Y5223300D02*
D03*
Y5173300D02*
D03*
Y5123300D02*
D03*
Y5073300D02*
D03*
X2027140Y7033300D02*
D03*
Y6983300D02*
D03*
Y6933300D02*
D03*
Y6883300D02*
D03*
Y6833300D02*
D03*
X1602141Y7033300D02*
D03*
Y6983300D02*
D03*
Y6933300D02*
D03*
Y6883300D02*
D03*
Y6833300D02*
D03*
X3947140Y7033300D02*
D03*
Y6983300D02*
D03*
Y6933300D02*
D03*
Y6883300D02*
D03*
Y6833300D02*
D03*
X3522141Y7033300D02*
D03*
Y6983300D02*
D03*
Y6933300D02*
D03*
Y6883300D02*
D03*
Y6833300D02*
D03*
X5867140Y7033300D02*
D03*
Y6983300D02*
D03*
Y6933300D02*
D03*
Y6883300D02*
D03*
Y6833300D02*
D03*
X5442140Y7033300D02*
D03*
Y6983300D02*
D03*
Y6933300D02*
D03*
Y6883300D02*
D03*
Y6833300D02*
D03*
X7787140Y7033300D02*
D03*
Y6983300D02*
D03*
Y6933300D02*
D03*
Y6883300D02*
D03*
Y6833300D02*
D03*
X7362140Y7033300D02*
D03*
Y6983300D02*
D03*
Y6933300D02*
D03*
Y6883300D02*
D03*
Y6833300D02*
D03*
X2027140Y8793300D02*
D03*
Y8743300D02*
D03*
Y8693300D02*
D03*
Y8643300D02*
D03*
Y8593300D02*
D03*
X1602141Y8793300D02*
D03*
Y8743300D02*
D03*
Y8693300D02*
D03*
Y8643300D02*
D03*
Y8593300D02*
D03*
X3947140Y8793300D02*
D03*
Y8743300D02*
D03*
Y8693300D02*
D03*
Y8643300D02*
D03*
Y8593300D02*
D03*
X3522141Y8793300D02*
D03*
Y8743300D02*
D03*
Y8693300D02*
D03*
Y8643300D02*
D03*
Y8593300D02*
D03*
X5867140Y8793300D02*
D03*
Y8743300D02*
D03*
Y8693300D02*
D03*
Y8643300D02*
D03*
Y8593300D02*
D03*
X5442140Y8793300D02*
D03*
Y8743300D02*
D03*
Y8693300D02*
D03*
Y8643300D02*
D03*
Y8593300D02*
D03*
X7787140Y8793300D02*
D03*
Y8743300D02*
D03*
Y8693300D02*
D03*
Y8643300D02*
D03*
Y8593300D02*
D03*
X7362140Y8793300D02*
D03*
Y8743300D02*
D03*
Y8693300D02*
D03*
Y8643300D02*
D03*
Y8593300D02*
D03*
D39*
X2593480Y1492000D02*
D03*
Y2172000D02*
D03*
X4513480Y1492000D02*
D03*
Y2172000D02*
D03*
X6433480Y1492000D02*
D03*
Y2172000D02*
D03*
X8353480Y1492000D02*
D03*
Y2172000D02*
D03*
X2593480Y3252000D02*
D03*
Y3932000D02*
D03*
X4513480Y3252000D02*
D03*
Y3932000D02*
D03*
X6433480Y3252000D02*
D03*
Y3932000D02*
D03*
X8353480Y3252000D02*
D03*
Y3932000D02*
D03*
X2593480Y5012000D02*
D03*
Y5692000D02*
D03*
X4513480Y5012000D02*
D03*
Y5692000D02*
D03*
X6433480Y5012000D02*
D03*
Y5692000D02*
D03*
X8353480Y5012000D02*
D03*
Y5692000D02*
D03*
X2593480Y6772000D02*
D03*
Y7452000D02*
D03*
X4513480Y6772000D02*
D03*
Y7452000D02*
D03*
X6433480Y6772000D02*
D03*
Y7452000D02*
D03*
X8353480Y6772000D02*
D03*
Y7452000D02*
D03*
X2593480Y8532000D02*
D03*
Y9212000D02*
D03*
X4513480Y8532000D02*
D03*
Y9212000D02*
D03*
X6433480Y8532000D02*
D03*
Y9212000D02*
D03*
X8353480Y8532000D02*
D03*
Y9212000D02*
D03*
D40*
X2585980Y1702000D02*
D03*
Y1767000D02*
D03*
Y1832000D02*
D03*
Y1962000D02*
D03*
Y1897000D02*
D03*
X4505980Y1702000D02*
D03*
Y1767000D02*
D03*
Y1832000D02*
D03*
Y1962000D02*
D03*
Y1897000D02*
D03*
X6425980Y1702000D02*
D03*
Y1767000D02*
D03*
Y1832000D02*
D03*
Y1962000D02*
D03*
Y1897000D02*
D03*
X8345980Y1702000D02*
D03*
Y1767000D02*
D03*
Y1832000D02*
D03*
Y1962000D02*
D03*
Y1897000D02*
D03*
X2585980Y3462000D02*
D03*
Y3527000D02*
D03*
Y3592000D02*
D03*
Y3722000D02*
D03*
Y3657000D02*
D03*
X4505980Y3462000D02*
D03*
Y3527000D02*
D03*
Y3592000D02*
D03*
Y3722000D02*
D03*
Y3657000D02*
D03*
X6425980Y3462000D02*
D03*
Y3527000D02*
D03*
Y3592000D02*
D03*
Y3722000D02*
D03*
Y3657000D02*
D03*
X8345980Y3462000D02*
D03*
Y3527000D02*
D03*
Y3592000D02*
D03*
Y3722000D02*
D03*
Y3657000D02*
D03*
X2585980Y5222000D02*
D03*
Y5287000D02*
D03*
Y5352000D02*
D03*
Y5482000D02*
D03*
Y5417000D02*
D03*
X4505980Y5222000D02*
D03*
Y5287000D02*
D03*
Y5352000D02*
D03*
Y5482000D02*
D03*
Y5417000D02*
D03*
X6425980Y5222000D02*
D03*
Y5287000D02*
D03*
Y5352000D02*
D03*
Y5482000D02*
D03*
Y5417000D02*
D03*
X8345980Y5222000D02*
D03*
Y5287000D02*
D03*
Y5352000D02*
D03*
Y5482000D02*
D03*
Y5417000D02*
D03*
X2585980Y6982000D02*
D03*
Y7047000D02*
D03*
Y7112000D02*
D03*
Y7242000D02*
D03*
Y7177000D02*
D03*
X4505980Y6982000D02*
D03*
Y7047000D02*
D03*
Y7112000D02*
D03*
Y7242000D02*
D03*
Y7177000D02*
D03*
X6425980Y6982000D02*
D03*
Y7047000D02*
D03*
Y7112000D02*
D03*
Y7242000D02*
D03*
Y7177000D02*
D03*
X8345980Y6982000D02*
D03*
Y7047000D02*
D03*
Y7112000D02*
D03*
Y7242000D02*
D03*
Y7177000D02*
D03*
X2585980Y8742000D02*
D03*
Y8807000D02*
D03*
Y8872000D02*
D03*
Y9002000D02*
D03*
Y8937000D02*
D03*
X4505980Y8742000D02*
D03*
Y8807000D02*
D03*
Y8872000D02*
D03*
Y9002000D02*
D03*
Y8937000D02*
D03*
X6425980Y8742000D02*
D03*
Y8807000D02*
D03*
Y8872000D02*
D03*
Y9002000D02*
D03*
Y8937000D02*
D03*
X8345980Y8742000D02*
D03*
Y8807000D02*
D03*
Y8872000D02*
D03*
Y9002000D02*
D03*
Y8937000D02*
D03*
D41*
X1313780Y1948165D02*
D03*
Y1783165D02*
D03*
X1602141Y1311776D02*
D03*
Y1161775D02*
D03*
X1597800Y2092125D02*
D03*
Y1942125D02*
D03*
X3233780Y1948165D02*
D03*
Y1783165D02*
D03*
X3522141Y1311776D02*
D03*
Y1161775D02*
D03*
X3517800Y2092125D02*
D03*
Y1942125D02*
D03*
X5153780Y1948165D02*
D03*
Y1783165D02*
D03*
X5442140Y1311776D02*
D03*
Y1161775D02*
D03*
X5437800Y2092125D02*
D03*
Y1942125D02*
D03*
X7073780Y1948165D02*
D03*
Y1783165D02*
D03*
X7362140Y1311776D02*
D03*
Y1161775D02*
D03*
X7357800Y2092125D02*
D03*
Y1942125D02*
D03*
X1313780Y3708165D02*
D03*
Y3543165D02*
D03*
X1602141Y3071776D02*
D03*
Y2921775D02*
D03*
X1597800Y3852125D02*
D03*
Y3702125D02*
D03*
X3233780Y3708165D02*
D03*
Y3543165D02*
D03*
X3522141Y3071776D02*
D03*
Y2921775D02*
D03*
X3517800Y3852125D02*
D03*
Y3702125D02*
D03*
X5153780Y3708165D02*
D03*
Y3543165D02*
D03*
X5442140Y3071776D02*
D03*
Y2921775D02*
D03*
X5437800Y3852125D02*
D03*
Y3702125D02*
D03*
X7073780Y3708165D02*
D03*
Y3543165D02*
D03*
X7362140Y3071776D02*
D03*
Y2921775D02*
D03*
X7357800Y3852125D02*
D03*
Y3702125D02*
D03*
X1313780Y5468165D02*
D03*
Y5303165D02*
D03*
X1602141Y4831776D02*
D03*
Y4681775D02*
D03*
X1597800Y5612125D02*
D03*
Y5462125D02*
D03*
X3233780Y5468165D02*
D03*
Y5303165D02*
D03*
X3522141Y4831776D02*
D03*
Y4681775D02*
D03*
X3517800Y5612125D02*
D03*
Y5462125D02*
D03*
X5153780Y5468165D02*
D03*
Y5303165D02*
D03*
X5442140Y4831776D02*
D03*
Y4681775D02*
D03*
X5437800Y5612125D02*
D03*
Y5462125D02*
D03*
X7073780Y5468165D02*
D03*
Y5303165D02*
D03*
X7362140Y4831776D02*
D03*
Y4681775D02*
D03*
X7357800Y5612125D02*
D03*
Y5462125D02*
D03*
X1313780Y7228165D02*
D03*
Y7063165D02*
D03*
X1602141Y6591776D02*
D03*
Y6441776D02*
D03*
X1597800Y7372125D02*
D03*
Y7222125D02*
D03*
X3233780Y7228165D02*
D03*
Y7063165D02*
D03*
X3522141Y6591776D02*
D03*
Y6441776D02*
D03*
X3517800Y7372125D02*
D03*
Y7222125D02*
D03*
X5153780Y7228165D02*
D03*
Y7063165D02*
D03*
X5442140Y6591776D02*
D03*
Y6441776D02*
D03*
X5437800Y7372125D02*
D03*
Y7222125D02*
D03*
X7073780Y7228165D02*
D03*
Y7063165D02*
D03*
X7362140Y6591776D02*
D03*
Y6441776D02*
D03*
X7357800Y7372125D02*
D03*
Y7222125D02*
D03*
X1313780Y8988165D02*
D03*
Y8823165D02*
D03*
X1602141Y8351776D02*
D03*
Y8201776D02*
D03*
X1597800Y9132125D02*
D03*
Y8982125D02*
D03*
X3233780Y8988165D02*
D03*
Y8823165D02*
D03*
X3522141Y8351776D02*
D03*
Y8201776D02*
D03*
X3517800Y9132125D02*
D03*
Y8982125D02*
D03*
X5153780Y8988165D02*
D03*
Y8823165D02*
D03*
X5442140Y8351776D02*
D03*
Y8201776D02*
D03*
X5437800Y9132125D02*
D03*
Y8982125D02*
D03*
X7073780Y8988165D02*
D03*
Y8823165D02*
D03*
X7362140Y8351776D02*
D03*
Y8201776D02*
D03*
X7357800Y9132125D02*
D03*
Y8982125D02*
D03*
D42*
X2047080Y1374127D02*
D03*
X1892081D02*
D03*
X3967080D02*
D03*
X3812081D02*
D03*
X5887080D02*
D03*
X5732080D02*
D03*
X7807080D02*
D03*
X7652080D02*
D03*
X2047080Y3134127D02*
D03*
X1892081D02*
D03*
X3967080D02*
D03*
X3812081D02*
D03*
X5887080D02*
D03*
X5732080D02*
D03*
X7807080D02*
D03*
X7652080D02*
D03*
X2047080Y4894127D02*
D03*
X1892081D02*
D03*
X3967080D02*
D03*
X3812081D02*
D03*
X5887080D02*
D03*
X5732080D02*
D03*
X7807080D02*
D03*
X7652080D02*
D03*
X2047080Y6654127D02*
D03*
X1892081D02*
D03*
X3967080D02*
D03*
X3812081D02*
D03*
X5887080D02*
D03*
X5732080D02*
D03*
X7807080D02*
D03*
X7652080D02*
D03*
X2047080Y8414127D02*
D03*
X1892081D02*
D03*
X3967080D02*
D03*
X3812081D02*
D03*
X5887080D02*
D03*
X5732080D02*
D03*
X7807080D02*
D03*
X7652080D02*
D03*
D43*
X2187639Y1400011D02*
D03*
Y1555011D02*
D03*
X4107639Y1400011D02*
D03*
Y1555011D02*
D03*
X6027639Y1400011D02*
D03*
Y1555011D02*
D03*
X7947639Y1400011D02*
D03*
Y1555011D02*
D03*
X2187639Y3160011D02*
D03*
Y3315011D02*
D03*
X4107639Y3160011D02*
D03*
Y3315011D02*
D03*
X6027639Y3160011D02*
D03*
Y3315011D02*
D03*
X7947639Y3160011D02*
D03*
Y3315011D02*
D03*
X2187639Y4920011D02*
D03*
Y5075011D02*
D03*
X4107639Y4920011D02*
D03*
Y5075011D02*
D03*
X6027639Y4920011D02*
D03*
Y5075011D02*
D03*
X7947639Y4920011D02*
D03*
Y5075011D02*
D03*
X2187639Y6680011D02*
D03*
Y6835011D02*
D03*
X4107639Y6680011D02*
D03*
Y6835011D02*
D03*
X6027639Y6680011D02*
D03*
Y6835011D02*
D03*
X7947639Y6680011D02*
D03*
Y6835011D02*
D03*
X2187639Y8440011D02*
D03*
Y8595011D02*
D03*
X4107639Y8440011D02*
D03*
Y8595011D02*
D03*
X6027639Y8440011D02*
D03*
Y8595011D02*
D03*
X7947639Y8440011D02*
D03*
Y8595011D02*
D03*
D44*
X1897460Y2067860D02*
D03*
X2047460D02*
D03*
X2463750Y1081000D02*
D03*
X2313750D02*
D03*
X1897080Y1236776D02*
D03*
X2047080D02*
D03*
X3817460Y2067860D02*
D03*
X3967460D02*
D03*
X4383750Y1081000D02*
D03*
X4233750D02*
D03*
X3817080Y1236776D02*
D03*
X3967080D02*
D03*
X5737460Y2067860D02*
D03*
X5887460D02*
D03*
X6303750Y1081000D02*
D03*
X6153750D02*
D03*
X5737080Y1236776D02*
D03*
X5887080D02*
D03*
X7657460Y2067860D02*
D03*
X7807460D02*
D03*
X8223750Y1081000D02*
D03*
X8073750D02*
D03*
X7657080Y1236776D02*
D03*
X7807080D02*
D03*
X1897460Y3827860D02*
D03*
X2047460D02*
D03*
X2463750Y2841000D02*
D03*
X2313750D02*
D03*
X1897080Y2996776D02*
D03*
X2047080D02*
D03*
X3817460Y3827860D02*
D03*
X3967460D02*
D03*
X4383750Y2841000D02*
D03*
X4233750D02*
D03*
X3817080Y2996776D02*
D03*
X3967080D02*
D03*
X5737460Y3827860D02*
D03*
X5887460D02*
D03*
X6303750Y2841000D02*
D03*
X6153750D02*
D03*
X5737080Y2996776D02*
D03*
X5887080D02*
D03*
X7657460Y3827860D02*
D03*
X7807460D02*
D03*
X8223750Y2841000D02*
D03*
X8073750D02*
D03*
X7657080Y2996776D02*
D03*
X7807080D02*
D03*
X1897460Y5587860D02*
D03*
X2047460D02*
D03*
X2463750Y4601000D02*
D03*
X2313750D02*
D03*
X1897080Y4756776D02*
D03*
X2047080D02*
D03*
X3817460Y5587860D02*
D03*
X3967460D02*
D03*
X4383750Y4601000D02*
D03*
X4233750D02*
D03*
X3817080Y4756776D02*
D03*
X3967080D02*
D03*
X5737460Y5587860D02*
D03*
X5887460D02*
D03*
X6303750Y4601000D02*
D03*
X6153750D02*
D03*
X5737080Y4756776D02*
D03*
X5887080D02*
D03*
X7657460Y5587860D02*
D03*
X7807460D02*
D03*
X8223750Y4601000D02*
D03*
X8073750D02*
D03*
X7657080Y4756776D02*
D03*
X7807080D02*
D03*
X1897460Y7347860D02*
D03*
X2047460D02*
D03*
X2463750Y6361000D02*
D03*
X2313750D02*
D03*
X1897080Y6516776D02*
D03*
X2047080D02*
D03*
X3817460Y7347860D02*
D03*
X3967460D02*
D03*
X4383750Y6361000D02*
D03*
X4233750D02*
D03*
X3817080Y6516776D02*
D03*
X3967080D02*
D03*
X5737460Y7347860D02*
D03*
X5887460D02*
D03*
X6303750Y6361000D02*
D03*
X6153750D02*
D03*
X5737080Y6516776D02*
D03*
X5887080D02*
D03*
X7657460Y7347860D02*
D03*
X7807460D02*
D03*
X8223750Y6361000D02*
D03*
X8073750D02*
D03*
X7657080Y6516776D02*
D03*
X7807080D02*
D03*
X1897460Y9107860D02*
D03*
X2047460D02*
D03*
X2463750Y8121000D02*
D03*
X2313750D02*
D03*
X1897080Y8276776D02*
D03*
X2047080D02*
D03*
X3817460Y9107860D02*
D03*
X3967460D02*
D03*
X4383750Y8121000D02*
D03*
X4233750D02*
D03*
X3817080Y8276776D02*
D03*
X3967080D02*
D03*
X5737460Y9107860D02*
D03*
X5887460D02*
D03*
X6303750Y8121000D02*
D03*
X6153750D02*
D03*
X5737080Y8276776D02*
D03*
X5887080D02*
D03*
X7657460Y9107860D02*
D03*
X7807460D02*
D03*
X8223750Y8121000D02*
D03*
X8073750D02*
D03*
X7657080Y8276776D02*
D03*
X7807080D02*
D03*
D45*
X2382848Y1799620D02*
D03*
Y1709620D02*
D03*
X2408248Y1987000D02*
D03*
Y1897000D02*
D03*
X2261440Y1992080D02*
D03*
Y1902080D02*
D03*
X4302848Y1799620D02*
D03*
Y1709620D02*
D03*
X4328248Y1987000D02*
D03*
Y1897000D02*
D03*
X4181440Y1992080D02*
D03*
Y1902080D02*
D03*
X6222848Y1799620D02*
D03*
Y1709620D02*
D03*
X6248248Y1987000D02*
D03*
Y1897000D02*
D03*
X6101440Y1992080D02*
D03*
Y1902080D02*
D03*
X8142848Y1799620D02*
D03*
Y1709620D02*
D03*
X8168248Y1987000D02*
D03*
Y1897000D02*
D03*
X8021440Y1992080D02*
D03*
Y1902080D02*
D03*
X2382848Y3559620D02*
D03*
Y3469620D02*
D03*
X2408248Y3747000D02*
D03*
Y3657000D02*
D03*
X2261440Y3752080D02*
D03*
Y3662080D02*
D03*
X4302848Y3559620D02*
D03*
Y3469620D02*
D03*
X4328248Y3747000D02*
D03*
Y3657000D02*
D03*
X4181440Y3752080D02*
D03*
Y3662080D02*
D03*
X6222848Y3559620D02*
D03*
Y3469620D02*
D03*
X6248248Y3747000D02*
D03*
Y3657000D02*
D03*
X6101440Y3752080D02*
D03*
Y3662080D02*
D03*
X8142848Y3559620D02*
D03*
Y3469620D02*
D03*
X8168248Y3747000D02*
D03*
Y3657000D02*
D03*
X8021440Y3752080D02*
D03*
Y3662080D02*
D03*
X2382848Y5319620D02*
D03*
Y5229620D02*
D03*
X2408248Y5507000D02*
D03*
Y5417000D02*
D03*
X2261440Y5512080D02*
D03*
Y5422080D02*
D03*
X4302848Y5319620D02*
D03*
Y5229620D02*
D03*
X4328248Y5507000D02*
D03*
Y5417000D02*
D03*
X4181440Y5512080D02*
D03*
Y5422080D02*
D03*
X6222848Y5319620D02*
D03*
Y5229620D02*
D03*
X6248248Y5507000D02*
D03*
Y5417000D02*
D03*
X6101440Y5512080D02*
D03*
Y5422080D02*
D03*
X8142848Y5319620D02*
D03*
Y5229620D02*
D03*
X8168248Y5507000D02*
D03*
Y5417000D02*
D03*
X8021440Y5512080D02*
D03*
Y5422080D02*
D03*
X2382848Y7079620D02*
D03*
Y6989620D02*
D03*
X2408248Y7267000D02*
D03*
Y7177000D02*
D03*
X2261440Y7272080D02*
D03*
Y7182080D02*
D03*
X4302848Y7079620D02*
D03*
Y6989620D02*
D03*
X4328248Y7267000D02*
D03*
Y7177000D02*
D03*
X4181440Y7272080D02*
D03*
Y7182080D02*
D03*
X6222848Y7079620D02*
D03*
Y6989620D02*
D03*
X6248248Y7267000D02*
D03*
Y7177000D02*
D03*
X6101440Y7272080D02*
D03*
Y7182080D02*
D03*
X8142848Y7079620D02*
D03*
Y6989620D02*
D03*
X8168248Y7267000D02*
D03*
Y7177000D02*
D03*
X8021440Y7272080D02*
D03*
Y7182080D02*
D03*
X2382848Y8839620D02*
D03*
Y8749620D02*
D03*
X2408248Y9027000D02*
D03*
Y8937000D02*
D03*
X2261440Y9032080D02*
D03*
Y8942080D02*
D03*
X4302848Y8839620D02*
D03*
Y8749620D02*
D03*
X4328248Y9027000D02*
D03*
Y8937000D02*
D03*
X4181440Y9032080D02*
D03*
Y8942080D02*
D03*
X6222848Y8839620D02*
D03*
Y8749620D02*
D03*
X6248248Y9027000D02*
D03*
Y8937000D02*
D03*
X6101440Y9032080D02*
D03*
Y8942080D02*
D03*
X8142848Y8839620D02*
D03*
Y8749620D02*
D03*
X8168248Y9027000D02*
D03*
Y8937000D02*
D03*
X8021440Y9032080D02*
D03*
Y8942080D02*
D03*
D46*
X2261140Y2112860D02*
D03*
X2421140D02*
D03*
X4181140D02*
D03*
X4341140D02*
D03*
X6101140D02*
D03*
X6261140D02*
D03*
X8021140D02*
D03*
X8181140D02*
D03*
X2261140Y3872860D02*
D03*
X2421140D02*
D03*
X4181140D02*
D03*
X4341140D02*
D03*
X6101140D02*
D03*
X6261140D02*
D03*
X8021140D02*
D03*
X8181140D02*
D03*
X2261140Y5632860D02*
D03*
X2421140D02*
D03*
X4181140D02*
D03*
X4341140D02*
D03*
X6101140D02*
D03*
X6261140D02*
D03*
X8021140D02*
D03*
X8181140D02*
D03*
X2261140Y7392860D02*
D03*
X2421140D02*
D03*
X4181140D02*
D03*
X4341140D02*
D03*
X6101140D02*
D03*
X6261140D02*
D03*
X8021140D02*
D03*
X8181140D02*
D03*
X2261140Y9152860D02*
D03*
X2421140D02*
D03*
X4181140D02*
D03*
X4341140D02*
D03*
X6101140D02*
D03*
X6261140D02*
D03*
X8021140D02*
D03*
X8181140D02*
D03*
D47*
X500000Y500000D02*
D03*
X9500000D02*
D03*
Y9500000D02*
D03*
X500000D02*
D03*
D48*
X2613480Y2032000D02*
D03*
Y1632000D02*
D03*
X4533480Y2032000D02*
D03*
Y1632000D02*
D03*
X6453480Y2032000D02*
D03*
Y1632000D02*
D03*
X8373480Y2032000D02*
D03*
Y1632000D02*
D03*
X2613480Y3792000D02*
D03*
Y3392000D02*
D03*
X4533480Y3792000D02*
D03*
Y3392000D02*
D03*
X6453480Y3792000D02*
D03*
Y3392000D02*
D03*
X8373480Y3792000D02*
D03*
Y3392000D02*
D03*
X2613480Y5552000D02*
D03*
Y5152000D02*
D03*
X4533480Y5552000D02*
D03*
Y5152000D02*
D03*
X6453480Y5552000D02*
D03*
Y5152000D02*
D03*
X8373480Y5552000D02*
D03*
Y5152000D02*
D03*
X2613480Y7312000D02*
D03*
Y6912000D02*
D03*
X4533480Y7312000D02*
D03*
Y6912000D02*
D03*
X6453480Y7312000D02*
D03*
Y6912000D02*
D03*
X8373480Y7312000D02*
D03*
Y6912000D02*
D03*
X2613480Y9072000D02*
D03*
Y8672000D02*
D03*
X4533480Y9072000D02*
D03*
Y8672000D02*
D03*
X6453480Y9072000D02*
D03*
Y8672000D02*
D03*
X8373480Y9072000D02*
D03*
Y8672000D02*
D03*
D49*
X2848480Y1549000D02*
D03*
Y2115000D02*
D03*
X4768480Y1549000D02*
D03*
Y2115000D02*
D03*
X6688480Y1549000D02*
D03*
Y2115000D02*
D03*
X8608480Y1549000D02*
D03*
Y2115000D02*
D03*
X2848480Y3309000D02*
D03*
Y3875000D02*
D03*
X4768480Y3309000D02*
D03*
Y3875000D02*
D03*
X6688480Y3309000D02*
D03*
Y3875000D02*
D03*
X8608480Y3309000D02*
D03*
Y3875000D02*
D03*
X2848480Y5069000D02*
D03*
Y5635000D02*
D03*
X4768480Y5069000D02*
D03*
Y5635000D02*
D03*
X6688480Y5069000D02*
D03*
Y5635000D02*
D03*
X8608480Y5069000D02*
D03*
Y5635000D02*
D03*
X2848480Y6829000D02*
D03*
Y7395000D02*
D03*
X4768480Y6829000D02*
D03*
Y7395000D02*
D03*
X6688480Y6829000D02*
D03*
Y7395000D02*
D03*
X8608480Y6829000D02*
D03*
Y7395000D02*
D03*
X2848480Y8589000D02*
D03*
Y9155000D02*
D03*
X4768480Y8589000D02*
D03*
Y9155000D02*
D03*
X6688480Y8589000D02*
D03*
Y9155000D02*
D03*
X8608480Y8589000D02*
D03*
Y9155000D02*
D03*
D50*
X2644000Y1081000D02*
D03*
Y1335000D02*
D03*
Y827000D02*
D03*
X4564000Y1081000D02*
D03*
Y1335000D02*
D03*
Y827000D02*
D03*
X6484000Y1081000D02*
D03*
Y1335000D02*
D03*
Y827000D02*
D03*
X8404000Y1081000D02*
D03*
Y1335000D02*
D03*
Y827000D02*
D03*
X2644000Y2841000D02*
D03*
Y3095000D02*
D03*
Y2587000D02*
D03*
X4564000Y2841000D02*
D03*
Y3095000D02*
D03*
Y2587000D02*
D03*
X6484000Y2841000D02*
D03*
Y3095000D02*
D03*
Y2587000D02*
D03*
X8404000Y2841000D02*
D03*
Y3095000D02*
D03*
Y2587000D02*
D03*
X2644000Y4601000D02*
D03*
Y4855000D02*
D03*
Y4347000D02*
D03*
X4564000Y4601000D02*
D03*
Y4855000D02*
D03*
Y4347000D02*
D03*
X6484000Y4601000D02*
D03*
Y4855000D02*
D03*
Y4347000D02*
D03*
X8404000Y4601000D02*
D03*
Y4855000D02*
D03*
Y4347000D02*
D03*
X2644000Y6361000D02*
D03*
Y6615000D02*
D03*
Y6107000D02*
D03*
X4564000Y6361000D02*
D03*
Y6615000D02*
D03*
Y6107000D02*
D03*
X6484000Y6361000D02*
D03*
Y6615000D02*
D03*
Y6107000D02*
D03*
X8404000Y6361000D02*
D03*
Y6615000D02*
D03*
Y6107000D02*
D03*
X2644000Y8121000D02*
D03*
Y8375000D02*
D03*
Y7867000D02*
D03*
X4564000Y8121000D02*
D03*
Y8375000D02*
D03*
Y7867000D02*
D03*
X6484000Y8121000D02*
D03*
Y8375000D02*
D03*
Y7867000D02*
D03*
X8404000Y8121000D02*
D03*
Y8375000D02*
D03*
Y7867000D02*
D03*
D51*
X1605420Y775500D02*
D03*
X2105420D02*
D03*
X1855420Y2225500D02*
D03*
X1605420D02*
D03*
X2105420D02*
D03*
X3525420Y775500D02*
D03*
X4025420D02*
D03*
X3775420Y2225500D02*
D03*
X3525420D02*
D03*
X4025420D02*
D03*
X5445420Y775500D02*
D03*
X5945420D02*
D03*
X5695420Y2225500D02*
D03*
X5445420D02*
D03*
X5945420D02*
D03*
X7365420Y775500D02*
D03*
X7865420D02*
D03*
X7615420Y2225500D02*
D03*
X7365420D02*
D03*
X7865420D02*
D03*
X1605420Y2535500D02*
D03*
X2105420D02*
D03*
X1855420Y3985500D02*
D03*
X1605420D02*
D03*
X2105420D02*
D03*
X3525420Y2535500D02*
D03*
X4025420D02*
D03*
X3775420Y3985500D02*
D03*
X3525420D02*
D03*
X4025420D02*
D03*
X5445420Y2535500D02*
D03*
X5945420D02*
D03*
X5695420Y3985500D02*
D03*
X5445420D02*
D03*
X5945420D02*
D03*
X7365420Y2535500D02*
D03*
X7865420D02*
D03*
X7615420Y3985500D02*
D03*
X7365420D02*
D03*
X7865420D02*
D03*
X1605420Y4295500D02*
D03*
X2105420D02*
D03*
X1855420Y5745500D02*
D03*
X1605420D02*
D03*
X2105420D02*
D03*
X3525420Y4295500D02*
D03*
X4025420D02*
D03*
X3775420Y5745500D02*
D03*
X3525420D02*
D03*
X4025420D02*
D03*
X5445420Y4295500D02*
D03*
X5945420D02*
D03*
X5695420Y5745500D02*
D03*
X5445420D02*
D03*
X5945420D02*
D03*
X7365420Y4295500D02*
D03*
X7865420D02*
D03*
X7615420Y5745500D02*
D03*
X7365420D02*
D03*
X7865420D02*
D03*
X1605420Y6055500D02*
D03*
X2105420D02*
D03*
X1855420Y7505500D02*
D03*
X1605420D02*
D03*
X2105420D02*
D03*
X3525420Y6055500D02*
D03*
X4025420D02*
D03*
X3775420Y7505500D02*
D03*
X3525420D02*
D03*
X4025420D02*
D03*
X5445420Y6055500D02*
D03*
X5945420D02*
D03*
X5695420Y7505500D02*
D03*
X5445420D02*
D03*
X5945420D02*
D03*
X7365420Y6055500D02*
D03*
X7865420D02*
D03*
X7615420Y7505500D02*
D03*
X7365420D02*
D03*
X7865420D02*
D03*
X1605420Y7815500D02*
D03*
X2105420D02*
D03*
X1855420Y9265500D02*
D03*
X1605420D02*
D03*
X2105420D02*
D03*
X3525420Y7815500D02*
D03*
X4025420D02*
D03*
X3775420Y9265500D02*
D03*
X3525420D02*
D03*
X4025420D02*
D03*
X5445420Y7815500D02*
D03*
X5945420D02*
D03*
X5695420Y9265500D02*
D03*
X5445420D02*
D03*
X5945420D02*
D03*
X7365420Y7815500D02*
D03*
X7865420D02*
D03*
X7615420Y9265500D02*
D03*
X7365420D02*
D03*
X7865420D02*
D03*
D52*
X1317920Y1500500D02*
D03*
X3237920D02*
D03*
X5157920D02*
D03*
X7077920D02*
D03*
X1317920Y3260500D02*
D03*
X3237920D02*
D03*
X5157920D02*
D03*
X7077920D02*
D03*
X1317920Y5020500D02*
D03*
X3237920D02*
D03*
X5157920D02*
D03*
X7077920D02*
D03*
X1317920Y6780500D02*
D03*
X3237920D02*
D03*
X5157920D02*
D03*
X7077920D02*
D03*
X1317920Y8540500D02*
D03*
X3237920D02*
D03*
X5157920D02*
D03*
X7077920D02*
D03*
D53*
X2392920Y1500500D02*
D03*
X4312920D02*
D03*
X6232920D02*
D03*
X8152920D02*
D03*
X2392920Y3260500D02*
D03*
X4312920D02*
D03*
X6232920D02*
D03*
X8152920D02*
D03*
X2392920Y5020500D02*
D03*
X4312920D02*
D03*
X6232920D02*
D03*
X8152920D02*
D03*
X2392920Y6780500D02*
D03*
X4312920D02*
D03*
X6232920D02*
D03*
X8152920D02*
D03*
X2392920Y8540500D02*
D03*
X4312920D02*
D03*
X6232920D02*
D03*
X8152920D02*
D03*
%TF.MD5,2414020c46fbd53cd2bb6745e21dcda3*%
M02*
