%TF.GenerationSoftware,Altium Limited,Altium Designer,20.1.8 (145)*%
G04 Layer_Color=128*
%FSLAX45Y45*%
%MOMM*%
%TF.SameCoordinates,0AB19B83-9B04-4470-A1CB-4E81E99A1085*%
%TF.FilePolarity,Positive*%
%TF.FileFunction,Paste,Bot*%
%TF.Part,CustomerPanel*%
G01*
G75*
%TA.AperFunction,SMDPad,CuDef*%
%ADD10C,1.00000*%
%ADD18O,1.25000X0.30000*%
G04:AMPARAMS|DCode=19|XSize=1.6mm|YSize=1.6mm|CornerRadius=0.008mm|HoleSize=0mm|Usage=FLASHONLY|Rotation=270.000|XOffset=0mm|YOffset=0mm|HoleType=Round|Shape=RoundedRectangle|*
%AMROUNDEDRECTD19*
21,1,1.60000,1.58400,0,0,270.0*
21,1,1.58400,1.60000,0,0,270.0*
1,1,0.01600,-0.79200,-0.79200*
1,1,0.01600,-0.79200,0.79200*
1,1,0.01600,0.79200,0.79200*
1,1,0.01600,0.79200,-0.79200*
%
%ADD19ROUNDEDRECTD19*%
%TA.AperFunction,ConnectorPad*%
G04:AMPARAMS|DCode=20|XSize=0.35mm|YSize=2mm|CornerRadius=0.175mm|HoleSize=0mm|Usage=FLASHONLY|Rotation=270.000|XOffset=0mm|YOffset=0mm|HoleType=Round|Shape=RoundedRectangle|*
%AMROUNDEDRECTD20*
21,1,0.35000,1.65000,0,0,270.0*
21,1,0.00000,2.00000,0,0,270.0*
1,1,0.35000,-0.82500,0.00000*
1,1,0.35000,-0.82500,0.00000*
1,1,0.35000,0.82500,0.00000*
1,1,0.35000,0.82500,0.00000*
%
%ADD20ROUNDEDRECTD20*%
%TA.AperFunction,SMDPad,CuDef*%
G04:AMPARAMS|DCode=21|XSize=0.8mm|YSize=0.7mm|CornerRadius=0.0035mm|HoleSize=0mm|Usage=FLASHONLY|Rotation=0.000|XOffset=0mm|YOffset=0mm|HoleType=Round|Shape=RoundedRectangle|*
%AMROUNDEDRECTD21*
21,1,0.80000,0.69300,0,0,0.0*
21,1,0.79300,0.70000,0,0,0.0*
1,1,0.00700,0.39650,-0.34650*
1,1,0.00700,-0.39650,-0.34650*
1,1,0.00700,-0.39650,0.34650*
1,1,0.00700,0.39650,0.34650*
%
%ADD21ROUNDEDRECTD21*%
G04:AMPARAMS|DCode=22|XSize=0.85mm|YSize=0.75mm|CornerRadius=0.00375mm|HoleSize=0mm|Usage=FLASHONLY|Rotation=270.000|XOffset=0mm|YOffset=0mm|HoleType=Round|Shape=RoundedRectangle|*
%AMROUNDEDRECTD22*
21,1,0.85000,0.74250,0,0,270.0*
21,1,0.84250,0.75000,0,0,270.0*
1,1,0.00750,-0.37125,-0.42125*
1,1,0.00750,-0.37125,0.42125*
1,1,0.00750,0.37125,0.42125*
1,1,0.00750,0.37125,-0.42125*
%
%ADD22ROUNDEDRECTD22*%
G04:AMPARAMS|DCode=23|XSize=0.85mm|YSize=0.75mm|CornerRadius=0.00375mm|HoleSize=0mm|Usage=FLASHONLY|Rotation=0.000|XOffset=0mm|YOffset=0mm|HoleType=Round|Shape=RoundedRectangle|*
%AMROUNDEDRECTD23*
21,1,0.85000,0.74250,0,0,0.0*
21,1,0.84250,0.75000,0,0,0.0*
1,1,0.00750,0.42125,-0.37125*
1,1,0.00750,-0.42125,-0.37125*
1,1,0.00750,-0.42125,0.37125*
1,1,0.00750,0.42125,0.37125*
%
%ADD23ROUNDEDRECTD23*%
G04:AMPARAMS|DCode=24|XSize=0.8mm|YSize=0.7mm|CornerRadius=0.0035mm|HoleSize=0mm|Usage=FLASHONLY|Rotation=90.000|XOffset=0mm|YOffset=0mm|HoleType=Round|Shape=RoundedRectangle|*
%AMROUNDEDRECTD24*
21,1,0.80000,0.69300,0,0,90.0*
21,1,0.79300,0.70000,0,0,90.0*
1,1,0.00700,0.34650,0.39650*
1,1,0.00700,0.34650,-0.39650*
1,1,0.00700,-0.34650,-0.39650*
1,1,0.00700,-0.34650,0.39650*
%
%ADD24ROUNDEDRECTD24*%
G04:AMPARAMS|DCode=25|XSize=0.4mm|YSize=0.4mm|CornerRadius=0.002mm|HoleSize=0mm|Usage=FLASHONLY|Rotation=180.000|XOffset=0mm|YOffset=0mm|HoleType=Round|Shape=RoundedRectangle|*
%AMROUNDEDRECTD25*
21,1,0.40000,0.39600,0,0,180.0*
21,1,0.39600,0.40000,0,0,180.0*
1,1,0.00400,-0.19800,0.19800*
1,1,0.00400,0.19800,0.19800*
1,1,0.00400,0.19800,-0.19800*
1,1,0.00400,-0.19800,-0.19800*
%
%ADD25ROUNDEDRECTD25*%
G04:AMPARAMS|DCode=26|XSize=0.9mm|YSize=0.9mm|CornerRadius=0.045mm|HoleSize=0mm|Usage=FLASHONLY|Rotation=180.000|XOffset=0mm|YOffset=0mm|HoleType=Round|Shape=RoundedRectangle|*
%AMROUNDEDRECTD26*
21,1,0.90000,0.81000,0,0,180.0*
21,1,0.81000,0.90000,0,0,180.0*
1,1,0.09000,-0.40500,0.40500*
1,1,0.09000,0.40500,0.40500*
1,1,0.09000,0.40500,-0.40500*
1,1,0.09000,-0.40500,-0.40500*
%
%ADD26ROUNDEDRECTD26*%
D10*
X9500000Y8500000D02*
D03*
X500000D02*
D03*
X9500000Y1500000D02*
D03*
X500000D02*
D03*
D18*
X2027140Y1753300D02*
D03*
Y1703300D02*
D03*
Y1653300D02*
D03*
Y1603300D02*
D03*
Y1553300D02*
D03*
X1602141Y1753300D02*
D03*
Y1703300D02*
D03*
Y1653300D02*
D03*
Y1603300D02*
D03*
Y1553300D02*
D03*
X3947140Y1753300D02*
D03*
Y1703300D02*
D03*
Y1653300D02*
D03*
Y1603300D02*
D03*
Y1553300D02*
D03*
X3522141Y1753300D02*
D03*
Y1703300D02*
D03*
Y1653300D02*
D03*
Y1603300D02*
D03*
Y1553300D02*
D03*
X5867140Y1753300D02*
D03*
Y1703300D02*
D03*
Y1653300D02*
D03*
Y1603300D02*
D03*
Y1553300D02*
D03*
X5442140Y1753300D02*
D03*
Y1703300D02*
D03*
Y1653300D02*
D03*
Y1603300D02*
D03*
Y1553300D02*
D03*
X7787140Y1753300D02*
D03*
Y1703300D02*
D03*
Y1653300D02*
D03*
Y1603300D02*
D03*
Y1553300D02*
D03*
X7362140Y1753300D02*
D03*
Y1703300D02*
D03*
Y1653300D02*
D03*
Y1603300D02*
D03*
Y1553300D02*
D03*
X2027140Y3513300D02*
D03*
Y3463300D02*
D03*
Y3413300D02*
D03*
Y3363300D02*
D03*
Y3313300D02*
D03*
X1602141Y3513300D02*
D03*
Y3463300D02*
D03*
Y3413300D02*
D03*
Y3363300D02*
D03*
Y3313300D02*
D03*
X3947140Y3513300D02*
D03*
Y3463300D02*
D03*
Y3413300D02*
D03*
Y3363300D02*
D03*
Y3313300D02*
D03*
X3522141Y3513300D02*
D03*
Y3463300D02*
D03*
Y3413300D02*
D03*
Y3363300D02*
D03*
Y3313300D02*
D03*
X5867140Y3513300D02*
D03*
Y3463300D02*
D03*
Y3413300D02*
D03*
Y3363300D02*
D03*
Y3313300D02*
D03*
X5442140Y3513300D02*
D03*
Y3463300D02*
D03*
Y3413300D02*
D03*
Y3363300D02*
D03*
Y3313300D02*
D03*
X7787140Y3513300D02*
D03*
Y3463300D02*
D03*
Y3413300D02*
D03*
Y3363300D02*
D03*
Y3313300D02*
D03*
X7362140Y3513300D02*
D03*
Y3463300D02*
D03*
Y3413300D02*
D03*
Y3363300D02*
D03*
Y3313300D02*
D03*
X2027140Y5273300D02*
D03*
Y5223300D02*
D03*
Y5173300D02*
D03*
Y5123300D02*
D03*
Y5073300D02*
D03*
X1602141Y5273300D02*
D03*
Y5223300D02*
D03*
Y5173300D02*
D03*
Y5123300D02*
D03*
Y5073300D02*
D03*
X3947140Y5273300D02*
D03*
Y5223300D02*
D03*
Y5173300D02*
D03*
Y5123300D02*
D03*
Y5073300D02*
D03*
X3522141Y5273300D02*
D03*
Y5223300D02*
D03*
Y5173300D02*
D03*
Y5123300D02*
D03*
Y5073300D02*
D03*
X5867140Y5273300D02*
D03*
Y5223300D02*
D03*
Y5173300D02*
D03*
Y5123300D02*
D03*
Y5073300D02*
D03*
X5442140Y5273300D02*
D03*
Y5223300D02*
D03*
Y5173300D02*
D03*
Y5123300D02*
D03*
Y5073300D02*
D03*
X7787140Y5273300D02*
D03*
Y5223300D02*
D03*
Y5173300D02*
D03*
Y5123300D02*
D03*
Y5073300D02*
D03*
X7362140Y5273300D02*
D03*
Y5223300D02*
D03*
Y5173300D02*
D03*
Y5123300D02*
D03*
Y5073300D02*
D03*
X2027140Y7033300D02*
D03*
Y6983300D02*
D03*
Y6933300D02*
D03*
Y6883300D02*
D03*
Y6833300D02*
D03*
X1602141Y7033300D02*
D03*
Y6983300D02*
D03*
Y6933300D02*
D03*
Y6883300D02*
D03*
Y6833300D02*
D03*
X3947140Y7033300D02*
D03*
Y6983300D02*
D03*
Y6933300D02*
D03*
Y6883300D02*
D03*
Y6833300D02*
D03*
X3522141Y7033300D02*
D03*
Y6983300D02*
D03*
Y6933300D02*
D03*
Y6883300D02*
D03*
Y6833300D02*
D03*
X5867140Y7033300D02*
D03*
Y6983300D02*
D03*
Y6933300D02*
D03*
Y6883300D02*
D03*
Y6833300D02*
D03*
X5442140Y7033300D02*
D03*
Y6983300D02*
D03*
Y6933300D02*
D03*
Y6883300D02*
D03*
Y6833300D02*
D03*
X7787140Y7033300D02*
D03*
Y6983300D02*
D03*
Y6933300D02*
D03*
Y6883300D02*
D03*
Y6833300D02*
D03*
X7362140Y7033300D02*
D03*
Y6983300D02*
D03*
Y6933300D02*
D03*
Y6883300D02*
D03*
Y6833300D02*
D03*
X2027140Y8793300D02*
D03*
Y8743300D02*
D03*
Y8693300D02*
D03*
Y8643300D02*
D03*
Y8593300D02*
D03*
X1602141Y8793300D02*
D03*
Y8743300D02*
D03*
Y8693300D02*
D03*
Y8643300D02*
D03*
Y8593300D02*
D03*
X3947140Y8793300D02*
D03*
Y8743300D02*
D03*
Y8693300D02*
D03*
Y8643300D02*
D03*
Y8593300D02*
D03*
X3522141Y8793300D02*
D03*
Y8743300D02*
D03*
Y8693300D02*
D03*
Y8643300D02*
D03*
Y8593300D02*
D03*
X5867140Y8793300D02*
D03*
Y8743300D02*
D03*
Y8693300D02*
D03*
Y8643300D02*
D03*
Y8593300D02*
D03*
X5442140Y8793300D02*
D03*
Y8743300D02*
D03*
Y8693300D02*
D03*
Y8643300D02*
D03*
Y8593300D02*
D03*
X7787140Y8793300D02*
D03*
Y8743300D02*
D03*
Y8693300D02*
D03*
Y8643300D02*
D03*
Y8593300D02*
D03*
X7362140Y8793300D02*
D03*
Y8743300D02*
D03*
Y8693300D02*
D03*
Y8643300D02*
D03*
Y8593300D02*
D03*
D19*
X2593480Y1492000D02*
D03*
Y2172000D02*
D03*
X4513480Y1492000D02*
D03*
Y2172000D02*
D03*
X6433480Y1492000D02*
D03*
Y2172000D02*
D03*
X8353480Y1492000D02*
D03*
Y2172000D02*
D03*
X2593480Y3252000D02*
D03*
Y3932000D02*
D03*
X4513480Y3252000D02*
D03*
Y3932000D02*
D03*
X6433480Y3252000D02*
D03*
Y3932000D02*
D03*
X8353480Y3252000D02*
D03*
Y3932000D02*
D03*
X2593480Y5012000D02*
D03*
Y5692000D02*
D03*
X4513480Y5012000D02*
D03*
Y5692000D02*
D03*
X6433480Y5012000D02*
D03*
Y5692000D02*
D03*
X8353480Y5012000D02*
D03*
Y5692000D02*
D03*
X2593480Y6772000D02*
D03*
Y7452000D02*
D03*
X4513480Y6772000D02*
D03*
Y7452000D02*
D03*
X6433480Y6772000D02*
D03*
Y7452000D02*
D03*
X8353480Y6772000D02*
D03*
Y7452000D02*
D03*
X2593480Y8532000D02*
D03*
Y9212000D02*
D03*
X4513480Y8532000D02*
D03*
Y9212000D02*
D03*
X6433480Y8532000D02*
D03*
Y9212000D02*
D03*
X8353480Y8532000D02*
D03*
Y9212000D02*
D03*
D20*
X2585980Y1702000D02*
D03*
Y1767000D02*
D03*
Y1832000D02*
D03*
Y1962000D02*
D03*
Y1897000D02*
D03*
X4505980Y1702000D02*
D03*
Y1767000D02*
D03*
Y1832000D02*
D03*
Y1962000D02*
D03*
Y1897000D02*
D03*
X6425980Y1702000D02*
D03*
Y1767000D02*
D03*
Y1832000D02*
D03*
Y1962000D02*
D03*
Y1897000D02*
D03*
X8345980Y1702000D02*
D03*
Y1767000D02*
D03*
Y1832000D02*
D03*
Y1962000D02*
D03*
Y1897000D02*
D03*
X2585980Y3462000D02*
D03*
Y3527000D02*
D03*
Y3592000D02*
D03*
Y3722000D02*
D03*
Y3657000D02*
D03*
X4505980Y3462000D02*
D03*
Y3527000D02*
D03*
Y3592000D02*
D03*
Y3722000D02*
D03*
Y3657000D02*
D03*
X6425980Y3462000D02*
D03*
Y3527000D02*
D03*
Y3592000D02*
D03*
Y3722000D02*
D03*
Y3657000D02*
D03*
X8345980Y3462000D02*
D03*
Y3527000D02*
D03*
Y3592000D02*
D03*
Y3722000D02*
D03*
Y3657000D02*
D03*
X2585980Y5222000D02*
D03*
Y5287000D02*
D03*
Y5352000D02*
D03*
Y5482000D02*
D03*
Y5417000D02*
D03*
X4505980Y5222000D02*
D03*
Y5287000D02*
D03*
Y5352000D02*
D03*
Y5482000D02*
D03*
Y5417000D02*
D03*
X6425980Y5222000D02*
D03*
Y5287000D02*
D03*
Y5352000D02*
D03*
Y5482000D02*
D03*
Y5417000D02*
D03*
X8345980Y5222000D02*
D03*
Y5287000D02*
D03*
Y5352000D02*
D03*
Y5482000D02*
D03*
Y5417000D02*
D03*
X2585980Y6982000D02*
D03*
Y7047000D02*
D03*
Y7112000D02*
D03*
Y7242000D02*
D03*
Y7177000D02*
D03*
X4505980Y6982000D02*
D03*
Y7047000D02*
D03*
Y7112000D02*
D03*
Y7242000D02*
D03*
Y7177000D02*
D03*
X6425980Y6982000D02*
D03*
Y7047000D02*
D03*
Y7112000D02*
D03*
Y7242000D02*
D03*
Y7177000D02*
D03*
X8345980Y6982000D02*
D03*
Y7047000D02*
D03*
Y7112000D02*
D03*
Y7242000D02*
D03*
Y7177000D02*
D03*
X2585980Y8742000D02*
D03*
Y8807000D02*
D03*
Y8872000D02*
D03*
Y9002000D02*
D03*
Y8937000D02*
D03*
X4505980Y8742000D02*
D03*
Y8807000D02*
D03*
Y8872000D02*
D03*
Y9002000D02*
D03*
Y8937000D02*
D03*
X6425980Y8742000D02*
D03*
Y8807000D02*
D03*
Y8872000D02*
D03*
Y9002000D02*
D03*
Y8937000D02*
D03*
X8345980Y8742000D02*
D03*
Y8807000D02*
D03*
Y8872000D02*
D03*
Y9002000D02*
D03*
Y8937000D02*
D03*
D21*
X1313780Y1948165D02*
D03*
Y1783165D02*
D03*
X1602141Y1311776D02*
D03*
Y1161775D02*
D03*
X1597800Y2092125D02*
D03*
Y1942125D02*
D03*
X3233780Y1948165D02*
D03*
Y1783165D02*
D03*
X3522141Y1311776D02*
D03*
Y1161775D02*
D03*
X3517800Y2092125D02*
D03*
Y1942125D02*
D03*
X5153780Y1948165D02*
D03*
Y1783165D02*
D03*
X5442140Y1311776D02*
D03*
Y1161775D02*
D03*
X5437800Y2092125D02*
D03*
Y1942125D02*
D03*
X7073780Y1948165D02*
D03*
Y1783165D02*
D03*
X7362140Y1311776D02*
D03*
Y1161775D02*
D03*
X7357800Y2092125D02*
D03*
Y1942125D02*
D03*
X1313780Y3708165D02*
D03*
Y3543165D02*
D03*
X1602141Y3071776D02*
D03*
Y2921775D02*
D03*
X1597800Y3852125D02*
D03*
Y3702125D02*
D03*
X3233780Y3708165D02*
D03*
Y3543165D02*
D03*
X3522141Y3071776D02*
D03*
Y2921775D02*
D03*
X3517800Y3852125D02*
D03*
Y3702125D02*
D03*
X5153780Y3708165D02*
D03*
Y3543165D02*
D03*
X5442140Y3071776D02*
D03*
Y2921775D02*
D03*
X5437800Y3852125D02*
D03*
Y3702125D02*
D03*
X7073780Y3708165D02*
D03*
Y3543165D02*
D03*
X7362140Y3071776D02*
D03*
Y2921775D02*
D03*
X7357800Y3852125D02*
D03*
Y3702125D02*
D03*
X1313780Y5468165D02*
D03*
Y5303165D02*
D03*
X1602141Y4831776D02*
D03*
Y4681775D02*
D03*
X1597800Y5612125D02*
D03*
Y5462125D02*
D03*
X3233780Y5468165D02*
D03*
Y5303165D02*
D03*
X3522141Y4831776D02*
D03*
Y4681775D02*
D03*
X3517800Y5612125D02*
D03*
Y5462125D02*
D03*
X5153780Y5468165D02*
D03*
Y5303165D02*
D03*
X5442140Y4831776D02*
D03*
Y4681775D02*
D03*
X5437800Y5612125D02*
D03*
Y5462125D02*
D03*
X7073780Y5468165D02*
D03*
Y5303165D02*
D03*
X7362140Y4831776D02*
D03*
Y4681775D02*
D03*
X7357800Y5612125D02*
D03*
Y5462125D02*
D03*
X1313780Y7228165D02*
D03*
Y7063165D02*
D03*
X1602141Y6591776D02*
D03*
Y6441776D02*
D03*
X1597800Y7372125D02*
D03*
Y7222125D02*
D03*
X3233780Y7228165D02*
D03*
Y7063165D02*
D03*
X3522141Y6591776D02*
D03*
Y6441776D02*
D03*
X3517800Y7372125D02*
D03*
Y7222125D02*
D03*
X5153780Y7228165D02*
D03*
Y7063165D02*
D03*
X5442140Y6591776D02*
D03*
Y6441776D02*
D03*
X5437800Y7372125D02*
D03*
Y7222125D02*
D03*
X7073780Y7228165D02*
D03*
Y7063165D02*
D03*
X7362140Y6591776D02*
D03*
Y6441776D02*
D03*
X7357800Y7372125D02*
D03*
Y7222125D02*
D03*
X1313780Y8988165D02*
D03*
Y8823165D02*
D03*
X1602141Y8351776D02*
D03*
Y8201776D02*
D03*
X1597800Y9132125D02*
D03*
Y8982125D02*
D03*
X3233780Y8988165D02*
D03*
Y8823165D02*
D03*
X3522141Y8351776D02*
D03*
Y8201776D02*
D03*
X3517800Y9132125D02*
D03*
Y8982125D02*
D03*
X5153780Y8988165D02*
D03*
Y8823165D02*
D03*
X5442140Y8351776D02*
D03*
Y8201776D02*
D03*
X5437800Y9132125D02*
D03*
Y8982125D02*
D03*
X7073780Y8988165D02*
D03*
Y8823165D02*
D03*
X7362140Y8351776D02*
D03*
Y8201776D02*
D03*
X7357800Y9132125D02*
D03*
Y8982125D02*
D03*
D22*
X2047080Y1374127D02*
D03*
X1892081D02*
D03*
X3967080D02*
D03*
X3812081D02*
D03*
X5887080D02*
D03*
X5732080D02*
D03*
X7807080D02*
D03*
X7652080D02*
D03*
X2047080Y3134127D02*
D03*
X1892081D02*
D03*
X3967080D02*
D03*
X3812081D02*
D03*
X5887080D02*
D03*
X5732080D02*
D03*
X7807080D02*
D03*
X7652080D02*
D03*
X2047080Y4894127D02*
D03*
X1892081D02*
D03*
X3967080D02*
D03*
X3812081D02*
D03*
X5887080D02*
D03*
X5732080D02*
D03*
X7807080D02*
D03*
X7652080D02*
D03*
X2047080Y6654127D02*
D03*
X1892081D02*
D03*
X3967080D02*
D03*
X3812081D02*
D03*
X5887080D02*
D03*
X5732080D02*
D03*
X7807080D02*
D03*
X7652080D02*
D03*
X2047080Y8414127D02*
D03*
X1892081D02*
D03*
X3967080D02*
D03*
X3812081D02*
D03*
X5887080D02*
D03*
X5732080D02*
D03*
X7807080D02*
D03*
X7652080D02*
D03*
D23*
X2187639Y1400011D02*
D03*
Y1555011D02*
D03*
X4107639Y1400011D02*
D03*
Y1555011D02*
D03*
X6027639Y1400011D02*
D03*
Y1555011D02*
D03*
X7947639Y1400011D02*
D03*
Y1555011D02*
D03*
X2187639Y3160011D02*
D03*
Y3315011D02*
D03*
X4107639Y3160011D02*
D03*
Y3315011D02*
D03*
X6027639Y3160011D02*
D03*
Y3315011D02*
D03*
X7947639Y3160011D02*
D03*
Y3315011D02*
D03*
X2187639Y4920011D02*
D03*
Y5075011D02*
D03*
X4107639Y4920011D02*
D03*
Y5075011D02*
D03*
X6027639Y4920011D02*
D03*
Y5075011D02*
D03*
X7947639Y4920011D02*
D03*
Y5075011D02*
D03*
X2187639Y6680011D02*
D03*
Y6835011D02*
D03*
X4107639Y6680011D02*
D03*
Y6835011D02*
D03*
X6027639Y6680011D02*
D03*
Y6835011D02*
D03*
X7947639Y6680011D02*
D03*
Y6835011D02*
D03*
X2187639Y8440011D02*
D03*
Y8595011D02*
D03*
X4107639Y8440011D02*
D03*
Y8595011D02*
D03*
X6027639Y8440011D02*
D03*
Y8595011D02*
D03*
X7947639Y8440011D02*
D03*
Y8595011D02*
D03*
D24*
X1897460Y2067860D02*
D03*
X2047460D02*
D03*
X2463750Y1081000D02*
D03*
X2313750D02*
D03*
X1897080Y1236776D02*
D03*
X2047080D02*
D03*
X3817460Y2067860D02*
D03*
X3967460D02*
D03*
X4383750Y1081000D02*
D03*
X4233750D02*
D03*
X3817080Y1236776D02*
D03*
X3967080D02*
D03*
X5737460Y2067860D02*
D03*
X5887460D02*
D03*
X6303750Y1081000D02*
D03*
X6153750D02*
D03*
X5737080Y1236776D02*
D03*
X5887080D02*
D03*
X7657460Y2067860D02*
D03*
X7807460D02*
D03*
X8223750Y1081000D02*
D03*
X8073750D02*
D03*
X7657080Y1236776D02*
D03*
X7807080D02*
D03*
X1897460Y3827860D02*
D03*
X2047460D02*
D03*
X2463750Y2841000D02*
D03*
X2313750D02*
D03*
X1897080Y2996776D02*
D03*
X2047080D02*
D03*
X3817460Y3827860D02*
D03*
X3967460D02*
D03*
X4383750Y2841000D02*
D03*
X4233750D02*
D03*
X3817080Y2996776D02*
D03*
X3967080D02*
D03*
X5737460Y3827860D02*
D03*
X5887460D02*
D03*
X6303750Y2841000D02*
D03*
X6153750D02*
D03*
X5737080Y2996776D02*
D03*
X5887080D02*
D03*
X7657460Y3827860D02*
D03*
X7807460D02*
D03*
X8223750Y2841000D02*
D03*
X8073750D02*
D03*
X7657080Y2996776D02*
D03*
X7807080D02*
D03*
X1897460Y5587860D02*
D03*
X2047460D02*
D03*
X2463750Y4601000D02*
D03*
X2313750D02*
D03*
X1897080Y4756776D02*
D03*
X2047080D02*
D03*
X3817460Y5587860D02*
D03*
X3967460D02*
D03*
X4383750Y4601000D02*
D03*
X4233750D02*
D03*
X3817080Y4756776D02*
D03*
X3967080D02*
D03*
X5737460Y5587860D02*
D03*
X5887460D02*
D03*
X6303750Y4601000D02*
D03*
X6153750D02*
D03*
X5737080Y4756776D02*
D03*
X5887080D02*
D03*
X7657460Y5587860D02*
D03*
X7807460D02*
D03*
X8223750Y4601000D02*
D03*
X8073750D02*
D03*
X7657080Y4756776D02*
D03*
X7807080D02*
D03*
X1897460Y7347860D02*
D03*
X2047460D02*
D03*
X2463750Y6361000D02*
D03*
X2313750D02*
D03*
X1897080Y6516776D02*
D03*
X2047080D02*
D03*
X3817460Y7347860D02*
D03*
X3967460D02*
D03*
X4383750Y6361000D02*
D03*
X4233750D02*
D03*
X3817080Y6516776D02*
D03*
X3967080D02*
D03*
X5737460Y7347860D02*
D03*
X5887460D02*
D03*
X6303750Y6361000D02*
D03*
X6153750D02*
D03*
X5737080Y6516776D02*
D03*
X5887080D02*
D03*
X7657460Y7347860D02*
D03*
X7807460D02*
D03*
X8223750Y6361000D02*
D03*
X8073750D02*
D03*
X7657080Y6516776D02*
D03*
X7807080D02*
D03*
X1897460Y9107860D02*
D03*
X2047460D02*
D03*
X2463750Y8121000D02*
D03*
X2313750D02*
D03*
X1897080Y8276776D02*
D03*
X2047080D02*
D03*
X3817460Y9107860D02*
D03*
X3967460D02*
D03*
X4383750Y8121000D02*
D03*
X4233750D02*
D03*
X3817080Y8276776D02*
D03*
X3967080D02*
D03*
X5737460Y9107860D02*
D03*
X5887460D02*
D03*
X6303750Y8121000D02*
D03*
X6153750D02*
D03*
X5737080Y8276776D02*
D03*
X5887080D02*
D03*
X7657460Y9107860D02*
D03*
X7807460D02*
D03*
X8223750Y8121000D02*
D03*
X8073750D02*
D03*
X7657080Y8276776D02*
D03*
X7807080D02*
D03*
D25*
X2382848Y1799620D02*
D03*
Y1709620D02*
D03*
X2408248Y1987000D02*
D03*
Y1897000D02*
D03*
X2261440Y1992080D02*
D03*
Y1902080D02*
D03*
X4302848Y1799620D02*
D03*
Y1709620D02*
D03*
X4328248Y1987000D02*
D03*
Y1897000D02*
D03*
X4181440Y1992080D02*
D03*
Y1902080D02*
D03*
X6222848Y1799620D02*
D03*
Y1709620D02*
D03*
X6248248Y1987000D02*
D03*
Y1897000D02*
D03*
X6101440Y1992080D02*
D03*
Y1902080D02*
D03*
X8142848Y1799620D02*
D03*
Y1709620D02*
D03*
X8168248Y1987000D02*
D03*
Y1897000D02*
D03*
X8021440Y1992080D02*
D03*
Y1902080D02*
D03*
X2382848Y3559620D02*
D03*
Y3469620D02*
D03*
X2408248Y3747000D02*
D03*
Y3657000D02*
D03*
X2261440Y3752080D02*
D03*
Y3662080D02*
D03*
X4302848Y3559620D02*
D03*
Y3469620D02*
D03*
X4328248Y3747000D02*
D03*
Y3657000D02*
D03*
X4181440Y3752080D02*
D03*
Y3662080D02*
D03*
X6222848Y3559620D02*
D03*
Y3469620D02*
D03*
X6248248Y3747000D02*
D03*
Y3657000D02*
D03*
X6101440Y3752080D02*
D03*
Y3662080D02*
D03*
X8142848Y3559620D02*
D03*
Y3469620D02*
D03*
X8168248Y3747000D02*
D03*
Y3657000D02*
D03*
X8021440Y3752080D02*
D03*
Y3662080D02*
D03*
X2382848Y5319620D02*
D03*
Y5229620D02*
D03*
X2408248Y5507000D02*
D03*
Y5417000D02*
D03*
X2261440Y5512080D02*
D03*
Y5422080D02*
D03*
X4302848Y5319620D02*
D03*
Y5229620D02*
D03*
X4328248Y5507000D02*
D03*
Y5417000D02*
D03*
X4181440Y5512080D02*
D03*
Y5422080D02*
D03*
X6222848Y5319620D02*
D03*
Y5229620D02*
D03*
X6248248Y5507000D02*
D03*
Y5417000D02*
D03*
X6101440Y5512080D02*
D03*
Y5422080D02*
D03*
X8142848Y5319620D02*
D03*
Y5229620D02*
D03*
X8168248Y5507000D02*
D03*
Y5417000D02*
D03*
X8021440Y5512080D02*
D03*
Y5422080D02*
D03*
X2382848Y7079620D02*
D03*
Y6989620D02*
D03*
X2408248Y7267000D02*
D03*
Y7177000D02*
D03*
X2261440Y7272080D02*
D03*
Y7182080D02*
D03*
X4302848Y7079620D02*
D03*
Y6989620D02*
D03*
X4328248Y7267000D02*
D03*
Y7177000D02*
D03*
X4181440Y7272080D02*
D03*
Y7182080D02*
D03*
X6222848Y7079620D02*
D03*
Y6989620D02*
D03*
X6248248Y7267000D02*
D03*
Y7177000D02*
D03*
X6101440Y7272080D02*
D03*
Y7182080D02*
D03*
X8142848Y7079620D02*
D03*
Y6989620D02*
D03*
X8168248Y7267000D02*
D03*
Y7177000D02*
D03*
X8021440Y7272080D02*
D03*
Y7182080D02*
D03*
X2382848Y8839620D02*
D03*
Y8749620D02*
D03*
X2408248Y9027000D02*
D03*
Y8937000D02*
D03*
X2261440Y9032080D02*
D03*
Y8942080D02*
D03*
X4302848Y8839620D02*
D03*
Y8749620D02*
D03*
X4328248Y9027000D02*
D03*
Y8937000D02*
D03*
X4181440Y9032080D02*
D03*
Y8942080D02*
D03*
X6222848Y8839620D02*
D03*
Y8749620D02*
D03*
X6248248Y9027000D02*
D03*
Y8937000D02*
D03*
X6101440Y9032080D02*
D03*
Y8942080D02*
D03*
X8142848Y8839620D02*
D03*
Y8749620D02*
D03*
X8168248Y9027000D02*
D03*
Y8937000D02*
D03*
X8021440Y9032080D02*
D03*
Y8942080D02*
D03*
D26*
X2261140Y2112860D02*
D03*
X2421140D02*
D03*
X4181140D02*
D03*
X4341140D02*
D03*
X6101140D02*
D03*
X6261140D02*
D03*
X8021140D02*
D03*
X8181140D02*
D03*
X2261140Y3872860D02*
D03*
X2421140D02*
D03*
X4181140D02*
D03*
X4341140D02*
D03*
X6101140D02*
D03*
X6261140D02*
D03*
X8021140D02*
D03*
X8181140D02*
D03*
X2261140Y5632860D02*
D03*
X2421140D02*
D03*
X4181140D02*
D03*
X4341140D02*
D03*
X6101140D02*
D03*
X6261140D02*
D03*
X8021140D02*
D03*
X8181140D02*
D03*
X2261140Y7392860D02*
D03*
X2421140D02*
D03*
X4181140D02*
D03*
X4341140D02*
D03*
X6101140D02*
D03*
X6261140D02*
D03*
X8021140D02*
D03*
X8181140D02*
D03*
X2261140Y9152860D02*
D03*
X2421140D02*
D03*
X4181140D02*
D03*
X4341140D02*
D03*
X6101140D02*
D03*
X6261140D02*
D03*
X8021140D02*
D03*
X8181140D02*
D03*
%TF.MD5,6ef4629557a0cd0caa092a49b113a9ff*%
M02*
