%TF.GenerationSoftware,Altium Limited,Altium Designer,20.1.8 (145)*%
G04 Layer_Color=0*
%FSLAX45Y45*%
%MOMM*%
%TF.SameCoordinates,0AB19B83-9B04-4470-A1CB-4E81E99A1085*%
%TF.FilePolarity,Positive*%
%TF.FileFunction,Plated,1,2,PTH,Drill*%
%TF.Part,CustomerPanel*%
G01*
G75*
%TA.AperFunction,ComponentDrill*%
%ADD421O,1.20000X0.90000*%
%ADD422C,0.80000*%
%ADD423O,1.25000X0.50000*%
%ADD424O,1.25000X2.50000*%
%TA.AperFunction,ViaDrill,NotFilled*%
%ADD425C,0.35000*%
D421*
X2848480Y1549000D02*
D03*
Y2115000D02*
D03*
X4768480Y1549000D02*
D03*
Y2115000D02*
D03*
X6688480Y1549000D02*
D03*
Y2115000D02*
D03*
X8608480Y1549000D02*
D03*
Y2115000D02*
D03*
X2848480Y3309000D02*
D03*
Y3875000D02*
D03*
X4768480Y3309000D02*
D03*
Y3875000D02*
D03*
X6688480Y3309000D02*
D03*
Y3875000D02*
D03*
X8608480Y3309000D02*
D03*
Y3875000D02*
D03*
X2848480Y5069000D02*
D03*
Y5635000D02*
D03*
X4768480Y5069000D02*
D03*
Y5635000D02*
D03*
X6688480Y5069000D02*
D03*
Y5635000D02*
D03*
X8608480Y5069000D02*
D03*
Y5635000D02*
D03*
X2848480Y6829000D02*
D03*
Y7395000D02*
D03*
X4768480Y6829000D02*
D03*
Y7395000D02*
D03*
X6688480Y6829000D02*
D03*
Y7395000D02*
D03*
X8608480Y6829000D02*
D03*
Y7395000D02*
D03*
X2848480Y8589000D02*
D03*
Y9155000D02*
D03*
X4768480Y8589000D02*
D03*
Y9155000D02*
D03*
X6688480Y8589000D02*
D03*
Y9155000D02*
D03*
X8608480Y8589000D02*
D03*
Y9155000D02*
D03*
D422*
X2644000Y1081000D02*
D03*
Y1335000D02*
D03*
Y827000D02*
D03*
X4564000Y1081000D02*
D03*
Y1335000D02*
D03*
Y827000D02*
D03*
X6484000Y1081000D02*
D03*
Y1335000D02*
D03*
Y827000D02*
D03*
X8404000Y1081000D02*
D03*
Y1335000D02*
D03*
Y827000D02*
D03*
X2644000Y2841000D02*
D03*
Y3095000D02*
D03*
Y2587000D02*
D03*
X4564000Y2841000D02*
D03*
Y3095000D02*
D03*
Y2587000D02*
D03*
X6484000Y2841000D02*
D03*
Y3095000D02*
D03*
Y2587000D02*
D03*
X8404000Y2841000D02*
D03*
Y3095000D02*
D03*
Y2587000D02*
D03*
X2644000Y4601000D02*
D03*
Y4855000D02*
D03*
Y4347000D02*
D03*
X4564000Y4601000D02*
D03*
Y4855000D02*
D03*
Y4347000D02*
D03*
X6484000Y4601000D02*
D03*
Y4855000D02*
D03*
Y4347000D02*
D03*
X8404000Y4601000D02*
D03*
Y4855000D02*
D03*
Y4347000D02*
D03*
X2644000Y6361000D02*
D03*
Y6615000D02*
D03*
Y6107000D02*
D03*
X4564000Y6361000D02*
D03*
Y6615000D02*
D03*
Y6107000D02*
D03*
X6484000Y6361000D02*
D03*
Y6615000D02*
D03*
Y6107000D02*
D03*
X8404000Y6361000D02*
D03*
Y6615000D02*
D03*
Y6107000D02*
D03*
X2644000Y8121000D02*
D03*
Y8375000D02*
D03*
Y7867000D02*
D03*
X4564000Y8121000D02*
D03*
Y8375000D02*
D03*
Y7867000D02*
D03*
X6484000Y8121000D02*
D03*
Y8375000D02*
D03*
Y7867000D02*
D03*
X8404000Y8121000D02*
D03*
Y8375000D02*
D03*
Y7867000D02*
D03*
D423*
X1605420Y775500D02*
D03*
X2105420D02*
D03*
X1855420Y2225500D02*
D03*
X1605420D02*
D03*
X2105420D02*
D03*
X3525420Y775500D02*
D03*
X4025420D02*
D03*
X3775420Y2225500D02*
D03*
X3525420D02*
D03*
X4025420D02*
D03*
X5445420Y775500D02*
D03*
X5945420D02*
D03*
X5695420Y2225500D02*
D03*
X5445420D02*
D03*
X5945420D02*
D03*
X7365420Y775500D02*
D03*
X7865420D02*
D03*
X7615420Y2225500D02*
D03*
X7365420D02*
D03*
X7865420D02*
D03*
X1605420Y2535500D02*
D03*
X2105420D02*
D03*
X1855420Y3985500D02*
D03*
X1605420D02*
D03*
X2105420D02*
D03*
X3525420Y2535500D02*
D03*
X4025420D02*
D03*
X3775420Y3985500D02*
D03*
X3525420D02*
D03*
X4025420D02*
D03*
X5445420Y2535500D02*
D03*
X5945420D02*
D03*
X5695420Y3985500D02*
D03*
X5445420D02*
D03*
X5945420D02*
D03*
X7365420Y2535500D02*
D03*
X7865420D02*
D03*
X7615420Y3985500D02*
D03*
X7365420D02*
D03*
X7865420D02*
D03*
X1605420Y4295500D02*
D03*
X2105420D02*
D03*
X1855420Y5745500D02*
D03*
X1605420D02*
D03*
X2105420D02*
D03*
X3525420Y4295500D02*
D03*
X4025420D02*
D03*
X3775420Y5745500D02*
D03*
X3525420D02*
D03*
X4025420D02*
D03*
X5445420Y4295500D02*
D03*
X5945420D02*
D03*
X5695420Y5745500D02*
D03*
X5445420D02*
D03*
X5945420D02*
D03*
X7365420Y4295500D02*
D03*
X7865420D02*
D03*
X7615420Y5745500D02*
D03*
X7365420D02*
D03*
X7865420D02*
D03*
X1605420Y6055500D02*
D03*
X2105420D02*
D03*
X1855420Y7505500D02*
D03*
X1605420D02*
D03*
X2105420D02*
D03*
X3525420Y6055500D02*
D03*
X4025420D02*
D03*
X3775420Y7505500D02*
D03*
X3525420D02*
D03*
X4025420D02*
D03*
X5445420Y6055500D02*
D03*
X5945420D02*
D03*
X5695420Y7505500D02*
D03*
X5445420D02*
D03*
X5945420D02*
D03*
X7365420Y6055500D02*
D03*
X7865420D02*
D03*
X7615420Y7505500D02*
D03*
X7365420D02*
D03*
X7865420D02*
D03*
X1605420Y7815500D02*
D03*
X2105420D02*
D03*
X1855420Y9265500D02*
D03*
X1605420D02*
D03*
X2105420D02*
D03*
X3525420Y7815500D02*
D03*
X4025420D02*
D03*
X3775420Y9265500D02*
D03*
X3525420D02*
D03*
X4025420D02*
D03*
X5445420Y7815500D02*
D03*
X5945420D02*
D03*
X5695420Y9265500D02*
D03*
X5445420D02*
D03*
X5945420D02*
D03*
X7365420Y7815500D02*
D03*
X7865420D02*
D03*
X7615420Y9265500D02*
D03*
X7365420D02*
D03*
X7865420D02*
D03*
D424*
X1317920Y1500500D02*
D03*
X2392920D02*
D03*
X3237920D02*
D03*
X4312920D02*
D03*
X5157920D02*
D03*
X6232920D02*
D03*
X7077920D02*
D03*
X8152920D02*
D03*
X1317920Y3260500D02*
D03*
X2392920D02*
D03*
X3237920D02*
D03*
X4312920D02*
D03*
X5157920D02*
D03*
X6232920D02*
D03*
X7077920D02*
D03*
X8152920D02*
D03*
X1317920Y5020500D02*
D03*
X2392920D02*
D03*
X3237920D02*
D03*
X4312920D02*
D03*
X5157920D02*
D03*
X6232920D02*
D03*
X7077920D02*
D03*
X8152920D02*
D03*
X1317920Y6780500D02*
D03*
X2392920D02*
D03*
X3237920D02*
D03*
X4312920D02*
D03*
X5157920D02*
D03*
X6232920D02*
D03*
X7077920D02*
D03*
X8152920D02*
D03*
X1317920Y8540500D02*
D03*
X2392920D02*
D03*
X3237920D02*
D03*
X4312920D02*
D03*
X5157920D02*
D03*
X6232920D02*
D03*
X7077920D02*
D03*
X8152920D02*
D03*
D425*
X1570420Y1806660D02*
D03*
X1637450Y1808455D02*
D03*
X1926464Y1653300D02*
D03*
X1808945Y1374127D02*
D03*
X2187639Y1316876D02*
D03*
X2130500Y1653300D02*
D03*
X2322209Y1902080D02*
D03*
X2347208Y1987000D02*
D03*
X2727708Y1702000D02*
D03*
X2446843D02*
D03*
X3490420Y1806660D02*
D03*
X3557450Y1808455D02*
D03*
X3846464Y1653300D02*
D03*
X3728945Y1374127D02*
D03*
X4107639Y1316876D02*
D03*
X4050500Y1653300D02*
D03*
X4242209Y1902080D02*
D03*
X4267208Y1987000D02*
D03*
X4647708Y1702000D02*
D03*
X4366843D02*
D03*
X5410420Y1806660D02*
D03*
X5477450Y1808455D02*
D03*
X5766464Y1653300D02*
D03*
X5648945Y1374127D02*
D03*
X6027639Y1316876D02*
D03*
X5970500Y1653300D02*
D03*
X6162209Y1902080D02*
D03*
X6187208Y1987000D02*
D03*
X6567708Y1702000D02*
D03*
X6286843D02*
D03*
X7330420Y1806660D02*
D03*
X7397450Y1808455D02*
D03*
X7686464Y1653300D02*
D03*
X7568945Y1374127D02*
D03*
X7947639Y1316876D02*
D03*
X7890500Y1653300D02*
D03*
X8082209Y1902080D02*
D03*
X8107208Y1987000D02*
D03*
X8487708Y1702000D02*
D03*
X8206843D02*
D03*
X1570420Y3566660D02*
D03*
X1637450Y3568455D02*
D03*
X1926464Y3413300D02*
D03*
X1808945Y3134127D02*
D03*
X2187639Y3076876D02*
D03*
X2130500Y3413300D02*
D03*
X2322209Y3662080D02*
D03*
X2347208Y3747000D02*
D03*
X2727708Y3462000D02*
D03*
X2446843D02*
D03*
X3490420Y3566660D02*
D03*
X3557450Y3568455D02*
D03*
X3846464Y3413300D02*
D03*
X3728945Y3134127D02*
D03*
X4107639Y3076876D02*
D03*
X4050500Y3413300D02*
D03*
X4242209Y3662080D02*
D03*
X4267208Y3747000D02*
D03*
X4647708Y3462000D02*
D03*
X4366843D02*
D03*
X5410420Y3566660D02*
D03*
X5477450Y3568455D02*
D03*
X5766464Y3413300D02*
D03*
X5648945Y3134127D02*
D03*
X6027639Y3076876D02*
D03*
X5970500Y3413300D02*
D03*
X6162209Y3662080D02*
D03*
X6187208Y3747000D02*
D03*
X6567708Y3462000D02*
D03*
X6286843D02*
D03*
X7330420Y3566660D02*
D03*
X7397450Y3568455D02*
D03*
X7686464Y3413300D02*
D03*
X7568945Y3134127D02*
D03*
X7947639Y3076876D02*
D03*
X7890500Y3413300D02*
D03*
X8082209Y3662080D02*
D03*
X8107208Y3747000D02*
D03*
X8487708Y3462000D02*
D03*
X8206843D02*
D03*
X1570420Y5326660D02*
D03*
X1637450Y5328455D02*
D03*
X1926464Y5173300D02*
D03*
X1808945Y4894127D02*
D03*
X2187639Y4836876D02*
D03*
X2130500Y5173300D02*
D03*
X2322209Y5422080D02*
D03*
X2347208Y5507000D02*
D03*
X2727708Y5222000D02*
D03*
X2446843D02*
D03*
X3490420Y5326660D02*
D03*
X3557450Y5328455D02*
D03*
X3846464Y5173300D02*
D03*
X3728945Y4894127D02*
D03*
X4107639Y4836876D02*
D03*
X4050500Y5173300D02*
D03*
X4242209Y5422080D02*
D03*
X4267208Y5507000D02*
D03*
X4647708Y5222000D02*
D03*
X4366843D02*
D03*
X5410420Y5326660D02*
D03*
X5477450Y5328455D02*
D03*
X5766464Y5173300D02*
D03*
X5648945Y4894127D02*
D03*
X6027639Y4836876D02*
D03*
X5970500Y5173300D02*
D03*
X6162209Y5422080D02*
D03*
X6187208Y5507000D02*
D03*
X6567708Y5222000D02*
D03*
X6286843D02*
D03*
X7330420Y5326660D02*
D03*
X7397450Y5328455D02*
D03*
X7686464Y5173300D02*
D03*
X7568945Y4894127D02*
D03*
X7947639Y4836876D02*
D03*
X7890500Y5173300D02*
D03*
X8082209Y5422080D02*
D03*
X8107208Y5507000D02*
D03*
X8487708Y5222000D02*
D03*
X8206843D02*
D03*
X1570420Y7086660D02*
D03*
X1637450Y7088455D02*
D03*
X1926464Y6933300D02*
D03*
X1808945Y6654127D02*
D03*
X2187639Y6596876D02*
D03*
X2130500Y6933300D02*
D03*
X2322209Y7182080D02*
D03*
X2347208Y7267000D02*
D03*
X2727708Y6982000D02*
D03*
X2446843D02*
D03*
X3490420Y7086660D02*
D03*
X3557450Y7088455D02*
D03*
X3846464Y6933300D02*
D03*
X3728945Y6654127D02*
D03*
X4107639Y6596876D02*
D03*
X4050500Y6933300D02*
D03*
X4242209Y7182080D02*
D03*
X4267208Y7267000D02*
D03*
X4647708Y6982000D02*
D03*
X4366843D02*
D03*
X5410420Y7086660D02*
D03*
X5477450Y7088455D02*
D03*
X5766464Y6933300D02*
D03*
X5648945Y6654127D02*
D03*
X6027639Y6596876D02*
D03*
X5970500Y6933300D02*
D03*
X6162209Y7182080D02*
D03*
X6187208Y7267000D02*
D03*
X6567708Y6982000D02*
D03*
X6286843D02*
D03*
X7330420Y7086660D02*
D03*
X7397450Y7088455D02*
D03*
X7686464Y6933300D02*
D03*
X7568945Y6654127D02*
D03*
X7947639Y6596876D02*
D03*
X7890500Y6933300D02*
D03*
X8082209Y7182080D02*
D03*
X8107208Y7267000D02*
D03*
X8487708Y6982000D02*
D03*
X8206843D02*
D03*
X1570420Y8846660D02*
D03*
X1637450Y8848455D02*
D03*
X1926464Y8693300D02*
D03*
X1808945Y8414127D02*
D03*
X2187639Y8356876D02*
D03*
X2130500Y8693300D02*
D03*
X2322209Y8942080D02*
D03*
X2347208Y9027000D02*
D03*
X2727708Y8742000D02*
D03*
X2446843D02*
D03*
X3490420Y8846660D02*
D03*
X3557450Y8848455D02*
D03*
X3846464Y8693300D02*
D03*
X3728945Y8414127D02*
D03*
X4107639Y8356876D02*
D03*
X4050500Y8693300D02*
D03*
X4242209Y8942080D02*
D03*
X4267208Y9027000D02*
D03*
X4647708Y8742000D02*
D03*
X4366843D02*
D03*
X5410420Y8846660D02*
D03*
X5477450Y8848455D02*
D03*
X5766464Y8693300D02*
D03*
X5648945Y8414127D02*
D03*
X6027639Y8356876D02*
D03*
X5970500Y8693300D02*
D03*
X6162209Y8942080D02*
D03*
X6187208Y9027000D02*
D03*
X6567708Y8742000D02*
D03*
X6286843D02*
D03*
X7330420Y8846660D02*
D03*
X7397450Y8848455D02*
D03*
X7686464Y8693300D02*
D03*
X7568945Y8414127D02*
D03*
X7947639Y8356876D02*
D03*
X7890500Y8693300D02*
D03*
X8082209Y8942080D02*
D03*
X8107208Y9027000D02*
D03*
X8487708Y8742000D02*
D03*
X8206843D02*
D03*
%TF.MD5,d7730275f3cef1d8b2b1f63b15a96d90*%
M02*
