M48
;Layer_Color=9474304
;FILE_FORMAT=4:4
METRIC
;TYPE=PLATED
T1F00S00C0.3500
T3F00S00C0.8000
%
T01
X00180895Y00137413
X00192646Y00165330
X00213050
X00244684Y00170200
X00272771
X00232221Y00190208
X00234721Y00198700
X00218764Y00131688
X00163745Y00180846
X00157042Y00180666
X00180895Y00313413
X00192646Y00341330
X00213050
X00244684Y00346200
X00272771
X00218764Y00307688
X00372895Y00313413
X00384646Y00341330
X00405050
X00436684Y00346200
X00464771
X00410764Y00307688
X00426721Y00198700
X00424221Y00190208
X00436684Y00170200
X00464771
X00405050Y00165330
X00384646
X00372895Y00137413
X00410764Y00131688
X00355745Y00180846
X00349042Y00180666
X00541042
X00547745Y00180846
X00576646Y00165330
X00597050
X00628684Y00170200
X00656771
X00616221Y00190208
X00618721Y00198700
X00602764Y00131688
X00564894Y00137413
Y00313413
X00576646Y00341330
X00597050
X00628684Y00346200
X00656771
X00602764Y00307688
X00733042Y00180666
X00739745Y00180846
X00768646Y00165330
X00789050
X00820684Y00170200
X00848771
X00808221Y00190208
X00810721Y00198700
X00794764Y00131688
X00756895Y00137413
Y00313413
X00768646Y00341330
X00789050
X00820684Y00346200
X00848771
X00794764Y00307688
X00808221Y00366208
X00810721Y00374700
X00794764Y00483688
X00789050Y00517330
X00768646
X00756895Y00489413
X00820684Y00522200
X00848771
X00808221Y00542208
X00810721Y00550700
X00794764Y00659688
X00789050Y00693330
X00768646
X00756895Y00665413
X00820684Y00698200
X00848771
X00808221Y00718208
X00810721Y00726700
X00739745Y00708846
X00733042Y00708666
X00656771Y00698200
X00628684
X00616221Y00718208
X00618721Y00726700
X00597050Y00693330
X00576646
X00564894Y00665413
X00602764Y00659688
X00547745Y00708846
X00541042Y00708666
X00464771Y00698200
X00436684
X00424221Y00718208
X00426721Y00726700
X00405050Y00693330
X00384646
X00372895Y00665413
X00410764Y00659688
X00355745Y00708846
X00349042Y00708666
Y00532666
X00355745Y00532845
X00384646Y00517330
X00405050
X00436684Y00522200
X00464771
X00424221Y00542208
X00426721Y00550700
X00410764Y00483688
X00372895Y00489413
X00355745Y00356846
X00349042Y00356666
X00424221Y00366208
X00426721Y00374700
X00541042Y00356666
X00547745Y00356846
X00616221Y00366208
X00618721Y00374700
X00602764Y00483688
X00597050Y00517330
X00576646
X00564894Y00489413
X00547745Y00532845
X00541042Y00532666
X00616221Y00542208
X00618721Y00550700
X00628684Y00522200
X00656771
X00733042Y00532666
X00739745Y00532845
Y00356846
X00733042Y00356666
X00232221Y00366208
X00234721Y00374700
X00163745Y00356846
X00157042Y00356666
X00180895Y00489413
X00192646Y00517330
X00213050
X00244684Y00522200
X00272771
X00232221Y00542208
X00234721Y00550700
X00218764Y00483688
X00163745Y00532845
X00157042Y00532666
X00180895Y00665413
X00192646Y00693330
X00213050
X00244684Y00698200
X00272771
X00232221Y00718208
X00234721Y00726700
X00218764Y00659688
X00163745Y00708846
X00157042Y00708666
X00180895Y00841413
X00192646Y00869330
X00213050
X00244684Y00874200
X00272771
X00232221Y00894208
X00234721Y00902700
X00218764Y00835688
X00163745Y00884846
X00157042Y00884666
X00349042
X00355745Y00884846
X00384646Y00869330
X00405050
X00436684Y00874200
X00464771
X00424221Y00894208
X00426721Y00902700
X00410764Y00835688
X00372895Y00841413
X00564894
X00576646Y00869330
X00597050
X00628684Y00874200
X00656771
X00616221Y00894208
X00618721Y00902700
X00602764Y00835688
X00547745Y00884846
X00541042Y00884666
X00733042
X00739745Y00884846
X00768646Y00869330
X00789050
X00820684Y00874200
X00848771
X00808221Y00894208
X00810721Y00902700
X00794764Y00835688
X00756895Y00841413
T03
X00264400Y00082700
Y00108100
Y00133500
Y00258700
Y00284100
Y00309500
X00456400
Y00284100
Y00258700
Y00133500
Y00108100
Y00082700
X00648400
Y00108100
Y00133500
Y00258700
Y00284100
Y00309500
X00840400
Y00284100
Y00258700
Y00133500
Y00108100
Y00082700
Y00434700
Y00460100
Y00485500
Y00610700
Y00636100
Y00661500
X00648400
Y00636100
Y00610700
Y00485500
Y00460100
Y00434700
X00456400
Y00460100
Y00485500
Y00610700
Y00636100
Y00661500
X00264400
Y00636100
Y00610700
Y00485500
Y00460100
Y00434700
Y00786700
Y00812100
Y00837500
X00456400
Y00812100
Y00786700
X00648400
Y00812100
Y00837500
X00840400
Y00812100
Y00786700
M30
