%TF.GenerationSoftware,Altium Limited,Altium Designer,20.1.8 (145)*%
G04 Layer_Color=8388736*
%FSLAX45Y45*%
%MOMM*%
%TF.SameCoordinates,0AB19B83-9B04-4470-A1CB-4E81E99A1085*%
%TF.FilePolarity,Negative*%
%TF.FileFunction,Soldermask,Top*%
%TF.Part,CustomerPanel*%
G01*
G75*
%TA.AperFunction,WasherPad*%
%ADD11C,0.60000*%
%TA.AperFunction,SMDPad,CuDef*%
%ADD37C,1.20320*%
%TA.AperFunction,WasherPad*%
%ADD47C,0.29600*%
%TA.AperFunction,ComponentPad*%
%ADD48C,0.50000*%
%ADD49O,1.90000X1.60000*%
G04:AMPARAMS|DCode=50|XSize=1.2mm|YSize=1.2mm|CornerRadius=0.6mm|HoleSize=0mm|Usage=FLASHONLY|Rotation=90.000|XOffset=0mm|YOffset=0mm|HoleType=Round|Shape=RoundedRectangle|*
%AMROUNDEDRECTD50*
21,1,1.20000,0.00000,0,0,90.0*
21,1,0.00000,1.20000,0,0,90.0*
1,1,1.20000,0.00000,0.00000*
1,1,1.20000,0.00000,0.00000*
1,1,1.20000,0.00000,0.00000*
1,1,1.20000,0.00000,0.00000*
%
%ADD50ROUNDEDRECTD50*%
%ADD51O,1.80000X1.10000*%
%ADD52O,2.10000X3.35000*%
G04:AMPARAMS|DCode=53|XSize=2.1mm|YSize=3.35mm|CornerRadius=1.05mm|HoleSize=0mm|Usage=FLASHONLY|Rotation=180.000|XOffset=0mm|YOffset=0mm|HoleType=Round|Shape=RoundedRectangle|*
%AMROUNDEDRECTD53*
21,1,2.10000,1.25000,0,0,180.0*
21,1,0.00000,3.35000,0,0,180.0*
1,1,2.10000,0.00000,0.62500*
1,1,2.10000,0.00000,0.62500*
1,1,2.10000,0.00000,-0.62500*
1,1,2.10000,0.00000,-0.62500*
%
%ADD53ROUNDEDRECTD53*%
D11*
X8000000Y2300000D02*
D03*
X8080000D02*
D03*
X8160000D02*
D03*
X8240000D02*
D03*
X6960000Y980000D02*
D03*
Y1060000D02*
D03*
Y1140000D02*
D03*
Y1220000D02*
D03*
Y1300000D02*
D03*
X8720000Y1060000D02*
D03*
Y1300000D02*
D03*
Y1140000D02*
D03*
Y1220000D02*
D03*
Y980000D02*
D03*
X8240000Y700000D02*
D03*
X8160000D02*
D03*
X8080000D02*
D03*
X8000000D02*
D03*
X6080000D02*
D03*
X6160000D02*
D03*
X6240000D02*
D03*
X6320000D02*
D03*
X6800000Y980000D02*
D03*
Y1220000D02*
D03*
Y1140000D02*
D03*
Y1300000D02*
D03*
Y1060000D02*
D03*
X5040000Y1300000D02*
D03*
Y1220000D02*
D03*
Y1140000D02*
D03*
Y1060000D02*
D03*
Y980000D02*
D03*
X6320000Y2300000D02*
D03*
X6240000D02*
D03*
X6160000D02*
D03*
X6080000D02*
D03*
X4160000D02*
D03*
X4240000D02*
D03*
X4320000D02*
D03*
X4400000D02*
D03*
X3120000Y980000D02*
D03*
Y1060000D02*
D03*
Y1140000D02*
D03*
Y1220000D02*
D03*
Y1300000D02*
D03*
X4880000Y1060000D02*
D03*
Y1300000D02*
D03*
Y1140000D02*
D03*
Y1220000D02*
D03*
Y980000D02*
D03*
X4400000Y700000D02*
D03*
X4320000D02*
D03*
X4240000D02*
D03*
X4160000D02*
D03*
X2240000D02*
D03*
X2320000D02*
D03*
X2400000D02*
D03*
X2480000D02*
D03*
X2960000Y980000D02*
D03*
Y1220000D02*
D03*
Y1140000D02*
D03*
Y1300000D02*
D03*
Y1060000D02*
D03*
X1200000Y1300000D02*
D03*
Y1220000D02*
D03*
Y1140000D02*
D03*
Y1060000D02*
D03*
Y980000D02*
D03*
X2480000Y2300000D02*
D03*
X2400000D02*
D03*
X2320000D02*
D03*
X2240000D02*
D03*
X8000000Y5820000D02*
D03*
X8080000D02*
D03*
X8160000D02*
D03*
X8240000D02*
D03*
X6960000Y4500000D02*
D03*
Y4580000D02*
D03*
Y4660000D02*
D03*
Y4740000D02*
D03*
Y4820000D02*
D03*
X8720000Y4580000D02*
D03*
Y4820000D02*
D03*
Y4660000D02*
D03*
Y4740000D02*
D03*
Y4500000D02*
D03*
X8240000Y4220000D02*
D03*
X8160000D02*
D03*
X8080000D02*
D03*
X8000000D02*
D03*
Y2460000D02*
D03*
X8080000D02*
D03*
X8160000D02*
D03*
X8240000D02*
D03*
X8720000Y2740000D02*
D03*
Y2980000D02*
D03*
Y2900000D02*
D03*
Y3060000D02*
D03*
Y2820000D02*
D03*
X6960000Y3060000D02*
D03*
Y2980000D02*
D03*
Y2900000D02*
D03*
Y2820000D02*
D03*
Y2740000D02*
D03*
X8240000Y4060000D02*
D03*
X8160000D02*
D03*
X8080000D02*
D03*
X8000000D02*
D03*
X6080000Y4220000D02*
D03*
X6160000D02*
D03*
X6240000D02*
D03*
X6320000D02*
D03*
X6800000Y4500000D02*
D03*
Y4740000D02*
D03*
Y4660000D02*
D03*
Y4820000D02*
D03*
Y4580000D02*
D03*
X5040000Y4820000D02*
D03*
Y4740000D02*
D03*
Y4660000D02*
D03*
Y4580000D02*
D03*
Y4500000D02*
D03*
X6320000Y5820000D02*
D03*
X6240000D02*
D03*
X6160000D02*
D03*
X6080000D02*
D03*
Y2460000D02*
D03*
X6160000D02*
D03*
X6240000D02*
D03*
X6320000D02*
D03*
X6800000Y2740000D02*
D03*
Y2980000D02*
D03*
Y2900000D02*
D03*
Y3060000D02*
D03*
Y2820000D02*
D03*
X5040000Y3060000D02*
D03*
Y2980000D02*
D03*
Y2900000D02*
D03*
Y2820000D02*
D03*
Y2740000D02*
D03*
X6320000Y4060000D02*
D03*
X6240000D02*
D03*
X6160000D02*
D03*
X6080000D02*
D03*
X4160000Y5820000D02*
D03*
X4240000D02*
D03*
X4320000D02*
D03*
X4400000D02*
D03*
X3120000Y4500000D02*
D03*
Y4580000D02*
D03*
Y4660000D02*
D03*
Y4740000D02*
D03*
Y4820000D02*
D03*
X4880000Y4580000D02*
D03*
Y4820000D02*
D03*
Y4660000D02*
D03*
Y4740000D02*
D03*
Y4500000D02*
D03*
X4400000Y4220000D02*
D03*
X4320000D02*
D03*
X4240000D02*
D03*
X4160000D02*
D03*
Y2460000D02*
D03*
X4240000D02*
D03*
X4320000D02*
D03*
X4400000D02*
D03*
X4880000Y2740000D02*
D03*
Y2980000D02*
D03*
Y2900000D02*
D03*
Y3060000D02*
D03*
Y2820000D02*
D03*
X3120000Y3060000D02*
D03*
Y2980000D02*
D03*
Y2900000D02*
D03*
Y2820000D02*
D03*
Y2740000D02*
D03*
X4400000Y4060000D02*
D03*
X4320000D02*
D03*
X4240000D02*
D03*
X4160000D02*
D03*
X2240000Y4220000D02*
D03*
X2320000D02*
D03*
X2400000D02*
D03*
X2480000D02*
D03*
X2960000Y4500000D02*
D03*
Y4740000D02*
D03*
Y4660000D02*
D03*
Y4820000D02*
D03*
Y4580000D02*
D03*
X1200000Y4820000D02*
D03*
Y4740000D02*
D03*
Y4660000D02*
D03*
Y4580000D02*
D03*
Y4500000D02*
D03*
X2480000Y5820000D02*
D03*
X2400000D02*
D03*
X2320000D02*
D03*
X2240000D02*
D03*
Y2460000D02*
D03*
X2320000D02*
D03*
X2400000D02*
D03*
X2480000D02*
D03*
X2960000Y2740000D02*
D03*
Y2980000D02*
D03*
Y2900000D02*
D03*
Y3060000D02*
D03*
Y2820000D02*
D03*
X1200000Y3060000D02*
D03*
Y2980000D02*
D03*
Y2900000D02*
D03*
Y2820000D02*
D03*
Y2740000D02*
D03*
X2480000Y4060000D02*
D03*
X2400000D02*
D03*
X2320000D02*
D03*
X2240000D02*
D03*
X4160000Y9340000D02*
D03*
X4240000D02*
D03*
X4320000D02*
D03*
X4400000D02*
D03*
X3120000Y8020000D02*
D03*
Y8100000D02*
D03*
Y8180000D02*
D03*
Y8260000D02*
D03*
Y8340000D02*
D03*
X4880000Y8100000D02*
D03*
Y8340000D02*
D03*
Y8180000D02*
D03*
Y8260000D02*
D03*
Y8020000D02*
D03*
X4400000Y7740000D02*
D03*
X4320000D02*
D03*
X4240000D02*
D03*
X4160000D02*
D03*
Y5980000D02*
D03*
X4240000D02*
D03*
X4320000D02*
D03*
X4400000D02*
D03*
X4880000Y6260000D02*
D03*
Y6500000D02*
D03*
Y6420000D02*
D03*
Y6580000D02*
D03*
Y6340000D02*
D03*
X3120000Y6580000D02*
D03*
Y6500000D02*
D03*
Y6420000D02*
D03*
Y6340000D02*
D03*
Y6260000D02*
D03*
X4400000Y7580000D02*
D03*
X4320000D02*
D03*
X4240000D02*
D03*
X4160000D02*
D03*
X2240000Y7740000D02*
D03*
X2320000D02*
D03*
X2400000D02*
D03*
X2480000D02*
D03*
X2960000Y8020000D02*
D03*
Y8260000D02*
D03*
Y8180000D02*
D03*
Y8340000D02*
D03*
Y8100000D02*
D03*
X1200000Y8340000D02*
D03*
Y8260000D02*
D03*
Y8180000D02*
D03*
Y8100000D02*
D03*
Y8020000D02*
D03*
X2480000Y9340000D02*
D03*
X2400000D02*
D03*
X2320000D02*
D03*
X2240000D02*
D03*
Y5980000D02*
D03*
X2320000D02*
D03*
X2400000D02*
D03*
X2480000D02*
D03*
X2960000Y6260000D02*
D03*
Y6500000D02*
D03*
Y6420000D02*
D03*
Y6580000D02*
D03*
Y6340000D02*
D03*
X1200000Y6580000D02*
D03*
Y6500000D02*
D03*
Y6420000D02*
D03*
Y6340000D02*
D03*
Y6260000D02*
D03*
X2480000Y7580000D02*
D03*
X2400000D02*
D03*
X2320000D02*
D03*
X2240000D02*
D03*
X6080000D02*
D03*
X6160000D02*
D03*
X6240000D02*
D03*
X6320000D02*
D03*
X5040000Y6260000D02*
D03*
Y6340000D02*
D03*
Y6420000D02*
D03*
Y6500000D02*
D03*
Y6580000D02*
D03*
X6800000Y6340000D02*
D03*
Y6580000D02*
D03*
Y6420000D02*
D03*
Y6500000D02*
D03*
Y6260000D02*
D03*
X6320000Y5980000D02*
D03*
X6240000D02*
D03*
X6160000D02*
D03*
X6080000D02*
D03*
Y9340000D02*
D03*
X6160000D02*
D03*
X6240000D02*
D03*
X6320000D02*
D03*
X5040000Y8020000D02*
D03*
Y8100000D02*
D03*
Y8180000D02*
D03*
Y8260000D02*
D03*
Y8340000D02*
D03*
X6800000Y8100000D02*
D03*
Y8340000D02*
D03*
Y8180000D02*
D03*
Y8260000D02*
D03*
Y8020000D02*
D03*
X6320000Y7740000D02*
D03*
X6240000D02*
D03*
X6160000D02*
D03*
X6080000D02*
D03*
X8000000Y7580000D02*
D03*
X8080000D02*
D03*
X8160000D02*
D03*
X8240000D02*
D03*
X6960000Y6260000D02*
D03*
Y6340000D02*
D03*
Y6420000D02*
D03*
Y6500000D02*
D03*
Y6580000D02*
D03*
X8720000Y6340000D02*
D03*
Y6580000D02*
D03*
Y6420000D02*
D03*
Y6500000D02*
D03*
Y6260000D02*
D03*
X8240000Y5980000D02*
D03*
X8160000D02*
D03*
X8080000D02*
D03*
X8000000D02*
D03*
Y7740000D02*
D03*
X8080000D02*
D03*
X8160000D02*
D03*
X8240000D02*
D03*
X8720000Y8020000D02*
D03*
Y8260000D02*
D03*
Y8180000D02*
D03*
Y8340000D02*
D03*
Y8100000D02*
D03*
X6960000Y8340000D02*
D03*
Y8260000D02*
D03*
Y8180000D02*
D03*
Y8100000D02*
D03*
Y8020000D02*
D03*
X8240000Y9340000D02*
D03*
X8160000D02*
D03*
X8080000D02*
D03*
X8000000D02*
D03*
D37*
X500000Y1500000D02*
D03*
X9500000D02*
D03*
X500000Y8500000D02*
D03*
X9500000D02*
D03*
D47*
X500000Y500000D02*
D03*
X9500000D02*
D03*
Y9500000D02*
D03*
X500000D02*
D03*
D48*
X2613480Y2032000D02*
D03*
Y1632000D02*
D03*
X4533480Y2032000D02*
D03*
Y1632000D02*
D03*
X6453480Y2032000D02*
D03*
Y1632000D02*
D03*
X8373480Y2032000D02*
D03*
Y1632000D02*
D03*
X2613480Y3792000D02*
D03*
Y3392000D02*
D03*
X4533480Y3792000D02*
D03*
Y3392000D02*
D03*
X6453480Y3792000D02*
D03*
Y3392000D02*
D03*
X8373480Y3792000D02*
D03*
Y3392000D02*
D03*
X2613480Y5552000D02*
D03*
Y5152000D02*
D03*
X4533480Y5552000D02*
D03*
Y5152000D02*
D03*
X6453480Y5552000D02*
D03*
Y5152000D02*
D03*
X8373480Y5552000D02*
D03*
Y5152000D02*
D03*
X2613480Y7312000D02*
D03*
Y6912000D02*
D03*
X4533480Y7312000D02*
D03*
Y6912000D02*
D03*
X6453480Y7312000D02*
D03*
Y6912000D02*
D03*
X8373480Y7312000D02*
D03*
Y6912000D02*
D03*
X2613480Y9072000D02*
D03*
Y8672000D02*
D03*
X4533480Y9072000D02*
D03*
Y8672000D02*
D03*
X6453480Y9072000D02*
D03*
Y8672000D02*
D03*
X8373480Y9072000D02*
D03*
Y8672000D02*
D03*
D49*
X2848480Y1549000D02*
D03*
Y2115000D02*
D03*
X4768480Y1549000D02*
D03*
Y2115000D02*
D03*
X6688480Y1549000D02*
D03*
Y2115000D02*
D03*
X8608480Y1549000D02*
D03*
Y2115000D02*
D03*
X2848480Y3309000D02*
D03*
Y3875000D02*
D03*
X4768480Y3309000D02*
D03*
Y3875000D02*
D03*
X6688480Y3309000D02*
D03*
Y3875000D02*
D03*
X8608480Y3309000D02*
D03*
Y3875000D02*
D03*
X2848480Y5069000D02*
D03*
Y5635000D02*
D03*
X4768480Y5069000D02*
D03*
Y5635000D02*
D03*
X6688480Y5069000D02*
D03*
Y5635000D02*
D03*
X8608480Y5069000D02*
D03*
Y5635000D02*
D03*
X2848480Y6829000D02*
D03*
Y7395000D02*
D03*
X4768480Y6829000D02*
D03*
Y7395000D02*
D03*
X6688480Y6829000D02*
D03*
Y7395000D02*
D03*
X8608480Y6829000D02*
D03*
Y7395000D02*
D03*
X2848480Y8589000D02*
D03*
Y9155000D02*
D03*
X4768480Y8589000D02*
D03*
Y9155000D02*
D03*
X6688480Y8589000D02*
D03*
Y9155000D02*
D03*
X8608480Y8589000D02*
D03*
Y9155000D02*
D03*
D50*
X2644000Y1081000D02*
D03*
Y1335000D02*
D03*
Y827000D02*
D03*
X4564000Y1081000D02*
D03*
Y1335000D02*
D03*
Y827000D02*
D03*
X6484000Y1081000D02*
D03*
Y1335000D02*
D03*
Y827000D02*
D03*
X8404000Y1081000D02*
D03*
Y1335000D02*
D03*
Y827000D02*
D03*
X2644000Y2841000D02*
D03*
Y3095000D02*
D03*
Y2587000D02*
D03*
X4564000Y2841000D02*
D03*
Y3095000D02*
D03*
Y2587000D02*
D03*
X6484000Y2841000D02*
D03*
Y3095000D02*
D03*
Y2587000D02*
D03*
X8404000Y2841000D02*
D03*
Y3095000D02*
D03*
Y2587000D02*
D03*
X2644000Y4601000D02*
D03*
Y4855000D02*
D03*
Y4347000D02*
D03*
X4564000Y4601000D02*
D03*
Y4855000D02*
D03*
Y4347000D02*
D03*
X6484000Y4601000D02*
D03*
Y4855000D02*
D03*
Y4347000D02*
D03*
X8404000Y4601000D02*
D03*
Y4855000D02*
D03*
Y4347000D02*
D03*
X2644000Y6361000D02*
D03*
Y6615000D02*
D03*
Y6107000D02*
D03*
X4564000Y6361000D02*
D03*
Y6615000D02*
D03*
Y6107000D02*
D03*
X6484000Y6361000D02*
D03*
Y6615000D02*
D03*
Y6107000D02*
D03*
X8404000Y6361000D02*
D03*
Y6615000D02*
D03*
Y6107000D02*
D03*
X2644000Y8121000D02*
D03*
Y8375000D02*
D03*
Y7867000D02*
D03*
X4564000Y8121000D02*
D03*
Y8375000D02*
D03*
Y7867000D02*
D03*
X6484000Y8121000D02*
D03*
Y8375000D02*
D03*
Y7867000D02*
D03*
X8404000Y8121000D02*
D03*
Y8375000D02*
D03*
Y7867000D02*
D03*
D51*
X1605420Y775500D02*
D03*
X2105420D02*
D03*
X1855420Y2225500D02*
D03*
X1605420D02*
D03*
X2105420D02*
D03*
X3525420Y775500D02*
D03*
X4025420D02*
D03*
X3775420Y2225500D02*
D03*
X3525420D02*
D03*
X4025420D02*
D03*
X5445420Y775500D02*
D03*
X5945420D02*
D03*
X5695420Y2225500D02*
D03*
X5445420D02*
D03*
X5945420D02*
D03*
X7365420Y775500D02*
D03*
X7865420D02*
D03*
X7615420Y2225500D02*
D03*
X7365420D02*
D03*
X7865420D02*
D03*
X1605420Y2535500D02*
D03*
X2105420D02*
D03*
X1855420Y3985500D02*
D03*
X1605420D02*
D03*
X2105420D02*
D03*
X3525420Y2535500D02*
D03*
X4025420D02*
D03*
X3775420Y3985500D02*
D03*
X3525420D02*
D03*
X4025420D02*
D03*
X5445420Y2535500D02*
D03*
X5945420D02*
D03*
X5695420Y3985500D02*
D03*
X5445420D02*
D03*
X5945420D02*
D03*
X7365420Y2535500D02*
D03*
X7865420D02*
D03*
X7615420Y3985500D02*
D03*
X7365420D02*
D03*
X7865420D02*
D03*
X1605420Y4295500D02*
D03*
X2105420D02*
D03*
X1855420Y5745500D02*
D03*
X1605420D02*
D03*
X2105420D02*
D03*
X3525420Y4295500D02*
D03*
X4025420D02*
D03*
X3775420Y5745500D02*
D03*
X3525420D02*
D03*
X4025420D02*
D03*
X5445420Y4295500D02*
D03*
X5945420D02*
D03*
X5695420Y5745500D02*
D03*
X5445420D02*
D03*
X5945420D02*
D03*
X7365420Y4295500D02*
D03*
X7865420D02*
D03*
X7615420Y5745500D02*
D03*
X7365420D02*
D03*
X7865420D02*
D03*
X1605420Y6055500D02*
D03*
X2105420D02*
D03*
X1855420Y7505500D02*
D03*
X1605420D02*
D03*
X2105420D02*
D03*
X3525420Y6055500D02*
D03*
X4025420D02*
D03*
X3775420Y7505500D02*
D03*
X3525420D02*
D03*
X4025420D02*
D03*
X5445420Y6055500D02*
D03*
X5945420D02*
D03*
X5695420Y7505500D02*
D03*
X5445420D02*
D03*
X5945420D02*
D03*
X7365420Y6055500D02*
D03*
X7865420D02*
D03*
X7615420Y7505500D02*
D03*
X7365420D02*
D03*
X7865420D02*
D03*
X1605420Y7815500D02*
D03*
X2105420D02*
D03*
X1855420Y9265500D02*
D03*
X1605420D02*
D03*
X2105420D02*
D03*
X3525420Y7815500D02*
D03*
X4025420D02*
D03*
X3775420Y9265500D02*
D03*
X3525420D02*
D03*
X4025420D02*
D03*
X5445420Y7815500D02*
D03*
X5945420D02*
D03*
X5695420Y9265500D02*
D03*
X5445420D02*
D03*
X5945420D02*
D03*
X7365420Y7815500D02*
D03*
X7865420D02*
D03*
X7615420Y9265500D02*
D03*
X7365420D02*
D03*
X7865420D02*
D03*
D52*
X1317920Y1500500D02*
D03*
X3237920D02*
D03*
X5157920D02*
D03*
X7077920D02*
D03*
X1317920Y3260500D02*
D03*
X3237920D02*
D03*
X5157920D02*
D03*
X7077920D02*
D03*
X1317920Y5020500D02*
D03*
X3237920D02*
D03*
X5157920D02*
D03*
X7077920D02*
D03*
X1317920Y6780500D02*
D03*
X3237920D02*
D03*
X5157920D02*
D03*
X7077920D02*
D03*
X1317920Y8540500D02*
D03*
X3237920D02*
D03*
X5157920D02*
D03*
X7077920D02*
D03*
D53*
X2392920Y1500500D02*
D03*
X4312920D02*
D03*
X6232920D02*
D03*
X8152920D02*
D03*
X2392920Y3260500D02*
D03*
X4312920D02*
D03*
X6232920D02*
D03*
X8152920D02*
D03*
X2392920Y5020500D02*
D03*
X4312920D02*
D03*
X6232920D02*
D03*
X8152920D02*
D03*
X2392920Y6780500D02*
D03*
X4312920D02*
D03*
X6232920D02*
D03*
X8152920D02*
D03*
X2392920Y8540500D02*
D03*
X4312920D02*
D03*
X6232920D02*
D03*
X8152920D02*
D03*
%TF.MD5,83c967fc148013862206f45df75280d0*%
M02*
