M48
;Layer_Color=9474304
;FILE_FORMAT=4:4
METRIC
;TYPE=NON_PLATED
T6F00S00C0.5000
T7F00S00C0.6000
T8F00S00C2.0000
%
T06
X00261348Y00163200
Y00203200
Y00339200
X00453348
Y00203200
Y00163200
X00645348
Y00203200
Y00339200
X00837348
Y00203200
Y00163200
Y00379200
Y00515200
Y00555200
Y00691200
Y00731200
X00645348
Y00691200
Y00555200
Y00515200
Y00379200
X00453348
Y00515200
Y00555200
Y00691200
Y00731200
X00261348
Y00691200
Y00555200
Y00515200
Y00379200
Y00867200
Y00907200
X00453348
Y00867200
X00645348
Y00907200
X00837348
Y00867200
T07
X00120000Y00098000
Y00106000
Y00114000
Y00122000
Y00130000
Y00274000
Y00282000
Y00290000
Y00298000
Y00306000
X00224000Y00246000
X00232000
X00240000
X00248000
Y00230000
X00240000
X00232000
X00224000
X00296000Y00274000
Y00282000
Y00290000
Y00298000
Y00306000
X00312000
Y00298000
Y00290000
Y00282000
Y00274000
Y00130000
Y00122000
Y00114000
Y00106000
Y00098000
X00296000
Y00106000
Y00114000
Y00122000
Y00130000
X00248000Y00070000
X00240000
X00232000
X00224000
X00416000
X00424000
X00432000
X00440000
X00488000Y00098000
Y00106000
Y00114000
Y00122000
Y00130000
X00504000
Y00122000
Y00114000
Y00106000
Y00098000
X00608000Y00070000
X00616000
X00624000
X00632000
X00680000Y00098000
Y00106000
Y00114000
Y00122000
Y00130000
X00696000
Y00122000
Y00114000
Y00106000
Y00098000
Y00274000
Y00282000
Y00290000
Y00298000
Y00306000
X00680000
Y00298000
Y00290000
Y00282000
Y00274000
X00632000Y00246000
X00624000
X00616000
X00608000
Y00230000
X00616000
X00624000
X00632000
X00504000Y00274000
Y00282000
Y00290000
Y00298000
Y00306000
X00488000
Y00298000
Y00290000
Y00282000
Y00274000
X00440000Y00246000
X00432000
X00424000
X00416000
Y00230000
X00424000
X00432000
X00440000
X00800000
X00808000
X00816000
X00824000
Y00246000
X00816000
X00808000
X00800000
X00872000Y00274000
Y00282000
Y00290000
Y00298000
Y00306000
Y00130000
Y00122000
Y00114000
Y00106000
Y00098000
X00824000Y00070000
X00816000
X00808000
X00800000
Y00406000
X00808000
X00816000
X00824000
Y00422000
X00816000
X00808000
X00800000
X00872000Y00450000
Y00458000
Y00466000
Y00474000
Y00482000
Y00626000
Y00634000
Y00642000
Y00650000
Y00658000
X00824000Y00598000
X00816000
X00808000
X00800000
Y00582000
X00808000
X00816000
X00824000
X00696000Y00626000
Y00634000
Y00642000
Y00650000
Y00658000
X00680000
Y00650000
Y00642000
Y00634000
Y00626000
X00632000Y00598000
X00624000
X00616000
X00608000
Y00582000
X00616000
X00624000
X00632000
X00680000Y00482000
Y00474000
Y00466000
Y00458000
Y00450000
X00696000
Y00458000
Y00466000
Y00474000
Y00482000
X00632000Y00422000
X00624000
X00616000
X00608000
Y00406000
X00616000
X00624000
X00632000
X00504000Y00450000
Y00458000
Y00466000
Y00474000
Y00482000
X00488000
Y00474000
Y00466000
Y00458000
Y00450000
X00440000Y00422000
X00432000
X00424000
X00416000
Y00406000
X00424000
X00432000
X00440000
Y00582000
X00432000
X00424000
X00416000
Y00598000
X00424000
X00432000
X00440000
X00488000Y00626000
Y00634000
Y00642000
Y00650000
Y00658000
X00504000
Y00650000
Y00642000
Y00634000
Y00626000
X00312000
Y00634000
Y00642000
Y00650000
Y00658000
X00296000
Y00650000
Y00642000
Y00634000
Y00626000
X00248000Y00598000
X00240000
X00232000
X00224000
Y00582000
X00232000
X00240000
X00248000
X00296000Y00482000
Y00474000
Y00466000
Y00458000
Y00450000
X00312000
Y00458000
Y00466000
Y00474000
Y00482000
X00248000Y00422000
X00240000
X00232000
X00224000
Y00406000
X00232000
X00240000
X00248000
X00120000Y00450000
Y00458000
Y00466000
Y00474000
Y00482000
Y00626000
Y00634000
Y00642000
Y00650000
Y00658000
Y00802000
Y00810000
Y00818000
Y00826000
Y00834000
X00224000Y00774000
X00232000
X00240000
X00248000
Y00758000
X00240000
X00232000
X00224000
X00296000Y00802000
Y00810000
Y00818000
Y00826000
Y00834000
X00312000
Y00826000
Y00818000
Y00810000
Y00802000
X00248000Y00934000
X00240000
X00232000
X00224000
X00416000
X00424000
X00432000
X00440000
X00488000Y00834000
Y00826000
Y00818000
Y00810000
Y00802000
X00504000
Y00810000
Y00818000
Y00826000
Y00834000
X00440000Y00774000
X00432000
X00424000
X00416000
Y00758000
X00424000
X00432000
X00440000
X00608000
X00616000
X00624000
X00632000
Y00774000
X00624000
X00616000
X00608000
X00680000Y00802000
Y00810000
Y00818000
Y00826000
Y00834000
X00696000
Y00826000
Y00818000
Y00810000
Y00802000
X00632000Y00934000
X00624000
X00616000
X00608000
X00800000
X00808000
X00816000
X00824000
X00872000Y00834000
Y00826000
Y00818000
Y00810000
Y00802000
X00824000Y00774000
X00816000
X00808000
X00800000
Y00758000
X00808000
X00816000
X00824000
T08
X00050000Y00050000
X00950000
X00050000Y00950000
X00950000
M30
