%TF.GenerationSoftware,Altium Limited,Altium Designer,20.1.8 (145)*%
G04 Layer_Color=65535*
%FSLAX45Y45*%
%MOMM*%
%TF.SameCoordinates,0AB19B83-9B04-4470-A1CB-4E81E99A1085*%
%TF.FilePolarity,Positive*%
%TF.FileFunction,Legend,Top*%
%TF.Part,CustomerPanel*%
G01*
G75*
%TA.AperFunction,NonConductor*%
%ADD33C,0.10160*%
%ADD36C,0.12700*%
D33*
X1248360Y895500D02*
Y2105500D01*
X2463750D01*
X1248360Y895500D02*
X2463750D01*
Y2105500D01*
X3168360Y895500D02*
Y2105500D01*
X4383750D01*
X3168360Y895500D02*
X4383750D01*
Y2105500D01*
X5088360Y895500D02*
Y2105500D01*
X6303750D01*
X5088360Y895500D02*
X6303750D01*
Y2105500D01*
X7008360Y895500D02*
Y2105500D01*
X8223750D01*
X7008360Y895500D02*
X8223750D01*
Y2105500D01*
X1248360Y2655500D02*
Y3865500D01*
X2463750D01*
X1248360Y2655500D02*
X2463750D01*
Y3865500D01*
X3168360Y2655500D02*
Y3865500D01*
X4383750D01*
X3168360Y2655500D02*
X4383750D01*
Y3865500D01*
X5088360Y2655500D02*
Y3865500D01*
X6303750D01*
X5088360Y2655500D02*
X6303750D01*
Y3865500D01*
X7008360Y2655500D02*
Y3865500D01*
X8223750D01*
X7008360Y2655500D02*
X8223750D01*
Y3865500D01*
X1248360Y4415500D02*
Y5625500D01*
X2463750D01*
X1248360Y4415500D02*
X2463750D01*
Y5625500D01*
X3168360Y4415500D02*
Y5625500D01*
X4383750D01*
X3168360Y4415500D02*
X4383750D01*
Y5625500D01*
X5088360Y4415500D02*
Y5625500D01*
X6303750D01*
X5088360Y4415500D02*
X6303750D01*
Y5625500D01*
X7008360Y4415500D02*
Y5625500D01*
X8223750D01*
X7008360Y4415500D02*
X8223750D01*
Y5625500D01*
X1248360Y6175500D02*
Y7385500D01*
X2463750D01*
X1248360Y6175500D02*
X2463750D01*
Y7385500D01*
X3168360Y6175500D02*
Y7385500D01*
X4383750D01*
X3168360Y6175500D02*
X4383750D01*
Y7385500D01*
X5088360Y6175500D02*
Y7385500D01*
X6303750D01*
X5088360Y6175500D02*
X6303750D01*
Y7385500D01*
X7008360Y6175500D02*
Y7385500D01*
X8223750D01*
X7008360Y6175500D02*
X8223750D01*
Y7385500D01*
X1248360Y7935500D02*
Y9145500D01*
X2463750D01*
X1248360Y7935500D02*
X2463750D01*
Y9145500D01*
X3168360Y7935500D02*
Y9145500D01*
X4383750D01*
X3168360Y7935500D02*
X4383750D01*
Y9145500D01*
X5088360Y7935500D02*
Y9145500D01*
X6303750D01*
X5088360Y7935500D02*
X6303750D01*
Y9145500D01*
X7008360Y7935500D02*
Y9145500D01*
X8223750D01*
X7008360Y7935500D02*
X8223750D01*
Y9145500D01*
D36*
X1421718Y1075651D02*
Y1136591D01*
X1452188D01*
X1462345Y1126435D01*
Y1106121D01*
X1452188Y1095965D01*
X1421718D01*
X1442031D02*
X1462345Y1075651D01*
X1513128Y1136591D02*
X1492815D01*
X1482658Y1126435D01*
Y1085808D01*
X1492815Y1075651D01*
X1513128D01*
X1523285Y1085808D01*
Y1126435D01*
X1513128Y1136591D01*
X1543598D02*
X1584225D01*
X1563912D01*
Y1075651D01*
X1604539D02*
Y1116278D01*
X1624852Y1136591D01*
X1645165Y1116278D01*
Y1075651D01*
Y1106121D01*
X1604539D01*
X1665479Y1075651D02*
Y1136591D01*
X1695949D01*
X1706106Y1126435D01*
Y1106121D01*
X1695949Y1095965D01*
X1665479D01*
X1685792D02*
X1706106Y1075651D01*
X1726419Y1136591D02*
Y1126435D01*
X1746732Y1106121D01*
X1767046Y1126435D01*
Y1136591D01*
X1746732Y1106121D02*
Y1075651D01*
X1787359Y1065494D02*
X1827986D01*
X1888926Y1136591D02*
X1848299D01*
Y1075651D01*
X1888926D01*
X1848299Y1106121D02*
X1868613D01*
X1909240Y1075651D02*
Y1136591D01*
X1949866Y1075651D01*
Y1136591D01*
X2010806Y1126435D02*
X2000650Y1136591D01*
X1980336D01*
X1970180Y1126435D01*
Y1085808D01*
X1980336Y1075651D01*
X2000650D01*
X2010806Y1085808D01*
X2061590Y1136591D02*
X2041277D01*
X2031120Y1126435D01*
Y1085808D01*
X2041277Y1075651D01*
X2061590D01*
X2071747Y1085808D01*
Y1126435D01*
X2061590Y1136591D01*
X2092060D02*
Y1075651D01*
X2122530D01*
X2132687Y1085808D01*
Y1126435D01*
X2122530Y1136591D01*
X2092060D01*
X2193627D02*
X2153000D01*
Y1075651D01*
X2193627D01*
X2153000Y1106121D02*
X2173314D01*
X2213940Y1075651D02*
Y1136591D01*
X2244411D01*
X2254567Y1126435D01*
Y1106121D01*
X2244411Y1095965D01*
X2213940D01*
X2234254D02*
X2254567Y1075651D01*
X3341718D02*
Y1136591D01*
X3372188D01*
X3382345Y1126435D01*
Y1106121D01*
X3372188Y1095965D01*
X3341718D01*
X3362031D02*
X3382345Y1075651D01*
X3433128Y1136591D02*
X3412815D01*
X3402658Y1126435D01*
Y1085808D01*
X3412815Y1075651D01*
X3433128D01*
X3443285Y1085808D01*
Y1126435D01*
X3433128Y1136591D01*
X3463598D02*
X3504225D01*
X3483912D01*
Y1075651D01*
X3524539D02*
Y1116278D01*
X3544852Y1136591D01*
X3565165Y1116278D01*
Y1075651D01*
Y1106121D01*
X3524539D01*
X3585479Y1075651D02*
Y1136591D01*
X3615949D01*
X3626106Y1126435D01*
Y1106121D01*
X3615949Y1095965D01*
X3585479D01*
X3605792D02*
X3626106Y1075651D01*
X3646419Y1136591D02*
Y1126435D01*
X3666732Y1106121D01*
X3687046Y1126435D01*
Y1136591D01*
X3666732Y1106121D02*
Y1075651D01*
X3707359Y1065494D02*
X3747986D01*
X3808926Y1136591D02*
X3768299D01*
Y1075651D01*
X3808926D01*
X3768299Y1106121D02*
X3788613D01*
X3829239Y1075651D02*
Y1136591D01*
X3869866Y1075651D01*
Y1136591D01*
X3930806Y1126435D02*
X3920650Y1136591D01*
X3900336D01*
X3890180Y1126435D01*
Y1085808D01*
X3900336Y1075651D01*
X3920650D01*
X3930806Y1085808D01*
X3981590Y1136591D02*
X3961277D01*
X3951120Y1126435D01*
Y1085808D01*
X3961277Y1075651D01*
X3981590D01*
X3991747Y1085808D01*
Y1126435D01*
X3981590Y1136591D01*
X4012060D02*
Y1075651D01*
X4042530D01*
X4052687Y1085808D01*
Y1126435D01*
X4042530Y1136591D01*
X4012060D01*
X4113627D02*
X4073000D01*
Y1075651D01*
X4113627D01*
X4073000Y1106121D02*
X4093314D01*
X4133940Y1075651D02*
Y1136591D01*
X4164411D01*
X4174567Y1126435D01*
Y1106121D01*
X4164411Y1095965D01*
X4133940D01*
X4154254D02*
X4174567Y1075651D01*
X5261718D02*
Y1136591D01*
X5292188D01*
X5302345Y1126435D01*
Y1106121D01*
X5292188Y1095965D01*
X5261718D01*
X5282031D02*
X5302345Y1075651D01*
X5353128Y1136591D02*
X5332815D01*
X5322658Y1126435D01*
Y1085808D01*
X5332815Y1075651D01*
X5353128D01*
X5363285Y1085808D01*
Y1126435D01*
X5353128Y1136591D01*
X5383598D02*
X5424225D01*
X5403912D01*
Y1075651D01*
X5444539D02*
Y1116278D01*
X5464852Y1136591D01*
X5485165Y1116278D01*
Y1075651D01*
Y1106121D01*
X5444539D01*
X5505479Y1075651D02*
Y1136591D01*
X5535949D01*
X5546105Y1126435D01*
Y1106121D01*
X5535949Y1095965D01*
X5505479D01*
X5525792D02*
X5546105Y1075651D01*
X5566419Y1136591D02*
Y1126435D01*
X5586732Y1106121D01*
X5607046Y1126435D01*
Y1136591D01*
X5586732Y1106121D02*
Y1075651D01*
X5627359Y1065494D02*
X5667986D01*
X5728926Y1136591D02*
X5688299D01*
Y1075651D01*
X5728926D01*
X5688299Y1106121D02*
X5708613D01*
X5749239Y1075651D02*
Y1136591D01*
X5789866Y1075651D01*
Y1136591D01*
X5850806Y1126435D02*
X5840650Y1136591D01*
X5820336D01*
X5810180Y1126435D01*
Y1085808D01*
X5820336Y1075651D01*
X5840650D01*
X5850806Y1085808D01*
X5901590Y1136591D02*
X5881277D01*
X5871120Y1126435D01*
Y1085808D01*
X5881277Y1075651D01*
X5901590D01*
X5911747Y1085808D01*
Y1126435D01*
X5901590Y1136591D01*
X5932060D02*
Y1075651D01*
X5962530D01*
X5972687Y1085808D01*
Y1126435D01*
X5962530Y1136591D01*
X5932060D01*
X6033627D02*
X5993000D01*
Y1075651D01*
X6033627D01*
X5993000Y1106121D02*
X6013314D01*
X6053940Y1075651D02*
Y1136591D01*
X6084410D01*
X6094567Y1126435D01*
Y1106121D01*
X6084410Y1095965D01*
X6053940D01*
X6074254D02*
X6094567Y1075651D01*
X7181718D02*
Y1136591D01*
X7212188D01*
X7222345Y1126435D01*
Y1106121D01*
X7212188Y1095965D01*
X7181718D01*
X7202031D02*
X7222345Y1075651D01*
X7273128Y1136591D02*
X7252815D01*
X7242658Y1126435D01*
Y1085808D01*
X7252815Y1075651D01*
X7273128D01*
X7283285Y1085808D01*
Y1126435D01*
X7273128Y1136591D01*
X7303598D02*
X7344225D01*
X7323912D01*
Y1075651D01*
X7364538D02*
Y1116278D01*
X7384852Y1136591D01*
X7405165Y1116278D01*
Y1075651D01*
Y1106121D01*
X7364538D01*
X7425479Y1075651D02*
Y1136591D01*
X7455949D01*
X7466105Y1126435D01*
Y1106121D01*
X7455949Y1095965D01*
X7425479D01*
X7445792D02*
X7466105Y1075651D01*
X7486419Y1136591D02*
Y1126435D01*
X7506732Y1106121D01*
X7527046Y1126435D01*
Y1136591D01*
X7506732Y1106121D02*
Y1075651D01*
X7547359Y1065494D02*
X7587986D01*
X7648926Y1136591D02*
X7608299D01*
Y1075651D01*
X7648926D01*
X7608299Y1106121D02*
X7628613D01*
X7669239Y1075651D02*
Y1136591D01*
X7709866Y1075651D01*
Y1136591D01*
X7770806Y1126435D02*
X7760650Y1136591D01*
X7740336D01*
X7730180Y1126435D01*
Y1085808D01*
X7740336Y1075651D01*
X7760650D01*
X7770806Y1085808D01*
X7821590Y1136591D02*
X7801276D01*
X7791120Y1126435D01*
Y1085808D01*
X7801276Y1075651D01*
X7821590D01*
X7831747Y1085808D01*
Y1126435D01*
X7821590Y1136591D01*
X7852060D02*
Y1075651D01*
X7882530D01*
X7892687Y1085808D01*
Y1126435D01*
X7882530Y1136591D01*
X7852060D01*
X7953627D02*
X7913000D01*
Y1075651D01*
X7953627D01*
X7913000Y1106121D02*
X7933314D01*
X7973940Y1075651D02*
Y1136591D01*
X8004410D01*
X8014567Y1126435D01*
Y1106121D01*
X8004410Y1095965D01*
X7973940D01*
X7994254D02*
X8014567Y1075651D01*
X1421718Y2835651D02*
Y2896591D01*
X1452188D01*
X1462345Y2886435D01*
Y2866121D01*
X1452188Y2855965D01*
X1421718D01*
X1442031D02*
X1462345Y2835651D01*
X1513128Y2896591D02*
X1492815D01*
X1482658Y2886435D01*
Y2845808D01*
X1492815Y2835651D01*
X1513128D01*
X1523285Y2845808D01*
Y2886435D01*
X1513128Y2896591D01*
X1543598D02*
X1584225D01*
X1563912D01*
Y2835651D01*
X1604539D02*
Y2876278D01*
X1624852Y2896591D01*
X1645165Y2876278D01*
Y2835651D01*
Y2866121D01*
X1604539D01*
X1665479Y2835651D02*
Y2896591D01*
X1695949D01*
X1706106Y2886435D01*
Y2866121D01*
X1695949Y2855965D01*
X1665479D01*
X1685792D02*
X1706106Y2835651D01*
X1726419Y2896591D02*
Y2886435D01*
X1746732Y2866121D01*
X1767046Y2886435D01*
Y2896591D01*
X1746732Y2866121D02*
Y2835651D01*
X1787359Y2825494D02*
X1827986D01*
X1888926Y2896591D02*
X1848299D01*
Y2835651D01*
X1888926D01*
X1848299Y2866121D02*
X1868613D01*
X1909240Y2835651D02*
Y2896591D01*
X1949866Y2835651D01*
Y2896591D01*
X2010806Y2886435D02*
X2000650Y2896591D01*
X1980336D01*
X1970180Y2886435D01*
Y2845808D01*
X1980336Y2835651D01*
X2000650D01*
X2010806Y2845808D01*
X2061590Y2896591D02*
X2041277D01*
X2031120Y2886435D01*
Y2845808D01*
X2041277Y2835651D01*
X2061590D01*
X2071747Y2845808D01*
Y2886435D01*
X2061590Y2896591D01*
X2092060D02*
Y2835651D01*
X2122530D01*
X2132687Y2845808D01*
Y2886435D01*
X2122530Y2896591D01*
X2092060D01*
X2193627D02*
X2153000D01*
Y2835651D01*
X2193627D01*
X2153000Y2866121D02*
X2173314D01*
X2213940Y2835651D02*
Y2896591D01*
X2244411D01*
X2254567Y2886435D01*
Y2866121D01*
X2244411Y2855965D01*
X2213940D01*
X2234254D02*
X2254567Y2835651D01*
X3341718D02*
Y2896591D01*
X3372188D01*
X3382345Y2886435D01*
Y2866121D01*
X3372188Y2855965D01*
X3341718D01*
X3362031D02*
X3382345Y2835651D01*
X3433128Y2896591D02*
X3412815D01*
X3402658Y2886435D01*
Y2845808D01*
X3412815Y2835651D01*
X3433128D01*
X3443285Y2845808D01*
Y2886435D01*
X3433128Y2896591D01*
X3463598D02*
X3504225D01*
X3483912D01*
Y2835651D01*
X3524539D02*
Y2876278D01*
X3544852Y2896591D01*
X3565165Y2876278D01*
Y2835651D01*
Y2866121D01*
X3524539D01*
X3585479Y2835651D02*
Y2896591D01*
X3615949D01*
X3626106Y2886435D01*
Y2866121D01*
X3615949Y2855965D01*
X3585479D01*
X3605792D02*
X3626106Y2835651D01*
X3646419Y2896591D02*
Y2886435D01*
X3666732Y2866121D01*
X3687046Y2886435D01*
Y2896591D01*
X3666732Y2866121D02*
Y2835651D01*
X3707359Y2825494D02*
X3747986D01*
X3808926Y2896591D02*
X3768299D01*
Y2835651D01*
X3808926D01*
X3768299Y2866121D02*
X3788613D01*
X3829239Y2835651D02*
Y2896591D01*
X3869866Y2835651D01*
Y2896591D01*
X3930806Y2886435D02*
X3920650Y2896591D01*
X3900336D01*
X3890180Y2886435D01*
Y2845808D01*
X3900336Y2835651D01*
X3920650D01*
X3930806Y2845808D01*
X3981590Y2896591D02*
X3961277D01*
X3951120Y2886435D01*
Y2845808D01*
X3961277Y2835651D01*
X3981590D01*
X3991747Y2845808D01*
Y2886435D01*
X3981590Y2896591D01*
X4012060D02*
Y2835651D01*
X4042530D01*
X4052687Y2845808D01*
Y2886435D01*
X4042530Y2896591D01*
X4012060D01*
X4113627D02*
X4073000D01*
Y2835651D01*
X4113627D01*
X4073000Y2866121D02*
X4093314D01*
X4133940Y2835651D02*
Y2896591D01*
X4164411D01*
X4174567Y2886435D01*
Y2866121D01*
X4164411Y2855965D01*
X4133940D01*
X4154254D02*
X4174567Y2835651D01*
X5261718D02*
Y2896591D01*
X5292188D01*
X5302345Y2886435D01*
Y2866121D01*
X5292188Y2855965D01*
X5261718D01*
X5282031D02*
X5302345Y2835651D01*
X5353128Y2896591D02*
X5332815D01*
X5322658Y2886435D01*
Y2845808D01*
X5332815Y2835651D01*
X5353128D01*
X5363285Y2845808D01*
Y2886435D01*
X5353128Y2896591D01*
X5383598D02*
X5424225D01*
X5403912D01*
Y2835651D01*
X5444539D02*
Y2876278D01*
X5464852Y2896591D01*
X5485165Y2876278D01*
Y2835651D01*
Y2866121D01*
X5444539D01*
X5505479Y2835651D02*
Y2896591D01*
X5535949D01*
X5546105Y2886435D01*
Y2866121D01*
X5535949Y2855965D01*
X5505479D01*
X5525792D02*
X5546105Y2835651D01*
X5566419Y2896591D02*
Y2886435D01*
X5586732Y2866121D01*
X5607046Y2886435D01*
Y2896591D01*
X5586732Y2866121D02*
Y2835651D01*
X5627359Y2825494D02*
X5667986D01*
X5728926Y2896591D02*
X5688299D01*
Y2835651D01*
X5728926D01*
X5688299Y2866121D02*
X5708613D01*
X5749239Y2835651D02*
Y2896591D01*
X5789866Y2835651D01*
Y2896591D01*
X5850806Y2886435D02*
X5840650Y2896591D01*
X5820336D01*
X5810180Y2886435D01*
Y2845808D01*
X5820336Y2835651D01*
X5840650D01*
X5850806Y2845808D01*
X5901590Y2896591D02*
X5881277D01*
X5871120Y2886435D01*
Y2845808D01*
X5881277Y2835651D01*
X5901590D01*
X5911747Y2845808D01*
Y2886435D01*
X5901590Y2896591D01*
X5932060D02*
Y2835651D01*
X5962530D01*
X5972687Y2845808D01*
Y2886435D01*
X5962530Y2896591D01*
X5932060D01*
X6033627D02*
X5993000D01*
Y2835651D01*
X6033627D01*
X5993000Y2866121D02*
X6013314D01*
X6053940Y2835651D02*
Y2896591D01*
X6084410D01*
X6094567Y2886435D01*
Y2866121D01*
X6084410Y2855965D01*
X6053940D01*
X6074254D02*
X6094567Y2835651D01*
X7181718D02*
Y2896591D01*
X7212188D01*
X7222345Y2886435D01*
Y2866121D01*
X7212188Y2855965D01*
X7181718D01*
X7202031D02*
X7222345Y2835651D01*
X7273128Y2896591D02*
X7252815D01*
X7242658Y2886435D01*
Y2845808D01*
X7252815Y2835651D01*
X7273128D01*
X7283285Y2845808D01*
Y2886435D01*
X7273128Y2896591D01*
X7303598D02*
X7344225D01*
X7323912D01*
Y2835651D01*
X7364538D02*
Y2876278D01*
X7384852Y2896591D01*
X7405165Y2876278D01*
Y2835651D01*
Y2866121D01*
X7364538D01*
X7425479Y2835651D02*
Y2896591D01*
X7455949D01*
X7466105Y2886435D01*
Y2866121D01*
X7455949Y2855965D01*
X7425479D01*
X7445792D02*
X7466105Y2835651D01*
X7486419Y2896591D02*
Y2886435D01*
X7506732Y2866121D01*
X7527046Y2886435D01*
Y2896591D01*
X7506732Y2866121D02*
Y2835651D01*
X7547359Y2825494D02*
X7587986D01*
X7648926Y2896591D02*
X7608299D01*
Y2835651D01*
X7648926D01*
X7608299Y2866121D02*
X7628613D01*
X7669239Y2835651D02*
Y2896591D01*
X7709866Y2835651D01*
Y2896591D01*
X7770806Y2886435D02*
X7760650Y2896591D01*
X7740336D01*
X7730180Y2886435D01*
Y2845808D01*
X7740336Y2835651D01*
X7760650D01*
X7770806Y2845808D01*
X7821590Y2896591D02*
X7801276D01*
X7791120Y2886435D01*
Y2845808D01*
X7801276Y2835651D01*
X7821590D01*
X7831747Y2845808D01*
Y2886435D01*
X7821590Y2896591D01*
X7852060D02*
Y2835651D01*
X7882530D01*
X7892687Y2845808D01*
Y2886435D01*
X7882530Y2896591D01*
X7852060D01*
X7953627D02*
X7913000D01*
Y2835651D01*
X7953627D01*
X7913000Y2866121D02*
X7933314D01*
X7973940Y2835651D02*
Y2896591D01*
X8004410D01*
X8014567Y2886435D01*
Y2866121D01*
X8004410Y2855965D01*
X7973940D01*
X7994254D02*
X8014567Y2835651D01*
X1421718Y4595651D02*
Y4656591D01*
X1452188D01*
X1462345Y4646435D01*
Y4626121D01*
X1452188Y4615965D01*
X1421718D01*
X1442031D02*
X1462345Y4595651D01*
X1513128Y4656591D02*
X1492815D01*
X1482658Y4646435D01*
Y4605808D01*
X1492815Y4595651D01*
X1513128D01*
X1523285Y4605808D01*
Y4646435D01*
X1513128Y4656591D01*
X1543598D02*
X1584225D01*
X1563912D01*
Y4595651D01*
X1604539D02*
Y4636278D01*
X1624852Y4656591D01*
X1645165Y4636278D01*
Y4595651D01*
Y4626121D01*
X1604539D01*
X1665479Y4595651D02*
Y4656591D01*
X1695949D01*
X1706106Y4646435D01*
Y4626121D01*
X1695949Y4615965D01*
X1665479D01*
X1685792D02*
X1706106Y4595651D01*
X1726419Y4656591D02*
Y4646435D01*
X1746732Y4626121D01*
X1767046Y4646435D01*
Y4656591D01*
X1746732Y4626121D02*
Y4595651D01*
X1787359Y4585495D02*
X1827986D01*
X1888926Y4656591D02*
X1848299D01*
Y4595651D01*
X1888926D01*
X1848299Y4626121D02*
X1868613D01*
X1909240Y4595651D02*
Y4656591D01*
X1949866Y4595651D01*
Y4656591D01*
X2010806Y4646435D02*
X2000650Y4656591D01*
X1980336D01*
X1970180Y4646435D01*
Y4605808D01*
X1980336Y4595651D01*
X2000650D01*
X2010806Y4605808D01*
X2061590Y4656591D02*
X2041277D01*
X2031120Y4646435D01*
Y4605808D01*
X2041277Y4595651D01*
X2061590D01*
X2071747Y4605808D01*
Y4646435D01*
X2061590Y4656591D01*
X2092060D02*
Y4595651D01*
X2122530D01*
X2132687Y4605808D01*
Y4646435D01*
X2122530Y4656591D01*
X2092060D01*
X2193627D02*
X2153000D01*
Y4595651D01*
X2193627D01*
X2153000Y4626121D02*
X2173314D01*
X2213940Y4595651D02*
Y4656591D01*
X2244411D01*
X2254567Y4646435D01*
Y4626121D01*
X2244411Y4615965D01*
X2213940D01*
X2234254D02*
X2254567Y4595651D01*
X3341718D02*
Y4656591D01*
X3372188D01*
X3382345Y4646435D01*
Y4626121D01*
X3372188Y4615965D01*
X3341718D01*
X3362031D02*
X3382345Y4595651D01*
X3433128Y4656591D02*
X3412815D01*
X3402658Y4646435D01*
Y4605808D01*
X3412815Y4595651D01*
X3433128D01*
X3443285Y4605808D01*
Y4646435D01*
X3433128Y4656591D01*
X3463598D02*
X3504225D01*
X3483912D01*
Y4595651D01*
X3524539D02*
Y4636278D01*
X3544852Y4656591D01*
X3565165Y4636278D01*
Y4595651D01*
Y4626121D01*
X3524539D01*
X3585479Y4595651D02*
Y4656591D01*
X3615949D01*
X3626106Y4646435D01*
Y4626121D01*
X3615949Y4615965D01*
X3585479D01*
X3605792D02*
X3626106Y4595651D01*
X3646419Y4656591D02*
Y4646435D01*
X3666732Y4626121D01*
X3687046Y4646435D01*
Y4656591D01*
X3666732Y4626121D02*
Y4595651D01*
X3707359Y4585495D02*
X3747986D01*
X3808926Y4656591D02*
X3768299D01*
Y4595651D01*
X3808926D01*
X3768299Y4626121D02*
X3788613D01*
X3829239Y4595651D02*
Y4656591D01*
X3869866Y4595651D01*
Y4656591D01*
X3930806Y4646435D02*
X3920650Y4656591D01*
X3900336D01*
X3890180Y4646435D01*
Y4605808D01*
X3900336Y4595651D01*
X3920650D01*
X3930806Y4605808D01*
X3981590Y4656591D02*
X3961277D01*
X3951120Y4646435D01*
Y4605808D01*
X3961277Y4595651D01*
X3981590D01*
X3991747Y4605808D01*
Y4646435D01*
X3981590Y4656591D01*
X4012060D02*
Y4595651D01*
X4042530D01*
X4052687Y4605808D01*
Y4646435D01*
X4042530Y4656591D01*
X4012060D01*
X4113627D02*
X4073000D01*
Y4595651D01*
X4113627D01*
X4073000Y4626121D02*
X4093314D01*
X4133940Y4595651D02*
Y4656591D01*
X4164411D01*
X4174567Y4646435D01*
Y4626121D01*
X4164411Y4615965D01*
X4133940D01*
X4154254D02*
X4174567Y4595651D01*
X5261718D02*
Y4656591D01*
X5292188D01*
X5302345Y4646435D01*
Y4626121D01*
X5292188Y4615965D01*
X5261718D01*
X5282031D02*
X5302345Y4595651D01*
X5353128Y4656591D02*
X5332815D01*
X5322658Y4646435D01*
Y4605808D01*
X5332815Y4595651D01*
X5353128D01*
X5363285Y4605808D01*
Y4646435D01*
X5353128Y4656591D01*
X5383598D02*
X5424225D01*
X5403912D01*
Y4595651D01*
X5444539D02*
Y4636278D01*
X5464852Y4656591D01*
X5485165Y4636278D01*
Y4595651D01*
Y4626121D01*
X5444539D01*
X5505479Y4595651D02*
Y4656591D01*
X5535949D01*
X5546105Y4646435D01*
Y4626121D01*
X5535949Y4615965D01*
X5505479D01*
X5525792D02*
X5546105Y4595651D01*
X5566419Y4656591D02*
Y4646435D01*
X5586732Y4626121D01*
X5607046Y4646435D01*
Y4656591D01*
X5586732Y4626121D02*
Y4595651D01*
X5627359Y4585495D02*
X5667986D01*
X5728926Y4656591D02*
X5688299D01*
Y4595651D01*
X5728926D01*
X5688299Y4626121D02*
X5708613D01*
X5749239Y4595651D02*
Y4656591D01*
X5789866Y4595651D01*
Y4656591D01*
X5850806Y4646435D02*
X5840650Y4656591D01*
X5820336D01*
X5810180Y4646435D01*
Y4605808D01*
X5820336Y4595651D01*
X5840650D01*
X5850806Y4605808D01*
X5901590Y4656591D02*
X5881277D01*
X5871120Y4646435D01*
Y4605808D01*
X5881277Y4595651D01*
X5901590D01*
X5911747Y4605808D01*
Y4646435D01*
X5901590Y4656591D01*
X5932060D02*
Y4595651D01*
X5962530D01*
X5972687Y4605808D01*
Y4646435D01*
X5962530Y4656591D01*
X5932060D01*
X6033627D02*
X5993000D01*
Y4595651D01*
X6033627D01*
X5993000Y4626121D02*
X6013314D01*
X6053940Y4595651D02*
Y4656591D01*
X6084410D01*
X6094567Y4646435D01*
Y4626121D01*
X6084410Y4615965D01*
X6053940D01*
X6074254D02*
X6094567Y4595651D01*
X7181718D02*
Y4656591D01*
X7212188D01*
X7222345Y4646435D01*
Y4626121D01*
X7212188Y4615965D01*
X7181718D01*
X7202031D02*
X7222345Y4595651D01*
X7273128Y4656591D02*
X7252815D01*
X7242658Y4646435D01*
Y4605808D01*
X7252815Y4595651D01*
X7273128D01*
X7283285Y4605808D01*
Y4646435D01*
X7273128Y4656591D01*
X7303598D02*
X7344225D01*
X7323912D01*
Y4595651D01*
X7364538D02*
Y4636278D01*
X7384852Y4656591D01*
X7405165Y4636278D01*
Y4595651D01*
Y4626121D01*
X7364538D01*
X7425479Y4595651D02*
Y4656591D01*
X7455949D01*
X7466105Y4646435D01*
Y4626121D01*
X7455949Y4615965D01*
X7425479D01*
X7445792D02*
X7466105Y4595651D01*
X7486419Y4656591D02*
Y4646435D01*
X7506732Y4626121D01*
X7527046Y4646435D01*
Y4656591D01*
X7506732Y4626121D02*
Y4595651D01*
X7547359Y4585495D02*
X7587986D01*
X7648926Y4656591D02*
X7608299D01*
Y4595651D01*
X7648926D01*
X7608299Y4626121D02*
X7628613D01*
X7669239Y4595651D02*
Y4656591D01*
X7709866Y4595651D01*
Y4656591D01*
X7770806Y4646435D02*
X7760650Y4656591D01*
X7740336D01*
X7730180Y4646435D01*
Y4605808D01*
X7740336Y4595651D01*
X7760650D01*
X7770806Y4605808D01*
X7821590Y4656591D02*
X7801276D01*
X7791120Y4646435D01*
Y4605808D01*
X7801276Y4595651D01*
X7821590D01*
X7831747Y4605808D01*
Y4646435D01*
X7821590Y4656591D01*
X7852060D02*
Y4595651D01*
X7882530D01*
X7892687Y4605808D01*
Y4646435D01*
X7882530Y4656591D01*
X7852060D01*
X7953627D02*
X7913000D01*
Y4595651D01*
X7953627D01*
X7913000Y4626121D02*
X7933314D01*
X7973940Y4595651D02*
Y4656591D01*
X8004410D01*
X8014567Y4646435D01*
Y4626121D01*
X8004410Y4615965D01*
X7973940D01*
X7994254D02*
X8014567Y4595651D01*
X1421718Y6355651D02*
Y6416591D01*
X1452188D01*
X1462345Y6406435D01*
Y6386121D01*
X1452188Y6375965D01*
X1421718D01*
X1442031D02*
X1462345Y6355651D01*
X1513128Y6416591D02*
X1492815D01*
X1482658Y6406435D01*
Y6365808D01*
X1492815Y6355651D01*
X1513128D01*
X1523285Y6365808D01*
Y6406435D01*
X1513128Y6416591D01*
X1543598D02*
X1584225D01*
X1563912D01*
Y6355651D01*
X1604539D02*
Y6396278D01*
X1624852Y6416591D01*
X1645165Y6396278D01*
Y6355651D01*
Y6386121D01*
X1604539D01*
X1665479Y6355651D02*
Y6416591D01*
X1695949D01*
X1706106Y6406435D01*
Y6386121D01*
X1695949Y6375965D01*
X1665479D01*
X1685792D02*
X1706106Y6355651D01*
X1726419Y6416591D02*
Y6406435D01*
X1746732Y6386121D01*
X1767046Y6406435D01*
Y6416591D01*
X1746732Y6386121D02*
Y6355651D01*
X1787359Y6345495D02*
X1827986D01*
X1888926Y6416591D02*
X1848299D01*
Y6355651D01*
X1888926D01*
X1848299Y6386121D02*
X1868613D01*
X1909240Y6355651D02*
Y6416591D01*
X1949866Y6355651D01*
Y6416591D01*
X2010806Y6406435D02*
X2000650Y6416591D01*
X1980336D01*
X1970180Y6406435D01*
Y6365808D01*
X1980336Y6355651D01*
X2000650D01*
X2010806Y6365808D01*
X2061590Y6416591D02*
X2041277D01*
X2031120Y6406435D01*
Y6365808D01*
X2041277Y6355651D01*
X2061590D01*
X2071747Y6365808D01*
Y6406435D01*
X2061590Y6416591D01*
X2092060D02*
Y6355651D01*
X2122530D01*
X2132687Y6365808D01*
Y6406435D01*
X2122530Y6416591D01*
X2092060D01*
X2193627D02*
X2153000D01*
Y6355651D01*
X2193627D01*
X2153000Y6386121D02*
X2173314D01*
X2213940Y6355651D02*
Y6416591D01*
X2244411D01*
X2254567Y6406435D01*
Y6386121D01*
X2244411Y6375965D01*
X2213940D01*
X2234254D02*
X2254567Y6355651D01*
X3341718D02*
Y6416591D01*
X3372188D01*
X3382345Y6406435D01*
Y6386121D01*
X3372188Y6375965D01*
X3341718D01*
X3362031D02*
X3382345Y6355651D01*
X3433128Y6416591D02*
X3412815D01*
X3402658Y6406435D01*
Y6365808D01*
X3412815Y6355651D01*
X3433128D01*
X3443285Y6365808D01*
Y6406435D01*
X3433128Y6416591D01*
X3463598D02*
X3504225D01*
X3483912D01*
Y6355651D01*
X3524539D02*
Y6396278D01*
X3544852Y6416591D01*
X3565165Y6396278D01*
Y6355651D01*
Y6386121D01*
X3524539D01*
X3585479Y6355651D02*
Y6416591D01*
X3615949D01*
X3626106Y6406435D01*
Y6386121D01*
X3615949Y6375965D01*
X3585479D01*
X3605792D02*
X3626106Y6355651D01*
X3646419Y6416591D02*
Y6406435D01*
X3666732Y6386121D01*
X3687046Y6406435D01*
Y6416591D01*
X3666732Y6386121D02*
Y6355651D01*
X3707359Y6345495D02*
X3747986D01*
X3808926Y6416591D02*
X3768299D01*
Y6355651D01*
X3808926D01*
X3768299Y6386121D02*
X3788613D01*
X3829239Y6355651D02*
Y6416591D01*
X3869866Y6355651D01*
Y6416591D01*
X3930806Y6406435D02*
X3920650Y6416591D01*
X3900336D01*
X3890180Y6406435D01*
Y6365808D01*
X3900336Y6355651D01*
X3920650D01*
X3930806Y6365808D01*
X3981590Y6416591D02*
X3961277D01*
X3951120Y6406435D01*
Y6365808D01*
X3961277Y6355651D01*
X3981590D01*
X3991747Y6365808D01*
Y6406435D01*
X3981590Y6416591D01*
X4012060D02*
Y6355651D01*
X4042530D01*
X4052687Y6365808D01*
Y6406435D01*
X4042530Y6416591D01*
X4012060D01*
X4113627D02*
X4073000D01*
Y6355651D01*
X4113627D01*
X4073000Y6386121D02*
X4093314D01*
X4133940Y6355651D02*
Y6416591D01*
X4164411D01*
X4174567Y6406435D01*
Y6386121D01*
X4164411Y6375965D01*
X4133940D01*
X4154254D02*
X4174567Y6355651D01*
X5261718D02*
Y6416591D01*
X5292188D01*
X5302345Y6406435D01*
Y6386121D01*
X5292188Y6375965D01*
X5261718D01*
X5282031D02*
X5302345Y6355651D01*
X5353128Y6416591D02*
X5332815D01*
X5322658Y6406435D01*
Y6365808D01*
X5332815Y6355651D01*
X5353128D01*
X5363285Y6365808D01*
Y6406435D01*
X5353128Y6416591D01*
X5383598D02*
X5424225D01*
X5403912D01*
Y6355651D01*
X5444539D02*
Y6396278D01*
X5464852Y6416591D01*
X5485165Y6396278D01*
Y6355651D01*
Y6386121D01*
X5444539D01*
X5505479Y6355651D02*
Y6416591D01*
X5535949D01*
X5546105Y6406435D01*
Y6386121D01*
X5535949Y6375965D01*
X5505479D01*
X5525792D02*
X5546105Y6355651D01*
X5566419Y6416591D02*
Y6406435D01*
X5586732Y6386121D01*
X5607046Y6406435D01*
Y6416591D01*
X5586732Y6386121D02*
Y6355651D01*
X5627359Y6345495D02*
X5667986D01*
X5728926Y6416591D02*
X5688299D01*
Y6355651D01*
X5728926D01*
X5688299Y6386121D02*
X5708613D01*
X5749239Y6355651D02*
Y6416591D01*
X5789866Y6355651D01*
Y6416591D01*
X5850806Y6406435D02*
X5840650Y6416591D01*
X5820336D01*
X5810180Y6406435D01*
Y6365808D01*
X5820336Y6355651D01*
X5840650D01*
X5850806Y6365808D01*
X5901590Y6416591D02*
X5881277D01*
X5871120Y6406435D01*
Y6365808D01*
X5881277Y6355651D01*
X5901590D01*
X5911747Y6365808D01*
Y6406435D01*
X5901590Y6416591D01*
X5932060D02*
Y6355651D01*
X5962530D01*
X5972687Y6365808D01*
Y6406435D01*
X5962530Y6416591D01*
X5932060D01*
X6033627D02*
X5993000D01*
Y6355651D01*
X6033627D01*
X5993000Y6386121D02*
X6013314D01*
X6053940Y6355651D02*
Y6416591D01*
X6084410D01*
X6094567Y6406435D01*
Y6386121D01*
X6084410Y6375965D01*
X6053940D01*
X6074254D02*
X6094567Y6355651D01*
X7181718D02*
Y6416591D01*
X7212188D01*
X7222345Y6406435D01*
Y6386121D01*
X7212188Y6375965D01*
X7181718D01*
X7202031D02*
X7222345Y6355651D01*
X7273128Y6416591D02*
X7252815D01*
X7242658Y6406435D01*
Y6365808D01*
X7252815Y6355651D01*
X7273128D01*
X7283285Y6365808D01*
Y6406435D01*
X7273128Y6416591D01*
X7303598D02*
X7344225D01*
X7323912D01*
Y6355651D01*
X7364538D02*
Y6396278D01*
X7384852Y6416591D01*
X7405165Y6396278D01*
Y6355651D01*
Y6386121D01*
X7364538D01*
X7425479Y6355651D02*
Y6416591D01*
X7455949D01*
X7466105Y6406435D01*
Y6386121D01*
X7455949Y6375965D01*
X7425479D01*
X7445792D02*
X7466105Y6355651D01*
X7486419Y6416591D02*
Y6406435D01*
X7506732Y6386121D01*
X7527046Y6406435D01*
Y6416591D01*
X7506732Y6386121D02*
Y6355651D01*
X7547359Y6345495D02*
X7587986D01*
X7648926Y6416591D02*
X7608299D01*
Y6355651D01*
X7648926D01*
X7608299Y6386121D02*
X7628613D01*
X7669239Y6355651D02*
Y6416591D01*
X7709866Y6355651D01*
Y6416591D01*
X7770806Y6406435D02*
X7760650Y6416591D01*
X7740336D01*
X7730180Y6406435D01*
Y6365808D01*
X7740336Y6355651D01*
X7760650D01*
X7770806Y6365808D01*
X7821590Y6416591D02*
X7801276D01*
X7791120Y6406435D01*
Y6365808D01*
X7801276Y6355651D01*
X7821590D01*
X7831747Y6365808D01*
Y6406435D01*
X7821590Y6416591D01*
X7852060D02*
Y6355651D01*
X7882530D01*
X7892687Y6365808D01*
Y6406435D01*
X7882530Y6416591D01*
X7852060D01*
X7953627D02*
X7913000D01*
Y6355651D01*
X7953627D01*
X7913000Y6386121D02*
X7933314D01*
X7973940Y6355651D02*
Y6416591D01*
X8004410D01*
X8014567Y6406435D01*
Y6386121D01*
X8004410Y6375965D01*
X7973940D01*
X7994254D02*
X8014567Y6355651D01*
X1421718Y8115651D02*
Y8176591D01*
X1452188D01*
X1462345Y8166435D01*
Y8146121D01*
X1452188Y8135965D01*
X1421718D01*
X1442031D02*
X1462345Y8115651D01*
X1513128Y8176591D02*
X1492815D01*
X1482658Y8166435D01*
Y8125808D01*
X1492815Y8115651D01*
X1513128D01*
X1523285Y8125808D01*
Y8166435D01*
X1513128Y8176591D01*
X1543598D02*
X1584225D01*
X1563912D01*
Y8115651D01*
X1604539D02*
Y8156278D01*
X1624852Y8176591D01*
X1645165Y8156278D01*
Y8115651D01*
Y8146121D01*
X1604539D01*
X1665479Y8115651D02*
Y8176591D01*
X1695949D01*
X1706106Y8166435D01*
Y8146121D01*
X1695949Y8135965D01*
X1665479D01*
X1685792D02*
X1706106Y8115651D01*
X1726419Y8176591D02*
Y8166435D01*
X1746732Y8146121D01*
X1767046Y8166435D01*
Y8176591D01*
X1746732Y8146121D02*
Y8115651D01*
X1787359Y8105495D02*
X1827986D01*
X1888926Y8176591D02*
X1848299D01*
Y8115651D01*
X1888926D01*
X1848299Y8146121D02*
X1868613D01*
X1909240Y8115651D02*
Y8176591D01*
X1949866Y8115651D01*
Y8176591D01*
X2010806Y8166435D02*
X2000650Y8176591D01*
X1980336D01*
X1970180Y8166435D01*
Y8125808D01*
X1980336Y8115651D01*
X2000650D01*
X2010806Y8125808D01*
X2061590Y8176591D02*
X2041277D01*
X2031120Y8166435D01*
Y8125808D01*
X2041277Y8115651D01*
X2061590D01*
X2071747Y8125808D01*
Y8166435D01*
X2061590Y8176591D01*
X2092060D02*
Y8115651D01*
X2122530D01*
X2132687Y8125808D01*
Y8166435D01*
X2122530Y8176591D01*
X2092060D01*
X2193627D02*
X2153000D01*
Y8115651D01*
X2193627D01*
X2153000Y8146121D02*
X2173314D01*
X2213940Y8115651D02*
Y8176591D01*
X2244411D01*
X2254567Y8166435D01*
Y8146121D01*
X2244411Y8135965D01*
X2213940D01*
X2234254D02*
X2254567Y8115651D01*
X3341718D02*
Y8176591D01*
X3372188D01*
X3382345Y8166435D01*
Y8146121D01*
X3372188Y8135965D01*
X3341718D01*
X3362031D02*
X3382345Y8115651D01*
X3433128Y8176591D02*
X3412815D01*
X3402658Y8166435D01*
Y8125808D01*
X3412815Y8115651D01*
X3433128D01*
X3443285Y8125808D01*
Y8166435D01*
X3433128Y8176591D01*
X3463598D02*
X3504225D01*
X3483912D01*
Y8115651D01*
X3524539D02*
Y8156278D01*
X3544852Y8176591D01*
X3565165Y8156278D01*
Y8115651D01*
Y8146121D01*
X3524539D01*
X3585479Y8115651D02*
Y8176591D01*
X3615949D01*
X3626106Y8166435D01*
Y8146121D01*
X3615949Y8135965D01*
X3585479D01*
X3605792D02*
X3626106Y8115651D01*
X3646419Y8176591D02*
Y8166435D01*
X3666732Y8146121D01*
X3687046Y8166435D01*
Y8176591D01*
X3666732Y8146121D02*
Y8115651D01*
X3707359Y8105495D02*
X3747986D01*
X3808926Y8176591D02*
X3768299D01*
Y8115651D01*
X3808926D01*
X3768299Y8146121D02*
X3788613D01*
X3829239Y8115651D02*
Y8176591D01*
X3869866Y8115651D01*
Y8176591D01*
X3930806Y8166435D02*
X3920650Y8176591D01*
X3900336D01*
X3890180Y8166435D01*
Y8125808D01*
X3900336Y8115651D01*
X3920650D01*
X3930806Y8125808D01*
X3981590Y8176591D02*
X3961277D01*
X3951120Y8166435D01*
Y8125808D01*
X3961277Y8115651D01*
X3981590D01*
X3991747Y8125808D01*
Y8166435D01*
X3981590Y8176591D01*
X4012060D02*
Y8115651D01*
X4042530D01*
X4052687Y8125808D01*
Y8166435D01*
X4042530Y8176591D01*
X4012060D01*
X4113627D02*
X4073000D01*
Y8115651D01*
X4113627D01*
X4073000Y8146121D02*
X4093314D01*
X4133940Y8115651D02*
Y8176591D01*
X4164411D01*
X4174567Y8166435D01*
Y8146121D01*
X4164411Y8135965D01*
X4133940D01*
X4154254D02*
X4174567Y8115651D01*
X5261718D02*
Y8176591D01*
X5292188D01*
X5302345Y8166435D01*
Y8146121D01*
X5292188Y8135965D01*
X5261718D01*
X5282031D02*
X5302345Y8115651D01*
X5353128Y8176591D02*
X5332815D01*
X5322658Y8166435D01*
Y8125808D01*
X5332815Y8115651D01*
X5353128D01*
X5363285Y8125808D01*
Y8166435D01*
X5353128Y8176591D01*
X5383598D02*
X5424225D01*
X5403912D01*
Y8115651D01*
X5444539D02*
Y8156278D01*
X5464852Y8176591D01*
X5485165Y8156278D01*
Y8115651D01*
Y8146121D01*
X5444539D01*
X5505479Y8115651D02*
Y8176591D01*
X5535949D01*
X5546105Y8166435D01*
Y8146121D01*
X5535949Y8135965D01*
X5505479D01*
X5525792D02*
X5546105Y8115651D01*
X5566419Y8176591D02*
Y8166435D01*
X5586732Y8146121D01*
X5607046Y8166435D01*
Y8176591D01*
X5586732Y8146121D02*
Y8115651D01*
X5627359Y8105495D02*
X5667986D01*
X5728926Y8176591D02*
X5688299D01*
Y8115651D01*
X5728926D01*
X5688299Y8146121D02*
X5708613D01*
X5749239Y8115651D02*
Y8176591D01*
X5789866Y8115651D01*
Y8176591D01*
X5850806Y8166435D02*
X5840650Y8176591D01*
X5820336D01*
X5810180Y8166435D01*
Y8125808D01*
X5820336Y8115651D01*
X5840650D01*
X5850806Y8125808D01*
X5901590Y8176591D02*
X5881277D01*
X5871120Y8166435D01*
Y8125808D01*
X5881277Y8115651D01*
X5901590D01*
X5911747Y8125808D01*
Y8166435D01*
X5901590Y8176591D01*
X5932060D02*
Y8115651D01*
X5962530D01*
X5972687Y8125808D01*
Y8166435D01*
X5962530Y8176591D01*
X5932060D01*
X6033627D02*
X5993000D01*
Y8115651D01*
X6033627D01*
X5993000Y8146121D02*
X6013314D01*
X6053940Y8115651D02*
Y8176591D01*
X6084410D01*
X6094567Y8166435D01*
Y8146121D01*
X6084410Y8135965D01*
X6053940D01*
X6074254D02*
X6094567Y8115651D01*
X7181718D02*
Y8176591D01*
X7212188D01*
X7222345Y8166435D01*
Y8146121D01*
X7212188Y8135965D01*
X7181718D01*
X7202031D02*
X7222345Y8115651D01*
X7273128Y8176591D02*
X7252815D01*
X7242658Y8166435D01*
Y8125808D01*
X7252815Y8115651D01*
X7273128D01*
X7283285Y8125808D01*
Y8166435D01*
X7273128Y8176591D01*
X7303598D02*
X7344225D01*
X7323912D01*
Y8115651D01*
X7364538D02*
Y8156278D01*
X7384852Y8176591D01*
X7405165Y8156278D01*
Y8115651D01*
Y8146121D01*
X7364538D01*
X7425479Y8115651D02*
Y8176591D01*
X7455949D01*
X7466105Y8166435D01*
Y8146121D01*
X7455949Y8135965D01*
X7425479D01*
X7445792D02*
X7466105Y8115651D01*
X7486419Y8176591D02*
Y8166435D01*
X7506732Y8146121D01*
X7527046Y8166435D01*
Y8176591D01*
X7506732Y8146121D02*
Y8115651D01*
X7547359Y8105495D02*
X7587986D01*
X7648926Y8176591D02*
X7608299D01*
Y8115651D01*
X7648926D01*
X7608299Y8146121D02*
X7628613D01*
X7669239Y8115651D02*
Y8176591D01*
X7709866Y8115651D01*
Y8176591D01*
X7770806Y8166435D02*
X7760650Y8176591D01*
X7740336D01*
X7730180Y8166435D01*
Y8125808D01*
X7740336Y8115651D01*
X7760650D01*
X7770806Y8125808D01*
X7821590Y8176591D02*
X7801276D01*
X7791120Y8166435D01*
Y8125808D01*
X7801276Y8115651D01*
X7821590D01*
X7831747Y8125808D01*
Y8166435D01*
X7821590Y8176591D01*
X7852060D02*
Y8115651D01*
X7882530D01*
X7892687Y8125808D01*
Y8166435D01*
X7882530Y8176591D01*
X7852060D01*
X7953627D02*
X7913000D01*
Y8115651D01*
X7953627D01*
X7913000Y8146121D02*
X7933314D01*
X7973940Y8115651D02*
Y8176591D01*
X8004410D01*
X8014567Y8166435D01*
Y8146121D01*
X8004410Y8135965D01*
X7973940D01*
X7994254D02*
X8014567Y8115651D01*
%TF.MD5,34974cbd84b083cad99631963c8c242e*%
M02*
