M48
;Layer_Color=9474304
;FILE_FORMAT=4:4
METRIC
;TYPE=PLATED
T2F00S00C0.5000
T4F00S00C0.9000
T5F00S00C1.2500
%
G90
G05
T02
G00X00164292Y00077550
M15
G01X00156792
M16
G00X00214292Y00077550
M15
G01X00206792
M16
G00X00214292Y00222550
M15
G01X00206792
M16
G00X00189292Y00222550
M15
G01X00181792
M16
G00X00164292Y00222550
M15
G01X00156792
M16
G00X00164292Y00253550
M15
G01X00156792
M16
G00X00214292Y00253550
M15
G01X00206792
M16
G00X00356292Y00253550
M15
G01X00348792
M16
G00X00356292Y00222550
M15
G01X00348792
M16
G00X00381292Y00222550
M15
G01X00373792
M16
G00X00406292Y00222550
M15
G01X00398792
M16
G00X00406292Y00253550
M15
G01X00398792
M16
G00X00548292Y00253550
M15
G01X00540792
M16
G00X00548292Y00222550
M15
G01X00540792
M16
G00X00573292Y00222550
M15
G01X00565792
M16
G00X00598292Y00222550
M15
G01X00590792
M16
G00X00598292Y00253550
M15
G01X00590792
M16
G00X00740292Y00253550
M15
G01X00732792
M16
G00X00740292Y00222550
M15
G01X00732792
M16
G00X00740292Y00077550
M15
G01X00732792
M16
G00X00598292Y00077550
M15
G01X00590792
M16
G00X00548292Y00077550
M15
G01X00540792
M16
G00X00406292Y00077550
M15
G01X00398792
M16
G00X00356292Y00077550
M15
G01X00348792
M16
G00X00790292Y00077550
M15
G01X00782792
M16
G00X00790292Y00222550
M15
G01X00782792
M16
G00X00765292Y00222550
M15
G01X00757792
M16
G00X00790292Y00253550
M15
G01X00782792
M16
G00X00790292Y00398550
M15
G01X00782792
M16
G00X00765292Y00398550
M15
G01X00757792
M16
G00X00790292Y00429550
M15
G01X00782792
M16
G00X00790292Y00574550
M15
G01X00782792
M16
G00X00765292Y00574550
M15
G01X00757792
M16
G00X00790292Y00605550
M15
G01X00782792
M16
G00X00740292Y00605550
M15
G01X00732792
M16
G00X00740292Y00574550
M15
G01X00732792
M16
G00X00598292Y00574550
M15
G01X00590792
M16
G00X00573292Y00574550
M15
G01X00565792
M16
G00X00548292Y00574550
M15
G01X00540792
M16
G00X00548292Y00605550
M15
G01X00540792
M16
G00X00598292Y00605550
M15
G01X00590792
M16
G00X00598292Y00429550
M15
G01X00590792
M16
G00X00598292Y00398550
M15
G01X00590792
M16
G00X00573292Y00398550
M15
G01X00565792
M16
G00X00548292Y00398550
M15
G01X00540792
M16
G00X00548292Y00429550
M15
G01X00540792
M16
G00X00406292Y00429550
M15
G01X00398792
M16
G00X00406292Y00398550
M15
G01X00398792
M16
G00X00381292Y00398550
M15
G01X00373792
M16
G00X00356292Y00398550
M15
G01X00348792
M16
G00X00356292Y00429550
M15
G01X00348792
M16
G00X00356292Y00574550
M15
G01X00348792
M16
G00X00381292Y00574550
M15
G01X00373792
M16
G00X00406292Y00574550
M15
G01X00398792
M16
G00X00406292Y00605550
M15
G01X00398792
M16
G00X00356292Y00605550
M15
G01X00348792
M16
G00X00740292Y00429550
M15
G01X00732792
M16
G00X00740292Y00398550
M15
G01X00732792
M16
G00X00214292Y00398550
M15
G01X00206792
M16
G00X00189292Y00398550
M15
G01X00181792
M16
G00X00164292Y00398550
M15
G01X00156792
M16
G00X00164292Y00429550
M15
G01X00156792
M16
G00X00214292Y00429550
M15
G01X00206792
M16
G00X00214292Y00574550
M15
G01X00206792
M16
G00X00189292Y00574550
M15
G01X00181792
M16
G00X00164292Y00574550
M15
G01X00156792
M16
G00X00164292Y00605550
M15
G01X00156792
M16
G00X00214292Y00605550
M15
G01X00206792
M16
G00X00214292Y00750550
M15
G01X00206792
M16
G00X00189292Y00750550
M15
G01X00181792
M16
G00X00164292Y00750550
M15
G01X00156792
M16
G00X00164292Y00781550
M15
G01X00156792
M16
G00X00214292Y00781550
M15
G01X00206792
M16
G00X00214292Y00926550
M15
G01X00206792
M16
G00X00189292Y00926550
M15
G01X00181792
M16
G00X00164292Y00926550
M15
G01X00156792
M16
G00X00356292Y00926550
M15
G01X00348792
M16
G00X00381292Y00926550
M15
G01X00373792
M16
G00X00406292Y00926550
M15
G01X00398792
M16
G00X00548292Y00926550
M15
G01X00540792
M16
G00X00573292Y00926550
M15
G01X00565792
M16
G00X00598292Y00926550
M15
G01X00590792
M16
G00X00740292Y00926550
M15
G01X00732792
M16
G00X00740292Y00781550
M15
G01X00732792
M16
G00X00740292Y00750550
M15
G01X00732792
M16
G00X00598292Y00750550
M15
G01X00590792
M16
G00X00573292Y00750550
M15
G01X00565792
M16
G00X00548292Y00750550
M15
G01X00540792
M16
G00X00548292Y00781550
M15
G01X00540792
M16
G00X00598292Y00781550
M15
G01X00590792
M16
G00X00406292Y00781550
M15
G01X00398792
M16
G00X00406292Y00750550
M15
G01X00398792
M16
G00X00381292Y00750550
M15
G01X00373792
M16
G00X00356292Y00750550
M15
G01X00348792
M16
G00X00356292Y00781550
M15
G01X00348792
M16
G00X00790292Y00781550
M15
G01X00782792
M16
G00X00790292Y00750550
M15
G01X00782792
M16
G00X00765292Y00750550
M15
G01X00757792
M16
G00X00765292Y00926550
M15
G01X00757792
M16
G00X00790292Y00926550
M15
G01X00782792
M16
T04
G00X00286348Y00154900
M15
G01X00283348
M16
G00X00286348Y00211500
M15
G01X00283348
M16
G00X00286348Y00330900
M15
G01X00283348
M16
G00X00478348Y00330900
M15
G01X00475348
M16
G00X00478348Y00211500
M15
G01X00475348
M16
G00X00478348Y00154900
M15
G01X00475348
M16
G00X00670348Y00154900
M15
G01X00667348
M16
G00X00670348Y00211500
M15
G01X00667348
M16
G00X00670348Y00330900
M15
G01X00667348
M16
G00X00862348Y00330900
M15
G01X00859348
M16
G00X00862348Y00211500
M15
G01X00859348
M16
G00X00862348Y00154900
M15
G01X00859348
M16
G00X00862348Y00387500
M15
G01X00859348
M16
G00X00862348Y00506900
M15
G01X00859348
M16
G00X00862348Y00563500
M15
G01X00859348
M16
G00X00862348Y00682900
M15
G01X00859348
M16
G00X00862348Y00739500
M15
G01X00859348
M16
G00X00670348Y00739500
M15
G01X00667348
M16
G00X00670348Y00682900
M15
G01X00667348
M16
G00X00670348Y00563500
M15
G01X00667348
M16
G00X00670348Y00506900
M15
G01X00667348
M16
G00X00670348Y00387500
M15
G01X00667348
M16
G00X00478348Y00387500
M15
G01X00475348
M16
G00X00478348Y00506900
M15
G01X00475348
M16
G00X00478348Y00563500
M15
G01X00475348
M16
G00X00478348Y00682900
M15
G01X00475348
M16
G00X00478348Y00739500
M15
G01X00475348
M16
G00X00286348Y00739500
M15
G01X00283348
M16
G00X00286348Y00682900
M15
G01X00283348
M16
G00X00286348Y00563500
M15
G01X00283348
M16
G00X00286348Y00506900
M15
G01X00283348
M16
G00X00286348Y00387500
M15
G01X00283348
M16
G00X00286348Y00858900
M15
G01X00283348
M16
G00X00286348Y00915500
M15
G01X00283348
M16
G00X00478348Y00915500
M15
G01X00475348
M16
G00X00478348Y00858900
M15
G01X00475348
M16
G00X00670348Y00858900
M15
G01X00667348
M16
G00X00670348Y00915500
M15
G01X00667348
M16
G00X00862348Y00915500
M15
G01X00859348
M16
G00X00862348Y00858900
M15
G01X00859348
M16
T05
G00X00131792Y00156300
M15
G01Y00143800
M16
G00X00239292Y00156300
M15
G01Y00143800
M16
G00X00323792Y00156300
M15
G01Y00143800
M16
G00X00323792Y00332300
M15
G01Y00319800
M16
G00X00239292Y00332300
M15
G01Y00319800
M16
G00X00131792Y00332300
M15
G01Y00319800
M16
G00X00431292Y00332300
M15
G01Y00319800
M16
G00X00515792Y00332300
M15
G01Y00319800
M16
G00X00623292Y00332300
M15
G01Y00319800
M16
G00X00707792Y00332300
M15
G01Y00319800
M16
G00X00707792Y00156300
M15
G01Y00143800
M16
G00X00623292Y00156300
M15
G01Y00143800
M16
G00X00515792Y00156300
M15
G01Y00143800
M16
G00X00431292Y00156300
M15
G01Y00143800
M16
G00X00815292Y00156300
M15
G01Y00143800
M16
G00X00815292Y00332300
M15
G01Y00319800
M16
G00X00815292Y00508300
M15
G01Y00495800
M16
G00X00815292Y00684300
M15
G01Y00671800
M16
G00X00707792Y00684300
M15
G01Y00671800
M16
G00X00623292Y00684300
M15
G01Y00671800
M16
G00X00515792Y00684300
M15
G01Y00671800
M16
G00X00431292Y00684300
M15
G01Y00671800
M16
G00X00431292Y00508300
M15
G01Y00495800
M16
G00X00515792Y00508300
M15
G01Y00495800
M16
G00X00623292Y00508300
M15
G01Y00495800
M16
G00X00707792Y00508300
M15
G01Y00495800
M16
G00X00323792Y00508300
M15
G01Y00495800
M16
G00X00239292Y00508300
M15
G01Y00495800
M16
G00X00131792Y00508300
M15
G01Y00495800
M16
G00X00131792Y00684300
M15
G01Y00671800
M16
G00X00239292Y00684300
M15
G01Y00671800
M16
G00X00323792Y00684300
M15
G01Y00671800
M16
G00X00323792Y00860300
M15
G01Y00847800
M16
G00X00239292Y00860300
M15
G01Y00847800
M16
G00X00131792Y00860300
M15
G01Y00847800
M16
G00X00431292Y00860300
M15
G01Y00847800
M16
G00X00515792Y00860300
M15
G01Y00847800
M16
G00X00623292Y00860300
M15
G01Y00847800
M16
G00X00707792Y00860300
M15
G01Y00847800
M16
G00X00815292Y00860300
M15
G01Y00847800
M16
M17
M30
