%TF.GenerationSoftware,Altium Limited,Altium Designer,20.1.8 (145)*%
G04 Layer_Color=32896*
%FSLAX45Y45*%
%MOMM*%
%TF.SameCoordinates,0AB19B83-9B04-4470-A1CB-4E81E99A1085*%
%TF.FilePolarity,Positive*%
%TF.FileFunction,Legend,Bot*%
%TF.Part,CustomerPanel*%
G01*
G75*
%TA.AperFunction,NonConductor*%
%ADD33C,0.10160*%
%ADD34C,0.20000*%
%ADD35C,0.10000*%
%ADD36C,0.12700*%
D33*
X1758440Y1539000D02*
G03*
X1758440Y1539000I-20000J0D01*
G01*
X1704640Y1803300D02*
X1924641D01*
X1704640Y1503300D02*
X1924641D01*
Y1803300D01*
X1704640Y1503300D02*
Y1803300D01*
X2560980Y1646000D02*
Y1666000D01*
X2695246Y1549000D02*
X2725980D01*
X2560980Y1997261D02*
Y2017261D01*
X2688719Y2115000D02*
X2725980D01*
X2935980Y1652000D02*
Y2012000D01*
X1254300Y1995860D02*
X1374300D01*
Y1735860D02*
Y1995860D01*
X1254300Y1735860D02*
X1374300D01*
X1254300D02*
Y1995860D01*
X1341280Y1883165D02*
X1351280Y1893165D01*
X1348780Y1873165D02*
X1358780Y1883165D01*
X1288780Y1865665D02*
X1313780D01*
X1288780D02*
X1313780Y1893165D01*
X1338780Y1865665D01*
X1313780D02*
X1338780D01*
X1313780Y1833165D02*
Y1865665D01*
X2099581Y1314127D02*
Y1434126D01*
X1839581Y1314127D02*
Y1434126D01*
X1982081Y1374127D02*
X1994580D01*
X1944581D02*
X1957080D01*
X1982081Y1349127D02*
Y1399126D01*
X1957080Y1349127D02*
Y1399126D01*
X1839581Y1314127D02*
X1899580D01*
X1839581Y1434126D02*
X1899580D01*
X2039581Y1314127D02*
X2099581D01*
X2039581Y1434126D02*
X2099581D01*
X2127639Y1547511D02*
Y1607511D01*
X2247639Y1547511D02*
Y1607511D01*
X2127639Y1347511D02*
Y1407511D01*
X2247639Y1347511D02*
Y1407511D01*
X2162639Y1465011D02*
X2212639D01*
X2162639Y1490011D02*
X2212639D01*
X2187639Y1452511D02*
Y1465011D01*
Y1490011D02*
Y1502511D01*
X2127639Y1347511D02*
X2247639D01*
X2127639Y1607511D02*
X2247639D01*
X1584641Y1254276D02*
X1602141Y1259276D01*
X1584641Y1254276D02*
X1622141Y1244276D01*
X1584641Y1234275D02*
X1622141Y1244276D01*
X1584641Y1234275D02*
X1622141Y1224275D01*
X1597141Y1214276D02*
X1622141Y1224275D01*
X1662140Y1106776D02*
Y1366776D01*
X1542141D02*
X1662140D01*
X1542141Y1106776D02*
Y1366776D01*
Y1106776D02*
X1662140D01*
X1537800Y2147125D02*
X1657800D01*
Y1887125D02*
Y2147125D01*
X1537800Y1887125D02*
X1657800D01*
X1537800D02*
Y2147125D01*
X1577800Y2029625D02*
X1602800Y2039625D01*
X1577800Y2029625D02*
X1615300Y2019625D01*
X1577800Y2009625D02*
X1615300Y2019625D01*
X1577800Y2009625D02*
X1615300Y1999625D01*
X1597800Y1994625D02*
X1615300Y1999625D01*
X1949960Y2067860D02*
X1954960Y2050360D01*
X1964960Y2087860D01*
X1974960Y2050360D01*
X1984960Y2087860D01*
X1994960Y2062860D01*
X1842460Y2127860D02*
X2102460D01*
X1842460Y2007860D02*
Y2127860D01*
Y2007860D02*
X2102460D01*
Y2127860D01*
X2518750Y1021000D02*
Y1141000D01*
X2258750Y1021000D02*
X2518750D01*
X2258750D02*
Y1141000D01*
X2518750D01*
X2401250Y1101000D02*
X2411250Y1076000D01*
X2391250Y1063500D02*
X2401250Y1101000D01*
X2381250D02*
X2391250Y1063500D01*
X2371250D02*
X2381250Y1101000D01*
X2366250Y1081000D02*
X2371250Y1063500D01*
X1949580Y1236776D02*
X1954580Y1219276D01*
X1964580Y1256776D01*
X1974581Y1219276D01*
X1984580Y1256776D01*
X1994580Y1231776D01*
X1842080Y1296775D02*
X2102080D01*
X1842080Y1176776D02*
Y1296775D01*
Y1176776D02*
X2102080D01*
Y1296775D01*
X2382848Y1741920D02*
Y1769860D01*
X2395548Y1757160D01*
X2372688D02*
X2395548D01*
X2372688D02*
X2382848Y1769860D01*
X2408248Y1926760D02*
X2418408Y1939460D01*
X2395548D02*
X2418408D01*
X2395548D02*
X2408248Y1926760D01*
Y1954700D01*
X2261440Y1934380D02*
Y1962320D01*
X2274140Y1949620D01*
X2251280D02*
X2274140D01*
X2251280D02*
X2261440Y1962320D01*
X2481140Y2052860D02*
Y2100360D01*
X2201140Y2052860D02*
X2481140D01*
X2201140D02*
Y2100360D01*
X2481140Y2125360D02*
Y2172860D01*
X2201140D02*
X2481140D01*
X2201140Y2125360D02*
Y2172860D01*
X1581529Y1693805D02*
X1623849D01*
X1632313Y1685341D01*
Y1668413D01*
X1623849Y1659949D01*
X1581529D01*
X1632313Y1643021D02*
Y1626093D01*
Y1634557D01*
X1581529D01*
X1589993Y1643021D01*
X3678440Y1539000D02*
G03*
X3678440Y1539000I-20000J0D01*
G01*
X3624640Y1803300D02*
X3844641D01*
X3624640Y1503300D02*
X3844641D01*
Y1803300D01*
X3624640Y1503300D02*
Y1803300D01*
X4480980Y1646000D02*
Y1666000D01*
X4615246Y1549000D02*
X4645980D01*
X4480980Y1997261D02*
Y2017261D01*
X4608719Y2115000D02*
X4645980D01*
X4855980Y1652000D02*
Y2012000D01*
X3174300Y1995860D02*
X3294300D01*
Y1735860D02*
Y1995860D01*
X3174300Y1735860D02*
X3294300D01*
X3174300D02*
Y1995860D01*
X3261280Y1883165D02*
X3271280Y1893165D01*
X3268780Y1873165D02*
X3278780Y1883165D01*
X3208780Y1865665D02*
X3233780D01*
X3208780D02*
X3233780Y1893165D01*
X3258780Y1865665D01*
X3233780D02*
X3258780D01*
X3233780Y1833165D02*
Y1865665D01*
X4019580Y1314127D02*
Y1434126D01*
X3759580Y1314127D02*
Y1434126D01*
X3902081Y1374127D02*
X3914580D01*
X3864581D02*
X3877080D01*
X3902081Y1349127D02*
Y1399126D01*
X3877080Y1349127D02*
Y1399126D01*
X3759580Y1314127D02*
X3819580D01*
X3759580Y1434126D02*
X3819580D01*
X3959581Y1314127D02*
X4019580D01*
X3959581Y1434126D02*
X4019580D01*
X4047639Y1547511D02*
Y1607511D01*
X4167639Y1547511D02*
Y1607511D01*
X4047639Y1347511D02*
Y1407511D01*
X4167639Y1347511D02*
Y1407511D01*
X4082639Y1465011D02*
X4132639D01*
X4082639Y1490011D02*
X4132639D01*
X4107639Y1452511D02*
Y1465011D01*
Y1490011D02*
Y1502511D01*
X4047639Y1347511D02*
X4167639D01*
X4047639Y1607511D02*
X4167639D01*
X3504641Y1254276D02*
X3522141Y1259276D01*
X3504641Y1254276D02*
X3542141Y1244276D01*
X3504641Y1234275D02*
X3542141Y1244276D01*
X3504641Y1234275D02*
X3542141Y1224275D01*
X3517141Y1214276D02*
X3542141Y1224275D01*
X3582140Y1106776D02*
Y1366776D01*
X3462141D02*
X3582140D01*
X3462141Y1106776D02*
Y1366776D01*
Y1106776D02*
X3582140D01*
X3457800Y2147125D02*
X3577800D01*
Y1887125D02*
Y2147125D01*
X3457800Y1887125D02*
X3577800D01*
X3457800D02*
Y2147125D01*
X3497800Y2029625D02*
X3522800Y2039625D01*
X3497800Y2029625D02*
X3535300Y2019625D01*
X3497800Y2009625D02*
X3535300Y2019625D01*
X3497800Y2009625D02*
X3535300Y1999625D01*
X3517800Y1994625D02*
X3535300Y1999625D01*
X3869960Y2067860D02*
X3874960Y2050360D01*
X3884960Y2087860D01*
X3894960Y2050360D01*
X3904960Y2087860D01*
X3914960Y2062860D01*
X3762460Y2127860D02*
X4022460D01*
X3762460Y2007860D02*
Y2127860D01*
Y2007860D02*
X4022460D01*
Y2127860D01*
X4438750Y1021000D02*
Y1141000D01*
X4178750Y1021000D02*
X4438750D01*
X4178750D02*
Y1141000D01*
X4438750D01*
X4321250Y1101000D02*
X4331250Y1076000D01*
X4311250Y1063500D02*
X4321250Y1101000D01*
X4301250D02*
X4311250Y1063500D01*
X4291250D02*
X4301250Y1101000D01*
X4286250Y1081000D02*
X4291250Y1063500D01*
X3869580Y1236776D02*
X3874580Y1219276D01*
X3884580Y1256776D01*
X3894580Y1219276D01*
X3904580Y1256776D01*
X3914580Y1231776D01*
X3762080Y1296775D02*
X4022080D01*
X3762080Y1176776D02*
Y1296775D01*
Y1176776D02*
X4022080D01*
Y1296775D01*
X4302848Y1741920D02*
Y1769860D01*
X4315548Y1757160D01*
X4292688D02*
X4315548D01*
X4292688D02*
X4302848Y1769860D01*
X4328248Y1926760D02*
X4338408Y1939460D01*
X4315548D02*
X4338408D01*
X4315548D02*
X4328248Y1926760D01*
Y1954700D01*
X4181440Y1934380D02*
Y1962320D01*
X4194140Y1949620D01*
X4171280D02*
X4194140D01*
X4171280D02*
X4181440Y1962320D01*
X4401140Y2052860D02*
Y2100360D01*
X4121140Y2052860D02*
X4401140D01*
X4121140D02*
Y2100360D01*
X4401140Y2125360D02*
Y2172860D01*
X4121140D02*
X4401140D01*
X4121140Y2125360D02*
Y2172860D01*
X3501529Y1693805D02*
X3543849D01*
X3552313Y1685341D01*
Y1668413D01*
X3543849Y1659949D01*
X3501529D01*
X3552313Y1643021D02*
Y1626093D01*
Y1634557D01*
X3501529D01*
X3509993Y1643021D01*
X5598440Y1539000D02*
G03*
X5598440Y1539000I-20000J0D01*
G01*
X5544640Y1803300D02*
X5764640D01*
X5544640Y1503300D02*
X5764640D01*
Y1803300D01*
X5544640Y1503300D02*
Y1803300D01*
X6400980Y1646000D02*
Y1666000D01*
X6535246Y1549000D02*
X6565980D01*
X6400980Y1997261D02*
Y2017261D01*
X6528719Y2115000D02*
X6565980D01*
X6775980Y1652000D02*
Y2012000D01*
X5094300Y1995860D02*
X5214300D01*
Y1735860D02*
Y1995860D01*
X5094300Y1735860D02*
X5214300D01*
X5094300D02*
Y1995860D01*
X5181280Y1883165D02*
X5191280Y1893165D01*
X5188780Y1873165D02*
X5198780Y1883165D01*
X5128780Y1865665D02*
X5153780D01*
X5128780D02*
X5153780Y1893165D01*
X5178780Y1865665D01*
X5153780D02*
X5178780D01*
X5153780Y1833165D02*
Y1865665D01*
X5939580Y1314127D02*
Y1434126D01*
X5679580Y1314127D02*
Y1434126D01*
X5822081Y1374127D02*
X5834580D01*
X5784581D02*
X5797080D01*
X5822081Y1349127D02*
Y1399126D01*
X5797080Y1349127D02*
Y1399126D01*
X5679580Y1314127D02*
X5739580D01*
X5679580Y1434126D02*
X5739580D01*
X5879581Y1314127D02*
X5939580D01*
X5879581Y1434126D02*
X5939580D01*
X5967639Y1547511D02*
Y1607511D01*
X6087639Y1547511D02*
Y1607511D01*
X5967639Y1347511D02*
Y1407511D01*
X6087639Y1347511D02*
Y1407511D01*
X6002639Y1465011D02*
X6052639D01*
X6002639Y1490011D02*
X6052639D01*
X6027639Y1452511D02*
Y1465011D01*
Y1490011D02*
Y1502511D01*
X5967639Y1347511D02*
X6087639D01*
X5967639Y1607511D02*
X6087639D01*
X5424641Y1254276D02*
X5442140Y1259276D01*
X5424641Y1254276D02*
X5462141Y1244276D01*
X5424641Y1234275D02*
X5462141Y1244276D01*
X5424641Y1234275D02*
X5462141Y1224275D01*
X5437141Y1214276D02*
X5462141Y1224275D01*
X5502140Y1106776D02*
Y1366776D01*
X5382141D02*
X5502140D01*
X5382141Y1106776D02*
Y1366776D01*
Y1106776D02*
X5502140D01*
X5377800Y2147125D02*
X5497800D01*
Y1887125D02*
Y2147125D01*
X5377800Y1887125D02*
X5497800D01*
X5377800D02*
Y2147125D01*
X5417800Y2029625D02*
X5442800Y2039625D01*
X5417800Y2029625D02*
X5455300Y2019625D01*
X5417800Y2009625D02*
X5455300Y2019625D01*
X5417800Y2009625D02*
X5455300Y1999625D01*
X5437800Y1994625D02*
X5455300Y1999625D01*
X5789960Y2067860D02*
X5794960Y2050360D01*
X5804960Y2087860D01*
X5814960Y2050360D01*
X5824960Y2087860D01*
X5834960Y2062860D01*
X5682460Y2127860D02*
X5942460D01*
X5682460Y2007860D02*
Y2127860D01*
Y2007860D02*
X5942460D01*
Y2127860D01*
X6358750Y1021000D02*
Y1141000D01*
X6098750Y1021000D02*
X6358750D01*
X6098750D02*
Y1141000D01*
X6358750D01*
X6241250Y1101000D02*
X6251250Y1076000D01*
X6231250Y1063500D02*
X6241250Y1101000D01*
X6221250D02*
X6231250Y1063500D01*
X6211250D02*
X6221250Y1101000D01*
X6206250Y1081000D02*
X6211250Y1063500D01*
X5789580Y1236776D02*
X5794580Y1219276D01*
X5804580Y1256776D01*
X5814580Y1219276D01*
X5824580Y1256776D01*
X5834580Y1231776D01*
X5682080Y1296775D02*
X5942080D01*
X5682080Y1176776D02*
Y1296775D01*
Y1176776D02*
X5942080D01*
Y1296775D01*
X6222848Y1741920D02*
Y1769860D01*
X6235548Y1757160D01*
X6212688D02*
X6235548D01*
X6212688D02*
X6222848Y1769860D01*
X6248248Y1926760D02*
X6258408Y1939460D01*
X6235548D02*
X6258408D01*
X6235548D02*
X6248248Y1926760D01*
Y1954700D01*
X6101440Y1934380D02*
Y1962320D01*
X6114140Y1949620D01*
X6091280D02*
X6114140D01*
X6091280D02*
X6101440Y1962320D01*
X6321140Y2052860D02*
Y2100360D01*
X6041140Y2052860D02*
X6321140D01*
X6041140D02*
Y2100360D01*
X6321140Y2125360D02*
Y2172860D01*
X6041140D02*
X6321140D01*
X6041140Y2125360D02*
Y2172860D01*
X5421529Y1693805D02*
X5463849D01*
X5472313Y1685341D01*
Y1668413D01*
X5463849Y1659949D01*
X5421529D01*
X5472313Y1643021D02*
Y1626093D01*
Y1634557D01*
X5421529D01*
X5429993Y1643021D01*
X7518440Y1539000D02*
G03*
X7518440Y1539000I-20000J0D01*
G01*
X7464640Y1803300D02*
X7684640D01*
X7464640Y1503300D02*
X7684640D01*
Y1803300D01*
X7464640Y1503300D02*
Y1803300D01*
X8320980Y1646000D02*
Y1666000D01*
X8455245Y1549000D02*
X8485980D01*
X8320980Y1997261D02*
Y2017261D01*
X8448719Y2115000D02*
X8485980D01*
X8695980Y1652000D02*
Y2012000D01*
X7014300Y1995860D02*
X7134300D01*
Y1735860D02*
Y1995860D01*
X7014300Y1735860D02*
X7134300D01*
X7014300D02*
Y1995860D01*
X7101280Y1883165D02*
X7111280Y1893165D01*
X7108780Y1873165D02*
X7118780Y1883165D01*
X7048780Y1865665D02*
X7073780D01*
X7048780D02*
X7073780Y1893165D01*
X7098780Y1865665D01*
X7073780D02*
X7098780D01*
X7073780Y1833165D02*
Y1865665D01*
X7859580Y1314127D02*
Y1434126D01*
X7599580Y1314127D02*
Y1434126D01*
X7742081Y1374127D02*
X7754580D01*
X7704580D02*
X7717080D01*
X7742081Y1349127D02*
Y1399126D01*
X7717080Y1349127D02*
Y1399126D01*
X7599580Y1314127D02*
X7659580D01*
X7599580Y1434126D02*
X7659580D01*
X7799581Y1314127D02*
X7859580D01*
X7799581Y1434126D02*
X7859580D01*
X7887639Y1547511D02*
Y1607511D01*
X8007639Y1547511D02*
Y1607511D01*
X7887639Y1347511D02*
Y1407511D01*
X8007639Y1347511D02*
Y1407511D01*
X7922639Y1465011D02*
X7972639D01*
X7922639Y1490011D02*
X7972639D01*
X7947639Y1452511D02*
Y1465011D01*
Y1490011D02*
Y1502511D01*
X7887639Y1347511D02*
X8007639D01*
X7887639Y1607511D02*
X8007639D01*
X7344641Y1254276D02*
X7362140Y1259276D01*
X7344641Y1254276D02*
X7382141Y1244276D01*
X7344641Y1234275D02*
X7382141Y1244276D01*
X7344641Y1234275D02*
X7382141Y1224275D01*
X7357140Y1214276D02*
X7382141Y1224275D01*
X7422140Y1106776D02*
Y1366776D01*
X7302141D02*
X7422140D01*
X7302141Y1106776D02*
Y1366776D01*
Y1106776D02*
X7422140D01*
X7297800Y2147125D02*
X7417800D01*
Y1887125D02*
Y2147125D01*
X7297800Y1887125D02*
X7417800D01*
X7297800D02*
Y2147125D01*
X7337800Y2029625D02*
X7362800Y2039625D01*
X7337800Y2029625D02*
X7375300Y2019625D01*
X7337800Y2009625D02*
X7375300Y2019625D01*
X7337800Y2009625D02*
X7375300Y1999625D01*
X7357800Y1994625D02*
X7375300Y1999625D01*
X7709960Y2067860D02*
X7714960Y2050360D01*
X7724960Y2087860D01*
X7734960Y2050360D01*
X7744960Y2087860D01*
X7754960Y2062860D01*
X7602460Y2127860D02*
X7862460D01*
X7602460Y2007860D02*
Y2127860D01*
Y2007860D02*
X7862460D01*
Y2127860D01*
X8278750Y1021000D02*
Y1141000D01*
X8018750Y1021000D02*
X8278750D01*
X8018750D02*
Y1141000D01*
X8278750D01*
X8161250Y1101000D02*
X8171250Y1076000D01*
X8151250Y1063500D02*
X8161250Y1101000D01*
X8141250D02*
X8151250Y1063500D01*
X8131250D02*
X8141250Y1101000D01*
X8126250Y1081000D02*
X8131250Y1063500D01*
X7709580Y1236776D02*
X7714580Y1219276D01*
X7724580Y1256776D01*
X7734580Y1219276D01*
X7744580Y1256776D01*
X7754580Y1231776D01*
X7602080Y1296775D02*
X7862080D01*
X7602080Y1176776D02*
Y1296775D01*
Y1176776D02*
X7862080D01*
Y1296775D01*
X8142848Y1741920D02*
Y1769860D01*
X8155548Y1757160D01*
X8132688D02*
X8155548D01*
X8132688D02*
X8142848Y1769860D01*
X8168248Y1926760D02*
X8178408Y1939460D01*
X8155548D02*
X8178408D01*
X8155548D02*
X8168248Y1926760D01*
Y1954700D01*
X8021440Y1934380D02*
Y1962320D01*
X8034140Y1949620D01*
X8011280D02*
X8034140D01*
X8011280D02*
X8021440Y1962320D01*
X8241140Y2052860D02*
Y2100360D01*
X7961140Y2052860D02*
X8241140D01*
X7961140D02*
Y2100360D01*
X8241140Y2125360D02*
Y2172860D01*
X7961140D02*
X8241140D01*
X7961140Y2125360D02*
Y2172860D01*
X7341529Y1693805D02*
X7383849D01*
X7392313Y1685341D01*
Y1668413D01*
X7383849Y1659949D01*
X7341529D01*
X7392313Y1643021D02*
Y1626093D01*
Y1634557D01*
X7341529D01*
X7349993Y1643021D01*
X1758440Y3299000D02*
G03*
X1758440Y3299000I-20000J0D01*
G01*
X1704640Y3563300D02*
X1924641D01*
X1704640Y3263300D02*
X1924641D01*
Y3563300D01*
X1704640Y3263300D02*
Y3563300D01*
X2560980Y3406000D02*
Y3426000D01*
X2695246Y3309000D02*
X2725980D01*
X2560980Y3757261D02*
Y3777261D01*
X2688719Y3875000D02*
X2725980D01*
X2935980Y3412000D02*
Y3772000D01*
X1254300Y3755860D02*
X1374300D01*
Y3495860D02*
Y3755860D01*
X1254300Y3495860D02*
X1374300D01*
X1254300D02*
Y3755860D01*
X1341280Y3643165D02*
X1351280Y3653165D01*
X1348780Y3633165D02*
X1358780Y3643165D01*
X1288780Y3625665D02*
X1313780D01*
X1288780D02*
X1313780Y3653165D01*
X1338780Y3625665D01*
X1313780D02*
X1338780D01*
X1313780Y3593165D02*
Y3625665D01*
X2099581Y3074127D02*
Y3194126D01*
X1839581Y3074127D02*
Y3194126D01*
X1982081Y3134127D02*
X1994580D01*
X1944581D02*
X1957080D01*
X1982081Y3109127D02*
Y3159127D01*
X1957080Y3109127D02*
Y3159127D01*
X1839581Y3074127D02*
X1899580D01*
X1839581Y3194126D02*
X1899580D01*
X2039581Y3074127D02*
X2099581D01*
X2039581Y3194126D02*
X2099581D01*
X2127639Y3307511D02*
Y3367511D01*
X2247639Y3307511D02*
Y3367511D01*
X2127639Y3107511D02*
Y3167511D01*
X2247639Y3107511D02*
Y3167511D01*
X2162639Y3225011D02*
X2212639D01*
X2162639Y3250011D02*
X2212639D01*
X2187639Y3212511D02*
Y3225011D01*
Y3250011D02*
Y3262511D01*
X2127639Y3107511D02*
X2247639D01*
X2127639Y3367511D02*
X2247639D01*
X1584641Y3014276D02*
X1602141Y3019276D01*
X1584641Y3014276D02*
X1622141Y3004276D01*
X1584641Y2994275D02*
X1622141Y3004276D01*
X1584641Y2994275D02*
X1622141Y2984275D01*
X1597141Y2974276D02*
X1622141Y2984275D01*
X1662140Y2866776D02*
Y3126776D01*
X1542141D02*
X1662140D01*
X1542141Y2866776D02*
Y3126776D01*
Y2866776D02*
X1662140D01*
X1537800Y3907125D02*
X1657800D01*
Y3647125D02*
Y3907125D01*
X1537800Y3647125D02*
X1657800D01*
X1537800D02*
Y3907125D01*
X1577800Y3789625D02*
X1602800Y3799625D01*
X1577800Y3789625D02*
X1615300Y3779625D01*
X1577800Y3769625D02*
X1615300Y3779625D01*
X1577800Y3769625D02*
X1615300Y3759625D01*
X1597800Y3754625D02*
X1615300Y3759625D01*
X1949960Y3827860D02*
X1954960Y3810360D01*
X1964960Y3847860D01*
X1974960Y3810360D01*
X1984960Y3847860D01*
X1994960Y3822860D01*
X1842460Y3887860D02*
X2102460D01*
X1842460Y3767860D02*
Y3887860D01*
Y3767860D02*
X2102460D01*
Y3887860D01*
X2518750Y2781000D02*
Y2901000D01*
X2258750Y2781000D02*
X2518750D01*
X2258750D02*
Y2901000D01*
X2518750D01*
X2401250Y2861000D02*
X2411250Y2836000D01*
X2391250Y2823500D02*
X2401250Y2861000D01*
X2381250D02*
X2391250Y2823500D01*
X2371250D02*
X2381250Y2861000D01*
X2366250Y2841000D02*
X2371250Y2823500D01*
X1949580Y2996776D02*
X1954580Y2979276D01*
X1964580Y3016776D01*
X1974581Y2979276D01*
X1984580Y3016776D01*
X1994580Y2991776D01*
X1842080Y3056775D02*
X2102080D01*
X1842080Y2936776D02*
Y3056775D01*
Y2936776D02*
X2102080D01*
Y3056775D01*
X2382848Y3501920D02*
Y3529860D01*
X2395548Y3517160D01*
X2372688D02*
X2395548D01*
X2372688D02*
X2382848Y3529860D01*
X2408248Y3686760D02*
X2418408Y3699460D01*
X2395548D02*
X2418408D01*
X2395548D02*
X2408248Y3686760D01*
Y3714700D01*
X2261440Y3694380D02*
Y3722320D01*
X2274140Y3709620D01*
X2251280D02*
X2274140D01*
X2251280D02*
X2261440Y3722320D01*
X2481140Y3812860D02*
Y3860360D01*
X2201140Y3812860D02*
X2481140D01*
X2201140D02*
Y3860360D01*
X2481140Y3885360D02*
Y3932860D01*
X2201140D02*
X2481140D01*
X2201140Y3885360D02*
Y3932860D01*
X1581529Y3453805D02*
X1623849D01*
X1632313Y3445341D01*
Y3428413D01*
X1623849Y3419949D01*
X1581529D01*
X1632313Y3403021D02*
Y3386093D01*
Y3394557D01*
X1581529D01*
X1589993Y3403021D01*
X3678440Y3299000D02*
G03*
X3678440Y3299000I-20000J0D01*
G01*
X3624640Y3563300D02*
X3844641D01*
X3624640Y3263300D02*
X3844641D01*
Y3563300D01*
X3624640Y3263300D02*
Y3563300D01*
X4480980Y3406000D02*
Y3426000D01*
X4615246Y3309000D02*
X4645980D01*
X4480980Y3757261D02*
Y3777261D01*
X4608719Y3875000D02*
X4645980D01*
X4855980Y3412000D02*
Y3772000D01*
X3174300Y3755860D02*
X3294300D01*
Y3495860D02*
Y3755860D01*
X3174300Y3495860D02*
X3294300D01*
X3174300D02*
Y3755860D01*
X3261280Y3643165D02*
X3271280Y3653165D01*
X3268780Y3633165D02*
X3278780Y3643165D01*
X3208780Y3625665D02*
X3233780D01*
X3208780D02*
X3233780Y3653165D01*
X3258780Y3625665D01*
X3233780D02*
X3258780D01*
X3233780Y3593165D02*
Y3625665D01*
X4019580Y3074127D02*
Y3194126D01*
X3759580Y3074127D02*
Y3194126D01*
X3902081Y3134127D02*
X3914580D01*
X3864581D02*
X3877080D01*
X3902081Y3109127D02*
Y3159127D01*
X3877080Y3109127D02*
Y3159127D01*
X3759580Y3074127D02*
X3819580D01*
X3759580Y3194126D02*
X3819580D01*
X3959581Y3074127D02*
X4019580D01*
X3959581Y3194126D02*
X4019580D01*
X4047639Y3307511D02*
Y3367511D01*
X4167639Y3307511D02*
Y3367511D01*
X4047639Y3107511D02*
Y3167511D01*
X4167639Y3107511D02*
Y3167511D01*
X4082639Y3225011D02*
X4132639D01*
X4082639Y3250011D02*
X4132639D01*
X4107639Y3212511D02*
Y3225011D01*
Y3250011D02*
Y3262511D01*
X4047639Y3107511D02*
X4167639D01*
X4047639Y3367511D02*
X4167639D01*
X3504641Y3014276D02*
X3522141Y3019276D01*
X3504641Y3014276D02*
X3542141Y3004276D01*
X3504641Y2994275D02*
X3542141Y3004276D01*
X3504641Y2994275D02*
X3542141Y2984275D01*
X3517141Y2974276D02*
X3542141Y2984275D01*
X3582140Y2866776D02*
Y3126776D01*
X3462141D02*
X3582140D01*
X3462141Y2866776D02*
Y3126776D01*
Y2866776D02*
X3582140D01*
X3457800Y3907125D02*
X3577800D01*
Y3647125D02*
Y3907125D01*
X3457800Y3647125D02*
X3577800D01*
X3457800D02*
Y3907125D01*
X3497800Y3789625D02*
X3522800Y3799625D01*
X3497800Y3789625D02*
X3535300Y3779625D01*
X3497800Y3769625D02*
X3535300Y3779625D01*
X3497800Y3769625D02*
X3535300Y3759625D01*
X3517800Y3754625D02*
X3535300Y3759625D01*
X3869960Y3827860D02*
X3874960Y3810360D01*
X3884960Y3847860D01*
X3894960Y3810360D01*
X3904960Y3847860D01*
X3914960Y3822860D01*
X3762460Y3887860D02*
X4022460D01*
X3762460Y3767860D02*
Y3887860D01*
Y3767860D02*
X4022460D01*
Y3887860D01*
X4438750Y2781000D02*
Y2901000D01*
X4178750Y2781000D02*
X4438750D01*
X4178750D02*
Y2901000D01*
X4438750D01*
X4321250Y2861000D02*
X4331250Y2836000D01*
X4311250Y2823500D02*
X4321250Y2861000D01*
X4301250D02*
X4311250Y2823500D01*
X4291250D02*
X4301250Y2861000D01*
X4286250Y2841000D02*
X4291250Y2823500D01*
X3869580Y2996776D02*
X3874580Y2979276D01*
X3884580Y3016776D01*
X3894580Y2979276D01*
X3904580Y3016776D01*
X3914580Y2991776D01*
X3762080Y3056775D02*
X4022080D01*
X3762080Y2936776D02*
Y3056775D01*
Y2936776D02*
X4022080D01*
Y3056775D01*
X4302848Y3501920D02*
Y3529860D01*
X4315548Y3517160D01*
X4292688D02*
X4315548D01*
X4292688D02*
X4302848Y3529860D01*
X4328248Y3686760D02*
X4338408Y3699460D01*
X4315548D02*
X4338408D01*
X4315548D02*
X4328248Y3686760D01*
Y3714700D01*
X4181440Y3694380D02*
Y3722320D01*
X4194140Y3709620D01*
X4171280D02*
X4194140D01*
X4171280D02*
X4181440Y3722320D01*
X4401140Y3812860D02*
Y3860360D01*
X4121140Y3812860D02*
X4401140D01*
X4121140D02*
Y3860360D01*
X4401140Y3885360D02*
Y3932860D01*
X4121140D02*
X4401140D01*
X4121140Y3885360D02*
Y3932860D01*
X3501529Y3453805D02*
X3543849D01*
X3552313Y3445341D01*
Y3428413D01*
X3543849Y3419949D01*
X3501529D01*
X3552313Y3403021D02*
Y3386093D01*
Y3394557D01*
X3501529D01*
X3509993Y3403021D01*
X5598440Y3299000D02*
G03*
X5598440Y3299000I-20000J0D01*
G01*
X5544640Y3563300D02*
X5764640D01*
X5544640Y3263300D02*
X5764640D01*
Y3563300D01*
X5544640Y3263300D02*
Y3563300D01*
X6400980Y3406000D02*
Y3426000D01*
X6535246Y3309000D02*
X6565980D01*
X6400980Y3757261D02*
Y3777261D01*
X6528719Y3875000D02*
X6565980D01*
X6775980Y3412000D02*
Y3772000D01*
X5094300Y3755860D02*
X5214300D01*
Y3495860D02*
Y3755860D01*
X5094300Y3495860D02*
X5214300D01*
X5094300D02*
Y3755860D01*
X5181280Y3643165D02*
X5191280Y3653165D01*
X5188780Y3633165D02*
X5198780Y3643165D01*
X5128780Y3625665D02*
X5153780D01*
X5128780D02*
X5153780Y3653165D01*
X5178780Y3625665D01*
X5153780D02*
X5178780D01*
X5153780Y3593165D02*
Y3625665D01*
X5939580Y3074127D02*
Y3194126D01*
X5679580Y3074127D02*
Y3194126D01*
X5822081Y3134127D02*
X5834580D01*
X5784581D02*
X5797080D01*
X5822081Y3109127D02*
Y3159127D01*
X5797080Y3109127D02*
Y3159127D01*
X5679580Y3074127D02*
X5739580D01*
X5679580Y3194126D02*
X5739580D01*
X5879581Y3074127D02*
X5939580D01*
X5879581Y3194126D02*
X5939580D01*
X5967639Y3307511D02*
Y3367511D01*
X6087639Y3307511D02*
Y3367511D01*
X5967639Y3107511D02*
Y3167511D01*
X6087639Y3107511D02*
Y3167511D01*
X6002639Y3225011D02*
X6052639D01*
X6002639Y3250011D02*
X6052639D01*
X6027639Y3212511D02*
Y3225011D01*
Y3250011D02*
Y3262511D01*
X5967639Y3107511D02*
X6087639D01*
X5967639Y3367511D02*
X6087639D01*
X5424641Y3014276D02*
X5442140Y3019276D01*
X5424641Y3014276D02*
X5462141Y3004276D01*
X5424641Y2994275D02*
X5462141Y3004276D01*
X5424641Y2994275D02*
X5462141Y2984275D01*
X5437141Y2974276D02*
X5462141Y2984275D01*
X5502140Y2866776D02*
Y3126776D01*
X5382141D02*
X5502140D01*
X5382141Y2866776D02*
Y3126776D01*
Y2866776D02*
X5502140D01*
X5377800Y3907125D02*
X5497800D01*
Y3647125D02*
Y3907125D01*
X5377800Y3647125D02*
X5497800D01*
X5377800D02*
Y3907125D01*
X5417800Y3789625D02*
X5442800Y3799625D01*
X5417800Y3789625D02*
X5455300Y3779625D01*
X5417800Y3769625D02*
X5455300Y3779625D01*
X5417800Y3769625D02*
X5455300Y3759625D01*
X5437800Y3754625D02*
X5455300Y3759625D01*
X5789960Y3827860D02*
X5794960Y3810360D01*
X5804960Y3847860D01*
X5814960Y3810360D01*
X5824960Y3847860D01*
X5834960Y3822860D01*
X5682460Y3887860D02*
X5942460D01*
X5682460Y3767860D02*
Y3887860D01*
Y3767860D02*
X5942460D01*
Y3887860D01*
X6358750Y2781000D02*
Y2901000D01*
X6098750Y2781000D02*
X6358750D01*
X6098750D02*
Y2901000D01*
X6358750D01*
X6241250Y2861000D02*
X6251250Y2836000D01*
X6231250Y2823500D02*
X6241250Y2861000D01*
X6221250D02*
X6231250Y2823500D01*
X6211250D02*
X6221250Y2861000D01*
X6206250Y2841000D02*
X6211250Y2823500D01*
X5789580Y2996776D02*
X5794580Y2979276D01*
X5804580Y3016776D01*
X5814580Y2979276D01*
X5824580Y3016776D01*
X5834580Y2991776D01*
X5682080Y3056775D02*
X5942080D01*
X5682080Y2936776D02*
Y3056775D01*
Y2936776D02*
X5942080D01*
Y3056775D01*
X6222848Y3501920D02*
Y3529860D01*
X6235548Y3517160D01*
X6212688D02*
X6235548D01*
X6212688D02*
X6222848Y3529860D01*
X6248248Y3686760D02*
X6258408Y3699460D01*
X6235548D02*
X6258408D01*
X6235548D02*
X6248248Y3686760D01*
Y3714700D01*
X6101440Y3694380D02*
Y3722320D01*
X6114140Y3709620D01*
X6091280D02*
X6114140D01*
X6091280D02*
X6101440Y3722320D01*
X6321140Y3812860D02*
Y3860360D01*
X6041140Y3812860D02*
X6321140D01*
X6041140D02*
Y3860360D01*
X6321140Y3885360D02*
Y3932860D01*
X6041140D02*
X6321140D01*
X6041140Y3885360D02*
Y3932860D01*
X5421529Y3453805D02*
X5463849D01*
X5472313Y3445341D01*
Y3428413D01*
X5463849Y3419949D01*
X5421529D01*
X5472313Y3403021D02*
Y3386093D01*
Y3394557D01*
X5421529D01*
X5429993Y3403021D01*
X7518440Y3299000D02*
G03*
X7518440Y3299000I-20000J0D01*
G01*
X7464640Y3563300D02*
X7684640D01*
X7464640Y3263300D02*
X7684640D01*
Y3563300D01*
X7464640Y3263300D02*
Y3563300D01*
X8320980Y3406000D02*
Y3426000D01*
X8455245Y3309000D02*
X8485980D01*
X8320980Y3757261D02*
Y3777261D01*
X8448719Y3875000D02*
X8485980D01*
X8695980Y3412000D02*
Y3772000D01*
X7014300Y3755860D02*
X7134300D01*
Y3495860D02*
Y3755860D01*
X7014300Y3495860D02*
X7134300D01*
X7014300D02*
Y3755860D01*
X7101280Y3643165D02*
X7111280Y3653165D01*
X7108780Y3633165D02*
X7118780Y3643165D01*
X7048780Y3625665D02*
X7073780D01*
X7048780D02*
X7073780Y3653165D01*
X7098780Y3625665D01*
X7073780D02*
X7098780D01*
X7073780Y3593165D02*
Y3625665D01*
X7859580Y3074127D02*
Y3194126D01*
X7599580Y3074127D02*
Y3194126D01*
X7742081Y3134127D02*
X7754580D01*
X7704580D02*
X7717080D01*
X7742081Y3109127D02*
Y3159127D01*
X7717080Y3109127D02*
Y3159127D01*
X7599580Y3074127D02*
X7659580D01*
X7599580Y3194126D02*
X7659580D01*
X7799581Y3074127D02*
X7859580D01*
X7799581Y3194126D02*
X7859580D01*
X7887639Y3307511D02*
Y3367511D01*
X8007639Y3307511D02*
Y3367511D01*
X7887639Y3107511D02*
Y3167511D01*
X8007639Y3107511D02*
Y3167511D01*
X7922639Y3225011D02*
X7972639D01*
X7922639Y3250011D02*
X7972639D01*
X7947639Y3212511D02*
Y3225011D01*
Y3250011D02*
Y3262511D01*
X7887639Y3107511D02*
X8007639D01*
X7887639Y3367511D02*
X8007639D01*
X7344641Y3014276D02*
X7362140Y3019276D01*
X7344641Y3014276D02*
X7382141Y3004276D01*
X7344641Y2994275D02*
X7382141Y3004276D01*
X7344641Y2994275D02*
X7382141Y2984275D01*
X7357140Y2974276D02*
X7382141Y2984275D01*
X7422140Y2866776D02*
Y3126776D01*
X7302141D02*
X7422140D01*
X7302141Y2866776D02*
Y3126776D01*
Y2866776D02*
X7422140D01*
X7297800Y3907125D02*
X7417800D01*
Y3647125D02*
Y3907125D01*
X7297800Y3647125D02*
X7417800D01*
X7297800D02*
Y3907125D01*
X7337800Y3789625D02*
X7362800Y3799625D01*
X7337800Y3789625D02*
X7375300Y3779625D01*
X7337800Y3769625D02*
X7375300Y3779625D01*
X7337800Y3769625D02*
X7375300Y3759625D01*
X7357800Y3754625D02*
X7375300Y3759625D01*
X7709960Y3827860D02*
X7714960Y3810360D01*
X7724960Y3847860D01*
X7734960Y3810360D01*
X7744960Y3847860D01*
X7754960Y3822860D01*
X7602460Y3887860D02*
X7862460D01*
X7602460Y3767860D02*
Y3887860D01*
Y3767860D02*
X7862460D01*
Y3887860D01*
X8278750Y2781000D02*
Y2901000D01*
X8018750Y2781000D02*
X8278750D01*
X8018750D02*
Y2901000D01*
X8278750D01*
X8161250Y2861000D02*
X8171250Y2836000D01*
X8151250Y2823500D02*
X8161250Y2861000D01*
X8141250D02*
X8151250Y2823500D01*
X8131250D02*
X8141250Y2861000D01*
X8126250Y2841000D02*
X8131250Y2823500D01*
X7709580Y2996776D02*
X7714580Y2979276D01*
X7724580Y3016776D01*
X7734580Y2979276D01*
X7744580Y3016776D01*
X7754580Y2991776D01*
X7602080Y3056775D02*
X7862080D01*
X7602080Y2936776D02*
Y3056775D01*
Y2936776D02*
X7862080D01*
Y3056775D01*
X8142848Y3501920D02*
Y3529860D01*
X8155548Y3517160D01*
X8132688D02*
X8155548D01*
X8132688D02*
X8142848Y3529860D01*
X8168248Y3686760D02*
X8178408Y3699460D01*
X8155548D02*
X8178408D01*
X8155548D02*
X8168248Y3686760D01*
Y3714700D01*
X8021440Y3694380D02*
Y3722320D01*
X8034140Y3709620D01*
X8011280D02*
X8034140D01*
X8011280D02*
X8021440Y3722320D01*
X8241140Y3812860D02*
Y3860360D01*
X7961140Y3812860D02*
X8241140D01*
X7961140D02*
Y3860360D01*
X8241140Y3885360D02*
Y3932860D01*
X7961140D02*
X8241140D01*
X7961140Y3885360D02*
Y3932860D01*
X7341529Y3453805D02*
X7383849D01*
X7392313Y3445341D01*
Y3428413D01*
X7383849Y3419949D01*
X7341529D01*
X7392313Y3403021D02*
Y3386093D01*
Y3394557D01*
X7341529D01*
X7349993Y3403021D01*
X1758440Y5059000D02*
G03*
X1758440Y5059000I-20000J0D01*
G01*
X1704640Y5323300D02*
X1924641D01*
X1704640Y5023300D02*
X1924641D01*
Y5323300D01*
X1704640Y5023300D02*
Y5323300D01*
X2560980Y5166000D02*
Y5186000D01*
X2695246Y5069000D02*
X2725980D01*
X2560980Y5517261D02*
Y5537261D01*
X2688719Y5635000D02*
X2725980D01*
X2935980Y5172000D02*
Y5532000D01*
X1254300Y5515860D02*
X1374300D01*
Y5255860D02*
Y5515860D01*
X1254300Y5255860D02*
X1374300D01*
X1254300D02*
Y5515860D01*
X1341280Y5403165D02*
X1351280Y5413165D01*
X1348780Y5393165D02*
X1358780Y5403165D01*
X1288780Y5385665D02*
X1313780D01*
X1288780D02*
X1313780Y5413165D01*
X1338780Y5385665D01*
X1313780D02*
X1338780D01*
X1313780Y5353165D02*
Y5385665D01*
X2099581Y4834127D02*
Y4954126D01*
X1839581Y4834127D02*
Y4954126D01*
X1982081Y4894127D02*
X1994580D01*
X1944581D02*
X1957080D01*
X1982081Y4869127D02*
Y4919127D01*
X1957080Y4869127D02*
Y4919127D01*
X1839581Y4834127D02*
X1899580D01*
X1839581Y4954126D02*
X1899580D01*
X2039581Y4834127D02*
X2099581D01*
X2039581Y4954126D02*
X2099581D01*
X2127639Y5067511D02*
Y5127511D01*
X2247639Y5067511D02*
Y5127511D01*
X2127639Y4867511D02*
Y4927511D01*
X2247639Y4867511D02*
Y4927511D01*
X2162639Y4985011D02*
X2212639D01*
X2162639Y5010011D02*
X2212639D01*
X2187639Y4972511D02*
Y4985011D01*
Y5010011D02*
Y5022511D01*
X2127639Y4867511D02*
X2247639D01*
X2127639Y5127511D02*
X2247639D01*
X1584641Y4774276D02*
X1602141Y4779276D01*
X1584641Y4774276D02*
X1622141Y4764276D01*
X1584641Y4754275D02*
X1622141Y4764276D01*
X1584641Y4754275D02*
X1622141Y4744275D01*
X1597141Y4734276D02*
X1622141Y4744275D01*
X1662140Y4626776D02*
Y4886776D01*
X1542141D02*
X1662140D01*
X1542141Y4626776D02*
Y4886776D01*
Y4626776D02*
X1662140D01*
X1537800Y5667125D02*
X1657800D01*
Y5407125D02*
Y5667125D01*
X1537800Y5407125D02*
X1657800D01*
X1537800D02*
Y5667125D01*
X1577800Y5549625D02*
X1602800Y5559625D01*
X1577800Y5549625D02*
X1615300Y5539625D01*
X1577800Y5529625D02*
X1615300Y5539625D01*
X1577800Y5529625D02*
X1615300Y5519625D01*
X1597800Y5514625D02*
X1615300Y5519625D01*
X1949960Y5587860D02*
X1954960Y5570360D01*
X1964960Y5607860D01*
X1974960Y5570360D01*
X1984960Y5607860D01*
X1994960Y5582860D01*
X1842460Y5647860D02*
X2102460D01*
X1842460Y5527860D02*
Y5647860D01*
Y5527860D02*
X2102460D01*
Y5647860D01*
X2518750Y4541000D02*
Y4661000D01*
X2258750Y4541000D02*
X2518750D01*
X2258750D02*
Y4661000D01*
X2518750D01*
X2401250Y4621000D02*
X2411250Y4596000D01*
X2391250Y4583500D02*
X2401250Y4621000D01*
X2381250D02*
X2391250Y4583500D01*
X2371250D02*
X2381250Y4621000D01*
X2366250Y4601000D02*
X2371250Y4583500D01*
X1949580Y4756776D02*
X1954580Y4739276D01*
X1964580Y4776776D01*
X1974581Y4739276D01*
X1984580Y4776776D01*
X1994580Y4751776D01*
X1842080Y4816775D02*
X2102080D01*
X1842080Y4696776D02*
Y4816775D01*
Y4696776D02*
X2102080D01*
Y4816775D01*
X2382848Y5261920D02*
Y5289860D01*
X2395548Y5277160D01*
X2372688D02*
X2395548D01*
X2372688D02*
X2382848Y5289860D01*
X2408248Y5446760D02*
X2418408Y5459460D01*
X2395548D02*
X2418408D01*
X2395548D02*
X2408248Y5446760D01*
Y5474700D01*
X2261440Y5454380D02*
Y5482320D01*
X2274140Y5469620D01*
X2251280D02*
X2274140D01*
X2251280D02*
X2261440Y5482320D01*
X2481140Y5572860D02*
Y5620360D01*
X2201140Y5572860D02*
X2481140D01*
X2201140D02*
Y5620360D01*
X2481140Y5645360D02*
Y5692860D01*
X2201140D02*
X2481140D01*
X2201140Y5645360D02*
Y5692860D01*
X1581529Y5213805D02*
X1623849D01*
X1632313Y5205341D01*
Y5188413D01*
X1623849Y5179949D01*
X1581529D01*
X1632313Y5163021D02*
Y5146093D01*
Y5154557D01*
X1581529D01*
X1589993Y5163021D01*
X3678440Y5059000D02*
G03*
X3678440Y5059000I-20000J0D01*
G01*
X3624640Y5323300D02*
X3844641D01*
X3624640Y5023300D02*
X3844641D01*
Y5323300D01*
X3624640Y5023300D02*
Y5323300D01*
X4480980Y5166000D02*
Y5186000D01*
X4615246Y5069000D02*
X4645980D01*
X4480980Y5517261D02*
Y5537261D01*
X4608719Y5635000D02*
X4645980D01*
X4855980Y5172000D02*
Y5532000D01*
X3174300Y5515860D02*
X3294300D01*
Y5255860D02*
Y5515860D01*
X3174300Y5255860D02*
X3294300D01*
X3174300D02*
Y5515860D01*
X3261280Y5403165D02*
X3271280Y5413165D01*
X3268780Y5393165D02*
X3278780Y5403165D01*
X3208780Y5385665D02*
X3233780D01*
X3208780D02*
X3233780Y5413165D01*
X3258780Y5385665D01*
X3233780D02*
X3258780D01*
X3233780Y5353165D02*
Y5385665D01*
X4019580Y4834127D02*
Y4954126D01*
X3759580Y4834127D02*
Y4954126D01*
X3902081Y4894127D02*
X3914580D01*
X3864581D02*
X3877080D01*
X3902081Y4869127D02*
Y4919127D01*
X3877080Y4869127D02*
Y4919127D01*
X3759580Y4834127D02*
X3819580D01*
X3759580Y4954126D02*
X3819580D01*
X3959581Y4834127D02*
X4019580D01*
X3959581Y4954126D02*
X4019580D01*
X4047639Y5067511D02*
Y5127511D01*
X4167639Y5067511D02*
Y5127511D01*
X4047639Y4867511D02*
Y4927511D01*
X4167639Y4867511D02*
Y4927511D01*
X4082639Y4985011D02*
X4132639D01*
X4082639Y5010011D02*
X4132639D01*
X4107639Y4972511D02*
Y4985011D01*
Y5010011D02*
Y5022511D01*
X4047639Y4867511D02*
X4167639D01*
X4047639Y5127511D02*
X4167639D01*
X3504641Y4774276D02*
X3522141Y4779276D01*
X3504641Y4774276D02*
X3542141Y4764276D01*
X3504641Y4754275D02*
X3542141Y4764276D01*
X3504641Y4754275D02*
X3542141Y4744275D01*
X3517141Y4734276D02*
X3542141Y4744275D01*
X3582140Y4626776D02*
Y4886776D01*
X3462141D02*
X3582140D01*
X3462141Y4626776D02*
Y4886776D01*
Y4626776D02*
X3582140D01*
X3457800Y5667125D02*
X3577800D01*
Y5407125D02*
Y5667125D01*
X3457800Y5407125D02*
X3577800D01*
X3457800D02*
Y5667125D01*
X3497800Y5549625D02*
X3522800Y5559625D01*
X3497800Y5549625D02*
X3535300Y5539625D01*
X3497800Y5529625D02*
X3535300Y5539625D01*
X3497800Y5529625D02*
X3535300Y5519625D01*
X3517800Y5514625D02*
X3535300Y5519625D01*
X3869960Y5587860D02*
X3874960Y5570360D01*
X3884960Y5607860D01*
X3894960Y5570360D01*
X3904960Y5607860D01*
X3914960Y5582860D01*
X3762460Y5647860D02*
X4022460D01*
X3762460Y5527860D02*
Y5647860D01*
Y5527860D02*
X4022460D01*
Y5647860D01*
X4438750Y4541000D02*
Y4661000D01*
X4178750Y4541000D02*
X4438750D01*
X4178750D02*
Y4661000D01*
X4438750D01*
X4321250Y4621000D02*
X4331250Y4596000D01*
X4311250Y4583500D02*
X4321250Y4621000D01*
X4301250D02*
X4311250Y4583500D01*
X4291250D02*
X4301250Y4621000D01*
X4286250Y4601000D02*
X4291250Y4583500D01*
X3869580Y4756776D02*
X3874580Y4739276D01*
X3884580Y4776776D01*
X3894580Y4739276D01*
X3904580Y4776776D01*
X3914580Y4751776D01*
X3762080Y4816775D02*
X4022080D01*
X3762080Y4696776D02*
Y4816775D01*
Y4696776D02*
X4022080D01*
Y4816775D01*
X4302848Y5261920D02*
Y5289860D01*
X4315548Y5277160D01*
X4292688D02*
X4315548D01*
X4292688D02*
X4302848Y5289860D01*
X4328248Y5446760D02*
X4338408Y5459460D01*
X4315548D02*
X4338408D01*
X4315548D02*
X4328248Y5446760D01*
Y5474700D01*
X4181440Y5454380D02*
Y5482320D01*
X4194140Y5469620D01*
X4171280D02*
X4194140D01*
X4171280D02*
X4181440Y5482320D01*
X4401140Y5572860D02*
Y5620360D01*
X4121140Y5572860D02*
X4401140D01*
X4121140D02*
Y5620360D01*
X4401140Y5645360D02*
Y5692860D01*
X4121140D02*
X4401140D01*
X4121140Y5645360D02*
Y5692860D01*
X3501529Y5213805D02*
X3543849D01*
X3552313Y5205341D01*
Y5188413D01*
X3543849Y5179949D01*
X3501529D01*
X3552313Y5163021D02*
Y5146093D01*
Y5154557D01*
X3501529D01*
X3509993Y5163021D01*
X5598440Y5059000D02*
G03*
X5598440Y5059000I-20000J0D01*
G01*
X5544640Y5323300D02*
X5764640D01*
X5544640Y5023300D02*
X5764640D01*
Y5323300D01*
X5544640Y5023300D02*
Y5323300D01*
X6400980Y5166000D02*
Y5186000D01*
X6535246Y5069000D02*
X6565980D01*
X6400980Y5517261D02*
Y5537261D01*
X6528719Y5635000D02*
X6565980D01*
X6775980Y5172000D02*
Y5532000D01*
X5094300Y5515860D02*
X5214300D01*
Y5255860D02*
Y5515860D01*
X5094300Y5255860D02*
X5214300D01*
X5094300D02*
Y5515860D01*
X5181280Y5403165D02*
X5191280Y5413165D01*
X5188780Y5393165D02*
X5198780Y5403165D01*
X5128780Y5385665D02*
X5153780D01*
X5128780D02*
X5153780Y5413165D01*
X5178780Y5385665D01*
X5153780D02*
X5178780D01*
X5153780Y5353165D02*
Y5385665D01*
X5939580Y4834127D02*
Y4954126D01*
X5679580Y4834127D02*
Y4954126D01*
X5822081Y4894127D02*
X5834580D01*
X5784581D02*
X5797080D01*
X5822081Y4869127D02*
Y4919127D01*
X5797080Y4869127D02*
Y4919127D01*
X5679580Y4834127D02*
X5739580D01*
X5679580Y4954126D02*
X5739580D01*
X5879581Y4834127D02*
X5939580D01*
X5879581Y4954126D02*
X5939580D01*
X5967639Y5067511D02*
Y5127511D01*
X6087639Y5067511D02*
Y5127511D01*
X5967639Y4867511D02*
Y4927511D01*
X6087639Y4867511D02*
Y4927511D01*
X6002639Y4985011D02*
X6052639D01*
X6002639Y5010011D02*
X6052639D01*
X6027639Y4972511D02*
Y4985011D01*
Y5010011D02*
Y5022511D01*
X5967639Y4867511D02*
X6087639D01*
X5967639Y5127511D02*
X6087639D01*
X5424641Y4774276D02*
X5442140Y4779276D01*
X5424641Y4774276D02*
X5462141Y4764276D01*
X5424641Y4754275D02*
X5462141Y4764276D01*
X5424641Y4754275D02*
X5462141Y4744275D01*
X5437141Y4734276D02*
X5462141Y4744275D01*
X5502140Y4626776D02*
Y4886776D01*
X5382141D02*
X5502140D01*
X5382141Y4626776D02*
Y4886776D01*
Y4626776D02*
X5502140D01*
X5377800Y5667125D02*
X5497800D01*
Y5407125D02*
Y5667125D01*
X5377800Y5407125D02*
X5497800D01*
X5377800D02*
Y5667125D01*
X5417800Y5549625D02*
X5442800Y5559625D01*
X5417800Y5549625D02*
X5455300Y5539625D01*
X5417800Y5529625D02*
X5455300Y5539625D01*
X5417800Y5529625D02*
X5455300Y5519625D01*
X5437800Y5514625D02*
X5455300Y5519625D01*
X5789960Y5587860D02*
X5794960Y5570360D01*
X5804960Y5607860D01*
X5814960Y5570360D01*
X5824960Y5607860D01*
X5834960Y5582860D01*
X5682460Y5647860D02*
X5942460D01*
X5682460Y5527860D02*
Y5647860D01*
Y5527860D02*
X5942460D01*
Y5647860D01*
X6358750Y4541000D02*
Y4661000D01*
X6098750Y4541000D02*
X6358750D01*
X6098750D02*
Y4661000D01*
X6358750D01*
X6241250Y4621000D02*
X6251250Y4596000D01*
X6231250Y4583500D02*
X6241250Y4621000D01*
X6221250D02*
X6231250Y4583500D01*
X6211250D02*
X6221250Y4621000D01*
X6206250Y4601000D02*
X6211250Y4583500D01*
X5789580Y4756776D02*
X5794580Y4739276D01*
X5804580Y4776776D01*
X5814580Y4739276D01*
X5824580Y4776776D01*
X5834580Y4751776D01*
X5682080Y4816775D02*
X5942080D01*
X5682080Y4696776D02*
Y4816775D01*
Y4696776D02*
X5942080D01*
Y4816775D01*
X6222848Y5261920D02*
Y5289860D01*
X6235548Y5277160D01*
X6212688D02*
X6235548D01*
X6212688D02*
X6222848Y5289860D01*
X6248248Y5446760D02*
X6258408Y5459460D01*
X6235548D02*
X6258408D01*
X6235548D02*
X6248248Y5446760D01*
Y5474700D01*
X6101440Y5454380D02*
Y5482320D01*
X6114140Y5469620D01*
X6091280D02*
X6114140D01*
X6091280D02*
X6101440Y5482320D01*
X6321140Y5572860D02*
Y5620360D01*
X6041140Y5572860D02*
X6321140D01*
X6041140D02*
Y5620360D01*
X6321140Y5645360D02*
Y5692860D01*
X6041140D02*
X6321140D01*
X6041140Y5645360D02*
Y5692860D01*
X5421529Y5213805D02*
X5463849D01*
X5472313Y5205341D01*
Y5188413D01*
X5463849Y5179949D01*
X5421529D01*
X5472313Y5163021D02*
Y5146093D01*
Y5154557D01*
X5421529D01*
X5429993Y5163021D01*
X7518440Y5059000D02*
G03*
X7518440Y5059000I-20000J0D01*
G01*
X7464640Y5323300D02*
X7684640D01*
X7464640Y5023300D02*
X7684640D01*
Y5323300D01*
X7464640Y5023300D02*
Y5323300D01*
X8320980Y5166000D02*
Y5186000D01*
X8455245Y5069000D02*
X8485980D01*
X8320980Y5517261D02*
Y5537261D01*
X8448719Y5635000D02*
X8485980D01*
X8695980Y5172000D02*
Y5532000D01*
X7014300Y5515860D02*
X7134300D01*
Y5255860D02*
Y5515860D01*
X7014300Y5255860D02*
X7134300D01*
X7014300D02*
Y5515860D01*
X7101280Y5403165D02*
X7111280Y5413165D01*
X7108780Y5393165D02*
X7118780Y5403165D01*
X7048780Y5385665D02*
X7073780D01*
X7048780D02*
X7073780Y5413165D01*
X7098780Y5385665D01*
X7073780D02*
X7098780D01*
X7073780Y5353165D02*
Y5385665D01*
X7859580Y4834127D02*
Y4954126D01*
X7599580Y4834127D02*
Y4954126D01*
X7742081Y4894127D02*
X7754580D01*
X7704580D02*
X7717080D01*
X7742081Y4869127D02*
Y4919127D01*
X7717080Y4869127D02*
Y4919127D01*
X7599580Y4834127D02*
X7659580D01*
X7599580Y4954126D02*
X7659580D01*
X7799581Y4834127D02*
X7859580D01*
X7799581Y4954126D02*
X7859580D01*
X7887639Y5067511D02*
Y5127511D01*
X8007639Y5067511D02*
Y5127511D01*
X7887639Y4867511D02*
Y4927511D01*
X8007639Y4867511D02*
Y4927511D01*
X7922639Y4985011D02*
X7972639D01*
X7922639Y5010011D02*
X7972639D01*
X7947639Y4972511D02*
Y4985011D01*
Y5010011D02*
Y5022511D01*
X7887639Y4867511D02*
X8007639D01*
X7887639Y5127511D02*
X8007639D01*
X7344641Y4774276D02*
X7362140Y4779276D01*
X7344641Y4774276D02*
X7382141Y4764276D01*
X7344641Y4754275D02*
X7382141Y4764276D01*
X7344641Y4754275D02*
X7382141Y4744275D01*
X7357140Y4734276D02*
X7382141Y4744275D01*
X7422140Y4626776D02*
Y4886776D01*
X7302141D02*
X7422140D01*
X7302141Y4626776D02*
Y4886776D01*
Y4626776D02*
X7422140D01*
X7297800Y5667125D02*
X7417800D01*
Y5407125D02*
Y5667125D01*
X7297800Y5407125D02*
X7417800D01*
X7297800D02*
Y5667125D01*
X7337800Y5549625D02*
X7362800Y5559625D01*
X7337800Y5549625D02*
X7375300Y5539625D01*
X7337800Y5529625D02*
X7375300Y5539625D01*
X7337800Y5529625D02*
X7375300Y5519625D01*
X7357800Y5514625D02*
X7375300Y5519625D01*
X7709960Y5587860D02*
X7714960Y5570360D01*
X7724960Y5607860D01*
X7734960Y5570360D01*
X7744960Y5607860D01*
X7754960Y5582860D01*
X7602460Y5647860D02*
X7862460D01*
X7602460Y5527860D02*
Y5647860D01*
Y5527860D02*
X7862460D01*
Y5647860D01*
X8278750Y4541000D02*
Y4661000D01*
X8018750Y4541000D02*
X8278750D01*
X8018750D02*
Y4661000D01*
X8278750D01*
X8161250Y4621000D02*
X8171250Y4596000D01*
X8151250Y4583500D02*
X8161250Y4621000D01*
X8141250D02*
X8151250Y4583500D01*
X8131250D02*
X8141250Y4621000D01*
X8126250Y4601000D02*
X8131250Y4583500D01*
X7709580Y4756776D02*
X7714580Y4739276D01*
X7724580Y4776776D01*
X7734580Y4739276D01*
X7744580Y4776776D01*
X7754580Y4751776D01*
X7602080Y4816775D02*
X7862080D01*
X7602080Y4696776D02*
Y4816775D01*
Y4696776D02*
X7862080D01*
Y4816775D01*
X8142848Y5261920D02*
Y5289860D01*
X8155548Y5277160D01*
X8132688D02*
X8155548D01*
X8132688D02*
X8142848Y5289860D01*
X8168248Y5446760D02*
X8178408Y5459460D01*
X8155548D02*
X8178408D01*
X8155548D02*
X8168248Y5446760D01*
Y5474700D01*
X8021440Y5454380D02*
Y5482320D01*
X8034140Y5469620D01*
X8011280D02*
X8034140D01*
X8011280D02*
X8021440Y5482320D01*
X8241140Y5572860D02*
Y5620360D01*
X7961140Y5572860D02*
X8241140D01*
X7961140D02*
Y5620360D01*
X8241140Y5645360D02*
Y5692860D01*
X7961140D02*
X8241140D01*
X7961140Y5645360D02*
Y5692860D01*
X7341529Y5213805D02*
X7383849D01*
X7392313Y5205341D01*
Y5188413D01*
X7383849Y5179949D01*
X7341529D01*
X7392313Y5163021D02*
Y5146093D01*
Y5154557D01*
X7341529D01*
X7349993Y5163021D01*
X1758440Y6819000D02*
G03*
X1758440Y6819000I-20000J0D01*
G01*
X1704640Y7083300D02*
X1924641D01*
X1704640Y6783300D02*
X1924641D01*
Y7083300D01*
X1704640Y6783300D02*
Y7083300D01*
X2560980Y6926000D02*
Y6946000D01*
X2695246Y6829000D02*
X2725980D01*
X2560980Y7277261D02*
Y7297261D01*
X2688719Y7395000D02*
X2725980D01*
X2935980Y6932000D02*
Y7292000D01*
X1254300Y7275860D02*
X1374300D01*
Y7015860D02*
Y7275860D01*
X1254300Y7015860D02*
X1374300D01*
X1254300D02*
Y7275860D01*
X1341280Y7163165D02*
X1351280Y7173165D01*
X1348780Y7153165D02*
X1358780Y7163165D01*
X1288780Y7145665D02*
X1313780D01*
X1288780D02*
X1313780Y7173165D01*
X1338780Y7145665D01*
X1313780D02*
X1338780D01*
X1313780Y7113165D02*
Y7145665D01*
X2099581Y6594127D02*
Y6714127D01*
X1839581Y6594127D02*
Y6714127D01*
X1982081Y6654127D02*
X1994580D01*
X1944581D02*
X1957080D01*
X1982081Y6629127D02*
Y6679127D01*
X1957080Y6629127D02*
Y6679127D01*
X1839581Y6594127D02*
X1899580D01*
X1839581Y6714127D02*
X1899580D01*
X2039581Y6594127D02*
X2099581D01*
X2039581Y6714127D02*
X2099581D01*
X2127639Y6827511D02*
Y6887511D01*
X2247639Y6827511D02*
Y6887511D01*
X2127639Y6627511D02*
Y6687511D01*
X2247639Y6627511D02*
Y6687511D01*
X2162639Y6745011D02*
X2212639D01*
X2162639Y6770011D02*
X2212639D01*
X2187639Y6732511D02*
Y6745011D01*
Y6770011D02*
Y6782511D01*
X2127639Y6627511D02*
X2247639D01*
X2127639Y6887511D02*
X2247639D01*
X1584641Y6534276D02*
X1602141Y6539276D01*
X1584641Y6534276D02*
X1622141Y6524276D01*
X1584641Y6514276D02*
X1622141Y6524276D01*
X1584641Y6514276D02*
X1622141Y6504276D01*
X1597141Y6494276D02*
X1622141Y6504276D01*
X1662140Y6386776D02*
Y6646776D01*
X1542141D02*
X1662140D01*
X1542141Y6386776D02*
Y6646776D01*
Y6386776D02*
X1662140D01*
X1537800Y7427125D02*
X1657800D01*
Y7167125D02*
Y7427125D01*
X1537800Y7167125D02*
X1657800D01*
X1537800D02*
Y7427125D01*
X1577800Y7309625D02*
X1602800Y7319625D01*
X1577800Y7309625D02*
X1615300Y7299625D01*
X1577800Y7289625D02*
X1615300Y7299625D01*
X1577800Y7289625D02*
X1615300Y7279625D01*
X1597800Y7274625D02*
X1615300Y7279625D01*
X1949960Y7347860D02*
X1954960Y7330360D01*
X1964960Y7367860D01*
X1974960Y7330360D01*
X1984960Y7367860D01*
X1994960Y7342860D01*
X1842460Y7407860D02*
X2102460D01*
X1842460Y7287860D02*
Y7407860D01*
Y7287860D02*
X2102460D01*
Y7407860D01*
X2518750Y6301000D02*
Y6421000D01*
X2258750Y6301000D02*
X2518750D01*
X2258750D02*
Y6421000D01*
X2518750D01*
X2401250Y6381000D02*
X2411250Y6356000D01*
X2391250Y6343500D02*
X2401250Y6381000D01*
X2381250D02*
X2391250Y6343500D01*
X2371250D02*
X2381250Y6381000D01*
X2366250Y6361000D02*
X2371250Y6343500D01*
X1949580Y6516776D02*
X1954580Y6499276D01*
X1964580Y6536776D01*
X1974581Y6499276D01*
X1984580Y6536776D01*
X1994580Y6511776D01*
X1842080Y6576776D02*
X2102080D01*
X1842080Y6456776D02*
Y6576776D01*
Y6456776D02*
X2102080D01*
Y6576776D01*
X2382848Y7021920D02*
Y7049860D01*
X2395548Y7037160D01*
X2372688D02*
X2395548D01*
X2372688D02*
X2382848Y7049860D01*
X2408248Y7206760D02*
X2418408Y7219460D01*
X2395548D02*
X2418408D01*
X2395548D02*
X2408248Y7206760D01*
Y7234700D01*
X2261440Y7214380D02*
Y7242320D01*
X2274140Y7229620D01*
X2251280D02*
X2274140D01*
X2251280D02*
X2261440Y7242320D01*
X2481140Y7332860D02*
Y7380360D01*
X2201140Y7332860D02*
X2481140D01*
X2201140D02*
Y7380360D01*
X2481140Y7405360D02*
Y7452860D01*
X2201140D02*
X2481140D01*
X2201140Y7405360D02*
Y7452860D01*
X1581529Y6973805D02*
X1623849D01*
X1632313Y6965341D01*
Y6948413D01*
X1623849Y6939949D01*
X1581529D01*
X1632313Y6923021D02*
Y6906093D01*
Y6914557D01*
X1581529D01*
X1589993Y6923021D01*
X3678440Y6819000D02*
G03*
X3678440Y6819000I-20000J0D01*
G01*
X3624640Y7083300D02*
X3844641D01*
X3624640Y6783300D02*
X3844641D01*
Y7083300D01*
X3624640Y6783300D02*
Y7083300D01*
X4480980Y6926000D02*
Y6946000D01*
X4615246Y6829000D02*
X4645980D01*
X4480980Y7277261D02*
Y7297261D01*
X4608719Y7395000D02*
X4645980D01*
X4855980Y6932000D02*
Y7292000D01*
X3174300Y7275860D02*
X3294300D01*
Y7015860D02*
Y7275860D01*
X3174300Y7015860D02*
X3294300D01*
X3174300D02*
Y7275860D01*
X3261280Y7163165D02*
X3271280Y7173165D01*
X3268780Y7153165D02*
X3278780Y7163165D01*
X3208780Y7145665D02*
X3233780D01*
X3208780D02*
X3233780Y7173165D01*
X3258780Y7145665D01*
X3233780D02*
X3258780D01*
X3233780Y7113165D02*
Y7145665D01*
X4019580Y6594127D02*
Y6714127D01*
X3759580Y6594127D02*
Y6714127D01*
X3902081Y6654127D02*
X3914580D01*
X3864581D02*
X3877080D01*
X3902081Y6629127D02*
Y6679127D01*
X3877080Y6629127D02*
Y6679127D01*
X3759580Y6594127D02*
X3819580D01*
X3759580Y6714127D02*
X3819580D01*
X3959581Y6594127D02*
X4019580D01*
X3959581Y6714127D02*
X4019580D01*
X4047639Y6827511D02*
Y6887511D01*
X4167639Y6827511D02*
Y6887511D01*
X4047639Y6627511D02*
Y6687511D01*
X4167639Y6627511D02*
Y6687511D01*
X4082639Y6745011D02*
X4132639D01*
X4082639Y6770011D02*
X4132639D01*
X4107639Y6732511D02*
Y6745011D01*
Y6770011D02*
Y6782511D01*
X4047639Y6627511D02*
X4167639D01*
X4047639Y6887511D02*
X4167639D01*
X3504641Y6534276D02*
X3522141Y6539276D01*
X3504641Y6534276D02*
X3542141Y6524276D01*
X3504641Y6514276D02*
X3542141Y6524276D01*
X3504641Y6514276D02*
X3542141Y6504276D01*
X3517141Y6494276D02*
X3542141Y6504276D01*
X3582140Y6386776D02*
Y6646776D01*
X3462141D02*
X3582140D01*
X3462141Y6386776D02*
Y6646776D01*
Y6386776D02*
X3582140D01*
X3457800Y7427125D02*
X3577800D01*
Y7167125D02*
Y7427125D01*
X3457800Y7167125D02*
X3577800D01*
X3457800D02*
Y7427125D01*
X3497800Y7309625D02*
X3522800Y7319625D01*
X3497800Y7309625D02*
X3535300Y7299625D01*
X3497800Y7289625D02*
X3535300Y7299625D01*
X3497800Y7289625D02*
X3535300Y7279625D01*
X3517800Y7274625D02*
X3535300Y7279625D01*
X3869960Y7347860D02*
X3874960Y7330360D01*
X3884960Y7367860D01*
X3894960Y7330360D01*
X3904960Y7367860D01*
X3914960Y7342860D01*
X3762460Y7407860D02*
X4022460D01*
X3762460Y7287860D02*
Y7407860D01*
Y7287860D02*
X4022460D01*
Y7407860D01*
X4438750Y6301000D02*
Y6421000D01*
X4178750Y6301000D02*
X4438750D01*
X4178750D02*
Y6421000D01*
X4438750D01*
X4321250Y6381000D02*
X4331250Y6356000D01*
X4311250Y6343500D02*
X4321250Y6381000D01*
X4301250D02*
X4311250Y6343500D01*
X4291250D02*
X4301250Y6381000D01*
X4286250Y6361000D02*
X4291250Y6343500D01*
X3869580Y6516776D02*
X3874580Y6499276D01*
X3884580Y6536776D01*
X3894580Y6499276D01*
X3904580Y6536776D01*
X3914580Y6511776D01*
X3762080Y6576776D02*
X4022080D01*
X3762080Y6456776D02*
Y6576776D01*
Y6456776D02*
X4022080D01*
Y6576776D01*
X4302848Y7021920D02*
Y7049860D01*
X4315548Y7037160D01*
X4292688D02*
X4315548D01*
X4292688D02*
X4302848Y7049860D01*
X4328248Y7206760D02*
X4338408Y7219460D01*
X4315548D02*
X4338408D01*
X4315548D02*
X4328248Y7206760D01*
Y7234700D01*
X4181440Y7214380D02*
Y7242320D01*
X4194140Y7229620D01*
X4171280D02*
X4194140D01*
X4171280D02*
X4181440Y7242320D01*
X4401140Y7332860D02*
Y7380360D01*
X4121140Y7332860D02*
X4401140D01*
X4121140D02*
Y7380360D01*
X4401140Y7405360D02*
Y7452860D01*
X4121140D02*
X4401140D01*
X4121140Y7405360D02*
Y7452860D01*
X3501529Y6973805D02*
X3543849D01*
X3552313Y6965341D01*
Y6948413D01*
X3543849Y6939949D01*
X3501529D01*
X3552313Y6923021D02*
Y6906093D01*
Y6914557D01*
X3501529D01*
X3509993Y6923021D01*
X5598440Y6819000D02*
G03*
X5598440Y6819000I-20000J0D01*
G01*
X5544640Y7083300D02*
X5764640D01*
X5544640Y6783300D02*
X5764640D01*
Y7083300D01*
X5544640Y6783300D02*
Y7083300D01*
X6400980Y6926000D02*
Y6946000D01*
X6535246Y6829000D02*
X6565980D01*
X6400980Y7277261D02*
Y7297261D01*
X6528719Y7395000D02*
X6565980D01*
X6775980Y6932000D02*
Y7292000D01*
X5094300Y7275860D02*
X5214300D01*
Y7015860D02*
Y7275860D01*
X5094300Y7015860D02*
X5214300D01*
X5094300D02*
Y7275860D01*
X5181280Y7163165D02*
X5191280Y7173165D01*
X5188780Y7153165D02*
X5198780Y7163165D01*
X5128780Y7145665D02*
X5153780D01*
X5128780D02*
X5153780Y7173165D01*
X5178780Y7145665D01*
X5153780D02*
X5178780D01*
X5153780Y7113165D02*
Y7145665D01*
X5939580Y6594127D02*
Y6714127D01*
X5679580Y6594127D02*
Y6714127D01*
X5822081Y6654127D02*
X5834580D01*
X5784581D02*
X5797080D01*
X5822081Y6629127D02*
Y6679127D01*
X5797080Y6629127D02*
Y6679127D01*
X5679580Y6594127D02*
X5739580D01*
X5679580Y6714127D02*
X5739580D01*
X5879581Y6594127D02*
X5939580D01*
X5879581Y6714127D02*
X5939580D01*
X5967639Y6827511D02*
Y6887511D01*
X6087639Y6827511D02*
Y6887511D01*
X5967639Y6627511D02*
Y6687511D01*
X6087639Y6627511D02*
Y6687511D01*
X6002639Y6745011D02*
X6052639D01*
X6002639Y6770011D02*
X6052639D01*
X6027639Y6732511D02*
Y6745011D01*
Y6770011D02*
Y6782511D01*
X5967639Y6627511D02*
X6087639D01*
X5967639Y6887511D02*
X6087639D01*
X5424641Y6534276D02*
X5442140Y6539276D01*
X5424641Y6534276D02*
X5462141Y6524276D01*
X5424641Y6514276D02*
X5462141Y6524276D01*
X5424641Y6514276D02*
X5462141Y6504276D01*
X5437141Y6494276D02*
X5462141Y6504276D01*
X5502140Y6386776D02*
Y6646776D01*
X5382141D02*
X5502140D01*
X5382141Y6386776D02*
Y6646776D01*
Y6386776D02*
X5502140D01*
X5377800Y7427125D02*
X5497800D01*
Y7167125D02*
Y7427125D01*
X5377800Y7167125D02*
X5497800D01*
X5377800D02*
Y7427125D01*
X5417800Y7309625D02*
X5442800Y7319625D01*
X5417800Y7309625D02*
X5455300Y7299625D01*
X5417800Y7289625D02*
X5455300Y7299625D01*
X5417800Y7289625D02*
X5455300Y7279625D01*
X5437800Y7274625D02*
X5455300Y7279625D01*
X5789960Y7347860D02*
X5794960Y7330360D01*
X5804960Y7367860D01*
X5814960Y7330360D01*
X5824960Y7367860D01*
X5834960Y7342860D01*
X5682460Y7407860D02*
X5942460D01*
X5682460Y7287860D02*
Y7407860D01*
Y7287860D02*
X5942460D01*
Y7407860D01*
X6358750Y6301000D02*
Y6421000D01*
X6098750Y6301000D02*
X6358750D01*
X6098750D02*
Y6421000D01*
X6358750D01*
X6241250Y6381000D02*
X6251250Y6356000D01*
X6231250Y6343500D02*
X6241250Y6381000D01*
X6221250D02*
X6231250Y6343500D01*
X6211250D02*
X6221250Y6381000D01*
X6206250Y6361000D02*
X6211250Y6343500D01*
X5789580Y6516776D02*
X5794580Y6499276D01*
X5804580Y6536776D01*
X5814580Y6499276D01*
X5824580Y6536776D01*
X5834580Y6511776D01*
X5682080Y6576776D02*
X5942080D01*
X5682080Y6456776D02*
Y6576776D01*
Y6456776D02*
X5942080D01*
Y6576776D01*
X6222848Y7021920D02*
Y7049860D01*
X6235548Y7037160D01*
X6212688D02*
X6235548D01*
X6212688D02*
X6222848Y7049860D01*
X6248248Y7206760D02*
X6258408Y7219460D01*
X6235548D02*
X6258408D01*
X6235548D02*
X6248248Y7206760D01*
Y7234700D01*
X6101440Y7214380D02*
Y7242320D01*
X6114140Y7229620D01*
X6091280D02*
X6114140D01*
X6091280D02*
X6101440Y7242320D01*
X6321140Y7332860D02*
Y7380360D01*
X6041140Y7332860D02*
X6321140D01*
X6041140D02*
Y7380360D01*
X6321140Y7405360D02*
Y7452860D01*
X6041140D02*
X6321140D01*
X6041140Y7405360D02*
Y7452860D01*
X5421529Y6973805D02*
X5463849D01*
X5472313Y6965341D01*
Y6948413D01*
X5463849Y6939949D01*
X5421529D01*
X5472313Y6923021D02*
Y6906093D01*
Y6914557D01*
X5421529D01*
X5429993Y6923021D01*
X7518440Y6819000D02*
G03*
X7518440Y6819000I-20000J0D01*
G01*
X7464640Y7083300D02*
X7684640D01*
X7464640Y6783300D02*
X7684640D01*
Y7083300D01*
X7464640Y6783300D02*
Y7083300D01*
X8320980Y6926000D02*
Y6946000D01*
X8455245Y6829000D02*
X8485980D01*
X8320980Y7277261D02*
Y7297261D01*
X8448719Y7395000D02*
X8485980D01*
X8695980Y6932000D02*
Y7292000D01*
X7014300Y7275860D02*
X7134300D01*
Y7015860D02*
Y7275860D01*
X7014300Y7015860D02*
X7134300D01*
X7014300D02*
Y7275860D01*
X7101280Y7163165D02*
X7111280Y7173165D01*
X7108780Y7153165D02*
X7118780Y7163165D01*
X7048780Y7145665D02*
X7073780D01*
X7048780D02*
X7073780Y7173165D01*
X7098780Y7145665D01*
X7073780D02*
X7098780D01*
X7073780Y7113165D02*
Y7145665D01*
X7859580Y6594127D02*
Y6714127D01*
X7599580Y6594127D02*
Y6714127D01*
X7742081Y6654127D02*
X7754580D01*
X7704580D02*
X7717080D01*
X7742081Y6629127D02*
Y6679127D01*
X7717080Y6629127D02*
Y6679127D01*
X7599580Y6594127D02*
X7659580D01*
X7599580Y6714127D02*
X7659580D01*
X7799581Y6594127D02*
X7859580D01*
X7799581Y6714127D02*
X7859580D01*
X7887639Y6827511D02*
Y6887511D01*
X8007639Y6827511D02*
Y6887511D01*
X7887639Y6627511D02*
Y6687511D01*
X8007639Y6627511D02*
Y6687511D01*
X7922639Y6745011D02*
X7972639D01*
X7922639Y6770011D02*
X7972639D01*
X7947639Y6732511D02*
Y6745011D01*
Y6770011D02*
Y6782511D01*
X7887639Y6627511D02*
X8007639D01*
X7887639Y6887511D02*
X8007639D01*
X7344641Y6534276D02*
X7362140Y6539276D01*
X7344641Y6534276D02*
X7382141Y6524276D01*
X7344641Y6514276D02*
X7382141Y6524276D01*
X7344641Y6514276D02*
X7382141Y6504276D01*
X7357140Y6494276D02*
X7382141Y6504276D01*
X7422140Y6386776D02*
Y6646776D01*
X7302141D02*
X7422140D01*
X7302141Y6386776D02*
Y6646776D01*
Y6386776D02*
X7422140D01*
X7297800Y7427125D02*
X7417800D01*
Y7167125D02*
Y7427125D01*
X7297800Y7167125D02*
X7417800D01*
X7297800D02*
Y7427125D01*
X7337800Y7309625D02*
X7362800Y7319625D01*
X7337800Y7309625D02*
X7375300Y7299625D01*
X7337800Y7289625D02*
X7375300Y7299625D01*
X7337800Y7289625D02*
X7375300Y7279625D01*
X7357800Y7274625D02*
X7375300Y7279625D01*
X7709960Y7347860D02*
X7714960Y7330360D01*
X7724960Y7367860D01*
X7734960Y7330360D01*
X7744960Y7367860D01*
X7754960Y7342860D01*
X7602460Y7407860D02*
X7862460D01*
X7602460Y7287860D02*
Y7407860D01*
Y7287860D02*
X7862460D01*
Y7407860D01*
X8278750Y6301000D02*
Y6421000D01*
X8018750Y6301000D02*
X8278750D01*
X8018750D02*
Y6421000D01*
X8278750D01*
X8161250Y6381000D02*
X8171250Y6356000D01*
X8151250Y6343500D02*
X8161250Y6381000D01*
X8141250D02*
X8151250Y6343500D01*
X8131250D02*
X8141250Y6381000D01*
X8126250Y6361000D02*
X8131250Y6343500D01*
X7709580Y6516776D02*
X7714580Y6499276D01*
X7724580Y6536776D01*
X7734580Y6499276D01*
X7744580Y6536776D01*
X7754580Y6511776D01*
X7602080Y6576776D02*
X7862080D01*
X7602080Y6456776D02*
Y6576776D01*
Y6456776D02*
X7862080D01*
Y6576776D01*
X8142848Y7021920D02*
Y7049860D01*
X8155548Y7037160D01*
X8132688D02*
X8155548D01*
X8132688D02*
X8142848Y7049860D01*
X8168248Y7206760D02*
X8178408Y7219460D01*
X8155548D02*
X8178408D01*
X8155548D02*
X8168248Y7206760D01*
Y7234700D01*
X8021440Y7214380D02*
Y7242320D01*
X8034140Y7229620D01*
X8011280D02*
X8034140D01*
X8011280D02*
X8021440Y7242320D01*
X8241140Y7332860D02*
Y7380360D01*
X7961140Y7332860D02*
X8241140D01*
X7961140D02*
Y7380360D01*
X8241140Y7405360D02*
Y7452860D01*
X7961140D02*
X8241140D01*
X7961140Y7405360D02*
Y7452860D01*
X7341529Y6973805D02*
X7383849D01*
X7392313Y6965341D01*
Y6948413D01*
X7383849Y6939949D01*
X7341529D01*
X7392313Y6923021D02*
Y6906093D01*
Y6914557D01*
X7341529D01*
X7349993Y6923021D01*
X1758440Y8579000D02*
G03*
X1758440Y8579000I-20000J0D01*
G01*
X1704640Y8843300D02*
X1924641D01*
X1704640Y8543300D02*
X1924641D01*
Y8843300D01*
X1704640Y8543300D02*
Y8843300D01*
X2560980Y8686000D02*
Y8706000D01*
X2695246Y8589000D02*
X2725980D01*
X2560980Y9037261D02*
Y9057261D01*
X2688719Y9155000D02*
X2725980D01*
X2935980Y8692000D02*
Y9052000D01*
X1254300Y9035860D02*
X1374300D01*
Y8775860D02*
Y9035860D01*
X1254300Y8775860D02*
X1374300D01*
X1254300D02*
Y9035860D01*
X1341280Y8923165D02*
X1351280Y8933165D01*
X1348780Y8913165D02*
X1358780Y8923165D01*
X1288780Y8905665D02*
X1313780D01*
X1288780D02*
X1313780Y8933165D01*
X1338780Y8905665D01*
X1313780D02*
X1338780D01*
X1313780Y8873165D02*
Y8905665D01*
X2099581Y8354127D02*
Y8474127D01*
X1839581Y8354127D02*
Y8474127D01*
X1982081Y8414127D02*
X1994580D01*
X1944581D02*
X1957080D01*
X1982081Y8389127D02*
Y8439127D01*
X1957080Y8389127D02*
Y8439127D01*
X1839581Y8354127D02*
X1899580D01*
X1839581Y8474127D02*
X1899580D01*
X2039581Y8354127D02*
X2099581D01*
X2039581Y8474127D02*
X2099581D01*
X2127639Y8587511D02*
Y8647511D01*
X2247639Y8587511D02*
Y8647511D01*
X2127639Y8387511D02*
Y8447511D01*
X2247639Y8387511D02*
Y8447511D01*
X2162639Y8505011D02*
X2212639D01*
X2162639Y8530011D02*
X2212639D01*
X2187639Y8492511D02*
Y8505011D01*
Y8530011D02*
Y8542511D01*
X2127639Y8387511D02*
X2247639D01*
X2127639Y8647511D02*
X2247639D01*
X1584641Y8294276D02*
X1602141Y8299276D01*
X1584641Y8294276D02*
X1622141Y8284276D01*
X1584641Y8274276D02*
X1622141Y8284276D01*
X1584641Y8274276D02*
X1622141Y8264276D01*
X1597141Y8254276D02*
X1622141Y8264276D01*
X1662140Y8146776D02*
Y8406776D01*
X1542141D02*
X1662140D01*
X1542141Y8146776D02*
Y8406776D01*
Y8146776D02*
X1662140D01*
X1537800Y9187125D02*
X1657800D01*
Y8927125D02*
Y9187125D01*
X1537800Y8927125D02*
X1657800D01*
X1537800D02*
Y9187125D01*
X1577800Y9069625D02*
X1602800Y9079625D01*
X1577800Y9069625D02*
X1615300Y9059625D01*
X1577800Y9049625D02*
X1615300Y9059625D01*
X1577800Y9049625D02*
X1615300Y9039625D01*
X1597800Y9034625D02*
X1615300Y9039625D01*
X1949960Y9107860D02*
X1954960Y9090360D01*
X1964960Y9127860D01*
X1974960Y9090360D01*
X1984960Y9127860D01*
X1994960Y9102860D01*
X1842460Y9167860D02*
X2102460D01*
X1842460Y9047860D02*
Y9167860D01*
Y9047860D02*
X2102460D01*
Y9167860D01*
X2518750Y8061000D02*
Y8181000D01*
X2258750Y8061000D02*
X2518750D01*
X2258750D02*
Y8181000D01*
X2518750D01*
X2401250Y8141000D02*
X2411250Y8116000D01*
X2391250Y8103500D02*
X2401250Y8141000D01*
X2381250D02*
X2391250Y8103500D01*
X2371250D02*
X2381250Y8141000D01*
X2366250Y8121000D02*
X2371250Y8103500D01*
X1949580Y8276776D02*
X1954580Y8259276D01*
X1964580Y8296776D01*
X1974581Y8259276D01*
X1984580Y8296776D01*
X1994580Y8271776D01*
X1842080Y8336776D02*
X2102080D01*
X1842080Y8216776D02*
Y8336776D01*
Y8216776D02*
X2102080D01*
Y8336776D01*
X2382848Y8781920D02*
Y8809860D01*
X2395548Y8797160D01*
X2372688D02*
X2395548D01*
X2372688D02*
X2382848Y8809860D01*
X2408248Y8966760D02*
X2418408Y8979460D01*
X2395548D02*
X2418408D01*
X2395548D02*
X2408248Y8966760D01*
Y8994700D01*
X2261440Y8974380D02*
Y9002320D01*
X2274140Y8989620D01*
X2251280D02*
X2274140D01*
X2251280D02*
X2261440Y9002320D01*
X2481140Y9092860D02*
Y9140360D01*
X2201140Y9092860D02*
X2481140D01*
X2201140D02*
Y9140360D01*
X2481140Y9165360D02*
Y9212860D01*
X2201140D02*
X2481140D01*
X2201140Y9165360D02*
Y9212860D01*
X1581529Y8733805D02*
X1623849D01*
X1632313Y8725341D01*
Y8708413D01*
X1623849Y8699949D01*
X1581529D01*
X1632313Y8683021D02*
Y8666093D01*
Y8674557D01*
X1581529D01*
X1589993Y8683021D01*
X3678440Y8579000D02*
G03*
X3678440Y8579000I-20000J0D01*
G01*
X3624640Y8843300D02*
X3844641D01*
X3624640Y8543300D02*
X3844641D01*
Y8843300D01*
X3624640Y8543300D02*
Y8843300D01*
X4480980Y8686000D02*
Y8706000D01*
X4615246Y8589000D02*
X4645980D01*
X4480980Y9037261D02*
Y9057261D01*
X4608719Y9155000D02*
X4645980D01*
X4855980Y8692000D02*
Y9052000D01*
X3174300Y9035860D02*
X3294300D01*
Y8775860D02*
Y9035860D01*
X3174300Y8775860D02*
X3294300D01*
X3174300D02*
Y9035860D01*
X3261280Y8923165D02*
X3271280Y8933165D01*
X3268780Y8913165D02*
X3278780Y8923165D01*
X3208780Y8905665D02*
X3233780D01*
X3208780D02*
X3233780Y8933165D01*
X3258780Y8905665D01*
X3233780D02*
X3258780D01*
X3233780Y8873165D02*
Y8905665D01*
X4019580Y8354127D02*
Y8474127D01*
X3759580Y8354127D02*
Y8474127D01*
X3902081Y8414127D02*
X3914580D01*
X3864581D02*
X3877080D01*
X3902081Y8389127D02*
Y8439127D01*
X3877080Y8389127D02*
Y8439127D01*
X3759580Y8354127D02*
X3819580D01*
X3759580Y8474127D02*
X3819580D01*
X3959581Y8354127D02*
X4019580D01*
X3959581Y8474127D02*
X4019580D01*
X4047639Y8587511D02*
Y8647511D01*
X4167639Y8587511D02*
Y8647511D01*
X4047639Y8387511D02*
Y8447511D01*
X4167639Y8387511D02*
Y8447511D01*
X4082639Y8505011D02*
X4132639D01*
X4082639Y8530011D02*
X4132639D01*
X4107639Y8492511D02*
Y8505011D01*
Y8530011D02*
Y8542511D01*
X4047639Y8387511D02*
X4167639D01*
X4047639Y8647511D02*
X4167639D01*
X3504641Y8294276D02*
X3522141Y8299276D01*
X3504641Y8294276D02*
X3542141Y8284276D01*
X3504641Y8274276D02*
X3542141Y8284276D01*
X3504641Y8274276D02*
X3542141Y8264276D01*
X3517141Y8254276D02*
X3542141Y8264276D01*
X3582140Y8146776D02*
Y8406776D01*
X3462141D02*
X3582140D01*
X3462141Y8146776D02*
Y8406776D01*
Y8146776D02*
X3582140D01*
X3457800Y9187125D02*
X3577800D01*
Y8927125D02*
Y9187125D01*
X3457800Y8927125D02*
X3577800D01*
X3457800D02*
Y9187125D01*
X3497800Y9069625D02*
X3522800Y9079625D01*
X3497800Y9069625D02*
X3535300Y9059625D01*
X3497800Y9049625D02*
X3535300Y9059625D01*
X3497800Y9049625D02*
X3535300Y9039625D01*
X3517800Y9034625D02*
X3535300Y9039625D01*
X3869960Y9107860D02*
X3874960Y9090360D01*
X3884960Y9127860D01*
X3894960Y9090360D01*
X3904960Y9127860D01*
X3914960Y9102860D01*
X3762460Y9167860D02*
X4022460D01*
X3762460Y9047860D02*
Y9167860D01*
Y9047860D02*
X4022460D01*
Y9167860D01*
X4438750Y8061000D02*
Y8181000D01*
X4178750Y8061000D02*
X4438750D01*
X4178750D02*
Y8181000D01*
X4438750D01*
X4321250Y8141000D02*
X4331250Y8116000D01*
X4311250Y8103500D02*
X4321250Y8141000D01*
X4301250D02*
X4311250Y8103500D01*
X4291250D02*
X4301250Y8141000D01*
X4286250Y8121000D02*
X4291250Y8103500D01*
X3869580Y8276776D02*
X3874580Y8259276D01*
X3884580Y8296776D01*
X3894580Y8259276D01*
X3904580Y8296776D01*
X3914580Y8271776D01*
X3762080Y8336776D02*
X4022080D01*
X3762080Y8216776D02*
Y8336776D01*
Y8216776D02*
X4022080D01*
Y8336776D01*
X4302848Y8781920D02*
Y8809860D01*
X4315548Y8797160D01*
X4292688D02*
X4315548D01*
X4292688D02*
X4302848Y8809860D01*
X4328248Y8966760D02*
X4338408Y8979460D01*
X4315548D02*
X4338408D01*
X4315548D02*
X4328248Y8966760D01*
Y8994700D01*
X4181440Y8974380D02*
Y9002320D01*
X4194140Y8989620D01*
X4171280D02*
X4194140D01*
X4171280D02*
X4181440Y9002320D01*
X4401140Y9092860D02*
Y9140360D01*
X4121140Y9092860D02*
X4401140D01*
X4121140D02*
Y9140360D01*
X4401140Y9165360D02*
Y9212860D01*
X4121140D02*
X4401140D01*
X4121140Y9165360D02*
Y9212860D01*
X3501529Y8733805D02*
X3543849D01*
X3552313Y8725341D01*
Y8708413D01*
X3543849Y8699949D01*
X3501529D01*
X3552313Y8683021D02*
Y8666093D01*
Y8674557D01*
X3501529D01*
X3509993Y8683021D01*
X5598440Y8579000D02*
G03*
X5598440Y8579000I-20000J0D01*
G01*
X5544640Y8843300D02*
X5764640D01*
X5544640Y8543300D02*
X5764640D01*
Y8843300D01*
X5544640Y8543300D02*
Y8843300D01*
X6400980Y8686000D02*
Y8706000D01*
X6535246Y8589000D02*
X6565980D01*
X6400980Y9037261D02*
Y9057261D01*
X6528719Y9155000D02*
X6565980D01*
X6775980Y8692000D02*
Y9052000D01*
X5094300Y9035860D02*
X5214300D01*
Y8775860D02*
Y9035860D01*
X5094300Y8775860D02*
X5214300D01*
X5094300D02*
Y9035860D01*
X5181280Y8923165D02*
X5191280Y8933165D01*
X5188780Y8913165D02*
X5198780Y8923165D01*
X5128780Y8905665D02*
X5153780D01*
X5128780D02*
X5153780Y8933165D01*
X5178780Y8905665D01*
X5153780D02*
X5178780D01*
X5153780Y8873165D02*
Y8905665D01*
X5939580Y8354127D02*
Y8474127D01*
X5679580Y8354127D02*
Y8474127D01*
X5822081Y8414127D02*
X5834580D01*
X5784581D02*
X5797080D01*
X5822081Y8389127D02*
Y8439127D01*
X5797080Y8389127D02*
Y8439127D01*
X5679580Y8354127D02*
X5739580D01*
X5679580Y8474127D02*
X5739580D01*
X5879581Y8354127D02*
X5939580D01*
X5879581Y8474127D02*
X5939580D01*
X5967639Y8587511D02*
Y8647511D01*
X6087639Y8587511D02*
Y8647511D01*
X5967639Y8387511D02*
Y8447511D01*
X6087639Y8387511D02*
Y8447511D01*
X6002639Y8505011D02*
X6052639D01*
X6002639Y8530011D02*
X6052639D01*
X6027639Y8492511D02*
Y8505011D01*
Y8530011D02*
Y8542511D01*
X5967639Y8387511D02*
X6087639D01*
X5967639Y8647511D02*
X6087639D01*
X5424641Y8294276D02*
X5442140Y8299276D01*
X5424641Y8294276D02*
X5462141Y8284276D01*
X5424641Y8274276D02*
X5462141Y8284276D01*
X5424641Y8274276D02*
X5462141Y8264276D01*
X5437141Y8254276D02*
X5462141Y8264276D01*
X5502140Y8146776D02*
Y8406776D01*
X5382141D02*
X5502140D01*
X5382141Y8146776D02*
Y8406776D01*
Y8146776D02*
X5502140D01*
X5377800Y9187125D02*
X5497800D01*
Y8927125D02*
Y9187125D01*
X5377800Y8927125D02*
X5497800D01*
X5377800D02*
Y9187125D01*
X5417800Y9069625D02*
X5442800Y9079625D01*
X5417800Y9069625D02*
X5455300Y9059625D01*
X5417800Y9049625D02*
X5455300Y9059625D01*
X5417800Y9049625D02*
X5455300Y9039625D01*
X5437800Y9034625D02*
X5455300Y9039625D01*
X5789960Y9107860D02*
X5794960Y9090360D01*
X5804960Y9127860D01*
X5814960Y9090360D01*
X5824960Y9127860D01*
X5834960Y9102860D01*
X5682460Y9167860D02*
X5942460D01*
X5682460Y9047860D02*
Y9167860D01*
Y9047860D02*
X5942460D01*
Y9167860D01*
X6358750Y8061000D02*
Y8181000D01*
X6098750Y8061000D02*
X6358750D01*
X6098750D02*
Y8181000D01*
X6358750D01*
X6241250Y8141000D02*
X6251250Y8116000D01*
X6231250Y8103500D02*
X6241250Y8141000D01*
X6221250D02*
X6231250Y8103500D01*
X6211250D02*
X6221250Y8141000D01*
X6206250Y8121000D02*
X6211250Y8103500D01*
X5789580Y8276776D02*
X5794580Y8259276D01*
X5804580Y8296776D01*
X5814580Y8259276D01*
X5824580Y8296776D01*
X5834580Y8271776D01*
X5682080Y8336776D02*
X5942080D01*
X5682080Y8216776D02*
Y8336776D01*
Y8216776D02*
X5942080D01*
Y8336776D01*
X6222848Y8781920D02*
Y8809860D01*
X6235548Y8797160D01*
X6212688D02*
X6235548D01*
X6212688D02*
X6222848Y8809860D01*
X6248248Y8966760D02*
X6258408Y8979460D01*
X6235548D02*
X6258408D01*
X6235548D02*
X6248248Y8966760D01*
Y8994700D01*
X6101440Y8974380D02*
Y9002320D01*
X6114140Y8989620D01*
X6091280D02*
X6114140D01*
X6091280D02*
X6101440Y9002320D01*
X6321140Y9092860D02*
Y9140360D01*
X6041140Y9092860D02*
X6321140D01*
X6041140D02*
Y9140360D01*
X6321140Y9165360D02*
Y9212860D01*
X6041140D02*
X6321140D01*
X6041140Y9165360D02*
Y9212860D01*
X5421529Y8733805D02*
X5463849D01*
X5472313Y8725341D01*
Y8708413D01*
X5463849Y8699949D01*
X5421529D01*
X5472313Y8683021D02*
Y8666093D01*
Y8674557D01*
X5421529D01*
X5429993Y8683021D01*
X7518440Y8579000D02*
G03*
X7518440Y8579000I-20000J0D01*
G01*
X7464640Y8843300D02*
X7684640D01*
X7464640Y8543300D02*
X7684640D01*
Y8843300D01*
X7464640Y8543300D02*
Y8843300D01*
X8320980Y8686000D02*
Y8706000D01*
X8455245Y8589000D02*
X8485980D01*
X8320980Y9037261D02*
Y9057261D01*
X8448719Y9155000D02*
X8485980D01*
X8695980Y8692000D02*
Y9052000D01*
X7014300Y9035860D02*
X7134300D01*
Y8775860D02*
Y9035860D01*
X7014300Y8775860D02*
X7134300D01*
X7014300D02*
Y9035860D01*
X7101280Y8923165D02*
X7111280Y8933165D01*
X7108780Y8913165D02*
X7118780Y8923165D01*
X7048780Y8905665D02*
X7073780D01*
X7048780D02*
X7073780Y8933165D01*
X7098780Y8905665D01*
X7073780D02*
X7098780D01*
X7073780Y8873165D02*
Y8905665D01*
X7859580Y8354127D02*
Y8474127D01*
X7599580Y8354127D02*
Y8474127D01*
X7742081Y8414127D02*
X7754580D01*
X7704580D02*
X7717080D01*
X7742081Y8389127D02*
Y8439127D01*
X7717080Y8389127D02*
Y8439127D01*
X7599580Y8354127D02*
X7659580D01*
X7599580Y8474127D02*
X7659580D01*
X7799581Y8354127D02*
X7859580D01*
X7799581Y8474127D02*
X7859580D01*
X7887639Y8587511D02*
Y8647511D01*
X8007639Y8587511D02*
Y8647511D01*
X7887639Y8387511D02*
Y8447511D01*
X8007639Y8387511D02*
Y8447511D01*
X7922639Y8505011D02*
X7972639D01*
X7922639Y8530011D02*
X7972639D01*
X7947639Y8492511D02*
Y8505011D01*
Y8530011D02*
Y8542511D01*
X7887639Y8387511D02*
X8007639D01*
X7887639Y8647511D02*
X8007639D01*
X7344641Y8294276D02*
X7362140Y8299276D01*
X7344641Y8294276D02*
X7382141Y8284276D01*
X7344641Y8274276D02*
X7382141Y8284276D01*
X7344641Y8274276D02*
X7382141Y8264276D01*
X7357140Y8254276D02*
X7382141Y8264276D01*
X7422140Y8146776D02*
Y8406776D01*
X7302141D02*
X7422140D01*
X7302141Y8146776D02*
Y8406776D01*
Y8146776D02*
X7422140D01*
X7297800Y9187125D02*
X7417800D01*
Y8927125D02*
Y9187125D01*
X7297800Y8927125D02*
X7417800D01*
X7297800D02*
Y9187125D01*
X7337800Y9069625D02*
X7362800Y9079625D01*
X7337800Y9069625D02*
X7375300Y9059625D01*
X7337800Y9049625D02*
X7375300Y9059625D01*
X7337800Y9049625D02*
X7375300Y9039625D01*
X7357800Y9034625D02*
X7375300Y9039625D01*
X7709960Y9107860D02*
X7714960Y9090360D01*
X7724960Y9127860D01*
X7734960Y9090360D01*
X7744960Y9127860D01*
X7754960Y9102860D01*
X7602460Y9167860D02*
X7862460D01*
X7602460Y9047860D02*
Y9167860D01*
Y9047860D02*
X7862460D01*
Y9167860D01*
X8278750Y8061000D02*
Y8181000D01*
X8018750Y8061000D02*
X8278750D01*
X8018750D02*
Y8181000D01*
X8278750D01*
X8161250Y8141000D02*
X8171250Y8116000D01*
X8151250Y8103500D02*
X8161250Y8141000D01*
X8141250D02*
X8151250Y8103500D01*
X8131250D02*
X8141250Y8141000D01*
X8126250Y8121000D02*
X8131250Y8103500D01*
X7709580Y8276776D02*
X7714580Y8259276D01*
X7724580Y8296776D01*
X7734580Y8259276D01*
X7744580Y8296776D01*
X7754580Y8271776D01*
X7602080Y8336776D02*
X7862080D01*
X7602080Y8216776D02*
Y8336776D01*
Y8216776D02*
X7862080D01*
Y8336776D01*
X8142848Y8781920D02*
Y8809860D01*
X8155548Y8797160D01*
X8132688D02*
X8155548D01*
X8132688D02*
X8142848Y8809860D01*
X8168248Y8966760D02*
X8178408Y8979460D01*
X8155548D02*
X8178408D01*
X8155548D02*
X8168248Y8966760D01*
Y8994700D01*
X8021440Y8974380D02*
Y9002320D01*
X8034140Y8989620D01*
X8011280D02*
X8034140D01*
X8011280D02*
X8021440Y9002320D01*
X8241140Y9092860D02*
Y9140360D01*
X7961140Y9092860D02*
X8241140D01*
X7961140D02*
Y9140360D01*
X8241140Y9165360D02*
Y9212860D01*
X7961140D02*
X8241140D01*
X7961140Y9165360D02*
Y9212860D01*
X7341529Y8733805D02*
X7383849D01*
X7392313Y8725341D01*
Y8708413D01*
X7383849Y8699949D01*
X7341529D01*
X7392313Y8683021D02*
Y8666093D01*
Y8674557D01*
X7341529D01*
X7349993Y8683021D01*
D34*
X1399300Y1955860D02*
G03*
X1399300Y1955860I-5000J0D01*
G01*
X3319300D02*
G03*
X3319300Y1955860I-5000J0D01*
G01*
X5239300D02*
G03*
X5239300Y1955860I-5000J0D01*
G01*
X7159300D02*
G03*
X7159300Y1955860I-5000J0D01*
G01*
X1399300Y3715860D02*
G03*
X1399300Y3715860I-5000J0D01*
G01*
X3319300D02*
G03*
X3319300Y3715860I-5000J0D01*
G01*
X5239300D02*
G03*
X5239300Y3715860I-5000J0D01*
G01*
X7159300D02*
G03*
X7159300Y3715860I-5000J0D01*
G01*
X1399300Y5475860D02*
G03*
X1399300Y5475860I-5000J0D01*
G01*
X3319300D02*
G03*
X3319300Y5475860I-5000J0D01*
G01*
X5239300D02*
G03*
X5239300Y5475860I-5000J0D01*
G01*
X7159300D02*
G03*
X7159300Y5475860I-5000J0D01*
G01*
X1399300Y7235860D02*
G03*
X1399300Y7235860I-5000J0D01*
G01*
X3319300D02*
G03*
X3319300Y7235860I-5000J0D01*
G01*
X5239300D02*
G03*
X5239300Y7235860I-5000J0D01*
G01*
X7159300D02*
G03*
X7159300Y7235860I-5000J0D01*
G01*
X1399300Y8995860D02*
G03*
X1399300Y8995860I-5000J0D01*
G01*
X3319300D02*
G03*
X3319300Y8995860I-5000J0D01*
G01*
X5239300D02*
G03*
X5239300Y8995860I-5000J0D01*
G01*
X7159300D02*
G03*
X7159300Y8995860I-5000J0D01*
G01*
D35*
X2347848Y1804620D02*
G03*
X2347848Y1804620I-5000J0D01*
G01*
X2453248Y1892000D02*
G03*
X2453248Y1892000I-5000J0D01*
G01*
X2226440Y1997080D02*
G03*
X2226440Y1997080I-5000J0D01*
G01*
X4267848Y1804620D02*
G03*
X4267848Y1804620I-5000J0D01*
G01*
X4373248Y1892000D02*
G03*
X4373248Y1892000I-5000J0D01*
G01*
X4146440Y1997080D02*
G03*
X4146440Y1997080I-5000J0D01*
G01*
X6187848Y1804620D02*
G03*
X6187848Y1804620I-5000J0D01*
G01*
X6293248Y1892000D02*
G03*
X6293248Y1892000I-5000J0D01*
G01*
X6066440Y1997080D02*
G03*
X6066440Y1997080I-5000J0D01*
G01*
X8107848Y1804620D02*
G03*
X8107848Y1804620I-5000J0D01*
G01*
X8213248Y1892000D02*
G03*
X8213248Y1892000I-5000J0D01*
G01*
X7986440Y1997080D02*
G03*
X7986440Y1997080I-5000J0D01*
G01*
X2347848Y3564620D02*
G03*
X2347848Y3564620I-5000J0D01*
G01*
X2453248Y3652000D02*
G03*
X2453248Y3652000I-5000J0D01*
G01*
X2226440Y3757080D02*
G03*
X2226440Y3757080I-5000J0D01*
G01*
X4267848Y3564620D02*
G03*
X4267848Y3564620I-5000J0D01*
G01*
X4373248Y3652000D02*
G03*
X4373248Y3652000I-5000J0D01*
G01*
X4146440Y3757080D02*
G03*
X4146440Y3757080I-5000J0D01*
G01*
X6187848Y3564620D02*
G03*
X6187848Y3564620I-5000J0D01*
G01*
X6293248Y3652000D02*
G03*
X6293248Y3652000I-5000J0D01*
G01*
X6066440Y3757080D02*
G03*
X6066440Y3757080I-5000J0D01*
G01*
X8107848Y3564620D02*
G03*
X8107848Y3564620I-5000J0D01*
G01*
X8213248Y3652000D02*
G03*
X8213248Y3652000I-5000J0D01*
G01*
X7986440Y3757080D02*
G03*
X7986440Y3757080I-5000J0D01*
G01*
X2347848Y5324620D02*
G03*
X2347848Y5324620I-5000J0D01*
G01*
X2453248Y5412000D02*
G03*
X2453248Y5412000I-5000J0D01*
G01*
X2226440Y5517080D02*
G03*
X2226440Y5517080I-5000J0D01*
G01*
X4267848Y5324620D02*
G03*
X4267848Y5324620I-5000J0D01*
G01*
X4373248Y5412000D02*
G03*
X4373248Y5412000I-5000J0D01*
G01*
X4146440Y5517080D02*
G03*
X4146440Y5517080I-5000J0D01*
G01*
X6187848Y5324620D02*
G03*
X6187848Y5324620I-5000J0D01*
G01*
X6293248Y5412000D02*
G03*
X6293248Y5412000I-5000J0D01*
G01*
X6066440Y5517080D02*
G03*
X6066440Y5517080I-5000J0D01*
G01*
X8107848Y5324620D02*
G03*
X8107848Y5324620I-5000J0D01*
G01*
X8213248Y5412000D02*
G03*
X8213248Y5412000I-5000J0D01*
G01*
X7986440Y5517080D02*
G03*
X7986440Y5517080I-5000J0D01*
G01*
X2347848Y7084620D02*
G03*
X2347848Y7084620I-5000J0D01*
G01*
X2453248Y7172000D02*
G03*
X2453248Y7172000I-5000J0D01*
G01*
X2226440Y7277080D02*
G03*
X2226440Y7277080I-5000J0D01*
G01*
X4267848Y7084620D02*
G03*
X4267848Y7084620I-5000J0D01*
G01*
X4373248Y7172000D02*
G03*
X4373248Y7172000I-5000J0D01*
G01*
X4146440Y7277080D02*
G03*
X4146440Y7277080I-5000J0D01*
G01*
X6187848Y7084620D02*
G03*
X6187848Y7084620I-5000J0D01*
G01*
X6293248Y7172000D02*
G03*
X6293248Y7172000I-5000J0D01*
G01*
X6066440Y7277080D02*
G03*
X6066440Y7277080I-5000J0D01*
G01*
X8107848Y7084620D02*
G03*
X8107848Y7084620I-5000J0D01*
G01*
X8213248Y7172000D02*
G03*
X8213248Y7172000I-5000J0D01*
G01*
X7986440Y7277080D02*
G03*
X7986440Y7277080I-5000J0D01*
G01*
X2347848Y8844620D02*
G03*
X2347848Y8844620I-5000J0D01*
G01*
X2453248Y8932000D02*
G03*
X2453248Y8932000I-5000J0D01*
G01*
X2226440Y9037080D02*
G03*
X2226440Y9037080I-5000J0D01*
G01*
X4267848Y8844620D02*
G03*
X4267848Y8844620I-5000J0D01*
G01*
X4373248Y8932000D02*
G03*
X4373248Y8932000I-5000J0D01*
G01*
X4146440Y9037080D02*
G03*
X4146440Y9037080I-5000J0D01*
G01*
X6187848Y8844620D02*
G03*
X6187848Y8844620I-5000J0D01*
G01*
X6293248Y8932000D02*
G03*
X6293248Y8932000I-5000J0D01*
G01*
X6066440Y9037080D02*
G03*
X6066440Y9037080I-5000J0D01*
G01*
X8107848Y8844620D02*
G03*
X8107848Y8844620I-5000J0D01*
G01*
X8213248Y8932000D02*
G03*
X8213248Y8932000I-5000J0D01*
G01*
X7986440Y9037080D02*
G03*
X7986440Y9037080I-5000J0D01*
G01*
D36*
X2015936Y1095979D02*
Y1146762D01*
X1990544D01*
X1982081Y1138298D01*
Y1121370D01*
X1990544Y1112906D01*
X2015936D01*
X1999008D02*
X1982081Y1095979D01*
X1965153D02*
X1948225D01*
X1956689D01*
Y1146762D01*
X1965153Y1138298D01*
X1445860Y1830232D02*
X1395076D01*
Y1855624D01*
X1403540Y1864088D01*
X1437396D01*
X1445860Y1855624D01*
Y1830232D01*
X1395076Y1881016D02*
Y1897944D01*
Y1889480D01*
X1445860D01*
X1437396Y1881016D01*
X2868591Y1042668D02*
Y1093451D01*
X2843200D01*
X2834736Y1084987D01*
Y1068060D01*
X2843200Y1059596D01*
X2868591D01*
X2783952Y1084987D02*
X2792416Y1093451D01*
X2809344D01*
X2817808Y1084987D01*
Y1051132D01*
X2809344Y1042668D01*
X2792416D01*
X2783952Y1051132D01*
Y1068060D01*
X2800880D01*
X2767024Y1042668D02*
Y1093451D01*
X2750097Y1076523D01*
X2733169Y1093451D01*
Y1042668D01*
X2821325Y1350302D02*
X2829788Y1358765D01*
X2846716D01*
X2855180Y1350302D01*
Y1316446D01*
X2846716Y1307982D01*
X2829788D01*
X2821325Y1316446D01*
Y1333374D01*
X2838252D01*
X2804397Y1307982D02*
Y1358765D01*
X2770541Y1307982D01*
Y1358765D01*
X2753613D02*
Y1307982D01*
X2728221D01*
X2719758Y1316446D01*
Y1350302D01*
X2728221Y1358765D01*
X2753613D01*
X2862625Y839050D02*
X2854161Y847514D01*
X2837234D01*
X2828770Y839050D01*
Y830586D01*
X2837234Y822123D01*
X2845698D01*
X2837234D01*
X2828770Y813659D01*
Y805195D01*
X2837234Y796731D01*
X2854161D01*
X2862625Y805195D01*
X2811842Y847514D02*
Y813659D01*
X2794914Y796731D01*
X2777986Y813659D01*
Y847514D01*
X2761058Y839050D02*
X2752594Y847514D01*
X2735667D01*
X2727203Y839050D01*
Y830586D01*
X2735667Y822123D01*
X2744131D01*
X2735667D01*
X2727203Y813659D01*
Y805195D01*
X2735667Y796731D01*
X2752594D01*
X2761058Y805195D01*
X2912371Y2267172D02*
Y2224852D01*
X2903907Y2216388D01*
X2886979D01*
X2878516Y2224852D01*
Y2267172D01*
X2827732Y2258708D02*
X2836196Y2267172D01*
X2853124D01*
X2861588Y2258708D01*
Y2250244D01*
X2853124Y2241780D01*
X2836196D01*
X2827732Y2233316D01*
Y2224852D01*
X2836196Y2216388D01*
X2853124D01*
X2861588Y2224852D01*
X2810804Y2267172D02*
Y2216388D01*
X2785413D01*
X2776949Y2224852D01*
Y2233316D01*
X2785413Y2241780D01*
X2810804D01*
X2785413D01*
X2776949Y2250244D01*
Y2258708D01*
X2785413Y2267172D01*
X2810804D01*
X2462360Y941308D02*
Y992092D01*
X2436968D01*
X2428504Y983628D01*
Y966700D01*
X2436968Y958236D01*
X2462360D01*
X2445432D02*
X2428504Y941308D01*
X2411576D02*
X2394648D01*
X2403112D01*
Y992092D01*
X2411576Y983628D01*
X2369256D02*
X2360792Y992092D01*
X2343865D01*
X2335401Y983628D01*
Y949772D01*
X2343865Y941308D01*
X2360792D01*
X2369256Y949772D01*
Y983628D01*
X2009299Y1934748D02*
Y1985532D01*
X1983907D01*
X1975444Y1977068D01*
Y1960140D01*
X1983907Y1951676D01*
X2009299D01*
X1992371D02*
X1975444Y1934748D01*
X1958516Y1977068D02*
X1950052Y1985532D01*
X1933124D01*
X1924660Y1977068D01*
Y1968604D01*
X1933124Y1960140D01*
X1924660Y1951676D01*
Y1943212D01*
X1933124Y1934748D01*
X1950052D01*
X1958516Y1943212D01*
Y1951676D01*
X1950052Y1960140D01*
X1958516Y1968604D01*
Y1977068D01*
X1950052Y1960140D02*
X1933124D01*
X1519506Y1988816D02*
Y2039599D01*
X1494114D01*
X1485650Y2031135D01*
Y2014208D01*
X1494114Y2005744D01*
X1519506D01*
X1502578D02*
X1485650Y1988816D01*
X1468722Y2039599D02*
X1434867D01*
Y2031135D01*
X1468722Y1997280D01*
Y1988816D01*
X1645165Y1387917D02*
Y1438701D01*
X1619773D01*
X1611309Y1430237D01*
Y1413309D01*
X1619773Y1404845D01*
X1645165D01*
X1628237D02*
X1611309Y1387917D01*
X1560526Y1438701D02*
X1577454Y1430237D01*
X1594381Y1413309D01*
Y1396382D01*
X1585917Y1387917D01*
X1568989D01*
X1560526Y1396382D01*
Y1404845D01*
X1568989Y1413309D01*
X1594381D01*
X2351575Y2246751D02*
X2385430D01*
Y2221359D01*
X2368503D01*
X2385430D01*
Y2195967D01*
X2300791D02*
X2334647D01*
X2300791Y2229823D01*
Y2238287D01*
X2309255Y2246751D01*
X2326183D01*
X2334647Y2238287D01*
X2215019Y1970479D02*
Y1919695D01*
X2189627D01*
X2181163Y1928159D01*
Y1962015D01*
X2189627Y1970479D01*
X2215019D01*
X2164235Y1962015D02*
X2155771Y1970479D01*
X2138844D01*
X2130380Y1962015D01*
Y1953551D01*
X2138844Y1945087D01*
X2130380Y1936623D01*
Y1928159D01*
X2138844Y1919695D01*
X2155771D01*
X2164235Y1928159D01*
Y1936623D01*
X2155771Y1945087D01*
X2164235Y1953551D01*
Y1962015D01*
X2155771Y1945087D02*
X2138844D01*
X2361887Y1894818D02*
X2311103D01*
Y1920210D01*
X2319567Y1928674D01*
X2353423D01*
X2361887Y1920210D01*
Y1894818D01*
Y1945602D02*
Y1979457D01*
X2353423D01*
X2319567Y1945602D01*
X2311103D01*
X2340777Y1778692D02*
Y1727908D01*
X2315385D01*
X2306921Y1736372D01*
Y1770228D01*
X2315385Y1778692D01*
X2340777D01*
X2256138D02*
X2273066Y1770228D01*
X2289993Y1753300D01*
Y1736372D01*
X2281529Y1727908D01*
X2264602D01*
X2256138Y1736372D01*
Y1744836D01*
X2264602Y1753300D01*
X2289993D01*
X2195371Y1289049D02*
X2203835Y1297513D01*
X2220763D01*
X2229227Y1289049D01*
Y1255193D01*
X2220763Y1246729D01*
X2203835D01*
X2195371Y1255193D01*
X2178443Y1297513D02*
X2144588D01*
Y1289049D01*
X2178443Y1255193D01*
Y1246729D01*
X1977150Y1479179D02*
X1985614Y1487643D01*
X2002542D01*
X2011006Y1479179D01*
Y1445324D01*
X2002542Y1436859D01*
X1985614D01*
X1977150Y1445324D01*
X1926367Y1487643D02*
X1943295Y1479179D01*
X1960223Y1462251D01*
Y1445324D01*
X1951759Y1436859D01*
X1934831D01*
X1926367Y1445324D01*
Y1453787D01*
X1934831Y1462251D01*
X1960223D01*
X3935936Y1095979D02*
Y1146762D01*
X3910544D01*
X3902081Y1138298D01*
Y1121370D01*
X3910544Y1112906D01*
X3935936D01*
X3919008D02*
X3902081Y1095979D01*
X3885153D02*
X3868225D01*
X3876689D01*
Y1146762D01*
X3885153Y1138298D01*
X3365860Y1830232D02*
X3315076D01*
Y1855624D01*
X3323540Y1864088D01*
X3357396D01*
X3365860Y1855624D01*
Y1830232D01*
X3315076Y1881016D02*
Y1897944D01*
Y1889480D01*
X3365860D01*
X3357396Y1881016D01*
X4788591Y1042668D02*
Y1093451D01*
X4763200D01*
X4754736Y1084987D01*
Y1068060D01*
X4763200Y1059596D01*
X4788591D01*
X4703952Y1084987D02*
X4712416Y1093451D01*
X4729344D01*
X4737808Y1084987D01*
Y1051132D01*
X4729344Y1042668D01*
X4712416D01*
X4703952Y1051132D01*
Y1068060D01*
X4720880D01*
X4687024Y1042668D02*
Y1093451D01*
X4670097Y1076523D01*
X4653169Y1093451D01*
Y1042668D01*
X4741325Y1350302D02*
X4749788Y1358765D01*
X4766716D01*
X4775180Y1350302D01*
Y1316446D01*
X4766716Y1307982D01*
X4749788D01*
X4741325Y1316446D01*
Y1333374D01*
X4758252D01*
X4724397Y1307982D02*
Y1358765D01*
X4690541Y1307982D01*
Y1358765D01*
X4673613D02*
Y1307982D01*
X4648221D01*
X4639758Y1316446D01*
Y1350302D01*
X4648221Y1358765D01*
X4673613D01*
X4782625Y839050D02*
X4774161Y847514D01*
X4757234D01*
X4748770Y839050D01*
Y830586D01*
X4757234Y822123D01*
X4765698D01*
X4757234D01*
X4748770Y813659D01*
Y805195D01*
X4757234Y796731D01*
X4774161D01*
X4782625Y805195D01*
X4731842Y847514D02*
Y813659D01*
X4714914Y796731D01*
X4697986Y813659D01*
Y847514D01*
X4681058Y839050D02*
X4672594Y847514D01*
X4655667D01*
X4647203Y839050D01*
Y830586D01*
X4655667Y822123D01*
X4664131D01*
X4655667D01*
X4647203Y813659D01*
Y805195D01*
X4655667Y796731D01*
X4672594D01*
X4681058Y805195D01*
X4832371Y2267172D02*
Y2224852D01*
X4823907Y2216388D01*
X4806979D01*
X4798516Y2224852D01*
Y2267172D01*
X4747732Y2258708D02*
X4756196Y2267172D01*
X4773124D01*
X4781588Y2258708D01*
Y2250244D01*
X4773124Y2241780D01*
X4756196D01*
X4747732Y2233316D01*
Y2224852D01*
X4756196Y2216388D01*
X4773124D01*
X4781588Y2224852D01*
X4730804Y2267172D02*
Y2216388D01*
X4705412D01*
X4696949Y2224852D01*
Y2233316D01*
X4705412Y2241780D01*
X4730804D01*
X4705412D01*
X4696949Y2250244D01*
Y2258708D01*
X4705412Y2267172D01*
X4730804D01*
X4382360Y941308D02*
Y992092D01*
X4356968D01*
X4348504Y983628D01*
Y966700D01*
X4356968Y958236D01*
X4382360D01*
X4365432D02*
X4348504Y941308D01*
X4331576D02*
X4314648D01*
X4323112D01*
Y992092D01*
X4331576Y983628D01*
X4289256D02*
X4280792Y992092D01*
X4263864D01*
X4255401Y983628D01*
Y949772D01*
X4263864Y941308D01*
X4280792D01*
X4289256Y949772D01*
Y983628D01*
X3929299Y1934748D02*
Y1985532D01*
X3903907D01*
X3895444Y1977068D01*
Y1960140D01*
X3903907Y1951676D01*
X3929299D01*
X3912371D02*
X3895444Y1934748D01*
X3878516Y1977068D02*
X3870052Y1985532D01*
X3853124D01*
X3844660Y1977068D01*
Y1968604D01*
X3853124Y1960140D01*
X3844660Y1951676D01*
Y1943212D01*
X3853124Y1934748D01*
X3870052D01*
X3878516Y1943212D01*
Y1951676D01*
X3870052Y1960140D01*
X3878516Y1968604D01*
Y1977068D01*
X3870052Y1960140D02*
X3853124D01*
X3439506Y1988816D02*
Y2039599D01*
X3414114D01*
X3405650Y2031135D01*
Y2014208D01*
X3414114Y2005744D01*
X3439506D01*
X3422578D02*
X3405650Y1988816D01*
X3388722Y2039599D02*
X3354867D01*
Y2031135D01*
X3388722Y1997280D01*
Y1988816D01*
X3565165Y1387917D02*
Y1438701D01*
X3539773D01*
X3531309Y1430237D01*
Y1413309D01*
X3539773Y1404845D01*
X3565165D01*
X3548237D02*
X3531309Y1387917D01*
X3480526Y1438701D02*
X3497454Y1430237D01*
X3514381Y1413309D01*
Y1396382D01*
X3505917Y1387917D01*
X3488989D01*
X3480526Y1396382D01*
Y1404845D01*
X3488989Y1413309D01*
X3514381D01*
X4271575Y2246751D02*
X4305430D01*
Y2221359D01*
X4288502D01*
X4305430D01*
Y2195967D01*
X4220791D02*
X4254647D01*
X4220791Y2229823D01*
Y2238287D01*
X4229255Y2246751D01*
X4246183D01*
X4254647Y2238287D01*
X4135019Y1970479D02*
Y1919695D01*
X4109627D01*
X4101163Y1928159D01*
Y1962015D01*
X4109627Y1970479D01*
X4135019D01*
X4084235Y1962015D02*
X4075771Y1970479D01*
X4058844D01*
X4050380Y1962015D01*
Y1953551D01*
X4058844Y1945087D01*
X4050380Y1936623D01*
Y1928159D01*
X4058844Y1919695D01*
X4075771D01*
X4084235Y1928159D01*
Y1936623D01*
X4075771Y1945087D01*
X4084235Y1953551D01*
Y1962015D01*
X4075771Y1945087D02*
X4058844D01*
X4281887Y1894818D02*
X4231103D01*
Y1920210D01*
X4239567Y1928674D01*
X4273423D01*
X4281887Y1920210D01*
Y1894818D01*
Y1945602D02*
Y1979457D01*
X4273423D01*
X4239567Y1945602D01*
X4231103D01*
X4260777Y1778692D02*
Y1727908D01*
X4235385D01*
X4226921Y1736372D01*
Y1770228D01*
X4235385Y1778692D01*
X4260777D01*
X4176138D02*
X4193066Y1770228D01*
X4209993Y1753300D01*
Y1736372D01*
X4201529Y1727908D01*
X4184601D01*
X4176138Y1736372D01*
Y1744836D01*
X4184601Y1753300D01*
X4209993D01*
X4115371Y1289049D02*
X4123835Y1297513D01*
X4140763D01*
X4149227Y1289049D01*
Y1255193D01*
X4140763Y1246729D01*
X4123835D01*
X4115371Y1255193D01*
X4098443Y1297513D02*
X4064588D01*
Y1289049D01*
X4098443Y1255193D01*
Y1246729D01*
X3897150Y1479179D02*
X3905614Y1487643D01*
X3922542D01*
X3931006Y1479179D01*
Y1445324D01*
X3922542Y1436859D01*
X3905614D01*
X3897150Y1445324D01*
X3846367Y1487643D02*
X3863295Y1479179D01*
X3880223Y1462251D01*
Y1445324D01*
X3871759Y1436859D01*
X3854831D01*
X3846367Y1445324D01*
Y1453787D01*
X3854831Y1462251D01*
X3880223D01*
X5855936Y1095979D02*
Y1146762D01*
X5830544D01*
X5822081Y1138298D01*
Y1121370D01*
X5830544Y1112906D01*
X5855936D01*
X5839008D02*
X5822081Y1095979D01*
X5805153D02*
X5788225D01*
X5796689D01*
Y1146762D01*
X5805153Y1138298D01*
X5285860Y1830232D02*
X5235076D01*
Y1855624D01*
X5243540Y1864088D01*
X5277396D01*
X5285860Y1855624D01*
Y1830232D01*
X5235076Y1881016D02*
Y1897944D01*
Y1889480D01*
X5285860D01*
X5277396Y1881016D01*
X6708591Y1042668D02*
Y1093451D01*
X6683199D01*
X6674736Y1084987D01*
Y1068060D01*
X6683199Y1059596D01*
X6708591D01*
X6623952Y1084987D02*
X6632416Y1093451D01*
X6649344D01*
X6657808Y1084987D01*
Y1051132D01*
X6649344Y1042668D01*
X6632416D01*
X6623952Y1051132D01*
Y1068060D01*
X6640880D01*
X6607024Y1042668D02*
Y1093451D01*
X6590097Y1076523D01*
X6573169Y1093451D01*
Y1042668D01*
X6661324Y1350302D02*
X6669788Y1358765D01*
X6686716D01*
X6695180Y1350302D01*
Y1316446D01*
X6686716Y1307982D01*
X6669788D01*
X6661324Y1316446D01*
Y1333374D01*
X6678252D01*
X6644397Y1307982D02*
Y1358765D01*
X6610541Y1307982D01*
Y1358765D01*
X6593613D02*
Y1307982D01*
X6568221D01*
X6559758Y1316446D01*
Y1350302D01*
X6568221Y1358765D01*
X6593613D01*
X6702625Y839050D02*
X6694161Y847514D01*
X6677234D01*
X6668770Y839050D01*
Y830586D01*
X6677234Y822123D01*
X6685698D01*
X6677234D01*
X6668770Y813659D01*
Y805195D01*
X6677234Y796731D01*
X6694161D01*
X6702625Y805195D01*
X6651842Y847514D02*
Y813659D01*
X6634914Y796731D01*
X6617986Y813659D01*
Y847514D01*
X6601058Y839050D02*
X6592594Y847514D01*
X6575667D01*
X6567203Y839050D01*
Y830586D01*
X6575667Y822123D01*
X6584131D01*
X6575667D01*
X6567203Y813659D01*
Y805195D01*
X6575667Y796731D01*
X6592594D01*
X6601058Y805195D01*
X6752371Y2267172D02*
Y2224852D01*
X6743907Y2216388D01*
X6726979D01*
X6718516Y2224852D01*
Y2267172D01*
X6667732Y2258708D02*
X6676196Y2267172D01*
X6693124D01*
X6701588Y2258708D01*
Y2250244D01*
X6693124Y2241780D01*
X6676196D01*
X6667732Y2233316D01*
Y2224852D01*
X6676196Y2216388D01*
X6693124D01*
X6701588Y2224852D01*
X6650804Y2267172D02*
Y2216388D01*
X6625412D01*
X6616949Y2224852D01*
Y2233316D01*
X6625412Y2241780D01*
X6650804D01*
X6625412D01*
X6616949Y2250244D01*
Y2258708D01*
X6625412Y2267172D01*
X6650804D01*
X6302360Y941308D02*
Y992092D01*
X6276968D01*
X6268504Y983628D01*
Y966700D01*
X6276968Y958236D01*
X6302360D01*
X6285432D02*
X6268504Y941308D01*
X6251576D02*
X6234648D01*
X6243112D01*
Y992092D01*
X6251576Y983628D01*
X6209256D02*
X6200792Y992092D01*
X6183864D01*
X6175401Y983628D01*
Y949772D01*
X6183864Y941308D01*
X6200792D01*
X6209256Y949772D01*
Y983628D01*
X5849299Y1934748D02*
Y1985532D01*
X5823907D01*
X5815444Y1977068D01*
Y1960140D01*
X5823907Y1951676D01*
X5849299D01*
X5832371D02*
X5815444Y1934748D01*
X5798516Y1977068D02*
X5790052Y1985532D01*
X5773124D01*
X5764660Y1977068D01*
Y1968604D01*
X5773124Y1960140D01*
X5764660Y1951676D01*
Y1943212D01*
X5773124Y1934748D01*
X5790052D01*
X5798516Y1943212D01*
Y1951676D01*
X5790052Y1960140D01*
X5798516Y1968604D01*
Y1977068D01*
X5790052Y1960140D02*
X5773124D01*
X5359506Y1988816D02*
Y2039599D01*
X5334114D01*
X5325650Y2031135D01*
Y2014208D01*
X5334114Y2005744D01*
X5359506D01*
X5342578D02*
X5325650Y1988816D01*
X5308722Y2039599D02*
X5274867D01*
Y2031135D01*
X5308722Y1997280D01*
Y1988816D01*
X5485165Y1387917D02*
Y1438701D01*
X5459773D01*
X5451309Y1430237D01*
Y1413309D01*
X5459773Y1404845D01*
X5485165D01*
X5468237D02*
X5451309Y1387917D01*
X5400526Y1438701D02*
X5417453Y1430237D01*
X5434381Y1413309D01*
Y1396382D01*
X5425917Y1387917D01*
X5408989D01*
X5400526Y1396382D01*
Y1404845D01*
X5408989Y1413309D01*
X5434381D01*
X6191575Y2246751D02*
X6225430D01*
Y2221359D01*
X6208502D01*
X6225430D01*
Y2195967D01*
X6140791D02*
X6174647D01*
X6140791Y2229823D01*
Y2238287D01*
X6149255Y2246751D01*
X6166183D01*
X6174647Y2238287D01*
X6055019Y1970479D02*
Y1919695D01*
X6029627D01*
X6021163Y1928159D01*
Y1962015D01*
X6029627Y1970479D01*
X6055019D01*
X6004235Y1962015D02*
X5995771Y1970479D01*
X5978844D01*
X5970380Y1962015D01*
Y1953551D01*
X5978844Y1945087D01*
X5970380Y1936623D01*
Y1928159D01*
X5978844Y1919695D01*
X5995771D01*
X6004235Y1928159D01*
Y1936623D01*
X5995771Y1945087D01*
X6004235Y1953551D01*
Y1962015D01*
X5995771Y1945087D02*
X5978844D01*
X6201887Y1894818D02*
X6151103D01*
Y1920210D01*
X6159567Y1928674D01*
X6193423D01*
X6201887Y1920210D01*
Y1894818D01*
Y1945602D02*
Y1979457D01*
X6193423D01*
X6159567Y1945602D01*
X6151103D01*
X6180777Y1778692D02*
Y1727908D01*
X6155385D01*
X6146921Y1736372D01*
Y1770228D01*
X6155385Y1778692D01*
X6180777D01*
X6096138D02*
X6113065Y1770228D01*
X6129993Y1753300D01*
Y1736372D01*
X6121529Y1727908D01*
X6104601D01*
X6096138Y1736372D01*
Y1744836D01*
X6104601Y1753300D01*
X6129993D01*
X6035371Y1289049D02*
X6043835Y1297513D01*
X6060763D01*
X6069227Y1289049D01*
Y1255193D01*
X6060763Y1246729D01*
X6043835D01*
X6035371Y1255193D01*
X6018443Y1297513D02*
X5984587D01*
Y1289049D01*
X6018443Y1255193D01*
Y1246729D01*
X5817150Y1479179D02*
X5825614Y1487643D01*
X5842542D01*
X5851006Y1479179D01*
Y1445324D01*
X5842542Y1436859D01*
X5825614D01*
X5817150Y1445324D01*
X5766367Y1487643D02*
X5783295Y1479179D01*
X5800223Y1462251D01*
Y1445324D01*
X5791759Y1436859D01*
X5774831D01*
X5766367Y1445324D01*
Y1453787D01*
X5774831Y1462251D01*
X5800223D01*
X7775936Y1095979D02*
Y1146762D01*
X7750544D01*
X7742081Y1138298D01*
Y1121370D01*
X7750544Y1112906D01*
X7775936D01*
X7759008D02*
X7742081Y1095979D01*
X7725153D02*
X7708225D01*
X7716689D01*
Y1146762D01*
X7725153Y1138298D01*
X7205860Y1830232D02*
X7155076D01*
Y1855624D01*
X7163540Y1864088D01*
X7197396D01*
X7205860Y1855624D01*
Y1830232D01*
X7155076Y1881016D02*
Y1897944D01*
Y1889480D01*
X7205860D01*
X7197396Y1881016D01*
X8628591Y1042668D02*
Y1093451D01*
X8603199D01*
X8594736Y1084987D01*
Y1068060D01*
X8603199Y1059596D01*
X8628591D01*
X8543952Y1084987D02*
X8552416Y1093451D01*
X8569344D01*
X8577808Y1084987D01*
Y1051132D01*
X8569344Y1042668D01*
X8552416D01*
X8543952Y1051132D01*
Y1068060D01*
X8560880D01*
X8527024Y1042668D02*
Y1093451D01*
X8510097Y1076523D01*
X8493169Y1093451D01*
Y1042668D01*
X8581324Y1350302D02*
X8589788Y1358765D01*
X8606716D01*
X8615180Y1350302D01*
Y1316446D01*
X8606716Y1307982D01*
X8589788D01*
X8581324Y1316446D01*
Y1333374D01*
X8598252D01*
X8564397Y1307982D02*
Y1358765D01*
X8530541Y1307982D01*
Y1358765D01*
X8513613D02*
Y1307982D01*
X8488221D01*
X8479757Y1316446D01*
Y1350302D01*
X8488221Y1358765D01*
X8513613D01*
X8622625Y839050D02*
X8614161Y847514D01*
X8597234D01*
X8588770Y839050D01*
Y830586D01*
X8597234Y822123D01*
X8605698D01*
X8597234D01*
X8588770Y813659D01*
Y805195D01*
X8597234Y796731D01*
X8614161D01*
X8622625Y805195D01*
X8571842Y847514D02*
Y813659D01*
X8554914Y796731D01*
X8537986Y813659D01*
Y847514D01*
X8521058Y839050D02*
X8512594Y847514D01*
X8495667D01*
X8487203Y839050D01*
Y830586D01*
X8495667Y822123D01*
X8504131D01*
X8495667D01*
X8487203Y813659D01*
Y805195D01*
X8495667Y796731D01*
X8512594D01*
X8521058Y805195D01*
X8672371Y2267172D02*
Y2224852D01*
X8663907Y2216388D01*
X8646979D01*
X8638516Y2224852D01*
Y2267172D01*
X8587732Y2258708D02*
X8596196Y2267172D01*
X8613124D01*
X8621588Y2258708D01*
Y2250244D01*
X8613124Y2241780D01*
X8596196D01*
X8587732Y2233316D01*
Y2224852D01*
X8596196Y2216388D01*
X8613124D01*
X8621588Y2224852D01*
X8570804Y2267172D02*
Y2216388D01*
X8545412D01*
X8536949Y2224852D01*
Y2233316D01*
X8545412Y2241780D01*
X8570804D01*
X8545412D01*
X8536949Y2250244D01*
Y2258708D01*
X8545412Y2267172D01*
X8570804D01*
X8222359Y941308D02*
Y992092D01*
X8196968D01*
X8188504Y983628D01*
Y966700D01*
X8196968Y958236D01*
X8222359D01*
X8205432D02*
X8188504Y941308D01*
X8171576D02*
X8154648D01*
X8163112D01*
Y992092D01*
X8171576Y983628D01*
X8129256D02*
X8120792Y992092D01*
X8103864D01*
X8095401Y983628D01*
Y949772D01*
X8103864Y941308D01*
X8120792D01*
X8129256Y949772D01*
Y983628D01*
X7769299Y1934748D02*
Y1985532D01*
X7743907D01*
X7735444Y1977068D01*
Y1960140D01*
X7743907Y1951676D01*
X7769299D01*
X7752371D02*
X7735444Y1934748D01*
X7718516Y1977068D02*
X7710052Y1985532D01*
X7693124D01*
X7684660Y1977068D01*
Y1968604D01*
X7693124Y1960140D01*
X7684660Y1951676D01*
Y1943212D01*
X7693124Y1934748D01*
X7710052D01*
X7718516Y1943212D01*
Y1951676D01*
X7710052Y1960140D01*
X7718516Y1968604D01*
Y1977068D01*
X7710052Y1960140D02*
X7693124D01*
X7279506Y1988816D02*
Y2039599D01*
X7254114D01*
X7245650Y2031135D01*
Y2014208D01*
X7254114Y2005744D01*
X7279506D01*
X7262578D02*
X7245650Y1988816D01*
X7228722Y2039599D02*
X7194867D01*
Y2031135D01*
X7228722Y1997280D01*
Y1988816D01*
X7405165Y1387917D02*
Y1438701D01*
X7379773D01*
X7371309Y1430237D01*
Y1413309D01*
X7379773Y1404845D01*
X7405165D01*
X7388237D02*
X7371309Y1387917D01*
X7320526Y1438701D02*
X7337453Y1430237D01*
X7354381Y1413309D01*
Y1396382D01*
X7345917Y1387917D01*
X7328989D01*
X7320526Y1396382D01*
Y1404845D01*
X7328989Y1413309D01*
X7354381D01*
X8111575Y2246751D02*
X8145430D01*
Y2221359D01*
X8128502D01*
X8145430D01*
Y2195967D01*
X8060791D02*
X8094647D01*
X8060791Y2229823D01*
Y2238287D01*
X8069255Y2246751D01*
X8086183D01*
X8094647Y2238287D01*
X7975019Y1970479D02*
Y1919695D01*
X7949627D01*
X7941163Y1928159D01*
Y1962015D01*
X7949627Y1970479D01*
X7975019D01*
X7924235Y1962015D02*
X7915771Y1970479D01*
X7898843D01*
X7890380Y1962015D01*
Y1953551D01*
X7898843Y1945087D01*
X7890380Y1936623D01*
Y1928159D01*
X7898843Y1919695D01*
X7915771D01*
X7924235Y1928159D01*
Y1936623D01*
X7915771Y1945087D01*
X7924235Y1953551D01*
Y1962015D01*
X7915771Y1945087D02*
X7898843D01*
X8121887Y1894818D02*
X8071103D01*
Y1920210D01*
X8079567Y1928674D01*
X8113423D01*
X8121887Y1920210D01*
Y1894818D01*
Y1945602D02*
Y1979457D01*
X8113423D01*
X8079567Y1945602D01*
X8071103D01*
X8100777Y1778692D02*
Y1727908D01*
X8075385D01*
X8066921Y1736372D01*
Y1770228D01*
X8075385Y1778692D01*
X8100777D01*
X8016138D02*
X8033065Y1770228D01*
X8049993Y1753300D01*
Y1736372D01*
X8041529Y1727908D01*
X8024601D01*
X8016138Y1736372D01*
Y1744836D01*
X8024601Y1753300D01*
X8049993D01*
X7955371Y1289049D02*
X7963835Y1297513D01*
X7980763D01*
X7989227Y1289049D01*
Y1255193D01*
X7980763Y1246729D01*
X7963835D01*
X7955371Y1255193D01*
X7938443Y1297513D02*
X7904587D01*
Y1289049D01*
X7938443Y1255193D01*
Y1246729D01*
X7737150Y1479179D02*
X7745614Y1487643D01*
X7762542D01*
X7771006Y1479179D01*
Y1445324D01*
X7762542Y1436859D01*
X7745614D01*
X7737150Y1445324D01*
X7686367Y1487643D02*
X7703295Y1479179D01*
X7720223Y1462251D01*
Y1445324D01*
X7711759Y1436859D01*
X7694831D01*
X7686367Y1445324D01*
Y1453787D01*
X7694831Y1462251D01*
X7720223D01*
X2015936Y2855979D02*
Y2906762D01*
X1990544D01*
X1982081Y2898298D01*
Y2881370D01*
X1990544Y2872906D01*
X2015936D01*
X1999008D02*
X1982081Y2855979D01*
X1965153D02*
X1948225D01*
X1956689D01*
Y2906762D01*
X1965153Y2898298D01*
X1445860Y3590232D02*
X1395076D01*
Y3615624D01*
X1403540Y3624088D01*
X1437396D01*
X1445860Y3615624D01*
Y3590232D01*
X1395076Y3641016D02*
Y3657944D01*
Y3649480D01*
X1445860D01*
X1437396Y3641016D01*
X2868591Y2802668D02*
Y2853451D01*
X2843200D01*
X2834736Y2844987D01*
Y2828060D01*
X2843200Y2819596D01*
X2868591D01*
X2783952Y2844987D02*
X2792416Y2853451D01*
X2809344D01*
X2817808Y2844987D01*
Y2811132D01*
X2809344Y2802668D01*
X2792416D01*
X2783952Y2811132D01*
Y2828060D01*
X2800880D01*
X2767024Y2802668D02*
Y2853451D01*
X2750097Y2836523D01*
X2733169Y2853451D01*
Y2802668D01*
X2821325Y3110302D02*
X2829788Y3118765D01*
X2846716D01*
X2855180Y3110302D01*
Y3076446D01*
X2846716Y3067982D01*
X2829788D01*
X2821325Y3076446D01*
Y3093374D01*
X2838252D01*
X2804397Y3067982D02*
Y3118765D01*
X2770541Y3067982D01*
Y3118765D01*
X2753613D02*
Y3067982D01*
X2728221D01*
X2719758Y3076446D01*
Y3110302D01*
X2728221Y3118765D01*
X2753613D01*
X2862625Y2599050D02*
X2854161Y2607514D01*
X2837234D01*
X2828770Y2599050D01*
Y2590586D01*
X2837234Y2582123D01*
X2845698D01*
X2837234D01*
X2828770Y2573659D01*
Y2565195D01*
X2837234Y2556731D01*
X2854161D01*
X2862625Y2565195D01*
X2811842Y2607514D02*
Y2573659D01*
X2794914Y2556731D01*
X2777986Y2573659D01*
Y2607514D01*
X2761058Y2599050D02*
X2752594Y2607514D01*
X2735667D01*
X2727203Y2599050D01*
Y2590586D01*
X2735667Y2582123D01*
X2744131D01*
X2735667D01*
X2727203Y2573659D01*
Y2565195D01*
X2735667Y2556731D01*
X2752594D01*
X2761058Y2565195D01*
X2912371Y4027172D02*
Y3984852D01*
X2903907Y3976388D01*
X2886979D01*
X2878516Y3984852D01*
Y4027172D01*
X2827732Y4018708D02*
X2836196Y4027172D01*
X2853124D01*
X2861588Y4018708D01*
Y4010244D01*
X2853124Y4001780D01*
X2836196D01*
X2827732Y3993316D01*
Y3984852D01*
X2836196Y3976388D01*
X2853124D01*
X2861588Y3984852D01*
X2810804Y4027172D02*
Y3976388D01*
X2785413D01*
X2776949Y3984852D01*
Y3993316D01*
X2785413Y4001780D01*
X2810804D01*
X2785413D01*
X2776949Y4010244D01*
Y4018708D01*
X2785413Y4027172D01*
X2810804D01*
X2462360Y2701308D02*
Y2752092D01*
X2436968D01*
X2428504Y2743628D01*
Y2726700D01*
X2436968Y2718236D01*
X2462360D01*
X2445432D02*
X2428504Y2701308D01*
X2411576D02*
X2394648D01*
X2403112D01*
Y2752092D01*
X2411576Y2743628D01*
X2369256D02*
X2360792Y2752092D01*
X2343865D01*
X2335401Y2743628D01*
Y2709772D01*
X2343865Y2701308D01*
X2360792D01*
X2369256Y2709772D01*
Y2743628D01*
X2009299Y3694748D02*
Y3745532D01*
X1983907D01*
X1975444Y3737068D01*
Y3720140D01*
X1983907Y3711676D01*
X2009299D01*
X1992371D02*
X1975444Y3694748D01*
X1958516Y3737068D02*
X1950052Y3745532D01*
X1933124D01*
X1924660Y3737068D01*
Y3728604D01*
X1933124Y3720140D01*
X1924660Y3711676D01*
Y3703212D01*
X1933124Y3694748D01*
X1950052D01*
X1958516Y3703212D01*
Y3711676D01*
X1950052Y3720140D01*
X1958516Y3728604D01*
Y3737068D01*
X1950052Y3720140D02*
X1933124D01*
X1519506Y3748816D02*
Y3799599D01*
X1494114D01*
X1485650Y3791135D01*
Y3774208D01*
X1494114Y3765744D01*
X1519506D01*
X1502578D02*
X1485650Y3748816D01*
X1468722Y3799599D02*
X1434867D01*
Y3791135D01*
X1468722Y3757280D01*
Y3748816D01*
X1645165Y3147918D02*
Y3198701D01*
X1619773D01*
X1611309Y3190237D01*
Y3173309D01*
X1619773Y3164845D01*
X1645165D01*
X1628237D02*
X1611309Y3147918D01*
X1560526Y3198701D02*
X1577454Y3190237D01*
X1594381Y3173309D01*
Y3156382D01*
X1585917Y3147918D01*
X1568989D01*
X1560526Y3156382D01*
Y3164845D01*
X1568989Y3173309D01*
X1594381D01*
X2351575Y4006751D02*
X2385430D01*
Y3981359D01*
X2368503D01*
X2385430D01*
Y3955967D01*
X2300791D02*
X2334647D01*
X2300791Y3989823D01*
Y3998287D01*
X2309255Y4006751D01*
X2326183D01*
X2334647Y3998287D01*
X2215019Y3730479D02*
Y3679695D01*
X2189627D01*
X2181163Y3688159D01*
Y3722015D01*
X2189627Y3730479D01*
X2215019D01*
X2164235Y3722015D02*
X2155771Y3730479D01*
X2138844D01*
X2130380Y3722015D01*
Y3713551D01*
X2138844Y3705087D01*
X2130380Y3696623D01*
Y3688159D01*
X2138844Y3679695D01*
X2155771D01*
X2164235Y3688159D01*
Y3696623D01*
X2155771Y3705087D01*
X2164235Y3713551D01*
Y3722015D01*
X2155771Y3705087D02*
X2138844D01*
X2361887Y3654818D02*
X2311103D01*
Y3680210D01*
X2319567Y3688674D01*
X2353423D01*
X2361887Y3680210D01*
Y3654818D01*
Y3705602D02*
Y3739457D01*
X2353423D01*
X2319567Y3705602D01*
X2311103D01*
X2340777Y3538692D02*
Y3487908D01*
X2315385D01*
X2306921Y3496372D01*
Y3530228D01*
X2315385Y3538692D01*
X2340777D01*
X2256138D02*
X2273066Y3530228D01*
X2289993Y3513300D01*
Y3496372D01*
X2281529Y3487908D01*
X2264602D01*
X2256138Y3496372D01*
Y3504836D01*
X2264602Y3513300D01*
X2289993D01*
X2195371Y3049049D02*
X2203835Y3057513D01*
X2220763D01*
X2229227Y3049049D01*
Y3015193D01*
X2220763Y3006729D01*
X2203835D01*
X2195371Y3015193D01*
X2178443Y3057513D02*
X2144588D01*
Y3049049D01*
X2178443Y3015193D01*
Y3006729D01*
X1977150Y3239179D02*
X1985614Y3247643D01*
X2002542D01*
X2011006Y3239179D01*
Y3205324D01*
X2002542Y3196859D01*
X1985614D01*
X1977150Y3205324D01*
X1926367Y3247643D02*
X1943295Y3239179D01*
X1960223Y3222251D01*
Y3205324D01*
X1951759Y3196859D01*
X1934831D01*
X1926367Y3205324D01*
Y3213787D01*
X1934831Y3222251D01*
X1960223D01*
X3935936Y2855979D02*
Y2906762D01*
X3910544D01*
X3902081Y2898298D01*
Y2881370D01*
X3910544Y2872906D01*
X3935936D01*
X3919008D02*
X3902081Y2855979D01*
X3885153D02*
X3868225D01*
X3876689D01*
Y2906762D01*
X3885153Y2898298D01*
X3365860Y3590232D02*
X3315076D01*
Y3615624D01*
X3323540Y3624088D01*
X3357396D01*
X3365860Y3615624D01*
Y3590232D01*
X3315076Y3641016D02*
Y3657944D01*
Y3649480D01*
X3365860D01*
X3357396Y3641016D01*
X4788591Y2802668D02*
Y2853451D01*
X4763200D01*
X4754736Y2844987D01*
Y2828060D01*
X4763200Y2819596D01*
X4788591D01*
X4703952Y2844987D02*
X4712416Y2853451D01*
X4729344D01*
X4737808Y2844987D01*
Y2811132D01*
X4729344Y2802668D01*
X4712416D01*
X4703952Y2811132D01*
Y2828060D01*
X4720880D01*
X4687024Y2802668D02*
Y2853451D01*
X4670097Y2836523D01*
X4653169Y2853451D01*
Y2802668D01*
X4741325Y3110302D02*
X4749788Y3118765D01*
X4766716D01*
X4775180Y3110302D01*
Y3076446D01*
X4766716Y3067982D01*
X4749788D01*
X4741325Y3076446D01*
Y3093374D01*
X4758252D01*
X4724397Y3067982D02*
Y3118765D01*
X4690541Y3067982D01*
Y3118765D01*
X4673613D02*
Y3067982D01*
X4648221D01*
X4639758Y3076446D01*
Y3110302D01*
X4648221Y3118765D01*
X4673613D01*
X4782625Y2599050D02*
X4774161Y2607514D01*
X4757234D01*
X4748770Y2599050D01*
Y2590586D01*
X4757234Y2582123D01*
X4765698D01*
X4757234D01*
X4748770Y2573659D01*
Y2565195D01*
X4757234Y2556731D01*
X4774161D01*
X4782625Y2565195D01*
X4731842Y2607514D02*
Y2573659D01*
X4714914Y2556731D01*
X4697986Y2573659D01*
Y2607514D01*
X4681058Y2599050D02*
X4672594Y2607514D01*
X4655667D01*
X4647203Y2599050D01*
Y2590586D01*
X4655667Y2582123D01*
X4664131D01*
X4655667D01*
X4647203Y2573659D01*
Y2565195D01*
X4655667Y2556731D01*
X4672594D01*
X4681058Y2565195D01*
X4832371Y4027172D02*
Y3984852D01*
X4823907Y3976388D01*
X4806979D01*
X4798516Y3984852D01*
Y4027172D01*
X4747732Y4018708D02*
X4756196Y4027172D01*
X4773124D01*
X4781588Y4018708D01*
Y4010244D01*
X4773124Y4001780D01*
X4756196D01*
X4747732Y3993316D01*
Y3984852D01*
X4756196Y3976388D01*
X4773124D01*
X4781588Y3984852D01*
X4730804Y4027172D02*
Y3976388D01*
X4705412D01*
X4696949Y3984852D01*
Y3993316D01*
X4705412Y4001780D01*
X4730804D01*
X4705412D01*
X4696949Y4010244D01*
Y4018708D01*
X4705412Y4027172D01*
X4730804D01*
X4382360Y2701308D02*
Y2752092D01*
X4356968D01*
X4348504Y2743628D01*
Y2726700D01*
X4356968Y2718236D01*
X4382360D01*
X4365432D02*
X4348504Y2701308D01*
X4331576D02*
X4314648D01*
X4323112D01*
Y2752092D01*
X4331576Y2743628D01*
X4289256D02*
X4280792Y2752092D01*
X4263864D01*
X4255401Y2743628D01*
Y2709772D01*
X4263864Y2701308D01*
X4280792D01*
X4289256Y2709772D01*
Y2743628D01*
X3929299Y3694748D02*
Y3745532D01*
X3903907D01*
X3895444Y3737068D01*
Y3720140D01*
X3903907Y3711676D01*
X3929299D01*
X3912371D02*
X3895444Y3694748D01*
X3878516Y3737068D02*
X3870052Y3745532D01*
X3853124D01*
X3844660Y3737068D01*
Y3728604D01*
X3853124Y3720140D01*
X3844660Y3711676D01*
Y3703212D01*
X3853124Y3694748D01*
X3870052D01*
X3878516Y3703212D01*
Y3711676D01*
X3870052Y3720140D01*
X3878516Y3728604D01*
Y3737068D01*
X3870052Y3720140D02*
X3853124D01*
X3439506Y3748816D02*
Y3799599D01*
X3414114D01*
X3405650Y3791135D01*
Y3774208D01*
X3414114Y3765744D01*
X3439506D01*
X3422578D02*
X3405650Y3748816D01*
X3388722Y3799599D02*
X3354867D01*
Y3791135D01*
X3388722Y3757280D01*
Y3748816D01*
X3565165Y3147918D02*
Y3198701D01*
X3539773D01*
X3531309Y3190237D01*
Y3173309D01*
X3539773Y3164845D01*
X3565165D01*
X3548237D02*
X3531309Y3147918D01*
X3480526Y3198701D02*
X3497454Y3190237D01*
X3514381Y3173309D01*
Y3156382D01*
X3505917Y3147918D01*
X3488989D01*
X3480526Y3156382D01*
Y3164845D01*
X3488989Y3173309D01*
X3514381D01*
X4271575Y4006751D02*
X4305430D01*
Y3981359D01*
X4288502D01*
X4305430D01*
Y3955967D01*
X4220791D02*
X4254647D01*
X4220791Y3989823D01*
Y3998287D01*
X4229255Y4006751D01*
X4246183D01*
X4254647Y3998287D01*
X4135019Y3730479D02*
Y3679695D01*
X4109627D01*
X4101163Y3688159D01*
Y3722015D01*
X4109627Y3730479D01*
X4135019D01*
X4084235Y3722015D02*
X4075771Y3730479D01*
X4058844D01*
X4050380Y3722015D01*
Y3713551D01*
X4058844Y3705087D01*
X4050380Y3696623D01*
Y3688159D01*
X4058844Y3679695D01*
X4075771D01*
X4084235Y3688159D01*
Y3696623D01*
X4075771Y3705087D01*
X4084235Y3713551D01*
Y3722015D01*
X4075771Y3705087D02*
X4058844D01*
X4281887Y3654818D02*
X4231103D01*
Y3680210D01*
X4239567Y3688674D01*
X4273423D01*
X4281887Y3680210D01*
Y3654818D01*
Y3705602D02*
Y3739457D01*
X4273423D01*
X4239567Y3705602D01*
X4231103D01*
X4260777Y3538692D02*
Y3487908D01*
X4235385D01*
X4226921Y3496372D01*
Y3530228D01*
X4235385Y3538692D01*
X4260777D01*
X4176138D02*
X4193066Y3530228D01*
X4209993Y3513300D01*
Y3496372D01*
X4201529Y3487908D01*
X4184601D01*
X4176138Y3496372D01*
Y3504836D01*
X4184601Y3513300D01*
X4209993D01*
X4115371Y3049049D02*
X4123835Y3057513D01*
X4140763D01*
X4149227Y3049049D01*
Y3015193D01*
X4140763Y3006729D01*
X4123835D01*
X4115371Y3015193D01*
X4098443Y3057513D02*
X4064588D01*
Y3049049D01*
X4098443Y3015193D01*
Y3006729D01*
X3897150Y3239179D02*
X3905614Y3247643D01*
X3922542D01*
X3931006Y3239179D01*
Y3205324D01*
X3922542Y3196859D01*
X3905614D01*
X3897150Y3205324D01*
X3846367Y3247643D02*
X3863295Y3239179D01*
X3880223Y3222251D01*
Y3205324D01*
X3871759Y3196859D01*
X3854831D01*
X3846367Y3205324D01*
Y3213787D01*
X3854831Y3222251D01*
X3880223D01*
X5855936Y2855979D02*
Y2906762D01*
X5830544D01*
X5822081Y2898298D01*
Y2881370D01*
X5830544Y2872906D01*
X5855936D01*
X5839008D02*
X5822081Y2855979D01*
X5805153D02*
X5788225D01*
X5796689D01*
Y2906762D01*
X5805153Y2898298D01*
X5285860Y3590232D02*
X5235076D01*
Y3615624D01*
X5243540Y3624088D01*
X5277396D01*
X5285860Y3615624D01*
Y3590232D01*
X5235076Y3641016D02*
Y3657944D01*
Y3649480D01*
X5285860D01*
X5277396Y3641016D01*
X6708591Y2802668D02*
Y2853451D01*
X6683199D01*
X6674736Y2844987D01*
Y2828060D01*
X6683199Y2819596D01*
X6708591D01*
X6623952Y2844987D02*
X6632416Y2853451D01*
X6649344D01*
X6657808Y2844987D01*
Y2811132D01*
X6649344Y2802668D01*
X6632416D01*
X6623952Y2811132D01*
Y2828060D01*
X6640880D01*
X6607024Y2802668D02*
Y2853451D01*
X6590097Y2836523D01*
X6573169Y2853451D01*
Y2802668D01*
X6661324Y3110302D02*
X6669788Y3118765D01*
X6686716D01*
X6695180Y3110302D01*
Y3076446D01*
X6686716Y3067982D01*
X6669788D01*
X6661324Y3076446D01*
Y3093374D01*
X6678252D01*
X6644397Y3067982D02*
Y3118765D01*
X6610541Y3067982D01*
Y3118765D01*
X6593613D02*
Y3067982D01*
X6568221D01*
X6559758Y3076446D01*
Y3110302D01*
X6568221Y3118765D01*
X6593613D01*
X6702625Y2599050D02*
X6694161Y2607514D01*
X6677234D01*
X6668770Y2599050D01*
Y2590586D01*
X6677234Y2582123D01*
X6685698D01*
X6677234D01*
X6668770Y2573659D01*
Y2565195D01*
X6677234Y2556731D01*
X6694161D01*
X6702625Y2565195D01*
X6651842Y2607514D02*
Y2573659D01*
X6634914Y2556731D01*
X6617986Y2573659D01*
Y2607514D01*
X6601058Y2599050D02*
X6592594Y2607514D01*
X6575667D01*
X6567203Y2599050D01*
Y2590586D01*
X6575667Y2582123D01*
X6584131D01*
X6575667D01*
X6567203Y2573659D01*
Y2565195D01*
X6575667Y2556731D01*
X6592594D01*
X6601058Y2565195D01*
X6752371Y4027172D02*
Y3984852D01*
X6743907Y3976388D01*
X6726979D01*
X6718516Y3984852D01*
Y4027172D01*
X6667732Y4018708D02*
X6676196Y4027172D01*
X6693124D01*
X6701588Y4018708D01*
Y4010244D01*
X6693124Y4001780D01*
X6676196D01*
X6667732Y3993316D01*
Y3984852D01*
X6676196Y3976388D01*
X6693124D01*
X6701588Y3984852D01*
X6650804Y4027172D02*
Y3976388D01*
X6625412D01*
X6616949Y3984852D01*
Y3993316D01*
X6625412Y4001780D01*
X6650804D01*
X6625412D01*
X6616949Y4010244D01*
Y4018708D01*
X6625412Y4027172D01*
X6650804D01*
X6302360Y2701308D02*
Y2752092D01*
X6276968D01*
X6268504Y2743628D01*
Y2726700D01*
X6276968Y2718236D01*
X6302360D01*
X6285432D02*
X6268504Y2701308D01*
X6251576D02*
X6234648D01*
X6243112D01*
Y2752092D01*
X6251576Y2743628D01*
X6209256D02*
X6200792Y2752092D01*
X6183864D01*
X6175401Y2743628D01*
Y2709772D01*
X6183864Y2701308D01*
X6200792D01*
X6209256Y2709772D01*
Y2743628D01*
X5849299Y3694748D02*
Y3745532D01*
X5823907D01*
X5815444Y3737068D01*
Y3720140D01*
X5823907Y3711676D01*
X5849299D01*
X5832371D02*
X5815444Y3694748D01*
X5798516Y3737068D02*
X5790052Y3745532D01*
X5773124D01*
X5764660Y3737068D01*
Y3728604D01*
X5773124Y3720140D01*
X5764660Y3711676D01*
Y3703212D01*
X5773124Y3694748D01*
X5790052D01*
X5798516Y3703212D01*
Y3711676D01*
X5790052Y3720140D01*
X5798516Y3728604D01*
Y3737068D01*
X5790052Y3720140D02*
X5773124D01*
X5359506Y3748816D02*
Y3799599D01*
X5334114D01*
X5325650Y3791135D01*
Y3774208D01*
X5334114Y3765744D01*
X5359506D01*
X5342578D02*
X5325650Y3748816D01*
X5308722Y3799599D02*
X5274867D01*
Y3791135D01*
X5308722Y3757280D01*
Y3748816D01*
X5485165Y3147918D02*
Y3198701D01*
X5459773D01*
X5451309Y3190237D01*
Y3173309D01*
X5459773Y3164845D01*
X5485165D01*
X5468237D02*
X5451309Y3147918D01*
X5400526Y3198701D02*
X5417453Y3190237D01*
X5434381Y3173309D01*
Y3156382D01*
X5425917Y3147918D01*
X5408989D01*
X5400526Y3156382D01*
Y3164845D01*
X5408989Y3173309D01*
X5434381D01*
X6191575Y4006751D02*
X6225430D01*
Y3981359D01*
X6208502D01*
X6225430D01*
Y3955967D01*
X6140791D02*
X6174647D01*
X6140791Y3989823D01*
Y3998287D01*
X6149255Y4006751D01*
X6166183D01*
X6174647Y3998287D01*
X6055019Y3730479D02*
Y3679695D01*
X6029627D01*
X6021163Y3688159D01*
Y3722015D01*
X6029627Y3730479D01*
X6055019D01*
X6004235Y3722015D02*
X5995771Y3730479D01*
X5978844D01*
X5970380Y3722015D01*
Y3713551D01*
X5978844Y3705087D01*
X5970380Y3696623D01*
Y3688159D01*
X5978844Y3679695D01*
X5995771D01*
X6004235Y3688159D01*
Y3696623D01*
X5995771Y3705087D01*
X6004235Y3713551D01*
Y3722015D01*
X5995771Y3705087D02*
X5978844D01*
X6201887Y3654818D02*
X6151103D01*
Y3680210D01*
X6159567Y3688674D01*
X6193423D01*
X6201887Y3680210D01*
Y3654818D01*
Y3705602D02*
Y3739457D01*
X6193423D01*
X6159567Y3705602D01*
X6151103D01*
X6180777Y3538692D02*
Y3487908D01*
X6155385D01*
X6146921Y3496372D01*
Y3530228D01*
X6155385Y3538692D01*
X6180777D01*
X6096138D02*
X6113065Y3530228D01*
X6129993Y3513300D01*
Y3496372D01*
X6121529Y3487908D01*
X6104601D01*
X6096138Y3496372D01*
Y3504836D01*
X6104601Y3513300D01*
X6129993D01*
X6035371Y3049049D02*
X6043835Y3057513D01*
X6060763D01*
X6069227Y3049049D01*
Y3015193D01*
X6060763Y3006729D01*
X6043835D01*
X6035371Y3015193D01*
X6018443Y3057513D02*
X5984587D01*
Y3049049D01*
X6018443Y3015193D01*
Y3006729D01*
X5817150Y3239179D02*
X5825614Y3247643D01*
X5842542D01*
X5851006Y3239179D01*
Y3205324D01*
X5842542Y3196859D01*
X5825614D01*
X5817150Y3205324D01*
X5766367Y3247643D02*
X5783295Y3239179D01*
X5800223Y3222251D01*
Y3205324D01*
X5791759Y3196859D01*
X5774831D01*
X5766367Y3205324D01*
Y3213787D01*
X5774831Y3222251D01*
X5800223D01*
X7775936Y2855979D02*
Y2906762D01*
X7750544D01*
X7742081Y2898298D01*
Y2881370D01*
X7750544Y2872906D01*
X7775936D01*
X7759008D02*
X7742081Y2855979D01*
X7725153D02*
X7708225D01*
X7716689D01*
Y2906762D01*
X7725153Y2898298D01*
X7205860Y3590232D02*
X7155076D01*
Y3615624D01*
X7163540Y3624088D01*
X7197396D01*
X7205860Y3615624D01*
Y3590232D01*
X7155076Y3641016D02*
Y3657944D01*
Y3649480D01*
X7205860D01*
X7197396Y3641016D01*
X8628591Y2802668D02*
Y2853451D01*
X8603199D01*
X8594736Y2844987D01*
Y2828060D01*
X8603199Y2819596D01*
X8628591D01*
X8543952Y2844987D02*
X8552416Y2853451D01*
X8569344D01*
X8577808Y2844987D01*
Y2811132D01*
X8569344Y2802668D01*
X8552416D01*
X8543952Y2811132D01*
Y2828060D01*
X8560880D01*
X8527024Y2802668D02*
Y2853451D01*
X8510097Y2836523D01*
X8493169Y2853451D01*
Y2802668D01*
X8581324Y3110302D02*
X8589788Y3118765D01*
X8606716D01*
X8615180Y3110302D01*
Y3076446D01*
X8606716Y3067982D01*
X8589788D01*
X8581324Y3076446D01*
Y3093374D01*
X8598252D01*
X8564397Y3067982D02*
Y3118765D01*
X8530541Y3067982D01*
Y3118765D01*
X8513613D02*
Y3067982D01*
X8488221D01*
X8479757Y3076446D01*
Y3110302D01*
X8488221Y3118765D01*
X8513613D01*
X8622625Y2599050D02*
X8614161Y2607514D01*
X8597234D01*
X8588770Y2599050D01*
Y2590586D01*
X8597234Y2582123D01*
X8605698D01*
X8597234D01*
X8588770Y2573659D01*
Y2565195D01*
X8597234Y2556731D01*
X8614161D01*
X8622625Y2565195D01*
X8571842Y2607514D02*
Y2573659D01*
X8554914Y2556731D01*
X8537986Y2573659D01*
Y2607514D01*
X8521058Y2599050D02*
X8512594Y2607514D01*
X8495667D01*
X8487203Y2599050D01*
Y2590586D01*
X8495667Y2582123D01*
X8504131D01*
X8495667D01*
X8487203Y2573659D01*
Y2565195D01*
X8495667Y2556731D01*
X8512594D01*
X8521058Y2565195D01*
X8672371Y4027172D02*
Y3984852D01*
X8663907Y3976388D01*
X8646979D01*
X8638516Y3984852D01*
Y4027172D01*
X8587732Y4018708D02*
X8596196Y4027172D01*
X8613124D01*
X8621588Y4018708D01*
Y4010244D01*
X8613124Y4001780D01*
X8596196D01*
X8587732Y3993316D01*
Y3984852D01*
X8596196Y3976388D01*
X8613124D01*
X8621588Y3984852D01*
X8570804Y4027172D02*
Y3976388D01*
X8545412D01*
X8536949Y3984852D01*
Y3993316D01*
X8545412Y4001780D01*
X8570804D01*
X8545412D01*
X8536949Y4010244D01*
Y4018708D01*
X8545412Y4027172D01*
X8570804D01*
X8222359Y2701308D02*
Y2752092D01*
X8196968D01*
X8188504Y2743628D01*
Y2726700D01*
X8196968Y2718236D01*
X8222359D01*
X8205432D02*
X8188504Y2701308D01*
X8171576D02*
X8154648D01*
X8163112D01*
Y2752092D01*
X8171576Y2743628D01*
X8129256D02*
X8120792Y2752092D01*
X8103864D01*
X8095401Y2743628D01*
Y2709772D01*
X8103864Y2701308D01*
X8120792D01*
X8129256Y2709772D01*
Y2743628D01*
X7769299Y3694748D02*
Y3745532D01*
X7743907D01*
X7735444Y3737068D01*
Y3720140D01*
X7743907Y3711676D01*
X7769299D01*
X7752371D02*
X7735444Y3694748D01*
X7718516Y3737068D02*
X7710052Y3745532D01*
X7693124D01*
X7684660Y3737068D01*
Y3728604D01*
X7693124Y3720140D01*
X7684660Y3711676D01*
Y3703212D01*
X7693124Y3694748D01*
X7710052D01*
X7718516Y3703212D01*
Y3711676D01*
X7710052Y3720140D01*
X7718516Y3728604D01*
Y3737068D01*
X7710052Y3720140D02*
X7693124D01*
X7279506Y3748816D02*
Y3799599D01*
X7254114D01*
X7245650Y3791135D01*
Y3774208D01*
X7254114Y3765744D01*
X7279506D01*
X7262578D02*
X7245650Y3748816D01*
X7228722Y3799599D02*
X7194867D01*
Y3791135D01*
X7228722Y3757280D01*
Y3748816D01*
X7405165Y3147918D02*
Y3198701D01*
X7379773D01*
X7371309Y3190237D01*
Y3173309D01*
X7379773Y3164845D01*
X7405165D01*
X7388237D02*
X7371309Y3147918D01*
X7320526Y3198701D02*
X7337453Y3190237D01*
X7354381Y3173309D01*
Y3156382D01*
X7345917Y3147918D01*
X7328989D01*
X7320526Y3156382D01*
Y3164845D01*
X7328989Y3173309D01*
X7354381D01*
X8111575Y4006751D02*
X8145430D01*
Y3981359D01*
X8128502D01*
X8145430D01*
Y3955967D01*
X8060791D02*
X8094647D01*
X8060791Y3989823D01*
Y3998287D01*
X8069255Y4006751D01*
X8086183D01*
X8094647Y3998287D01*
X7975019Y3730479D02*
Y3679695D01*
X7949627D01*
X7941163Y3688159D01*
Y3722015D01*
X7949627Y3730479D01*
X7975019D01*
X7924235Y3722015D02*
X7915771Y3730479D01*
X7898843D01*
X7890380Y3722015D01*
Y3713551D01*
X7898843Y3705087D01*
X7890380Y3696623D01*
Y3688159D01*
X7898843Y3679695D01*
X7915771D01*
X7924235Y3688159D01*
Y3696623D01*
X7915771Y3705087D01*
X7924235Y3713551D01*
Y3722015D01*
X7915771Y3705087D02*
X7898843D01*
X8121887Y3654818D02*
X8071103D01*
Y3680210D01*
X8079567Y3688674D01*
X8113423D01*
X8121887Y3680210D01*
Y3654818D01*
Y3705602D02*
Y3739457D01*
X8113423D01*
X8079567Y3705602D01*
X8071103D01*
X8100777Y3538692D02*
Y3487908D01*
X8075385D01*
X8066921Y3496372D01*
Y3530228D01*
X8075385Y3538692D01*
X8100777D01*
X8016138D02*
X8033065Y3530228D01*
X8049993Y3513300D01*
Y3496372D01*
X8041529Y3487908D01*
X8024601D01*
X8016138Y3496372D01*
Y3504836D01*
X8024601Y3513300D01*
X8049993D01*
X7955371Y3049049D02*
X7963835Y3057513D01*
X7980763D01*
X7989227Y3049049D01*
Y3015193D01*
X7980763Y3006729D01*
X7963835D01*
X7955371Y3015193D01*
X7938443Y3057513D02*
X7904587D01*
Y3049049D01*
X7938443Y3015193D01*
Y3006729D01*
X7737150Y3239179D02*
X7745614Y3247643D01*
X7762542D01*
X7771006Y3239179D01*
Y3205324D01*
X7762542Y3196859D01*
X7745614D01*
X7737150Y3205324D01*
X7686367Y3247643D02*
X7703295Y3239179D01*
X7720223Y3222251D01*
Y3205324D01*
X7711759Y3196859D01*
X7694831D01*
X7686367Y3205324D01*
Y3213787D01*
X7694831Y3222251D01*
X7720223D01*
X2015936Y4615979D02*
Y4666762D01*
X1990544D01*
X1982081Y4658298D01*
Y4641370D01*
X1990544Y4632906D01*
X2015936D01*
X1999008D02*
X1982081Y4615979D01*
X1965153D02*
X1948225D01*
X1956689D01*
Y4666762D01*
X1965153Y4658298D01*
X1445860Y5350232D02*
X1395076D01*
Y5375624D01*
X1403540Y5384088D01*
X1437396D01*
X1445860Y5375624D01*
Y5350232D01*
X1395076Y5401016D02*
Y5417944D01*
Y5409480D01*
X1445860D01*
X1437396Y5401016D01*
X2868591Y4562668D02*
Y4613451D01*
X2843200D01*
X2834736Y4604987D01*
Y4588060D01*
X2843200Y4579596D01*
X2868591D01*
X2783952Y4604987D02*
X2792416Y4613451D01*
X2809344D01*
X2817808Y4604987D01*
Y4571132D01*
X2809344Y4562668D01*
X2792416D01*
X2783952Y4571132D01*
Y4588060D01*
X2800880D01*
X2767024Y4562668D02*
Y4613451D01*
X2750097Y4596523D01*
X2733169Y4613451D01*
Y4562668D01*
X2821325Y4870302D02*
X2829788Y4878765D01*
X2846716D01*
X2855180Y4870302D01*
Y4836446D01*
X2846716Y4827982D01*
X2829788D01*
X2821325Y4836446D01*
Y4853374D01*
X2838252D01*
X2804397Y4827982D02*
Y4878765D01*
X2770541Y4827982D01*
Y4878765D01*
X2753613D02*
Y4827982D01*
X2728221D01*
X2719758Y4836446D01*
Y4870302D01*
X2728221Y4878765D01*
X2753613D01*
X2862625Y4359050D02*
X2854161Y4367514D01*
X2837234D01*
X2828770Y4359050D01*
Y4350586D01*
X2837234Y4342123D01*
X2845698D01*
X2837234D01*
X2828770Y4333659D01*
Y4325195D01*
X2837234Y4316731D01*
X2854161D01*
X2862625Y4325195D01*
X2811842Y4367514D02*
Y4333659D01*
X2794914Y4316731D01*
X2777986Y4333659D01*
Y4367514D01*
X2761058Y4359050D02*
X2752594Y4367514D01*
X2735667D01*
X2727203Y4359050D01*
Y4350586D01*
X2735667Y4342123D01*
X2744131D01*
X2735667D01*
X2727203Y4333659D01*
Y4325195D01*
X2735667Y4316731D01*
X2752594D01*
X2761058Y4325195D01*
X2912371Y5787172D02*
Y5744852D01*
X2903907Y5736388D01*
X2886979D01*
X2878516Y5744852D01*
Y5787172D01*
X2827732Y5778708D02*
X2836196Y5787172D01*
X2853124D01*
X2861588Y5778708D01*
Y5770244D01*
X2853124Y5761780D01*
X2836196D01*
X2827732Y5753316D01*
Y5744852D01*
X2836196Y5736388D01*
X2853124D01*
X2861588Y5744852D01*
X2810804Y5787172D02*
Y5736388D01*
X2785413D01*
X2776949Y5744852D01*
Y5753316D01*
X2785413Y5761780D01*
X2810804D01*
X2785413D01*
X2776949Y5770244D01*
Y5778708D01*
X2785413Y5787172D01*
X2810804D01*
X2462360Y4461308D02*
Y4512092D01*
X2436968D01*
X2428504Y4503628D01*
Y4486700D01*
X2436968Y4478236D01*
X2462360D01*
X2445432D02*
X2428504Y4461308D01*
X2411576D02*
X2394648D01*
X2403112D01*
Y4512092D01*
X2411576Y4503628D01*
X2369256D02*
X2360792Y4512092D01*
X2343865D01*
X2335401Y4503628D01*
Y4469772D01*
X2343865Y4461308D01*
X2360792D01*
X2369256Y4469772D01*
Y4503628D01*
X2009299Y5454748D02*
Y5505532D01*
X1983907D01*
X1975444Y5497068D01*
Y5480140D01*
X1983907Y5471676D01*
X2009299D01*
X1992371D02*
X1975444Y5454748D01*
X1958516Y5497068D02*
X1950052Y5505532D01*
X1933124D01*
X1924660Y5497068D01*
Y5488604D01*
X1933124Y5480140D01*
X1924660Y5471676D01*
Y5463212D01*
X1933124Y5454748D01*
X1950052D01*
X1958516Y5463212D01*
Y5471676D01*
X1950052Y5480140D01*
X1958516Y5488604D01*
Y5497068D01*
X1950052Y5480140D02*
X1933124D01*
X1519506Y5508816D02*
Y5559599D01*
X1494114D01*
X1485650Y5551135D01*
Y5534208D01*
X1494114Y5525744D01*
X1519506D01*
X1502578D02*
X1485650Y5508816D01*
X1468722Y5559599D02*
X1434867D01*
Y5551135D01*
X1468722Y5517280D01*
Y5508816D01*
X1645165Y4907918D02*
Y4958701D01*
X1619773D01*
X1611309Y4950237D01*
Y4933309D01*
X1619773Y4924845D01*
X1645165D01*
X1628237D02*
X1611309Y4907918D01*
X1560526Y4958701D02*
X1577454Y4950237D01*
X1594381Y4933309D01*
Y4916382D01*
X1585917Y4907918D01*
X1568989D01*
X1560526Y4916382D01*
Y4924845D01*
X1568989Y4933309D01*
X1594381D01*
X2351575Y5766751D02*
X2385430D01*
Y5741359D01*
X2368503D01*
X2385430D01*
Y5715967D01*
X2300791D02*
X2334647D01*
X2300791Y5749823D01*
Y5758287D01*
X2309255Y5766751D01*
X2326183D01*
X2334647Y5758287D01*
X2215019Y5490479D02*
Y5439695D01*
X2189627D01*
X2181163Y5448159D01*
Y5482015D01*
X2189627Y5490479D01*
X2215019D01*
X2164235Y5482015D02*
X2155771Y5490479D01*
X2138844D01*
X2130380Y5482015D01*
Y5473551D01*
X2138844Y5465087D01*
X2130380Y5456623D01*
Y5448159D01*
X2138844Y5439695D01*
X2155771D01*
X2164235Y5448159D01*
Y5456623D01*
X2155771Y5465087D01*
X2164235Y5473551D01*
Y5482015D01*
X2155771Y5465087D02*
X2138844D01*
X2361887Y5414818D02*
X2311103D01*
Y5440210D01*
X2319567Y5448674D01*
X2353423D01*
X2361887Y5440210D01*
Y5414818D01*
Y5465602D02*
Y5499457D01*
X2353423D01*
X2319567Y5465602D01*
X2311103D01*
X2340777Y5298692D02*
Y5247908D01*
X2315385D01*
X2306921Y5256373D01*
Y5290228D01*
X2315385Y5298692D01*
X2340777D01*
X2256138D02*
X2273066Y5290228D01*
X2289993Y5273300D01*
Y5256373D01*
X2281529Y5247908D01*
X2264602D01*
X2256138Y5256373D01*
Y5264836D01*
X2264602Y5273300D01*
X2289993D01*
X2195371Y4809049D02*
X2203835Y4817513D01*
X2220763D01*
X2229227Y4809049D01*
Y4775193D01*
X2220763Y4766729D01*
X2203835D01*
X2195371Y4775193D01*
X2178443Y4817513D02*
X2144588D01*
Y4809049D01*
X2178443Y4775193D01*
Y4766729D01*
X1977150Y4999179D02*
X1985614Y5007643D01*
X2002542D01*
X2011006Y4999179D01*
Y4965324D01*
X2002542Y4956860D01*
X1985614D01*
X1977150Y4965324D01*
X1926367Y5007643D02*
X1943295Y4999179D01*
X1960223Y4982251D01*
Y4965324D01*
X1951759Y4956860D01*
X1934831D01*
X1926367Y4965324D01*
Y4973787D01*
X1934831Y4982251D01*
X1960223D01*
X3935936Y4615979D02*
Y4666762D01*
X3910544D01*
X3902081Y4658298D01*
Y4641370D01*
X3910544Y4632906D01*
X3935936D01*
X3919008D02*
X3902081Y4615979D01*
X3885153D02*
X3868225D01*
X3876689D01*
Y4666762D01*
X3885153Y4658298D01*
X3365860Y5350232D02*
X3315076D01*
Y5375624D01*
X3323540Y5384088D01*
X3357396D01*
X3365860Y5375624D01*
Y5350232D01*
X3315076Y5401016D02*
Y5417944D01*
Y5409480D01*
X3365860D01*
X3357396Y5401016D01*
X4788591Y4562668D02*
Y4613451D01*
X4763200D01*
X4754736Y4604987D01*
Y4588060D01*
X4763200Y4579596D01*
X4788591D01*
X4703952Y4604987D02*
X4712416Y4613451D01*
X4729344D01*
X4737808Y4604987D01*
Y4571132D01*
X4729344Y4562668D01*
X4712416D01*
X4703952Y4571132D01*
Y4588060D01*
X4720880D01*
X4687024Y4562668D02*
Y4613451D01*
X4670097Y4596523D01*
X4653169Y4613451D01*
Y4562668D01*
X4741325Y4870302D02*
X4749788Y4878765D01*
X4766716D01*
X4775180Y4870302D01*
Y4836446D01*
X4766716Y4827982D01*
X4749788D01*
X4741325Y4836446D01*
Y4853374D01*
X4758252D01*
X4724397Y4827982D02*
Y4878765D01*
X4690541Y4827982D01*
Y4878765D01*
X4673613D02*
Y4827982D01*
X4648221D01*
X4639758Y4836446D01*
Y4870302D01*
X4648221Y4878765D01*
X4673613D01*
X4782625Y4359050D02*
X4774161Y4367514D01*
X4757234D01*
X4748770Y4359050D01*
Y4350586D01*
X4757234Y4342123D01*
X4765698D01*
X4757234D01*
X4748770Y4333659D01*
Y4325195D01*
X4757234Y4316731D01*
X4774161D01*
X4782625Y4325195D01*
X4731842Y4367514D02*
Y4333659D01*
X4714914Y4316731D01*
X4697986Y4333659D01*
Y4367514D01*
X4681058Y4359050D02*
X4672594Y4367514D01*
X4655667D01*
X4647203Y4359050D01*
Y4350586D01*
X4655667Y4342123D01*
X4664131D01*
X4655667D01*
X4647203Y4333659D01*
Y4325195D01*
X4655667Y4316731D01*
X4672594D01*
X4681058Y4325195D01*
X4832371Y5787172D02*
Y5744852D01*
X4823907Y5736388D01*
X4806979D01*
X4798516Y5744852D01*
Y5787172D01*
X4747732Y5778708D02*
X4756196Y5787172D01*
X4773124D01*
X4781588Y5778708D01*
Y5770244D01*
X4773124Y5761780D01*
X4756196D01*
X4747732Y5753316D01*
Y5744852D01*
X4756196Y5736388D01*
X4773124D01*
X4781588Y5744852D01*
X4730804Y5787172D02*
Y5736388D01*
X4705412D01*
X4696949Y5744852D01*
Y5753316D01*
X4705412Y5761780D01*
X4730804D01*
X4705412D01*
X4696949Y5770244D01*
Y5778708D01*
X4705412Y5787172D01*
X4730804D01*
X4382360Y4461308D02*
Y4512092D01*
X4356968D01*
X4348504Y4503628D01*
Y4486700D01*
X4356968Y4478236D01*
X4382360D01*
X4365432D02*
X4348504Y4461308D01*
X4331576D02*
X4314648D01*
X4323112D01*
Y4512092D01*
X4331576Y4503628D01*
X4289256D02*
X4280792Y4512092D01*
X4263864D01*
X4255401Y4503628D01*
Y4469772D01*
X4263864Y4461308D01*
X4280792D01*
X4289256Y4469772D01*
Y4503628D01*
X3929299Y5454748D02*
Y5505532D01*
X3903907D01*
X3895444Y5497068D01*
Y5480140D01*
X3903907Y5471676D01*
X3929299D01*
X3912371D02*
X3895444Y5454748D01*
X3878516Y5497068D02*
X3870052Y5505532D01*
X3853124D01*
X3844660Y5497068D01*
Y5488604D01*
X3853124Y5480140D01*
X3844660Y5471676D01*
Y5463212D01*
X3853124Y5454748D01*
X3870052D01*
X3878516Y5463212D01*
Y5471676D01*
X3870052Y5480140D01*
X3878516Y5488604D01*
Y5497068D01*
X3870052Y5480140D02*
X3853124D01*
X3439506Y5508816D02*
Y5559599D01*
X3414114D01*
X3405650Y5551135D01*
Y5534208D01*
X3414114Y5525744D01*
X3439506D01*
X3422578D02*
X3405650Y5508816D01*
X3388722Y5559599D02*
X3354867D01*
Y5551135D01*
X3388722Y5517280D01*
Y5508816D01*
X3565165Y4907918D02*
Y4958701D01*
X3539773D01*
X3531309Y4950237D01*
Y4933309D01*
X3539773Y4924845D01*
X3565165D01*
X3548237D02*
X3531309Y4907918D01*
X3480526Y4958701D02*
X3497454Y4950237D01*
X3514381Y4933309D01*
Y4916382D01*
X3505917Y4907918D01*
X3488989D01*
X3480526Y4916382D01*
Y4924845D01*
X3488989Y4933309D01*
X3514381D01*
X4271575Y5766751D02*
X4305430D01*
Y5741359D01*
X4288502D01*
X4305430D01*
Y5715967D01*
X4220791D02*
X4254647D01*
X4220791Y5749823D01*
Y5758287D01*
X4229255Y5766751D01*
X4246183D01*
X4254647Y5758287D01*
X4135019Y5490479D02*
Y5439695D01*
X4109627D01*
X4101163Y5448159D01*
Y5482015D01*
X4109627Y5490479D01*
X4135019D01*
X4084235Y5482015D02*
X4075771Y5490479D01*
X4058844D01*
X4050380Y5482015D01*
Y5473551D01*
X4058844Y5465087D01*
X4050380Y5456623D01*
Y5448159D01*
X4058844Y5439695D01*
X4075771D01*
X4084235Y5448159D01*
Y5456623D01*
X4075771Y5465087D01*
X4084235Y5473551D01*
Y5482015D01*
X4075771Y5465087D02*
X4058844D01*
X4281887Y5414818D02*
X4231103D01*
Y5440210D01*
X4239567Y5448674D01*
X4273423D01*
X4281887Y5440210D01*
Y5414818D01*
Y5465602D02*
Y5499457D01*
X4273423D01*
X4239567Y5465602D01*
X4231103D01*
X4260777Y5298692D02*
Y5247908D01*
X4235385D01*
X4226921Y5256373D01*
Y5290228D01*
X4235385Y5298692D01*
X4260777D01*
X4176138D02*
X4193066Y5290228D01*
X4209993Y5273300D01*
Y5256373D01*
X4201529Y5247908D01*
X4184601D01*
X4176138Y5256373D01*
Y5264836D01*
X4184601Y5273300D01*
X4209993D01*
X4115371Y4809049D02*
X4123835Y4817513D01*
X4140763D01*
X4149227Y4809049D01*
Y4775193D01*
X4140763Y4766729D01*
X4123835D01*
X4115371Y4775193D01*
X4098443Y4817513D02*
X4064588D01*
Y4809049D01*
X4098443Y4775193D01*
Y4766729D01*
X3897150Y4999179D02*
X3905614Y5007643D01*
X3922542D01*
X3931006Y4999179D01*
Y4965324D01*
X3922542Y4956860D01*
X3905614D01*
X3897150Y4965324D01*
X3846367Y5007643D02*
X3863295Y4999179D01*
X3880223Y4982251D01*
Y4965324D01*
X3871759Y4956860D01*
X3854831D01*
X3846367Y4965324D01*
Y4973787D01*
X3854831Y4982251D01*
X3880223D01*
X5855936Y4615979D02*
Y4666762D01*
X5830544D01*
X5822081Y4658298D01*
Y4641370D01*
X5830544Y4632906D01*
X5855936D01*
X5839008D02*
X5822081Y4615979D01*
X5805153D02*
X5788225D01*
X5796689D01*
Y4666762D01*
X5805153Y4658298D01*
X5285860Y5350232D02*
X5235076D01*
Y5375624D01*
X5243540Y5384088D01*
X5277396D01*
X5285860Y5375624D01*
Y5350232D01*
X5235076Y5401016D02*
Y5417944D01*
Y5409480D01*
X5285860D01*
X5277396Y5401016D01*
X6708591Y4562668D02*
Y4613451D01*
X6683199D01*
X6674736Y4604987D01*
Y4588060D01*
X6683199Y4579596D01*
X6708591D01*
X6623952Y4604987D02*
X6632416Y4613451D01*
X6649344D01*
X6657808Y4604987D01*
Y4571132D01*
X6649344Y4562668D01*
X6632416D01*
X6623952Y4571132D01*
Y4588060D01*
X6640880D01*
X6607024Y4562668D02*
Y4613451D01*
X6590097Y4596523D01*
X6573169Y4613451D01*
Y4562668D01*
X6661324Y4870302D02*
X6669788Y4878765D01*
X6686716D01*
X6695180Y4870302D01*
Y4836446D01*
X6686716Y4827982D01*
X6669788D01*
X6661324Y4836446D01*
Y4853374D01*
X6678252D01*
X6644397Y4827982D02*
Y4878765D01*
X6610541Y4827982D01*
Y4878765D01*
X6593613D02*
Y4827982D01*
X6568221D01*
X6559758Y4836446D01*
Y4870302D01*
X6568221Y4878765D01*
X6593613D01*
X6702625Y4359050D02*
X6694161Y4367514D01*
X6677234D01*
X6668770Y4359050D01*
Y4350586D01*
X6677234Y4342123D01*
X6685698D01*
X6677234D01*
X6668770Y4333659D01*
Y4325195D01*
X6677234Y4316731D01*
X6694161D01*
X6702625Y4325195D01*
X6651842Y4367514D02*
Y4333659D01*
X6634914Y4316731D01*
X6617986Y4333659D01*
Y4367514D01*
X6601058Y4359050D02*
X6592594Y4367514D01*
X6575667D01*
X6567203Y4359050D01*
Y4350586D01*
X6575667Y4342123D01*
X6584131D01*
X6575667D01*
X6567203Y4333659D01*
Y4325195D01*
X6575667Y4316731D01*
X6592594D01*
X6601058Y4325195D01*
X6752371Y5787172D02*
Y5744852D01*
X6743907Y5736388D01*
X6726979D01*
X6718516Y5744852D01*
Y5787172D01*
X6667732Y5778708D02*
X6676196Y5787172D01*
X6693124D01*
X6701588Y5778708D01*
Y5770244D01*
X6693124Y5761780D01*
X6676196D01*
X6667732Y5753316D01*
Y5744852D01*
X6676196Y5736388D01*
X6693124D01*
X6701588Y5744852D01*
X6650804Y5787172D02*
Y5736388D01*
X6625412D01*
X6616949Y5744852D01*
Y5753316D01*
X6625412Y5761780D01*
X6650804D01*
X6625412D01*
X6616949Y5770244D01*
Y5778708D01*
X6625412Y5787172D01*
X6650804D01*
X6302360Y4461308D02*
Y4512092D01*
X6276968D01*
X6268504Y4503628D01*
Y4486700D01*
X6276968Y4478236D01*
X6302360D01*
X6285432D02*
X6268504Y4461308D01*
X6251576D02*
X6234648D01*
X6243112D01*
Y4512092D01*
X6251576Y4503628D01*
X6209256D02*
X6200792Y4512092D01*
X6183864D01*
X6175401Y4503628D01*
Y4469772D01*
X6183864Y4461308D01*
X6200792D01*
X6209256Y4469772D01*
Y4503628D01*
X5849299Y5454748D02*
Y5505532D01*
X5823907D01*
X5815444Y5497068D01*
Y5480140D01*
X5823907Y5471676D01*
X5849299D01*
X5832371D02*
X5815444Y5454748D01*
X5798516Y5497068D02*
X5790052Y5505532D01*
X5773124D01*
X5764660Y5497068D01*
Y5488604D01*
X5773124Y5480140D01*
X5764660Y5471676D01*
Y5463212D01*
X5773124Y5454748D01*
X5790052D01*
X5798516Y5463212D01*
Y5471676D01*
X5790052Y5480140D01*
X5798516Y5488604D01*
Y5497068D01*
X5790052Y5480140D02*
X5773124D01*
X5359506Y5508816D02*
Y5559599D01*
X5334114D01*
X5325650Y5551135D01*
Y5534208D01*
X5334114Y5525744D01*
X5359506D01*
X5342578D02*
X5325650Y5508816D01*
X5308722Y5559599D02*
X5274867D01*
Y5551135D01*
X5308722Y5517280D01*
Y5508816D01*
X5485165Y4907918D02*
Y4958701D01*
X5459773D01*
X5451309Y4950237D01*
Y4933309D01*
X5459773Y4924845D01*
X5485165D01*
X5468237D02*
X5451309Y4907918D01*
X5400526Y4958701D02*
X5417453Y4950237D01*
X5434381Y4933309D01*
Y4916382D01*
X5425917Y4907918D01*
X5408989D01*
X5400526Y4916382D01*
Y4924845D01*
X5408989Y4933309D01*
X5434381D01*
X6191575Y5766751D02*
X6225430D01*
Y5741359D01*
X6208502D01*
X6225430D01*
Y5715967D01*
X6140791D02*
X6174647D01*
X6140791Y5749823D01*
Y5758287D01*
X6149255Y5766751D01*
X6166183D01*
X6174647Y5758287D01*
X6055019Y5490479D02*
Y5439695D01*
X6029627D01*
X6021163Y5448159D01*
Y5482015D01*
X6029627Y5490479D01*
X6055019D01*
X6004235Y5482015D02*
X5995771Y5490479D01*
X5978844D01*
X5970380Y5482015D01*
Y5473551D01*
X5978844Y5465087D01*
X5970380Y5456623D01*
Y5448159D01*
X5978844Y5439695D01*
X5995771D01*
X6004235Y5448159D01*
Y5456623D01*
X5995771Y5465087D01*
X6004235Y5473551D01*
Y5482015D01*
X5995771Y5465087D02*
X5978844D01*
X6201887Y5414818D02*
X6151103D01*
Y5440210D01*
X6159567Y5448674D01*
X6193423D01*
X6201887Y5440210D01*
Y5414818D01*
Y5465602D02*
Y5499457D01*
X6193423D01*
X6159567Y5465602D01*
X6151103D01*
X6180777Y5298692D02*
Y5247908D01*
X6155385D01*
X6146921Y5256373D01*
Y5290228D01*
X6155385Y5298692D01*
X6180777D01*
X6096138D02*
X6113065Y5290228D01*
X6129993Y5273300D01*
Y5256373D01*
X6121529Y5247908D01*
X6104601D01*
X6096138Y5256373D01*
Y5264836D01*
X6104601Y5273300D01*
X6129993D01*
X6035371Y4809049D02*
X6043835Y4817513D01*
X6060763D01*
X6069227Y4809049D01*
Y4775193D01*
X6060763Y4766729D01*
X6043835D01*
X6035371Y4775193D01*
X6018443Y4817513D02*
X5984587D01*
Y4809049D01*
X6018443Y4775193D01*
Y4766729D01*
X5817150Y4999179D02*
X5825614Y5007643D01*
X5842542D01*
X5851006Y4999179D01*
Y4965324D01*
X5842542Y4956860D01*
X5825614D01*
X5817150Y4965324D01*
X5766367Y5007643D02*
X5783295Y4999179D01*
X5800223Y4982251D01*
Y4965324D01*
X5791759Y4956860D01*
X5774831D01*
X5766367Y4965324D01*
Y4973787D01*
X5774831Y4982251D01*
X5800223D01*
X7775936Y4615979D02*
Y4666762D01*
X7750544D01*
X7742081Y4658298D01*
Y4641370D01*
X7750544Y4632906D01*
X7775936D01*
X7759008D02*
X7742081Y4615979D01*
X7725153D02*
X7708225D01*
X7716689D01*
Y4666762D01*
X7725153Y4658298D01*
X7205860Y5350232D02*
X7155076D01*
Y5375624D01*
X7163540Y5384088D01*
X7197396D01*
X7205860Y5375624D01*
Y5350232D01*
X7155076Y5401016D02*
Y5417944D01*
Y5409480D01*
X7205860D01*
X7197396Y5401016D01*
X8628591Y4562668D02*
Y4613451D01*
X8603199D01*
X8594736Y4604987D01*
Y4588060D01*
X8603199Y4579596D01*
X8628591D01*
X8543952Y4604987D02*
X8552416Y4613451D01*
X8569344D01*
X8577808Y4604987D01*
Y4571132D01*
X8569344Y4562668D01*
X8552416D01*
X8543952Y4571132D01*
Y4588060D01*
X8560880D01*
X8527024Y4562668D02*
Y4613451D01*
X8510097Y4596523D01*
X8493169Y4613451D01*
Y4562668D01*
X8581324Y4870302D02*
X8589788Y4878765D01*
X8606716D01*
X8615180Y4870302D01*
Y4836446D01*
X8606716Y4827982D01*
X8589788D01*
X8581324Y4836446D01*
Y4853374D01*
X8598252D01*
X8564397Y4827982D02*
Y4878765D01*
X8530541Y4827982D01*
Y4878765D01*
X8513613D02*
Y4827982D01*
X8488221D01*
X8479757Y4836446D01*
Y4870302D01*
X8488221Y4878765D01*
X8513613D01*
X8622625Y4359050D02*
X8614161Y4367514D01*
X8597234D01*
X8588770Y4359050D01*
Y4350586D01*
X8597234Y4342123D01*
X8605698D01*
X8597234D01*
X8588770Y4333659D01*
Y4325195D01*
X8597234Y4316731D01*
X8614161D01*
X8622625Y4325195D01*
X8571842Y4367514D02*
Y4333659D01*
X8554914Y4316731D01*
X8537986Y4333659D01*
Y4367514D01*
X8521058Y4359050D02*
X8512594Y4367514D01*
X8495667D01*
X8487203Y4359050D01*
Y4350586D01*
X8495667Y4342123D01*
X8504131D01*
X8495667D01*
X8487203Y4333659D01*
Y4325195D01*
X8495667Y4316731D01*
X8512594D01*
X8521058Y4325195D01*
X8672371Y5787172D02*
Y5744852D01*
X8663907Y5736388D01*
X8646979D01*
X8638516Y5744852D01*
Y5787172D01*
X8587732Y5778708D02*
X8596196Y5787172D01*
X8613124D01*
X8621588Y5778708D01*
Y5770244D01*
X8613124Y5761780D01*
X8596196D01*
X8587732Y5753316D01*
Y5744852D01*
X8596196Y5736388D01*
X8613124D01*
X8621588Y5744852D01*
X8570804Y5787172D02*
Y5736388D01*
X8545412D01*
X8536949Y5744852D01*
Y5753316D01*
X8545412Y5761780D01*
X8570804D01*
X8545412D01*
X8536949Y5770244D01*
Y5778708D01*
X8545412Y5787172D01*
X8570804D01*
X8222359Y4461308D02*
Y4512092D01*
X8196968D01*
X8188504Y4503628D01*
Y4486700D01*
X8196968Y4478236D01*
X8222359D01*
X8205432D02*
X8188504Y4461308D01*
X8171576D02*
X8154648D01*
X8163112D01*
Y4512092D01*
X8171576Y4503628D01*
X8129256D02*
X8120792Y4512092D01*
X8103864D01*
X8095401Y4503628D01*
Y4469772D01*
X8103864Y4461308D01*
X8120792D01*
X8129256Y4469772D01*
Y4503628D01*
X7769299Y5454748D02*
Y5505532D01*
X7743907D01*
X7735444Y5497068D01*
Y5480140D01*
X7743907Y5471676D01*
X7769299D01*
X7752371D02*
X7735444Y5454748D01*
X7718516Y5497068D02*
X7710052Y5505532D01*
X7693124D01*
X7684660Y5497068D01*
Y5488604D01*
X7693124Y5480140D01*
X7684660Y5471676D01*
Y5463212D01*
X7693124Y5454748D01*
X7710052D01*
X7718516Y5463212D01*
Y5471676D01*
X7710052Y5480140D01*
X7718516Y5488604D01*
Y5497068D01*
X7710052Y5480140D02*
X7693124D01*
X7279506Y5508816D02*
Y5559599D01*
X7254114D01*
X7245650Y5551135D01*
Y5534208D01*
X7254114Y5525744D01*
X7279506D01*
X7262578D02*
X7245650Y5508816D01*
X7228722Y5559599D02*
X7194867D01*
Y5551135D01*
X7228722Y5517280D01*
Y5508816D01*
X7405165Y4907918D02*
Y4958701D01*
X7379773D01*
X7371309Y4950237D01*
Y4933309D01*
X7379773Y4924845D01*
X7405165D01*
X7388237D02*
X7371309Y4907918D01*
X7320526Y4958701D02*
X7337453Y4950237D01*
X7354381Y4933309D01*
Y4916382D01*
X7345917Y4907918D01*
X7328989D01*
X7320526Y4916382D01*
Y4924845D01*
X7328989Y4933309D01*
X7354381D01*
X8111575Y5766751D02*
X8145430D01*
Y5741359D01*
X8128502D01*
X8145430D01*
Y5715967D01*
X8060791D02*
X8094647D01*
X8060791Y5749823D01*
Y5758287D01*
X8069255Y5766751D01*
X8086183D01*
X8094647Y5758287D01*
X7975019Y5490479D02*
Y5439695D01*
X7949627D01*
X7941163Y5448159D01*
Y5482015D01*
X7949627Y5490479D01*
X7975019D01*
X7924235Y5482015D02*
X7915771Y5490479D01*
X7898843D01*
X7890380Y5482015D01*
Y5473551D01*
X7898843Y5465087D01*
X7890380Y5456623D01*
Y5448159D01*
X7898843Y5439695D01*
X7915771D01*
X7924235Y5448159D01*
Y5456623D01*
X7915771Y5465087D01*
X7924235Y5473551D01*
Y5482015D01*
X7915771Y5465087D02*
X7898843D01*
X8121887Y5414818D02*
X8071103D01*
Y5440210D01*
X8079567Y5448674D01*
X8113423D01*
X8121887Y5440210D01*
Y5414818D01*
Y5465602D02*
Y5499457D01*
X8113423D01*
X8079567Y5465602D01*
X8071103D01*
X8100777Y5298692D02*
Y5247908D01*
X8075385D01*
X8066921Y5256373D01*
Y5290228D01*
X8075385Y5298692D01*
X8100777D01*
X8016138D02*
X8033065Y5290228D01*
X8049993Y5273300D01*
Y5256373D01*
X8041529Y5247908D01*
X8024601D01*
X8016138Y5256373D01*
Y5264836D01*
X8024601Y5273300D01*
X8049993D01*
X7955371Y4809049D02*
X7963835Y4817513D01*
X7980763D01*
X7989227Y4809049D01*
Y4775193D01*
X7980763Y4766729D01*
X7963835D01*
X7955371Y4775193D01*
X7938443Y4817513D02*
X7904587D01*
Y4809049D01*
X7938443Y4775193D01*
Y4766729D01*
X7737150Y4999179D02*
X7745614Y5007643D01*
X7762542D01*
X7771006Y4999179D01*
Y4965324D01*
X7762542Y4956860D01*
X7745614D01*
X7737150Y4965324D01*
X7686367Y5007643D02*
X7703295Y4999179D01*
X7720223Y4982251D01*
Y4965324D01*
X7711759Y4956860D01*
X7694831D01*
X7686367Y4965324D01*
Y4973787D01*
X7694831Y4982251D01*
X7720223D01*
X2015936Y6375979D02*
Y6426762D01*
X1990544D01*
X1982081Y6418298D01*
Y6401370D01*
X1990544Y6392906D01*
X2015936D01*
X1999008D02*
X1982081Y6375979D01*
X1965153D02*
X1948225D01*
X1956689D01*
Y6426762D01*
X1965153Y6418298D01*
X1445860Y7110232D02*
X1395076D01*
Y7135624D01*
X1403540Y7144088D01*
X1437396D01*
X1445860Y7135624D01*
Y7110232D01*
X1395076Y7161016D02*
Y7177944D01*
Y7169480D01*
X1445860D01*
X1437396Y7161016D01*
X2868591Y6322668D02*
Y6373451D01*
X2843200D01*
X2834736Y6364988D01*
Y6348060D01*
X2843200Y6339596D01*
X2868591D01*
X2783952Y6364988D02*
X2792416Y6373451D01*
X2809344D01*
X2817808Y6364988D01*
Y6331132D01*
X2809344Y6322668D01*
X2792416D01*
X2783952Y6331132D01*
Y6348060D01*
X2800880D01*
X2767024Y6322668D02*
Y6373451D01*
X2750097Y6356523D01*
X2733169Y6373451D01*
Y6322668D01*
X2821325Y6630302D02*
X2829788Y6638765D01*
X2846716D01*
X2855180Y6630302D01*
Y6596446D01*
X2846716Y6587982D01*
X2829788D01*
X2821325Y6596446D01*
Y6613374D01*
X2838252D01*
X2804397Y6587982D02*
Y6638765D01*
X2770541Y6587982D01*
Y6638765D01*
X2753613D02*
Y6587982D01*
X2728221D01*
X2719758Y6596446D01*
Y6630302D01*
X2728221Y6638765D01*
X2753613D01*
X2862625Y6119050D02*
X2854161Y6127514D01*
X2837234D01*
X2828770Y6119050D01*
Y6110586D01*
X2837234Y6102123D01*
X2845698D01*
X2837234D01*
X2828770Y6093659D01*
Y6085195D01*
X2837234Y6076731D01*
X2854161D01*
X2862625Y6085195D01*
X2811842Y6127514D02*
Y6093659D01*
X2794914Y6076731D01*
X2777986Y6093659D01*
Y6127514D01*
X2761058Y6119050D02*
X2752594Y6127514D01*
X2735667D01*
X2727203Y6119050D01*
Y6110586D01*
X2735667Y6102123D01*
X2744131D01*
X2735667D01*
X2727203Y6093659D01*
Y6085195D01*
X2735667Y6076731D01*
X2752594D01*
X2761058Y6085195D01*
X2912371Y7547172D02*
Y7504852D01*
X2903907Y7496388D01*
X2886979D01*
X2878516Y7504852D01*
Y7547172D01*
X2827732Y7538708D02*
X2836196Y7547172D01*
X2853124D01*
X2861588Y7538708D01*
Y7530244D01*
X2853124Y7521780D01*
X2836196D01*
X2827732Y7513316D01*
Y7504852D01*
X2836196Y7496388D01*
X2853124D01*
X2861588Y7504852D01*
X2810804Y7547172D02*
Y7496388D01*
X2785413D01*
X2776949Y7504852D01*
Y7513316D01*
X2785413Y7521780D01*
X2810804D01*
X2785413D01*
X2776949Y7530244D01*
Y7538708D01*
X2785413Y7547172D01*
X2810804D01*
X2462360Y6221308D02*
Y6272092D01*
X2436968D01*
X2428504Y6263628D01*
Y6246700D01*
X2436968Y6238236D01*
X2462360D01*
X2445432D02*
X2428504Y6221308D01*
X2411576D02*
X2394648D01*
X2403112D01*
Y6272092D01*
X2411576Y6263628D01*
X2369256D02*
X2360792Y6272092D01*
X2343865D01*
X2335401Y6263628D01*
Y6229772D01*
X2343865Y6221308D01*
X2360792D01*
X2369256Y6229772D01*
Y6263628D01*
X2009299Y7214748D02*
Y7265532D01*
X1983907D01*
X1975444Y7257068D01*
Y7240140D01*
X1983907Y7231676D01*
X2009299D01*
X1992371D02*
X1975444Y7214748D01*
X1958516Y7257068D02*
X1950052Y7265532D01*
X1933124D01*
X1924660Y7257068D01*
Y7248604D01*
X1933124Y7240140D01*
X1924660Y7231676D01*
Y7223212D01*
X1933124Y7214748D01*
X1950052D01*
X1958516Y7223212D01*
Y7231676D01*
X1950052Y7240140D01*
X1958516Y7248604D01*
Y7257068D01*
X1950052Y7240140D02*
X1933124D01*
X1519506Y7268816D02*
Y7319599D01*
X1494114D01*
X1485650Y7311135D01*
Y7294208D01*
X1494114Y7285744D01*
X1519506D01*
X1502578D02*
X1485650Y7268816D01*
X1468722Y7319599D02*
X1434867D01*
Y7311135D01*
X1468722Y7277280D01*
Y7268816D01*
X1645165Y6667918D02*
Y6718701D01*
X1619773D01*
X1611309Y6710237D01*
Y6693309D01*
X1619773Y6684845D01*
X1645165D01*
X1628237D02*
X1611309Y6667918D01*
X1560526Y6718701D02*
X1577454Y6710237D01*
X1594381Y6693309D01*
Y6676382D01*
X1585917Y6667918D01*
X1568989D01*
X1560526Y6676382D01*
Y6684845D01*
X1568989Y6693309D01*
X1594381D01*
X2351575Y7526751D02*
X2385430D01*
Y7501359D01*
X2368503D01*
X2385430D01*
Y7475968D01*
X2300791D02*
X2334647D01*
X2300791Y7509823D01*
Y7518287D01*
X2309255Y7526751D01*
X2326183D01*
X2334647Y7518287D01*
X2215019Y7250479D02*
Y7199695D01*
X2189627D01*
X2181163Y7208159D01*
Y7242015D01*
X2189627Y7250479D01*
X2215019D01*
X2164235Y7242015D02*
X2155771Y7250479D01*
X2138844D01*
X2130380Y7242015D01*
Y7233551D01*
X2138844Y7225087D01*
X2130380Y7216623D01*
Y7208159D01*
X2138844Y7199695D01*
X2155771D01*
X2164235Y7208159D01*
Y7216623D01*
X2155771Y7225087D01*
X2164235Y7233551D01*
Y7242015D01*
X2155771Y7225087D02*
X2138844D01*
X2361887Y7174818D02*
X2311103D01*
Y7200210D01*
X2319567Y7208674D01*
X2353423D01*
X2361887Y7200210D01*
Y7174818D01*
Y7225602D02*
Y7259457D01*
X2353423D01*
X2319567Y7225602D01*
X2311103D01*
X2340777Y7058692D02*
Y7007909D01*
X2315385D01*
X2306921Y7016373D01*
Y7050228D01*
X2315385Y7058692D01*
X2340777D01*
X2256138D02*
X2273066Y7050228D01*
X2289993Y7033300D01*
Y7016373D01*
X2281529Y7007909D01*
X2264602D01*
X2256138Y7016373D01*
Y7024836D01*
X2264602Y7033300D01*
X2289993D01*
X2195371Y6569049D02*
X2203835Y6577513D01*
X2220763D01*
X2229227Y6569049D01*
Y6535193D01*
X2220763Y6526729D01*
X2203835D01*
X2195371Y6535193D01*
X2178443Y6577513D02*
X2144588D01*
Y6569049D01*
X2178443Y6535193D01*
Y6526729D01*
X1977150Y6759179D02*
X1985614Y6767643D01*
X2002542D01*
X2011006Y6759179D01*
Y6725324D01*
X2002542Y6716860D01*
X1985614D01*
X1977150Y6725324D01*
X1926367Y6767643D02*
X1943295Y6759179D01*
X1960223Y6742251D01*
Y6725324D01*
X1951759Y6716860D01*
X1934831D01*
X1926367Y6725324D01*
Y6733787D01*
X1934831Y6742251D01*
X1960223D01*
X3935936Y6375979D02*
Y6426762D01*
X3910544D01*
X3902081Y6418298D01*
Y6401370D01*
X3910544Y6392906D01*
X3935936D01*
X3919008D02*
X3902081Y6375979D01*
X3885153D02*
X3868225D01*
X3876689D01*
Y6426762D01*
X3885153Y6418298D01*
X3365860Y7110232D02*
X3315076D01*
Y7135624D01*
X3323540Y7144088D01*
X3357396D01*
X3365860Y7135624D01*
Y7110232D01*
X3315076Y7161016D02*
Y7177944D01*
Y7169480D01*
X3365860D01*
X3357396Y7161016D01*
X4788591Y6322668D02*
Y6373451D01*
X4763200D01*
X4754736Y6364988D01*
Y6348060D01*
X4763200Y6339596D01*
X4788591D01*
X4703952Y6364988D02*
X4712416Y6373451D01*
X4729344D01*
X4737808Y6364988D01*
Y6331132D01*
X4729344Y6322668D01*
X4712416D01*
X4703952Y6331132D01*
Y6348060D01*
X4720880D01*
X4687024Y6322668D02*
Y6373451D01*
X4670097Y6356523D01*
X4653169Y6373451D01*
Y6322668D01*
X4741325Y6630302D02*
X4749788Y6638765D01*
X4766716D01*
X4775180Y6630302D01*
Y6596446D01*
X4766716Y6587982D01*
X4749788D01*
X4741325Y6596446D01*
Y6613374D01*
X4758252D01*
X4724397Y6587982D02*
Y6638765D01*
X4690541Y6587982D01*
Y6638765D01*
X4673613D02*
Y6587982D01*
X4648221D01*
X4639758Y6596446D01*
Y6630302D01*
X4648221Y6638765D01*
X4673613D01*
X4782625Y6119050D02*
X4774161Y6127514D01*
X4757234D01*
X4748770Y6119050D01*
Y6110586D01*
X4757234Y6102123D01*
X4765698D01*
X4757234D01*
X4748770Y6093659D01*
Y6085195D01*
X4757234Y6076731D01*
X4774161D01*
X4782625Y6085195D01*
X4731842Y6127514D02*
Y6093659D01*
X4714914Y6076731D01*
X4697986Y6093659D01*
Y6127514D01*
X4681058Y6119050D02*
X4672594Y6127514D01*
X4655667D01*
X4647203Y6119050D01*
Y6110586D01*
X4655667Y6102123D01*
X4664131D01*
X4655667D01*
X4647203Y6093659D01*
Y6085195D01*
X4655667Y6076731D01*
X4672594D01*
X4681058Y6085195D01*
X4832371Y7547172D02*
Y7504852D01*
X4823907Y7496388D01*
X4806979D01*
X4798516Y7504852D01*
Y7547172D01*
X4747732Y7538708D02*
X4756196Y7547172D01*
X4773124D01*
X4781588Y7538708D01*
Y7530244D01*
X4773124Y7521780D01*
X4756196D01*
X4747732Y7513316D01*
Y7504852D01*
X4756196Y7496388D01*
X4773124D01*
X4781588Y7504852D01*
X4730804Y7547172D02*
Y7496388D01*
X4705412D01*
X4696949Y7504852D01*
Y7513316D01*
X4705412Y7521780D01*
X4730804D01*
X4705412D01*
X4696949Y7530244D01*
Y7538708D01*
X4705412Y7547172D01*
X4730804D01*
X4382360Y6221308D02*
Y6272092D01*
X4356968D01*
X4348504Y6263628D01*
Y6246700D01*
X4356968Y6238236D01*
X4382360D01*
X4365432D02*
X4348504Y6221308D01*
X4331576D02*
X4314648D01*
X4323112D01*
Y6272092D01*
X4331576Y6263628D01*
X4289256D02*
X4280792Y6272092D01*
X4263864D01*
X4255401Y6263628D01*
Y6229772D01*
X4263864Y6221308D01*
X4280792D01*
X4289256Y6229772D01*
Y6263628D01*
X3929299Y7214748D02*
Y7265532D01*
X3903907D01*
X3895444Y7257068D01*
Y7240140D01*
X3903907Y7231676D01*
X3929299D01*
X3912371D02*
X3895444Y7214748D01*
X3878516Y7257068D02*
X3870052Y7265532D01*
X3853124D01*
X3844660Y7257068D01*
Y7248604D01*
X3853124Y7240140D01*
X3844660Y7231676D01*
Y7223212D01*
X3853124Y7214748D01*
X3870052D01*
X3878516Y7223212D01*
Y7231676D01*
X3870052Y7240140D01*
X3878516Y7248604D01*
Y7257068D01*
X3870052Y7240140D02*
X3853124D01*
X3439506Y7268816D02*
Y7319599D01*
X3414114D01*
X3405650Y7311135D01*
Y7294208D01*
X3414114Y7285744D01*
X3439506D01*
X3422578D02*
X3405650Y7268816D01*
X3388722Y7319599D02*
X3354867D01*
Y7311135D01*
X3388722Y7277280D01*
Y7268816D01*
X3565165Y6667918D02*
Y6718701D01*
X3539773D01*
X3531309Y6710237D01*
Y6693309D01*
X3539773Y6684845D01*
X3565165D01*
X3548237D02*
X3531309Y6667918D01*
X3480526Y6718701D02*
X3497454Y6710237D01*
X3514381Y6693309D01*
Y6676382D01*
X3505917Y6667918D01*
X3488989D01*
X3480526Y6676382D01*
Y6684845D01*
X3488989Y6693309D01*
X3514381D01*
X4271575Y7526751D02*
X4305430D01*
Y7501359D01*
X4288502D01*
X4305430D01*
Y7475968D01*
X4220791D02*
X4254647D01*
X4220791Y7509823D01*
Y7518287D01*
X4229255Y7526751D01*
X4246183D01*
X4254647Y7518287D01*
X4135019Y7250479D02*
Y7199695D01*
X4109627D01*
X4101163Y7208159D01*
Y7242015D01*
X4109627Y7250479D01*
X4135019D01*
X4084235Y7242015D02*
X4075771Y7250479D01*
X4058844D01*
X4050380Y7242015D01*
Y7233551D01*
X4058844Y7225087D01*
X4050380Y7216623D01*
Y7208159D01*
X4058844Y7199695D01*
X4075771D01*
X4084235Y7208159D01*
Y7216623D01*
X4075771Y7225087D01*
X4084235Y7233551D01*
Y7242015D01*
X4075771Y7225087D02*
X4058844D01*
X4281887Y7174818D02*
X4231103D01*
Y7200210D01*
X4239567Y7208674D01*
X4273423D01*
X4281887Y7200210D01*
Y7174818D01*
Y7225602D02*
Y7259457D01*
X4273423D01*
X4239567Y7225602D01*
X4231103D01*
X4260777Y7058692D02*
Y7007909D01*
X4235385D01*
X4226921Y7016373D01*
Y7050228D01*
X4235385Y7058692D01*
X4260777D01*
X4176138D02*
X4193066Y7050228D01*
X4209993Y7033300D01*
Y7016373D01*
X4201529Y7007909D01*
X4184601D01*
X4176138Y7016373D01*
Y7024836D01*
X4184601Y7033300D01*
X4209993D01*
X4115371Y6569049D02*
X4123835Y6577513D01*
X4140763D01*
X4149227Y6569049D01*
Y6535193D01*
X4140763Y6526729D01*
X4123835D01*
X4115371Y6535193D01*
X4098443Y6577513D02*
X4064588D01*
Y6569049D01*
X4098443Y6535193D01*
Y6526729D01*
X3897150Y6759179D02*
X3905614Y6767643D01*
X3922542D01*
X3931006Y6759179D01*
Y6725324D01*
X3922542Y6716860D01*
X3905614D01*
X3897150Y6725324D01*
X3846367Y6767643D02*
X3863295Y6759179D01*
X3880223Y6742251D01*
Y6725324D01*
X3871759Y6716860D01*
X3854831D01*
X3846367Y6725324D01*
Y6733787D01*
X3854831Y6742251D01*
X3880223D01*
X5855936Y6375979D02*
Y6426762D01*
X5830544D01*
X5822081Y6418298D01*
Y6401370D01*
X5830544Y6392906D01*
X5855936D01*
X5839008D02*
X5822081Y6375979D01*
X5805153D02*
X5788225D01*
X5796689D01*
Y6426762D01*
X5805153Y6418298D01*
X5285860Y7110232D02*
X5235076D01*
Y7135624D01*
X5243540Y7144088D01*
X5277396D01*
X5285860Y7135624D01*
Y7110232D01*
X5235076Y7161016D02*
Y7177944D01*
Y7169480D01*
X5285860D01*
X5277396Y7161016D01*
X6708591Y6322668D02*
Y6373451D01*
X6683199D01*
X6674736Y6364988D01*
Y6348060D01*
X6683199Y6339596D01*
X6708591D01*
X6623952Y6364988D02*
X6632416Y6373451D01*
X6649344D01*
X6657808Y6364988D01*
Y6331132D01*
X6649344Y6322668D01*
X6632416D01*
X6623952Y6331132D01*
Y6348060D01*
X6640880D01*
X6607024Y6322668D02*
Y6373451D01*
X6590097Y6356523D01*
X6573169Y6373451D01*
Y6322668D01*
X6661324Y6630302D02*
X6669788Y6638765D01*
X6686716D01*
X6695180Y6630302D01*
Y6596446D01*
X6686716Y6587982D01*
X6669788D01*
X6661324Y6596446D01*
Y6613374D01*
X6678252D01*
X6644397Y6587982D02*
Y6638765D01*
X6610541Y6587982D01*
Y6638765D01*
X6593613D02*
Y6587982D01*
X6568221D01*
X6559758Y6596446D01*
Y6630302D01*
X6568221Y6638765D01*
X6593613D01*
X6702625Y6119050D02*
X6694161Y6127514D01*
X6677234D01*
X6668770Y6119050D01*
Y6110586D01*
X6677234Y6102123D01*
X6685698D01*
X6677234D01*
X6668770Y6093659D01*
Y6085195D01*
X6677234Y6076731D01*
X6694161D01*
X6702625Y6085195D01*
X6651842Y6127514D02*
Y6093659D01*
X6634914Y6076731D01*
X6617986Y6093659D01*
Y6127514D01*
X6601058Y6119050D02*
X6592594Y6127514D01*
X6575667D01*
X6567203Y6119050D01*
Y6110586D01*
X6575667Y6102123D01*
X6584131D01*
X6575667D01*
X6567203Y6093659D01*
Y6085195D01*
X6575667Y6076731D01*
X6592594D01*
X6601058Y6085195D01*
X6752371Y7547172D02*
Y7504852D01*
X6743907Y7496388D01*
X6726979D01*
X6718516Y7504852D01*
Y7547172D01*
X6667732Y7538708D02*
X6676196Y7547172D01*
X6693124D01*
X6701588Y7538708D01*
Y7530244D01*
X6693124Y7521780D01*
X6676196D01*
X6667732Y7513316D01*
Y7504852D01*
X6676196Y7496388D01*
X6693124D01*
X6701588Y7504852D01*
X6650804Y7547172D02*
Y7496388D01*
X6625412D01*
X6616949Y7504852D01*
Y7513316D01*
X6625412Y7521780D01*
X6650804D01*
X6625412D01*
X6616949Y7530244D01*
Y7538708D01*
X6625412Y7547172D01*
X6650804D01*
X6302360Y6221308D02*
Y6272092D01*
X6276968D01*
X6268504Y6263628D01*
Y6246700D01*
X6276968Y6238236D01*
X6302360D01*
X6285432D02*
X6268504Y6221308D01*
X6251576D02*
X6234648D01*
X6243112D01*
Y6272092D01*
X6251576Y6263628D01*
X6209256D02*
X6200792Y6272092D01*
X6183864D01*
X6175401Y6263628D01*
Y6229772D01*
X6183864Y6221308D01*
X6200792D01*
X6209256Y6229772D01*
Y6263628D01*
X5849299Y7214748D02*
Y7265532D01*
X5823907D01*
X5815444Y7257068D01*
Y7240140D01*
X5823907Y7231676D01*
X5849299D01*
X5832371D02*
X5815444Y7214748D01*
X5798516Y7257068D02*
X5790052Y7265532D01*
X5773124D01*
X5764660Y7257068D01*
Y7248604D01*
X5773124Y7240140D01*
X5764660Y7231676D01*
Y7223212D01*
X5773124Y7214748D01*
X5790052D01*
X5798516Y7223212D01*
Y7231676D01*
X5790052Y7240140D01*
X5798516Y7248604D01*
Y7257068D01*
X5790052Y7240140D02*
X5773124D01*
X5359506Y7268816D02*
Y7319599D01*
X5334114D01*
X5325650Y7311135D01*
Y7294208D01*
X5334114Y7285744D01*
X5359506D01*
X5342578D02*
X5325650Y7268816D01*
X5308722Y7319599D02*
X5274867D01*
Y7311135D01*
X5308722Y7277280D01*
Y7268816D01*
X5485165Y6667918D02*
Y6718701D01*
X5459773D01*
X5451309Y6710237D01*
Y6693309D01*
X5459773Y6684845D01*
X5485165D01*
X5468237D02*
X5451309Y6667918D01*
X5400526Y6718701D02*
X5417453Y6710237D01*
X5434381Y6693309D01*
Y6676382D01*
X5425917Y6667918D01*
X5408989D01*
X5400526Y6676382D01*
Y6684845D01*
X5408989Y6693309D01*
X5434381D01*
X6191575Y7526751D02*
X6225430D01*
Y7501359D01*
X6208502D01*
X6225430D01*
Y7475968D01*
X6140791D02*
X6174647D01*
X6140791Y7509823D01*
Y7518287D01*
X6149255Y7526751D01*
X6166183D01*
X6174647Y7518287D01*
X6055019Y7250479D02*
Y7199695D01*
X6029627D01*
X6021163Y7208159D01*
Y7242015D01*
X6029627Y7250479D01*
X6055019D01*
X6004235Y7242015D02*
X5995771Y7250479D01*
X5978844D01*
X5970380Y7242015D01*
Y7233551D01*
X5978844Y7225087D01*
X5970380Y7216623D01*
Y7208159D01*
X5978844Y7199695D01*
X5995771D01*
X6004235Y7208159D01*
Y7216623D01*
X5995771Y7225087D01*
X6004235Y7233551D01*
Y7242015D01*
X5995771Y7225087D02*
X5978844D01*
X6201887Y7174818D02*
X6151103D01*
Y7200210D01*
X6159567Y7208674D01*
X6193423D01*
X6201887Y7200210D01*
Y7174818D01*
Y7225602D02*
Y7259457D01*
X6193423D01*
X6159567Y7225602D01*
X6151103D01*
X6180777Y7058692D02*
Y7007909D01*
X6155385D01*
X6146921Y7016373D01*
Y7050228D01*
X6155385Y7058692D01*
X6180777D01*
X6096138D02*
X6113065Y7050228D01*
X6129993Y7033300D01*
Y7016373D01*
X6121529Y7007909D01*
X6104601D01*
X6096138Y7016373D01*
Y7024836D01*
X6104601Y7033300D01*
X6129993D01*
X6035371Y6569049D02*
X6043835Y6577513D01*
X6060763D01*
X6069227Y6569049D01*
Y6535193D01*
X6060763Y6526729D01*
X6043835D01*
X6035371Y6535193D01*
X6018443Y6577513D02*
X5984587D01*
Y6569049D01*
X6018443Y6535193D01*
Y6526729D01*
X5817150Y6759179D02*
X5825614Y6767643D01*
X5842542D01*
X5851006Y6759179D01*
Y6725324D01*
X5842542Y6716860D01*
X5825614D01*
X5817150Y6725324D01*
X5766367Y6767643D02*
X5783295Y6759179D01*
X5800223Y6742251D01*
Y6725324D01*
X5791759Y6716860D01*
X5774831D01*
X5766367Y6725324D01*
Y6733787D01*
X5774831Y6742251D01*
X5800223D01*
X7775936Y6375979D02*
Y6426762D01*
X7750544D01*
X7742081Y6418298D01*
Y6401370D01*
X7750544Y6392906D01*
X7775936D01*
X7759008D02*
X7742081Y6375979D01*
X7725153D02*
X7708225D01*
X7716689D01*
Y6426762D01*
X7725153Y6418298D01*
X7205860Y7110232D02*
X7155076D01*
Y7135624D01*
X7163540Y7144088D01*
X7197396D01*
X7205860Y7135624D01*
Y7110232D01*
X7155076Y7161016D02*
Y7177944D01*
Y7169480D01*
X7205860D01*
X7197396Y7161016D01*
X8628591Y6322668D02*
Y6373451D01*
X8603199D01*
X8594736Y6364988D01*
Y6348060D01*
X8603199Y6339596D01*
X8628591D01*
X8543952Y6364988D02*
X8552416Y6373451D01*
X8569344D01*
X8577808Y6364988D01*
Y6331132D01*
X8569344Y6322668D01*
X8552416D01*
X8543952Y6331132D01*
Y6348060D01*
X8560880D01*
X8527024Y6322668D02*
Y6373451D01*
X8510097Y6356523D01*
X8493169Y6373451D01*
Y6322668D01*
X8581324Y6630302D02*
X8589788Y6638765D01*
X8606716D01*
X8615180Y6630302D01*
Y6596446D01*
X8606716Y6587982D01*
X8589788D01*
X8581324Y6596446D01*
Y6613374D01*
X8598252D01*
X8564397Y6587982D02*
Y6638765D01*
X8530541Y6587982D01*
Y6638765D01*
X8513613D02*
Y6587982D01*
X8488221D01*
X8479757Y6596446D01*
Y6630302D01*
X8488221Y6638765D01*
X8513613D01*
X8622625Y6119050D02*
X8614161Y6127514D01*
X8597234D01*
X8588770Y6119050D01*
Y6110586D01*
X8597234Y6102123D01*
X8605698D01*
X8597234D01*
X8588770Y6093659D01*
Y6085195D01*
X8597234Y6076731D01*
X8614161D01*
X8622625Y6085195D01*
X8571842Y6127514D02*
Y6093659D01*
X8554914Y6076731D01*
X8537986Y6093659D01*
Y6127514D01*
X8521058Y6119050D02*
X8512594Y6127514D01*
X8495667D01*
X8487203Y6119050D01*
Y6110586D01*
X8495667Y6102123D01*
X8504131D01*
X8495667D01*
X8487203Y6093659D01*
Y6085195D01*
X8495667Y6076731D01*
X8512594D01*
X8521058Y6085195D01*
X8672371Y7547172D02*
Y7504852D01*
X8663907Y7496388D01*
X8646979D01*
X8638516Y7504852D01*
Y7547172D01*
X8587732Y7538708D02*
X8596196Y7547172D01*
X8613124D01*
X8621588Y7538708D01*
Y7530244D01*
X8613124Y7521780D01*
X8596196D01*
X8587732Y7513316D01*
Y7504852D01*
X8596196Y7496388D01*
X8613124D01*
X8621588Y7504852D01*
X8570804Y7547172D02*
Y7496388D01*
X8545412D01*
X8536949Y7504852D01*
Y7513316D01*
X8545412Y7521780D01*
X8570804D01*
X8545412D01*
X8536949Y7530244D01*
Y7538708D01*
X8545412Y7547172D01*
X8570804D01*
X8222359Y6221308D02*
Y6272092D01*
X8196968D01*
X8188504Y6263628D01*
Y6246700D01*
X8196968Y6238236D01*
X8222359D01*
X8205432D02*
X8188504Y6221308D01*
X8171576D02*
X8154648D01*
X8163112D01*
Y6272092D01*
X8171576Y6263628D01*
X8129256D02*
X8120792Y6272092D01*
X8103864D01*
X8095401Y6263628D01*
Y6229772D01*
X8103864Y6221308D01*
X8120792D01*
X8129256Y6229772D01*
Y6263628D01*
X7769299Y7214748D02*
Y7265532D01*
X7743907D01*
X7735444Y7257068D01*
Y7240140D01*
X7743907Y7231676D01*
X7769299D01*
X7752371D02*
X7735444Y7214748D01*
X7718516Y7257068D02*
X7710052Y7265532D01*
X7693124D01*
X7684660Y7257068D01*
Y7248604D01*
X7693124Y7240140D01*
X7684660Y7231676D01*
Y7223212D01*
X7693124Y7214748D01*
X7710052D01*
X7718516Y7223212D01*
Y7231676D01*
X7710052Y7240140D01*
X7718516Y7248604D01*
Y7257068D01*
X7710052Y7240140D02*
X7693124D01*
X7279506Y7268816D02*
Y7319599D01*
X7254114D01*
X7245650Y7311135D01*
Y7294208D01*
X7254114Y7285744D01*
X7279506D01*
X7262578D02*
X7245650Y7268816D01*
X7228722Y7319599D02*
X7194867D01*
Y7311135D01*
X7228722Y7277280D01*
Y7268816D01*
X7405165Y6667918D02*
Y6718701D01*
X7379773D01*
X7371309Y6710237D01*
Y6693309D01*
X7379773Y6684845D01*
X7405165D01*
X7388237D02*
X7371309Y6667918D01*
X7320526Y6718701D02*
X7337453Y6710237D01*
X7354381Y6693309D01*
Y6676382D01*
X7345917Y6667918D01*
X7328989D01*
X7320526Y6676382D01*
Y6684845D01*
X7328989Y6693309D01*
X7354381D01*
X8111575Y7526751D02*
X8145430D01*
Y7501359D01*
X8128502D01*
X8145430D01*
Y7475968D01*
X8060791D02*
X8094647D01*
X8060791Y7509823D01*
Y7518287D01*
X8069255Y7526751D01*
X8086183D01*
X8094647Y7518287D01*
X7975019Y7250479D02*
Y7199695D01*
X7949627D01*
X7941163Y7208159D01*
Y7242015D01*
X7949627Y7250479D01*
X7975019D01*
X7924235Y7242015D02*
X7915771Y7250479D01*
X7898843D01*
X7890380Y7242015D01*
Y7233551D01*
X7898843Y7225087D01*
X7890380Y7216623D01*
Y7208159D01*
X7898843Y7199695D01*
X7915771D01*
X7924235Y7208159D01*
Y7216623D01*
X7915771Y7225087D01*
X7924235Y7233551D01*
Y7242015D01*
X7915771Y7225087D02*
X7898843D01*
X8121887Y7174818D02*
X8071103D01*
Y7200210D01*
X8079567Y7208674D01*
X8113423D01*
X8121887Y7200210D01*
Y7174818D01*
Y7225602D02*
Y7259457D01*
X8113423D01*
X8079567Y7225602D01*
X8071103D01*
X8100777Y7058692D02*
Y7007909D01*
X8075385D01*
X8066921Y7016373D01*
Y7050228D01*
X8075385Y7058692D01*
X8100777D01*
X8016138D02*
X8033065Y7050228D01*
X8049993Y7033300D01*
Y7016373D01*
X8041529Y7007909D01*
X8024601D01*
X8016138Y7016373D01*
Y7024836D01*
X8024601Y7033300D01*
X8049993D01*
X7955371Y6569049D02*
X7963835Y6577513D01*
X7980763D01*
X7989227Y6569049D01*
Y6535193D01*
X7980763Y6526729D01*
X7963835D01*
X7955371Y6535193D01*
X7938443Y6577513D02*
X7904587D01*
Y6569049D01*
X7938443Y6535193D01*
Y6526729D01*
X7737150Y6759179D02*
X7745614Y6767643D01*
X7762542D01*
X7771006Y6759179D01*
Y6725324D01*
X7762542Y6716860D01*
X7745614D01*
X7737150Y6725324D01*
X7686367Y6767643D02*
X7703295Y6759179D01*
X7720223Y6742251D01*
Y6725324D01*
X7711759Y6716860D01*
X7694831D01*
X7686367Y6725324D01*
Y6733787D01*
X7694831Y6742251D01*
X7720223D01*
X2015936Y8135979D02*
Y8186762D01*
X1990544D01*
X1982081Y8178298D01*
Y8161371D01*
X1990544Y8152906D01*
X2015936D01*
X1999008D02*
X1982081Y8135979D01*
X1965153D02*
X1948225D01*
X1956689D01*
Y8186762D01*
X1965153Y8178298D01*
X1445860Y8870232D02*
X1395076D01*
Y8895624D01*
X1403540Y8904088D01*
X1437396D01*
X1445860Y8895624D01*
Y8870232D01*
X1395076Y8921016D02*
Y8937944D01*
Y8929480D01*
X1445860D01*
X1437396Y8921016D01*
X2868591Y8082668D02*
Y8133451D01*
X2843200D01*
X2834736Y8124988D01*
Y8108060D01*
X2843200Y8099596D01*
X2868591D01*
X2783952Y8124988D02*
X2792416Y8133451D01*
X2809344D01*
X2817808Y8124988D01*
Y8091132D01*
X2809344Y8082668D01*
X2792416D01*
X2783952Y8091132D01*
Y8108060D01*
X2800880D01*
X2767024Y8082668D02*
Y8133451D01*
X2750097Y8116524D01*
X2733169Y8133451D01*
Y8082668D01*
X2821325Y8390302D02*
X2829788Y8398766D01*
X2846716D01*
X2855180Y8390302D01*
Y8356446D01*
X2846716Y8347982D01*
X2829788D01*
X2821325Y8356446D01*
Y8373374D01*
X2838252D01*
X2804397Y8347982D02*
Y8398766D01*
X2770541Y8347982D01*
Y8398766D01*
X2753613D02*
Y8347982D01*
X2728221D01*
X2719758Y8356446D01*
Y8390302D01*
X2728221Y8398766D01*
X2753613D01*
X2862625Y7879051D02*
X2854161Y7887514D01*
X2837234D01*
X2828770Y7879051D01*
Y7870586D01*
X2837234Y7862123D01*
X2845698D01*
X2837234D01*
X2828770Y7853659D01*
Y7845195D01*
X2837234Y7836731D01*
X2854161D01*
X2862625Y7845195D01*
X2811842Y7887514D02*
Y7853659D01*
X2794914Y7836731D01*
X2777986Y7853659D01*
Y7887514D01*
X2761058Y7879051D02*
X2752594Y7887514D01*
X2735667D01*
X2727203Y7879051D01*
Y7870586D01*
X2735667Y7862123D01*
X2744131D01*
X2735667D01*
X2727203Y7853659D01*
Y7845195D01*
X2735667Y7836731D01*
X2752594D01*
X2761058Y7845195D01*
X2912371Y9307172D02*
Y9264852D01*
X2903907Y9256388D01*
X2886979D01*
X2878516Y9264852D01*
Y9307172D01*
X2827732Y9298708D02*
X2836196Y9307172D01*
X2853124D01*
X2861588Y9298708D01*
Y9290244D01*
X2853124Y9281780D01*
X2836196D01*
X2827732Y9273316D01*
Y9264852D01*
X2836196Y9256388D01*
X2853124D01*
X2861588Y9264852D01*
X2810804Y9307172D02*
Y9256388D01*
X2785413D01*
X2776949Y9264852D01*
Y9273316D01*
X2785413Y9281780D01*
X2810804D01*
X2785413D01*
X2776949Y9290244D01*
Y9298708D01*
X2785413Y9307172D01*
X2810804D01*
X2462360Y7981308D02*
Y8032092D01*
X2436968D01*
X2428504Y8023628D01*
Y8006700D01*
X2436968Y7998236D01*
X2462360D01*
X2445432D02*
X2428504Y7981308D01*
X2411576D02*
X2394648D01*
X2403112D01*
Y8032092D01*
X2411576Y8023628D01*
X2369256D02*
X2360792Y8032092D01*
X2343865D01*
X2335401Y8023628D01*
Y7989772D01*
X2343865Y7981308D01*
X2360792D01*
X2369256Y7989772D01*
Y8023628D01*
X2009299Y8974748D02*
Y9025532D01*
X1983907D01*
X1975444Y9017068D01*
Y9000140D01*
X1983907Y8991676D01*
X2009299D01*
X1992371D02*
X1975444Y8974748D01*
X1958516Y9017068D02*
X1950052Y9025532D01*
X1933124D01*
X1924660Y9017068D01*
Y9008604D01*
X1933124Y9000140D01*
X1924660Y8991676D01*
Y8983212D01*
X1933124Y8974748D01*
X1950052D01*
X1958516Y8983212D01*
Y8991676D01*
X1950052Y9000140D01*
X1958516Y9008604D01*
Y9017068D01*
X1950052Y9000140D02*
X1933124D01*
X1519506Y9028816D02*
Y9079599D01*
X1494114D01*
X1485650Y9071136D01*
Y9054208D01*
X1494114Y9045744D01*
X1519506D01*
X1502578D02*
X1485650Y9028816D01*
X1468722Y9079599D02*
X1434867D01*
Y9071136D01*
X1468722Y9037280D01*
Y9028816D01*
X1645165Y8427918D02*
Y8478701D01*
X1619773D01*
X1611309Y8470237D01*
Y8453309D01*
X1619773Y8444845D01*
X1645165D01*
X1628237D02*
X1611309Y8427918D01*
X1560526Y8478701D02*
X1577454Y8470237D01*
X1594381Y8453309D01*
Y8436382D01*
X1585917Y8427918D01*
X1568989D01*
X1560526Y8436382D01*
Y8444845D01*
X1568989Y8453309D01*
X1594381D01*
X2351575Y9286751D02*
X2385430D01*
Y9261359D01*
X2368503D01*
X2385430D01*
Y9235968D01*
X2300791D02*
X2334647D01*
X2300791Y9269823D01*
Y9278287D01*
X2309255Y9286751D01*
X2326183D01*
X2334647Y9278287D01*
X2215019Y9010479D02*
Y8959695D01*
X2189627D01*
X2181163Y8968159D01*
Y9002015D01*
X2189627Y9010479D01*
X2215019D01*
X2164235Y9002015D02*
X2155771Y9010479D01*
X2138844D01*
X2130380Y9002015D01*
Y8993551D01*
X2138844Y8985087D01*
X2130380Y8976623D01*
Y8968159D01*
X2138844Y8959695D01*
X2155771D01*
X2164235Y8968159D01*
Y8976623D01*
X2155771Y8985087D01*
X2164235Y8993551D01*
Y9002015D01*
X2155771Y8985087D02*
X2138844D01*
X2361887Y8934818D02*
X2311103D01*
Y8960210D01*
X2319567Y8968674D01*
X2353423D01*
X2361887Y8960210D01*
Y8934818D01*
Y8985602D02*
Y9019457D01*
X2353423D01*
X2319567Y8985602D01*
X2311103D01*
X2340777Y8818692D02*
Y8767909D01*
X2315385D01*
X2306921Y8776373D01*
Y8810228D01*
X2315385Y8818692D01*
X2340777D01*
X2256138D02*
X2273066Y8810228D01*
X2289993Y8793300D01*
Y8776373D01*
X2281529Y8767909D01*
X2264602D01*
X2256138Y8776373D01*
Y8784836D01*
X2264602Y8793300D01*
X2289993D01*
X2195371Y8329049D02*
X2203835Y8337513D01*
X2220763D01*
X2229227Y8329049D01*
Y8295193D01*
X2220763Y8286729D01*
X2203835D01*
X2195371Y8295193D01*
X2178443Y8337513D02*
X2144588D01*
Y8329049D01*
X2178443Y8295193D01*
Y8286729D01*
X1977150Y8519179D02*
X1985614Y8527643D01*
X2002542D01*
X2011006Y8519179D01*
Y8485324D01*
X2002542Y8476860D01*
X1985614D01*
X1977150Y8485324D01*
X1926367Y8527643D02*
X1943295Y8519179D01*
X1960223Y8502251D01*
Y8485324D01*
X1951759Y8476860D01*
X1934831D01*
X1926367Y8485324D01*
Y8493787D01*
X1934831Y8502251D01*
X1960223D01*
X3935936Y8135979D02*
Y8186762D01*
X3910544D01*
X3902081Y8178298D01*
Y8161371D01*
X3910544Y8152906D01*
X3935936D01*
X3919008D02*
X3902081Y8135979D01*
X3885153D02*
X3868225D01*
X3876689D01*
Y8186762D01*
X3885153Y8178298D01*
X3365860Y8870232D02*
X3315076D01*
Y8895624D01*
X3323540Y8904088D01*
X3357396D01*
X3365860Y8895624D01*
Y8870232D01*
X3315076Y8921016D02*
Y8937944D01*
Y8929480D01*
X3365860D01*
X3357396Y8921016D01*
X4788591Y8082668D02*
Y8133451D01*
X4763200D01*
X4754736Y8124988D01*
Y8108060D01*
X4763200Y8099596D01*
X4788591D01*
X4703952Y8124988D02*
X4712416Y8133451D01*
X4729344D01*
X4737808Y8124988D01*
Y8091132D01*
X4729344Y8082668D01*
X4712416D01*
X4703952Y8091132D01*
Y8108060D01*
X4720880D01*
X4687024Y8082668D02*
Y8133451D01*
X4670097Y8116524D01*
X4653169Y8133451D01*
Y8082668D01*
X4741325Y8390302D02*
X4749788Y8398766D01*
X4766716D01*
X4775180Y8390302D01*
Y8356446D01*
X4766716Y8347982D01*
X4749788D01*
X4741325Y8356446D01*
Y8373374D01*
X4758252D01*
X4724397Y8347982D02*
Y8398766D01*
X4690541Y8347982D01*
Y8398766D01*
X4673613D02*
Y8347982D01*
X4648221D01*
X4639758Y8356446D01*
Y8390302D01*
X4648221Y8398766D01*
X4673613D01*
X4782625Y7879051D02*
X4774161Y7887514D01*
X4757234D01*
X4748770Y7879051D01*
Y7870586D01*
X4757234Y7862123D01*
X4765698D01*
X4757234D01*
X4748770Y7853659D01*
Y7845195D01*
X4757234Y7836731D01*
X4774161D01*
X4782625Y7845195D01*
X4731842Y7887514D02*
Y7853659D01*
X4714914Y7836731D01*
X4697986Y7853659D01*
Y7887514D01*
X4681058Y7879051D02*
X4672594Y7887514D01*
X4655667D01*
X4647203Y7879051D01*
Y7870586D01*
X4655667Y7862123D01*
X4664131D01*
X4655667D01*
X4647203Y7853659D01*
Y7845195D01*
X4655667Y7836731D01*
X4672594D01*
X4681058Y7845195D01*
X4832371Y9307172D02*
Y9264852D01*
X4823907Y9256388D01*
X4806979D01*
X4798516Y9264852D01*
Y9307172D01*
X4747732Y9298708D02*
X4756196Y9307172D01*
X4773124D01*
X4781588Y9298708D01*
Y9290244D01*
X4773124Y9281780D01*
X4756196D01*
X4747732Y9273316D01*
Y9264852D01*
X4756196Y9256388D01*
X4773124D01*
X4781588Y9264852D01*
X4730804Y9307172D02*
Y9256388D01*
X4705412D01*
X4696949Y9264852D01*
Y9273316D01*
X4705412Y9281780D01*
X4730804D01*
X4705412D01*
X4696949Y9290244D01*
Y9298708D01*
X4705412Y9307172D01*
X4730804D01*
X4382360Y7981308D02*
Y8032092D01*
X4356968D01*
X4348504Y8023628D01*
Y8006700D01*
X4356968Y7998236D01*
X4382360D01*
X4365432D02*
X4348504Y7981308D01*
X4331576D02*
X4314648D01*
X4323112D01*
Y8032092D01*
X4331576Y8023628D01*
X4289256D02*
X4280792Y8032092D01*
X4263864D01*
X4255401Y8023628D01*
Y7989772D01*
X4263864Y7981308D01*
X4280792D01*
X4289256Y7989772D01*
Y8023628D01*
X3929299Y8974748D02*
Y9025532D01*
X3903907D01*
X3895444Y9017068D01*
Y9000140D01*
X3903907Y8991676D01*
X3929299D01*
X3912371D02*
X3895444Y8974748D01*
X3878516Y9017068D02*
X3870052Y9025532D01*
X3853124D01*
X3844660Y9017068D01*
Y9008604D01*
X3853124Y9000140D01*
X3844660Y8991676D01*
Y8983212D01*
X3853124Y8974748D01*
X3870052D01*
X3878516Y8983212D01*
Y8991676D01*
X3870052Y9000140D01*
X3878516Y9008604D01*
Y9017068D01*
X3870052Y9000140D02*
X3853124D01*
X3439506Y9028816D02*
Y9079599D01*
X3414114D01*
X3405650Y9071136D01*
Y9054208D01*
X3414114Y9045744D01*
X3439506D01*
X3422578D02*
X3405650Y9028816D01*
X3388722Y9079599D02*
X3354867D01*
Y9071136D01*
X3388722Y9037280D01*
Y9028816D01*
X3565165Y8427918D02*
Y8478701D01*
X3539773D01*
X3531309Y8470237D01*
Y8453309D01*
X3539773Y8444845D01*
X3565165D01*
X3548237D02*
X3531309Y8427918D01*
X3480526Y8478701D02*
X3497454Y8470237D01*
X3514381Y8453309D01*
Y8436382D01*
X3505917Y8427918D01*
X3488989D01*
X3480526Y8436382D01*
Y8444845D01*
X3488989Y8453309D01*
X3514381D01*
X4271575Y9286751D02*
X4305430D01*
Y9261359D01*
X4288502D01*
X4305430D01*
Y9235968D01*
X4220791D02*
X4254647D01*
X4220791Y9269823D01*
Y9278287D01*
X4229255Y9286751D01*
X4246183D01*
X4254647Y9278287D01*
X4135019Y9010479D02*
Y8959695D01*
X4109627D01*
X4101163Y8968159D01*
Y9002015D01*
X4109627Y9010479D01*
X4135019D01*
X4084235Y9002015D02*
X4075771Y9010479D01*
X4058844D01*
X4050380Y9002015D01*
Y8993551D01*
X4058844Y8985087D01*
X4050380Y8976623D01*
Y8968159D01*
X4058844Y8959695D01*
X4075771D01*
X4084235Y8968159D01*
Y8976623D01*
X4075771Y8985087D01*
X4084235Y8993551D01*
Y9002015D01*
X4075771Y8985087D02*
X4058844D01*
X4281887Y8934818D02*
X4231103D01*
Y8960210D01*
X4239567Y8968674D01*
X4273423D01*
X4281887Y8960210D01*
Y8934818D01*
Y8985602D02*
Y9019457D01*
X4273423D01*
X4239567Y8985602D01*
X4231103D01*
X4260777Y8818692D02*
Y8767909D01*
X4235385D01*
X4226921Y8776373D01*
Y8810228D01*
X4235385Y8818692D01*
X4260777D01*
X4176138D02*
X4193066Y8810228D01*
X4209993Y8793300D01*
Y8776373D01*
X4201529Y8767909D01*
X4184601D01*
X4176138Y8776373D01*
Y8784836D01*
X4184601Y8793300D01*
X4209993D01*
X4115371Y8329049D02*
X4123835Y8337513D01*
X4140763D01*
X4149227Y8329049D01*
Y8295193D01*
X4140763Y8286729D01*
X4123835D01*
X4115371Y8295193D01*
X4098443Y8337513D02*
X4064588D01*
Y8329049D01*
X4098443Y8295193D01*
Y8286729D01*
X3897150Y8519179D02*
X3905614Y8527643D01*
X3922542D01*
X3931006Y8519179D01*
Y8485324D01*
X3922542Y8476860D01*
X3905614D01*
X3897150Y8485324D01*
X3846367Y8527643D02*
X3863295Y8519179D01*
X3880223Y8502251D01*
Y8485324D01*
X3871759Y8476860D01*
X3854831D01*
X3846367Y8485324D01*
Y8493787D01*
X3854831Y8502251D01*
X3880223D01*
X5855936Y8135979D02*
Y8186762D01*
X5830544D01*
X5822081Y8178298D01*
Y8161371D01*
X5830544Y8152906D01*
X5855936D01*
X5839008D02*
X5822081Y8135979D01*
X5805153D02*
X5788225D01*
X5796689D01*
Y8186762D01*
X5805153Y8178298D01*
X5285860Y8870232D02*
X5235076D01*
Y8895624D01*
X5243540Y8904088D01*
X5277396D01*
X5285860Y8895624D01*
Y8870232D01*
X5235076Y8921016D02*
Y8937944D01*
Y8929480D01*
X5285860D01*
X5277396Y8921016D01*
X6708591Y8082668D02*
Y8133451D01*
X6683199D01*
X6674736Y8124988D01*
Y8108060D01*
X6683199Y8099596D01*
X6708591D01*
X6623952Y8124988D02*
X6632416Y8133451D01*
X6649344D01*
X6657808Y8124988D01*
Y8091132D01*
X6649344Y8082668D01*
X6632416D01*
X6623952Y8091132D01*
Y8108060D01*
X6640880D01*
X6607024Y8082668D02*
Y8133451D01*
X6590097Y8116524D01*
X6573169Y8133451D01*
Y8082668D01*
X6661324Y8390302D02*
X6669788Y8398766D01*
X6686716D01*
X6695180Y8390302D01*
Y8356446D01*
X6686716Y8347982D01*
X6669788D01*
X6661324Y8356446D01*
Y8373374D01*
X6678252D01*
X6644397Y8347982D02*
Y8398766D01*
X6610541Y8347982D01*
Y8398766D01*
X6593613D02*
Y8347982D01*
X6568221D01*
X6559758Y8356446D01*
Y8390302D01*
X6568221Y8398766D01*
X6593613D01*
X6702625Y7879051D02*
X6694161Y7887514D01*
X6677234D01*
X6668770Y7879051D01*
Y7870586D01*
X6677234Y7862123D01*
X6685698D01*
X6677234D01*
X6668770Y7853659D01*
Y7845195D01*
X6677234Y7836731D01*
X6694161D01*
X6702625Y7845195D01*
X6651842Y7887514D02*
Y7853659D01*
X6634914Y7836731D01*
X6617986Y7853659D01*
Y7887514D01*
X6601058Y7879051D02*
X6592594Y7887514D01*
X6575667D01*
X6567203Y7879051D01*
Y7870586D01*
X6575667Y7862123D01*
X6584131D01*
X6575667D01*
X6567203Y7853659D01*
Y7845195D01*
X6575667Y7836731D01*
X6592594D01*
X6601058Y7845195D01*
X6752371Y9307172D02*
Y9264852D01*
X6743907Y9256388D01*
X6726979D01*
X6718516Y9264852D01*
Y9307172D01*
X6667732Y9298708D02*
X6676196Y9307172D01*
X6693124D01*
X6701588Y9298708D01*
Y9290244D01*
X6693124Y9281780D01*
X6676196D01*
X6667732Y9273316D01*
Y9264852D01*
X6676196Y9256388D01*
X6693124D01*
X6701588Y9264852D01*
X6650804Y9307172D02*
Y9256388D01*
X6625412D01*
X6616949Y9264852D01*
Y9273316D01*
X6625412Y9281780D01*
X6650804D01*
X6625412D01*
X6616949Y9290244D01*
Y9298708D01*
X6625412Y9307172D01*
X6650804D01*
X6302360Y7981308D02*
Y8032092D01*
X6276968D01*
X6268504Y8023628D01*
Y8006700D01*
X6276968Y7998236D01*
X6302360D01*
X6285432D02*
X6268504Y7981308D01*
X6251576D02*
X6234648D01*
X6243112D01*
Y8032092D01*
X6251576Y8023628D01*
X6209256D02*
X6200792Y8032092D01*
X6183864D01*
X6175401Y8023628D01*
Y7989772D01*
X6183864Y7981308D01*
X6200792D01*
X6209256Y7989772D01*
Y8023628D01*
X5849299Y8974748D02*
Y9025532D01*
X5823907D01*
X5815444Y9017068D01*
Y9000140D01*
X5823907Y8991676D01*
X5849299D01*
X5832371D02*
X5815444Y8974748D01*
X5798516Y9017068D02*
X5790052Y9025532D01*
X5773124D01*
X5764660Y9017068D01*
Y9008604D01*
X5773124Y9000140D01*
X5764660Y8991676D01*
Y8983212D01*
X5773124Y8974748D01*
X5790052D01*
X5798516Y8983212D01*
Y8991676D01*
X5790052Y9000140D01*
X5798516Y9008604D01*
Y9017068D01*
X5790052Y9000140D02*
X5773124D01*
X5359506Y9028816D02*
Y9079599D01*
X5334114D01*
X5325650Y9071136D01*
Y9054208D01*
X5334114Y9045744D01*
X5359506D01*
X5342578D02*
X5325650Y9028816D01*
X5308722Y9079599D02*
X5274867D01*
Y9071136D01*
X5308722Y9037280D01*
Y9028816D01*
X5485165Y8427918D02*
Y8478701D01*
X5459773D01*
X5451309Y8470237D01*
Y8453309D01*
X5459773Y8444845D01*
X5485165D01*
X5468237D02*
X5451309Y8427918D01*
X5400526Y8478701D02*
X5417453Y8470237D01*
X5434381Y8453309D01*
Y8436382D01*
X5425917Y8427918D01*
X5408989D01*
X5400526Y8436382D01*
Y8444845D01*
X5408989Y8453309D01*
X5434381D01*
X6191575Y9286751D02*
X6225430D01*
Y9261359D01*
X6208502D01*
X6225430D01*
Y9235968D01*
X6140791D02*
X6174647D01*
X6140791Y9269823D01*
Y9278287D01*
X6149255Y9286751D01*
X6166183D01*
X6174647Y9278287D01*
X6055019Y9010479D02*
Y8959695D01*
X6029627D01*
X6021163Y8968159D01*
Y9002015D01*
X6029627Y9010479D01*
X6055019D01*
X6004235Y9002015D02*
X5995771Y9010479D01*
X5978844D01*
X5970380Y9002015D01*
Y8993551D01*
X5978844Y8985087D01*
X5970380Y8976623D01*
Y8968159D01*
X5978844Y8959695D01*
X5995771D01*
X6004235Y8968159D01*
Y8976623D01*
X5995771Y8985087D01*
X6004235Y8993551D01*
Y9002015D01*
X5995771Y8985087D02*
X5978844D01*
X6201887Y8934818D02*
X6151103D01*
Y8960210D01*
X6159567Y8968674D01*
X6193423D01*
X6201887Y8960210D01*
Y8934818D01*
Y8985602D02*
Y9019457D01*
X6193423D01*
X6159567Y8985602D01*
X6151103D01*
X6180777Y8818692D02*
Y8767909D01*
X6155385D01*
X6146921Y8776373D01*
Y8810228D01*
X6155385Y8818692D01*
X6180777D01*
X6096138D02*
X6113065Y8810228D01*
X6129993Y8793300D01*
Y8776373D01*
X6121529Y8767909D01*
X6104601D01*
X6096138Y8776373D01*
Y8784836D01*
X6104601Y8793300D01*
X6129993D01*
X6035371Y8329049D02*
X6043835Y8337513D01*
X6060763D01*
X6069227Y8329049D01*
Y8295193D01*
X6060763Y8286729D01*
X6043835D01*
X6035371Y8295193D01*
X6018443Y8337513D02*
X5984587D01*
Y8329049D01*
X6018443Y8295193D01*
Y8286729D01*
X5817150Y8519179D02*
X5825614Y8527643D01*
X5842542D01*
X5851006Y8519179D01*
Y8485324D01*
X5842542Y8476860D01*
X5825614D01*
X5817150Y8485324D01*
X5766367Y8527643D02*
X5783295Y8519179D01*
X5800223Y8502251D01*
Y8485324D01*
X5791759Y8476860D01*
X5774831D01*
X5766367Y8485324D01*
Y8493787D01*
X5774831Y8502251D01*
X5800223D01*
X7775936Y8135979D02*
Y8186762D01*
X7750544D01*
X7742081Y8178298D01*
Y8161371D01*
X7750544Y8152906D01*
X7775936D01*
X7759008D02*
X7742081Y8135979D01*
X7725153D02*
X7708225D01*
X7716689D01*
Y8186762D01*
X7725153Y8178298D01*
X7205860Y8870232D02*
X7155076D01*
Y8895624D01*
X7163540Y8904088D01*
X7197396D01*
X7205860Y8895624D01*
Y8870232D01*
X7155076Y8921016D02*
Y8937944D01*
Y8929480D01*
X7205860D01*
X7197396Y8921016D01*
X8628591Y8082668D02*
Y8133451D01*
X8603199D01*
X8594736Y8124988D01*
Y8108060D01*
X8603199Y8099596D01*
X8628591D01*
X8543952Y8124988D02*
X8552416Y8133451D01*
X8569344D01*
X8577808Y8124988D01*
Y8091132D01*
X8569344Y8082668D01*
X8552416D01*
X8543952Y8091132D01*
Y8108060D01*
X8560880D01*
X8527024Y8082668D02*
Y8133451D01*
X8510097Y8116524D01*
X8493169Y8133451D01*
Y8082668D01*
X8581324Y8390302D02*
X8589788Y8398766D01*
X8606716D01*
X8615180Y8390302D01*
Y8356446D01*
X8606716Y8347982D01*
X8589788D01*
X8581324Y8356446D01*
Y8373374D01*
X8598252D01*
X8564397Y8347982D02*
Y8398766D01*
X8530541Y8347982D01*
Y8398766D01*
X8513613D02*
Y8347982D01*
X8488221D01*
X8479757Y8356446D01*
Y8390302D01*
X8488221Y8398766D01*
X8513613D01*
X8622625Y7879051D02*
X8614161Y7887514D01*
X8597234D01*
X8588770Y7879051D01*
Y7870586D01*
X8597234Y7862123D01*
X8605698D01*
X8597234D01*
X8588770Y7853659D01*
Y7845195D01*
X8597234Y7836731D01*
X8614161D01*
X8622625Y7845195D01*
X8571842Y7887514D02*
Y7853659D01*
X8554914Y7836731D01*
X8537986Y7853659D01*
Y7887514D01*
X8521058Y7879051D02*
X8512594Y7887514D01*
X8495667D01*
X8487203Y7879051D01*
Y7870586D01*
X8495667Y7862123D01*
X8504131D01*
X8495667D01*
X8487203Y7853659D01*
Y7845195D01*
X8495667Y7836731D01*
X8512594D01*
X8521058Y7845195D01*
X8672371Y9307172D02*
Y9264852D01*
X8663907Y9256388D01*
X8646979D01*
X8638516Y9264852D01*
Y9307172D01*
X8587732Y9298708D02*
X8596196Y9307172D01*
X8613124D01*
X8621588Y9298708D01*
Y9290244D01*
X8613124Y9281780D01*
X8596196D01*
X8587732Y9273316D01*
Y9264852D01*
X8596196Y9256388D01*
X8613124D01*
X8621588Y9264852D01*
X8570804Y9307172D02*
Y9256388D01*
X8545412D01*
X8536949Y9264852D01*
Y9273316D01*
X8545412Y9281780D01*
X8570804D01*
X8545412D01*
X8536949Y9290244D01*
Y9298708D01*
X8545412Y9307172D01*
X8570804D01*
X8222359Y7981308D02*
Y8032092D01*
X8196968D01*
X8188504Y8023628D01*
Y8006700D01*
X8196968Y7998236D01*
X8222359D01*
X8205432D02*
X8188504Y7981308D01*
X8171576D02*
X8154648D01*
X8163112D01*
Y8032092D01*
X8171576Y8023628D01*
X8129256D02*
X8120792Y8032092D01*
X8103864D01*
X8095401Y8023628D01*
Y7989772D01*
X8103864Y7981308D01*
X8120792D01*
X8129256Y7989772D01*
Y8023628D01*
X7769299Y8974748D02*
Y9025532D01*
X7743907D01*
X7735444Y9017068D01*
Y9000140D01*
X7743907Y8991676D01*
X7769299D01*
X7752371D02*
X7735444Y8974748D01*
X7718516Y9017068D02*
X7710052Y9025532D01*
X7693124D01*
X7684660Y9017068D01*
Y9008604D01*
X7693124Y9000140D01*
X7684660Y8991676D01*
Y8983212D01*
X7693124Y8974748D01*
X7710052D01*
X7718516Y8983212D01*
Y8991676D01*
X7710052Y9000140D01*
X7718516Y9008604D01*
Y9017068D01*
X7710052Y9000140D02*
X7693124D01*
X7279506Y9028816D02*
Y9079599D01*
X7254114D01*
X7245650Y9071136D01*
Y9054208D01*
X7254114Y9045744D01*
X7279506D01*
X7262578D02*
X7245650Y9028816D01*
X7228722Y9079599D02*
X7194867D01*
Y9071136D01*
X7228722Y9037280D01*
Y9028816D01*
X7405165Y8427918D02*
Y8478701D01*
X7379773D01*
X7371309Y8470237D01*
Y8453309D01*
X7379773Y8444845D01*
X7405165D01*
X7388237D02*
X7371309Y8427918D01*
X7320526Y8478701D02*
X7337453Y8470237D01*
X7354381Y8453309D01*
Y8436382D01*
X7345917Y8427918D01*
X7328989D01*
X7320526Y8436382D01*
Y8444845D01*
X7328989Y8453309D01*
X7354381D01*
X8111575Y9286751D02*
X8145430D01*
Y9261359D01*
X8128502D01*
X8145430D01*
Y9235968D01*
X8060791D02*
X8094647D01*
X8060791Y9269823D01*
Y9278287D01*
X8069255Y9286751D01*
X8086183D01*
X8094647Y9278287D01*
X7975019Y9010479D02*
Y8959695D01*
X7949627D01*
X7941163Y8968159D01*
Y9002015D01*
X7949627Y9010479D01*
X7975019D01*
X7924235Y9002015D02*
X7915771Y9010479D01*
X7898843D01*
X7890380Y9002015D01*
Y8993551D01*
X7898843Y8985087D01*
X7890380Y8976623D01*
Y8968159D01*
X7898843Y8959695D01*
X7915771D01*
X7924235Y8968159D01*
Y8976623D01*
X7915771Y8985087D01*
X7924235Y8993551D01*
Y9002015D01*
X7915771Y8985087D02*
X7898843D01*
X8121887Y8934818D02*
X8071103D01*
Y8960210D01*
X8079567Y8968674D01*
X8113423D01*
X8121887Y8960210D01*
Y8934818D01*
Y8985602D02*
Y9019457D01*
X8113423D01*
X8079567Y8985602D01*
X8071103D01*
X8100777Y8818692D02*
Y8767909D01*
X8075385D01*
X8066921Y8776373D01*
Y8810228D01*
X8075385Y8818692D01*
X8100777D01*
X8016138D02*
X8033065Y8810228D01*
X8049993Y8793300D01*
Y8776373D01*
X8041529Y8767909D01*
X8024601D01*
X8016138Y8776373D01*
Y8784836D01*
X8024601Y8793300D01*
X8049993D01*
X7955371Y8329049D02*
X7963835Y8337513D01*
X7980763D01*
X7989227Y8329049D01*
Y8295193D01*
X7980763Y8286729D01*
X7963835D01*
X7955371Y8295193D01*
X7938443Y8337513D02*
X7904587D01*
Y8329049D01*
X7938443Y8295193D01*
Y8286729D01*
X7737150Y8519179D02*
X7745614Y8527643D01*
X7762542D01*
X7771006Y8519179D01*
Y8485324D01*
X7762542Y8476860D01*
X7745614D01*
X7737150Y8485324D01*
X7686367Y8527643D02*
X7703295Y8519179D01*
X7720223Y8502251D01*
Y8485324D01*
X7711759Y8476860D01*
X7694831D01*
X7686367Y8485324D01*
Y8493787D01*
X7694831Y8502251D01*
X7720223D01*
%TF.MD5,7d6a9f0c3c4819a127a81eab23d38f59*%
M02*
