<?xml version="1.0" encoding="UTF-8"?>
<svg width="700pt" height="700pt" version="1.1" viewBox="0 0 700 700" xmlns="http://www.w3.org/2000/svg">
 <g fill="none" stroke="#000" stroke-linecap="round" stroke-linejoin="round" stroke-miterlimit="10" stroke-width="2">
  <path transform="matrix(17.5,0,0,17.5,70,0)" d="m26.3 13.6c0 5.7-4.6 10.3-10.3 10.3s-10.3-4.6-10.3-10.3"/>
  <path transform="matrix(17.5,0,0,17.5,70,0)" d="m16 19.9c-3.5 0-6.3-2.8-6.3-6.3v-6.3c0-3.5 2.8-6.3 6.3-6.3s6.3 2.8 6.3 6.3v6.4c0 3.4-2.8 6.2-6.3 6.2z"/>
  <path transform="matrix(17.5,0,0,17.5,70,0)" d="m16 23.9v7.1"/>
  <path transform="matrix(17.5,0,0,17.5,70,0)" d="m19.5 31h-7"/>
 </g>
</svg>
