%TF.GenerationSoftware,Altium Limited,Altium Designer,20.1.8 (145)*%
G04 Layer_Physical_Order=2*
G04 Layer_Color=16729670*
%FSLAX45Y45*%
%MOMM*%
%TF.SameCoordinates,80F20431-A883-4DFF-BABD-8B1F2EDF33A6*%
%TF.FilePolarity,Positive*%
%TF.FileFunction,Copper,L2,Bot,Signal*%
%TF.Part,Single*%
G01*
G75*
%TA.AperFunction,ComponentPad*%
%ADD10O,2.00000X1.50000*%
G04:AMPARAMS|DCode=11|XSize=1.1mm|YSize=1.4mm|CornerRadius=0.55mm|HoleSize=0mm|Usage=FLASHONLY|Rotation=270.000|XOffset=0mm|YOffset=0mm|HoleType=Round|Shape=RoundedRectangle|*
%AMROUNDEDRECTD11*
21,1,1.10000,0.30000,0,0,270.0*
21,1,0.00000,1.40000,0,0,270.0*
1,1,1.10000,-0.15000,0.00000*
1,1,1.10000,-0.15000,0.00000*
1,1,1.10000,0.15000,0.00000*
1,1,1.10000,0.15000,0.00000*
%
%ADD11ROUNDEDRECTD11*%
G04:AMPARAMS|DCode=12|XSize=2.25mm|YSize=3.75mm|CornerRadius=1.125mm|HoleSize=0mm|Usage=FLASHONLY|Rotation=180.000|XOffset=0mm|YOffset=0mm|HoleType=Round|Shape=RoundedRectangle|*
%AMROUNDEDRECTD12*
21,1,2.25000,1.50000,0,0,180.0*
21,1,0.00000,3.75000,0,0,180.0*
1,1,2.25000,0.00000,0.75000*
1,1,2.25000,0.00000,0.75000*
1,1,2.25000,0.00000,-0.75000*
1,1,2.25000,0.00000,-0.75000*
%
%ADD12ROUNDEDRECTD12*%
%ADD13O,2.25000X3.75000*%
%ADD14O,1.70000X1.00000*%
%TA.AperFunction,ViaPad*%
%ADD15C,0.61000*%
%TA.AperFunction,ConnectorPad*%
G04:AMPARAMS|DCode=16|XSize=2.1mm|YSize=1.6mm|CornerRadius=0.008mm|HoleSize=0mm|Usage=FLASHONLY|Rotation=270.000|XOffset=0mm|YOffset=0mm|HoleType=Round|Shape=RoundedRectangle|*
%AMROUNDEDRECTD16*
21,1,2.10000,1.58400,0,0,270.0*
21,1,2.08400,1.60000,0,0,270.0*
1,1,0.01600,-0.79200,-1.04200*
1,1,0.01600,-0.79200,1.04200*
1,1,0.01600,0.79200,1.04200*
1,1,0.01600,0.79200,-1.04200*
%
%ADD16ROUNDEDRECTD16*%
G04:AMPARAMS|DCode=17|XSize=0.35mm|YSize=2mm|CornerRadius=0.175mm|HoleSize=0mm|Usage=FLASHONLY|Rotation=270.000|XOffset=0mm|YOffset=0mm|HoleType=Round|Shape=RoundedRectangle|*
%AMROUNDEDRECTD17*
21,1,0.35000,1.65000,0,0,270.0*
21,1,0.00000,2.00000,0,0,270.0*
1,1,0.35000,-0.82500,0.00000*
1,1,0.35000,-0.82500,0.00000*
1,1,0.35000,0.82500,0.00000*
1,1,0.35000,0.82500,0.00000*
%
%ADD17ROUNDEDRECTD17*%
%TA.AperFunction,SMDPad,CuDef*%
G04:AMPARAMS|DCode=18|XSize=0.4mm|YSize=0.3mm|CornerRadius=0.0015mm|HoleSize=0mm|Usage=FLASHONLY|Rotation=270.000|XOffset=0mm|YOffset=0mm|HoleType=Round|Shape=RoundedRectangle|*
%AMROUNDEDRECTD18*
21,1,0.40000,0.29700,0,0,270.0*
21,1,0.39700,0.30000,0,0,270.0*
1,1,0.00300,-0.14850,-0.19850*
1,1,0.00300,-0.14850,0.19850*
1,1,0.00300,0.14850,0.19850*
1,1,0.00300,0.14850,-0.19850*
%
%ADD18ROUNDEDRECTD18*%
G04:AMPARAMS|DCode=19|XSize=0.85mm|YSize=1.4mm|CornerRadius=0.00425mm|HoleSize=0mm|Usage=FLASHONLY|Rotation=180.000|XOffset=0mm|YOffset=0mm|HoleType=Round|Shape=RoundedRectangle|*
%AMROUNDEDRECTD19*
21,1,0.85000,1.39150,0,0,180.0*
21,1,0.84150,1.40000,0,0,180.0*
1,1,0.00850,-0.42075,0.69575*
1,1,0.00850,0.42075,0.69575*
1,1,0.00850,0.42075,-0.69575*
1,1,0.00850,-0.42075,-0.69575*
%
%ADD19ROUNDEDRECTD19*%
G04:AMPARAMS|DCode=20|XSize=0.8mm|YSize=0.7mm|CornerRadius=0.0035mm|HoleSize=0mm|Usage=FLASHONLY|Rotation=180.000|XOffset=0mm|YOffset=0mm|HoleType=Round|Shape=RoundedRectangle|*
%AMROUNDEDRECTD20*
21,1,0.80000,0.69300,0,0,180.0*
21,1,0.79300,0.70000,0,0,180.0*
1,1,0.00700,-0.39650,0.34650*
1,1,0.00700,0.39650,0.34650*
1,1,0.00700,0.39650,-0.34650*
1,1,0.00700,-0.39650,-0.34650*
%
%ADD20ROUNDEDRECTD20*%
G04:AMPARAMS|DCode=21|XSize=0.85mm|YSize=0.75mm|CornerRadius=0.00375mm|HoleSize=0mm|Usage=FLASHONLY|Rotation=90.000|XOffset=0mm|YOffset=0mm|HoleType=Round|Shape=RoundedRectangle|*
%AMROUNDEDRECTD21*
21,1,0.85000,0.74250,0,0,90.0*
21,1,0.84250,0.75000,0,0,90.0*
1,1,0.00750,0.37125,0.42125*
1,1,0.00750,0.37125,-0.42125*
1,1,0.00750,-0.37125,-0.42125*
1,1,0.00750,-0.37125,0.42125*
%
%ADD21ROUNDEDRECTD21*%
G04:AMPARAMS|DCode=22|XSize=0.85mm|YSize=0.75mm|CornerRadius=0.00375mm|HoleSize=0mm|Usage=FLASHONLY|Rotation=0.000|XOffset=0mm|YOffset=0mm|HoleType=Round|Shape=RoundedRectangle|*
%AMROUNDEDRECTD22*
21,1,0.85000,0.74250,0,0,0.0*
21,1,0.84250,0.75000,0,0,0.0*
1,1,0.00750,0.42125,-0.37125*
1,1,0.00750,-0.42125,-0.37125*
1,1,0.00750,-0.42125,0.37125*
1,1,0.00750,0.42125,0.37125*
%
%ADD22ROUNDEDRECTD22*%
G04:AMPARAMS|DCode=23|XSize=0.8mm|YSize=0.7mm|CornerRadius=0.0035mm|HoleSize=0mm|Usage=FLASHONLY|Rotation=90.000|XOffset=0mm|YOffset=0mm|HoleType=Round|Shape=RoundedRectangle|*
%AMROUNDEDRECTD23*
21,1,0.80000,0.69300,0,0,90.0*
21,1,0.79300,0.70000,0,0,90.0*
1,1,0.00700,0.34650,0.39650*
1,1,0.00700,0.34650,-0.39650*
1,1,0.00700,-0.34650,-0.39650*
1,1,0.00700,-0.34650,0.39650*
%
%ADD23ROUNDEDRECTD23*%
%ADD24O,1.05000X0.60000*%
G04:AMPARAMS|DCode=25|XSize=0.4mm|YSize=0.3mm|CornerRadius=0.0015mm|HoleSize=0mm|Usage=FLASHONLY|Rotation=180.000|XOffset=0mm|YOffset=0mm|HoleType=Round|Shape=RoundedRectangle|*
%AMROUNDEDRECTD25*
21,1,0.40000,0.29700,0,0,180.0*
21,1,0.39700,0.30000,0,0,180.0*
1,1,0.00300,-0.19850,0.14850*
1,1,0.00300,0.19850,0.14850*
1,1,0.00300,0.19850,-0.14850*
1,1,0.00300,-0.19850,-0.14850*
%
%ADD25ROUNDEDRECTD25*%
%TA.AperFunction,Conductor*%
%ADD26C,0.12700*%
%ADD27C,0.15240*%
G36*
X1883167Y16833D02*
X517746D01*
X514216Y21482D01*
X510910Y32073D01*
X518987Y42599D01*
X525561Y58469D01*
X527803Y75500D01*
X525561Y92531D01*
X518987Y108401D01*
X508529Y122029D01*
X494901Y132487D01*
X479031Y139061D01*
X462000Y141303D01*
X392000D01*
X374969Y139061D01*
X359099Y132487D01*
X345470Y122029D01*
X335013Y108401D01*
X330503Y97513D01*
X291765D01*
Y140550D01*
X290555Y146633D01*
X287109Y151790D01*
X281952Y155235D01*
X275870Y156445D01*
X206570D01*
X200487Y155235D01*
X195330Y151790D01*
X191885Y146633D01*
X190674Y140550D01*
Y61250D01*
X191885Y55167D01*
X195330Y50010D01*
X200487Y46565D01*
X206570Y45355D01*
X275870D01*
X281952Y46565D01*
X287109Y50010D01*
X289432Y53487D01*
X330503D01*
X335013Y42599D01*
X343089Y32073D01*
X339784Y21482D01*
X336253Y16833D01*
X16833D01*
Y1583167D01*
X335642D01*
X337310Y1581277D01*
X342322Y1567927D01*
X335013Y1558402D01*
X330503Y1547513D01*
X146985D01*
Y1549990D01*
X145775Y1556073D01*
X142330Y1561230D01*
X137173Y1564675D01*
X131090Y1565885D01*
X51790D01*
X45707Y1564675D01*
X40550Y1561230D01*
X37105Y1556073D01*
X35895Y1549990D01*
Y1480690D01*
X37105Y1474607D01*
X40550Y1469450D01*
X45707Y1466005D01*
X51790Y1464795D01*
X131090D01*
X137173Y1466005D01*
X142330Y1469450D01*
X145775Y1474607D01*
X146985Y1480690D01*
Y1503487D01*
X330503D01*
X335013Y1492599D01*
X345470Y1478971D01*
X359099Y1468513D01*
X374969Y1461939D01*
X392000Y1459697D01*
X462000D01*
X479031Y1461939D01*
X494901Y1468513D01*
X508529Y1478971D01*
X518987Y1492599D01*
X525561Y1508469D01*
X527803Y1525500D01*
X525561Y1542531D01*
X518987Y1558402D01*
X511678Y1567927D01*
X516690Y1581277D01*
X518358Y1583167D01*
X835642D01*
X837310Y1581277D01*
X842322Y1567927D01*
X835013Y1558402D01*
X828439Y1542531D01*
X826197Y1525500D01*
X828439Y1508469D01*
X833245Y1496867D01*
X763767Y1427388D01*
X706737D01*
X706144Y1427270D01*
X643437D01*
X637354Y1426060D01*
X632197Y1422615D01*
X628752Y1417458D01*
X627542Y1411375D01*
Y1332075D01*
X628752Y1325993D01*
X632197Y1320836D01*
X637354Y1317390D01*
X643437Y1316180D01*
X712737D01*
X718819Y1317390D01*
X723976Y1320836D01*
X727422Y1325993D01*
X728632Y1332075D01*
Y1383362D01*
X772885D01*
X781309Y1385038D01*
X788450Y1389810D01*
X864794Y1466154D01*
X874969Y1461939D01*
X892000Y1459697D01*
X962000D01*
X979031Y1461939D01*
X994901Y1468513D01*
X1008529Y1478971D01*
X1018987Y1492599D01*
X1025561Y1508469D01*
X1027803Y1525500D01*
X1025561Y1542531D01*
X1018987Y1558402D01*
X1011678Y1567927D01*
X1016690Y1581277D01*
X1018358Y1583167D01*
X1883167D01*
Y16833D01*
D02*
G37*
%LPC*%
G36*
X258107Y1429771D02*
X228613D01*
Y1379349D01*
X274028D01*
Y1413850D01*
X272816Y1419943D01*
X269364Y1425108D01*
X264200Y1428559D01*
X258107Y1429771D01*
D02*
G37*
G36*
X213373D02*
X183857D01*
X177764Y1428559D01*
X172599Y1425108D01*
X169148Y1419943D01*
X167936Y1413850D01*
Y1379349D01*
X213373D01*
Y1429771D01*
D02*
G37*
G36*
X1170379Y1378989D02*
X1163155D01*
Y1350098D01*
X1187037D01*
Y1362331D01*
X1182158Y1374110D01*
X1170379Y1378989D01*
D02*
G37*
G36*
X1147915D02*
X1140679D01*
X1128900Y1374110D01*
X1124021Y1362331D01*
Y1350098D01*
X1147915D01*
Y1378989D01*
D02*
G37*
G36*
X1773800Y1506019D02*
X1723800D01*
X1700243Y1502917D01*
X1678291Y1493824D01*
X1659440Y1479360D01*
X1644976Y1460509D01*
X1635883Y1438557D01*
X1632781Y1415000D01*
X1635883Y1391443D01*
X1644976Y1369491D01*
X1659440Y1350640D01*
X1678291Y1336176D01*
X1700243Y1327083D01*
X1723800Y1323981D01*
X1773800D01*
X1797358Y1327083D01*
X1819310Y1336176D01*
X1838160Y1350640D01*
X1852625Y1369491D01*
X1861718Y1391443D01*
X1864819Y1415000D01*
X1861718Y1438557D01*
X1852625Y1460509D01*
X1838160Y1479360D01*
X1819310Y1493824D01*
X1797358Y1502917D01*
X1773800Y1506019D01*
D02*
G37*
G36*
X274028Y1364109D02*
X228613D01*
Y1313679D01*
X258107D01*
X264200Y1314891D01*
X269364Y1318343D01*
X272816Y1323507D01*
X274028Y1329600D01*
Y1364109D01*
D02*
G37*
G36*
X213373D02*
X167936D01*
Y1329600D01*
X169148Y1323507D01*
X172599Y1318343D01*
X177764Y1314891D01*
X183857Y1313679D01*
X213373D01*
Y1364109D01*
D02*
G37*
G36*
X1187037Y1334858D02*
X1163155D01*
Y1305973D01*
X1170379D01*
X1182158Y1310852D01*
X1187037Y1322631D01*
Y1334858D01*
D02*
G37*
G36*
X1147915D02*
X1124021D01*
Y1322631D01*
X1128900Y1310852D01*
X1140679Y1305973D01*
X1147915D01*
Y1334858D01*
D02*
G37*
G36*
X1145515Y1566987D02*
X1061365D01*
X1055253Y1565771D01*
X1050071Y1562309D01*
X1046609Y1557127D01*
X1045393Y1551015D01*
Y1411865D01*
X1046609Y1405753D01*
X1047301Y1404717D01*
Y1378123D01*
X839644D01*
X830725Y1376349D01*
X823163Y1371296D01*
X711826Y1259959D01*
X706773Y1252397D01*
X704999Y1243478D01*
Y552663D01*
X706773Y543743D01*
X711826Y536182D01*
X817448Y430559D01*
X825010Y425506D01*
X833929Y423732D01*
X886844D01*
X893064Y414424D01*
X908028Y404425D01*
X925680Y400914D01*
X970680D01*
X988332Y404425D01*
X1003296Y414424D01*
X1009516Y423732D01*
X1063398D01*
Y406954D01*
X1064610Y400862D01*
X1068061Y395697D01*
X1073226Y392245D01*
X1079318Y391034D01*
X1153569D01*
X1159661Y392245D01*
X1164826Y395697D01*
X1168278Y400862D01*
X1169489Y406954D01*
Y491205D01*
X1168278Y497297D01*
X1164826Y502462D01*
X1159661Y505913D01*
X1153569Y507125D01*
X1079318D01*
X1073226Y505913D01*
X1068061Y502462D01*
X1064610Y497297D01*
X1063398Y491205D01*
Y470348D01*
X1009516D01*
X1003296Y479656D01*
X988332Y489655D01*
X970680Y493166D01*
X925680D01*
X908028Y489655D01*
X893064Y479656D01*
X886844Y470348D01*
X843584D01*
X751614Y562317D01*
Y1233823D01*
X849298Y1331507D01*
X1034021D01*
Y1322631D01*
X1038900Y1310852D01*
X1050679Y1305973D01*
X1080379D01*
X1092158Y1310852D01*
X1097037Y1322631D01*
Y1362331D01*
X1093917Y1369863D01*
Y1395893D01*
X1145515D01*
X1151627Y1397109D01*
X1156809Y1400571D01*
X1160271Y1405753D01*
X1161487Y1411865D01*
Y1551015D01*
X1160271Y1557127D01*
X1156809Y1562309D01*
X1151627Y1565771D01*
X1145515Y1566987D01*
D02*
G37*
G36*
X1256830Y1326033D02*
X1244600D01*
Y1302145D01*
X1273488D01*
Y1309375D01*
X1268609Y1321154D01*
X1256830Y1326033D01*
D02*
G37*
G36*
X1229360D02*
X1217130D01*
X1205351Y1321154D01*
X1200472Y1309375D01*
Y1302145D01*
X1229360D01*
Y1326033D01*
D02*
G37*
G36*
X1273488Y1286905D02*
X1244600D01*
Y1263017D01*
X1256830D01*
X1268609Y1267896D01*
X1273488Y1279675D01*
Y1286905D01*
D02*
G37*
G36*
X1229360D02*
X1200472D01*
Y1279675D01*
X1205351Y1267896D01*
X1217130Y1263017D01*
X1229360D01*
Y1286905D01*
D02*
G37*
G36*
X1355515Y1566987D02*
X1271365D01*
X1265253Y1565771D01*
X1260071Y1562309D01*
X1256609Y1557127D01*
X1255393Y1551015D01*
Y1411865D01*
X1256609Y1405753D01*
X1260071Y1400571D01*
X1265253Y1397109D01*
X1271365Y1395893D01*
X1324840D01*
Y1318142D01*
X1326614Y1309222D01*
X1331667Y1301661D01*
X1370570Y1262758D01*
X1370419Y1262000D01*
X1372960Y1249226D01*
X1380196Y1238396D01*
Y1233813D01*
X1365614Y1219013D01*
X1304423D01*
X1303345Y1220090D01*
X1296204Y1224862D01*
X1287780Y1226538D01*
X1270521D01*
X1268609Y1231154D01*
X1256830Y1236033D01*
X1217130D01*
X1205351Y1231154D01*
X1203439Y1226538D01*
X1102489D01*
X1019948Y1309079D01*
X1012806Y1313851D01*
X1004382Y1315526D01*
X879975D01*
X871551Y1313851D01*
X864409Y1309079D01*
X799077Y1243746D01*
X794305Y1236605D01*
X792629Y1228181D01*
Y731088D01*
X794305Y722665D01*
X799077Y715523D01*
X829125Y685475D01*
X836267Y680703D01*
X844691Y679027D01*
X885979D01*
X893064Y668424D01*
X908028Y658425D01*
X925680Y654914D01*
X970680D01*
X988332Y658425D01*
X1003296Y668424D01*
X1013295Y683388D01*
X1016806Y701040D01*
X1013295Y718692D01*
X1003296Y733656D01*
X988332Y743655D01*
X970680Y747166D01*
X925680D01*
X908028Y743655D01*
X893064Y733656D01*
X885979Y723053D01*
X853809D01*
X836655Y740206D01*
Y1219063D01*
X889093Y1271501D01*
X995264D01*
X1077805Y1188960D01*
X1084947Y1184188D01*
X1093371Y1182512D01*
X1203439D01*
X1205351Y1177896D01*
X1217130Y1173017D01*
X1256830D01*
X1268609Y1177896D01*
X1284601Y1178186D01*
X1286881Y1176663D01*
X1295305Y1174987D01*
X1364885D01*
X1371264Y1159747D01*
X1365614Y1154013D01*
X1294560D01*
X1286136Y1152337D01*
X1284601Y1151311D01*
X1268609Y1151849D01*
X1256830Y1156728D01*
X1217130D01*
X1205351Y1151849D01*
X1203439Y1147233D01*
X1097037D01*
X1088613Y1145557D01*
X1081472Y1140786D01*
X1039666Y1098979D01*
X1034894Y1091838D01*
X1033218Y1083414D01*
Y918372D01*
X985971Y871125D01*
X970680Y874166D01*
X925680D01*
X908028Y870655D01*
X893064Y860656D01*
X883065Y845692D01*
X879554Y828040D01*
X883065Y810388D01*
X893064Y795424D01*
X908028Y785425D01*
X925680Y781914D01*
X970680D01*
X985971Y784955D01*
X1053441Y717485D01*
Y642331D01*
X1055116Y633907D01*
X1059888Y626765D01*
X1141542Y545111D01*
X1148684Y540340D01*
X1157107Y538664D01*
X1274102D01*
X1282526Y540340D01*
X1289667Y545111D01*
X1304158Y559602D01*
X1352243D01*
X1354590Y559135D01*
X1423890D01*
X1429973Y560345D01*
X1435129Y563790D01*
X1438575Y568947D01*
X1439785Y575030D01*
Y654330D01*
X1438575Y660413D01*
X1435129Y665570D01*
X1429973Y669015D01*
X1423890Y670225D01*
X1354590D01*
X1348507Y669015D01*
X1343350Y665570D01*
X1339905Y660413D01*
X1338695Y654330D01*
Y603627D01*
X1295040D01*
X1286615Y601952D01*
X1279474Y597180D01*
X1264984Y582690D01*
X1166225D01*
X1097466Y651449D01*
Y726603D01*
X1095791Y735027D01*
X1091019Y742169D01*
X1014872Y818315D01*
X1016806Y828040D01*
X1014872Y837764D01*
X1070796Y893689D01*
X1075568Y900830D01*
X1077244Y909254D01*
Y1074296D01*
X1106155Y1103207D01*
X1203439D01*
X1205351Y1098591D01*
X1217130Y1093712D01*
X1256830D01*
X1268609Y1098591D01*
X1270521Y1103207D01*
X1287780D01*
X1296204Y1104883D01*
X1303345Y1109655D01*
X1303678Y1109987D01*
X1379133D01*
X1380196Y1108396D01*
Y1090604D01*
X1372960Y1079774D01*
X1370419Y1067000D01*
X1372960Y1054225D01*
X1380196Y1043396D01*
X1391025Y1036160D01*
X1403800Y1033619D01*
X1568800D01*
X1581575Y1036160D01*
X1592404Y1043396D01*
X1599640Y1054225D01*
X1602181Y1067000D01*
X1599640Y1079774D01*
X1592404Y1090604D01*
Y1108396D01*
X1599640Y1119226D01*
X1602181Y1132000D01*
X1599640Y1144774D01*
X1592404Y1155604D01*
Y1173396D01*
X1599640Y1184226D01*
X1602181Y1197000D01*
X1599640Y1209775D01*
X1592404Y1220604D01*
Y1238396D01*
X1599640Y1249226D01*
X1602181Y1262000D01*
X1599640Y1274774D01*
X1592404Y1285604D01*
X1581575Y1292840D01*
X1568800Y1295381D01*
X1557003D01*
X1549858Y1308053D01*
X1556916Y1321446D01*
X1573000D01*
X1579258Y1322691D01*
X1584564Y1326236D01*
X1588109Y1331541D01*
X1589354Y1337800D01*
Y1546200D01*
X1588109Y1552458D01*
X1584564Y1557764D01*
X1579258Y1561309D01*
X1573000Y1562554D01*
X1414600D01*
X1408342Y1561309D01*
X1403036Y1557764D01*
X1399491Y1552458D01*
X1398246Y1546200D01*
Y1337800D01*
X1399491Y1331541D01*
X1403036Y1326236D01*
X1408342Y1322691D01*
X1414600Y1321446D01*
X1470684D01*
X1477743Y1308053D01*
X1470597Y1295381D01*
X1403871D01*
X1371456Y1327796D01*
Y1411708D01*
X1371487Y1411865D01*
Y1551015D01*
X1370271Y1557127D01*
X1366809Y1562309D01*
X1361627Y1565771D01*
X1355515Y1566987D01*
D02*
G37*
G36*
X970680Y1255166D02*
X925680D01*
X908028Y1251655D01*
X893064Y1241656D01*
X883065Y1226692D01*
X879554Y1209040D01*
X883065Y1191388D01*
X893064Y1176424D01*
X908028Y1166425D01*
X925680Y1162914D01*
X970680D01*
X988332Y1166425D01*
X1003296Y1176424D01*
X1013295Y1191388D01*
X1016806Y1209040D01*
X1013295Y1226692D01*
X1003296Y1241656D01*
X988332Y1251655D01*
X970680Y1255166D01*
D02*
G37*
G36*
X430680D02*
X385680D01*
X368028Y1251655D01*
X353064Y1241656D01*
X343065Y1226692D01*
X339554Y1209040D01*
X343065Y1191388D01*
X353064Y1176424D01*
X368028Y1166425D01*
X385680Y1162914D01*
X430680D01*
X448332Y1166425D01*
X463296Y1176424D01*
X473295Y1191388D01*
X476806Y1209040D01*
X473295Y1226692D01*
X463296Y1241656D01*
X448332Y1251655D01*
X430680Y1255166D01*
D02*
G37*
G36*
X413107Y1429771D02*
X338857D01*
X332764Y1428559D01*
X327599Y1425108D01*
X324148Y1419943D01*
X322936Y1413850D01*
Y1340841D01*
X322899Y1340655D01*
Y1317054D01*
X285965Y1280119D01*
X281193Y1272978D01*
X279517Y1264554D01*
Y1156062D01*
X265437Y1150230D01*
X186652Y1229015D01*
X179510Y1233787D01*
X171086Y1235463D01*
X149486D01*
Y1281725D01*
X148274Y1287818D01*
X144823Y1292983D01*
X139658Y1296434D01*
X133565Y1297646D01*
X113453D01*
Y1314795D01*
X131090D01*
X137173Y1316005D01*
X142330Y1319450D01*
X145775Y1324607D01*
X146985Y1330690D01*
Y1399990D01*
X145775Y1406073D01*
X142330Y1411230D01*
X137173Y1414675D01*
X131090Y1415885D01*
X51790D01*
X45707Y1414675D01*
X40550Y1411230D01*
X37105Y1406073D01*
X35895Y1399990D01*
Y1330690D01*
X37105Y1324607D01*
X40550Y1319450D01*
X45707Y1316005D01*
X51790Y1314795D01*
X69427D01*
Y1297646D01*
X49315D01*
X43222Y1296434D01*
X38057Y1292983D01*
X34606Y1287818D01*
X33394Y1281725D01*
Y1207475D01*
X34606Y1201382D01*
X38057Y1196217D01*
X43222Y1192766D01*
X49315Y1191554D01*
X122001D01*
X122590Y1191437D01*
X161968D01*
X251577Y1101828D01*
Y613301D01*
X253253Y604877D01*
X258025Y597736D01*
X297286Y558474D01*
X304427Y553703D01*
X312851Y552027D01*
X345979D01*
X353064Y541424D01*
X368028Y531425D01*
X385680Y527914D01*
X430680D01*
X448332Y531425D01*
X463296Y541424D01*
X473295Y556388D01*
X476806Y574040D01*
X473295Y591692D01*
X463296Y606656D01*
X448332Y616655D01*
X430680Y620166D01*
X385680D01*
X368028Y616655D01*
X353064Y606656D01*
X345979Y596053D01*
X321969D01*
X295603Y622419D01*
Y680431D01*
X304179Y683983D01*
X310843Y685226D01*
X317613Y680703D01*
X326037Y679027D01*
X345979D01*
X353064Y668424D01*
X368028Y658425D01*
X385680Y654914D01*
X430680D01*
X448332Y658425D01*
X463296Y668424D01*
X473295Y683388D01*
X476806Y701040D01*
X473295Y718692D01*
X463296Y733656D01*
X448332Y743655D01*
X430680Y747166D01*
X385680D01*
X368028Y743655D01*
X353064Y733656D01*
X349645Y728539D01*
X334344Y727105D01*
X323543Y737415D01*
Y1255436D01*
X360478Y1292370D01*
X365249Y1299512D01*
X366925Y1307936D01*
Y1313679D01*
X413107D01*
X419200Y1314891D01*
X424364Y1318343D01*
X427816Y1323507D01*
X429028Y1329600D01*
Y1349712D01*
X477541D01*
Y1332075D01*
X478751Y1325993D01*
X482197Y1320836D01*
X487354Y1317390D01*
X493437Y1316180D01*
X562736D01*
X568819Y1317390D01*
X573976Y1320836D01*
X577422Y1325993D01*
X578632Y1332075D01*
Y1411375D01*
X577422Y1417458D01*
X573976Y1422615D01*
X568819Y1426060D01*
X562736Y1427270D01*
X493437D01*
X487354Y1426060D01*
X482197Y1422615D01*
X478751Y1417458D01*
X477541Y1411375D01*
Y1393738D01*
X429028D01*
Y1413850D01*
X427816Y1419943D01*
X424364Y1425108D01*
X419200Y1428559D01*
X413107Y1429771D01*
D02*
G37*
G36*
X133565Y1142646D02*
X99060D01*
Y1097220D01*
X149486D01*
Y1126725D01*
X148274Y1132818D01*
X144823Y1137983D01*
X139658Y1141434D01*
X133565Y1142646D01*
D02*
G37*
G36*
X83820D02*
X49315D01*
X43222Y1141434D01*
X38057Y1137983D01*
X34606Y1132818D01*
X33394Y1126725D01*
Y1097220D01*
X83820D01*
Y1142646D01*
D02*
G37*
G36*
X1256830Y1066728D02*
X1244586D01*
Y1042844D01*
X1273488D01*
Y1050070D01*
X1268609Y1061849D01*
X1256830Y1066728D01*
D02*
G37*
G36*
X1229346D02*
X1217130D01*
X1205351Y1061849D01*
X1200472Y1050070D01*
Y1042844D01*
X1229346D01*
Y1066728D01*
D02*
G37*
G36*
X149486Y1081980D02*
X99060D01*
Y1036554D01*
X133565D01*
X139658Y1037766D01*
X144823Y1041217D01*
X148274Y1046382D01*
X149486Y1052475D01*
Y1081980D01*
D02*
G37*
G36*
X83820D02*
X33394D01*
Y1052475D01*
X34606Y1046382D01*
X38057Y1041217D01*
X43222Y1037766D01*
X49315Y1036554D01*
X83820D01*
Y1081980D01*
D02*
G37*
G36*
X970680Y1128166D02*
X925680D01*
X908028Y1124655D01*
X893064Y1114656D01*
X883065Y1099692D01*
X879554Y1082040D01*
X883065Y1064388D01*
X893064Y1049424D01*
X908028Y1039425D01*
X925680Y1035914D01*
X970680D01*
X988332Y1039425D01*
X1003296Y1049424D01*
X1013295Y1064388D01*
X1016806Y1082040D01*
X1013295Y1099692D01*
X1003296Y1114656D01*
X988332Y1124655D01*
X970680Y1128166D01*
D02*
G37*
G36*
X430680D02*
X385680D01*
X368028Y1124655D01*
X353064Y1114656D01*
X343065Y1099692D01*
X339554Y1082040D01*
X343065Y1064388D01*
X353064Y1049424D01*
X368028Y1039425D01*
X385680Y1035914D01*
X430680D01*
X448332Y1039425D01*
X463296Y1049424D01*
X473295Y1064388D01*
X476806Y1082040D01*
X473295Y1099692D01*
X463296Y1114656D01*
X448332Y1124655D01*
X430680Y1128166D01*
D02*
G37*
G36*
X1273488Y1027604D02*
X1244586D01*
Y1003712D01*
X1256830D01*
X1268609Y1008591D01*
X1273488Y1020370D01*
Y1027604D01*
D02*
G37*
G36*
X1229346D02*
X1200472D01*
Y1020370D01*
X1205351Y1008591D01*
X1217130Y1003712D01*
X1229346D01*
Y1027604D01*
D02*
G37*
G36*
X970680Y1001166D02*
X925680D01*
X908028Y997655D01*
X893064Y987656D01*
X883065Y972692D01*
X879554Y955040D01*
X883065Y937388D01*
X893064Y922424D01*
X908028Y912425D01*
X925680Y908914D01*
X970680D01*
X988332Y912425D01*
X1003296Y922424D01*
X1013295Y937388D01*
X1016806Y955040D01*
X1013295Y972692D01*
X1003296Y987656D01*
X988332Y997655D01*
X970680Y1001166D01*
D02*
G37*
G36*
X1773800Y940019D02*
X1723800D01*
X1700243Y936917D01*
X1678291Y927824D01*
X1659440Y913360D01*
X1644976Y894510D01*
X1635883Y872557D01*
X1632781Y849000D01*
X1635883Y825443D01*
X1644976Y803491D01*
X1659440Y784640D01*
X1678291Y770176D01*
X1700243Y761083D01*
X1723800Y757981D01*
X1773800D01*
X1797358Y761083D01*
X1819310Y770176D01*
X1838160Y784640D01*
X1852625Y803491D01*
X1861718Y825443D01*
X1864819Y849000D01*
X1861718Y872557D01*
X1852625Y894510D01*
X1838160Y913360D01*
X1819310Y927824D01*
X1797358Y936917D01*
X1773800Y940019D01*
D02*
G37*
G36*
X1513800Y973028D02*
X1498099Y969905D01*
X1484789Y961011D01*
X1475895Y947701D01*
X1474871Y942554D01*
X1414600D01*
X1408342Y941310D01*
X1403036Y937764D01*
X1399491Y932459D01*
X1398246Y926200D01*
Y717800D01*
X1399491Y711542D01*
X1403036Y706236D01*
X1408342Y702691D01*
X1414600Y701446D01*
X1573000D01*
X1579258Y702691D01*
X1584564Y706236D01*
X1588109Y711542D01*
X1589354Y717800D01*
Y926200D01*
X1588109Y932459D01*
X1584564Y937764D01*
X1579258Y941310D01*
X1573000Y942554D01*
X1552729D01*
X1551705Y947701D01*
X1542811Y961011D01*
X1529501Y969905D01*
X1513800Y973028D01*
D02*
G37*
G36*
X1763800Y685526D02*
X1733800D01*
X1715464Y683112D01*
X1698377Y676034D01*
X1683705Y664776D01*
X1672446Y650103D01*
X1666891Y636693D01*
X1589785D01*
Y654330D01*
X1588575Y660413D01*
X1585130Y665570D01*
X1579973Y669015D01*
X1573890Y670225D01*
X1504590D01*
X1498507Y669015D01*
X1493350Y665570D01*
X1489905Y660413D01*
X1488695Y654330D01*
Y575030D01*
X1489905Y568947D01*
X1493350Y563790D01*
X1498507Y560345D01*
X1504590Y559135D01*
X1573890D01*
X1579973Y560345D01*
X1585130Y563790D01*
X1588575Y568947D01*
X1589785Y575030D01*
Y592667D01*
X1666891D01*
X1672446Y579257D01*
X1683705Y564584D01*
X1698377Y553326D01*
X1715464Y546248D01*
X1733800Y543834D01*
X1763800D01*
X1782136Y546248D01*
X1799223Y553326D01*
X1813896Y564584D01*
X1825155Y579257D01*
X1832232Y596344D01*
X1834646Y614680D01*
X1832232Y633016D01*
X1825155Y650103D01*
X1813896Y664776D01*
X1799223Y676034D01*
X1782136Y683112D01*
X1763800Y685526D01*
D02*
G37*
G36*
X1308569Y507125D02*
X1279056D01*
Y456707D01*
X1324489D01*
Y491205D01*
X1323278Y497297D01*
X1319826Y502462D01*
X1314661Y505913D01*
X1308569Y507125D01*
D02*
G37*
G36*
X1263816D02*
X1234318D01*
X1228226Y505913D01*
X1223061Y502462D01*
X1219609Y497297D01*
X1218398Y491205D01*
Y456707D01*
X1263816D01*
Y507125D01*
D02*
G37*
G36*
X430680Y493166D02*
X385680D01*
X368028Y489655D01*
X353064Y479656D01*
X345979Y469053D01*
X185641D01*
X177218Y467377D01*
X170076Y462606D01*
X75654Y368183D01*
X70882Y361042D01*
X69207Y352618D01*
Y301886D01*
X54094D01*
X48002Y300674D01*
X42837Y297223D01*
X39385Y292058D01*
X38174Y285965D01*
Y201715D01*
X39385Y195622D01*
X42837Y190457D01*
X48002Y187006D01*
X54094Y185794D01*
X69207D01*
Y156445D01*
X56570D01*
X50487Y155235D01*
X45330Y151790D01*
X41884Y146633D01*
X40674Y140550D01*
Y61250D01*
X41884Y55167D01*
X45330Y50010D01*
X50487Y46565D01*
X56570Y45355D01*
X125869D01*
X131952Y46565D01*
X137109Y50010D01*
X140555Y55167D01*
X141765Y61250D01*
Y140550D01*
X140555Y146633D01*
X137109Y151790D01*
X131952Y155235D01*
X125869Y156445D01*
X113232D01*
Y185794D01*
X128345D01*
X134437Y187006D01*
X139602Y190457D01*
X143054Y195622D01*
X144265Y201715D01*
Y285965D01*
X143054Y292058D01*
X139602Y297223D01*
X134437Y300674D01*
X128345Y301886D01*
X113232D01*
Y343500D01*
X194760Y425027D01*
X345979D01*
X353064Y414424D01*
X368028Y404425D01*
X385680Y400914D01*
X430680D01*
X448332Y404425D01*
X463296Y414424D01*
X473295Y429388D01*
X476806Y447040D01*
X473295Y464692D01*
X463296Y479656D01*
X448332Y489655D01*
X430680Y493166D01*
D02*
G37*
G36*
X1324489Y441467D02*
X1279056D01*
Y391034D01*
X1308569D01*
X1314661Y392245D01*
X1319826Y395697D01*
X1323278Y400862D01*
X1324489Y406954D01*
Y441467D01*
D02*
G37*
G36*
X1263816D02*
X1218398D01*
Y406954D01*
X1219609Y400862D01*
X1223061Y395697D01*
X1228226Y392245D01*
X1234318Y391034D01*
X1263816D01*
Y441467D01*
D02*
G37*
G36*
X1763800Y431526D02*
X1733800D01*
X1715464Y429112D01*
X1698377Y422034D01*
X1683705Y410776D01*
X1672446Y396103D01*
X1667427Y383988D01*
X1401230D01*
X1392310Y382214D01*
X1384749Y377161D01*
X1374243Y366656D01*
X1175190D01*
X1174009Y368423D01*
X1168844Y371874D01*
X1162751Y373086D01*
X1078501D01*
X1072408Y371874D01*
X1067243Y368423D01*
X1063792Y363258D01*
X1062580Y357165D01*
Y343348D01*
X1009516D01*
X1003296Y352656D01*
X988332Y362655D01*
X970680Y366166D01*
X925680D01*
X908028Y362655D01*
X893064Y352656D01*
X883065Y337692D01*
X879554Y320040D01*
X883065Y302388D01*
X893064Y287424D01*
X908028Y277425D01*
X925680Y273914D01*
X945051D01*
Y230326D01*
X945035Y230243D01*
Y150943D01*
X946245Y144860D01*
X949690Y139703D01*
X954847Y136258D01*
X960930Y135047D01*
X1030230D01*
X1036313Y136258D01*
X1041470Y139703D01*
X1044915Y144860D01*
X1046125Y150943D01*
Y230243D01*
X1044915Y236325D01*
X1041470Y241482D01*
X1036313Y244928D01*
X1030230Y246138D01*
X991667D01*
Y279653D01*
X1003296Y287424D01*
X1009516Y296732D01*
X1062580D01*
Y282915D01*
X1063792Y276822D01*
X1067243Y271657D01*
X1072408Y268206D01*
X1078501Y266994D01*
X1162751D01*
X1168844Y268206D01*
X1174009Y271657D01*
X1177460Y276822D01*
X1178672Y282915D01*
Y320040D01*
X1383897D01*
X1392817Y321814D01*
X1400378Y326867D01*
X1410884Y337372D01*
X1667427D01*
X1672446Y325257D01*
X1683705Y310584D01*
X1698377Y299326D01*
X1715464Y292248D01*
X1733800Y289834D01*
X1763800D01*
X1782136Y292248D01*
X1799223Y299326D01*
X1813896Y310584D01*
X1825155Y325257D01*
X1832232Y342344D01*
X1834646Y360680D01*
X1832232Y379016D01*
X1825155Y396103D01*
X1813896Y410776D01*
X1799223Y422034D01*
X1782136Y429112D01*
X1763800Y431526D01*
D02*
G37*
G36*
X430680Y366166D02*
X385680D01*
X368028Y362655D01*
X353064Y352656D01*
X343065Y337692D01*
X339554Y320040D01*
X343065Y302388D01*
X353064Y287424D01*
X368028Y277425D01*
X385680Y273914D01*
X430680D01*
X448332Y277425D01*
X463296Y287424D01*
X473295Y302388D01*
X476806Y320040D01*
X473295Y337692D01*
X463296Y352656D01*
X448332Y362655D01*
X430680Y366166D01*
D02*
G37*
G36*
X283345Y301886D02*
X253846D01*
Y251468D01*
X299265D01*
Y285965D01*
X298054Y292058D01*
X294602Y297223D01*
X289437Y300674D01*
X283345Y301886D01*
D02*
G37*
G36*
X238606D02*
X209094D01*
X203002Y300674D01*
X197837Y297223D01*
X194385Y292058D01*
X193174Y285965D01*
Y251468D01*
X238606D01*
Y301886D01*
D02*
G37*
G36*
X880230Y246138D02*
X810930D01*
X804847Y244928D01*
X799690Y241482D01*
X796245Y236325D01*
X795034Y230243D01*
Y213901D01*
X779525D01*
Y225027D01*
X778315Y231110D01*
X774870Y236267D01*
X769713Y239712D01*
X763630Y240923D01*
X694330D01*
X688247Y239712D01*
X683090Y236267D01*
X679645Y231110D01*
X678435Y225027D01*
Y145727D01*
X679645Y139645D01*
X683090Y134488D01*
X688247Y131042D01*
X694330Y129832D01*
X763630D01*
X769713Y131042D01*
X774870Y134488D01*
X778315Y139645D01*
X779525Y145727D01*
Y167285D01*
X795034D01*
Y150943D01*
X796245Y144860D01*
X799690Y139703D01*
X804847Y136258D01*
X810930Y135047D01*
X880230D01*
X886312Y136258D01*
X891469Y139703D01*
X894915Y144860D01*
X896125Y150943D01*
Y230243D01*
X894915Y236325D01*
X891469Y241482D01*
X886312Y244928D01*
X880230Y246138D01*
D02*
G37*
G36*
X299265Y236228D02*
X253846D01*
Y185794D01*
X283345D01*
X289437Y187006D01*
X294602Y190457D01*
X298054Y195622D01*
X299265Y201715D01*
Y236228D01*
D02*
G37*
G36*
X238606D02*
X193174D01*
Y201715D01*
X194385Y195622D01*
X197837Y190457D01*
X203002Y187006D01*
X209094Y185794D01*
X238606D01*
Y236228D01*
D02*
G37*
G36*
X1162751Y218086D02*
X1128246D01*
Y172660D01*
X1178672D01*
Y202165D01*
X1177460Y208258D01*
X1174009Y213423D01*
X1168844Y216874D01*
X1162751Y218086D01*
D02*
G37*
G36*
X1113006D02*
X1078501D01*
X1072408Y216874D01*
X1067243Y213423D01*
X1063792Y208258D01*
X1062580Y202165D01*
Y172660D01*
X1113006D01*
Y218086D01*
D02*
G37*
G36*
X430680Y874166D02*
X385680D01*
X368028Y870655D01*
X353064Y860656D01*
X343065Y845692D01*
X339554Y828040D01*
X343065Y810388D01*
X353064Y795424D01*
X368028Y785425D01*
X385680Y781914D01*
X430680D01*
X448332Y785425D01*
X463296Y795424D01*
X470381Y806027D01*
X493898D01*
X541967Y757958D01*
Y240923D01*
X529330D01*
X523247Y239712D01*
X518090Y236267D01*
X514645Y231110D01*
X513435Y225027D01*
Y145727D01*
X514645Y139645D01*
X518090Y134488D01*
X523247Y131042D01*
X529330Y129832D01*
X598630D01*
X604713Y131042D01*
X609870Y134488D01*
X613315Y139645D01*
X614525Y145727D01*
Y225027D01*
X613315Y231110D01*
X609870Y236267D01*
X604713Y239712D01*
X598630Y240923D01*
X585993D01*
Y767076D01*
X584317Y775500D01*
X579545Y782642D01*
X518582Y843605D01*
X511440Y848377D01*
X503016Y850053D01*
X470381D01*
X463296Y860656D01*
X448332Y870655D01*
X430680Y874166D01*
D02*
G37*
G36*
X1178672Y157420D02*
X1128246D01*
Y111994D01*
X1162751D01*
X1168844Y113206D01*
X1174009Y116657D01*
X1177460Y121822D01*
X1178672Y127915D01*
Y157420D01*
D02*
G37*
G36*
X1113006D02*
X1062580D01*
Y127915D01*
X1063792Y121822D01*
X1067243Y116657D01*
X1072408Y113206D01*
X1078501Y111994D01*
X1113006D01*
Y157420D01*
D02*
G37*
%LPD*%
D10*
X1748800Y849000D02*
D03*
Y1415000D02*
D03*
D11*
Y106680D02*
D03*
Y614680D02*
D03*
Y360680D02*
D03*
D12*
X1214500Y775500D02*
D03*
D13*
X139500D02*
D03*
D14*
X427000Y75500D02*
D03*
X927000D02*
D03*
X677000Y1525500D02*
D03*
X427000D02*
D03*
X927000D02*
D03*
D15*
X1181807Y1035220D02*
D03*
X1031233Y609063D02*
D03*
X863926D02*
D03*
Y536463D02*
D03*
X1031233D02*
D03*
X220982Y1292983D02*
D03*
X494816Y955040D02*
D03*
X170144Y1089600D02*
D03*
X246219Y322942D02*
D03*
X1199349Y165040D02*
D03*
X1344294Y449079D02*
D03*
X1703480Y1002000D02*
D03*
X1624656D02*
D03*
X1352243D02*
D03*
X1236980Y1346408D02*
D03*
X1156809Y1285894D02*
D03*
D16*
X1493800Y822000D02*
D03*
Y1442000D02*
D03*
D17*
X1486300Y1002000D02*
D03*
Y1067000D02*
D03*
Y1132000D02*
D03*
Y1262000D02*
D03*
Y1197000D02*
D03*
D18*
X1155529Y1342481D02*
D03*
X1065529D02*
D03*
D19*
X1103440Y1481440D02*
D03*
X1313440D02*
D03*
D20*
X91440Y1515340D02*
D03*
Y1365340D02*
D03*
D21*
X1271443Y449079D02*
D03*
X1116444D02*
D03*
X246219Y243840D02*
D03*
X91220D02*
D03*
X220982Y1371725D02*
D03*
X375982D02*
D03*
D22*
X1120626Y165040D02*
D03*
Y320040D02*
D03*
X91440Y1089600D02*
D03*
Y1244600D02*
D03*
D23*
X995580Y190593D02*
D03*
X845580D02*
D03*
X563980Y185377D02*
D03*
X728980D02*
D03*
X241220Y100900D02*
D03*
X91220D02*
D03*
X678087Y1371725D02*
D03*
X528087D02*
D03*
X1539240Y614680D02*
D03*
X1389240D02*
D03*
D24*
X948180Y1209040D02*
D03*
Y1082040D02*
D03*
Y955040D02*
D03*
Y828040D02*
D03*
Y701040D02*
D03*
Y574040D02*
D03*
Y447040D02*
D03*
Y320040D02*
D03*
X408180Y1209040D02*
D03*
Y1082040D02*
D03*
Y955040D02*
D03*
Y828040D02*
D03*
Y701040D02*
D03*
Y574040D02*
D03*
Y447040D02*
D03*
Y320040D02*
D03*
D25*
X1236980Y1035220D02*
D03*
Y1125220D02*
D03*
Y1294525D02*
D03*
Y1204525D02*
D03*
D26*
X1075454Y642331D02*
X1157107Y560677D01*
X1274102D02*
X1295040Y581615D01*
X1157107Y560677D02*
X1274102D01*
X1075454Y642331D02*
Y726603D01*
X974017Y828040D02*
X1075454Y726603D01*
X844691Y701040D02*
X948180D01*
X814642Y731088D02*
Y1228181D01*
Y731088D02*
X844691Y701040D01*
X814642Y1228181D02*
X879975Y1293514D01*
X1004382D01*
X273590Y613301D02*
Y1110946D01*
X122590Y1213450D02*
X171086D01*
X273590Y1110946D01*
X91440Y1244600D02*
X122590Y1213450D01*
X91440Y1244600D02*
Y1365340D01*
X101600Y1525500D02*
X427000D01*
X91440Y1515340D02*
X101600Y1525500D01*
X301530Y1264554D02*
X344912Y1307936D01*
X301530Y725547D02*
Y1264554D01*
X344912Y1307936D02*
Y1340655D01*
X706737Y1405375D02*
X772885D01*
X893010Y1525500D02*
X927000D01*
X772885Y1405375D02*
X893010Y1525500D01*
X678087Y1371725D02*
Y1376725D01*
X706737Y1405375D01*
X375982Y1371725D02*
X528087D01*
X344912Y1340655D02*
X375982Y1371725D01*
X503016Y828040D02*
X563980Y767076D01*
Y185377D02*
Y767076D01*
X408180Y828040D02*
X503016D01*
X326037Y701040D02*
X408180D01*
X301530Y725547D02*
X326037Y701040D01*
X1389240Y610265D02*
Y614680D01*
X1360590Y581615D02*
X1389240Y610265D01*
X1295040Y581615D02*
X1360590D01*
X1055231Y909254D02*
Y1083414D01*
X1097037Y1125220D02*
X1236980D01*
X1055231Y1083414D02*
X1097037Y1125220D01*
X1004382Y1293514D02*
X1093371Y1204525D01*
X1236980D01*
X1539240Y614680D02*
X1748800D01*
X91220Y243840D02*
Y352618D01*
X185641Y447040D02*
X408180D01*
X91220Y352618D02*
X185641Y447040D01*
X266620Y75500D02*
X427000D01*
X241220Y100900D02*
X266620Y75500D01*
X1236980Y1125220D02*
X1287780D01*
X948180Y828040D02*
X974017D01*
X312851Y574040D02*
X408180D01*
X273590Y613301D02*
X312851Y574040D01*
X1287780Y1125220D02*
X1294560Y1132000D01*
X974017Y828040D02*
X1055231Y909254D01*
X1236980Y1204525D02*
X1287780D01*
X1294560Y1132000D02*
X1486300D01*
X91220Y100900D02*
Y243840D01*
X1295305Y1197000D02*
X1486300D01*
X1287780Y1204525D02*
X1295305Y1197000D01*
D27*
X1348148Y1318142D02*
Y1444192D01*
X1404290Y1262000D02*
X1486300D01*
X1348148Y1318142D02*
X1404290Y1262000D01*
X1313440Y1478900D02*
X1348148Y1444192D01*
X833929Y447040D02*
X948180D01*
X728307Y552663D02*
Y1243478D01*
Y552663D02*
X833929Y447040D01*
X948180D02*
X1114404D01*
X839644Y1354815D02*
X1058149D01*
X728307Y1243478D02*
X839644Y1354815D01*
X1120626Y320040D02*
X1143934Y343348D01*
X1383897D02*
X1401230Y360680D01*
X1143934Y343348D02*
X1383897D01*
X973191Y320040D02*
X1120626D01*
X1401230Y360680D02*
X1748800D01*
X948180Y320040D02*
X973191D01*
X968359Y217814D02*
X995580Y190593D01*
X948180Y320040D02*
X968359Y299861D01*
Y217814D02*
Y299861D01*
X1070609Y1347435D02*
Y1446069D01*
X1058149Y1354815D02*
X1065529Y1347435D01*
X734195Y190593D02*
X858280D01*
X728980Y185377D02*
X734195Y190593D01*
X1070609Y1446069D02*
X1103440Y1478900D01*
X1114404Y447040D02*
X1116444Y449079D01*
%TF.MD5,a381498ca263f04bde1e0b796e63bfbc*%
M02*
