%TF.GenerationSoftware,Altium Limited,Altium Designer,20.1.8 (145)*%
G04 Layer_Color=15790320*
%FSLAX45Y45*%
%MOMM*%
%TF.SameCoordinates,80F20431-A883-4DFF-BABD-8B1F2EDF33A6*%
%TF.FilePolarity,Positive*%
%TF.FileFunction,Legend,Bot*%
%TF.Part,Single*%
G01*
G75*
%TA.AperFunction,NonConductor*%
%ADD28C,0.10000*%
%ADD29C,0.60000*%
%ADD30C,0.25000*%
%ADD31C,0.10160*%
%ADD32C,0.12700*%
D28*
X1068029Y1317483D02*
G03*
X1068029Y1317483I-5000J0D01*
G01*
X671480Y235377D02*
G03*
X671480Y235377I-5000J0D01*
G01*
X1216982Y1127720D02*
G03*
X1216982Y1127720I-5000J0D01*
G01*
X1266978Y1202025D02*
G03*
X1266978Y1202025I-5000J0D01*
G01*
D29*
X625760Y359620D02*
G03*
X625760Y359620I-30000J0D01*
G01*
D30*
X540680Y294540D02*
G03*
X540680Y294540I-12500J0D01*
G01*
D31*
X1461300Y946000D02*
Y966000D01*
X1595566Y849000D02*
X1626300D01*
X1461300Y1297261D02*
Y1317261D01*
X1589039Y1415000D02*
X1626300D01*
X1866300Y849000D02*
Y1415000D01*
X1095289Y1342481D02*
X1107989Y1332321D01*
X1107989Y1355181D01*
X1095289Y1342481D02*
X1107989Y1355181D01*
X1095289Y1342481D02*
X1123229D01*
X71440Y1452841D02*
X96440Y1462840D01*
X71440Y1452841D02*
X108940Y1442840D01*
X71440Y1432840D02*
X108940Y1442840D01*
X71440Y1432840D02*
X108940Y1422840D01*
X91440Y1417840D02*
X108940Y1422840D01*
X1206444Y424079D02*
Y474079D01*
X1181443Y424079D02*
Y474079D01*
X1206444Y449079D02*
X1218943D01*
X1168944D02*
X1181443D01*
X1095626Y230040D02*
X1145626D01*
X1095626Y255040D02*
X1145626D01*
X1120626Y217540D02*
Y230040D01*
Y255040D02*
Y267540D01*
X933080Y210593D02*
X943080Y185593D01*
X923080Y173093D02*
X933080Y210593D01*
X913080D02*
X923080Y173093D01*
X903080D02*
X913080Y210593D01*
X898079Y190593D02*
X903080Y173093D01*
X618980Y222877D02*
X628980Y212877D01*
Y230377D02*
X638980Y220377D01*
X646480Y160377D02*
Y185377D01*
X618980D02*
X646480Y160377D01*
X618980Y185377D02*
X646480Y210377D01*
Y185377D02*
Y210377D01*
Y185377D02*
X678980D01*
X178720Y120900D02*
X188719Y95900D01*
X168720Y83400D02*
X178720Y120900D01*
X158720D02*
X168720Y83400D01*
X148720D02*
X158720Y120900D01*
X143720Y100900D02*
X148720Y83400D01*
X181220Y218840D02*
Y268840D01*
X156219Y218840D02*
Y268840D01*
X181220Y243840D02*
X193719D01*
X143720D02*
X156219D01*
X66440Y1154600D02*
X116440D01*
X66440Y1179600D02*
X116440D01*
X91440Y1142100D02*
Y1154600D01*
Y1179600D02*
Y1192100D01*
X285982Y1346725D02*
Y1396725D01*
X310982Y1346725D02*
Y1396725D01*
X273482Y1371725D02*
X285982D01*
X310982D02*
X323482D01*
X500680Y1264540D02*
X855680D01*
X500680Y264540D02*
X855680D01*
Y1264540D01*
X500680Y264540D02*
Y1264540D01*
X615587Y1391725D02*
X625587Y1366725D01*
X605587Y1354225D02*
X615587Y1391725D01*
X595587D02*
X605587Y1354225D01*
X585587D02*
X595587Y1391725D01*
X580587Y1371725D02*
X585587Y1354225D01*
X1226820Y1082760D02*
X1236980Y1095460D01*
X1226820Y1082760D02*
X1249680Y1082760D01*
X1236980Y1095460D02*
X1249680Y1082760D01*
X1236980Y1067520D02*
Y1095460D01*
Y1234285D02*
X1247140Y1246985D01*
X1224280Y1246985D02*
X1247140Y1246985D01*
X1224280Y1246985D02*
X1236980Y1234285D01*
Y1262225D01*
X1476740Y634680D02*
X1486740Y609680D01*
X1466741Y597180D02*
X1476740Y634680D01*
X1456740D02*
X1466741Y597180D01*
X1446740D02*
X1456740Y634680D01*
X1441740Y614680D02*
X1446740Y597180D01*
D32*
X1812691Y1567172D02*
Y1524852D01*
X1804227Y1516388D01*
X1787299D01*
X1778836Y1524852D01*
Y1567172D01*
X1728052Y1558708D02*
X1736516Y1567172D01*
X1753444D01*
X1761908Y1558708D01*
Y1550244D01*
X1753444Y1541780D01*
X1736516D01*
X1728052Y1533316D01*
Y1524852D01*
X1736516Y1516388D01*
X1753444D01*
X1761908Y1524852D01*
X1711124Y1567172D02*
Y1516388D01*
X1685732D01*
X1677269Y1524852D01*
Y1533316D01*
X1685732Y1541780D01*
X1711124D01*
X1685732D01*
X1677269Y1550244D01*
Y1558708D01*
X1685732Y1567172D01*
X1711124D01*
X1816511Y516596D02*
Y465813D01*
X1791120D01*
X1782656Y474277D01*
Y508133D01*
X1791120Y516596D01*
X1816511D01*
X1765728D02*
Y465813D01*
X1740336D01*
X1731872Y474277D01*
Y482741D01*
X1740336Y491205D01*
X1765728D01*
X1740336D01*
X1731872Y499669D01*
Y508133D01*
X1740336Y516596D01*
X1765728D01*
X1681089Y508133D02*
X1689553Y516596D01*
X1706480D01*
X1714944Y508133D01*
Y474277D01*
X1706480Y465813D01*
X1689553D01*
X1681089Y474277D01*
Y491205D01*
X1698017D01*
X776641Y1163303D02*
Y1214087D01*
X759713Y1197159D01*
X742785Y1214087D01*
Y1163303D01*
X692001Y1205623D02*
X700465Y1214087D01*
X717393D01*
X725857Y1205623D01*
Y1171767D01*
X717393Y1163303D01*
X700465D01*
X692001Y1171767D01*
X675074Y1214087D02*
Y1171767D01*
X666610Y1163303D01*
X649682D01*
X641218Y1171767D01*
Y1214087D01*
X590434Y1163303D02*
X624290D01*
X590434Y1197159D01*
Y1205623D01*
X598898Y1214087D01*
X615826D01*
X624290Y1205623D01*
X1530506Y496407D02*
Y547190D01*
X1505114D01*
X1496651Y538727D01*
Y521799D01*
X1505114Y513335D01*
X1530506D01*
X1513578D02*
X1496651Y496407D01*
X1479723D02*
X1462795D01*
X1471259D01*
Y547190D01*
X1479723Y538727D01*
X1437403D02*
X1428939Y547190D01*
X1412011D01*
X1403547Y538727D01*
Y504871D01*
X1412011Y496407D01*
X1428939D01*
X1437403Y504871D01*
Y538727D01*
X817019Y60968D02*
Y111752D01*
X791628D01*
X783164Y103288D01*
Y86360D01*
X791628Y77896D01*
X817019D01*
X800092D02*
X783164Y60968D01*
X766236Y69432D02*
X757772Y60968D01*
X740844D01*
X732380Y69432D01*
Y103288D01*
X740844Y111752D01*
X757772D01*
X766236Y103288D01*
Y94824D01*
X757772Y86360D01*
X732380D01*
X829196Y1341924D02*
Y1392708D01*
X803805D01*
X795341Y1384244D01*
Y1367316D01*
X803805Y1358852D01*
X829196D01*
X812269D02*
X795341Y1341924D01*
X778413Y1384244D02*
X769949Y1392708D01*
X753021D01*
X744557Y1384244D01*
Y1375780D01*
X753021Y1367316D01*
X744557Y1358852D01*
Y1350388D01*
X753021Y1341924D01*
X769949D01*
X778413Y1350388D01*
Y1358852D01*
X769949Y1367316D01*
X778413Y1375780D01*
Y1384244D01*
X769949Y1367316D02*
X753021D01*
X240892Y1448889D02*
Y1499672D01*
X215500D01*
X207036Y1491208D01*
Y1474281D01*
X215500Y1465816D01*
X240892D01*
X223964D02*
X207036Y1448889D01*
X190108Y1499672D02*
X156253D01*
Y1491208D01*
X190108Y1457353D01*
Y1448889D01*
X392582Y150322D02*
Y201106D01*
X367191D01*
X358727Y192642D01*
Y175714D01*
X367191Y167250D01*
X392582D01*
X375655D02*
X358727Y150322D01*
X307943Y201106D02*
X324871Y192642D01*
X341799Y175714D01*
Y158786D01*
X333335Y150322D01*
X316407D01*
X307943Y158786D01*
Y167250D01*
X316407Y175714D01*
X341799D01*
X1321239Y1385376D02*
X1355094D01*
Y1359985D01*
X1338166D01*
X1355094D01*
Y1334593D01*
X1270455D02*
X1304311D01*
X1270455Y1368448D01*
Y1376912D01*
X1278919Y1385376D01*
X1295847D01*
X1304311Y1376912D01*
X1130306Y1297691D02*
Y1246908D01*
X1104914D01*
X1096451Y1255372D01*
Y1289228D01*
X1104914Y1297691D01*
X1130306D01*
X1079523Y1289228D02*
X1071059Y1297691D01*
X1054131D01*
X1045667Y1289228D01*
Y1280764D01*
X1054131Y1272300D01*
X1045667Y1263836D01*
Y1255372D01*
X1054131Y1246908D01*
X1071059D01*
X1079523Y1255372D01*
Y1263836D01*
X1071059Y1272300D01*
X1079523Y1280764D01*
Y1289228D01*
X1071059Y1272300D02*
X1054131D01*
X1361694Y1256938D02*
Y1206154D01*
X1336302D01*
X1327839Y1214618D01*
Y1248474D01*
X1336302Y1256938D01*
X1361694D01*
X1310911D02*
X1277055D01*
Y1248474D01*
X1310911Y1214618D01*
Y1206154D01*
X1359483Y1107073D02*
Y1056290D01*
X1334092D01*
X1325628Y1064754D01*
Y1098610D01*
X1334092Y1107073D01*
X1359483D01*
X1274844D02*
X1291772Y1098610D01*
X1308700Y1081682D01*
Y1064754D01*
X1300236Y1056290D01*
X1283308D01*
X1274844Y1064754D01*
Y1073218D01*
X1283308Y1081682D01*
X1308700D01*
X690019Y114359D02*
Y63575D01*
X664628D01*
X656164Y72039D01*
Y105895D01*
X664628Y114359D01*
X690019D01*
X605380D02*
X639236D01*
Y88967D01*
X622308Y97431D01*
X613844D01*
X605380Y88967D01*
Y72039D01*
X613844Y63575D01*
X630772D01*
X639236Y72039D01*
X182448Y355597D02*
X190912Y364060D01*
X207840D01*
X216304Y355597D01*
Y321741D01*
X207840Y313277D01*
X190912D01*
X182448Y321741D01*
X165520Y313277D02*
X148592D01*
X157056D01*
Y364060D01*
X165520Y355597D01*
X123200D02*
X114736Y364060D01*
X97809D01*
X89345Y355597D01*
Y321741D01*
X97809Y313277D01*
X114736D01*
X123200Y321741D01*
Y355597D01*
X216744Y1180248D02*
X225208Y1188712D01*
X242135D01*
X250599Y1180248D01*
Y1146392D01*
X242135Y1137928D01*
X225208D01*
X216744Y1146392D01*
X199816D02*
X191352Y1137928D01*
X174424D01*
X165960Y1146392D01*
Y1180248D01*
X174424Y1188712D01*
X191352D01*
X199816Y1180248D01*
Y1171784D01*
X191352Y1163320D01*
X165960D01*
X311188Y1293454D02*
X319652Y1301918D01*
X336580D01*
X345044Y1293454D01*
Y1259598D01*
X336580Y1251134D01*
X319652D01*
X311188Y1259598D01*
X294261Y1293454D02*
X285796Y1301918D01*
X268869D01*
X260405Y1293454D01*
Y1284990D01*
X268869Y1276526D01*
X260405Y1268062D01*
Y1259598D01*
X268869Y1251134D01*
X285796D01*
X294261Y1259598D01*
Y1268062D01*
X285796Y1276526D01*
X294261Y1284990D01*
Y1293454D01*
X285796Y1276526D02*
X268869D01*
X1195909Y558244D02*
X1204373Y566708D01*
X1221301D01*
X1229765Y558244D01*
Y524388D01*
X1221301Y515924D01*
X1204373D01*
X1195909Y524388D01*
X1178981Y566708D02*
X1145125D01*
Y558244D01*
X1178981Y524388D01*
Y515924D01*
X1241169Y258327D02*
X1249633Y266791D01*
X1266561D01*
X1275025Y258327D01*
Y224471D01*
X1266561Y216007D01*
X1249633D01*
X1241169Y224471D01*
X1190385Y266791D02*
X1207313Y258327D01*
X1224241Y241399D01*
Y224471D01*
X1215777Y216007D01*
X1198849D01*
X1190385Y224471D01*
Y232935D01*
X1198849Y241399D01*
X1224241D01*
%TF.MD5,a5fbb4f3b5581bb3d0a4853bc91532ff*%
M02*
