%TF.GenerationSoftware,Altium Limited,Altium Designer,20.1.8 (145)*%
G04 Layer_Physical_Order=1*
G04 Layer_Color=255*
%FSLAX44Y44*%
%MOMM*%
%TF.SameCoordinates,BF84AABB-580B-4B44-99C5-09E2CFC6D698*%
%TF.FilePolarity,Positive*%
%TF.FileFunction,Copper,L1,Top,Signal*%
%TF.Part,Single*%
G01*
G75*
%TA.AperFunction,Conductor*%
%ADD10C,0.1270*%
%TA.AperFunction,SMDPad,CuDef*%
G04:AMPARAMS|DCode=11|XSize=0.3mm|YSize=1.45mm|CornerRadius=0mm|HoleSize=0mm|Usage=FLASHONLY|Rotation=315.000|XOffset=0mm|YOffset=0mm|HoleType=Round|Shape=Round|*
%AMOVALD11*
21,1,1.1500,0.3000,0.0000,0.0000,45.0*
1,1,0.3000,-0.4066,-0.4066*
1,1,0.3000,0.4066,0.4066*
%
%ADD11OVALD11*%

G04:AMPARAMS|DCode=12|XSize=0.3mm|YSize=1.45mm|CornerRadius=0mm|HoleSize=0mm|Usage=FLASHONLY|Rotation=225.000|XOffset=0mm|YOffset=0mm|HoleType=Round|Shape=Round|*
%AMOVALD12*
21,1,1.1500,0.3000,0.0000,0.0000,315.0*
1,1,0.3000,-0.4066,0.4066*
1,1,0.3000,0.4066,-0.4066*
%
%ADD12OVALD12*%

G04:AMPARAMS|DCode=13|XSize=1mm|YSize=2.15mm|CornerRadius=0.005mm|HoleSize=0mm|Usage=FLASHONLY|Rotation=270.000|XOffset=0mm|YOffset=0mm|HoleType=Round|Shape=RoundedRectangle|*
%AMROUNDEDRECTD13*
21,1,1.0000,2.1400,0,0,270.0*
21,1,0.9900,2.1500,0,0,270.0*
1,1,0.0100,-1.0700,-0.4950*
1,1,0.0100,-1.0700,0.4950*
1,1,0.0100,1.0700,0.4950*
1,1,0.0100,1.0700,-0.4950*
%
%ADD13ROUNDEDRECTD13*%
G04:AMPARAMS|DCode=14|XSize=3.25mm|YSize=2.15mm|CornerRadius=0.0108mm|HoleSize=0mm|Usage=FLASHONLY|Rotation=270.000|XOffset=0mm|YOffset=0mm|HoleType=Round|Shape=RoundedRectangle|*
%AMROUNDEDRECTD14*
21,1,3.2500,2.1285,0,0,270.0*
21,1,3.2285,2.1500,0,0,270.0*
1,1,0.0215,-1.0642,-1.6143*
1,1,0.0215,-1.0642,1.6143*
1,1,0.0215,1.0642,1.6143*
1,1,0.0215,1.0642,-1.6143*
%
%ADD14ROUNDEDRECTD14*%
G04:AMPARAMS|DCode=15|XSize=0.8mm|YSize=0.7mm|CornerRadius=0.0035mm|HoleSize=0mm|Usage=FLASHONLY|Rotation=270.000|XOffset=0mm|YOffset=0mm|HoleType=Round|Shape=RoundedRectangle|*
%AMROUNDEDRECTD15*
21,1,0.8000,0.6930,0,0,270.0*
21,1,0.7930,0.7000,0,0,270.0*
1,1,0.0070,-0.3465,-0.3965*
1,1,0.0070,-0.3465,0.3965*
1,1,0.0070,0.3465,0.3965*
1,1,0.0070,0.3465,-0.3965*
%
%ADD15ROUNDEDRECTD15*%
G04:AMPARAMS|DCode=16|XSize=0.8mm|YSize=0.7mm|CornerRadius=0.0035mm|HoleSize=0mm|Usage=FLASHONLY|Rotation=0.000|XOffset=0mm|YOffset=0mm|HoleType=Round|Shape=RoundedRectangle|*
%AMROUNDEDRECTD16*
21,1,0.8000,0.6930,0,0,0.0*
21,1,0.7930,0.7000,0,0,0.0*
1,1,0.0070,0.3965,-0.3465*
1,1,0.0070,-0.3965,-0.3465*
1,1,0.0070,-0.3965,0.3465*
1,1,0.0070,0.3965,0.3465*
%
%ADD16ROUNDEDRECTD16*%
G04:AMPARAMS|DCode=17|XSize=4.5mm|YSize=1.3mm|CornerRadius=0.1625mm|HoleSize=0mm|Usage=FLASHONLY|Rotation=135.000|XOffset=0mm|YOffset=0mm|HoleType=Round|Shape=RoundedRectangle|*
%AMROUNDEDRECTD17*
21,1,4.5000,0.9750,0,0,135.0*
21,1,4.1750,1.3000,0,0,135.0*
1,1,0.3250,-1.1314,1.8208*
1,1,0.3250,1.8208,-1.1314*
1,1,0.3250,1.1314,-1.8208*
1,1,0.3250,-1.8208,1.1314*
%
%ADD17ROUNDEDRECTD17*%
G04:AMPARAMS|DCode=18|XSize=0.85mm|YSize=0.65mm|CornerRadius=0.0033mm|HoleSize=0mm|Usage=FLASHONLY|Rotation=90.000|XOffset=0mm|YOffset=0mm|HoleType=Round|Shape=RoundedRectangle|*
%AMROUNDEDRECTD18*
21,1,0.8500,0.6435,0,0,90.0*
21,1,0.8435,0.6500,0,0,90.0*
1,1,0.0065,0.3218,0.4218*
1,1,0.0065,0.3218,-0.4218*
1,1,0.0065,-0.3218,-0.4218*
1,1,0.0065,-0.3218,0.4218*
%
%ADD18ROUNDEDRECTD18*%
G04:AMPARAMS|DCode=19|XSize=0.85mm|YSize=0.65mm|CornerRadius=0.0033mm|HoleSize=0mm|Usage=FLASHONLY|Rotation=0.000|XOffset=0mm|YOffset=0mm|HoleType=Round|Shape=RoundedRectangle|*
%AMROUNDEDRECTD19*
21,1,0.8500,0.6435,0,0,0.0*
21,1,0.8435,0.6500,0,0,0.0*
1,1,0.0065,0.4218,-0.3218*
1,1,0.0065,-0.4218,-0.3218*
1,1,0.0065,-0.4218,0.3218*
1,1,0.0065,0.4218,0.3218*
%
%ADD19ROUNDEDRECTD19*%
G04:AMPARAMS|DCode=20|XSize=0.85mm|YSize=0.65mm|CornerRadius=0.0033mm|HoleSize=0mm|Usage=FLASHONLY|Rotation=45.000|XOffset=0mm|YOffset=0mm|HoleType=Round|Shape=RoundedRectangle|*
%AMROUNDEDRECTD20*
21,1,0.8500,0.6435,0,0,45.0*
21,1,0.8435,0.6500,0,0,45.0*
1,1,0.0065,0.5257,0.0707*
1,1,0.0065,-0.0707,-0.5257*
1,1,0.0065,-0.5257,-0.0707*
1,1,0.0065,0.0707,0.5257*
%
%ADD20ROUNDEDRECTD20*%
G04:AMPARAMS|DCode=21|XSize=1.65mm|YSize=1.05mm|CornerRadius=0.0053mm|HoleSize=0mm|Usage=FLASHONLY|Rotation=90.000|XOffset=0mm|YOffset=0mm|HoleType=Round|Shape=RoundedRectangle|*
%AMROUNDEDRECTD21*
21,1,1.6500,1.0395,0,0,90.0*
21,1,1.6395,1.0500,0,0,90.0*
1,1,0.0105,0.5198,0.8198*
1,1,0.0105,0.5198,-0.8198*
1,1,0.0105,-0.5198,-0.8198*
1,1,0.0105,-0.5198,0.8198*
%
%ADD21ROUNDEDRECTD21*%
%ADD22R,1.1000X0.4000*%
%TA.AperFunction,Conductor*%
%ADD23C,0.5080*%
%ADD24C,0.2540*%
%ADD25C,0.4630*%
%ADD26C,0.1524*%
%ADD27C,0.2000*%
%ADD28C,0.3000*%
%ADD29C,0.3048*%
%TA.AperFunction,ComponentPad*%
%ADD30O,1.8000X0.9000*%
%ADD31O,2.1000X0.9000*%
%ADD32C,1.8000*%
%ADD33O,3.0000X4.5000*%
G04:AMPARAMS|DCode=34|XSize=3mm|YSize=4.5mm|CornerRadius=1.5mm|HoleSize=0mm|Usage=FLASHONLY|Rotation=180.000|XOffset=0mm|YOffset=0mm|HoleType=Round|Shape=RoundedRectangle|*
%AMROUNDEDRECTD34*
21,1,3.0000,1.5000,0,0,180.0*
21,1,0.0000,4.5000,0,0,180.0*
1,1,3.0000,0.0000,0.7500*
1,1,3.0000,0.0000,0.7500*
1,1,3.0000,0.0000,-0.7500*
1,1,3.0000,0.0000,-0.7500*
%
%ADD34ROUNDEDRECTD34*%
G04:AMPARAMS|DCode=35|XSize=1.3mm|YSize=1.3mm|CornerRadius=0.65mm|HoleSize=0mm|Usage=FLASHONLY|Rotation=180.000|XOffset=0mm|YOffset=0mm|HoleType=Round|Shape=RoundedRectangle|*
%AMROUNDEDRECTD35*
21,1,1.3000,0.0000,0,0,180.0*
21,1,0.0000,1.3000,0,0,180.0*
1,1,1.3000,0.0000,0.0000*
1,1,1.3000,0.0000,0.0000*
1,1,1.3000,0.0000,0.0000*
1,1,1.3000,0.0000,0.0000*
%
%ADD35ROUNDEDRECTD35*%
G04:AMPARAMS|DCode=36|XSize=1.3mm|YSize=1.3mm|CornerRadius=0.065mm|HoleSize=0mm|Usage=FLASHONLY|Rotation=180.000|XOffset=0mm|YOffset=0mm|HoleType=Round|Shape=RoundedRectangle|*
%AMROUNDEDRECTD36*
21,1,1.3000,1.1700,0,0,180.0*
21,1,1.1700,1.3000,0,0,180.0*
1,1,0.1300,-0.5850,0.5850*
1,1,0.1300,0.5850,0.5850*
1,1,0.1300,0.5850,-0.5850*
1,1,0.1300,-0.5850,-0.5850*
%
%ADD36ROUNDEDRECTD36*%
%TA.AperFunction,WasherPad*%
%ADD37C,2.0000*%
%TA.AperFunction,ViaPad*%
%ADD38C,1.0000*%
%ADD39C,0.8000*%
%ADD40C,0.8000*%
G36*
X10130000Y10148182D02*
X10133547Y10147833D01*
X10136958Y10146799D01*
X10140102Y10145118D01*
X10142857Y10142857D01*
X10145118Y10140102D01*
X10146799Y10136958D01*
X10147833Y10133547D01*
X10148182Y10130000D01*
X10148187D01*
Y9870000D01*
X10148182D01*
X10147833Y9866453D01*
X10146799Y9863042D01*
X10145118Y9859898D01*
X10142857Y9857143D01*
X10140102Y9854882D01*
X10136958Y9853201D01*
X10133547Y9852167D01*
X10130000Y9851818D01*
Y9851813D01*
X10091674D01*
X10091187Y9852986D01*
X10097627Y9859426D01*
X10098048Y9860056D01*
X10098196Y9860800D01*
X10098196Y9860800D01*
Y9870648D01*
X10099315Y9871325D01*
X10101631Y9869009D01*
X10102547Y9868397D01*
X10103627Y9868182D01*
X10104708Y9868397D01*
X10105625Y9869009D01*
X10106237Y9869926D01*
X10106367Y9870581D01*
X10106870Y9871299D01*
X10107589Y9871802D01*
X10108244Y9871932D01*
X10109160Y9872545D01*
X10109772Y9873461D01*
X10109903Y9874116D01*
X10110406Y9874835D01*
X10111124Y9875338D01*
X10111780Y9875468D01*
X10112696Y9876080D01*
X10113308Y9876996D01*
X10113438Y9877652D01*
X10113941Y9878370D01*
X10114659Y9878873D01*
X10115315Y9879003D01*
X10116231Y9879616D01*
X10116843Y9880532D01*
X10116974Y9881188D01*
X10117477Y9881906D01*
X10118195Y9882409D01*
X10118851Y9882539D01*
X10119767Y9883151D01*
X10120379Y9884067D01*
X10120510Y9884723D01*
X10121013Y9885441D01*
X10121731Y9885944D01*
X10122386Y9886075D01*
X10123303Y9886687D01*
X10123915Y9887603D01*
X10124045Y9888259D01*
X10124548Y9888977D01*
X10125266Y9889480D01*
X10125922Y9889610D01*
X10126838Y9890222D01*
X10127450Y9891139D01*
X10127581Y9891794D01*
X10128083Y9892512D01*
X10128802Y9893015D01*
X10129457Y9893146D01*
X10129512Y9893183D01*
X10123593Y9899103D01*
X10117672Y9905023D01*
X10117635Y9904968D01*
X10117505Y9904312D01*
X10117002Y9903594D01*
X10116284Y9903091D01*
X10115628Y9902960D01*
X10114712Y9902348D01*
X10114100Y9901432D01*
X10113970Y9900776D01*
X10113467Y9900059D01*
X10112748Y9899556D01*
X10112093Y9899425D01*
X10111177Y9898813D01*
X10110565Y9897897D01*
X10110434Y9897241D01*
X10109931Y9896523D01*
X10109213Y9896020D01*
X10108557Y9895889D01*
X10107641Y9895277D01*
X10107029Y9894361D01*
X10106898Y9893705D01*
X10106395Y9892987D01*
X10105677Y9892484D01*
X10105022Y9892354D01*
X10104105Y9891742D01*
X10103493Y9890825D01*
X10103363Y9890170D01*
X10102860Y9889452D01*
X10102142Y9888949D01*
X10101486Y9888818D01*
X10100570Y9888206D01*
X10099958Y9887290D01*
X10099827Y9886635D01*
X10099324Y9885916D01*
X10098606Y9885413D01*
X10097950Y9885283D01*
X10097034Y9884670D01*
X10096422Y9883754D01*
X10096292Y9883099D01*
X10095789Y9882380D01*
X10095071Y9881877D01*
X10094415Y9881747D01*
X10093499Y9881135D01*
X10092886Y9880219D01*
X10092672Y9879138D01*
X10092886Y9878057D01*
X10093499Y9877141D01*
X10096191Y9874448D01*
X10094880Y9873137D01*
X10094459Y9872507D01*
X10094312Y9871764D01*
Y9861604D01*
X10087063Y9854355D01*
X10079659D01*
X10079173Y9855529D01*
X10090623Y9866979D01*
X10091044Y9867609D01*
X10091192Y9868353D01*
Y9895343D01*
X10091044Y9896086D01*
X10090623Y9896716D01*
X10085063Y9902277D01*
X10084434Y9902697D01*
X10083690Y9902845D01*
X10069178D01*
X10068434Y9902697D01*
X10067804Y9902277D01*
X10065623Y9900095D01*
X10065049Y9900213D01*
X10064473Y9900522D01*
X10064294Y9900776D01*
X10064164Y9901432D01*
X10063552Y9902348D01*
X10062635Y9902960D01*
X10061980Y9903091D01*
X10061262Y9903594D01*
X10060759Y9904312D01*
X10060629Y9904968D01*
X10060016Y9905884D01*
X10059100Y9906496D01*
X10058445Y9906627D01*
X10057726Y9907130D01*
X10057224Y9907848D01*
X10057093Y9908503D01*
X10056481Y9909420D01*
X10055565Y9910032D01*
X10054909Y9910162D01*
X10054191Y9910665D01*
X10053688Y9911383D01*
X10053558Y9912039D01*
X10052946Y9912955D01*
X10052029Y9913567D01*
X10051373Y9913698D01*
X10050656Y9914200D01*
X10050153Y9914919D01*
X10050022Y9915574D01*
X10049410Y9916490D01*
X10048494Y9917103D01*
X10047838Y9917233D01*
X10047120Y9917736D01*
X10046617Y9918454D01*
X10046486Y9919109D01*
X10045874Y9920026D01*
X10044958Y9920638D01*
X10043877Y9920853D01*
X10042796Y9920638D01*
X10041880Y9920026D01*
X10033748Y9911894D01*
X10033136Y9910978D01*
X10032921Y9909897D01*
X10033136Y9908817D01*
X10033748Y9907900D01*
X10034664Y9907288D01*
X10035320Y9907158D01*
X10036038Y9906655D01*
X10036541Y9905936D01*
X10036672Y9905281D01*
X10037284Y9904365D01*
X10038200Y9903752D01*
X10038856Y9903622D01*
X10039574Y9903119D01*
X10040077Y9902401D01*
X10040207Y9901745D01*
X10040820Y9900829D01*
X10041736Y9900217D01*
X10042391Y9900087D01*
X10043109Y9899584D01*
X10043612Y9898865D01*
X10043743Y9898210D01*
X10044355Y9897294D01*
X10045271Y9896682D01*
X10045927Y9896551D01*
X10046645Y9896048D01*
X10047148Y9895330D01*
X10047278Y9894674D01*
X10047891Y9893758D01*
X10048807Y9893146D01*
X10049462Y9893015D01*
X10050181Y9892512D01*
X10050684Y9891794D01*
X10050814Y9891139D01*
X10051426Y9890222D01*
X10052343Y9889610D01*
X10052997Y9889480D01*
X10053716Y9888977D01*
X10054219Y9888259D01*
X10054349Y9887603D01*
X10054962Y9886687D01*
X10055878Y9886075D01*
X10056205Y9886010D01*
X10056080Y9884739D01*
X10050106D01*
X10029853Y9904993D01*
X10029102Y9905495D01*
X10028216Y9905671D01*
X10025588D01*
Y9907321D01*
X10025174Y9908320D01*
X10024175Y9908734D01*
X10017245D01*
X10016246Y9908320D01*
X10015833Y9907321D01*
Y9899391D01*
X10016246Y9898392D01*
X10017245Y9897979D01*
X10024175D01*
X10025174Y9898392D01*
X10025588Y9899391D01*
Y9901042D01*
X10027258D01*
X10034062Y9894238D01*
X10033575Y9893065D01*
X10025588D01*
Y9894715D01*
X10025174Y9895714D01*
X10024175Y9896127D01*
X10017245D01*
X10016246Y9895714D01*
X10015833Y9894715D01*
Y9886785D01*
X10016246Y9885786D01*
X10017245Y9885372D01*
X10024175D01*
X10025174Y9885786D01*
X10025588Y9886785D01*
Y9888436D01*
X10035239D01*
X10046157Y9877518D01*
X10046907Y9877017D01*
X10047793Y9876840D01*
X10061196D01*
X10061763Y9875999D01*
X10061854Y9875602D01*
X10061438Y9875048D01*
X10046321D01*
X10043034Y9878334D01*
X10042404Y9878755D01*
X10041660Y9878903D01*
X10028461D01*
X10027718Y9878755D01*
X10027087Y9878334D01*
X10024026Y9875273D01*
X10023605Y9874644D01*
X10023458Y9873900D01*
Y9872550D01*
X10019550D01*
X10018801Y9872401D01*
X10018166Y9871976D01*
X10017742Y9871342D01*
X10017592Y9870592D01*
Y9858892D01*
X10017645Y9858631D01*
X10016810Y9857426D01*
X10015917Y9857330D01*
X10014272Y9858975D01*
Y9873900D01*
X10014124Y9874644D01*
X10013703Y9875273D01*
X10013702Y9875273D01*
X10010853Y9878123D01*
X10010223Y9878544D01*
X10009479Y9878692D01*
X9993627D01*
Y9879965D01*
X9993214Y9880964D01*
X9992215Y9881378D01*
X9984285D01*
X9983286Y9880964D01*
X9982872Y9879965D01*
Y9873035D01*
X9983286Y9872036D01*
X9984285Y9871622D01*
X9992215D01*
X9993214Y9872036D01*
X9993627Y9873035D01*
Y9874808D01*
X10008675D01*
X10010387Y9873096D01*
Y9858171D01*
X10010535Y9857427D01*
X10010956Y9856797D01*
X10012225Y9855529D01*
X10011738Y9854355D01*
X10003050D01*
X10001942Y9855463D01*
Y9857161D01*
X10002028Y9857172D01*
X10003918Y9857955D01*
X10005541Y9859200D01*
X10006787Y9860824D01*
X10007570Y9862714D01*
X10007837Y9864742D01*
X10007570Y9866771D01*
X10006787Y9868661D01*
X10005541Y9870284D01*
X10003918Y9871530D01*
X10002028Y9872312D01*
X10000000Y9872579D01*
X9997972Y9872312D01*
X9996082Y9871530D01*
X9994459Y9870284D01*
X9993213Y9868661D01*
X9992430Y9866771D01*
X9992163Y9864742D01*
X9992430Y9862714D01*
X9993213Y9860824D01*
X9994459Y9859200D01*
X9996082Y9857955D01*
X9997972Y9857172D01*
X9998058Y9857161D01*
Y9854658D01*
X9998206Y9853915D01*
X9998627Y9853285D01*
X9998925Y9852986D01*
X9998439Y9851813D01*
X9871270D01*
X9870000Y9851818D01*
X9870000Y9851818D01*
X9870000Y9851818D01*
X9866453Y9852167D01*
X9863042Y9853201D01*
X9859898Y9854882D01*
X9857143Y9857143D01*
X9854882Y9859898D01*
X9853201Y9863042D01*
X9852167Y9866453D01*
X9851818Y9870000D01*
X9851813D01*
Y9887488D01*
X9901580D01*
X9901580Y9887488D01*
X9902636Y9887652D01*
X9902773Y9887679D01*
X9904033Y9887845D01*
X9906319Y9888792D01*
X9907328Y9889566D01*
X9907443Y9889643D01*
X9907459Y9889667D01*
X9907651Y9889814D01*
X9907652Y9889814D01*
X9907653Y9889816D01*
X9908282Y9890298D01*
X9908765Y9890927D01*
X9908766Y9890928D01*
X9908766Y9890930D01*
X9908914Y9891121D01*
X9908937Y9891136D01*
X9909014Y9891252D01*
X9909788Y9892261D01*
X9910735Y9894547D01*
X9910901Y9895807D01*
X9910928Y9895944D01*
X9911092Y9897000D01*
X9911092Y9898267D01*
Y9958259D01*
X9912238Y9958734D01*
X9913135Y9957899D01*
X9912857Y9956500D01*
X9913344Y9954053D01*
X9914730Y9951979D01*
X9916804Y9950594D01*
X9919250Y9950107D01*
X9921696Y9950594D01*
X9923770Y9951979D01*
X9925156Y9954053D01*
X9925643Y9956500D01*
X9925156Y9958947D01*
X9923770Y9961021D01*
X9921696Y9962406D01*
X9919250Y9962893D01*
X9916804Y9962406D01*
X9915264Y9961378D01*
X9913741Y9962899D01*
X9913066Y9963658D01*
X9912972Y9963884D01*
X9912972Y9963884D01*
X9912939Y9963890D01*
X9912591Y9964610D01*
X9912007Y9966020D01*
X9910093Y9968514D01*
X9907600Y9970427D01*
X9904696Y9971630D01*
X9904324Y9971679D01*
X9903132Y9971846D01*
X9902170Y9972597D01*
X9900443Y9974325D01*
Y10001527D01*
X9901718D01*
X9902714Y10001940D01*
X9903127Y10002937D01*
Y10011372D01*
X9902714Y10012369D01*
X9901718Y10012782D01*
X9900443D01*
Y10015693D01*
X9901965D01*
X9902964Y10016107D01*
X9903378Y10017106D01*
Y10025035D01*
X9902964Y10026035D01*
X9901965Y10026448D01*
X9900443D01*
Y10038759D01*
X9910991Y10049308D01*
X9949250D01*
X9949993Y10049456D01*
X9950623Y10049877D01*
X9958116Y10057369D01*
X9958116Y10057369D01*
X9958537Y10057999D01*
X9958685Y10058742D01*
Y10090230D01*
X9983303Y10114849D01*
X10009761D01*
X10048293Y10076316D01*
Y10055716D01*
X10048441Y10054973D01*
X10048862Y10054343D01*
X10115277Y9987928D01*
Y9981965D01*
X10115425Y9981221D01*
X10115846Y9980591D01*
X10121993Y9974444D01*
Y9964697D01*
X10121586Y9964369D01*
X10120379Y9964718D01*
X10120342Y9964773D01*
X10114422Y9958853D01*
X10108502Y9952933D01*
X10108557Y9952896D01*
X10109213Y9952766D01*
X10109931Y9952263D01*
X10110434Y9951545D01*
X10110565Y9950889D01*
X10111177Y9949973D01*
X10112093Y9949361D01*
X10112748Y9949230D01*
X10113467Y9948727D01*
X10113970Y9948009D01*
X10114100Y9947354D01*
X10114712Y9946437D01*
X10115628Y9945825D01*
X10116284Y9945695D01*
X10117002Y9945192D01*
X10117505Y9944474D01*
X10117635Y9943818D01*
X10118248Y9942902D01*
X10119164Y9942289D01*
X10119819Y9942159D01*
X10120538Y9941656D01*
X10121041Y9940938D01*
X10121171Y9940283D01*
X10121783Y9939366D01*
X10122700Y9938754D01*
X10123355Y9938624D01*
X10124073Y9938121D01*
X10124576Y9937402D01*
X10124706Y9936747D01*
X10125319Y9935831D01*
X10126235Y9935219D01*
X10126890Y9935089D01*
X10127609Y9934586D01*
X10128112Y9933867D01*
X10128242Y9933212D01*
X10128854Y9932296D01*
X10128916Y9932254D01*
X10128531Y9930984D01*
X10106082D01*
X10105126Y9931940D01*
X10105579Y9934218D01*
X10105092Y9936664D01*
X10103706Y9938738D01*
X10101632Y9940124D01*
X10101252Y9940200D01*
Y9951261D01*
X10105598Y9955606D01*
X10105798Y9955590D01*
X10106880Y9955112D01*
X10106898Y9955080D01*
X10107029Y9954424D01*
X10107065Y9954370D01*
X10112985Y9960290D01*
X10118906Y9966210D01*
X10118851Y9966246D01*
X10118195Y9966377D01*
X10117477Y9966880D01*
X10116974Y9967598D01*
X10116843Y9968254D01*
X10116231Y9969170D01*
X10115315Y9969782D01*
X10114659Y9969913D01*
X10113941Y9970416D01*
X10113438Y9971133D01*
X10113308Y9971789D01*
X10112696Y9972706D01*
X10111780Y9973318D01*
X10111124Y9973448D01*
X10110869Y9973627D01*
X10110561Y9974203D01*
X10110443Y9974777D01*
X10112241Y9976574D01*
X10112662Y9977205D01*
X10112809Y9977948D01*
Y9985468D01*
X10112662Y9986212D01*
X10112241Y9986841D01*
X10043167Y10055915D01*
Y10075905D01*
X10043168Y10075905D01*
X10043019Y10076648D01*
X10042599Y10077278D01*
X10042598Y10077278D01*
X10010780Y10109097D01*
X10010150Y10109518D01*
X10009406Y10109666D01*
X9996737D01*
X9996714Y10109780D01*
X9995549Y10111523D01*
X9993806Y10112688D01*
X9991750Y10113097D01*
X9989694Y10112688D01*
X9987950Y10111523D01*
X9986786Y10109780D01*
X9986377Y10107724D01*
X9986786Y10105667D01*
X9987950Y10103924D01*
X9989694Y10102759D01*
X9991750Y10102350D01*
X9993806Y10102759D01*
X9995549Y10103924D01*
X9996714Y10105667D01*
X9996737Y10105781D01*
X10008602D01*
X10039283Y10075100D01*
Y10055110D01*
X10039431Y10054367D01*
X10039852Y10053737D01*
X10108925Y9984664D01*
Y9978752D01*
X10107696Y9977524D01*
X10107122Y9977642D01*
X10106546Y9977950D01*
X10106367Y9978205D01*
X10106237Y9978860D01*
X10105625Y9979777D01*
X10104708Y9980389D01*
X10103627Y9980604D01*
X10102547Y9980389D01*
X10101631Y9979777D01*
X10093499Y9971645D01*
X10092886Y9970729D01*
X10092672Y9969648D01*
X10092886Y9968567D01*
X10093499Y9967651D01*
X10094415Y9967039D01*
X10095071Y9966908D01*
X10095789Y9966405D01*
X10096292Y9965687D01*
X10096422Y9965031D01*
X10097034Y9964115D01*
X10097950Y9963503D01*
X10098606Y9963373D01*
X10099324Y9962869D01*
X10099827Y9962151D01*
X10099958Y9961496D01*
X10100570Y9960579D01*
X10101486Y9959967D01*
X10102142Y9959837D01*
X10102173Y9959819D01*
X10102651Y9958737D01*
X10102667Y9958536D01*
X10097716Y9953585D01*
X10097267Y9952912D01*
X10097109Y9952119D01*
X10097109Y9952119D01*
Y9940197D01*
X10096740Y9940124D01*
X10094665Y9938738D01*
X10093279Y9936664D01*
X10092793Y9934218D01*
X10093246Y9931940D01*
X10087956Y9926651D01*
X10051646D01*
X10048005Y9930291D01*
X10048423Y9931669D01*
X10048494Y9931683D01*
X10048549Y9931720D01*
X10042629Y9937640D01*
X10036708Y9943560D01*
X10036672Y9943505D01*
X10036658Y9943435D01*
X10035280Y9943017D01*
X10030537Y9947759D01*
Y9949066D01*
X10030627Y9949283D01*
Y9955718D01*
X10030214Y9956715D01*
X10029218Y9957128D01*
X10020782D01*
X10019786Y9956715D01*
X10019373Y9955718D01*
Y9949283D01*
X10019786Y9948286D01*
X10020782Y9947873D01*
X10025358D01*
Y9946686D01*
X10025555Y9945695D01*
X10026116Y9944855D01*
X10033129Y9937842D01*
X10033136Y9937808D01*
X10033748Y9936891D01*
X10041880Y9928760D01*
X10042796Y9928148D01*
X10042831Y9928141D01*
X10048742Y9922230D01*
X10049582Y9921669D01*
X10050573Y9921471D01*
X10089029D01*
X10090020Y9921669D01*
X10090860Y9922230D01*
X10096909Y9928278D01*
X10099186Y9927825D01*
X10101463Y9928278D01*
X10103178Y9926563D01*
X10104018Y9926002D01*
X10105009Y9925804D01*
X10132024D01*
X10133015Y9926002D01*
X10133856Y9926563D01*
X10135433Y9928141D01*
X10135468Y9928148D01*
X10136384Y9928760D01*
X10144515Y9936891D01*
X10145128Y9937808D01*
X10145135Y9937842D01*
X10145581Y9938289D01*
X10146143Y9939129D01*
X10146340Y9940120D01*
Y9953522D01*
X10146627Y9954217D01*
Y9960652D01*
X10146215Y9961649D01*
X10145217Y9962062D01*
X10136782D01*
X10135786Y9961649D01*
X10135373Y9960652D01*
Y9954217D01*
X10135786Y9953220D01*
X10136782Y9952807D01*
X10141160D01*
Y9945828D01*
X10140340Y9945234D01*
X10139890Y9945068D01*
X10139409Y9945164D01*
X10138690Y9945667D01*
X10138187Y9946385D01*
X10138057Y9947040D01*
X10137444Y9947957D01*
X10136528Y9948569D01*
X10135873Y9948699D01*
X10135154Y9949202D01*
X10134651Y9949921D01*
X10134521Y9950576D01*
X10133909Y9951492D01*
X10132993Y9952104D01*
X10132337Y9952234D01*
X10132043Y9952441D01*
X10131763Y9952853D01*
X10131570Y9953547D01*
X10131854Y9953971D01*
X10132002Y9954714D01*
Y9957388D01*
X10133038Y9958424D01*
X10133459Y9959054D01*
X10133607Y9959797D01*
Y9978736D01*
X10133459Y9979479D01*
X10133038Y9980110D01*
X10126989Y9986158D01*
Y9994010D01*
X10126841Y9994753D01*
X10126420Y9995383D01*
X10073310Y10048493D01*
Y10061542D01*
X10080151Y10068383D01*
X10083870D01*
X10091625Y10060628D01*
X10091625Y10060628D01*
X10096241Y10056012D01*
X10094042Y10053813D01*
X10093403Y10052856D01*
X10093178Y10051726D01*
X10093403Y10050596D01*
X10094042Y10049639D01*
X10123564Y10020117D01*
X10124521Y10019478D01*
X10125651Y10019253D01*
X10126781Y10019478D01*
X10127739Y10020117D01*
X10134633Y10027012D01*
X10135273Y10027969D01*
X10135497Y10029099D01*
X10135273Y10030228D01*
X10134633Y10031186D01*
X10105111Y10060707D01*
X10104153Y10061348D01*
X10103024Y10061572D01*
X10101895Y10061348D01*
X10100937Y10060707D01*
X10098988Y10058759D01*
X10095745Y10062001D01*
X10113018Y10079274D01*
X10113920Y10078372D01*
X10114916Y10077960D01*
X10115913Y10078372D01*
X10121877Y10084337D01*
X10122291Y10085334D01*
X10121877Y10086331D01*
X10117327Y10090881D01*
X10116331Y10091294D01*
X10115334Y10090881D01*
X10109369Y10084916D01*
X10108956Y10083920D01*
X10109369Y10082922D01*
X10110271Y10082021D01*
X10092999Y10064749D01*
X10086048Y10071699D01*
X10085418Y10072120D01*
X10084675Y10072267D01*
X10079347D01*
X10079290Y10072314D01*
Y10077403D01*
X10079142Y10078146D01*
X10078721Y10078776D01*
X10078721Y10078776D01*
X10071498Y10085999D01*
X10088271Y10102771D01*
X10089172Y10101870D01*
X10090170Y10101456D01*
X10091166Y10101870D01*
X10097131Y10107834D01*
X10097544Y10108831D01*
X10097131Y10109827D01*
X10092581Y10114377D01*
X10091584Y10114791D01*
X10090587Y10114377D01*
X10084622Y10108413D01*
X10084210Y10107416D01*
X10084622Y10106420D01*
X10085524Y10105518D01*
X10068751Y10088745D01*
X10065384Y10092113D01*
X10067458Y10094186D01*
X10068098Y10095144D01*
X10068322Y10096274D01*
X10068098Y10097404D01*
X10067458Y10098361D01*
X10037936Y10127883D01*
X10036978Y10128522D01*
X10035849Y10128748D01*
X10034719Y10128522D01*
X10033762Y10127883D01*
X10026867Y10120989D01*
X10026227Y10120031D01*
X10026003Y10118901D01*
X10026227Y10117772D01*
X10026867Y10116814D01*
X10056389Y10087292D01*
X10057347Y10086652D01*
X10058476Y10086428D01*
X10059606Y10086652D01*
X10060563Y10087292D01*
X10062637Y10089366D01*
X10067378Y10084625D01*
X10067378Y10084625D01*
X10067378Y10084625D01*
X10067454Y10084549D01*
X10067454Y10084549D01*
X10067454Y10084549D01*
X10075405Y10076599D01*
Y10072723D01*
X10067454Y10064772D01*
X10067033Y10064142D01*
X10066885Y10063398D01*
Y10046636D01*
X10067033Y10045894D01*
X10067454Y10045263D01*
X10120564Y9992153D01*
Y9984302D01*
X10120712Y9983558D01*
X10121133Y9982928D01*
X10127182Y9976879D01*
Y9962469D01*
X10127114Y9962435D01*
X10126849Y9962499D01*
X10125878Y9963245D01*
Y9975248D01*
X10125730Y9975992D01*
X10125309Y9976622D01*
X10119161Y9982769D01*
Y9988732D01*
X10119014Y9989476D01*
X10118593Y9990106D01*
X10052178Y10056521D01*
Y10077120D01*
X10052178Y10077120D01*
X10052030Y10077864D01*
X10051609Y10078494D01*
X10011938Y10118164D01*
X10011309Y10118585D01*
X10010565Y10118733D01*
X9982498D01*
X9981755Y10118585D01*
X9981125Y10118164D01*
X9955369Y10092408D01*
X9954948Y10091778D01*
X9954800Y10091035D01*
Y10059547D01*
X9948445Y10053192D01*
X9910186D01*
X9909443Y10053044D01*
X9908813Y10052623D01*
X9897126Y10040938D01*
X9896705Y10040307D01*
X9896558Y10039564D01*
Y10026448D01*
X9895035D01*
X9894036Y10026035D01*
X9893622Y10025035D01*
Y10017106D01*
X9894036Y10016107D01*
X9895035Y10015693D01*
X9896558D01*
Y10012782D01*
X9895283D01*
X9894286Y10012369D01*
X9893873Y10011372D01*
Y10002937D01*
X9894286Y10001940D01*
X9895283Y10001527D01*
X9896558D01*
Y9973521D01*
X9896558Y9973521D01*
X9896705Y9972777D01*
X9897126Y9972147D01*
X9898588Y9970685D01*
X9898102Y9969512D01*
X9851813D01*
Y10130000D01*
X9851818D01*
X9852167Y10133547D01*
X9853201Y10136958D01*
X9854882Y10140102D01*
X9857143Y10142857D01*
X9859898Y10145118D01*
X9863042Y10146799D01*
X9866453Y10147833D01*
X9870000Y10148182D01*
Y10148187D01*
X10130000Y10148187D01*
Y10148182D01*
D02*
G37*
G36*
X10087308Y9894539D02*
Y9869157D01*
X10080567Y9862416D01*
X10079189Y9862834D01*
X10078896Y9864304D01*
X10077511Y9866378D01*
X10076078Y9867336D01*
Y9868638D01*
X10076633Y9869009D01*
X10084765Y9877141D01*
X10085377Y9878057D01*
X10085592Y9879138D01*
X10085377Y9880219D01*
X10084765Y9881135D01*
X10083849Y9881747D01*
X10083193Y9881877D01*
X10082475Y9882380D01*
X10081972Y9883099D01*
X10081842Y9883754D01*
X10081805Y9883809D01*
X10075885Y9877889D01*
X10069965Y9871970D01*
X10070020Y9871932D01*
X10070194Y9871898D01*
X10070870Y9870624D01*
X10070673Y9869633D01*
Y9867790D01*
X10070544Y9867764D01*
X10068775Y9866582D01*
X10066616D01*
Y9868210D01*
X10066204Y9869207D01*
X10065206Y9869620D01*
X10058771D01*
X10057775Y9869207D01*
X10057361Y9868210D01*
Y9859775D01*
X10057775Y9858778D01*
X10058771Y9858365D01*
X10065206D01*
X10066204Y9858778D01*
X10066789Y9858750D01*
X10067131Y9858165D01*
X10066402Y9856895D01*
X10033752D01*
X10033058Y9858143D01*
X10033207Y9858892D01*
Y9870592D01*
X10033058Y9871342D01*
X10032634Y9871976D01*
X10031999Y9872401D01*
X10031250Y9872550D01*
X10028593D01*
X10028066Y9873820D01*
X10029266Y9875019D01*
X10040856D01*
X10044143Y9871732D01*
X10044773Y9871310D01*
X10045516Y9871163D01*
X10062593D01*
X10063336Y9871310D01*
X10063967Y9871732D01*
X10067032Y9874798D01*
X10067606Y9874680D01*
X10068183Y9874371D01*
X10068361Y9874116D01*
X10068491Y9873461D01*
X10068528Y9873406D01*
X10074448Y9879326D01*
X10080368Y9885246D01*
X10080313Y9885283D01*
X10079658Y9885413D01*
X10078940Y9885916D01*
X10078437Y9886635D01*
X10078306Y9887290D01*
X10077694Y9888206D01*
X10076778Y9888818D01*
X10076122Y9888949D01*
X10075404Y9889452D01*
X10074901Y9890170D01*
X10074771Y9890825D01*
X10074158Y9891742D01*
X10073242Y9892354D01*
X10072587Y9892484D01*
X10071868Y9892987D01*
X10071365Y9893705D01*
X10071235Y9894361D01*
X10070623Y9895277D01*
X10069706Y9895889D01*
X10069051Y9896020D01*
X10068796Y9896198D01*
X10068488Y9896775D01*
X10068370Y9897349D01*
X10069982Y9898961D01*
X10082886D01*
X10087308Y9894539D01*
D02*
G37*
%LPC*%
G36*
X10010465Y10131539D02*
X10003535D01*
X10002536Y10131125D01*
X10002123Y10130126D01*
Y10122197D01*
X10002536Y10121198D01*
X10003535Y10120784D01*
X10010465D01*
X10011464Y10121198D01*
X10011877Y10122197D01*
Y10124206D01*
X10015663D01*
X10015686Y10124092D01*
X10016851Y10122349D01*
X10018594Y10121184D01*
X10020650Y10120775D01*
X10022706Y10121184D01*
X10024450Y10122349D01*
X10025615Y10124092D01*
X10026024Y10126148D01*
X10025615Y10128204D01*
X10024450Y10129948D01*
X10022706Y10131113D01*
X10020650Y10131522D01*
X10018594Y10131113D01*
X10016851Y10129948D01*
X10015686Y10128204D01*
X10015663Y10128091D01*
X10011877D01*
Y10130126D01*
X10011464Y10131125D01*
X10010465Y10131539D01*
D02*
G37*
G36*
X10081331Y10125044D02*
X10080334Y10124631D01*
X10078070Y10122367D01*
X10080623Y10119813D01*
X10083884Y10123074D01*
X10082327Y10124631D01*
X10081331Y10125044D01*
D02*
G37*
G36*
X10130000Y10141367D02*
X10127058Y10140980D01*
X10124316Y10139844D01*
X10121962Y10138038D01*
X10120156Y10135684D01*
X10119020Y10132942D01*
X10118633Y10130000D01*
X10119020Y10127058D01*
X10120156Y10124316D01*
X10121962Y10121962D01*
X10124316Y10120156D01*
X10127058Y10119020D01*
X10130000Y10118633D01*
X10132942Y10119020D01*
X10135684Y10120156D01*
X10138038Y10121962D01*
X10139844Y10124316D01*
X10140980Y10127058D01*
X10141367Y10130000D01*
X10140980Y10132942D01*
X10139844Y10135684D01*
X10138038Y10138038D01*
X10135684Y10139844D01*
X10132942Y10140980D01*
X10130000Y10141367D01*
D02*
G37*
G36*
X9870000D02*
X9867058Y10140980D01*
X9864316Y10139844D01*
X9861962Y10138038D01*
X9860156Y10135684D01*
X9859020Y10132942D01*
X9858633Y10130000D01*
X9859020Y10127058D01*
X9860156Y10124316D01*
X9861962Y10121962D01*
X9864316Y10120156D01*
X9867058Y10119020D01*
X9870000Y10118633D01*
X9872942Y10119020D01*
X9875684Y10120156D01*
X9878038Y10121962D01*
X9879844Y10124316D01*
X9880980Y10127058D01*
X9881367Y10130000D01*
X9880980Y10132942D01*
X9879844Y10135684D01*
X9878038Y10138038D01*
X9875684Y10139844D01*
X9872942Y10140980D01*
X9870000Y10141367D01*
D02*
G37*
G36*
X10085321Y10121637D02*
X10082061Y10118376D01*
X10084614Y10115823D01*
X10086877Y10118087D01*
X10087291Y10119084D01*
X10086877Y10120081D01*
X10085321Y10121637D01*
D02*
G37*
G36*
X10076633Y10120930D02*
X10074369Y10118666D01*
X10073956Y10117670D01*
X10074369Y10116672D01*
X10075926Y10115116D01*
X10079186Y10118376D01*
X10076633Y10120930D01*
D02*
G37*
G36*
X10080623Y10116940D02*
X10077363Y10113679D01*
X10078920Y10112122D01*
X10079916Y10111710D01*
X10080913Y10112122D01*
X10083177Y10114386D01*
X10080623Y10116940D01*
D02*
G37*
G36*
X9903198Y10116629D02*
X9899016D01*
Y10108015D01*
X9904629D01*
Y10115198D01*
X9904210Y10116210D01*
X9903198Y10116629D01*
D02*
G37*
G36*
X9896984D02*
X9892803D01*
X9891790Y10116210D01*
X9891371Y10115198D01*
Y10108015D01*
X9896984D01*
Y10116629D01*
D02*
G37*
G36*
X9904629Y10105983D02*
X9899016D01*
Y10097371D01*
X9903198D01*
X9904210Y10097791D01*
X9904629Y10098802D01*
Y10105983D01*
D02*
G37*
G36*
X9896984D02*
X9891371D01*
Y10098802D01*
X9891790Y10097791D01*
X9892803Y10097371D01*
X9896984D01*
Y10105983D01*
D02*
G37*
G36*
X10126584Y10081041D02*
X10125587Y10080627D01*
X10123322Y10078364D01*
X10125876Y10075809D01*
X10129138Y10079071D01*
X10127581Y10080627D01*
X10126584Y10081041D01*
D02*
G37*
G36*
X10130574Y10077634D02*
X10127313Y10074373D01*
X10129866Y10071819D01*
X10132131Y10074084D01*
X10132544Y10075081D01*
X10132131Y10076077D01*
X10130574Y10077634D01*
D02*
G37*
G36*
X10121885Y10076926D02*
X10119622Y10074663D01*
X10119210Y10073666D01*
X10119622Y10072670D01*
X10121179Y10071113D01*
X10124440Y10074373D01*
X10121885Y10076926D01*
D02*
G37*
G36*
X9976016Y10080225D02*
Y10071017D01*
X9985225D01*
X9985005Y10072681D01*
X9983971Y10075179D01*
X9982325Y10077325D01*
X9980179Y10078971D01*
X9977681Y10080005D01*
X9976016Y10080225D01*
D02*
G37*
G36*
X9973984Y10080225D02*
X9972319Y10080005D01*
X9969821Y10078971D01*
X9967675Y10077325D01*
X9966029Y10075179D01*
X9964995Y10072681D01*
X9964775Y10071017D01*
X9973984D01*
Y10080225D01*
D02*
G37*
G36*
X10125876Y10072936D02*
X10122616Y10069676D01*
X10124172Y10068120D01*
X10125170Y10067706D01*
X10126166Y10068120D01*
X10128430Y10070383D01*
X10125876Y10072936D01*
D02*
G37*
G36*
X9876392Y10080134D02*
X9866766D01*
Y10063516D01*
X9877883D01*
Y10078643D01*
X9877447Y10079697D01*
X9876392Y10080134D01*
D02*
G37*
G36*
X9864734D02*
X9855107D01*
X9854053Y10079697D01*
X9853616Y10078643D01*
Y10063516D01*
X9864734D01*
Y10080134D01*
D02*
G37*
G36*
X9934950Y10068879D02*
X9925266D01*
Y10063516D01*
X9936379D01*
Y10067450D01*
X9935960Y10068460D01*
X9934950Y10068879D01*
D02*
G37*
G36*
X9923234D02*
X9913550D01*
X9912540Y10068460D01*
X9912121Y10067450D01*
Y10063516D01*
X9923234D01*
Y10068879D01*
D02*
G37*
G36*
X9985225Y10068984D02*
X9976016D01*
Y10059775D01*
X9977681Y10059995D01*
X9980179Y10061029D01*
X9982325Y10062675D01*
X9983971Y10064821D01*
X9985005Y10067319D01*
X9985225Y10068984D01*
D02*
G37*
G36*
X9973984D02*
X9964775D01*
X9964995Y10067319D01*
X9966029Y10064821D01*
X9967675Y10062675D01*
X9969821Y10061029D01*
X9972319Y10059995D01*
X9973984Y10059775D01*
Y10068984D01*
D02*
G37*
G36*
X9936379Y10061484D02*
X9925266D01*
Y10056121D01*
X9934950D01*
X9935960Y10056540D01*
X9936379Y10057550D01*
Y10061484D01*
D02*
G37*
G36*
X9923234D02*
X9912121D01*
Y10057550D01*
X9912540Y10056540D01*
X9913550Y10056121D01*
X9923234D01*
Y10061484D01*
D02*
G37*
G36*
X10016223Y10058627D02*
X10013021D01*
Y10055016D01*
X10017633D01*
Y10057217D01*
X10017220Y10058214D01*
X10016223Y10058627D01*
D02*
G37*
G36*
X10010989D02*
X10007788D01*
X10006791Y10058214D01*
X10006378Y10057217D01*
Y10055016D01*
X10010989D01*
Y10058627D01*
D02*
G37*
G36*
X10017633Y10052984D02*
X10013021D01*
Y10049373D01*
X10016223D01*
X10017220Y10049786D01*
X10017633Y10050782D01*
Y10052984D01*
D02*
G37*
G36*
X10010989D02*
X10006378D01*
Y10050782D01*
X10006791Y10049786D01*
X10007788Y10049373D01*
X10010989D01*
Y10052984D01*
D02*
G37*
G36*
X10025000Y10080359D02*
X10022319Y10080005D01*
X10019821Y10078971D01*
X10017675Y10077325D01*
X10016029Y10075179D01*
X10014995Y10072681D01*
X10014641Y10070000D01*
X10014995Y10067319D01*
X10016029Y10064821D01*
X10017675Y10062675D01*
X10019821Y10061029D01*
X10022319Y10059995D01*
X10023058Y10059897D01*
Y10058378D01*
X10021035D01*
X10020036Y10057964D01*
X10019623Y10056965D01*
Y10050035D01*
X10020036Y10049036D01*
X10021035Y10048622D01*
X10028965D01*
X10029964Y10049036D01*
X10030377Y10050035D01*
Y10056965D01*
X10029964Y10057964D01*
X10028965Y10058378D01*
X10026942D01*
Y10059897D01*
X10027681Y10059995D01*
X10030179Y10061029D01*
X10032325Y10062675D01*
X10033971Y10064821D01*
X10035005Y10067319D01*
X10035359Y10070000D01*
X10035005Y10072681D01*
X10033971Y10075179D01*
X10032325Y10077325D01*
X10030179Y10078971D01*
X10027681Y10080005D01*
X10025000Y10080359D01*
D02*
G37*
G36*
X9877883Y10061484D02*
X9866766D01*
Y10044866D01*
X9876392D01*
X9877447Y10045303D01*
X9877883Y10046357D01*
Y10061484D01*
D02*
G37*
G36*
X9864734D02*
X9853616D01*
Y10046357D01*
X9854053Y10045303D01*
X9855107Y10044866D01*
X9864734D01*
Y10061484D01*
D02*
G37*
G36*
X9970739Y10049129D02*
X9960343D01*
X9959331Y10048710D01*
X9958912Y10047698D01*
Y10042349D01*
X9936379D01*
Y10044450D01*
X9935960Y10045460D01*
X9934950Y10045879D01*
X9913550D01*
X9912540Y10045460D01*
X9912121Y10044450D01*
Y10034550D01*
X9912540Y10033539D01*
X9913550Y10033121D01*
X9934950D01*
X9935960Y10033539D01*
X9936379Y10034550D01*
Y10036651D01*
X9958912D01*
Y10031302D01*
X9959331Y10030291D01*
X9960343Y10029871D01*
X9962692D01*
Y9981971D01*
X9955570Y9974849D01*
X9947567D01*
X9947567Y9974849D01*
X9946476Y9974632D01*
X9945552Y9974014D01*
X9945552Y9974014D01*
X9936736Y9965198D01*
X9936118Y9964274D01*
X9935901Y9963184D01*
X9935901Y9963184D01*
Y9953049D01*
X9927320Y9944468D01*
X9926050Y9944637D01*
Y9944770D01*
X9912510D01*
Y9938230D01*
Y9931730D01*
Y9925230D01*
Y9918730D01*
Y9916516D01*
X9919280D01*
X9926050D01*
Y9923184D01*
X9927224Y9923669D01*
X9962727Y9888165D01*
X9963913Y9887373D01*
X9965312Y9887095D01*
X9982872D01*
Y9887035D01*
X9983286Y9886036D01*
X9984285Y9885623D01*
X9992215D01*
X9993214Y9886036D01*
X9993627Y9887035D01*
Y9887095D01*
X10001832D01*
Y9886785D01*
X10002246Y9885786D01*
X10003245Y9885372D01*
X10010175D01*
X10011174Y9885786D01*
X10011588Y9886785D01*
Y9894715D01*
X10011174Y9895714D01*
X10010175Y9896127D01*
X10003245D01*
X10002246Y9895714D01*
X10001832Y9894715D01*
Y9894406D01*
X9993445D01*
X9993214Y9894964D01*
X9992215Y9895377D01*
X9984285D01*
X9983286Y9894964D01*
X9983055Y9894406D01*
X9966826D01*
X9930969Y9930262D01*
X9931595Y9931432D01*
X9932035Y9931345D01*
X9937578D01*
X9968151Y9900772D01*
X9969337Y9899979D01*
X9970736Y9899701D01*
X10001832D01*
Y9899391D01*
X10002246Y9898392D01*
X10003245Y9897979D01*
X10010175D01*
X10011174Y9898392D01*
X10011588Y9899391D01*
Y9907321D01*
X10011174Y9908320D01*
X10010175Y9908734D01*
X10003245D01*
X10002246Y9908320D01*
X10001832Y9907321D01*
Y9907012D01*
X9972250D01*
X9941677Y9937585D01*
X9940491Y9938377D01*
X9939092Y9938655D01*
X9932035D01*
X9931131Y9938475D01*
X9930764Y9938979D01*
X9930568Y9939658D01*
X9940764Y9949855D01*
X9941382Y9950779D01*
X9941599Y9951870D01*
X9941599Y9951870D01*
Y9962004D01*
X9948746Y9969151D01*
X9956750D01*
X9956750Y9969151D01*
X9957840Y9969368D01*
X9958765Y9969985D01*
X9967555Y9978776D01*
X9968173Y9979701D01*
X9968390Y9980791D01*
X9968390Y9980791D01*
Y10029871D01*
X9970739D01*
X9971750Y10030291D01*
X9972170Y10031302D01*
Y10047698D01*
X9971750Y10048710D01*
X9970739Y10049129D01*
D02*
G37*
G36*
X10028965Y10044377D02*
X10021035D01*
X10020036Y10043964D01*
X10019623Y10042965D01*
Y10041442D01*
X10017633D01*
Y10042717D01*
X10017220Y10043715D01*
X10016223Y10044127D01*
X10007788D01*
X10006791Y10043715D01*
X10006378Y10042717D01*
Y10036282D01*
X10006791Y10035286D01*
X10007788Y10034872D01*
X10016223D01*
X10017220Y10035286D01*
X10017633Y10036282D01*
Y10037558D01*
X10019623D01*
Y10036035D01*
X10020036Y10035036D01*
X10021035Y10034623D01*
X10023058D01*
Y9992061D01*
X10023206Y9991317D01*
X10023627Y9990687D01*
X10025448Y9988865D01*
X10024962Y9987692D01*
X9980500D01*
X9979756Y9987545D01*
X9979127Y9987123D01*
X9970391Y9978387D01*
X9969969Y9977758D01*
X9969822Y9977014D01*
Y9965982D01*
X9968546D01*
X9967549Y9965569D01*
X9967137Y9964572D01*
Y9956137D01*
X9967549Y9955140D01*
X9968546Y9954727D01*
X9969822D01*
Y9952713D01*
X9968299D01*
X9967300Y9952300D01*
X9966887Y9951301D01*
Y9943371D01*
X9967300Y9942372D01*
X9968299Y9941958D01*
X9975229D01*
X9976227Y9942372D01*
X9976641Y9943371D01*
Y9951301D01*
X9976227Y9952300D01*
X9975229Y9952713D01*
X9973706D01*
Y9954727D01*
X9974982D01*
X9975978Y9955140D01*
X9976391Y9956137D01*
Y9964572D01*
X9975978Y9965569D01*
X9974982Y9965982D01*
X9973706D01*
Y9976209D01*
X9981304Y9983808D01*
X10009902D01*
X10010388Y9982634D01*
X10006390Y9978637D01*
X10005969Y9978007D01*
X10005822Y9977264D01*
Y9966213D01*
X10003799D01*
X10002800Y9965800D01*
X10002386Y9964800D01*
Y9963652D01*
X10000372D01*
Y9965053D01*
X9999960Y9966050D01*
X9998962Y9966463D01*
X9990527D01*
X9989531Y9966050D01*
X9989118Y9965053D01*
Y9958618D01*
X9989531Y9957621D01*
X9990527Y9957208D01*
X9998962D01*
X9999960Y9957621D01*
X10000372Y9958618D01*
Y9959767D01*
X10002386D01*
Y9957870D01*
X10002800Y9956872D01*
X10003799Y9956458D01*
X10011729D01*
X10012728Y9956872D01*
X10013141Y9957870D01*
Y9964800D01*
X10012728Y9965800D01*
X10011729Y9966213D01*
X10009706D01*
Y9976459D01*
X10014515Y9981268D01*
X10029454D01*
X10049288Y9961433D01*
Y9958759D01*
X10049436Y9958016D01*
X10049857Y9957386D01*
X10050143Y9957099D01*
X10050026Y9956525D01*
X10049717Y9955949D01*
X10049462Y9955770D01*
X10048807Y9955640D01*
X10047891Y9955028D01*
X10047278Y9954111D01*
X10047148Y9953456D01*
X10046645Y9952738D01*
X10045927Y9952234D01*
X10045271Y9952104D01*
X10044355Y9951492D01*
X10043743Y9950576D01*
X10043612Y9949921D01*
X10043109Y9949202D01*
X10042391Y9948699D01*
X10041736Y9948569D01*
X10040820Y9947957D01*
X10040207Y9947040D01*
X10040077Y9946385D01*
X10039574Y9945667D01*
X10038856Y9945164D01*
X10038200Y9945034D01*
X10038146Y9944997D01*
X10044066Y9939077D01*
X10049985Y9933157D01*
X10050022Y9933212D01*
X10050153Y9933867D01*
X10050656Y9934586D01*
X10051373Y9935089D01*
X10052029Y9935219D01*
X10052946Y9935831D01*
X10053558Y9936747D01*
X10053688Y9937402D01*
X10054191Y9938121D01*
X10054909Y9938624D01*
X10055565Y9938754D01*
X10056481Y9939366D01*
X10057093Y9940283D01*
X10057224Y9940938D01*
X10057726Y9941656D01*
X10058445Y9942159D01*
X10059100Y9942289D01*
X10060016Y9942902D01*
X10060629Y9943818D01*
X10060759Y9944474D01*
X10061262Y9945192D01*
X10061980Y9945695D01*
X10062635Y9945825D01*
X10063552Y9946437D01*
X10064164Y9947354D01*
X10064294Y9948009D01*
X10064797Y9948727D01*
X10065516Y9949230D01*
X10066171Y9949361D01*
X10067087Y9949973D01*
X10067700Y9950889D01*
X10067830Y9951545D01*
X10068333Y9952263D01*
X10069051Y9952766D01*
X10069706Y9952896D01*
X10070623Y9953508D01*
X10071235Y9954424D01*
X10071365Y9955080D01*
X10071868Y9955798D01*
X10072587Y9956301D01*
X10073242Y9956432D01*
X10074158Y9957044D01*
X10074771Y9957960D01*
X10074901Y9958616D01*
X10075404Y9959334D01*
X10076122Y9959837D01*
X10076778Y9959968D01*
X10077694Y9960580D01*
X10078306Y9961496D01*
X10078437Y9962151D01*
X10078940Y9962870D01*
X10079658Y9963373D01*
X10080313Y9963503D01*
X10081229Y9964115D01*
X10081842Y9965031D01*
X10081972Y9965687D01*
X10082475Y9966405D01*
X10083193Y9966908D01*
X10083849Y9967039D01*
X10084765Y9967651D01*
X10085377Y9968567D01*
X10085592Y9969648D01*
X10085377Y9970729D01*
X10084765Y9971645D01*
X10076633Y9979777D01*
X10075717Y9980389D01*
X10074636Y9980604D01*
X10073555Y9980389D01*
X10072639Y9979777D01*
X10072027Y9978860D01*
X10071896Y9978205D01*
X10071393Y9977487D01*
X10070676Y9976984D01*
X10070020Y9976853D01*
X10069104Y9976241D01*
X10068491Y9975325D01*
X10068361Y9974669D01*
X10067858Y9973951D01*
X10067140Y9973448D01*
X10066484Y9973318D01*
X10065568Y9972706D01*
X10064956Y9971789D01*
X10064825Y9971133D01*
X10064323Y9970416D01*
X10063604Y9969913D01*
X10062949Y9969782D01*
X10062032Y9969170D01*
X10061420Y9968254D01*
X10061290Y9967598D01*
X10061111Y9967343D01*
X10060535Y9967035D01*
X10059962Y9966917D01*
X10059675Y9967203D01*
X10059045Y9967625D01*
X10058301Y9967772D01*
X10055627D01*
X10033736Y9989664D01*
X10033105Y9990084D01*
X10032363Y9990233D01*
X10029575D01*
X10026942Y9992865D01*
Y10034623D01*
X10028965D01*
X10029964Y10035036D01*
X10030377Y10036035D01*
Y10042965D01*
X10029964Y10043964D01*
X10028965Y10044377D01*
D02*
G37*
G36*
X9997238Y10049129D02*
X9993057D01*
Y10040516D01*
X9998670D01*
Y10047698D01*
X9998251Y10048710D01*
X9997238Y10049129D01*
D02*
G37*
G36*
X9991025D02*
X9986843D01*
X9985831Y10048710D01*
X9985412Y10047698D01*
Y10040516D01*
X9991025D01*
Y10049129D01*
D02*
G37*
G36*
X9998670Y10038484D02*
X9993057D01*
Y10029871D01*
X9997238D01*
X9998251Y10030291D01*
X9998670Y10031302D01*
Y10038484D01*
D02*
G37*
G36*
X9991025D02*
X9985412D01*
Y10031302D01*
X9985831Y10030291D01*
X9986843Y10029871D01*
X9991025D01*
Y10038484D01*
D02*
G37*
G36*
X9887217Y10012782D02*
X9885016D01*
Y10008171D01*
X9888627D01*
Y10011372D01*
X9888214Y10012369D01*
X9887217Y10012782D01*
D02*
G37*
G36*
X9882984D02*
X9880782D01*
X9879786Y10012369D01*
X9879373Y10011372D01*
Y10008171D01*
X9882984D01*
Y10012782D01*
D02*
G37*
G36*
X9888627Y10006138D02*
X9885016D01*
Y10001527D01*
X9887217D01*
X9888214Y10001940D01*
X9888627Y10002937D01*
Y10006138D01*
D02*
G37*
G36*
X9882984D02*
X9879373D01*
Y10002937D01*
X9879786Y10001940D01*
X9880782Y10001527D01*
X9882984D01*
Y10006138D01*
D02*
G37*
G36*
X9941016Y10023749D02*
Y10001017D01*
X9956349D01*
Y10007500D01*
X9956035Y10010690D01*
X9955104Y10013756D01*
X9953593Y10016583D01*
X9951560Y10019060D01*
X9949083Y10021093D01*
X9946256Y10022604D01*
X9943190Y10023535D01*
X9941016Y10023749D01*
D02*
G37*
G36*
X10061015Y10023749D02*
Y10001017D01*
X10076349D01*
Y10007500D01*
X10076035Y10010690D01*
X10075104Y10013756D01*
X10073593Y10016583D01*
X10071560Y10019060D01*
X10069083Y10021093D01*
X10066256Y10022604D01*
X10063190Y10023535D01*
X10061015Y10023749D01*
D02*
G37*
G36*
X10058983Y10023749D02*
X10056810Y10023535D01*
X10053744Y10022604D01*
X10050917Y10021093D01*
X10048440Y10019060D01*
X10046407Y10016583D01*
X10044896Y10013756D01*
X10043965Y10010690D01*
X10043651Y10007500D01*
Y10001017D01*
X10058983D01*
Y10023749D01*
D02*
G37*
G36*
X9938984Y10023749D02*
X9936810Y10023535D01*
X9933744Y10022604D01*
X9930917Y10021093D01*
X9928440Y10019060D01*
X9926406Y10016583D01*
X9924896Y10013756D01*
X9923965Y10010690D01*
X9923651Y10007500D01*
Y10001017D01*
X9938984D01*
Y10023749D01*
D02*
G37*
G36*
X10087750Y10144885D02*
X9937250D01*
X9935764Y10144589D01*
X9934503Y10143747D01*
X9921753Y10130997D01*
X9920911Y10129736D01*
X9920615Y10128250D01*
Y10116629D01*
X9919302D01*
X9918290Y10116210D01*
X9917871Y10115198D01*
Y10098802D01*
X9918290Y10097791D01*
X9919302Y10097371D01*
X9920615D01*
Y10091879D01*
X9913550D01*
X9912540Y10091461D01*
X9912121Y10090450D01*
Y10088090D01*
X9902250D01*
X9901259Y10087892D01*
X9900419Y10087331D01*
X9893419Y10080331D01*
X9892858Y10079491D01*
X9892661Y10078500D01*
Y10050073D01*
X9882668Y10040081D01*
X9882108Y10039241D01*
X9881910Y10038250D01*
Y10026448D01*
X9881035D01*
X9880036Y10026035D01*
X9879622Y10025035D01*
Y10017106D01*
X9880036Y10016107D01*
X9881035Y10015693D01*
X9887965D01*
X9888964Y10016107D01*
X9889377Y10017106D01*
Y10025035D01*
X9888964Y10026035D01*
X9887965Y10026448D01*
X9887090D01*
Y10037177D01*
X9897081Y10047169D01*
X9897643Y10048009D01*
X9897840Y10049000D01*
Y10077427D01*
X9903323Y10082910D01*
X9912121D01*
Y10080550D01*
X9912540Y10079540D01*
X9913550Y10079121D01*
X9934950D01*
X9935960Y10079540D01*
X9936379Y10080550D01*
Y10090450D01*
X9935960Y10091461D01*
X9934950Y10091879D01*
X9928384D01*
Y10097371D01*
X9929697D01*
X9930710Y10097791D01*
X9931129Y10098802D01*
Y10115198D01*
X9930710Y10116210D01*
X9929697Y10116629D01*
X9928384D01*
Y10126641D01*
X9938859Y10137115D01*
X9990410D01*
Y10131539D01*
X9989535D01*
X9988536Y10131125D01*
X9988123Y10130126D01*
Y10122197D01*
X9988536Y10121198D01*
X9989535Y10120784D01*
X9996465D01*
X9997464Y10121198D01*
X9997877Y10122197D01*
Y10130126D01*
X9997464Y10131125D01*
X9996465Y10131539D01*
X9995590D01*
Y10137115D01*
X10086141D01*
X10136586Y10086670D01*
Y10035984D01*
X10136882Y10034498D01*
X10137724Y10033238D01*
X10137955Y10033007D01*
Y10025633D01*
X10137753Y10025431D01*
X10136911Y10024171D01*
X10136616Y10022684D01*
Y9999695D01*
X10135980Y9999271D01*
X10134594Y9997197D01*
X10134107Y9994750D01*
X10134594Y9992303D01*
X10135980Y9990229D01*
X10138054Y9988844D01*
X10140500Y9988357D01*
X10142946Y9988844D01*
X10145020Y9990229D01*
X10146406Y9992303D01*
X10146893Y9994750D01*
X10146406Y9997197D01*
X10145020Y9999271D01*
X10144385Y9999695D01*
Y10021075D01*
X10144587Y10021277D01*
X10145428Y10022537D01*
X10145724Y10024023D01*
Y10034616D01*
X10145428Y10036102D01*
X10144587Y10037363D01*
X10144355Y10037594D01*
Y10088279D01*
X10144060Y10089766D01*
X10143218Y10091026D01*
X10090497Y10143747D01*
X10089236Y10144589D01*
X10087750Y10144885D01*
D02*
G37*
G36*
X10058983Y9998985D02*
X10043651D01*
Y9992500D01*
X10043965Y9989310D01*
X10044896Y9986244D01*
X10046407Y9983417D01*
X10048440Y9980940D01*
X10050917Y9978906D01*
X10053744Y9977396D01*
X10056810Y9976465D01*
X10058983Y9976251D01*
Y9998985D01*
D02*
G37*
G36*
X9956349D02*
X9941016D01*
Y9976251D01*
X9943190Y9976465D01*
X9946256Y9977396D01*
X9949083Y9978906D01*
X9951560Y9980940D01*
X9953593Y9983417D01*
X9955104Y9986244D01*
X9956035Y9989310D01*
X9956349Y9992500D01*
Y9998985D01*
D02*
G37*
G36*
X9938984D02*
X9923651D01*
Y9992500D01*
X9923965Y9989310D01*
X9924896Y9986244D01*
X9926406Y9983417D01*
X9928440Y9980940D01*
X9930917Y9978906D01*
X9933744Y9977396D01*
X9936810Y9976465D01*
X9938984Y9976251D01*
Y9998985D01*
D02*
G37*
G36*
X10076349D02*
X10061015D01*
Y9976251D01*
X10063190Y9976465D01*
X10066256Y9977396D01*
X10069083Y9978906D01*
X10071560Y9980940D01*
X10073593Y9983417D01*
X10075104Y9986244D01*
X10076035Y9989310D01*
X10076349Y9992500D01*
Y9998985D01*
D02*
G37*
G36*
X10145217Y9976561D02*
X10142016D01*
Y9972950D01*
X10146627D01*
Y9975152D01*
X10146215Y9976149D01*
X10145217Y9976561D01*
D02*
G37*
G36*
X10139984D02*
X10136782D01*
X10135786Y9976149D01*
X10135373Y9975152D01*
Y9972950D01*
X10139984D01*
Y9976561D01*
D02*
G37*
G36*
X9918280Y9983883D02*
X9909280D01*
X9907029Y9983435D01*
X9905120Y9982160D01*
X9903845Y9980251D01*
X9903397Y9978000D01*
X9903845Y9975749D01*
X9905120Y9973840D01*
X9907029Y9972565D01*
X9909280Y9972117D01*
X9918280D01*
X9920531Y9972565D01*
X9922440Y9973840D01*
X9923715Y9975749D01*
X9924163Y9978000D01*
X9923715Y9980251D01*
X9922440Y9982160D01*
X9920531Y9983435D01*
X9918280Y9983883D01*
D02*
G37*
G36*
X9879780D02*
X9867780D01*
X9865529Y9983435D01*
X9863620Y9982160D01*
X9862345Y9980251D01*
X9861897Y9978000D01*
X9862345Y9975749D01*
X9863620Y9973840D01*
X9865529Y9972565D01*
X9867780Y9972117D01*
X9879780D01*
X9882031Y9972565D01*
X9883940Y9973840D01*
X9885215Y9975749D01*
X9885663Y9978000D01*
X9885215Y9980251D01*
X9883940Y9982160D01*
X9882031Y9983435D01*
X9879780Y9983883D01*
D02*
G37*
G36*
X10029218Y9971628D02*
X10026016D01*
Y9968016D01*
X10030627D01*
Y9970218D01*
X10030214Y9971215D01*
X10029218Y9971628D01*
D02*
G37*
G36*
X10023984D02*
X10020782D01*
X10019786Y9971215D01*
X10019373Y9970218D01*
Y9968016D01*
X10023984D01*
Y9971628D01*
D02*
G37*
G36*
X10146627Y9970918D02*
X10142016D01*
Y9967307D01*
X10145217D01*
X10146215Y9967720D01*
X10146627Y9968716D01*
Y9970918D01*
D02*
G37*
G36*
X10139984D02*
X10135373D01*
Y9968716D01*
X10135786Y9967720D01*
X10136782Y9967307D01*
X10139984D01*
Y9970918D01*
D02*
G37*
G36*
X10030627Y9965984D02*
X10026016D01*
Y9962373D01*
X10029218D01*
X10030214Y9962786D01*
X10030627Y9963783D01*
Y9965984D01*
D02*
G37*
G36*
X10023984D02*
X10019373D01*
Y9963783D01*
X10019786Y9962786D01*
X10020782Y9962373D01*
X10023984D01*
Y9965984D01*
D02*
G37*
G36*
X9960482Y9965982D02*
X9958280D01*
Y9961370D01*
X9961891D01*
Y9964572D01*
X9961478Y9965569D01*
X9960482Y9965982D01*
D02*
G37*
G36*
X9956248D02*
X9954047D01*
X9953049Y9965569D01*
X9952637Y9964572D01*
Y9961370D01*
X9956248D01*
Y9965982D01*
D02*
G37*
G36*
X9961891Y9959338D02*
X9958280D01*
Y9954727D01*
X9960482D01*
X9961478Y9955140D01*
X9961891Y9956137D01*
Y9959338D01*
D02*
G37*
G36*
X9956248D02*
X9952637D01*
Y9956137D01*
X9953049Y9955140D01*
X9954047Y9954727D01*
X9956248D01*
Y9959338D01*
D02*
G37*
G36*
X9998962Y9951963D02*
X9995761D01*
Y9948351D01*
X10000372D01*
Y9950553D01*
X9999960Y9951550D01*
X9998962Y9951963D01*
D02*
G37*
G36*
X9993729D02*
X9990527D01*
X9989531Y9951550D01*
X9989118Y9950553D01*
Y9948351D01*
X9993729D01*
Y9951963D01*
D02*
G37*
G36*
X10000372Y9946320D02*
X9995761D01*
Y9942708D01*
X9998962D01*
X9999960Y9943121D01*
X10000372Y9944118D01*
Y9946320D01*
D02*
G37*
G36*
X9993729D02*
X9989118D01*
Y9944118D01*
X9989531Y9943121D01*
X9990527Y9942708D01*
X9993729D01*
Y9946320D01*
D02*
G37*
G36*
X10001017Y9935225D02*
Y9926016D01*
X10010225D01*
X10010005Y9927681D01*
X10008971Y9930179D01*
X10007325Y9932325D01*
X10005179Y9933971D01*
X10002681Y9935005D01*
X10001017Y9935225D01*
D02*
G37*
G36*
X9998985Y9935225D02*
X9997319Y9935005D01*
X9994821Y9933971D01*
X9992675Y9932325D01*
X9991029Y9930179D01*
X9989995Y9927681D01*
X9989775Y9926016D01*
X9998985D01*
Y9935225D01*
D02*
G37*
G36*
X10134387Y9920853D02*
X10133306Y9920638D01*
X10133251Y9920601D01*
X10138453Y9915400D01*
X10139731Y9916678D01*
X10136384Y9920026D01*
X10135468Y9920638D01*
X10134387Y9920853D01*
D02*
G37*
G36*
X10010225Y9923984D02*
X10001017D01*
Y9914775D01*
X10002681Y9914995D01*
X10005179Y9916029D01*
X10007325Y9917675D01*
X10008971Y9919821D01*
X10010005Y9922319D01*
X10010225Y9923984D01*
D02*
G37*
G36*
X9998985D02*
X9989775D01*
X9989995Y9922319D01*
X9991029Y9919821D01*
X9992675Y9917675D01*
X9994821Y9916029D01*
X9997319Y9914995D01*
X9998985Y9914775D01*
Y9923984D01*
D02*
G37*
G36*
X10011729Y9952213D02*
X10003799D01*
X10002800Y9951799D01*
X10002386Y9950801D01*
Y9943871D01*
X10002800Y9942872D01*
X10003799Y9942458D01*
X10005822D01*
Y9942236D01*
X10005969Y9941493D01*
X10006390Y9940862D01*
X10016483Y9930770D01*
X10016029Y9930179D01*
X10014995Y9927681D01*
X10014641Y9925000D01*
X10014995Y9922319D01*
X10016029Y9919821D01*
X10017675Y9917675D01*
X10019821Y9916029D01*
X10022319Y9914995D01*
X10025000Y9914641D01*
X10027681Y9914995D01*
X10030179Y9916029D01*
X10032325Y9917675D01*
X10033971Y9919821D01*
X10035005Y9922319D01*
X10035359Y9925000D01*
X10035005Y9927681D01*
X10033971Y9930179D01*
X10032325Y9932325D01*
X10030179Y9933971D01*
X10027681Y9935005D01*
X10025000Y9935359D01*
X10022319Y9935005D01*
X10019821Y9933971D01*
X10019230Y9933517D01*
X10011462Y9941285D01*
X10011981Y9942562D01*
X10012728Y9942872D01*
X10013141Y9943871D01*
Y9950801D01*
X10012728Y9951799D01*
X10011729Y9952213D01*
D02*
G37*
G36*
X9961229Y9952713D02*
X9954299D01*
X9953300Y9952300D01*
X9952886Y9951301D01*
Y9943371D01*
X9953300Y9942372D01*
X9954299Y9941958D01*
X9958568D01*
Y9939464D01*
X9958715Y9938721D01*
X9959136Y9938090D01*
X9966471Y9930755D01*
X9966029Y9930179D01*
X9964995Y9927681D01*
X9964641Y9925000D01*
X9964995Y9922319D01*
X9966029Y9919821D01*
X9967675Y9917675D01*
X9969821Y9916029D01*
X9972319Y9914995D01*
X9975000Y9914641D01*
X9977681Y9914995D01*
X9980179Y9916029D01*
X9982325Y9917675D01*
X9983971Y9919821D01*
X9985005Y9922319D01*
X9985359Y9925000D01*
X9985005Y9927681D01*
X9983971Y9930179D01*
X9982325Y9932325D01*
X9980179Y9933971D01*
X9977681Y9935005D01*
X9975000Y9935359D01*
X9972319Y9935005D01*
X9969821Y9933971D01*
X9969214Y9933506D01*
X9962452Y9940269D01*
Y9942913D01*
X9962642Y9943371D01*
Y9951301D01*
X9962228Y9952300D01*
X9961229Y9952713D01*
D02*
G37*
G36*
X9926050Y9914484D02*
X9920296D01*
Y9912230D01*
X9926050D01*
Y9914484D01*
D02*
G37*
G36*
X9918264D02*
X9912510D01*
Y9912230D01*
X9918264D01*
Y9914484D01*
D02*
G37*
G36*
X10141168Y9915242D02*
X10139890Y9913963D01*
X10145091Y9908762D01*
X10145128Y9908817D01*
X10145343Y9909897D01*
X10145128Y9910978D01*
X10144515Y9911894D01*
X10141168Y9915242D01*
D02*
G37*
G36*
X10131814Y9919164D02*
X10131777Y9919109D01*
X10131647Y9918454D01*
X10131144Y9917736D01*
X10130426Y9917233D01*
X10129771Y9917103D01*
X10128854Y9916490D01*
X10128242Y9915574D01*
X10128112Y9914919D01*
X10127609Y9914200D01*
X10126890Y9913698D01*
X10126235Y9913567D01*
X10125319Y9912955D01*
X10124706Y9912039D01*
X10124576Y9911383D01*
X10124073Y9910665D01*
X10123355Y9910162D01*
X10122700Y9910032D01*
X10121783Y9909420D01*
X10121171Y9908503D01*
X10121041Y9907848D01*
X10120538Y9907130D01*
X10119819Y9906627D01*
X10119164Y9906496D01*
X10119109Y9906459D01*
X10125029Y9900540D01*
X10130949Y9894620D01*
X10130986Y9894674D01*
X10131116Y9895330D01*
X10131619Y9896048D01*
X10132337Y9896551D01*
X10132993Y9896682D01*
X10133909Y9897294D01*
X10134521Y9898210D01*
X10134651Y9898865D01*
X10135154Y9899584D01*
X10135873Y9900087D01*
X10136528Y9900217D01*
X10137444Y9900829D01*
X10138057Y9901745D01*
X10138187Y9902401D01*
X10138690Y9903119D01*
X10139409Y9903622D01*
X10140064Y9903752D01*
X10140980Y9904365D01*
X10141592Y9905281D01*
X10141722Y9905936D01*
X10142225Y9906655D01*
X10142944Y9907158D01*
X10143599Y9907288D01*
X10143654Y9907325D01*
X10137734Y9913245D01*
X10131814Y9919164D01*
D02*
G37*
G36*
X9918280Y9884883D02*
X9909280D01*
X9907029Y9884435D01*
X9905120Y9883160D01*
X9903845Y9881251D01*
X9903397Y9879000D01*
X9903845Y9876749D01*
X9905120Y9874840D01*
X9907029Y9873565D01*
X9909280Y9873117D01*
X9918280D01*
X9920531Y9873565D01*
X9922440Y9874840D01*
X9923715Y9876749D01*
X9924163Y9879000D01*
X9923715Y9881251D01*
X9922440Y9883160D01*
X9920531Y9884435D01*
X9918280Y9884883D01*
D02*
G37*
G36*
X9879780D02*
X9867780D01*
X9865529Y9884435D01*
X9863620Y9883160D01*
X9862345Y9881251D01*
X9861897Y9879000D01*
X9862345Y9876749D01*
X9863620Y9874840D01*
X9865529Y9873565D01*
X9867780Y9873117D01*
X9879780D01*
X9882031Y9873565D01*
X9883940Y9874840D01*
X9885215Y9876749D01*
X9885663Y9879000D01*
X9885215Y9881251D01*
X9883940Y9883160D01*
X9882031Y9884435D01*
X9879780Y9884883D01*
D02*
G37*
G36*
X9920000Y9899393D02*
X9917554Y9898906D01*
X9915480Y9897520D01*
X9914094Y9895446D01*
X9913607Y9893000D01*
X9914094Y9890554D01*
X9915480Y9888480D01*
X9917554Y9887094D01*
X9920000Y9886607D01*
X9922446Y9887094D01*
X9922874Y9887379D01*
X9929557Y9880696D01*
Y9873247D01*
X9927787Y9871476D01*
X9927719Y9871530D01*
X9925828Y9872312D01*
X9923800Y9872579D01*
X9921772Y9872312D01*
X9919882Y9871530D01*
X9918259Y9870284D01*
X9917013Y9868661D01*
X9916230Y9866771D01*
X9915963Y9864742D01*
X9916230Y9862714D01*
X9917013Y9860824D01*
X9918259Y9859200D01*
X9919882Y9857955D01*
X9921772Y9857172D01*
X9923800Y9856905D01*
X9925828Y9857172D01*
X9927719Y9857955D01*
X9929341Y9859200D01*
X9930587Y9860824D01*
X9931370Y9862714D01*
X9931637Y9864742D01*
X9931370Y9866771D01*
X9930587Y9868661D01*
X9930534Y9868730D01*
X9932874Y9871069D01*
X9933295Y9871699D01*
X9933442Y9872442D01*
Y9881500D01*
X9933295Y9882244D01*
X9932874Y9882874D01*
X9925621Y9890126D01*
X9925906Y9890554D01*
X9926393Y9893000D01*
X9925906Y9895446D01*
X9924520Y9897520D01*
X9922446Y9898906D01*
X9920000Y9899393D01*
D02*
G37*
G36*
X9950217Y9872446D02*
Y9865758D01*
X9956903D01*
X9956770Y9866771D01*
X9955987Y9868661D01*
X9954742Y9870284D01*
X9953118Y9871530D01*
X9951229Y9872312D01*
X9950217Y9872446D01*
D02*
G37*
G36*
X9948185Y9872446D02*
X9947172Y9872312D01*
X9945281Y9871530D01*
X9943658Y9870284D01*
X9942413Y9868661D01*
X9941630Y9866771D01*
X9941497Y9865758D01*
X9948185D01*
Y9872446D01*
D02*
G37*
G36*
X9949200Y9864742D02*
D01*
D01*
D01*
D02*
G37*
G36*
X9956903Y9863726D02*
X9950217D01*
Y9857039D01*
X9951229Y9857172D01*
X9953118Y9857955D01*
X9954742Y9859200D01*
X9955987Y9860824D01*
X9956770Y9862714D01*
X9956903Y9863726D01*
D02*
G37*
G36*
X9948185D02*
X9941497D01*
X9941630Y9862714D01*
X9942413Y9860824D01*
X9943658Y9859200D01*
X9945281Y9857955D01*
X9947172Y9857172D01*
X9948185Y9857039D01*
Y9863726D01*
D02*
G37*
G36*
X9974600Y9872579D02*
X9972571Y9872312D01*
X9970682Y9871530D01*
X9969058Y9870284D01*
X9967813Y9868661D01*
X9967030Y9866771D01*
X9966763Y9864742D01*
X9967030Y9862714D01*
X9967813Y9860824D01*
X9969058Y9859200D01*
X9970682Y9857955D01*
X9972571Y9857172D01*
X9974600Y9856905D01*
X9976628Y9857172D01*
X9978519Y9857955D01*
X9980142Y9859200D01*
X9981387Y9860824D01*
X9982170Y9862714D01*
X9982437Y9864742D01*
X9982170Y9866771D01*
X9981387Y9868661D01*
X9980142Y9870284D01*
X9978519Y9871530D01*
X9976628Y9872312D01*
X9974600Y9872579D01*
D02*
G37*
G36*
X10050707Y9869620D02*
X10048505D01*
Y9865008D01*
X10052116D01*
Y9868210D01*
X10051703Y9869207D01*
X10050707Y9869620D01*
D02*
G37*
G36*
X10046473D02*
X10044271D01*
X10043275Y9869207D01*
X10042862Y9868210D01*
Y9865008D01*
X10046473D01*
Y9869620D01*
D02*
G37*
G36*
X10052116Y9862976D02*
X10048505D01*
Y9858365D01*
X10050707D01*
X10051703Y9858778D01*
X10052116Y9859775D01*
Y9862976D01*
D02*
G37*
G36*
X10046473D02*
X10042862D01*
Y9859775D01*
X10043275Y9858778D01*
X10044271Y9858365D01*
X10046473D01*
Y9862976D01*
D02*
G37*
%LPD*%
D10*
X9911175Y9962930D02*
G03*
X9902447Y9969995I-9595J-2930D01*
G01*
X9901667Y9970353D02*
G03*
X9902447Y9969995I890J906D01*
G01*
X9911174Y9962930D02*
G03*
X9911491Y9962403I1215J371D01*
G01*
X10124310Y9948965D02*
X10130060Y9954714D01*
Y9958193D02*
X10131664Y9959797D01*
X10130060Y9954714D02*
Y9958193D01*
X10124310Y9948965D02*
Y9948965D01*
X10068828Y10063398D02*
X10077347Y10071918D01*
X10068828Y10085922D02*
X10077347Y10077403D01*
Y10071918D02*
Y10077403D01*
X10068751Y10085999D02*
X10090876Y10108124D01*
X10068751Y10085999D02*
X10068828Y10085922D01*
X10047162Y10107588D02*
X10068751Y10085999D01*
X10068828Y10046636D02*
Y10063398D01*
X10071368Y10062346D02*
X10079347Y10070325D01*
X10084675D02*
X10092999Y10062001D01*
X10079347Y10070325D02*
X10084675D01*
X10071368Y10047689D02*
Y10062346D01*
X10096254Y9871764D02*
X10099562Y9875072D01*
X10087867Y9852413D02*
X10096254Y9860800D01*
Y9871764D01*
X10002245Y9852413D02*
X10087867D01*
X10000000Y9854658D02*
Y9864742D01*
Y9854658D02*
X10002245Y9852413D01*
X10025400Y9873900D02*
X10028461Y9876961D01*
X10041660D02*
X10045516Y9873105D01*
X10028461Y9876961D02*
X10041660D01*
X10062593Y9873105D02*
X10071631Y9882143D01*
X10045516Y9873105D02*
X10062593D01*
X10047162Y10107588D02*
Y10107588D01*
X9991750Y10107724D02*
X10009406D01*
X9956743Y10058742D02*
Y10091035D01*
X9982498Y10116791D02*
X10010565D01*
X9956743Y10091035D02*
X9982498Y10116791D01*
X10010565D02*
X10050236Y10077120D01*
X10009406Y10107724D02*
X10041225Y10075905D01*
Y10055110D02*
Y10075905D01*
X10050236Y10055716D02*
Y10077120D01*
X10125046Y9985354D02*
X10131664Y9978736D01*
X10071368Y10047689D02*
X10125046Y9994010D01*
Y9985354D02*
Y9994010D01*
X10131664Y9959797D02*
Y9978736D01*
X10122506Y9984302D02*
X10129124Y9977684D01*
Y9960850D02*
Y9977684D01*
X10122506Y9984302D02*
Y9992958D01*
X10068828Y10046636D02*
X10122506Y9992958D01*
X10123936Y9962732D02*
Y9975248D01*
X10117219Y9981965D02*
X10123936Y9975248D01*
X10117239Y9956036D02*
X10123936Y9962732D01*
X10050236Y10055716D02*
X10117219Y9988732D01*
Y9981965D02*
Y9988732D01*
X9898500Y10007155D02*
Y10021071D01*
Y9973521D02*
Y10007155D01*
X9901659Y9970362D02*
X9901667Y9970353D01*
X9902447Y9969995D02*
X9902447Y9969995D01*
X9898500Y9973521D02*
X9901659Y9970362D01*
X10007000Y10126161D02*
X10007013Y10126148D01*
X10020650D02*
X10020650Y10126148D01*
X10007013Y10126148D02*
X10020650D01*
X10041225Y10055110D02*
X10110867Y9985468D01*
Y9977948D02*
Y9985468D01*
X10103098Y9970178D02*
X10110867Y9977948D01*
X9960510Y9939464D02*
X9974973Y9925000D01*
X9957764Y9947336D02*
X9960510Y9944590D01*
Y9939464D02*
Y9944590D01*
X9974973Y9925000D02*
X9975000D01*
X9920000Y9893000D02*
X9920000D01*
X9931500Y9881500D01*
Y9872442D02*
Y9881500D01*
X9911174Y9962930D02*
X9911175D01*
X9911491Y9962403D02*
X9911614Y9962280D01*
X9911616Y9962278D01*
X9917394Y9956500D01*
X9919250D01*
X9923800Y9864742D02*
X9931500Y9872442D01*
X9949250Y10051250D02*
X9956743Y10058742D01*
X9910186Y10051250D02*
X9949250D01*
X10092999Y10062001D02*
X10115623Y10084626D01*
X10092999Y10062001D02*
X10114338Y10040662D01*
X10115623Y10084626D02*
X10115624D01*
X10120775Y9952501D02*
X10129124Y9960850D01*
X10114338Y10040413D02*
Y10040662D01*
X9898500Y10021071D02*
Y10039564D01*
X10015547Y9854953D02*
X10075850D01*
X10012329Y9858171D02*
X10015547Y9854953D01*
X10075850D02*
X10089250Y9868353D01*
Y9895343D01*
X10069178Y9900903D02*
X10083690D01*
X10089250Y9895343D01*
X10061025Y9892750D02*
X10069178Y9900903D01*
X10061025Y9892750D02*
X10061025D01*
X10012329Y9858171D02*
Y9873900D01*
X10009479Y9876750D02*
X10012329Y9873900D01*
X9988250Y9876750D02*
X10009479D01*
X10025400Y9864742D02*
Y9873900D01*
X10007764Y9977264D02*
X10013710Y9983210D01*
X10030258D02*
X10051230Y9962238D01*
X10013710Y9983210D02*
X10030258D01*
X10051230Y9958759D02*
Y9962238D01*
Y9958759D02*
X10057489Y9952501D01*
X10032363Y9988290D02*
X10054822Y9965830D01*
X10058301D02*
X10064560Y9959572D01*
X10054822Y9965830D02*
X10058301D01*
X10025000Y9992061D02*
X10028770Y9988290D01*
X10025000Y9992061D02*
Y10039500D01*
X10028770Y9988290D02*
X10032363D01*
X10007764Y9961335D02*
Y9977264D01*
X10031310Y9985750D02*
X10061025Y9956036D01*
X9980500Y9985750D02*
X10031310D01*
X9971764Y9977014D02*
X9980500Y9985750D01*
X9971764Y9960355D02*
Y9977014D01*
X9994745Y9961836D02*
X9994871Y9961710D01*
X10007390D01*
X10007764Y9961335D01*
X9971764Y9947336D02*
Y9960355D01*
X10007764Y9942236D02*
X10025000Y9925000D01*
X10007764Y9942236D02*
Y9947336D01*
X10012006Y10039500D02*
X10025000D01*
Y10053500D02*
Y10070000D01*
X9898500Y10039564D02*
X9910186Y10051250D01*
D11*
X10138453Y9934823D02*
D03*
X10134917Y9938358D02*
D03*
X10131382Y9941894D02*
D03*
X10127846Y9945429D02*
D03*
X10124310Y9948965D02*
D03*
X10120775Y9952501D02*
D03*
X10117239Y9956036D02*
D03*
X10113704Y9959572D02*
D03*
X10110168Y9963107D02*
D03*
X10106633Y9966642D02*
D03*
X10103098Y9970178D02*
D03*
X10099562Y9973713D02*
D03*
X10039811Y9913963D02*
D03*
X10043347Y9910427D02*
D03*
X10046882Y9906892D02*
D03*
X10050418Y9903356D02*
D03*
X10053953Y9899821D02*
D03*
X10057489Y9896285D02*
D03*
X10061025Y9892750D02*
D03*
X10064560Y9889214D02*
D03*
X10068096Y9885679D02*
D03*
X10071631Y9882143D02*
D03*
X10075167Y9878608D02*
D03*
X10078702Y9875072D02*
D03*
D12*
Y9973713D02*
D03*
X10075167Y9970178D02*
D03*
X10071631Y9966642D02*
D03*
X10068096Y9963107D02*
D03*
X10064560Y9959572D02*
D03*
X10061025Y9956036D02*
D03*
X10057489Y9952501D02*
D03*
X10053953Y9948965D02*
D03*
X10050418Y9945429D02*
D03*
X10046882Y9941894D02*
D03*
X10043347Y9938358D02*
D03*
X10039811Y9934823D02*
D03*
X10099562Y9875072D02*
D03*
X10103098Y9878608D02*
D03*
X10106633Y9882143D02*
D03*
X10110168Y9885679D02*
D03*
X10113704Y9889214D02*
D03*
X10117239Y9892750D02*
D03*
X10120775Y9896285D02*
D03*
X10124310Y9899821D02*
D03*
X10127846Y9903356D02*
D03*
X10131382Y9906892D02*
D03*
X10134917Y9910427D02*
D03*
X10138453Y9913963D02*
D03*
D13*
X9924250Y10039500D02*
D03*
Y10062500D02*
D03*
Y10085500D02*
D03*
D14*
X9865750Y10062500D02*
D03*
D15*
X10006710Y9903356D02*
D03*
X10020710D02*
D03*
Y9890750D02*
D03*
X10006710D02*
D03*
X9898500Y10021071D02*
D03*
X9884500D02*
D03*
X9957764Y9947336D02*
D03*
X9971764D02*
D03*
X10007000Y10126161D02*
D03*
X9993000D02*
D03*
D16*
X9988250Y9876500D02*
D03*
Y9890500D02*
D03*
X10007764Y9961335D02*
D03*
Y9947336D02*
D03*
X10025000Y10053500D02*
D03*
Y10039500D02*
D03*
D17*
X10047162Y10107588D02*
D03*
X10114338Y10040413D02*
D03*
D18*
X9898500Y10007155D02*
D03*
X9884000D02*
D03*
X10047489Y9863992D02*
D03*
X10061989D02*
D03*
X9971764Y9960355D02*
D03*
X9957264D02*
D03*
D19*
X10141000Y9957434D02*
D03*
Y9971934D02*
D03*
X10025000Y9967000D02*
D03*
Y9952501D02*
D03*
X10012006Y10054000D02*
D03*
Y10039500D02*
D03*
X9994745Y9947336D02*
D03*
Y9961836D02*
D03*
D20*
X10090876Y10108124D02*
D03*
X10080623Y10118376D02*
D03*
X10125876Y10074374D02*
D03*
X10115624Y10084626D02*
D03*
D21*
X9924500Y10107000D02*
D03*
X9898000D02*
D03*
X9992041Y10039500D02*
D03*
X9965541D02*
D03*
D22*
X9919280Y9941500D02*
D03*
Y9915500D02*
D03*
Y9935000D02*
D03*
Y9928500D02*
D03*
Y9922000D02*
D03*
D23*
X9924500Y10107000D02*
Y10128250D01*
Y10085750D02*
Y10107000D01*
X10140500Y10022684D02*
X10141840Y10024023D01*
X10140500Y9994750D02*
Y10022684D01*
X10141840Y10024023D02*
Y10034616D01*
X10140471Y10035984D02*
Y10088279D01*
Y10035984D02*
X10141840Y10034616D01*
X10087750Y10141000D02*
X10140471Y10088279D01*
X9993000Y10141000D02*
X10087750D01*
X9937250D02*
X9993000D01*
X9924500Y10128250D02*
X9937250Y10141000D01*
X9924250Y10085500D02*
X9924500Y10085750D01*
D24*
X10061989Y9863992D02*
X10068837D01*
X10070972Y9861858D01*
X10072990D01*
X9993000Y10126161D02*
Y10141000D01*
X9993000Y10141000D02*
X9993000Y10141000D01*
X10105009Y9928394D02*
X10132024D01*
X10099186Y9934218D02*
X10105009Y9928394D01*
X10089029Y9924061D02*
X10099186Y9934218D01*
X10050573Y9924061D02*
X10089029D01*
X10039811Y9934823D02*
X10050573Y9924061D01*
X10132024Y9928394D02*
X10138453Y9934823D01*
X10141000Y9957434D02*
X10141770D01*
X10143750Y9955454D01*
Y9940120D02*
Y9955454D01*
X10138453Y9934823D02*
Y9934823D01*
X10143750Y9940120D01*
X10138453Y9934823D02*
X10138453D01*
X10039811D02*
X10039811D01*
X9902250Y10085500D02*
X9924250D01*
X9895250Y10078500D02*
X9902250Y10085500D01*
X9895250Y10049000D02*
Y10078500D01*
X9884500Y10038250D02*
X9895250Y10049000D01*
X9884500Y10021071D02*
Y10038250D01*
X10025000Y9952501D02*
X10025967D01*
X10027947Y9950521D01*
Y9946686D02*
Y9950521D01*
Y9946686D02*
X10039811Y9934823D01*
X10073263Y9864228D02*
Y9869633D01*
X10078702Y9875072D01*
Y9875072D01*
D25*
X9932035Y9935000D02*
X9939092D01*
X9970736Y9903356D02*
X10006710D01*
X9939092Y9935000D02*
X9970736Y9903356D01*
X9988250Y9890750D02*
X10006710D01*
X9965312D02*
X9988250D01*
X9927562Y9928500D02*
X9965312Y9890750D01*
D26*
X10099181Y9952119D02*
X10110168Y9963107D01*
X10099181Y9934222D02*
Y9952119D01*
D27*
X10028216Y9903356D02*
X10049148Y9882425D01*
X10020710Y9903356D02*
X10028216D01*
X10020710Y9890750D02*
X10036198D01*
X10047793Y9879155D02*
X10061572D01*
X10036198Y9890750D02*
X10047793Y9879155D01*
X10049148Y9882425D02*
X10057771D01*
X10064560Y9889214D01*
X10061572Y9879155D02*
X10068096Y9885679D01*
D28*
X9919280Y9935000D02*
X9932035D01*
X9919280Y9928500D02*
X9927562D01*
D29*
X9947567Y9972000D02*
X9956750D01*
X9938750Y9951870D02*
Y9963184D01*
X9947567Y9972000D01*
X9919280Y9941500D02*
X9928381D01*
X9938750Y9951870D01*
X9924250Y10039500D02*
X9965541D01*
Y9980791D02*
Y10039500D01*
X9956750Y9972000D02*
X9965541Y9980791D01*
D30*
X9913780Y9879000D02*
D03*
Y9978000D02*
D03*
D31*
X9873780D02*
D03*
Y9879000D02*
D03*
D32*
X10025000Y9925000D02*
D03*
X9975000D02*
D03*
X10000000D02*
D03*
X10025000Y10070000D02*
D03*
X9975000D02*
D03*
D33*
X9940000Y10000000D02*
D03*
D34*
X10060000D02*
D03*
D35*
X9923800Y9864742D02*
D03*
X9949200D02*
D03*
X9974600D02*
D03*
X10000000D02*
D03*
D36*
X10025400D02*
D03*
D37*
X9870000Y10130000D02*
D03*
X10130000D02*
D03*
D38*
X10140500Y9994750D02*
D03*
X10099186Y9934218D02*
D03*
X10072990Y9861858D02*
D03*
X9920000Y9893000D02*
D03*
X9919250Y9956500D02*
D03*
D39*
X9991750Y10107724D02*
D03*
X10020650Y10126148D02*
D03*
D40*
X10132533Y9986362D02*
D03*
X10119250Y10067250D02*
D03*
X10073750Y10111750D02*
D03*
X9944125Y9883405D02*
D03*
Y9891686D02*
D03*
X9935844D02*
D03*
Y9899968D02*
D03*
X9927562D02*
D03*
Y9908250D02*
D03*
X9919280D02*
D03*
X10038948Y9870266D02*
D03*
X9884000Y9996750D02*
D03*
X9865750Y10039564D02*
D03*
X9884000Y10062500D02*
D03*
X9865750Y10086250D02*
D03*
X9886250Y10107000D02*
D03*
X9898000Y10092750D02*
D03*
X9909500Y10107250D02*
D03*
X9898000Y10121250D02*
D03*
X9941500Y10062500D02*
D03*
X9907000D02*
D03*
X9924250Y10073250D02*
D03*
X9992041Y10025250D02*
D03*
X9980750Y10039500D02*
D03*
X9992041Y10054000D02*
D03*
X10011500Y10063250D02*
D03*
X9947750Y9960355D02*
D03*
X9983750Y9947750D02*
D03*
X10053214Y9930750D02*
D03*
X10035821Y9948078D02*
D03*
X10036250Y9966500D02*
D03*
X10118030Y9972802D02*
D03*
X10105867Y9949818D02*
D03*
X10115618Y9908559D02*
D03*
X10128822Y9921805D02*
D03*
X10131119Y9889471D02*
D03*
X10100306Y9901236D02*
D03*
X10083326Y9887941D02*
D03*
X10038730Y9862325D02*
D03*
%TF.MD5,db7426d2919b88799755604009f1e520*%
M02*
