%TF.GenerationSoftware,Altium Limited,Altium Designer,20.1.8 (145)*%
G04 Layer_Physical_Order=2*
G04 Layer_Color=16729670*
%FSLAX44Y44*%
%MOMM*%
%TF.SameCoordinates,BF84AABB-580B-4B44-99C5-09E2CFC6D698*%
%TF.FilePolarity,Positive*%
%TF.FileFunction,Copper,L2,Bot,Signal*%
%TF.Part,Single*%
G01*
G75*
%TA.AperFunction,Conductor*%
%ADD10C,0.1270*%
%ADD23C,0.5080*%
%TA.AperFunction,ComponentPad*%
%ADD30O,1.8000X0.9000*%
%ADD31O,2.1000X0.9000*%
%ADD32C,1.8000*%
%ADD33O,3.0000X4.5000*%
G04:AMPARAMS|DCode=34|XSize=3mm|YSize=4.5mm|CornerRadius=1.5mm|HoleSize=0mm|Usage=FLASHONLY|Rotation=180.000|XOffset=0mm|YOffset=0mm|HoleType=Round|Shape=RoundedRectangle|*
%AMROUNDEDRECTD34*
21,1,3.0000,1.5000,0,0,180.0*
21,1,0.0000,4.5000,0,0,180.0*
1,1,3.0000,0.0000,0.7500*
1,1,3.0000,0.0000,0.7500*
1,1,3.0000,0.0000,-0.7500*
1,1,3.0000,0.0000,-0.7500*
%
%ADD34ROUNDEDRECTD34*%
G04:AMPARAMS|DCode=35|XSize=1.3mm|YSize=1.3mm|CornerRadius=0.65mm|HoleSize=0mm|Usage=FLASHONLY|Rotation=180.000|XOffset=0mm|YOffset=0mm|HoleType=Round|Shape=RoundedRectangle|*
%AMROUNDEDRECTD35*
21,1,1.3000,0.0000,0,0,180.0*
21,1,0.0000,1.3000,0,0,180.0*
1,1,1.3000,0.0000,0.0000*
1,1,1.3000,0.0000,0.0000*
1,1,1.3000,0.0000,0.0000*
1,1,1.3000,0.0000,0.0000*
%
%ADD35ROUNDEDRECTD35*%
G04:AMPARAMS|DCode=36|XSize=1.3mm|YSize=1.3mm|CornerRadius=0.065mm|HoleSize=0mm|Usage=FLASHONLY|Rotation=180.000|XOffset=0mm|YOffset=0mm|HoleType=Round|Shape=RoundedRectangle|*
%AMROUNDEDRECTD36*
21,1,1.3000,1.1700,0,0,180.0*
21,1,1.1700,1.3000,0,0,180.0*
1,1,0.1300,-0.5850,0.5850*
1,1,0.1300,0.5850,0.5850*
1,1,0.1300,0.5850,-0.5850*
1,1,0.1300,-0.5850,-0.5850*
%
%ADD36ROUNDEDRECTD36*%
%TA.AperFunction,WasherPad*%
%ADD37C,2.0000*%
%TA.AperFunction,ViaPad*%
%ADD38C,1.0000*%
%ADD39C,0.8000*%
%ADD40C,0.8000*%
%TA.AperFunction,SMDPad,CuDef*%
G04:AMPARAMS|DCode=41|XSize=0.95mm|YSize=0.8mm|CornerRadius=0.004mm|HoleSize=0mm|Usage=FLASHONLY|Rotation=90.000|XOffset=0mm|YOffset=0mm|HoleType=Round|Shape=RoundedRectangle|*
%AMROUNDEDRECTD41*
21,1,0.9500,0.7920,0,0,90.0*
21,1,0.9420,0.8000,0,0,90.0*
1,1,0.0080,0.3960,0.4710*
1,1,0.0080,0.3960,-0.4710*
1,1,0.0080,-0.3960,-0.4710*
1,1,0.0080,-0.3960,0.4710*
%
%ADD41ROUNDEDRECTD41*%
G36*
X10130000Y10148182D02*
X10133547Y10147833D01*
X10136958Y10146799D01*
X10140102Y10145118D01*
X10142857Y10142857D01*
X10145118Y10140102D01*
X10146799Y10136958D01*
X10147833Y10133547D01*
X10148182Y10130000D01*
X10148187D01*
Y9870000D01*
X10148182D01*
X10147833Y9866453D01*
X10146799Y9863042D01*
X10145118Y9859898D01*
X10142857Y9857143D01*
X10140102Y9854882D01*
X10136958Y9853201D01*
X10133547Y9852167D01*
X10130000Y9851818D01*
Y9851813D01*
X10070098D01*
X10069612Y9852986D01*
X10072241Y9855615D01*
X10072990Y9855465D01*
X10075437Y9855952D01*
X10077511Y9857338D01*
X10077936Y9857974D01*
X10129630D01*
X10131116Y9858269D01*
X10132376Y9859111D01*
X10143247Y9869982D01*
X10144089Y9871242D01*
X10144385Y9872729D01*
Y9934222D01*
Y9989805D01*
X10145020Y9990229D01*
X10146406Y9992303D01*
X10146893Y9994750D01*
X10146406Y9997197D01*
X10145020Y9999271D01*
X10142946Y10000656D01*
X10140500Y10001143D01*
X10138054Y10000656D01*
X10135980Y9999271D01*
X10134594Y9997197D01*
X10134107Y9994750D01*
X10134594Y9992303D01*
X10135980Y9990229D01*
X10136616Y9989805D01*
Y9938102D01*
X10104131D01*
X10103706Y9938738D01*
X10101632Y9940124D01*
X10099186Y9940610D01*
X10096740Y9940124D01*
X10094665Y9938738D01*
X10093279Y9936664D01*
X10092793Y9934218D01*
X10093279Y9931771D01*
X10094665Y9929697D01*
X10096740Y9928312D01*
X10099186Y9927825D01*
X10101632Y9928312D01*
X10103706Y9929697D01*
X10104131Y9930333D01*
X10136616D01*
Y9874338D01*
X10128020Y9865743D01*
X10077936D01*
X10077511Y9866378D01*
X10075437Y9867764D01*
X10072990Y9868251D01*
X10070544Y9867764D01*
X10068470Y9866378D01*
X10067084Y9864304D01*
X10066597Y9861858D01*
X10066747Y9861108D01*
X10063842Y9858203D01*
X10033774D01*
X10033207Y9858892D01*
Y9870592D01*
X10033058Y9871342D01*
X10032634Y9871976D01*
X10031999Y9872401D01*
X10031250Y9872550D01*
X10019550D01*
X10018801Y9872401D01*
X10018166Y9871976D01*
X10017742Y9871342D01*
X10017592Y9870592D01*
Y9858892D01*
X10017026Y9858203D01*
X10006160D01*
X10005750Y9859473D01*
X10006787Y9860824D01*
X10007570Y9862714D01*
X10007837Y9864742D01*
X10007570Y9866771D01*
X10006787Y9868661D01*
X10005541Y9870284D01*
X10003918Y9871530D01*
X10002028Y9872312D01*
X10000000Y9872579D01*
X9997972Y9872312D01*
X9996082Y9871530D01*
X9994459Y9870284D01*
X9993213Y9868661D01*
X9992430Y9866771D01*
X9992163Y9864742D01*
X9992430Y9862714D01*
X9993213Y9860824D01*
X9994250Y9859473D01*
X9993840Y9858203D01*
X9986633D01*
X9982156Y9862680D01*
X9982170Y9862714D01*
X9982437Y9864742D01*
X9982170Y9866771D01*
X9981387Y9868661D01*
X9980142Y9870284D01*
X9978519Y9871530D01*
X9976628Y9872312D01*
X9974600Y9872579D01*
X9972571Y9872312D01*
X9970682Y9871530D01*
X9969058Y9870284D01*
X9967813Y9868661D01*
X9967030Y9866771D01*
X9966763Y9864742D01*
X9967030Y9862714D01*
X9967813Y9860824D01*
X9969058Y9859200D01*
X9970682Y9857955D01*
X9972571Y9857172D01*
X9974600Y9856905D01*
X9976628Y9857172D01*
X9976663Y9857186D01*
X9980862Y9852986D01*
X9980377Y9851813D01*
X9871270D01*
X9870000Y9851818D01*
X9870000Y9851818D01*
X9870000Y9851818D01*
X9866453Y9852167D01*
X9863042Y9853201D01*
X9859898Y9854882D01*
X9857143Y9857143D01*
X9854882Y9859898D01*
X9853201Y9863042D01*
X9852167Y9866453D01*
X9851818Y9870000D01*
X9851813D01*
Y9887488D01*
X9901580D01*
X9901580Y9887488D01*
X9902636Y9887652D01*
X9902773Y9887679D01*
X9904033Y9887845D01*
X9906319Y9888792D01*
X9907328Y9889566D01*
X9907443Y9889643D01*
X9907459Y9889667D01*
X9907651Y9889814D01*
X9907652Y9889814D01*
X9907653Y9889816D01*
X9908282Y9890298D01*
X9908765Y9890927D01*
X9908766Y9890928D01*
X9908766Y9890930D01*
X9908914Y9891121D01*
X9908937Y9891136D01*
X9909014Y9891252D01*
X9909788Y9892261D01*
X9910735Y9894547D01*
X9910901Y9895807D01*
X9910928Y9895944D01*
X9911092Y9897000D01*
X9911996Y9897877D01*
X9912266Y9897988D01*
X9914379Y9895874D01*
X9914094Y9895446D01*
X9913607Y9893000D01*
X9914094Y9890554D01*
X9915480Y9888480D01*
X9917554Y9887094D01*
X9920000Y9886607D01*
X9922446Y9887094D01*
X9924520Y9888480D01*
X9925906Y9890554D01*
X9926393Y9893000D01*
X9925906Y9895446D01*
X9924520Y9897520D01*
X9922446Y9898906D01*
X9920000Y9899393D01*
X9917554Y9898906D01*
X9917126Y9898621D01*
X9913554Y9902193D01*
Y9948057D01*
X9916376Y9950880D01*
X9916804Y9950594D01*
X9919250Y9950107D01*
X9921696Y9950594D01*
X9923770Y9951979D01*
X9925156Y9954053D01*
X9925643Y9956500D01*
X9925156Y9958947D01*
X9923770Y9961021D01*
X9921696Y9962406D01*
X9919250Y9962893D01*
X9916804Y9962406D01*
X9914730Y9961021D01*
X9913344Y9958947D01*
X9912857Y9956500D01*
X9913344Y9954053D01*
X9913629Y9953626D01*
X9912266Y9952263D01*
X9911092Y9952748D01*
Y9960000D01*
X9911042Y9960120D01*
X9910955Y9960786D01*
Y9960788D01*
X9910954Y9960789D01*
X9910923Y9961028D01*
X9910928Y9961056D01*
X9910901Y9961193D01*
X9910735Y9962453D01*
X9909788Y9964739D01*
X9909014Y9965748D01*
X9908937Y9965864D01*
X9908914Y9965879D01*
X9908766Y9966071D01*
X9908766Y9966072D01*
X9908765Y9966074D01*
X9908282Y9966702D01*
X9907653Y9967184D01*
X9907652Y9967186D01*
X9907651Y9967186D01*
X9907459Y9967333D01*
X9907443Y9967357D01*
X9907328Y9967434D01*
X9906319Y9968208D01*
X9904033Y9969155D01*
X9902773Y9969321D01*
X9902636Y9969348D01*
X9902608Y9969343D01*
X9902369Y9969374D01*
X9902368Y9969375D01*
X9902366D01*
X9901700Y9969462D01*
X9901580Y9969512D01*
X9851813D01*
Y10130000D01*
X9851818D01*
X9852167Y10133547D01*
X9853201Y10136958D01*
X9854882Y10140102D01*
X9857143Y10142857D01*
X9859898Y10145118D01*
X9863042Y10146799D01*
X9866453Y10147833D01*
X9870000Y10148182D01*
Y10148187D01*
X10130000Y10148187D01*
Y10148182D01*
D02*
G37*
%LPC*%
G36*
X10012210Y10132276D02*
X10004290D01*
X10003287Y10131861D01*
X10002872Y10130858D01*
Y10121439D01*
X10003287Y10120436D01*
X10004290Y10120020D01*
X10012210D01*
X10013213Y10120436D01*
X10013628Y10121439D01*
Y10124206D01*
X10015663D01*
X10015686Y10124092D01*
X10016851Y10122349D01*
X10018594Y10121184D01*
X10020650Y10120775D01*
X10022706Y10121184D01*
X10024450Y10122349D01*
X10025615Y10124092D01*
X10026024Y10126148D01*
X10025615Y10128204D01*
X10024450Y10129948D01*
X10022706Y10131113D01*
X10020650Y10131522D01*
X10018594Y10131113D01*
X10016851Y10129948D01*
X10015686Y10128204D01*
X10015663Y10128091D01*
X10013628D01*
Y10130858D01*
X10013213Y10131861D01*
X10012210Y10132276D01*
D02*
G37*
G36*
X10130000Y10141367D02*
X10127058Y10140980D01*
X10124316Y10139844D01*
X10121962Y10138038D01*
X10120156Y10135684D01*
X10119020Y10132942D01*
X10118633Y10130000D01*
X10119020Y10127058D01*
X10120156Y10124316D01*
X10121962Y10121962D01*
X10124316Y10120156D01*
X10127058Y10119020D01*
X10130000Y10118633D01*
X10132942Y10119020D01*
X10135684Y10120156D01*
X10138038Y10121962D01*
X10139844Y10124316D01*
X10140980Y10127058D01*
X10141367Y10130000D01*
X10140980Y10132942D01*
X10139844Y10135684D01*
X10138038Y10138038D01*
X10135684Y10139844D01*
X10132942Y10140980D01*
X10130000Y10141367D01*
D02*
G37*
G36*
X9870000D02*
X9867058Y10140980D01*
X9864316Y10139844D01*
X9861962Y10138038D01*
X9860156Y10135684D01*
X9859020Y10132942D01*
X9858633Y10130000D01*
X9859020Y10127058D01*
X9860156Y10124316D01*
X9861962Y10121962D01*
X9864316Y10120156D01*
X9867058Y10119020D01*
X9870000Y10118633D01*
X9872942Y10119020D01*
X9875684Y10120156D01*
X9878038Y10121962D01*
X9879844Y10124316D01*
X9880980Y10127058D01*
X9881367Y10130000D01*
X9880980Y10132942D01*
X9879844Y10135684D01*
X9878038Y10138038D01*
X9875684Y10139844D01*
X9872942Y10140980D01*
X9870000Y10141367D01*
D02*
G37*
G36*
X9995710Y10132276D02*
X9987790D01*
X9986787Y10131861D01*
X9986372Y10130858D01*
Y10121439D01*
X9986787Y10120436D01*
X9987790Y10120020D01*
X9989808D01*
Y10112711D01*
X9989694Y10112688D01*
X9987950Y10111523D01*
X9986786Y10109780D01*
X9986377Y10107724D01*
X9986786Y10105667D01*
X9987950Y10103924D01*
X9989694Y10102759D01*
X9991750Y10102350D01*
X9993806Y10102759D01*
X9995549Y10103924D01*
X9996714Y10105667D01*
X9997123Y10107724D01*
X9996714Y10109780D01*
X9995549Y10111523D01*
X9993806Y10112688D01*
X9993692Y10112711D01*
Y10120020D01*
X9995710D01*
X9996713Y10120436D01*
X9997128Y10121439D01*
Y10130858D01*
X9996713Y10131861D01*
X9995710Y10132276D01*
D02*
G37*
G36*
X9976016Y10080225D02*
Y10071017D01*
X9985225D01*
X9985005Y10072681D01*
X9983971Y10075179D01*
X9982325Y10077325D01*
X9980179Y10078971D01*
X9977681Y10080005D01*
X9976016Y10080225D01*
D02*
G37*
G36*
X9973984Y10080225D02*
X9972319Y10080005D01*
X9969821Y10078971D01*
X9967675Y10077325D01*
X9966029Y10075179D01*
X9964995Y10072681D01*
X9964775Y10071017D01*
X9973984D01*
Y10080225D01*
D02*
G37*
G36*
X9985225Y10068984D02*
X9976016D01*
Y10059775D01*
X9977681Y10059995D01*
X9980179Y10061029D01*
X9982325Y10062675D01*
X9983971Y10064821D01*
X9985005Y10067319D01*
X9985225Y10068984D01*
D02*
G37*
G36*
X9973984D02*
X9964775D01*
X9964995Y10067319D01*
X9966029Y10064821D01*
X9967675Y10062675D01*
X9969821Y10061029D01*
X9972319Y10059995D01*
X9973984Y10059775D01*
Y10068984D01*
D02*
G37*
G36*
X10025000Y10080359D02*
X10022319Y10080005D01*
X10019821Y10078971D01*
X10017675Y10077325D01*
X10016029Y10075179D01*
X10014995Y10072681D01*
X10014641Y10070000D01*
X10014995Y10067319D01*
X10016029Y10064821D01*
X10017675Y10062675D01*
X10019821Y10061029D01*
X10022319Y10059995D01*
X10025000Y10059641D01*
X10027681Y10059995D01*
X10030179Y10061029D01*
X10032325Y10062675D01*
X10033971Y10064821D01*
X10035005Y10067319D01*
X10035359Y10070000D01*
X10035005Y10072681D01*
X10033971Y10075179D01*
X10032325Y10077325D01*
X10030179Y10078971D01*
X10027681Y10080005D01*
X10025000Y10080359D01*
D02*
G37*
G36*
X9941016Y10023749D02*
Y10001017D01*
X9956349D01*
Y10007500D01*
X9956035Y10010690D01*
X9955104Y10013756D01*
X9953593Y10016583D01*
X9951560Y10019060D01*
X9949083Y10021093D01*
X9946256Y10022604D01*
X9943190Y10023535D01*
X9941016Y10023749D01*
D02*
G37*
G36*
X10061015Y10023749D02*
Y10001017D01*
X10076349D01*
Y10007500D01*
X10076035Y10010690D01*
X10075104Y10013756D01*
X10073593Y10016583D01*
X10071560Y10019060D01*
X10069083Y10021093D01*
X10066256Y10022604D01*
X10063190Y10023535D01*
X10061015Y10023749D01*
D02*
G37*
G36*
X10058983Y10023749D02*
X10056810Y10023535D01*
X10053744Y10022604D01*
X10050917Y10021093D01*
X10048440Y10019060D01*
X10046407Y10016583D01*
X10044896Y10013756D01*
X10043965Y10010690D01*
X10043651Y10007500D01*
Y10001017D01*
X10058983D01*
Y10023749D01*
D02*
G37*
G36*
X9938984Y10023749D02*
X9936810Y10023535D01*
X9933744Y10022604D01*
X9930917Y10021093D01*
X9928440Y10019060D01*
X9926406Y10016583D01*
X9924896Y10013756D01*
X9923965Y10010690D01*
X9923651Y10007500D01*
Y10001017D01*
X9938984D01*
Y10023749D01*
D02*
G37*
G36*
X10058983Y9998985D02*
X10043651D01*
Y9992500D01*
X10043965Y9989310D01*
X10044896Y9986244D01*
X10046407Y9983417D01*
X10048440Y9980940D01*
X10050917Y9978906D01*
X10053744Y9977396D01*
X10056810Y9976465D01*
X10058983Y9976251D01*
Y9998985D01*
D02*
G37*
G36*
X9956349D02*
X9941016D01*
Y9976251D01*
X9943190Y9976465D01*
X9946256Y9977396D01*
X9949083Y9978906D01*
X9951560Y9980940D01*
X9953593Y9983417D01*
X9955104Y9986244D01*
X9956035Y9989310D01*
X9956349Y9992500D01*
Y9998985D01*
D02*
G37*
G36*
X9938984D02*
X9923651D01*
Y9992500D01*
X9923965Y9989310D01*
X9924896Y9986244D01*
X9926406Y9983417D01*
X9928440Y9980940D01*
X9930917Y9978906D01*
X9933744Y9977396D01*
X9936810Y9976465D01*
X9938984Y9976251D01*
Y9998985D01*
D02*
G37*
G36*
X10076349D02*
X10061015D01*
Y9976251D01*
X10063190Y9976465D01*
X10066256Y9977396D01*
X10069083Y9978906D01*
X10071560Y9980940D01*
X10073593Y9983417D01*
X10075104Y9986244D01*
X10076035Y9989310D01*
X10076349Y9992500D01*
Y9998985D01*
D02*
G37*
G36*
X9918280Y9983883D02*
X9909280D01*
X9907029Y9983435D01*
X9905120Y9982160D01*
X9903845Y9980251D01*
X9903397Y9978000D01*
X9903845Y9975749D01*
X9905120Y9973840D01*
X9907029Y9972565D01*
X9909280Y9972117D01*
X9918280D01*
X9920531Y9972565D01*
X9922440Y9973840D01*
X9923715Y9975749D01*
X9924163Y9978000D01*
X9923715Y9980251D01*
X9922440Y9982160D01*
X9920531Y9983435D01*
X9918280Y9983883D01*
D02*
G37*
G36*
X9879780D02*
X9867780D01*
X9865529Y9983435D01*
X9863620Y9982160D01*
X9862345Y9980251D01*
X9861897Y9978000D01*
X9862345Y9975749D01*
X9863620Y9973840D01*
X9865529Y9972565D01*
X9867780Y9972117D01*
X9879780D01*
X9882031Y9972565D01*
X9883940Y9973840D01*
X9885215Y9975749D01*
X9885663Y9978000D01*
X9885215Y9980251D01*
X9883940Y9982160D01*
X9882031Y9983435D01*
X9879780Y9983883D01*
D02*
G37*
G36*
X10001017Y9935225D02*
Y9926016D01*
X10010225D01*
X10010005Y9927681D01*
X10008971Y9930179D01*
X10007325Y9932325D01*
X10005179Y9933971D01*
X10002681Y9935005D01*
X10001017Y9935225D01*
D02*
G37*
G36*
X9998985Y9935225D02*
X9997319Y9935005D01*
X9994821Y9933971D01*
X9992675Y9932325D01*
X9991029Y9930179D01*
X9989995Y9927681D01*
X9989775Y9926016D01*
X9998985D01*
Y9935225D01*
D02*
G37*
G36*
X10010225Y9923984D02*
X10001017D01*
Y9914775D01*
X10002681Y9914995D01*
X10005179Y9916029D01*
X10007325Y9917675D01*
X10008971Y9919821D01*
X10010005Y9922319D01*
X10010225Y9923984D01*
D02*
G37*
G36*
X9998985D02*
X9989775D01*
X9989995Y9922319D01*
X9991029Y9919821D01*
X9992675Y9917675D01*
X9994821Y9916029D01*
X9997319Y9914995D01*
X9998985Y9914775D01*
Y9923984D01*
D02*
G37*
G36*
X10025000Y9935359D02*
X10022319Y9935005D01*
X10019821Y9933971D01*
X10017675Y9932325D01*
X10016029Y9930179D01*
X10014995Y9927681D01*
X10014641Y9925000D01*
X10014995Y9922319D01*
X10016029Y9919821D01*
X10017675Y9917675D01*
X10019821Y9916029D01*
X10022319Y9914995D01*
X10025000Y9914641D01*
X10027681Y9914995D01*
X10030179Y9916029D01*
X10032325Y9917675D01*
X10033971Y9919821D01*
X10035005Y9922319D01*
X10035359Y9925000D01*
X10035005Y9927681D01*
X10033971Y9930179D01*
X10032325Y9932325D01*
X10030179Y9933971D01*
X10027681Y9935005D01*
X10025000Y9935359D01*
D02*
G37*
G36*
X9975000D02*
X9972319Y9935005D01*
X9969821Y9933971D01*
X9967675Y9932325D01*
X9966029Y9930179D01*
X9964995Y9927681D01*
X9964641Y9925000D01*
X9964995Y9922319D01*
X9966029Y9919821D01*
X9967675Y9917675D01*
X9969821Y9916029D01*
X9972319Y9914995D01*
X9975000Y9914641D01*
X9977681Y9914995D01*
X9980179Y9916029D01*
X9982325Y9917675D01*
X9983971Y9919821D01*
X9985005Y9922319D01*
X9985359Y9925000D01*
X9985005Y9927681D01*
X9983971Y9930179D01*
X9982325Y9932325D01*
X9980179Y9933971D01*
X9977681Y9935005D01*
X9975000Y9935359D01*
D02*
G37*
G36*
X9918280Y9884883D02*
X9909280D01*
X9907029Y9884435D01*
X9905120Y9883160D01*
X9903845Y9881251D01*
X9903397Y9879000D01*
X9903845Y9876749D01*
X9905120Y9874840D01*
X9907029Y9873565D01*
X9909280Y9873117D01*
X9918280D01*
X9920531Y9873565D01*
X9922440Y9874840D01*
X9923715Y9876749D01*
X9924163Y9879000D01*
X9923715Y9881251D01*
X9922440Y9883160D01*
X9920531Y9884435D01*
X9918280Y9884883D01*
D02*
G37*
G36*
X9879780D02*
X9867780D01*
X9865529Y9884435D01*
X9863620Y9883160D01*
X9862345Y9881251D01*
X9861897Y9879000D01*
X9862345Y9876749D01*
X9863620Y9874840D01*
X9865529Y9873565D01*
X9867780Y9873117D01*
X9879780D01*
X9882031Y9873565D01*
X9883940Y9874840D01*
X9885215Y9876749D01*
X9885663Y9879000D01*
X9885215Y9881251D01*
X9883940Y9883160D01*
X9882031Y9884435D01*
X9879780Y9884883D01*
D02*
G37*
G36*
X9950217Y9872446D02*
Y9865758D01*
X9956903D01*
X9956770Y9866771D01*
X9955987Y9868661D01*
X9954742Y9870284D01*
X9953118Y9871530D01*
X9951229Y9872312D01*
X9950217Y9872446D01*
D02*
G37*
G36*
X9948185Y9872446D02*
X9947172Y9872312D01*
X9945281Y9871530D01*
X9943658Y9870284D01*
X9942413Y9868661D01*
X9941630Y9866771D01*
X9941497Y9865758D01*
X9948185D01*
Y9872446D01*
D02*
G37*
G36*
X9949200Y9864742D02*
D01*
D01*
D01*
D02*
G37*
G36*
X9956903Y9863726D02*
X9950217D01*
Y9857039D01*
X9951229Y9857172D01*
X9953118Y9857955D01*
X9954742Y9859200D01*
X9955987Y9860824D01*
X9956770Y9862714D01*
X9956903Y9863726D01*
D02*
G37*
G36*
X9948185D02*
X9941497D01*
X9941630Y9862714D01*
X9942413Y9860824D01*
X9943658Y9859200D01*
X9945281Y9857955D01*
X9947172Y9857172D01*
X9948185Y9857039D01*
Y9863726D01*
D02*
G37*
G36*
X9923800Y9872579D02*
X9921772Y9872312D01*
X9919882Y9871530D01*
X9918259Y9870284D01*
X9917013Y9868661D01*
X9916230Y9866771D01*
X9915963Y9864742D01*
X9916230Y9862714D01*
X9917013Y9860824D01*
X9918259Y9859200D01*
X9919882Y9857955D01*
X9921772Y9857172D01*
X9923800Y9856905D01*
X9925828Y9857172D01*
X9927719Y9857955D01*
X9929341Y9859200D01*
X9930587Y9860824D01*
X9931370Y9862714D01*
X9931637Y9864742D01*
X9931370Y9866771D01*
X9930587Y9868661D01*
X9929341Y9870284D01*
X9927719Y9871530D01*
X9925828Y9872312D01*
X9923800Y9872579D01*
D02*
G37*
%LPD*%
D10*
X9991750Y10107724D02*
Y10126148D01*
X10008250D02*
X10020650D01*
X9920000Y9893000D02*
Y9893000D01*
X9911612Y9901388D02*
Y9948862D01*
Y9901388D02*
X9920000Y9893000D01*
X9911612Y9948862D02*
X9919250Y9956500D01*
D23*
X9974600Y9864742D02*
X9985024Y9854318D01*
X10065450D02*
X10072990Y9861858D01*
X9985024Y9854318D02*
X10065450D01*
X10140500Y9934222D02*
Y9994750D01*
X10099186Y9934218D02*
X10140495D01*
X10140500Y9934222D01*
Y9872729D02*
Y9934222D01*
X10129630Y9861858D02*
X10140500Y9872729D01*
X10072990Y9861858D02*
X10129630D01*
D30*
X9913780Y9879000D02*
D03*
Y9978000D02*
D03*
D31*
X9873780D02*
D03*
Y9879000D02*
D03*
D32*
X10025000Y9925000D02*
D03*
X9975000D02*
D03*
X10000000D02*
D03*
X10025000Y10070000D02*
D03*
X9975000D02*
D03*
D33*
X9940000Y10000000D02*
D03*
D34*
X10060000D02*
D03*
D35*
X9923800Y9864742D02*
D03*
X9949200D02*
D03*
X9974600D02*
D03*
X10000000D02*
D03*
D36*
X10025400D02*
D03*
D37*
X9870000Y10130000D02*
D03*
X10130000D02*
D03*
D38*
X10140500Y9994750D02*
D03*
X10099186Y9934218D02*
D03*
X10072990Y9861858D02*
D03*
X9920000Y9893000D02*
D03*
X9919250Y9956500D02*
D03*
D39*
X9991750Y10107724D02*
D03*
X10020650Y10126148D02*
D03*
D40*
X10132533Y9986362D02*
D03*
X10119250Y10067250D02*
D03*
X10073750Y10111750D02*
D03*
X9944125Y9883405D02*
D03*
Y9891686D02*
D03*
X9935844D02*
D03*
Y9899968D02*
D03*
X9927562D02*
D03*
Y9908250D02*
D03*
X9919280D02*
D03*
X10038948Y9870266D02*
D03*
X9884000Y9996750D02*
D03*
X9865750Y10039564D02*
D03*
X9884000Y10062500D02*
D03*
X9865750Y10086250D02*
D03*
X9886250Y10107000D02*
D03*
X9898000Y10092750D02*
D03*
X9909500Y10107250D02*
D03*
X9898000Y10121250D02*
D03*
X9941500Y10062500D02*
D03*
X9907000D02*
D03*
X9924250Y10073250D02*
D03*
X9992041Y10025250D02*
D03*
X9980750Y10039500D02*
D03*
X9992041Y10054000D02*
D03*
X10011500Y10063250D02*
D03*
X9947750Y9960355D02*
D03*
X9983750Y9947750D02*
D03*
X10053214Y9930750D02*
D03*
X10035821Y9948078D02*
D03*
X10036250Y9966500D02*
D03*
X10118030Y9972802D02*
D03*
X10105867Y9949818D02*
D03*
X10115618Y9908559D02*
D03*
X10128822Y9921805D02*
D03*
X10131119Y9889471D02*
D03*
X10100306Y9901236D02*
D03*
X10083326Y9887941D02*
D03*
X10038730Y9862325D02*
D03*
D41*
X10008250Y10126148D02*
D03*
X9991750D02*
D03*
%TF.MD5,c73ea92ac37625487cf942807d4683ee*%
M02*
