%TF.GenerationSoftware,Altium Limited,Altium Designer,20.1.8 (145)*%
G04 Layer_Color=15790320*
%FSLAX44Y44*%
%MOMM*%
%TF.SameCoordinates,BF84AABB-580B-4B44-99C5-09E2CFC6D698*%
%TF.FilePolarity,Positive*%
%TF.FileFunction,Legend,Bot*%
%TF.Part,Single*%
G01*
G75*
%TA.AperFunction,NonConductor*%
%ADD42C,0.1000*%
%ADD43C,0.2540*%
D42*
X10014871Y10133019D02*
G03*
X10014871Y10133019I-500J0D01*
G01*
D43*
X10026151Y9911370D02*
G03*
X10026151Y9911370I-821J0D01*
G01*
X10062000Y10026000D02*
Y10067000D01*
Y9933000D02*
Y9974000D01*
X9938000Y10026000D02*
Y10067000D01*
Y9933000D02*
Y9974000D01*
X10006664Y10145999D02*
Y10136002D01*
X10001666D01*
X10000000Y10137668D01*
Y10144332D01*
X10001666Y10145999D01*
X10006664D01*
X9996667Y10136002D02*
X9993336D01*
X9995002D01*
Y10145999D01*
X9996667Y10144332D01*
X9951497Y10082241D02*
X9958161D01*
Y10072244D01*
X9951497D01*
X9958161Y10077242D02*
X9954829D01*
X9948165Y10072244D02*
Y10082241D01*
X9941500Y10072244D01*
Y10082241D01*
X9931503Y10080574D02*
X9933170Y10082241D01*
X9936501D01*
X9938168Y10080574D01*
Y10073910D01*
X9936501Y10072244D01*
X9933170D01*
X9931503Y10073910D01*
X9928171Y10072244D02*
X9924839D01*
X9926505D01*
Y10082241D01*
X9928171Y10080574D01*
%TF.MD5,c64abd9336d65782110de39a90cf8b41*%
M02*
