%TF.GenerationSoftware,Altium Limited,Altium Designer,20.1.8 (145)*%
G04 Layer_Color=0*
%FSLAX44Y44*%
%MOMM*%
%TF.SameCoordinates,BF84AABB-580B-4B44-99C5-09E2CFC6D698*%
%TF.FilePolarity,Positive*%
%TF.FileFunction,Profile,NP*%
%TF.Part,Single*%
G01*
G75*
%TA.AperFunction,Profile*%
%ADD66C,0.0254*%
G36*
X9849982Y9968000D02*
X9901580D01*
X9902368D01*
X9903914Y9967693D01*
X9905369Y9967089D01*
X9906680Y9966214D01*
X9907794Y9965099D01*
X9908669Y9963790D01*
X9909272Y9962333D01*
X9909580Y9960788D01*
Y9960000D01*
D01*
Y9897000D01*
Y9896212D01*
X9909272Y9894667D01*
X9908669Y9893210D01*
X9907794Y9891901D01*
X9906680Y9890786D01*
X9905369Y9889910D01*
X9903914Y9889307D01*
X9902368Y9889000D01*
X9901580D01*
D01*
X9849982D01*
Y9968000D01*
D02*
G37*
D66*
X9850000Y9870000D02*
Y10130000D01*
D02*
G02*
X9870000Y10150000I20000J0D01*
G01*
Y10150000D01*
X10130000Y10150000D01*
D02*
G02*
X10150000Y10130000I0J-20000D01*
G01*
Y9870000D01*
D02*
G02*
X10130000Y9850000I-20000J0D01*
G01*
X9870000Y9850000D01*
Y9850000D01*
D02*
G02*
X9850000Y9870000I0J20000D01*
G01*
%TF.MD5,42dbecdd6a5d3b460f319d0d935ff3e3*%
M02*
