%TF.GenerationSoftware,Altium Limited,Altium Designer,20.1.8 (145)*%
G04 Layer_Color=8421504*
%FSLAX44Y44*%
%MOMM*%
%TF.SameCoordinates,BF84AABB-580B-4B44-99C5-09E2CFC6D698*%
%TF.FilePolarity,Positive*%
%TF.FileFunction,Paste,Top*%
%TF.Part,Single*%
G01*
G75*
%TA.AperFunction,SMDPad,CuDef*%
G04:AMPARAMS|DCode=11|XSize=0.3mm|YSize=1.45mm|CornerRadius=0mm|HoleSize=0mm|Usage=FLASHONLY|Rotation=315.000|XOffset=0mm|YOffset=0mm|HoleType=Round|Shape=Round|*
%AMOVALD11*
21,1,1.1500,0.3000,0.0000,0.0000,45.0*
1,1,0.3000,-0.4066,-0.4066*
1,1,0.3000,0.4066,0.4066*
%
%ADD11OVALD11*%

G04:AMPARAMS|DCode=12|XSize=0.3mm|YSize=1.45mm|CornerRadius=0mm|HoleSize=0mm|Usage=FLASHONLY|Rotation=225.000|XOffset=0mm|YOffset=0mm|HoleType=Round|Shape=Round|*
%AMOVALD12*
21,1,1.1500,0.3000,0.0000,0.0000,315.0*
1,1,0.3000,-0.4066,0.4066*
1,1,0.3000,0.4066,-0.4066*
%
%ADD12OVALD12*%

G04:AMPARAMS|DCode=13|XSize=1mm|YSize=2.15mm|CornerRadius=0.005mm|HoleSize=0mm|Usage=FLASHONLY|Rotation=270.000|XOffset=0mm|YOffset=0mm|HoleType=Round|Shape=RoundedRectangle|*
%AMROUNDEDRECTD13*
21,1,1.0000,2.1400,0,0,270.0*
21,1,0.9900,2.1500,0,0,270.0*
1,1,0.0100,-1.0700,-0.4950*
1,1,0.0100,-1.0700,0.4950*
1,1,0.0100,1.0700,0.4950*
1,1,0.0100,1.0700,-0.4950*
%
%ADD13ROUNDEDRECTD13*%
G04:AMPARAMS|DCode=14|XSize=3.25mm|YSize=2.15mm|CornerRadius=0.0108mm|HoleSize=0mm|Usage=FLASHONLY|Rotation=270.000|XOffset=0mm|YOffset=0mm|HoleType=Round|Shape=RoundedRectangle|*
%AMROUNDEDRECTD14*
21,1,3.2500,2.1285,0,0,270.0*
21,1,3.2285,2.1500,0,0,270.0*
1,1,0.0215,-1.0642,-1.6143*
1,1,0.0215,-1.0642,1.6143*
1,1,0.0215,1.0642,1.6143*
1,1,0.0215,1.0642,-1.6143*
%
%ADD14ROUNDEDRECTD14*%
G04:AMPARAMS|DCode=15|XSize=0.8mm|YSize=0.7mm|CornerRadius=0.0035mm|HoleSize=0mm|Usage=FLASHONLY|Rotation=270.000|XOffset=0mm|YOffset=0mm|HoleType=Round|Shape=RoundedRectangle|*
%AMROUNDEDRECTD15*
21,1,0.8000,0.6930,0,0,270.0*
21,1,0.7930,0.7000,0,0,270.0*
1,1,0.0070,-0.3465,-0.3965*
1,1,0.0070,-0.3465,0.3965*
1,1,0.0070,0.3465,0.3965*
1,1,0.0070,0.3465,-0.3965*
%
%ADD15ROUNDEDRECTD15*%
G04:AMPARAMS|DCode=16|XSize=0.8mm|YSize=0.7mm|CornerRadius=0.0035mm|HoleSize=0mm|Usage=FLASHONLY|Rotation=0.000|XOffset=0mm|YOffset=0mm|HoleType=Round|Shape=RoundedRectangle|*
%AMROUNDEDRECTD16*
21,1,0.8000,0.6930,0,0,0.0*
21,1,0.7930,0.7000,0,0,0.0*
1,1,0.0070,0.3965,-0.3465*
1,1,0.0070,-0.3965,-0.3465*
1,1,0.0070,-0.3965,0.3465*
1,1,0.0070,0.3965,0.3465*
%
%ADD16ROUNDEDRECTD16*%
G04:AMPARAMS|DCode=17|XSize=4.5mm|YSize=1.3mm|CornerRadius=0.1625mm|HoleSize=0mm|Usage=FLASHONLY|Rotation=135.000|XOffset=0mm|YOffset=0mm|HoleType=Round|Shape=RoundedRectangle|*
%AMROUNDEDRECTD17*
21,1,4.5000,0.9750,0,0,135.0*
21,1,4.1750,1.3000,0,0,135.0*
1,1,0.3250,-1.1314,1.8208*
1,1,0.3250,1.8208,-1.1314*
1,1,0.3250,1.1314,-1.8208*
1,1,0.3250,-1.8208,1.1314*
%
%ADD17ROUNDEDRECTD17*%
G04:AMPARAMS|DCode=18|XSize=0.85mm|YSize=0.65mm|CornerRadius=0.0033mm|HoleSize=0mm|Usage=FLASHONLY|Rotation=90.000|XOffset=0mm|YOffset=0mm|HoleType=Round|Shape=RoundedRectangle|*
%AMROUNDEDRECTD18*
21,1,0.8500,0.6435,0,0,90.0*
21,1,0.8435,0.6500,0,0,90.0*
1,1,0.0065,0.3218,0.4218*
1,1,0.0065,0.3218,-0.4218*
1,1,0.0065,-0.3218,-0.4218*
1,1,0.0065,-0.3218,0.4218*
%
%ADD18ROUNDEDRECTD18*%
G04:AMPARAMS|DCode=19|XSize=0.85mm|YSize=0.65mm|CornerRadius=0.0033mm|HoleSize=0mm|Usage=FLASHONLY|Rotation=0.000|XOffset=0mm|YOffset=0mm|HoleType=Round|Shape=RoundedRectangle|*
%AMROUNDEDRECTD19*
21,1,0.8500,0.6435,0,0,0.0*
21,1,0.8435,0.6500,0,0,0.0*
1,1,0.0065,0.4218,-0.3218*
1,1,0.0065,-0.4218,-0.3218*
1,1,0.0065,-0.4218,0.3218*
1,1,0.0065,0.4218,0.3218*
%
%ADD19ROUNDEDRECTD19*%
G04:AMPARAMS|DCode=20|XSize=0.85mm|YSize=0.65mm|CornerRadius=0.0033mm|HoleSize=0mm|Usage=FLASHONLY|Rotation=45.000|XOffset=0mm|YOffset=0mm|HoleType=Round|Shape=RoundedRectangle|*
%AMROUNDEDRECTD20*
21,1,0.8500,0.6435,0,0,45.0*
21,1,0.8435,0.6500,0,0,45.0*
1,1,0.0065,0.5257,0.0707*
1,1,0.0065,-0.0707,-0.5257*
1,1,0.0065,-0.5257,-0.0707*
1,1,0.0065,0.0707,0.5257*
%
%ADD20ROUNDEDRECTD20*%
G04:AMPARAMS|DCode=21|XSize=1.65mm|YSize=1.05mm|CornerRadius=0.0053mm|HoleSize=0mm|Usage=FLASHONLY|Rotation=90.000|XOffset=0mm|YOffset=0mm|HoleType=Round|Shape=RoundedRectangle|*
%AMROUNDEDRECTD21*
21,1,1.6500,1.0395,0,0,90.0*
21,1,1.6395,1.0500,0,0,90.0*
1,1,0.0105,0.5198,0.8198*
1,1,0.0105,0.5198,-0.8198*
1,1,0.0105,-0.5198,-0.8198*
1,1,0.0105,-0.5198,0.8198*
%
%ADD21ROUNDEDRECTD21*%
%ADD22R,1.1000X0.4000*%
D11*
X10138453Y9934823D02*
D03*
X10134917Y9938358D02*
D03*
X10131382Y9941894D02*
D03*
X10127846Y9945429D02*
D03*
X10124310Y9948965D02*
D03*
X10120775Y9952501D02*
D03*
X10117239Y9956036D02*
D03*
X10113704Y9959572D02*
D03*
X10110168Y9963107D02*
D03*
X10106633Y9966642D02*
D03*
X10103098Y9970178D02*
D03*
X10099562Y9973713D02*
D03*
X10039811Y9913963D02*
D03*
X10043347Y9910427D02*
D03*
X10046882Y9906892D02*
D03*
X10050418Y9903356D02*
D03*
X10053953Y9899821D02*
D03*
X10057489Y9896285D02*
D03*
X10061025Y9892750D02*
D03*
X10064560Y9889214D02*
D03*
X10068096Y9885679D02*
D03*
X10071631Y9882143D02*
D03*
X10075167Y9878608D02*
D03*
X10078702Y9875072D02*
D03*
D12*
Y9973713D02*
D03*
X10075167Y9970178D02*
D03*
X10071631Y9966642D02*
D03*
X10068096Y9963107D02*
D03*
X10064560Y9959572D02*
D03*
X10061025Y9956036D02*
D03*
X10057489Y9952501D02*
D03*
X10053953Y9948965D02*
D03*
X10050418Y9945429D02*
D03*
X10046882Y9941894D02*
D03*
X10043347Y9938358D02*
D03*
X10039811Y9934823D02*
D03*
X10099562Y9875072D02*
D03*
X10103098Y9878608D02*
D03*
X10106633Y9882143D02*
D03*
X10110168Y9885679D02*
D03*
X10113704Y9889214D02*
D03*
X10117239Y9892750D02*
D03*
X10120775Y9896285D02*
D03*
X10124310Y9899821D02*
D03*
X10127846Y9903356D02*
D03*
X10131382Y9906892D02*
D03*
X10134917Y9910427D02*
D03*
X10138453Y9913963D02*
D03*
D13*
X9924250Y10039500D02*
D03*
Y10062500D02*
D03*
Y10085500D02*
D03*
D14*
X9865750Y10062500D02*
D03*
D15*
X10006710Y9903356D02*
D03*
X10020710D02*
D03*
Y9890750D02*
D03*
X10006710D02*
D03*
X9898500Y10021071D02*
D03*
X9884500D02*
D03*
X9957764Y9947336D02*
D03*
X9971764D02*
D03*
X10007000Y10126161D02*
D03*
X9993000D02*
D03*
D16*
X9988250Y9876500D02*
D03*
Y9890500D02*
D03*
X10007764Y9961335D02*
D03*
Y9947336D02*
D03*
X10025000Y10053500D02*
D03*
Y10039500D02*
D03*
D17*
X10047162Y10107588D02*
D03*
X10114338Y10040413D02*
D03*
D18*
X9898500Y10007155D02*
D03*
X9884000D02*
D03*
X10047489Y9863992D02*
D03*
X10061989D02*
D03*
X9971764Y9960355D02*
D03*
X9957264D02*
D03*
D19*
X10141000Y9957434D02*
D03*
Y9971934D02*
D03*
X10025000Y9967000D02*
D03*
Y9952501D02*
D03*
X10012006Y10054000D02*
D03*
Y10039500D02*
D03*
X9994745Y9947336D02*
D03*
Y9961836D02*
D03*
D20*
X10090876Y10108124D02*
D03*
X10080623Y10118376D02*
D03*
X10125876Y10074374D02*
D03*
X10115624Y10084626D02*
D03*
D21*
X9924500Y10107000D02*
D03*
X9898000D02*
D03*
X9992041Y10039500D02*
D03*
X9965541D02*
D03*
D22*
X9919280Y9941500D02*
D03*
Y9915500D02*
D03*
Y9935000D02*
D03*
Y9928500D02*
D03*
Y9922000D02*
D03*
%TF.MD5,42ee5a0e531f2a1ee9605ea78bc5ec56*%
M02*
