%TF.GenerationSoftware,Altium Limited,Altium Designer,20.1.8 (145)*%
G04 Layer_Color=0*
%FSLAX44Y44*%
%MOMM*%
%TF.SameCoordinates,BF84AABB-580B-4B44-99C5-09E2CFC6D698*%
%TF.FilePolarity,Positive*%
%TF.FileFunction,Plated,1,2,PTH,Drill*%
%TF.Part,Single*%
G01*
G75*
%TA.AperFunction,ComponentDrill*%
%ADD69O,1.5000X0.6000*%
%ADD70O,1.8000X0.6000*%
%ADD71C,1.2000*%
%ADD72O,2.0000X3.5000*%
%ADD73C,0.7500*%
%TA.AperFunction,ViaDrill,NotFilled*%
%ADD74C,0.6000*%
%ADD75C,0.4000*%
D69*
X9913780Y9879000D02*
D03*
Y9978000D02*
D03*
D70*
X9873780D02*
D03*
Y9879000D02*
D03*
D71*
X10025000Y9925000D02*
D03*
X9975000D02*
D03*
X10000000D02*
D03*
X10025000Y10070000D02*
D03*
X9975000D02*
D03*
D72*
X9940000Y10000000D02*
D03*
X10060000D02*
D03*
D73*
X9923800Y9864742D02*
D03*
X9949200D02*
D03*
X9974600D02*
D03*
X10000000D02*
D03*
X10025400D02*
D03*
D74*
X10140500Y9994750D02*
D03*
X10099186Y9934218D02*
D03*
X10072990Y9861858D02*
D03*
X9920000Y9893000D02*
D03*
X9919250Y9956500D02*
D03*
D75*
X9991750Y10107724D02*
D03*
X10132533Y9986362D02*
D03*
X10119250Y10067250D02*
D03*
X10073750Y10111750D02*
D03*
X10020650Y10126148D02*
D03*
X9944125Y9883405D02*
D03*
Y9891686D02*
D03*
X9935844D02*
D03*
Y9899968D02*
D03*
X9927562D02*
D03*
Y9908250D02*
D03*
X9919280D02*
D03*
X10038948Y9870266D02*
D03*
X9884000Y9996750D02*
D03*
X9865750Y10039564D02*
D03*
X9884000Y10062500D02*
D03*
X9865750Y10086250D02*
D03*
X9886250Y10107000D02*
D03*
X9898000Y10092750D02*
D03*
X9909500Y10107250D02*
D03*
X9898000Y10121250D02*
D03*
X9941500Y10062500D02*
D03*
X9907000D02*
D03*
X9924250Y10073250D02*
D03*
X9992041Y10025250D02*
D03*
X9980750Y10039500D02*
D03*
X9992041Y10054000D02*
D03*
X10011500Y10063250D02*
D03*
X9947750Y9960355D02*
D03*
X9983750Y9947750D02*
D03*
X10053214Y9930750D02*
D03*
X10035821Y9948078D02*
D03*
X10036250Y9966500D02*
D03*
X10118030Y9972802D02*
D03*
X10105867Y9949818D02*
D03*
X10115618Y9908559D02*
D03*
X10128822Y9921805D02*
D03*
X10131119Y9889471D02*
D03*
X10100306Y9901236D02*
D03*
X10083326Y9887941D02*
D03*
X10038730Y9862325D02*
D03*
%TF.MD5,008e95dcf36900ac7084bbfdf6d96e01*%
M02*
