M48
;Layer_Color=0
;FILE_FORMAT=4:4
METRIC
;TYPE=PLATED
T1F00S00C0.4000
T2F00S00C0.6000
T4F00S00C0.7500
T5F00S00C1.2000
%
T01
X09919280Y09908250
X09927562
Y09899968
X09935844
Y09891686
X09944125
Y09883405
X10038948Y09870266
X10038730Y09862325
X10083326Y09887941
X10100306Y09901236
X10115618Y09908559
X10131119Y09889471
X10128822Y09921805
X10105867Y09949818
X10118030Y09972802
X10132533Y09986362
X10119250Y10067250
X10073750Y10111750
X10020650Y10126148
X09991750Y10107724
X09992041Y10054000
X09980750Y10039500
X09992041Y10025250
X10011500Y10063250
X09941500Y10062500
X09924250Y10073250
X09947750Y09960355
X09983750Y09947750
X10035821Y09948078
X10036250Y09966500
X10053214Y09930750
X09884000Y09996750
X09865750Y10039564
X09884000Y10062500
X09907000
X09898000Y10092750
X09886250Y10107000
X09909500Y10107250
X09898000Y10121250
X09865750Y10086250
T02
X09920000Y09893000
X10072990Y09861858
X10099186Y09934218
X10140500Y09994750
X09919250Y09956500
T04
X10025400Y09864742
X10000000
X09974600
X09949200
X09923800
T05
X10025000Y10070000
X09975000
Y09925000
X10000000
X10025000
M30
