%TF.GenerationSoftware,Altium Limited,Altium Designer,20.1.8 (145)*%
G04 Layer_Color=32896*
%FSLAX45Y45*%
%MOMM*%
%TF.SameCoordinates,31433496-A159-4958-A2C2-D52C18178038*%
%TF.FilePolarity,Positive*%
%TF.FileFunction,Legend,Bot*%
%TF.Part,CustomerPanel*%
G01*
G75*
%TA.AperFunction,NonConductor*%
%ADD32C,0.10160*%
%ADD33C,0.20000*%
%ADD34C,0.10000*%
%ADD35C,0.12700*%
D32*
X1358440Y1239000D02*
G03*
X1358440Y1239000I-20000J0D01*
G01*
X1304640Y1503300D02*
X1524640D01*
X1304640Y1203300D02*
X1524640D01*
Y1503300D01*
X1304640Y1203300D02*
Y1503300D01*
X2160980Y1346000D02*
Y1366000D01*
X2295245Y1249000D02*
X2325980D01*
X2160980Y1697262D02*
Y1717261D01*
X2288719Y1815000D02*
X2325980D01*
X2535980Y1352000D02*
Y1712000D01*
X854300Y1695860D02*
X974300D01*
Y1435860D02*
Y1695860D01*
X854300Y1435860D02*
X974300D01*
X854300D02*
Y1695860D01*
X941280Y1583165D02*
X951280Y1593165D01*
X948780Y1573165D02*
X958780Y1583165D01*
X888780Y1565665D02*
X913780D01*
X888780D02*
X913780Y1593165D01*
X938780Y1565665D01*
X913780D02*
X938780D01*
X913780Y1533165D02*
Y1565665D01*
X1699580Y1014127D02*
Y1134127D01*
X1439580Y1014127D02*
Y1134127D01*
X1582080Y1074127D02*
X1594580D01*
X1544580D02*
X1557080D01*
X1582080Y1049127D02*
Y1099127D01*
X1557080Y1049127D02*
Y1099127D01*
X1439580Y1014127D02*
X1499580D01*
X1439580Y1134127D02*
X1499580D01*
X1639580Y1014127D02*
X1699580D01*
X1639580Y1134127D02*
X1699580D01*
X1727639Y1247512D02*
Y1307511D01*
X1847638Y1247512D02*
Y1307511D01*
X1727639Y1047511D02*
Y1107511D01*
X1847638Y1047511D02*
Y1107511D01*
X1762639Y1165011D02*
X1812638D01*
X1762639Y1190012D02*
X1812638D01*
X1787639Y1152512D02*
Y1165011D01*
Y1190012D02*
Y1202511D01*
X1727639Y1047511D02*
X1847638D01*
X1727639Y1307511D02*
X1847638D01*
X1184641Y954276D02*
X1202140Y959276D01*
X1184641Y954276D02*
X1222141Y944276D01*
X1184641Y934276D02*
X1222141Y944276D01*
X1184641Y934276D02*
X1222141Y924276D01*
X1197140Y914276D02*
X1222141Y924276D01*
X1262140Y806776D02*
Y1066776D01*
X1142140D02*
X1262140D01*
X1142140Y806776D02*
Y1066776D01*
Y806776D02*
X1262140D01*
X1137800Y1847125D02*
X1257800D01*
Y1587125D02*
Y1847125D01*
X1137800Y1587125D02*
X1257800D01*
X1137800D02*
Y1847125D01*
X1177800Y1729625D02*
X1202800Y1739625D01*
X1177800Y1729625D02*
X1215300Y1719625D01*
X1177800Y1709625D02*
X1215300Y1719625D01*
X1177800Y1709625D02*
X1215300Y1699625D01*
X1197800Y1694625D02*
X1215300Y1699625D01*
X1549960Y1767860D02*
X1554960Y1750360D01*
X1564960Y1787860D01*
X1574960Y1750360D01*
X1584960Y1787860D01*
X1594960Y1762860D01*
X1442460Y1827860D02*
X1702460D01*
X1442460Y1707860D02*
Y1827860D01*
Y1707860D02*
X1702460D01*
Y1827860D01*
X2118750Y721000D02*
Y841000D01*
X1858750Y721000D02*
X2118750D01*
X1858750D02*
Y841000D01*
X2118750D01*
X2001250Y801000D02*
X2011249Y776000D01*
X1991250Y763500D02*
X2001250Y801000D01*
X1981250D02*
X1991250Y763500D01*
X1971250D02*
X1981250Y801000D01*
X1966250Y781000D02*
X1971250Y763500D01*
X1549580Y936776D02*
X1554580Y919276D01*
X1564580Y956776D01*
X1574580Y919276D01*
X1584580Y956776D01*
X1594580Y931776D01*
X1442080Y996776D02*
X1702080D01*
X1442080Y876776D02*
Y996776D01*
Y876776D02*
X1702080D01*
Y996776D01*
X1982848Y1441920D02*
Y1469860D01*
X1995548Y1457160D01*
X1972688D02*
X1995548D01*
X1972688D02*
X1982848Y1469860D01*
X2008248Y1626761D02*
X2018408Y1639461D01*
X1995548D02*
X2018408D01*
X1995548D02*
X2008248Y1626761D01*
Y1654701D01*
X1861440Y1634380D02*
Y1662320D01*
X1874140Y1649620D01*
X1851280D02*
X1874140D01*
X1851280D02*
X1861440Y1662320D01*
X2081140Y1752860D02*
Y1800360D01*
X1801140Y1752860D02*
X2081140D01*
X1801140D02*
Y1800360D01*
X2081140Y1825360D02*
Y1872860D01*
X1801140D02*
X2081140D01*
X1801140Y1825360D02*
Y1872860D01*
X1448496Y1589480D02*
Y1547161D01*
X1440032Y1538697D01*
X1423104D01*
X1414640Y1547161D01*
Y1589480D01*
X1397712Y1538697D02*
X1380785D01*
X1389248D01*
Y1589480D01*
X1397712Y1581016D01*
X3598440Y1239000D02*
G03*
X3598440Y1239000I-20000J0D01*
G01*
X3544640Y1503300D02*
X3764640D01*
X3544640Y1203300D02*
X3764640D01*
Y1503300D01*
X3544640Y1203300D02*
Y1503300D01*
X4400980Y1346000D02*
Y1366000D01*
X4535245Y1249000D02*
X4565980D01*
X4400980Y1697262D02*
Y1717261D01*
X4528719Y1815000D02*
X4565980D01*
X4775980Y1352000D02*
Y1712000D01*
X3094300Y1695860D02*
X3214300D01*
Y1435860D02*
Y1695860D01*
X3094300Y1435860D02*
X3214300D01*
X3094300D02*
Y1695860D01*
X3181280Y1583165D02*
X3191280Y1593165D01*
X3188780Y1573165D02*
X3198780Y1583165D01*
X3128780Y1565665D02*
X3153780D01*
X3128780D02*
X3153780Y1593165D01*
X3178780Y1565665D01*
X3153780D02*
X3178780D01*
X3153780Y1533165D02*
Y1565665D01*
X3939580Y1014127D02*
Y1134127D01*
X3679580Y1014127D02*
Y1134127D01*
X3822080Y1074127D02*
X3834580D01*
X3784580D02*
X3797080D01*
X3822080Y1049127D02*
Y1099127D01*
X3797080Y1049127D02*
Y1099127D01*
X3679580Y1014127D02*
X3739580D01*
X3679580Y1134127D02*
X3739580D01*
X3879581Y1014127D02*
X3939580D01*
X3879581Y1134127D02*
X3939580D01*
X3967639Y1247512D02*
Y1307511D01*
X4087639Y1247512D02*
Y1307511D01*
X3967639Y1047511D02*
Y1107511D01*
X4087639Y1047511D02*
Y1107511D01*
X4002639Y1165011D02*
X4052639D01*
X4002639Y1190012D02*
X4052639D01*
X4027639Y1152512D02*
Y1165011D01*
Y1190012D02*
Y1202511D01*
X3967639Y1047511D02*
X4087639D01*
X3967639Y1307511D02*
X4087639D01*
X3424641Y954276D02*
X3442140Y959276D01*
X3424641Y954276D02*
X3462141Y944276D01*
X3424641Y934276D02*
X3462141Y944276D01*
X3424641Y934276D02*
X3462141Y924276D01*
X3437140Y914276D02*
X3462141Y924276D01*
X3502140Y806776D02*
Y1066776D01*
X3382141D02*
X3502140D01*
X3382141Y806776D02*
Y1066776D01*
Y806776D02*
X3502140D01*
X3377800Y1847125D02*
X3497800D01*
Y1587125D02*
Y1847125D01*
X3377800Y1587125D02*
X3497800D01*
X3377800D02*
Y1847125D01*
X3417800Y1729625D02*
X3442800Y1739625D01*
X3417800Y1729625D02*
X3455300Y1719625D01*
X3417800Y1709625D02*
X3455300Y1719625D01*
X3417800Y1709625D02*
X3455300Y1699625D01*
X3437800Y1694625D02*
X3455300Y1699625D01*
X3789960Y1767860D02*
X3794960Y1750360D01*
X3804960Y1787860D01*
X3814960Y1750360D01*
X3824960Y1787860D01*
X3834960Y1762860D01*
X3682460Y1827860D02*
X3942460D01*
X3682460Y1707860D02*
Y1827860D01*
Y1707860D02*
X3942460D01*
Y1827860D01*
X4358750Y721000D02*
Y841000D01*
X4098750Y721000D02*
X4358750D01*
X4098750D02*
Y841000D01*
X4358750D01*
X4241250Y801000D02*
X4251250Y776000D01*
X4231250Y763500D02*
X4241250Y801000D01*
X4221250D02*
X4231250Y763500D01*
X4211250D02*
X4221250Y801000D01*
X4206250Y781000D02*
X4211250Y763500D01*
X3789580Y936776D02*
X3794580Y919276D01*
X3804580Y956776D01*
X3814580Y919276D01*
X3824580Y956776D01*
X3834580Y931776D01*
X3682080Y996776D02*
X3942080D01*
X3682080Y876776D02*
Y996776D01*
Y876776D02*
X3942080D01*
Y996776D01*
X4222848Y1441920D02*
Y1469860D01*
X4235548Y1457160D01*
X4212688D02*
X4235548D01*
X4212688D02*
X4222848Y1469860D01*
X4248248Y1626761D02*
X4258408Y1639461D01*
X4235548D02*
X4258408D01*
X4235548D02*
X4248248Y1626761D01*
Y1654701D01*
X4101440Y1634380D02*
Y1662320D01*
X4114140Y1649620D01*
X4091280D02*
X4114140D01*
X4091280D02*
X4101440Y1662320D01*
X4321140Y1752860D02*
Y1800360D01*
X4041140Y1752860D02*
X4321140D01*
X4041140D02*
Y1800360D01*
X4321140Y1825360D02*
Y1872860D01*
X4041140D02*
X4321140D01*
X4041140Y1825360D02*
Y1872860D01*
X3688496Y1589480D02*
Y1547161D01*
X3680032Y1538697D01*
X3663104D01*
X3654640Y1547161D01*
Y1589480D01*
X3637713Y1538697D02*
X3620785D01*
X3629249D01*
Y1589480D01*
X3637713Y1581016D01*
X5838440Y1239000D02*
G03*
X5838440Y1239000I-20000J0D01*
G01*
X5784640Y1503300D02*
X6004641D01*
X5784640Y1203300D02*
X6004641D01*
Y1503300D01*
X5784640Y1203300D02*
Y1503300D01*
X6640980Y1346000D02*
Y1366000D01*
X6775246Y1249000D02*
X6805980D01*
X6640980Y1697262D02*
Y1717261D01*
X6768719Y1815000D02*
X6805980D01*
X7015980Y1352000D02*
Y1712000D01*
X5334300Y1695860D02*
X5454300D01*
Y1435860D02*
Y1695860D01*
X5334300Y1435860D02*
X5454300D01*
X5334300D02*
Y1695860D01*
X5421280Y1583165D02*
X5431280Y1593165D01*
X5428780Y1573165D02*
X5438780Y1583165D01*
X5368780Y1565665D02*
X5393780D01*
X5368780D02*
X5393780Y1593165D01*
X5418780Y1565665D01*
X5393780D02*
X5418780D01*
X5393780Y1533165D02*
Y1565665D01*
X6179580Y1014127D02*
Y1134127D01*
X5919580Y1014127D02*
Y1134127D01*
X6062081Y1074127D02*
X6074580D01*
X6024581D02*
X6037080D01*
X6062081Y1049127D02*
Y1099127D01*
X6037080Y1049127D02*
Y1099127D01*
X5919580Y1014127D02*
X5979580D01*
X5919580Y1134127D02*
X5979580D01*
X6119581Y1014127D02*
X6179580D01*
X6119581Y1134127D02*
X6179580D01*
X6207639Y1247512D02*
Y1307511D01*
X6327639Y1247512D02*
Y1307511D01*
X6207639Y1047511D02*
Y1107511D01*
X6327639Y1047511D02*
Y1107511D01*
X6242639Y1165011D02*
X6292639D01*
X6242639Y1190012D02*
X6292639D01*
X6267639Y1152512D02*
Y1165011D01*
Y1190012D02*
Y1202511D01*
X6207639Y1047511D02*
X6327639D01*
X6207639Y1307511D02*
X6327639D01*
X5664641Y954276D02*
X5682141Y959276D01*
X5664641Y954276D02*
X5702141Y944276D01*
X5664641Y934276D02*
X5702141Y944276D01*
X5664641Y934276D02*
X5702141Y924276D01*
X5677141Y914276D02*
X5702141Y924276D01*
X5742140Y806776D02*
Y1066776D01*
X5622141D02*
X5742140D01*
X5622141Y806776D02*
Y1066776D01*
Y806776D02*
X5742140D01*
X5617800Y1847125D02*
X5737800D01*
Y1587125D02*
Y1847125D01*
X5617800Y1587125D02*
X5737800D01*
X5617800D02*
Y1847125D01*
X5657800Y1729625D02*
X5682800Y1739625D01*
X5657800Y1729625D02*
X5695300Y1719625D01*
X5657800Y1709625D02*
X5695300Y1719625D01*
X5657800Y1709625D02*
X5695300Y1699625D01*
X5677800Y1694625D02*
X5695300Y1699625D01*
X6029960Y1767860D02*
X6034960Y1750360D01*
X6044960Y1787860D01*
X6054960Y1750360D01*
X6064960Y1787860D01*
X6074960Y1762860D01*
X5922460Y1827860D02*
X6182460D01*
X5922460Y1707860D02*
Y1827860D01*
Y1707860D02*
X6182460D01*
Y1827860D01*
X6598750Y721000D02*
Y841000D01*
X6338750Y721000D02*
X6598750D01*
X6338750D02*
Y841000D01*
X6598750D01*
X6481250Y801000D02*
X6491250Y776000D01*
X6471250Y763500D02*
X6481250Y801000D01*
X6461250D02*
X6471250Y763500D01*
X6451250D02*
X6461250Y801000D01*
X6446250Y781000D02*
X6451250Y763500D01*
X6029580Y936776D02*
X6034580Y919276D01*
X6044580Y956776D01*
X6054580Y919276D01*
X6064580Y956776D01*
X6074580Y931776D01*
X5922080Y996776D02*
X6182080D01*
X5922080Y876776D02*
Y996776D01*
Y876776D02*
X6182080D01*
Y996776D01*
X6462848Y1441920D02*
Y1469860D01*
X6475548Y1457160D01*
X6452688D02*
X6475548D01*
X6452688D02*
X6462848Y1469860D01*
X6488248Y1626761D02*
X6498408Y1639461D01*
X6475548D02*
X6498408D01*
X6475548D02*
X6488248Y1626761D01*
Y1654701D01*
X6341440Y1634380D02*
Y1662320D01*
X6354140Y1649620D01*
X6331280D02*
X6354140D01*
X6331280D02*
X6341440Y1662320D01*
X6561140Y1752860D02*
Y1800360D01*
X6281140Y1752860D02*
X6561140D01*
X6281140D02*
Y1800360D01*
X6561140Y1825360D02*
Y1872860D01*
X6281140D02*
X6561140D01*
X6281140Y1825360D02*
Y1872860D01*
X5928496Y1589480D02*
Y1547161D01*
X5920032Y1538697D01*
X5903104D01*
X5894640Y1547161D01*
Y1589480D01*
X5877713Y1538697D02*
X5860785D01*
X5869249D01*
Y1589480D01*
X5877713Y1581016D01*
X8078441Y1239000D02*
G03*
X8078441Y1239000I-20000J0D01*
G01*
X8024641Y1503300D02*
X8244641D01*
X8024641Y1203300D02*
X8244641D01*
Y1503300D01*
X8024641Y1203300D02*
Y1503300D01*
X8880980Y1346000D02*
Y1366000D01*
X9015246Y1249000D02*
X9045980D01*
X8880980Y1697262D02*
Y1717261D01*
X9008719Y1815000D02*
X9045980D01*
X9255980Y1352000D02*
Y1712000D01*
X7574300Y1695860D02*
X7694300D01*
Y1435860D02*
Y1695860D01*
X7574300Y1435860D02*
X7694300D01*
X7574300D02*
Y1695860D01*
X7661280Y1583165D02*
X7671280Y1593165D01*
X7668780Y1573165D02*
X7678780Y1583165D01*
X7608780Y1565665D02*
X7633780D01*
X7608780D02*
X7633780Y1593165D01*
X7658780Y1565665D01*
X7633780D02*
X7658780D01*
X7633780Y1533165D02*
Y1565665D01*
X8419581Y1014127D02*
Y1134127D01*
X8159581Y1014127D02*
Y1134127D01*
X8302081Y1074127D02*
X8314581D01*
X8264581D02*
X8277080D01*
X8302081Y1049127D02*
Y1099127D01*
X8277080Y1049127D02*
Y1099127D01*
X8159581Y1014127D02*
X8219580D01*
X8159581Y1134127D02*
X8219580D01*
X8359581Y1014127D02*
X8419581D01*
X8359581Y1134127D02*
X8419581D01*
X8447639Y1247512D02*
Y1307511D01*
X8567639Y1247512D02*
Y1307511D01*
X8447639Y1047511D02*
Y1107511D01*
X8567639Y1047511D02*
Y1107511D01*
X8482639Y1165011D02*
X8532639D01*
X8482639Y1190012D02*
X8532639D01*
X8507639Y1152512D02*
Y1165011D01*
Y1190012D02*
Y1202511D01*
X8447639Y1047511D02*
X8567639D01*
X8447639Y1307511D02*
X8567639D01*
X7904641Y954276D02*
X7922141Y959276D01*
X7904641Y954276D02*
X7942141Y944276D01*
X7904641Y934276D02*
X7942141Y944276D01*
X7904641Y934276D02*
X7942141Y924276D01*
X7917141Y914276D02*
X7942141Y924276D01*
X7982140Y806776D02*
Y1066776D01*
X7862141D02*
X7982140D01*
X7862141Y806776D02*
Y1066776D01*
Y806776D02*
X7982140D01*
X7857800Y1847125D02*
X7977800D01*
Y1587125D02*
Y1847125D01*
X7857800Y1587125D02*
X7977800D01*
X7857800D02*
Y1847125D01*
X7897800Y1729625D02*
X7922800Y1739625D01*
X7897800Y1729625D02*
X7935300Y1719625D01*
X7897800Y1709625D02*
X7935300Y1719625D01*
X7897800Y1709625D02*
X7935300Y1699625D01*
X7917800Y1694625D02*
X7935300Y1699625D01*
X8269960Y1767860D02*
X8274960Y1750360D01*
X8284960Y1787860D01*
X8294960Y1750360D01*
X8304960Y1787860D01*
X8314960Y1762860D01*
X8162460Y1827860D02*
X8422460D01*
X8162460Y1707860D02*
Y1827860D01*
Y1707860D02*
X8422460D01*
Y1827860D01*
X8838750Y721000D02*
Y841000D01*
X8578750Y721000D02*
X8838750D01*
X8578750D02*
Y841000D01*
X8838750D01*
X8721250Y801000D02*
X8731250Y776000D01*
X8711250Y763500D02*
X8721250Y801000D01*
X8701250D02*
X8711250Y763500D01*
X8691250D02*
X8701250Y801000D01*
X8686250Y781000D02*
X8691250Y763500D01*
X8269580Y936776D02*
X8274580Y919276D01*
X8284580Y956776D01*
X8294581Y919276D01*
X8304581Y956776D01*
X8314580Y931776D01*
X8162080Y996776D02*
X8422080D01*
X8162080Y876776D02*
Y996776D01*
Y876776D02*
X8422080D01*
Y996776D01*
X8702848Y1441920D02*
Y1469860D01*
X8715548Y1457160D01*
X8692688D02*
X8715548D01*
X8692688D02*
X8702848Y1469860D01*
X8728248Y1626761D02*
X8738408Y1639461D01*
X8715548D02*
X8738408D01*
X8715548D02*
X8728248Y1626761D01*
Y1654701D01*
X8581440Y1634380D02*
Y1662320D01*
X8594140Y1649620D01*
X8571280D02*
X8594140D01*
X8571280D02*
X8581440Y1662320D01*
X8801140Y1752860D02*
Y1800360D01*
X8521140Y1752860D02*
X8801140D01*
X8521140D02*
Y1800360D01*
X8801140Y1825360D02*
Y1872860D01*
X8521140D02*
X8801140D01*
X8521140Y1825360D02*
Y1872860D01*
X8168496Y1589480D02*
Y1547161D01*
X8160032Y1538697D01*
X8143104D01*
X8134641Y1547161D01*
Y1589480D01*
X8117713Y1538697D02*
X8100785D01*
X8109249D01*
Y1589480D01*
X8117713Y1581016D01*
X1358440Y3139000D02*
G03*
X1358440Y3139000I-20000J0D01*
G01*
X1304640Y3403300D02*
X1524640D01*
X1304640Y3103300D02*
X1524640D01*
Y3403300D01*
X1304640Y3103300D02*
Y3403300D01*
X2160980Y3246000D02*
Y3266000D01*
X2295245Y3149000D02*
X2325980D01*
X2160980Y3597262D02*
Y3617261D01*
X2288719Y3715000D02*
X2325980D01*
X2535980Y3252000D02*
Y3612000D01*
X854300Y3595860D02*
X974300D01*
Y3335860D02*
Y3595860D01*
X854300Y3335860D02*
X974300D01*
X854300D02*
Y3595860D01*
X941280Y3483165D02*
X951280Y3493165D01*
X948780Y3473165D02*
X958780Y3483165D01*
X888780Y3465665D02*
X913780D01*
X888780D02*
X913780Y3493165D01*
X938780Y3465665D01*
X913780D02*
X938780D01*
X913780Y3433165D02*
Y3465665D01*
X1699580Y2914127D02*
Y3034127D01*
X1439580Y2914127D02*
Y3034127D01*
X1582080Y2974127D02*
X1594580D01*
X1544580D02*
X1557080D01*
X1582080Y2949127D02*
Y2999127D01*
X1557080Y2949127D02*
Y2999127D01*
X1439580Y2914127D02*
X1499580D01*
X1439580Y3034127D02*
X1499580D01*
X1639580Y2914127D02*
X1699580D01*
X1639580Y3034127D02*
X1699580D01*
X1727639Y3147512D02*
Y3207511D01*
X1847638Y3147512D02*
Y3207511D01*
X1727639Y2947512D02*
Y3007511D01*
X1847638Y2947512D02*
Y3007511D01*
X1762639Y3065011D02*
X1812638D01*
X1762639Y3090012D02*
X1812638D01*
X1787639Y3052512D02*
Y3065011D01*
Y3090012D02*
Y3102511D01*
X1727639Y2947512D02*
X1847638D01*
X1727639Y3207511D02*
X1847638D01*
X1184641Y2854276D02*
X1202140Y2859276D01*
X1184641Y2854276D02*
X1222141Y2844276D01*
X1184641Y2834276D02*
X1222141Y2844276D01*
X1184641Y2834276D02*
X1222141Y2824276D01*
X1197140Y2814276D02*
X1222141Y2824276D01*
X1262140Y2706776D02*
Y2966776D01*
X1142140D02*
X1262140D01*
X1142140Y2706776D02*
Y2966776D01*
Y2706776D02*
X1262140D01*
X1137800Y3747125D02*
X1257800D01*
Y3487125D02*
Y3747125D01*
X1137800Y3487125D02*
X1257800D01*
X1137800D02*
Y3747125D01*
X1177800Y3629625D02*
X1202800Y3639625D01*
X1177800Y3629625D02*
X1215300Y3619625D01*
X1177800Y3609625D02*
X1215300Y3619625D01*
X1177800Y3609625D02*
X1215300Y3599625D01*
X1197800Y3594625D02*
X1215300Y3599625D01*
X1549960Y3667860D02*
X1554960Y3650360D01*
X1564960Y3687860D01*
X1574960Y3650360D01*
X1584960Y3687860D01*
X1594960Y3662860D01*
X1442460Y3727860D02*
X1702460D01*
X1442460Y3607860D02*
Y3727860D01*
Y3607860D02*
X1702460D01*
Y3727860D01*
X2118750Y2621000D02*
Y2741000D01*
X1858750Y2621000D02*
X2118750D01*
X1858750D02*
Y2741000D01*
X2118750D01*
X2001250Y2701000D02*
X2011249Y2676000D01*
X1991250Y2663500D02*
X2001250Y2701000D01*
X1981250D02*
X1991250Y2663500D01*
X1971250D02*
X1981250Y2701000D01*
X1966250Y2681000D02*
X1971250Y2663500D01*
X1549580Y2836776D02*
X1554580Y2819276D01*
X1564580Y2856776D01*
X1574580Y2819276D01*
X1584580Y2856776D01*
X1594580Y2831776D01*
X1442080Y2896776D02*
X1702080D01*
X1442080Y2776776D02*
Y2896776D01*
Y2776776D02*
X1702080D01*
Y2896776D01*
X1982848Y3341920D02*
Y3369860D01*
X1995548Y3357160D01*
X1972688D02*
X1995548D01*
X1972688D02*
X1982848Y3369860D01*
X2008248Y3526761D02*
X2018408Y3539461D01*
X1995548D02*
X2018408D01*
X1995548D02*
X2008248Y3526761D01*
Y3554701D01*
X1861440Y3534380D02*
Y3562320D01*
X1874140Y3549620D01*
X1851280D02*
X1874140D01*
X1851280D02*
X1861440Y3562320D01*
X2081140Y3652860D02*
Y3700360D01*
X1801140Y3652860D02*
X2081140D01*
X1801140D02*
Y3700360D01*
X2081140Y3725360D02*
Y3772860D01*
X1801140D02*
X2081140D01*
X1801140Y3725360D02*
Y3772860D01*
X1448496Y3489480D02*
Y3447161D01*
X1440032Y3438697D01*
X1423104D01*
X1414640Y3447161D01*
Y3489480D01*
X1397712Y3438697D02*
X1380785D01*
X1389248D01*
Y3489480D01*
X1397712Y3481016D01*
X3598440Y3139000D02*
G03*
X3598440Y3139000I-20000J0D01*
G01*
X3544640Y3403300D02*
X3764640D01*
X3544640Y3103300D02*
X3764640D01*
Y3403300D01*
X3544640Y3103300D02*
Y3403300D01*
X4400980Y3246000D02*
Y3266000D01*
X4535245Y3149000D02*
X4565980D01*
X4400980Y3597262D02*
Y3617261D01*
X4528719Y3715000D02*
X4565980D01*
X4775980Y3252000D02*
Y3612000D01*
X3094300Y3595860D02*
X3214300D01*
Y3335860D02*
Y3595860D01*
X3094300Y3335860D02*
X3214300D01*
X3094300D02*
Y3595860D01*
X3181280Y3483165D02*
X3191280Y3493165D01*
X3188780Y3473165D02*
X3198780Y3483165D01*
X3128780Y3465665D02*
X3153780D01*
X3128780D02*
X3153780Y3493165D01*
X3178780Y3465665D01*
X3153780D02*
X3178780D01*
X3153780Y3433165D02*
Y3465665D01*
X3939580Y2914127D02*
Y3034127D01*
X3679580Y2914127D02*
Y3034127D01*
X3822080Y2974127D02*
X3834580D01*
X3784580D02*
X3797080D01*
X3822080Y2949127D02*
Y2999127D01*
X3797080Y2949127D02*
Y2999127D01*
X3679580Y2914127D02*
X3739580D01*
X3679580Y3034127D02*
X3739580D01*
X3879581Y2914127D02*
X3939580D01*
X3879581Y3034127D02*
X3939580D01*
X3967639Y3147512D02*
Y3207511D01*
X4087639Y3147512D02*
Y3207511D01*
X3967639Y2947512D02*
Y3007511D01*
X4087639Y2947512D02*
Y3007511D01*
X4002639Y3065011D02*
X4052639D01*
X4002639Y3090012D02*
X4052639D01*
X4027639Y3052512D02*
Y3065011D01*
Y3090012D02*
Y3102511D01*
X3967639Y2947512D02*
X4087639D01*
X3967639Y3207511D02*
X4087639D01*
X3424641Y2854276D02*
X3442140Y2859276D01*
X3424641Y2854276D02*
X3462141Y2844276D01*
X3424641Y2834276D02*
X3462141Y2844276D01*
X3424641Y2834276D02*
X3462141Y2824276D01*
X3437140Y2814276D02*
X3462141Y2824276D01*
X3502140Y2706776D02*
Y2966776D01*
X3382141D02*
X3502140D01*
X3382141Y2706776D02*
Y2966776D01*
Y2706776D02*
X3502140D01*
X3377800Y3747125D02*
X3497800D01*
Y3487125D02*
Y3747125D01*
X3377800Y3487125D02*
X3497800D01*
X3377800D02*
Y3747125D01*
X3417800Y3629625D02*
X3442800Y3639625D01*
X3417800Y3629625D02*
X3455300Y3619625D01*
X3417800Y3609625D02*
X3455300Y3619625D01*
X3417800Y3609625D02*
X3455300Y3599625D01*
X3437800Y3594625D02*
X3455300Y3599625D01*
X3789960Y3667860D02*
X3794960Y3650360D01*
X3804960Y3687860D01*
X3814960Y3650360D01*
X3824960Y3687860D01*
X3834960Y3662860D01*
X3682460Y3727860D02*
X3942460D01*
X3682460Y3607860D02*
Y3727860D01*
Y3607860D02*
X3942460D01*
Y3727860D01*
X4358750Y2621000D02*
Y2741000D01*
X4098750Y2621000D02*
X4358750D01*
X4098750D02*
Y2741000D01*
X4358750D01*
X4241250Y2701000D02*
X4251250Y2676000D01*
X4231250Y2663500D02*
X4241250Y2701000D01*
X4221250D02*
X4231250Y2663500D01*
X4211250D02*
X4221250Y2701000D01*
X4206250Y2681000D02*
X4211250Y2663500D01*
X3789580Y2836776D02*
X3794580Y2819276D01*
X3804580Y2856776D01*
X3814580Y2819276D01*
X3824580Y2856776D01*
X3834580Y2831776D01*
X3682080Y2896776D02*
X3942080D01*
X3682080Y2776776D02*
Y2896776D01*
Y2776776D02*
X3942080D01*
Y2896776D01*
X4222848Y3341920D02*
Y3369860D01*
X4235548Y3357160D01*
X4212688D02*
X4235548D01*
X4212688D02*
X4222848Y3369860D01*
X4248248Y3526761D02*
X4258408Y3539461D01*
X4235548D02*
X4258408D01*
X4235548D02*
X4248248Y3526761D01*
Y3554701D01*
X4101440Y3534380D02*
Y3562320D01*
X4114140Y3549620D01*
X4091280D02*
X4114140D01*
X4091280D02*
X4101440Y3562320D01*
X4321140Y3652860D02*
Y3700360D01*
X4041140Y3652860D02*
X4321140D01*
X4041140D02*
Y3700360D01*
X4321140Y3725360D02*
Y3772860D01*
X4041140D02*
X4321140D01*
X4041140Y3725360D02*
Y3772860D01*
X3688496Y3489480D02*
Y3447161D01*
X3680032Y3438697D01*
X3663104D01*
X3654640Y3447161D01*
Y3489480D01*
X3637713Y3438697D02*
X3620785D01*
X3629249D01*
Y3489480D01*
X3637713Y3481016D01*
X5838440Y3139000D02*
G03*
X5838440Y3139000I-20000J0D01*
G01*
X5784640Y3403300D02*
X6004641D01*
X5784640Y3103300D02*
X6004641D01*
Y3403300D01*
X5784640Y3103300D02*
Y3403300D01*
X6640980Y3246000D02*
Y3266000D01*
X6775246Y3149000D02*
X6805980D01*
X6640980Y3597262D02*
Y3617261D01*
X6768719Y3715000D02*
X6805980D01*
X7015980Y3252000D02*
Y3612000D01*
X5334300Y3595860D02*
X5454300D01*
Y3335860D02*
Y3595860D01*
X5334300Y3335860D02*
X5454300D01*
X5334300D02*
Y3595860D01*
X5421280Y3483165D02*
X5431280Y3493165D01*
X5428780Y3473165D02*
X5438780Y3483165D01*
X5368780Y3465665D02*
X5393780D01*
X5368780D02*
X5393780Y3493165D01*
X5418780Y3465665D01*
X5393780D02*
X5418780D01*
X5393780Y3433165D02*
Y3465665D01*
X6179580Y2914127D02*
Y3034127D01*
X5919580Y2914127D02*
Y3034127D01*
X6062081Y2974127D02*
X6074580D01*
X6024581D02*
X6037080D01*
X6062081Y2949127D02*
Y2999127D01*
X6037080Y2949127D02*
Y2999127D01*
X5919580Y2914127D02*
X5979580D01*
X5919580Y3034127D02*
X5979580D01*
X6119581Y2914127D02*
X6179580D01*
X6119581Y3034127D02*
X6179580D01*
X6207639Y3147512D02*
Y3207511D01*
X6327639Y3147512D02*
Y3207511D01*
X6207639Y2947512D02*
Y3007511D01*
X6327639Y2947512D02*
Y3007511D01*
X6242639Y3065011D02*
X6292639D01*
X6242639Y3090012D02*
X6292639D01*
X6267639Y3052512D02*
Y3065011D01*
Y3090012D02*
Y3102511D01*
X6207639Y2947512D02*
X6327639D01*
X6207639Y3207511D02*
X6327639D01*
X5664641Y2854276D02*
X5682141Y2859276D01*
X5664641Y2854276D02*
X5702141Y2844276D01*
X5664641Y2834276D02*
X5702141Y2844276D01*
X5664641Y2834276D02*
X5702141Y2824276D01*
X5677141Y2814276D02*
X5702141Y2824276D01*
X5742140Y2706776D02*
Y2966776D01*
X5622141D02*
X5742140D01*
X5622141Y2706776D02*
Y2966776D01*
Y2706776D02*
X5742140D01*
X5617800Y3747125D02*
X5737800D01*
Y3487125D02*
Y3747125D01*
X5617800Y3487125D02*
X5737800D01*
X5617800D02*
Y3747125D01*
X5657800Y3629625D02*
X5682800Y3639625D01*
X5657800Y3629625D02*
X5695300Y3619625D01*
X5657800Y3609625D02*
X5695300Y3619625D01*
X5657800Y3609625D02*
X5695300Y3599625D01*
X5677800Y3594625D02*
X5695300Y3599625D01*
X6029960Y3667860D02*
X6034960Y3650360D01*
X6044960Y3687860D01*
X6054960Y3650360D01*
X6064960Y3687860D01*
X6074960Y3662860D01*
X5922460Y3727860D02*
X6182460D01*
X5922460Y3607860D02*
Y3727860D01*
Y3607860D02*
X6182460D01*
Y3727860D01*
X6598750Y2621000D02*
Y2741000D01*
X6338750Y2621000D02*
X6598750D01*
X6338750D02*
Y2741000D01*
X6598750D01*
X6481250Y2701000D02*
X6491250Y2676000D01*
X6471250Y2663500D02*
X6481250Y2701000D01*
X6461250D02*
X6471250Y2663500D01*
X6451250D02*
X6461250Y2701000D01*
X6446250Y2681000D02*
X6451250Y2663500D01*
X6029580Y2836776D02*
X6034580Y2819276D01*
X6044580Y2856776D01*
X6054580Y2819276D01*
X6064580Y2856776D01*
X6074580Y2831776D01*
X5922080Y2896776D02*
X6182080D01*
X5922080Y2776776D02*
Y2896776D01*
Y2776776D02*
X6182080D01*
Y2896776D01*
X6462848Y3341920D02*
Y3369860D01*
X6475548Y3357160D01*
X6452688D02*
X6475548D01*
X6452688D02*
X6462848Y3369860D01*
X6488248Y3526761D02*
X6498408Y3539461D01*
X6475548D02*
X6498408D01*
X6475548D02*
X6488248Y3526761D01*
Y3554701D01*
X6341440Y3534380D02*
Y3562320D01*
X6354140Y3549620D01*
X6331280D02*
X6354140D01*
X6331280D02*
X6341440Y3562320D01*
X6561140Y3652860D02*
Y3700360D01*
X6281140Y3652860D02*
X6561140D01*
X6281140D02*
Y3700360D01*
X6561140Y3725360D02*
Y3772860D01*
X6281140D02*
X6561140D01*
X6281140Y3725360D02*
Y3772860D01*
X5928496Y3489480D02*
Y3447161D01*
X5920032Y3438697D01*
X5903104D01*
X5894640Y3447161D01*
Y3489480D01*
X5877713Y3438697D02*
X5860785D01*
X5869249D01*
Y3489480D01*
X5877713Y3481016D01*
X8078441Y3139000D02*
G03*
X8078441Y3139000I-20000J0D01*
G01*
X8024641Y3403300D02*
X8244641D01*
X8024641Y3103300D02*
X8244641D01*
Y3403300D01*
X8024641Y3103300D02*
Y3403300D01*
X8880980Y3246000D02*
Y3266000D01*
X9015246Y3149000D02*
X9045980D01*
X8880980Y3597262D02*
Y3617261D01*
X9008719Y3715000D02*
X9045980D01*
X9255980Y3252000D02*
Y3612000D01*
X7574300Y3595860D02*
X7694300D01*
Y3335860D02*
Y3595860D01*
X7574300Y3335860D02*
X7694300D01*
X7574300D02*
Y3595860D01*
X7661280Y3483165D02*
X7671280Y3493165D01*
X7668780Y3473165D02*
X7678780Y3483165D01*
X7608780Y3465665D02*
X7633780D01*
X7608780D02*
X7633780Y3493165D01*
X7658780Y3465665D01*
X7633780D02*
X7658780D01*
X7633780Y3433165D02*
Y3465665D01*
X8419581Y2914127D02*
Y3034127D01*
X8159581Y2914127D02*
Y3034127D01*
X8302081Y2974127D02*
X8314581D01*
X8264581D02*
X8277080D01*
X8302081Y2949127D02*
Y2999127D01*
X8277080Y2949127D02*
Y2999127D01*
X8159581Y2914127D02*
X8219580D01*
X8159581Y3034127D02*
X8219580D01*
X8359581Y2914127D02*
X8419581D01*
X8359581Y3034127D02*
X8419581D01*
X8447639Y3147512D02*
Y3207511D01*
X8567639Y3147512D02*
Y3207511D01*
X8447639Y2947512D02*
Y3007511D01*
X8567639Y2947512D02*
Y3007511D01*
X8482639Y3065011D02*
X8532639D01*
X8482639Y3090012D02*
X8532639D01*
X8507639Y3052512D02*
Y3065011D01*
Y3090012D02*
Y3102511D01*
X8447639Y2947512D02*
X8567639D01*
X8447639Y3207511D02*
X8567639D01*
X7904641Y2854276D02*
X7922141Y2859276D01*
X7904641Y2854276D02*
X7942141Y2844276D01*
X7904641Y2834276D02*
X7942141Y2844276D01*
X7904641Y2834276D02*
X7942141Y2824276D01*
X7917141Y2814276D02*
X7942141Y2824276D01*
X7982140Y2706776D02*
Y2966776D01*
X7862141D02*
X7982140D01*
X7862141Y2706776D02*
Y2966776D01*
Y2706776D02*
X7982140D01*
X7857800Y3747125D02*
X7977800D01*
Y3487125D02*
Y3747125D01*
X7857800Y3487125D02*
X7977800D01*
X7857800D02*
Y3747125D01*
X7897800Y3629625D02*
X7922800Y3639625D01*
X7897800Y3629625D02*
X7935300Y3619625D01*
X7897800Y3609625D02*
X7935300Y3619625D01*
X7897800Y3609625D02*
X7935300Y3599625D01*
X7917800Y3594625D02*
X7935300Y3599625D01*
X8269960Y3667860D02*
X8274960Y3650360D01*
X8284960Y3687860D01*
X8294960Y3650360D01*
X8304960Y3687860D01*
X8314960Y3662860D01*
X8162460Y3727860D02*
X8422460D01*
X8162460Y3607860D02*
Y3727860D01*
Y3607860D02*
X8422460D01*
Y3727860D01*
X8838750Y2621000D02*
Y2741000D01*
X8578750Y2621000D02*
X8838750D01*
X8578750D02*
Y2741000D01*
X8838750D01*
X8721250Y2701000D02*
X8731250Y2676000D01*
X8711250Y2663500D02*
X8721250Y2701000D01*
X8701250D02*
X8711250Y2663500D01*
X8691250D02*
X8701250Y2701000D01*
X8686250Y2681000D02*
X8691250Y2663500D01*
X8269580Y2836776D02*
X8274580Y2819276D01*
X8284580Y2856776D01*
X8294581Y2819276D01*
X8304581Y2856776D01*
X8314580Y2831776D01*
X8162080Y2896776D02*
X8422080D01*
X8162080Y2776776D02*
Y2896776D01*
Y2776776D02*
X8422080D01*
Y2896776D01*
X8702848Y3341920D02*
Y3369860D01*
X8715548Y3357160D01*
X8692688D02*
X8715548D01*
X8692688D02*
X8702848Y3369860D01*
X8728248Y3526761D02*
X8738408Y3539461D01*
X8715548D02*
X8738408D01*
X8715548D02*
X8728248Y3526761D01*
Y3554701D01*
X8581440Y3534380D02*
Y3562320D01*
X8594140Y3549620D01*
X8571280D02*
X8594140D01*
X8571280D02*
X8581440Y3562320D01*
X8801140Y3652860D02*
Y3700360D01*
X8521140Y3652860D02*
X8801140D01*
X8521140D02*
Y3700360D01*
X8801140Y3725360D02*
Y3772860D01*
X8521140D02*
X8801140D01*
X8521140Y3725360D02*
Y3772860D01*
X8168496Y3489480D02*
Y3447161D01*
X8160032Y3438697D01*
X8143104D01*
X8134641Y3447161D01*
Y3489480D01*
X8117713Y3438697D02*
X8100785D01*
X8109249D01*
Y3489480D01*
X8117713Y3481016D01*
X1358440Y5039000D02*
G03*
X1358440Y5039000I-20000J0D01*
G01*
X1304640Y5303300D02*
X1524640D01*
X1304640Y5003300D02*
X1524640D01*
Y5303300D01*
X1304640Y5003300D02*
Y5303300D01*
X2160980Y5146000D02*
Y5166000D01*
X2295245Y5049000D02*
X2325980D01*
X2160980Y5497262D02*
Y5517262D01*
X2288719Y5615000D02*
X2325980D01*
X2535980Y5152000D02*
Y5512000D01*
X854300Y5495860D02*
X974300D01*
Y5235860D02*
Y5495860D01*
X854300Y5235860D02*
X974300D01*
X854300D02*
Y5495860D01*
X941280Y5383165D02*
X951280Y5393165D01*
X948780Y5373165D02*
X958780Y5383165D01*
X888780Y5365665D02*
X913780D01*
X888780D02*
X913780Y5393165D01*
X938780Y5365665D01*
X913780D02*
X938780D01*
X913780Y5333165D02*
Y5365665D01*
X1699580Y4814127D02*
Y4934127D01*
X1439580Y4814127D02*
Y4934127D01*
X1582080Y4874127D02*
X1594580D01*
X1544580D02*
X1557080D01*
X1582080Y4849127D02*
Y4899127D01*
X1557080Y4849127D02*
Y4899127D01*
X1439580Y4814127D02*
X1499580D01*
X1439580Y4934127D02*
X1499580D01*
X1639580Y4814127D02*
X1699580D01*
X1639580Y4934127D02*
X1699580D01*
X1727639Y5047512D02*
Y5107512D01*
X1847638Y5047512D02*
Y5107512D01*
X1727639Y4847512D02*
Y4907511D01*
X1847638Y4847512D02*
Y4907511D01*
X1762639Y4965011D02*
X1812638D01*
X1762639Y4990012D02*
X1812638D01*
X1787639Y4952512D02*
Y4965011D01*
Y4990012D02*
Y5002511D01*
X1727639Y4847512D02*
X1847638D01*
X1727639Y5107512D02*
X1847638D01*
X1184641Y4754276D02*
X1202140Y4759276D01*
X1184641Y4754276D02*
X1222141Y4744276D01*
X1184641Y4734276D02*
X1222141Y4744276D01*
X1184641Y4734276D02*
X1222141Y4724276D01*
X1197140Y4714276D02*
X1222141Y4724276D01*
X1262140Y4606776D02*
Y4866776D01*
X1142140D02*
X1262140D01*
X1142140Y4606776D02*
Y4866776D01*
Y4606776D02*
X1262140D01*
X1137800Y5647125D02*
X1257800D01*
Y5387125D02*
Y5647125D01*
X1137800Y5387125D02*
X1257800D01*
X1137800D02*
Y5647125D01*
X1177800Y5529625D02*
X1202800Y5539625D01*
X1177800Y5529625D02*
X1215300Y5519625D01*
X1177800Y5509625D02*
X1215300Y5519625D01*
X1177800Y5509625D02*
X1215300Y5499625D01*
X1197800Y5494625D02*
X1215300Y5499625D01*
X1549960Y5567860D02*
X1554960Y5550360D01*
X1564960Y5587860D01*
X1574960Y5550360D01*
X1584960Y5587860D01*
X1594960Y5562860D01*
X1442460Y5627860D02*
X1702460D01*
X1442460Y5507860D02*
Y5627860D01*
Y5507860D02*
X1702460D01*
Y5627860D01*
X2118750Y4521000D02*
Y4641000D01*
X1858750Y4521000D02*
X2118750D01*
X1858750D02*
Y4641000D01*
X2118750D01*
X2001250Y4601000D02*
X2011249Y4576000D01*
X1991250Y4563500D02*
X2001250Y4601000D01*
X1981250D02*
X1991250Y4563500D01*
X1971250D02*
X1981250Y4601000D01*
X1966250Y4581000D02*
X1971250Y4563500D01*
X1549580Y4736776D02*
X1554580Y4719276D01*
X1564580Y4756776D01*
X1574580Y4719276D01*
X1584580Y4756776D01*
X1594580Y4731776D01*
X1442080Y4796776D02*
X1702080D01*
X1442080Y4676776D02*
Y4796776D01*
Y4676776D02*
X1702080D01*
Y4796776D01*
X1982848Y5241920D02*
Y5269860D01*
X1995548Y5257160D01*
X1972688D02*
X1995548D01*
X1972688D02*
X1982848Y5269860D01*
X2008248Y5426761D02*
X2018408Y5439461D01*
X1995548D02*
X2018408D01*
X1995548D02*
X2008248Y5426761D01*
Y5454701D01*
X1861440Y5434380D02*
Y5462320D01*
X1874140Y5449620D01*
X1851280D02*
X1874140D01*
X1851280D02*
X1861440Y5462320D01*
X2081140Y5552860D02*
Y5600360D01*
X1801140Y5552860D02*
X2081140D01*
X1801140D02*
Y5600360D01*
X2081140Y5625360D02*
Y5672860D01*
X1801140D02*
X2081140D01*
X1801140Y5625360D02*
Y5672860D01*
X1448496Y5389480D02*
Y5347161D01*
X1440032Y5338697D01*
X1423104D01*
X1414640Y5347161D01*
Y5389480D01*
X1397712Y5338697D02*
X1380785D01*
X1389248D01*
Y5389480D01*
X1397712Y5381016D01*
X3598440Y5039000D02*
G03*
X3598440Y5039000I-20000J0D01*
G01*
X3544640Y5303300D02*
X3764640D01*
X3544640Y5003300D02*
X3764640D01*
Y5303300D01*
X3544640Y5003300D02*
Y5303300D01*
X4400980Y5146000D02*
Y5166000D01*
X4535245Y5049000D02*
X4565980D01*
X4400980Y5497262D02*
Y5517262D01*
X4528719Y5615000D02*
X4565980D01*
X4775980Y5152000D02*
Y5512000D01*
X3094300Y5495860D02*
X3214300D01*
Y5235860D02*
Y5495860D01*
X3094300Y5235860D02*
X3214300D01*
X3094300D02*
Y5495860D01*
X3181280Y5383165D02*
X3191280Y5393165D01*
X3188780Y5373165D02*
X3198780Y5383165D01*
X3128780Y5365665D02*
X3153780D01*
X3128780D02*
X3153780Y5393165D01*
X3178780Y5365665D01*
X3153780D02*
X3178780D01*
X3153780Y5333165D02*
Y5365665D01*
X3939580Y4814127D02*
Y4934127D01*
X3679580Y4814127D02*
Y4934127D01*
X3822080Y4874127D02*
X3834580D01*
X3784580D02*
X3797080D01*
X3822080Y4849127D02*
Y4899127D01*
X3797080Y4849127D02*
Y4899127D01*
X3679580Y4814127D02*
X3739580D01*
X3679580Y4934127D02*
X3739580D01*
X3879581Y4814127D02*
X3939580D01*
X3879581Y4934127D02*
X3939580D01*
X3967639Y5047512D02*
Y5107512D01*
X4087639Y5047512D02*
Y5107512D01*
X3967639Y4847512D02*
Y4907511D01*
X4087639Y4847512D02*
Y4907511D01*
X4002639Y4965011D02*
X4052639D01*
X4002639Y4990012D02*
X4052639D01*
X4027639Y4952512D02*
Y4965011D01*
Y4990012D02*
Y5002511D01*
X3967639Y4847512D02*
X4087639D01*
X3967639Y5107512D02*
X4087639D01*
X3424641Y4754276D02*
X3442140Y4759276D01*
X3424641Y4754276D02*
X3462141Y4744276D01*
X3424641Y4734276D02*
X3462141Y4744276D01*
X3424641Y4734276D02*
X3462141Y4724276D01*
X3437140Y4714276D02*
X3462141Y4724276D01*
X3502140Y4606776D02*
Y4866776D01*
X3382141D02*
X3502140D01*
X3382141Y4606776D02*
Y4866776D01*
Y4606776D02*
X3502140D01*
X3377800Y5647125D02*
X3497800D01*
Y5387125D02*
Y5647125D01*
X3377800Y5387125D02*
X3497800D01*
X3377800D02*
Y5647125D01*
X3417800Y5529625D02*
X3442800Y5539625D01*
X3417800Y5529625D02*
X3455300Y5519625D01*
X3417800Y5509625D02*
X3455300Y5519625D01*
X3417800Y5509625D02*
X3455300Y5499625D01*
X3437800Y5494625D02*
X3455300Y5499625D01*
X3789960Y5567860D02*
X3794960Y5550360D01*
X3804960Y5587860D01*
X3814960Y5550360D01*
X3824960Y5587860D01*
X3834960Y5562860D01*
X3682460Y5627860D02*
X3942460D01*
X3682460Y5507860D02*
Y5627860D01*
Y5507860D02*
X3942460D01*
Y5627860D01*
X4358750Y4521000D02*
Y4641000D01*
X4098750Y4521000D02*
X4358750D01*
X4098750D02*
Y4641000D01*
X4358750D01*
X4241250Y4601000D02*
X4251250Y4576000D01*
X4231250Y4563500D02*
X4241250Y4601000D01*
X4221250D02*
X4231250Y4563500D01*
X4211250D02*
X4221250Y4601000D01*
X4206250Y4581000D02*
X4211250Y4563500D01*
X3789580Y4736776D02*
X3794580Y4719276D01*
X3804580Y4756776D01*
X3814580Y4719276D01*
X3824580Y4756776D01*
X3834580Y4731776D01*
X3682080Y4796776D02*
X3942080D01*
X3682080Y4676776D02*
Y4796776D01*
Y4676776D02*
X3942080D01*
Y4796776D01*
X4222848Y5241920D02*
Y5269860D01*
X4235548Y5257160D01*
X4212688D02*
X4235548D01*
X4212688D02*
X4222848Y5269860D01*
X4248248Y5426761D02*
X4258408Y5439461D01*
X4235548D02*
X4258408D01*
X4235548D02*
X4248248Y5426761D01*
Y5454701D01*
X4101440Y5434380D02*
Y5462320D01*
X4114140Y5449620D01*
X4091280D02*
X4114140D01*
X4091280D02*
X4101440Y5462320D01*
X4321140Y5552860D02*
Y5600360D01*
X4041140Y5552860D02*
X4321140D01*
X4041140D02*
Y5600360D01*
X4321140Y5625360D02*
Y5672860D01*
X4041140D02*
X4321140D01*
X4041140Y5625360D02*
Y5672860D01*
X3688496Y5389480D02*
Y5347161D01*
X3680032Y5338697D01*
X3663104D01*
X3654640Y5347161D01*
Y5389480D01*
X3637713Y5338697D02*
X3620785D01*
X3629249D01*
Y5389480D01*
X3637713Y5381016D01*
X5838440Y5039000D02*
G03*
X5838440Y5039000I-20000J0D01*
G01*
X5784640Y5303300D02*
X6004641D01*
X5784640Y5003300D02*
X6004641D01*
Y5303300D01*
X5784640Y5003300D02*
Y5303300D01*
X6640980Y5146000D02*
Y5166000D01*
X6775246Y5049000D02*
X6805980D01*
X6640980Y5497262D02*
Y5517262D01*
X6768719Y5615000D02*
X6805980D01*
X7015980Y5152000D02*
Y5512000D01*
X5334300Y5495860D02*
X5454300D01*
Y5235860D02*
Y5495860D01*
X5334300Y5235860D02*
X5454300D01*
X5334300D02*
Y5495860D01*
X5421280Y5383165D02*
X5431280Y5393165D01*
X5428780Y5373165D02*
X5438780Y5383165D01*
X5368780Y5365665D02*
X5393780D01*
X5368780D02*
X5393780Y5393165D01*
X5418780Y5365665D01*
X5393780D02*
X5418780D01*
X5393780Y5333165D02*
Y5365665D01*
X6179580Y4814127D02*
Y4934127D01*
X5919580Y4814127D02*
Y4934127D01*
X6062081Y4874127D02*
X6074580D01*
X6024581D02*
X6037080D01*
X6062081Y4849127D02*
Y4899127D01*
X6037080Y4849127D02*
Y4899127D01*
X5919580Y4814127D02*
X5979580D01*
X5919580Y4934127D02*
X5979580D01*
X6119581Y4814127D02*
X6179580D01*
X6119581Y4934127D02*
X6179580D01*
X6207639Y5047512D02*
Y5107512D01*
X6327639Y5047512D02*
Y5107512D01*
X6207639Y4847512D02*
Y4907511D01*
X6327639Y4847512D02*
Y4907511D01*
X6242639Y4965011D02*
X6292639D01*
X6242639Y4990012D02*
X6292639D01*
X6267639Y4952512D02*
Y4965011D01*
Y4990012D02*
Y5002511D01*
X6207639Y4847512D02*
X6327639D01*
X6207639Y5107512D02*
X6327639D01*
X5664641Y4754276D02*
X5682141Y4759276D01*
X5664641Y4754276D02*
X5702141Y4744276D01*
X5664641Y4734276D02*
X5702141Y4744276D01*
X5664641Y4734276D02*
X5702141Y4724276D01*
X5677141Y4714276D02*
X5702141Y4724276D01*
X5742140Y4606776D02*
Y4866776D01*
X5622141D02*
X5742140D01*
X5622141Y4606776D02*
Y4866776D01*
Y4606776D02*
X5742140D01*
X5617800Y5647125D02*
X5737800D01*
Y5387125D02*
Y5647125D01*
X5617800Y5387125D02*
X5737800D01*
X5617800D02*
Y5647125D01*
X5657800Y5529625D02*
X5682800Y5539625D01*
X5657800Y5529625D02*
X5695300Y5519625D01*
X5657800Y5509625D02*
X5695300Y5519625D01*
X5657800Y5509625D02*
X5695300Y5499625D01*
X5677800Y5494625D02*
X5695300Y5499625D01*
X6029960Y5567860D02*
X6034960Y5550360D01*
X6044960Y5587860D01*
X6054960Y5550360D01*
X6064960Y5587860D01*
X6074960Y5562860D01*
X5922460Y5627860D02*
X6182460D01*
X5922460Y5507860D02*
Y5627860D01*
Y5507860D02*
X6182460D01*
Y5627860D01*
X6598750Y4521000D02*
Y4641000D01*
X6338750Y4521000D02*
X6598750D01*
X6338750D02*
Y4641000D01*
X6598750D01*
X6481250Y4601000D02*
X6491250Y4576000D01*
X6471250Y4563500D02*
X6481250Y4601000D01*
X6461250D02*
X6471250Y4563500D01*
X6451250D02*
X6461250Y4601000D01*
X6446250Y4581000D02*
X6451250Y4563500D01*
X6029580Y4736776D02*
X6034580Y4719276D01*
X6044580Y4756776D01*
X6054580Y4719276D01*
X6064580Y4756776D01*
X6074580Y4731776D01*
X5922080Y4796776D02*
X6182080D01*
X5922080Y4676776D02*
Y4796776D01*
Y4676776D02*
X6182080D01*
Y4796776D01*
X6462848Y5241920D02*
Y5269860D01*
X6475548Y5257160D01*
X6452688D02*
X6475548D01*
X6452688D02*
X6462848Y5269860D01*
X6488248Y5426761D02*
X6498408Y5439461D01*
X6475548D02*
X6498408D01*
X6475548D02*
X6488248Y5426761D01*
Y5454701D01*
X6341440Y5434380D02*
Y5462320D01*
X6354140Y5449620D01*
X6331280D02*
X6354140D01*
X6331280D02*
X6341440Y5462320D01*
X6561140Y5552860D02*
Y5600360D01*
X6281140Y5552860D02*
X6561140D01*
X6281140D02*
Y5600360D01*
X6561140Y5625360D02*
Y5672860D01*
X6281140D02*
X6561140D01*
X6281140Y5625360D02*
Y5672860D01*
X5928496Y5389480D02*
Y5347161D01*
X5920032Y5338697D01*
X5903104D01*
X5894640Y5347161D01*
Y5389480D01*
X5877713Y5338697D02*
X5860785D01*
X5869249D01*
Y5389480D01*
X5877713Y5381016D01*
X8078441Y5039000D02*
G03*
X8078441Y5039000I-20000J0D01*
G01*
X8024641Y5303300D02*
X8244641D01*
X8024641Y5003300D02*
X8244641D01*
Y5303300D01*
X8024641Y5003300D02*
Y5303300D01*
X8880980Y5146000D02*
Y5166000D01*
X9015246Y5049000D02*
X9045980D01*
X8880980Y5497262D02*
Y5517262D01*
X9008719Y5615000D02*
X9045980D01*
X9255980Y5152000D02*
Y5512000D01*
X7574300Y5495860D02*
X7694300D01*
Y5235860D02*
Y5495860D01*
X7574300Y5235860D02*
X7694300D01*
X7574300D02*
Y5495860D01*
X7661280Y5383165D02*
X7671280Y5393165D01*
X7668780Y5373165D02*
X7678780Y5383165D01*
X7608780Y5365665D02*
X7633780D01*
X7608780D02*
X7633780Y5393165D01*
X7658780Y5365665D01*
X7633780D02*
X7658780D01*
X7633780Y5333165D02*
Y5365665D01*
X8419581Y4814127D02*
Y4934127D01*
X8159581Y4814127D02*
Y4934127D01*
X8302081Y4874127D02*
X8314581D01*
X8264581D02*
X8277080D01*
X8302081Y4849127D02*
Y4899127D01*
X8277080Y4849127D02*
Y4899127D01*
X8159581Y4814127D02*
X8219580D01*
X8159581Y4934127D02*
X8219580D01*
X8359581Y4814127D02*
X8419581D01*
X8359581Y4934127D02*
X8419581D01*
X8447639Y5047512D02*
Y5107512D01*
X8567639Y5047512D02*
Y5107512D01*
X8447639Y4847512D02*
Y4907511D01*
X8567639Y4847512D02*
Y4907511D01*
X8482639Y4965011D02*
X8532639D01*
X8482639Y4990012D02*
X8532639D01*
X8507639Y4952512D02*
Y4965011D01*
Y4990012D02*
Y5002511D01*
X8447639Y4847512D02*
X8567639D01*
X8447639Y5107512D02*
X8567639D01*
X7904641Y4754276D02*
X7922141Y4759276D01*
X7904641Y4754276D02*
X7942141Y4744276D01*
X7904641Y4734276D02*
X7942141Y4744276D01*
X7904641Y4734276D02*
X7942141Y4724276D01*
X7917141Y4714276D02*
X7942141Y4724276D01*
X7982140Y4606776D02*
Y4866776D01*
X7862141D02*
X7982140D01*
X7862141Y4606776D02*
Y4866776D01*
Y4606776D02*
X7982140D01*
X7857800Y5647125D02*
X7977800D01*
Y5387125D02*
Y5647125D01*
X7857800Y5387125D02*
X7977800D01*
X7857800D02*
Y5647125D01*
X7897800Y5529625D02*
X7922800Y5539625D01*
X7897800Y5529625D02*
X7935300Y5519625D01*
X7897800Y5509625D02*
X7935300Y5519625D01*
X7897800Y5509625D02*
X7935300Y5499625D01*
X7917800Y5494625D02*
X7935300Y5499625D01*
X8269960Y5567860D02*
X8274960Y5550360D01*
X8284960Y5587860D01*
X8294960Y5550360D01*
X8304960Y5587860D01*
X8314960Y5562860D01*
X8162460Y5627860D02*
X8422460D01*
X8162460Y5507860D02*
Y5627860D01*
Y5507860D02*
X8422460D01*
Y5627860D01*
X8838750Y4521000D02*
Y4641000D01*
X8578750Y4521000D02*
X8838750D01*
X8578750D02*
Y4641000D01*
X8838750D01*
X8721250Y4601000D02*
X8731250Y4576000D01*
X8711250Y4563500D02*
X8721250Y4601000D01*
X8701250D02*
X8711250Y4563500D01*
X8691250D02*
X8701250Y4601000D01*
X8686250Y4581000D02*
X8691250Y4563500D01*
X8269580Y4736776D02*
X8274580Y4719276D01*
X8284580Y4756776D01*
X8294581Y4719276D01*
X8304581Y4756776D01*
X8314580Y4731776D01*
X8162080Y4796776D02*
X8422080D01*
X8162080Y4676776D02*
Y4796776D01*
Y4676776D02*
X8422080D01*
Y4796776D01*
X8702848Y5241920D02*
Y5269860D01*
X8715548Y5257160D01*
X8692688D02*
X8715548D01*
X8692688D02*
X8702848Y5269860D01*
X8728248Y5426761D02*
X8738408Y5439461D01*
X8715548D02*
X8738408D01*
X8715548D02*
X8728248Y5426761D01*
Y5454701D01*
X8581440Y5434380D02*
Y5462320D01*
X8594140Y5449620D01*
X8571280D02*
X8594140D01*
X8571280D02*
X8581440Y5462320D01*
X8801140Y5552860D02*
Y5600360D01*
X8521140Y5552860D02*
X8801140D01*
X8521140D02*
Y5600360D01*
X8801140Y5625360D02*
Y5672860D01*
X8521140D02*
X8801140D01*
X8521140Y5625360D02*
Y5672860D01*
X8168496Y5389480D02*
Y5347161D01*
X8160032Y5338697D01*
X8143104D01*
X8134641Y5347161D01*
Y5389480D01*
X8117713Y5338697D02*
X8100785D01*
X8109249D01*
Y5389480D01*
X8117713Y5381016D01*
X1358440Y6939000D02*
G03*
X1358440Y6939000I-20000J0D01*
G01*
X1304640Y7203300D02*
X1524640D01*
X1304640Y6903300D02*
X1524640D01*
Y7203300D01*
X1304640Y6903300D02*
Y7203300D01*
X2160980Y7046000D02*
Y7066000D01*
X2295245Y6949000D02*
X2325980D01*
X2160980Y7397262D02*
Y7417262D01*
X2288719Y7515000D02*
X2325980D01*
X2535980Y7052000D02*
Y7412000D01*
X854300Y7395860D02*
X974300D01*
Y7135860D02*
Y7395860D01*
X854300Y7135860D02*
X974300D01*
X854300D02*
Y7395860D01*
X941280Y7283165D02*
X951280Y7293165D01*
X948780Y7273165D02*
X958780Y7283165D01*
X888780Y7265665D02*
X913780D01*
X888780D02*
X913780Y7293165D01*
X938780Y7265665D01*
X913780D02*
X938780D01*
X913780Y7233165D02*
Y7265665D01*
X1699580Y6714127D02*
Y6834127D01*
X1439580Y6714127D02*
Y6834127D01*
X1582080Y6774127D02*
X1594580D01*
X1544580D02*
X1557080D01*
X1582080Y6749127D02*
Y6799127D01*
X1557080Y6749127D02*
Y6799127D01*
X1439580Y6714127D02*
X1499580D01*
X1439580Y6834127D02*
X1499580D01*
X1639580Y6714127D02*
X1699580D01*
X1639580Y6834127D02*
X1699580D01*
X1727639Y6947512D02*
Y7007512D01*
X1847638Y6947512D02*
Y7007512D01*
X1727639Y6747512D02*
Y6807511D01*
X1847638Y6747512D02*
Y6807511D01*
X1762639Y6865011D02*
X1812638D01*
X1762639Y6890012D02*
X1812638D01*
X1787639Y6852512D02*
Y6865011D01*
Y6890012D02*
Y6902511D01*
X1727639Y6747512D02*
X1847638D01*
X1727639Y7007512D02*
X1847638D01*
X1184641Y6654276D02*
X1202140Y6659276D01*
X1184641Y6654276D02*
X1222141Y6644276D01*
X1184641Y6634276D02*
X1222141Y6644276D01*
X1184641Y6634276D02*
X1222141Y6624276D01*
X1197140Y6614276D02*
X1222141Y6624276D01*
X1262140Y6506776D02*
Y6766776D01*
X1142140D02*
X1262140D01*
X1142140Y6506776D02*
Y6766776D01*
Y6506776D02*
X1262140D01*
X1137800Y7547125D02*
X1257800D01*
Y7287125D02*
Y7547125D01*
X1137800Y7287125D02*
X1257800D01*
X1137800D02*
Y7547125D01*
X1177800Y7429625D02*
X1202800Y7439625D01*
X1177800Y7429625D02*
X1215300Y7419625D01*
X1177800Y7409625D02*
X1215300Y7419625D01*
X1177800Y7409625D02*
X1215300Y7399625D01*
X1197800Y7394625D02*
X1215300Y7399625D01*
X1549960Y7467860D02*
X1554960Y7450360D01*
X1564960Y7487860D01*
X1574960Y7450360D01*
X1584960Y7487860D01*
X1594960Y7462860D01*
X1442460Y7527860D02*
X1702460D01*
X1442460Y7407860D02*
Y7527860D01*
Y7407860D02*
X1702460D01*
Y7527860D01*
X2118750Y6421000D02*
Y6541000D01*
X1858750Y6421000D02*
X2118750D01*
X1858750D02*
Y6541000D01*
X2118750D01*
X2001250Y6501000D02*
X2011249Y6476000D01*
X1991250Y6463500D02*
X2001250Y6501000D01*
X1981250D02*
X1991250Y6463500D01*
X1971250D02*
X1981250Y6501000D01*
X1966250Y6481000D02*
X1971250Y6463500D01*
X1549580Y6636776D02*
X1554580Y6619276D01*
X1564580Y6656776D01*
X1574580Y6619276D01*
X1584580Y6656776D01*
X1594580Y6631776D01*
X1442080Y6696776D02*
X1702080D01*
X1442080Y6576776D02*
Y6696776D01*
Y6576776D02*
X1702080D01*
Y6696776D01*
X1982848Y7141920D02*
Y7169860D01*
X1995548Y7157160D01*
X1972688D02*
X1995548D01*
X1972688D02*
X1982848Y7169860D01*
X2008248Y7326761D02*
X2018408Y7339461D01*
X1995548D02*
X2018408D01*
X1995548D02*
X2008248Y7326761D01*
Y7354701D01*
X1861440Y7334380D02*
Y7362320D01*
X1874140Y7349620D01*
X1851280D02*
X1874140D01*
X1851280D02*
X1861440Y7362320D01*
X2081140Y7452860D02*
Y7500360D01*
X1801140Y7452860D02*
X2081140D01*
X1801140D02*
Y7500360D01*
X2081140Y7525360D02*
Y7572860D01*
X1801140D02*
X2081140D01*
X1801140Y7525360D02*
Y7572860D01*
X1448496Y7289480D02*
Y7247161D01*
X1440032Y7238697D01*
X1423104D01*
X1414640Y7247161D01*
Y7289480D01*
X1397712Y7238697D02*
X1380785D01*
X1389248D01*
Y7289480D01*
X1397712Y7281016D01*
X3598440Y6939000D02*
G03*
X3598440Y6939000I-20000J0D01*
G01*
X3544640Y7203300D02*
X3764640D01*
X3544640Y6903300D02*
X3764640D01*
Y7203300D01*
X3544640Y6903300D02*
Y7203300D01*
X4400980Y7046000D02*
Y7066000D01*
X4535245Y6949000D02*
X4565980D01*
X4400980Y7397262D02*
Y7417262D01*
X4528719Y7515000D02*
X4565980D01*
X4775980Y7052000D02*
Y7412000D01*
X3094300Y7395860D02*
X3214300D01*
Y7135860D02*
Y7395860D01*
X3094300Y7135860D02*
X3214300D01*
X3094300D02*
Y7395860D01*
X3181280Y7283165D02*
X3191280Y7293165D01*
X3188780Y7273165D02*
X3198780Y7283165D01*
X3128780Y7265665D02*
X3153780D01*
X3128780D02*
X3153780Y7293165D01*
X3178780Y7265665D01*
X3153780D02*
X3178780D01*
X3153780Y7233165D02*
Y7265665D01*
X3939580Y6714127D02*
Y6834127D01*
X3679580Y6714127D02*
Y6834127D01*
X3822080Y6774127D02*
X3834580D01*
X3784580D02*
X3797080D01*
X3822080Y6749127D02*
Y6799127D01*
X3797080Y6749127D02*
Y6799127D01*
X3679580Y6714127D02*
X3739580D01*
X3679580Y6834127D02*
X3739580D01*
X3879581Y6714127D02*
X3939580D01*
X3879581Y6834127D02*
X3939580D01*
X3967639Y6947512D02*
Y7007512D01*
X4087639Y6947512D02*
Y7007512D01*
X3967639Y6747512D02*
Y6807511D01*
X4087639Y6747512D02*
Y6807511D01*
X4002639Y6865011D02*
X4052639D01*
X4002639Y6890012D02*
X4052639D01*
X4027639Y6852512D02*
Y6865011D01*
Y6890012D02*
Y6902511D01*
X3967639Y6747512D02*
X4087639D01*
X3967639Y7007512D02*
X4087639D01*
X3424641Y6654276D02*
X3442140Y6659276D01*
X3424641Y6654276D02*
X3462141Y6644276D01*
X3424641Y6634276D02*
X3462141Y6644276D01*
X3424641Y6634276D02*
X3462141Y6624276D01*
X3437140Y6614276D02*
X3462141Y6624276D01*
X3502140Y6506776D02*
Y6766776D01*
X3382141D02*
X3502140D01*
X3382141Y6506776D02*
Y6766776D01*
Y6506776D02*
X3502140D01*
X3377800Y7547125D02*
X3497800D01*
Y7287125D02*
Y7547125D01*
X3377800Y7287125D02*
X3497800D01*
X3377800D02*
Y7547125D01*
X3417800Y7429625D02*
X3442800Y7439625D01*
X3417800Y7429625D02*
X3455300Y7419625D01*
X3417800Y7409625D02*
X3455300Y7419625D01*
X3417800Y7409625D02*
X3455300Y7399625D01*
X3437800Y7394625D02*
X3455300Y7399625D01*
X3789960Y7467860D02*
X3794960Y7450360D01*
X3804960Y7487860D01*
X3814960Y7450360D01*
X3824960Y7487860D01*
X3834960Y7462860D01*
X3682460Y7527860D02*
X3942460D01*
X3682460Y7407860D02*
Y7527860D01*
Y7407860D02*
X3942460D01*
Y7527860D01*
X4358750Y6421000D02*
Y6541000D01*
X4098750Y6421000D02*
X4358750D01*
X4098750D02*
Y6541000D01*
X4358750D01*
X4241250Y6501000D02*
X4251250Y6476000D01*
X4231250Y6463500D02*
X4241250Y6501000D01*
X4221250D02*
X4231250Y6463500D01*
X4211250D02*
X4221250Y6501000D01*
X4206250Y6481000D02*
X4211250Y6463500D01*
X3789580Y6636776D02*
X3794580Y6619276D01*
X3804580Y6656776D01*
X3814580Y6619276D01*
X3824580Y6656776D01*
X3834580Y6631776D01*
X3682080Y6696776D02*
X3942080D01*
X3682080Y6576776D02*
Y6696776D01*
Y6576776D02*
X3942080D01*
Y6696776D01*
X4222848Y7141920D02*
Y7169860D01*
X4235548Y7157160D01*
X4212688D02*
X4235548D01*
X4212688D02*
X4222848Y7169860D01*
X4248248Y7326761D02*
X4258408Y7339461D01*
X4235548D02*
X4258408D01*
X4235548D02*
X4248248Y7326761D01*
Y7354701D01*
X4101440Y7334380D02*
Y7362320D01*
X4114140Y7349620D01*
X4091280D02*
X4114140D01*
X4091280D02*
X4101440Y7362320D01*
X4321140Y7452860D02*
Y7500360D01*
X4041140Y7452860D02*
X4321140D01*
X4041140D02*
Y7500360D01*
X4321140Y7525360D02*
Y7572860D01*
X4041140D02*
X4321140D01*
X4041140Y7525360D02*
Y7572860D01*
X3688496Y7289480D02*
Y7247161D01*
X3680032Y7238697D01*
X3663104D01*
X3654640Y7247161D01*
Y7289480D01*
X3637713Y7238697D02*
X3620785D01*
X3629249D01*
Y7289480D01*
X3637713Y7281016D01*
X5838440Y6939000D02*
G03*
X5838440Y6939000I-20000J0D01*
G01*
X5784640Y7203300D02*
X6004641D01*
X5784640Y6903300D02*
X6004641D01*
Y7203300D01*
X5784640Y6903300D02*
Y7203300D01*
X6640980Y7046000D02*
Y7066000D01*
X6775246Y6949000D02*
X6805980D01*
X6640980Y7397262D02*
Y7417262D01*
X6768719Y7515000D02*
X6805980D01*
X7015980Y7052000D02*
Y7412000D01*
X5334300Y7395860D02*
X5454300D01*
Y7135860D02*
Y7395860D01*
X5334300Y7135860D02*
X5454300D01*
X5334300D02*
Y7395860D01*
X5421280Y7283165D02*
X5431280Y7293165D01*
X5428780Y7273165D02*
X5438780Y7283165D01*
X5368780Y7265665D02*
X5393780D01*
X5368780D02*
X5393780Y7293165D01*
X5418780Y7265665D01*
X5393780D02*
X5418780D01*
X5393780Y7233165D02*
Y7265665D01*
X6179580Y6714127D02*
Y6834127D01*
X5919580Y6714127D02*
Y6834127D01*
X6062081Y6774127D02*
X6074580D01*
X6024581D02*
X6037080D01*
X6062081Y6749127D02*
Y6799127D01*
X6037080Y6749127D02*
Y6799127D01*
X5919580Y6714127D02*
X5979580D01*
X5919580Y6834127D02*
X5979580D01*
X6119581Y6714127D02*
X6179580D01*
X6119581Y6834127D02*
X6179580D01*
X6207639Y6947512D02*
Y7007512D01*
X6327639Y6947512D02*
Y7007512D01*
X6207639Y6747512D02*
Y6807511D01*
X6327639Y6747512D02*
Y6807511D01*
X6242639Y6865011D02*
X6292639D01*
X6242639Y6890012D02*
X6292639D01*
X6267639Y6852512D02*
Y6865011D01*
Y6890012D02*
Y6902511D01*
X6207639Y6747512D02*
X6327639D01*
X6207639Y7007512D02*
X6327639D01*
X5664641Y6654276D02*
X5682141Y6659276D01*
X5664641Y6654276D02*
X5702141Y6644276D01*
X5664641Y6634276D02*
X5702141Y6644276D01*
X5664641Y6634276D02*
X5702141Y6624276D01*
X5677141Y6614276D02*
X5702141Y6624276D01*
X5742140Y6506776D02*
Y6766776D01*
X5622141D02*
X5742140D01*
X5622141Y6506776D02*
Y6766776D01*
Y6506776D02*
X5742140D01*
X5617800Y7547125D02*
X5737800D01*
Y7287125D02*
Y7547125D01*
X5617800Y7287125D02*
X5737800D01*
X5617800D02*
Y7547125D01*
X5657800Y7429625D02*
X5682800Y7439625D01*
X5657800Y7429625D02*
X5695300Y7419625D01*
X5657800Y7409625D02*
X5695300Y7419625D01*
X5657800Y7409625D02*
X5695300Y7399625D01*
X5677800Y7394625D02*
X5695300Y7399625D01*
X6029960Y7467860D02*
X6034960Y7450360D01*
X6044960Y7487860D01*
X6054960Y7450360D01*
X6064960Y7487860D01*
X6074960Y7462860D01*
X5922460Y7527860D02*
X6182460D01*
X5922460Y7407860D02*
Y7527860D01*
Y7407860D02*
X6182460D01*
Y7527860D01*
X6598750Y6421000D02*
Y6541000D01*
X6338750Y6421000D02*
X6598750D01*
X6338750D02*
Y6541000D01*
X6598750D01*
X6481250Y6501000D02*
X6491250Y6476000D01*
X6471250Y6463500D02*
X6481250Y6501000D01*
X6461250D02*
X6471250Y6463500D01*
X6451250D02*
X6461250Y6501000D01*
X6446250Y6481000D02*
X6451250Y6463500D01*
X6029580Y6636776D02*
X6034580Y6619276D01*
X6044580Y6656776D01*
X6054580Y6619276D01*
X6064580Y6656776D01*
X6074580Y6631776D01*
X5922080Y6696776D02*
X6182080D01*
X5922080Y6576776D02*
Y6696776D01*
Y6576776D02*
X6182080D01*
Y6696776D01*
X6462848Y7141920D02*
Y7169860D01*
X6475548Y7157160D01*
X6452688D02*
X6475548D01*
X6452688D02*
X6462848Y7169860D01*
X6488248Y7326761D02*
X6498408Y7339461D01*
X6475548D02*
X6498408D01*
X6475548D02*
X6488248Y7326761D01*
Y7354701D01*
X6341440Y7334380D02*
Y7362320D01*
X6354140Y7349620D01*
X6331280D02*
X6354140D01*
X6331280D02*
X6341440Y7362320D01*
X6561140Y7452860D02*
Y7500360D01*
X6281140Y7452860D02*
X6561140D01*
X6281140D02*
Y7500360D01*
X6561140Y7525360D02*
Y7572860D01*
X6281140D02*
X6561140D01*
X6281140Y7525360D02*
Y7572860D01*
X5928496Y7289480D02*
Y7247161D01*
X5920032Y7238697D01*
X5903104D01*
X5894640Y7247161D01*
Y7289480D01*
X5877713Y7238697D02*
X5860785D01*
X5869249D01*
Y7289480D01*
X5877713Y7281016D01*
X8078441Y6939000D02*
G03*
X8078441Y6939000I-20000J0D01*
G01*
X8024641Y7203300D02*
X8244641D01*
X8024641Y6903300D02*
X8244641D01*
Y7203300D01*
X8024641Y6903300D02*
Y7203300D01*
X8880980Y7046000D02*
Y7066000D01*
X9015246Y6949000D02*
X9045980D01*
X8880980Y7397262D02*
Y7417262D01*
X9008719Y7515000D02*
X9045980D01*
X9255980Y7052000D02*
Y7412000D01*
X7574300Y7395860D02*
X7694300D01*
Y7135860D02*
Y7395860D01*
X7574300Y7135860D02*
X7694300D01*
X7574300D02*
Y7395860D01*
X7661280Y7283165D02*
X7671280Y7293165D01*
X7668780Y7273165D02*
X7678780Y7283165D01*
X7608780Y7265665D02*
X7633780D01*
X7608780D02*
X7633780Y7293165D01*
X7658780Y7265665D01*
X7633780D02*
X7658780D01*
X7633780Y7233165D02*
Y7265665D01*
X8419581Y6714127D02*
Y6834127D01*
X8159581Y6714127D02*
Y6834127D01*
X8302081Y6774127D02*
X8314581D01*
X8264581D02*
X8277080D01*
X8302081Y6749127D02*
Y6799127D01*
X8277080Y6749127D02*
Y6799127D01*
X8159581Y6714127D02*
X8219580D01*
X8159581Y6834127D02*
X8219580D01*
X8359581Y6714127D02*
X8419581D01*
X8359581Y6834127D02*
X8419581D01*
X8447639Y6947512D02*
Y7007512D01*
X8567639Y6947512D02*
Y7007512D01*
X8447639Y6747512D02*
Y6807511D01*
X8567639Y6747512D02*
Y6807511D01*
X8482639Y6865011D02*
X8532639D01*
X8482639Y6890012D02*
X8532639D01*
X8507639Y6852512D02*
Y6865011D01*
Y6890012D02*
Y6902511D01*
X8447639Y6747512D02*
X8567639D01*
X8447639Y7007512D02*
X8567639D01*
X7904641Y6654276D02*
X7922141Y6659276D01*
X7904641Y6654276D02*
X7942141Y6644276D01*
X7904641Y6634276D02*
X7942141Y6644276D01*
X7904641Y6634276D02*
X7942141Y6624276D01*
X7917141Y6614276D02*
X7942141Y6624276D01*
X7982140Y6506776D02*
Y6766776D01*
X7862141D02*
X7982140D01*
X7862141Y6506776D02*
Y6766776D01*
Y6506776D02*
X7982140D01*
X7857800Y7547125D02*
X7977800D01*
Y7287125D02*
Y7547125D01*
X7857800Y7287125D02*
X7977800D01*
X7857800D02*
Y7547125D01*
X7897800Y7429625D02*
X7922800Y7439625D01*
X7897800Y7429625D02*
X7935300Y7419625D01*
X7897800Y7409625D02*
X7935300Y7419625D01*
X7897800Y7409625D02*
X7935300Y7399625D01*
X7917800Y7394625D02*
X7935300Y7399625D01*
X8269960Y7467860D02*
X8274960Y7450360D01*
X8284960Y7487860D01*
X8294960Y7450360D01*
X8304960Y7487860D01*
X8314960Y7462860D01*
X8162460Y7527860D02*
X8422460D01*
X8162460Y7407860D02*
Y7527860D01*
Y7407860D02*
X8422460D01*
Y7527860D01*
X8838750Y6421000D02*
Y6541000D01*
X8578750Y6421000D02*
X8838750D01*
X8578750D02*
Y6541000D01*
X8838750D01*
X8721250Y6501000D02*
X8731250Y6476000D01*
X8711250Y6463500D02*
X8721250Y6501000D01*
X8701250D02*
X8711250Y6463500D01*
X8691250D02*
X8701250Y6501000D01*
X8686250Y6481000D02*
X8691250Y6463500D01*
X8269580Y6636776D02*
X8274580Y6619276D01*
X8284580Y6656776D01*
X8294581Y6619276D01*
X8304581Y6656776D01*
X8314580Y6631776D01*
X8162080Y6696776D02*
X8422080D01*
X8162080Y6576776D02*
Y6696776D01*
Y6576776D02*
X8422080D01*
Y6696776D01*
X8702848Y7141920D02*
Y7169860D01*
X8715548Y7157160D01*
X8692688D02*
X8715548D01*
X8692688D02*
X8702848Y7169860D01*
X8728248Y7326761D02*
X8738408Y7339461D01*
X8715548D02*
X8738408D01*
X8715548D02*
X8728248Y7326761D01*
Y7354701D01*
X8581440Y7334380D02*
Y7362320D01*
X8594140Y7349620D01*
X8571280D02*
X8594140D01*
X8571280D02*
X8581440Y7362320D01*
X8801140Y7452860D02*
Y7500360D01*
X8521140Y7452860D02*
X8801140D01*
X8521140D02*
Y7500360D01*
X8801140Y7525360D02*
Y7572860D01*
X8521140D02*
X8801140D01*
X8521140Y7525360D02*
Y7572860D01*
X8168496Y7289480D02*
Y7247161D01*
X8160032Y7238697D01*
X8143104D01*
X8134641Y7247161D01*
Y7289480D01*
X8117713Y7238697D02*
X8100785D01*
X8109249D01*
Y7289480D01*
X8117713Y7281016D01*
X1358440Y8839000D02*
G03*
X1358440Y8839000I-20000J0D01*
G01*
X1304640Y9103300D02*
X1524640D01*
X1304640Y8803300D02*
X1524640D01*
Y9103300D01*
X1304640Y8803300D02*
Y9103300D01*
X2160980Y8946000D02*
Y8966000D01*
X2295245Y8849000D02*
X2325980D01*
X2160980Y9297262D02*
Y9317262D01*
X2288719Y9415000D02*
X2325980D01*
X2535980Y8952000D02*
Y9312000D01*
X854300Y9295860D02*
X974300D01*
Y9035860D02*
Y9295860D01*
X854300Y9035860D02*
X974300D01*
X854300D02*
Y9295860D01*
X941280Y9183165D02*
X951280Y9193165D01*
X948780Y9173165D02*
X958780Y9183165D01*
X888780Y9165665D02*
X913780D01*
X888780D02*
X913780Y9193165D01*
X938780Y9165665D01*
X913780D02*
X938780D01*
X913780Y9133165D02*
Y9165665D01*
X1699580Y8614127D02*
Y8734127D01*
X1439580Y8614127D02*
Y8734127D01*
X1582080Y8674127D02*
X1594580D01*
X1544580D02*
X1557080D01*
X1582080Y8649127D02*
Y8699127D01*
X1557080Y8649127D02*
Y8699127D01*
X1439580Y8614127D02*
X1499580D01*
X1439580Y8734127D02*
X1499580D01*
X1639580Y8614127D02*
X1699580D01*
X1639580Y8734127D02*
X1699580D01*
X1727639Y8847512D02*
Y8907512D01*
X1847638Y8847512D02*
Y8907512D01*
X1727639Y8647512D02*
Y8707511D01*
X1847638Y8647512D02*
Y8707511D01*
X1762639Y8765011D02*
X1812638D01*
X1762639Y8790012D02*
X1812638D01*
X1787639Y8752512D02*
Y8765011D01*
Y8790012D02*
Y8802511D01*
X1727639Y8647512D02*
X1847638D01*
X1727639Y8907512D02*
X1847638D01*
X1184641Y8554276D02*
X1202140Y8559276D01*
X1184641Y8554276D02*
X1222141Y8544276D01*
X1184641Y8534276D02*
X1222141Y8544276D01*
X1184641Y8534276D02*
X1222141Y8524276D01*
X1197140Y8514276D02*
X1222141Y8524276D01*
X1262140Y8406776D02*
Y8666776D01*
X1142140D02*
X1262140D01*
X1142140Y8406776D02*
Y8666776D01*
Y8406776D02*
X1262140D01*
X1137800Y9447125D02*
X1257800D01*
Y9187125D02*
Y9447125D01*
X1137800Y9187125D02*
X1257800D01*
X1137800D02*
Y9447125D01*
X1177800Y9329625D02*
X1202800Y9339625D01*
X1177800Y9329625D02*
X1215300Y9319626D01*
X1177800Y9309625D02*
X1215300Y9319626D01*
X1177800Y9309625D02*
X1215300Y9299625D01*
X1197800Y9294625D02*
X1215300Y9299625D01*
X1549960Y9367860D02*
X1554960Y9350360D01*
X1564960Y9387860D01*
X1574960Y9350360D01*
X1584960Y9387860D01*
X1594960Y9362860D01*
X1442460Y9427860D02*
X1702460D01*
X1442460Y9307860D02*
Y9427860D01*
Y9307860D02*
X1702460D01*
Y9427860D01*
X2118750Y8321000D02*
Y8441000D01*
X1858750Y8321000D02*
X2118750D01*
X1858750D02*
Y8441000D01*
X2118750D01*
X2001250Y8401000D02*
X2011249Y8376000D01*
X1991250Y8363500D02*
X2001250Y8401000D01*
X1981250D02*
X1991250Y8363500D01*
X1971250D02*
X1981250Y8401000D01*
X1966250Y8381000D02*
X1971250Y8363500D01*
X1549580Y8536776D02*
X1554580Y8519276D01*
X1564580Y8556776D01*
X1574580Y8519276D01*
X1584580Y8556776D01*
X1594580Y8531776D01*
X1442080Y8596776D02*
X1702080D01*
X1442080Y8476776D02*
Y8596776D01*
Y8476776D02*
X1702080D01*
Y8596776D01*
X1982848Y9041920D02*
Y9069860D01*
X1995548Y9057160D01*
X1972688D02*
X1995548D01*
X1972688D02*
X1982848Y9069860D01*
X2008248Y9226761D02*
X2018408Y9239461D01*
X1995548D02*
X2018408D01*
X1995548D02*
X2008248Y9226761D01*
Y9254701D01*
X1861440Y9234380D02*
Y9262320D01*
X1874140Y9249620D01*
X1851280D02*
X1874140D01*
X1851280D02*
X1861440Y9262320D01*
X2081140Y9352860D02*
Y9400360D01*
X1801140Y9352860D02*
X2081140D01*
X1801140D02*
Y9400360D01*
X2081140Y9425360D02*
Y9472860D01*
X1801140D02*
X2081140D01*
X1801140Y9425360D02*
Y9472860D01*
X1448496Y9189480D02*
Y9147161D01*
X1440032Y9138697D01*
X1423104D01*
X1414640Y9147161D01*
Y9189480D01*
X1397712Y9138697D02*
X1380785D01*
X1389248D01*
Y9189480D01*
X1397712Y9181016D01*
X3598440Y8839000D02*
G03*
X3598440Y8839000I-20000J0D01*
G01*
X3544640Y9103300D02*
X3764640D01*
X3544640Y8803300D02*
X3764640D01*
Y9103300D01*
X3544640Y8803300D02*
Y9103300D01*
X4400980Y8946000D02*
Y8966000D01*
X4535245Y8849000D02*
X4565980D01*
X4400980Y9297262D02*
Y9317262D01*
X4528719Y9415000D02*
X4565980D01*
X4775980Y8952000D02*
Y9312000D01*
X3094300Y9295860D02*
X3214300D01*
Y9035860D02*
Y9295860D01*
X3094300Y9035860D02*
X3214300D01*
X3094300D02*
Y9295860D01*
X3181280Y9183165D02*
X3191280Y9193165D01*
X3188780Y9173165D02*
X3198780Y9183165D01*
X3128780Y9165665D02*
X3153780D01*
X3128780D02*
X3153780Y9193165D01*
X3178780Y9165665D01*
X3153780D02*
X3178780D01*
X3153780Y9133165D02*
Y9165665D01*
X3939580Y8614127D02*
Y8734127D01*
X3679580Y8614127D02*
Y8734127D01*
X3822080Y8674127D02*
X3834580D01*
X3784580D02*
X3797080D01*
X3822080Y8649127D02*
Y8699127D01*
X3797080Y8649127D02*
Y8699127D01*
X3679580Y8614127D02*
X3739580D01*
X3679580Y8734127D02*
X3739580D01*
X3879581Y8614127D02*
X3939580D01*
X3879581Y8734127D02*
X3939580D01*
X3967639Y8847512D02*
Y8907512D01*
X4087639Y8847512D02*
Y8907512D01*
X3967639Y8647512D02*
Y8707511D01*
X4087639Y8647512D02*
Y8707511D01*
X4002639Y8765011D02*
X4052639D01*
X4002639Y8790012D02*
X4052639D01*
X4027639Y8752512D02*
Y8765011D01*
Y8790012D02*
Y8802511D01*
X3967639Y8647512D02*
X4087639D01*
X3967639Y8907512D02*
X4087639D01*
X3424641Y8554276D02*
X3442140Y8559276D01*
X3424641Y8554276D02*
X3462141Y8544276D01*
X3424641Y8534276D02*
X3462141Y8544276D01*
X3424641Y8534276D02*
X3462141Y8524276D01*
X3437140Y8514276D02*
X3462141Y8524276D01*
X3502140Y8406776D02*
Y8666776D01*
X3382141D02*
X3502140D01*
X3382141Y8406776D02*
Y8666776D01*
Y8406776D02*
X3502140D01*
X3377800Y9447125D02*
X3497800D01*
Y9187125D02*
Y9447125D01*
X3377800Y9187125D02*
X3497800D01*
X3377800D02*
Y9447125D01*
X3417800Y9329625D02*
X3442800Y9339625D01*
X3417800Y9329625D02*
X3455300Y9319626D01*
X3417800Y9309625D02*
X3455300Y9319626D01*
X3417800Y9309625D02*
X3455300Y9299625D01*
X3437800Y9294625D02*
X3455300Y9299625D01*
X3789960Y9367860D02*
X3794960Y9350360D01*
X3804960Y9387860D01*
X3814960Y9350360D01*
X3824960Y9387860D01*
X3834960Y9362860D01*
X3682460Y9427860D02*
X3942460D01*
X3682460Y9307860D02*
Y9427860D01*
Y9307860D02*
X3942460D01*
Y9427860D01*
X4358750Y8321000D02*
Y8441000D01*
X4098750Y8321000D02*
X4358750D01*
X4098750D02*
Y8441000D01*
X4358750D01*
X4241250Y8401000D02*
X4251250Y8376000D01*
X4231250Y8363500D02*
X4241250Y8401000D01*
X4221250D02*
X4231250Y8363500D01*
X4211250D02*
X4221250Y8401000D01*
X4206250Y8381000D02*
X4211250Y8363500D01*
X3789580Y8536776D02*
X3794580Y8519276D01*
X3804580Y8556776D01*
X3814580Y8519276D01*
X3824580Y8556776D01*
X3834580Y8531776D01*
X3682080Y8596776D02*
X3942080D01*
X3682080Y8476776D02*
Y8596776D01*
Y8476776D02*
X3942080D01*
Y8596776D01*
X4222848Y9041920D02*
Y9069860D01*
X4235548Y9057160D01*
X4212688D02*
X4235548D01*
X4212688D02*
X4222848Y9069860D01*
X4248248Y9226761D02*
X4258408Y9239461D01*
X4235548D02*
X4258408D01*
X4235548D02*
X4248248Y9226761D01*
Y9254701D01*
X4101440Y9234380D02*
Y9262320D01*
X4114140Y9249620D01*
X4091280D02*
X4114140D01*
X4091280D02*
X4101440Y9262320D01*
X4321140Y9352860D02*
Y9400360D01*
X4041140Y9352860D02*
X4321140D01*
X4041140D02*
Y9400360D01*
X4321140Y9425360D02*
Y9472860D01*
X4041140D02*
X4321140D01*
X4041140Y9425360D02*
Y9472860D01*
X3688496Y9189480D02*
Y9147161D01*
X3680032Y9138697D01*
X3663104D01*
X3654640Y9147161D01*
Y9189480D01*
X3637713Y9138697D02*
X3620785D01*
X3629249D01*
Y9189480D01*
X3637713Y9181016D01*
X5838440Y8839000D02*
G03*
X5838440Y8839000I-20000J0D01*
G01*
X5784640Y9103300D02*
X6004641D01*
X5784640Y8803300D02*
X6004641D01*
Y9103300D01*
X5784640Y8803300D02*
Y9103300D01*
X6640980Y8946000D02*
Y8966000D01*
X6775246Y8849000D02*
X6805980D01*
X6640980Y9297262D02*
Y9317262D01*
X6768719Y9415000D02*
X6805980D01*
X7015980Y8952000D02*
Y9312000D01*
X5334300Y9295860D02*
X5454300D01*
Y9035860D02*
Y9295860D01*
X5334300Y9035860D02*
X5454300D01*
X5334300D02*
Y9295860D01*
X5421280Y9183165D02*
X5431280Y9193165D01*
X5428780Y9173165D02*
X5438780Y9183165D01*
X5368780Y9165665D02*
X5393780D01*
X5368780D02*
X5393780Y9193165D01*
X5418780Y9165665D01*
X5393780D02*
X5418780D01*
X5393780Y9133165D02*
Y9165665D01*
X6179580Y8614127D02*
Y8734127D01*
X5919580Y8614127D02*
Y8734127D01*
X6062081Y8674127D02*
X6074580D01*
X6024581D02*
X6037080D01*
X6062081Y8649127D02*
Y8699127D01*
X6037080Y8649127D02*
Y8699127D01*
X5919580Y8614127D02*
X5979580D01*
X5919580Y8734127D02*
X5979580D01*
X6119581Y8614127D02*
X6179580D01*
X6119581Y8734127D02*
X6179580D01*
X6207639Y8847512D02*
Y8907512D01*
X6327639Y8847512D02*
Y8907512D01*
X6207639Y8647512D02*
Y8707511D01*
X6327639Y8647512D02*
Y8707511D01*
X6242639Y8765011D02*
X6292639D01*
X6242639Y8790012D02*
X6292639D01*
X6267639Y8752512D02*
Y8765011D01*
Y8790012D02*
Y8802511D01*
X6207639Y8647512D02*
X6327639D01*
X6207639Y8907512D02*
X6327639D01*
X5664641Y8554276D02*
X5682141Y8559276D01*
X5664641Y8554276D02*
X5702141Y8544276D01*
X5664641Y8534276D02*
X5702141Y8544276D01*
X5664641Y8534276D02*
X5702141Y8524276D01*
X5677141Y8514276D02*
X5702141Y8524276D01*
X5742140Y8406776D02*
Y8666776D01*
X5622141D02*
X5742140D01*
X5622141Y8406776D02*
Y8666776D01*
Y8406776D02*
X5742140D01*
X5617800Y9447125D02*
X5737800D01*
Y9187125D02*
Y9447125D01*
X5617800Y9187125D02*
X5737800D01*
X5617800D02*
Y9447125D01*
X5657800Y9329625D02*
X5682800Y9339625D01*
X5657800Y9329625D02*
X5695300Y9319626D01*
X5657800Y9309625D02*
X5695300Y9319626D01*
X5657800Y9309625D02*
X5695300Y9299625D01*
X5677800Y9294625D02*
X5695300Y9299625D01*
X6029960Y9367860D02*
X6034960Y9350360D01*
X6044960Y9387860D01*
X6054960Y9350360D01*
X6064960Y9387860D01*
X6074960Y9362860D01*
X5922460Y9427860D02*
X6182460D01*
X5922460Y9307860D02*
Y9427860D01*
Y9307860D02*
X6182460D01*
Y9427860D01*
X6598750Y8321000D02*
Y8441000D01*
X6338750Y8321000D02*
X6598750D01*
X6338750D02*
Y8441000D01*
X6598750D01*
X6481250Y8401000D02*
X6491250Y8376000D01*
X6471250Y8363500D02*
X6481250Y8401000D01*
X6461250D02*
X6471250Y8363500D01*
X6451250D02*
X6461250Y8401000D01*
X6446250Y8381000D02*
X6451250Y8363500D01*
X6029580Y8536776D02*
X6034580Y8519276D01*
X6044580Y8556776D01*
X6054580Y8519276D01*
X6064580Y8556776D01*
X6074580Y8531776D01*
X5922080Y8596776D02*
X6182080D01*
X5922080Y8476776D02*
Y8596776D01*
Y8476776D02*
X6182080D01*
Y8596776D01*
X6462848Y9041920D02*
Y9069860D01*
X6475548Y9057160D01*
X6452688D02*
X6475548D01*
X6452688D02*
X6462848Y9069860D01*
X6488248Y9226761D02*
X6498408Y9239461D01*
X6475548D02*
X6498408D01*
X6475548D02*
X6488248Y9226761D01*
Y9254701D01*
X6341440Y9234380D02*
Y9262320D01*
X6354140Y9249620D01*
X6331280D02*
X6354140D01*
X6331280D02*
X6341440Y9262320D01*
X6561140Y9352860D02*
Y9400360D01*
X6281140Y9352860D02*
X6561140D01*
X6281140D02*
Y9400360D01*
X6561140Y9425360D02*
Y9472860D01*
X6281140D02*
X6561140D01*
X6281140Y9425360D02*
Y9472860D01*
X5928496Y9189480D02*
Y9147161D01*
X5920032Y9138697D01*
X5903104D01*
X5894640Y9147161D01*
Y9189480D01*
X5877713Y9138697D02*
X5860785D01*
X5869249D01*
Y9189480D01*
X5877713Y9181016D01*
X8078441Y8839000D02*
G03*
X8078441Y8839000I-20000J0D01*
G01*
X8024641Y9103300D02*
X8244641D01*
X8024641Y8803300D02*
X8244641D01*
Y9103300D01*
X8024641Y8803300D02*
Y9103300D01*
X8880980Y8946000D02*
Y8966000D01*
X9015246Y8849000D02*
X9045980D01*
X8880980Y9297262D02*
Y9317262D01*
X9008719Y9415000D02*
X9045980D01*
X9255980Y8952000D02*
Y9312000D01*
X7574300Y9295860D02*
X7694300D01*
Y9035860D02*
Y9295860D01*
X7574300Y9035860D02*
X7694300D01*
X7574300D02*
Y9295860D01*
X7661280Y9183165D02*
X7671280Y9193165D01*
X7668780Y9173165D02*
X7678780Y9183165D01*
X7608780Y9165665D02*
X7633780D01*
X7608780D02*
X7633780Y9193165D01*
X7658780Y9165665D01*
X7633780D02*
X7658780D01*
X7633780Y9133165D02*
Y9165665D01*
X8419581Y8614127D02*
Y8734127D01*
X8159581Y8614127D02*
Y8734127D01*
X8302081Y8674127D02*
X8314581D01*
X8264581D02*
X8277080D01*
X8302081Y8649127D02*
Y8699127D01*
X8277080Y8649127D02*
Y8699127D01*
X8159581Y8614127D02*
X8219580D01*
X8159581Y8734127D02*
X8219580D01*
X8359581Y8614127D02*
X8419581D01*
X8359581Y8734127D02*
X8419581D01*
X8447639Y8847512D02*
Y8907512D01*
X8567639Y8847512D02*
Y8907512D01*
X8447639Y8647512D02*
Y8707511D01*
X8567639Y8647512D02*
Y8707511D01*
X8482639Y8765011D02*
X8532639D01*
X8482639Y8790012D02*
X8532639D01*
X8507639Y8752512D02*
Y8765011D01*
Y8790012D02*
Y8802511D01*
X8447639Y8647512D02*
X8567639D01*
X8447639Y8907512D02*
X8567639D01*
X7904641Y8554276D02*
X7922141Y8559276D01*
X7904641Y8554276D02*
X7942141Y8544276D01*
X7904641Y8534276D02*
X7942141Y8544276D01*
X7904641Y8534276D02*
X7942141Y8524276D01*
X7917141Y8514276D02*
X7942141Y8524276D01*
X7982140Y8406776D02*
Y8666776D01*
X7862141D02*
X7982140D01*
X7862141Y8406776D02*
Y8666776D01*
Y8406776D02*
X7982140D01*
X7857800Y9447125D02*
X7977800D01*
Y9187125D02*
Y9447125D01*
X7857800Y9187125D02*
X7977800D01*
X7857800D02*
Y9447125D01*
X7897800Y9329625D02*
X7922800Y9339625D01*
X7897800Y9329625D02*
X7935300Y9319626D01*
X7897800Y9309625D02*
X7935300Y9319626D01*
X7897800Y9309625D02*
X7935300Y9299625D01*
X7917800Y9294625D02*
X7935300Y9299625D01*
X8269960Y9367860D02*
X8274960Y9350360D01*
X8284960Y9387860D01*
X8294960Y9350360D01*
X8304960Y9387860D01*
X8314960Y9362860D01*
X8162460Y9427860D02*
X8422460D01*
X8162460Y9307860D02*
Y9427860D01*
Y9307860D02*
X8422460D01*
Y9427860D01*
X8838750Y8321000D02*
Y8441000D01*
X8578750Y8321000D02*
X8838750D01*
X8578750D02*
Y8441000D01*
X8838750D01*
X8721250Y8401000D02*
X8731250Y8376000D01*
X8711250Y8363500D02*
X8721250Y8401000D01*
X8701250D02*
X8711250Y8363500D01*
X8691250D02*
X8701250Y8401000D01*
X8686250Y8381000D02*
X8691250Y8363500D01*
X8269580Y8536776D02*
X8274580Y8519276D01*
X8284580Y8556776D01*
X8294581Y8519276D01*
X8304581Y8556776D01*
X8314580Y8531776D01*
X8162080Y8596776D02*
X8422080D01*
X8162080Y8476776D02*
Y8596776D01*
Y8476776D02*
X8422080D01*
Y8596776D01*
X8702848Y9041920D02*
Y9069860D01*
X8715548Y9057160D01*
X8692688D02*
X8715548D01*
X8692688D02*
X8702848Y9069860D01*
X8728248Y9226761D02*
X8738408Y9239461D01*
X8715548D02*
X8738408D01*
X8715548D02*
X8728248Y9226761D01*
Y9254701D01*
X8581440Y9234380D02*
Y9262320D01*
X8594140Y9249620D01*
X8571280D02*
X8594140D01*
X8571280D02*
X8581440Y9262320D01*
X8801140Y9352860D02*
Y9400360D01*
X8521140Y9352860D02*
X8801140D01*
X8521140D02*
Y9400360D01*
X8801140Y9425360D02*
Y9472860D01*
X8521140D02*
X8801140D01*
X8521140Y9425360D02*
Y9472860D01*
X8168496Y9189480D02*
Y9147161D01*
X8160032Y9138697D01*
X8143104D01*
X8134641Y9147161D01*
Y9189480D01*
X8117713Y9138697D02*
X8100785D01*
X8109249D01*
Y9189480D01*
X8117713Y9181016D01*
D33*
X999300Y1655860D02*
G03*
X999300Y1655860I-5000J0D01*
G01*
X3239300D02*
G03*
X3239300Y1655860I-5000J0D01*
G01*
X5479300D02*
G03*
X5479300Y1655860I-5000J0D01*
G01*
X7719300D02*
G03*
X7719300Y1655860I-5000J0D01*
G01*
X999300Y3555860D02*
G03*
X999300Y3555860I-5000J0D01*
G01*
X3239300D02*
G03*
X3239300Y3555860I-5000J0D01*
G01*
X5479300D02*
G03*
X5479300Y3555860I-5000J0D01*
G01*
X7719300D02*
G03*
X7719300Y3555860I-5000J0D01*
G01*
X999300Y5455860D02*
G03*
X999300Y5455860I-5000J0D01*
G01*
X3239300D02*
G03*
X3239300Y5455860I-5000J0D01*
G01*
X5479300D02*
G03*
X5479300Y5455860I-5000J0D01*
G01*
X7719300D02*
G03*
X7719300Y5455860I-5000J0D01*
G01*
X999300Y7355860D02*
G03*
X999300Y7355860I-5000J0D01*
G01*
X3239300D02*
G03*
X3239300Y7355860I-5000J0D01*
G01*
X5479300D02*
G03*
X5479300Y7355860I-5000J0D01*
G01*
X7719300D02*
G03*
X7719300Y7355860I-5000J0D01*
G01*
X999300Y9255860D02*
G03*
X999300Y9255860I-5000J0D01*
G01*
X3239300D02*
G03*
X3239300Y9255860I-5000J0D01*
G01*
X5479300D02*
G03*
X5479300Y9255860I-5000J0D01*
G01*
X7719300D02*
G03*
X7719300Y9255860I-5000J0D01*
G01*
D34*
X1947848Y1504620D02*
G03*
X1947848Y1504620I-5000J0D01*
G01*
X2053248Y1592001D02*
G03*
X2053248Y1592001I-5000J0D01*
G01*
X1826440Y1697080D02*
G03*
X1826440Y1697080I-5000J0D01*
G01*
X4187848Y1504620D02*
G03*
X4187848Y1504620I-5000J0D01*
G01*
X4293248Y1592001D02*
G03*
X4293248Y1592001I-5000J0D01*
G01*
X4066440Y1697080D02*
G03*
X4066440Y1697080I-5000J0D01*
G01*
X6427848Y1504620D02*
G03*
X6427848Y1504620I-5000J0D01*
G01*
X6533248Y1592001D02*
G03*
X6533248Y1592001I-5000J0D01*
G01*
X6306440Y1697080D02*
G03*
X6306440Y1697080I-5000J0D01*
G01*
X8667849Y1504620D02*
G03*
X8667849Y1504620I-5000J0D01*
G01*
X8773248Y1592001D02*
G03*
X8773248Y1592001I-5000J0D01*
G01*
X8546440Y1697080D02*
G03*
X8546440Y1697080I-5000J0D01*
G01*
X1947848Y3404620D02*
G03*
X1947848Y3404620I-5000J0D01*
G01*
X2053248Y3492001D02*
G03*
X2053248Y3492001I-5000J0D01*
G01*
X1826440Y3597080D02*
G03*
X1826440Y3597080I-5000J0D01*
G01*
X4187848Y3404620D02*
G03*
X4187848Y3404620I-5000J0D01*
G01*
X4293248Y3492001D02*
G03*
X4293248Y3492001I-5000J0D01*
G01*
X4066440Y3597080D02*
G03*
X4066440Y3597080I-5000J0D01*
G01*
X6427848Y3404620D02*
G03*
X6427848Y3404620I-5000J0D01*
G01*
X6533248Y3492001D02*
G03*
X6533248Y3492001I-5000J0D01*
G01*
X6306440Y3597080D02*
G03*
X6306440Y3597080I-5000J0D01*
G01*
X8667849Y3404620D02*
G03*
X8667849Y3404620I-5000J0D01*
G01*
X8773248Y3492001D02*
G03*
X8773248Y3492001I-5000J0D01*
G01*
X8546440Y3597080D02*
G03*
X8546440Y3597080I-5000J0D01*
G01*
X1947848Y5304620D02*
G03*
X1947848Y5304620I-5000J0D01*
G01*
X2053248Y5392001D02*
G03*
X2053248Y5392001I-5000J0D01*
G01*
X1826440Y5497080D02*
G03*
X1826440Y5497080I-5000J0D01*
G01*
X4187848Y5304620D02*
G03*
X4187848Y5304620I-5000J0D01*
G01*
X4293248Y5392001D02*
G03*
X4293248Y5392001I-5000J0D01*
G01*
X4066440Y5497080D02*
G03*
X4066440Y5497080I-5000J0D01*
G01*
X6427848Y5304620D02*
G03*
X6427848Y5304620I-5000J0D01*
G01*
X6533248Y5392001D02*
G03*
X6533248Y5392001I-5000J0D01*
G01*
X6306440Y5497080D02*
G03*
X6306440Y5497080I-5000J0D01*
G01*
X8667849Y5304620D02*
G03*
X8667849Y5304620I-5000J0D01*
G01*
X8773248Y5392001D02*
G03*
X8773248Y5392001I-5000J0D01*
G01*
X8546440Y5497080D02*
G03*
X8546440Y5497080I-5000J0D01*
G01*
X1947848Y7204620D02*
G03*
X1947848Y7204620I-5000J0D01*
G01*
X2053248Y7292001D02*
G03*
X2053248Y7292001I-5000J0D01*
G01*
X1826440Y7397080D02*
G03*
X1826440Y7397080I-5000J0D01*
G01*
X4187848Y7204620D02*
G03*
X4187848Y7204620I-5000J0D01*
G01*
X4293248Y7292001D02*
G03*
X4293248Y7292001I-5000J0D01*
G01*
X4066440Y7397080D02*
G03*
X4066440Y7397080I-5000J0D01*
G01*
X6427848Y7204620D02*
G03*
X6427848Y7204620I-5000J0D01*
G01*
X6533248Y7292001D02*
G03*
X6533248Y7292001I-5000J0D01*
G01*
X6306440Y7397080D02*
G03*
X6306440Y7397080I-5000J0D01*
G01*
X8667849Y7204620D02*
G03*
X8667849Y7204620I-5000J0D01*
G01*
X8773248Y7292001D02*
G03*
X8773248Y7292001I-5000J0D01*
G01*
X8546440Y7397080D02*
G03*
X8546440Y7397080I-5000J0D01*
G01*
X1947848Y9104620D02*
G03*
X1947848Y9104620I-5000J0D01*
G01*
X2053248Y9192001D02*
G03*
X2053248Y9192001I-5000J0D01*
G01*
X1826440Y9297080D02*
G03*
X1826440Y9297080I-5000J0D01*
G01*
X4187848Y9104620D02*
G03*
X4187848Y9104620I-5000J0D01*
G01*
X4293248Y9192001D02*
G03*
X4293248Y9192001I-5000J0D01*
G01*
X4066440Y9297080D02*
G03*
X4066440Y9297080I-5000J0D01*
G01*
X6427848Y9104620D02*
G03*
X6427848Y9104620I-5000J0D01*
G01*
X6533248Y9192001D02*
G03*
X6533248Y9192001I-5000J0D01*
G01*
X6306440Y9297080D02*
G03*
X6306440Y9297080I-5000J0D01*
G01*
X8667849Y9104620D02*
G03*
X8667849Y9104620I-5000J0D01*
G01*
X8773248Y9192001D02*
G03*
X8773248Y9192001I-5000J0D01*
G01*
X8546440Y9297080D02*
G03*
X8546440Y9297080I-5000J0D01*
G01*
D35*
X1615936Y795979D02*
Y846762D01*
X1590544D01*
X1582080Y838299D01*
Y821371D01*
X1590544Y812907D01*
X1615936D01*
X1599008D02*
X1582080Y795979D01*
X1565153D02*
X1548225D01*
X1556689D01*
Y846762D01*
X1565153Y838299D01*
X1045860Y1530233D02*
X995076D01*
Y1555625D01*
X1003540Y1564088D01*
X1037396D01*
X1045860Y1555625D01*
Y1530233D01*
X995076Y1581016D02*
Y1597944D01*
Y1589480D01*
X1045860D01*
X1037396Y1581016D01*
X2468591Y742668D02*
Y793452D01*
X2443199D01*
X2434736Y784988D01*
Y768060D01*
X2443199Y759596D01*
X2468591D01*
X2383952Y784988D02*
X2392416Y793452D01*
X2409344D01*
X2417808Y784988D01*
Y751132D01*
X2409344Y742668D01*
X2392416D01*
X2383952Y751132D01*
Y768060D01*
X2400880D01*
X2367024Y742668D02*
Y793452D01*
X2350096Y776524D01*
X2333169Y793452D01*
Y742668D01*
X2421324Y1050302D02*
X2429788Y1058766D01*
X2446716D01*
X2455180Y1050302D01*
Y1016446D01*
X2446716Y1007982D01*
X2429788D01*
X2421324Y1016446D01*
Y1033374D01*
X2438252D01*
X2404397Y1007982D02*
Y1058766D01*
X2370541Y1007982D01*
Y1058766D01*
X2353613D02*
Y1007982D01*
X2328221D01*
X2319757Y1016446D01*
Y1050302D01*
X2328221Y1058766D01*
X2353613D01*
X2462625Y539051D02*
X2454161Y547515D01*
X2437233D01*
X2428770Y539051D01*
Y530587D01*
X2437233Y522123D01*
X2445697D01*
X2437233D01*
X2428770Y513659D01*
Y505195D01*
X2437233Y496731D01*
X2454161D01*
X2462625Y505195D01*
X2411842Y547515D02*
Y513659D01*
X2394914Y496731D01*
X2377986Y513659D01*
Y547515D01*
X2361058Y539051D02*
X2352594Y547515D01*
X2335666D01*
X2327203Y539051D01*
Y530587D01*
X2335666Y522123D01*
X2344130D01*
X2335666D01*
X2327203Y513659D01*
Y505195D01*
X2335666Y496731D01*
X2352594D01*
X2361058Y505195D01*
X2512371Y1967172D02*
Y1924853D01*
X2503907Y1916389D01*
X2486979D01*
X2478515Y1924853D01*
Y1967172D01*
X2427732Y1958708D02*
X2436196Y1967172D01*
X2453124D01*
X2461588Y1958708D01*
Y1950244D01*
X2453124Y1941780D01*
X2436196D01*
X2427732Y1933316D01*
Y1924853D01*
X2436196Y1916389D01*
X2453124D01*
X2461588Y1924853D01*
X2410804Y1967172D02*
Y1916389D01*
X2385412D01*
X2376949Y1924853D01*
Y1933316D01*
X2385412Y1941780D01*
X2410804D01*
X2385412D01*
X2376949Y1950244D01*
Y1958708D01*
X2385412Y1967172D01*
X2410804D01*
X2062359Y641309D02*
Y692092D01*
X2036967D01*
X2028504Y683628D01*
Y666700D01*
X2036967Y658236D01*
X2062359D01*
X2045432D02*
X2028504Y641309D01*
X2011576D02*
X1994648D01*
X2003112D01*
Y692092D01*
X2011576Y683628D01*
X1969256D02*
X1960792Y692092D01*
X1943864D01*
X1935400Y683628D01*
Y649773D01*
X1943864Y641309D01*
X1960792D01*
X1969256Y649773D01*
Y683628D01*
X1609299Y1634749D02*
Y1685532D01*
X1583907D01*
X1575443Y1677068D01*
Y1660140D01*
X1583907Y1651676D01*
X1609299D01*
X1592371D02*
X1575443Y1634749D01*
X1558516Y1677068D02*
X1550052Y1685532D01*
X1533124D01*
X1524660Y1677068D01*
Y1668604D01*
X1533124Y1660140D01*
X1524660Y1651676D01*
Y1643213D01*
X1533124Y1634749D01*
X1550052D01*
X1558516Y1643213D01*
Y1651676D01*
X1550052Y1660140D01*
X1558516Y1668604D01*
Y1677068D01*
X1550052Y1660140D02*
X1533124D01*
X1119506Y1688816D02*
Y1739600D01*
X1094114D01*
X1085650Y1731136D01*
Y1714208D01*
X1094114Y1705744D01*
X1119506D01*
X1102578D02*
X1085650Y1688816D01*
X1068722Y1739600D02*
X1034867D01*
Y1731136D01*
X1068722Y1697280D01*
Y1688816D01*
X1245165Y1087918D02*
Y1138701D01*
X1219773D01*
X1211309Y1130238D01*
Y1113310D01*
X1219773Y1104846D01*
X1245165D01*
X1228237D02*
X1211309Y1087918D01*
X1160525Y1138701D02*
X1177453Y1130238D01*
X1194381Y1113310D01*
Y1096382D01*
X1185917Y1087918D01*
X1168989D01*
X1160525Y1096382D01*
Y1104846D01*
X1168989Y1113310D01*
X1194381D01*
X1951574Y1946751D02*
X1985430D01*
Y1921360D01*
X1968502D01*
X1985430D01*
Y1895968D01*
X1900791D02*
X1934647D01*
X1900791Y1929823D01*
Y1938287D01*
X1909255Y1946751D01*
X1926183D01*
X1934647Y1938287D01*
X1815019Y1670479D02*
Y1619696D01*
X1789627D01*
X1781163Y1628160D01*
Y1662015D01*
X1789627Y1670479D01*
X1815019D01*
X1764235Y1662015D02*
X1755771Y1670479D01*
X1738843D01*
X1730380Y1662015D01*
Y1653551D01*
X1738843Y1645087D01*
X1730380Y1636623D01*
Y1628160D01*
X1738843Y1619696D01*
X1755771D01*
X1764235Y1628160D01*
Y1636623D01*
X1755771Y1645087D01*
X1764235Y1653551D01*
Y1662015D01*
X1755771Y1645087D02*
X1738843D01*
X1961887Y1594819D02*
X1911103D01*
Y1620210D01*
X1919567Y1628674D01*
X1953423D01*
X1961887Y1620210D01*
Y1594819D01*
Y1645602D02*
Y1679458D01*
X1953423D01*
X1919567Y1645602D01*
X1911103D01*
X1940777Y1478692D02*
Y1427909D01*
X1915385D01*
X1906921Y1436373D01*
Y1470228D01*
X1915385Y1478692D01*
X1940777D01*
X1856138D02*
X1873065Y1470228D01*
X1889993Y1453301D01*
Y1436373D01*
X1881529Y1427909D01*
X1864601D01*
X1856138Y1436373D01*
Y1444837D01*
X1864601Y1453301D01*
X1889993D01*
X1795371Y989049D02*
X1803835Y997513D01*
X1820762D01*
X1829226Y989049D01*
Y955194D01*
X1820762Y946730D01*
X1803835D01*
X1795371Y955194D01*
X1778443Y997513D02*
X1744587D01*
Y989049D01*
X1778443Y955194D01*
Y946730D01*
X1577150Y1179180D02*
X1585614Y1187643D01*
X1602542D01*
X1611006Y1179180D01*
Y1145324D01*
X1602542Y1136860D01*
X1585614D01*
X1577150Y1145324D01*
X1526367Y1187643D02*
X1543295Y1179180D01*
X1560222Y1162252D01*
Y1145324D01*
X1551758Y1136860D01*
X1534831D01*
X1526367Y1145324D01*
Y1153788D01*
X1534831Y1162252D01*
X1560222D01*
X3855936Y795979D02*
Y846762D01*
X3830544D01*
X3822080Y838299D01*
Y821371D01*
X3830544Y812907D01*
X3855936D01*
X3839008D02*
X3822080Y795979D01*
X3805153D02*
X3788225D01*
X3796689D01*
Y846762D01*
X3805153Y838299D01*
X3285860Y1530233D02*
X3235076D01*
Y1555625D01*
X3243540Y1564088D01*
X3277396D01*
X3285860Y1555625D01*
Y1530233D01*
X3235076Y1581016D02*
Y1597944D01*
Y1589480D01*
X3285860D01*
X3277396Y1581016D01*
X4708591Y742668D02*
Y793452D01*
X4683199D01*
X4674736Y784988D01*
Y768060D01*
X4683199Y759596D01*
X4708591D01*
X4623952Y784988D02*
X4632416Y793452D01*
X4649344D01*
X4657808Y784988D01*
Y751132D01*
X4649344Y742668D01*
X4632416D01*
X4623952Y751132D01*
Y768060D01*
X4640880D01*
X4607024Y742668D02*
Y793452D01*
X4590096Y776524D01*
X4573169Y793452D01*
Y742668D01*
X4661324Y1050302D02*
X4669788Y1058766D01*
X4686716D01*
X4695180Y1050302D01*
Y1016446D01*
X4686716Y1007982D01*
X4669788D01*
X4661324Y1016446D01*
Y1033374D01*
X4678252D01*
X4644397Y1007982D02*
Y1058766D01*
X4610541Y1007982D01*
Y1058766D01*
X4593613D02*
Y1007982D01*
X4568221D01*
X4559757Y1016446D01*
Y1050302D01*
X4568221Y1058766D01*
X4593613D01*
X4702625Y539051D02*
X4694161Y547515D01*
X4677233D01*
X4668770Y539051D01*
Y530587D01*
X4677233Y522123D01*
X4685698D01*
X4677233D01*
X4668770Y513659D01*
Y505195D01*
X4677233Y496731D01*
X4694161D01*
X4702625Y505195D01*
X4651842Y547515D02*
Y513659D01*
X4634914Y496731D01*
X4617986Y513659D01*
Y547515D01*
X4601058Y539051D02*
X4592594Y547515D01*
X4575666D01*
X4567203Y539051D01*
Y530587D01*
X4575666Y522123D01*
X4584131D01*
X4575666D01*
X4567203Y513659D01*
Y505195D01*
X4575666Y496731D01*
X4592594D01*
X4601058Y505195D01*
X4752371Y1967172D02*
Y1924853D01*
X4743907Y1916389D01*
X4726979D01*
X4718516Y1924853D01*
Y1967172D01*
X4667732Y1958708D02*
X4676196Y1967172D01*
X4693124D01*
X4701588Y1958708D01*
Y1950244D01*
X4693124Y1941780D01*
X4676196D01*
X4667732Y1933316D01*
Y1924853D01*
X4676196Y1916389D01*
X4693124D01*
X4701588Y1924853D01*
X4650804Y1967172D02*
Y1916389D01*
X4625412D01*
X4616949Y1924853D01*
Y1933316D01*
X4625412Y1941780D01*
X4650804D01*
X4625412D01*
X4616949Y1950244D01*
Y1958708D01*
X4625412Y1967172D01*
X4650804D01*
X4302359Y641309D02*
Y692092D01*
X4276968D01*
X4268504Y683628D01*
Y666700D01*
X4276968Y658236D01*
X4302359D01*
X4285432D02*
X4268504Y641309D01*
X4251576D02*
X4234648D01*
X4243112D01*
Y692092D01*
X4251576Y683628D01*
X4209256D02*
X4200792Y692092D01*
X4183864D01*
X4175401Y683628D01*
Y649773D01*
X4183864Y641309D01*
X4200792D01*
X4209256Y649773D01*
Y683628D01*
X3849299Y1634749D02*
Y1685532D01*
X3823907D01*
X3815443Y1677068D01*
Y1660140D01*
X3823907Y1651676D01*
X3849299D01*
X3832371D02*
X3815443Y1634749D01*
X3798516Y1677068D02*
X3790052Y1685532D01*
X3773124D01*
X3764660Y1677068D01*
Y1668604D01*
X3773124Y1660140D01*
X3764660Y1651676D01*
Y1643213D01*
X3773124Y1634749D01*
X3790052D01*
X3798516Y1643213D01*
Y1651676D01*
X3790052Y1660140D01*
X3798516Y1668604D01*
Y1677068D01*
X3790052Y1660140D02*
X3773124D01*
X3359506Y1688816D02*
Y1739600D01*
X3334114D01*
X3325650Y1731136D01*
Y1714208D01*
X3334114Y1705744D01*
X3359506D01*
X3342578D02*
X3325650Y1688816D01*
X3308722Y1739600D02*
X3274867D01*
Y1731136D01*
X3308722Y1697280D01*
Y1688816D01*
X3485165Y1087918D02*
Y1138701D01*
X3459773D01*
X3451309Y1130238D01*
Y1113310D01*
X3459773Y1104846D01*
X3485165D01*
X3468237D02*
X3451309Y1087918D01*
X3400526Y1138701D02*
X3417453Y1130238D01*
X3434381Y1113310D01*
Y1096382D01*
X3425917Y1087918D01*
X3408989D01*
X3400526Y1096382D01*
Y1104846D01*
X3408989Y1113310D01*
X3434381D01*
X4191575Y1946751D02*
X4225430D01*
Y1921360D01*
X4208502D01*
X4225430D01*
Y1895968D01*
X4140791D02*
X4174647D01*
X4140791Y1929823D01*
Y1938287D01*
X4149255Y1946751D01*
X4166183D01*
X4174647Y1938287D01*
X4055019Y1670479D02*
Y1619696D01*
X4029627D01*
X4021163Y1628160D01*
Y1662015D01*
X4029627Y1670479D01*
X4055019D01*
X4004235Y1662015D02*
X3995771Y1670479D01*
X3978843D01*
X3970380Y1662015D01*
Y1653551D01*
X3978843Y1645087D01*
X3970380Y1636623D01*
Y1628160D01*
X3978843Y1619696D01*
X3995771D01*
X4004235Y1628160D01*
Y1636623D01*
X3995771Y1645087D01*
X4004235Y1653551D01*
Y1662015D01*
X3995771Y1645087D02*
X3978843D01*
X4201887Y1594819D02*
X4151103D01*
Y1620210D01*
X4159567Y1628674D01*
X4193423D01*
X4201887Y1620210D01*
Y1594819D01*
Y1645602D02*
Y1679458D01*
X4193423D01*
X4159567Y1645602D01*
X4151103D01*
X4180777Y1478692D02*
Y1427909D01*
X4155385D01*
X4146921Y1436373D01*
Y1470228D01*
X4155385Y1478692D01*
X4180777D01*
X4096138D02*
X4113065Y1470228D01*
X4129993Y1453301D01*
Y1436373D01*
X4121529Y1427909D01*
X4104601D01*
X4096138Y1436373D01*
Y1444837D01*
X4104601Y1453301D01*
X4129993D01*
X4035371Y989049D02*
X4043835Y997513D01*
X4060763D01*
X4069227Y989049D01*
Y955194D01*
X4060763Y946730D01*
X4043835D01*
X4035371Y955194D01*
X4018443Y997513D02*
X3984587D01*
Y989049D01*
X4018443Y955194D01*
Y946730D01*
X3817150Y1179180D02*
X3825614Y1187643D01*
X3842542D01*
X3851006Y1179180D01*
Y1145324D01*
X3842542Y1136860D01*
X3825614D01*
X3817150Y1145324D01*
X3766367Y1187643D02*
X3783295Y1179180D01*
X3800223Y1162252D01*
Y1145324D01*
X3791758Y1136860D01*
X3774831D01*
X3766367Y1145324D01*
Y1153788D01*
X3774831Y1162252D01*
X3800223D01*
X6095936Y795979D02*
Y846762D01*
X6070544D01*
X6062081Y838299D01*
Y821371D01*
X6070544Y812907D01*
X6095936D01*
X6079008D02*
X6062081Y795979D01*
X6045153D02*
X6028225D01*
X6036689D01*
Y846762D01*
X6045153Y838299D01*
X5525860Y1530233D02*
X5475076D01*
Y1555625D01*
X5483540Y1564088D01*
X5517396D01*
X5525860Y1555625D01*
Y1530233D01*
X5475076Y1581016D02*
Y1597944D01*
Y1589480D01*
X5525860D01*
X5517396Y1581016D01*
X6948591Y742668D02*
Y793452D01*
X6923200D01*
X6914736Y784988D01*
Y768060D01*
X6923200Y759596D01*
X6948591D01*
X6863952Y784988D02*
X6872416Y793452D01*
X6889344D01*
X6897808Y784988D01*
Y751132D01*
X6889344Y742668D01*
X6872416D01*
X6863952Y751132D01*
Y768060D01*
X6880880D01*
X6847024Y742668D02*
Y793452D01*
X6830097Y776524D01*
X6813169Y793452D01*
Y742668D01*
X6901325Y1050302D02*
X6909788Y1058766D01*
X6926716D01*
X6935180Y1050302D01*
Y1016446D01*
X6926716Y1007982D01*
X6909788D01*
X6901325Y1016446D01*
Y1033374D01*
X6918252D01*
X6884397Y1007982D02*
Y1058766D01*
X6850541Y1007982D01*
Y1058766D01*
X6833613D02*
Y1007982D01*
X6808221D01*
X6799758Y1016446D01*
Y1050302D01*
X6808221Y1058766D01*
X6833613D01*
X6942625Y539051D02*
X6934161Y547515D01*
X6917234D01*
X6908770Y539051D01*
Y530587D01*
X6917234Y522123D01*
X6925698D01*
X6917234D01*
X6908770Y513659D01*
Y505195D01*
X6917234Y496731D01*
X6934161D01*
X6942625Y505195D01*
X6891842Y547515D02*
Y513659D01*
X6874914Y496731D01*
X6857986Y513659D01*
Y547515D01*
X6841058Y539051D02*
X6832594Y547515D01*
X6815667D01*
X6807203Y539051D01*
Y530587D01*
X6815667Y522123D01*
X6824131D01*
X6815667D01*
X6807203Y513659D01*
Y505195D01*
X6815667Y496731D01*
X6832594D01*
X6841058Y505195D01*
X6992371Y1967172D02*
Y1924853D01*
X6983907Y1916389D01*
X6966979D01*
X6958516Y1924853D01*
Y1967172D01*
X6907732Y1958708D02*
X6916196Y1967172D01*
X6933124D01*
X6941588Y1958708D01*
Y1950244D01*
X6933124Y1941780D01*
X6916196D01*
X6907732Y1933316D01*
Y1924853D01*
X6916196Y1916389D01*
X6933124D01*
X6941588Y1924853D01*
X6890804Y1967172D02*
Y1916389D01*
X6865412D01*
X6856949Y1924853D01*
Y1933316D01*
X6865412Y1941780D01*
X6890804D01*
X6865412D01*
X6856949Y1950244D01*
Y1958708D01*
X6865412Y1967172D01*
X6890804D01*
X6542360Y641309D02*
Y692092D01*
X6516968D01*
X6508504Y683628D01*
Y666700D01*
X6516968Y658236D01*
X6542360D01*
X6525432D02*
X6508504Y641309D01*
X6491576D02*
X6474648D01*
X6483112D01*
Y692092D01*
X6491576Y683628D01*
X6449256D02*
X6440792Y692092D01*
X6423864D01*
X6415401Y683628D01*
Y649773D01*
X6423864Y641309D01*
X6440792D01*
X6449256Y649773D01*
Y683628D01*
X6089299Y1634749D02*
Y1685532D01*
X6063907D01*
X6055444Y1677068D01*
Y1660140D01*
X6063907Y1651676D01*
X6089299D01*
X6072371D02*
X6055444Y1634749D01*
X6038516Y1677068D02*
X6030052Y1685532D01*
X6013124D01*
X6004660Y1677068D01*
Y1668604D01*
X6013124Y1660140D01*
X6004660Y1651676D01*
Y1643213D01*
X6013124Y1634749D01*
X6030052D01*
X6038516Y1643213D01*
Y1651676D01*
X6030052Y1660140D01*
X6038516Y1668604D01*
Y1677068D01*
X6030052Y1660140D02*
X6013124D01*
X5599506Y1688816D02*
Y1739600D01*
X5574114D01*
X5565650Y1731136D01*
Y1714208D01*
X5574114Y1705744D01*
X5599506D01*
X5582578D02*
X5565650Y1688816D01*
X5548722Y1739600D02*
X5514867D01*
Y1731136D01*
X5548722Y1697280D01*
Y1688816D01*
X5725165Y1087918D02*
Y1138701D01*
X5699773D01*
X5691309Y1130238D01*
Y1113310D01*
X5699773Y1104846D01*
X5725165D01*
X5708237D02*
X5691309Y1087918D01*
X5640526Y1138701D02*
X5657454Y1130238D01*
X5674381Y1113310D01*
Y1096382D01*
X5665917Y1087918D01*
X5648989D01*
X5640526Y1096382D01*
Y1104846D01*
X5648989Y1113310D01*
X5674381D01*
X6431575Y1946751D02*
X6465430D01*
Y1921360D01*
X6448502D01*
X6465430D01*
Y1895968D01*
X6380791D02*
X6414647D01*
X6380791Y1929823D01*
Y1938287D01*
X6389255Y1946751D01*
X6406183D01*
X6414647Y1938287D01*
X6295019Y1670479D02*
Y1619696D01*
X6269627D01*
X6261163Y1628160D01*
Y1662015D01*
X6269627Y1670479D01*
X6295019D01*
X6244235Y1662015D02*
X6235771Y1670479D01*
X6218844D01*
X6210380Y1662015D01*
Y1653551D01*
X6218844Y1645087D01*
X6210380Y1636623D01*
Y1628160D01*
X6218844Y1619696D01*
X6235771D01*
X6244235Y1628160D01*
Y1636623D01*
X6235771Y1645087D01*
X6244235Y1653551D01*
Y1662015D01*
X6235771Y1645087D02*
X6218844D01*
X6441887Y1594819D02*
X6391103D01*
Y1620210D01*
X6399567Y1628674D01*
X6433423D01*
X6441887Y1620210D01*
Y1594819D01*
Y1645602D02*
Y1679458D01*
X6433423D01*
X6399567Y1645602D01*
X6391103D01*
X6420777Y1478692D02*
Y1427909D01*
X6395385D01*
X6386921Y1436373D01*
Y1470228D01*
X6395385Y1478692D01*
X6420777D01*
X6336138D02*
X6353066Y1470228D01*
X6369993Y1453301D01*
Y1436373D01*
X6361529Y1427909D01*
X6344601D01*
X6336138Y1436373D01*
Y1444837D01*
X6344601Y1453301D01*
X6369993D01*
X6275371Y989049D02*
X6283835Y997513D01*
X6300763D01*
X6309227Y989049D01*
Y955194D01*
X6300763Y946730D01*
X6283835D01*
X6275371Y955194D01*
X6258443Y997513D02*
X6224587D01*
Y989049D01*
X6258443Y955194D01*
Y946730D01*
X6057150Y1179180D02*
X6065614Y1187643D01*
X6082542D01*
X6091006Y1179180D01*
Y1145324D01*
X6082542Y1136860D01*
X6065614D01*
X6057150Y1145324D01*
X6006367Y1187643D02*
X6023295Y1179180D01*
X6040223Y1162252D01*
Y1145324D01*
X6031759Y1136860D01*
X6014831D01*
X6006367Y1145324D01*
Y1153788D01*
X6014831Y1162252D01*
X6040223D01*
X8335936Y795979D02*
Y846762D01*
X8310544D01*
X8302081Y838299D01*
Y821371D01*
X8310544Y812907D01*
X8335936D01*
X8319009D02*
X8302081Y795979D01*
X8285153D02*
X8268225D01*
X8276689D01*
Y846762D01*
X8285153Y838299D01*
X7765860Y1530233D02*
X7715077D01*
Y1555625D01*
X7723541Y1564088D01*
X7757396D01*
X7765860Y1555625D01*
Y1530233D01*
X7715077Y1581016D02*
Y1597944D01*
Y1589480D01*
X7765860D01*
X7757396Y1581016D01*
X9188591Y742668D02*
Y793452D01*
X9163200D01*
X9154736Y784988D01*
Y768060D01*
X9163200Y759596D01*
X9188591D01*
X9103952Y784988D02*
X9112416Y793452D01*
X9129344D01*
X9137808Y784988D01*
Y751132D01*
X9129344Y742668D01*
X9112416D01*
X9103952Y751132D01*
Y768060D01*
X9120880D01*
X9087024Y742668D02*
Y793452D01*
X9070097Y776524D01*
X9053169Y793452D01*
Y742668D01*
X9141325Y1050302D02*
X9149788Y1058766D01*
X9166716D01*
X9175180Y1050302D01*
Y1016446D01*
X9166716Y1007982D01*
X9149788D01*
X9141325Y1016446D01*
Y1033374D01*
X9158252D01*
X9124397Y1007982D02*
Y1058766D01*
X9090541Y1007982D01*
Y1058766D01*
X9073613D02*
Y1007982D01*
X9048221D01*
X9039758Y1016446D01*
Y1050302D01*
X9048221Y1058766D01*
X9073613D01*
X9182626Y539051D02*
X9174161Y547515D01*
X9157234D01*
X9148770Y539051D01*
Y530587D01*
X9157234Y522123D01*
X9165698D01*
X9157234D01*
X9148770Y513659D01*
Y505195D01*
X9157234Y496731D01*
X9174161D01*
X9182626Y505195D01*
X9131842Y547515D02*
Y513659D01*
X9114914Y496731D01*
X9097986Y513659D01*
Y547515D01*
X9081059Y539051D02*
X9072595Y547515D01*
X9055667D01*
X9047203Y539051D01*
Y530587D01*
X9055667Y522123D01*
X9064131D01*
X9055667D01*
X9047203Y513659D01*
Y505195D01*
X9055667Y496731D01*
X9072595D01*
X9081059Y505195D01*
X9232371Y1967172D02*
Y1924853D01*
X9223907Y1916389D01*
X9206980D01*
X9198516Y1924853D01*
Y1967172D01*
X9147732Y1958708D02*
X9156196Y1967172D01*
X9173124D01*
X9181588Y1958708D01*
Y1950244D01*
X9173124Y1941780D01*
X9156196D01*
X9147732Y1933316D01*
Y1924853D01*
X9156196Y1916389D01*
X9173124D01*
X9181588Y1924853D01*
X9130804Y1967172D02*
Y1916389D01*
X9105413D01*
X9096949Y1924853D01*
Y1933316D01*
X9105413Y1941780D01*
X9130804D01*
X9105413D01*
X9096949Y1950244D01*
Y1958708D01*
X9105413Y1967172D01*
X9130804D01*
X8782360Y641309D02*
Y692092D01*
X8756968D01*
X8748504Y683628D01*
Y666700D01*
X8756968Y658236D01*
X8782360D01*
X8765432D02*
X8748504Y641309D01*
X8731576D02*
X8714648D01*
X8723112D01*
Y692092D01*
X8731576Y683628D01*
X8689256D02*
X8680792Y692092D01*
X8663865D01*
X8655401Y683628D01*
Y649773D01*
X8663865Y641309D01*
X8680792D01*
X8689256Y649773D01*
Y683628D01*
X8329299Y1634749D02*
Y1685532D01*
X8303907D01*
X8295444Y1677068D01*
Y1660140D01*
X8303907Y1651676D01*
X8329299D01*
X8312371D02*
X8295444Y1634749D01*
X8278516Y1677068D02*
X8270052Y1685532D01*
X8253124D01*
X8244660Y1677068D01*
Y1668604D01*
X8253124Y1660140D01*
X8244660Y1651676D01*
Y1643213D01*
X8253124Y1634749D01*
X8270052D01*
X8278516Y1643213D01*
Y1651676D01*
X8270052Y1660140D01*
X8278516Y1668604D01*
Y1677068D01*
X8270052Y1660140D02*
X8253124D01*
X7839506Y1688816D02*
Y1739600D01*
X7814114D01*
X7805650Y1731136D01*
Y1714208D01*
X7814114Y1705744D01*
X7839506D01*
X7822578D02*
X7805650Y1688816D01*
X7788723Y1739600D02*
X7754867D01*
Y1731136D01*
X7788723Y1697280D01*
Y1688816D01*
X7965165Y1087918D02*
Y1138701D01*
X7939773D01*
X7931309Y1130238D01*
Y1113310D01*
X7939773Y1104846D01*
X7965165D01*
X7948237D02*
X7931309Y1087918D01*
X7880526Y1138701D02*
X7897454Y1130238D01*
X7914381Y1113310D01*
Y1096382D01*
X7905917Y1087918D01*
X7888990D01*
X7880526Y1096382D01*
Y1104846D01*
X7888990Y1113310D01*
X7914381D01*
X8671575Y1946751D02*
X8705430D01*
Y1921360D01*
X8688503D01*
X8705430D01*
Y1895968D01*
X8620791D02*
X8654647D01*
X8620791Y1929823D01*
Y1938287D01*
X8629255Y1946751D01*
X8646183D01*
X8654647Y1938287D01*
X8535019Y1670479D02*
Y1619696D01*
X8509627D01*
X8501163Y1628160D01*
Y1662015D01*
X8509627Y1670479D01*
X8535019D01*
X8484236Y1662015D02*
X8475771Y1670479D01*
X8458844D01*
X8450380Y1662015D01*
Y1653551D01*
X8458844Y1645087D01*
X8450380Y1636623D01*
Y1628160D01*
X8458844Y1619696D01*
X8475771D01*
X8484236Y1628160D01*
Y1636623D01*
X8475771Y1645087D01*
X8484236Y1653551D01*
Y1662015D01*
X8475771Y1645087D02*
X8458844D01*
X8681887Y1594819D02*
X8631103D01*
Y1620210D01*
X8639567Y1628674D01*
X8673423D01*
X8681887Y1620210D01*
Y1594819D01*
Y1645602D02*
Y1679458D01*
X8673423D01*
X8639567Y1645602D01*
X8631103D01*
X8660777Y1478692D02*
Y1427909D01*
X8635385D01*
X8626921Y1436373D01*
Y1470228D01*
X8635385Y1478692D01*
X8660777D01*
X8576138D02*
X8593066Y1470228D01*
X8609993Y1453301D01*
Y1436373D01*
X8601529Y1427909D01*
X8584602D01*
X8576138Y1436373D01*
Y1444837D01*
X8584602Y1453301D01*
X8609993D01*
X8515371Y989049D02*
X8523835Y997513D01*
X8540763D01*
X8549227Y989049D01*
Y955194D01*
X8540763Y946730D01*
X8523835D01*
X8515371Y955194D01*
X8498443Y997513D02*
X8464588D01*
Y989049D01*
X8498443Y955194D01*
Y946730D01*
X8297151Y1179180D02*
X8305614Y1187643D01*
X8322542D01*
X8331006Y1179180D01*
Y1145324D01*
X8322542Y1136860D01*
X8305614D01*
X8297151Y1145324D01*
X8246367Y1187643D02*
X8263295Y1179180D01*
X8280223Y1162252D01*
Y1145324D01*
X8271759Y1136860D01*
X8254831D01*
X8246367Y1145324D01*
Y1153788D01*
X8254831Y1162252D01*
X8280223D01*
X1615936Y2695979D02*
Y2746762D01*
X1590544D01*
X1582080Y2738299D01*
Y2721371D01*
X1590544Y2712907D01*
X1615936D01*
X1599008D02*
X1582080Y2695979D01*
X1565153D02*
X1548225D01*
X1556689D01*
Y2746762D01*
X1565153Y2738299D01*
X1045860Y3430233D02*
X995076D01*
Y3455625D01*
X1003540Y3464088D01*
X1037396D01*
X1045860Y3455625D01*
Y3430233D01*
X995076Y3481016D02*
Y3497944D01*
Y3489480D01*
X1045860D01*
X1037396Y3481016D01*
X2468591Y2642668D02*
Y2693452D01*
X2443199D01*
X2434736Y2684988D01*
Y2668060D01*
X2443199Y2659596D01*
X2468591D01*
X2383952Y2684988D02*
X2392416Y2693452D01*
X2409344D01*
X2417808Y2684988D01*
Y2651132D01*
X2409344Y2642668D01*
X2392416D01*
X2383952Y2651132D01*
Y2668060D01*
X2400880D01*
X2367024Y2642668D02*
Y2693452D01*
X2350096Y2676524D01*
X2333169Y2693452D01*
Y2642668D01*
X2421324Y2950302D02*
X2429788Y2958766D01*
X2446716D01*
X2455180Y2950302D01*
Y2916446D01*
X2446716Y2907982D01*
X2429788D01*
X2421324Y2916446D01*
Y2933374D01*
X2438252D01*
X2404397Y2907982D02*
Y2958766D01*
X2370541Y2907982D01*
Y2958766D01*
X2353613D02*
Y2907982D01*
X2328221D01*
X2319757Y2916446D01*
Y2950302D01*
X2328221Y2958766D01*
X2353613D01*
X2462625Y2439051D02*
X2454161Y2447515D01*
X2437233D01*
X2428770Y2439051D01*
Y2430587D01*
X2437233Y2422123D01*
X2445697D01*
X2437233D01*
X2428770Y2413659D01*
Y2405195D01*
X2437233Y2396731D01*
X2454161D01*
X2462625Y2405195D01*
X2411842Y2447515D02*
Y2413659D01*
X2394914Y2396731D01*
X2377986Y2413659D01*
Y2447515D01*
X2361058Y2439051D02*
X2352594Y2447515D01*
X2335666D01*
X2327203Y2439051D01*
Y2430587D01*
X2335666Y2422123D01*
X2344130D01*
X2335666D01*
X2327203Y2413659D01*
Y2405195D01*
X2335666Y2396731D01*
X2352594D01*
X2361058Y2405195D01*
X2512371Y3867172D02*
Y3824853D01*
X2503907Y3816389D01*
X2486979D01*
X2478515Y3824853D01*
Y3867172D01*
X2427732Y3858708D02*
X2436196Y3867172D01*
X2453124D01*
X2461588Y3858708D01*
Y3850244D01*
X2453124Y3841780D01*
X2436196D01*
X2427732Y3833316D01*
Y3824853D01*
X2436196Y3816389D01*
X2453124D01*
X2461588Y3824853D01*
X2410804Y3867172D02*
Y3816389D01*
X2385412D01*
X2376949Y3824853D01*
Y3833316D01*
X2385412Y3841780D01*
X2410804D01*
X2385412D01*
X2376949Y3850244D01*
Y3858708D01*
X2385412Y3867172D01*
X2410804D01*
X2062359Y2541309D02*
Y2592092D01*
X2036967D01*
X2028504Y2583628D01*
Y2566700D01*
X2036967Y2558236D01*
X2062359D01*
X2045432D02*
X2028504Y2541309D01*
X2011576D02*
X1994648D01*
X2003112D01*
Y2592092D01*
X2011576Y2583628D01*
X1969256D02*
X1960792Y2592092D01*
X1943864D01*
X1935400Y2583628D01*
Y2549773D01*
X1943864Y2541309D01*
X1960792D01*
X1969256Y2549773D01*
Y2583628D01*
X1609299Y3534749D02*
Y3585532D01*
X1583907D01*
X1575443Y3577068D01*
Y3560140D01*
X1583907Y3551676D01*
X1609299D01*
X1592371D02*
X1575443Y3534749D01*
X1558516Y3577068D02*
X1550052Y3585532D01*
X1533124D01*
X1524660Y3577068D01*
Y3568604D01*
X1533124Y3560140D01*
X1524660Y3551676D01*
Y3543213D01*
X1533124Y3534749D01*
X1550052D01*
X1558516Y3543213D01*
Y3551676D01*
X1550052Y3560140D01*
X1558516Y3568604D01*
Y3577068D01*
X1550052Y3560140D02*
X1533124D01*
X1119506Y3588816D02*
Y3639600D01*
X1094114D01*
X1085650Y3631136D01*
Y3614208D01*
X1094114Y3605744D01*
X1119506D01*
X1102578D02*
X1085650Y3588816D01*
X1068722Y3639600D02*
X1034867D01*
Y3631136D01*
X1068722Y3597280D01*
Y3588816D01*
X1245165Y2987918D02*
Y3038701D01*
X1219773D01*
X1211309Y3030238D01*
Y3013310D01*
X1219773Y3004846D01*
X1245165D01*
X1228237D02*
X1211309Y2987918D01*
X1160525Y3038701D02*
X1177453Y3030238D01*
X1194381Y3013310D01*
Y2996382D01*
X1185917Y2987918D01*
X1168989D01*
X1160525Y2996382D01*
Y3004846D01*
X1168989Y3013310D01*
X1194381D01*
X1951574Y3846751D02*
X1985430D01*
Y3821360D01*
X1968502D01*
X1985430D01*
Y3795968D01*
X1900791D02*
X1934647D01*
X1900791Y3829823D01*
Y3838287D01*
X1909255Y3846751D01*
X1926183D01*
X1934647Y3838287D01*
X1815019Y3570479D02*
Y3519696D01*
X1789627D01*
X1781163Y3528160D01*
Y3562015D01*
X1789627Y3570479D01*
X1815019D01*
X1764235Y3562015D02*
X1755771Y3570479D01*
X1738843D01*
X1730380Y3562015D01*
Y3553551D01*
X1738843Y3545087D01*
X1730380Y3536623D01*
Y3528160D01*
X1738843Y3519696D01*
X1755771D01*
X1764235Y3528160D01*
Y3536623D01*
X1755771Y3545087D01*
X1764235Y3553551D01*
Y3562015D01*
X1755771Y3545087D02*
X1738843D01*
X1961887Y3494819D02*
X1911103D01*
Y3520210D01*
X1919567Y3528674D01*
X1953423D01*
X1961887Y3520210D01*
Y3494819D01*
Y3545602D02*
Y3579458D01*
X1953423D01*
X1919567Y3545602D01*
X1911103D01*
X1940777Y3378692D02*
Y3327909D01*
X1915385D01*
X1906921Y3336373D01*
Y3370228D01*
X1915385Y3378692D01*
X1940777D01*
X1856138D02*
X1873065Y3370228D01*
X1889993Y3353301D01*
Y3336373D01*
X1881529Y3327909D01*
X1864601D01*
X1856138Y3336373D01*
Y3344837D01*
X1864601Y3353301D01*
X1889993D01*
X1795371Y2889049D02*
X1803835Y2897513D01*
X1820762D01*
X1829226Y2889049D01*
Y2855194D01*
X1820762Y2846730D01*
X1803835D01*
X1795371Y2855194D01*
X1778443Y2897513D02*
X1744587D01*
Y2889049D01*
X1778443Y2855194D01*
Y2846730D01*
X1577150Y3079180D02*
X1585614Y3087643D01*
X1602542D01*
X1611006Y3079180D01*
Y3045324D01*
X1602542Y3036860D01*
X1585614D01*
X1577150Y3045324D01*
X1526367Y3087643D02*
X1543295Y3079180D01*
X1560222Y3062252D01*
Y3045324D01*
X1551758Y3036860D01*
X1534831D01*
X1526367Y3045324D01*
Y3053788D01*
X1534831Y3062252D01*
X1560222D01*
X3855936Y2695979D02*
Y2746762D01*
X3830544D01*
X3822080Y2738299D01*
Y2721371D01*
X3830544Y2712907D01*
X3855936D01*
X3839008D02*
X3822080Y2695979D01*
X3805153D02*
X3788225D01*
X3796689D01*
Y2746762D01*
X3805153Y2738299D01*
X3285860Y3430233D02*
X3235076D01*
Y3455625D01*
X3243540Y3464088D01*
X3277396D01*
X3285860Y3455625D01*
Y3430233D01*
X3235076Y3481016D02*
Y3497944D01*
Y3489480D01*
X3285860D01*
X3277396Y3481016D01*
X4708591Y2642668D02*
Y2693452D01*
X4683199D01*
X4674736Y2684988D01*
Y2668060D01*
X4683199Y2659596D01*
X4708591D01*
X4623952Y2684988D02*
X4632416Y2693452D01*
X4649344D01*
X4657808Y2684988D01*
Y2651132D01*
X4649344Y2642668D01*
X4632416D01*
X4623952Y2651132D01*
Y2668060D01*
X4640880D01*
X4607024Y2642668D02*
Y2693452D01*
X4590096Y2676524D01*
X4573169Y2693452D01*
Y2642668D01*
X4661324Y2950302D02*
X4669788Y2958766D01*
X4686716D01*
X4695180Y2950302D01*
Y2916446D01*
X4686716Y2907982D01*
X4669788D01*
X4661324Y2916446D01*
Y2933374D01*
X4678252D01*
X4644397Y2907982D02*
Y2958766D01*
X4610541Y2907982D01*
Y2958766D01*
X4593613D02*
Y2907982D01*
X4568221D01*
X4559757Y2916446D01*
Y2950302D01*
X4568221Y2958766D01*
X4593613D01*
X4702625Y2439051D02*
X4694161Y2447515D01*
X4677233D01*
X4668770Y2439051D01*
Y2430587D01*
X4677233Y2422123D01*
X4685698D01*
X4677233D01*
X4668770Y2413659D01*
Y2405195D01*
X4677233Y2396731D01*
X4694161D01*
X4702625Y2405195D01*
X4651842Y2447515D02*
Y2413659D01*
X4634914Y2396731D01*
X4617986Y2413659D01*
Y2447515D01*
X4601058Y2439051D02*
X4592594Y2447515D01*
X4575666D01*
X4567203Y2439051D01*
Y2430587D01*
X4575666Y2422123D01*
X4584131D01*
X4575666D01*
X4567203Y2413659D01*
Y2405195D01*
X4575666Y2396731D01*
X4592594D01*
X4601058Y2405195D01*
X4752371Y3867172D02*
Y3824853D01*
X4743907Y3816389D01*
X4726979D01*
X4718516Y3824853D01*
Y3867172D01*
X4667732Y3858708D02*
X4676196Y3867172D01*
X4693124D01*
X4701588Y3858708D01*
Y3850244D01*
X4693124Y3841780D01*
X4676196D01*
X4667732Y3833316D01*
Y3824853D01*
X4676196Y3816389D01*
X4693124D01*
X4701588Y3824853D01*
X4650804Y3867172D02*
Y3816389D01*
X4625412D01*
X4616949Y3824853D01*
Y3833316D01*
X4625412Y3841780D01*
X4650804D01*
X4625412D01*
X4616949Y3850244D01*
Y3858708D01*
X4625412Y3867172D01*
X4650804D01*
X4302359Y2541309D02*
Y2592092D01*
X4276968D01*
X4268504Y2583628D01*
Y2566700D01*
X4276968Y2558236D01*
X4302359D01*
X4285432D02*
X4268504Y2541309D01*
X4251576D02*
X4234648D01*
X4243112D01*
Y2592092D01*
X4251576Y2583628D01*
X4209256D02*
X4200792Y2592092D01*
X4183864D01*
X4175401Y2583628D01*
Y2549773D01*
X4183864Y2541309D01*
X4200792D01*
X4209256Y2549773D01*
Y2583628D01*
X3849299Y3534749D02*
Y3585532D01*
X3823907D01*
X3815443Y3577068D01*
Y3560140D01*
X3823907Y3551676D01*
X3849299D01*
X3832371D02*
X3815443Y3534749D01*
X3798516Y3577068D02*
X3790052Y3585532D01*
X3773124D01*
X3764660Y3577068D01*
Y3568604D01*
X3773124Y3560140D01*
X3764660Y3551676D01*
Y3543213D01*
X3773124Y3534749D01*
X3790052D01*
X3798516Y3543213D01*
Y3551676D01*
X3790052Y3560140D01*
X3798516Y3568604D01*
Y3577068D01*
X3790052Y3560140D02*
X3773124D01*
X3359506Y3588816D02*
Y3639600D01*
X3334114D01*
X3325650Y3631136D01*
Y3614208D01*
X3334114Y3605744D01*
X3359506D01*
X3342578D02*
X3325650Y3588816D01*
X3308722Y3639600D02*
X3274867D01*
Y3631136D01*
X3308722Y3597280D01*
Y3588816D01*
X3485165Y2987918D02*
Y3038701D01*
X3459773D01*
X3451309Y3030238D01*
Y3013310D01*
X3459773Y3004846D01*
X3485165D01*
X3468237D02*
X3451309Y2987918D01*
X3400526Y3038701D02*
X3417453Y3030238D01*
X3434381Y3013310D01*
Y2996382D01*
X3425917Y2987918D01*
X3408989D01*
X3400526Y2996382D01*
Y3004846D01*
X3408989Y3013310D01*
X3434381D01*
X4191575Y3846751D02*
X4225430D01*
Y3821360D01*
X4208502D01*
X4225430D01*
Y3795968D01*
X4140791D02*
X4174647D01*
X4140791Y3829823D01*
Y3838287D01*
X4149255Y3846751D01*
X4166183D01*
X4174647Y3838287D01*
X4055019Y3570479D02*
Y3519696D01*
X4029627D01*
X4021163Y3528160D01*
Y3562015D01*
X4029627Y3570479D01*
X4055019D01*
X4004235Y3562015D02*
X3995771Y3570479D01*
X3978843D01*
X3970380Y3562015D01*
Y3553551D01*
X3978843Y3545087D01*
X3970380Y3536623D01*
Y3528160D01*
X3978843Y3519696D01*
X3995771D01*
X4004235Y3528160D01*
Y3536623D01*
X3995771Y3545087D01*
X4004235Y3553551D01*
Y3562015D01*
X3995771Y3545087D02*
X3978843D01*
X4201887Y3494819D02*
X4151103D01*
Y3520210D01*
X4159567Y3528674D01*
X4193423D01*
X4201887Y3520210D01*
Y3494819D01*
Y3545602D02*
Y3579458D01*
X4193423D01*
X4159567Y3545602D01*
X4151103D01*
X4180777Y3378692D02*
Y3327909D01*
X4155385D01*
X4146921Y3336373D01*
Y3370228D01*
X4155385Y3378692D01*
X4180777D01*
X4096138D02*
X4113065Y3370228D01*
X4129993Y3353301D01*
Y3336373D01*
X4121529Y3327909D01*
X4104601D01*
X4096138Y3336373D01*
Y3344837D01*
X4104601Y3353301D01*
X4129993D01*
X4035371Y2889049D02*
X4043835Y2897513D01*
X4060763D01*
X4069227Y2889049D01*
Y2855194D01*
X4060763Y2846730D01*
X4043835D01*
X4035371Y2855194D01*
X4018443Y2897513D02*
X3984587D01*
Y2889049D01*
X4018443Y2855194D01*
Y2846730D01*
X3817150Y3079180D02*
X3825614Y3087643D01*
X3842542D01*
X3851006Y3079180D01*
Y3045324D01*
X3842542Y3036860D01*
X3825614D01*
X3817150Y3045324D01*
X3766367Y3087643D02*
X3783295Y3079180D01*
X3800223Y3062252D01*
Y3045324D01*
X3791758Y3036860D01*
X3774831D01*
X3766367Y3045324D01*
Y3053788D01*
X3774831Y3062252D01*
X3800223D01*
X6095936Y2695979D02*
Y2746762D01*
X6070544D01*
X6062081Y2738299D01*
Y2721371D01*
X6070544Y2712907D01*
X6095936D01*
X6079008D02*
X6062081Y2695979D01*
X6045153D02*
X6028225D01*
X6036689D01*
Y2746762D01*
X6045153Y2738299D01*
X5525860Y3430233D02*
X5475076D01*
Y3455625D01*
X5483540Y3464088D01*
X5517396D01*
X5525860Y3455625D01*
Y3430233D01*
X5475076Y3481016D02*
Y3497944D01*
Y3489480D01*
X5525860D01*
X5517396Y3481016D01*
X6948591Y2642668D02*
Y2693452D01*
X6923200D01*
X6914736Y2684988D01*
Y2668060D01*
X6923200Y2659596D01*
X6948591D01*
X6863952Y2684988D02*
X6872416Y2693452D01*
X6889344D01*
X6897808Y2684988D01*
Y2651132D01*
X6889344Y2642668D01*
X6872416D01*
X6863952Y2651132D01*
Y2668060D01*
X6880880D01*
X6847024Y2642668D02*
Y2693452D01*
X6830097Y2676524D01*
X6813169Y2693452D01*
Y2642668D01*
X6901325Y2950302D02*
X6909788Y2958766D01*
X6926716D01*
X6935180Y2950302D01*
Y2916446D01*
X6926716Y2907982D01*
X6909788D01*
X6901325Y2916446D01*
Y2933374D01*
X6918252D01*
X6884397Y2907982D02*
Y2958766D01*
X6850541Y2907982D01*
Y2958766D01*
X6833613D02*
Y2907982D01*
X6808221D01*
X6799758Y2916446D01*
Y2950302D01*
X6808221Y2958766D01*
X6833613D01*
X6942625Y2439051D02*
X6934161Y2447515D01*
X6917234D01*
X6908770Y2439051D01*
Y2430587D01*
X6917234Y2422123D01*
X6925698D01*
X6917234D01*
X6908770Y2413659D01*
Y2405195D01*
X6917234Y2396731D01*
X6934161D01*
X6942625Y2405195D01*
X6891842Y2447515D02*
Y2413659D01*
X6874914Y2396731D01*
X6857986Y2413659D01*
Y2447515D01*
X6841058Y2439051D02*
X6832594Y2447515D01*
X6815667D01*
X6807203Y2439051D01*
Y2430587D01*
X6815667Y2422123D01*
X6824131D01*
X6815667D01*
X6807203Y2413659D01*
Y2405195D01*
X6815667Y2396731D01*
X6832594D01*
X6841058Y2405195D01*
X6992371Y3867172D02*
Y3824853D01*
X6983907Y3816389D01*
X6966979D01*
X6958516Y3824853D01*
Y3867172D01*
X6907732Y3858708D02*
X6916196Y3867172D01*
X6933124D01*
X6941588Y3858708D01*
Y3850244D01*
X6933124Y3841780D01*
X6916196D01*
X6907732Y3833316D01*
Y3824853D01*
X6916196Y3816389D01*
X6933124D01*
X6941588Y3824853D01*
X6890804Y3867172D02*
Y3816389D01*
X6865412D01*
X6856949Y3824853D01*
Y3833316D01*
X6865412Y3841780D01*
X6890804D01*
X6865412D01*
X6856949Y3850244D01*
Y3858708D01*
X6865412Y3867172D01*
X6890804D01*
X6542360Y2541309D02*
Y2592092D01*
X6516968D01*
X6508504Y2583628D01*
Y2566700D01*
X6516968Y2558236D01*
X6542360D01*
X6525432D02*
X6508504Y2541309D01*
X6491576D02*
X6474648D01*
X6483112D01*
Y2592092D01*
X6491576Y2583628D01*
X6449256D02*
X6440792Y2592092D01*
X6423864D01*
X6415401Y2583628D01*
Y2549773D01*
X6423864Y2541309D01*
X6440792D01*
X6449256Y2549773D01*
Y2583628D01*
X6089299Y3534749D02*
Y3585532D01*
X6063907D01*
X6055444Y3577068D01*
Y3560140D01*
X6063907Y3551676D01*
X6089299D01*
X6072371D02*
X6055444Y3534749D01*
X6038516Y3577068D02*
X6030052Y3585532D01*
X6013124D01*
X6004660Y3577068D01*
Y3568604D01*
X6013124Y3560140D01*
X6004660Y3551676D01*
Y3543213D01*
X6013124Y3534749D01*
X6030052D01*
X6038516Y3543213D01*
Y3551676D01*
X6030052Y3560140D01*
X6038516Y3568604D01*
Y3577068D01*
X6030052Y3560140D02*
X6013124D01*
X5599506Y3588816D02*
Y3639600D01*
X5574114D01*
X5565650Y3631136D01*
Y3614208D01*
X5574114Y3605744D01*
X5599506D01*
X5582578D02*
X5565650Y3588816D01*
X5548722Y3639600D02*
X5514867D01*
Y3631136D01*
X5548722Y3597280D01*
Y3588816D01*
X5725165Y2987918D02*
Y3038701D01*
X5699773D01*
X5691309Y3030238D01*
Y3013310D01*
X5699773Y3004846D01*
X5725165D01*
X5708237D02*
X5691309Y2987918D01*
X5640526Y3038701D02*
X5657454Y3030238D01*
X5674381Y3013310D01*
Y2996382D01*
X5665917Y2987918D01*
X5648989D01*
X5640526Y2996382D01*
Y3004846D01*
X5648989Y3013310D01*
X5674381D01*
X6431575Y3846751D02*
X6465430D01*
Y3821360D01*
X6448502D01*
X6465430D01*
Y3795968D01*
X6380791D02*
X6414647D01*
X6380791Y3829823D01*
Y3838287D01*
X6389255Y3846751D01*
X6406183D01*
X6414647Y3838287D01*
X6295019Y3570479D02*
Y3519696D01*
X6269627D01*
X6261163Y3528160D01*
Y3562015D01*
X6269627Y3570479D01*
X6295019D01*
X6244235Y3562015D02*
X6235771Y3570479D01*
X6218844D01*
X6210380Y3562015D01*
Y3553551D01*
X6218844Y3545087D01*
X6210380Y3536623D01*
Y3528160D01*
X6218844Y3519696D01*
X6235771D01*
X6244235Y3528160D01*
Y3536623D01*
X6235771Y3545087D01*
X6244235Y3553551D01*
Y3562015D01*
X6235771Y3545087D02*
X6218844D01*
X6441887Y3494819D02*
X6391103D01*
Y3520210D01*
X6399567Y3528674D01*
X6433423D01*
X6441887Y3520210D01*
Y3494819D01*
Y3545602D02*
Y3579458D01*
X6433423D01*
X6399567Y3545602D01*
X6391103D01*
X6420777Y3378692D02*
Y3327909D01*
X6395385D01*
X6386921Y3336373D01*
Y3370228D01*
X6395385Y3378692D01*
X6420777D01*
X6336138D02*
X6353066Y3370228D01*
X6369993Y3353301D01*
Y3336373D01*
X6361529Y3327909D01*
X6344601D01*
X6336138Y3336373D01*
Y3344837D01*
X6344601Y3353301D01*
X6369993D01*
X6275371Y2889049D02*
X6283835Y2897513D01*
X6300763D01*
X6309227Y2889049D01*
Y2855194D01*
X6300763Y2846730D01*
X6283835D01*
X6275371Y2855194D01*
X6258443Y2897513D02*
X6224587D01*
Y2889049D01*
X6258443Y2855194D01*
Y2846730D01*
X6057150Y3079180D02*
X6065614Y3087643D01*
X6082542D01*
X6091006Y3079180D01*
Y3045324D01*
X6082542Y3036860D01*
X6065614D01*
X6057150Y3045324D01*
X6006367Y3087643D02*
X6023295Y3079180D01*
X6040223Y3062252D01*
Y3045324D01*
X6031759Y3036860D01*
X6014831D01*
X6006367Y3045324D01*
Y3053788D01*
X6014831Y3062252D01*
X6040223D01*
X8335936Y2695979D02*
Y2746762D01*
X8310544D01*
X8302081Y2738299D01*
Y2721371D01*
X8310544Y2712907D01*
X8335936D01*
X8319009D02*
X8302081Y2695979D01*
X8285153D02*
X8268225D01*
X8276689D01*
Y2746762D01*
X8285153Y2738299D01*
X7765860Y3430233D02*
X7715077D01*
Y3455625D01*
X7723541Y3464088D01*
X7757396D01*
X7765860Y3455625D01*
Y3430233D01*
X7715077Y3481016D02*
Y3497944D01*
Y3489480D01*
X7765860D01*
X7757396Y3481016D01*
X9188591Y2642668D02*
Y2693452D01*
X9163200D01*
X9154736Y2684988D01*
Y2668060D01*
X9163200Y2659596D01*
X9188591D01*
X9103952Y2684988D02*
X9112416Y2693452D01*
X9129344D01*
X9137808Y2684988D01*
Y2651132D01*
X9129344Y2642668D01*
X9112416D01*
X9103952Y2651132D01*
Y2668060D01*
X9120880D01*
X9087024Y2642668D02*
Y2693452D01*
X9070097Y2676524D01*
X9053169Y2693452D01*
Y2642668D01*
X9141325Y2950302D02*
X9149788Y2958766D01*
X9166716D01*
X9175180Y2950302D01*
Y2916446D01*
X9166716Y2907982D01*
X9149788D01*
X9141325Y2916446D01*
Y2933374D01*
X9158252D01*
X9124397Y2907982D02*
Y2958766D01*
X9090541Y2907982D01*
Y2958766D01*
X9073613D02*
Y2907982D01*
X9048221D01*
X9039758Y2916446D01*
Y2950302D01*
X9048221Y2958766D01*
X9073613D01*
X9182626Y2439051D02*
X9174161Y2447515D01*
X9157234D01*
X9148770Y2439051D01*
Y2430587D01*
X9157234Y2422123D01*
X9165698D01*
X9157234D01*
X9148770Y2413659D01*
Y2405195D01*
X9157234Y2396731D01*
X9174161D01*
X9182626Y2405195D01*
X9131842Y2447515D02*
Y2413659D01*
X9114914Y2396731D01*
X9097986Y2413659D01*
Y2447515D01*
X9081059Y2439051D02*
X9072595Y2447515D01*
X9055667D01*
X9047203Y2439051D01*
Y2430587D01*
X9055667Y2422123D01*
X9064131D01*
X9055667D01*
X9047203Y2413659D01*
Y2405195D01*
X9055667Y2396731D01*
X9072595D01*
X9081059Y2405195D01*
X9232371Y3867172D02*
Y3824853D01*
X9223907Y3816389D01*
X9206980D01*
X9198516Y3824853D01*
Y3867172D01*
X9147732Y3858708D02*
X9156196Y3867172D01*
X9173124D01*
X9181588Y3858708D01*
Y3850244D01*
X9173124Y3841780D01*
X9156196D01*
X9147732Y3833316D01*
Y3824853D01*
X9156196Y3816389D01*
X9173124D01*
X9181588Y3824853D01*
X9130804Y3867172D02*
Y3816389D01*
X9105413D01*
X9096949Y3824853D01*
Y3833316D01*
X9105413Y3841780D01*
X9130804D01*
X9105413D01*
X9096949Y3850244D01*
Y3858708D01*
X9105413Y3867172D01*
X9130804D01*
X8782360Y2541309D02*
Y2592092D01*
X8756968D01*
X8748504Y2583628D01*
Y2566700D01*
X8756968Y2558236D01*
X8782360D01*
X8765432D02*
X8748504Y2541309D01*
X8731576D02*
X8714648D01*
X8723112D01*
Y2592092D01*
X8731576Y2583628D01*
X8689256D02*
X8680792Y2592092D01*
X8663865D01*
X8655401Y2583628D01*
Y2549773D01*
X8663865Y2541309D01*
X8680792D01*
X8689256Y2549773D01*
Y2583628D01*
X8329299Y3534749D02*
Y3585532D01*
X8303907D01*
X8295444Y3577068D01*
Y3560140D01*
X8303907Y3551676D01*
X8329299D01*
X8312371D02*
X8295444Y3534749D01*
X8278516Y3577068D02*
X8270052Y3585532D01*
X8253124D01*
X8244660Y3577068D01*
Y3568604D01*
X8253124Y3560140D01*
X8244660Y3551676D01*
Y3543213D01*
X8253124Y3534749D01*
X8270052D01*
X8278516Y3543213D01*
Y3551676D01*
X8270052Y3560140D01*
X8278516Y3568604D01*
Y3577068D01*
X8270052Y3560140D02*
X8253124D01*
X7839506Y3588816D02*
Y3639600D01*
X7814114D01*
X7805650Y3631136D01*
Y3614208D01*
X7814114Y3605744D01*
X7839506D01*
X7822578D02*
X7805650Y3588816D01*
X7788723Y3639600D02*
X7754867D01*
Y3631136D01*
X7788723Y3597280D01*
Y3588816D01*
X7965165Y2987918D02*
Y3038701D01*
X7939773D01*
X7931309Y3030238D01*
Y3013310D01*
X7939773Y3004846D01*
X7965165D01*
X7948237D02*
X7931309Y2987918D01*
X7880526Y3038701D02*
X7897454Y3030238D01*
X7914381Y3013310D01*
Y2996382D01*
X7905917Y2987918D01*
X7888990D01*
X7880526Y2996382D01*
Y3004846D01*
X7888990Y3013310D01*
X7914381D01*
X8671575Y3846751D02*
X8705430D01*
Y3821360D01*
X8688503D01*
X8705430D01*
Y3795968D01*
X8620791D02*
X8654647D01*
X8620791Y3829823D01*
Y3838287D01*
X8629255Y3846751D01*
X8646183D01*
X8654647Y3838287D01*
X8535019Y3570479D02*
Y3519696D01*
X8509627D01*
X8501163Y3528160D01*
Y3562015D01*
X8509627Y3570479D01*
X8535019D01*
X8484236Y3562015D02*
X8475771Y3570479D01*
X8458844D01*
X8450380Y3562015D01*
Y3553551D01*
X8458844Y3545087D01*
X8450380Y3536623D01*
Y3528160D01*
X8458844Y3519696D01*
X8475771D01*
X8484236Y3528160D01*
Y3536623D01*
X8475771Y3545087D01*
X8484236Y3553551D01*
Y3562015D01*
X8475771Y3545087D02*
X8458844D01*
X8681887Y3494819D02*
X8631103D01*
Y3520210D01*
X8639567Y3528674D01*
X8673423D01*
X8681887Y3520210D01*
Y3494819D01*
Y3545602D02*
Y3579458D01*
X8673423D01*
X8639567Y3545602D01*
X8631103D01*
X8660777Y3378692D02*
Y3327909D01*
X8635385D01*
X8626921Y3336373D01*
Y3370228D01*
X8635385Y3378692D01*
X8660777D01*
X8576138D02*
X8593066Y3370228D01*
X8609993Y3353301D01*
Y3336373D01*
X8601529Y3327909D01*
X8584602D01*
X8576138Y3336373D01*
Y3344837D01*
X8584602Y3353301D01*
X8609993D01*
X8515371Y2889049D02*
X8523835Y2897513D01*
X8540763D01*
X8549227Y2889049D01*
Y2855194D01*
X8540763Y2846730D01*
X8523835D01*
X8515371Y2855194D01*
X8498443Y2897513D02*
X8464588D01*
Y2889049D01*
X8498443Y2855194D01*
Y2846730D01*
X8297151Y3079180D02*
X8305614Y3087643D01*
X8322542D01*
X8331006Y3079180D01*
Y3045324D01*
X8322542Y3036860D01*
X8305614D01*
X8297151Y3045324D01*
X8246367Y3087643D02*
X8263295Y3079180D01*
X8280223Y3062252D01*
Y3045324D01*
X8271759Y3036860D01*
X8254831D01*
X8246367Y3045324D01*
Y3053788D01*
X8254831Y3062252D01*
X8280223D01*
X1615936Y4595979D02*
Y4646762D01*
X1590544D01*
X1582080Y4638299D01*
Y4621371D01*
X1590544Y4612907D01*
X1615936D01*
X1599008D02*
X1582080Y4595979D01*
X1565153D02*
X1548225D01*
X1556689D01*
Y4646762D01*
X1565153Y4638299D01*
X1045860Y5330233D02*
X995076D01*
Y5355625D01*
X1003540Y5364088D01*
X1037396D01*
X1045860Y5355625D01*
Y5330233D01*
X995076Y5381016D02*
Y5397944D01*
Y5389480D01*
X1045860D01*
X1037396Y5381016D01*
X2468591Y4542668D02*
Y4593452D01*
X2443199D01*
X2434736Y4584988D01*
Y4568060D01*
X2443199Y4559596D01*
X2468591D01*
X2383952Y4584988D02*
X2392416Y4593452D01*
X2409344D01*
X2417808Y4584988D01*
Y4551132D01*
X2409344Y4542668D01*
X2392416D01*
X2383952Y4551132D01*
Y4568060D01*
X2400880D01*
X2367024Y4542668D02*
Y4593452D01*
X2350096Y4576524D01*
X2333169Y4593452D01*
Y4542668D01*
X2421324Y4850302D02*
X2429788Y4858766D01*
X2446716D01*
X2455180Y4850302D01*
Y4816446D01*
X2446716Y4807982D01*
X2429788D01*
X2421324Y4816446D01*
Y4833374D01*
X2438252D01*
X2404397Y4807982D02*
Y4858766D01*
X2370541Y4807982D01*
Y4858766D01*
X2353613D02*
Y4807982D01*
X2328221D01*
X2319757Y4816446D01*
Y4850302D01*
X2328221Y4858766D01*
X2353613D01*
X2462625Y4339051D02*
X2454161Y4347515D01*
X2437233D01*
X2428770Y4339051D01*
Y4330587D01*
X2437233Y4322123D01*
X2445697D01*
X2437233D01*
X2428770Y4313659D01*
Y4305195D01*
X2437233Y4296731D01*
X2454161D01*
X2462625Y4305195D01*
X2411842Y4347515D02*
Y4313659D01*
X2394914Y4296731D01*
X2377986Y4313659D01*
Y4347515D01*
X2361058Y4339051D02*
X2352594Y4347515D01*
X2335666D01*
X2327203Y4339051D01*
Y4330587D01*
X2335666Y4322123D01*
X2344130D01*
X2335666D01*
X2327203Y4313659D01*
Y4305195D01*
X2335666Y4296731D01*
X2352594D01*
X2361058Y4305195D01*
X2512371Y5767172D02*
Y5724853D01*
X2503907Y5716389D01*
X2486979D01*
X2478515Y5724853D01*
Y5767172D01*
X2427732Y5758708D02*
X2436196Y5767172D01*
X2453124D01*
X2461588Y5758708D01*
Y5750244D01*
X2453124Y5741780D01*
X2436196D01*
X2427732Y5733316D01*
Y5724853D01*
X2436196Y5716389D01*
X2453124D01*
X2461588Y5724853D01*
X2410804Y5767172D02*
Y5716389D01*
X2385412D01*
X2376949Y5724853D01*
Y5733316D01*
X2385412Y5741780D01*
X2410804D01*
X2385412D01*
X2376949Y5750244D01*
Y5758708D01*
X2385412Y5767172D01*
X2410804D01*
X2062359Y4441309D02*
Y4492092D01*
X2036967D01*
X2028504Y4483628D01*
Y4466700D01*
X2036967Y4458236D01*
X2062359D01*
X2045432D02*
X2028504Y4441309D01*
X2011576D02*
X1994648D01*
X2003112D01*
Y4492092D01*
X2011576Y4483628D01*
X1969256D02*
X1960792Y4492092D01*
X1943864D01*
X1935400Y4483628D01*
Y4449773D01*
X1943864Y4441309D01*
X1960792D01*
X1969256Y4449773D01*
Y4483628D01*
X1609299Y5434749D02*
Y5485532D01*
X1583907D01*
X1575443Y5477068D01*
Y5460140D01*
X1583907Y5451676D01*
X1609299D01*
X1592371D02*
X1575443Y5434749D01*
X1558516Y5477068D02*
X1550052Y5485532D01*
X1533124D01*
X1524660Y5477068D01*
Y5468604D01*
X1533124Y5460140D01*
X1524660Y5451676D01*
Y5443213D01*
X1533124Y5434749D01*
X1550052D01*
X1558516Y5443213D01*
Y5451676D01*
X1550052Y5460140D01*
X1558516Y5468604D01*
Y5477068D01*
X1550052Y5460140D02*
X1533124D01*
X1119506Y5488816D02*
Y5539600D01*
X1094114D01*
X1085650Y5531136D01*
Y5514208D01*
X1094114Y5505744D01*
X1119506D01*
X1102578D02*
X1085650Y5488816D01*
X1068722Y5539600D02*
X1034867D01*
Y5531136D01*
X1068722Y5497280D01*
Y5488816D01*
X1245165Y4887918D02*
Y4938701D01*
X1219773D01*
X1211309Y4930238D01*
Y4913310D01*
X1219773Y4904846D01*
X1245165D01*
X1228237D02*
X1211309Y4887918D01*
X1160525Y4938701D02*
X1177453Y4930238D01*
X1194381Y4913310D01*
Y4896382D01*
X1185917Y4887918D01*
X1168989D01*
X1160525Y4896382D01*
Y4904846D01*
X1168989Y4913310D01*
X1194381D01*
X1951574Y5746751D02*
X1985430D01*
Y5721360D01*
X1968502D01*
X1985430D01*
Y5695968D01*
X1900791D02*
X1934647D01*
X1900791Y5729823D01*
Y5738287D01*
X1909255Y5746751D01*
X1926183D01*
X1934647Y5738287D01*
X1815019Y5470479D02*
Y5419696D01*
X1789627D01*
X1781163Y5428160D01*
Y5462015D01*
X1789627Y5470479D01*
X1815019D01*
X1764235Y5462015D02*
X1755771Y5470479D01*
X1738843D01*
X1730380Y5462015D01*
Y5453551D01*
X1738843Y5445087D01*
X1730380Y5436623D01*
Y5428160D01*
X1738843Y5419696D01*
X1755771D01*
X1764235Y5428160D01*
Y5436623D01*
X1755771Y5445087D01*
X1764235Y5453551D01*
Y5462015D01*
X1755771Y5445087D02*
X1738843D01*
X1961887Y5394819D02*
X1911103D01*
Y5420210D01*
X1919567Y5428674D01*
X1953423D01*
X1961887Y5420210D01*
Y5394819D01*
Y5445602D02*
Y5479458D01*
X1953423D01*
X1919567Y5445602D01*
X1911103D01*
X1940777Y5278692D02*
Y5227909D01*
X1915385D01*
X1906921Y5236373D01*
Y5270228D01*
X1915385Y5278692D01*
X1940777D01*
X1856138D02*
X1873065Y5270228D01*
X1889993Y5253301D01*
Y5236373D01*
X1881529Y5227909D01*
X1864601D01*
X1856138Y5236373D01*
Y5244837D01*
X1864601Y5253301D01*
X1889993D01*
X1795371Y4789049D02*
X1803835Y4797513D01*
X1820762D01*
X1829226Y4789049D01*
Y4755194D01*
X1820762Y4746730D01*
X1803835D01*
X1795371Y4755194D01*
X1778443Y4797513D02*
X1744587D01*
Y4789049D01*
X1778443Y4755194D01*
Y4746730D01*
X1577150Y4979180D02*
X1585614Y4987643D01*
X1602542D01*
X1611006Y4979180D01*
Y4945324D01*
X1602542Y4936860D01*
X1585614D01*
X1577150Y4945324D01*
X1526367Y4987643D02*
X1543295Y4979180D01*
X1560222Y4962252D01*
Y4945324D01*
X1551758Y4936860D01*
X1534831D01*
X1526367Y4945324D01*
Y4953788D01*
X1534831Y4962252D01*
X1560222D01*
X3855936Y4595979D02*
Y4646762D01*
X3830544D01*
X3822080Y4638299D01*
Y4621371D01*
X3830544Y4612907D01*
X3855936D01*
X3839008D02*
X3822080Y4595979D01*
X3805153D02*
X3788225D01*
X3796689D01*
Y4646762D01*
X3805153Y4638299D01*
X3285860Y5330233D02*
X3235076D01*
Y5355625D01*
X3243540Y5364088D01*
X3277396D01*
X3285860Y5355625D01*
Y5330233D01*
X3235076Y5381016D02*
Y5397944D01*
Y5389480D01*
X3285860D01*
X3277396Y5381016D01*
X4708591Y4542668D02*
Y4593452D01*
X4683199D01*
X4674736Y4584988D01*
Y4568060D01*
X4683199Y4559596D01*
X4708591D01*
X4623952Y4584988D02*
X4632416Y4593452D01*
X4649344D01*
X4657808Y4584988D01*
Y4551132D01*
X4649344Y4542668D01*
X4632416D01*
X4623952Y4551132D01*
Y4568060D01*
X4640880D01*
X4607024Y4542668D02*
Y4593452D01*
X4590096Y4576524D01*
X4573169Y4593452D01*
Y4542668D01*
X4661324Y4850302D02*
X4669788Y4858766D01*
X4686716D01*
X4695180Y4850302D01*
Y4816446D01*
X4686716Y4807982D01*
X4669788D01*
X4661324Y4816446D01*
Y4833374D01*
X4678252D01*
X4644397Y4807982D02*
Y4858766D01*
X4610541Y4807982D01*
Y4858766D01*
X4593613D02*
Y4807982D01*
X4568221D01*
X4559757Y4816446D01*
Y4850302D01*
X4568221Y4858766D01*
X4593613D01*
X4702625Y4339051D02*
X4694161Y4347515D01*
X4677233D01*
X4668770Y4339051D01*
Y4330587D01*
X4677233Y4322123D01*
X4685698D01*
X4677233D01*
X4668770Y4313659D01*
Y4305195D01*
X4677233Y4296731D01*
X4694161D01*
X4702625Y4305195D01*
X4651842Y4347515D02*
Y4313659D01*
X4634914Y4296731D01*
X4617986Y4313659D01*
Y4347515D01*
X4601058Y4339051D02*
X4592594Y4347515D01*
X4575666D01*
X4567203Y4339051D01*
Y4330587D01*
X4575666Y4322123D01*
X4584131D01*
X4575666D01*
X4567203Y4313659D01*
Y4305195D01*
X4575666Y4296731D01*
X4592594D01*
X4601058Y4305195D01*
X4752371Y5767172D02*
Y5724853D01*
X4743907Y5716389D01*
X4726979D01*
X4718516Y5724853D01*
Y5767172D01*
X4667732Y5758708D02*
X4676196Y5767172D01*
X4693124D01*
X4701588Y5758708D01*
Y5750244D01*
X4693124Y5741780D01*
X4676196D01*
X4667732Y5733316D01*
Y5724853D01*
X4676196Y5716389D01*
X4693124D01*
X4701588Y5724853D01*
X4650804Y5767172D02*
Y5716389D01*
X4625412D01*
X4616949Y5724853D01*
Y5733316D01*
X4625412Y5741780D01*
X4650804D01*
X4625412D01*
X4616949Y5750244D01*
Y5758708D01*
X4625412Y5767172D01*
X4650804D01*
X4302359Y4441309D02*
Y4492092D01*
X4276968D01*
X4268504Y4483628D01*
Y4466700D01*
X4276968Y4458236D01*
X4302359D01*
X4285432D02*
X4268504Y4441309D01*
X4251576D02*
X4234648D01*
X4243112D01*
Y4492092D01*
X4251576Y4483628D01*
X4209256D02*
X4200792Y4492092D01*
X4183864D01*
X4175401Y4483628D01*
Y4449773D01*
X4183864Y4441309D01*
X4200792D01*
X4209256Y4449773D01*
Y4483628D01*
X3849299Y5434749D02*
Y5485532D01*
X3823907D01*
X3815443Y5477068D01*
Y5460140D01*
X3823907Y5451676D01*
X3849299D01*
X3832371D02*
X3815443Y5434749D01*
X3798516Y5477068D02*
X3790052Y5485532D01*
X3773124D01*
X3764660Y5477068D01*
Y5468604D01*
X3773124Y5460140D01*
X3764660Y5451676D01*
Y5443213D01*
X3773124Y5434749D01*
X3790052D01*
X3798516Y5443213D01*
Y5451676D01*
X3790052Y5460140D01*
X3798516Y5468604D01*
Y5477068D01*
X3790052Y5460140D02*
X3773124D01*
X3359506Y5488816D02*
Y5539600D01*
X3334114D01*
X3325650Y5531136D01*
Y5514208D01*
X3334114Y5505744D01*
X3359506D01*
X3342578D02*
X3325650Y5488816D01*
X3308722Y5539600D02*
X3274867D01*
Y5531136D01*
X3308722Y5497280D01*
Y5488816D01*
X3485165Y4887918D02*
Y4938701D01*
X3459773D01*
X3451309Y4930238D01*
Y4913310D01*
X3459773Y4904846D01*
X3485165D01*
X3468237D02*
X3451309Y4887918D01*
X3400526Y4938701D02*
X3417453Y4930238D01*
X3434381Y4913310D01*
Y4896382D01*
X3425917Y4887918D01*
X3408989D01*
X3400526Y4896382D01*
Y4904846D01*
X3408989Y4913310D01*
X3434381D01*
X4191575Y5746751D02*
X4225430D01*
Y5721360D01*
X4208502D01*
X4225430D01*
Y5695968D01*
X4140791D02*
X4174647D01*
X4140791Y5729823D01*
Y5738287D01*
X4149255Y5746751D01*
X4166183D01*
X4174647Y5738287D01*
X4055019Y5470479D02*
Y5419696D01*
X4029627D01*
X4021163Y5428160D01*
Y5462015D01*
X4029627Y5470479D01*
X4055019D01*
X4004235Y5462015D02*
X3995771Y5470479D01*
X3978843D01*
X3970380Y5462015D01*
Y5453551D01*
X3978843Y5445087D01*
X3970380Y5436623D01*
Y5428160D01*
X3978843Y5419696D01*
X3995771D01*
X4004235Y5428160D01*
Y5436623D01*
X3995771Y5445087D01*
X4004235Y5453551D01*
Y5462015D01*
X3995771Y5445087D02*
X3978843D01*
X4201887Y5394819D02*
X4151103D01*
Y5420210D01*
X4159567Y5428674D01*
X4193423D01*
X4201887Y5420210D01*
Y5394819D01*
Y5445602D02*
Y5479458D01*
X4193423D01*
X4159567Y5445602D01*
X4151103D01*
X4180777Y5278692D02*
Y5227909D01*
X4155385D01*
X4146921Y5236373D01*
Y5270228D01*
X4155385Y5278692D01*
X4180777D01*
X4096138D02*
X4113065Y5270228D01*
X4129993Y5253301D01*
Y5236373D01*
X4121529Y5227909D01*
X4104601D01*
X4096138Y5236373D01*
Y5244837D01*
X4104601Y5253301D01*
X4129993D01*
X4035371Y4789049D02*
X4043835Y4797513D01*
X4060763D01*
X4069227Y4789049D01*
Y4755194D01*
X4060763Y4746730D01*
X4043835D01*
X4035371Y4755194D01*
X4018443Y4797513D02*
X3984587D01*
Y4789049D01*
X4018443Y4755194D01*
Y4746730D01*
X3817150Y4979180D02*
X3825614Y4987643D01*
X3842542D01*
X3851006Y4979180D01*
Y4945324D01*
X3842542Y4936860D01*
X3825614D01*
X3817150Y4945324D01*
X3766367Y4987643D02*
X3783295Y4979180D01*
X3800223Y4962252D01*
Y4945324D01*
X3791758Y4936860D01*
X3774831D01*
X3766367Y4945324D01*
Y4953788D01*
X3774831Y4962252D01*
X3800223D01*
X6095936Y4595979D02*
Y4646762D01*
X6070544D01*
X6062081Y4638299D01*
Y4621371D01*
X6070544Y4612907D01*
X6095936D01*
X6079008D02*
X6062081Y4595979D01*
X6045153D02*
X6028225D01*
X6036689D01*
Y4646762D01*
X6045153Y4638299D01*
X5525860Y5330233D02*
X5475076D01*
Y5355625D01*
X5483540Y5364088D01*
X5517396D01*
X5525860Y5355625D01*
Y5330233D01*
X5475076Y5381016D02*
Y5397944D01*
Y5389480D01*
X5525860D01*
X5517396Y5381016D01*
X6948591Y4542668D02*
Y4593452D01*
X6923200D01*
X6914736Y4584988D01*
Y4568060D01*
X6923200Y4559596D01*
X6948591D01*
X6863952Y4584988D02*
X6872416Y4593452D01*
X6889344D01*
X6897808Y4584988D01*
Y4551132D01*
X6889344Y4542668D01*
X6872416D01*
X6863952Y4551132D01*
Y4568060D01*
X6880880D01*
X6847024Y4542668D02*
Y4593452D01*
X6830097Y4576524D01*
X6813169Y4593452D01*
Y4542668D01*
X6901325Y4850302D02*
X6909788Y4858766D01*
X6926716D01*
X6935180Y4850302D01*
Y4816446D01*
X6926716Y4807982D01*
X6909788D01*
X6901325Y4816446D01*
Y4833374D01*
X6918252D01*
X6884397Y4807982D02*
Y4858766D01*
X6850541Y4807982D01*
Y4858766D01*
X6833613D02*
Y4807982D01*
X6808221D01*
X6799758Y4816446D01*
Y4850302D01*
X6808221Y4858766D01*
X6833613D01*
X6942625Y4339051D02*
X6934161Y4347515D01*
X6917234D01*
X6908770Y4339051D01*
Y4330587D01*
X6917234Y4322123D01*
X6925698D01*
X6917234D01*
X6908770Y4313659D01*
Y4305195D01*
X6917234Y4296731D01*
X6934161D01*
X6942625Y4305195D01*
X6891842Y4347515D02*
Y4313659D01*
X6874914Y4296731D01*
X6857986Y4313659D01*
Y4347515D01*
X6841058Y4339051D02*
X6832594Y4347515D01*
X6815667D01*
X6807203Y4339051D01*
Y4330587D01*
X6815667Y4322123D01*
X6824131D01*
X6815667D01*
X6807203Y4313659D01*
Y4305195D01*
X6815667Y4296731D01*
X6832594D01*
X6841058Y4305195D01*
X6992371Y5767172D02*
Y5724853D01*
X6983907Y5716389D01*
X6966979D01*
X6958516Y5724853D01*
Y5767172D01*
X6907732Y5758708D02*
X6916196Y5767172D01*
X6933124D01*
X6941588Y5758708D01*
Y5750244D01*
X6933124Y5741780D01*
X6916196D01*
X6907732Y5733316D01*
Y5724853D01*
X6916196Y5716389D01*
X6933124D01*
X6941588Y5724853D01*
X6890804Y5767172D02*
Y5716389D01*
X6865412D01*
X6856949Y5724853D01*
Y5733316D01*
X6865412Y5741780D01*
X6890804D01*
X6865412D01*
X6856949Y5750244D01*
Y5758708D01*
X6865412Y5767172D01*
X6890804D01*
X6542360Y4441309D02*
Y4492092D01*
X6516968D01*
X6508504Y4483628D01*
Y4466700D01*
X6516968Y4458236D01*
X6542360D01*
X6525432D02*
X6508504Y4441309D01*
X6491576D02*
X6474648D01*
X6483112D01*
Y4492092D01*
X6491576Y4483628D01*
X6449256D02*
X6440792Y4492092D01*
X6423864D01*
X6415401Y4483628D01*
Y4449773D01*
X6423864Y4441309D01*
X6440792D01*
X6449256Y4449773D01*
Y4483628D01*
X6089299Y5434749D02*
Y5485532D01*
X6063907D01*
X6055444Y5477068D01*
Y5460140D01*
X6063907Y5451676D01*
X6089299D01*
X6072371D02*
X6055444Y5434749D01*
X6038516Y5477068D02*
X6030052Y5485532D01*
X6013124D01*
X6004660Y5477068D01*
Y5468604D01*
X6013124Y5460140D01*
X6004660Y5451676D01*
Y5443213D01*
X6013124Y5434749D01*
X6030052D01*
X6038516Y5443213D01*
Y5451676D01*
X6030052Y5460140D01*
X6038516Y5468604D01*
Y5477068D01*
X6030052Y5460140D02*
X6013124D01*
X5599506Y5488816D02*
Y5539600D01*
X5574114D01*
X5565650Y5531136D01*
Y5514208D01*
X5574114Y5505744D01*
X5599506D01*
X5582578D02*
X5565650Y5488816D01*
X5548722Y5539600D02*
X5514867D01*
Y5531136D01*
X5548722Y5497280D01*
Y5488816D01*
X5725165Y4887918D02*
Y4938701D01*
X5699773D01*
X5691309Y4930238D01*
Y4913310D01*
X5699773Y4904846D01*
X5725165D01*
X5708237D02*
X5691309Y4887918D01*
X5640526Y4938701D02*
X5657454Y4930238D01*
X5674381Y4913310D01*
Y4896382D01*
X5665917Y4887918D01*
X5648989D01*
X5640526Y4896382D01*
Y4904846D01*
X5648989Y4913310D01*
X5674381D01*
X6431575Y5746751D02*
X6465430D01*
Y5721360D01*
X6448502D01*
X6465430D01*
Y5695968D01*
X6380791D02*
X6414647D01*
X6380791Y5729823D01*
Y5738287D01*
X6389255Y5746751D01*
X6406183D01*
X6414647Y5738287D01*
X6295019Y5470479D02*
Y5419696D01*
X6269627D01*
X6261163Y5428160D01*
Y5462015D01*
X6269627Y5470479D01*
X6295019D01*
X6244235Y5462015D02*
X6235771Y5470479D01*
X6218844D01*
X6210380Y5462015D01*
Y5453551D01*
X6218844Y5445087D01*
X6210380Y5436623D01*
Y5428160D01*
X6218844Y5419696D01*
X6235771D01*
X6244235Y5428160D01*
Y5436623D01*
X6235771Y5445087D01*
X6244235Y5453551D01*
Y5462015D01*
X6235771Y5445087D02*
X6218844D01*
X6441887Y5394819D02*
X6391103D01*
Y5420210D01*
X6399567Y5428674D01*
X6433423D01*
X6441887Y5420210D01*
Y5394819D01*
Y5445602D02*
Y5479458D01*
X6433423D01*
X6399567Y5445602D01*
X6391103D01*
X6420777Y5278692D02*
Y5227909D01*
X6395385D01*
X6386921Y5236373D01*
Y5270228D01*
X6395385Y5278692D01*
X6420777D01*
X6336138D02*
X6353066Y5270228D01*
X6369993Y5253301D01*
Y5236373D01*
X6361529Y5227909D01*
X6344601D01*
X6336138Y5236373D01*
Y5244837D01*
X6344601Y5253301D01*
X6369993D01*
X6275371Y4789049D02*
X6283835Y4797513D01*
X6300763D01*
X6309227Y4789049D01*
Y4755194D01*
X6300763Y4746730D01*
X6283835D01*
X6275371Y4755194D01*
X6258443Y4797513D02*
X6224587D01*
Y4789049D01*
X6258443Y4755194D01*
Y4746730D01*
X6057150Y4979180D02*
X6065614Y4987643D01*
X6082542D01*
X6091006Y4979180D01*
Y4945324D01*
X6082542Y4936860D01*
X6065614D01*
X6057150Y4945324D01*
X6006367Y4987643D02*
X6023295Y4979180D01*
X6040223Y4962252D01*
Y4945324D01*
X6031759Y4936860D01*
X6014831D01*
X6006367Y4945324D01*
Y4953788D01*
X6014831Y4962252D01*
X6040223D01*
X8335936Y4595979D02*
Y4646762D01*
X8310544D01*
X8302081Y4638299D01*
Y4621371D01*
X8310544Y4612907D01*
X8335936D01*
X8319009D02*
X8302081Y4595979D01*
X8285153D02*
X8268225D01*
X8276689D01*
Y4646762D01*
X8285153Y4638299D01*
X7765860Y5330233D02*
X7715077D01*
Y5355625D01*
X7723541Y5364088D01*
X7757396D01*
X7765860Y5355625D01*
Y5330233D01*
X7715077Y5381016D02*
Y5397944D01*
Y5389480D01*
X7765860D01*
X7757396Y5381016D01*
X9188591Y4542668D02*
Y4593452D01*
X9163200D01*
X9154736Y4584988D01*
Y4568060D01*
X9163200Y4559596D01*
X9188591D01*
X9103952Y4584988D02*
X9112416Y4593452D01*
X9129344D01*
X9137808Y4584988D01*
Y4551132D01*
X9129344Y4542668D01*
X9112416D01*
X9103952Y4551132D01*
Y4568060D01*
X9120880D01*
X9087024Y4542668D02*
Y4593452D01*
X9070097Y4576524D01*
X9053169Y4593452D01*
Y4542668D01*
X9141325Y4850302D02*
X9149788Y4858766D01*
X9166716D01*
X9175180Y4850302D01*
Y4816446D01*
X9166716Y4807982D01*
X9149788D01*
X9141325Y4816446D01*
Y4833374D01*
X9158252D01*
X9124397Y4807982D02*
Y4858766D01*
X9090541Y4807982D01*
Y4858766D01*
X9073613D02*
Y4807982D01*
X9048221D01*
X9039758Y4816446D01*
Y4850302D01*
X9048221Y4858766D01*
X9073613D01*
X9182626Y4339051D02*
X9174161Y4347515D01*
X9157234D01*
X9148770Y4339051D01*
Y4330587D01*
X9157234Y4322123D01*
X9165698D01*
X9157234D01*
X9148770Y4313659D01*
Y4305195D01*
X9157234Y4296731D01*
X9174161D01*
X9182626Y4305195D01*
X9131842Y4347515D02*
Y4313659D01*
X9114914Y4296731D01*
X9097986Y4313659D01*
Y4347515D01*
X9081059Y4339051D02*
X9072595Y4347515D01*
X9055667D01*
X9047203Y4339051D01*
Y4330587D01*
X9055667Y4322123D01*
X9064131D01*
X9055667D01*
X9047203Y4313659D01*
Y4305195D01*
X9055667Y4296731D01*
X9072595D01*
X9081059Y4305195D01*
X9232371Y5767172D02*
Y5724853D01*
X9223907Y5716389D01*
X9206980D01*
X9198516Y5724853D01*
Y5767172D01*
X9147732Y5758708D02*
X9156196Y5767172D01*
X9173124D01*
X9181588Y5758708D01*
Y5750244D01*
X9173124Y5741780D01*
X9156196D01*
X9147732Y5733316D01*
Y5724853D01*
X9156196Y5716389D01*
X9173124D01*
X9181588Y5724853D01*
X9130804Y5767172D02*
Y5716389D01*
X9105413D01*
X9096949Y5724853D01*
Y5733316D01*
X9105413Y5741780D01*
X9130804D01*
X9105413D01*
X9096949Y5750244D01*
Y5758708D01*
X9105413Y5767172D01*
X9130804D01*
X8782360Y4441309D02*
Y4492092D01*
X8756968D01*
X8748504Y4483628D01*
Y4466700D01*
X8756968Y4458236D01*
X8782360D01*
X8765432D02*
X8748504Y4441309D01*
X8731576D02*
X8714648D01*
X8723112D01*
Y4492092D01*
X8731576Y4483628D01*
X8689256D02*
X8680792Y4492092D01*
X8663865D01*
X8655401Y4483628D01*
Y4449773D01*
X8663865Y4441309D01*
X8680792D01*
X8689256Y4449773D01*
Y4483628D01*
X8329299Y5434749D02*
Y5485532D01*
X8303907D01*
X8295444Y5477068D01*
Y5460140D01*
X8303907Y5451676D01*
X8329299D01*
X8312371D02*
X8295444Y5434749D01*
X8278516Y5477068D02*
X8270052Y5485532D01*
X8253124D01*
X8244660Y5477068D01*
Y5468604D01*
X8253124Y5460140D01*
X8244660Y5451676D01*
Y5443213D01*
X8253124Y5434749D01*
X8270052D01*
X8278516Y5443213D01*
Y5451676D01*
X8270052Y5460140D01*
X8278516Y5468604D01*
Y5477068D01*
X8270052Y5460140D02*
X8253124D01*
X7839506Y5488816D02*
Y5539600D01*
X7814114D01*
X7805650Y5531136D01*
Y5514208D01*
X7814114Y5505744D01*
X7839506D01*
X7822578D02*
X7805650Y5488816D01*
X7788723Y5539600D02*
X7754867D01*
Y5531136D01*
X7788723Y5497280D01*
Y5488816D01*
X7965165Y4887918D02*
Y4938701D01*
X7939773D01*
X7931309Y4930238D01*
Y4913310D01*
X7939773Y4904846D01*
X7965165D01*
X7948237D02*
X7931309Y4887918D01*
X7880526Y4938701D02*
X7897454Y4930238D01*
X7914381Y4913310D01*
Y4896382D01*
X7905917Y4887918D01*
X7888990D01*
X7880526Y4896382D01*
Y4904846D01*
X7888990Y4913310D01*
X7914381D01*
X8671575Y5746751D02*
X8705430D01*
Y5721360D01*
X8688503D01*
X8705430D01*
Y5695968D01*
X8620791D02*
X8654647D01*
X8620791Y5729823D01*
Y5738287D01*
X8629255Y5746751D01*
X8646183D01*
X8654647Y5738287D01*
X8535019Y5470479D02*
Y5419696D01*
X8509627D01*
X8501163Y5428160D01*
Y5462015D01*
X8509627Y5470479D01*
X8535019D01*
X8484236Y5462015D02*
X8475771Y5470479D01*
X8458844D01*
X8450380Y5462015D01*
Y5453551D01*
X8458844Y5445087D01*
X8450380Y5436623D01*
Y5428160D01*
X8458844Y5419696D01*
X8475771D01*
X8484236Y5428160D01*
Y5436623D01*
X8475771Y5445087D01*
X8484236Y5453551D01*
Y5462015D01*
X8475771Y5445087D02*
X8458844D01*
X8681887Y5394819D02*
X8631103D01*
Y5420210D01*
X8639567Y5428674D01*
X8673423D01*
X8681887Y5420210D01*
Y5394819D01*
Y5445602D02*
Y5479458D01*
X8673423D01*
X8639567Y5445602D01*
X8631103D01*
X8660777Y5278692D02*
Y5227909D01*
X8635385D01*
X8626921Y5236373D01*
Y5270228D01*
X8635385Y5278692D01*
X8660777D01*
X8576138D02*
X8593066Y5270228D01*
X8609993Y5253301D01*
Y5236373D01*
X8601529Y5227909D01*
X8584602D01*
X8576138Y5236373D01*
Y5244837D01*
X8584602Y5253301D01*
X8609993D01*
X8515371Y4789049D02*
X8523835Y4797513D01*
X8540763D01*
X8549227Y4789049D01*
Y4755194D01*
X8540763Y4746730D01*
X8523835D01*
X8515371Y4755194D01*
X8498443Y4797513D02*
X8464588D01*
Y4789049D01*
X8498443Y4755194D01*
Y4746730D01*
X8297151Y4979180D02*
X8305614Y4987643D01*
X8322542D01*
X8331006Y4979180D01*
Y4945324D01*
X8322542Y4936860D01*
X8305614D01*
X8297151Y4945324D01*
X8246367Y4987643D02*
X8263295Y4979180D01*
X8280223Y4962252D01*
Y4945324D01*
X8271759Y4936860D01*
X8254831D01*
X8246367Y4945324D01*
Y4953788D01*
X8254831Y4962252D01*
X8280223D01*
X1615936Y6495979D02*
Y6546762D01*
X1590544D01*
X1582080Y6538299D01*
Y6521371D01*
X1590544Y6512907D01*
X1615936D01*
X1599008D02*
X1582080Y6495979D01*
X1565153D02*
X1548225D01*
X1556689D01*
Y6546762D01*
X1565153Y6538299D01*
X1045860Y7230233D02*
X995076D01*
Y7255625D01*
X1003540Y7264088D01*
X1037396D01*
X1045860Y7255625D01*
Y7230233D01*
X995076Y7281016D02*
Y7297944D01*
Y7289480D01*
X1045860D01*
X1037396Y7281016D01*
X2468591Y6442668D02*
Y6493452D01*
X2443199D01*
X2434736Y6484988D01*
Y6468060D01*
X2443199Y6459596D01*
X2468591D01*
X2383952Y6484988D02*
X2392416Y6493452D01*
X2409344D01*
X2417808Y6484988D01*
Y6451132D01*
X2409344Y6442668D01*
X2392416D01*
X2383952Y6451132D01*
Y6468060D01*
X2400880D01*
X2367024Y6442668D02*
Y6493452D01*
X2350096Y6476524D01*
X2333169Y6493452D01*
Y6442668D01*
X2421324Y6750302D02*
X2429788Y6758766D01*
X2446716D01*
X2455180Y6750302D01*
Y6716446D01*
X2446716Y6707982D01*
X2429788D01*
X2421324Y6716446D01*
Y6733374D01*
X2438252D01*
X2404397Y6707982D02*
Y6758766D01*
X2370541Y6707982D01*
Y6758766D01*
X2353613D02*
Y6707982D01*
X2328221D01*
X2319757Y6716446D01*
Y6750302D01*
X2328221Y6758766D01*
X2353613D01*
X2462625Y6239051D02*
X2454161Y6247515D01*
X2437233D01*
X2428770Y6239051D01*
Y6230587D01*
X2437233Y6222123D01*
X2445697D01*
X2437233D01*
X2428770Y6213659D01*
Y6205195D01*
X2437233Y6196731D01*
X2454161D01*
X2462625Y6205195D01*
X2411842Y6247515D02*
Y6213659D01*
X2394914Y6196731D01*
X2377986Y6213659D01*
Y6247515D01*
X2361058Y6239051D02*
X2352594Y6247515D01*
X2335666D01*
X2327203Y6239051D01*
Y6230587D01*
X2335666Y6222123D01*
X2344130D01*
X2335666D01*
X2327203Y6213659D01*
Y6205195D01*
X2335666Y6196731D01*
X2352594D01*
X2361058Y6205195D01*
X2512371Y7667172D02*
Y7624853D01*
X2503907Y7616389D01*
X2486979D01*
X2478515Y7624853D01*
Y7667172D01*
X2427732Y7658708D02*
X2436196Y7667172D01*
X2453124D01*
X2461588Y7658708D01*
Y7650244D01*
X2453124Y7641780D01*
X2436196D01*
X2427732Y7633316D01*
Y7624853D01*
X2436196Y7616389D01*
X2453124D01*
X2461588Y7624853D01*
X2410804Y7667172D02*
Y7616389D01*
X2385412D01*
X2376949Y7624853D01*
Y7633316D01*
X2385412Y7641780D01*
X2410804D01*
X2385412D01*
X2376949Y7650244D01*
Y7658708D01*
X2385412Y7667172D01*
X2410804D01*
X2062359Y6341309D02*
Y6392092D01*
X2036967D01*
X2028504Y6383628D01*
Y6366700D01*
X2036967Y6358236D01*
X2062359D01*
X2045432D02*
X2028504Y6341309D01*
X2011576D02*
X1994648D01*
X2003112D01*
Y6392092D01*
X2011576Y6383628D01*
X1969256D02*
X1960792Y6392092D01*
X1943864D01*
X1935400Y6383628D01*
Y6349773D01*
X1943864Y6341309D01*
X1960792D01*
X1969256Y6349773D01*
Y6383628D01*
X1609299Y7334749D02*
Y7385532D01*
X1583907D01*
X1575443Y7377068D01*
Y7360140D01*
X1583907Y7351676D01*
X1609299D01*
X1592371D02*
X1575443Y7334749D01*
X1558516Y7377068D02*
X1550052Y7385532D01*
X1533124D01*
X1524660Y7377068D01*
Y7368604D01*
X1533124Y7360140D01*
X1524660Y7351676D01*
Y7343213D01*
X1533124Y7334749D01*
X1550052D01*
X1558516Y7343213D01*
Y7351676D01*
X1550052Y7360140D01*
X1558516Y7368604D01*
Y7377068D01*
X1550052Y7360140D02*
X1533124D01*
X1119506Y7388816D02*
Y7439600D01*
X1094114D01*
X1085650Y7431136D01*
Y7414208D01*
X1094114Y7405744D01*
X1119506D01*
X1102578D02*
X1085650Y7388816D01*
X1068722Y7439600D02*
X1034867D01*
Y7431136D01*
X1068722Y7397280D01*
Y7388816D01*
X1245165Y6787918D02*
Y6838701D01*
X1219773D01*
X1211309Y6830238D01*
Y6813310D01*
X1219773Y6804846D01*
X1245165D01*
X1228237D02*
X1211309Y6787918D01*
X1160525Y6838701D02*
X1177453Y6830238D01*
X1194381Y6813310D01*
Y6796382D01*
X1185917Y6787918D01*
X1168989D01*
X1160525Y6796382D01*
Y6804846D01*
X1168989Y6813310D01*
X1194381D01*
X1951574Y7646751D02*
X1985430D01*
Y7621360D01*
X1968502D01*
X1985430D01*
Y7595968D01*
X1900791D02*
X1934647D01*
X1900791Y7629823D01*
Y7638287D01*
X1909255Y7646751D01*
X1926183D01*
X1934647Y7638287D01*
X1815019Y7370479D02*
Y7319696D01*
X1789627D01*
X1781163Y7328160D01*
Y7362015D01*
X1789627Y7370479D01*
X1815019D01*
X1764235Y7362015D02*
X1755771Y7370479D01*
X1738843D01*
X1730380Y7362015D01*
Y7353551D01*
X1738843Y7345087D01*
X1730380Y7336623D01*
Y7328160D01*
X1738843Y7319696D01*
X1755771D01*
X1764235Y7328160D01*
Y7336623D01*
X1755771Y7345087D01*
X1764235Y7353551D01*
Y7362015D01*
X1755771Y7345087D02*
X1738843D01*
X1961887Y7294819D02*
X1911103D01*
Y7320210D01*
X1919567Y7328674D01*
X1953423D01*
X1961887Y7320210D01*
Y7294819D01*
Y7345602D02*
Y7379458D01*
X1953423D01*
X1919567Y7345602D01*
X1911103D01*
X1940777Y7178692D02*
Y7127909D01*
X1915385D01*
X1906921Y7136373D01*
Y7170228D01*
X1915385Y7178692D01*
X1940777D01*
X1856138D02*
X1873065Y7170228D01*
X1889993Y7153301D01*
Y7136373D01*
X1881529Y7127909D01*
X1864601D01*
X1856138Y7136373D01*
Y7144837D01*
X1864601Y7153301D01*
X1889993D01*
X1795371Y6689049D02*
X1803835Y6697513D01*
X1820762D01*
X1829226Y6689049D01*
Y6655194D01*
X1820762Y6646730D01*
X1803835D01*
X1795371Y6655194D01*
X1778443Y6697513D02*
X1744587D01*
Y6689049D01*
X1778443Y6655194D01*
Y6646730D01*
X1577150Y6879180D02*
X1585614Y6887643D01*
X1602542D01*
X1611006Y6879180D01*
Y6845324D01*
X1602542Y6836860D01*
X1585614D01*
X1577150Y6845324D01*
X1526367Y6887643D02*
X1543295Y6879180D01*
X1560222Y6862252D01*
Y6845324D01*
X1551758Y6836860D01*
X1534831D01*
X1526367Y6845324D01*
Y6853788D01*
X1534831Y6862252D01*
X1560222D01*
X3855936Y6495979D02*
Y6546762D01*
X3830544D01*
X3822080Y6538299D01*
Y6521371D01*
X3830544Y6512907D01*
X3855936D01*
X3839008D02*
X3822080Y6495979D01*
X3805153D02*
X3788225D01*
X3796689D01*
Y6546762D01*
X3805153Y6538299D01*
X3285860Y7230233D02*
X3235076D01*
Y7255625D01*
X3243540Y7264088D01*
X3277396D01*
X3285860Y7255625D01*
Y7230233D01*
X3235076Y7281016D02*
Y7297944D01*
Y7289480D01*
X3285860D01*
X3277396Y7281016D01*
X4708591Y6442668D02*
Y6493452D01*
X4683199D01*
X4674736Y6484988D01*
Y6468060D01*
X4683199Y6459596D01*
X4708591D01*
X4623952Y6484988D02*
X4632416Y6493452D01*
X4649344D01*
X4657808Y6484988D01*
Y6451132D01*
X4649344Y6442668D01*
X4632416D01*
X4623952Y6451132D01*
Y6468060D01*
X4640880D01*
X4607024Y6442668D02*
Y6493452D01*
X4590096Y6476524D01*
X4573169Y6493452D01*
Y6442668D01*
X4661324Y6750302D02*
X4669788Y6758766D01*
X4686716D01*
X4695180Y6750302D01*
Y6716446D01*
X4686716Y6707982D01*
X4669788D01*
X4661324Y6716446D01*
Y6733374D01*
X4678252D01*
X4644397Y6707982D02*
Y6758766D01*
X4610541Y6707982D01*
Y6758766D01*
X4593613D02*
Y6707982D01*
X4568221D01*
X4559757Y6716446D01*
Y6750302D01*
X4568221Y6758766D01*
X4593613D01*
X4702625Y6239051D02*
X4694161Y6247515D01*
X4677233D01*
X4668770Y6239051D01*
Y6230587D01*
X4677233Y6222123D01*
X4685698D01*
X4677233D01*
X4668770Y6213659D01*
Y6205195D01*
X4677233Y6196731D01*
X4694161D01*
X4702625Y6205195D01*
X4651842Y6247515D02*
Y6213659D01*
X4634914Y6196731D01*
X4617986Y6213659D01*
Y6247515D01*
X4601058Y6239051D02*
X4592594Y6247515D01*
X4575666D01*
X4567203Y6239051D01*
Y6230587D01*
X4575666Y6222123D01*
X4584131D01*
X4575666D01*
X4567203Y6213659D01*
Y6205195D01*
X4575666Y6196731D01*
X4592594D01*
X4601058Y6205195D01*
X4752371Y7667172D02*
Y7624853D01*
X4743907Y7616389D01*
X4726979D01*
X4718516Y7624853D01*
Y7667172D01*
X4667732Y7658708D02*
X4676196Y7667172D01*
X4693124D01*
X4701588Y7658708D01*
Y7650244D01*
X4693124Y7641780D01*
X4676196D01*
X4667732Y7633316D01*
Y7624853D01*
X4676196Y7616389D01*
X4693124D01*
X4701588Y7624853D01*
X4650804Y7667172D02*
Y7616389D01*
X4625412D01*
X4616949Y7624853D01*
Y7633316D01*
X4625412Y7641780D01*
X4650804D01*
X4625412D01*
X4616949Y7650244D01*
Y7658708D01*
X4625412Y7667172D01*
X4650804D01*
X4302359Y6341309D02*
Y6392092D01*
X4276968D01*
X4268504Y6383628D01*
Y6366700D01*
X4276968Y6358236D01*
X4302359D01*
X4285432D02*
X4268504Y6341309D01*
X4251576D02*
X4234648D01*
X4243112D01*
Y6392092D01*
X4251576Y6383628D01*
X4209256D02*
X4200792Y6392092D01*
X4183864D01*
X4175401Y6383628D01*
Y6349773D01*
X4183864Y6341309D01*
X4200792D01*
X4209256Y6349773D01*
Y6383628D01*
X3849299Y7334749D02*
Y7385532D01*
X3823907D01*
X3815443Y7377068D01*
Y7360140D01*
X3823907Y7351676D01*
X3849299D01*
X3832371D02*
X3815443Y7334749D01*
X3798516Y7377068D02*
X3790052Y7385532D01*
X3773124D01*
X3764660Y7377068D01*
Y7368604D01*
X3773124Y7360140D01*
X3764660Y7351676D01*
Y7343213D01*
X3773124Y7334749D01*
X3790052D01*
X3798516Y7343213D01*
Y7351676D01*
X3790052Y7360140D01*
X3798516Y7368604D01*
Y7377068D01*
X3790052Y7360140D02*
X3773124D01*
X3359506Y7388816D02*
Y7439600D01*
X3334114D01*
X3325650Y7431136D01*
Y7414208D01*
X3334114Y7405744D01*
X3359506D01*
X3342578D02*
X3325650Y7388816D01*
X3308722Y7439600D02*
X3274867D01*
Y7431136D01*
X3308722Y7397280D01*
Y7388816D01*
X3485165Y6787918D02*
Y6838701D01*
X3459773D01*
X3451309Y6830238D01*
Y6813310D01*
X3459773Y6804846D01*
X3485165D01*
X3468237D02*
X3451309Y6787918D01*
X3400526Y6838701D02*
X3417453Y6830238D01*
X3434381Y6813310D01*
Y6796382D01*
X3425917Y6787918D01*
X3408989D01*
X3400526Y6796382D01*
Y6804846D01*
X3408989Y6813310D01*
X3434381D01*
X4191575Y7646751D02*
X4225430D01*
Y7621360D01*
X4208502D01*
X4225430D01*
Y7595968D01*
X4140791D02*
X4174647D01*
X4140791Y7629823D01*
Y7638287D01*
X4149255Y7646751D01*
X4166183D01*
X4174647Y7638287D01*
X4055019Y7370479D02*
Y7319696D01*
X4029627D01*
X4021163Y7328160D01*
Y7362015D01*
X4029627Y7370479D01*
X4055019D01*
X4004235Y7362015D02*
X3995771Y7370479D01*
X3978843D01*
X3970380Y7362015D01*
Y7353551D01*
X3978843Y7345087D01*
X3970380Y7336623D01*
Y7328160D01*
X3978843Y7319696D01*
X3995771D01*
X4004235Y7328160D01*
Y7336623D01*
X3995771Y7345087D01*
X4004235Y7353551D01*
Y7362015D01*
X3995771Y7345087D02*
X3978843D01*
X4201887Y7294819D02*
X4151103D01*
Y7320210D01*
X4159567Y7328674D01*
X4193423D01*
X4201887Y7320210D01*
Y7294819D01*
Y7345602D02*
Y7379458D01*
X4193423D01*
X4159567Y7345602D01*
X4151103D01*
X4180777Y7178692D02*
Y7127909D01*
X4155385D01*
X4146921Y7136373D01*
Y7170228D01*
X4155385Y7178692D01*
X4180777D01*
X4096138D02*
X4113065Y7170228D01*
X4129993Y7153301D01*
Y7136373D01*
X4121529Y7127909D01*
X4104601D01*
X4096138Y7136373D01*
Y7144837D01*
X4104601Y7153301D01*
X4129993D01*
X4035371Y6689049D02*
X4043835Y6697513D01*
X4060763D01*
X4069227Y6689049D01*
Y6655194D01*
X4060763Y6646730D01*
X4043835D01*
X4035371Y6655194D01*
X4018443Y6697513D02*
X3984587D01*
Y6689049D01*
X4018443Y6655194D01*
Y6646730D01*
X3817150Y6879180D02*
X3825614Y6887643D01*
X3842542D01*
X3851006Y6879180D01*
Y6845324D01*
X3842542Y6836860D01*
X3825614D01*
X3817150Y6845324D01*
X3766367Y6887643D02*
X3783295Y6879180D01*
X3800223Y6862252D01*
Y6845324D01*
X3791758Y6836860D01*
X3774831D01*
X3766367Y6845324D01*
Y6853788D01*
X3774831Y6862252D01*
X3800223D01*
X6095936Y6495979D02*
Y6546762D01*
X6070544D01*
X6062081Y6538299D01*
Y6521371D01*
X6070544Y6512907D01*
X6095936D01*
X6079008D02*
X6062081Y6495979D01*
X6045153D02*
X6028225D01*
X6036689D01*
Y6546762D01*
X6045153Y6538299D01*
X5525860Y7230233D02*
X5475076D01*
Y7255625D01*
X5483540Y7264088D01*
X5517396D01*
X5525860Y7255625D01*
Y7230233D01*
X5475076Y7281016D02*
Y7297944D01*
Y7289480D01*
X5525860D01*
X5517396Y7281016D01*
X6948591Y6442668D02*
Y6493452D01*
X6923200D01*
X6914736Y6484988D01*
Y6468060D01*
X6923200Y6459596D01*
X6948591D01*
X6863952Y6484988D02*
X6872416Y6493452D01*
X6889344D01*
X6897808Y6484988D01*
Y6451132D01*
X6889344Y6442668D01*
X6872416D01*
X6863952Y6451132D01*
Y6468060D01*
X6880880D01*
X6847024Y6442668D02*
Y6493452D01*
X6830097Y6476524D01*
X6813169Y6493452D01*
Y6442668D01*
X6901325Y6750302D02*
X6909788Y6758766D01*
X6926716D01*
X6935180Y6750302D01*
Y6716446D01*
X6926716Y6707982D01*
X6909788D01*
X6901325Y6716446D01*
Y6733374D01*
X6918252D01*
X6884397Y6707982D02*
Y6758766D01*
X6850541Y6707982D01*
Y6758766D01*
X6833613D02*
Y6707982D01*
X6808221D01*
X6799758Y6716446D01*
Y6750302D01*
X6808221Y6758766D01*
X6833613D01*
X6942625Y6239051D02*
X6934161Y6247515D01*
X6917234D01*
X6908770Y6239051D01*
Y6230587D01*
X6917234Y6222123D01*
X6925698D01*
X6917234D01*
X6908770Y6213659D01*
Y6205195D01*
X6917234Y6196731D01*
X6934161D01*
X6942625Y6205195D01*
X6891842Y6247515D02*
Y6213659D01*
X6874914Y6196731D01*
X6857986Y6213659D01*
Y6247515D01*
X6841058Y6239051D02*
X6832594Y6247515D01*
X6815667D01*
X6807203Y6239051D01*
Y6230587D01*
X6815667Y6222123D01*
X6824131D01*
X6815667D01*
X6807203Y6213659D01*
Y6205195D01*
X6815667Y6196731D01*
X6832594D01*
X6841058Y6205195D01*
X6992371Y7667172D02*
Y7624853D01*
X6983907Y7616389D01*
X6966979D01*
X6958516Y7624853D01*
Y7667172D01*
X6907732Y7658708D02*
X6916196Y7667172D01*
X6933124D01*
X6941588Y7658708D01*
Y7650244D01*
X6933124Y7641780D01*
X6916196D01*
X6907732Y7633316D01*
Y7624853D01*
X6916196Y7616389D01*
X6933124D01*
X6941588Y7624853D01*
X6890804Y7667172D02*
Y7616389D01*
X6865412D01*
X6856949Y7624853D01*
Y7633316D01*
X6865412Y7641780D01*
X6890804D01*
X6865412D01*
X6856949Y7650244D01*
Y7658708D01*
X6865412Y7667172D01*
X6890804D01*
X6542360Y6341309D02*
Y6392092D01*
X6516968D01*
X6508504Y6383628D01*
Y6366700D01*
X6516968Y6358236D01*
X6542360D01*
X6525432D02*
X6508504Y6341309D01*
X6491576D02*
X6474648D01*
X6483112D01*
Y6392092D01*
X6491576Y6383628D01*
X6449256D02*
X6440792Y6392092D01*
X6423864D01*
X6415401Y6383628D01*
Y6349773D01*
X6423864Y6341309D01*
X6440792D01*
X6449256Y6349773D01*
Y6383628D01*
X6089299Y7334749D02*
Y7385532D01*
X6063907D01*
X6055444Y7377068D01*
Y7360140D01*
X6063907Y7351676D01*
X6089299D01*
X6072371D02*
X6055444Y7334749D01*
X6038516Y7377068D02*
X6030052Y7385532D01*
X6013124D01*
X6004660Y7377068D01*
Y7368604D01*
X6013124Y7360140D01*
X6004660Y7351676D01*
Y7343213D01*
X6013124Y7334749D01*
X6030052D01*
X6038516Y7343213D01*
Y7351676D01*
X6030052Y7360140D01*
X6038516Y7368604D01*
Y7377068D01*
X6030052Y7360140D02*
X6013124D01*
X5599506Y7388816D02*
Y7439600D01*
X5574114D01*
X5565650Y7431136D01*
Y7414208D01*
X5574114Y7405744D01*
X5599506D01*
X5582578D02*
X5565650Y7388816D01*
X5548722Y7439600D02*
X5514867D01*
Y7431136D01*
X5548722Y7397280D01*
Y7388816D01*
X5725165Y6787918D02*
Y6838701D01*
X5699773D01*
X5691309Y6830238D01*
Y6813310D01*
X5699773Y6804846D01*
X5725165D01*
X5708237D02*
X5691309Y6787918D01*
X5640526Y6838701D02*
X5657454Y6830238D01*
X5674381Y6813310D01*
Y6796382D01*
X5665917Y6787918D01*
X5648989D01*
X5640526Y6796382D01*
Y6804846D01*
X5648989Y6813310D01*
X5674381D01*
X6431575Y7646751D02*
X6465430D01*
Y7621360D01*
X6448502D01*
X6465430D01*
Y7595968D01*
X6380791D02*
X6414647D01*
X6380791Y7629823D01*
Y7638287D01*
X6389255Y7646751D01*
X6406183D01*
X6414647Y7638287D01*
X6295019Y7370479D02*
Y7319696D01*
X6269627D01*
X6261163Y7328160D01*
Y7362015D01*
X6269627Y7370479D01*
X6295019D01*
X6244235Y7362015D02*
X6235771Y7370479D01*
X6218844D01*
X6210380Y7362015D01*
Y7353551D01*
X6218844Y7345087D01*
X6210380Y7336623D01*
Y7328160D01*
X6218844Y7319696D01*
X6235771D01*
X6244235Y7328160D01*
Y7336623D01*
X6235771Y7345087D01*
X6244235Y7353551D01*
Y7362015D01*
X6235771Y7345087D02*
X6218844D01*
X6441887Y7294819D02*
X6391103D01*
Y7320210D01*
X6399567Y7328674D01*
X6433423D01*
X6441887Y7320210D01*
Y7294819D01*
Y7345602D02*
Y7379458D01*
X6433423D01*
X6399567Y7345602D01*
X6391103D01*
X6420777Y7178692D02*
Y7127909D01*
X6395385D01*
X6386921Y7136373D01*
Y7170228D01*
X6395385Y7178692D01*
X6420777D01*
X6336138D02*
X6353066Y7170228D01*
X6369993Y7153301D01*
Y7136373D01*
X6361529Y7127909D01*
X6344601D01*
X6336138Y7136373D01*
Y7144837D01*
X6344601Y7153301D01*
X6369993D01*
X6275371Y6689049D02*
X6283835Y6697513D01*
X6300763D01*
X6309227Y6689049D01*
Y6655194D01*
X6300763Y6646730D01*
X6283835D01*
X6275371Y6655194D01*
X6258443Y6697513D02*
X6224587D01*
Y6689049D01*
X6258443Y6655194D01*
Y6646730D01*
X6057150Y6879180D02*
X6065614Y6887643D01*
X6082542D01*
X6091006Y6879180D01*
Y6845324D01*
X6082542Y6836860D01*
X6065614D01*
X6057150Y6845324D01*
X6006367Y6887643D02*
X6023295Y6879180D01*
X6040223Y6862252D01*
Y6845324D01*
X6031759Y6836860D01*
X6014831D01*
X6006367Y6845324D01*
Y6853788D01*
X6014831Y6862252D01*
X6040223D01*
X8335936Y6495979D02*
Y6546762D01*
X8310544D01*
X8302081Y6538299D01*
Y6521371D01*
X8310544Y6512907D01*
X8335936D01*
X8319009D02*
X8302081Y6495979D01*
X8285153D02*
X8268225D01*
X8276689D01*
Y6546762D01*
X8285153Y6538299D01*
X7765860Y7230233D02*
X7715077D01*
Y7255625D01*
X7723541Y7264088D01*
X7757396D01*
X7765860Y7255625D01*
Y7230233D01*
X7715077Y7281016D02*
Y7297944D01*
Y7289480D01*
X7765860D01*
X7757396Y7281016D01*
X9188591Y6442668D02*
Y6493452D01*
X9163200D01*
X9154736Y6484988D01*
Y6468060D01*
X9163200Y6459596D01*
X9188591D01*
X9103952Y6484988D02*
X9112416Y6493452D01*
X9129344D01*
X9137808Y6484988D01*
Y6451132D01*
X9129344Y6442668D01*
X9112416D01*
X9103952Y6451132D01*
Y6468060D01*
X9120880D01*
X9087024Y6442668D02*
Y6493452D01*
X9070097Y6476524D01*
X9053169Y6493452D01*
Y6442668D01*
X9141325Y6750302D02*
X9149788Y6758766D01*
X9166716D01*
X9175180Y6750302D01*
Y6716446D01*
X9166716Y6707982D01*
X9149788D01*
X9141325Y6716446D01*
Y6733374D01*
X9158252D01*
X9124397Y6707982D02*
Y6758766D01*
X9090541Y6707982D01*
Y6758766D01*
X9073613D02*
Y6707982D01*
X9048221D01*
X9039758Y6716446D01*
Y6750302D01*
X9048221Y6758766D01*
X9073613D01*
X9182626Y6239051D02*
X9174161Y6247515D01*
X9157234D01*
X9148770Y6239051D01*
Y6230587D01*
X9157234Y6222123D01*
X9165698D01*
X9157234D01*
X9148770Y6213659D01*
Y6205195D01*
X9157234Y6196731D01*
X9174161D01*
X9182626Y6205195D01*
X9131842Y6247515D02*
Y6213659D01*
X9114914Y6196731D01*
X9097986Y6213659D01*
Y6247515D01*
X9081059Y6239051D02*
X9072595Y6247515D01*
X9055667D01*
X9047203Y6239051D01*
Y6230587D01*
X9055667Y6222123D01*
X9064131D01*
X9055667D01*
X9047203Y6213659D01*
Y6205195D01*
X9055667Y6196731D01*
X9072595D01*
X9081059Y6205195D01*
X9232371Y7667172D02*
Y7624853D01*
X9223907Y7616389D01*
X9206980D01*
X9198516Y7624853D01*
Y7667172D01*
X9147732Y7658708D02*
X9156196Y7667172D01*
X9173124D01*
X9181588Y7658708D01*
Y7650244D01*
X9173124Y7641780D01*
X9156196D01*
X9147732Y7633316D01*
Y7624853D01*
X9156196Y7616389D01*
X9173124D01*
X9181588Y7624853D01*
X9130804Y7667172D02*
Y7616389D01*
X9105413D01*
X9096949Y7624853D01*
Y7633316D01*
X9105413Y7641780D01*
X9130804D01*
X9105413D01*
X9096949Y7650244D01*
Y7658708D01*
X9105413Y7667172D01*
X9130804D01*
X8782360Y6341309D02*
Y6392092D01*
X8756968D01*
X8748504Y6383628D01*
Y6366700D01*
X8756968Y6358236D01*
X8782360D01*
X8765432D02*
X8748504Y6341309D01*
X8731576D02*
X8714648D01*
X8723112D01*
Y6392092D01*
X8731576Y6383628D01*
X8689256D02*
X8680792Y6392092D01*
X8663865D01*
X8655401Y6383628D01*
Y6349773D01*
X8663865Y6341309D01*
X8680792D01*
X8689256Y6349773D01*
Y6383628D01*
X8329299Y7334749D02*
Y7385532D01*
X8303907D01*
X8295444Y7377068D01*
Y7360140D01*
X8303907Y7351676D01*
X8329299D01*
X8312371D02*
X8295444Y7334749D01*
X8278516Y7377068D02*
X8270052Y7385532D01*
X8253124D01*
X8244660Y7377068D01*
Y7368604D01*
X8253124Y7360140D01*
X8244660Y7351676D01*
Y7343213D01*
X8253124Y7334749D01*
X8270052D01*
X8278516Y7343213D01*
Y7351676D01*
X8270052Y7360140D01*
X8278516Y7368604D01*
Y7377068D01*
X8270052Y7360140D02*
X8253124D01*
X7839506Y7388816D02*
Y7439600D01*
X7814114D01*
X7805650Y7431136D01*
Y7414208D01*
X7814114Y7405744D01*
X7839506D01*
X7822578D02*
X7805650Y7388816D01*
X7788723Y7439600D02*
X7754867D01*
Y7431136D01*
X7788723Y7397280D01*
Y7388816D01*
X7965165Y6787918D02*
Y6838701D01*
X7939773D01*
X7931309Y6830238D01*
Y6813310D01*
X7939773Y6804846D01*
X7965165D01*
X7948237D02*
X7931309Y6787918D01*
X7880526Y6838701D02*
X7897454Y6830238D01*
X7914381Y6813310D01*
Y6796382D01*
X7905917Y6787918D01*
X7888990D01*
X7880526Y6796382D01*
Y6804846D01*
X7888990Y6813310D01*
X7914381D01*
X8671575Y7646751D02*
X8705430D01*
Y7621360D01*
X8688503D01*
X8705430D01*
Y7595968D01*
X8620791D02*
X8654647D01*
X8620791Y7629823D01*
Y7638287D01*
X8629255Y7646751D01*
X8646183D01*
X8654647Y7638287D01*
X8535019Y7370479D02*
Y7319696D01*
X8509627D01*
X8501163Y7328160D01*
Y7362015D01*
X8509627Y7370479D01*
X8535019D01*
X8484236Y7362015D02*
X8475771Y7370479D01*
X8458844D01*
X8450380Y7362015D01*
Y7353551D01*
X8458844Y7345087D01*
X8450380Y7336623D01*
Y7328160D01*
X8458844Y7319696D01*
X8475771D01*
X8484236Y7328160D01*
Y7336623D01*
X8475771Y7345087D01*
X8484236Y7353551D01*
Y7362015D01*
X8475771Y7345087D02*
X8458844D01*
X8681887Y7294819D02*
X8631103D01*
Y7320210D01*
X8639567Y7328674D01*
X8673423D01*
X8681887Y7320210D01*
Y7294819D01*
Y7345602D02*
Y7379458D01*
X8673423D01*
X8639567Y7345602D01*
X8631103D01*
X8660777Y7178692D02*
Y7127909D01*
X8635385D01*
X8626921Y7136373D01*
Y7170228D01*
X8635385Y7178692D01*
X8660777D01*
X8576138D02*
X8593066Y7170228D01*
X8609993Y7153301D01*
Y7136373D01*
X8601529Y7127909D01*
X8584602D01*
X8576138Y7136373D01*
Y7144837D01*
X8584602Y7153301D01*
X8609993D01*
X8515371Y6689049D02*
X8523835Y6697513D01*
X8540763D01*
X8549227Y6689049D01*
Y6655194D01*
X8540763Y6646730D01*
X8523835D01*
X8515371Y6655194D01*
X8498443Y6697513D02*
X8464588D01*
Y6689049D01*
X8498443Y6655194D01*
Y6646730D01*
X8297151Y6879180D02*
X8305614Y6887643D01*
X8322542D01*
X8331006Y6879180D01*
Y6845324D01*
X8322542Y6836860D01*
X8305614D01*
X8297151Y6845324D01*
X8246367Y6887643D02*
X8263295Y6879180D01*
X8280223Y6862252D01*
Y6845324D01*
X8271759Y6836860D01*
X8254831D01*
X8246367Y6845324D01*
Y6853788D01*
X8254831Y6862252D01*
X8280223D01*
X1615936Y8395979D02*
Y8446762D01*
X1590544D01*
X1582080Y8438299D01*
Y8421371D01*
X1590544Y8412907D01*
X1615936D01*
X1599008D02*
X1582080Y8395979D01*
X1565153D02*
X1548225D01*
X1556689D01*
Y8446762D01*
X1565153Y8438299D01*
X1045860Y9130233D02*
X995076D01*
Y9155625D01*
X1003540Y9164088D01*
X1037396D01*
X1045860Y9155625D01*
Y9130233D01*
X995076Y9181016D02*
Y9197944D01*
Y9189480D01*
X1045860D01*
X1037396Y9181016D01*
X2468591Y8342668D02*
Y8393452D01*
X2443199D01*
X2434736Y8384988D01*
Y8368060D01*
X2443199Y8359596D01*
X2468591D01*
X2383952Y8384988D02*
X2392416Y8393452D01*
X2409344D01*
X2417808Y8384988D01*
Y8351132D01*
X2409344Y8342668D01*
X2392416D01*
X2383952Y8351132D01*
Y8368060D01*
X2400880D01*
X2367024Y8342668D02*
Y8393452D01*
X2350096Y8376524D01*
X2333169Y8393452D01*
Y8342668D01*
X2421324Y8650302D02*
X2429788Y8658766D01*
X2446716D01*
X2455180Y8650302D01*
Y8616446D01*
X2446716Y8607982D01*
X2429788D01*
X2421324Y8616446D01*
Y8633374D01*
X2438252D01*
X2404397Y8607982D02*
Y8658766D01*
X2370541Y8607982D01*
Y8658766D01*
X2353613D02*
Y8607982D01*
X2328221D01*
X2319757Y8616446D01*
Y8650302D01*
X2328221Y8658766D01*
X2353613D01*
X2462625Y8139051D02*
X2454161Y8147515D01*
X2437233D01*
X2428770Y8139051D01*
Y8130587D01*
X2437233Y8122123D01*
X2445697D01*
X2437233D01*
X2428770Y8113659D01*
Y8105195D01*
X2437233Y8096731D01*
X2454161D01*
X2462625Y8105195D01*
X2411842Y8147515D02*
Y8113659D01*
X2394914Y8096731D01*
X2377986Y8113659D01*
Y8147515D01*
X2361058Y8139051D02*
X2352594Y8147515D01*
X2335666D01*
X2327203Y8139051D01*
Y8130587D01*
X2335666Y8122123D01*
X2344130D01*
X2335666D01*
X2327203Y8113659D01*
Y8105195D01*
X2335666Y8096731D01*
X2352594D01*
X2361058Y8105195D01*
X2512371Y9567172D02*
Y9524853D01*
X2503907Y9516389D01*
X2486979D01*
X2478515Y9524853D01*
Y9567172D01*
X2427732Y9558708D02*
X2436196Y9567172D01*
X2453124D01*
X2461588Y9558708D01*
Y9550244D01*
X2453124Y9541781D01*
X2436196D01*
X2427732Y9533316D01*
Y9524853D01*
X2436196Y9516389D01*
X2453124D01*
X2461588Y9524853D01*
X2410804Y9567172D02*
Y9516389D01*
X2385412D01*
X2376949Y9524853D01*
Y9533316D01*
X2385412Y9541781D01*
X2410804D01*
X2385412D01*
X2376949Y9550244D01*
Y9558708D01*
X2385412Y9567172D01*
X2410804D01*
X2062359Y8241309D02*
Y8292092D01*
X2036967D01*
X2028504Y8283628D01*
Y8266701D01*
X2036967Y8258236D01*
X2062359D01*
X2045432D02*
X2028504Y8241309D01*
X2011576D02*
X1994648D01*
X2003112D01*
Y8292092D01*
X2011576Y8283628D01*
X1969256D02*
X1960792Y8292092D01*
X1943864D01*
X1935400Y8283628D01*
Y8249773D01*
X1943864Y8241309D01*
X1960792D01*
X1969256Y8249773D01*
Y8283628D01*
X1609299Y9234749D02*
Y9285532D01*
X1583907D01*
X1575443Y9277068D01*
Y9260140D01*
X1583907Y9251676D01*
X1609299D01*
X1592371D02*
X1575443Y9234749D01*
X1558516Y9277068D02*
X1550052Y9285532D01*
X1533124D01*
X1524660Y9277068D01*
Y9268604D01*
X1533124Y9260140D01*
X1524660Y9251676D01*
Y9243213D01*
X1533124Y9234749D01*
X1550052D01*
X1558516Y9243213D01*
Y9251676D01*
X1550052Y9260140D01*
X1558516Y9268604D01*
Y9277068D01*
X1550052Y9260140D02*
X1533124D01*
X1119506Y9288816D02*
Y9339600D01*
X1094114D01*
X1085650Y9331136D01*
Y9314208D01*
X1094114Y9305744D01*
X1119506D01*
X1102578D02*
X1085650Y9288816D01*
X1068722Y9339600D02*
X1034867D01*
Y9331136D01*
X1068722Y9297280D01*
Y9288816D01*
X1245165Y8687918D02*
Y8738701D01*
X1219773D01*
X1211309Y8730238D01*
Y8713310D01*
X1219773Y8704846D01*
X1245165D01*
X1228237D02*
X1211309Y8687918D01*
X1160525Y8738701D02*
X1177453Y8730238D01*
X1194381Y8713310D01*
Y8696382D01*
X1185917Y8687918D01*
X1168989D01*
X1160525Y8696382D01*
Y8704846D01*
X1168989Y8713310D01*
X1194381D01*
X1951574Y9546751D02*
X1985430D01*
Y9521360D01*
X1968502D01*
X1985430D01*
Y9495968D01*
X1900791D02*
X1934647D01*
X1900791Y9529823D01*
Y9538288D01*
X1909255Y9546751D01*
X1926183D01*
X1934647Y9538288D01*
X1815019Y9270479D02*
Y9219696D01*
X1789627D01*
X1781163Y9228160D01*
Y9262015D01*
X1789627Y9270479D01*
X1815019D01*
X1764235Y9262015D02*
X1755771Y9270479D01*
X1738843D01*
X1730380Y9262015D01*
Y9253551D01*
X1738843Y9245087D01*
X1730380Y9236623D01*
Y9228160D01*
X1738843Y9219696D01*
X1755771D01*
X1764235Y9228160D01*
Y9236623D01*
X1755771Y9245087D01*
X1764235Y9253551D01*
Y9262015D01*
X1755771Y9245087D02*
X1738843D01*
X1961887Y9194819D02*
X1911103D01*
Y9220210D01*
X1919567Y9228674D01*
X1953423D01*
X1961887Y9220210D01*
Y9194819D01*
Y9245602D02*
Y9279458D01*
X1953423D01*
X1919567Y9245602D01*
X1911103D01*
X1940777Y9078692D02*
Y9027909D01*
X1915385D01*
X1906921Y9036373D01*
Y9070228D01*
X1915385Y9078692D01*
X1940777D01*
X1856138D02*
X1873065Y9070228D01*
X1889993Y9053301D01*
Y9036373D01*
X1881529Y9027909D01*
X1864601D01*
X1856138Y9036373D01*
Y9044837D01*
X1864601Y9053301D01*
X1889993D01*
X1795371Y8589049D02*
X1803835Y8597513D01*
X1820762D01*
X1829226Y8589049D01*
Y8555194D01*
X1820762Y8546730D01*
X1803835D01*
X1795371Y8555194D01*
X1778443Y8597513D02*
X1744587D01*
Y8589049D01*
X1778443Y8555194D01*
Y8546730D01*
X1577150Y8779180D02*
X1585614Y8787643D01*
X1602542D01*
X1611006Y8779180D01*
Y8745324D01*
X1602542Y8736860D01*
X1585614D01*
X1577150Y8745324D01*
X1526367Y8787643D02*
X1543295Y8779180D01*
X1560222Y8762252D01*
Y8745324D01*
X1551758Y8736860D01*
X1534831D01*
X1526367Y8745324D01*
Y8753788D01*
X1534831Y8762252D01*
X1560222D01*
X3855936Y8395979D02*
Y8446762D01*
X3830544D01*
X3822080Y8438299D01*
Y8421371D01*
X3830544Y8412907D01*
X3855936D01*
X3839008D02*
X3822080Y8395979D01*
X3805153D02*
X3788225D01*
X3796689D01*
Y8446762D01*
X3805153Y8438299D01*
X3285860Y9130233D02*
X3235076D01*
Y9155625D01*
X3243540Y9164088D01*
X3277396D01*
X3285860Y9155625D01*
Y9130233D01*
X3235076Y9181016D02*
Y9197944D01*
Y9189480D01*
X3285860D01*
X3277396Y9181016D01*
X4708591Y8342668D02*
Y8393452D01*
X4683199D01*
X4674736Y8384988D01*
Y8368060D01*
X4683199Y8359596D01*
X4708591D01*
X4623952Y8384988D02*
X4632416Y8393452D01*
X4649344D01*
X4657808Y8384988D01*
Y8351132D01*
X4649344Y8342668D01*
X4632416D01*
X4623952Y8351132D01*
Y8368060D01*
X4640880D01*
X4607024Y8342668D02*
Y8393452D01*
X4590096Y8376524D01*
X4573169Y8393452D01*
Y8342668D01*
X4661324Y8650302D02*
X4669788Y8658766D01*
X4686716D01*
X4695180Y8650302D01*
Y8616446D01*
X4686716Y8607982D01*
X4669788D01*
X4661324Y8616446D01*
Y8633374D01*
X4678252D01*
X4644397Y8607982D02*
Y8658766D01*
X4610541Y8607982D01*
Y8658766D01*
X4593613D02*
Y8607982D01*
X4568221D01*
X4559757Y8616446D01*
Y8650302D01*
X4568221Y8658766D01*
X4593613D01*
X4702625Y8139051D02*
X4694161Y8147515D01*
X4677233D01*
X4668770Y8139051D01*
Y8130587D01*
X4677233Y8122123D01*
X4685698D01*
X4677233D01*
X4668770Y8113659D01*
Y8105195D01*
X4677233Y8096731D01*
X4694161D01*
X4702625Y8105195D01*
X4651842Y8147515D02*
Y8113659D01*
X4634914Y8096731D01*
X4617986Y8113659D01*
Y8147515D01*
X4601058Y8139051D02*
X4592594Y8147515D01*
X4575666D01*
X4567203Y8139051D01*
Y8130587D01*
X4575666Y8122123D01*
X4584131D01*
X4575666D01*
X4567203Y8113659D01*
Y8105195D01*
X4575666Y8096731D01*
X4592594D01*
X4601058Y8105195D01*
X4752371Y9567172D02*
Y9524853D01*
X4743907Y9516389D01*
X4726979D01*
X4718516Y9524853D01*
Y9567172D01*
X4667732Y9558708D02*
X4676196Y9567172D01*
X4693124D01*
X4701588Y9558708D01*
Y9550244D01*
X4693124Y9541781D01*
X4676196D01*
X4667732Y9533316D01*
Y9524853D01*
X4676196Y9516389D01*
X4693124D01*
X4701588Y9524853D01*
X4650804Y9567172D02*
Y9516389D01*
X4625412D01*
X4616949Y9524853D01*
Y9533316D01*
X4625412Y9541781D01*
X4650804D01*
X4625412D01*
X4616949Y9550244D01*
Y9558708D01*
X4625412Y9567172D01*
X4650804D01*
X4302359Y8241309D02*
Y8292092D01*
X4276968D01*
X4268504Y8283628D01*
Y8266701D01*
X4276968Y8258236D01*
X4302359D01*
X4285432D02*
X4268504Y8241309D01*
X4251576D02*
X4234648D01*
X4243112D01*
Y8292092D01*
X4251576Y8283628D01*
X4209256D02*
X4200792Y8292092D01*
X4183864D01*
X4175401Y8283628D01*
Y8249773D01*
X4183864Y8241309D01*
X4200792D01*
X4209256Y8249773D01*
Y8283628D01*
X3849299Y9234749D02*
Y9285532D01*
X3823907D01*
X3815443Y9277068D01*
Y9260140D01*
X3823907Y9251676D01*
X3849299D01*
X3832371D02*
X3815443Y9234749D01*
X3798516Y9277068D02*
X3790052Y9285532D01*
X3773124D01*
X3764660Y9277068D01*
Y9268604D01*
X3773124Y9260140D01*
X3764660Y9251676D01*
Y9243213D01*
X3773124Y9234749D01*
X3790052D01*
X3798516Y9243213D01*
Y9251676D01*
X3790052Y9260140D01*
X3798516Y9268604D01*
Y9277068D01*
X3790052Y9260140D02*
X3773124D01*
X3359506Y9288816D02*
Y9339600D01*
X3334114D01*
X3325650Y9331136D01*
Y9314208D01*
X3334114Y9305744D01*
X3359506D01*
X3342578D02*
X3325650Y9288816D01*
X3308722Y9339600D02*
X3274867D01*
Y9331136D01*
X3308722Y9297280D01*
Y9288816D01*
X3485165Y8687918D02*
Y8738701D01*
X3459773D01*
X3451309Y8730238D01*
Y8713310D01*
X3459773Y8704846D01*
X3485165D01*
X3468237D02*
X3451309Y8687918D01*
X3400526Y8738701D02*
X3417453Y8730238D01*
X3434381Y8713310D01*
Y8696382D01*
X3425917Y8687918D01*
X3408989D01*
X3400526Y8696382D01*
Y8704846D01*
X3408989Y8713310D01*
X3434381D01*
X4191575Y9546751D02*
X4225430D01*
Y9521360D01*
X4208502D01*
X4225430D01*
Y9495968D01*
X4140791D02*
X4174647D01*
X4140791Y9529823D01*
Y9538288D01*
X4149255Y9546751D01*
X4166183D01*
X4174647Y9538288D01*
X4055019Y9270479D02*
Y9219696D01*
X4029627D01*
X4021163Y9228160D01*
Y9262015D01*
X4029627Y9270479D01*
X4055019D01*
X4004235Y9262015D02*
X3995771Y9270479D01*
X3978843D01*
X3970380Y9262015D01*
Y9253551D01*
X3978843Y9245087D01*
X3970380Y9236623D01*
Y9228160D01*
X3978843Y9219696D01*
X3995771D01*
X4004235Y9228160D01*
Y9236623D01*
X3995771Y9245087D01*
X4004235Y9253551D01*
Y9262015D01*
X3995771Y9245087D02*
X3978843D01*
X4201887Y9194819D02*
X4151103D01*
Y9220210D01*
X4159567Y9228674D01*
X4193423D01*
X4201887Y9220210D01*
Y9194819D01*
Y9245602D02*
Y9279458D01*
X4193423D01*
X4159567Y9245602D01*
X4151103D01*
X4180777Y9078692D02*
Y9027909D01*
X4155385D01*
X4146921Y9036373D01*
Y9070228D01*
X4155385Y9078692D01*
X4180777D01*
X4096138D02*
X4113065Y9070228D01*
X4129993Y9053301D01*
Y9036373D01*
X4121529Y9027909D01*
X4104601D01*
X4096138Y9036373D01*
Y9044837D01*
X4104601Y9053301D01*
X4129993D01*
X4035371Y8589049D02*
X4043835Y8597513D01*
X4060763D01*
X4069227Y8589049D01*
Y8555194D01*
X4060763Y8546730D01*
X4043835D01*
X4035371Y8555194D01*
X4018443Y8597513D02*
X3984587D01*
Y8589049D01*
X4018443Y8555194D01*
Y8546730D01*
X3817150Y8779180D02*
X3825614Y8787643D01*
X3842542D01*
X3851006Y8779180D01*
Y8745324D01*
X3842542Y8736860D01*
X3825614D01*
X3817150Y8745324D01*
X3766367Y8787643D02*
X3783295Y8779180D01*
X3800223Y8762252D01*
Y8745324D01*
X3791758Y8736860D01*
X3774831D01*
X3766367Y8745324D01*
Y8753788D01*
X3774831Y8762252D01*
X3800223D01*
X6095936Y8395979D02*
Y8446762D01*
X6070544D01*
X6062081Y8438299D01*
Y8421371D01*
X6070544Y8412907D01*
X6095936D01*
X6079008D02*
X6062081Y8395979D01*
X6045153D02*
X6028225D01*
X6036689D01*
Y8446762D01*
X6045153Y8438299D01*
X5525860Y9130233D02*
X5475076D01*
Y9155625D01*
X5483540Y9164088D01*
X5517396D01*
X5525860Y9155625D01*
Y9130233D01*
X5475076Y9181016D02*
Y9197944D01*
Y9189480D01*
X5525860D01*
X5517396Y9181016D01*
X6948591Y8342668D02*
Y8393452D01*
X6923200D01*
X6914736Y8384988D01*
Y8368060D01*
X6923200Y8359596D01*
X6948591D01*
X6863952Y8384988D02*
X6872416Y8393452D01*
X6889344D01*
X6897808Y8384988D01*
Y8351132D01*
X6889344Y8342668D01*
X6872416D01*
X6863952Y8351132D01*
Y8368060D01*
X6880880D01*
X6847024Y8342668D02*
Y8393452D01*
X6830097Y8376524D01*
X6813169Y8393452D01*
Y8342668D01*
X6901325Y8650302D02*
X6909788Y8658766D01*
X6926716D01*
X6935180Y8650302D01*
Y8616446D01*
X6926716Y8607982D01*
X6909788D01*
X6901325Y8616446D01*
Y8633374D01*
X6918252D01*
X6884397Y8607982D02*
Y8658766D01*
X6850541Y8607982D01*
Y8658766D01*
X6833613D02*
Y8607982D01*
X6808221D01*
X6799758Y8616446D01*
Y8650302D01*
X6808221Y8658766D01*
X6833613D01*
X6942625Y8139051D02*
X6934161Y8147515D01*
X6917234D01*
X6908770Y8139051D01*
Y8130587D01*
X6917234Y8122123D01*
X6925698D01*
X6917234D01*
X6908770Y8113659D01*
Y8105195D01*
X6917234Y8096731D01*
X6934161D01*
X6942625Y8105195D01*
X6891842Y8147515D02*
Y8113659D01*
X6874914Y8096731D01*
X6857986Y8113659D01*
Y8147515D01*
X6841058Y8139051D02*
X6832594Y8147515D01*
X6815667D01*
X6807203Y8139051D01*
Y8130587D01*
X6815667Y8122123D01*
X6824131D01*
X6815667D01*
X6807203Y8113659D01*
Y8105195D01*
X6815667Y8096731D01*
X6832594D01*
X6841058Y8105195D01*
X6992371Y9567172D02*
Y9524853D01*
X6983907Y9516389D01*
X6966979D01*
X6958516Y9524853D01*
Y9567172D01*
X6907732Y9558708D02*
X6916196Y9567172D01*
X6933124D01*
X6941588Y9558708D01*
Y9550244D01*
X6933124Y9541781D01*
X6916196D01*
X6907732Y9533316D01*
Y9524853D01*
X6916196Y9516389D01*
X6933124D01*
X6941588Y9524853D01*
X6890804Y9567172D02*
Y9516389D01*
X6865412D01*
X6856949Y9524853D01*
Y9533316D01*
X6865412Y9541781D01*
X6890804D01*
X6865412D01*
X6856949Y9550244D01*
Y9558708D01*
X6865412Y9567172D01*
X6890804D01*
X6542360Y8241309D02*
Y8292092D01*
X6516968D01*
X6508504Y8283628D01*
Y8266701D01*
X6516968Y8258236D01*
X6542360D01*
X6525432D02*
X6508504Y8241309D01*
X6491576D02*
X6474648D01*
X6483112D01*
Y8292092D01*
X6491576Y8283628D01*
X6449256D02*
X6440792Y8292092D01*
X6423864D01*
X6415401Y8283628D01*
Y8249773D01*
X6423864Y8241309D01*
X6440792D01*
X6449256Y8249773D01*
Y8283628D01*
X6089299Y9234749D02*
Y9285532D01*
X6063907D01*
X6055444Y9277068D01*
Y9260140D01*
X6063907Y9251676D01*
X6089299D01*
X6072371D02*
X6055444Y9234749D01*
X6038516Y9277068D02*
X6030052Y9285532D01*
X6013124D01*
X6004660Y9277068D01*
Y9268604D01*
X6013124Y9260140D01*
X6004660Y9251676D01*
Y9243213D01*
X6013124Y9234749D01*
X6030052D01*
X6038516Y9243213D01*
Y9251676D01*
X6030052Y9260140D01*
X6038516Y9268604D01*
Y9277068D01*
X6030052Y9260140D02*
X6013124D01*
X5599506Y9288816D02*
Y9339600D01*
X5574114D01*
X5565650Y9331136D01*
Y9314208D01*
X5574114Y9305744D01*
X5599506D01*
X5582578D02*
X5565650Y9288816D01*
X5548722Y9339600D02*
X5514867D01*
Y9331136D01*
X5548722Y9297280D01*
Y9288816D01*
X5725165Y8687918D02*
Y8738701D01*
X5699773D01*
X5691309Y8730238D01*
Y8713310D01*
X5699773Y8704846D01*
X5725165D01*
X5708237D02*
X5691309Y8687918D01*
X5640526Y8738701D02*
X5657454Y8730238D01*
X5674381Y8713310D01*
Y8696382D01*
X5665917Y8687918D01*
X5648989D01*
X5640526Y8696382D01*
Y8704846D01*
X5648989Y8713310D01*
X5674381D01*
X6431575Y9546751D02*
X6465430D01*
Y9521360D01*
X6448502D01*
X6465430D01*
Y9495968D01*
X6380791D02*
X6414647D01*
X6380791Y9529823D01*
Y9538288D01*
X6389255Y9546751D01*
X6406183D01*
X6414647Y9538288D01*
X6295019Y9270479D02*
Y9219696D01*
X6269627D01*
X6261163Y9228160D01*
Y9262015D01*
X6269627Y9270479D01*
X6295019D01*
X6244235Y9262015D02*
X6235771Y9270479D01*
X6218844D01*
X6210380Y9262015D01*
Y9253551D01*
X6218844Y9245087D01*
X6210380Y9236623D01*
Y9228160D01*
X6218844Y9219696D01*
X6235771D01*
X6244235Y9228160D01*
Y9236623D01*
X6235771Y9245087D01*
X6244235Y9253551D01*
Y9262015D01*
X6235771Y9245087D02*
X6218844D01*
X6441887Y9194819D02*
X6391103D01*
Y9220210D01*
X6399567Y9228674D01*
X6433423D01*
X6441887Y9220210D01*
Y9194819D01*
Y9245602D02*
Y9279458D01*
X6433423D01*
X6399567Y9245602D01*
X6391103D01*
X6420777Y9078692D02*
Y9027909D01*
X6395385D01*
X6386921Y9036373D01*
Y9070228D01*
X6395385Y9078692D01*
X6420777D01*
X6336138D02*
X6353066Y9070228D01*
X6369993Y9053301D01*
Y9036373D01*
X6361529Y9027909D01*
X6344601D01*
X6336138Y9036373D01*
Y9044837D01*
X6344601Y9053301D01*
X6369993D01*
X6275371Y8589049D02*
X6283835Y8597513D01*
X6300763D01*
X6309227Y8589049D01*
Y8555194D01*
X6300763Y8546730D01*
X6283835D01*
X6275371Y8555194D01*
X6258443Y8597513D02*
X6224587D01*
Y8589049D01*
X6258443Y8555194D01*
Y8546730D01*
X6057150Y8779180D02*
X6065614Y8787643D01*
X6082542D01*
X6091006Y8779180D01*
Y8745324D01*
X6082542Y8736860D01*
X6065614D01*
X6057150Y8745324D01*
X6006367Y8787643D02*
X6023295Y8779180D01*
X6040223Y8762252D01*
Y8745324D01*
X6031759Y8736860D01*
X6014831D01*
X6006367Y8745324D01*
Y8753788D01*
X6014831Y8762252D01*
X6040223D01*
X8335936Y8395979D02*
Y8446762D01*
X8310544D01*
X8302081Y8438299D01*
Y8421371D01*
X8310544Y8412907D01*
X8335936D01*
X8319009D02*
X8302081Y8395979D01*
X8285153D02*
X8268225D01*
X8276689D01*
Y8446762D01*
X8285153Y8438299D01*
X7765860Y9130233D02*
X7715077D01*
Y9155625D01*
X7723541Y9164088D01*
X7757396D01*
X7765860Y9155625D01*
Y9130233D01*
X7715077Y9181016D02*
Y9197944D01*
Y9189480D01*
X7765860D01*
X7757396Y9181016D01*
X9188591Y8342668D02*
Y8393452D01*
X9163200D01*
X9154736Y8384988D01*
Y8368060D01*
X9163200Y8359596D01*
X9188591D01*
X9103952Y8384988D02*
X9112416Y8393452D01*
X9129344D01*
X9137808Y8384988D01*
Y8351132D01*
X9129344Y8342668D01*
X9112416D01*
X9103952Y8351132D01*
Y8368060D01*
X9120880D01*
X9087024Y8342668D02*
Y8393452D01*
X9070097Y8376524D01*
X9053169Y8393452D01*
Y8342668D01*
X9141325Y8650302D02*
X9149788Y8658766D01*
X9166716D01*
X9175180Y8650302D01*
Y8616446D01*
X9166716Y8607982D01*
X9149788D01*
X9141325Y8616446D01*
Y8633374D01*
X9158252D01*
X9124397Y8607982D02*
Y8658766D01*
X9090541Y8607982D01*
Y8658766D01*
X9073613D02*
Y8607982D01*
X9048221D01*
X9039758Y8616446D01*
Y8650302D01*
X9048221Y8658766D01*
X9073613D01*
X9182626Y8139051D02*
X9174161Y8147515D01*
X9157234D01*
X9148770Y8139051D01*
Y8130587D01*
X9157234Y8122123D01*
X9165698D01*
X9157234D01*
X9148770Y8113659D01*
Y8105195D01*
X9157234Y8096731D01*
X9174161D01*
X9182626Y8105195D01*
X9131842Y8147515D02*
Y8113659D01*
X9114914Y8096731D01*
X9097986Y8113659D01*
Y8147515D01*
X9081059Y8139051D02*
X9072595Y8147515D01*
X9055667D01*
X9047203Y8139051D01*
Y8130587D01*
X9055667Y8122123D01*
X9064131D01*
X9055667D01*
X9047203Y8113659D01*
Y8105195D01*
X9055667Y8096731D01*
X9072595D01*
X9081059Y8105195D01*
X9232371Y9567172D02*
Y9524853D01*
X9223907Y9516389D01*
X9206980D01*
X9198516Y9524853D01*
Y9567172D01*
X9147732Y9558708D02*
X9156196Y9567172D01*
X9173124D01*
X9181588Y9558708D01*
Y9550244D01*
X9173124Y9541781D01*
X9156196D01*
X9147732Y9533316D01*
Y9524853D01*
X9156196Y9516389D01*
X9173124D01*
X9181588Y9524853D01*
X9130804Y9567172D02*
Y9516389D01*
X9105413D01*
X9096949Y9524853D01*
Y9533316D01*
X9105413Y9541781D01*
X9130804D01*
X9105413D01*
X9096949Y9550244D01*
Y9558708D01*
X9105413Y9567172D01*
X9130804D01*
X8782360Y8241309D02*
Y8292092D01*
X8756968D01*
X8748504Y8283628D01*
Y8266701D01*
X8756968Y8258236D01*
X8782360D01*
X8765432D02*
X8748504Y8241309D01*
X8731576D02*
X8714648D01*
X8723112D01*
Y8292092D01*
X8731576Y8283628D01*
X8689256D02*
X8680792Y8292092D01*
X8663865D01*
X8655401Y8283628D01*
Y8249773D01*
X8663865Y8241309D01*
X8680792D01*
X8689256Y8249773D01*
Y8283628D01*
X8329299Y9234749D02*
Y9285532D01*
X8303907D01*
X8295444Y9277068D01*
Y9260140D01*
X8303907Y9251676D01*
X8329299D01*
X8312371D02*
X8295444Y9234749D01*
X8278516Y9277068D02*
X8270052Y9285532D01*
X8253124D01*
X8244660Y9277068D01*
Y9268604D01*
X8253124Y9260140D01*
X8244660Y9251676D01*
Y9243213D01*
X8253124Y9234749D01*
X8270052D01*
X8278516Y9243213D01*
Y9251676D01*
X8270052Y9260140D01*
X8278516Y9268604D01*
Y9277068D01*
X8270052Y9260140D02*
X8253124D01*
X7839506Y9288816D02*
Y9339600D01*
X7814114D01*
X7805650Y9331136D01*
Y9314208D01*
X7814114Y9305744D01*
X7839506D01*
X7822578D02*
X7805650Y9288816D01*
X7788723Y9339600D02*
X7754867D01*
Y9331136D01*
X7788723Y9297280D01*
Y9288816D01*
X7965165Y8687918D02*
Y8738701D01*
X7939773D01*
X7931309Y8730238D01*
Y8713310D01*
X7939773Y8704846D01*
X7965165D01*
X7948237D02*
X7931309Y8687918D01*
X7880526Y8738701D02*
X7897454Y8730238D01*
X7914381Y8713310D01*
Y8696382D01*
X7905917Y8687918D01*
X7888990D01*
X7880526Y8696382D01*
Y8704846D01*
X7888990Y8713310D01*
X7914381D01*
X8671575Y9546751D02*
X8705430D01*
Y9521360D01*
X8688503D01*
X8705430D01*
Y9495968D01*
X8620791D02*
X8654647D01*
X8620791Y9529823D01*
Y9538288D01*
X8629255Y9546751D01*
X8646183D01*
X8654647Y9538288D01*
X8535019Y9270479D02*
Y9219696D01*
X8509627D01*
X8501163Y9228160D01*
Y9262015D01*
X8509627Y9270479D01*
X8535019D01*
X8484236Y9262015D02*
X8475771Y9270479D01*
X8458844D01*
X8450380Y9262015D01*
Y9253551D01*
X8458844Y9245087D01*
X8450380Y9236623D01*
Y9228160D01*
X8458844Y9219696D01*
X8475771D01*
X8484236Y9228160D01*
Y9236623D01*
X8475771Y9245087D01*
X8484236Y9253551D01*
Y9262015D01*
X8475771Y9245087D02*
X8458844D01*
X8681887Y9194819D02*
X8631103D01*
Y9220210D01*
X8639567Y9228674D01*
X8673423D01*
X8681887Y9220210D01*
Y9194819D01*
Y9245602D02*
Y9279458D01*
X8673423D01*
X8639567Y9245602D01*
X8631103D01*
X8660777Y9078692D02*
Y9027909D01*
X8635385D01*
X8626921Y9036373D01*
Y9070228D01*
X8635385Y9078692D01*
X8660777D01*
X8576138D02*
X8593066Y9070228D01*
X8609993Y9053301D01*
Y9036373D01*
X8601529Y9027909D01*
X8584602D01*
X8576138Y9036373D01*
Y9044837D01*
X8584602Y9053301D01*
X8609993D01*
X8515371Y8589049D02*
X8523835Y8597513D01*
X8540763D01*
X8549227Y8589049D01*
Y8555194D01*
X8540763Y8546730D01*
X8523835D01*
X8515371Y8555194D01*
X8498443Y8597513D02*
X8464588D01*
Y8589049D01*
X8498443Y8555194D01*
Y8546730D01*
X8297151Y8779180D02*
X8305614Y8787643D01*
X8322542D01*
X8331006Y8779180D01*
Y8745324D01*
X8322542Y8736860D01*
X8305614D01*
X8297151Y8745324D01*
X8246367Y8787643D02*
X8263295Y8779180D01*
X8280223Y8762252D01*
Y8745324D01*
X8271759Y8736860D01*
X8254831D01*
X8246367Y8745324D01*
Y8753788D01*
X8254831Y8762252D01*
X8280223D01*
%TF.MD5,5412ae06d09ccf13d2271aa0a27e4560*%
M02*
