%TF.GenerationSoftware,Altium Limited,Altium Designer,20.1.8 (145)*%
G04 Layer_Color=16711935*
%FSLAX45Y45*%
%MOMM*%
%TF.SameCoordinates,31433496-A159-4958-A2C2-D52C18178038*%
%TF.FilePolarity,Negative*%
%TF.FileFunction,Soldermask,Bot*%
%TF.Part,CustomerPanel*%
G01*
G75*
%TA.AperFunction,SMDPad,CuDef*%
%ADD36C,1.20320*%
%ADD37O,1.35000X0.40000*%
G04:AMPARAMS|DCode=38|XSize=1.7mm|YSize=1.7mm|CornerRadius=0.058mm|HoleSize=0mm|Usage=FLASHONLY|Rotation=270.000|XOffset=0mm|YOffset=0mm|HoleType=Round|Shape=RoundedRectangle|*
%AMROUNDEDRECTD38*
21,1,1.70000,1.58400,0,0,270.0*
21,1,1.58400,1.70000,0,0,270.0*
1,1,0.11600,-0.79200,-0.79200*
1,1,0.11600,-0.79200,0.79200*
1,1,0.11600,0.79200,0.79200*
1,1,0.11600,0.79200,-0.79200*
%
%ADD38ROUNDEDRECTD38*%
%TA.AperFunction,ConnectorPad*%
G04:AMPARAMS|DCode=39|XSize=0.45mm|YSize=2.1mm|CornerRadius=0.225mm|HoleSize=0mm|Usage=FLASHONLY|Rotation=270.000|XOffset=0mm|YOffset=0mm|HoleType=Round|Shape=RoundedRectangle|*
%AMROUNDEDRECTD39*
21,1,0.45000,1.65000,0,0,270.0*
21,1,0.00000,2.10000,0,0,270.0*
1,1,0.45000,-0.82500,0.00000*
1,1,0.45000,-0.82500,0.00000*
1,1,0.45000,0.82500,0.00000*
1,1,0.45000,0.82500,0.00000*
%
%ADD39ROUNDEDRECTD39*%
%TA.AperFunction,SMDPad,CuDef*%
G04:AMPARAMS|DCode=40|XSize=0.9mm|YSize=0.8mm|CornerRadius=0.0535mm|HoleSize=0mm|Usage=FLASHONLY|Rotation=0.000|XOffset=0mm|YOffset=0mm|HoleType=Round|Shape=RoundedRectangle|*
%AMROUNDEDRECTD40*
21,1,0.90000,0.69300,0,0,0.0*
21,1,0.79300,0.80000,0,0,0.0*
1,1,0.10700,0.39650,-0.34650*
1,1,0.10700,-0.39650,-0.34650*
1,1,0.10700,-0.39650,0.34650*
1,1,0.10700,0.39650,0.34650*
%
%ADD40ROUNDEDRECTD40*%
G04:AMPARAMS|DCode=41|XSize=0.95mm|YSize=0.85mm|CornerRadius=0.05375mm|HoleSize=0mm|Usage=FLASHONLY|Rotation=270.000|XOffset=0mm|YOffset=0mm|HoleType=Round|Shape=RoundedRectangle|*
%AMROUNDEDRECTD41*
21,1,0.95000,0.74250,0,0,270.0*
21,1,0.84250,0.85000,0,0,270.0*
1,1,0.10750,-0.37125,-0.42125*
1,1,0.10750,-0.37125,0.42125*
1,1,0.10750,0.37125,0.42125*
1,1,0.10750,0.37125,-0.42125*
%
%ADD41ROUNDEDRECTD41*%
G04:AMPARAMS|DCode=42|XSize=0.95mm|YSize=0.85mm|CornerRadius=0.05375mm|HoleSize=0mm|Usage=FLASHONLY|Rotation=0.000|XOffset=0mm|YOffset=0mm|HoleType=Round|Shape=RoundedRectangle|*
%AMROUNDEDRECTD42*
21,1,0.95000,0.74250,0,0,0.0*
21,1,0.84250,0.85000,0,0,0.0*
1,1,0.10750,0.42125,-0.37125*
1,1,0.10750,-0.42125,-0.37125*
1,1,0.10750,-0.42125,0.37125*
1,1,0.10750,0.42125,0.37125*
%
%ADD42ROUNDEDRECTD42*%
G04:AMPARAMS|DCode=43|XSize=0.9mm|YSize=0.8mm|CornerRadius=0.0535mm|HoleSize=0mm|Usage=FLASHONLY|Rotation=90.000|XOffset=0mm|YOffset=0mm|HoleType=Round|Shape=RoundedRectangle|*
%AMROUNDEDRECTD43*
21,1,0.90000,0.69300,0,0,90.0*
21,1,0.79300,0.80000,0,0,90.0*
1,1,0.10700,0.34650,0.39650*
1,1,0.10700,0.34650,-0.39650*
1,1,0.10700,-0.34650,-0.39650*
1,1,0.10700,-0.34650,0.39650*
%
%ADD43ROUNDEDRECTD43*%
G04:AMPARAMS|DCode=44|XSize=0.5mm|YSize=0.5mm|CornerRadius=0.052mm|HoleSize=0mm|Usage=FLASHONLY|Rotation=180.000|XOffset=0mm|YOffset=0mm|HoleType=Round|Shape=RoundedRectangle|*
%AMROUNDEDRECTD44*
21,1,0.50000,0.39600,0,0,180.0*
21,1,0.39600,0.50000,0,0,180.0*
1,1,0.10400,-0.19800,0.19800*
1,1,0.10400,0.19800,0.19800*
1,1,0.10400,0.19800,-0.19800*
1,1,0.10400,-0.19800,-0.19800*
%
%ADD44ROUNDEDRECTD44*%
G04:AMPARAMS|DCode=45|XSize=1mm|YSize=1mm|CornerRadius=0.095mm|HoleSize=0mm|Usage=FLASHONLY|Rotation=180.000|XOffset=0mm|YOffset=0mm|HoleType=Round|Shape=RoundedRectangle|*
%AMROUNDEDRECTD45*
21,1,1.00000,0.81000,0,0,180.0*
21,1,0.81000,1.00000,0,0,180.0*
1,1,0.19000,-0.40500,0.40500*
1,1,0.19000,0.40500,0.40500*
1,1,0.19000,0.40500,-0.40500*
1,1,0.19000,-0.40500,-0.40500*
%
%ADD45ROUNDEDRECTD45*%
%TA.AperFunction,WasherPad*%
%ADD46C,0.29600*%
%TA.AperFunction,ComponentPad*%
%ADD47C,0.50000*%
%ADD48O,1.90000X1.60000*%
G04:AMPARAMS|DCode=49|XSize=1.2mm|YSize=1.2mm|CornerRadius=0.6mm|HoleSize=0mm|Usage=FLASHONLY|Rotation=90.000|XOffset=0mm|YOffset=0mm|HoleType=Round|Shape=RoundedRectangle|*
%AMROUNDEDRECTD49*
21,1,1.20000,0.00000,0,0,90.0*
21,1,0.00000,1.20000,0,0,90.0*
1,1,1.20000,0.00000,0.00000*
1,1,1.20000,0.00000,0.00000*
1,1,1.20000,0.00000,0.00000*
1,1,1.20000,0.00000,0.00000*
%
%ADD49ROUNDEDRECTD49*%
%ADD50O,1.80000X1.10000*%
%ADD51O,2.10000X3.35000*%
G04:AMPARAMS|DCode=52|XSize=2.1mm|YSize=3.35mm|CornerRadius=1.05mm|HoleSize=0mm|Usage=FLASHONLY|Rotation=180.000|XOffset=0mm|YOffset=0mm|HoleType=Round|Shape=RoundedRectangle|*
%AMROUNDEDRECTD52*
21,1,2.10000,1.25000,0,0,180.0*
21,1,0.00000,3.35000,0,0,180.0*
1,1,2.10000,0.00000,0.62500*
1,1,2.10000,0.00000,0.62500*
1,1,2.10000,0.00000,-0.62500*
1,1,2.10000,0.00000,-0.62500*
%
%ADD52ROUNDEDRECTD52*%
D36*
X9500000Y8500000D02*
D03*
X500000D02*
D03*
X9500000Y1500000D02*
D03*
X500000D02*
D03*
D37*
X1627140Y1453300D02*
D03*
Y1403300D02*
D03*
Y1353300D02*
D03*
Y1303300D02*
D03*
Y1253300D02*
D03*
X1202140Y1453300D02*
D03*
Y1403300D02*
D03*
Y1353300D02*
D03*
Y1303300D02*
D03*
Y1253300D02*
D03*
X3867140Y1453300D02*
D03*
Y1403300D02*
D03*
Y1353300D02*
D03*
Y1303300D02*
D03*
Y1253300D02*
D03*
X3442140Y1453300D02*
D03*
Y1403300D02*
D03*
Y1353300D02*
D03*
Y1303300D02*
D03*
Y1253300D02*
D03*
X6107140Y1453300D02*
D03*
Y1403300D02*
D03*
Y1353300D02*
D03*
Y1303300D02*
D03*
Y1253300D02*
D03*
X5682141Y1453300D02*
D03*
Y1403300D02*
D03*
Y1353300D02*
D03*
Y1303300D02*
D03*
Y1253300D02*
D03*
X8347141Y1453300D02*
D03*
Y1403300D02*
D03*
Y1353300D02*
D03*
Y1303300D02*
D03*
Y1253300D02*
D03*
X7922141Y1453300D02*
D03*
Y1403300D02*
D03*
Y1353300D02*
D03*
Y1303300D02*
D03*
Y1253300D02*
D03*
X1627140Y3353300D02*
D03*
Y3303300D02*
D03*
Y3253300D02*
D03*
Y3203300D02*
D03*
Y3153300D02*
D03*
X1202140Y3353300D02*
D03*
Y3303300D02*
D03*
Y3253300D02*
D03*
Y3203300D02*
D03*
Y3153300D02*
D03*
X3867140Y3353300D02*
D03*
Y3303300D02*
D03*
Y3253300D02*
D03*
Y3203300D02*
D03*
Y3153300D02*
D03*
X3442140Y3353300D02*
D03*
Y3303300D02*
D03*
Y3253300D02*
D03*
Y3203300D02*
D03*
Y3153300D02*
D03*
X6107140Y3353300D02*
D03*
Y3303300D02*
D03*
Y3253300D02*
D03*
Y3203300D02*
D03*
Y3153300D02*
D03*
X5682141Y3353300D02*
D03*
Y3303300D02*
D03*
Y3253300D02*
D03*
Y3203300D02*
D03*
Y3153300D02*
D03*
X8347141Y3353300D02*
D03*
Y3303300D02*
D03*
Y3253300D02*
D03*
Y3203300D02*
D03*
Y3153300D02*
D03*
X7922141Y3353300D02*
D03*
Y3303300D02*
D03*
Y3253300D02*
D03*
Y3203300D02*
D03*
Y3153300D02*
D03*
X1627140Y5253300D02*
D03*
Y5203300D02*
D03*
Y5153300D02*
D03*
Y5103300D02*
D03*
Y5053300D02*
D03*
X1202140Y5253300D02*
D03*
Y5203300D02*
D03*
Y5153300D02*
D03*
Y5103300D02*
D03*
Y5053300D02*
D03*
X3867140Y5253300D02*
D03*
Y5203300D02*
D03*
Y5153300D02*
D03*
Y5103300D02*
D03*
Y5053300D02*
D03*
X3442140Y5253300D02*
D03*
Y5203300D02*
D03*
Y5153300D02*
D03*
Y5103300D02*
D03*
Y5053300D02*
D03*
X6107140Y5253300D02*
D03*
Y5203300D02*
D03*
Y5153300D02*
D03*
Y5103300D02*
D03*
Y5053300D02*
D03*
X5682141Y5253300D02*
D03*
Y5203300D02*
D03*
Y5153300D02*
D03*
Y5103300D02*
D03*
Y5053300D02*
D03*
X8347141Y5253300D02*
D03*
Y5203300D02*
D03*
Y5153300D02*
D03*
Y5103300D02*
D03*
Y5053300D02*
D03*
X7922141Y5253300D02*
D03*
Y5203300D02*
D03*
Y5153300D02*
D03*
Y5103300D02*
D03*
Y5053300D02*
D03*
X1627140Y7153300D02*
D03*
Y7103300D02*
D03*
Y7053300D02*
D03*
Y7003300D02*
D03*
Y6953300D02*
D03*
X1202140Y7153300D02*
D03*
Y7103300D02*
D03*
Y7053300D02*
D03*
Y7003300D02*
D03*
Y6953300D02*
D03*
X3867140Y7153300D02*
D03*
Y7103300D02*
D03*
Y7053300D02*
D03*
Y7003300D02*
D03*
Y6953300D02*
D03*
X3442140Y7153300D02*
D03*
Y7103300D02*
D03*
Y7053300D02*
D03*
Y7003300D02*
D03*
Y6953300D02*
D03*
X6107140Y7153300D02*
D03*
Y7103300D02*
D03*
Y7053300D02*
D03*
Y7003300D02*
D03*
Y6953300D02*
D03*
X5682141Y7153300D02*
D03*
Y7103300D02*
D03*
Y7053300D02*
D03*
Y7003300D02*
D03*
Y6953300D02*
D03*
X8347141Y7153300D02*
D03*
Y7103300D02*
D03*
Y7053300D02*
D03*
Y7003300D02*
D03*
Y6953300D02*
D03*
X7922141Y7153300D02*
D03*
Y7103300D02*
D03*
Y7053300D02*
D03*
Y7003300D02*
D03*
Y6953300D02*
D03*
X1627140Y9053300D02*
D03*
Y9003300D02*
D03*
Y8953300D02*
D03*
Y8903300D02*
D03*
Y8853300D02*
D03*
X1202140Y9053300D02*
D03*
Y9003300D02*
D03*
Y8953300D02*
D03*
Y8903300D02*
D03*
Y8853300D02*
D03*
X3867140Y9053300D02*
D03*
Y9003300D02*
D03*
Y8953300D02*
D03*
Y8903300D02*
D03*
Y8853300D02*
D03*
X3442140Y9053300D02*
D03*
Y9003300D02*
D03*
Y8953300D02*
D03*
Y8903300D02*
D03*
Y8853300D02*
D03*
X6107140Y9053300D02*
D03*
Y9003300D02*
D03*
Y8953300D02*
D03*
Y8903300D02*
D03*
Y8853300D02*
D03*
X5682141Y9053300D02*
D03*
Y9003300D02*
D03*
Y8953300D02*
D03*
Y8903300D02*
D03*
Y8853300D02*
D03*
X8347141Y9053300D02*
D03*
Y9003300D02*
D03*
Y8953300D02*
D03*
Y8903300D02*
D03*
Y8853300D02*
D03*
X7922141Y9053300D02*
D03*
Y9003300D02*
D03*
Y8953300D02*
D03*
Y8903300D02*
D03*
Y8853300D02*
D03*
D38*
X2193480Y1192000D02*
D03*
Y1872000D02*
D03*
X4433480Y1192000D02*
D03*
Y1872000D02*
D03*
X6673480Y1192000D02*
D03*
Y1872000D02*
D03*
X8913480Y1192000D02*
D03*
Y1872000D02*
D03*
X2193480Y3092000D02*
D03*
Y3772000D02*
D03*
X4433480Y3092000D02*
D03*
Y3772000D02*
D03*
X6673480Y3092000D02*
D03*
Y3772000D02*
D03*
X8913480Y3092000D02*
D03*
Y3772000D02*
D03*
X2193480Y4992000D02*
D03*
Y5672000D02*
D03*
X4433480Y4992000D02*
D03*
Y5672000D02*
D03*
X6673480Y4992000D02*
D03*
Y5672000D02*
D03*
X8913480Y4992000D02*
D03*
Y5672000D02*
D03*
X2193480Y6892000D02*
D03*
Y7572000D02*
D03*
X4433480Y6892000D02*
D03*
Y7572000D02*
D03*
X6673480Y6892000D02*
D03*
Y7572000D02*
D03*
X8913480Y6892000D02*
D03*
Y7572000D02*
D03*
X2193480Y8792000D02*
D03*
Y9472000D02*
D03*
X4433480Y8792000D02*
D03*
Y9472000D02*
D03*
X6673480Y8792000D02*
D03*
Y9472000D02*
D03*
X8913480Y8792000D02*
D03*
Y9472000D02*
D03*
D39*
X2185980Y1402000D02*
D03*
Y1467000D02*
D03*
Y1532000D02*
D03*
Y1662000D02*
D03*
Y1597000D02*
D03*
X4425980Y1402000D02*
D03*
Y1467000D02*
D03*
Y1532000D02*
D03*
Y1662000D02*
D03*
Y1597000D02*
D03*
X6665980Y1402000D02*
D03*
Y1467000D02*
D03*
Y1532000D02*
D03*
Y1662000D02*
D03*
Y1597000D02*
D03*
X8905980Y1402000D02*
D03*
Y1467000D02*
D03*
Y1532000D02*
D03*
Y1662000D02*
D03*
Y1597000D02*
D03*
X2185980Y3302000D02*
D03*
Y3367000D02*
D03*
Y3432000D02*
D03*
Y3562000D02*
D03*
Y3497000D02*
D03*
X4425980Y3302000D02*
D03*
Y3367000D02*
D03*
Y3432000D02*
D03*
Y3562000D02*
D03*
Y3497000D02*
D03*
X6665980Y3302000D02*
D03*
Y3367000D02*
D03*
Y3432000D02*
D03*
Y3562000D02*
D03*
Y3497000D02*
D03*
X8905980Y3302000D02*
D03*
Y3367000D02*
D03*
Y3432000D02*
D03*
Y3562000D02*
D03*
Y3497000D02*
D03*
X2185980Y5202000D02*
D03*
Y5267000D02*
D03*
Y5332000D02*
D03*
Y5462000D02*
D03*
Y5397000D02*
D03*
X4425980Y5202000D02*
D03*
Y5267000D02*
D03*
Y5332000D02*
D03*
Y5462000D02*
D03*
Y5397000D02*
D03*
X6665980Y5202000D02*
D03*
Y5267000D02*
D03*
Y5332000D02*
D03*
Y5462000D02*
D03*
Y5397000D02*
D03*
X8905980Y5202000D02*
D03*
Y5267000D02*
D03*
Y5332000D02*
D03*
Y5462000D02*
D03*
Y5397000D02*
D03*
X2185980Y7102000D02*
D03*
Y7167000D02*
D03*
Y7232000D02*
D03*
Y7362000D02*
D03*
Y7297000D02*
D03*
X4425980Y7102000D02*
D03*
Y7167000D02*
D03*
Y7232000D02*
D03*
Y7362000D02*
D03*
Y7297000D02*
D03*
X6665980Y7102000D02*
D03*
Y7167000D02*
D03*
Y7232000D02*
D03*
Y7362000D02*
D03*
Y7297000D02*
D03*
X8905980Y7102000D02*
D03*
Y7167000D02*
D03*
Y7232000D02*
D03*
Y7362000D02*
D03*
Y7297000D02*
D03*
X2185980Y9002000D02*
D03*
Y9067000D02*
D03*
Y9132000D02*
D03*
Y9262000D02*
D03*
Y9197000D02*
D03*
X4425980Y9002000D02*
D03*
Y9067000D02*
D03*
Y9132000D02*
D03*
Y9262000D02*
D03*
Y9197000D02*
D03*
X6665980Y9002000D02*
D03*
Y9067000D02*
D03*
Y9132000D02*
D03*
Y9262000D02*
D03*
Y9197000D02*
D03*
X8905980Y9002000D02*
D03*
Y9067000D02*
D03*
Y9132000D02*
D03*
Y9262000D02*
D03*
Y9197000D02*
D03*
D40*
X913780Y1648165D02*
D03*
Y1483165D02*
D03*
X1202140Y1011776D02*
D03*
Y861776D02*
D03*
X1197800Y1792125D02*
D03*
Y1642125D02*
D03*
X3153780Y1648165D02*
D03*
Y1483165D02*
D03*
X3442140Y1011776D02*
D03*
Y861776D02*
D03*
X3437800Y1792125D02*
D03*
Y1642125D02*
D03*
X5393780Y1648165D02*
D03*
Y1483165D02*
D03*
X5682141Y1011776D02*
D03*
Y861776D02*
D03*
X5677800Y1792125D02*
D03*
Y1642125D02*
D03*
X7633780Y1648165D02*
D03*
Y1483165D02*
D03*
X7922141Y1011776D02*
D03*
Y861776D02*
D03*
X7917800Y1792125D02*
D03*
Y1642125D02*
D03*
X913780Y3548165D02*
D03*
Y3383165D02*
D03*
X1202140Y2911776D02*
D03*
Y2761776D02*
D03*
X1197800Y3692125D02*
D03*
Y3542125D02*
D03*
X3153780Y3548165D02*
D03*
Y3383165D02*
D03*
X3442140Y2911776D02*
D03*
Y2761776D02*
D03*
X3437800Y3692125D02*
D03*
Y3542125D02*
D03*
X5393780Y3548165D02*
D03*
Y3383165D02*
D03*
X5682141Y2911776D02*
D03*
Y2761776D02*
D03*
X5677800Y3692125D02*
D03*
Y3542125D02*
D03*
X7633780Y3548165D02*
D03*
Y3383165D02*
D03*
X7922141Y2911776D02*
D03*
Y2761776D02*
D03*
X7917800Y3692125D02*
D03*
Y3542125D02*
D03*
X913780Y5448165D02*
D03*
Y5283165D02*
D03*
X1202140Y4811776D02*
D03*
Y4661776D02*
D03*
X1197800Y5592125D02*
D03*
Y5442125D02*
D03*
X3153780Y5448165D02*
D03*
Y5283165D02*
D03*
X3442140Y4811776D02*
D03*
Y4661776D02*
D03*
X3437800Y5592125D02*
D03*
Y5442125D02*
D03*
X5393780Y5448165D02*
D03*
Y5283165D02*
D03*
X5682141Y4811776D02*
D03*
Y4661776D02*
D03*
X5677800Y5592125D02*
D03*
Y5442125D02*
D03*
X7633780Y5448165D02*
D03*
Y5283165D02*
D03*
X7922141Y4811776D02*
D03*
Y4661776D02*
D03*
X7917800Y5592125D02*
D03*
Y5442125D02*
D03*
X913780Y7348165D02*
D03*
Y7183165D02*
D03*
X1202140Y6711776D02*
D03*
Y6561776D02*
D03*
X1197800Y7492125D02*
D03*
Y7342125D02*
D03*
X3153780Y7348165D02*
D03*
Y7183165D02*
D03*
X3442140Y6711776D02*
D03*
Y6561776D02*
D03*
X3437800Y7492125D02*
D03*
Y7342125D02*
D03*
X5393780Y7348165D02*
D03*
Y7183165D02*
D03*
X5682141Y6711776D02*
D03*
Y6561776D02*
D03*
X5677800Y7492125D02*
D03*
Y7342125D02*
D03*
X7633780Y7348165D02*
D03*
Y7183165D02*
D03*
X7922141Y6711776D02*
D03*
Y6561776D02*
D03*
X7917800Y7492125D02*
D03*
Y7342125D02*
D03*
X913780Y9248165D02*
D03*
Y9083165D02*
D03*
X1202140Y8611776D02*
D03*
Y8461776D02*
D03*
X1197800Y9392125D02*
D03*
Y9242125D02*
D03*
X3153780Y9248165D02*
D03*
Y9083165D02*
D03*
X3442140Y8611776D02*
D03*
Y8461776D02*
D03*
X3437800Y9392125D02*
D03*
Y9242125D02*
D03*
X5393780Y9248165D02*
D03*
Y9083165D02*
D03*
X5682141Y8611776D02*
D03*
Y8461776D02*
D03*
X5677800Y9392125D02*
D03*
Y9242125D02*
D03*
X7633780Y9248165D02*
D03*
Y9083165D02*
D03*
X7922141Y8611776D02*
D03*
Y8461776D02*
D03*
X7917800Y9392125D02*
D03*
Y9242125D02*
D03*
D41*
X1647080Y1074127D02*
D03*
X1492080D02*
D03*
X3887080D02*
D03*
X3732080D02*
D03*
X6127080D02*
D03*
X5972081D02*
D03*
X8367081D02*
D03*
X8212081D02*
D03*
X1647080Y2974127D02*
D03*
X1492080D02*
D03*
X3887080D02*
D03*
X3732080D02*
D03*
X6127080D02*
D03*
X5972081D02*
D03*
X8367081D02*
D03*
X8212081D02*
D03*
X1647080Y4874127D02*
D03*
X1492080D02*
D03*
X3887080D02*
D03*
X3732080D02*
D03*
X6127080D02*
D03*
X5972081D02*
D03*
X8367081D02*
D03*
X8212081D02*
D03*
X1647080Y6774127D02*
D03*
X1492080D02*
D03*
X3887080D02*
D03*
X3732080D02*
D03*
X6127080D02*
D03*
X5972081D02*
D03*
X8367081D02*
D03*
X8212081D02*
D03*
X1647080Y8674127D02*
D03*
X1492080D02*
D03*
X3887080D02*
D03*
X3732080D02*
D03*
X6127080D02*
D03*
X5972081D02*
D03*
X8367081D02*
D03*
X8212081D02*
D03*
D42*
X1787639Y1100012D02*
D03*
Y1255011D02*
D03*
X4027639Y1100012D02*
D03*
Y1255011D02*
D03*
X6267639Y1100012D02*
D03*
Y1255011D02*
D03*
X8507639Y1100012D02*
D03*
Y1255011D02*
D03*
X1787639Y3000012D02*
D03*
Y3155011D02*
D03*
X4027639Y3000012D02*
D03*
Y3155011D02*
D03*
X6267639Y3000012D02*
D03*
Y3155011D02*
D03*
X8507639Y3000012D02*
D03*
Y3155011D02*
D03*
X1787639Y4900012D02*
D03*
Y5055011D02*
D03*
X4027639Y4900012D02*
D03*
Y5055011D02*
D03*
X6267639Y4900012D02*
D03*
Y5055011D02*
D03*
X8507639Y4900012D02*
D03*
Y5055011D02*
D03*
X1787639Y6800012D02*
D03*
Y6955011D02*
D03*
X4027639Y6800012D02*
D03*
Y6955011D02*
D03*
X6267639Y6800012D02*
D03*
Y6955011D02*
D03*
X8507639Y6800012D02*
D03*
Y6955011D02*
D03*
X1787639Y8700012D02*
D03*
Y8855011D02*
D03*
X4027639Y8700012D02*
D03*
Y8855011D02*
D03*
X6267639Y8700012D02*
D03*
Y8855011D02*
D03*
X8507639Y8700012D02*
D03*
Y8855011D02*
D03*
D43*
X1497460Y1767860D02*
D03*
X1647460D02*
D03*
X2063750Y781000D02*
D03*
X1913750D02*
D03*
X1497080Y936776D02*
D03*
X1647080D02*
D03*
X3737460Y1767860D02*
D03*
X3887460D02*
D03*
X4303750Y781000D02*
D03*
X4153750D02*
D03*
X3737080Y936776D02*
D03*
X3887080D02*
D03*
X5977460Y1767860D02*
D03*
X6127460D02*
D03*
X6543750Y781000D02*
D03*
X6393750D02*
D03*
X5977080Y936776D02*
D03*
X6127080D02*
D03*
X8217460Y1767860D02*
D03*
X8367460D02*
D03*
X8783750Y781000D02*
D03*
X8633750D02*
D03*
X8217080Y936776D02*
D03*
X8367081D02*
D03*
X1497460Y3667860D02*
D03*
X1647460D02*
D03*
X2063750Y2681000D02*
D03*
X1913750D02*
D03*
X1497080Y2836776D02*
D03*
X1647080D02*
D03*
X3737460Y3667860D02*
D03*
X3887460D02*
D03*
X4303750Y2681000D02*
D03*
X4153750D02*
D03*
X3737080Y2836776D02*
D03*
X3887080D02*
D03*
X5977460Y3667860D02*
D03*
X6127460D02*
D03*
X6543750Y2681000D02*
D03*
X6393750D02*
D03*
X5977080Y2836776D02*
D03*
X6127080D02*
D03*
X8217460Y3667860D02*
D03*
X8367460D02*
D03*
X8783750Y2681000D02*
D03*
X8633750D02*
D03*
X8217080Y2836776D02*
D03*
X8367081D02*
D03*
X1497460Y5567860D02*
D03*
X1647460D02*
D03*
X2063750Y4581000D02*
D03*
X1913750D02*
D03*
X1497080Y4736776D02*
D03*
X1647080D02*
D03*
X3737460Y5567860D02*
D03*
X3887460D02*
D03*
X4303750Y4581000D02*
D03*
X4153750D02*
D03*
X3737080Y4736776D02*
D03*
X3887080D02*
D03*
X5977460Y5567860D02*
D03*
X6127460D02*
D03*
X6543750Y4581000D02*
D03*
X6393750D02*
D03*
X5977080Y4736776D02*
D03*
X6127080D02*
D03*
X8217460Y5567860D02*
D03*
X8367460D02*
D03*
X8783750Y4581000D02*
D03*
X8633750D02*
D03*
X8217080Y4736776D02*
D03*
X8367081D02*
D03*
X1497460Y7467860D02*
D03*
X1647460D02*
D03*
X2063750Y6481000D02*
D03*
X1913750D02*
D03*
X1497080Y6636776D02*
D03*
X1647080D02*
D03*
X3737460Y7467860D02*
D03*
X3887460D02*
D03*
X4303750Y6481000D02*
D03*
X4153750D02*
D03*
X3737080Y6636776D02*
D03*
X3887080D02*
D03*
X5977460Y7467860D02*
D03*
X6127460D02*
D03*
X6543750Y6481000D02*
D03*
X6393750D02*
D03*
X5977080Y6636776D02*
D03*
X6127080D02*
D03*
X8217460Y7467860D02*
D03*
X8367460D02*
D03*
X8783750Y6481000D02*
D03*
X8633750D02*
D03*
X8217080Y6636776D02*
D03*
X8367081D02*
D03*
X1497460Y9367860D02*
D03*
X1647460D02*
D03*
X2063750Y8381000D02*
D03*
X1913750D02*
D03*
X1497080Y8536776D02*
D03*
X1647080D02*
D03*
X3737460Y9367860D02*
D03*
X3887460D02*
D03*
X4303750Y8381000D02*
D03*
X4153750D02*
D03*
X3737080Y8536776D02*
D03*
X3887080D02*
D03*
X5977460Y9367860D02*
D03*
X6127460D02*
D03*
X6543750Y8381000D02*
D03*
X6393750D02*
D03*
X5977080Y8536776D02*
D03*
X6127080D02*
D03*
X8217460Y9367860D02*
D03*
X8367460D02*
D03*
X8783750Y8381000D02*
D03*
X8633750D02*
D03*
X8217080Y8536776D02*
D03*
X8367081D02*
D03*
D44*
X1982848Y1499620D02*
D03*
Y1409620D02*
D03*
X2008248Y1687000D02*
D03*
Y1597001D02*
D03*
X1861440Y1692080D02*
D03*
Y1602080D02*
D03*
X4222848Y1499620D02*
D03*
Y1409620D02*
D03*
X4248248Y1687000D02*
D03*
Y1597001D02*
D03*
X4101440Y1692080D02*
D03*
Y1602080D02*
D03*
X6462848Y1499620D02*
D03*
Y1409620D02*
D03*
X6488248Y1687000D02*
D03*
Y1597001D02*
D03*
X6341440Y1692080D02*
D03*
Y1602080D02*
D03*
X8702848Y1499620D02*
D03*
Y1409620D02*
D03*
X8728248Y1687000D02*
D03*
Y1597001D02*
D03*
X8581440Y1692080D02*
D03*
Y1602080D02*
D03*
X1982848Y3399620D02*
D03*
Y3309620D02*
D03*
X2008248Y3587000D02*
D03*
Y3497001D02*
D03*
X1861440Y3592080D02*
D03*
Y3502080D02*
D03*
X4222848Y3399620D02*
D03*
Y3309620D02*
D03*
X4248248Y3587000D02*
D03*
Y3497001D02*
D03*
X4101440Y3592080D02*
D03*
Y3502080D02*
D03*
X6462848Y3399620D02*
D03*
Y3309620D02*
D03*
X6488248Y3587000D02*
D03*
Y3497001D02*
D03*
X6341440Y3592080D02*
D03*
Y3502080D02*
D03*
X8702848Y3399620D02*
D03*
Y3309620D02*
D03*
X8728248Y3587000D02*
D03*
Y3497001D02*
D03*
X8581440Y3592080D02*
D03*
Y3502080D02*
D03*
X1982848Y5299620D02*
D03*
Y5209620D02*
D03*
X2008248Y5487000D02*
D03*
Y5397001D02*
D03*
X1861440Y5492080D02*
D03*
Y5402080D02*
D03*
X4222848Y5299620D02*
D03*
Y5209620D02*
D03*
X4248248Y5487000D02*
D03*
Y5397001D02*
D03*
X4101440Y5492080D02*
D03*
Y5402080D02*
D03*
X6462848Y5299620D02*
D03*
Y5209620D02*
D03*
X6488248Y5487000D02*
D03*
Y5397001D02*
D03*
X6341440Y5492080D02*
D03*
Y5402080D02*
D03*
X8702848Y5299620D02*
D03*
Y5209620D02*
D03*
X8728248Y5487000D02*
D03*
Y5397001D02*
D03*
X8581440Y5492080D02*
D03*
Y5402080D02*
D03*
X1982848Y7199620D02*
D03*
Y7109620D02*
D03*
X2008248Y7387000D02*
D03*
Y7297001D02*
D03*
X1861440Y7392080D02*
D03*
Y7302080D02*
D03*
X4222848Y7199620D02*
D03*
Y7109620D02*
D03*
X4248248Y7387000D02*
D03*
Y7297001D02*
D03*
X4101440Y7392080D02*
D03*
Y7302080D02*
D03*
X6462848Y7199620D02*
D03*
Y7109620D02*
D03*
X6488248Y7387000D02*
D03*
Y7297001D02*
D03*
X6341440Y7392080D02*
D03*
Y7302080D02*
D03*
X8702848Y7199620D02*
D03*
Y7109620D02*
D03*
X8728248Y7387000D02*
D03*
Y7297001D02*
D03*
X8581440Y7392080D02*
D03*
Y7302080D02*
D03*
X1982848Y9099620D02*
D03*
Y9009620D02*
D03*
X2008248Y9287000D02*
D03*
Y9197001D02*
D03*
X1861440Y9292080D02*
D03*
Y9202080D02*
D03*
X4222848Y9099620D02*
D03*
Y9009620D02*
D03*
X4248248Y9287000D02*
D03*
Y9197001D02*
D03*
X4101440Y9292080D02*
D03*
Y9202080D02*
D03*
X6462848Y9099620D02*
D03*
Y9009620D02*
D03*
X6488248Y9287000D02*
D03*
Y9197001D02*
D03*
X6341440Y9292080D02*
D03*
Y9202080D02*
D03*
X8702848Y9099620D02*
D03*
Y9009620D02*
D03*
X8728248Y9287000D02*
D03*
Y9197001D02*
D03*
X8581440Y9292080D02*
D03*
Y9202080D02*
D03*
D45*
X1861140Y1812860D02*
D03*
X2021140D02*
D03*
X4101140D02*
D03*
X4261140D02*
D03*
X6341140D02*
D03*
X6501140D02*
D03*
X8581140D02*
D03*
X8741140D02*
D03*
X1861140Y3712860D02*
D03*
X2021140D02*
D03*
X4101140D02*
D03*
X4261140D02*
D03*
X6341140D02*
D03*
X6501140D02*
D03*
X8581140D02*
D03*
X8741140D02*
D03*
X1861140Y5612860D02*
D03*
X2021140D02*
D03*
X4101140D02*
D03*
X4261140D02*
D03*
X6341140D02*
D03*
X6501140D02*
D03*
X8581140D02*
D03*
X8741140D02*
D03*
X1861140Y7512860D02*
D03*
X2021140D02*
D03*
X4101140D02*
D03*
X4261140D02*
D03*
X6341140D02*
D03*
X6501140D02*
D03*
X8581140D02*
D03*
X8741140D02*
D03*
X1861140Y9412860D02*
D03*
X2021140D02*
D03*
X4101140D02*
D03*
X4261140D02*
D03*
X6341140D02*
D03*
X6501140D02*
D03*
X8581140D02*
D03*
X8741140D02*
D03*
D46*
X500000Y500000D02*
D03*
X9500000D02*
D03*
Y9500000D02*
D03*
X500000D02*
D03*
D47*
X2213480Y1732000D02*
D03*
Y1332000D02*
D03*
X4453480Y1732000D02*
D03*
Y1332000D02*
D03*
X6693480Y1732000D02*
D03*
Y1332000D02*
D03*
X8933480Y1732000D02*
D03*
Y1332000D02*
D03*
X2213480Y3632000D02*
D03*
Y3232000D02*
D03*
X4453480Y3632000D02*
D03*
Y3232000D02*
D03*
X6693480Y3632000D02*
D03*
Y3232000D02*
D03*
X8933480Y3632000D02*
D03*
Y3232000D02*
D03*
X2213480Y5532000D02*
D03*
Y5132000D02*
D03*
X4453480Y5532000D02*
D03*
Y5132000D02*
D03*
X6693480Y5532000D02*
D03*
Y5132000D02*
D03*
X8933480Y5532000D02*
D03*
Y5132000D02*
D03*
X2213480Y7432000D02*
D03*
Y7032000D02*
D03*
X4453480Y7432000D02*
D03*
Y7032000D02*
D03*
X6693480Y7432000D02*
D03*
Y7032000D02*
D03*
X8933480Y7432000D02*
D03*
Y7032000D02*
D03*
X2213480Y9332000D02*
D03*
Y8932000D02*
D03*
X4453480Y9332000D02*
D03*
Y8932000D02*
D03*
X6693480Y9332000D02*
D03*
Y8932000D02*
D03*
X8933480Y9332000D02*
D03*
Y8932000D02*
D03*
D48*
X2448480Y1249000D02*
D03*
Y1815000D02*
D03*
X4688480Y1249000D02*
D03*
Y1815000D02*
D03*
X6928480Y1249000D02*
D03*
Y1815000D02*
D03*
X9168480Y1249000D02*
D03*
Y1815000D02*
D03*
X2448480Y3149000D02*
D03*
Y3715000D02*
D03*
X4688480Y3149000D02*
D03*
Y3715000D02*
D03*
X6928480Y3149000D02*
D03*
Y3715000D02*
D03*
X9168480Y3149000D02*
D03*
Y3715000D02*
D03*
X2448480Y5049000D02*
D03*
Y5615000D02*
D03*
X4688480Y5049000D02*
D03*
Y5615000D02*
D03*
X6928480Y5049000D02*
D03*
Y5615000D02*
D03*
X9168480Y5049000D02*
D03*
Y5615000D02*
D03*
X2448480Y6949000D02*
D03*
Y7515000D02*
D03*
X4688480Y6949000D02*
D03*
Y7515000D02*
D03*
X6928480Y6949000D02*
D03*
Y7515000D02*
D03*
X9168480Y6949000D02*
D03*
Y7515000D02*
D03*
X2448480Y8849000D02*
D03*
Y9415000D02*
D03*
X4688480Y8849000D02*
D03*
Y9415000D02*
D03*
X6928480Y8849000D02*
D03*
Y9415000D02*
D03*
X9168480Y8849000D02*
D03*
Y9415000D02*
D03*
D49*
X2244000Y781000D02*
D03*
Y1035000D02*
D03*
Y527000D02*
D03*
X4484000Y781000D02*
D03*
Y1035000D02*
D03*
Y527000D02*
D03*
X6724000Y781000D02*
D03*
Y1035000D02*
D03*
Y527000D02*
D03*
X8964000Y781000D02*
D03*
Y1035000D02*
D03*
Y527000D02*
D03*
X2244000Y2681000D02*
D03*
Y2935000D02*
D03*
Y2427000D02*
D03*
X4484000Y2681000D02*
D03*
Y2935000D02*
D03*
Y2427000D02*
D03*
X6724000Y2681000D02*
D03*
Y2935000D02*
D03*
Y2427000D02*
D03*
X8964000Y2681000D02*
D03*
Y2935000D02*
D03*
Y2427000D02*
D03*
X2244000Y4581000D02*
D03*
Y4835000D02*
D03*
Y4327000D02*
D03*
X4484000Y4581000D02*
D03*
Y4835000D02*
D03*
Y4327000D02*
D03*
X6724000Y4581000D02*
D03*
Y4835000D02*
D03*
Y4327000D02*
D03*
X8964000Y4581000D02*
D03*
Y4835000D02*
D03*
Y4327000D02*
D03*
X2244000Y6481000D02*
D03*
Y6735000D02*
D03*
Y6227000D02*
D03*
X4484000Y6481000D02*
D03*
Y6735000D02*
D03*
Y6227000D02*
D03*
X6724000Y6481000D02*
D03*
Y6735000D02*
D03*
Y6227000D02*
D03*
X8964000Y6481000D02*
D03*
Y6735000D02*
D03*
Y6227000D02*
D03*
X2244000Y8381000D02*
D03*
Y8635000D02*
D03*
Y8127000D02*
D03*
X4484000Y8381000D02*
D03*
Y8635000D02*
D03*
Y8127000D02*
D03*
X6724000Y8381000D02*
D03*
Y8635000D02*
D03*
Y8127000D02*
D03*
X8964000Y8381000D02*
D03*
Y8635000D02*
D03*
Y8127000D02*
D03*
D50*
X1205420Y475500D02*
D03*
X1705420D02*
D03*
X1455420Y1925500D02*
D03*
X1205420D02*
D03*
X1705420D02*
D03*
X3445420Y475500D02*
D03*
X3945420D02*
D03*
X3695420Y1925500D02*
D03*
X3445420D02*
D03*
X3945420D02*
D03*
X5685420Y475500D02*
D03*
X6185420D02*
D03*
X5935420Y1925500D02*
D03*
X5685420D02*
D03*
X6185420D02*
D03*
X7925420Y475500D02*
D03*
X8425420D02*
D03*
X8175420Y1925500D02*
D03*
X7925420D02*
D03*
X8425420D02*
D03*
X1205420Y2375500D02*
D03*
X1705420D02*
D03*
X1455420Y3825500D02*
D03*
X1205420D02*
D03*
X1705420D02*
D03*
X3445420Y2375500D02*
D03*
X3945420D02*
D03*
X3695420Y3825500D02*
D03*
X3445420D02*
D03*
X3945420D02*
D03*
X5685420Y2375500D02*
D03*
X6185420D02*
D03*
X5935420Y3825500D02*
D03*
X5685420D02*
D03*
X6185420D02*
D03*
X7925420Y2375500D02*
D03*
X8425420D02*
D03*
X8175420Y3825500D02*
D03*
X7925420D02*
D03*
X8425420D02*
D03*
X1205420Y4275500D02*
D03*
X1705420D02*
D03*
X1455420Y5725500D02*
D03*
X1205420D02*
D03*
X1705420D02*
D03*
X3445420Y4275500D02*
D03*
X3945420D02*
D03*
X3695420Y5725500D02*
D03*
X3445420D02*
D03*
X3945420D02*
D03*
X5685420Y4275500D02*
D03*
X6185420D02*
D03*
X5935420Y5725500D02*
D03*
X5685420D02*
D03*
X6185420D02*
D03*
X7925420Y4275500D02*
D03*
X8425420D02*
D03*
X8175420Y5725500D02*
D03*
X7925420D02*
D03*
X8425420D02*
D03*
X1205420Y6175500D02*
D03*
X1705420D02*
D03*
X1455420Y7625500D02*
D03*
X1205420D02*
D03*
X1705420D02*
D03*
X3445420Y6175500D02*
D03*
X3945420D02*
D03*
X3695420Y7625500D02*
D03*
X3445420D02*
D03*
X3945420D02*
D03*
X5685420Y6175500D02*
D03*
X6185420D02*
D03*
X5935420Y7625500D02*
D03*
X5685420D02*
D03*
X6185420D02*
D03*
X7925420Y6175500D02*
D03*
X8425420D02*
D03*
X8175420Y7625500D02*
D03*
X7925420D02*
D03*
X8425420D02*
D03*
X1205420Y8075500D02*
D03*
X1705420D02*
D03*
X1455420Y9525500D02*
D03*
X1205420D02*
D03*
X1705420D02*
D03*
X3445420Y8075500D02*
D03*
X3945420D02*
D03*
X3695420Y9525500D02*
D03*
X3445420D02*
D03*
X3945420D02*
D03*
X5685420Y8075500D02*
D03*
X6185420D02*
D03*
X5935420Y9525500D02*
D03*
X5685420D02*
D03*
X6185420D02*
D03*
X7925420Y8075500D02*
D03*
X8425420D02*
D03*
X8175420Y9525500D02*
D03*
X7925420D02*
D03*
X8425420D02*
D03*
D51*
X917920Y1200500D02*
D03*
X3157920D02*
D03*
X5397920D02*
D03*
X7637920D02*
D03*
X917920Y3100500D02*
D03*
X3157920D02*
D03*
X5397920D02*
D03*
X7637920D02*
D03*
X917920Y5000500D02*
D03*
X3157920D02*
D03*
X5397920D02*
D03*
X7637920D02*
D03*
X917920Y6900500D02*
D03*
X3157920D02*
D03*
X5397920D02*
D03*
X7637920D02*
D03*
X917920Y8800500D02*
D03*
X3157920D02*
D03*
X5397920D02*
D03*
X7637920D02*
D03*
D52*
X1992920Y1200500D02*
D03*
X4232920D02*
D03*
X6472920D02*
D03*
X8712920D02*
D03*
X1992920Y3100500D02*
D03*
X4232920D02*
D03*
X6472920D02*
D03*
X8712920D02*
D03*
X1992920Y5000500D02*
D03*
X4232920D02*
D03*
X6472920D02*
D03*
X8712920D02*
D03*
X1992920Y6900500D02*
D03*
X4232920D02*
D03*
X6472920D02*
D03*
X8712920D02*
D03*
X1992920Y8800500D02*
D03*
X4232920D02*
D03*
X6472920D02*
D03*
X8712920D02*
D03*
%TF.MD5,13709f5aa691185db1f2bf8754ef515d*%
M02*
