%TF.GenerationSoftware,Altium Limited,Altium Designer,20.1.8 (145)*%
G04 Layer_Color=0*
%FSLAX45Y45*%
%MOMM*%
%TF.SameCoordinates,31433496-A159-4958-A2C2-D52C18178038*%
%TF.FilePolarity,Positive*%
%TF.FileFunction,Plated,1,2,PTH,Drill*%
%TF.Part,CustomerPanel*%
G01*
G75*
%TA.AperFunction,ComponentDrill*%
%ADD59O,1.20000X0.90000*%
%ADD60C,0.80000*%
%ADD61O,1.25000X0.50000*%
%ADD62O,1.25000X2.50000*%
%TA.AperFunction,ViaDrill,NotFilled*%
%ADD63C,0.35000*%
D59*
X2448480Y1249000D02*
D03*
Y1815000D02*
D03*
X4688480Y1249000D02*
D03*
Y1815000D02*
D03*
X6928480Y1249000D02*
D03*
Y1815000D02*
D03*
X9168480Y1249000D02*
D03*
Y1815000D02*
D03*
X2448480Y3149000D02*
D03*
Y3715000D02*
D03*
X4688480Y3149000D02*
D03*
Y3715000D02*
D03*
X6928480Y3149000D02*
D03*
Y3715000D02*
D03*
X9168480Y3149000D02*
D03*
Y3715000D02*
D03*
X2448480Y5049000D02*
D03*
Y5615000D02*
D03*
X4688480Y5049000D02*
D03*
Y5615000D02*
D03*
X6928480Y5049000D02*
D03*
Y5615000D02*
D03*
X9168480Y5049000D02*
D03*
Y5615000D02*
D03*
X2448480Y6949000D02*
D03*
Y7515000D02*
D03*
X4688480Y6949000D02*
D03*
Y7515000D02*
D03*
X6928480Y6949000D02*
D03*
Y7515000D02*
D03*
X9168480Y6949000D02*
D03*
Y7515000D02*
D03*
X2448480Y8849000D02*
D03*
Y9415000D02*
D03*
X4688480Y8849000D02*
D03*
Y9415000D02*
D03*
X6928480Y8849000D02*
D03*
Y9415000D02*
D03*
X9168480Y8849000D02*
D03*
Y9415000D02*
D03*
D60*
X2244000Y781000D02*
D03*
Y1035000D02*
D03*
Y527000D02*
D03*
X4484000Y781000D02*
D03*
Y1035000D02*
D03*
Y527000D02*
D03*
X6724000Y781000D02*
D03*
Y1035000D02*
D03*
Y527000D02*
D03*
X8964000Y781000D02*
D03*
Y1035000D02*
D03*
Y527000D02*
D03*
X2244000Y2681000D02*
D03*
Y2935000D02*
D03*
Y2427000D02*
D03*
X4484000Y2681000D02*
D03*
Y2935000D02*
D03*
Y2427000D02*
D03*
X6724000Y2681000D02*
D03*
Y2935000D02*
D03*
Y2427000D02*
D03*
X8964000Y2681000D02*
D03*
Y2935000D02*
D03*
Y2427000D02*
D03*
X2244000Y4581000D02*
D03*
Y4835000D02*
D03*
Y4327000D02*
D03*
X4484000Y4581000D02*
D03*
Y4835000D02*
D03*
Y4327000D02*
D03*
X6724000Y4581000D02*
D03*
Y4835000D02*
D03*
Y4327000D02*
D03*
X8964000Y4581000D02*
D03*
Y4835000D02*
D03*
Y4327000D02*
D03*
X2244000Y6481000D02*
D03*
Y6735000D02*
D03*
Y6227000D02*
D03*
X4484000Y6481000D02*
D03*
Y6735000D02*
D03*
Y6227000D02*
D03*
X6724000Y6481000D02*
D03*
Y6735000D02*
D03*
Y6227000D02*
D03*
X8964000Y6481000D02*
D03*
Y6735000D02*
D03*
Y6227000D02*
D03*
X2244000Y8381000D02*
D03*
Y8635000D02*
D03*
Y8127000D02*
D03*
X4484000Y8381000D02*
D03*
Y8635000D02*
D03*
Y8127000D02*
D03*
X6724000Y8381000D02*
D03*
Y8635000D02*
D03*
Y8127000D02*
D03*
X8964000Y8381000D02*
D03*
Y8635000D02*
D03*
Y8127000D02*
D03*
D61*
X1205420Y475500D02*
D03*
X1705420D02*
D03*
X1455420Y1925500D02*
D03*
X1205420D02*
D03*
X1705420D02*
D03*
X3445420Y475500D02*
D03*
X3945420D02*
D03*
X3695420Y1925500D02*
D03*
X3445420D02*
D03*
X3945420D02*
D03*
X5685420Y475500D02*
D03*
X6185420D02*
D03*
X5935420Y1925500D02*
D03*
X5685420D02*
D03*
X6185420D02*
D03*
X7925420Y475500D02*
D03*
X8425420D02*
D03*
X8175420Y1925500D02*
D03*
X7925420D02*
D03*
X8425420D02*
D03*
X1205420Y2375500D02*
D03*
X1705420D02*
D03*
X1455420Y3825500D02*
D03*
X1205420D02*
D03*
X1705420D02*
D03*
X3445420Y2375500D02*
D03*
X3945420D02*
D03*
X3695420Y3825500D02*
D03*
X3445420D02*
D03*
X3945420D02*
D03*
X5685420Y2375500D02*
D03*
X6185420D02*
D03*
X5935420Y3825500D02*
D03*
X5685420D02*
D03*
X6185420D02*
D03*
X7925420Y2375500D02*
D03*
X8425420D02*
D03*
X8175420Y3825500D02*
D03*
X7925420D02*
D03*
X8425420D02*
D03*
X1205420Y4275500D02*
D03*
X1705420D02*
D03*
X1455420Y5725500D02*
D03*
X1205420D02*
D03*
X1705420D02*
D03*
X3445420Y4275500D02*
D03*
X3945420D02*
D03*
X3695420Y5725500D02*
D03*
X3445420D02*
D03*
X3945420D02*
D03*
X5685420Y4275500D02*
D03*
X6185420D02*
D03*
X5935420Y5725500D02*
D03*
X5685420D02*
D03*
X6185420D02*
D03*
X7925420Y4275500D02*
D03*
X8425420D02*
D03*
X8175420Y5725500D02*
D03*
X7925420D02*
D03*
X8425420D02*
D03*
X1205420Y6175500D02*
D03*
X1705420D02*
D03*
X1455420Y7625500D02*
D03*
X1205420D02*
D03*
X1705420D02*
D03*
X3445420Y6175500D02*
D03*
X3945420D02*
D03*
X3695420Y7625500D02*
D03*
X3445420D02*
D03*
X3945420D02*
D03*
X5685420Y6175500D02*
D03*
X6185420D02*
D03*
X5935420Y7625500D02*
D03*
X5685420D02*
D03*
X6185420D02*
D03*
X7925420Y6175500D02*
D03*
X8425420D02*
D03*
X8175420Y7625500D02*
D03*
X7925420D02*
D03*
X8425420D02*
D03*
X1205420Y8075500D02*
D03*
X1705420D02*
D03*
X1455420Y9525500D02*
D03*
X1205420D02*
D03*
X1705420D02*
D03*
X3445420Y8075500D02*
D03*
X3945420D02*
D03*
X3695420Y9525500D02*
D03*
X3445420D02*
D03*
X3945420D02*
D03*
X5685420Y8075500D02*
D03*
X6185420D02*
D03*
X5935420Y9525500D02*
D03*
X5685420D02*
D03*
X6185420D02*
D03*
X7925420Y8075500D02*
D03*
X8425420D02*
D03*
X8175420Y9525500D02*
D03*
X7925420D02*
D03*
X8425420D02*
D03*
D62*
X917920Y1200500D02*
D03*
X1992920D02*
D03*
X3157920D02*
D03*
X4232920D02*
D03*
X5397920D02*
D03*
X6472920D02*
D03*
X7637920D02*
D03*
X8712920D02*
D03*
X917920Y3100500D02*
D03*
X1992920D02*
D03*
X3157920D02*
D03*
X4232920D02*
D03*
X5397920D02*
D03*
X6472920D02*
D03*
X7637920D02*
D03*
X8712920D02*
D03*
X917920Y5000500D02*
D03*
X1992920D02*
D03*
X3157920D02*
D03*
X4232920D02*
D03*
X5397920D02*
D03*
X6472920D02*
D03*
X7637920D02*
D03*
X8712920D02*
D03*
X917920Y6900500D02*
D03*
X1992920D02*
D03*
X3157920D02*
D03*
X4232920D02*
D03*
X5397920D02*
D03*
X6472920D02*
D03*
X7637920D02*
D03*
X8712920D02*
D03*
X917920Y8800500D02*
D03*
X1992920D02*
D03*
X3157920D02*
D03*
X4232920D02*
D03*
X5397920D02*
D03*
X6472920D02*
D03*
X7637920D02*
D03*
X8712920D02*
D03*
D63*
X1170420Y1506661D02*
D03*
X1237450Y1508455D02*
D03*
X1526464Y1353300D02*
D03*
X1408945Y1074127D02*
D03*
X1787639Y1016876D02*
D03*
X1730500Y1353300D02*
D03*
X1922209Y1602080D02*
D03*
X1947208Y1687001D02*
D03*
X2327708Y1402000D02*
D03*
X2046843D02*
D03*
X3410420Y1506661D02*
D03*
X3477450Y1508455D02*
D03*
X3766464Y1353300D02*
D03*
X3648945Y1074127D02*
D03*
X4027639Y1016876D02*
D03*
X3970500Y1353300D02*
D03*
X4162209Y1602080D02*
D03*
X4187208Y1687001D02*
D03*
X4567708Y1402000D02*
D03*
X4286843D02*
D03*
X5650420Y1506661D02*
D03*
X5717450Y1508455D02*
D03*
X6006464Y1353300D02*
D03*
X5888945Y1074127D02*
D03*
X6267639Y1016876D02*
D03*
X6210500Y1353300D02*
D03*
X6402209Y1602080D02*
D03*
X6427208Y1687001D02*
D03*
X6807708Y1402000D02*
D03*
X6526843D02*
D03*
X7890420Y1506661D02*
D03*
X7957450Y1508455D02*
D03*
X8246464Y1353300D02*
D03*
X8128945Y1074127D02*
D03*
X8507639Y1016876D02*
D03*
X8450500Y1353300D02*
D03*
X8642209Y1602080D02*
D03*
X8667208Y1687001D02*
D03*
X9047708Y1402000D02*
D03*
X8766843D02*
D03*
X1170420Y3406661D02*
D03*
X1237450Y3408455D02*
D03*
X1526464Y3253300D02*
D03*
X1408945Y2974127D02*
D03*
X1787639Y2916876D02*
D03*
X1730500Y3253300D02*
D03*
X1922209Y3502080D02*
D03*
X1947208Y3587001D02*
D03*
X2327708Y3302000D02*
D03*
X2046843D02*
D03*
X3410420Y3406661D02*
D03*
X3477450Y3408455D02*
D03*
X3766464Y3253300D02*
D03*
X3648945Y2974127D02*
D03*
X4027639Y2916876D02*
D03*
X3970500Y3253300D02*
D03*
X4162209Y3502080D02*
D03*
X4187208Y3587001D02*
D03*
X4567708Y3302000D02*
D03*
X4286843D02*
D03*
X5650420Y3406661D02*
D03*
X5717450Y3408455D02*
D03*
X6006464Y3253300D02*
D03*
X5888945Y2974127D02*
D03*
X6267639Y2916876D02*
D03*
X6210500Y3253300D02*
D03*
X6402209Y3502080D02*
D03*
X6427208Y3587001D02*
D03*
X6807708Y3302000D02*
D03*
X6526843D02*
D03*
X7890420Y3406661D02*
D03*
X7957450Y3408455D02*
D03*
X8246464Y3253300D02*
D03*
X8128945Y2974127D02*
D03*
X8507639Y2916876D02*
D03*
X8450500Y3253300D02*
D03*
X8642209Y3502080D02*
D03*
X8667208Y3587001D02*
D03*
X9047708Y3302000D02*
D03*
X8766843D02*
D03*
X1170420Y5306661D02*
D03*
X1237450Y5308455D02*
D03*
X1526464Y5153300D02*
D03*
X1408945Y4874127D02*
D03*
X1787639Y4816876D02*
D03*
X1730500Y5153300D02*
D03*
X1922209Y5402080D02*
D03*
X1947208Y5487001D02*
D03*
X2327708Y5202000D02*
D03*
X2046843D02*
D03*
X3410420Y5306661D02*
D03*
X3477450Y5308455D02*
D03*
X3766464Y5153300D02*
D03*
X3648945Y4874127D02*
D03*
X4027639Y4816876D02*
D03*
X3970500Y5153300D02*
D03*
X4162209Y5402080D02*
D03*
X4187208Y5487001D02*
D03*
X4567708Y5202000D02*
D03*
X4286843D02*
D03*
X5650420Y5306661D02*
D03*
X5717450Y5308455D02*
D03*
X6006464Y5153300D02*
D03*
X5888945Y4874127D02*
D03*
X6267639Y4816876D02*
D03*
X6210500Y5153300D02*
D03*
X6402209Y5402080D02*
D03*
X6427208Y5487001D02*
D03*
X6807708Y5202000D02*
D03*
X6526843D02*
D03*
X7890420Y5306661D02*
D03*
X7957450Y5308455D02*
D03*
X8246464Y5153300D02*
D03*
X8128945Y4874127D02*
D03*
X8507639Y4816876D02*
D03*
X8450500Y5153300D02*
D03*
X8642209Y5402080D02*
D03*
X8667208Y5487001D02*
D03*
X9047708Y5202000D02*
D03*
X8766843D02*
D03*
X1170420Y7206661D02*
D03*
X1237450Y7208455D02*
D03*
X1526464Y7053300D02*
D03*
X1408945Y6774127D02*
D03*
X1787639Y6716876D02*
D03*
X1730500Y7053300D02*
D03*
X1922209Y7302080D02*
D03*
X1947208Y7387001D02*
D03*
X2327708Y7102000D02*
D03*
X2046843D02*
D03*
X3410420Y7206661D02*
D03*
X3477450Y7208455D02*
D03*
X3766464Y7053300D02*
D03*
X3648945Y6774127D02*
D03*
X4027639Y6716876D02*
D03*
X3970500Y7053300D02*
D03*
X4162209Y7302080D02*
D03*
X4187208Y7387001D02*
D03*
X4567708Y7102000D02*
D03*
X4286843D02*
D03*
X5650420Y7206661D02*
D03*
X5717450Y7208455D02*
D03*
X6006464Y7053300D02*
D03*
X5888945Y6774127D02*
D03*
X6267639Y6716876D02*
D03*
X6210500Y7053300D02*
D03*
X6402209Y7302080D02*
D03*
X6427208Y7387001D02*
D03*
X6807708Y7102000D02*
D03*
X6526843D02*
D03*
X7890420Y7206661D02*
D03*
X7957450Y7208455D02*
D03*
X8246464Y7053300D02*
D03*
X8128945Y6774127D02*
D03*
X8507639Y6716876D02*
D03*
X8450500Y7053300D02*
D03*
X8642209Y7302080D02*
D03*
X8667208Y7387001D02*
D03*
X9047708Y7102000D02*
D03*
X8766843D02*
D03*
X1170420Y9106661D02*
D03*
X1237450Y9108455D02*
D03*
X1526464Y8953300D02*
D03*
X1408945Y8674127D02*
D03*
X1787639Y8616876D02*
D03*
X1730500Y8953300D02*
D03*
X1922209Y9202080D02*
D03*
X1947208Y9287001D02*
D03*
X2327708Y9002000D02*
D03*
X2046843D02*
D03*
X3410420Y9106661D02*
D03*
X3477450Y9108455D02*
D03*
X3766464Y8953300D02*
D03*
X3648945Y8674127D02*
D03*
X4027639Y8616876D02*
D03*
X3970500Y8953300D02*
D03*
X4162209Y9202080D02*
D03*
X4187208Y9287001D02*
D03*
X4567708Y9002000D02*
D03*
X4286843D02*
D03*
X5650420Y9106661D02*
D03*
X5717450Y9108455D02*
D03*
X6006464Y8953300D02*
D03*
X5888945Y8674127D02*
D03*
X6267639Y8616876D02*
D03*
X6210500Y8953300D02*
D03*
X6402209Y9202080D02*
D03*
X6427208Y9287001D02*
D03*
X6807708Y9002000D02*
D03*
X6526843D02*
D03*
X7890420Y9106661D02*
D03*
X7957450Y9108455D02*
D03*
X8246464Y8953300D02*
D03*
X8128945Y8674127D02*
D03*
X8507639Y8616876D02*
D03*
X8450500Y8953300D02*
D03*
X8642209Y9202080D02*
D03*
X8667208Y9287001D02*
D03*
X9047708Y9002000D02*
D03*
X8766843D02*
D03*
%TF.MD5,3a63f58975b6b620f1c09f9360560bc7*%
M02*
