%TF.GenerationSoftware,Altium Limited,Altium Designer,20.1.8 (145)*%
G04 Layer_Physical_Order=2*
G04 Layer_Color=16711680*
%FSLAX45Y45*%
%MOMM*%
%TF.SameCoordinates,31433496-A159-4958-A2C2-D52C18178038*%
%TF.FilePolarity,Positive*%
%TF.FileFunction,Copper,L2,Bot,Signal*%
%TF.Part,CustomerPanel*%
G01*
G75*
%TA.AperFunction,SMDPad,CuDef*%
%ADD10C,1.00000*%
%TA.AperFunction,ComponentPad*%
%ADD11O,1.80000X1.50000*%
G04:AMPARAMS|DCode=12|XSize=1.1mm|YSize=1.1mm|CornerRadius=0.55mm|HoleSize=0mm|Usage=FLASHONLY|Rotation=90.000|XOffset=0mm|YOffset=0mm|HoleType=Round|Shape=RoundedRectangle|*
%AMROUNDEDRECTD12*
21,1,1.10000,0.00000,0,0,90.0*
21,1,0.00000,1.10000,0,0,90.0*
1,1,1.10000,0.00000,0.00000*
1,1,1.10000,0.00000,0.00000*
1,1,1.10000,0.00000,0.00000*
1,1,1.10000,0.00000,0.00000*
%
%ADD12ROUNDEDRECTD12*%
%ADD13O,1.70000X1.00000*%
%ADD14O,2.00000X3.25000*%
G04:AMPARAMS|DCode=15|XSize=2mm|YSize=3.25mm|CornerRadius=1mm|HoleSize=0mm|Usage=FLASHONLY|Rotation=180.000|XOffset=0mm|YOffset=0mm|HoleType=Round|Shape=RoundedRectangle|*
%AMROUNDEDRECTD15*
21,1,2.00000,1.25000,0,0,180.0*
21,1,0.00000,3.25000,0,0,180.0*
1,1,2.00000,0.00000,0.62500*
1,1,2.00000,0.00000,0.62500*
1,1,2.00000,0.00000,-0.62500*
1,1,2.00000,0.00000,-0.62500*
%
%ADD15ROUNDEDRECTD15*%
%TA.AperFunction,ViaPad*%
%ADD16C,0.61000*%
%TA.AperFunction,SMDPad,CuDef*%
%ADD17O,1.25000X0.30000*%
G04:AMPARAMS|DCode=18|XSize=1.6mm|YSize=1.6mm|CornerRadius=0.008mm|HoleSize=0mm|Usage=FLASHONLY|Rotation=270.000|XOffset=0mm|YOffset=0mm|HoleType=Round|Shape=RoundedRectangle|*
%AMROUNDEDRECTD18*
21,1,1.60000,1.58400,0,0,270.0*
21,1,1.58400,1.60000,0,0,270.0*
1,1,0.01600,-0.79200,-0.79200*
1,1,0.01600,-0.79200,0.79200*
1,1,0.01600,0.79200,0.79200*
1,1,0.01600,0.79200,-0.79200*
%
%ADD18ROUNDEDRECTD18*%
%TA.AperFunction,ConnectorPad*%
G04:AMPARAMS|DCode=19|XSize=0.35mm|YSize=2mm|CornerRadius=0.175mm|HoleSize=0mm|Usage=FLASHONLY|Rotation=270.000|XOffset=0mm|YOffset=0mm|HoleType=Round|Shape=RoundedRectangle|*
%AMROUNDEDRECTD19*
21,1,0.35000,1.65000,0,0,270.0*
21,1,0.00000,2.00000,0,0,270.0*
1,1,0.35000,-0.82500,0.00000*
1,1,0.35000,-0.82500,0.00000*
1,1,0.35000,0.82500,0.00000*
1,1,0.35000,0.82500,0.00000*
%
%ADD19ROUNDEDRECTD19*%
%TA.AperFunction,SMDPad,CuDef*%
G04:AMPARAMS|DCode=20|XSize=0.8mm|YSize=0.7mm|CornerRadius=0.0035mm|HoleSize=0mm|Usage=FLASHONLY|Rotation=0.000|XOffset=0mm|YOffset=0mm|HoleType=Round|Shape=RoundedRectangle|*
%AMROUNDEDRECTD20*
21,1,0.80000,0.69300,0,0,0.0*
21,1,0.79300,0.70000,0,0,0.0*
1,1,0.00700,0.39650,-0.34650*
1,1,0.00700,-0.39650,-0.34650*
1,1,0.00700,-0.39650,0.34650*
1,1,0.00700,0.39650,0.34650*
%
%ADD20ROUNDEDRECTD20*%
G04:AMPARAMS|DCode=21|XSize=0.85mm|YSize=0.75mm|CornerRadius=0.00375mm|HoleSize=0mm|Usage=FLASHONLY|Rotation=270.000|XOffset=0mm|YOffset=0mm|HoleType=Round|Shape=RoundedRectangle|*
%AMROUNDEDRECTD21*
21,1,0.85000,0.74250,0,0,270.0*
21,1,0.84250,0.75000,0,0,270.0*
1,1,0.00750,-0.37125,-0.42125*
1,1,0.00750,-0.37125,0.42125*
1,1,0.00750,0.37125,0.42125*
1,1,0.00750,0.37125,-0.42125*
%
%ADD21ROUNDEDRECTD21*%
G04:AMPARAMS|DCode=22|XSize=0.85mm|YSize=0.75mm|CornerRadius=0.00375mm|HoleSize=0mm|Usage=FLASHONLY|Rotation=0.000|XOffset=0mm|YOffset=0mm|HoleType=Round|Shape=RoundedRectangle|*
%AMROUNDEDRECTD22*
21,1,0.85000,0.74250,0,0,0.0*
21,1,0.84250,0.75000,0,0,0.0*
1,1,0.00750,0.42125,-0.37125*
1,1,0.00750,-0.42125,-0.37125*
1,1,0.00750,-0.42125,0.37125*
1,1,0.00750,0.42125,0.37125*
%
%ADD22ROUNDEDRECTD22*%
G04:AMPARAMS|DCode=23|XSize=0.8mm|YSize=0.7mm|CornerRadius=0.0035mm|HoleSize=0mm|Usage=FLASHONLY|Rotation=90.000|XOffset=0mm|YOffset=0mm|HoleType=Round|Shape=RoundedRectangle|*
%AMROUNDEDRECTD23*
21,1,0.80000,0.69300,0,0,90.0*
21,1,0.79300,0.70000,0,0,90.0*
1,1,0.00700,0.34650,0.39650*
1,1,0.00700,0.34650,-0.39650*
1,1,0.00700,-0.34650,-0.39650*
1,1,0.00700,-0.34650,0.39650*
%
%ADD23ROUNDEDRECTD23*%
G04:AMPARAMS|DCode=24|XSize=0.4mm|YSize=0.4mm|CornerRadius=0.002mm|HoleSize=0mm|Usage=FLASHONLY|Rotation=180.000|XOffset=0mm|YOffset=0mm|HoleType=Round|Shape=RoundedRectangle|*
%AMROUNDEDRECTD24*
21,1,0.40000,0.39600,0,0,180.0*
21,1,0.39600,0.40000,0,0,180.0*
1,1,0.00400,-0.19800,0.19800*
1,1,0.00400,0.19800,0.19800*
1,1,0.00400,0.19800,-0.19800*
1,1,0.00400,-0.19800,-0.19800*
%
%ADD24ROUNDEDRECTD24*%
G04:AMPARAMS|DCode=25|XSize=0.9mm|YSize=0.9mm|CornerRadius=0.045mm|HoleSize=0mm|Usage=FLASHONLY|Rotation=180.000|XOffset=0mm|YOffset=0mm|HoleType=Round|Shape=RoundedRectangle|*
%AMROUNDEDRECTD25*
21,1,0.90000,0.81000,0,0,180.0*
21,1,0.81000,0.90000,0,0,180.0*
1,1,0.09000,-0.40500,0.40500*
1,1,0.09000,0.40500,0.40500*
1,1,0.09000,0.40500,-0.40500*
1,1,0.09000,-0.40500,-0.40500*
%
%ADD25ROUNDEDRECTD25*%
%TA.AperFunction,Conductor*%
%ADD26C,0.12700*%
%ADD27C,0.15240*%
%ADD28C,0.20320*%
%ADD29C,0.27940*%
%ADD30C,0.35560*%
%ADD31C,0.22860*%
D10*
X9500000Y8500000D02*
D03*
X500000D02*
D03*
X9500000Y1500000D02*
D03*
X500000D02*
D03*
D11*
X2448480Y1249000D02*
D03*
Y1815000D02*
D03*
X4688480Y1249000D02*
D03*
Y1815000D02*
D03*
X6928480Y1249000D02*
D03*
Y1815000D02*
D03*
X9168480Y1249000D02*
D03*
Y1815000D02*
D03*
X2448480Y3149000D02*
D03*
Y3715000D02*
D03*
X4688480Y3149000D02*
D03*
Y3715000D02*
D03*
X6928480Y3149000D02*
D03*
Y3715000D02*
D03*
X9168480Y3149000D02*
D03*
Y3715000D02*
D03*
X2448480Y5049000D02*
D03*
Y5615000D02*
D03*
X4688480Y5049000D02*
D03*
Y5615000D02*
D03*
X6928480Y5049000D02*
D03*
Y5615000D02*
D03*
X9168480Y5049000D02*
D03*
Y5615000D02*
D03*
X2448480Y6949000D02*
D03*
Y7515000D02*
D03*
X4688480Y6949000D02*
D03*
Y7515000D02*
D03*
X6928480Y6949000D02*
D03*
Y7515000D02*
D03*
X9168480Y6949000D02*
D03*
Y7515000D02*
D03*
X2448480Y8849000D02*
D03*
Y9415000D02*
D03*
X4688480Y8849000D02*
D03*
Y9415000D02*
D03*
X6928480Y8849000D02*
D03*
Y9415000D02*
D03*
X9168480Y8849000D02*
D03*
Y9415000D02*
D03*
D12*
X2244000Y781000D02*
D03*
Y1035000D02*
D03*
Y527000D02*
D03*
X4484000Y781000D02*
D03*
Y1035000D02*
D03*
Y527000D02*
D03*
X6724000Y781000D02*
D03*
Y1035000D02*
D03*
Y527000D02*
D03*
X8964000Y781000D02*
D03*
Y1035000D02*
D03*
Y527000D02*
D03*
X2244000Y2681000D02*
D03*
Y2935000D02*
D03*
Y2427000D02*
D03*
X4484000Y2681000D02*
D03*
Y2935000D02*
D03*
Y2427000D02*
D03*
X6724000Y2681000D02*
D03*
Y2935000D02*
D03*
Y2427000D02*
D03*
X8964000Y2681000D02*
D03*
Y2935000D02*
D03*
Y2427000D02*
D03*
X2244000Y4581000D02*
D03*
Y4835000D02*
D03*
Y4327000D02*
D03*
X4484000Y4581000D02*
D03*
Y4835000D02*
D03*
Y4327000D02*
D03*
X6724000Y4581000D02*
D03*
Y4835000D02*
D03*
Y4327000D02*
D03*
X8964000Y4581000D02*
D03*
Y4835000D02*
D03*
Y4327000D02*
D03*
X2244000Y6481000D02*
D03*
Y6735000D02*
D03*
Y6227000D02*
D03*
X4484000Y6481000D02*
D03*
Y6735000D02*
D03*
Y6227000D02*
D03*
X6724000Y6481000D02*
D03*
Y6735000D02*
D03*
Y6227000D02*
D03*
X8964000Y6481000D02*
D03*
Y6735000D02*
D03*
Y6227000D02*
D03*
X2244000Y8381000D02*
D03*
Y8635000D02*
D03*
Y8127000D02*
D03*
X4484000Y8381000D02*
D03*
Y8635000D02*
D03*
Y8127000D02*
D03*
X6724000Y8381000D02*
D03*
Y8635000D02*
D03*
Y8127000D02*
D03*
X8964000Y8381000D02*
D03*
Y8635000D02*
D03*
Y8127000D02*
D03*
D13*
X1205420Y475500D02*
D03*
X1705420D02*
D03*
X1455420Y1925500D02*
D03*
X1205420D02*
D03*
X1705420D02*
D03*
X3445420Y475500D02*
D03*
X3945420D02*
D03*
X3695420Y1925500D02*
D03*
X3445420D02*
D03*
X3945420D02*
D03*
X5685420Y475500D02*
D03*
X6185420D02*
D03*
X5935420Y1925500D02*
D03*
X5685420D02*
D03*
X6185420D02*
D03*
X7925420Y475500D02*
D03*
X8425420D02*
D03*
X8175420Y1925500D02*
D03*
X7925420D02*
D03*
X8425420D02*
D03*
X1205420Y2375500D02*
D03*
X1705420D02*
D03*
X1455420Y3825500D02*
D03*
X1205420D02*
D03*
X1705420D02*
D03*
X3445420Y2375500D02*
D03*
X3945420D02*
D03*
X3695420Y3825500D02*
D03*
X3445420D02*
D03*
X3945420D02*
D03*
X5685420Y2375500D02*
D03*
X6185420D02*
D03*
X5935420Y3825500D02*
D03*
X5685420D02*
D03*
X6185420D02*
D03*
X7925420Y2375500D02*
D03*
X8425420D02*
D03*
X8175420Y3825500D02*
D03*
X7925420D02*
D03*
X8425420D02*
D03*
X1205420Y4275500D02*
D03*
X1705420D02*
D03*
X1455420Y5725500D02*
D03*
X1205420D02*
D03*
X1705420D02*
D03*
X3445420Y4275500D02*
D03*
X3945420D02*
D03*
X3695420Y5725500D02*
D03*
X3445420D02*
D03*
X3945420D02*
D03*
X5685420Y4275500D02*
D03*
X6185420D02*
D03*
X5935420Y5725500D02*
D03*
X5685420D02*
D03*
X6185420D02*
D03*
X7925420Y4275500D02*
D03*
X8425420D02*
D03*
X8175420Y5725500D02*
D03*
X7925420D02*
D03*
X8425420D02*
D03*
X1205420Y6175500D02*
D03*
X1705420D02*
D03*
X1455420Y7625500D02*
D03*
X1205420D02*
D03*
X1705420D02*
D03*
X3445420Y6175500D02*
D03*
X3945420D02*
D03*
X3695420Y7625500D02*
D03*
X3445420D02*
D03*
X3945420D02*
D03*
X5685420Y6175500D02*
D03*
X6185420D02*
D03*
X5935420Y7625500D02*
D03*
X5685420D02*
D03*
X6185420D02*
D03*
X7925420Y6175500D02*
D03*
X8425420D02*
D03*
X8175420Y7625500D02*
D03*
X7925420D02*
D03*
X8425420D02*
D03*
X1205420Y8075500D02*
D03*
X1705420D02*
D03*
X1455420Y9525500D02*
D03*
X1205420D02*
D03*
X1705420D02*
D03*
X3445420Y8075500D02*
D03*
X3945420D02*
D03*
X3695420Y9525500D02*
D03*
X3445420D02*
D03*
X3945420D02*
D03*
X5685420Y8075500D02*
D03*
X6185420D02*
D03*
X5935420Y9525500D02*
D03*
X5685420D02*
D03*
X6185420D02*
D03*
X7925420Y8075500D02*
D03*
X8425420D02*
D03*
X8175420Y9525500D02*
D03*
X7925420D02*
D03*
X8425420D02*
D03*
D14*
X917920Y1200500D02*
D03*
X3157920D02*
D03*
X5397920D02*
D03*
X7637920D02*
D03*
X917920Y3100500D02*
D03*
X3157920D02*
D03*
X5397920D02*
D03*
X7637920D02*
D03*
X917920Y5000500D02*
D03*
X3157920D02*
D03*
X5397920D02*
D03*
X7637920D02*
D03*
X917920Y6900500D02*
D03*
X3157920D02*
D03*
X5397920D02*
D03*
X7637920D02*
D03*
X917920Y8800500D02*
D03*
X3157920D02*
D03*
X5397920D02*
D03*
X7637920D02*
D03*
D15*
X1992920Y1200500D02*
D03*
X4232920D02*
D03*
X6472920D02*
D03*
X8712920D02*
D03*
X1992920Y3100500D02*
D03*
X4232920D02*
D03*
X6472920D02*
D03*
X8712920D02*
D03*
X1992920Y5000500D02*
D03*
X4232920D02*
D03*
X6472920D02*
D03*
X8712920D02*
D03*
X1992920Y6900500D02*
D03*
X4232920D02*
D03*
X6472920D02*
D03*
X8712920D02*
D03*
X1992920Y8800500D02*
D03*
X4232920D02*
D03*
X6472920D02*
D03*
X8712920D02*
D03*
D16*
X1170420Y1506661D02*
D03*
X1237450Y1508455D02*
D03*
X1526464Y1353300D02*
D03*
X1408945Y1074127D02*
D03*
X1787639Y1016876D02*
D03*
X1730500Y1353300D02*
D03*
X1922209Y1602080D02*
D03*
X1947208Y1687001D02*
D03*
X2327708Y1402000D02*
D03*
X2046843D02*
D03*
X3410420Y1506661D02*
D03*
X3477450Y1508455D02*
D03*
X3766464Y1353300D02*
D03*
X3648945Y1074127D02*
D03*
X4027639Y1016876D02*
D03*
X3970500Y1353300D02*
D03*
X4162209Y1602080D02*
D03*
X4187208Y1687001D02*
D03*
X4567708Y1402000D02*
D03*
X4286843D02*
D03*
X5650420Y1506661D02*
D03*
X5717450Y1508455D02*
D03*
X6006464Y1353300D02*
D03*
X5888945Y1074127D02*
D03*
X6267639Y1016876D02*
D03*
X6210500Y1353300D02*
D03*
X6402209Y1602080D02*
D03*
X6427208Y1687001D02*
D03*
X6807708Y1402000D02*
D03*
X6526843D02*
D03*
X7890420Y1506661D02*
D03*
X7957450Y1508455D02*
D03*
X8246464Y1353300D02*
D03*
X8128945Y1074127D02*
D03*
X8507639Y1016876D02*
D03*
X8450500Y1353300D02*
D03*
X8642209Y1602080D02*
D03*
X8667208Y1687001D02*
D03*
X9047708Y1402000D02*
D03*
X8766843D02*
D03*
X1170420Y3406661D02*
D03*
X1237450Y3408455D02*
D03*
X1526464Y3253300D02*
D03*
X1408945Y2974127D02*
D03*
X1787639Y2916876D02*
D03*
X1730500Y3253300D02*
D03*
X1922209Y3502080D02*
D03*
X1947208Y3587001D02*
D03*
X2327708Y3302000D02*
D03*
X2046843D02*
D03*
X3410420Y3406661D02*
D03*
X3477450Y3408455D02*
D03*
X3766464Y3253300D02*
D03*
X3648945Y2974127D02*
D03*
X4027639Y2916876D02*
D03*
X3970500Y3253300D02*
D03*
X4162209Y3502080D02*
D03*
X4187208Y3587001D02*
D03*
X4567708Y3302000D02*
D03*
X4286843D02*
D03*
X5650420Y3406661D02*
D03*
X5717450Y3408455D02*
D03*
X6006464Y3253300D02*
D03*
X5888945Y2974127D02*
D03*
X6267639Y2916876D02*
D03*
X6210500Y3253300D02*
D03*
X6402209Y3502080D02*
D03*
X6427208Y3587001D02*
D03*
X6807708Y3302000D02*
D03*
X6526843D02*
D03*
X7890420Y3406661D02*
D03*
X7957450Y3408455D02*
D03*
X8246464Y3253300D02*
D03*
X8128945Y2974127D02*
D03*
X8507639Y2916876D02*
D03*
X8450500Y3253300D02*
D03*
X8642209Y3502080D02*
D03*
X8667208Y3587001D02*
D03*
X9047708Y3302000D02*
D03*
X8766843D02*
D03*
X1170420Y5306661D02*
D03*
X1237450Y5308455D02*
D03*
X1526464Y5153300D02*
D03*
X1408945Y4874127D02*
D03*
X1787639Y4816876D02*
D03*
X1730500Y5153300D02*
D03*
X1922209Y5402080D02*
D03*
X1947208Y5487001D02*
D03*
X2327708Y5202000D02*
D03*
X2046843D02*
D03*
X3410420Y5306661D02*
D03*
X3477450Y5308455D02*
D03*
X3766464Y5153300D02*
D03*
X3648945Y4874127D02*
D03*
X4027639Y4816876D02*
D03*
X3970500Y5153300D02*
D03*
X4162209Y5402080D02*
D03*
X4187208Y5487001D02*
D03*
X4567708Y5202000D02*
D03*
X4286843D02*
D03*
X5650420Y5306661D02*
D03*
X5717450Y5308455D02*
D03*
X6006464Y5153300D02*
D03*
X5888945Y4874127D02*
D03*
X6267639Y4816876D02*
D03*
X6210500Y5153300D02*
D03*
X6402209Y5402080D02*
D03*
X6427208Y5487001D02*
D03*
X6807708Y5202000D02*
D03*
X6526843D02*
D03*
X7890420Y5306661D02*
D03*
X7957450Y5308455D02*
D03*
X8246464Y5153300D02*
D03*
X8128945Y4874127D02*
D03*
X8507639Y4816876D02*
D03*
X8450500Y5153300D02*
D03*
X8642209Y5402080D02*
D03*
X8667208Y5487001D02*
D03*
X9047708Y5202000D02*
D03*
X8766843D02*
D03*
X1170420Y7206661D02*
D03*
X1237450Y7208455D02*
D03*
X1526464Y7053300D02*
D03*
X1408945Y6774127D02*
D03*
X1787639Y6716876D02*
D03*
X1730500Y7053300D02*
D03*
X1922209Y7302080D02*
D03*
X1947208Y7387001D02*
D03*
X2327708Y7102000D02*
D03*
X2046843D02*
D03*
X3410420Y7206661D02*
D03*
X3477450Y7208455D02*
D03*
X3766464Y7053300D02*
D03*
X3648945Y6774127D02*
D03*
X4027639Y6716876D02*
D03*
X3970500Y7053300D02*
D03*
X4162209Y7302080D02*
D03*
X4187208Y7387001D02*
D03*
X4567708Y7102000D02*
D03*
X4286843D02*
D03*
X5650420Y7206661D02*
D03*
X5717450Y7208455D02*
D03*
X6006464Y7053300D02*
D03*
X5888945Y6774127D02*
D03*
X6267639Y6716876D02*
D03*
X6210500Y7053300D02*
D03*
X6402209Y7302080D02*
D03*
X6427208Y7387001D02*
D03*
X6807708Y7102000D02*
D03*
X6526843D02*
D03*
X7890420Y7206661D02*
D03*
X7957450Y7208455D02*
D03*
X8246464Y7053300D02*
D03*
X8128945Y6774127D02*
D03*
X8507639Y6716876D02*
D03*
X8450500Y7053300D02*
D03*
X8642209Y7302080D02*
D03*
X8667208Y7387001D02*
D03*
X9047708Y7102000D02*
D03*
X8766843D02*
D03*
X1170420Y9106661D02*
D03*
X1237450Y9108455D02*
D03*
X1526464Y8953300D02*
D03*
X1408945Y8674127D02*
D03*
X1787639Y8616876D02*
D03*
X1730500Y8953300D02*
D03*
X1922209Y9202080D02*
D03*
X1947208Y9287001D02*
D03*
X2327708Y9002000D02*
D03*
X2046843D02*
D03*
X3410420Y9106661D02*
D03*
X3477450Y9108455D02*
D03*
X3766464Y8953300D02*
D03*
X3648945Y8674127D02*
D03*
X4027639Y8616876D02*
D03*
X3970500Y8953300D02*
D03*
X4162209Y9202080D02*
D03*
X4187208Y9287001D02*
D03*
X4567708Y9002000D02*
D03*
X4286843D02*
D03*
X5650420Y9106661D02*
D03*
X5717450Y9108455D02*
D03*
X6006464Y8953300D02*
D03*
X5888945Y8674127D02*
D03*
X6267639Y8616876D02*
D03*
X6210500Y8953300D02*
D03*
X6402209Y9202080D02*
D03*
X6427208Y9287001D02*
D03*
X6807708Y9002000D02*
D03*
X6526843D02*
D03*
X7890420Y9106661D02*
D03*
X7957450Y9108455D02*
D03*
X8246464Y8953300D02*
D03*
X8128945Y8674127D02*
D03*
X8507639Y8616876D02*
D03*
X8450500Y8953300D02*
D03*
X8642209Y9202080D02*
D03*
X8667208Y9287001D02*
D03*
X9047708Y9002000D02*
D03*
X8766843D02*
D03*
D17*
X1627140Y1453300D02*
D03*
Y1403300D02*
D03*
Y1353300D02*
D03*
Y1303300D02*
D03*
Y1253300D02*
D03*
X1202140Y1453300D02*
D03*
Y1403300D02*
D03*
Y1353300D02*
D03*
Y1303300D02*
D03*
Y1253300D02*
D03*
X3867140Y1453300D02*
D03*
Y1403300D02*
D03*
Y1353300D02*
D03*
Y1303300D02*
D03*
Y1253300D02*
D03*
X3442140Y1453300D02*
D03*
Y1403300D02*
D03*
Y1353300D02*
D03*
Y1303300D02*
D03*
Y1253300D02*
D03*
X6107140Y1453300D02*
D03*
Y1403300D02*
D03*
Y1353300D02*
D03*
Y1303300D02*
D03*
Y1253300D02*
D03*
X5682141Y1453300D02*
D03*
Y1403300D02*
D03*
Y1353300D02*
D03*
Y1303300D02*
D03*
Y1253300D02*
D03*
X8347141Y1453300D02*
D03*
Y1403300D02*
D03*
Y1353300D02*
D03*
Y1303300D02*
D03*
Y1253300D02*
D03*
X7922141Y1453300D02*
D03*
Y1403300D02*
D03*
Y1353300D02*
D03*
Y1303300D02*
D03*
Y1253300D02*
D03*
X1627140Y3353300D02*
D03*
Y3303300D02*
D03*
Y3253300D02*
D03*
Y3203300D02*
D03*
Y3153300D02*
D03*
X1202140Y3353300D02*
D03*
Y3303300D02*
D03*
Y3253300D02*
D03*
Y3203300D02*
D03*
Y3153300D02*
D03*
X3867140Y3353300D02*
D03*
Y3303300D02*
D03*
Y3253300D02*
D03*
Y3203300D02*
D03*
Y3153300D02*
D03*
X3442140Y3353300D02*
D03*
Y3303300D02*
D03*
Y3253300D02*
D03*
Y3203300D02*
D03*
Y3153300D02*
D03*
X6107140Y3353300D02*
D03*
Y3303300D02*
D03*
Y3253300D02*
D03*
Y3203300D02*
D03*
Y3153300D02*
D03*
X5682141Y3353300D02*
D03*
Y3303300D02*
D03*
Y3253300D02*
D03*
Y3203300D02*
D03*
Y3153300D02*
D03*
X8347141Y3353300D02*
D03*
Y3303300D02*
D03*
Y3253300D02*
D03*
Y3203300D02*
D03*
Y3153300D02*
D03*
X7922141Y3353300D02*
D03*
Y3303300D02*
D03*
Y3253300D02*
D03*
Y3203300D02*
D03*
Y3153300D02*
D03*
X1627140Y5253300D02*
D03*
Y5203300D02*
D03*
Y5153300D02*
D03*
Y5103300D02*
D03*
Y5053300D02*
D03*
X1202140Y5253300D02*
D03*
Y5203300D02*
D03*
Y5153300D02*
D03*
Y5103300D02*
D03*
Y5053300D02*
D03*
X3867140Y5253300D02*
D03*
Y5203300D02*
D03*
Y5153300D02*
D03*
Y5103300D02*
D03*
Y5053300D02*
D03*
X3442140Y5253300D02*
D03*
Y5203300D02*
D03*
Y5153300D02*
D03*
Y5103300D02*
D03*
Y5053300D02*
D03*
X6107140Y5253300D02*
D03*
Y5203300D02*
D03*
Y5153300D02*
D03*
Y5103300D02*
D03*
Y5053300D02*
D03*
X5682141Y5253300D02*
D03*
Y5203300D02*
D03*
Y5153300D02*
D03*
Y5103300D02*
D03*
Y5053300D02*
D03*
X8347141Y5253300D02*
D03*
Y5203300D02*
D03*
Y5153300D02*
D03*
Y5103300D02*
D03*
Y5053300D02*
D03*
X7922141Y5253300D02*
D03*
Y5203300D02*
D03*
Y5153300D02*
D03*
Y5103300D02*
D03*
Y5053300D02*
D03*
X1627140Y7153300D02*
D03*
Y7103300D02*
D03*
Y7053300D02*
D03*
Y7003300D02*
D03*
Y6953300D02*
D03*
X1202140Y7153300D02*
D03*
Y7103300D02*
D03*
Y7053300D02*
D03*
Y7003300D02*
D03*
Y6953300D02*
D03*
X3867140Y7153300D02*
D03*
Y7103300D02*
D03*
Y7053300D02*
D03*
Y7003300D02*
D03*
Y6953300D02*
D03*
X3442140Y7153300D02*
D03*
Y7103300D02*
D03*
Y7053300D02*
D03*
Y7003300D02*
D03*
Y6953300D02*
D03*
X6107140Y7153300D02*
D03*
Y7103300D02*
D03*
Y7053300D02*
D03*
Y7003300D02*
D03*
Y6953300D02*
D03*
X5682141Y7153300D02*
D03*
Y7103300D02*
D03*
Y7053300D02*
D03*
Y7003300D02*
D03*
Y6953300D02*
D03*
X8347141Y7153300D02*
D03*
Y7103300D02*
D03*
Y7053300D02*
D03*
Y7003300D02*
D03*
Y6953300D02*
D03*
X7922141Y7153300D02*
D03*
Y7103300D02*
D03*
Y7053300D02*
D03*
Y7003300D02*
D03*
Y6953300D02*
D03*
X1627140Y9053300D02*
D03*
Y9003300D02*
D03*
Y8953300D02*
D03*
Y8903300D02*
D03*
Y8853300D02*
D03*
X1202140Y9053300D02*
D03*
Y9003300D02*
D03*
Y8953300D02*
D03*
Y8903300D02*
D03*
Y8853300D02*
D03*
X3867140Y9053300D02*
D03*
Y9003300D02*
D03*
Y8953300D02*
D03*
Y8903300D02*
D03*
Y8853300D02*
D03*
X3442140Y9053300D02*
D03*
Y9003300D02*
D03*
Y8953300D02*
D03*
Y8903300D02*
D03*
Y8853300D02*
D03*
X6107140Y9053300D02*
D03*
Y9003300D02*
D03*
Y8953300D02*
D03*
Y8903300D02*
D03*
Y8853300D02*
D03*
X5682141Y9053300D02*
D03*
Y9003300D02*
D03*
Y8953300D02*
D03*
Y8903300D02*
D03*
Y8853300D02*
D03*
X8347141Y9053300D02*
D03*
Y9003300D02*
D03*
Y8953300D02*
D03*
Y8903300D02*
D03*
Y8853300D02*
D03*
X7922141Y9053300D02*
D03*
Y9003300D02*
D03*
Y8953300D02*
D03*
Y8903300D02*
D03*
Y8853300D02*
D03*
D18*
X2193480Y1192000D02*
D03*
Y1872000D02*
D03*
X4433480Y1192000D02*
D03*
Y1872000D02*
D03*
X6673480Y1192000D02*
D03*
Y1872000D02*
D03*
X8913480Y1192000D02*
D03*
Y1872000D02*
D03*
X2193480Y3092000D02*
D03*
Y3772000D02*
D03*
X4433480Y3092000D02*
D03*
Y3772000D02*
D03*
X6673480Y3092000D02*
D03*
Y3772000D02*
D03*
X8913480Y3092000D02*
D03*
Y3772000D02*
D03*
X2193480Y4992000D02*
D03*
Y5672000D02*
D03*
X4433480Y4992000D02*
D03*
Y5672000D02*
D03*
X6673480Y4992000D02*
D03*
Y5672000D02*
D03*
X8913480Y4992000D02*
D03*
Y5672000D02*
D03*
X2193480Y6892000D02*
D03*
Y7572000D02*
D03*
X4433480Y6892000D02*
D03*
Y7572000D02*
D03*
X6673480Y6892000D02*
D03*
Y7572000D02*
D03*
X8913480Y6892000D02*
D03*
Y7572000D02*
D03*
X2193480Y8792000D02*
D03*
Y9472000D02*
D03*
X4433480Y8792000D02*
D03*
Y9472000D02*
D03*
X6673480Y8792000D02*
D03*
Y9472000D02*
D03*
X8913480Y8792000D02*
D03*
Y9472000D02*
D03*
D19*
X2185980Y1402000D02*
D03*
Y1467000D02*
D03*
Y1532000D02*
D03*
Y1662000D02*
D03*
Y1597000D02*
D03*
X4425980Y1402000D02*
D03*
Y1467000D02*
D03*
Y1532000D02*
D03*
Y1662000D02*
D03*
Y1597000D02*
D03*
X6665980Y1402000D02*
D03*
Y1467000D02*
D03*
Y1532000D02*
D03*
Y1662000D02*
D03*
Y1597000D02*
D03*
X8905980Y1402000D02*
D03*
Y1467000D02*
D03*
Y1532000D02*
D03*
Y1662000D02*
D03*
Y1597000D02*
D03*
X2185980Y3302000D02*
D03*
Y3367000D02*
D03*
Y3432000D02*
D03*
Y3562000D02*
D03*
Y3497000D02*
D03*
X4425980Y3302000D02*
D03*
Y3367000D02*
D03*
Y3432000D02*
D03*
Y3562000D02*
D03*
Y3497000D02*
D03*
X6665980Y3302000D02*
D03*
Y3367000D02*
D03*
Y3432000D02*
D03*
Y3562000D02*
D03*
Y3497000D02*
D03*
X8905980Y3302000D02*
D03*
Y3367000D02*
D03*
Y3432000D02*
D03*
Y3562000D02*
D03*
Y3497000D02*
D03*
X2185980Y5202000D02*
D03*
Y5267000D02*
D03*
Y5332000D02*
D03*
Y5462000D02*
D03*
Y5397000D02*
D03*
X4425980Y5202000D02*
D03*
Y5267000D02*
D03*
Y5332000D02*
D03*
Y5462000D02*
D03*
Y5397000D02*
D03*
X6665980Y5202000D02*
D03*
Y5267000D02*
D03*
Y5332000D02*
D03*
Y5462000D02*
D03*
Y5397000D02*
D03*
X8905980Y5202000D02*
D03*
Y5267000D02*
D03*
Y5332000D02*
D03*
Y5462000D02*
D03*
Y5397000D02*
D03*
X2185980Y7102000D02*
D03*
Y7167000D02*
D03*
Y7232000D02*
D03*
Y7362000D02*
D03*
Y7297000D02*
D03*
X4425980Y7102000D02*
D03*
Y7167000D02*
D03*
Y7232000D02*
D03*
Y7362000D02*
D03*
Y7297000D02*
D03*
X6665980Y7102000D02*
D03*
Y7167000D02*
D03*
Y7232000D02*
D03*
Y7362000D02*
D03*
Y7297000D02*
D03*
X8905980Y7102000D02*
D03*
Y7167000D02*
D03*
Y7232000D02*
D03*
Y7362000D02*
D03*
Y7297000D02*
D03*
X2185980Y9002000D02*
D03*
Y9067000D02*
D03*
Y9132000D02*
D03*
Y9262000D02*
D03*
Y9197000D02*
D03*
X4425980Y9002000D02*
D03*
Y9067000D02*
D03*
Y9132000D02*
D03*
Y9262000D02*
D03*
Y9197000D02*
D03*
X6665980Y9002000D02*
D03*
Y9067000D02*
D03*
Y9132000D02*
D03*
Y9262000D02*
D03*
Y9197000D02*
D03*
X8905980Y9002000D02*
D03*
Y9067000D02*
D03*
Y9132000D02*
D03*
Y9262000D02*
D03*
Y9197000D02*
D03*
D20*
X913780Y1648165D02*
D03*
Y1483165D02*
D03*
X1202140Y1011776D02*
D03*
Y861776D02*
D03*
X1197800Y1792125D02*
D03*
Y1642125D02*
D03*
X3153780Y1648165D02*
D03*
Y1483165D02*
D03*
X3442140Y1011776D02*
D03*
Y861776D02*
D03*
X3437800Y1792125D02*
D03*
Y1642125D02*
D03*
X5393780Y1648165D02*
D03*
Y1483165D02*
D03*
X5682141Y1011776D02*
D03*
Y861776D02*
D03*
X5677800Y1792125D02*
D03*
Y1642125D02*
D03*
X7633780Y1648165D02*
D03*
Y1483165D02*
D03*
X7922141Y1011776D02*
D03*
Y861776D02*
D03*
X7917800Y1792125D02*
D03*
Y1642125D02*
D03*
X913780Y3548165D02*
D03*
Y3383165D02*
D03*
X1202140Y2911776D02*
D03*
Y2761776D02*
D03*
X1197800Y3692125D02*
D03*
Y3542125D02*
D03*
X3153780Y3548165D02*
D03*
Y3383165D02*
D03*
X3442140Y2911776D02*
D03*
Y2761776D02*
D03*
X3437800Y3692125D02*
D03*
Y3542125D02*
D03*
X5393780Y3548165D02*
D03*
Y3383165D02*
D03*
X5682141Y2911776D02*
D03*
Y2761776D02*
D03*
X5677800Y3692125D02*
D03*
Y3542125D02*
D03*
X7633780Y3548165D02*
D03*
Y3383165D02*
D03*
X7922141Y2911776D02*
D03*
Y2761776D02*
D03*
X7917800Y3692125D02*
D03*
Y3542125D02*
D03*
X913780Y5448165D02*
D03*
Y5283165D02*
D03*
X1202140Y4811776D02*
D03*
Y4661776D02*
D03*
X1197800Y5592125D02*
D03*
Y5442125D02*
D03*
X3153780Y5448165D02*
D03*
Y5283165D02*
D03*
X3442140Y4811776D02*
D03*
Y4661776D02*
D03*
X3437800Y5592125D02*
D03*
Y5442125D02*
D03*
X5393780Y5448165D02*
D03*
Y5283165D02*
D03*
X5682141Y4811776D02*
D03*
Y4661776D02*
D03*
X5677800Y5592125D02*
D03*
Y5442125D02*
D03*
X7633780Y5448165D02*
D03*
Y5283165D02*
D03*
X7922141Y4811776D02*
D03*
Y4661776D02*
D03*
X7917800Y5592125D02*
D03*
Y5442125D02*
D03*
X913780Y7348165D02*
D03*
Y7183165D02*
D03*
X1202140Y6711776D02*
D03*
Y6561776D02*
D03*
X1197800Y7492125D02*
D03*
Y7342125D02*
D03*
X3153780Y7348165D02*
D03*
Y7183165D02*
D03*
X3442140Y6711776D02*
D03*
Y6561776D02*
D03*
X3437800Y7492125D02*
D03*
Y7342125D02*
D03*
X5393780Y7348165D02*
D03*
Y7183165D02*
D03*
X5682141Y6711776D02*
D03*
Y6561776D02*
D03*
X5677800Y7492125D02*
D03*
Y7342125D02*
D03*
X7633780Y7348165D02*
D03*
Y7183165D02*
D03*
X7922141Y6711776D02*
D03*
Y6561776D02*
D03*
X7917800Y7492125D02*
D03*
Y7342125D02*
D03*
X913780Y9248165D02*
D03*
Y9083165D02*
D03*
X1202140Y8611776D02*
D03*
Y8461776D02*
D03*
X1197800Y9392125D02*
D03*
Y9242125D02*
D03*
X3153780Y9248165D02*
D03*
Y9083165D02*
D03*
X3442140Y8611776D02*
D03*
Y8461776D02*
D03*
X3437800Y9392125D02*
D03*
Y9242125D02*
D03*
X5393780Y9248165D02*
D03*
Y9083165D02*
D03*
X5682141Y8611776D02*
D03*
Y8461776D02*
D03*
X5677800Y9392125D02*
D03*
Y9242125D02*
D03*
X7633780Y9248165D02*
D03*
Y9083165D02*
D03*
X7922141Y8611776D02*
D03*
Y8461776D02*
D03*
X7917800Y9392125D02*
D03*
Y9242125D02*
D03*
D21*
X1647080Y1074127D02*
D03*
X1492080D02*
D03*
X3887080D02*
D03*
X3732080D02*
D03*
X6127080D02*
D03*
X5972081D02*
D03*
X8367081D02*
D03*
X8212081D02*
D03*
X1647080Y2974127D02*
D03*
X1492080D02*
D03*
X3887080D02*
D03*
X3732080D02*
D03*
X6127080D02*
D03*
X5972081D02*
D03*
X8367081D02*
D03*
X8212081D02*
D03*
X1647080Y4874127D02*
D03*
X1492080D02*
D03*
X3887080D02*
D03*
X3732080D02*
D03*
X6127080D02*
D03*
X5972081D02*
D03*
X8367081D02*
D03*
X8212081D02*
D03*
X1647080Y6774127D02*
D03*
X1492080D02*
D03*
X3887080D02*
D03*
X3732080D02*
D03*
X6127080D02*
D03*
X5972081D02*
D03*
X8367081D02*
D03*
X8212081D02*
D03*
X1647080Y8674127D02*
D03*
X1492080D02*
D03*
X3887080D02*
D03*
X3732080D02*
D03*
X6127080D02*
D03*
X5972081D02*
D03*
X8367081D02*
D03*
X8212081D02*
D03*
D22*
X1787639Y1100012D02*
D03*
Y1255011D02*
D03*
X4027639Y1100012D02*
D03*
Y1255011D02*
D03*
X6267639Y1100012D02*
D03*
Y1255011D02*
D03*
X8507639Y1100012D02*
D03*
Y1255011D02*
D03*
X1787639Y3000012D02*
D03*
Y3155011D02*
D03*
X4027639Y3000012D02*
D03*
Y3155011D02*
D03*
X6267639Y3000012D02*
D03*
Y3155011D02*
D03*
X8507639Y3000012D02*
D03*
Y3155011D02*
D03*
X1787639Y4900012D02*
D03*
Y5055011D02*
D03*
X4027639Y4900012D02*
D03*
Y5055011D02*
D03*
X6267639Y4900012D02*
D03*
Y5055011D02*
D03*
X8507639Y4900012D02*
D03*
Y5055011D02*
D03*
X1787639Y6800012D02*
D03*
Y6955011D02*
D03*
X4027639Y6800012D02*
D03*
Y6955011D02*
D03*
X6267639Y6800012D02*
D03*
Y6955011D02*
D03*
X8507639Y6800012D02*
D03*
Y6955011D02*
D03*
X1787639Y8700012D02*
D03*
Y8855011D02*
D03*
X4027639Y8700012D02*
D03*
Y8855011D02*
D03*
X6267639Y8700012D02*
D03*
Y8855011D02*
D03*
X8507639Y8700012D02*
D03*
Y8855011D02*
D03*
D23*
X1497460Y1767860D02*
D03*
X1647460D02*
D03*
X2063750Y781000D02*
D03*
X1913750D02*
D03*
X1497080Y936776D02*
D03*
X1647080D02*
D03*
X3737460Y1767860D02*
D03*
X3887460D02*
D03*
X4303750Y781000D02*
D03*
X4153750D02*
D03*
X3737080Y936776D02*
D03*
X3887080D02*
D03*
X5977460Y1767860D02*
D03*
X6127460D02*
D03*
X6543750Y781000D02*
D03*
X6393750D02*
D03*
X5977080Y936776D02*
D03*
X6127080D02*
D03*
X8217460Y1767860D02*
D03*
X8367460D02*
D03*
X8783750Y781000D02*
D03*
X8633750D02*
D03*
X8217080Y936776D02*
D03*
X8367081D02*
D03*
X1497460Y3667860D02*
D03*
X1647460D02*
D03*
X2063750Y2681000D02*
D03*
X1913750D02*
D03*
X1497080Y2836776D02*
D03*
X1647080D02*
D03*
X3737460Y3667860D02*
D03*
X3887460D02*
D03*
X4303750Y2681000D02*
D03*
X4153750D02*
D03*
X3737080Y2836776D02*
D03*
X3887080D02*
D03*
X5977460Y3667860D02*
D03*
X6127460D02*
D03*
X6543750Y2681000D02*
D03*
X6393750D02*
D03*
X5977080Y2836776D02*
D03*
X6127080D02*
D03*
X8217460Y3667860D02*
D03*
X8367460D02*
D03*
X8783750Y2681000D02*
D03*
X8633750D02*
D03*
X8217080Y2836776D02*
D03*
X8367081D02*
D03*
X1497460Y5567860D02*
D03*
X1647460D02*
D03*
X2063750Y4581000D02*
D03*
X1913750D02*
D03*
X1497080Y4736776D02*
D03*
X1647080D02*
D03*
X3737460Y5567860D02*
D03*
X3887460D02*
D03*
X4303750Y4581000D02*
D03*
X4153750D02*
D03*
X3737080Y4736776D02*
D03*
X3887080D02*
D03*
X5977460Y5567860D02*
D03*
X6127460D02*
D03*
X6543750Y4581000D02*
D03*
X6393750D02*
D03*
X5977080Y4736776D02*
D03*
X6127080D02*
D03*
X8217460Y5567860D02*
D03*
X8367460D02*
D03*
X8783750Y4581000D02*
D03*
X8633750D02*
D03*
X8217080Y4736776D02*
D03*
X8367081D02*
D03*
X1497460Y7467860D02*
D03*
X1647460D02*
D03*
X2063750Y6481000D02*
D03*
X1913750D02*
D03*
X1497080Y6636776D02*
D03*
X1647080D02*
D03*
X3737460Y7467860D02*
D03*
X3887460D02*
D03*
X4303750Y6481000D02*
D03*
X4153750D02*
D03*
X3737080Y6636776D02*
D03*
X3887080D02*
D03*
X5977460Y7467860D02*
D03*
X6127460D02*
D03*
X6543750Y6481000D02*
D03*
X6393750D02*
D03*
X5977080Y6636776D02*
D03*
X6127080D02*
D03*
X8217460Y7467860D02*
D03*
X8367460D02*
D03*
X8783750Y6481000D02*
D03*
X8633750D02*
D03*
X8217080Y6636776D02*
D03*
X8367081D02*
D03*
X1497460Y9367860D02*
D03*
X1647460D02*
D03*
X2063750Y8381000D02*
D03*
X1913750D02*
D03*
X1497080Y8536776D02*
D03*
X1647080D02*
D03*
X3737460Y9367860D02*
D03*
X3887460D02*
D03*
X4303750Y8381000D02*
D03*
X4153750D02*
D03*
X3737080Y8536776D02*
D03*
X3887080D02*
D03*
X5977460Y9367860D02*
D03*
X6127460D02*
D03*
X6543750Y8381000D02*
D03*
X6393750D02*
D03*
X5977080Y8536776D02*
D03*
X6127080D02*
D03*
X8217460Y9367860D02*
D03*
X8367460D02*
D03*
X8783750Y8381000D02*
D03*
X8633750D02*
D03*
X8217080Y8536776D02*
D03*
X8367081D02*
D03*
D24*
X1982848Y1499620D02*
D03*
Y1409620D02*
D03*
X2008248Y1687000D02*
D03*
Y1597001D02*
D03*
X1861440Y1692080D02*
D03*
Y1602080D02*
D03*
X4222848Y1499620D02*
D03*
Y1409620D02*
D03*
X4248248Y1687000D02*
D03*
Y1597001D02*
D03*
X4101440Y1692080D02*
D03*
Y1602080D02*
D03*
X6462848Y1499620D02*
D03*
Y1409620D02*
D03*
X6488248Y1687000D02*
D03*
Y1597001D02*
D03*
X6341440Y1692080D02*
D03*
Y1602080D02*
D03*
X8702848Y1499620D02*
D03*
Y1409620D02*
D03*
X8728248Y1687000D02*
D03*
Y1597001D02*
D03*
X8581440Y1692080D02*
D03*
Y1602080D02*
D03*
X1982848Y3399620D02*
D03*
Y3309620D02*
D03*
X2008248Y3587000D02*
D03*
Y3497001D02*
D03*
X1861440Y3592080D02*
D03*
Y3502080D02*
D03*
X4222848Y3399620D02*
D03*
Y3309620D02*
D03*
X4248248Y3587000D02*
D03*
Y3497001D02*
D03*
X4101440Y3592080D02*
D03*
Y3502080D02*
D03*
X6462848Y3399620D02*
D03*
Y3309620D02*
D03*
X6488248Y3587000D02*
D03*
Y3497001D02*
D03*
X6341440Y3592080D02*
D03*
Y3502080D02*
D03*
X8702848Y3399620D02*
D03*
Y3309620D02*
D03*
X8728248Y3587000D02*
D03*
Y3497001D02*
D03*
X8581440Y3592080D02*
D03*
Y3502080D02*
D03*
X1982848Y5299620D02*
D03*
Y5209620D02*
D03*
X2008248Y5487000D02*
D03*
Y5397001D02*
D03*
X1861440Y5492080D02*
D03*
Y5402080D02*
D03*
X4222848Y5299620D02*
D03*
Y5209620D02*
D03*
X4248248Y5487000D02*
D03*
Y5397001D02*
D03*
X4101440Y5492080D02*
D03*
Y5402080D02*
D03*
X6462848Y5299620D02*
D03*
Y5209620D02*
D03*
X6488248Y5487000D02*
D03*
Y5397001D02*
D03*
X6341440Y5492080D02*
D03*
Y5402080D02*
D03*
X8702848Y5299620D02*
D03*
Y5209620D02*
D03*
X8728248Y5487000D02*
D03*
Y5397001D02*
D03*
X8581440Y5492080D02*
D03*
Y5402080D02*
D03*
X1982848Y7199620D02*
D03*
Y7109620D02*
D03*
X2008248Y7387000D02*
D03*
Y7297001D02*
D03*
X1861440Y7392080D02*
D03*
Y7302080D02*
D03*
X4222848Y7199620D02*
D03*
Y7109620D02*
D03*
X4248248Y7387000D02*
D03*
Y7297001D02*
D03*
X4101440Y7392080D02*
D03*
Y7302080D02*
D03*
X6462848Y7199620D02*
D03*
Y7109620D02*
D03*
X6488248Y7387000D02*
D03*
Y7297001D02*
D03*
X6341440Y7392080D02*
D03*
Y7302080D02*
D03*
X8702848Y7199620D02*
D03*
Y7109620D02*
D03*
X8728248Y7387000D02*
D03*
Y7297001D02*
D03*
X8581440Y7392080D02*
D03*
Y7302080D02*
D03*
X1982848Y9099620D02*
D03*
Y9009620D02*
D03*
X2008248Y9287000D02*
D03*
Y9197001D02*
D03*
X1861440Y9292080D02*
D03*
Y9202080D02*
D03*
X4222848Y9099620D02*
D03*
Y9009620D02*
D03*
X4248248Y9287000D02*
D03*
Y9197001D02*
D03*
X4101440Y9292080D02*
D03*
Y9202080D02*
D03*
X6462848Y9099620D02*
D03*
Y9009620D02*
D03*
X6488248Y9287000D02*
D03*
Y9197001D02*
D03*
X6341440Y9292080D02*
D03*
Y9202080D02*
D03*
X8702848Y9099620D02*
D03*
Y9009620D02*
D03*
X8728248Y9287000D02*
D03*
Y9197001D02*
D03*
X8581440Y9292080D02*
D03*
Y9202080D02*
D03*
D25*
X1861140Y1812860D02*
D03*
X2021140D02*
D03*
X4101140D02*
D03*
X4261140D02*
D03*
X6341140D02*
D03*
X6501140D02*
D03*
X8581140D02*
D03*
X8741140D02*
D03*
X1861140Y3712860D02*
D03*
X2021140D02*
D03*
X4101140D02*
D03*
X4261140D02*
D03*
X6341140D02*
D03*
X6501140D02*
D03*
X8581140D02*
D03*
X8741140D02*
D03*
X1861140Y5612860D02*
D03*
X2021140D02*
D03*
X4101140D02*
D03*
X4261140D02*
D03*
X6341140D02*
D03*
X6501140D02*
D03*
X8581140D02*
D03*
X8741140D02*
D03*
X1861140Y7512860D02*
D03*
X2021140D02*
D03*
X4101140D02*
D03*
X4261140D02*
D03*
X6341140D02*
D03*
X6501140D02*
D03*
X8581140D02*
D03*
X8741140D02*
D03*
X1861140Y9412860D02*
D03*
X2021140D02*
D03*
X4101140D02*
D03*
X4261140D02*
D03*
X6341140D02*
D03*
X6501140D02*
D03*
X8581140D02*
D03*
X8741140D02*
D03*
D26*
X1202140Y478780D02*
Y861776D01*
Y478780D02*
X1205420Y475500D01*
X1017920Y1408982D02*
X1123602Y1303300D01*
X1202140D01*
X1202140Y1303300D01*
X1126759Y1353300D02*
X1202140D01*
X1092532Y1387527D02*
Y1524159D01*
Y1387527D02*
X1126759Y1353300D01*
X1017920Y1408982D02*
Y1584791D01*
X942430Y1619515D02*
X983196D01*
X1017920Y1584791D01*
X913780Y1648165D02*
X942430Y1619515D01*
X1885099Y809650D02*
X1913750Y781000D01*
X1885099Y809650D02*
Y874417D01*
X1977220Y1499620D02*
X1990870Y1513270D01*
X2063750Y781000D02*
X2244000D01*
X1860612Y898904D02*
Y1453300D01*
Y898904D02*
X1885099Y874417D01*
X1092532Y1524159D02*
X1164150Y1595776D01*
X1202140Y1403300D02*
X1287154D01*
X1468810Y1584956D02*
Y1739210D01*
X1287154Y1403300D02*
X1468810Y1584956D01*
X1164150Y1595776D02*
Y1613475D01*
X1192800Y1642125D01*
X1468810Y1739210D02*
X1497460Y1767860D01*
X1672075Y1792475D02*
Y1892155D01*
X1647460Y1767860D02*
X1672075Y1792475D01*
X1534890Y1420657D02*
X1552247Y1403300D01*
X1627140D01*
X1534890Y1420657D02*
Y1472530D01*
X1627140Y1403300D02*
X1627140Y1403300D01*
X1534890Y1472530D02*
X1571840Y1509480D01*
X1903641D01*
X1860612Y1453300D02*
X1898457D01*
X1627140D02*
X1860612D01*
X1898457D02*
X1931127Y1485970D01*
X1903641Y1509480D02*
X1977512Y1583351D01*
X1994599D01*
X1931127Y1485970D02*
X1969198D01*
X1994599Y1583351D02*
X2008248Y1597000D01*
X1202140Y1011776D02*
Y1253300D01*
X1192800Y1642125D02*
X1197800D01*
Y1917880D02*
X1205420Y1925500D01*
X1197800Y1792125D02*
Y1917880D01*
X2008248Y1597000D02*
X2185980D01*
X1672075Y1892155D02*
X1705420Y1925500D01*
X1990870Y1513270D02*
X2036976D01*
X2055706Y1532000D02*
X2185980D01*
X2036976Y1513270D02*
X2055706Y1532000D01*
X1969198Y1485970D02*
X1982848Y1499620D01*
X3442140Y478780D02*
Y861776D01*
Y478780D02*
X3445420Y475500D01*
X3257920Y1408982D02*
X3363602Y1303300D01*
X3442140D01*
X3442140Y1303300D01*
X3366759Y1353300D02*
X3442140D01*
X3332532Y1387527D02*
Y1524159D01*
Y1387527D02*
X3366759Y1353300D01*
X3257920Y1408982D02*
Y1584791D01*
X3182430Y1619515D02*
X3223196D01*
X3257920Y1584791D01*
X3153780Y1648165D02*
X3182430Y1619515D01*
X4125099Y809650D02*
X4153750Y781000D01*
X4125099Y809650D02*
Y874417D01*
X4217220Y1499620D02*
X4230870Y1513270D01*
X4303750Y781000D02*
X4484000D01*
X4100612Y898904D02*
Y1453300D01*
Y898904D02*
X4125099Y874417D01*
X3332532Y1524159D02*
X3404150Y1595776D01*
X3442140Y1403300D02*
X3527154D01*
X3708810Y1584956D02*
Y1739210D01*
X3527154Y1403300D02*
X3708810Y1584956D01*
X3404150Y1595776D02*
Y1613475D01*
X3432800Y1642125D01*
X3708810Y1739210D02*
X3737460Y1767860D01*
X3912075Y1792475D02*
Y1892155D01*
X3887460Y1767860D02*
X3912075Y1792475D01*
X3774890Y1420657D02*
X3792247Y1403300D01*
X3867140D01*
X3774890Y1420657D02*
Y1472530D01*
X3867140Y1403300D02*
X3867140Y1403300D01*
X3774890Y1472530D02*
X3811840Y1509480D01*
X4143641D01*
X4100612Y1453300D02*
X4138457D01*
X3867140D02*
X4100612D01*
X4138457D02*
X4171127Y1485970D01*
X4143641Y1509480D02*
X4217513Y1583351D01*
X4234599D01*
X4171127Y1485970D02*
X4209198D01*
X4234599Y1583351D02*
X4248248Y1597000D01*
X3442140Y1011776D02*
Y1253300D01*
X3432800Y1642125D02*
X3437800D01*
Y1917880D02*
X3445420Y1925500D01*
X3437800Y1792125D02*
Y1917880D01*
X4248248Y1597000D02*
X4425980D01*
X3912075Y1892155D02*
X3945420Y1925500D01*
X4230870Y1513270D02*
X4276976D01*
X4295706Y1532000D02*
X4425980D01*
X4276976Y1513270D02*
X4295706Y1532000D01*
X4209198Y1485970D02*
X4222848Y1499620D01*
X5682141Y478780D02*
Y861776D01*
Y478780D02*
X5685420Y475500D01*
X5497920Y1408982D02*
X5603602Y1303300D01*
X5682140D01*
X5682141Y1303300D01*
X5606759Y1353300D02*
X5682141D01*
X5572532Y1387527D02*
Y1524159D01*
Y1387527D02*
X5606759Y1353300D01*
X5497920Y1408982D02*
Y1584791D01*
X5422430Y1619515D02*
X5463196D01*
X5497920Y1584791D01*
X5393780Y1648165D02*
X5422430Y1619515D01*
X6365100Y809650D02*
X6393750Y781000D01*
X6365100Y809650D02*
Y874417D01*
X6457220Y1499620D02*
X6470870Y1513270D01*
X6543750Y781000D02*
X6724000D01*
X6340612Y898904D02*
Y1453300D01*
Y898904D02*
X6365100Y874417D01*
X5572532Y1524159D02*
X5644150Y1595776D01*
X5682141Y1403300D02*
X5767154D01*
X5948810Y1584956D02*
Y1739210D01*
X5767154Y1403300D02*
X5948810Y1584956D01*
X5644150Y1595776D02*
Y1613475D01*
X5672800Y1642125D01*
X5948810Y1739210D02*
X5977460Y1767860D01*
X6152075Y1792475D02*
Y1892155D01*
X6127460Y1767860D02*
X6152075Y1792475D01*
X6014890Y1420657D02*
X6032247Y1403300D01*
X6107140D01*
X6014890Y1420657D02*
Y1472530D01*
X6107140Y1403300D02*
X6107140Y1403300D01*
X6014890Y1472530D02*
X6051840Y1509480D01*
X6383642D01*
X6340612Y1453300D02*
X6378457D01*
X6107140D02*
X6340612D01*
X6378457D02*
X6411127Y1485970D01*
X6383642Y1509480D02*
X6457513Y1583351D01*
X6474599D01*
X6411127Y1485970D02*
X6449198D01*
X6474599Y1583351D02*
X6488248Y1597000D01*
X5682141Y1011776D02*
Y1253300D01*
X5672800Y1642125D02*
X5677800D01*
Y1917880D02*
X5685420Y1925500D01*
X5677800Y1792125D02*
Y1917880D01*
X6488248Y1597000D02*
X6665980D01*
X6152075Y1892155D02*
X6185420Y1925500D01*
X6470870Y1513270D02*
X6516976D01*
X6535706Y1532000D02*
X6665980D01*
X6516976Y1513270D02*
X6535706Y1532000D01*
X6449198Y1485970D02*
X6462848Y1499620D01*
X7922141Y478780D02*
Y861776D01*
Y478780D02*
X7925420Y475500D01*
X7737920Y1408982D02*
X7843602Y1303300D01*
X7922140D01*
X7922141Y1303300D01*
X7846759Y1353300D02*
X7922141D01*
X7812532Y1387527D02*
Y1524159D01*
Y1387527D02*
X7846759Y1353300D01*
X7737920Y1408982D02*
Y1584791D01*
X7662430Y1619515D02*
X7703196D01*
X7737920Y1584791D01*
X7633780Y1648165D02*
X7662430Y1619515D01*
X8605100Y809650D02*
X8633750Y781000D01*
X8605100Y809650D02*
Y874417D01*
X8697220Y1499620D02*
X8710870Y1513270D01*
X8783750Y781000D02*
X8964000D01*
X8580612Y898904D02*
Y1453300D01*
Y898904D02*
X8605100Y874417D01*
X7812532Y1524159D02*
X7884150Y1595776D01*
X7922141Y1403300D02*
X8007154D01*
X8188810Y1584956D02*
Y1739210D01*
X8007154Y1403300D02*
X8188810Y1584956D01*
X7884150Y1595776D02*
Y1613475D01*
X7912800Y1642125D01*
X8188810Y1739210D02*
X8217460Y1767860D01*
X8392075Y1792475D02*
Y1892155D01*
X8367460Y1767860D02*
X8392075Y1792475D01*
X8254891Y1420657D02*
X8272247Y1403300D01*
X8347140D01*
X8254891Y1420657D02*
Y1472530D01*
X8347140Y1403300D02*
X8347141Y1403300D01*
X8254891Y1472530D02*
X8291840Y1509480D01*
X8623642D01*
X8580612Y1453300D02*
X8618457D01*
X8347141D02*
X8580612D01*
X8618457D02*
X8651127Y1485970D01*
X8623642Y1509480D02*
X8697513Y1583351D01*
X8714599D01*
X8651127Y1485970D02*
X8689199D01*
X8714599Y1583351D02*
X8728248Y1597000D01*
X7922141Y1011776D02*
Y1253300D01*
X7912800Y1642125D02*
X7917800D01*
Y1917880D02*
X7925420Y1925500D01*
X7917800Y1792125D02*
Y1917880D01*
X8728248Y1597000D02*
X8905980D01*
X8392075Y1892155D02*
X8425420Y1925500D01*
X8710870Y1513270D02*
X8756976D01*
X8775706Y1532000D02*
X8905980D01*
X8756976Y1513270D02*
X8775706Y1532000D01*
X8689199Y1485970D02*
X8702848Y1499620D01*
X1202140Y2378780D02*
Y2761776D01*
Y2378780D02*
X1205420Y2375500D01*
X1017920Y3308982D02*
X1123602Y3203300D01*
X1202140D01*
X1202140Y3203300D01*
X1126759Y3253300D02*
X1202140D01*
X1092532Y3287527D02*
Y3424159D01*
Y3287527D02*
X1126759Y3253300D01*
X1017920Y3308982D02*
Y3484791D01*
X942430Y3519515D02*
X983196D01*
X1017920Y3484791D01*
X913780Y3548165D02*
X942430Y3519515D01*
X1885099Y2709650D02*
X1913750Y2681000D01*
X1885099Y2709650D02*
Y2774417D01*
X1977220Y3399620D02*
X1990870Y3413270D01*
X2063750Y2681000D02*
X2244000D01*
X1860612Y2798904D02*
Y3353300D01*
Y2798904D02*
X1885099Y2774417D01*
X1092532Y3424159D02*
X1164150Y3495776D01*
X1202140Y3303300D02*
X1287154D01*
X1468810Y3484956D02*
Y3639210D01*
X1287154Y3303300D02*
X1468810Y3484956D01*
X1164150Y3495776D02*
Y3513475D01*
X1192800Y3542125D01*
X1468810Y3639210D02*
X1497460Y3667860D01*
X1672075Y3692475D02*
Y3792155D01*
X1647460Y3667860D02*
X1672075Y3692475D01*
X1534890Y3320657D02*
X1552247Y3303300D01*
X1627140D01*
X1534890Y3320657D02*
Y3372530D01*
X1627140Y3303300D02*
X1627140Y3303300D01*
X1534890Y3372530D02*
X1571840Y3409480D01*
X1903641D01*
X1860612Y3353300D02*
X1898457D01*
X1627140D02*
X1860612D01*
X1898457D02*
X1931127Y3385970D01*
X1903641Y3409480D02*
X1977512Y3483351D01*
X1994599D01*
X1931127Y3385970D02*
X1969198D01*
X1994599Y3483351D02*
X2008248Y3497000D01*
X1202140Y2911776D02*
Y3153300D01*
X1192800Y3542125D02*
X1197800D01*
Y3817880D02*
X1205420Y3825500D01*
X1197800Y3692125D02*
Y3817880D01*
X2008248Y3497000D02*
X2185980D01*
X1672075Y3792155D02*
X1705420Y3825500D01*
X1990870Y3413270D02*
X2036976D01*
X2055706Y3432000D02*
X2185980D01*
X2036976Y3413270D02*
X2055706Y3432000D01*
X1969198Y3385970D02*
X1982848Y3399620D01*
X3442140Y2378780D02*
Y2761776D01*
Y2378780D02*
X3445420Y2375500D01*
X3257920Y3308982D02*
X3363602Y3203300D01*
X3442140D01*
X3442140Y3203300D01*
X3366759Y3253300D02*
X3442140D01*
X3332532Y3287527D02*
Y3424159D01*
Y3287527D02*
X3366759Y3253300D01*
X3257920Y3308982D02*
Y3484791D01*
X3182430Y3519515D02*
X3223196D01*
X3257920Y3484791D01*
X3153780Y3548165D02*
X3182430Y3519515D01*
X4125099Y2709650D02*
X4153750Y2681000D01*
X4125099Y2709650D02*
Y2774417D01*
X4217220Y3399620D02*
X4230870Y3413270D01*
X4303750Y2681000D02*
X4484000D01*
X4100612Y2798904D02*
Y3353300D01*
Y2798904D02*
X4125099Y2774417D01*
X3332532Y3424159D02*
X3404150Y3495776D01*
X3442140Y3303300D02*
X3527154D01*
X3708810Y3484956D02*
Y3639210D01*
X3527154Y3303300D02*
X3708810Y3484956D01*
X3404150Y3495776D02*
Y3513475D01*
X3432800Y3542125D01*
X3708810Y3639210D02*
X3737460Y3667860D01*
X3912075Y3692475D02*
Y3792155D01*
X3887460Y3667860D02*
X3912075Y3692475D01*
X3774890Y3320657D02*
X3792247Y3303300D01*
X3867140D01*
X3774890Y3320657D02*
Y3372530D01*
X3867140Y3303300D02*
X3867140Y3303300D01*
X3774890Y3372530D02*
X3811840Y3409480D01*
X4143641D01*
X4100612Y3353300D02*
X4138457D01*
X3867140D02*
X4100612D01*
X4138457D02*
X4171127Y3385970D01*
X4143641Y3409480D02*
X4217513Y3483351D01*
X4234599D01*
X4171127Y3385970D02*
X4209198D01*
X4234599Y3483351D02*
X4248248Y3497000D01*
X3442140Y2911776D02*
Y3153300D01*
X3432800Y3542125D02*
X3437800D01*
Y3817880D02*
X3445420Y3825500D01*
X3437800Y3692125D02*
Y3817880D01*
X4248248Y3497000D02*
X4425980D01*
X3912075Y3792155D02*
X3945420Y3825500D01*
X4230870Y3413270D02*
X4276976D01*
X4295706Y3432000D02*
X4425980D01*
X4276976Y3413270D02*
X4295706Y3432000D01*
X4209198Y3385970D02*
X4222848Y3399620D01*
X5682141Y2378780D02*
Y2761776D01*
Y2378780D02*
X5685420Y2375500D01*
X5497920Y3308982D02*
X5603602Y3203300D01*
X5682140D01*
X5682141Y3203300D01*
X5606759Y3253300D02*
X5682141D01*
X5572532Y3287527D02*
Y3424159D01*
Y3287527D02*
X5606759Y3253300D01*
X5497920Y3308982D02*
Y3484791D01*
X5422430Y3519515D02*
X5463196D01*
X5497920Y3484791D01*
X5393780Y3548165D02*
X5422430Y3519515D01*
X6365100Y2709650D02*
X6393750Y2681000D01*
X6365100Y2709650D02*
Y2774417D01*
X6457220Y3399620D02*
X6470870Y3413270D01*
X6543750Y2681000D02*
X6724000D01*
X6340612Y2798904D02*
Y3353300D01*
Y2798904D02*
X6365100Y2774417D01*
X5572532Y3424159D02*
X5644150Y3495776D01*
X5682141Y3303300D02*
X5767154D01*
X5948810Y3484956D02*
Y3639210D01*
X5767154Y3303300D02*
X5948810Y3484956D01*
X5644150Y3495776D02*
Y3513475D01*
X5672800Y3542125D01*
X5948810Y3639210D02*
X5977460Y3667860D01*
X6152075Y3692475D02*
Y3792155D01*
X6127460Y3667860D02*
X6152075Y3692475D01*
X6014890Y3320657D02*
X6032247Y3303300D01*
X6107140D01*
X6014890Y3320657D02*
Y3372530D01*
X6107140Y3303300D02*
X6107140Y3303300D01*
X6014890Y3372530D02*
X6051840Y3409480D01*
X6383642D01*
X6340612Y3353300D02*
X6378457D01*
X6107140D02*
X6340612D01*
X6378457D02*
X6411127Y3385970D01*
X6383642Y3409480D02*
X6457513Y3483351D01*
X6474599D01*
X6411127Y3385970D02*
X6449198D01*
X6474599Y3483351D02*
X6488248Y3497000D01*
X5682141Y2911776D02*
Y3153300D01*
X5672800Y3542125D02*
X5677800D01*
Y3817880D02*
X5685420Y3825500D01*
X5677800Y3692125D02*
Y3817880D01*
X6488248Y3497000D02*
X6665980D01*
X6152075Y3792155D02*
X6185420Y3825500D01*
X6470870Y3413270D02*
X6516976D01*
X6535706Y3432000D02*
X6665980D01*
X6516976Y3413270D02*
X6535706Y3432000D01*
X6449198Y3385970D02*
X6462848Y3399620D01*
X7922141Y2378780D02*
Y2761776D01*
Y2378780D02*
X7925420Y2375500D01*
X7737920Y3308982D02*
X7843602Y3203300D01*
X7922140D01*
X7922141Y3203300D01*
X7846759Y3253300D02*
X7922141D01*
X7812532Y3287527D02*
Y3424159D01*
Y3287527D02*
X7846759Y3253300D01*
X7737920Y3308982D02*
Y3484791D01*
X7662430Y3519515D02*
X7703196D01*
X7737920Y3484791D01*
X7633780Y3548165D02*
X7662430Y3519515D01*
X8605100Y2709650D02*
X8633750Y2681000D01*
X8605100Y2709650D02*
Y2774417D01*
X8697220Y3399620D02*
X8710870Y3413270D01*
X8783750Y2681000D02*
X8964000D01*
X8580612Y2798904D02*
Y3353300D01*
Y2798904D02*
X8605100Y2774417D01*
X7812532Y3424159D02*
X7884150Y3495776D01*
X7922141Y3303300D02*
X8007154D01*
X8188810Y3484956D02*
Y3639210D01*
X8007154Y3303300D02*
X8188810Y3484956D01*
X7884150Y3495776D02*
Y3513475D01*
X7912800Y3542125D01*
X8188810Y3639210D02*
X8217460Y3667860D01*
X8392075Y3692475D02*
Y3792155D01*
X8367460Y3667860D02*
X8392075Y3692475D01*
X8254891Y3320657D02*
X8272247Y3303300D01*
X8347140D01*
X8254891Y3320657D02*
Y3372530D01*
X8347140Y3303300D02*
X8347141Y3303300D01*
X8254891Y3372530D02*
X8291840Y3409480D01*
X8623642D01*
X8580612Y3353300D02*
X8618457D01*
X8347141D02*
X8580612D01*
X8618457D02*
X8651127Y3385970D01*
X8623642Y3409480D02*
X8697513Y3483351D01*
X8714599D01*
X8651127Y3385970D02*
X8689199D01*
X8714599Y3483351D02*
X8728248Y3497000D01*
X7922141Y2911776D02*
Y3153300D01*
X7912800Y3542125D02*
X7917800D01*
Y3817880D02*
X7925420Y3825500D01*
X7917800Y3692125D02*
Y3817880D01*
X8728248Y3497000D02*
X8905980D01*
X8392075Y3792155D02*
X8425420Y3825500D01*
X8710870Y3413270D02*
X8756976D01*
X8775706Y3432000D02*
X8905980D01*
X8756976Y3413270D02*
X8775706Y3432000D01*
X8689199Y3385970D02*
X8702848Y3399620D01*
X1202140Y4278780D02*
Y4661776D01*
Y4278780D02*
X1205420Y4275500D01*
X1017920Y5208982D02*
X1123602Y5103300D01*
X1202140D01*
X1202140Y5103300D01*
X1126759Y5153300D02*
X1202140D01*
X1092532Y5187527D02*
Y5324159D01*
Y5187527D02*
X1126759Y5153300D01*
X1017920Y5208982D02*
Y5384791D01*
X942430Y5419515D02*
X983196D01*
X1017920Y5384791D01*
X913780Y5448165D02*
X942430Y5419515D01*
X1885099Y4609650D02*
X1913750Y4581000D01*
X1885099Y4609650D02*
Y4674417D01*
X1977220Y5299620D02*
X1990870Y5313270D01*
X2063750Y4581000D02*
X2244000D01*
X1860612Y4698904D02*
Y5253300D01*
Y4698904D02*
X1885099Y4674417D01*
X1092532Y5324159D02*
X1164150Y5395776D01*
X1202140Y5203300D02*
X1287154D01*
X1468810Y5384956D02*
Y5539210D01*
X1287154Y5203300D02*
X1468810Y5384956D01*
X1164150Y5395776D02*
Y5413475D01*
X1192800Y5442125D01*
X1468810Y5539210D02*
X1497460Y5567860D01*
X1672075Y5592475D02*
Y5692155D01*
X1647460Y5567860D02*
X1672075Y5592475D01*
X1534890Y5220657D02*
X1552247Y5203300D01*
X1627140D01*
X1534890Y5220657D02*
Y5272530D01*
X1627140Y5203300D02*
X1627140Y5203300D01*
X1534890Y5272530D02*
X1571840Y5309480D01*
X1903641D01*
X1860612Y5253300D02*
X1898457D01*
X1627140D02*
X1860612D01*
X1898457D02*
X1931127Y5285970D01*
X1903641Y5309480D02*
X1977512Y5383351D01*
X1994599D01*
X1931127Y5285970D02*
X1969198D01*
X1994599Y5383351D02*
X2008248Y5397000D01*
X1202140Y4811776D02*
Y5053300D01*
X1192800Y5442125D02*
X1197800D01*
Y5717880D02*
X1205420Y5725500D01*
X1197800Y5592125D02*
Y5717880D01*
X2008248Y5397000D02*
X2185980D01*
X1672075Y5692155D02*
X1705420Y5725500D01*
X1990870Y5313270D02*
X2036976D01*
X2055706Y5332000D02*
X2185980D01*
X2036976Y5313270D02*
X2055706Y5332000D01*
X1969198Y5285970D02*
X1982848Y5299620D01*
X3442140Y4278780D02*
Y4661776D01*
Y4278780D02*
X3445420Y4275500D01*
X3257920Y5208982D02*
X3363602Y5103300D01*
X3442140D01*
X3442140Y5103300D01*
X3366759Y5153300D02*
X3442140D01*
X3332532Y5187527D02*
Y5324159D01*
Y5187527D02*
X3366759Y5153300D01*
X3257920Y5208982D02*
Y5384791D01*
X3182430Y5419515D02*
X3223196D01*
X3257920Y5384791D01*
X3153780Y5448165D02*
X3182430Y5419515D01*
X4125099Y4609650D02*
X4153750Y4581000D01*
X4125099Y4609650D02*
Y4674417D01*
X4217220Y5299620D02*
X4230870Y5313270D01*
X4303750Y4581000D02*
X4484000D01*
X4100612Y4698904D02*
Y5253300D01*
Y4698904D02*
X4125099Y4674417D01*
X3332532Y5324159D02*
X3404150Y5395776D01*
X3442140Y5203300D02*
X3527154D01*
X3708810Y5384956D02*
Y5539210D01*
X3527154Y5203300D02*
X3708810Y5384956D01*
X3404150Y5395776D02*
Y5413475D01*
X3432800Y5442125D01*
X3708810Y5539210D02*
X3737460Y5567860D01*
X3912075Y5592475D02*
Y5692155D01*
X3887460Y5567860D02*
X3912075Y5592475D01*
X3774890Y5220657D02*
X3792247Y5203300D01*
X3867140D01*
X3774890Y5220657D02*
Y5272530D01*
X3867140Y5203300D02*
X3867140Y5203300D01*
X3774890Y5272530D02*
X3811840Y5309480D01*
X4143641D01*
X4100612Y5253300D02*
X4138457D01*
X3867140D02*
X4100612D01*
X4138457D02*
X4171127Y5285970D01*
X4143641Y5309480D02*
X4217513Y5383351D01*
X4234599D01*
X4171127Y5285970D02*
X4209198D01*
X4234599Y5383351D02*
X4248248Y5397000D01*
X3442140Y4811776D02*
Y5053300D01*
X3432800Y5442125D02*
X3437800D01*
Y5717880D02*
X3445420Y5725500D01*
X3437800Y5592125D02*
Y5717880D01*
X4248248Y5397000D02*
X4425980D01*
X3912075Y5692155D02*
X3945420Y5725500D01*
X4230870Y5313270D02*
X4276976D01*
X4295706Y5332000D02*
X4425980D01*
X4276976Y5313270D02*
X4295706Y5332000D01*
X4209198Y5285970D02*
X4222848Y5299620D01*
X5682141Y4278780D02*
Y4661776D01*
Y4278780D02*
X5685420Y4275500D01*
X5497920Y5208982D02*
X5603602Y5103300D01*
X5682140D01*
X5682141Y5103300D01*
X5606759Y5153300D02*
X5682141D01*
X5572532Y5187527D02*
Y5324159D01*
Y5187527D02*
X5606759Y5153300D01*
X5497920Y5208982D02*
Y5384791D01*
X5422430Y5419515D02*
X5463196D01*
X5497920Y5384791D01*
X5393780Y5448165D02*
X5422430Y5419515D01*
X6365100Y4609650D02*
X6393750Y4581000D01*
X6365100Y4609650D02*
Y4674417D01*
X6457220Y5299620D02*
X6470870Y5313270D01*
X6543750Y4581000D02*
X6724000D01*
X6340612Y4698904D02*
Y5253300D01*
Y4698904D02*
X6365100Y4674417D01*
X5572532Y5324159D02*
X5644150Y5395776D01*
X5682141Y5203300D02*
X5767154D01*
X5948810Y5384956D02*
Y5539210D01*
X5767154Y5203300D02*
X5948810Y5384956D01*
X5644150Y5395776D02*
Y5413475D01*
X5672800Y5442125D01*
X5948810Y5539210D02*
X5977460Y5567860D01*
X6152075Y5592475D02*
Y5692155D01*
X6127460Y5567860D02*
X6152075Y5592475D01*
X6014890Y5220657D02*
X6032247Y5203300D01*
X6107140D01*
X6014890Y5220657D02*
Y5272530D01*
X6107140Y5203300D02*
X6107140Y5203300D01*
X6014890Y5272530D02*
X6051840Y5309480D01*
X6383642D01*
X6340612Y5253300D02*
X6378457D01*
X6107140D02*
X6340612D01*
X6378457D02*
X6411127Y5285970D01*
X6383642Y5309480D02*
X6457513Y5383351D01*
X6474599D01*
X6411127Y5285970D02*
X6449198D01*
X6474599Y5383351D02*
X6488248Y5397000D01*
X5682141Y4811776D02*
Y5053300D01*
X5672800Y5442125D02*
X5677800D01*
Y5717880D02*
X5685420Y5725500D01*
X5677800Y5592125D02*
Y5717880D01*
X6488248Y5397000D02*
X6665980D01*
X6152075Y5692155D02*
X6185420Y5725500D01*
X6470870Y5313270D02*
X6516976D01*
X6535706Y5332000D02*
X6665980D01*
X6516976Y5313270D02*
X6535706Y5332000D01*
X6449198Y5285970D02*
X6462848Y5299620D01*
X7922141Y4278780D02*
Y4661776D01*
Y4278780D02*
X7925420Y4275500D01*
X7737920Y5208982D02*
X7843602Y5103300D01*
X7922140D01*
X7922141Y5103300D01*
X7846759Y5153300D02*
X7922141D01*
X7812532Y5187527D02*
Y5324159D01*
Y5187527D02*
X7846759Y5153300D01*
X7737920Y5208982D02*
Y5384791D01*
X7662430Y5419515D02*
X7703196D01*
X7737920Y5384791D01*
X7633780Y5448165D02*
X7662430Y5419515D01*
X8605100Y4609650D02*
X8633750Y4581000D01*
X8605100Y4609650D02*
Y4674417D01*
X8697220Y5299620D02*
X8710870Y5313270D01*
X8783750Y4581000D02*
X8964000D01*
X8580612Y4698904D02*
Y5253300D01*
Y4698904D02*
X8605100Y4674417D01*
X7812532Y5324159D02*
X7884150Y5395776D01*
X7922141Y5203300D02*
X8007154D01*
X8188810Y5384956D02*
Y5539210D01*
X8007154Y5203300D02*
X8188810Y5384956D01*
X7884150Y5395776D02*
Y5413475D01*
X7912800Y5442125D01*
X8188810Y5539210D02*
X8217460Y5567860D01*
X8392075Y5592475D02*
Y5692155D01*
X8367460Y5567860D02*
X8392075Y5592475D01*
X8254891Y5220657D02*
X8272247Y5203300D01*
X8347140D01*
X8254891Y5220657D02*
Y5272530D01*
X8347140Y5203300D02*
X8347141Y5203300D01*
X8254891Y5272530D02*
X8291840Y5309480D01*
X8623642D01*
X8580612Y5253300D02*
X8618457D01*
X8347141D02*
X8580612D01*
X8618457D02*
X8651127Y5285970D01*
X8623642Y5309480D02*
X8697513Y5383351D01*
X8714599D01*
X8651127Y5285970D02*
X8689199D01*
X8714599Y5383351D02*
X8728248Y5397000D01*
X7922141Y4811776D02*
Y5053300D01*
X7912800Y5442125D02*
X7917800D01*
Y5717880D02*
X7925420Y5725500D01*
X7917800Y5592125D02*
Y5717880D01*
X8728248Y5397000D02*
X8905980D01*
X8392075Y5692155D02*
X8425420Y5725500D01*
X8710870Y5313270D02*
X8756976D01*
X8775706Y5332000D02*
X8905980D01*
X8756976Y5313270D02*
X8775706Y5332000D01*
X8689199Y5285970D02*
X8702848Y5299620D01*
X1202140Y6178780D02*
Y6561776D01*
Y6178780D02*
X1205420Y6175500D01*
X1017920Y7108982D02*
X1123602Y7003300D01*
X1202140D01*
X1202140Y7003300D01*
X1126759Y7053300D02*
X1202140D01*
X1092532Y7087527D02*
Y7224159D01*
Y7087527D02*
X1126759Y7053300D01*
X1017920Y7108982D02*
Y7284791D01*
X942430Y7319515D02*
X983196D01*
X1017920Y7284791D01*
X913780Y7348165D02*
X942430Y7319515D01*
X1885099Y6509650D02*
X1913750Y6481000D01*
X1885099Y6509650D02*
Y6574417D01*
X1977220Y7199620D02*
X1990870Y7213270D01*
X2063750Y6481000D02*
X2244000D01*
X1860612Y6598904D02*
Y7153300D01*
Y6598904D02*
X1885099Y6574417D01*
X1092532Y7224159D02*
X1164150Y7295776D01*
X1202140Y7103300D02*
X1287154D01*
X1468810Y7284956D02*
Y7439210D01*
X1287154Y7103300D02*
X1468810Y7284956D01*
X1164150Y7295776D02*
Y7313475D01*
X1192800Y7342125D01*
X1468810Y7439210D02*
X1497460Y7467860D01*
X1672075Y7492475D02*
Y7592155D01*
X1647460Y7467860D02*
X1672075Y7492475D01*
X1534890Y7120657D02*
X1552247Y7103300D01*
X1627140D01*
X1534890Y7120657D02*
Y7172530D01*
X1627140Y7103300D02*
X1627140Y7103300D01*
X1534890Y7172530D02*
X1571840Y7209480D01*
X1903641D01*
X1860612Y7153300D02*
X1898457D01*
X1627140D02*
X1860612D01*
X1898457D02*
X1931127Y7185970D01*
X1903641Y7209480D02*
X1977512Y7283351D01*
X1994599D01*
X1931127Y7185970D02*
X1969198D01*
X1994599Y7283351D02*
X2008248Y7297000D01*
X1202140Y6711776D02*
Y6953300D01*
X1192800Y7342125D02*
X1197800D01*
Y7617880D02*
X1205420Y7625500D01*
X1197800Y7492125D02*
Y7617880D01*
X2008248Y7297000D02*
X2185980D01*
X1672075Y7592155D02*
X1705420Y7625500D01*
X1990870Y7213270D02*
X2036976D01*
X2055706Y7232000D02*
X2185980D01*
X2036976Y7213270D02*
X2055706Y7232000D01*
X1969198Y7185970D02*
X1982848Y7199620D01*
X3442140Y6178780D02*
Y6561776D01*
Y6178780D02*
X3445420Y6175500D01*
X3257920Y7108982D02*
X3363602Y7003300D01*
X3442140D01*
X3442140Y7003300D01*
X3366759Y7053300D02*
X3442140D01*
X3332532Y7087527D02*
Y7224159D01*
Y7087527D02*
X3366759Y7053300D01*
X3257920Y7108982D02*
Y7284791D01*
X3182430Y7319515D02*
X3223196D01*
X3257920Y7284791D01*
X3153780Y7348165D02*
X3182430Y7319515D01*
X4125099Y6509650D02*
X4153750Y6481000D01*
X4125099Y6509650D02*
Y6574417D01*
X4217220Y7199620D02*
X4230870Y7213270D01*
X4303750Y6481000D02*
X4484000D01*
X4100612Y6598904D02*
Y7153300D01*
Y6598904D02*
X4125099Y6574417D01*
X3332532Y7224159D02*
X3404150Y7295776D01*
X3442140Y7103300D02*
X3527154D01*
X3708810Y7284956D02*
Y7439210D01*
X3527154Y7103300D02*
X3708810Y7284956D01*
X3404150Y7295776D02*
Y7313475D01*
X3432800Y7342125D01*
X3708810Y7439210D02*
X3737460Y7467860D01*
X3912075Y7492475D02*
Y7592155D01*
X3887460Y7467860D02*
X3912075Y7492475D01*
X3774890Y7120657D02*
X3792247Y7103300D01*
X3867140D01*
X3774890Y7120657D02*
Y7172530D01*
X3867140Y7103300D02*
X3867140Y7103300D01*
X3774890Y7172530D02*
X3811840Y7209480D01*
X4143641D01*
X4100612Y7153300D02*
X4138457D01*
X3867140D02*
X4100612D01*
X4138457D02*
X4171127Y7185970D01*
X4143641Y7209480D02*
X4217513Y7283351D01*
X4234599D01*
X4171127Y7185970D02*
X4209198D01*
X4234599Y7283351D02*
X4248248Y7297000D01*
X3442140Y6711776D02*
Y6953300D01*
X3432800Y7342125D02*
X3437800D01*
Y7617880D02*
X3445420Y7625500D01*
X3437800Y7492125D02*
Y7617880D01*
X4248248Y7297000D02*
X4425980D01*
X3912075Y7592155D02*
X3945420Y7625500D01*
X4230870Y7213270D02*
X4276976D01*
X4295706Y7232000D02*
X4425980D01*
X4276976Y7213270D02*
X4295706Y7232000D01*
X4209198Y7185970D02*
X4222848Y7199620D01*
X5682141Y6178780D02*
Y6561776D01*
Y6178780D02*
X5685420Y6175500D01*
X5497920Y7108982D02*
X5603602Y7003300D01*
X5682140D01*
X5682141Y7003300D01*
X5606759Y7053300D02*
X5682141D01*
X5572532Y7087527D02*
Y7224159D01*
Y7087527D02*
X5606759Y7053300D01*
X5497920Y7108982D02*
Y7284791D01*
X5422430Y7319515D02*
X5463196D01*
X5497920Y7284791D01*
X5393780Y7348165D02*
X5422430Y7319515D01*
X6365100Y6509650D02*
X6393750Y6481000D01*
X6365100Y6509650D02*
Y6574417D01*
X6457220Y7199620D02*
X6470870Y7213270D01*
X6543750Y6481000D02*
X6724000D01*
X6340612Y6598904D02*
Y7153300D01*
Y6598904D02*
X6365100Y6574417D01*
X5572532Y7224159D02*
X5644150Y7295776D01*
X5682141Y7103300D02*
X5767154D01*
X5948810Y7284956D02*
Y7439210D01*
X5767154Y7103300D02*
X5948810Y7284956D01*
X5644150Y7295776D02*
Y7313475D01*
X5672800Y7342125D01*
X5948810Y7439210D02*
X5977460Y7467860D01*
X6152075Y7492475D02*
Y7592155D01*
X6127460Y7467860D02*
X6152075Y7492475D01*
X6014890Y7120657D02*
X6032247Y7103300D01*
X6107140D01*
X6014890Y7120657D02*
Y7172530D01*
X6107140Y7103300D02*
X6107140Y7103300D01*
X6014890Y7172530D02*
X6051840Y7209480D01*
X6383642D01*
X6340612Y7153300D02*
X6378457D01*
X6107140D02*
X6340612D01*
X6378457D02*
X6411127Y7185970D01*
X6383642Y7209480D02*
X6457513Y7283351D01*
X6474599D01*
X6411127Y7185970D02*
X6449198D01*
X6474599Y7283351D02*
X6488248Y7297000D01*
X5682141Y6711776D02*
Y6953300D01*
X5672800Y7342125D02*
X5677800D01*
Y7617880D02*
X5685420Y7625500D01*
X5677800Y7492125D02*
Y7617880D01*
X6488248Y7297000D02*
X6665980D01*
X6152075Y7592155D02*
X6185420Y7625500D01*
X6470870Y7213270D02*
X6516976D01*
X6535706Y7232000D02*
X6665980D01*
X6516976Y7213270D02*
X6535706Y7232000D01*
X6449198Y7185970D02*
X6462848Y7199620D01*
X7922141Y6178780D02*
Y6561776D01*
Y6178780D02*
X7925420Y6175500D01*
X7737920Y7108982D02*
X7843602Y7003300D01*
X7922140D01*
X7922141Y7003300D01*
X7846759Y7053300D02*
X7922141D01*
X7812532Y7087527D02*
Y7224159D01*
Y7087527D02*
X7846759Y7053300D01*
X7737920Y7108982D02*
Y7284791D01*
X7662430Y7319515D02*
X7703196D01*
X7737920Y7284791D01*
X7633780Y7348165D02*
X7662430Y7319515D01*
X8605100Y6509650D02*
X8633750Y6481000D01*
X8605100Y6509650D02*
Y6574417D01*
X8697220Y7199620D02*
X8710870Y7213270D01*
X8783750Y6481000D02*
X8964000D01*
X8580612Y6598904D02*
Y7153300D01*
Y6598904D02*
X8605100Y6574417D01*
X7812532Y7224159D02*
X7884150Y7295776D01*
X7922141Y7103300D02*
X8007154D01*
X8188810Y7284956D02*
Y7439210D01*
X8007154Y7103300D02*
X8188810Y7284956D01*
X7884150Y7295776D02*
Y7313475D01*
X7912800Y7342125D01*
X8188810Y7439210D02*
X8217460Y7467860D01*
X8392075Y7492475D02*
Y7592155D01*
X8367460Y7467860D02*
X8392075Y7492475D01*
X8254891Y7120657D02*
X8272247Y7103300D01*
X8347140D01*
X8254891Y7120657D02*
Y7172530D01*
X8347140Y7103300D02*
X8347141Y7103300D01*
X8254891Y7172530D02*
X8291840Y7209480D01*
X8623642D01*
X8580612Y7153300D02*
X8618457D01*
X8347141D02*
X8580612D01*
X8618457D02*
X8651127Y7185970D01*
X8623642Y7209480D02*
X8697513Y7283351D01*
X8714599D01*
X8651127Y7185970D02*
X8689199D01*
X8714599Y7283351D02*
X8728248Y7297000D01*
X7922141Y6711776D02*
Y6953300D01*
X7912800Y7342125D02*
X7917800D01*
Y7617880D02*
X7925420Y7625500D01*
X7917800Y7492125D02*
Y7617880D01*
X8728248Y7297000D02*
X8905980D01*
X8392075Y7592155D02*
X8425420Y7625500D01*
X8710870Y7213270D02*
X8756976D01*
X8775706Y7232000D02*
X8905980D01*
X8756976Y7213270D02*
X8775706Y7232000D01*
X8689199Y7185970D02*
X8702848Y7199620D01*
X1202140Y8078780D02*
Y8461776D01*
Y8078780D02*
X1205420Y8075500D01*
X1017920Y9008982D02*
X1123602Y8903300D01*
X1202140D01*
X1202140Y8903300D01*
X1126759Y8953300D02*
X1202140D01*
X1092532Y8987527D02*
Y9124159D01*
Y8987527D02*
X1126759Y8953300D01*
X1017920Y9008982D02*
Y9184791D01*
X942430Y9219515D02*
X983196D01*
X1017920Y9184791D01*
X913780Y9248165D02*
X942430Y9219515D01*
X1885099Y8409650D02*
X1913750Y8381000D01*
X1885099Y8409650D02*
Y8474417D01*
X1977220Y9099620D02*
X1990870Y9113270D01*
X2063750Y8381000D02*
X2244000D01*
X1860612Y8498904D02*
Y9053300D01*
Y8498904D02*
X1885099Y8474417D01*
X1092532Y9124159D02*
X1164150Y9195776D01*
X1202140Y9003300D02*
X1287154D01*
X1468810Y9184956D02*
Y9339210D01*
X1287154Y9003300D02*
X1468810Y9184956D01*
X1164150Y9195776D02*
Y9213475D01*
X1192800Y9242125D01*
X1468810Y9339210D02*
X1497460Y9367860D01*
X1672075Y9392475D02*
Y9492155D01*
X1647460Y9367860D02*
X1672075Y9392475D01*
X1534890Y9020657D02*
X1552247Y9003301D01*
X1627140D01*
X1534890Y9020657D02*
Y9072530D01*
X1627140Y9003301D02*
X1627140Y9003300D01*
X1534890Y9072530D02*
X1571840Y9109480D01*
X1903641D01*
X1860612Y9053300D02*
X1898457D01*
X1627140D02*
X1860612D01*
X1898457D02*
X1931127Y9085970D01*
X1903641Y9109480D02*
X1977512Y9183351D01*
X1994599D01*
X1931127Y9085970D02*
X1969198D01*
X1994599Y9183351D02*
X2008248Y9197000D01*
X1202140Y8611776D02*
Y8853300D01*
X1192800Y9242125D02*
X1197800D01*
Y9517880D02*
X1205420Y9525500D01*
X1197800Y9392125D02*
Y9517880D01*
X2008248Y9197000D02*
X2185980D01*
X1672075Y9492155D02*
X1705420Y9525500D01*
X1990870Y9113270D02*
X2036976D01*
X2055706Y9132000D02*
X2185980D01*
X2036976Y9113270D02*
X2055706Y9132000D01*
X1969198Y9085970D02*
X1982848Y9099620D01*
X3442140Y8078780D02*
Y8461776D01*
Y8078780D02*
X3445420Y8075500D01*
X3257920Y9008982D02*
X3363602Y8903300D01*
X3442140D01*
X3442140Y8903300D01*
X3366759Y8953300D02*
X3442140D01*
X3332532Y8987527D02*
Y9124159D01*
Y8987527D02*
X3366759Y8953300D01*
X3257920Y9008982D02*
Y9184791D01*
X3182430Y9219515D02*
X3223196D01*
X3257920Y9184791D01*
X3153780Y9248165D02*
X3182430Y9219515D01*
X4125099Y8409650D02*
X4153750Y8381000D01*
X4125099Y8409650D02*
Y8474417D01*
X4217220Y9099620D02*
X4230870Y9113270D01*
X4303750Y8381000D02*
X4484000D01*
X4100612Y8498904D02*
Y9053300D01*
Y8498904D02*
X4125099Y8474417D01*
X3332532Y9124159D02*
X3404150Y9195776D01*
X3442140Y9003300D02*
X3527154D01*
X3708810Y9184956D02*
Y9339210D01*
X3527154Y9003300D02*
X3708810Y9184956D01*
X3404150Y9195776D02*
Y9213475D01*
X3432800Y9242125D01*
X3708810Y9339210D02*
X3737460Y9367860D01*
X3912075Y9392475D02*
Y9492155D01*
X3887460Y9367860D02*
X3912075Y9392475D01*
X3774890Y9020657D02*
X3792247Y9003301D01*
X3867140D01*
X3774890Y9020657D02*
Y9072530D01*
X3867140Y9003301D02*
X3867140Y9003300D01*
X3774890Y9072530D02*
X3811840Y9109480D01*
X4143641D01*
X4100612Y9053300D02*
X4138457D01*
X3867140D02*
X4100612D01*
X4138457D02*
X4171127Y9085970D01*
X4143641Y9109480D02*
X4217513Y9183351D01*
X4234599D01*
X4171127Y9085970D02*
X4209198D01*
X4234599Y9183351D02*
X4248248Y9197000D01*
X3442140Y8611776D02*
Y8853300D01*
X3432800Y9242125D02*
X3437800D01*
Y9517880D02*
X3445420Y9525500D01*
X3437800Y9392125D02*
Y9517880D01*
X4248248Y9197000D02*
X4425980D01*
X3912075Y9492155D02*
X3945420Y9525500D01*
X4230870Y9113270D02*
X4276976D01*
X4295706Y9132000D02*
X4425980D01*
X4276976Y9113270D02*
X4295706Y9132000D01*
X4209198Y9085970D02*
X4222848Y9099620D01*
X5682141Y8078780D02*
Y8461776D01*
Y8078780D02*
X5685420Y8075500D01*
X5497920Y9008982D02*
X5603602Y8903300D01*
X5682140D01*
X5682141Y8903300D01*
X5606759Y8953300D02*
X5682141D01*
X5572532Y8987527D02*
Y9124159D01*
Y8987527D02*
X5606759Y8953300D01*
X5497920Y9008982D02*
Y9184791D01*
X5422430Y9219515D02*
X5463196D01*
X5497920Y9184791D01*
X5393780Y9248165D02*
X5422430Y9219515D01*
X6365100Y8409650D02*
X6393750Y8381000D01*
X6365100Y8409650D02*
Y8474417D01*
X6457220Y9099620D02*
X6470870Y9113270D01*
X6543750Y8381000D02*
X6724000D01*
X6340612Y8498904D02*
Y9053300D01*
Y8498904D02*
X6365100Y8474417D01*
X5572532Y9124159D02*
X5644150Y9195776D01*
X5682141Y9003300D02*
X5767154D01*
X5948810Y9184956D02*
Y9339210D01*
X5767154Y9003300D02*
X5948810Y9184956D01*
X5644150Y9195776D02*
Y9213475D01*
X5672800Y9242125D01*
X5948810Y9339210D02*
X5977460Y9367860D01*
X6152075Y9392475D02*
Y9492155D01*
X6127460Y9367860D02*
X6152075Y9392475D01*
X6014890Y9020657D02*
X6032247Y9003301D01*
X6107140D01*
X6014890Y9020657D02*
Y9072530D01*
X6107140Y9003301D02*
X6107140Y9003300D01*
X6014890Y9072530D02*
X6051840Y9109480D01*
X6383642D01*
X6340612Y9053300D02*
X6378457D01*
X6107140D02*
X6340612D01*
X6378457D02*
X6411127Y9085970D01*
X6383642Y9109480D02*
X6457513Y9183351D01*
X6474599D01*
X6411127Y9085970D02*
X6449198D01*
X6474599Y9183351D02*
X6488248Y9197000D01*
X5682141Y8611776D02*
Y8853300D01*
X5672800Y9242125D02*
X5677800D01*
Y9517880D02*
X5685420Y9525500D01*
X5677800Y9392125D02*
Y9517880D01*
X6488248Y9197000D02*
X6665980D01*
X6152075Y9492155D02*
X6185420Y9525500D01*
X6470870Y9113270D02*
X6516976D01*
X6535706Y9132000D02*
X6665980D01*
X6516976Y9113270D02*
X6535706Y9132000D01*
X6449198Y9085970D02*
X6462848Y9099620D01*
X7922141Y8078780D02*
Y8461776D01*
Y8078780D02*
X7925420Y8075500D01*
X7737920Y9008982D02*
X7843602Y8903300D01*
X7922140D01*
X7922141Y8903300D01*
X7846759Y8953300D02*
X7922141D01*
X7812532Y8987527D02*
Y9124159D01*
Y8987527D02*
X7846759Y8953300D01*
X7737920Y9008982D02*
Y9184791D01*
X7662430Y9219515D02*
X7703196D01*
X7737920Y9184791D01*
X7633780Y9248165D02*
X7662430Y9219515D01*
X8605100Y8409650D02*
X8633750Y8381000D01*
X8605100Y8409650D02*
Y8474417D01*
X8697220Y9099620D02*
X8710870Y9113270D01*
X8783750Y8381000D02*
X8964000D01*
X8580612Y8498904D02*
Y9053300D01*
Y8498904D02*
X8605100Y8474417D01*
X7812532Y9124159D02*
X7884150Y9195776D01*
X7922141Y9003300D02*
X8007154D01*
X8188810Y9184956D02*
Y9339210D01*
X8007154Y9003300D02*
X8188810Y9184956D01*
X7884150Y9195776D02*
Y9213475D01*
X7912800Y9242125D01*
X8188810Y9339210D02*
X8217460Y9367860D01*
X8392075Y9392475D02*
Y9492155D01*
X8367460Y9367860D02*
X8392075Y9392475D01*
X8254891Y9020657D02*
X8272247Y9003301D01*
X8347140D01*
X8254891Y9020657D02*
Y9072530D01*
X8347140Y9003301D02*
X8347141Y9003300D01*
X8254891Y9072530D02*
X8291840Y9109480D01*
X8623642D01*
X8580612Y9053300D02*
X8618457D01*
X8347141D02*
X8580612D01*
X8618457D02*
X8651127Y9085970D01*
X8623642Y9109480D02*
X8697513Y9183351D01*
X8714599D01*
X8651127Y9085970D02*
X8689199D01*
X8714599Y9183351D02*
X8728248Y9197000D01*
X7922141Y8611776D02*
Y8853300D01*
X7912800Y9242125D02*
X7917800D01*
Y9517880D02*
X7925420Y9525500D01*
X7917800Y9392125D02*
Y9517880D01*
X8728248Y9197000D02*
X8905980D01*
X8392075Y9492155D02*
X8425420Y9525500D01*
X8710870Y9113270D02*
X8756976D01*
X8775706Y9132000D02*
X8905980D01*
X8756976Y9113270D02*
X8775706Y9132000D01*
X8689199Y9085970D02*
X8702848Y9099620D01*
D27*
X1092532Y1000927D02*
Y1270484D01*
X1156683Y936776D02*
X1497080D01*
X1092532Y1000927D02*
X1156683Y936776D01*
X946160Y1416856D02*
Y1455785D01*
Y1416856D02*
X1092532Y1270484D01*
X918780Y1483165D02*
X946160Y1455785D01*
X913780Y1483165D02*
X918780D01*
X1674460Y826022D02*
Y909396D01*
Y826022D02*
X1973482Y527000D01*
X2244000D01*
X1647080Y936776D02*
X1674460Y909396D01*
X1647080Y931776D02*
Y1074127D01*
X1632140Y1089067D02*
X1647080Y1074127D01*
X1627140Y1303300D02*
X1703096D01*
X1470175Y1455900D02*
X1693976Y1679700D01*
X1849060D01*
X1470175Y1322893D02*
Y1455900D01*
X1552865Y1303300D02*
X1627140D01*
Y1089067D02*
Y1253300D01*
Y1089067D02*
X1632140D01*
X1721505Y1284892D02*
X1757758D01*
X1703096Y1303300D02*
X1721505Y1284892D01*
X1757758D02*
X1787639Y1255011D01*
X1470175Y1322893D02*
X1500444Y1292625D01*
X1542189D01*
X1552865Y1303300D01*
X2058421Y1705537D02*
Y1775579D01*
Y1705537D02*
X2101958Y1662000D01*
X2206300D01*
X1849060Y1679700D02*
X1861440Y1692080D01*
X1861140Y1692380D02*
X1861440Y1692080D01*
X2021140Y1812860D02*
X2058421Y1775579D01*
X1861140Y1692380D02*
Y1812860D01*
X3332532Y1000927D02*
Y1270484D01*
X3396684Y936776D02*
X3737080D01*
X3332532Y1000927D02*
X3396684Y936776D01*
X3186160Y1416856D02*
Y1455785D01*
Y1416856D02*
X3332532Y1270484D01*
X3158780Y1483165D02*
X3186160Y1455785D01*
X3153780Y1483165D02*
X3158780D01*
X3914461Y826022D02*
Y909396D01*
Y826022D02*
X4213482Y527000D01*
X4484000D01*
X3887080Y936776D02*
X3914461Y909396D01*
X3887080Y931776D02*
Y1074127D01*
X3872140Y1089067D02*
X3887080Y1074127D01*
X3867140Y1303300D02*
X3943096D01*
X3710175Y1455900D02*
X3933976Y1679700D01*
X4089060D01*
X3710175Y1322893D02*
Y1455900D01*
X3792865Y1303300D02*
X3867140D01*
Y1089067D02*
Y1253300D01*
Y1089067D02*
X3872140D01*
X3961505Y1284892D02*
X3997759D01*
X3943096Y1303300D02*
X3961505Y1284892D01*
X3997759D02*
X4027639Y1255011D01*
X3710175Y1322893D02*
X3740444Y1292625D01*
X3782189D01*
X3792865Y1303300D01*
X4298421Y1705537D02*
Y1775579D01*
Y1705537D02*
X4341958Y1662000D01*
X4446300D01*
X4089060Y1679700D02*
X4101440Y1692080D01*
X4101140Y1692380D02*
X4101440Y1692080D01*
X4261140Y1812860D02*
X4298421Y1775579D01*
X4101140Y1692380D02*
Y1812860D01*
X5572532Y1000927D02*
Y1270484D01*
X5636684Y936776D02*
X5977080D01*
X5572532Y1000927D02*
X5636684Y936776D01*
X5426160Y1416856D02*
Y1455785D01*
Y1416856D02*
X5572532Y1270484D01*
X5398780Y1483165D02*
X5426160Y1455785D01*
X5393780Y1483165D02*
X5398780D01*
X6154461Y826022D02*
Y909396D01*
Y826022D02*
X6453482Y527000D01*
X6724000D01*
X6127080Y936776D02*
X6154461Y909396D01*
X6127080Y931776D02*
Y1074127D01*
X6112140Y1089067D02*
X6127080Y1074127D01*
X6107140Y1303300D02*
X6183096D01*
X5950175Y1455900D02*
X6173976Y1679700D01*
X6329060D01*
X5950175Y1322893D02*
Y1455900D01*
X6032865Y1303300D02*
X6107140D01*
Y1089067D02*
Y1253300D01*
Y1089067D02*
X6112140D01*
X6201505Y1284892D02*
X6237759D01*
X6183096Y1303300D02*
X6201505Y1284892D01*
X6237759D02*
X6267639Y1255011D01*
X5950175Y1322893D02*
X5980444Y1292625D01*
X6022189D01*
X6032865Y1303300D01*
X6538421Y1705537D02*
Y1775579D01*
Y1705537D02*
X6581958Y1662000D01*
X6686300D01*
X6329060Y1679700D02*
X6341440Y1692080D01*
X6341140Y1692380D02*
X6341440Y1692080D01*
X6501140Y1812860D02*
X6538421Y1775579D01*
X6341140Y1692380D02*
Y1812860D01*
X7812532Y1000927D02*
Y1270484D01*
X7876684Y936776D02*
X8217080D01*
X7812532Y1000927D02*
X7876684Y936776D01*
X7666160Y1416856D02*
Y1455785D01*
Y1416856D02*
X7812532Y1270484D01*
X7638780Y1483165D02*
X7666160Y1455785D01*
X7633780Y1483165D02*
X7638780D01*
X8394461Y826022D02*
Y909396D01*
Y826022D02*
X8693482Y527000D01*
X8964000D01*
X8367081Y936776D02*
X8394461Y909396D01*
X8367081Y931776D02*
Y1074127D01*
X8352141Y1089067D02*
X8367081Y1074127D01*
X8347141Y1303300D02*
X8423096D01*
X8190175Y1455900D02*
X8413976Y1679700D01*
X8569060D01*
X8190175Y1322893D02*
Y1455900D01*
X8272865Y1303300D02*
X8347141D01*
Y1089067D02*
Y1253300D01*
Y1089067D02*
X8352141D01*
X8441505Y1284892D02*
X8477759D01*
X8423096Y1303300D02*
X8441505Y1284892D01*
X8477759D02*
X8507639Y1255011D01*
X8190175Y1322893D02*
X8220444Y1292625D01*
X8262189D01*
X8272865Y1303300D01*
X8778421Y1705537D02*
Y1775579D01*
Y1705537D02*
X8821958Y1662000D01*
X8926300D01*
X8569060Y1679700D02*
X8581440Y1692080D01*
X8581140Y1692380D02*
X8581440Y1692080D01*
X8741140Y1812860D02*
X8778421Y1775579D01*
X8581140Y1692380D02*
Y1812860D01*
X1092532Y2900927D02*
Y3170484D01*
X1156683Y2836776D02*
X1497080D01*
X1092532Y2900927D02*
X1156683Y2836776D01*
X946160Y3316856D02*
Y3355785D01*
Y3316856D02*
X1092532Y3170484D01*
X918780Y3383165D02*
X946160Y3355785D01*
X913780Y3383165D02*
X918780D01*
X1674460Y2726022D02*
Y2809396D01*
Y2726022D02*
X1973482Y2427000D01*
X2244000D01*
X1647080Y2836776D02*
X1674460Y2809396D01*
X1647080Y2831776D02*
Y2974127D01*
X1632140Y2989067D02*
X1647080Y2974127D01*
X1627140Y3203300D02*
X1703096D01*
X1470175Y3355900D02*
X1693976Y3579700D01*
X1849060D01*
X1470175Y3222893D02*
Y3355900D01*
X1552865Y3203300D02*
X1627140D01*
Y2989067D02*
Y3153300D01*
Y2989067D02*
X1632140D01*
X1721505Y3184892D02*
X1757758D01*
X1703096Y3203300D02*
X1721505Y3184892D01*
X1757758D02*
X1787639Y3155011D01*
X1470175Y3222893D02*
X1500444Y3192625D01*
X1542189D01*
X1552865Y3203300D01*
X2058421Y3605537D02*
Y3675579D01*
Y3605537D02*
X2101958Y3562000D01*
X2206300D01*
X1849060Y3579700D02*
X1861440Y3592080D01*
X1861140Y3592380D02*
X1861440Y3592080D01*
X2021140Y3712860D02*
X2058421Y3675579D01*
X1861140Y3592380D02*
Y3712860D01*
X3332532Y2900927D02*
Y3170484D01*
X3396684Y2836776D02*
X3737080D01*
X3332532Y2900927D02*
X3396684Y2836776D01*
X3186160Y3316856D02*
Y3355785D01*
Y3316856D02*
X3332532Y3170484D01*
X3158780Y3383165D02*
X3186160Y3355785D01*
X3153780Y3383165D02*
X3158780D01*
X3914461Y2726022D02*
Y2809396D01*
Y2726022D02*
X4213482Y2427000D01*
X4484000D01*
X3887080Y2836776D02*
X3914461Y2809396D01*
X3887080Y2831776D02*
Y2974127D01*
X3872140Y2989067D02*
X3887080Y2974127D01*
X3867140Y3203300D02*
X3943096D01*
X3710175Y3355900D02*
X3933976Y3579700D01*
X4089060D01*
X3710175Y3222893D02*
Y3355900D01*
X3792865Y3203300D02*
X3867140D01*
Y2989067D02*
Y3153300D01*
Y2989067D02*
X3872140D01*
X3961505Y3184892D02*
X3997759D01*
X3943096Y3203300D02*
X3961505Y3184892D01*
X3997759D02*
X4027639Y3155011D01*
X3710175Y3222893D02*
X3740444Y3192625D01*
X3782189D01*
X3792865Y3203300D01*
X4298421Y3605537D02*
Y3675579D01*
Y3605537D02*
X4341958Y3562000D01*
X4446300D01*
X4089060Y3579700D02*
X4101440Y3592080D01*
X4101140Y3592380D02*
X4101440Y3592080D01*
X4261140Y3712860D02*
X4298421Y3675579D01*
X4101140Y3592380D02*
Y3712860D01*
X5572532Y2900927D02*
Y3170484D01*
X5636684Y2836776D02*
X5977080D01*
X5572532Y2900927D02*
X5636684Y2836776D01*
X5426160Y3316856D02*
Y3355785D01*
Y3316856D02*
X5572532Y3170484D01*
X5398780Y3383165D02*
X5426160Y3355785D01*
X5393780Y3383165D02*
X5398780D01*
X6154461Y2726022D02*
Y2809396D01*
Y2726022D02*
X6453482Y2427000D01*
X6724000D01*
X6127080Y2836776D02*
X6154461Y2809396D01*
X6127080Y2831776D02*
Y2974127D01*
X6112140Y2989067D02*
X6127080Y2974127D01*
X6107140Y3203300D02*
X6183096D01*
X5950175Y3355900D02*
X6173976Y3579700D01*
X6329060D01*
X5950175Y3222893D02*
Y3355900D01*
X6032865Y3203300D02*
X6107140D01*
Y2989067D02*
Y3153300D01*
Y2989067D02*
X6112140D01*
X6201505Y3184892D02*
X6237759D01*
X6183096Y3203300D02*
X6201505Y3184892D01*
X6237759D02*
X6267639Y3155011D01*
X5950175Y3222893D02*
X5980444Y3192625D01*
X6022189D01*
X6032865Y3203300D01*
X6538421Y3605537D02*
Y3675579D01*
Y3605537D02*
X6581958Y3562000D01*
X6686300D01*
X6329060Y3579700D02*
X6341440Y3592080D01*
X6341140Y3592380D02*
X6341440Y3592080D01*
X6501140Y3712860D02*
X6538421Y3675579D01*
X6341140Y3592380D02*
Y3712860D01*
X7812532Y2900927D02*
Y3170484D01*
X7876684Y2836776D02*
X8217080D01*
X7812532Y2900927D02*
X7876684Y2836776D01*
X7666160Y3316856D02*
Y3355785D01*
Y3316856D02*
X7812532Y3170484D01*
X7638780Y3383165D02*
X7666160Y3355785D01*
X7633780Y3383165D02*
X7638780D01*
X8394461Y2726022D02*
Y2809396D01*
Y2726022D02*
X8693482Y2427000D01*
X8964000D01*
X8367081Y2836776D02*
X8394461Y2809396D01*
X8367081Y2831776D02*
Y2974127D01*
X8352141Y2989067D02*
X8367081Y2974127D01*
X8347141Y3203300D02*
X8423096D01*
X8190175Y3355900D02*
X8413976Y3579700D01*
X8569060D01*
X8190175Y3222893D02*
Y3355900D01*
X8272865Y3203300D02*
X8347141D01*
Y2989067D02*
Y3153300D01*
Y2989067D02*
X8352141D01*
X8441505Y3184892D02*
X8477759D01*
X8423096Y3203300D02*
X8441505Y3184892D01*
X8477759D02*
X8507639Y3155011D01*
X8190175Y3222893D02*
X8220444Y3192625D01*
X8262189D01*
X8272865Y3203300D01*
X8778421Y3605537D02*
Y3675579D01*
Y3605537D02*
X8821958Y3562000D01*
X8926300D01*
X8569060Y3579700D02*
X8581440Y3592080D01*
X8581140Y3592380D02*
X8581440Y3592080D01*
X8741140Y3712860D02*
X8778421Y3675579D01*
X8581140Y3592380D02*
Y3712860D01*
X1092532Y4800927D02*
Y5070484D01*
X1156683Y4736776D02*
X1497080D01*
X1092532Y4800927D02*
X1156683Y4736776D01*
X946160Y5216856D02*
Y5255785D01*
Y5216856D02*
X1092532Y5070484D01*
X918780Y5283165D02*
X946160Y5255785D01*
X913780Y5283165D02*
X918780D01*
X1674460Y4626022D02*
Y4709396D01*
Y4626022D02*
X1973482Y4327000D01*
X2244000D01*
X1647080Y4736776D02*
X1674460Y4709396D01*
X1647080Y4731776D02*
Y4874127D01*
X1632140Y4889067D02*
X1647080Y4874127D01*
X1627140Y5103300D02*
X1703096D01*
X1470175Y5255900D02*
X1693976Y5479700D01*
X1849060D01*
X1470175Y5122893D02*
Y5255900D01*
X1552865Y5103300D02*
X1627140D01*
Y4889067D02*
Y5053300D01*
Y4889067D02*
X1632140D01*
X1721505Y5084892D02*
X1757758D01*
X1703096Y5103300D02*
X1721505Y5084892D01*
X1757758D02*
X1787639Y5055011D01*
X1470175Y5122893D02*
X1500444Y5092625D01*
X1542189D01*
X1552865Y5103300D01*
X2058421Y5505537D02*
Y5575579D01*
Y5505537D02*
X2101958Y5462000D01*
X2206300D01*
X1849060Y5479700D02*
X1861440Y5492080D01*
X1861140Y5492380D02*
X1861440Y5492080D01*
X2021140Y5612860D02*
X2058421Y5575579D01*
X1861140Y5492380D02*
Y5612860D01*
X3332532Y4800927D02*
Y5070484D01*
X3396684Y4736776D02*
X3737080D01*
X3332532Y4800927D02*
X3396684Y4736776D01*
X3186160Y5216856D02*
Y5255785D01*
Y5216856D02*
X3332532Y5070484D01*
X3158780Y5283165D02*
X3186160Y5255785D01*
X3153780Y5283165D02*
X3158780D01*
X3914461Y4626022D02*
Y4709396D01*
Y4626022D02*
X4213482Y4327000D01*
X4484000D01*
X3887080Y4736776D02*
X3914461Y4709396D01*
X3887080Y4731776D02*
Y4874127D01*
X3872140Y4889067D02*
X3887080Y4874127D01*
X3867140Y5103300D02*
X3943096D01*
X3710175Y5255900D02*
X3933976Y5479700D01*
X4089060D01*
X3710175Y5122893D02*
Y5255900D01*
X3792865Y5103300D02*
X3867140D01*
Y4889067D02*
Y5053300D01*
Y4889067D02*
X3872140D01*
X3961505Y5084892D02*
X3997759D01*
X3943096Y5103300D02*
X3961505Y5084892D01*
X3997759D02*
X4027639Y5055011D01*
X3710175Y5122893D02*
X3740444Y5092625D01*
X3782189D01*
X3792865Y5103300D01*
X4298421Y5505537D02*
Y5575579D01*
Y5505537D02*
X4341958Y5462000D01*
X4446300D01*
X4089060Y5479700D02*
X4101440Y5492080D01*
X4101140Y5492380D02*
X4101440Y5492080D01*
X4261140Y5612860D02*
X4298421Y5575579D01*
X4101140Y5492380D02*
Y5612860D01*
X5572532Y4800927D02*
Y5070484D01*
X5636684Y4736776D02*
X5977080D01*
X5572532Y4800927D02*
X5636684Y4736776D01*
X5426160Y5216856D02*
Y5255785D01*
Y5216856D02*
X5572532Y5070484D01*
X5398780Y5283165D02*
X5426160Y5255785D01*
X5393780Y5283165D02*
X5398780D01*
X6154461Y4626022D02*
Y4709396D01*
Y4626022D02*
X6453482Y4327000D01*
X6724000D01*
X6127080Y4736776D02*
X6154461Y4709396D01*
X6127080Y4731776D02*
Y4874127D01*
X6112140Y4889067D02*
X6127080Y4874127D01*
X6107140Y5103300D02*
X6183096D01*
X5950175Y5255900D02*
X6173976Y5479700D01*
X6329060D01*
X5950175Y5122893D02*
Y5255900D01*
X6032865Y5103300D02*
X6107140D01*
Y4889067D02*
Y5053300D01*
Y4889067D02*
X6112140D01*
X6201505Y5084892D02*
X6237759D01*
X6183096Y5103300D02*
X6201505Y5084892D01*
X6237759D02*
X6267639Y5055011D01*
X5950175Y5122893D02*
X5980444Y5092625D01*
X6022189D01*
X6032865Y5103300D01*
X6538421Y5505537D02*
Y5575579D01*
Y5505537D02*
X6581958Y5462000D01*
X6686300D01*
X6329060Y5479700D02*
X6341440Y5492080D01*
X6341140Y5492380D02*
X6341440Y5492080D01*
X6501140Y5612860D02*
X6538421Y5575579D01*
X6341140Y5492380D02*
Y5612860D01*
X7812532Y4800927D02*
Y5070484D01*
X7876684Y4736776D02*
X8217080D01*
X7812532Y4800927D02*
X7876684Y4736776D01*
X7666160Y5216856D02*
Y5255785D01*
Y5216856D02*
X7812532Y5070484D01*
X7638780Y5283165D02*
X7666160Y5255785D01*
X7633780Y5283165D02*
X7638780D01*
X8394461Y4626022D02*
Y4709396D01*
Y4626022D02*
X8693482Y4327000D01*
X8964000D01*
X8367081Y4736776D02*
X8394461Y4709396D01*
X8367081Y4731776D02*
Y4874127D01*
X8352141Y4889067D02*
X8367081Y4874127D01*
X8347141Y5103300D02*
X8423096D01*
X8190175Y5255900D02*
X8413976Y5479700D01*
X8569060D01*
X8190175Y5122893D02*
Y5255900D01*
X8272865Y5103300D02*
X8347141D01*
Y4889067D02*
Y5053300D01*
Y4889067D02*
X8352141D01*
X8441505Y5084892D02*
X8477759D01*
X8423096Y5103300D02*
X8441505Y5084892D01*
X8477759D02*
X8507639Y5055011D01*
X8190175Y5122893D02*
X8220444Y5092625D01*
X8262189D01*
X8272865Y5103300D01*
X8778421Y5505537D02*
Y5575579D01*
Y5505537D02*
X8821958Y5462000D01*
X8926300D01*
X8569060Y5479700D02*
X8581440Y5492080D01*
X8581140Y5492380D02*
X8581440Y5492080D01*
X8741140Y5612860D02*
X8778421Y5575579D01*
X8581140Y5492380D02*
Y5612860D01*
X1092532Y6700927D02*
Y6970484D01*
X1156683Y6636776D02*
X1497080D01*
X1092532Y6700927D02*
X1156683Y6636776D01*
X946160Y7116856D02*
Y7155785D01*
Y7116856D02*
X1092532Y6970484D01*
X918780Y7183165D02*
X946160Y7155785D01*
X913780Y7183165D02*
X918780D01*
X1674460Y6526022D02*
Y6609396D01*
Y6526022D02*
X1973482Y6227000D01*
X2244000D01*
X1647080Y6636776D02*
X1674460Y6609396D01*
X1647080Y6631776D02*
Y6774127D01*
X1632140Y6789067D02*
X1647080Y6774127D01*
X1627140Y7003300D02*
X1703096D01*
X1470175Y7155900D02*
X1693976Y7379701D01*
X1849060D01*
X1470175Y7022893D02*
Y7155900D01*
X1552865Y7003300D02*
X1627140D01*
Y6789067D02*
Y6953300D01*
Y6789067D02*
X1632140D01*
X1721505Y6984892D02*
X1757758D01*
X1703096Y7003300D02*
X1721505Y6984892D01*
X1757758D02*
X1787639Y6955011D01*
X1470175Y7022893D02*
X1500444Y6992625D01*
X1542189D01*
X1552865Y7003300D01*
X2058421Y7405537D02*
Y7475579D01*
Y7405537D02*
X2101958Y7362000D01*
X2206300D01*
X1849060Y7379701D02*
X1861440Y7392080D01*
X1861140Y7392380D02*
X1861440Y7392080D01*
X2021140Y7512860D02*
X2058421Y7475579D01*
X1861140Y7392380D02*
Y7512860D01*
X3332532Y6700927D02*
Y6970484D01*
X3396684Y6636776D02*
X3737080D01*
X3332532Y6700927D02*
X3396684Y6636776D01*
X3186160Y7116856D02*
Y7155785D01*
Y7116856D02*
X3332532Y6970484D01*
X3158780Y7183165D02*
X3186160Y7155785D01*
X3153780Y7183165D02*
X3158780D01*
X3914461Y6526022D02*
Y6609396D01*
Y6526022D02*
X4213482Y6227000D01*
X4484000D01*
X3887080Y6636776D02*
X3914461Y6609396D01*
X3887080Y6631776D02*
Y6774127D01*
X3872140Y6789067D02*
X3887080Y6774127D01*
X3867140Y7003300D02*
X3943096D01*
X3710175Y7155900D02*
X3933976Y7379701D01*
X4089060D01*
X3710175Y7022893D02*
Y7155900D01*
X3792865Y7003300D02*
X3867140D01*
Y6789067D02*
Y6953300D01*
Y6789067D02*
X3872140D01*
X3961505Y6984892D02*
X3997759D01*
X3943096Y7003300D02*
X3961505Y6984892D01*
X3997759D02*
X4027639Y6955011D01*
X3710175Y7022893D02*
X3740444Y6992625D01*
X3782189D01*
X3792865Y7003300D01*
X4298421Y7405537D02*
Y7475579D01*
Y7405537D02*
X4341958Y7362000D01*
X4446300D01*
X4089060Y7379701D02*
X4101440Y7392080D01*
X4101140Y7392380D02*
X4101440Y7392080D01*
X4261140Y7512860D02*
X4298421Y7475579D01*
X4101140Y7392380D02*
Y7512860D01*
X5572532Y6700927D02*
Y6970484D01*
X5636684Y6636776D02*
X5977080D01*
X5572532Y6700927D02*
X5636684Y6636776D01*
X5426160Y7116856D02*
Y7155785D01*
Y7116856D02*
X5572532Y6970484D01*
X5398780Y7183165D02*
X5426160Y7155785D01*
X5393780Y7183165D02*
X5398780D01*
X6154461Y6526022D02*
Y6609396D01*
Y6526022D02*
X6453482Y6227000D01*
X6724000D01*
X6127080Y6636776D02*
X6154461Y6609396D01*
X6127080Y6631776D02*
Y6774127D01*
X6112140Y6789067D02*
X6127080Y6774127D01*
X6107140Y7003300D02*
X6183096D01*
X5950175Y7155900D02*
X6173976Y7379701D01*
X6329060D01*
X5950175Y7022893D02*
Y7155900D01*
X6032865Y7003300D02*
X6107140D01*
Y6789067D02*
Y6953300D01*
Y6789067D02*
X6112140D01*
X6201505Y6984892D02*
X6237759D01*
X6183096Y7003300D02*
X6201505Y6984892D01*
X6237759D02*
X6267639Y6955011D01*
X5950175Y7022893D02*
X5980444Y6992625D01*
X6022189D01*
X6032865Y7003300D01*
X6538421Y7405537D02*
Y7475579D01*
Y7405537D02*
X6581958Y7362000D01*
X6686300D01*
X6329060Y7379701D02*
X6341440Y7392080D01*
X6341140Y7392380D02*
X6341440Y7392080D01*
X6501140Y7512860D02*
X6538421Y7475579D01*
X6341140Y7392380D02*
Y7512860D01*
X7812532Y6700927D02*
Y6970484D01*
X7876684Y6636776D02*
X8217080D01*
X7812532Y6700927D02*
X7876684Y6636776D01*
X7666160Y7116856D02*
Y7155785D01*
Y7116856D02*
X7812532Y6970484D01*
X7638780Y7183165D02*
X7666160Y7155785D01*
X7633780Y7183165D02*
X7638780D01*
X8394461Y6526022D02*
Y6609396D01*
Y6526022D02*
X8693482Y6227000D01*
X8964000D01*
X8367081Y6636776D02*
X8394461Y6609396D01*
X8367081Y6631776D02*
Y6774127D01*
X8352141Y6789067D02*
X8367081Y6774127D01*
X8347141Y7003300D02*
X8423096D01*
X8190175Y7155900D02*
X8413976Y7379701D01*
X8569060D01*
X8190175Y7022893D02*
Y7155900D01*
X8272865Y7003300D02*
X8347141D01*
Y6789067D02*
Y6953300D01*
Y6789067D02*
X8352141D01*
X8441505Y6984892D02*
X8477759D01*
X8423096Y7003300D02*
X8441505Y6984892D01*
X8477759D02*
X8507639Y6955011D01*
X8190175Y7022893D02*
X8220444Y6992625D01*
X8262189D01*
X8272865Y7003300D01*
X8778421Y7405537D02*
Y7475579D01*
Y7405537D02*
X8821958Y7362000D01*
X8926300D01*
X8569060Y7379701D02*
X8581440Y7392080D01*
X8581140Y7392380D02*
X8581440Y7392080D01*
X8741140Y7512860D02*
X8778421Y7475579D01*
X8581140Y7392380D02*
Y7512860D01*
X1092532Y8600927D02*
Y8870484D01*
X1156683Y8536776D02*
X1497080D01*
X1092532Y8600927D02*
X1156683Y8536776D01*
X946160Y9016856D02*
Y9055785D01*
Y9016856D02*
X1092532Y8870484D01*
X918780Y9083165D02*
X946160Y9055785D01*
X913780Y9083165D02*
X918780D01*
X1674460Y8426022D02*
Y8509396D01*
Y8426022D02*
X1973482Y8127000D01*
X2244000D01*
X1647080Y8536776D02*
X1674460Y8509396D01*
X1647080Y8531776D02*
Y8674127D01*
X1632140Y8689067D02*
X1647080Y8674127D01*
X1627140Y8903300D02*
X1703096D01*
X1470175Y9055900D02*
X1693976Y9279701D01*
X1849060D01*
X1470175Y8922893D02*
Y9055900D01*
X1552865Y8903300D02*
X1627140D01*
Y8689067D02*
Y8853300D01*
Y8689067D02*
X1632140D01*
X1721505Y8884892D02*
X1757758D01*
X1703096Y8903300D02*
X1721505Y8884892D01*
X1757758D02*
X1787639Y8855011D01*
X1470175Y8922893D02*
X1500444Y8892625D01*
X1542189D01*
X1552865Y8903300D01*
X2058421Y9305537D02*
Y9375579D01*
Y9305537D02*
X2101958Y9262000D01*
X2206300D01*
X1849060Y9279701D02*
X1861440Y9292080D01*
X1861140Y9292380D02*
X1861440Y9292080D01*
X2021140Y9412860D02*
X2058421Y9375579D01*
X1861140Y9292380D02*
Y9412860D01*
X3332532Y8600927D02*
Y8870484D01*
X3396684Y8536776D02*
X3737080D01*
X3332532Y8600927D02*
X3396684Y8536776D01*
X3186160Y9016856D02*
Y9055785D01*
Y9016856D02*
X3332532Y8870484D01*
X3158780Y9083165D02*
X3186160Y9055785D01*
X3153780Y9083165D02*
X3158780D01*
X3914461Y8426022D02*
Y8509396D01*
Y8426022D02*
X4213482Y8127000D01*
X4484000D01*
X3887080Y8536776D02*
X3914461Y8509396D01*
X3887080Y8531776D02*
Y8674127D01*
X3872140Y8689067D02*
X3887080Y8674127D01*
X3867140Y8903300D02*
X3943096D01*
X3710175Y9055900D02*
X3933976Y9279701D01*
X4089060D01*
X3710175Y8922893D02*
Y9055900D01*
X3792865Y8903300D02*
X3867140D01*
Y8689067D02*
Y8853300D01*
Y8689067D02*
X3872140D01*
X3961505Y8884892D02*
X3997759D01*
X3943096Y8903300D02*
X3961505Y8884892D01*
X3997759D02*
X4027639Y8855011D01*
X3710175Y8922893D02*
X3740444Y8892625D01*
X3782189D01*
X3792865Y8903300D01*
X4298421Y9305537D02*
Y9375579D01*
Y9305537D02*
X4341958Y9262000D01*
X4446300D01*
X4089060Y9279701D02*
X4101440Y9292080D01*
X4101140Y9292380D02*
X4101440Y9292080D01*
X4261140Y9412860D02*
X4298421Y9375579D01*
X4101140Y9292380D02*
Y9412860D01*
X5572532Y8600927D02*
Y8870484D01*
X5636684Y8536776D02*
X5977080D01*
X5572532Y8600927D02*
X5636684Y8536776D01*
X5426160Y9016856D02*
Y9055785D01*
Y9016856D02*
X5572532Y8870484D01*
X5398780Y9083165D02*
X5426160Y9055785D01*
X5393780Y9083165D02*
X5398780D01*
X6154461Y8426022D02*
Y8509396D01*
Y8426022D02*
X6453482Y8127000D01*
X6724000D01*
X6127080Y8536776D02*
X6154461Y8509396D01*
X6127080Y8531776D02*
Y8674127D01*
X6112140Y8689067D02*
X6127080Y8674127D01*
X6107140Y8903300D02*
X6183096D01*
X5950175Y9055900D02*
X6173976Y9279701D01*
X6329060D01*
X5950175Y8922893D02*
Y9055900D01*
X6032865Y8903300D02*
X6107140D01*
Y8689067D02*
Y8853300D01*
Y8689067D02*
X6112140D01*
X6201505Y8884892D02*
X6237759D01*
X6183096Y8903300D02*
X6201505Y8884892D01*
X6237759D02*
X6267639Y8855011D01*
X5950175Y8922893D02*
X5980444Y8892625D01*
X6022189D01*
X6032865Y8903300D01*
X6538421Y9305537D02*
Y9375579D01*
Y9305537D02*
X6581958Y9262000D01*
X6686300D01*
X6329060Y9279701D02*
X6341440Y9292080D01*
X6341140Y9292380D02*
X6341440Y9292080D01*
X6501140Y9412860D02*
X6538421Y9375579D01*
X6341140Y9292380D02*
Y9412860D01*
X7812532Y8600927D02*
Y8870484D01*
X7876684Y8536776D02*
X8217080D01*
X7812532Y8600927D02*
X7876684Y8536776D01*
X7666160Y9016856D02*
Y9055785D01*
Y9016856D02*
X7812532Y8870484D01*
X7638780Y9083165D02*
X7666160Y9055785D01*
X7633780Y9083165D02*
X7638780D01*
X8394461Y8426022D02*
Y8509396D01*
Y8426022D02*
X8693482Y8127000D01*
X8964000D01*
X8367081Y8536776D02*
X8394461Y8509396D01*
X8367081Y8531776D02*
Y8674127D01*
X8352141Y8689067D02*
X8367081Y8674127D01*
X8347141Y8903300D02*
X8423096D01*
X8190175Y9055900D02*
X8413976Y9279701D01*
X8569060D01*
X8190175Y8922893D02*
Y9055900D01*
X8272865Y8903300D02*
X8347141D01*
Y8689067D02*
Y8853300D01*
Y8689067D02*
X8352141D01*
X8441505Y8884892D02*
X8477759D01*
X8423096Y8903300D02*
X8441505Y8884892D01*
X8477759D02*
X8507639Y8855011D01*
X8190175Y8922893D02*
X8220444Y8892625D01*
X8262189D01*
X8272865Y8903300D01*
X8778421Y9305537D02*
Y9375579D01*
Y9305537D02*
X8821958Y9262000D01*
X8926300D01*
X8569060Y9279701D02*
X8581440Y9292080D01*
X8581140Y9292380D02*
X8581440Y9292080D01*
X8741140Y9412860D02*
X8778421Y9375579D01*
X8581140Y9292380D02*
Y9412860D01*
D28*
X1170420Y1457772D02*
Y1506661D01*
Y1457772D02*
X1174891Y1453300D01*
X1232978D01*
X1237450Y1457772D02*
Y1508455D01*
X1232978Y1453300D02*
X1237450Y1457772D01*
X1526464Y1353300D02*
X1730500D01*
X1861440Y1602080D02*
X1922209D01*
X1947208Y1687001D02*
X2008248D01*
X3410420Y1457772D02*
Y1506661D01*
Y1457772D02*
X3414891Y1453300D01*
X3472979D01*
X3477450Y1457772D02*
Y1508455D01*
X3472979Y1453300D02*
X3477450Y1457772D01*
X3766464Y1353300D02*
X3970500D01*
X4101440Y1602080D02*
X4162209D01*
X4187208Y1687001D02*
X4248248D01*
X5650420Y1457772D02*
Y1506661D01*
Y1457772D02*
X5654891Y1453300D01*
X5712979D01*
X5717450Y1457772D02*
Y1508455D01*
X5712979Y1453300D02*
X5717450Y1457772D01*
X6006464Y1353300D02*
X6210500D01*
X6341440Y1602080D02*
X6402209D01*
X6427208Y1687001D02*
X6488248D01*
X7890420Y1457772D02*
Y1506661D01*
Y1457772D02*
X7894891Y1453300D01*
X7952979D01*
X7957450Y1457772D02*
Y1508455D01*
X7952979Y1453300D02*
X7957450Y1457772D01*
X8246464Y1353300D02*
X8450500D01*
X8581440Y1602080D02*
X8642209D01*
X8667208Y1687001D02*
X8728248D01*
X1170420Y3357772D02*
Y3406661D01*
Y3357772D02*
X1174891Y3353300D01*
X1232978D01*
X1237450Y3357772D02*
Y3408455D01*
X1232978Y3353300D02*
X1237450Y3357772D01*
X1526464Y3253300D02*
X1730500D01*
X1861440Y3502080D02*
X1922209D01*
X1947208Y3587001D02*
X2008248D01*
X3410420Y3357772D02*
Y3406661D01*
Y3357772D02*
X3414891Y3353300D01*
X3472979D01*
X3477450Y3357772D02*
Y3408455D01*
X3472979Y3353300D02*
X3477450Y3357772D01*
X3766464Y3253300D02*
X3970500D01*
X4101440Y3502080D02*
X4162209D01*
X4187208Y3587001D02*
X4248248D01*
X5650420Y3357772D02*
Y3406661D01*
Y3357772D02*
X5654891Y3353300D01*
X5712979D01*
X5717450Y3357772D02*
Y3408455D01*
X5712979Y3353300D02*
X5717450Y3357772D01*
X6006464Y3253300D02*
X6210500D01*
X6341440Y3502080D02*
X6402209D01*
X6427208Y3587001D02*
X6488248D01*
X7890420Y3357772D02*
Y3406661D01*
Y3357772D02*
X7894891Y3353300D01*
X7952979D01*
X7957450Y3357772D02*
Y3408455D01*
X7952979Y3353300D02*
X7957450Y3357772D01*
X8246464Y3253300D02*
X8450500D01*
X8581440Y3502080D02*
X8642209D01*
X8667208Y3587001D02*
X8728248D01*
X1170420Y5257772D02*
Y5306661D01*
Y5257772D02*
X1174891Y5253300D01*
X1232978D01*
X1237450Y5257772D02*
Y5308455D01*
X1232978Y5253300D02*
X1237450Y5257772D01*
X1526464Y5153300D02*
X1730500D01*
X1861440Y5402080D02*
X1922209D01*
X1947208Y5487001D02*
X2008248D01*
X3410420Y5257772D02*
Y5306661D01*
Y5257772D02*
X3414891Y5253300D01*
X3472979D01*
X3477450Y5257772D02*
Y5308455D01*
X3472979Y5253300D02*
X3477450Y5257772D01*
X3766464Y5153300D02*
X3970500D01*
X4101440Y5402080D02*
X4162209D01*
X4187208Y5487001D02*
X4248248D01*
X5650420Y5257772D02*
Y5306661D01*
Y5257772D02*
X5654891Y5253300D01*
X5712979D01*
X5717450Y5257772D02*
Y5308455D01*
X5712979Y5253300D02*
X5717450Y5257772D01*
X6006464Y5153300D02*
X6210500D01*
X6341440Y5402080D02*
X6402209D01*
X6427208Y5487001D02*
X6488248D01*
X7890420Y5257772D02*
Y5306661D01*
Y5257772D02*
X7894891Y5253300D01*
X7952979D01*
X7957450Y5257772D02*
Y5308455D01*
X7952979Y5253300D02*
X7957450Y5257772D01*
X8246464Y5153300D02*
X8450500D01*
X8581440Y5402080D02*
X8642209D01*
X8667208Y5487001D02*
X8728248D01*
X1170420Y7157772D02*
Y7206661D01*
Y7157772D02*
X1174891Y7153300D01*
X1232978D01*
X1237450Y7157772D02*
Y7208455D01*
X1232978Y7153300D02*
X1237450Y7157772D01*
X1526464Y7053300D02*
X1730500D01*
X1861440Y7302080D02*
X1922209D01*
X1947208Y7387001D02*
X2008248D01*
X3410420Y7157772D02*
Y7206661D01*
Y7157772D02*
X3414891Y7153300D01*
X3472979D01*
X3477450Y7157772D02*
Y7208455D01*
X3472979Y7153300D02*
X3477450Y7157772D01*
X3766464Y7053300D02*
X3970500D01*
X4101440Y7302080D02*
X4162209D01*
X4187208Y7387001D02*
X4248248D01*
X5650420Y7157772D02*
Y7206661D01*
Y7157772D02*
X5654891Y7153300D01*
X5712979D01*
X5717450Y7157772D02*
Y7208455D01*
X5712979Y7153300D02*
X5717450Y7157772D01*
X6006464Y7053300D02*
X6210500D01*
X6341440Y7302080D02*
X6402209D01*
X6427208Y7387001D02*
X6488248D01*
X7890420Y7157772D02*
Y7206661D01*
Y7157772D02*
X7894891Y7153300D01*
X7952979D01*
X7957450Y7157772D02*
Y7208455D01*
X7952979Y7153300D02*
X7957450Y7157772D01*
X8246464Y7053300D02*
X8450500D01*
X8581440Y7302080D02*
X8642209D01*
X8667208Y7387001D02*
X8728248D01*
X1170420Y9057772D02*
Y9106661D01*
Y9057772D02*
X1174891Y9053300D01*
X1232978D01*
X1237450Y9057772D02*
Y9108455D01*
X1232978Y9053300D02*
X1237450Y9057772D01*
X1526464Y8953300D02*
X1730500D01*
X1861440Y9202080D02*
X1922209D01*
X1947208Y9287001D02*
X2008248D01*
X3410420Y9057772D02*
Y9106661D01*
Y9057772D02*
X3414891Y9053300D01*
X3472979D01*
X3477450Y9057772D02*
Y9108455D01*
X3472979Y9053300D02*
X3477450Y9057772D01*
X3766464Y8953300D02*
X3970500D01*
X4101440Y9202080D02*
X4162209D01*
X4187208Y9287001D02*
X4248248D01*
X5650420Y9057772D02*
Y9106661D01*
Y9057772D02*
X5654891Y9053300D01*
X5712979D01*
X5717450Y9057772D02*
Y9108455D01*
X5712979Y9053300D02*
X5717450Y9057772D01*
X6006464Y8953300D02*
X6210500D01*
X6341440Y9202080D02*
X6402209D01*
X6427208Y9287001D02*
X6488248D01*
X7890420Y9057772D02*
Y9106661D01*
Y9057772D02*
X7894891Y9053300D01*
X7952979D01*
X7957450Y9057772D02*
Y9108455D01*
X7952979Y9053300D02*
X7957450Y9057772D01*
X8246464Y8953300D02*
X8450500D01*
X8581440Y9202080D02*
X8642209D01*
X8667208Y9287001D02*
X8728248D01*
D29*
X1408945Y1074127D02*
X1492080D01*
X1787639Y1016876D02*
Y1100012D01*
X3648945Y1074127D02*
X3732080D01*
X4027639Y1016876D02*
Y1100012D01*
X5888945Y1074127D02*
X5972081D01*
X6267639Y1016876D02*
Y1100012D01*
X8128945Y1074127D02*
X8212081D01*
X8507639Y1016876D02*
Y1100012D01*
X1408945Y2974127D02*
X1492080D01*
X1787639Y2916876D02*
Y3000012D01*
X3648945Y2974127D02*
X3732080D01*
X4027639Y2916876D02*
Y3000012D01*
X5888945Y2974127D02*
X5972081D01*
X6267639Y2916876D02*
Y3000012D01*
X8128945Y2974127D02*
X8212081D01*
X8507639Y2916876D02*
Y3000012D01*
X1408945Y4874127D02*
X1492080D01*
X1787639Y4816876D02*
Y4900012D01*
X3648945Y4874127D02*
X3732080D01*
X4027639Y4816876D02*
Y4900012D01*
X5888945Y4874127D02*
X5972081D01*
X6267639Y4816876D02*
Y4900012D01*
X8128945Y4874127D02*
X8212081D01*
X8507639Y4816876D02*
Y4900012D01*
X1408945Y6774127D02*
X1492080D01*
X1787639Y6716876D02*
Y6800012D01*
X3648945Y6774127D02*
X3732080D01*
X4027639Y6716876D02*
Y6800012D01*
X5888945Y6774127D02*
X5972081D01*
X6267639Y6716876D02*
Y6800012D01*
X8128945Y6774127D02*
X8212081D01*
X8507639Y6716876D02*
Y6800012D01*
X1408945Y8674127D02*
X1492080D01*
X1787639Y8616876D02*
Y8700012D01*
X3648945Y8674127D02*
X3732080D01*
X4027639Y8616876D02*
Y8700012D01*
X5888945Y8674127D02*
X5972081D01*
X6267639Y8616876D02*
Y8700012D01*
X8128945Y8674127D02*
X8212081D01*
X8507639Y8616876D02*
Y8700012D01*
D30*
X2046843Y1402000D02*
X2327708D01*
X4286843D02*
X4567708D01*
X6526843D02*
X6807708D01*
X8766843D02*
X9047708D01*
X2046843Y3302000D02*
X2327708D01*
X4286843D02*
X4567708D01*
X6526843D02*
X6807708D01*
X8766843D02*
X9047708D01*
X2046843Y5202000D02*
X2327708D01*
X4286843D02*
X4567708D01*
X6526843D02*
X6807708D01*
X8766843D02*
X9047708D01*
X2046843Y7102000D02*
X2327708D01*
X4286843D02*
X4567708D01*
X6526843D02*
X6807708D01*
X8766843D02*
X9047708D01*
X2046843Y9002000D02*
X2327708D01*
X4286843D02*
X4567708D01*
X6526843D02*
X6807708D01*
X8766843D02*
X9047708D01*
D31*
X1990468Y1402000D02*
X2046843D01*
X1986658Y1405810D02*
X1990468Y1402000D01*
X4230468D02*
X4286843D01*
X4226658Y1405810D02*
X4230468Y1402000D01*
X6470468D02*
X6526843D01*
X6466658Y1405810D02*
X6470468Y1402000D01*
X8710468D02*
X8766843D01*
X8706658Y1405810D02*
X8710468Y1402000D01*
X1990468Y3302000D02*
X2046843D01*
X1986658Y3305810D02*
X1990468Y3302000D01*
X4230468D02*
X4286843D01*
X4226658Y3305810D02*
X4230468Y3302000D01*
X6470468D02*
X6526843D01*
X6466658Y3305810D02*
X6470468Y3302000D01*
X8710468D02*
X8766843D01*
X8706658Y3305810D02*
X8710468Y3302000D01*
X1990468Y5202000D02*
X2046843D01*
X1986658Y5205810D02*
X1990468Y5202000D01*
X4230468D02*
X4286843D01*
X4226658Y5205810D02*
X4230468Y5202000D01*
X6470468D02*
X6526843D01*
X6466658Y5205810D02*
X6470468Y5202000D01*
X8710468D02*
X8766843D01*
X8706658Y5205810D02*
X8710468Y5202000D01*
X1990468Y7102000D02*
X2046843D01*
X1986658Y7105810D02*
X1990468Y7102000D01*
X4230468D02*
X4286843D01*
X4226658Y7105810D02*
X4230468Y7102000D01*
X6470468D02*
X6526843D01*
X6466658Y7105810D02*
X6470468Y7102000D01*
X8710468D02*
X8766843D01*
X8706658Y7105810D02*
X8710468Y7102000D01*
X1990468Y9002000D02*
X2046843D01*
X1986658Y9005810D02*
X1990468Y9002000D01*
X4230468D02*
X4286843D01*
X4226658Y9005810D02*
X4230468Y9002000D01*
X6470468D02*
X6526843D01*
X6466658Y9005810D02*
X6470468Y9002000D01*
X8710468D02*
X8766843D01*
X8706658Y9005810D02*
X8710468Y9002000D01*
%TF.MD5,2fe9a48232e3953f2428d5f4b25470ba*%
M02*
