%TF.GenerationSoftware,Altium Limited,Altium Designer,20.1.8 (145)*%
G04 Layer_Color=16777215*
%FSLAX45Y45*%
%MOMM*%
%TF.SameCoordinates,31433496-A159-4958-A2C2-D52C18178038*%
%TF.FilePolarity,Positive*%
%TF.FileFunction,Legend,Top*%
%TF.Part,CustomerPanel*%
G01*
G75*
%TA.AperFunction,NonConductor*%
%ADD32C,0.10160*%
%ADD35C,0.12700*%
D32*
X848360Y595500D02*
Y1805500D01*
X2063750D01*
X848360Y595500D02*
X2063750D01*
Y1805500D01*
X3088360Y595500D02*
Y1805500D01*
X4303750D01*
X3088360Y595500D02*
X4303750D01*
Y1805500D01*
X5328360Y595500D02*
Y1805500D01*
X6543750D01*
X5328360Y595500D02*
X6543750D01*
Y1805500D01*
X7568360Y595500D02*
Y1805500D01*
X8783750D01*
X7568360Y595500D02*
X8783750D01*
Y1805500D01*
X848360Y2495500D02*
Y3705500D01*
X2063750D01*
X848360Y2495500D02*
X2063750D01*
Y3705500D01*
X3088360Y2495500D02*
Y3705500D01*
X4303750D01*
X3088360Y2495500D02*
X4303750D01*
Y3705500D01*
X5328360Y2495500D02*
Y3705500D01*
X6543750D01*
X5328360Y2495500D02*
X6543750D01*
Y3705500D01*
X7568360Y2495500D02*
Y3705500D01*
X8783750D01*
X7568360Y2495500D02*
X8783750D01*
Y3705500D01*
X848360Y4395500D02*
Y5605500D01*
X2063750D01*
X848360Y4395500D02*
X2063750D01*
Y5605500D01*
X3088360Y4395500D02*
Y5605500D01*
X4303750D01*
X3088360Y4395500D02*
X4303750D01*
Y5605500D01*
X5328360Y4395500D02*
Y5605500D01*
X6543750D01*
X5328360Y4395500D02*
X6543750D01*
Y5605500D01*
X7568360Y4395500D02*
Y5605500D01*
X8783750D01*
X7568360Y4395500D02*
X8783750D01*
Y5605500D01*
X848360Y6295500D02*
Y7505500D01*
X2063750D01*
X848360Y6295500D02*
X2063750D01*
Y7505500D01*
X3088360Y6295500D02*
Y7505500D01*
X4303750D01*
X3088360Y6295500D02*
X4303750D01*
Y7505500D01*
X5328360Y6295500D02*
Y7505500D01*
X6543750D01*
X5328360Y6295500D02*
X6543750D01*
Y7505500D01*
X7568360Y6295500D02*
Y7505500D01*
X8783750D01*
X7568360Y6295500D02*
X8783750D01*
Y7505500D01*
X848360Y8195500D02*
Y9405500D01*
X2063750D01*
X848360Y8195500D02*
X2063750D01*
Y9405500D01*
X3088360Y8195500D02*
Y9405500D01*
X4303750D01*
X3088360Y8195500D02*
X4303750D01*
Y9405500D01*
X5328360Y8195500D02*
Y9405500D01*
X6543750D01*
X5328360Y8195500D02*
X6543750D01*
Y9405500D01*
X7568360Y8195500D02*
Y9405500D01*
X8783750D01*
X7568360Y8195500D02*
X8783750D01*
Y9405500D01*
D35*
X1021718Y775651D02*
Y836592D01*
X1052188D01*
X1062345Y826435D01*
Y806122D01*
X1052188Y795965D01*
X1021718D01*
X1042031D02*
X1062345Y775651D01*
X1113128Y836592D02*
X1092815D01*
X1082658Y826435D01*
Y785808D01*
X1092815Y775651D01*
X1113128D01*
X1123285Y785808D01*
Y826435D01*
X1113128Y836592D01*
X1143598D02*
X1184225D01*
X1163912D01*
Y775651D01*
X1204538D02*
Y816278D01*
X1224852Y836592D01*
X1245165Y816278D01*
Y775651D01*
Y806122D01*
X1204538D01*
X1265479Y775651D02*
Y836592D01*
X1295949D01*
X1306105Y826435D01*
Y806122D01*
X1295949Y795965D01*
X1265479D01*
X1285792D02*
X1306105Y775651D01*
X1326419Y836592D02*
Y826435D01*
X1346732Y806122D01*
X1367046Y826435D01*
Y836592D01*
X1346732Y806122D02*
Y775651D01*
X1387359Y765495D02*
X1427986D01*
X1488926Y836592D02*
X1448299D01*
Y775651D01*
X1488926D01*
X1448299Y806122D02*
X1468613D01*
X1509239Y775651D02*
Y836592D01*
X1549866Y775651D01*
Y836592D01*
X1610806Y826435D02*
X1600650Y836592D01*
X1580336D01*
X1570179Y826435D01*
Y785808D01*
X1580336Y775651D01*
X1600650D01*
X1610806Y785808D01*
X1661590Y836592D02*
X1641276D01*
X1631120Y826435D01*
Y785808D01*
X1641276Y775651D01*
X1661590D01*
X1671746Y785808D01*
Y826435D01*
X1661590Y836592D01*
X1692060D02*
Y775651D01*
X1722530D01*
X1732687Y785808D01*
Y826435D01*
X1722530Y836592D01*
X1692060D01*
X1793627D02*
X1753000D01*
Y775651D01*
X1793627D01*
X1753000Y806122D02*
X1773313D01*
X1813940Y775651D02*
Y836592D01*
X1844410D01*
X1854567Y826435D01*
Y806122D01*
X1844410Y795965D01*
X1813940D01*
X1834254D02*
X1854567Y775651D01*
X3261718D02*
Y836592D01*
X3292188D01*
X3302345Y826435D01*
Y806122D01*
X3292188Y795965D01*
X3261718D01*
X3282031D02*
X3302345Y775651D01*
X3353128Y836592D02*
X3332815D01*
X3322658Y826435D01*
Y785808D01*
X3332815Y775651D01*
X3353128D01*
X3363285Y785808D01*
Y826435D01*
X3353128Y836592D01*
X3383598D02*
X3424225D01*
X3403912D01*
Y775651D01*
X3444538D02*
Y816278D01*
X3464852Y836592D01*
X3485165Y816278D01*
Y775651D01*
Y806122D01*
X3444538D01*
X3505479Y775651D02*
Y836592D01*
X3535949D01*
X3546105Y826435D01*
Y806122D01*
X3535949Y795965D01*
X3505479D01*
X3525792D02*
X3546105Y775651D01*
X3566419Y836592D02*
Y826435D01*
X3586732Y806122D01*
X3607046Y826435D01*
Y836592D01*
X3586732Y806122D02*
Y775651D01*
X3627359Y765495D02*
X3667986D01*
X3728926Y836592D02*
X3688299D01*
Y775651D01*
X3728926D01*
X3688299Y806122D02*
X3708613D01*
X3749239Y775651D02*
Y836592D01*
X3789866Y775651D01*
Y836592D01*
X3850806Y826435D02*
X3840650Y836592D01*
X3820336D01*
X3810180Y826435D01*
Y785808D01*
X3820336Y775651D01*
X3840650D01*
X3850806Y785808D01*
X3901590Y836592D02*
X3881276D01*
X3871120Y826435D01*
Y785808D01*
X3881276Y775651D01*
X3901590D01*
X3911747Y785808D01*
Y826435D01*
X3901590Y836592D01*
X3932060D02*
Y775651D01*
X3962530D01*
X3972687Y785808D01*
Y826435D01*
X3962530Y836592D01*
X3932060D01*
X4033627D02*
X3993000D01*
Y775651D01*
X4033627D01*
X3993000Y806122D02*
X4013314D01*
X4053940Y775651D02*
Y836592D01*
X4084410D01*
X4094567Y826435D01*
Y806122D01*
X4084410Y795965D01*
X4053940D01*
X4074254D02*
X4094567Y775651D01*
X5501718D02*
Y836592D01*
X5532188D01*
X5542345Y826435D01*
Y806122D01*
X5532188Y795965D01*
X5501718D01*
X5522031D02*
X5542345Y775651D01*
X5593128Y836592D02*
X5572815D01*
X5562658Y826435D01*
Y785808D01*
X5572815Y775651D01*
X5593128D01*
X5603285Y785808D01*
Y826435D01*
X5593128Y836592D01*
X5623598D02*
X5664225D01*
X5643912D01*
Y775651D01*
X5684539D02*
Y816278D01*
X5704852Y836592D01*
X5725165Y816278D01*
Y775651D01*
Y806122D01*
X5684539D01*
X5745479Y775651D02*
Y836592D01*
X5775949D01*
X5786106Y826435D01*
Y806122D01*
X5775949Y795965D01*
X5745479D01*
X5765792D02*
X5786106Y775651D01*
X5806419Y836592D02*
Y826435D01*
X5826732Y806122D01*
X5847046Y826435D01*
Y836592D01*
X5826732Y806122D02*
Y775651D01*
X5867359Y765495D02*
X5907986D01*
X5968926Y836592D02*
X5928299D01*
Y775651D01*
X5968926D01*
X5928299Y806122D02*
X5948613D01*
X5989239Y775651D02*
Y836592D01*
X6029866Y775651D01*
Y836592D01*
X6090806Y826435D02*
X6080650Y836592D01*
X6060336D01*
X6050180Y826435D01*
Y785808D01*
X6060336Y775651D01*
X6080650D01*
X6090806Y785808D01*
X6141590Y836592D02*
X6121277D01*
X6111120Y826435D01*
Y785808D01*
X6121277Y775651D01*
X6141590D01*
X6151747Y785808D01*
Y826435D01*
X6141590Y836592D01*
X6172060D02*
Y775651D01*
X6202530D01*
X6212687Y785808D01*
Y826435D01*
X6202530Y836592D01*
X6172060D01*
X6273627D02*
X6233000D01*
Y775651D01*
X6273627D01*
X6233000Y806122D02*
X6253314D01*
X6293940Y775651D02*
Y836592D01*
X6324411D01*
X6334567Y826435D01*
Y806122D01*
X6324411Y795965D01*
X6293940D01*
X6314254D02*
X6334567Y775651D01*
X7741718D02*
Y836592D01*
X7772188D01*
X7782345Y826435D01*
Y806122D01*
X7772188Y795965D01*
X7741718D01*
X7762031D02*
X7782345Y775651D01*
X7833128Y836592D02*
X7812815D01*
X7802658Y826435D01*
Y785808D01*
X7812815Y775651D01*
X7833128D01*
X7843285Y785808D01*
Y826435D01*
X7833128Y836592D01*
X7863598D02*
X7904225D01*
X7883912D01*
Y775651D01*
X7924539D02*
Y816278D01*
X7944852Y836592D01*
X7965165Y816278D01*
Y775651D01*
Y806122D01*
X7924539D01*
X7985479Y775651D02*
Y836592D01*
X8015949D01*
X8026106Y826435D01*
Y806122D01*
X8015949Y795965D01*
X7985479D01*
X8005792D02*
X8026106Y775651D01*
X8046419Y836592D02*
Y826435D01*
X8066732Y806122D01*
X8087046Y826435D01*
Y836592D01*
X8066732Y806122D02*
Y775651D01*
X8107359Y765495D02*
X8147986D01*
X8208926Y836592D02*
X8168299D01*
Y775651D01*
X8208926D01*
X8168299Y806122D02*
X8188613D01*
X8229240Y775651D02*
Y836592D01*
X8269866Y775651D01*
Y836592D01*
X8330807Y826435D02*
X8320650Y836592D01*
X8300336D01*
X8290180Y826435D01*
Y785808D01*
X8300336Y775651D01*
X8320650D01*
X8330807Y785808D01*
X8381590Y836592D02*
X8361277D01*
X8351120Y826435D01*
Y785808D01*
X8361277Y775651D01*
X8381590D01*
X8391747Y785808D01*
Y826435D01*
X8381590Y836592D01*
X8412060D02*
Y775651D01*
X8442530D01*
X8452687Y785808D01*
Y826435D01*
X8442530Y836592D01*
X8412060D01*
X8513627D02*
X8473000D01*
Y775651D01*
X8513627D01*
X8473000Y806122D02*
X8493314D01*
X8533941Y775651D02*
Y836592D01*
X8564411D01*
X8574567Y826435D01*
Y806122D01*
X8564411Y795965D01*
X8533941D01*
X8554254D02*
X8574567Y775651D01*
X1021718Y2675651D02*
Y2736592D01*
X1052188D01*
X1062345Y2726435D01*
Y2706122D01*
X1052188Y2695965D01*
X1021718D01*
X1042031D02*
X1062345Y2675651D01*
X1113128Y2736592D02*
X1092815D01*
X1082658Y2726435D01*
Y2685808D01*
X1092815Y2675651D01*
X1113128D01*
X1123285Y2685808D01*
Y2726435D01*
X1113128Y2736592D01*
X1143598D02*
X1184225D01*
X1163912D01*
Y2675651D01*
X1204538D02*
Y2716278D01*
X1224852Y2736592D01*
X1245165Y2716278D01*
Y2675651D01*
Y2706122D01*
X1204538D01*
X1265479Y2675651D02*
Y2736592D01*
X1295949D01*
X1306105Y2726435D01*
Y2706122D01*
X1295949Y2695965D01*
X1265479D01*
X1285792D02*
X1306105Y2675651D01*
X1326419Y2736592D02*
Y2726435D01*
X1346732Y2706122D01*
X1367046Y2726435D01*
Y2736592D01*
X1346732Y2706122D02*
Y2675651D01*
X1387359Y2665495D02*
X1427986D01*
X1488926Y2736592D02*
X1448299D01*
Y2675651D01*
X1488926D01*
X1448299Y2706122D02*
X1468613D01*
X1509239Y2675651D02*
Y2736592D01*
X1549866Y2675651D01*
Y2736592D01*
X1610806Y2726435D02*
X1600650Y2736592D01*
X1580336D01*
X1570179Y2726435D01*
Y2685808D01*
X1580336Y2675651D01*
X1600650D01*
X1610806Y2685808D01*
X1661590Y2736592D02*
X1641276D01*
X1631120Y2726435D01*
Y2685808D01*
X1641276Y2675651D01*
X1661590D01*
X1671746Y2685808D01*
Y2726435D01*
X1661590Y2736592D01*
X1692060D02*
Y2675651D01*
X1722530D01*
X1732687Y2685808D01*
Y2726435D01*
X1722530Y2736592D01*
X1692060D01*
X1793627D02*
X1753000D01*
Y2675651D01*
X1793627D01*
X1753000Y2706122D02*
X1773313D01*
X1813940Y2675651D02*
Y2736592D01*
X1844410D01*
X1854567Y2726435D01*
Y2706122D01*
X1844410Y2695965D01*
X1813940D01*
X1834254D02*
X1854567Y2675651D01*
X3261718D02*
Y2736592D01*
X3292188D01*
X3302345Y2726435D01*
Y2706122D01*
X3292188Y2695965D01*
X3261718D01*
X3282031D02*
X3302345Y2675651D01*
X3353128Y2736592D02*
X3332815D01*
X3322658Y2726435D01*
Y2685808D01*
X3332815Y2675651D01*
X3353128D01*
X3363285Y2685808D01*
Y2726435D01*
X3353128Y2736592D01*
X3383598D02*
X3424225D01*
X3403912D01*
Y2675651D01*
X3444538D02*
Y2716278D01*
X3464852Y2736592D01*
X3485165Y2716278D01*
Y2675651D01*
Y2706122D01*
X3444538D01*
X3505479Y2675651D02*
Y2736592D01*
X3535949D01*
X3546105Y2726435D01*
Y2706122D01*
X3535949Y2695965D01*
X3505479D01*
X3525792D02*
X3546105Y2675651D01*
X3566419Y2736592D02*
Y2726435D01*
X3586732Y2706122D01*
X3607046Y2726435D01*
Y2736592D01*
X3586732Y2706122D02*
Y2675651D01*
X3627359Y2665495D02*
X3667986D01*
X3728926Y2736592D02*
X3688299D01*
Y2675651D01*
X3728926D01*
X3688299Y2706122D02*
X3708613D01*
X3749239Y2675651D02*
Y2736592D01*
X3789866Y2675651D01*
Y2736592D01*
X3850806Y2726435D02*
X3840650Y2736592D01*
X3820336D01*
X3810180Y2726435D01*
Y2685808D01*
X3820336Y2675651D01*
X3840650D01*
X3850806Y2685808D01*
X3901590Y2736592D02*
X3881276D01*
X3871120Y2726435D01*
Y2685808D01*
X3881276Y2675651D01*
X3901590D01*
X3911747Y2685808D01*
Y2726435D01*
X3901590Y2736592D01*
X3932060D02*
Y2675651D01*
X3962530D01*
X3972687Y2685808D01*
Y2726435D01*
X3962530Y2736592D01*
X3932060D01*
X4033627D02*
X3993000D01*
Y2675651D01*
X4033627D01*
X3993000Y2706122D02*
X4013314D01*
X4053940Y2675651D02*
Y2736592D01*
X4084410D01*
X4094567Y2726435D01*
Y2706122D01*
X4084410Y2695965D01*
X4053940D01*
X4074254D02*
X4094567Y2675651D01*
X5501718D02*
Y2736592D01*
X5532188D01*
X5542345Y2726435D01*
Y2706122D01*
X5532188Y2695965D01*
X5501718D01*
X5522031D02*
X5542345Y2675651D01*
X5593128Y2736592D02*
X5572815D01*
X5562658Y2726435D01*
Y2685808D01*
X5572815Y2675651D01*
X5593128D01*
X5603285Y2685808D01*
Y2726435D01*
X5593128Y2736592D01*
X5623598D02*
X5664225D01*
X5643912D01*
Y2675651D01*
X5684539D02*
Y2716278D01*
X5704852Y2736592D01*
X5725165Y2716278D01*
Y2675651D01*
Y2706122D01*
X5684539D01*
X5745479Y2675651D02*
Y2736592D01*
X5775949D01*
X5786106Y2726435D01*
Y2706122D01*
X5775949Y2695965D01*
X5745479D01*
X5765792D02*
X5786106Y2675651D01*
X5806419Y2736592D02*
Y2726435D01*
X5826732Y2706122D01*
X5847046Y2726435D01*
Y2736592D01*
X5826732Y2706122D02*
Y2675651D01*
X5867359Y2665495D02*
X5907986D01*
X5968926Y2736592D02*
X5928299D01*
Y2675651D01*
X5968926D01*
X5928299Y2706122D02*
X5948613D01*
X5989239Y2675651D02*
Y2736592D01*
X6029866Y2675651D01*
Y2736592D01*
X6090806Y2726435D02*
X6080650Y2736592D01*
X6060336D01*
X6050180Y2726435D01*
Y2685808D01*
X6060336Y2675651D01*
X6080650D01*
X6090806Y2685808D01*
X6141590Y2736592D02*
X6121277D01*
X6111120Y2726435D01*
Y2685808D01*
X6121277Y2675651D01*
X6141590D01*
X6151747Y2685808D01*
Y2726435D01*
X6141590Y2736592D01*
X6172060D02*
Y2675651D01*
X6202530D01*
X6212687Y2685808D01*
Y2726435D01*
X6202530Y2736592D01*
X6172060D01*
X6273627D02*
X6233000D01*
Y2675651D01*
X6273627D01*
X6233000Y2706122D02*
X6253314D01*
X6293940Y2675651D02*
Y2736592D01*
X6324411D01*
X6334567Y2726435D01*
Y2706122D01*
X6324411Y2695965D01*
X6293940D01*
X6314254D02*
X6334567Y2675651D01*
X7741718D02*
Y2736592D01*
X7772188D01*
X7782345Y2726435D01*
Y2706122D01*
X7772188Y2695965D01*
X7741718D01*
X7762031D02*
X7782345Y2675651D01*
X7833128Y2736592D02*
X7812815D01*
X7802658Y2726435D01*
Y2685808D01*
X7812815Y2675651D01*
X7833128D01*
X7843285Y2685808D01*
Y2726435D01*
X7833128Y2736592D01*
X7863598D02*
X7904225D01*
X7883912D01*
Y2675651D01*
X7924539D02*
Y2716278D01*
X7944852Y2736592D01*
X7965165Y2716278D01*
Y2675651D01*
Y2706122D01*
X7924539D01*
X7985479Y2675651D02*
Y2736592D01*
X8015949D01*
X8026106Y2726435D01*
Y2706122D01*
X8015949Y2695965D01*
X7985479D01*
X8005792D02*
X8026106Y2675651D01*
X8046419Y2736592D02*
Y2726435D01*
X8066732Y2706122D01*
X8087046Y2726435D01*
Y2736592D01*
X8066732Y2706122D02*
Y2675651D01*
X8107359Y2665495D02*
X8147986D01*
X8208926Y2736592D02*
X8168299D01*
Y2675651D01*
X8208926D01*
X8168299Y2706122D02*
X8188613D01*
X8229240Y2675651D02*
Y2736592D01*
X8269866Y2675651D01*
Y2736592D01*
X8330807Y2726435D02*
X8320650Y2736592D01*
X8300336D01*
X8290180Y2726435D01*
Y2685808D01*
X8300336Y2675651D01*
X8320650D01*
X8330807Y2685808D01*
X8381590Y2736592D02*
X8361277D01*
X8351120Y2726435D01*
Y2685808D01*
X8361277Y2675651D01*
X8381590D01*
X8391747Y2685808D01*
Y2726435D01*
X8381590Y2736592D01*
X8412060D02*
Y2675651D01*
X8442530D01*
X8452687Y2685808D01*
Y2726435D01*
X8442530Y2736592D01*
X8412060D01*
X8513627D02*
X8473000D01*
Y2675651D01*
X8513627D01*
X8473000Y2706122D02*
X8493314D01*
X8533941Y2675651D02*
Y2736592D01*
X8564411D01*
X8574567Y2726435D01*
Y2706122D01*
X8564411Y2695965D01*
X8533941D01*
X8554254D02*
X8574567Y2675651D01*
X1021718Y4575652D02*
Y4636592D01*
X1052188D01*
X1062345Y4626435D01*
Y4606122D01*
X1052188Y4595965D01*
X1021718D01*
X1042031D02*
X1062345Y4575652D01*
X1113128Y4636592D02*
X1092815D01*
X1082658Y4626435D01*
Y4585808D01*
X1092815Y4575652D01*
X1113128D01*
X1123285Y4585808D01*
Y4626435D01*
X1113128Y4636592D01*
X1143598D02*
X1184225D01*
X1163912D01*
Y4575652D01*
X1204538D02*
Y4616278D01*
X1224852Y4636592D01*
X1245165Y4616278D01*
Y4575652D01*
Y4606122D01*
X1204538D01*
X1265479Y4575652D02*
Y4636592D01*
X1295949D01*
X1306105Y4626435D01*
Y4606122D01*
X1295949Y4595965D01*
X1265479D01*
X1285792D02*
X1306105Y4575652D01*
X1326419Y4636592D02*
Y4626435D01*
X1346732Y4606122D01*
X1367046Y4626435D01*
Y4636592D01*
X1346732Y4606122D02*
Y4575652D01*
X1387359Y4565495D02*
X1427986D01*
X1488926Y4636592D02*
X1448299D01*
Y4575652D01*
X1488926D01*
X1448299Y4606122D02*
X1468613D01*
X1509239Y4575652D02*
Y4636592D01*
X1549866Y4575652D01*
Y4636592D01*
X1610806Y4626435D02*
X1600650Y4636592D01*
X1580336D01*
X1570179Y4626435D01*
Y4585808D01*
X1580336Y4575652D01*
X1600650D01*
X1610806Y4585808D01*
X1661590Y4636592D02*
X1641276D01*
X1631120Y4626435D01*
Y4585808D01*
X1641276Y4575652D01*
X1661590D01*
X1671746Y4585808D01*
Y4626435D01*
X1661590Y4636592D01*
X1692060D02*
Y4575652D01*
X1722530D01*
X1732687Y4585808D01*
Y4626435D01*
X1722530Y4636592D01*
X1692060D01*
X1793627D02*
X1753000D01*
Y4575652D01*
X1793627D01*
X1753000Y4606122D02*
X1773313D01*
X1813940Y4575652D02*
Y4636592D01*
X1844410D01*
X1854567Y4626435D01*
Y4606122D01*
X1844410Y4595965D01*
X1813940D01*
X1834254D02*
X1854567Y4575652D01*
X3261718D02*
Y4636592D01*
X3292188D01*
X3302345Y4626435D01*
Y4606122D01*
X3292188Y4595965D01*
X3261718D01*
X3282031D02*
X3302345Y4575652D01*
X3353128Y4636592D02*
X3332815D01*
X3322658Y4626435D01*
Y4585808D01*
X3332815Y4575652D01*
X3353128D01*
X3363285Y4585808D01*
Y4626435D01*
X3353128Y4636592D01*
X3383598D02*
X3424225D01*
X3403912D01*
Y4575652D01*
X3444538D02*
Y4616278D01*
X3464852Y4636592D01*
X3485165Y4616278D01*
Y4575652D01*
Y4606122D01*
X3444538D01*
X3505479Y4575652D02*
Y4636592D01*
X3535949D01*
X3546105Y4626435D01*
Y4606122D01*
X3535949Y4595965D01*
X3505479D01*
X3525792D02*
X3546105Y4575652D01*
X3566419Y4636592D02*
Y4626435D01*
X3586732Y4606122D01*
X3607046Y4626435D01*
Y4636592D01*
X3586732Y4606122D02*
Y4575652D01*
X3627359Y4565495D02*
X3667986D01*
X3728926Y4636592D02*
X3688299D01*
Y4575652D01*
X3728926D01*
X3688299Y4606122D02*
X3708613D01*
X3749239Y4575652D02*
Y4636592D01*
X3789866Y4575652D01*
Y4636592D01*
X3850806Y4626435D02*
X3840650Y4636592D01*
X3820336D01*
X3810180Y4626435D01*
Y4585808D01*
X3820336Y4575652D01*
X3840650D01*
X3850806Y4585808D01*
X3901590Y4636592D02*
X3881276D01*
X3871120Y4626435D01*
Y4585808D01*
X3881276Y4575652D01*
X3901590D01*
X3911747Y4585808D01*
Y4626435D01*
X3901590Y4636592D01*
X3932060D02*
Y4575652D01*
X3962530D01*
X3972687Y4585808D01*
Y4626435D01*
X3962530Y4636592D01*
X3932060D01*
X4033627D02*
X3993000D01*
Y4575652D01*
X4033627D01*
X3993000Y4606122D02*
X4013314D01*
X4053940Y4575652D02*
Y4636592D01*
X4084410D01*
X4094567Y4626435D01*
Y4606122D01*
X4084410Y4595965D01*
X4053940D01*
X4074254D02*
X4094567Y4575652D01*
X5501718D02*
Y4636592D01*
X5532188D01*
X5542345Y4626435D01*
Y4606122D01*
X5532188Y4595965D01*
X5501718D01*
X5522031D02*
X5542345Y4575652D01*
X5593128Y4636592D02*
X5572815D01*
X5562658Y4626435D01*
Y4585808D01*
X5572815Y4575652D01*
X5593128D01*
X5603285Y4585808D01*
Y4626435D01*
X5593128Y4636592D01*
X5623598D02*
X5664225D01*
X5643912D01*
Y4575652D01*
X5684539D02*
Y4616278D01*
X5704852Y4636592D01*
X5725165Y4616278D01*
Y4575652D01*
Y4606122D01*
X5684539D01*
X5745479Y4575652D02*
Y4636592D01*
X5775949D01*
X5786106Y4626435D01*
Y4606122D01*
X5775949Y4595965D01*
X5745479D01*
X5765792D02*
X5786106Y4575652D01*
X5806419Y4636592D02*
Y4626435D01*
X5826732Y4606122D01*
X5847046Y4626435D01*
Y4636592D01*
X5826732Y4606122D02*
Y4575652D01*
X5867359Y4565495D02*
X5907986D01*
X5968926Y4636592D02*
X5928299D01*
Y4575652D01*
X5968926D01*
X5928299Y4606122D02*
X5948613D01*
X5989239Y4575652D02*
Y4636592D01*
X6029866Y4575652D01*
Y4636592D01*
X6090806Y4626435D02*
X6080650Y4636592D01*
X6060336D01*
X6050180Y4626435D01*
Y4585808D01*
X6060336Y4575652D01*
X6080650D01*
X6090806Y4585808D01*
X6141590Y4636592D02*
X6121277D01*
X6111120Y4626435D01*
Y4585808D01*
X6121277Y4575652D01*
X6141590D01*
X6151747Y4585808D01*
Y4626435D01*
X6141590Y4636592D01*
X6172060D02*
Y4575652D01*
X6202530D01*
X6212687Y4585808D01*
Y4626435D01*
X6202530Y4636592D01*
X6172060D01*
X6273627D02*
X6233000D01*
Y4575652D01*
X6273627D01*
X6233000Y4606122D02*
X6253314D01*
X6293940Y4575652D02*
Y4636592D01*
X6324411D01*
X6334567Y4626435D01*
Y4606122D01*
X6324411Y4595965D01*
X6293940D01*
X6314254D02*
X6334567Y4575652D01*
X7741718D02*
Y4636592D01*
X7772188D01*
X7782345Y4626435D01*
Y4606122D01*
X7772188Y4595965D01*
X7741718D01*
X7762031D02*
X7782345Y4575652D01*
X7833128Y4636592D02*
X7812815D01*
X7802658Y4626435D01*
Y4585808D01*
X7812815Y4575652D01*
X7833128D01*
X7843285Y4585808D01*
Y4626435D01*
X7833128Y4636592D01*
X7863598D02*
X7904225D01*
X7883912D01*
Y4575652D01*
X7924539D02*
Y4616278D01*
X7944852Y4636592D01*
X7965165Y4616278D01*
Y4575652D01*
Y4606122D01*
X7924539D01*
X7985479Y4575652D02*
Y4636592D01*
X8015949D01*
X8026106Y4626435D01*
Y4606122D01*
X8015949Y4595965D01*
X7985479D01*
X8005792D02*
X8026106Y4575652D01*
X8046419Y4636592D02*
Y4626435D01*
X8066732Y4606122D01*
X8087046Y4626435D01*
Y4636592D01*
X8066732Y4606122D02*
Y4575652D01*
X8107359Y4565495D02*
X8147986D01*
X8208926Y4636592D02*
X8168299D01*
Y4575652D01*
X8208926D01*
X8168299Y4606122D02*
X8188613D01*
X8229240Y4575652D02*
Y4636592D01*
X8269866Y4575652D01*
Y4636592D01*
X8330807Y4626435D02*
X8320650Y4636592D01*
X8300336D01*
X8290180Y4626435D01*
Y4585808D01*
X8300336Y4575652D01*
X8320650D01*
X8330807Y4585808D01*
X8381590Y4636592D02*
X8361277D01*
X8351120Y4626435D01*
Y4585808D01*
X8361277Y4575652D01*
X8381590D01*
X8391747Y4585808D01*
Y4626435D01*
X8381590Y4636592D01*
X8412060D02*
Y4575652D01*
X8442530D01*
X8452687Y4585808D01*
Y4626435D01*
X8442530Y4636592D01*
X8412060D01*
X8513627D02*
X8473000D01*
Y4575652D01*
X8513627D01*
X8473000Y4606122D02*
X8493314D01*
X8533941Y4575652D02*
Y4636592D01*
X8564411D01*
X8574567Y4626435D01*
Y4606122D01*
X8564411Y4595965D01*
X8533941D01*
X8554254D02*
X8574567Y4575652D01*
X1021718Y6475652D02*
Y6536592D01*
X1052188D01*
X1062345Y6526435D01*
Y6506122D01*
X1052188Y6495965D01*
X1021718D01*
X1042031D02*
X1062345Y6475652D01*
X1113128Y6536592D02*
X1092815D01*
X1082658Y6526435D01*
Y6485808D01*
X1092815Y6475652D01*
X1113128D01*
X1123285Y6485808D01*
Y6526435D01*
X1113128Y6536592D01*
X1143598D02*
X1184225D01*
X1163912D01*
Y6475652D01*
X1204538D02*
Y6516278D01*
X1224852Y6536592D01*
X1245165Y6516278D01*
Y6475652D01*
Y6506122D01*
X1204538D01*
X1265479Y6475652D02*
Y6536592D01*
X1295949D01*
X1306105Y6526435D01*
Y6506122D01*
X1295949Y6495965D01*
X1265479D01*
X1285792D02*
X1306105Y6475652D01*
X1326419Y6536592D02*
Y6526435D01*
X1346732Y6506122D01*
X1367046Y6526435D01*
Y6536592D01*
X1346732Y6506122D02*
Y6475652D01*
X1387359Y6465495D02*
X1427986D01*
X1488926Y6536592D02*
X1448299D01*
Y6475652D01*
X1488926D01*
X1448299Y6506122D02*
X1468613D01*
X1509239Y6475652D02*
Y6536592D01*
X1549866Y6475652D01*
Y6536592D01*
X1610806Y6526435D02*
X1600650Y6536592D01*
X1580336D01*
X1570179Y6526435D01*
Y6485808D01*
X1580336Y6475652D01*
X1600650D01*
X1610806Y6485808D01*
X1661590Y6536592D02*
X1641276D01*
X1631120Y6526435D01*
Y6485808D01*
X1641276Y6475652D01*
X1661590D01*
X1671746Y6485808D01*
Y6526435D01*
X1661590Y6536592D01*
X1692060D02*
Y6475652D01*
X1722530D01*
X1732687Y6485808D01*
Y6526435D01*
X1722530Y6536592D01*
X1692060D01*
X1793627D02*
X1753000D01*
Y6475652D01*
X1793627D01*
X1753000Y6506122D02*
X1773313D01*
X1813940Y6475652D02*
Y6536592D01*
X1844410D01*
X1854567Y6526435D01*
Y6506122D01*
X1844410Y6495965D01*
X1813940D01*
X1834254D02*
X1854567Y6475652D01*
X3261718D02*
Y6536592D01*
X3292188D01*
X3302345Y6526435D01*
Y6506122D01*
X3292188Y6495965D01*
X3261718D01*
X3282031D02*
X3302345Y6475652D01*
X3353128Y6536592D02*
X3332815D01*
X3322658Y6526435D01*
Y6485808D01*
X3332815Y6475652D01*
X3353128D01*
X3363285Y6485808D01*
Y6526435D01*
X3353128Y6536592D01*
X3383598D02*
X3424225D01*
X3403912D01*
Y6475652D01*
X3444538D02*
Y6516278D01*
X3464852Y6536592D01*
X3485165Y6516278D01*
Y6475652D01*
Y6506122D01*
X3444538D01*
X3505479Y6475652D02*
Y6536592D01*
X3535949D01*
X3546105Y6526435D01*
Y6506122D01*
X3535949Y6495965D01*
X3505479D01*
X3525792D02*
X3546105Y6475652D01*
X3566419Y6536592D02*
Y6526435D01*
X3586732Y6506122D01*
X3607046Y6526435D01*
Y6536592D01*
X3586732Y6506122D02*
Y6475652D01*
X3627359Y6465495D02*
X3667986D01*
X3728926Y6536592D02*
X3688299D01*
Y6475652D01*
X3728926D01*
X3688299Y6506122D02*
X3708613D01*
X3749239Y6475652D02*
Y6536592D01*
X3789866Y6475652D01*
Y6536592D01*
X3850806Y6526435D02*
X3840650Y6536592D01*
X3820336D01*
X3810180Y6526435D01*
Y6485808D01*
X3820336Y6475652D01*
X3840650D01*
X3850806Y6485808D01*
X3901590Y6536592D02*
X3881276D01*
X3871120Y6526435D01*
Y6485808D01*
X3881276Y6475652D01*
X3901590D01*
X3911747Y6485808D01*
Y6526435D01*
X3901590Y6536592D01*
X3932060D02*
Y6475652D01*
X3962530D01*
X3972687Y6485808D01*
Y6526435D01*
X3962530Y6536592D01*
X3932060D01*
X4033627D02*
X3993000D01*
Y6475652D01*
X4033627D01*
X3993000Y6506122D02*
X4013314D01*
X4053940Y6475652D02*
Y6536592D01*
X4084410D01*
X4094567Y6526435D01*
Y6506122D01*
X4084410Y6495965D01*
X4053940D01*
X4074254D02*
X4094567Y6475652D01*
X5501718D02*
Y6536592D01*
X5532188D01*
X5542345Y6526435D01*
Y6506122D01*
X5532188Y6495965D01*
X5501718D01*
X5522031D02*
X5542345Y6475652D01*
X5593128Y6536592D02*
X5572815D01*
X5562658Y6526435D01*
Y6485808D01*
X5572815Y6475652D01*
X5593128D01*
X5603285Y6485808D01*
Y6526435D01*
X5593128Y6536592D01*
X5623598D02*
X5664225D01*
X5643912D01*
Y6475652D01*
X5684539D02*
Y6516278D01*
X5704852Y6536592D01*
X5725165Y6516278D01*
Y6475652D01*
Y6506122D01*
X5684539D01*
X5745479Y6475652D02*
Y6536592D01*
X5775949D01*
X5786106Y6526435D01*
Y6506122D01*
X5775949Y6495965D01*
X5745479D01*
X5765792D02*
X5786106Y6475652D01*
X5806419Y6536592D02*
Y6526435D01*
X5826732Y6506122D01*
X5847046Y6526435D01*
Y6536592D01*
X5826732Y6506122D02*
Y6475652D01*
X5867359Y6465495D02*
X5907986D01*
X5968926Y6536592D02*
X5928299D01*
Y6475652D01*
X5968926D01*
X5928299Y6506122D02*
X5948613D01*
X5989239Y6475652D02*
Y6536592D01*
X6029866Y6475652D01*
Y6536592D01*
X6090806Y6526435D02*
X6080650Y6536592D01*
X6060336D01*
X6050180Y6526435D01*
Y6485808D01*
X6060336Y6475652D01*
X6080650D01*
X6090806Y6485808D01*
X6141590Y6536592D02*
X6121277D01*
X6111120Y6526435D01*
Y6485808D01*
X6121277Y6475652D01*
X6141590D01*
X6151747Y6485808D01*
Y6526435D01*
X6141590Y6536592D01*
X6172060D02*
Y6475652D01*
X6202530D01*
X6212687Y6485808D01*
Y6526435D01*
X6202530Y6536592D01*
X6172060D01*
X6273627D02*
X6233000D01*
Y6475652D01*
X6273627D01*
X6233000Y6506122D02*
X6253314D01*
X6293940Y6475652D02*
Y6536592D01*
X6324411D01*
X6334567Y6526435D01*
Y6506122D01*
X6324411Y6495965D01*
X6293940D01*
X6314254D02*
X6334567Y6475652D01*
X7741718D02*
Y6536592D01*
X7772188D01*
X7782345Y6526435D01*
Y6506122D01*
X7772188Y6495965D01*
X7741718D01*
X7762031D02*
X7782345Y6475652D01*
X7833128Y6536592D02*
X7812815D01*
X7802658Y6526435D01*
Y6485808D01*
X7812815Y6475652D01*
X7833128D01*
X7843285Y6485808D01*
Y6526435D01*
X7833128Y6536592D01*
X7863598D02*
X7904225D01*
X7883912D01*
Y6475652D01*
X7924539D02*
Y6516278D01*
X7944852Y6536592D01*
X7965165Y6516278D01*
Y6475652D01*
Y6506122D01*
X7924539D01*
X7985479Y6475652D02*
Y6536592D01*
X8015949D01*
X8026106Y6526435D01*
Y6506122D01*
X8015949Y6495965D01*
X7985479D01*
X8005792D02*
X8026106Y6475652D01*
X8046419Y6536592D02*
Y6526435D01*
X8066732Y6506122D01*
X8087046Y6526435D01*
Y6536592D01*
X8066732Y6506122D02*
Y6475652D01*
X8107359Y6465495D02*
X8147986D01*
X8208926Y6536592D02*
X8168299D01*
Y6475652D01*
X8208926D01*
X8168299Y6506122D02*
X8188613D01*
X8229240Y6475652D02*
Y6536592D01*
X8269866Y6475652D01*
Y6536592D01*
X8330807Y6526435D02*
X8320650Y6536592D01*
X8300336D01*
X8290180Y6526435D01*
Y6485808D01*
X8300336Y6475652D01*
X8320650D01*
X8330807Y6485808D01*
X8381590Y6536592D02*
X8361277D01*
X8351120Y6526435D01*
Y6485808D01*
X8361277Y6475652D01*
X8381590D01*
X8391747Y6485808D01*
Y6526435D01*
X8381590Y6536592D01*
X8412060D02*
Y6475652D01*
X8442530D01*
X8452687Y6485808D01*
Y6526435D01*
X8442530Y6536592D01*
X8412060D01*
X8513627D02*
X8473000D01*
Y6475652D01*
X8513627D01*
X8473000Y6506122D02*
X8493314D01*
X8533941Y6475652D02*
Y6536592D01*
X8564411D01*
X8574567Y6526435D01*
Y6506122D01*
X8564411Y6495965D01*
X8533941D01*
X8554254D02*
X8574567Y6475652D01*
X1021718Y8375652D02*
Y8436592D01*
X1052188D01*
X1062345Y8426435D01*
Y8406122D01*
X1052188Y8395965D01*
X1021718D01*
X1042031D02*
X1062345Y8375652D01*
X1113128Y8436592D02*
X1092815D01*
X1082658Y8426435D01*
Y8385808D01*
X1092815Y8375652D01*
X1113128D01*
X1123285Y8385808D01*
Y8426435D01*
X1113128Y8436592D01*
X1143598D02*
X1184225D01*
X1163912D01*
Y8375652D01*
X1204538D02*
Y8416278D01*
X1224852Y8436592D01*
X1245165Y8416278D01*
Y8375652D01*
Y8406122D01*
X1204538D01*
X1265479Y8375652D02*
Y8436592D01*
X1295949D01*
X1306105Y8426435D01*
Y8406122D01*
X1295949Y8395965D01*
X1265479D01*
X1285792D02*
X1306105Y8375652D01*
X1326419Y8436592D02*
Y8426435D01*
X1346732Y8406122D01*
X1367046Y8426435D01*
Y8436592D01*
X1346732Y8406122D02*
Y8375652D01*
X1387359Y8365495D02*
X1427986D01*
X1488926Y8436592D02*
X1448299D01*
Y8375652D01*
X1488926D01*
X1448299Y8406122D02*
X1468613D01*
X1509239Y8375652D02*
Y8436592D01*
X1549866Y8375652D01*
Y8436592D01*
X1610806Y8426435D02*
X1600650Y8436592D01*
X1580336D01*
X1570179Y8426435D01*
Y8385808D01*
X1580336Y8375652D01*
X1600650D01*
X1610806Y8385808D01*
X1661590Y8436592D02*
X1641276D01*
X1631120Y8426435D01*
Y8385808D01*
X1641276Y8375652D01*
X1661590D01*
X1671746Y8385808D01*
Y8426435D01*
X1661590Y8436592D01*
X1692060D02*
Y8375652D01*
X1722530D01*
X1732687Y8385808D01*
Y8426435D01*
X1722530Y8436592D01*
X1692060D01*
X1793627D02*
X1753000D01*
Y8375652D01*
X1793627D01*
X1753000Y8406122D02*
X1773313D01*
X1813940Y8375652D02*
Y8436592D01*
X1844410D01*
X1854567Y8426435D01*
Y8406122D01*
X1844410Y8395965D01*
X1813940D01*
X1834254D02*
X1854567Y8375652D01*
X3261718D02*
Y8436592D01*
X3292188D01*
X3302345Y8426435D01*
Y8406122D01*
X3292188Y8395965D01*
X3261718D01*
X3282031D02*
X3302345Y8375652D01*
X3353128Y8436592D02*
X3332815D01*
X3322658Y8426435D01*
Y8385808D01*
X3332815Y8375652D01*
X3353128D01*
X3363285Y8385808D01*
Y8426435D01*
X3353128Y8436592D01*
X3383598D02*
X3424225D01*
X3403912D01*
Y8375652D01*
X3444538D02*
Y8416278D01*
X3464852Y8436592D01*
X3485165Y8416278D01*
Y8375652D01*
Y8406122D01*
X3444538D01*
X3505479Y8375652D02*
Y8436592D01*
X3535949D01*
X3546105Y8426435D01*
Y8406122D01*
X3535949Y8395965D01*
X3505479D01*
X3525792D02*
X3546105Y8375652D01*
X3566419Y8436592D02*
Y8426435D01*
X3586732Y8406122D01*
X3607046Y8426435D01*
Y8436592D01*
X3586732Y8406122D02*
Y8375652D01*
X3627359Y8365495D02*
X3667986D01*
X3728926Y8436592D02*
X3688299D01*
Y8375652D01*
X3728926D01*
X3688299Y8406122D02*
X3708613D01*
X3749239Y8375652D02*
Y8436592D01*
X3789866Y8375652D01*
Y8436592D01*
X3850806Y8426435D02*
X3840650Y8436592D01*
X3820336D01*
X3810180Y8426435D01*
Y8385808D01*
X3820336Y8375652D01*
X3840650D01*
X3850806Y8385808D01*
X3901590Y8436592D02*
X3881276D01*
X3871120Y8426435D01*
Y8385808D01*
X3881276Y8375652D01*
X3901590D01*
X3911747Y8385808D01*
Y8426435D01*
X3901590Y8436592D01*
X3932060D02*
Y8375652D01*
X3962530D01*
X3972687Y8385808D01*
Y8426435D01*
X3962530Y8436592D01*
X3932060D01*
X4033627D02*
X3993000D01*
Y8375652D01*
X4033627D01*
X3993000Y8406122D02*
X4013314D01*
X4053940Y8375652D02*
Y8436592D01*
X4084410D01*
X4094567Y8426435D01*
Y8406122D01*
X4084410Y8395965D01*
X4053940D01*
X4074254D02*
X4094567Y8375652D01*
X5501718D02*
Y8436592D01*
X5532188D01*
X5542345Y8426435D01*
Y8406122D01*
X5532188Y8395965D01*
X5501718D01*
X5522031D02*
X5542345Y8375652D01*
X5593128Y8436592D02*
X5572815D01*
X5562658Y8426435D01*
Y8385808D01*
X5572815Y8375652D01*
X5593128D01*
X5603285Y8385808D01*
Y8426435D01*
X5593128Y8436592D01*
X5623598D02*
X5664225D01*
X5643912D01*
Y8375652D01*
X5684539D02*
Y8416278D01*
X5704852Y8436592D01*
X5725165Y8416278D01*
Y8375652D01*
Y8406122D01*
X5684539D01*
X5745479Y8375652D02*
Y8436592D01*
X5775949D01*
X5786106Y8426435D01*
Y8406122D01*
X5775949Y8395965D01*
X5745479D01*
X5765792D02*
X5786106Y8375652D01*
X5806419Y8436592D02*
Y8426435D01*
X5826732Y8406122D01*
X5847046Y8426435D01*
Y8436592D01*
X5826732Y8406122D02*
Y8375652D01*
X5867359Y8365495D02*
X5907986D01*
X5968926Y8436592D02*
X5928299D01*
Y8375652D01*
X5968926D01*
X5928299Y8406122D02*
X5948613D01*
X5989239Y8375652D02*
Y8436592D01*
X6029866Y8375652D01*
Y8436592D01*
X6090806Y8426435D02*
X6080650Y8436592D01*
X6060336D01*
X6050180Y8426435D01*
Y8385808D01*
X6060336Y8375652D01*
X6080650D01*
X6090806Y8385808D01*
X6141590Y8436592D02*
X6121277D01*
X6111120Y8426435D01*
Y8385808D01*
X6121277Y8375652D01*
X6141590D01*
X6151747Y8385808D01*
Y8426435D01*
X6141590Y8436592D01*
X6172060D02*
Y8375652D01*
X6202530D01*
X6212687Y8385808D01*
Y8426435D01*
X6202530Y8436592D01*
X6172060D01*
X6273627D02*
X6233000D01*
Y8375652D01*
X6273627D01*
X6233000Y8406122D02*
X6253314D01*
X6293940Y8375652D02*
Y8436592D01*
X6324411D01*
X6334567Y8426435D01*
Y8406122D01*
X6324411Y8395965D01*
X6293940D01*
X6314254D02*
X6334567Y8375652D01*
X7741718D02*
Y8436592D01*
X7772188D01*
X7782345Y8426435D01*
Y8406122D01*
X7772188Y8395965D01*
X7741718D01*
X7762031D02*
X7782345Y8375652D01*
X7833128Y8436592D02*
X7812815D01*
X7802658Y8426435D01*
Y8385808D01*
X7812815Y8375652D01*
X7833128D01*
X7843285Y8385808D01*
Y8426435D01*
X7833128Y8436592D01*
X7863598D02*
X7904225D01*
X7883912D01*
Y8375652D01*
X7924539D02*
Y8416278D01*
X7944852Y8436592D01*
X7965165Y8416278D01*
Y8375652D01*
Y8406122D01*
X7924539D01*
X7985479Y8375652D02*
Y8436592D01*
X8015949D01*
X8026106Y8426435D01*
Y8406122D01*
X8015949Y8395965D01*
X7985479D01*
X8005792D02*
X8026106Y8375652D01*
X8046419Y8436592D02*
Y8426435D01*
X8066732Y8406122D01*
X8087046Y8426435D01*
Y8436592D01*
X8066732Y8406122D02*
Y8375652D01*
X8107359Y8365495D02*
X8147986D01*
X8208926Y8436592D02*
X8168299D01*
Y8375652D01*
X8208926D01*
X8168299Y8406122D02*
X8188613D01*
X8229240Y8375652D02*
Y8436592D01*
X8269866Y8375652D01*
Y8436592D01*
X8330807Y8426435D02*
X8320650Y8436592D01*
X8300336D01*
X8290180Y8426435D01*
Y8385808D01*
X8300336Y8375652D01*
X8320650D01*
X8330807Y8385808D01*
X8381590Y8436592D02*
X8361277D01*
X8351120Y8426435D01*
Y8385808D01*
X8361277Y8375652D01*
X8381590D01*
X8391747Y8385808D01*
Y8426435D01*
X8381590Y8436592D01*
X8412060D02*
Y8375652D01*
X8442530D01*
X8452687Y8385808D01*
Y8426435D01*
X8442530Y8436592D01*
X8412060D01*
X8513627D02*
X8473000D01*
Y8375652D01*
X8513627D01*
X8473000Y8406122D02*
X8493314D01*
X8533941Y8375652D02*
Y8436592D01*
X8564411D01*
X8574567Y8426435D01*
Y8406122D01*
X8564411Y8395965D01*
X8533941D01*
X8554254D02*
X8574567Y8375652D01*
%TF.MD5,c8f12716953f03d5d5e6cb8e1f636c97*%
M02*
