%TF.GenerationSoftware,Altium Limited,Altium Designer,20.1.8 (145)*%
G04 Layer_Color=8388736*
%FSLAX45Y45*%
%MOMM*%
%TF.SameCoordinates,31433496-A159-4958-A2C2-D52C18178038*%
%TF.FilePolarity,Negative*%
%TF.FileFunction,Soldermask,Top*%
%TF.Part,CustomerPanel*%
G01*
G75*
%TA.AperFunction,SMDPad,CuDef*%
%ADD36C,1.20320*%
%TA.AperFunction,WasherPad*%
%ADD46C,0.29600*%
%TA.AperFunction,ComponentPad*%
%ADD47C,0.50000*%
%ADD48O,1.90000X1.60000*%
G04:AMPARAMS|DCode=49|XSize=1.2mm|YSize=1.2mm|CornerRadius=0.6mm|HoleSize=0mm|Usage=FLASHONLY|Rotation=90.000|XOffset=0mm|YOffset=0mm|HoleType=Round|Shape=RoundedRectangle|*
%AMROUNDEDRECTD49*
21,1,1.20000,0.00000,0,0,90.0*
21,1,0.00000,1.20000,0,0,90.0*
1,1,1.20000,0.00000,0.00000*
1,1,1.20000,0.00000,0.00000*
1,1,1.20000,0.00000,0.00000*
1,1,1.20000,0.00000,0.00000*
%
%ADD49ROUNDEDRECTD49*%
%ADD50O,1.80000X1.10000*%
%ADD51O,2.10000X3.35000*%
G04:AMPARAMS|DCode=52|XSize=2.1mm|YSize=3.35mm|CornerRadius=1.05mm|HoleSize=0mm|Usage=FLASHONLY|Rotation=180.000|XOffset=0mm|YOffset=0mm|HoleType=Round|Shape=RoundedRectangle|*
%AMROUNDEDRECTD52*
21,1,2.10000,1.25000,0,0,180.0*
21,1,0.00000,3.35000,0,0,180.0*
1,1,2.10000,0.00000,0.62500*
1,1,2.10000,0.00000,0.62500*
1,1,2.10000,0.00000,-0.62500*
1,1,2.10000,0.00000,-0.62500*
%
%ADD52ROUNDEDRECTD52*%
D36*
X500000Y1500000D02*
D03*
X9500000D02*
D03*
X500000Y8500000D02*
D03*
X9500000D02*
D03*
D46*
X500000Y500000D02*
D03*
X9500000D02*
D03*
Y9500000D02*
D03*
X500000D02*
D03*
D47*
X2213480Y1732000D02*
D03*
Y1332000D02*
D03*
X4453480Y1732000D02*
D03*
Y1332000D02*
D03*
X6693480Y1732000D02*
D03*
Y1332000D02*
D03*
X8933480Y1732000D02*
D03*
Y1332000D02*
D03*
X2213480Y3632000D02*
D03*
Y3232000D02*
D03*
X4453480Y3632000D02*
D03*
Y3232000D02*
D03*
X6693480Y3632000D02*
D03*
Y3232000D02*
D03*
X8933480Y3632000D02*
D03*
Y3232000D02*
D03*
X2213480Y5532000D02*
D03*
Y5132000D02*
D03*
X4453480Y5532000D02*
D03*
Y5132000D02*
D03*
X6693480Y5532000D02*
D03*
Y5132000D02*
D03*
X8933480Y5532000D02*
D03*
Y5132000D02*
D03*
X2213480Y7432000D02*
D03*
Y7032000D02*
D03*
X4453480Y7432000D02*
D03*
Y7032000D02*
D03*
X6693480Y7432000D02*
D03*
Y7032000D02*
D03*
X8933480Y7432000D02*
D03*
Y7032000D02*
D03*
X2213480Y9332000D02*
D03*
Y8932000D02*
D03*
X4453480Y9332000D02*
D03*
Y8932000D02*
D03*
X6693480Y9332000D02*
D03*
Y8932000D02*
D03*
X8933480Y9332000D02*
D03*
Y8932000D02*
D03*
D48*
X2448480Y1249000D02*
D03*
Y1815000D02*
D03*
X4688480Y1249000D02*
D03*
Y1815000D02*
D03*
X6928480Y1249000D02*
D03*
Y1815000D02*
D03*
X9168480Y1249000D02*
D03*
Y1815000D02*
D03*
X2448480Y3149000D02*
D03*
Y3715000D02*
D03*
X4688480Y3149000D02*
D03*
Y3715000D02*
D03*
X6928480Y3149000D02*
D03*
Y3715000D02*
D03*
X9168480Y3149000D02*
D03*
Y3715000D02*
D03*
X2448480Y5049000D02*
D03*
Y5615000D02*
D03*
X4688480Y5049000D02*
D03*
Y5615000D02*
D03*
X6928480Y5049000D02*
D03*
Y5615000D02*
D03*
X9168480Y5049000D02*
D03*
Y5615000D02*
D03*
X2448480Y6949000D02*
D03*
Y7515000D02*
D03*
X4688480Y6949000D02*
D03*
Y7515000D02*
D03*
X6928480Y6949000D02*
D03*
Y7515000D02*
D03*
X9168480Y6949000D02*
D03*
Y7515000D02*
D03*
X2448480Y8849000D02*
D03*
Y9415000D02*
D03*
X4688480Y8849000D02*
D03*
Y9415000D02*
D03*
X6928480Y8849000D02*
D03*
Y9415000D02*
D03*
X9168480Y8849000D02*
D03*
Y9415000D02*
D03*
D49*
X2244000Y781000D02*
D03*
Y1035000D02*
D03*
Y527000D02*
D03*
X4484000Y781000D02*
D03*
Y1035000D02*
D03*
Y527000D02*
D03*
X6724000Y781000D02*
D03*
Y1035000D02*
D03*
Y527000D02*
D03*
X8964000Y781000D02*
D03*
Y1035000D02*
D03*
Y527000D02*
D03*
X2244000Y2681000D02*
D03*
Y2935000D02*
D03*
Y2427000D02*
D03*
X4484000Y2681000D02*
D03*
Y2935000D02*
D03*
Y2427000D02*
D03*
X6724000Y2681000D02*
D03*
Y2935000D02*
D03*
Y2427000D02*
D03*
X8964000Y2681000D02*
D03*
Y2935000D02*
D03*
Y2427000D02*
D03*
X2244000Y4581000D02*
D03*
Y4835000D02*
D03*
Y4327000D02*
D03*
X4484000Y4581000D02*
D03*
Y4835000D02*
D03*
Y4327000D02*
D03*
X6724000Y4581000D02*
D03*
Y4835000D02*
D03*
Y4327000D02*
D03*
X8964000Y4581000D02*
D03*
Y4835000D02*
D03*
Y4327000D02*
D03*
X2244000Y6481000D02*
D03*
Y6735000D02*
D03*
Y6227000D02*
D03*
X4484000Y6481000D02*
D03*
Y6735000D02*
D03*
Y6227000D02*
D03*
X6724000Y6481000D02*
D03*
Y6735000D02*
D03*
Y6227000D02*
D03*
X8964000Y6481000D02*
D03*
Y6735000D02*
D03*
Y6227000D02*
D03*
X2244000Y8381000D02*
D03*
Y8635000D02*
D03*
Y8127000D02*
D03*
X4484000Y8381000D02*
D03*
Y8635000D02*
D03*
Y8127000D02*
D03*
X6724000Y8381000D02*
D03*
Y8635000D02*
D03*
Y8127000D02*
D03*
X8964000Y8381000D02*
D03*
Y8635000D02*
D03*
Y8127000D02*
D03*
D50*
X1205420Y475500D02*
D03*
X1705420D02*
D03*
X1455420Y1925500D02*
D03*
X1205420D02*
D03*
X1705420D02*
D03*
X3445420Y475500D02*
D03*
X3945420D02*
D03*
X3695420Y1925500D02*
D03*
X3445420D02*
D03*
X3945420D02*
D03*
X5685420Y475500D02*
D03*
X6185420D02*
D03*
X5935420Y1925500D02*
D03*
X5685420D02*
D03*
X6185420D02*
D03*
X7925420Y475500D02*
D03*
X8425420D02*
D03*
X8175420Y1925500D02*
D03*
X7925420D02*
D03*
X8425420D02*
D03*
X1205420Y2375500D02*
D03*
X1705420D02*
D03*
X1455420Y3825500D02*
D03*
X1205420D02*
D03*
X1705420D02*
D03*
X3445420Y2375500D02*
D03*
X3945420D02*
D03*
X3695420Y3825500D02*
D03*
X3445420D02*
D03*
X3945420D02*
D03*
X5685420Y2375500D02*
D03*
X6185420D02*
D03*
X5935420Y3825500D02*
D03*
X5685420D02*
D03*
X6185420D02*
D03*
X7925420Y2375500D02*
D03*
X8425420D02*
D03*
X8175420Y3825500D02*
D03*
X7925420D02*
D03*
X8425420D02*
D03*
X1205420Y4275500D02*
D03*
X1705420D02*
D03*
X1455420Y5725500D02*
D03*
X1205420D02*
D03*
X1705420D02*
D03*
X3445420Y4275500D02*
D03*
X3945420D02*
D03*
X3695420Y5725500D02*
D03*
X3445420D02*
D03*
X3945420D02*
D03*
X5685420Y4275500D02*
D03*
X6185420D02*
D03*
X5935420Y5725500D02*
D03*
X5685420D02*
D03*
X6185420D02*
D03*
X7925420Y4275500D02*
D03*
X8425420D02*
D03*
X8175420Y5725500D02*
D03*
X7925420D02*
D03*
X8425420D02*
D03*
X1205420Y6175500D02*
D03*
X1705420D02*
D03*
X1455420Y7625500D02*
D03*
X1205420D02*
D03*
X1705420D02*
D03*
X3445420Y6175500D02*
D03*
X3945420D02*
D03*
X3695420Y7625500D02*
D03*
X3445420D02*
D03*
X3945420D02*
D03*
X5685420Y6175500D02*
D03*
X6185420D02*
D03*
X5935420Y7625500D02*
D03*
X5685420D02*
D03*
X6185420D02*
D03*
X7925420Y6175500D02*
D03*
X8425420D02*
D03*
X8175420Y7625500D02*
D03*
X7925420D02*
D03*
X8425420D02*
D03*
X1205420Y8075500D02*
D03*
X1705420D02*
D03*
X1455420Y9525500D02*
D03*
X1205420D02*
D03*
X1705420D02*
D03*
X3445420Y8075500D02*
D03*
X3945420D02*
D03*
X3695420Y9525500D02*
D03*
X3445420D02*
D03*
X3945420D02*
D03*
X5685420Y8075500D02*
D03*
X6185420D02*
D03*
X5935420Y9525500D02*
D03*
X5685420D02*
D03*
X6185420D02*
D03*
X7925420Y8075500D02*
D03*
X8425420D02*
D03*
X8175420Y9525500D02*
D03*
X7925420D02*
D03*
X8425420D02*
D03*
D51*
X917920Y1200500D02*
D03*
X3157920D02*
D03*
X5397920D02*
D03*
X7637920D02*
D03*
X917920Y3100500D02*
D03*
X3157920D02*
D03*
X5397920D02*
D03*
X7637920D02*
D03*
X917920Y5000500D02*
D03*
X3157920D02*
D03*
X5397920D02*
D03*
X7637920D02*
D03*
X917920Y6900500D02*
D03*
X3157920D02*
D03*
X5397920D02*
D03*
X7637920D02*
D03*
X917920Y8800500D02*
D03*
X3157920D02*
D03*
X5397920D02*
D03*
X7637920D02*
D03*
D52*
X1992920Y1200500D02*
D03*
X4232920D02*
D03*
X6472920D02*
D03*
X8712920D02*
D03*
X1992920Y3100500D02*
D03*
X4232920D02*
D03*
X6472920D02*
D03*
X8712920D02*
D03*
X1992920Y5000500D02*
D03*
X4232920D02*
D03*
X6472920D02*
D03*
X8712920D02*
D03*
X1992920Y6900500D02*
D03*
X4232920D02*
D03*
X6472920D02*
D03*
X8712920D02*
D03*
X1992920Y8800500D02*
D03*
X4232920D02*
D03*
X6472920D02*
D03*
X8712920D02*
D03*
%TF.MD5,e9b1882d9382719628414b26ee3431fa*%
M02*
