%TF.GenerationSoftware,Altium Limited,Altium Designer,20.1.8 (145)*%
G04 Layer_Color=0*
%FSLAX45Y45*%
%MOMM*%
%TF.SameCoordinates,31433496-A159-4958-A2C2-D52C18178038*%
%TF.FilePolarity,Positive*%
%TF.FileFunction,NonPlated,1,2,NPTH,Drill*%
%TF.Part,CustomerPanel*%
G01*
G75*
%TA.AperFunction,OtherDrill,Pad Free-F (5mm,5mm)*%
%ADD54C,1.15200*%
%TA.AperFunction,OtherDrill,Pad Free-F (95mm,5mm)*%
%ADD55C,1.15200*%
%TA.AperFunction,OtherDrill,Pad Free-F (95mm,95mm)*%
%ADD56C,1.15200*%
%TA.AperFunction,OtherDrill,Pad Free-F (5mm,95mm)*%
%ADD57C,1.15200*%
%TA.AperFunction,ComponentDrill*%
%ADD58C,0.50000*%
D54*
X500000Y500000D02*
D03*
D55*
X9500000D02*
D03*
D56*
Y9500000D02*
D03*
D57*
X500000D02*
D03*
D58*
X2213480Y1732000D02*
D03*
Y1332000D02*
D03*
X4453480Y1732000D02*
D03*
Y1332000D02*
D03*
X6693480Y1732000D02*
D03*
Y1332000D02*
D03*
X8933480Y1732000D02*
D03*
Y1332000D02*
D03*
X2213480Y3632000D02*
D03*
Y3232000D02*
D03*
X4453480Y3632000D02*
D03*
Y3232000D02*
D03*
X6693480Y3632000D02*
D03*
Y3232000D02*
D03*
X8933480Y3632000D02*
D03*
Y3232000D02*
D03*
X2213480Y5532000D02*
D03*
Y5132000D02*
D03*
X4453480Y5532000D02*
D03*
Y5132000D02*
D03*
X6693480Y5532000D02*
D03*
Y5132000D02*
D03*
X8933480Y5532000D02*
D03*
Y5132000D02*
D03*
X2213480Y7432000D02*
D03*
Y7032000D02*
D03*
X4453480Y7432000D02*
D03*
Y7032000D02*
D03*
X6693480Y7432000D02*
D03*
Y7032000D02*
D03*
X8933480Y7432000D02*
D03*
Y7032000D02*
D03*
X2213480Y9332000D02*
D03*
Y8932000D02*
D03*
X4453480Y9332000D02*
D03*
Y8932000D02*
D03*
X6693480Y9332000D02*
D03*
Y8932000D02*
D03*
X8933480Y9332000D02*
D03*
Y8932000D02*
D03*
%TF.MD5,4552300f6f1d40278bd14603344c5eb9*%
M02*
