%TF.GenerationSoftware,Altium Limited,Altium Designer,20.1.8 (145)*%
G04 Layer_Color=0*
%FSLAX45Y45*%
%MOMM*%
%TF.SameCoordinates,4CD9D56E-ABF0-4F53-8DDA-4C7987737DBE*%
%TF.FilePolarity,Positive*%
%TF.FileFunction,Plated,1,2,PTH,Drill*%
%TF.Part,Single*%
G01*
G75*
%TA.AperFunction,ComponentDrill*%
%ADD51C,0.80000*%
%ADD52O,1.40000X0.90000*%
%ADD53O,1.50000X3.00000*%
%ADD54O,1.25000X0.50000*%
%TA.AperFunction,ViaDrill,NotFilled*%
%ADD55C,0.40000*%
D51*
X1459369Y614096D02*
D03*
Y106096D02*
D03*
X1713369D02*
D03*
X1459369Y360096D02*
D03*
X1713369D02*
D03*
Y614096D02*
D03*
D52*
X1746433Y1414824D02*
D03*
Y848824D02*
D03*
D53*
X1214541Y775480D02*
D03*
X139541D02*
D03*
D54*
X427041Y75479D02*
D03*
X927041D02*
D03*
X677041Y1525480D02*
D03*
X427041D02*
D03*
X927041D02*
D03*
D55*
X1121604Y1107529D02*
D03*
X1346547Y1279881D02*
D03*
X1109158Y1314450D02*
D03*
X1291551Y1126936D02*
D03*
X1294567Y999082D02*
D03*
X1655997Y1001824D02*
D03*
X326139Y1411197D02*
D03*
X1628968Y1261824D02*
D03*
X1019466Y620092D02*
D03*
X329759Y626709D02*
D03*
X93980Y997645D02*
D03*
X1027884Y1325880D02*
D03*
X996183Y1069981D02*
D03*
X787041Y1084039D02*
D03*
%TF.MD5,e9f51a783e25042d4e12a048f635602b*%
M02*
