%TF.GenerationSoftware,Altium Limited,Altium Designer,20.1.8 (145)*%
G04 Layer_Color=32768*
%FSLAX45Y45*%
%MOMM*%
%TF.SameCoordinates,4CD9D56E-ABF0-4F53-8DDA-4C7987737DBE*%
%TF.FilePolarity,Positive*%
%TF.FileFunction,Other,Bottom_Assembly*%
%TF.Part,Single*%
G01*
G75*
%TA.AperFunction,NonConductor*%
%ADD28C,0.10000*%
%ADD29C,0.10160*%
D28*
X650841Y1005624D02*
G03*
X650841Y1005624I-50000J0D01*
G01*
D29*
X1256547Y1309361D02*
Y1369361D01*
X1341547Y1309361D02*
Y1369361D01*
X1256547Y1309361D02*
X1341547D01*
X1256547Y1369361D02*
X1341547D01*
X1151009Y1017529D02*
Y1102529D01*
X1211009Y1017529D02*
Y1102529D01*
X1151009D02*
X1211009D01*
X1151009Y1017529D02*
X1211009D01*
X1138760Y1224450D02*
X1198760D01*
X1138760Y1309450D02*
X1198760D01*
Y1224450D02*
Y1309450D01*
X1138760Y1224450D02*
Y1309450D01*
X615248Y569839D02*
X740248D01*
X615248Y844839D02*
X740248D01*
Y569839D02*
Y844839D01*
X615248Y569839D02*
Y844839D01*
X677748Y667339D02*
Y747339D01*
X637749Y707339D02*
X717748D01*
X761063Y824839D02*
X866064D01*
X761063Y589840D02*
X866064D01*
X761063D02*
Y824839D01*
X866064Y589840D02*
Y824839D01*
X1074466Y661793D02*
Y896793D01*
X964466D02*
X1074466D01*
X964466Y661793D02*
Y896793D01*
Y661793D02*
X1074466D01*
X527041Y1231824D02*
X827041D01*
X527041Y931824D02*
Y1231824D01*
Y931824D02*
X827041D01*
Y1231824D01*
X750935Y1380880D02*
X985935D01*
X750935Y1270880D02*
Y1380880D01*
Y1270880D02*
X985935D01*
Y1380880D01*
X1360691Y760823D02*
X1595690D01*
X1360691Y865824D02*
X1595690D01*
X1360691Y760823D02*
Y865824D01*
X1595690Y760823D02*
Y865824D01*
%TF.MD5,e843e3ac8539bb77ea9181ad48236fe7*%
M02*
