%TF.GenerationSoftware,Altium Limited,Altium Designer,20.1.8 (145)*%
G04 Layer_Physical_Order=2*
G04 Layer_Color=16729670*
%FSLAX45Y45*%
%MOMM*%
%TF.SameCoordinates,4CD9D56E-ABF0-4F53-8DDA-4C7987737DBE*%
%TF.FilePolarity,Positive*%
%TF.FileFunction,Copper,L2,Bot,Signal*%
%TF.Part,Single*%
G01*
G75*
%TA.AperFunction,Conductor*%
%ADD12C,0.12700*%
%TA.AperFunction,ComponentPad*%
G04:AMPARAMS|DCode=13|XSize=1.1mm|YSize=1.4mm|CornerRadius=0.55mm|HoleSize=0mm|Usage=FLASHONLY|Rotation=90.000|XOffset=0mm|YOffset=0mm|HoleType=Round|Shape=RoundedRectangle|*
%AMROUNDEDRECTD13*
21,1,1.10000,0.30000,0,0,90.0*
21,1,0.00000,1.40000,0,0,90.0*
1,1,1.10000,0.15000,0.00000*
1,1,1.10000,0.15000,0.00000*
1,1,1.10000,-0.15000,0.00000*
1,1,1.10000,-0.15000,0.00000*
%
%ADD13ROUNDEDRECTD13*%
%ADD14O,2.00000X1.50000*%
G04:AMPARAMS|DCode=15|XSize=2.25mm|YSize=3.75mm|CornerRadius=1.125mm|HoleSize=0mm|Usage=FLASHONLY|Rotation=180.000|XOffset=0mm|YOffset=0mm|HoleType=Round|Shape=RoundedRectangle|*
%AMROUNDEDRECTD15*
21,1,2.25000,1.50000,0,0,180.0*
21,1,0.00000,3.75000,0,0,180.0*
1,1,2.25000,0.00000,0.75000*
1,1,2.25000,0.00000,0.75000*
1,1,2.25000,0.00000,-0.75000*
1,1,2.25000,0.00000,-0.75000*
%
%ADD15ROUNDEDRECTD15*%
%ADD16O,2.25000X3.75000*%
%ADD17O,1.75000X1.00000*%
%TA.AperFunction,ViaPad*%
%ADD18C,0.80000*%
%ADD19C,0.80000*%
%TA.AperFunction,SMDPad,CuDef*%
G04:AMPARAMS|DCode=20|XSize=0.3mm|YSize=0.4mm|CornerRadius=0.0015mm|HoleSize=0mm|Usage=FLASHONLY|Rotation=270.000|XOffset=0mm|YOffset=0mm|HoleType=Round|Shape=RoundedRectangle|*
%AMROUNDEDRECTD20*
21,1,0.30000,0.39700,0,0,270.0*
21,1,0.29700,0.40000,0,0,270.0*
1,1,0.00300,-0.19850,-0.14850*
1,1,0.00300,-0.19850,0.14850*
1,1,0.00300,0.19850,0.14850*
1,1,0.00300,0.19850,-0.14850*
%
%ADD20ROUNDEDRECTD20*%
G04:AMPARAMS|DCode=21|XSize=0.3mm|YSize=0.4mm|CornerRadius=0.0015mm|HoleSize=0mm|Usage=FLASHONLY|Rotation=0.000|XOffset=0mm|YOffset=0mm|HoleType=Round|Shape=RoundedRectangle|*
%AMROUNDEDRECTD21*
21,1,0.30000,0.39700,0,0,0.0*
21,1,0.29700,0.40000,0,0,0.0*
1,1,0.00300,0.14850,-0.19850*
1,1,0.00300,-0.14850,-0.19850*
1,1,0.00300,-0.14850,0.19850*
1,1,0.00300,0.14850,0.19850*
%
%ADD21ROUNDEDRECTD21*%
G04:AMPARAMS|DCode=22|XSize=0.8mm|YSize=0.7mm|CornerRadius=0.0035mm|HoleSize=0mm|Usage=FLASHONLY|Rotation=0.000|XOffset=0mm|YOffset=0mm|HoleType=Round|Shape=RoundedRectangle|*
%AMROUNDEDRECTD22*
21,1,0.80000,0.69300,0,0,0.0*
21,1,0.79300,0.70000,0,0,0.0*
1,1,0.00700,0.39650,-0.34650*
1,1,0.00700,-0.39650,-0.34650*
1,1,0.00700,-0.39650,0.34650*
1,1,0.00700,0.39650,0.34650*
%
%ADD22ROUNDEDRECTD22*%
G04:AMPARAMS|DCode=23|XSize=0.85mm|YSize=0.75mm|CornerRadius=0.00375mm|HoleSize=0mm|Usage=FLASHONLY|Rotation=0.000|XOffset=0mm|YOffset=0mm|HoleType=Round|Shape=RoundedRectangle|*
%AMROUNDEDRECTD23*
21,1,0.85000,0.74250,0,0,0.0*
21,1,0.84250,0.75000,0,0,0.0*
1,1,0.00750,0.42125,-0.37125*
1,1,0.00750,-0.42125,-0.37125*
1,1,0.00750,-0.42125,0.37125*
1,1,0.00750,0.42125,0.37125*
%
%ADD23ROUNDEDRECTD23*%
G04:AMPARAMS|DCode=24|XSize=0.8mm|YSize=0.8mm|CornerRadius=0.004mm|HoleSize=0mm|Usage=FLASHONLY|Rotation=180.000|XOffset=0mm|YOffset=0mm|HoleType=Round|Shape=RoundedRectangle|*
%AMROUNDEDRECTD24*
21,1,0.80000,0.79200,0,0,180.0*
21,1,0.79200,0.80000,0,0,180.0*
1,1,0.00800,-0.39600,0.39600*
1,1,0.00800,0.39600,0.39600*
1,1,0.00800,0.39600,-0.39600*
1,1,0.00800,-0.39600,-0.39600*
%
%ADD24ROUNDEDRECTD24*%
%ADD25O,1.25000X0.30000*%
G04:AMPARAMS|DCode=26|XSize=0.85mm|YSize=0.75mm|CornerRadius=0.00375mm|HoleSize=0mm|Usage=FLASHONLY|Rotation=90.000|XOffset=0mm|YOffset=0mm|HoleType=Round|Shape=RoundedRectangle|*
%AMROUNDEDRECTD26*
21,1,0.85000,0.74250,0,0,90.0*
21,1,0.84250,0.75000,0,0,90.0*
1,1,0.00750,0.37125,0.42125*
1,1,0.00750,0.37125,-0.42125*
1,1,0.00750,-0.37125,-0.42125*
1,1,0.00750,-0.37125,0.42125*
%
%ADD26ROUNDEDRECTD26*%
G04:AMPARAMS|DCode=27|XSize=0.8mm|YSize=0.7mm|CornerRadius=0.0035mm|HoleSize=0mm|Usage=FLASHONLY|Rotation=90.000|XOffset=0mm|YOffset=0mm|HoleType=Round|Shape=RoundedRectangle|*
%AMROUNDEDRECTD27*
21,1,0.80000,0.69300,0,0,90.0*
21,1,0.79300,0.70000,0,0,90.0*
1,1,0.00700,0.34650,0.39650*
1,1,0.00700,0.34650,-0.39650*
1,1,0.00700,-0.34650,-0.39650*
1,1,0.00700,-0.34650,0.39650*
%
%ADD27ROUNDEDRECTD27*%
G36*
X1879609Y20391D02*
X523329D01*
X516303Y35631D01*
X517485Y37014D01*
X522850Y45770D01*
X526780Y55257D01*
X529177Y65242D01*
X529983Y75479D01*
X529177Y85717D01*
X526780Y95702D01*
X522850Y105189D01*
X517485Y113945D01*
X510816Y121754D01*
X503007Y128423D01*
X494251Y133788D01*
X484764Y137718D01*
X474779Y140115D01*
X464541Y140921D01*
X459724D01*
Y951438D01*
X512041D01*
X517969Y952022D01*
X523670Y953751D01*
X528923Y956559D01*
X533528Y960338D01*
X537307Y964942D01*
X540115Y970196D01*
X541844Y975896D01*
X542428Y981824D01*
X541844Y987752D01*
X540115Y993452D01*
X537307Y998705D01*
X534669Y1006824D01*
X537307Y1014943D01*
X540115Y1020196D01*
X541844Y1025896D01*
X542428Y1031824D01*
X541844Y1037752D01*
X540115Y1043452D01*
X537307Y1048706D01*
X533528Y1053310D01*
Y1060338D01*
X537307Y1064942D01*
X540115Y1070196D01*
X541844Y1075896D01*
X542428Y1081824D01*
X541844Y1087752D01*
X540115Y1093452D01*
X537307Y1098705D01*
X534670Y1106824D01*
X537307Y1114943D01*
X540115Y1120196D01*
X541844Y1125896D01*
X542428Y1131824D01*
X541844Y1137752D01*
X540115Y1143452D01*
X539391Y1144808D01*
X544018Y1156020D01*
X546406Y1158623D01*
X551632Y1158695D01*
X565565Y1144935D01*
Y962186D01*
X558946Y955567D01*
X555485Y951057D01*
X553310Y945805D01*
X552568Y940169D01*
Y345167D01*
X553310Y339531D01*
X555485Y334279D01*
X558946Y329769D01*
X667869Y220846D01*
X672378Y217386D01*
X677630Y215210D01*
X683267Y214468D01*
X962695D01*
X1086465Y90698D01*
X1090975Y87237D01*
X1096227Y85062D01*
X1101863Y84320D01*
X1377362D01*
X1381591Y74109D01*
X1387368Y64682D01*
X1394548Y56275D01*
X1402955Y49095D01*
X1412382Y43318D01*
X1422597Y39087D01*
X1433347Y36506D01*
X1444369Y35639D01*
X1474369D01*
X1485391Y36506D01*
X1496141Y39087D01*
X1506356Y43318D01*
X1515783Y49095D01*
X1524189Y56275D01*
X1531370Y64682D01*
X1537147Y74109D01*
X1541378Y84323D01*
X1543959Y95074D01*
X1544826Y106096D01*
X1543959Y117118D01*
X1541378Y127868D01*
X1537147Y138083D01*
X1531370Y147509D01*
X1524189Y155916D01*
X1515783Y163097D01*
X1506356Y168873D01*
X1496141Y173105D01*
X1485391Y175685D01*
X1474369Y176553D01*
X1444369D01*
X1433347Y175685D01*
X1422597Y173105D01*
X1412382Y168873D01*
X1402955Y163097D01*
X1394548Y155916D01*
X1387368Y147509D01*
X1381591Y138083D01*
X1377362Y127872D01*
X1110883D01*
X987113Y251642D01*
X982603Y255103D01*
X977351Y257279D01*
X971715Y258021D01*
X692287D01*
X596120Y354187D01*
Y931149D01*
X602739Y937767D01*
X606199Y942278D01*
X608375Y947530D01*
X609117Y953166D01*
Y1164559D01*
X608375Y1170195D01*
X606199Y1175447D01*
X602739Y1179957D01*
X585474Y1197222D01*
X580964Y1200683D01*
X575712Y1202858D01*
X570076Y1203600D01*
X533175D01*
X528923Y1207090D01*
X523670Y1209898D01*
X517969Y1211626D01*
X512041Y1212210D01*
X417041D01*
X411113Y1211626D01*
X405413Y1209898D01*
X400160Y1207090D01*
X395555Y1203311D01*
X391776Y1198706D01*
X388968Y1193453D01*
X387239Y1187752D01*
X386655Y1181824D01*
X387037Y1177948D01*
X382774Y1174201D01*
X372958Y1170474D01*
X362600Y1180832D01*
Y1213129D01*
X386258Y1236787D01*
X589014D01*
X639283Y1186517D01*
Y840214D01*
X638099D01*
X634029Y839678D01*
X630236Y838107D01*
X626979Y835608D01*
X624481Y832351D01*
X622910Y828559D01*
X622374Y824489D01*
Y755189D01*
X622910Y751119D01*
X624481Y747327D01*
X626979Y744070D01*
X630236Y741571D01*
X634029Y740000D01*
X638099Y739465D01*
X717398D01*
X721468Y740000D01*
X725261Y741571D01*
X728517Y744070D01*
X731016Y747327D01*
X732587Y751119D01*
X733123Y755189D01*
Y824489D01*
X732587Y828559D01*
X731016Y832351D01*
X728517Y835608D01*
X725261Y838107D01*
X721468Y839678D01*
X717398Y840214D01*
X682836D01*
Y1195537D01*
X682094Y1201173D01*
X679918Y1206425D01*
X676458Y1210935D01*
X613431Y1273961D01*
X608922Y1277422D01*
X603669Y1279597D01*
X598033Y1280339D01*
X377238D01*
X371602Y1279597D01*
X366350Y1277422D01*
X361840Y1273961D01*
X325426Y1237547D01*
X321965Y1233037D01*
X319790Y1227785D01*
X319048Y1222149D01*
Y1171812D01*
X319790Y1166176D01*
X321965Y1160924D01*
X325426Y1156414D01*
X363000Y1118840D01*
X360899Y1109467D01*
X357094Y1103600D01*
X324690D01*
X297042Y1131248D01*
Y1238249D01*
X388892Y1330099D01*
X650616D01*
X656252Y1330841D01*
X661504Y1333017D01*
X666014Y1336478D01*
X777526Y1447989D01*
X831286D01*
X836922Y1448731D01*
X842175Y1450906D01*
X846684Y1454367D01*
X859619Y1467301D01*
X859831Y1467171D01*
X869319Y1463241D01*
X879304Y1460844D01*
X889541Y1460038D01*
X964541D01*
X974779Y1460844D01*
X984764Y1463241D01*
X994251Y1467171D01*
X1003007Y1472536D01*
X1010816Y1479205D01*
X1017485Y1487014D01*
X1022850Y1495770D01*
X1026780Y1505257D01*
X1029177Y1515242D01*
X1029983Y1525480D01*
X1029177Y1535717D01*
X1026780Y1545702D01*
X1022850Y1555189D01*
X1017485Y1563945D01*
X1017122Y1564369D01*
X1024148Y1579609D01*
X1879609D01*
Y20391D01*
D02*
G37*
G36*
X836960Y1564369D02*
X836598Y1563945D01*
X831233Y1555189D01*
X827303Y1545702D01*
X824905Y1535717D01*
X824100Y1525480D01*
X824905Y1515242D01*
X827303Y1505257D01*
X827584Y1504579D01*
X817511Y1491541D01*
X768506D01*
X762869Y1490799D01*
X757617Y1488624D01*
X753108Y1485163D01*
X641596Y1373652D01*
X379872D01*
X374236Y1372910D01*
X368984Y1370734D01*
X364475Y1367274D01*
X259868Y1262667D01*
X256407Y1258158D01*
X254232Y1252905D01*
X253490Y1247269D01*
Y1122228D01*
X254232Y1116592D01*
X256407Y1111340D01*
X259868Y1106830D01*
X300272Y1066426D01*
X304782Y1062965D01*
X310034Y1060790D01*
X315670Y1060048D01*
X371790D01*
X375595Y1054181D01*
X377695Y1044808D01*
X365237Y1032350D01*
X286627D01*
X226077Y1092900D01*
Y1452926D01*
X285066Y1511916D01*
X325704D01*
X327303Y1505257D01*
X331233Y1495770D01*
X336598Y1487014D01*
X343267Y1479205D01*
X351076Y1472536D01*
X359831Y1467171D01*
X369319Y1463241D01*
X379304Y1460844D01*
X389541Y1460038D01*
X464541D01*
X474779Y1460844D01*
X484764Y1463241D01*
X494251Y1467171D01*
X503007Y1472536D01*
X510816Y1479205D01*
X517485Y1487014D01*
X522850Y1495770D01*
X526780Y1505257D01*
X529177Y1515242D01*
X529983Y1525480D01*
X529177Y1535717D01*
X526780Y1545702D01*
X522850Y1555189D01*
X517485Y1563945D01*
X517122Y1564369D01*
X524148Y1579609D01*
X829934D01*
X836960Y1564369D01*
D02*
G37*
G36*
X332050Y1565246D02*
X325847Y1555468D01*
X276046D01*
X270410Y1554726D01*
X265158Y1552551D01*
X260648Y1549090D01*
X188903Y1477344D01*
X185442Y1472834D01*
X183266Y1467582D01*
X182524Y1461946D01*
Y1083880D01*
X183266Y1078244D01*
X185442Y1072992D01*
X188903Y1068482D01*
X262209Y995176D01*
X266719Y991715D01*
X271971Y989540D01*
X277607Y988798D01*
X372028D01*
X376735Y986603D01*
X385920Y978469D01*
X387221Y976079D01*
X387239Y975896D01*
X388968Y970196D01*
X391776Y964942D01*
X395555Y960338D01*
X400160Y956559D01*
X405413Y953751D01*
X411113Y952022D01*
X416172Y951523D01*
Y140921D01*
X389541D01*
X379304Y140115D01*
X369319Y137718D01*
X359831Y133788D01*
X351076Y128423D01*
X343267Y121754D01*
X336598Y113945D01*
X331233Y105189D01*
X327303Y95702D01*
X324905Y85717D01*
X324100Y75479D01*
X324905Y65242D01*
X327303Y55257D01*
X331233Y45770D01*
X336598Y37014D01*
X337779Y35631D01*
X330753Y20391D01*
X20391D01*
Y1579609D01*
X324759D01*
X332050Y1565246D01*
D02*
G37*
%LPC*%
G36*
X1366397Y1369734D02*
X1354166D01*
Y1346977D01*
X1381920D01*
Y1354211D01*
X1381391Y1358228D01*
X1379840Y1361972D01*
X1377373Y1365187D01*
X1374158Y1367654D01*
X1370414Y1369205D01*
X1366397Y1369734D01*
D02*
G37*
G36*
X1338926D02*
X1326697D01*
X1322679Y1369205D01*
X1318935Y1367654D01*
X1315721Y1365187D01*
X1313254Y1361972D01*
X1311703Y1358228D01*
X1311174Y1354211D01*
Y1346977D01*
X1338926D01*
Y1369734D01*
D02*
G37*
G36*
X983060Y1383755D02*
X953555D01*
Y1333506D01*
X998809D01*
Y1368005D01*
X998273Y1372081D01*
X996699Y1375880D01*
X994196Y1379142D01*
X990935Y1381645D01*
X987136Y1383218D01*
X983060Y1383755D01*
D02*
G37*
G36*
X938315D02*
X908809D01*
X904733Y1383218D01*
X900935Y1381645D01*
X897673Y1379142D01*
X895170Y1375880D01*
X893597Y1372081D01*
X893060Y1368005D01*
Y1333506D01*
X938315D01*
Y1383755D01*
D02*
G37*
G36*
X1771434Y1505257D02*
X1721433D01*
X1709629Y1504484D01*
X1698027Y1502176D01*
X1686826Y1498373D01*
X1676217Y1493142D01*
X1666381Y1486570D01*
X1657487Y1478770D01*
X1649688Y1469876D01*
X1643116Y1460041D01*
X1637884Y1449431D01*
X1634081Y1438230D01*
X1631773Y1426628D01*
X1631000Y1414824D01*
X1631773Y1403020D01*
X1634081Y1391418D01*
X1637884Y1380217D01*
X1643116Y1369607D01*
X1649688Y1359771D01*
X1657487Y1350878D01*
X1666381Y1343078D01*
X1676217Y1336506D01*
X1686826Y1331274D01*
X1698027Y1327472D01*
X1709629Y1325164D01*
X1721433Y1324391D01*
X1771434D01*
X1783237Y1325164D01*
X1794839Y1327472D01*
X1806041Y1331274D01*
X1816650Y1336506D01*
X1826486Y1343078D01*
X1835380Y1350878D01*
X1843179Y1359771D01*
X1849751Y1369607D01*
X1854983Y1380217D01*
X1858785Y1391418D01*
X1861093Y1403020D01*
X1861867Y1414824D01*
X1861093Y1426628D01*
X1858785Y1438230D01*
X1854983Y1449431D01*
X1849751Y1460041D01*
X1843179Y1469876D01*
X1835380Y1478770D01*
X1826486Y1486570D01*
X1816650Y1493142D01*
X1806041Y1498373D01*
X1794839Y1502176D01*
X1783237Y1504484D01*
X1771434Y1505257D01*
D02*
G37*
G36*
X1183610Y1349823D02*
X1176380D01*
Y1322070D01*
X1199133D01*
Y1334300D01*
X1198604Y1338318D01*
X1197053Y1342062D01*
X1194586Y1345276D01*
X1191372Y1347743D01*
X1187628Y1349294D01*
X1183610Y1349823D01*
D02*
G37*
G36*
X1161140D02*
X1153910D01*
X1149893Y1349294D01*
X1146149Y1347743D01*
X1142934Y1345276D01*
X1140467Y1342062D01*
X1138916Y1338318D01*
X1138387Y1334300D01*
Y1322070D01*
X1161140D01*
Y1349823D01*
D02*
G37*
G36*
X1381920Y1331737D02*
X1354166D01*
Y1308988D01*
X1366397D01*
X1370414Y1309517D01*
X1374158Y1311068D01*
X1377373Y1313535D01*
X1379840Y1316749D01*
X1381391Y1320493D01*
X1381920Y1324511D01*
Y1331737D01*
D02*
G37*
G36*
X1338926D02*
X1311174D01*
Y1324511D01*
X1311703Y1320493D01*
X1313254Y1316749D01*
X1315721Y1313535D01*
X1318935Y1311068D01*
X1322679Y1309517D01*
X1326697Y1308988D01*
X1338926D01*
Y1331737D01*
D02*
G37*
G36*
X1511433Y1372259D02*
X1503545Y1371482D01*
X1495960Y1369181D01*
X1488969Y1365444D01*
X1482842Y1360416D01*
X1477813Y1354288D01*
X1474077Y1347298D01*
X1471776Y1339713D01*
X1470999Y1331824D01*
X1471776Y1323936D01*
X1474077Y1316350D01*
X1477813Y1309360D01*
X1482842Y1303232D01*
X1488969Y1298204D01*
X1495960Y1294467D01*
X1503545Y1292166D01*
X1511433Y1291389D01*
X1519322Y1292166D01*
X1526907Y1294467D01*
X1533898Y1298204D01*
X1540025Y1303232D01*
X1545054Y1309360D01*
X1548790Y1316350D01*
X1551091Y1323936D01*
X1551868Y1331824D01*
X1551091Y1339713D01*
X1548790Y1347298D01*
X1545054Y1354288D01*
X1540025Y1360416D01*
X1533898Y1365444D01*
X1526907Y1369181D01*
X1519322Y1371482D01*
X1511433Y1372259D01*
D02*
G37*
G36*
X1199133Y1306830D02*
X1176380D01*
Y1279077D01*
X1183610D01*
X1187628Y1279606D01*
X1191372Y1281157D01*
X1194586Y1283624D01*
X1197053Y1286839D01*
X1198604Y1290583D01*
X1199133Y1294600D01*
Y1306830D01*
D02*
G37*
G36*
X1161140D02*
X1138387D01*
Y1294600D01*
X1138916Y1290583D01*
X1140467Y1286839D01*
X1142934Y1283624D01*
X1146149Y1281157D01*
X1149893Y1279606D01*
X1153910Y1279077D01*
X1161140D01*
Y1306830D01*
D02*
G37*
G36*
X998809Y1318266D02*
X953555D01*
Y1268005D01*
X983060D01*
X987136Y1268542D01*
X990935Y1270115D01*
X994196Y1272618D01*
X996699Y1275880D01*
X998273Y1279679D01*
X998809Y1283755D01*
Y1318266D01*
D02*
G37*
G36*
X938315D02*
X893060D01*
Y1283755D01*
X893597Y1279679D01*
X895170Y1275880D01*
X897673Y1272618D01*
X900935Y1270115D01*
X904733Y1268542D01*
X908809Y1268005D01*
X938315D01*
Y1318266D01*
D02*
G37*
G36*
X1195859Y1142902D02*
X1188629D01*
Y1115149D01*
X1211382D01*
Y1127379D01*
X1210853Y1131397D01*
X1209302Y1135141D01*
X1206835Y1138356D01*
X1203620Y1140822D01*
X1199876Y1142373D01*
X1195859Y1142902D01*
D02*
G37*
G36*
X1173389D02*
X1166159D01*
X1162142Y1142373D01*
X1158398Y1140822D01*
X1155183Y1138356D01*
X1152716Y1135141D01*
X1151165Y1131397D01*
X1150636Y1127379D01*
Y1115149D01*
X1173389D01*
Y1142902D01*
D02*
G37*
G36*
X1179059Y1443611D02*
X865481D01*
X859845Y1442869D01*
X854593Y1440693D01*
X850083Y1437233D01*
X806687Y1393836D01*
X803226Y1389326D01*
X801050Y1384074D01*
X801008Y1383755D01*
X753810D01*
X749733Y1383218D01*
X745935Y1381645D01*
X742673Y1379142D01*
X740170Y1375880D01*
X738597Y1372081D01*
X738060Y1368005D01*
Y1295122D01*
X738008Y1294730D01*
Y1244870D01*
X708225Y1215086D01*
X704764Y1210576D01*
X702589Y1205324D01*
X701847Y1199688D01*
Y1057781D01*
X702589Y1052145D01*
X704764Y1046893D01*
X708225Y1042383D01*
X743557Y1007051D01*
X748067Y1003590D01*
X753320Y1001415D01*
X758956Y1000673D01*
X800547D01*
X802567Y999586D01*
X810462Y989926D01*
X812047Y985806D01*
X811655Y981824D01*
X812239Y975896D01*
X813968Y970196D01*
X816776Y964942D01*
X820555Y960338D01*
X825160Y956559D01*
X830413Y953751D01*
X836113Y952022D01*
X842041Y951438D01*
X886515D01*
Y856793D01*
Y804116D01*
X868938D01*
Y816989D01*
X868402Y821059D01*
X866831Y824852D01*
X864332Y828109D01*
X861075Y830607D01*
X857283Y832178D01*
X853213Y832714D01*
X773913D01*
X769844Y832178D01*
X766051Y830607D01*
X762794Y828109D01*
X760295Y824852D01*
X758724Y821059D01*
X758189Y816989D01*
Y747690D01*
X758724Y743620D01*
X760295Y739827D01*
X762794Y736571D01*
X766051Y734072D01*
X769844Y732501D01*
X773913Y731965D01*
X853213D01*
X857283Y732501D01*
X861075Y734072D01*
X864332Y736571D01*
X866831Y739827D01*
X868402Y743620D01*
X868938Y747690D01*
Y760563D01*
X886515D01*
Y640230D01*
X887257Y634594D01*
X889432Y629342D01*
X892893Y624832D01*
X1173027Y344698D01*
X1177537Y341237D01*
X1182789Y339062D01*
X1188425Y338320D01*
X1377362D01*
X1381591Y328109D01*
X1387368Y318682D01*
X1394548Y310275D01*
X1402955Y303095D01*
X1412382Y297318D01*
X1422597Y293087D01*
X1433347Y290506D01*
X1444369Y289639D01*
X1474369D01*
X1485391Y290506D01*
X1496141Y293087D01*
X1506356Y297318D01*
X1515783Y303095D01*
X1524189Y310275D01*
X1531370Y318682D01*
X1537147Y328109D01*
X1541378Y338323D01*
X1543959Y349074D01*
X1544826Y360096D01*
X1543959Y371118D01*
X1541378Y381868D01*
X1537147Y392083D01*
X1531370Y401509D01*
X1524189Y409916D01*
X1515783Y417097D01*
X1506356Y422873D01*
X1496141Y427105D01*
X1485391Y429685D01*
X1474369Y430553D01*
X1444369D01*
X1433347Y429685D01*
X1422597Y427105D01*
X1412382Y422873D01*
X1402955Y417097D01*
X1394548Y409916D01*
X1387368Y401509D01*
X1381591Y392083D01*
X1377362Y381872D01*
X1197445D01*
X930067Y649250D01*
Y782340D01*
Y835017D01*
X961591D01*
Y819668D01*
X962128Y815592D01*
X963701Y811793D01*
X966204Y808532D01*
X969466Y806029D01*
X973264Y804455D01*
X977340Y803919D01*
X1061591D01*
X1065667Y804455D01*
X1069465Y806029D01*
X1072727Y808532D01*
X1075230Y811793D01*
X1076804Y815592D01*
X1077340Y819668D01*
Y893918D01*
X1076804Y897995D01*
X1075230Y901793D01*
X1072727Y905055D01*
X1069465Y907558D01*
X1065667Y909131D01*
X1061591Y909668D01*
X977340D01*
X973264Y909131D01*
X969466Y907558D01*
X966204Y905055D01*
X963701Y901793D01*
X962128Y897995D01*
X961591Y893918D01*
Y878569D01*
X930067D01*
Y951438D01*
X937041D01*
X942969Y952022D01*
X948670Y953751D01*
X953923Y956559D01*
X958528Y960338D01*
X962307Y964942D01*
X965115Y970196D01*
X966844Y975896D01*
X967428Y981824D01*
X966844Y987752D01*
X965115Y993452D01*
X962307Y998706D01*
X958528Y1003310D01*
Y1010338D01*
X962307Y1014942D01*
X965115Y1020196D01*
X966844Y1025896D01*
X967428Y1031824D01*
X966844Y1037752D01*
X965115Y1043452D01*
X962307Y1048706D01*
X958528Y1053310D01*
X953923Y1057089D01*
X948670Y1059897D01*
X942969Y1061626D01*
X937041Y1062210D01*
X842041D01*
X836113Y1061626D01*
X830413Y1059897D01*
X825160Y1057089D01*
X820908Y1053600D01*
X820520D01*
X814884Y1052858D01*
X809632Y1050683D01*
X805122Y1047222D01*
X802125Y1044225D01*
X767976D01*
X745399Y1066801D01*
Y1190668D01*
X775183Y1220451D01*
X778643Y1224961D01*
X780819Y1230214D01*
X781561Y1235850D01*
Y1268005D01*
X828060D01*
X832136Y1268542D01*
X835935Y1270115D01*
X839196Y1272618D01*
X841699Y1275880D01*
X843273Y1279679D01*
X843809Y1283755D01*
Y1356638D01*
X843861Y1357030D01*
Y1369418D01*
X874501Y1400058D01*
X1170039D01*
X1216174Y1353923D01*
Y1324511D01*
X1216703Y1320493D01*
X1218254Y1316749D01*
X1220720Y1313535D01*
X1223935Y1311068D01*
X1227679Y1309517D01*
X1231697Y1308988D01*
X1243245D01*
Y1274306D01*
X1243987Y1268670D01*
X1246162Y1263417D01*
X1249623Y1258908D01*
X1303595Y1204935D01*
X1308105Y1201474D01*
X1313357Y1199299D01*
X1318993Y1198557D01*
X1321009D01*
X1371990Y1147576D01*
X1376500Y1144115D01*
X1381752Y1141940D01*
X1387388Y1141198D01*
X1440622D01*
Y1089895D01*
X1441159Y1085812D01*
X1442735Y1082007D01*
X1445242Y1078740D01*
X1448509Y1076233D01*
X1452314Y1074657D01*
X1456397Y1074120D01*
X1535596D01*
X1539679Y1074657D01*
X1543484Y1076233D01*
X1546751Y1078740D01*
X1549258Y1082007D01*
X1550834Y1085812D01*
X1551371Y1089895D01*
Y1169094D01*
X1550834Y1173177D01*
X1549258Y1176982D01*
X1546751Y1180249D01*
X1543484Y1182756D01*
X1539679Y1184332D01*
X1535596Y1184869D01*
X1456397D01*
X1455490Y1184750D01*
X1396408D01*
X1345427Y1235731D01*
X1340917Y1239192D01*
X1335665Y1241367D01*
X1330029Y1242109D01*
X1328013D01*
X1286797Y1283325D01*
Y1323581D01*
X1286919Y1324511D01*
Y1354211D01*
X1286391Y1358228D01*
X1284840Y1361972D01*
X1282373Y1365187D01*
X1279158Y1367654D01*
X1275414Y1369205D01*
X1271396Y1369734D01*
X1258675D01*
X1257098Y1373543D01*
X1253637Y1378053D01*
X1194457Y1437232D01*
X1189947Y1440693D01*
X1184695Y1442869D01*
X1179059Y1443611D01*
D02*
G37*
G36*
X1211382Y1099909D02*
X1188629D01*
Y1072157D01*
X1195859D01*
X1199876Y1072685D01*
X1203620Y1074236D01*
X1206835Y1076703D01*
X1209302Y1079918D01*
X1210853Y1083662D01*
X1211382Y1087680D01*
Y1099909D01*
D02*
G37*
G36*
X1173389D02*
X1150636D01*
Y1087680D01*
X1151165Y1083662D01*
X1152716Y1079918D01*
X1155183Y1076703D01*
X1158398Y1074236D01*
X1162142Y1072685D01*
X1166159Y1072157D01*
X1173389D01*
Y1099909D01*
D02*
G37*
G36*
X1695597Y1184869D02*
X1616397D01*
X1612314Y1184332D01*
X1608509Y1182756D01*
X1605242Y1180249D01*
X1602735Y1176982D01*
X1601159Y1173177D01*
X1600622Y1169094D01*
Y1089895D01*
X1601159Y1085812D01*
X1602735Y1082007D01*
X1605242Y1078740D01*
X1608509Y1076233D01*
X1612314Y1074657D01*
X1616397Y1074120D01*
X1634221D01*
Y1052595D01*
X1630841Y1051195D01*
X1623427Y1046652D01*
X1616815Y1041005D01*
X1611168Y1034394D01*
X1606625Y1026980D01*
X1603298Y1018947D01*
X1601268Y1010492D01*
X1600586Y1001824D01*
X1601268Y993156D01*
X1603298Y984701D01*
X1606625Y976668D01*
X1611168Y969254D01*
X1616815Y962643D01*
X1623427Y956996D01*
X1630841Y952453D01*
X1638874Y949125D01*
X1647329Y947096D01*
X1655997Y946413D01*
X1664665Y947096D01*
X1673120Y949125D01*
X1681153Y952453D01*
X1688566Y956996D01*
X1695178Y962643D01*
X1700825Y969254D01*
X1705368Y976668D01*
X1708695Y984701D01*
X1710725Y993156D01*
X1711407Y1001824D01*
X1710725Y1010492D01*
X1708695Y1018947D01*
X1705368Y1026980D01*
X1700825Y1034394D01*
X1695178Y1041005D01*
X1688566Y1046652D01*
X1681153Y1051195D01*
X1677773Y1052595D01*
Y1074120D01*
X1695597D01*
X1699679Y1074657D01*
X1703484Y1076233D01*
X1706751Y1078740D01*
X1709258Y1082007D01*
X1710834Y1085812D01*
X1711371Y1089895D01*
Y1169094D01*
X1710834Y1173177D01*
X1709258Y1176982D01*
X1706751Y1180249D01*
X1703484Y1182756D01*
X1699679Y1184332D01*
X1695597Y1184869D01*
D02*
G37*
G36*
X1511433Y972259D02*
X1503545Y971482D01*
X1495960Y969181D01*
X1488969Y965444D01*
X1482842Y960416D01*
X1477813Y954288D01*
X1474077Y947298D01*
X1471776Y939712D01*
X1470999Y931824D01*
X1471776Y923935D01*
X1474077Y916350D01*
X1477813Y909360D01*
X1482842Y903232D01*
X1488969Y898204D01*
X1495960Y894467D01*
X1503545Y892166D01*
X1511433Y891389D01*
X1519322Y892166D01*
X1526907Y894467D01*
X1533898Y898204D01*
X1540025Y903232D01*
X1545054Y909360D01*
X1548790Y916350D01*
X1551091Y923935D01*
X1551868Y931824D01*
X1551091Y939712D01*
X1548790Y947298D01*
X1545054Y954288D01*
X1540025Y960416D01*
X1533898Y965444D01*
X1526907Y969181D01*
X1519322Y971482D01*
X1511433Y972259D01*
D02*
G37*
G36*
X1771434Y939257D02*
X1721433D01*
X1709629Y938484D01*
X1698027Y936176D01*
X1686826Y932374D01*
X1676217Y927142D01*
X1666381Y920570D01*
X1657487Y912770D01*
X1649688Y903877D01*
X1643116Y894041D01*
X1637884Y883431D01*
X1634081Y872230D01*
X1631773Y860628D01*
X1631000Y848824D01*
X1631773Y837020D01*
X1634081Y825418D01*
X1637884Y814217D01*
X1643116Y803607D01*
X1649688Y793772D01*
X1657487Y784878D01*
X1666381Y777078D01*
X1676217Y770506D01*
X1686826Y765275D01*
X1698027Y761472D01*
X1709629Y759164D01*
X1721433Y758391D01*
X1771434D01*
X1783237Y759164D01*
X1794839Y761472D01*
X1806041Y765275D01*
X1816650Y770506D01*
X1826486Y777078D01*
X1835380Y784878D01*
X1843179Y793772D01*
X1849751Y803607D01*
X1854983Y814217D01*
X1858785Y825418D01*
X1861093Y837020D01*
X1861867Y848824D01*
X1861093Y860628D01*
X1858785Y872230D01*
X1854983Y883431D01*
X1849751Y894041D01*
X1843179Y903877D01*
X1835380Y912770D01*
X1826486Y920570D01*
X1816650Y927142D01*
X1806041Y932374D01*
X1794839Y936176D01*
X1783237Y938484D01*
X1771434Y939257D01*
D02*
G37*
G36*
X1183610Y1254823D02*
X1153910D01*
X1149893Y1254294D01*
X1146149Y1252743D01*
X1142934Y1250276D01*
X1140467Y1247062D01*
X1138916Y1243318D01*
X1138387Y1239300D01*
Y1227706D01*
X961147D01*
X955511Y1226965D01*
X950259Y1224789D01*
X945749Y1221328D01*
X936631Y1212210D01*
X842041D01*
X836113Y1211626D01*
X830413Y1209898D01*
X825160Y1207090D01*
X820555Y1203311D01*
X816776Y1198706D01*
X813968Y1193453D01*
X812239Y1187752D01*
X811655Y1181824D01*
X812239Y1175896D01*
X813968Y1170196D01*
X816776Y1164943D01*
X820555Y1160338D01*
Y1153310D01*
X816776Y1148706D01*
X813968Y1143452D01*
X812239Y1137752D01*
X811655Y1131824D01*
X812239Y1125896D01*
X813968Y1120196D01*
X816776Y1114942D01*
X820555Y1110338D01*
X825159Y1106559D01*
X830413Y1103751D01*
X836113Y1102022D01*
X842041Y1101438D01*
X937041D01*
X942969Y1102022D01*
X948669Y1103751D01*
X953923Y1106559D01*
X958174Y1110048D01*
X1001620D01*
X1003539Y1109795D01*
X1012675D01*
X1035997Y1086473D01*
Y1077337D01*
X1036739Y1071701D01*
X1038914Y1066449D01*
X1042375Y1061939D01*
X1102254Y1002060D01*
X1106764Y998599D01*
X1112016Y996424D01*
X1117652Y995682D01*
X1150636D01*
Y992679D01*
X1151165Y988662D01*
X1152716Y984918D01*
X1155183Y981703D01*
X1158398Y979236D01*
X1162142Y977685D01*
X1166159Y977157D01*
X1195859D01*
X1196990Y977305D01*
X1243796D01*
X1245196Y973926D01*
X1249739Y966512D01*
X1255386Y959900D01*
X1261997Y954253D01*
X1269411Y949710D01*
X1277444Y946383D01*
X1285899Y944353D01*
X1294567Y943671D01*
X1303235Y944353D01*
X1311690Y946383D01*
X1319723Y949710D01*
X1327137Y954253D01*
X1333748Y959900D01*
X1339395Y966512D01*
X1343938Y973926D01*
X1347266Y981959D01*
X1349295Y990414D01*
X1349977Y999082D01*
X1349295Y1007750D01*
X1347266Y1016204D01*
X1343938Y1024237D01*
X1339395Y1031651D01*
X1333748Y1038263D01*
X1327137Y1043910D01*
X1319723Y1048453D01*
X1311690Y1051780D01*
X1303235Y1053810D01*
X1294567Y1054492D01*
X1285899Y1053810D01*
X1277444Y1051780D01*
X1269411Y1048453D01*
X1261997Y1043910D01*
X1255386Y1038263D01*
X1249739Y1031651D01*
X1245196Y1024237D01*
X1243796Y1020858D01*
X1211382D01*
Y1032379D01*
X1210853Y1036397D01*
X1209302Y1040141D01*
X1206835Y1043356D01*
X1203620Y1045822D01*
X1199876Y1047373D01*
X1195859Y1047902D01*
X1166159D01*
X1162142Y1047373D01*
X1158398Y1045822D01*
X1155183Y1043356D01*
X1152716Y1040141D01*
X1152341Y1039234D01*
X1126672D01*
X1079549Y1086357D01*
Y1095493D01*
X1078807Y1101129D01*
X1076632Y1106381D01*
X1073171Y1110891D01*
X1037092Y1146969D01*
X1032583Y1150430D01*
X1027330Y1152606D01*
X1021694Y1153347D01*
X1005206D01*
X1003287Y1153600D01*
X972714D01*
X969018Y1157628D01*
X964390Y1168840D01*
X965115Y1170196D01*
X966844Y1175896D01*
X967383Y1181369D01*
X970167Y1184154D01*
X1153328D01*
X1153910Y1184077D01*
X1183610D01*
X1184193Y1184154D01*
X1204694D01*
X1240591Y1148257D01*
X1238852Y1144059D01*
X1236823Y1135604D01*
X1236140Y1126936D01*
X1236823Y1118268D01*
X1238852Y1109813D01*
X1242180Y1101780D01*
X1246723Y1094367D01*
X1252370Y1087755D01*
X1258981Y1082108D01*
X1266395Y1077565D01*
X1274428Y1074238D01*
X1282883Y1072208D01*
X1291551Y1071526D01*
X1300219Y1072208D01*
X1308674Y1074238D01*
X1316707Y1077565D01*
X1318033Y1078378D01*
X1378669Y1017741D01*
Y868698D01*
X1368541D01*
X1364471Y868162D01*
X1360679Y866591D01*
X1357422Y864093D01*
X1354923Y860836D01*
X1353352Y857043D01*
X1352816Y852973D01*
Y773674D01*
X1353352Y769604D01*
X1354923Y765811D01*
X1357422Y762554D01*
X1360679Y760056D01*
X1364471Y758485D01*
X1368541Y757949D01*
X1437841D01*
X1441911Y758485D01*
X1445703Y760056D01*
X1448960Y762554D01*
X1451459Y765811D01*
X1453030Y769604D01*
X1453565Y773674D01*
Y852973D01*
X1453030Y857043D01*
X1451459Y860836D01*
X1448960Y864093D01*
X1445703Y866591D01*
X1441911Y868162D01*
X1437841Y868698D01*
X1422222D01*
Y1026761D01*
X1421480Y1032397D01*
X1419304Y1037649D01*
X1415843Y1042159D01*
X1345012Y1112990D01*
X1346279Y1118268D01*
X1346961Y1126936D01*
X1346279Y1135604D01*
X1344250Y1144059D01*
X1340922Y1152092D01*
X1336379Y1159506D01*
X1330732Y1166118D01*
X1324121Y1171764D01*
X1316707Y1176308D01*
X1308674Y1179635D01*
X1300219Y1181665D01*
X1291551Y1182347D01*
X1282883Y1181665D01*
X1274428Y1179635D01*
X1271866Y1178574D01*
X1229111Y1221328D01*
X1224602Y1224789D01*
X1219349Y1226965D01*
X1213713Y1227706D01*
X1199133D01*
Y1239300D01*
X1198604Y1243318D01*
X1197053Y1247062D01*
X1194586Y1250276D01*
X1191372Y1252743D01*
X1187628Y1254294D01*
X1183610Y1254823D01*
D02*
G37*
G36*
X1061591Y754668D02*
X1027086D01*
Y709413D01*
X1077340D01*
Y738919D01*
X1076804Y742995D01*
X1075230Y746793D01*
X1072727Y750055D01*
X1069465Y752558D01*
X1065667Y754131D01*
X1061591Y754668D01*
D02*
G37*
G36*
X1011846D02*
X977340D01*
X973264Y754131D01*
X969466Y752558D01*
X966204Y750055D01*
X963701Y746793D01*
X962128Y742995D01*
X961591Y738919D01*
Y709413D01*
X1011846D01*
Y754668D01*
D02*
G37*
G36*
X1587841Y868698D02*
X1518541D01*
X1514471Y868162D01*
X1510679Y866591D01*
X1507422Y864093D01*
X1504923Y860836D01*
X1503352Y857043D01*
X1502816Y852973D01*
Y773674D01*
X1503352Y769604D01*
X1504923Y765811D01*
X1507422Y762554D01*
X1510679Y760056D01*
X1514471Y758485D01*
X1518541Y757949D01*
X1531415D01*
Y695758D01*
X1510184Y674527D01*
X1506356Y676873D01*
X1496141Y681105D01*
X1485391Y683685D01*
X1474369Y684553D01*
X1444369D01*
X1433347Y683685D01*
X1422597Y681105D01*
X1412382Y676873D01*
X1402955Y671097D01*
X1394548Y663916D01*
X1387368Y655509D01*
X1381591Y646083D01*
X1377360Y635868D01*
X1374779Y625118D01*
X1373912Y614096D01*
X1374779Y603074D01*
X1377360Y592323D01*
X1381591Y582109D01*
X1387368Y572682D01*
X1394548Y564275D01*
X1402955Y557095D01*
X1412382Y551318D01*
X1422597Y547087D01*
X1433347Y544506D01*
X1444369Y543639D01*
X1474369D01*
X1485391Y544506D01*
X1496141Y547087D01*
X1506356Y551318D01*
X1515783Y557095D01*
X1524189Y564275D01*
X1531370Y572682D01*
X1537147Y582109D01*
X1541378Y592323D01*
X1543959Y603074D01*
X1544826Y614096D01*
X1543959Y625118D01*
X1541378Y635868D01*
X1538958Y641709D01*
X1568589Y671340D01*
X1572050Y675850D01*
X1574225Y681102D01*
X1574967Y686738D01*
Y757949D01*
X1587841D01*
X1591911Y758485D01*
X1595703Y760056D01*
X1598960Y762554D01*
X1601459Y765811D01*
X1603030Y769604D01*
X1603565Y773674D01*
Y852973D01*
X1603030Y857043D01*
X1601459Y860836D01*
X1598960Y864093D01*
X1595703Y866591D01*
X1591911Y868162D01*
X1587841Y868698D01*
D02*
G37*
G36*
X853213Y682714D02*
X773913D01*
X769844Y682178D01*
X766051Y680607D01*
X762794Y678108D01*
X760295Y674852D01*
X758724Y671059D01*
X758189Y666989D01*
Y654116D01*
X733123D01*
Y659489D01*
X732587Y663559D01*
X731016Y667351D01*
X728517Y670608D01*
X725261Y673107D01*
X721468Y674678D01*
X717398Y675214D01*
X638099D01*
X634029Y674678D01*
X630236Y673107D01*
X626979Y670608D01*
X624481Y667351D01*
X622910Y663559D01*
X622374Y659489D01*
Y590189D01*
X622910Y586119D01*
X624481Y582327D01*
X626979Y579070D01*
X630236Y576571D01*
X634029Y575000D01*
X638099Y574465D01*
X717398D01*
X721468Y575000D01*
X725261Y576571D01*
X728517Y579070D01*
X731016Y582327D01*
X732587Y586119D01*
X733123Y590189D01*
Y610563D01*
X758189D01*
Y597689D01*
X758724Y593620D01*
X760295Y589827D01*
X762794Y586570D01*
X766051Y584071D01*
X769844Y582500D01*
X773913Y581965D01*
X853213D01*
X857283Y582500D01*
X861075Y584071D01*
X864332Y586570D01*
X866831Y589827D01*
X868402Y593620D01*
X868938Y597689D01*
Y666989D01*
X868402Y671059D01*
X866831Y674852D01*
X864332Y678108D01*
X861075Y680607D01*
X857283Y682178D01*
X853213Y682714D01*
D02*
G37*
G36*
X1077340Y694173D02*
X1027086D01*
Y648919D01*
X1061591D01*
X1065667Y649455D01*
X1069465Y651029D01*
X1072727Y653532D01*
X1075230Y656793D01*
X1076804Y660592D01*
X1077340Y664668D01*
Y694173D01*
D02*
G37*
G36*
X1011846D02*
X961591D01*
Y664668D01*
X962128Y660592D01*
X963701Y656793D01*
X966204Y653532D01*
X969466Y651029D01*
X973264Y649455D01*
X977340Y648919D01*
X1011846D01*
Y694173D01*
D02*
G37*
%LPD*%
D12*
X908291Y856793D02*
X1019466D01*
X908291D02*
Y973833D01*
Y856794D02*
X908291Y856793D01*
X908291Y782340D02*
Y856793D01*
X813563Y782340D02*
X908291D01*
Y640230D02*
Y782340D01*
Y640230D02*
X1188425Y360096D01*
X900300Y981824D02*
X908291Y973833D01*
X1188425Y360096D02*
X1459369D01*
X822085Y1357030D02*
Y1378438D01*
X759785Y1294730D02*
X822085Y1357030D01*
X723623Y1199688D02*
X759785Y1235850D01*
X723623Y1057781D02*
Y1199688D01*
X759785Y1235850D02*
Y1294730D01*
X865481Y1421834D02*
X1179059D01*
X822085Y1378438D02*
X865481Y1421834D01*
X650616Y1351876D02*
X768506Y1469765D01*
X831286D02*
X887001Y1525480D01*
X768506Y1469765D02*
X831286D01*
X887001Y1525480D02*
X927041D01*
X677748Y624839D02*
X685249Y632339D01*
X813563D01*
X598033Y1258563D02*
X661060Y1195537D01*
Y806528D02*
X677748Y789839D01*
X661060Y806528D02*
Y1195537D01*
X971715Y236244D02*
X1101863Y106096D01*
X574344Y345167D02*
X683267Y236244D01*
X971715D01*
X1057773Y1077337D02*
X1117652Y1017458D01*
X1057773Y1077337D02*
Y1095493D01*
X1238239Y1348011D02*
Y1362654D01*
X1179059Y1421834D02*
X1238239Y1362654D01*
X1246889Y1339361D02*
X1251547D01*
X1238239Y1348011D02*
X1246889Y1339361D01*
X1265021Y1274306D02*
X1318993Y1220333D01*
X1256371Y1339361D02*
X1265021Y1330711D01*
Y1274306D02*
Y1330711D01*
X1021694Y1131571D02*
X1057773Y1095493D01*
X889541Y1131824D02*
X1003287D01*
X1003539Y1131571D01*
X1021694D01*
X1117652Y1017458D02*
X1170252D01*
X1181009Y999082D02*
X1294567D01*
X1170252Y1017458D02*
X1181009Y1006702D01*
X1318993Y1220333D02*
X1330029D01*
X1387388Y1162974D01*
X1462517D01*
X427041Y75479D02*
X437948Y86386D01*
Y973833D01*
X445939Y981824D02*
X464541D01*
X437948Y973833D02*
X445939Y981824D01*
X377238Y1258563D02*
X598033D01*
X340824Y1171812D02*
Y1222149D01*
X380812Y1131824D02*
X464542D01*
X340824Y1171812D02*
X380812Y1131824D01*
X340824Y1222149D02*
X377238Y1258563D01*
X1101863Y106096D02*
X1468120D01*
X277607Y1010574D02*
X374257D01*
X204301Y1083880D02*
Y1461946D01*
Y1083880D02*
X277607Y1010574D01*
X204301Y1461946D02*
X276046Y1533692D01*
X418829D01*
X275266Y1247269D02*
X379872Y1351876D01*
X650616D01*
X275266Y1122228D02*
Y1247269D01*
X1468120Y614096D02*
X1480549D01*
X1553191Y686738D02*
Y813323D01*
X1480549Y614096D02*
X1553191Y686738D01*
X961147Y1205930D02*
X1160110D01*
X889541Y1181824D02*
X937041D01*
X961147Y1205930D01*
X1400446Y816069D02*
X1403191Y813323D01*
X1462517Y1162974D02*
X1495996Y1129495D01*
X1655997Y1001824D02*
Y1129495D01*
X1300270Y1126936D02*
X1400446Y1026761D01*
Y816069D02*
Y1026761D01*
X1291551Y1126936D02*
X1300270D01*
X1291551D02*
Y1128093D01*
X1177410Y1205930D02*
X1213713D01*
X1291551Y1128093D01*
X1168760Y1214580D02*
X1177410Y1205930D01*
X570076Y1181824D02*
X587341Y1164559D01*
X574344Y940169D02*
X587341Y953166D01*
Y1164559D01*
X574344Y345167D02*
Y940169D01*
X1160110Y1205930D02*
X1168760Y1214580D01*
Y1219450D01*
X395507Y1031824D02*
X464541D01*
X374257Y1010574D02*
X395507Y1031824D01*
X275266Y1122228D02*
X315670Y1081824D01*
X418829Y1533692D02*
X427041Y1525480D01*
X315670Y1081824D02*
X464542D01*
X889541Y981824D02*
X900300D01*
X464541Y1181824D02*
X570076D01*
X758956Y1022449D02*
X811145D01*
X723623Y1057781D02*
X758956Y1022449D01*
X820520Y1031824D02*
X889541D01*
X811145Y1022449D02*
X820520Y1031824D01*
D13*
X1459369Y614096D02*
D03*
Y106096D02*
D03*
X1713369D02*
D03*
X1459369Y360096D02*
D03*
X1713369D02*
D03*
Y614096D02*
D03*
D14*
X1746433Y1414824D02*
D03*
Y848824D02*
D03*
D15*
X1214541Y775480D02*
D03*
D16*
X139541D02*
D03*
D17*
X427041Y75479D02*
D03*
X927041D02*
D03*
X677041Y1525480D02*
D03*
X427041D02*
D03*
X927041D02*
D03*
D18*
X1121604Y1107529D02*
D03*
X1346547Y1279881D02*
D03*
X1109158Y1314450D02*
D03*
X326139Y1411197D02*
D03*
X1628968Y1261824D02*
D03*
X1019466Y620092D02*
D03*
X329759Y626709D02*
D03*
X93980Y997645D02*
D03*
X1027884Y1325880D02*
D03*
X996183Y1069981D02*
D03*
X787041Y1084039D02*
D03*
D19*
X1291551Y1126936D02*
D03*
X1294567Y999082D02*
D03*
X1655997Y1001824D02*
D03*
D20*
X1251547Y1339361D02*
D03*
X1346547D02*
D03*
D21*
X1181009Y1107529D02*
D03*
Y1012529D02*
D03*
X1168760Y1219450D02*
D03*
Y1314450D02*
D03*
D22*
X677748Y624839D02*
D03*
Y789839D02*
D03*
X813563Y782340D02*
D03*
Y632339D02*
D03*
D23*
X1019466Y856793D02*
D03*
Y701793D02*
D03*
D24*
X1495996Y1129495D02*
D03*
X1655997D02*
D03*
D25*
X464541Y981824D02*
D03*
Y1031824D02*
D03*
X464542Y1081824D02*
D03*
Y1131824D02*
D03*
X464541Y1181824D02*
D03*
X889541Y981824D02*
D03*
Y1031824D02*
D03*
X889541Y1081824D02*
D03*
Y1131824D02*
D03*
X889541Y1181824D02*
D03*
D26*
X790935Y1325880D02*
D03*
X945935D02*
D03*
D27*
X1403191Y813323D02*
D03*
X1553191D02*
D03*
%TF.MD5,2529e8bda1f29f63bf17fe0eb2a8fbfb*%
M02*
