%TF.GenerationSoftware,Altium Limited,Altium Designer,20.1.8 (145)*%
G04 Layer_Color=15790320*
%FSLAX45Y45*%
%MOMM*%
%TF.SameCoordinates,4CD9D56E-ABF0-4F53-8DDA-4C7987737DBE*%
%TF.FilePolarity,Positive*%
%TF.FileFunction,Legend,Bot*%
%TF.Part,Single*%
G01*
G75*
%TA.AperFunction,NonConductor*%
%ADD28C,0.10000*%
%ADD29C,0.10160*%
%ADD30C,0.15000*%
D28*
X1256547Y1314363D02*
G03*
X1256547Y1314363I-5000J0D01*
G01*
X1211007Y1012529D02*
G03*
X1211007Y1012529I-5000J0D01*
G01*
X1198758Y1219450D02*
G03*
X1198758Y1219450I-5000J0D01*
G01*
X732748Y687339D02*
G03*
X732748Y687339I-5000J0D01*
G01*
D29*
X620841Y967524D02*
G03*
X620841Y967524I-20000J0D01*
G01*
X1283807Y1339361D02*
X1311747D01*
X1283807D02*
X1296507Y1352061D01*
Y1329201D02*
Y1352061D01*
X1283807Y1339361D02*
X1296507Y1329201D01*
X1181009Y1044789D02*
X1191169Y1057489D01*
X1168309D02*
X1191169D01*
X1168309D02*
X1181009Y1044789D01*
Y1072729D01*
X1168760Y1251710D02*
Y1279650D01*
X1156060Y1264410D02*
X1168760Y1251710D01*
X1156060Y1264410D02*
X1178920D01*
X1168760Y1251710D02*
X1178920Y1264410D01*
X677748Y674839D02*
Y707339D01*
X702748D01*
X677748Y734840D02*
X702748Y707339D01*
X652749D02*
X677748Y734840D01*
X652749Y707339D02*
X677748D01*
X712748Y714839D02*
X722748Y724839D01*
X705249D02*
X715249Y734839D01*
X793563Y719840D02*
X818563Y729839D01*
X793563Y719840D02*
X831063Y709840D01*
X793563Y699840D02*
X831063Y709840D01*
X793563Y699840D02*
X831063Y689840D01*
X813563Y684839D02*
X831063Y689840D01*
X1019466Y791793D02*
Y804293D01*
Y754293D02*
Y766793D01*
X994466Y791793D02*
X1044466D01*
X994466Y766793D02*
X1044466D01*
X567041Y931824D02*
Y1231824D01*
X787041Y931824D02*
Y1231824D01*
X567041Y931824D02*
X787041D01*
X567041Y1231824D02*
X787041D01*
X843435Y1325880D02*
X855935D01*
X880935D02*
X893435D01*
X855935Y1300880D02*
Y1350880D01*
X880935Y1300880D02*
Y1350880D01*
X1455691Y813323D02*
X1460691Y795824D01*
X1470691Y833324D01*
X1480691Y795824D01*
X1490691Y833324D01*
X1500691Y808324D01*
D30*
X1818007Y140942D02*
X1809677Y149273D01*
Y165934D01*
X1818007Y174265D01*
X1851330D01*
X1859660Y165934D01*
Y149273D01*
X1851330Y140942D01*
X1834668D01*
Y157604D01*
X1859660Y124281D02*
X1809677D01*
X1859660Y90959D01*
X1809677D01*
Y74298D02*
X1859660D01*
Y49306D01*
X1851330Y40975D01*
X1818007D01*
X1809677Y49306D01*
Y74298D01*
X1569087Y425725D02*
X1560757Y417394D01*
Y400733D01*
X1569087Y392402D01*
X1577418D01*
X1585748Y400733D01*
Y409064D01*
Y400733D01*
X1594079Y392402D01*
X1602410D01*
X1610740Y400733D01*
Y417394D01*
X1602410Y425725D01*
X1577418Y375741D02*
X1610740Y359080D01*
X1577418Y342419D01*
X1569087Y325758D02*
X1560757Y317427D01*
Y300766D01*
X1569087Y292435D01*
X1577418D01*
X1585748Y300766D01*
Y309096D01*
Y300766D01*
X1594079Y292435D01*
X1602410D01*
X1610740Y300766D01*
Y317427D01*
X1602410Y325758D01*
X1818007Y645895D02*
X1809677Y654225D01*
Y670886D01*
X1818007Y679217D01*
X1851330D01*
X1859660Y670886D01*
Y654225D01*
X1851330Y645895D01*
X1834668D01*
Y662556D01*
X1859660Y629233D02*
X1809677D01*
X1859660Y595911D01*
X1809677D01*
Y579250D02*
X1859660D01*
Y554258D01*
X1851330Y545927D01*
X1818007D01*
X1809677Y554258D01*
Y579250D01*
X1818007Y392402D02*
X1809677Y400733D01*
Y417394D01*
X1818007Y425725D01*
X1851330D01*
X1859660Y417394D01*
Y400733D01*
X1851330Y392402D01*
X1834668D01*
Y409064D01*
X1859660Y375741D02*
X1809677D01*
X1859660Y342419D01*
X1809677D01*
Y325758D02*
X1859660D01*
Y300766D01*
X1851330Y292435D01*
X1818007D01*
X1809677Y300766D01*
Y325758D01*
X1610740Y174265D02*
X1560757D01*
Y149273D01*
X1569087Y140942D01*
X1585748D01*
X1594079Y149273D01*
Y174265D01*
Y157603D02*
X1610740Y140942D01*
X1569087Y90958D02*
X1560757Y99289D01*
Y115950D01*
X1569087Y124281D01*
X1577418D01*
X1585748Y115950D01*
Y99289D01*
X1594079Y90958D01*
X1602410D01*
X1610740Y99289D01*
Y115950D01*
X1602410Y124281D01*
X1560757Y74297D02*
Y40975D01*
Y57636D01*
X1610740D01*
Y679217D02*
X1560757D01*
Y654225D01*
X1569087Y645895D01*
X1585748D01*
X1594079Y654225D01*
Y679217D01*
X1569087Y595911D02*
X1560757Y604242D01*
Y620903D01*
X1569087Y629233D01*
X1602410D01*
X1610740Y620903D01*
Y604242D01*
X1602410Y595911D01*
X1585748D01*
Y612572D01*
X1610740Y579250D02*
X1560757D01*
X1577418Y562589D01*
X1560757Y545927D01*
X1610740D01*
X1198620Y1421069D02*
Y1371085D01*
X1173628D01*
X1165298Y1379416D01*
Y1412738D01*
X1173628Y1421069D01*
X1198620D01*
X1148637Y1412738D02*
X1140306Y1421069D01*
X1123645D01*
X1115314Y1412738D01*
Y1404407D01*
X1123645Y1396077D01*
X1131975D01*
X1123645D01*
X1115314Y1387746D01*
Y1379416D01*
X1123645Y1371085D01*
X1140306D01*
X1148637Y1379416D01*
X1143667Y1184844D02*
Y1134861D01*
X1118675D01*
X1110344Y1143192D01*
Y1176514D01*
X1118675Y1184844D01*
X1143667D01*
X1060361Y1134861D02*
X1093683D01*
X1060361Y1168183D01*
Y1176514D01*
X1068691Y1184844D01*
X1085352D01*
X1093683Y1176514D01*
X1332752Y1453900D02*
Y1403916D01*
X1307760D01*
X1299429Y1412247D01*
Y1445570D01*
X1307760Y1453900D01*
X1332752D01*
X1282768Y1403916D02*
X1266107D01*
X1274438D01*
Y1453900D01*
X1282768Y1445570D01*
X717597Y556273D02*
Y506289D01*
X692605D01*
X684274Y514620D01*
Y547942D01*
X692605Y556273D01*
X717597D01*
X642622Y506289D02*
Y556273D01*
X667613Y531281D01*
X634291D01*
X869979Y506096D02*
Y556079D01*
X844987D01*
X836656Y547749D01*
Y531088D01*
X844987Y522757D01*
X869979D01*
X853318D02*
X836656Y506096D01*
X786673Y556079D02*
X819995D01*
Y531088D01*
X803334Y539418D01*
X795003D01*
X786673Y531088D01*
Y514426D01*
X795003Y506096D01*
X811664D01*
X819995Y514426D01*
X1761767Y1159062D02*
X1795090D01*
Y1134070D01*
X1778428D01*
X1795090D01*
Y1109078D01*
X1745106D02*
X1728445D01*
X1736775D01*
Y1159062D01*
X1745106Y1150732D01*
X705950Y1304806D02*
Y1263153D01*
X697619Y1254822D01*
X680958D01*
X672628Y1263153D01*
Y1304806D01*
X655966Y1254822D02*
X639305D01*
X647636D01*
Y1304806D01*
X655966Y1296475D01*
X1463040Y880422D02*
Y930406D01*
X1438048D01*
X1429718Y922075D01*
Y905414D01*
X1438048Y897083D01*
X1463040D01*
X1446379D02*
X1429718Y880422D01*
X1388065D02*
Y930406D01*
X1413057Y905414D01*
X1379734D01*
X869113Y1437248D02*
X877444Y1445579D01*
X894105D01*
X902436Y1437248D01*
Y1403926D01*
X894105Y1395595D01*
X877444D01*
X869113Y1403926D01*
X819130Y1395595D02*
X852452D01*
X819130Y1428917D01*
Y1437248D01*
X827460Y1445579D01*
X844122D01*
X852452Y1437248D01*
X1021563Y962219D02*
X1029893Y970550D01*
X1046554D01*
X1054885Y962219D01*
Y928897D01*
X1046554Y920566D01*
X1029893D01*
X1021563Y928897D01*
X1004901Y920566D02*
X988240D01*
X996571D01*
Y970550D01*
X1004901Y962219D01*
%TF.MD5,20e12693e042f65e5d8835b285ed8bbf*%
M02*
