%TF.GenerationSoftware,Altium Limited,Altium Designer,25.4.2 (15)*%
G04 Layer_Physical_Order=1*
G04 Layer_Color=592338*
%FSLAX45Y45*%
%MOMM*%
%TF.SameCoordinates,A510A70D-2D1E-42FB-82E6-EC74EB495AF8*%
%TF.FilePolarity,Positive*%
%TF.FileFunction,Copper,L1,Top,Signal*%
%TF.Part,Single*%
G01*
G75*
%TA.AperFunction,Conductor*%
%ADD10C,0.10160*%
%TA.AperFunction,ComponentPad*%
%ADD11O,1.70000X1.00000*%
G04:AMPARAMS|DCode=12|XSize=2.25mm|YSize=3.75mm|CornerRadius=1.125mm|HoleSize=0mm|Usage=FLASHONLY|Rotation=180.000|XOffset=0mm|YOffset=0mm|HoleType=Round|Shape=RoundedRectangle|*
%AMROUNDEDRECTD12*
21,1,2.25000,1.50000,0,0,180.0*
21,1,0.00000,3.75000,0,0,180.0*
1,1,2.25000,0.00000,0.75000*
1,1,2.25000,0.00000,0.75000*
1,1,2.25000,0.00000,-0.75000*
1,1,2.25000,0.00000,-0.75000*
%
%ADD12ROUNDEDRECTD12*%
%ADD13O,2.25000X3.75000*%
%ADD14O,1.70000X0.90000*%
%ADD15O,2.00000X0.90000*%
G04:AMPARAMS|DCode=16|XSize=1.1mm|YSize=1.1mm|CornerRadius=0.55mm|HoleSize=0mm|Usage=FLASHONLY|Rotation=90.000|XOffset=0mm|YOffset=0mm|HoleType=Round|Shape=RoundedRectangle|*
%AMROUNDEDRECTD16*
21,1,1.10000,0.00000,0,0,90.0*
21,1,0.00000,1.10000,0,0,90.0*
1,1,1.10000,0.00000,0.00000*
1,1,1.10000,0.00000,0.00000*
1,1,1.10000,0.00000,0.00000*
1,1,1.10000,0.00000,0.00000*
%
%ADD16ROUNDEDRECTD16*%
%TA.AperFunction,ViaPad*%
%ADD17C,0.75000*%
G36*
X2028204Y1298467D02*
Y301533D01*
X1743167Y16496D01*
X1187464D01*
X1184382Y26656D01*
X1191373Y31327D01*
X1204669Y51227D01*
X1209338Y74700D01*
X1204669Y98173D01*
X1191373Y118073D01*
X1171473Y131369D01*
X1148000Y136038D01*
X1078000D01*
X1054527Y131369D01*
X1034627Y118073D01*
X1021331Y98173D01*
X1016662Y74700D01*
X1021331Y51227D01*
X1034627Y31327D01*
X1041618Y26656D01*
X1038536Y16496D01*
X256833D01*
X16496Y256833D01*
Y1341907D01*
X258293Y1583704D01*
X1039734D01*
X1042816Y1573544D01*
X1034627Y1568073D01*
X1021331Y1548173D01*
X1016662Y1524700D01*
X1021331Y1501227D01*
X1034627Y1481327D01*
X1054527Y1468031D01*
X1078000Y1463362D01*
X1148000D01*
X1171473Y1468031D01*
X1191373Y1481327D01*
X1204669Y1501227D01*
X1209338Y1524700D01*
X1204669Y1548173D01*
X1191373Y1568073D01*
X1183184Y1573544D01*
X1186267Y1583704D01*
X1539734D01*
X1542816Y1573544D01*
X1534627Y1568073D01*
X1521331Y1548173D01*
X1516662Y1524700D01*
X1521331Y1501227D01*
X1534627Y1481327D01*
X1554527Y1468031D01*
X1578000Y1463362D01*
X1648000D01*
X1671473Y1468031D01*
X1691373Y1481327D01*
X1704669Y1501227D01*
X1709338Y1524700D01*
X1704669Y1548173D01*
X1691373Y1568073D01*
X1683184Y1573544D01*
X1686267Y1583704D01*
X1742968D01*
X2028204Y1298467D01*
D02*
G37*
%LPC*%
G36*
X621543Y1288241D02*
X511542D01*
X490020Y1283960D01*
X471774Y1271768D01*
X459583Y1253523D01*
X455302Y1232000D01*
X459583Y1210478D01*
X471774Y1192232D01*
X490020Y1180041D01*
X511542Y1175759D01*
X621543D01*
X643065Y1180041D01*
X661311Y1192232D01*
X673502Y1210478D01*
X677783Y1232000D01*
X673502Y1253523D01*
X661311Y1271768D01*
X643065Y1283960D01*
X621543Y1288241D01*
D02*
G37*
G36*
X168542D02*
X88543D01*
X67020Y1283960D01*
X48774Y1271768D01*
X36583Y1253523D01*
X32302Y1232000D01*
X36583Y1210478D01*
X48774Y1192232D01*
X67020Y1180041D01*
X88543Y1175759D01*
X168542D01*
X190065Y1180041D01*
X208311Y1192232D01*
X220502Y1210478D01*
X224783Y1232000D01*
X220502Y1253523D01*
X208311Y1271768D01*
X190065Y1283960D01*
X168542Y1288241D01*
D02*
G37*
G36*
X525028Y1131660D02*
X508057D01*
X492377Y1125165D01*
X480377Y1113165D01*
X473882Y1097485D01*
Y1080514D01*
X480377Y1064835D01*
X492377Y1052835D01*
X508057Y1046340D01*
X525028D01*
X540708Y1052835D01*
X552708Y1064835D01*
X559203Y1080514D01*
Y1097485D01*
X552708Y1113165D01*
X540708Y1125165D01*
X525028Y1131660D01*
D02*
G37*
G36*
X1679078Y1103160D02*
X1661921D01*
X1645349Y1098719D01*
X1630491Y1090141D01*
X1618359Y1078009D01*
X1609780Y1063151D01*
X1605340Y1046579D01*
Y1029421D01*
X1609780Y1012849D01*
X1618359Y997991D01*
X1630491Y985859D01*
X1645349Y977280D01*
X1661921Y972840D01*
X1679078D01*
X1695651Y977280D01*
X1710509Y985859D01*
X1722641Y997991D01*
X1731219Y1012849D01*
X1735660Y1029421D01*
Y1046579D01*
X1731219Y1063151D01*
X1722641Y1078009D01*
X1710509Y1090141D01*
X1695651Y1098719D01*
X1679078Y1103160D01*
D02*
G37*
G36*
X957424Y1000634D02*
X465327D01*
X453663Y995803D01*
X383990Y926130D01*
X373489Y930480D01*
X354528D01*
X337012Y923224D01*
X323604Y909817D01*
X316349Y892300D01*
Y873340D01*
X323604Y855823D01*
X337012Y842416D01*
X347513Y838066D01*
Y811298D01*
X337012Y806948D01*
X323604Y793541D01*
X316349Y776024D01*
Y757063D01*
X323604Y739546D01*
X337012Y726139D01*
X354528Y718883D01*
X373489D01*
X391006Y726139D01*
X404413Y739546D01*
X411669Y757063D01*
Y776024D01*
X404413Y793541D01*
X391006Y806948D01*
X380504Y811298D01*
Y838066D01*
X391006Y842416D01*
X404413Y855823D01*
X411669Y873340D01*
Y892300D01*
X407319Y902802D01*
X472160Y967642D01*
X950591D01*
X1065144Y853089D01*
X1060794Y842588D01*
Y823628D01*
X1068050Y806111D01*
X1081457Y792704D01*
X1098974Y785448D01*
X1117934D01*
X1135451Y792704D01*
X1148858Y806111D01*
X1156114Y823628D01*
Y842588D01*
X1148858Y860105D01*
X1135451Y873512D01*
X1117934Y880768D01*
X1098974D01*
X1088472Y876418D01*
X969088Y995802D01*
X957424Y1000634D01*
D02*
G37*
G36*
X486980Y872660D02*
X468020D01*
X450503Y865404D01*
X437096Y851997D01*
X429840Y834480D01*
Y815520D01*
X437096Y798003D01*
X450503Y784596D01*
X461004Y780246D01*
Y750449D01*
X450503Y746099D01*
X437096Y732692D01*
X429840Y715175D01*
Y696215D01*
X437096Y678698D01*
X450503Y665291D01*
X468020Y658035D01*
X486980D01*
X497482Y662385D01*
X605996Y553871D01*
X617660Y549039D01*
X956473D01*
X968138Y553871D01*
X1088472Y674205D01*
X1098974Y669856D01*
X1117934D01*
X1135451Y677111D01*
X1148858Y690519D01*
X1156114Y708035D01*
Y726996D01*
X1148858Y744513D01*
X1135451Y757920D01*
X1117934Y765176D01*
X1098974D01*
X1081457Y757920D01*
X1068050Y744513D01*
X1060794Y726996D01*
Y708035D01*
X1065144Y697534D01*
X949641Y582031D01*
X624493D01*
X520810Y685713D01*
X525160Y696215D01*
Y715175D01*
X517904Y732692D01*
X504497Y746099D01*
X493996Y750449D01*
Y780246D01*
X504497Y784596D01*
X517904Y798003D01*
X525160Y815520D01*
Y834480D01*
X517904Y851997D01*
X504497Y865404D01*
X486980Y872660D01*
D02*
G37*
G36*
X525028Y553660D02*
X508057D01*
X492377Y547165D01*
X480377Y535165D01*
X473882Y519486D01*
Y502514D01*
X480377Y486835D01*
X492377Y474835D01*
X508057Y468340D01*
X525028D01*
X540708Y474835D01*
X552708Y486835D01*
X559203Y502514D01*
Y519486D01*
X552708Y535165D01*
X540708Y547165D01*
X525028Y553660D01*
D02*
G37*
G36*
X621543Y424241D02*
X511542D01*
X490020Y419960D01*
X471774Y407768D01*
X459583Y389522D01*
X455302Y368000D01*
X459583Y346478D01*
X471774Y328232D01*
X490020Y316041D01*
X511542Y311759D01*
X621543D01*
X643065Y316041D01*
X661311Y328232D01*
X673502Y346478D01*
X677783Y368000D01*
X673502Y389522D01*
X661311Y407768D01*
X643065Y419960D01*
X621543Y424241D01*
D02*
G37*
G36*
X168542D02*
X88543D01*
X67020Y419960D01*
X48774Y407768D01*
X36583Y389522D01*
X32302Y368000D01*
X36583Y346478D01*
X48774Y328232D01*
X67020Y316041D01*
X88543Y311759D01*
X168542D01*
X190065Y316041D01*
X208311Y328232D01*
X220502Y346478D01*
X224783Y368000D01*
X220502Y389522D01*
X208311Y407768D01*
X190065Y419960D01*
X168542Y424241D01*
D02*
G37*
G36*
X1142532Y428666D02*
X1125375D01*
X1108803Y424226D01*
X1093944Y415647D01*
X1081813Y403516D01*
X1073234Y388657D01*
X1068794Y372085D01*
Y354928D01*
X1073234Y338356D01*
X1081813Y323497D01*
X1093944Y311366D01*
X1108803Y302787D01*
X1125375Y298347D01*
X1142532D01*
X1159104Y302787D01*
X1173963Y311366D01*
X1186094Y323497D01*
X1194673Y338356D01*
X1199113Y354928D01*
Y372085D01*
X1194673Y388657D01*
X1186094Y403516D01*
X1173963Y415647D01*
X1159104Y424226D01*
X1142532Y428666D01*
D02*
G37*
%LPD*%
D10*
X364009Y766544D02*
Y882820D01*
X477500Y705695D02*
Y825000D01*
Y705695D02*
X617660Y565535D01*
X364009Y882820D02*
X465327Y984138D01*
X957424D01*
X1108454Y833108D01*
X956473Y565535D02*
X1108454Y717516D01*
X617660Y565535D02*
X956473D01*
D11*
X1613000Y1524700D02*
D03*
X1113000D02*
D03*
X1363000D02*
D03*
X1613000Y74700D02*
D03*
X1113000D02*
D03*
D12*
X1900500Y774700D02*
D03*
D13*
X825500D02*
D03*
D14*
X128543Y1232000D02*
D03*
Y368000D02*
D03*
D15*
X566542Y1232000D02*
D03*
Y368000D02*
D03*
D16*
X1720418Y432500D02*
D03*
X1670500Y1038000D02*
D03*
X1133954Y363507D02*
D03*
D17*
X701753Y1182804D02*
D03*
X1155028Y990281D02*
D03*
X802949Y475528D02*
D03*
X973345Y401271D02*
D03*
X477500Y825000D02*
D03*
X364009Y766544D02*
D03*
X1123356Y1259314D02*
D03*
X1822722Y1078343D02*
D03*
X1550000Y920000D02*
D03*
X1250132Y995739D02*
D03*
X1297163Y627414D02*
D03*
X477500Y705695D02*
D03*
X1108454Y833108D02*
D03*
Y717516D02*
D03*
X364009Y882820D02*
D03*
X1068269Y1205250D02*
D03*
X1353542Y509541D02*
D03*
X1358278Y718363D02*
D03*
X1467500Y922500D02*
D03*
X721197Y475973D02*
D03*
X724417Y1103912D02*
D03*
%TF.MD5,a102cabd8cf8ed0de097e521856a318b*%
M02*
