%TF.GenerationSoftware,Altium Limited,Altium Designer,25.4.2 (15)*%
G04 Layer_Color=65535*
%FSLAX45Y45*%
%MOMM*%
%TF.SameCoordinates,A510A70D-2D1E-42FB-82E6-EC74EB495AF8*%
%TF.FilePolarity,Positive*%
%TF.FileFunction,Legend,Top*%
%TF.Part,Single*%
G01*
G75*
%TA.AperFunction,NonConductor*%
%ADD30C,0.10160*%
%ADD31C,0.12700*%
D30*
X773000Y174700D02*
Y1374700D01*
X1953000D01*
Y174700D02*
Y1374700D01*
X773000Y174700D02*
X1953000D01*
D31*
X680007Y426541D02*
X629223D01*
Y451933D01*
X637687Y460397D01*
X654615D01*
X663079Y451933D01*
Y426541D01*
Y443469D02*
X680007Y460397D01*
X629223Y502717D02*
Y485789D01*
X637687Y477325D01*
X671542D01*
X680007Y485789D01*
Y502717D01*
X671542Y511180D01*
X637687D01*
X629223Y502717D01*
Y528108D02*
Y561964D01*
Y545036D01*
X680007D01*
Y578892D02*
X646151D01*
X629223Y595819D01*
X646151Y612747D01*
X680007D01*
X654615D01*
Y578892D01*
X680007Y629675D02*
X629223D01*
Y655067D01*
X637687Y663531D01*
X654615D01*
X663079Y655067D01*
Y629675D01*
Y646603D02*
X680007Y663531D01*
X629223Y680459D02*
X637687D01*
X654615Y697386D01*
X637687Y714314D01*
X629223D01*
X654615Y697386D02*
X680007D01*
X688471Y731242D02*
Y765098D01*
X629223Y815881D02*
Y782026D01*
X680007D01*
Y815881D01*
X654615Y782026D02*
Y798953D01*
X680007Y832809D02*
X629223D01*
X680007Y866665D01*
X629223D01*
X637687Y917448D02*
X629223Y908984D01*
Y892057D01*
X637687Y883593D01*
X671542D01*
X680007Y892057D01*
Y908984D01*
X671542Y917448D01*
X629223Y959768D02*
Y942840D01*
X637687Y934376D01*
X671542D01*
X680007Y942840D01*
Y959768D01*
X671542Y968232D01*
X637687D01*
X629223Y959768D01*
Y985160D02*
X680007D01*
Y1010551D01*
X671542Y1019015D01*
X637687D01*
X629223Y1010551D01*
Y985160D01*
Y1069799D02*
Y1035943D01*
X680007D01*
Y1069799D01*
X654615Y1035943D02*
Y1052871D01*
X680007Y1086727D02*
X629223D01*
Y1112118D01*
X637687Y1120582D01*
X654615D01*
X663079Y1112118D01*
Y1086727D01*
Y1103654D02*
X680007Y1120582D01*
%TF.MD5,2dfdb569472dc657cf28ac62d9858b82*%
M02*
