%TF.GenerationSoftware,Altium Limited,Altium Designer,25.4.2 (15)*%
G04 Layer_Color=32896*
%FSLAX45Y45*%
%MOMM*%
%TF.SameCoordinates,A510A70D-2D1E-42FB-82E6-EC74EB495AF8*%
%TF.FilePolarity,Positive*%
%TF.FileFunction,Legend,Bot*%
%TF.Part,Single*%
G01*
G75*
%TA.AperFunction,NonConductor*%
%ADD30C,0.10160*%
%ADD31C,0.12700*%
%ADD32C,0.20000*%
%ADD33C,0.10000*%
D30*
X1594800Y749300D02*
G03*
X1594800Y749300I-20000J0D01*
G01*
X1310500Y715500D02*
Y935500D01*
X1610500Y715500D02*
Y935500D01*
X1310500D02*
X1610500D01*
X1310500Y715500D02*
X1610500D01*
X1018694Y994514D02*
Y1029514D01*
X793694Y994514D02*
X1018694D01*
X793694D02*
Y1029514D01*
X1018694Y1079514D02*
Y1114514D01*
X793694D02*
X1018694D01*
X793694Y1079514D02*
Y1114514D01*
X923300Y1222500D02*
X928300Y1205000D01*
X913300Y1185000D02*
X923300Y1222500D01*
X903300D02*
X913300Y1185000D01*
X893300D02*
X903300Y1222500D01*
X883300Y1210000D02*
X893300Y1185000D01*
X775800Y1145000D02*
X1035800D01*
Y1265000D01*
X775800D02*
X1035800D01*
X775800Y1145000D02*
Y1265000D01*
X901905Y1383825D02*
X906905Y1366325D01*
X916905Y1403825D01*
X926905Y1366325D01*
X936905Y1403825D01*
X946905Y1378825D01*
X794405Y1443824D02*
X1054405D01*
X794405Y1323825D02*
Y1443824D01*
Y1323825D02*
X1054405D01*
Y1443824D01*
X1421460Y1383825D02*
X1426460Y1366325D01*
X1436460Y1403825D01*
X1446460Y1366325D01*
X1456460Y1403825D01*
X1466460Y1378825D01*
X1313960Y1443824D02*
X1573960D01*
X1313960Y1323825D02*
Y1443824D01*
Y1323825D02*
X1573960D01*
Y1443824D01*
X1503000Y263880D02*
X1508000Y246380D01*
X1493000Y226380D02*
X1503000Y263880D01*
X1483000D02*
X1493000Y226380D01*
X1473000D02*
X1483000Y263880D01*
X1463000Y251380D02*
X1473000Y226380D01*
X1355500Y186380D02*
X1615500D01*
Y306380D01*
X1355500D02*
X1615500D01*
X1355500Y186380D02*
Y306380D01*
X1614980Y1113480D02*
X1674980D01*
X1614980Y1233480D02*
X1674980D01*
X1814980Y1113480D02*
X1874980D01*
X1814980Y1233480D02*
X1874980D01*
X1757480Y1148480D02*
Y1198480D01*
X1732480Y1148480D02*
Y1198480D01*
X1757480Y1173480D02*
X1769980D01*
X1719980D02*
X1732480D01*
X1874980Y1113480D02*
Y1233480D01*
X1614980Y1113480D02*
Y1233480D01*
X1774347Y1393079D02*
X1779347Y1375579D01*
X1764347Y1355579D02*
X1774347Y1393079D01*
X1754347D02*
X1764347Y1355579D01*
X1744347D02*
X1754347Y1393079D01*
X1734348Y1380579D02*
X1744347Y1355579D01*
X1626847Y1315580D02*
X1886847D01*
Y1435579D01*
X1626847D02*
X1886847D01*
X1626847Y1315580D02*
Y1435579D01*
X1981562Y1105366D02*
Y1137866D01*
X1956562Y1105366D02*
X1981562D01*
X1956562D02*
X1981562Y1077866D01*
X2006562Y1105366D01*
X1981562D02*
X2006562D01*
X1936562Y1087866D02*
X1946562Y1097866D01*
X1944062Y1077866D02*
X1954062Y1087866D01*
X2041041Y975171D02*
Y1235171D01*
X1921042D02*
X2041041D01*
X1921042Y975171D02*
Y1235171D01*
Y975171D02*
X2041041D01*
X1278400Y1051600D02*
Y1111600D01*
X1158400Y1051600D02*
Y1111600D01*
X1278400Y1251600D02*
Y1311600D01*
X1158400Y1251600D02*
Y1311600D01*
X1193400Y1194100D02*
X1243400D01*
X1193400Y1169100D02*
X1243400D01*
X1218400Y1194100D02*
Y1206600D01*
Y1156600D02*
Y1169100D01*
X1158400Y1311600D02*
X1278400D01*
X1158400Y1051600D02*
X1278400D01*
X1250420Y862868D02*
X1260580Y875568D01*
X1237720D02*
X1260580D01*
X1237720D02*
X1250420Y862868D01*
Y890808D01*
X1207340Y675056D02*
X1217500Y687756D01*
X1207340Y675056D02*
X1230200D01*
X1217500Y687756D02*
X1230200Y675056D01*
X1217500Y659816D02*
Y687756D01*
X1071915Y1036240D02*
X1082075Y1048940D01*
X1071915Y1036240D02*
X1094775D01*
X1082075Y1048940D02*
X1094775Y1036240D01*
X1082075Y1021000D02*
Y1048940D01*
X915544Y321163D02*
X920544Y303663D01*
X905544Y283663D02*
X915544Y321163D01*
X895544D02*
X905544Y283663D01*
X885544D02*
X895544Y321163D01*
X875544Y308663D02*
X885544Y283663D01*
X768044Y243663D02*
X1028044D01*
Y363663D01*
X768044D02*
X1028044D01*
X768044Y243663D02*
Y363663D01*
X1036453Y497792D02*
X1041453Y480292D01*
X1051453Y517792D01*
X1061454Y480292D01*
X1071454Y517792D01*
X1081453Y492792D01*
X928953Y557792D02*
X1188953D01*
X928953Y437792D02*
Y557792D01*
Y437792D02*
X1188953D01*
Y557792D01*
D31*
X1428856Y1175392D02*
Y1133072D01*
X1420392Y1124608D01*
X1403464D01*
X1395000Y1133072D01*
Y1175392D01*
X1378072Y1124608D02*
X1361144D01*
X1369608D01*
Y1175392D01*
X1378072Y1166928D01*
X401398Y312271D02*
Y269952D01*
X392934Y261488D01*
X376006D01*
X367542Y269952D01*
Y312271D01*
X316759Y303808D02*
X325223Y312271D01*
X342150D01*
X350614Y303808D01*
Y295344D01*
X342150Y286880D01*
X325223D01*
X316759Y278416D01*
Y269952D01*
X325223Y261488D01*
X342150D01*
X350614Y269952D01*
X299831Y312271D02*
Y261488D01*
X274439D01*
X265975Y269952D01*
Y278416D01*
X274439Y286880D01*
X299831D01*
X274439D01*
X265975Y295344D01*
Y303808D01*
X274439Y312271D01*
X299831D01*
X1149032Y1183328D02*
Y1234111D01*
X1123640D01*
X1115177Y1225648D01*
Y1208720D01*
X1123640Y1200256D01*
X1149032D01*
X1132104D02*
X1115177Y1183328D01*
X1098249Y1225648D02*
X1089785Y1234111D01*
X1072857D01*
X1064393Y1225648D01*
Y1217183D01*
X1072857Y1208720D01*
X1081321D01*
X1072857D01*
X1064393Y1200256D01*
Y1191792D01*
X1072857Y1183328D01*
X1089785D01*
X1098249Y1191792D01*
X952198Y1466792D02*
Y1517576D01*
X926806D01*
X918343Y1509112D01*
Y1492184D01*
X926806Y1483720D01*
X952198D01*
X935270D02*
X918343Y1466792D01*
X901415Y1517576D02*
X867559D01*
Y1509112D01*
X901415Y1475256D01*
Y1466792D01*
X1483104Y1244475D02*
Y1295259D01*
X1457712D01*
X1449248Y1286795D01*
Y1269867D01*
X1457712Y1261403D01*
X1483104D01*
X1466176D02*
X1449248Y1244475D01*
X1432320Y1286795D02*
X1423856Y1295259D01*
X1406929D01*
X1398465Y1286795D01*
Y1278331D01*
X1406929Y1269867D01*
X1398465Y1261403D01*
Y1252939D01*
X1406929Y1244475D01*
X1423856D01*
X1432320Y1252939D01*
Y1261403D01*
X1423856Y1269867D01*
X1432320Y1278331D01*
Y1286795D01*
X1423856Y1269867D02*
X1406929D01*
X1523135Y330846D02*
Y381630D01*
X1497744D01*
X1489280Y373166D01*
Y356238D01*
X1497744Y347774D01*
X1523135D01*
X1506208D02*
X1489280Y330846D01*
X1438496Y381630D02*
X1455424Y373166D01*
X1472352Y356238D01*
Y339310D01*
X1463888Y330846D01*
X1446960D01*
X1438496Y339310D01*
Y347774D01*
X1446960Y356238D01*
X1472352D01*
X1816554Y1083710D02*
X1825017Y1092174D01*
X1841945D01*
X1850409Y1083710D01*
Y1049854D01*
X1841945Y1041390D01*
X1825017D01*
X1816554Y1049854D01*
X1765770Y1092174D02*
X1782698Y1083710D01*
X1799626Y1066782D01*
Y1049854D01*
X1791162Y1041390D01*
X1774234D01*
X1765770Y1049854D01*
Y1058318D01*
X1774234Y1066782D01*
X1799626D01*
X1798066Y1460996D02*
Y1511779D01*
X1772674D01*
X1764210Y1503315D01*
Y1486387D01*
X1772674Y1477923D01*
X1798066D01*
X1781138D02*
X1764210Y1460996D01*
X1747282D02*
X1730354D01*
X1738818D01*
Y1511779D01*
X1747282Y1503315D01*
X1999064Y1305361D02*
Y1254577D01*
X1973672D01*
X1965208Y1263041D01*
Y1296897D01*
X1973672Y1305361D01*
X1999064D01*
X1948280Y1254577D02*
X1931352D01*
X1939816D01*
Y1305361D01*
X1948280Y1296897D01*
X1209038Y1374243D02*
X1217502Y1382707D01*
X1234430D01*
X1242894Y1374243D01*
Y1340387D01*
X1234430Y1331923D01*
X1217502D01*
X1209038Y1340387D01*
X1192110Y1382707D02*
X1158255D01*
Y1374243D01*
X1192110Y1340387D01*
Y1331923D01*
X988721Y970580D02*
X1022577D01*
Y945188D01*
X1005649D01*
X1022577D01*
Y919796D01*
X937938D02*
X971794D01*
X937938Y953652D01*
Y962116D01*
X946402Y970580D01*
X963330D01*
X971794Y962116D01*
X1267282Y1030800D02*
Y980016D01*
X1241890D01*
X1233427Y988480D01*
Y1022336D01*
X1241890Y1030800D01*
X1267282D01*
X1182643D02*
X1199571Y1022336D01*
X1216499Y1005408D01*
Y988480D01*
X1208035Y980016D01*
X1191107D01*
X1182643Y988480D01*
Y996944D01*
X1191107Y1005408D01*
X1216499D01*
X1208083Y808068D02*
Y757285D01*
X1182692D01*
X1174228Y765749D01*
Y799605D01*
X1182692Y808068D01*
X1208083D01*
X1157300D02*
X1123444D01*
Y799605D01*
X1157300Y765749D01*
Y757285D01*
X1146772Y938547D02*
Y887764D01*
X1121381D01*
X1112917Y896228D01*
Y930083D01*
X1121381Y938547D01*
X1146772D01*
X1095989Y930083D02*
X1087525Y938547D01*
X1070597D01*
X1062133Y930083D01*
Y921619D01*
X1070597Y913156D01*
X1062133Y904692D01*
Y896228D01*
X1070597Y887764D01*
X1087525D01*
X1095989Y896228D01*
Y904692D01*
X1087525Y913156D01*
X1095989Y921619D01*
Y930083D01*
X1087525Y913156D02*
X1070597D01*
X946002Y166241D02*
Y217025D01*
X920610D01*
X912146Y208561D01*
Y191633D01*
X920610Y183169D01*
X946002D01*
X929074D02*
X912146Y166241D01*
X861363D02*
X895218D01*
X861363Y200097D01*
Y208561D01*
X869826Y217025D01*
X886754D01*
X895218Y208561D01*
X1119854Y586187D02*
Y636971D01*
X1094462D01*
X1085998Y628507D01*
Y611579D01*
X1094462Y603115D01*
X1119854D01*
X1102926D02*
X1085998Y586187D01*
X1069070D02*
X1052142D01*
X1060606D01*
Y636971D01*
X1069070Y628507D01*
X1026751D02*
X1018287Y636971D01*
X1001359D01*
X992895Y628507D01*
Y594651D01*
X1001359Y586187D01*
X1018287D01*
X1026751Y594651D01*
Y628507D01*
X1763021Y338358D02*
X1771485Y346822D01*
X1788412D01*
X1796877Y338358D01*
Y304502D01*
X1788412Y296038D01*
X1771485D01*
X1763021Y304502D01*
Y321430D01*
X1779949D01*
X1746093Y296038D02*
Y346822D01*
X1712237Y296038D01*
Y346822D01*
X1695310D02*
Y296038D01*
X1669918D01*
X1661454Y304502D01*
Y338358D01*
X1669918Y346822D01*
X1695310D01*
X1770131Y952519D02*
X1761667Y960983D01*
X1744739D01*
X1736276Y952519D01*
Y944055D01*
X1744739Y935591D01*
X1753204D01*
X1744739D01*
X1736276Y927127D01*
Y918663D01*
X1744739Y910199D01*
X1761667D01*
X1770131Y918663D01*
X1719348Y960983D02*
Y927127D01*
X1702420Y910199D01*
X1685492Y927127D01*
Y960983D01*
X1668564Y952519D02*
X1660100Y960983D01*
X1643172D01*
X1634709Y952519D01*
Y944055D01*
X1643172Y935591D01*
X1651637D01*
X1643172D01*
X1634709Y927127D01*
Y918663D01*
X1643172Y910199D01*
X1660100D01*
X1668564Y918663D01*
X1217031Y240126D02*
Y290909D01*
X1191639D01*
X1183175Y282445D01*
Y265518D01*
X1191639Y257054D01*
X1217031D01*
X1132392Y282445D02*
X1140855Y290909D01*
X1157783D01*
X1166247Y282445D01*
Y248590D01*
X1157783Y240126D01*
X1140855D01*
X1132392Y248590D01*
Y265518D01*
X1149320D01*
X1115464Y240126D02*
Y290909D01*
X1098536Y273981D01*
X1081608Y290909D01*
Y240126D01*
D32*
X1906041Y1015171D02*
G03*
X1906041Y1015171I-5000J0D01*
G01*
D33*
X1295420Y828108D02*
G03*
X1295420Y828108I-5000J0D01*
G01*
X1182500Y722516D02*
G03*
X1182500Y722516I-5000J0D01*
G01*
X1047075Y1083700D02*
G03*
X1047075Y1083700I-5000J0D01*
G01*
%TF.MD5,1c3e4e6d47f8aab2bdf59409f46ecbc6*%
M02*
