M48
;Layer_Color=5050912
;FILE_FORMAT=4:4
METRIC,LZ
;TYPE=PLATED
T02F00S00C0.5000
T03F00S00C0.6000
T05F00S00C1.5000
%
G90
G05
T02
G00X0023505Y0004747
M15
G01X0022755
M16
G00X0028505Y0004747
M15
G01X0027755
M16
G00X0052005Y0004747
M15
G01X0051255
M16
G00X0057005Y0004747
M15
G01X0056255
M16
G00X0080505Y0004747
M15
G01X0079755
M16
G00X0085505Y0004747
M15
G01X0084755
M16
G00X0085505Y0019247
M15
G01X0084755
M16
G00X0083005Y0019247
M15
G01X0082255
M16
G00X0080505Y0019247
M15
G01X0079755
M16
G00X0080505Y0023747
M15
G01X0079755
M16
G00X0085505Y0023747
M15
G01X0084755
M16
G00X0085505Y0038247
M15
G01X0084755
M16
G00X0083005Y0038247
M15
G01X0082255
M16
G00X0080505Y0038247
M15
G01X0079755
M16
G00X0080505Y0042747
M15
G01X0079755
M16
G00X0085505Y0042747
M15
G01X0084755
M16
G00X0057005Y0042747
M15
G01X0056255
M16
G00X0057005Y0038247
M15
G01X0056255
M16
G00X0057005Y0023747
M15
G01X0056255
M16
G00X0057005Y0019247
M15
G01X0056255
M16
G00X0054505Y0019247
M15
G01X0053755
M16
G00X0052005Y0019247
M15
G01X0051255
M16
G00X0052005Y0023747
M15
G01X0051255
M16
G00X0052005Y0038247
M15
G01X0051255
M16
G00X0054505Y0038247
M15
G01X0053755
M16
G00X0052005Y0042747
M15
G01X0051255
M16
G00X0028505Y0042747
M15
G01X0027755
M16
G00X0028505Y0038247
M15
G01X0027755
M16
G00X0026005Y0038247
M15
G01X0025255
M16
G00X0023505Y0038247
M15
G01X0022755
M16
G00X0023505Y0042747
M15
G01X0022755
M16
G00X0023505Y0023747
M15
G01X0022755
M16
G00X0023505Y0019247
M15
G01X0022755
M16
G00X0026005Y0019247
M15
G01X0025255
M16
G00X0028505Y0019247
M15
G01X0027755
M16
G00X0028505Y0023747
M15
G01X0027755
M16
G00X0028505Y0057247
M15
G01X0027755
M16
G00X0026005Y0057247
M15
G01X0025255
M16
G00X0023505Y0057247
M15
G01X0022755
M16
G00X0023505Y0061747
M15
G01X0022755
M16
G00X0028505Y0061747
M15
G01X0027755
M16
G00X0028505Y0076247
M15
G01X0027755
M16
G00X0026005Y0076247
M15
G01X0025255
M16
G00X0023505Y0076247
M15
G01X0022755
M16
G00X0023505Y0080747
M15
G01X0022755
M16
G00X0028505Y0080747
M15
G01X0027755
M16
G00X0052005Y0080747
M15
G01X0051255
M16
G00X0052005Y0076247
M15
G01X0051255
M16
G00X0054505Y0076247
M15
G01X0053755
M16
G00X0052005Y0061747
M15
G01X0051255
M16
G00X0052005Y0057247
M15
G01X0051255
M16
G00X0054505Y0057247
M15
G01X0053755
M16
G00X0057005Y0057247
M15
G01X0056255
M16
G00X0057005Y0061747
M15
G01X0056255
M16
G00X0057005Y0076247
M15
G01X0056255
M16
G00X0057005Y0080747
M15
G01X0056255
M16
G00X0080505Y0080747
M15
G01X0079755
M16
G00X0080505Y0076247
M15
G01X0079755
M16
G00X0083005Y0076247
M15
G01X0082255
M16
G00X0085505Y0076247
M15
G01X0084755
M16
G00X0085505Y0080747
M15
G01X0084755
M16
G00X0085505Y0061747
M15
G01X0084755
M16
G00X0085505Y0057247
M15
G01X0084755
M16
G00X0083005Y0057247
M15
G01X0082255
M16
G00X0080505Y0057247
M15
G01X0079755
M16
G00X0080505Y0061747
M15
G01X0079755
M16
G00X0080505Y0095247
M15
G01X0079755
M16
G00X0083005Y0095247
M15
G01X0082255
M16
G00X0085505Y0095247
M15
G01X0084755
M16
G00X0057005Y0095247
M15
G01X0056255
M16
G00X0054505Y0095247
M15
G01X0053755
M16
G00X0052005Y0095247
M15
G01X0051255
M16
G00X0028505Y0095247
M15
G01X0027755
M16
G00X0026005Y0095247
M15
G01X0025255
M16
G00X0023505Y0095247
M15
G01X0022755
M16
T03
G00X00128854Y000768
M15
G01X00136854
M16
G00X00171154Y000768
M15
G01X00182154
M16
G00X00413854Y000768
M15
G01X00421854
M16
G00X00456154Y000768
M15
G01X00467154
M16
G00X00698854Y000768
M15
G01X00706854
M16
G00X00741154Y000768
M15
G01X00752154
M16
G00X00741154Y001632
M15
G01X00752154
M16
G00X00698854Y001632
M15
G01X00706854
M16
G00X00698854Y002668
M15
G01X00706854
M16
G00X00741154Y002668
M15
G01X00752154
M16
G00X00741154Y003532
M15
G01X00752154
M16
G00X00698854Y003532
M15
G01X00706854
M16
G00X00698854Y004568
M15
G01X00706854
M16
G00X00741154Y004568
M15
G01X00752154
M16
G00X00741154Y005432
M15
G01X00752154
M16
G00X00698854Y005432
M15
G01X00706854
M16
G00X00456154Y005432
M15
G01X00467154
M16
G00X00413854Y005432
M15
G01X00421854
M16
G00X00413854Y004568
M15
G01X00421854
M16
G00X00456154Y004568
M15
G01X00467154
M16
G00X00456154Y003532
M15
G01X00467154
M16
G00X00413854Y003532
M15
G01X00421854
M16
G00X00413854Y002668
M15
G01X00421854
M16
G00X00456154Y002668
M15
G01X00467154
M16
G00X00456154Y001632
M15
G01X00467154
M16
G00X00413854Y001632
M15
G01X00421854
M16
G00X00171154Y001632
M15
G01X00182154
M16
G00X00171154Y002668
M15
G01X00182154
M16
G00X00171154Y003532
M15
G01X00182154
M16
G00X00171154Y004568
M15
G01X00182154
M16
G00X00171154Y005432
M15
G01X00182154
M16
G00X00128854Y005432
M15
G01X00136854
M16
G00X00128854Y004568
M15
G01X00136854
M16
G00X00128854Y003532
M15
G01X00136854
M16
G00X00128854Y002668
M15
G01X00136854
M16
G00X00128854Y001632
M15
G01X00136854
M16
G00X00128854Y006468
M15
G01X00136854
M16
G00X00128854Y007332
M15
G01X00136854
M16
G00X00128854Y008368
M15
G01X00136854
M16
G00X00128854Y009232
M15
G01X00136854
M16
G00X00171154Y009232
M15
G01X00182154
M16
G00X00171154Y008368
M15
G01X00182154
M16
G00X00171154Y007332
M15
G01X00182154
M16
G00X00171154Y006468
M15
G01X00182154
M16
G00X00413854Y006468
M15
G01X00421854
M16
G00X00456154Y006468
M15
G01X00467154
M16
G00X00456154Y007332
M15
G01X00467154
M16
G00X00413854Y007332
M15
G01X00421854
M16
G00X00413854Y008368
M15
G01X00421854
M16
G00X00456154Y008368
M15
G01X00467154
M16
G00X00456154Y009232
M15
G01X00467154
M16
G00X00413854Y009232
M15
G01X00421854
M16
G00X00698854Y009232
M15
G01X00706854
M16
G00X00741154Y009232
M15
G01X00752154
M16
G00X00741154Y008368
M15
G01X00752154
M16
G00X00698854Y008368
M15
G01X00706854
M16
G00X00698854Y007332
M15
G01X00706854
M16
G00X00741154Y007332
M15
G01X00752154
M16
G00X00741154Y006468
M15
G01X00752154
M16
G00X00698854Y006468
M15
G01X00706854
M16
T05
G00X0020255Y0012497
M15
G01Y0010997
M16
G00X0031005Y0012497
M15
G01Y0010997
M16
G00X0048755Y0012497
M15
G01Y0010997
M16
G00X0059505Y0012497
M15
G01Y0010997
M16
G00X0077255Y0012497
M15
G01Y0010997
M16
G00X0088005Y0012497
M15
G01Y0010997
M16
G00X0088005Y0031497
M15
G01Y0029997
M16
G00X0077255Y0031497
M15
G01Y0029997
M16
G00X0059505Y0031497
M15
G01Y0029997
M16
G00X0059505Y0050497
M15
G01Y0048997
M16
G00X0077255Y0050497
M15
G01Y0048997
M16
G00X0088005Y0050497
M15
G01Y0048997
M16
G00X0048755Y0050497
M15
G01Y0048997
M16
G00X0031005Y0050497
M15
G01Y0048997
M16
G00X0020255Y0050497
M15
G01Y0048997
M16
G00X0020255Y0031497
M15
G01Y0029997
M16
G00X0031005Y0031497
M15
G01Y0029997
M16
G00X0048755Y0031497
M15
G01Y0029997
M16
G00X0048755Y0069497
M15
G01Y0067997
M16
G00X0031005Y0069497
M15
G01Y0067997
M16
G00X0020255Y0069497
M15
G01Y0067997
M16
G00X0020255Y0088497
M15
G01Y0086997
M16
G00X0031005Y0088497
M15
G01Y0086997
M16
G00X0048755Y0088497
M15
G01Y0086997
M16
G00X0059505Y0088497
M15
G01Y0086997
M16
G00X0077255Y0088497
M15
G01Y0086997
M16
G00X0088005Y0088497
M15
G01Y0086997
M16
G00X0088005Y0069497
M15
G01Y0067997
M16
G00X0077255Y0069497
M15
G01Y0067997
M16
G00X0059505Y0069497
M15
G01Y0067997
M16
M17
M30
