%TF.GenerationSoftware,Altium Limited,Altium Designer,25.4.2 (15)*%
G04 Layer_Color=16711935*
%FSLAX45Y45*%
%MOMM*%
%TF.SameCoordinates,6791CEA5-0592-433A-98BD-FF1B9D05833A*%
%TF.FilePolarity,Negative*%
%TF.FileFunction,Soldermask,Bot*%
%TF.Part,CustomerPanel*%
G01*
G75*
%TA.AperFunction,ConnectorPad*%
G04:AMPARAMS|DCode=20|XSize=0.3mm|YSize=1.15mm|CornerRadius=0.015mm|HoleSize=0mm|Usage=FLASHONLY|Rotation=90.000|XOffset=0mm|YOffset=0mm|HoleType=Round|Shape=RoundedRectangle|*
%AMROUNDEDRECTD20*
21,1,0.30000,1.12000,0,0,90.0*
21,1,0.27000,1.15000,0,0,90.0*
1,1,0.03000,0.56000,0.13500*
1,1,0.03000,0.56000,-0.13500*
1,1,0.03000,-0.56000,-0.13500*
1,1,0.03000,-0.56000,0.13500*
%
%ADD20ROUNDEDRECTD20*%
G04:AMPARAMS|DCode=21|XSize=0.6mm|YSize=1.15mm|CornerRadius=0.03mm|HoleSize=0mm|Usage=FLASHONLY|Rotation=90.000|XOffset=0mm|YOffset=0mm|HoleType=Round|Shape=RoundedRectangle|*
%AMROUNDEDRECTD21*
21,1,0.60000,1.09000,0,0,90.0*
21,1,0.54000,1.15000,0,0,90.0*
1,1,0.06000,0.54500,0.27000*
1,1,0.06000,0.54500,-0.27000*
1,1,0.06000,-0.54500,-0.27000*
1,1,0.06000,-0.54500,0.27000*
%
%ADD21ROUNDEDRECTD21*%
%TA.AperFunction,ComponentPad*%
%ADD33O,2.35000X3.85000*%
G04:AMPARAMS|DCode=34|XSize=2.35mm|YSize=3.85mm|CornerRadius=1.175mm|HoleSize=0mm|Usage=FLASHONLY|Rotation=180.000|XOffset=0mm|YOffset=0mm|HoleType=Round|Shape=RoundedRectangle|*
%AMROUNDEDRECTD34*
21,1,2.35000,1.50000,0,0,180.0*
21,1,0.00000,3.85000,0,0,180.0*
1,1,2.35000,0.00000,0.75000*
1,1,2.35000,0.00000,0.75000*
1,1,2.35000,0.00000,-0.75000*
1,1,2.35000,0.00000,-0.75000*
%
%ADD34ROUNDEDRECTD34*%
%ADD35O,1.80000X1.10000*%
%ADD36O,1.80000X1.00000*%
%ADD37O,2.10000X1.00000*%
G04:AMPARAMS|DCode=38|XSize=1.2mm|YSize=1.2mm|CornerRadius=0.6mm|HoleSize=0mm|Usage=FLASHONLY|Rotation=90.000|XOffset=0mm|YOffset=0mm|HoleType=Round|Shape=RoundedRectangle|*
%AMROUNDEDRECTD38*
21,1,1.20000,0.00000,0,0,90.0*
21,1,0.00000,1.20000,0,0,90.0*
1,1,1.20000,0.00000,0.00000*
1,1,1.20000,0.00000,0.00000*
1,1,1.20000,0.00000,0.00000*
1,1,1.20000,0.00000,0.00000*
%
%ADD38ROUNDEDRECTD38*%
%TA.AperFunction,SMDPad,CuDef*%
%ADD39O,0.40000X1.35000*%
G04:AMPARAMS|DCode=40|XSize=0.7mm|YSize=1mm|CornerRadius=0.08mm|HoleSize=0mm|Usage=FLASHONLY|Rotation=0.000|XOffset=0mm|YOffset=0mm|HoleType=Round|Shape=RoundedRectangle|*
%AMROUNDEDRECTD40*
21,1,0.70000,0.84000,0,0,0.0*
21,1,0.54000,1.00000,0,0,0.0*
1,1,0.16000,0.27000,-0.42000*
1,1,0.16000,-0.27000,-0.42000*
1,1,0.16000,-0.27000,0.42000*
1,1,0.16000,0.27000,0.42000*
%
%ADD40ROUNDEDRECTD40*%
G04:AMPARAMS|DCode=41|XSize=1mm|YSize=0.8mm|CornerRadius=0.0535mm|HoleSize=0mm|Usage=FLASHONLY|Rotation=270.000|XOffset=0mm|YOffset=0mm|HoleType=Round|Shape=RoundedRectangle|*
%AMROUNDEDRECTD41*
21,1,1.00000,0.69300,0,0,270.0*
21,1,0.89300,0.80000,0,0,270.0*
1,1,0.10700,-0.34650,-0.44650*
1,1,0.10700,-0.34650,0.44650*
1,1,0.10700,0.34650,0.44650*
1,1,0.10700,0.34650,-0.44650*
%
%ADD41ROUNDEDRECTD41*%
G04:AMPARAMS|DCode=42|XSize=0.95mm|YSize=0.85mm|CornerRadius=0.05375mm|HoleSize=0mm|Usage=FLASHONLY|Rotation=180.000|XOffset=0mm|YOffset=0mm|HoleType=Round|Shape=RoundedRectangle|*
%AMROUNDEDRECTD42*
21,1,0.95000,0.74250,0,0,180.0*
21,1,0.84250,0.85000,0,0,180.0*
1,1,0.10750,-0.42125,0.37125*
1,1,0.10750,0.42125,0.37125*
1,1,0.10750,0.42125,-0.37125*
1,1,0.10750,-0.42125,-0.37125*
%
%ADD42ROUNDEDRECTD42*%
G04:AMPARAMS|DCode=43|XSize=0.9mm|YSize=0.8mm|CornerRadius=0.0535mm|HoleSize=0mm|Usage=FLASHONLY|Rotation=180.000|XOffset=0mm|YOffset=0mm|HoleType=Round|Shape=RoundedRectangle|*
%AMROUNDEDRECTD43*
21,1,0.90000,0.69300,0,0,180.0*
21,1,0.79300,0.80000,0,0,180.0*
1,1,0.10700,-0.39650,0.34650*
1,1,0.10700,0.39650,0.34650*
1,1,0.10700,0.39650,-0.34650*
1,1,0.10700,-0.39650,-0.34650*
%
%ADD43ROUNDEDRECTD43*%
G04:AMPARAMS|DCode=44|XSize=0.5mm|YSize=0.5mm|CornerRadius=0.052mm|HoleSize=0mm|Usage=FLASHONLY|Rotation=0.000|XOffset=0mm|YOffset=0mm|HoleType=Round|Shape=RoundedRectangle|*
%AMROUNDEDRECTD44*
21,1,0.50000,0.39600,0,0,0.0*
21,1,0.39600,0.50000,0,0,0.0*
1,1,0.10400,0.19800,-0.19800*
1,1,0.10400,-0.19800,-0.19800*
1,1,0.10400,-0.19800,0.19800*
1,1,0.10400,0.19800,0.19800*
%
%ADD44ROUNDEDRECTD44*%
D20*
X1823542Y1325000D02*
D03*
Y1275000D02*
D03*
Y1225000D02*
D03*
Y1175000D02*
D03*
Y1125000D02*
D03*
Y1075000D02*
D03*
Y1025000D02*
D03*
Y1375000D02*
D03*
X4673542Y1325000D02*
D03*
Y1275000D02*
D03*
Y1225000D02*
D03*
Y1175000D02*
D03*
Y1125000D02*
D03*
Y1075000D02*
D03*
Y1025000D02*
D03*
Y1375000D02*
D03*
X7523542Y1325000D02*
D03*
Y1275000D02*
D03*
Y1225000D02*
D03*
Y1175000D02*
D03*
Y1125000D02*
D03*
Y1075000D02*
D03*
Y1025000D02*
D03*
Y1375000D02*
D03*
X1823542Y3225000D02*
D03*
Y3175000D02*
D03*
Y3125000D02*
D03*
Y3075000D02*
D03*
Y3025000D02*
D03*
Y2975000D02*
D03*
Y2925000D02*
D03*
Y3275000D02*
D03*
X4673542Y3225000D02*
D03*
Y3175000D02*
D03*
Y3125000D02*
D03*
Y3075000D02*
D03*
Y3025000D02*
D03*
Y2975000D02*
D03*
Y2925000D02*
D03*
Y3275000D02*
D03*
X7523542Y3225000D02*
D03*
Y3175000D02*
D03*
Y3125000D02*
D03*
Y3075000D02*
D03*
Y3025000D02*
D03*
Y2975000D02*
D03*
Y2925000D02*
D03*
Y3275000D02*
D03*
X1823542Y5125000D02*
D03*
Y5075000D02*
D03*
Y5025000D02*
D03*
Y4975000D02*
D03*
Y4925000D02*
D03*
Y4875000D02*
D03*
Y4825000D02*
D03*
Y5175000D02*
D03*
X4673542Y5125000D02*
D03*
Y5075000D02*
D03*
Y5025000D02*
D03*
Y4975000D02*
D03*
Y4925000D02*
D03*
Y4875000D02*
D03*
Y4825000D02*
D03*
Y5175000D02*
D03*
X7523542Y5125000D02*
D03*
Y5075000D02*
D03*
Y5025000D02*
D03*
Y4975000D02*
D03*
Y4925000D02*
D03*
Y4875000D02*
D03*
Y4825000D02*
D03*
Y5175000D02*
D03*
X1823542Y7025000D02*
D03*
Y6975000D02*
D03*
Y6925000D02*
D03*
Y6875000D02*
D03*
Y6825000D02*
D03*
Y6775000D02*
D03*
Y6725000D02*
D03*
Y7075000D02*
D03*
X4673542Y7025000D02*
D03*
Y6975000D02*
D03*
Y6925000D02*
D03*
Y6875000D02*
D03*
Y6825000D02*
D03*
Y6775000D02*
D03*
Y6725000D02*
D03*
Y7075000D02*
D03*
X7523542Y7025000D02*
D03*
Y6975000D02*
D03*
Y6925000D02*
D03*
Y6875000D02*
D03*
Y6825000D02*
D03*
Y6775000D02*
D03*
Y6725000D02*
D03*
Y7075000D02*
D03*
X1823542Y8925000D02*
D03*
Y8875000D02*
D03*
Y8825000D02*
D03*
Y8775000D02*
D03*
Y8725000D02*
D03*
Y8675000D02*
D03*
Y8625000D02*
D03*
Y8975000D02*
D03*
X4673542Y8925000D02*
D03*
Y8875000D02*
D03*
Y8825000D02*
D03*
Y8775000D02*
D03*
Y8725000D02*
D03*
Y8675000D02*
D03*
Y8625000D02*
D03*
Y8975000D02*
D03*
X7523542Y8925000D02*
D03*
Y8875000D02*
D03*
Y8825000D02*
D03*
Y8775000D02*
D03*
Y8725000D02*
D03*
Y8675000D02*
D03*
Y8625000D02*
D03*
Y8975000D02*
D03*
D21*
X1823542Y960000D02*
D03*
Y880000D02*
D03*
Y1520000D02*
D03*
Y1440000D02*
D03*
X4673542Y960000D02*
D03*
Y880000D02*
D03*
Y1520000D02*
D03*
Y1440000D02*
D03*
X7523542Y960000D02*
D03*
Y880000D02*
D03*
Y1520000D02*
D03*
Y1440000D02*
D03*
X1823542Y2860000D02*
D03*
Y2780000D02*
D03*
Y3420000D02*
D03*
Y3340000D02*
D03*
X4673542Y2860000D02*
D03*
Y2780000D02*
D03*
Y3420000D02*
D03*
Y3340000D02*
D03*
X7523542Y2860000D02*
D03*
Y2780000D02*
D03*
Y3420000D02*
D03*
Y3340000D02*
D03*
X1823542Y4760000D02*
D03*
Y4680000D02*
D03*
Y5320000D02*
D03*
Y5240000D02*
D03*
X4673542Y4760000D02*
D03*
Y4680000D02*
D03*
Y5320000D02*
D03*
Y5240000D02*
D03*
X7523542Y4760000D02*
D03*
Y4680000D02*
D03*
Y5320000D02*
D03*
Y5240000D02*
D03*
X1823542Y6660000D02*
D03*
Y6580000D02*
D03*
Y7220000D02*
D03*
Y7140000D02*
D03*
X4673542Y6660000D02*
D03*
Y6580000D02*
D03*
Y7220000D02*
D03*
Y7140000D02*
D03*
X7523542Y6660000D02*
D03*
Y6580000D02*
D03*
Y7220000D02*
D03*
Y7140000D02*
D03*
X1823542Y8560000D02*
D03*
Y8480000D02*
D03*
Y9120000D02*
D03*
Y9040000D02*
D03*
X4673542Y8560000D02*
D03*
Y8480000D02*
D03*
Y9120000D02*
D03*
Y9040000D02*
D03*
X7523542Y8560000D02*
D03*
Y8480000D02*
D03*
Y9120000D02*
D03*
Y9040000D02*
D03*
D33*
X2025500Y1174700D02*
D03*
X4875500D02*
D03*
X7725500D02*
D03*
X2025500Y3074700D02*
D03*
X4875500D02*
D03*
X7725500D02*
D03*
X2025500Y4974700D02*
D03*
X4875500D02*
D03*
X7725500D02*
D03*
X2025500Y6874700D02*
D03*
X4875500D02*
D03*
X7725500D02*
D03*
X2025500Y8774700D02*
D03*
X4875500D02*
D03*
X7725500D02*
D03*
D34*
X3100500Y1174700D02*
D03*
X5950500D02*
D03*
X8800500D02*
D03*
X3100500Y3074700D02*
D03*
X5950500D02*
D03*
X8800500D02*
D03*
X3100500Y4974700D02*
D03*
X5950500D02*
D03*
X8800500D02*
D03*
X3100500Y6874700D02*
D03*
X5950500D02*
D03*
X8800500D02*
D03*
X3100500Y8774700D02*
D03*
X5950500D02*
D03*
X8800500D02*
D03*
D35*
X2313000Y474700D02*
D03*
X2813000D02*
D03*
X2563000Y1924700D02*
D03*
X2313000D02*
D03*
X2813000D02*
D03*
X5163000Y474700D02*
D03*
X5663000D02*
D03*
X5413000Y1924700D02*
D03*
X5163000D02*
D03*
X5663000D02*
D03*
X8013000Y474700D02*
D03*
X8513000D02*
D03*
X8263000Y1924700D02*
D03*
X8013000D02*
D03*
X8513000D02*
D03*
X2313000Y2374700D02*
D03*
X2813000D02*
D03*
X2563000Y3824700D02*
D03*
X2313000D02*
D03*
X2813000D02*
D03*
X5163000Y2374700D02*
D03*
X5663000D02*
D03*
X5413000Y3824700D02*
D03*
X5163000D02*
D03*
X5663000D02*
D03*
X8013000Y2374700D02*
D03*
X8513000D02*
D03*
X8263000Y3824700D02*
D03*
X8013000D02*
D03*
X8513000D02*
D03*
X2313000Y4274700D02*
D03*
X2813000D02*
D03*
X2563000Y5724700D02*
D03*
X2313000D02*
D03*
X2813000D02*
D03*
X5163000Y4274700D02*
D03*
X5663000D02*
D03*
X5413000Y5724700D02*
D03*
X5163000D02*
D03*
X5663000D02*
D03*
X8013000Y4274700D02*
D03*
X8513000D02*
D03*
X8263000Y5724700D02*
D03*
X8013000D02*
D03*
X8513000D02*
D03*
X2313000Y6174700D02*
D03*
X2813000D02*
D03*
X2563000Y7624700D02*
D03*
X2313000D02*
D03*
X2813000D02*
D03*
X5163000Y6174700D02*
D03*
X5663000D02*
D03*
X5413000Y7624700D02*
D03*
X5163000D02*
D03*
X5663000D02*
D03*
X8013000Y6174700D02*
D03*
X8513000D02*
D03*
X8263000Y7624700D02*
D03*
X8013000D02*
D03*
X8513000D02*
D03*
X2313000Y8074700D02*
D03*
X2813000D02*
D03*
X2563000Y9524700D02*
D03*
X2313000D02*
D03*
X2813000D02*
D03*
X5163000Y8074700D02*
D03*
X5663000D02*
D03*
X5413000Y9524700D02*
D03*
X5163000D02*
D03*
X5663000D02*
D03*
X8013000Y8074700D02*
D03*
X8513000D02*
D03*
X8263000Y9524700D02*
D03*
X8013000D02*
D03*
X8513000D02*
D03*
D36*
X1328542Y1632000D02*
D03*
Y768000D02*
D03*
X4178542Y1632000D02*
D03*
Y768000D02*
D03*
X7028542Y1632000D02*
D03*
Y768000D02*
D03*
X1328542Y3532000D02*
D03*
Y2668000D02*
D03*
X4178542Y3532000D02*
D03*
Y2668000D02*
D03*
X7028542Y3532000D02*
D03*
Y2668000D02*
D03*
X1328542Y5432000D02*
D03*
Y4568000D02*
D03*
X4178542Y5432000D02*
D03*
Y4568000D02*
D03*
X7028542Y5432000D02*
D03*
Y4568000D02*
D03*
X1328542Y7332000D02*
D03*
Y6468000D02*
D03*
X4178542Y7332000D02*
D03*
Y6468000D02*
D03*
X7028542Y7332000D02*
D03*
Y6468000D02*
D03*
X1328542Y9232000D02*
D03*
Y8368000D02*
D03*
X4178542Y9232000D02*
D03*
Y8368000D02*
D03*
X7028542Y9232000D02*
D03*
Y8368000D02*
D03*
D37*
X1766542Y1632000D02*
D03*
Y768000D02*
D03*
X4616542Y1632000D02*
D03*
Y768000D02*
D03*
X7466542Y1632000D02*
D03*
Y768000D02*
D03*
X1766542Y3532000D02*
D03*
Y2668000D02*
D03*
X4616542Y3532000D02*
D03*
Y2668000D02*
D03*
X7466542Y3532000D02*
D03*
Y2668000D02*
D03*
X1766542Y5432000D02*
D03*
Y4568000D02*
D03*
X4616542Y5432000D02*
D03*
Y4568000D02*
D03*
X7466542Y5432000D02*
D03*
Y4568000D02*
D03*
X1766542Y7332000D02*
D03*
Y6468000D02*
D03*
X4616542Y7332000D02*
D03*
Y6468000D02*
D03*
X7466542Y7332000D02*
D03*
Y6468000D02*
D03*
X1766542Y9232000D02*
D03*
Y8368000D02*
D03*
X4616542Y9232000D02*
D03*
Y8368000D02*
D03*
X7466542Y9232000D02*
D03*
Y8368000D02*
D03*
D38*
X3026041Y763506D02*
D03*
X2870500Y1263028D02*
D03*
X2333953Y763506D02*
D03*
X5876041D02*
D03*
X5720500Y1263028D02*
D03*
X5183953Y763506D02*
D03*
X8726041D02*
D03*
X8570500Y1263028D02*
D03*
X8033953Y763506D02*
D03*
X3026041Y2663506D02*
D03*
X2870500Y3163028D02*
D03*
X2333953Y2663506D02*
D03*
X5876041D02*
D03*
X5720500Y3163028D02*
D03*
X5183953Y2663506D02*
D03*
X8726041D02*
D03*
X8570500Y3163028D02*
D03*
X8033953Y2663506D02*
D03*
X3026041Y4563506D02*
D03*
X2870500Y5063028D02*
D03*
X2333953Y4563506D02*
D03*
X5876041D02*
D03*
X5720500Y5063028D02*
D03*
X5183953Y4563506D02*
D03*
X8726041D02*
D03*
X8570500Y5063028D02*
D03*
X8033953Y4563506D02*
D03*
X3026041Y6463507D02*
D03*
X2870500Y6963028D02*
D03*
X2333953Y6463507D02*
D03*
X5876041D02*
D03*
X5720500Y6963028D02*
D03*
X5183953Y6463507D02*
D03*
X8726041D02*
D03*
X8570500Y6963028D02*
D03*
X8033953Y6463507D02*
D03*
X3026041Y8363507D02*
D03*
X2870500Y8863028D02*
D03*
X2333953Y8363507D02*
D03*
X5876041D02*
D03*
X5720500Y8863028D02*
D03*
X5183953Y8363507D02*
D03*
X8726041D02*
D03*
X8570500Y8863028D02*
D03*
X8033953Y8363507D02*
D03*
D39*
X2560500Y1438000D02*
D03*
X2610500D02*
D03*
X2660500D02*
D03*
X2710500D02*
D03*
X2760500D02*
D03*
X2560500Y1013000D02*
D03*
X2610500D02*
D03*
X2660500D02*
D03*
X2710500D02*
D03*
X2760500D02*
D03*
X5410500Y1438000D02*
D03*
X5460500D02*
D03*
X5510500D02*
D03*
X5560500D02*
D03*
X5610500D02*
D03*
X5410500Y1013000D02*
D03*
X5460500D02*
D03*
X5510500D02*
D03*
X5560500D02*
D03*
X5610500D02*
D03*
X8260500Y1438000D02*
D03*
X8310500D02*
D03*
X8360500D02*
D03*
X8410500D02*
D03*
X8460500D02*
D03*
X8260500Y1013000D02*
D03*
X8310500D02*
D03*
X8360500D02*
D03*
X8410500D02*
D03*
X8460500D02*
D03*
X2560500Y3338000D02*
D03*
X2610500D02*
D03*
X2660500D02*
D03*
X2710500D02*
D03*
X2760500D02*
D03*
X2560500Y2913000D02*
D03*
X2610500D02*
D03*
X2660500D02*
D03*
X2710500D02*
D03*
X2760500D02*
D03*
X5410500Y3338000D02*
D03*
X5460500D02*
D03*
X5510500D02*
D03*
X5560500D02*
D03*
X5610500D02*
D03*
X5410500Y2913000D02*
D03*
X5460500D02*
D03*
X5510500D02*
D03*
X5560500D02*
D03*
X5610500D02*
D03*
X8260500Y3338000D02*
D03*
X8310500D02*
D03*
X8360500D02*
D03*
X8410500D02*
D03*
X8460500D02*
D03*
X8260500Y2913000D02*
D03*
X8310500D02*
D03*
X8360500D02*
D03*
X8410500D02*
D03*
X8460500D02*
D03*
X2560500Y5238000D02*
D03*
X2610500D02*
D03*
X2660500D02*
D03*
X2710500D02*
D03*
X2760500D02*
D03*
X2560500Y4813000D02*
D03*
X2610500D02*
D03*
X2660500D02*
D03*
X2710500D02*
D03*
X2760500D02*
D03*
X5410500Y5238000D02*
D03*
X5460500D02*
D03*
X5510500D02*
D03*
X5560500D02*
D03*
X5610500D02*
D03*
X5410500Y4813000D02*
D03*
X5460500D02*
D03*
X5510500D02*
D03*
X5560500D02*
D03*
X5610500D02*
D03*
X8260500Y5238000D02*
D03*
X8310500D02*
D03*
X8360500D02*
D03*
X8410500D02*
D03*
X8460500D02*
D03*
X8260500Y4813000D02*
D03*
X8310500D02*
D03*
X8360500D02*
D03*
X8410500D02*
D03*
X8460500D02*
D03*
X2560500Y7138000D02*
D03*
X2610500D02*
D03*
X2660500D02*
D03*
X2710500D02*
D03*
X2760500D02*
D03*
X2560500Y6713000D02*
D03*
X2610500D02*
D03*
X2660500D02*
D03*
X2710500D02*
D03*
X2760500D02*
D03*
X5410500Y7138000D02*
D03*
X5460500D02*
D03*
X5510500D02*
D03*
X5560500D02*
D03*
X5610500D02*
D03*
X5410500Y6713000D02*
D03*
X5460500D02*
D03*
X5510500D02*
D03*
X5560500D02*
D03*
X5610500D02*
D03*
X8260500Y7138000D02*
D03*
X8310500D02*
D03*
X8360500D02*
D03*
X8410500D02*
D03*
X8460500D02*
D03*
X8260500Y6713000D02*
D03*
X8310500D02*
D03*
X8360500D02*
D03*
X8410500D02*
D03*
X8460500D02*
D03*
X2560500Y9038000D02*
D03*
X2610500D02*
D03*
X2660500D02*
D03*
X2710500D02*
D03*
X2760500D02*
D03*
X2560500Y8613000D02*
D03*
X2610500D02*
D03*
X2660500D02*
D03*
X2710500D02*
D03*
X2760500D02*
D03*
X5410500Y9038000D02*
D03*
X5460500D02*
D03*
X5510500D02*
D03*
X5560500D02*
D03*
X5610500D02*
D03*
X5410500Y8613000D02*
D03*
X5460500D02*
D03*
X5510500D02*
D03*
X5560500D02*
D03*
X5610500D02*
D03*
X8260500Y9038000D02*
D03*
X8310500D02*
D03*
X8360500D02*
D03*
X8410500D02*
D03*
X8460500D02*
D03*
X8260500Y8613000D02*
D03*
X8310500D02*
D03*
X8360500D02*
D03*
X8410500D02*
D03*
X8460500D02*
D03*
D40*
X2039194Y1454514D02*
D03*
X2173194D02*
D03*
X4889194D02*
D03*
X5023194D02*
D03*
X7739194D02*
D03*
X7873194D02*
D03*
X2039194Y3354514D02*
D03*
X2173194D02*
D03*
X4889194D02*
D03*
X5023194D02*
D03*
X7739194D02*
D03*
X7873194D02*
D03*
X2039194Y5254514D02*
D03*
X2173194D02*
D03*
X4889194D02*
D03*
X5023194D02*
D03*
X7739194D02*
D03*
X7873194D02*
D03*
X2039194Y7154514D02*
D03*
X2173194D02*
D03*
X4889194D02*
D03*
X5023194D02*
D03*
X7739194D02*
D03*
X7873194D02*
D03*
X2039194Y9054514D02*
D03*
X2173194D02*
D03*
X4889194D02*
D03*
X5023194D02*
D03*
X7739194D02*
D03*
X7873194D02*
D03*
D41*
X2180800Y1605000D02*
D03*
X2030800D02*
D03*
X2049405Y1783824D02*
D03*
X2199405D02*
D03*
X2568960D02*
D03*
X2718960D02*
D03*
X2760500Y646380D02*
D03*
X2610500D02*
D03*
X3038368Y1744754D02*
D03*
X2888367D02*
D03*
X2173044Y703663D02*
D03*
X2023044D02*
D03*
X2183953Y897792D02*
D03*
X2333953D02*
D03*
X5030800Y1605000D02*
D03*
X4880800D02*
D03*
X4899405Y1783824D02*
D03*
X5049405D02*
D03*
X5418959D02*
D03*
X5568960D02*
D03*
X5610500Y646380D02*
D03*
X5460500D02*
D03*
X5888367Y1744754D02*
D03*
X5738367D02*
D03*
X5023044Y703663D02*
D03*
X4873044D02*
D03*
X5033953Y897792D02*
D03*
X5183953D02*
D03*
X7880800Y1605000D02*
D03*
X7730800D02*
D03*
X7749405Y1783824D02*
D03*
X7899405D02*
D03*
X8268959D02*
D03*
X8418960D02*
D03*
X8460500Y646380D02*
D03*
X8310500D02*
D03*
X8738367Y1744754D02*
D03*
X8588367D02*
D03*
X7873044Y703663D02*
D03*
X7723043D02*
D03*
X7883953Y897792D02*
D03*
X8033953D02*
D03*
X2180800Y3505000D02*
D03*
X2030800D02*
D03*
X2049405Y3683824D02*
D03*
X2199405D02*
D03*
X2568960D02*
D03*
X2718960D02*
D03*
X2760500Y2546380D02*
D03*
X2610500D02*
D03*
X3038368Y3644754D02*
D03*
X2888367D02*
D03*
X2173044Y2603663D02*
D03*
X2023044D02*
D03*
X2183953Y2797792D02*
D03*
X2333953D02*
D03*
X5030800Y3505000D02*
D03*
X4880800D02*
D03*
X4899405Y3683824D02*
D03*
X5049405D02*
D03*
X5418959D02*
D03*
X5568960D02*
D03*
X5610500Y2546380D02*
D03*
X5460500D02*
D03*
X5888367Y3644754D02*
D03*
X5738367D02*
D03*
X5023044Y2603663D02*
D03*
X4873044D02*
D03*
X5033953Y2797792D02*
D03*
X5183953D02*
D03*
X7880800Y3505000D02*
D03*
X7730800D02*
D03*
X7749405Y3683824D02*
D03*
X7899405D02*
D03*
X8268959D02*
D03*
X8418960D02*
D03*
X8460500Y2546380D02*
D03*
X8310500D02*
D03*
X8738367Y3644754D02*
D03*
X8588367D02*
D03*
X7873044Y2603663D02*
D03*
X7723043D02*
D03*
X7883953Y2797792D02*
D03*
X8033953D02*
D03*
X2180800Y5405000D02*
D03*
X2030800D02*
D03*
X2049405Y5583824D02*
D03*
X2199405D02*
D03*
X2568960D02*
D03*
X2718960D02*
D03*
X2760500Y4446380D02*
D03*
X2610500D02*
D03*
X3038368Y5544754D02*
D03*
X2888367D02*
D03*
X2173044Y4503663D02*
D03*
X2023044D02*
D03*
X2183953Y4697792D02*
D03*
X2333953D02*
D03*
X5030800Y5405000D02*
D03*
X4880800D02*
D03*
X4899405Y5583824D02*
D03*
X5049405D02*
D03*
X5418959D02*
D03*
X5568960D02*
D03*
X5610500Y4446380D02*
D03*
X5460500D02*
D03*
X5888367Y5544754D02*
D03*
X5738367D02*
D03*
X5023044Y4503663D02*
D03*
X4873044D02*
D03*
X5033953Y4697792D02*
D03*
X5183953D02*
D03*
X7880800Y5405000D02*
D03*
X7730800D02*
D03*
X7749405Y5583824D02*
D03*
X7899405D02*
D03*
X8268959D02*
D03*
X8418960D02*
D03*
X8460500Y4446380D02*
D03*
X8310500D02*
D03*
X8738367Y5544754D02*
D03*
X8588367D02*
D03*
X7873044Y4503663D02*
D03*
X7723043D02*
D03*
X7883953Y4697792D02*
D03*
X8033953D02*
D03*
X2180800Y7305000D02*
D03*
X2030800D02*
D03*
X2049405Y7483825D02*
D03*
X2199405D02*
D03*
X2568960D02*
D03*
X2718960D02*
D03*
X2760500Y6346380D02*
D03*
X2610500D02*
D03*
X3038368Y7444754D02*
D03*
X2888367D02*
D03*
X2173044Y6403663D02*
D03*
X2023044D02*
D03*
X2183953Y6597792D02*
D03*
X2333953D02*
D03*
X5030800Y7305000D02*
D03*
X4880800D02*
D03*
X4899405Y7483825D02*
D03*
X5049405D02*
D03*
X5418959D02*
D03*
X5568960D02*
D03*
X5610500Y6346380D02*
D03*
X5460500D02*
D03*
X5888367Y7444754D02*
D03*
X5738367D02*
D03*
X5023044Y6403663D02*
D03*
X4873044D02*
D03*
X5033953Y6597792D02*
D03*
X5183953D02*
D03*
X7880800Y7305000D02*
D03*
X7730800D02*
D03*
X7749405Y7483825D02*
D03*
X7899405D02*
D03*
X8268959D02*
D03*
X8418960D02*
D03*
X8460500Y6346380D02*
D03*
X8310500D02*
D03*
X8738367Y7444754D02*
D03*
X8588367D02*
D03*
X7873044Y6403663D02*
D03*
X7723043D02*
D03*
X7883953Y6597792D02*
D03*
X8033953D02*
D03*
X2180800Y9205000D02*
D03*
X2030800D02*
D03*
X2049405Y9383825D02*
D03*
X2199405D02*
D03*
X2568960D02*
D03*
X2718960D02*
D03*
X2760500Y8246380D02*
D03*
X2610500D02*
D03*
X3038368Y9344754D02*
D03*
X2888367D02*
D03*
X2173044Y8303663D02*
D03*
X2023044D02*
D03*
X2183953Y8497792D02*
D03*
X2333953D02*
D03*
X5030800Y9205000D02*
D03*
X4880800D02*
D03*
X4899405Y9383825D02*
D03*
X5049405D02*
D03*
X5418959D02*
D03*
X5568960D02*
D03*
X5610500Y8246380D02*
D03*
X5460500D02*
D03*
X5888367Y9344754D02*
D03*
X5738367D02*
D03*
X5023044Y8303663D02*
D03*
X4873044D02*
D03*
X5033953Y8497792D02*
D03*
X5183953D02*
D03*
X7880800Y9205000D02*
D03*
X7730800D02*
D03*
X7749405Y9383825D02*
D03*
X7899405D02*
D03*
X8268959D02*
D03*
X8418960D02*
D03*
X8460500Y8246380D02*
D03*
X8310500D02*
D03*
X8738367Y9344754D02*
D03*
X8588367D02*
D03*
X7873044Y8303663D02*
D03*
X7723043D02*
D03*
X7883953Y8497792D02*
D03*
X8033953D02*
D03*
D42*
X2893368Y1593000D02*
D03*
Y1438000D02*
D03*
X2418400Y1659100D02*
D03*
Y1504100D02*
D03*
X5743367Y1593000D02*
D03*
Y1438000D02*
D03*
X5268400Y1659100D02*
D03*
Y1504100D02*
D03*
X8593367Y1593000D02*
D03*
Y1438000D02*
D03*
X8118400Y1659100D02*
D03*
Y1504100D02*
D03*
X2893368Y3493000D02*
D03*
Y3338000D02*
D03*
X2418400Y3559100D02*
D03*
Y3404100D02*
D03*
X5743367Y3493000D02*
D03*
Y3338000D02*
D03*
X5268400Y3559100D02*
D03*
Y3404100D02*
D03*
X8593367Y3493000D02*
D03*
Y3338000D02*
D03*
X8118400Y3559100D02*
D03*
Y3404100D02*
D03*
X2893368Y5393000D02*
D03*
Y5238000D02*
D03*
X2418400Y5459100D02*
D03*
Y5304100D02*
D03*
X5743367Y5393000D02*
D03*
Y5238000D02*
D03*
X5268400Y5459100D02*
D03*
Y5304100D02*
D03*
X8593367Y5393000D02*
D03*
Y5238000D02*
D03*
X8118400Y5459100D02*
D03*
Y5304100D02*
D03*
X2893368Y7293000D02*
D03*
Y7138000D02*
D03*
X2418400Y7359100D02*
D03*
Y7204100D02*
D03*
X5743367Y7293000D02*
D03*
Y7138000D02*
D03*
X5268400Y7359100D02*
D03*
Y7204100D02*
D03*
X8593367Y7293000D02*
D03*
Y7138000D02*
D03*
X8118400Y7359100D02*
D03*
Y7204100D02*
D03*
X2893368Y9193000D02*
D03*
Y9038000D02*
D03*
X2418400Y9259100D02*
D03*
Y9104100D02*
D03*
X5743367Y9193000D02*
D03*
Y9038000D02*
D03*
X5268400Y9259100D02*
D03*
Y9104100D02*
D03*
X8593367Y9193000D02*
D03*
Y9038000D02*
D03*
X8118400Y9259100D02*
D03*
Y9104100D02*
D03*
D43*
X3120520Y1607695D02*
D03*
Y1442695D02*
D03*
X5970520Y1607695D02*
D03*
Y1442695D02*
D03*
X8820520Y1607695D02*
D03*
Y1442695D02*
D03*
X3120520Y3507695D02*
D03*
Y3342695D02*
D03*
X5970520Y3507695D02*
D03*
Y3342695D02*
D03*
X8820520Y3507695D02*
D03*
Y3342695D02*
D03*
X3120520Y5407695D02*
D03*
Y5242695D02*
D03*
X5970520Y5407695D02*
D03*
Y5242695D02*
D03*
X8820520Y5407695D02*
D03*
Y5242695D02*
D03*
X3120520Y7307695D02*
D03*
Y7142695D02*
D03*
X5970520Y7307695D02*
D03*
Y7142695D02*
D03*
X8820520Y7307695D02*
D03*
Y7142695D02*
D03*
X3120520Y9207695D02*
D03*
Y9042695D02*
D03*
X5970520Y9207695D02*
D03*
Y9042695D02*
D03*
X8820520Y9207695D02*
D03*
Y9042695D02*
D03*
D44*
X2450420Y1323108D02*
D03*
Y1233108D02*
D03*
X2417500Y1027516D02*
D03*
Y1117516D02*
D03*
X2282075Y1388700D02*
D03*
Y1478700D02*
D03*
X5300420Y1323108D02*
D03*
Y1233108D02*
D03*
X5267500Y1027516D02*
D03*
Y1117516D02*
D03*
X5132075Y1388700D02*
D03*
Y1478700D02*
D03*
X8150420Y1323108D02*
D03*
Y1233108D02*
D03*
X8117500Y1027516D02*
D03*
Y1117516D02*
D03*
X7982075Y1388700D02*
D03*
Y1478700D02*
D03*
X2450420Y3223108D02*
D03*
Y3133108D02*
D03*
X2417500Y2927516D02*
D03*
Y3017516D02*
D03*
X2282075Y3288700D02*
D03*
Y3378700D02*
D03*
X5300420Y3223108D02*
D03*
Y3133108D02*
D03*
X5267500Y2927516D02*
D03*
Y3017516D02*
D03*
X5132075Y3288700D02*
D03*
Y3378700D02*
D03*
X8150420Y3223108D02*
D03*
Y3133108D02*
D03*
X8117500Y2927516D02*
D03*
Y3017516D02*
D03*
X7982075Y3288700D02*
D03*
Y3378700D02*
D03*
X2450420Y5123108D02*
D03*
Y5033108D02*
D03*
X2417500Y4827516D02*
D03*
Y4917516D02*
D03*
X2282075Y5188700D02*
D03*
Y5278700D02*
D03*
X5300420Y5123108D02*
D03*
Y5033108D02*
D03*
X5267500Y4827516D02*
D03*
Y4917516D02*
D03*
X5132075Y5188700D02*
D03*
Y5278700D02*
D03*
X8150420Y5123108D02*
D03*
Y5033108D02*
D03*
X8117500Y4827516D02*
D03*
Y4917516D02*
D03*
X7982075Y5188700D02*
D03*
Y5278700D02*
D03*
X2450420Y7023108D02*
D03*
Y6933108D02*
D03*
X2417500Y6727516D02*
D03*
Y6817516D02*
D03*
X2282075Y7088700D02*
D03*
Y7178700D02*
D03*
X5300420Y7023108D02*
D03*
Y6933108D02*
D03*
X5267500Y6727516D02*
D03*
Y6817516D02*
D03*
X5132075Y7088700D02*
D03*
Y7178700D02*
D03*
X8150420Y7023108D02*
D03*
Y6933108D02*
D03*
X8117500Y6727516D02*
D03*
Y6817516D02*
D03*
X7982075Y7088700D02*
D03*
Y7178700D02*
D03*
X2450420Y8923108D02*
D03*
Y8833108D02*
D03*
X2417500Y8627516D02*
D03*
Y8717516D02*
D03*
X2282075Y8988700D02*
D03*
Y9078700D02*
D03*
X5300420Y8923108D02*
D03*
Y8833108D02*
D03*
X5267500Y8627516D02*
D03*
Y8717516D02*
D03*
X5132075Y8988700D02*
D03*
Y9078700D02*
D03*
X8150420Y8923108D02*
D03*
Y8833108D02*
D03*
X8117500Y8627516D02*
D03*
Y8717516D02*
D03*
X7982075Y8988700D02*
D03*
Y9078700D02*
D03*
%TF.MD5,9193f468569bf5064a49342e347448c7*%
M02*
