%TF.GenerationSoftware,Altium Limited,Altium Designer,25.4.2 (15)*%
G04 Layer_Color=16711935*
%FSLAX45Y45*%
%MOMM*%
%TF.SameCoordinates,6791CEA5-0592-433A-98BD-FF1B9D05833A*%
%TF.FilePolarity,Positive*%
%TF.FileFunction,Other,Board*%
%TF.Part,CustomerPanel*%
G01*
G75*
%TA.AperFunction,NonConductor*%
%ADD29C,0.10160*%
%ADD45C,0.50000*%
D29*
X0Y0D02*
Y10000000D01*
X10000000D01*
Y0D02*
Y10000000D01*
X0Y0D02*
X10000000D01*
D45*
X2967501Y2017501D02*
X3265000Y1720002D01*
X2965001Y379999D02*
X3265000Y679999D01*
X5815001Y379999D02*
X6115000Y679999D01*
X5817501Y2017501D02*
X6115000Y1720002D01*
X8665001Y379999D02*
X8965000Y679999D01*
X8667501Y2017501D02*
X8965000Y1720002D01*
X2967501Y3917501D02*
X3265000Y3620002D01*
X2965001Y2279999D02*
X3265000Y2579998D01*
X5815001Y2279999D02*
X6115000Y2579998D01*
X5817501Y3917501D02*
X6115000Y3620002D01*
X8665001Y2279999D02*
X8965000Y2579998D01*
X8667501Y3917501D02*
X8965000Y3620002D01*
X2967501Y5817501D02*
X3265000Y5520002D01*
X2965001Y4179999D02*
X3265000Y4479998D01*
X5815001Y4179999D02*
X6115000Y4479998D01*
X5817501Y5817501D02*
X6115000Y5520002D01*
X8665001Y4179999D02*
X8965000Y4479998D01*
X8667501Y5817501D02*
X8965000Y5520002D01*
X2967501Y7717501D02*
X3265000Y7420002D01*
X2965001Y6079999D02*
X3265000Y6379998D01*
X5815001Y6079999D02*
X6115000Y6379998D01*
X5817501Y7717501D02*
X6115000Y7420002D01*
X8665001Y6079999D02*
X8965000Y6379998D01*
X8667501Y7717501D02*
X8965000Y7420002D01*
X8667501Y9617501D02*
X8965000Y9320002D01*
X8665001Y7979999D02*
X8965000Y8279998D01*
X5817501Y9617501D02*
X6115000Y9320002D01*
X5815001Y7979999D02*
X6115000Y8279998D01*
X2965001Y7979999D02*
X3265000Y8279998D01*
X2967501Y9617501D02*
X3265000Y9320002D01*
X1175000Y8285000D02*
X1479999Y7979999D01*
X1175000Y9315000D02*
X1477499Y9617500D01*
X1175000Y8285000D02*
Y9315000D01*
Y685000D02*
Y1715000D01*
X1477499Y2017500D01*
X1175000Y685000D02*
X1479999Y379999D01*
X1175000Y2585000D02*
Y3615000D01*
X1477499Y3917500D01*
X1175000Y2585000D02*
X1479999Y2279999D01*
X1175000Y4485000D02*
Y5515000D01*
X1477499Y5817500D01*
X1175000Y4485000D02*
X1479999Y4179999D01*
X1175000Y6385000D02*
Y7415000D01*
X1477499Y7717500D01*
X1175000Y6385000D02*
X1479999Y6079999D01*
X4025000Y6385000D02*
X4329999Y6079999D01*
X4025000Y7415000D02*
X4327499Y7717500D01*
X4025000Y6385000D02*
Y7415000D01*
Y4485000D02*
X4329999Y4179999D01*
X4025000Y5515000D02*
X4327499Y5817500D01*
X4025000Y4485000D02*
Y5515000D01*
Y2585000D02*
X4329999Y2279999D01*
X4025000Y3615000D02*
X4327499Y3917500D01*
X4025000Y2585000D02*
Y3615000D01*
Y685000D02*
X4329999Y379999D01*
X4025000Y1715000D02*
X4327499Y2017500D01*
X4025000Y685000D02*
Y1715000D01*
Y8285000D02*
Y9315000D01*
X4327499Y9617500D01*
X4025000Y8285000D02*
X4329999Y7979999D01*
X6875000Y6385000D02*
X7179999Y6079999D01*
X6875000Y7415000D02*
X7177499Y7717500D01*
X6875000Y6385000D02*
Y7415000D01*
Y4485000D02*
X7179999Y4179999D01*
X6875000Y5515000D02*
X7177499Y5817500D01*
X6875000Y4485000D02*
Y5515000D01*
Y2585000D02*
X7179999Y2279999D01*
X6875000Y3615000D02*
X7177499Y3917500D01*
X6875000Y2585000D02*
Y3615000D01*
Y685000D02*
X7179999Y379999D01*
X6875000Y1715000D02*
X7177499Y2017500D01*
X6875000Y685000D02*
Y1715000D01*
Y8285000D02*
Y9315000D01*
X7177499Y9617500D01*
X6875000Y8285000D02*
X7179999Y7979999D01*
%TF.MD5,ff260e22aa3bf9a7c172be8e27f0d2f3*%
M02*
