%TF.GenerationSoftware,Altium Limited,Altium Designer,25.4.2 (15)*%
G04 Layer_Physical_Order=1*
G04 Layer_Color=592338*
%FSLAX45Y45*%
%MOMM*%
%TF.SameCoordinates,6791CEA5-0592-433A-98BD-FF1B9D05833A*%
%TF.FilePolarity,Positive*%
%TF.FileFunction,Copper,L1,Top,Signal*%
%TF.Part,CustomerPanel*%
G01*
G75*
%TA.AperFunction,Conductor*%
%ADD10C,0.10160*%
%TA.AperFunction,ComponentPad*%
%ADD11O,2.25000X3.75000*%
G04:AMPARAMS|DCode=12|XSize=2.25mm|YSize=3.75mm|CornerRadius=1.125mm|HoleSize=0mm|Usage=FLASHONLY|Rotation=180.000|XOffset=0mm|YOffset=0mm|HoleType=Round|Shape=RoundedRectangle|*
%AMROUNDEDRECTD12*
21,1,2.25000,1.50000,0,0,180.0*
21,1,0.00000,3.75000,0,0,180.0*
1,1,2.25000,0.00000,0.75000*
1,1,2.25000,0.00000,0.75000*
1,1,2.25000,0.00000,-0.75000*
1,1,2.25000,0.00000,-0.75000*
%
%ADD12ROUNDEDRECTD12*%
%ADD13O,1.70000X1.00000*%
%ADD14O,1.70000X0.90000*%
%ADD15O,2.00000X0.90000*%
G04:AMPARAMS|DCode=16|XSize=1.1mm|YSize=1.1mm|CornerRadius=0.55mm|HoleSize=0mm|Usage=FLASHONLY|Rotation=90.000|XOffset=0mm|YOffset=0mm|HoleType=Round|Shape=RoundedRectangle|*
%AMROUNDEDRECTD16*
21,1,1.10000,0.00000,0,0,90.0*
21,1,0.00000,1.10000,0,0,90.0*
1,1,1.10000,0.00000,0.00000*
1,1,1.10000,0.00000,0.00000*
1,1,1.10000,0.00000,0.00000*
1,1,1.10000,0.00000,0.00000*
%
%ADD16ROUNDEDRECTD16*%
%TA.AperFunction,ViaPad*%
%ADD17C,0.75000*%
G36*
X8928204Y9298467D02*
Y8301533D01*
X8643167Y8016496D01*
X8087464D01*
X8084382Y8026656D01*
X8091372Y8031327D01*
X8104669Y8051227D01*
X8109338Y8074700D01*
X8104669Y8098173D01*
X8091372Y8118073D01*
X8071473Y8131369D01*
X8048000Y8136038D01*
X7978000D01*
X7954527Y8131369D01*
X7934627Y8118073D01*
X7921330Y8098173D01*
X7916661Y8074700D01*
X7921330Y8051227D01*
X7934627Y8031327D01*
X7941618Y8026656D01*
X7938536Y8016496D01*
X7201832D01*
X6916495Y8301833D01*
Y9298168D01*
X7202032Y9583704D01*
X7939733D01*
X7942815Y9573544D01*
X7934627Y9568073D01*
X7921330Y9548173D01*
X7916661Y9524700D01*
X7921330Y9501227D01*
X7934627Y9481327D01*
X7954527Y9468031D01*
X7978000Y9463362D01*
X8048000D01*
X8071473Y9468031D01*
X8091372Y9481327D01*
X8104669Y9501227D01*
X8109338Y9524700D01*
X8104669Y9548173D01*
X8091372Y9568073D01*
X8083184Y9573544D01*
X8086266Y9583704D01*
X8439733D01*
X8442815Y9573544D01*
X8434627Y9568073D01*
X8421330Y9548173D01*
X8416661Y9524700D01*
X8421330Y9501227D01*
X8434627Y9481327D01*
X8454527Y9468031D01*
X8478000Y9463362D01*
X8548000D01*
X8571473Y9468031D01*
X8591372Y9481327D01*
X8604669Y9501227D01*
X8609338Y9524700D01*
X8604669Y9548173D01*
X8591372Y9568073D01*
X8583184Y9573544D01*
X8586266Y9583704D01*
X8642967D01*
X8928204Y9298467D01*
D02*
G37*
G36*
X6078204D02*
Y8301533D01*
X5793167Y8016496D01*
X5237464D01*
X5234382Y8026656D01*
X5241373Y8031327D01*
X5254669Y8051227D01*
X5259338Y8074700D01*
X5254669Y8098173D01*
X5241373Y8118073D01*
X5221473Y8131369D01*
X5198000Y8136038D01*
X5128000D01*
X5104527Y8131369D01*
X5084627Y8118073D01*
X5071330Y8098173D01*
X5066661Y8074700D01*
X5071330Y8051227D01*
X5084627Y8031327D01*
X5091618Y8026656D01*
X5088536Y8016496D01*
X4351833D01*
X4066496Y8301833D01*
Y9298168D01*
X4352032Y9583704D01*
X5089733D01*
X5092816Y9573544D01*
X5084627Y9568073D01*
X5071330Y9548173D01*
X5066661Y9524700D01*
X5071330Y9501227D01*
X5084627Y9481327D01*
X5104527Y9468031D01*
X5128000Y9463362D01*
X5198000D01*
X5221473Y9468031D01*
X5241373Y9481327D01*
X5254669Y9501227D01*
X5259338Y9524700D01*
X5254669Y9548173D01*
X5241373Y9568073D01*
X5233184Y9573544D01*
X5236266Y9583704D01*
X5589733D01*
X5592816Y9573544D01*
X5584627Y9568073D01*
X5571330Y9548173D01*
X5566661Y9524700D01*
X5571330Y9501227D01*
X5584627Y9481327D01*
X5604527Y9468031D01*
X5628000Y9463362D01*
X5698000D01*
X5721473Y9468031D01*
X5741373Y9481327D01*
X5754669Y9501227D01*
X5759338Y9524700D01*
X5754669Y9548173D01*
X5741373Y9568073D01*
X5733184Y9573544D01*
X5736266Y9583704D01*
X5792967D01*
X6078204Y9298467D01*
D02*
G37*
G36*
X3228204D02*
Y8301533D01*
X2943167Y8016496D01*
X2387464D01*
X2384382Y8026656D01*
X2391373Y8031327D01*
X2404669Y8051227D01*
X2409338Y8074700D01*
X2404669Y8098173D01*
X2391373Y8118073D01*
X2371473Y8131369D01*
X2348000Y8136038D01*
X2278000D01*
X2254527Y8131369D01*
X2234627Y8118073D01*
X2221331Y8098173D01*
X2216662Y8074700D01*
X2221331Y8051227D01*
X2234627Y8031327D01*
X2241618Y8026656D01*
X2238536Y8016496D01*
X1501833D01*
X1216496Y8301833D01*
Y9298168D01*
X1502033Y9583704D01*
X2239733D01*
X2242816Y9573544D01*
X2234627Y9568073D01*
X2221331Y9548173D01*
X2216662Y9524700D01*
X2221331Y9501227D01*
X2234627Y9481327D01*
X2254527Y9468031D01*
X2278000Y9463362D01*
X2348000D01*
X2371473Y9468031D01*
X2391373Y9481327D01*
X2404669Y9501227D01*
X2409338Y9524700D01*
X2404669Y9548173D01*
X2391373Y9568073D01*
X2383184Y9573544D01*
X2386266Y9583704D01*
X2739733D01*
X2742816Y9573544D01*
X2734627Y9568073D01*
X2721331Y9548173D01*
X2716662Y9524700D01*
X2721331Y9501227D01*
X2734627Y9481327D01*
X2754527Y9468031D01*
X2778000Y9463362D01*
X2848000D01*
X2871473Y9468031D01*
X2891373Y9481327D01*
X2904669Y9501227D01*
X2909338Y9524700D01*
X2904669Y9548173D01*
X2891373Y9568073D01*
X2883184Y9573544D01*
X2886267Y9583704D01*
X2942967D01*
X3228204Y9298467D01*
D02*
G37*
G36*
X8928204Y7398467D02*
Y6401533D01*
X8643167Y6116496D01*
X8087464D01*
X8084382Y6126656D01*
X8091372Y6131327D01*
X8104669Y6151227D01*
X8109338Y6174700D01*
X8104669Y6198173D01*
X8091372Y6218073D01*
X8071473Y6231369D01*
X8048000Y6236038D01*
X7978000D01*
X7954527Y6231369D01*
X7934627Y6218073D01*
X7921330Y6198173D01*
X7916661Y6174700D01*
X7921330Y6151227D01*
X7934627Y6131327D01*
X7941618Y6126656D01*
X7938536Y6116496D01*
X7201832D01*
X6916495Y6401833D01*
Y7398168D01*
X7202032Y7683704D01*
X7939733D01*
X7942815Y7673544D01*
X7934627Y7668073D01*
X7921330Y7648173D01*
X7916661Y7624700D01*
X7921330Y7601227D01*
X7934627Y7581327D01*
X7954527Y7568031D01*
X7978000Y7563362D01*
X8048000D01*
X8071473Y7568031D01*
X8091372Y7581327D01*
X8104669Y7601227D01*
X8109338Y7624700D01*
X8104669Y7648173D01*
X8091372Y7668073D01*
X8083184Y7673544D01*
X8086266Y7683704D01*
X8439733D01*
X8442815Y7673544D01*
X8434627Y7668073D01*
X8421330Y7648173D01*
X8416661Y7624700D01*
X8421330Y7601227D01*
X8434627Y7581327D01*
X8454527Y7568031D01*
X8478000Y7563362D01*
X8548000D01*
X8571473Y7568031D01*
X8591372Y7581327D01*
X8604669Y7601227D01*
X8609338Y7624700D01*
X8604669Y7648173D01*
X8591372Y7668073D01*
X8583184Y7673544D01*
X8586266Y7683704D01*
X8642967D01*
X8928204Y7398467D01*
D02*
G37*
G36*
X6078204D02*
Y6401533D01*
X5793167Y6116496D01*
X5237464D01*
X5234382Y6126656D01*
X5241373Y6131327D01*
X5254669Y6151227D01*
X5259338Y6174700D01*
X5254669Y6198173D01*
X5241373Y6218073D01*
X5221473Y6231369D01*
X5198000Y6236038D01*
X5128000D01*
X5104527Y6231369D01*
X5084627Y6218073D01*
X5071330Y6198173D01*
X5066661Y6174700D01*
X5071330Y6151227D01*
X5084627Y6131327D01*
X5091618Y6126656D01*
X5088536Y6116496D01*
X4351833D01*
X4066496Y6401833D01*
Y7398168D01*
X4352032Y7683704D01*
X5089733D01*
X5092816Y7673544D01*
X5084627Y7668073D01*
X5071330Y7648173D01*
X5066661Y7624700D01*
X5071330Y7601227D01*
X5084627Y7581327D01*
X5104527Y7568031D01*
X5128000Y7563362D01*
X5198000D01*
X5221473Y7568031D01*
X5241373Y7581327D01*
X5254669Y7601227D01*
X5259338Y7624700D01*
X5254669Y7648173D01*
X5241373Y7668073D01*
X5233184Y7673544D01*
X5236266Y7683704D01*
X5589733D01*
X5592816Y7673544D01*
X5584627Y7668073D01*
X5571330Y7648173D01*
X5566661Y7624700D01*
X5571330Y7601227D01*
X5584627Y7581327D01*
X5604527Y7568031D01*
X5628000Y7563362D01*
X5698000D01*
X5721473Y7568031D01*
X5741373Y7581327D01*
X5754669Y7601227D01*
X5759338Y7624700D01*
X5754669Y7648173D01*
X5741373Y7668073D01*
X5733184Y7673544D01*
X5736266Y7683704D01*
X5792967D01*
X6078204Y7398467D01*
D02*
G37*
G36*
X3228204D02*
Y6401533D01*
X2943167Y6116496D01*
X2387464D01*
X2384382Y6126656D01*
X2391373Y6131327D01*
X2404669Y6151227D01*
X2409338Y6174700D01*
X2404669Y6198173D01*
X2391373Y6218073D01*
X2371473Y6231369D01*
X2348000Y6236038D01*
X2278000D01*
X2254527Y6231369D01*
X2234627Y6218073D01*
X2221331Y6198173D01*
X2216662Y6174700D01*
X2221331Y6151227D01*
X2234627Y6131327D01*
X2241618Y6126656D01*
X2238536Y6116496D01*
X1501833D01*
X1216496Y6401833D01*
Y7398168D01*
X1502033Y7683704D01*
X2239733D01*
X2242816Y7673544D01*
X2234627Y7668073D01*
X2221331Y7648173D01*
X2216662Y7624700D01*
X2221331Y7601227D01*
X2234627Y7581327D01*
X2254527Y7568031D01*
X2278000Y7563362D01*
X2348000D01*
X2371473Y7568031D01*
X2391373Y7581327D01*
X2404669Y7601227D01*
X2409338Y7624700D01*
X2404669Y7648173D01*
X2391373Y7668073D01*
X2383184Y7673544D01*
X2386266Y7683704D01*
X2739733D01*
X2742816Y7673544D01*
X2734627Y7668073D01*
X2721331Y7648173D01*
X2716662Y7624700D01*
X2721331Y7601227D01*
X2734627Y7581327D01*
X2754527Y7568031D01*
X2778000Y7563362D01*
X2848000D01*
X2871473Y7568031D01*
X2891373Y7581327D01*
X2904669Y7601227D01*
X2909338Y7624700D01*
X2904669Y7648173D01*
X2891373Y7668073D01*
X2883184Y7673544D01*
X2886267Y7683704D01*
X2942967D01*
X3228204Y7398467D01*
D02*
G37*
G36*
X8928204Y5498467D02*
Y4501533D01*
X8643167Y4216496D01*
X8087464D01*
X8084382Y4226656D01*
X8091372Y4231327D01*
X8104669Y4251227D01*
X8109338Y4274700D01*
X8104669Y4298173D01*
X8091372Y4318073D01*
X8071473Y4331369D01*
X8048000Y4336038D01*
X7978000D01*
X7954527Y4331369D01*
X7934627Y4318073D01*
X7921330Y4298173D01*
X7916661Y4274700D01*
X7921330Y4251227D01*
X7934627Y4231327D01*
X7941618Y4226656D01*
X7938536Y4216496D01*
X7201832D01*
X6916495Y4501832D01*
Y5498168D01*
X7202032Y5783704D01*
X7939733D01*
X7942815Y5773544D01*
X7934627Y5768073D01*
X7921330Y5748173D01*
X7916661Y5724700D01*
X7921330Y5701227D01*
X7934627Y5681327D01*
X7954527Y5668031D01*
X7978000Y5663362D01*
X8048000D01*
X8071473Y5668031D01*
X8091372Y5681327D01*
X8104669Y5701227D01*
X8109338Y5724700D01*
X8104669Y5748173D01*
X8091372Y5768073D01*
X8083184Y5773544D01*
X8086266Y5783704D01*
X8439733D01*
X8442815Y5773544D01*
X8434627Y5768073D01*
X8421330Y5748173D01*
X8416661Y5724700D01*
X8421330Y5701227D01*
X8434627Y5681327D01*
X8454527Y5668031D01*
X8478000Y5663362D01*
X8548000D01*
X8571473Y5668031D01*
X8591372Y5681327D01*
X8604669Y5701227D01*
X8609338Y5724700D01*
X8604669Y5748173D01*
X8591372Y5768073D01*
X8583184Y5773544D01*
X8586266Y5783704D01*
X8642967D01*
X8928204Y5498467D01*
D02*
G37*
G36*
X6078204D02*
Y4501533D01*
X5793167Y4216496D01*
X5237464D01*
X5234382Y4226656D01*
X5241373Y4231327D01*
X5254669Y4251227D01*
X5259338Y4274700D01*
X5254669Y4298173D01*
X5241373Y4318073D01*
X5221473Y4331369D01*
X5198000Y4336038D01*
X5128000D01*
X5104527Y4331369D01*
X5084627Y4318073D01*
X5071330Y4298173D01*
X5066661Y4274700D01*
X5071330Y4251227D01*
X5084627Y4231327D01*
X5091618Y4226656D01*
X5088536Y4216496D01*
X4351833D01*
X4066496Y4501832D01*
Y5498168D01*
X4352032Y5783704D01*
X5089733D01*
X5092816Y5773544D01*
X5084627Y5768073D01*
X5071330Y5748173D01*
X5066661Y5724700D01*
X5071330Y5701227D01*
X5084627Y5681327D01*
X5104527Y5668031D01*
X5128000Y5663362D01*
X5198000D01*
X5221473Y5668031D01*
X5241373Y5681327D01*
X5254669Y5701227D01*
X5259338Y5724700D01*
X5254669Y5748173D01*
X5241373Y5768073D01*
X5233184Y5773544D01*
X5236266Y5783704D01*
X5589733D01*
X5592816Y5773544D01*
X5584627Y5768073D01*
X5571330Y5748173D01*
X5566661Y5724700D01*
X5571330Y5701227D01*
X5584627Y5681327D01*
X5604527Y5668031D01*
X5628000Y5663362D01*
X5698000D01*
X5721473Y5668031D01*
X5741373Y5681327D01*
X5754669Y5701227D01*
X5759338Y5724700D01*
X5754669Y5748173D01*
X5741373Y5768073D01*
X5733184Y5773544D01*
X5736266Y5783704D01*
X5792967D01*
X6078204Y5498467D01*
D02*
G37*
G36*
X3228204D02*
Y4501533D01*
X2943167Y4216496D01*
X2387464D01*
X2384382Y4226656D01*
X2391373Y4231327D01*
X2404669Y4251227D01*
X2409338Y4274700D01*
X2404669Y4298173D01*
X2391373Y4318073D01*
X2371473Y4331369D01*
X2348000Y4336038D01*
X2278000D01*
X2254527Y4331369D01*
X2234627Y4318073D01*
X2221331Y4298173D01*
X2216662Y4274700D01*
X2221331Y4251227D01*
X2234627Y4231327D01*
X2241618Y4226656D01*
X2238536Y4216496D01*
X1501833D01*
X1216496Y4501832D01*
Y5498168D01*
X1502033Y5783704D01*
X2239733D01*
X2242816Y5773544D01*
X2234627Y5768073D01*
X2221331Y5748173D01*
X2216662Y5724700D01*
X2221331Y5701227D01*
X2234627Y5681327D01*
X2254527Y5668031D01*
X2278000Y5663362D01*
X2348000D01*
X2371473Y5668031D01*
X2391373Y5681327D01*
X2404669Y5701227D01*
X2409338Y5724700D01*
X2404669Y5748173D01*
X2391373Y5768073D01*
X2383184Y5773544D01*
X2386266Y5783704D01*
X2739733D01*
X2742816Y5773544D01*
X2734627Y5768073D01*
X2721331Y5748173D01*
X2716662Y5724700D01*
X2721331Y5701227D01*
X2734627Y5681327D01*
X2754527Y5668031D01*
X2778000Y5663362D01*
X2848000D01*
X2871473Y5668031D01*
X2891373Y5681327D01*
X2904669Y5701227D01*
X2909338Y5724700D01*
X2904669Y5748173D01*
X2891373Y5768073D01*
X2883184Y5773544D01*
X2886267Y5783704D01*
X2942967D01*
X3228204Y5498467D01*
D02*
G37*
G36*
X8928204Y3598467D02*
Y2601533D01*
X8643167Y2316496D01*
X8087464D01*
X8084382Y2326656D01*
X8091372Y2331327D01*
X8104669Y2351227D01*
X8109338Y2374700D01*
X8104669Y2398173D01*
X8091372Y2418073D01*
X8071473Y2431369D01*
X8048000Y2436038D01*
X7978000D01*
X7954527Y2431369D01*
X7934627Y2418073D01*
X7921330Y2398173D01*
X7916661Y2374700D01*
X7921330Y2351227D01*
X7934627Y2331327D01*
X7941618Y2326656D01*
X7938536Y2316496D01*
X7201832D01*
X6916495Y2601832D01*
Y3598168D01*
X7202032Y3883704D01*
X7939733D01*
X7942815Y3873544D01*
X7934627Y3868073D01*
X7921330Y3848173D01*
X7916661Y3824700D01*
X7921330Y3801227D01*
X7934627Y3781327D01*
X7954527Y3768031D01*
X7978000Y3763362D01*
X8048000D01*
X8071473Y3768031D01*
X8091372Y3781327D01*
X8104669Y3801227D01*
X8109338Y3824700D01*
X8104669Y3848173D01*
X8091372Y3868073D01*
X8083184Y3873544D01*
X8086266Y3883704D01*
X8439733D01*
X8442815Y3873544D01*
X8434627Y3868073D01*
X8421330Y3848173D01*
X8416661Y3824700D01*
X8421330Y3801227D01*
X8434627Y3781327D01*
X8454527Y3768031D01*
X8478000Y3763362D01*
X8548000D01*
X8571473Y3768031D01*
X8591372Y3781327D01*
X8604669Y3801227D01*
X8609338Y3824700D01*
X8604669Y3848173D01*
X8591372Y3868073D01*
X8583184Y3873544D01*
X8586266Y3883704D01*
X8642967D01*
X8928204Y3598467D01*
D02*
G37*
G36*
X6078204D02*
Y2601533D01*
X5793167Y2316496D01*
X5237464D01*
X5234382Y2326656D01*
X5241373Y2331327D01*
X5254669Y2351227D01*
X5259338Y2374700D01*
X5254669Y2398173D01*
X5241373Y2418073D01*
X5221473Y2431369D01*
X5198000Y2436038D01*
X5128000D01*
X5104527Y2431369D01*
X5084627Y2418073D01*
X5071330Y2398173D01*
X5066661Y2374700D01*
X5071330Y2351227D01*
X5084627Y2331327D01*
X5091618Y2326656D01*
X5088536Y2316496D01*
X4351833D01*
X4066496Y2601832D01*
Y3598168D01*
X4352032Y3883704D01*
X5089733D01*
X5092816Y3873544D01*
X5084627Y3868073D01*
X5071330Y3848173D01*
X5066661Y3824700D01*
X5071330Y3801227D01*
X5084627Y3781327D01*
X5104527Y3768031D01*
X5128000Y3763362D01*
X5198000D01*
X5221473Y3768031D01*
X5241373Y3781327D01*
X5254669Y3801227D01*
X5259338Y3824700D01*
X5254669Y3848173D01*
X5241373Y3868073D01*
X5233184Y3873544D01*
X5236266Y3883704D01*
X5589733D01*
X5592816Y3873544D01*
X5584627Y3868073D01*
X5571330Y3848173D01*
X5566661Y3824700D01*
X5571330Y3801227D01*
X5584627Y3781327D01*
X5604527Y3768031D01*
X5628000Y3763362D01*
X5698000D01*
X5721473Y3768031D01*
X5741373Y3781327D01*
X5754669Y3801227D01*
X5759338Y3824700D01*
X5754669Y3848173D01*
X5741373Y3868073D01*
X5733184Y3873544D01*
X5736266Y3883704D01*
X5792967D01*
X6078204Y3598467D01*
D02*
G37*
G36*
X3228204D02*
Y2601533D01*
X2943167Y2316496D01*
X2387464D01*
X2384382Y2326656D01*
X2391373Y2331327D01*
X2404669Y2351227D01*
X2409338Y2374700D01*
X2404669Y2398173D01*
X2391373Y2418073D01*
X2371473Y2431369D01*
X2348000Y2436038D01*
X2278000D01*
X2254527Y2431369D01*
X2234627Y2418073D01*
X2221331Y2398173D01*
X2216662Y2374700D01*
X2221331Y2351227D01*
X2234627Y2331327D01*
X2241618Y2326656D01*
X2238536Y2316496D01*
X1501833D01*
X1216496Y2601832D01*
Y3598168D01*
X1502033Y3883704D01*
X2239733D01*
X2242816Y3873544D01*
X2234627Y3868073D01*
X2221331Y3848173D01*
X2216662Y3824700D01*
X2221331Y3801227D01*
X2234627Y3781327D01*
X2254527Y3768031D01*
X2278000Y3763362D01*
X2348000D01*
X2371473Y3768031D01*
X2391373Y3781327D01*
X2404669Y3801227D01*
X2409338Y3824700D01*
X2404669Y3848173D01*
X2391373Y3868073D01*
X2383184Y3873544D01*
X2386266Y3883704D01*
X2739733D01*
X2742816Y3873544D01*
X2734627Y3868073D01*
X2721331Y3848173D01*
X2716662Y3824700D01*
X2721331Y3801227D01*
X2734627Y3781327D01*
X2754527Y3768031D01*
X2778000Y3763362D01*
X2848000D01*
X2871473Y3768031D01*
X2891373Y3781327D01*
X2904669Y3801227D01*
X2909338Y3824700D01*
X2904669Y3848173D01*
X2891373Y3868073D01*
X2883184Y3873544D01*
X2886267Y3883704D01*
X2942967D01*
X3228204Y3598467D01*
D02*
G37*
G36*
X8928204Y1698467D02*
Y701533D01*
X8643167Y416496D01*
X8087464D01*
X8084382Y426656D01*
X8091372Y431327D01*
X8104669Y451227D01*
X8109338Y474700D01*
X8104669Y498173D01*
X8091372Y518073D01*
X8071473Y531369D01*
X8048000Y536038D01*
X7978000D01*
X7954527Y531369D01*
X7934627Y518073D01*
X7921330Y498173D01*
X7916661Y474700D01*
X7921330Y451227D01*
X7934627Y431327D01*
X7941618Y426656D01*
X7938536Y416496D01*
X7201832D01*
X6916495Y701832D01*
Y1698168D01*
X7202032Y1983704D01*
X7939733D01*
X7942815Y1973544D01*
X7934627Y1968073D01*
X7921330Y1948173D01*
X7916661Y1924700D01*
X7921330Y1901227D01*
X7934627Y1881327D01*
X7954527Y1868031D01*
X7978000Y1863362D01*
X8048000D01*
X8071473Y1868031D01*
X8091372Y1881327D01*
X8104669Y1901227D01*
X8109338Y1924700D01*
X8104669Y1948173D01*
X8091372Y1968073D01*
X8083184Y1973544D01*
X8086266Y1983704D01*
X8439733D01*
X8442815Y1973544D01*
X8434627Y1968073D01*
X8421330Y1948173D01*
X8416661Y1924700D01*
X8421330Y1901227D01*
X8434627Y1881327D01*
X8454527Y1868031D01*
X8478000Y1863362D01*
X8548000D01*
X8571473Y1868031D01*
X8591372Y1881327D01*
X8604669Y1901227D01*
X8609338Y1924700D01*
X8604669Y1948173D01*
X8591372Y1968073D01*
X8583184Y1973544D01*
X8586266Y1983704D01*
X8642967D01*
X8928204Y1698467D01*
D02*
G37*
G36*
X6078204D02*
Y701533D01*
X5793167Y416496D01*
X5237464D01*
X5234382Y426656D01*
X5241373Y431327D01*
X5254669Y451227D01*
X5259338Y474700D01*
X5254669Y498173D01*
X5241373Y518073D01*
X5221473Y531369D01*
X5198000Y536038D01*
X5128000D01*
X5104527Y531369D01*
X5084627Y518073D01*
X5071330Y498173D01*
X5066661Y474700D01*
X5071330Y451227D01*
X5084627Y431327D01*
X5091618Y426656D01*
X5088536Y416496D01*
X4351833D01*
X4066496Y701832D01*
Y1698168D01*
X4352032Y1983704D01*
X5089733D01*
X5092816Y1973544D01*
X5084627Y1968073D01*
X5071330Y1948173D01*
X5066661Y1924700D01*
X5071330Y1901227D01*
X5084627Y1881327D01*
X5104527Y1868031D01*
X5128000Y1863362D01*
X5198000D01*
X5221473Y1868031D01*
X5241373Y1881327D01*
X5254669Y1901227D01*
X5259338Y1924700D01*
X5254669Y1948173D01*
X5241373Y1968073D01*
X5233184Y1973544D01*
X5236266Y1983704D01*
X5589733D01*
X5592816Y1973544D01*
X5584627Y1968073D01*
X5571330Y1948173D01*
X5566661Y1924700D01*
X5571330Y1901227D01*
X5584627Y1881327D01*
X5604527Y1868031D01*
X5628000Y1863362D01*
X5698000D01*
X5721473Y1868031D01*
X5741373Y1881327D01*
X5754669Y1901227D01*
X5759338Y1924700D01*
X5754669Y1948173D01*
X5741373Y1968073D01*
X5733184Y1973544D01*
X5736266Y1983704D01*
X5792967D01*
X6078204Y1698467D01*
D02*
G37*
G36*
X3228204D02*
Y701533D01*
X2943167Y416496D01*
X2387464D01*
X2384382Y426656D01*
X2391373Y431327D01*
X2404669Y451227D01*
X2409338Y474700D01*
X2404669Y498173D01*
X2391373Y518073D01*
X2371473Y531369D01*
X2348000Y536038D01*
X2278000D01*
X2254527Y531369D01*
X2234627Y518073D01*
X2221331Y498173D01*
X2216662Y474700D01*
X2221331Y451227D01*
X2234627Y431327D01*
X2241618Y426656D01*
X2238536Y416496D01*
X1501833D01*
X1216496Y701832D01*
Y1698168D01*
X1502033Y1983704D01*
X2239733D01*
X2242816Y1973544D01*
X2234627Y1968073D01*
X2221331Y1948173D01*
X2216662Y1924700D01*
X2221331Y1901227D01*
X2234627Y1881327D01*
X2254527Y1868031D01*
X2278000Y1863362D01*
X2348000D01*
X2371473Y1868031D01*
X2391373Y1881327D01*
X2404669Y1901227D01*
X2409338Y1924700D01*
X2404669Y1948173D01*
X2391373Y1968073D01*
X2383184Y1973544D01*
X2386266Y1983704D01*
X2739733D01*
X2742816Y1973544D01*
X2734627Y1968073D01*
X2721331Y1948173D01*
X2716662Y1924700D01*
X2721331Y1901227D01*
X2734627Y1881327D01*
X2754527Y1868031D01*
X2778000Y1863362D01*
X2848000D01*
X2871473Y1868031D01*
X2891373Y1881327D01*
X2904669Y1901227D01*
X2909338Y1924700D01*
X2904669Y1948173D01*
X2891373Y1968073D01*
X2883184Y1973544D01*
X2886267Y1983704D01*
X2942967D01*
X3228204Y1698467D01*
D02*
G37*
%LPC*%
G36*
X7521542Y9288241D02*
X7411542D01*
X7390020Y9283960D01*
X7371774Y9271768D01*
X7359582Y9253523D01*
X7355301Y9232000D01*
X7359582Y9210478D01*
X7371774Y9192232D01*
X7390020Y9180041D01*
X7411542Y9175759D01*
X7521542D01*
X7543065Y9180041D01*
X7561311Y9192232D01*
X7573502Y9210478D01*
X7577783Y9232000D01*
X7573502Y9253523D01*
X7561311Y9271768D01*
X7543065Y9283960D01*
X7521542Y9288241D01*
D02*
G37*
G36*
X7068542D02*
X6988542D01*
X6967020Y9283960D01*
X6948774Y9271768D01*
X6936583Y9253523D01*
X6932302Y9232000D01*
X6936583Y9210478D01*
X6948774Y9192232D01*
X6967020Y9180041D01*
X6988542Y9175759D01*
X7068542D01*
X7090065Y9180041D01*
X7108310Y9192232D01*
X7120502Y9210478D01*
X7124783Y9232000D01*
X7120502Y9253523D01*
X7108310Y9271768D01*
X7090065Y9283960D01*
X7068542Y9288241D01*
D02*
G37*
G36*
X7425028Y9131660D02*
X7408057D01*
X7392377Y9125165D01*
X7380377Y9113165D01*
X7373882Y9097485D01*
Y9080514D01*
X7380377Y9064835D01*
X7392377Y9052835D01*
X7408057Y9046340D01*
X7425028D01*
X7440707Y9052835D01*
X7452707Y9064835D01*
X7459202Y9080514D01*
Y9097485D01*
X7452707Y9113165D01*
X7440707Y9125165D01*
X7425028Y9131660D01*
D02*
G37*
G36*
X8579078Y8928188D02*
X8561921D01*
X8545349Y8923747D01*
X8530491Y8915169D01*
X8518359Y8903037D01*
X8509780Y8888179D01*
X8505340Y8871607D01*
Y8854449D01*
X8509780Y8837877D01*
X8518359Y8823019D01*
X8530491Y8810887D01*
X8545349Y8802309D01*
X8561921Y8797868D01*
X8579078D01*
X8595651Y8802309D01*
X8610509Y8810887D01*
X8622641Y8823019D01*
X8631219Y8837877D01*
X8635660Y8854449D01*
Y8871607D01*
X8631219Y8888179D01*
X8622641Y8903037D01*
X8610509Y8915169D01*
X8595651Y8923747D01*
X8579078Y8928188D01*
D02*
G37*
G36*
X7788191Y9022266D02*
X7568284D01*
X7556620Y9017434D01*
X7442142Y8902956D01*
X7396874D01*
X7392524Y8913457D01*
X7379117Y8926864D01*
X7361600Y8934120D01*
X7342639D01*
X7325123Y8926864D01*
X7311715Y8913457D01*
X7304460Y8895940D01*
Y8876980D01*
X7311715Y8859463D01*
X7325123Y8846056D01*
X7335624Y8841706D01*
Y8816378D01*
X7325123Y8812028D01*
X7311715Y8798621D01*
X7304460Y8781104D01*
Y8762143D01*
X7311715Y8744626D01*
X7325123Y8731219D01*
X7342639Y8723964D01*
X7361600D01*
X7364022Y8724967D01*
X7372231Y8717370D01*
Y8701295D01*
X7379487Y8683778D01*
X7392894Y8670371D01*
X7410411Y8663115D01*
X7429371D01*
X7446888Y8670371D01*
X7460295Y8683778D01*
X7467551Y8701295D01*
Y8720255D01*
X7460295Y8737772D01*
X7446888Y8751179D01*
X7436387Y8755529D01*
Y8783886D01*
X7446888Y8788236D01*
X7460295Y8801643D01*
X7467551Y8819160D01*
Y8838120D01*
X7463201Y8848622D01*
X7583534Y8968954D01*
X7772941D01*
X7854535Y8887361D01*
Y8854939D01*
X7859366Y8843275D01*
X7965143Y8737497D01*
X7960794Y8726996D01*
Y8708035D01*
X7968049Y8690519D01*
X7981456Y8677111D01*
X7998973Y8669856D01*
X8017934D01*
X8035451Y8677111D01*
X8048858Y8690519D01*
X8056114Y8708035D01*
Y8726996D01*
X8048858Y8744513D01*
X8035451Y8757920D01*
X8017934Y8765176D01*
X7998973D01*
X7988472Y8760826D01*
X7942073Y8807225D01*
X7945961Y8816612D01*
X7963700D01*
X7968049Y8806111D01*
X7981456Y8792704D01*
X7998973Y8785448D01*
X8017934D01*
X8035451Y8792704D01*
X8048858Y8806111D01*
X8056114Y8823628D01*
Y8842588D01*
X8048858Y8860105D01*
X8035451Y8873512D01*
X8017934Y8880768D01*
X7998973D01*
X7981456Y8873512D01*
X7968049Y8860105D01*
X7963700Y8849604D01*
X7928431D01*
X7907846Y8870188D01*
Y8902610D01*
X7903015Y8914274D01*
X7799855Y9017434D01*
X7788191Y9022266D01*
D02*
G37*
G36*
X7425028Y8553660D02*
X7408057D01*
X7392377Y8547165D01*
X7380377Y8535165D01*
X7373882Y8519486D01*
Y8502514D01*
X7380377Y8486835D01*
X7392377Y8474835D01*
X7408057Y8468340D01*
X7425028D01*
X7440707Y8474835D01*
X7452707Y8486835D01*
X7459202Y8502514D01*
Y8519486D01*
X7452707Y8535165D01*
X7440707Y8547165D01*
X7425028Y8553660D01*
D02*
G37*
G36*
X7521542Y8424241D02*
X7411542D01*
X7390020Y8419960D01*
X7371774Y8407768D01*
X7359582Y8389522D01*
X7355301Y8368000D01*
X7359582Y8346478D01*
X7371774Y8328232D01*
X7390020Y8316041D01*
X7411542Y8311759D01*
X7521542D01*
X7543065Y8316041D01*
X7561311Y8328232D01*
X7573502Y8346478D01*
X7577783Y8368000D01*
X7573502Y8389522D01*
X7561311Y8407768D01*
X7543065Y8419960D01*
X7521542Y8424241D01*
D02*
G37*
G36*
X7068542D02*
X6988542D01*
X6967020Y8419960D01*
X6948774Y8407768D01*
X6936583Y8389522D01*
X6932302Y8368000D01*
X6936583Y8346478D01*
X6948774Y8328232D01*
X6967020Y8316041D01*
X6988542Y8311759D01*
X7068542D01*
X7090065Y8316041D01*
X7108310Y8328232D01*
X7120502Y8346478D01*
X7124783Y8368000D01*
X7120502Y8389522D01*
X7108310Y8407768D01*
X7090065Y8419960D01*
X7068542Y8424241D01*
D02*
G37*
G36*
X8042532Y8428666D02*
X8025375D01*
X8008802Y8424226D01*
X7993944Y8415647D01*
X7981812Y8403516D01*
X7973234Y8388657D01*
X7968793Y8372085D01*
Y8354928D01*
X7973234Y8338356D01*
X7981812Y8323497D01*
X7993944Y8311366D01*
X8008802Y8302787D01*
X8025375Y8298347D01*
X8042532D01*
X8059104Y8302787D01*
X8073962Y8311366D01*
X8086094Y8323497D01*
X8094673Y8338356D01*
X8099113Y8354928D01*
Y8372085D01*
X8094673Y8388657D01*
X8086094Y8403516D01*
X8073962Y8415647D01*
X8059104Y8424226D01*
X8042532Y8428666D01*
D02*
G37*
G36*
X4671542Y9288241D02*
X4561542D01*
X4540020Y9283960D01*
X4521774Y9271768D01*
X4509583Y9253523D01*
X4505301Y9232000D01*
X4509583Y9210478D01*
X4521774Y9192232D01*
X4540020Y9180041D01*
X4561542Y9175759D01*
X4671542D01*
X4693065Y9180041D01*
X4711311Y9192232D01*
X4723502Y9210478D01*
X4727783Y9232000D01*
X4723502Y9253523D01*
X4711311Y9271768D01*
X4693065Y9283960D01*
X4671542Y9288241D01*
D02*
G37*
G36*
X4218542D02*
X4138542D01*
X4117020Y9283960D01*
X4098774Y9271768D01*
X4086583Y9253523D01*
X4082302Y9232000D01*
X4086583Y9210478D01*
X4098774Y9192232D01*
X4117020Y9180041D01*
X4138542Y9175759D01*
X4218542D01*
X4240065Y9180041D01*
X4258311Y9192232D01*
X4270502Y9210478D01*
X4274783Y9232000D01*
X4270502Y9253523D01*
X4258311Y9271768D01*
X4240065Y9283960D01*
X4218542Y9288241D01*
D02*
G37*
G36*
X4575028Y9131660D02*
X4558057D01*
X4542377Y9125165D01*
X4530377Y9113165D01*
X4523882Y9097485D01*
Y9080514D01*
X4530377Y9064835D01*
X4542377Y9052835D01*
X4558057Y9046340D01*
X4575028D01*
X4590707Y9052835D01*
X4602708Y9064835D01*
X4609202Y9080514D01*
Y9097485D01*
X4602708Y9113165D01*
X4590707Y9125165D01*
X4575028Y9131660D01*
D02*
G37*
G36*
X5729078Y8928188D02*
X5711921D01*
X5695349Y8923747D01*
X5680491Y8915169D01*
X5668359Y8903037D01*
X5659780Y8888179D01*
X5655340Y8871607D01*
Y8854449D01*
X5659780Y8837877D01*
X5668359Y8823019D01*
X5680491Y8810887D01*
X5695349Y8802309D01*
X5711921Y8797868D01*
X5729078D01*
X5745651Y8802309D01*
X5760509Y8810887D01*
X5772641Y8823019D01*
X5781219Y8837877D01*
X5785660Y8854449D01*
Y8871607D01*
X5781219Y8888179D01*
X5772641Y8903037D01*
X5760509Y8915169D01*
X5745651Y8923747D01*
X5729078Y8928188D01*
D02*
G37*
G36*
X4938191Y9022266D02*
X4718284D01*
X4706620Y9017434D01*
X4592142Y8902956D01*
X4546874D01*
X4542524Y8913457D01*
X4529117Y8926864D01*
X4511600Y8934120D01*
X4492639D01*
X4475123Y8926864D01*
X4461715Y8913457D01*
X4454460Y8895940D01*
Y8876980D01*
X4461715Y8859463D01*
X4475123Y8846056D01*
X4485624Y8841706D01*
Y8816378D01*
X4475123Y8812028D01*
X4461715Y8798621D01*
X4454460Y8781104D01*
Y8762143D01*
X4461715Y8744626D01*
X4475123Y8731219D01*
X4492639Y8723964D01*
X4511600D01*
X4514022Y8724967D01*
X4522231Y8717370D01*
Y8701295D01*
X4529487Y8683778D01*
X4542894Y8670371D01*
X4560411Y8663115D01*
X4579371D01*
X4596888Y8670371D01*
X4610295Y8683778D01*
X4617551Y8701295D01*
Y8720255D01*
X4610295Y8737772D01*
X4596888Y8751179D01*
X4586387Y8755529D01*
Y8783886D01*
X4596888Y8788236D01*
X4610295Y8801643D01*
X4617551Y8819160D01*
Y8838120D01*
X4613201Y8848622D01*
X4733534Y8968954D01*
X4922941D01*
X5004535Y8887361D01*
Y8854939D01*
X5009366Y8843275D01*
X5115143Y8737497D01*
X5110794Y8726996D01*
Y8708035D01*
X5118049Y8690519D01*
X5131457Y8677111D01*
X5148973Y8669856D01*
X5167934D01*
X5185451Y8677111D01*
X5198858Y8690519D01*
X5206114Y8708035D01*
Y8726996D01*
X5198858Y8744513D01*
X5185451Y8757920D01*
X5167934Y8765176D01*
X5148973D01*
X5138472Y8760826D01*
X5092073Y8807225D01*
X5095961Y8816612D01*
X5113700D01*
X5118049Y8806111D01*
X5131457Y8792704D01*
X5148973Y8785448D01*
X5167934D01*
X5185451Y8792704D01*
X5198858Y8806111D01*
X5206114Y8823628D01*
Y8842588D01*
X5198858Y8860105D01*
X5185451Y8873512D01*
X5167934Y8880768D01*
X5148973D01*
X5131457Y8873512D01*
X5118049Y8860105D01*
X5113700Y8849604D01*
X5078431D01*
X5057846Y8870188D01*
Y8902610D01*
X5053015Y8914274D01*
X4949855Y9017434D01*
X4938191Y9022266D01*
D02*
G37*
G36*
X4575028Y8553660D02*
X4558057D01*
X4542377Y8547165D01*
X4530377Y8535165D01*
X4523882Y8519486D01*
Y8502514D01*
X4530377Y8486835D01*
X4542377Y8474835D01*
X4558057Y8468340D01*
X4575028D01*
X4590707Y8474835D01*
X4602708Y8486835D01*
X4609202Y8502514D01*
Y8519486D01*
X4602708Y8535165D01*
X4590707Y8547165D01*
X4575028Y8553660D01*
D02*
G37*
G36*
X4671542Y8424241D02*
X4561542D01*
X4540020Y8419960D01*
X4521774Y8407768D01*
X4509583Y8389522D01*
X4505301Y8368000D01*
X4509583Y8346478D01*
X4521774Y8328232D01*
X4540020Y8316041D01*
X4561542Y8311759D01*
X4671542D01*
X4693065Y8316041D01*
X4711311Y8328232D01*
X4723502Y8346478D01*
X4727783Y8368000D01*
X4723502Y8389522D01*
X4711311Y8407768D01*
X4693065Y8419960D01*
X4671542Y8424241D01*
D02*
G37*
G36*
X4218542D02*
X4138542D01*
X4117020Y8419960D01*
X4098774Y8407768D01*
X4086583Y8389522D01*
X4082302Y8368000D01*
X4086583Y8346478D01*
X4098774Y8328232D01*
X4117020Y8316041D01*
X4138542Y8311759D01*
X4218542D01*
X4240065Y8316041D01*
X4258311Y8328232D01*
X4270502Y8346478D01*
X4274783Y8368000D01*
X4270502Y8389522D01*
X4258311Y8407768D01*
X4240065Y8419960D01*
X4218542Y8424241D01*
D02*
G37*
G36*
X5192532Y8428666D02*
X5175375D01*
X5158802Y8424226D01*
X5143944Y8415647D01*
X5131812Y8403516D01*
X5123234Y8388657D01*
X5118793Y8372085D01*
Y8354928D01*
X5123234Y8338356D01*
X5131812Y8323497D01*
X5143944Y8311366D01*
X5158802Y8302787D01*
X5175375Y8298347D01*
X5192532D01*
X5209104Y8302787D01*
X5223962Y8311366D01*
X5236094Y8323497D01*
X5244673Y8338356D01*
X5249113Y8354928D01*
Y8372085D01*
X5244673Y8388657D01*
X5236094Y8403516D01*
X5223962Y8415647D01*
X5209104Y8424226D01*
X5192532Y8428666D01*
D02*
G37*
G36*
X1821542Y9288241D02*
X1711542D01*
X1690020Y9283960D01*
X1671774Y9271768D01*
X1659583Y9253523D01*
X1655301Y9232000D01*
X1659583Y9210478D01*
X1671774Y9192232D01*
X1690020Y9180041D01*
X1711542Y9175759D01*
X1821542D01*
X1843065Y9180041D01*
X1861311Y9192232D01*
X1873502Y9210478D01*
X1877783Y9232000D01*
X1873502Y9253523D01*
X1861311Y9271768D01*
X1843065Y9283960D01*
X1821542Y9288241D01*
D02*
G37*
G36*
X1368542D02*
X1288543D01*
X1267020Y9283960D01*
X1248774Y9271768D01*
X1236583Y9253523D01*
X1232302Y9232000D01*
X1236583Y9210478D01*
X1248774Y9192232D01*
X1267020Y9180041D01*
X1288543Y9175759D01*
X1368542D01*
X1390065Y9180041D01*
X1408311Y9192232D01*
X1420502Y9210478D01*
X1424783Y9232000D01*
X1420502Y9253523D01*
X1408311Y9271768D01*
X1390065Y9283960D01*
X1368542Y9288241D01*
D02*
G37*
G36*
X1725028Y9131660D02*
X1708057D01*
X1692377Y9125165D01*
X1680377Y9113165D01*
X1673882Y9097485D01*
Y9080514D01*
X1680377Y9064835D01*
X1692377Y9052835D01*
X1708057Y9046340D01*
X1725028D01*
X1740707Y9052835D01*
X1752708Y9064835D01*
X1759202Y9080514D01*
Y9097485D01*
X1752708Y9113165D01*
X1740707Y9125165D01*
X1725028Y9131660D01*
D02*
G37*
G36*
X2879079Y8928188D02*
X2861921D01*
X2845349Y8923747D01*
X2830491Y8915169D01*
X2818359Y8903037D01*
X2809781Y8888179D01*
X2805340Y8871607D01*
Y8854449D01*
X2809781Y8837877D01*
X2818359Y8823019D01*
X2830491Y8810887D01*
X2845349Y8802309D01*
X2861921Y8797868D01*
X2879079D01*
X2895651Y8802309D01*
X2910509Y8810887D01*
X2922641Y8823019D01*
X2931219Y8837877D01*
X2935660Y8854449D01*
Y8871607D01*
X2931219Y8888179D01*
X2922641Y8903037D01*
X2910509Y8915169D01*
X2895651Y8923747D01*
X2879079Y8928188D01*
D02*
G37*
G36*
X2088191Y9022266D02*
X1868284D01*
X1856620Y9017434D01*
X1742142Y8902956D01*
X1696874D01*
X1692524Y8913457D01*
X1679117Y8926864D01*
X1661600Y8934120D01*
X1642640D01*
X1625123Y8926864D01*
X1611716Y8913457D01*
X1604460Y8895940D01*
Y8876980D01*
X1611716Y8859463D01*
X1625123Y8846056D01*
X1635624Y8841706D01*
Y8816378D01*
X1625123Y8812028D01*
X1611716Y8798621D01*
X1604460Y8781104D01*
Y8762143D01*
X1611716Y8744626D01*
X1625123Y8731219D01*
X1642640Y8723964D01*
X1661600D01*
X1664023Y8724967D01*
X1672231Y8717370D01*
Y8701295D01*
X1679487Y8683778D01*
X1692894Y8670371D01*
X1710411Y8663115D01*
X1729371D01*
X1746888Y8670371D01*
X1760295Y8683778D01*
X1767551Y8701295D01*
Y8720255D01*
X1760295Y8737772D01*
X1746888Y8751179D01*
X1736387Y8755529D01*
Y8783886D01*
X1746888Y8788236D01*
X1760295Y8801643D01*
X1767551Y8819160D01*
Y8838120D01*
X1763201Y8848622D01*
X1883534Y8968954D01*
X2072941D01*
X2154535Y8887361D01*
Y8854939D01*
X2159367Y8843275D01*
X2265144Y8737497D01*
X2260794Y8726996D01*
Y8708035D01*
X2268050Y8690519D01*
X2281457Y8677111D01*
X2298974Y8669856D01*
X2317934D01*
X2335451Y8677111D01*
X2348858Y8690519D01*
X2356114Y8708035D01*
Y8726996D01*
X2348858Y8744513D01*
X2335451Y8757920D01*
X2317934Y8765176D01*
X2298974D01*
X2288472Y8760826D01*
X2242073Y8807225D01*
X2245961Y8816612D01*
X2263700D01*
X2268050Y8806111D01*
X2281457Y8792704D01*
X2298974Y8785448D01*
X2317934D01*
X2335451Y8792704D01*
X2348858Y8806111D01*
X2356114Y8823628D01*
Y8842588D01*
X2348858Y8860105D01*
X2335451Y8873512D01*
X2317934Y8880768D01*
X2298974D01*
X2281457Y8873512D01*
X2268050Y8860105D01*
X2263700Y8849604D01*
X2228431D01*
X2207846Y8870188D01*
Y8902610D01*
X2203015Y8914274D01*
X2099855Y9017434D01*
X2088191Y9022266D01*
D02*
G37*
G36*
X1725028Y8553660D02*
X1708057D01*
X1692377Y8547165D01*
X1680377Y8535165D01*
X1673882Y8519486D01*
Y8502514D01*
X1680377Y8486835D01*
X1692377Y8474835D01*
X1708057Y8468340D01*
X1725028D01*
X1740707Y8474835D01*
X1752708Y8486835D01*
X1759202Y8502514D01*
Y8519486D01*
X1752708Y8535165D01*
X1740707Y8547165D01*
X1725028Y8553660D01*
D02*
G37*
G36*
X1821542Y8424241D02*
X1711542D01*
X1690020Y8419960D01*
X1671774Y8407768D01*
X1659583Y8389522D01*
X1655301Y8368000D01*
X1659583Y8346478D01*
X1671774Y8328232D01*
X1690020Y8316041D01*
X1711542Y8311759D01*
X1821542D01*
X1843065Y8316041D01*
X1861311Y8328232D01*
X1873502Y8346478D01*
X1877783Y8368000D01*
X1873502Y8389522D01*
X1861311Y8407768D01*
X1843065Y8419960D01*
X1821542Y8424241D01*
D02*
G37*
G36*
X1368542D02*
X1288543D01*
X1267020Y8419960D01*
X1248774Y8407768D01*
X1236583Y8389522D01*
X1232302Y8368000D01*
X1236583Y8346478D01*
X1248774Y8328232D01*
X1267020Y8316041D01*
X1288543Y8311759D01*
X1368542D01*
X1390065Y8316041D01*
X1408311Y8328232D01*
X1420502Y8346478D01*
X1424783Y8368000D01*
X1420502Y8389522D01*
X1408311Y8407768D01*
X1390065Y8419960D01*
X1368542Y8424241D01*
D02*
G37*
G36*
X2342532Y8428666D02*
X2325375D01*
X2308803Y8424226D01*
X2293944Y8415647D01*
X2281813Y8403516D01*
X2273234Y8388657D01*
X2268794Y8372085D01*
Y8354928D01*
X2273234Y8338356D01*
X2281813Y8323497D01*
X2293944Y8311366D01*
X2308803Y8302787D01*
X2325375Y8298347D01*
X2342532D01*
X2359104Y8302787D01*
X2373962Y8311366D01*
X2386094Y8323497D01*
X2394673Y8338356D01*
X2399113Y8354928D01*
Y8372085D01*
X2394673Y8388657D01*
X2386094Y8403516D01*
X2373962Y8415647D01*
X2359104Y8424226D01*
X2342532Y8428666D01*
D02*
G37*
G36*
X7521542Y7388241D02*
X7411542D01*
X7390020Y7383960D01*
X7371774Y7371768D01*
X7359582Y7353523D01*
X7355301Y7332000D01*
X7359582Y7310478D01*
X7371774Y7292232D01*
X7390020Y7280041D01*
X7411542Y7275759D01*
X7521542D01*
X7543065Y7280041D01*
X7561311Y7292232D01*
X7573502Y7310478D01*
X7577783Y7332000D01*
X7573502Y7353523D01*
X7561311Y7371768D01*
X7543065Y7383960D01*
X7521542Y7388241D01*
D02*
G37*
G36*
X7068542D02*
X6988542D01*
X6967020Y7383960D01*
X6948774Y7371768D01*
X6936583Y7353523D01*
X6932302Y7332000D01*
X6936583Y7310478D01*
X6948774Y7292232D01*
X6967020Y7280041D01*
X6988542Y7275759D01*
X7068542D01*
X7090065Y7280041D01*
X7108310Y7292232D01*
X7120502Y7310478D01*
X7124783Y7332000D01*
X7120502Y7353523D01*
X7108310Y7371768D01*
X7090065Y7383960D01*
X7068542Y7388241D01*
D02*
G37*
G36*
X7425028Y7231660D02*
X7408057D01*
X7392377Y7225165D01*
X7380377Y7213165D01*
X7373882Y7197485D01*
Y7180514D01*
X7380377Y7164835D01*
X7392377Y7152835D01*
X7408057Y7146340D01*
X7425028D01*
X7440707Y7152835D01*
X7452707Y7164835D01*
X7459202Y7180514D01*
Y7197485D01*
X7452707Y7213165D01*
X7440707Y7225165D01*
X7425028Y7231660D01*
D02*
G37*
G36*
X8579078Y7028188D02*
X8561921D01*
X8545349Y7023747D01*
X8530491Y7015169D01*
X8518359Y7003037D01*
X8509780Y6988179D01*
X8505340Y6971607D01*
Y6954449D01*
X8509780Y6937877D01*
X8518359Y6923019D01*
X8530491Y6910887D01*
X8545349Y6902309D01*
X8561921Y6897868D01*
X8579078D01*
X8595651Y6902309D01*
X8610509Y6910887D01*
X8622641Y6923019D01*
X8631219Y6937877D01*
X8635660Y6954449D01*
Y6971607D01*
X8631219Y6988179D01*
X8622641Y7003037D01*
X8610509Y7015169D01*
X8595651Y7023747D01*
X8579078Y7028188D01*
D02*
G37*
G36*
X7788191Y7122266D02*
X7568284D01*
X7556620Y7117434D01*
X7442142Y7002956D01*
X7396874D01*
X7392524Y7013457D01*
X7379117Y7026864D01*
X7361600Y7034120D01*
X7342639D01*
X7325123Y7026864D01*
X7311715Y7013457D01*
X7304460Y6995940D01*
Y6976980D01*
X7311715Y6959463D01*
X7325123Y6946056D01*
X7335624Y6941706D01*
Y6916378D01*
X7325123Y6912028D01*
X7311715Y6898621D01*
X7304460Y6881104D01*
Y6862143D01*
X7311715Y6844626D01*
X7325123Y6831219D01*
X7342639Y6823963D01*
X7361600D01*
X7364022Y6824967D01*
X7372231Y6817370D01*
Y6801295D01*
X7379487Y6783778D01*
X7392894Y6770371D01*
X7410411Y6763115D01*
X7429371D01*
X7446888Y6770371D01*
X7460295Y6783778D01*
X7467551Y6801295D01*
Y6820255D01*
X7460295Y6837772D01*
X7446888Y6851179D01*
X7436387Y6855529D01*
Y6883886D01*
X7446888Y6888236D01*
X7460295Y6901643D01*
X7467551Y6919160D01*
Y6938120D01*
X7463201Y6948622D01*
X7583534Y7068954D01*
X7772941D01*
X7854535Y6987361D01*
Y6954939D01*
X7859366Y6943275D01*
X7965143Y6837497D01*
X7960794Y6826996D01*
Y6808035D01*
X7968049Y6790519D01*
X7981456Y6777111D01*
X7998973Y6769856D01*
X8017934D01*
X8035451Y6777111D01*
X8048858Y6790519D01*
X8056114Y6808035D01*
Y6826996D01*
X8048858Y6844513D01*
X8035451Y6857920D01*
X8017934Y6865176D01*
X7998973D01*
X7988472Y6860826D01*
X7942073Y6907225D01*
X7945961Y6916612D01*
X7963700D01*
X7968049Y6906111D01*
X7981456Y6892704D01*
X7998973Y6885448D01*
X8017934D01*
X8035451Y6892704D01*
X8048858Y6906111D01*
X8056114Y6923628D01*
Y6942588D01*
X8048858Y6960105D01*
X8035451Y6973512D01*
X8017934Y6980768D01*
X7998973D01*
X7981456Y6973512D01*
X7968049Y6960105D01*
X7963700Y6949604D01*
X7928431D01*
X7907846Y6970188D01*
Y7002610D01*
X7903015Y7014274D01*
X7799855Y7117434D01*
X7788191Y7122266D01*
D02*
G37*
G36*
X7425028Y6653660D02*
X7408057D01*
X7392377Y6647165D01*
X7380377Y6635165D01*
X7373882Y6619486D01*
Y6602514D01*
X7380377Y6586835D01*
X7392377Y6574835D01*
X7408057Y6568340D01*
X7425028D01*
X7440707Y6574835D01*
X7452707Y6586835D01*
X7459202Y6602514D01*
Y6619486D01*
X7452707Y6635165D01*
X7440707Y6647165D01*
X7425028Y6653660D01*
D02*
G37*
G36*
X7521542Y6524241D02*
X7411542D01*
X7390020Y6519960D01*
X7371774Y6507768D01*
X7359582Y6489522D01*
X7355301Y6468000D01*
X7359582Y6446478D01*
X7371774Y6428232D01*
X7390020Y6416041D01*
X7411542Y6411759D01*
X7521542D01*
X7543065Y6416041D01*
X7561311Y6428232D01*
X7573502Y6446478D01*
X7577783Y6468000D01*
X7573502Y6489522D01*
X7561311Y6507768D01*
X7543065Y6519960D01*
X7521542Y6524241D01*
D02*
G37*
G36*
X7068542D02*
X6988542D01*
X6967020Y6519960D01*
X6948774Y6507768D01*
X6936583Y6489522D01*
X6932302Y6468000D01*
X6936583Y6446478D01*
X6948774Y6428232D01*
X6967020Y6416041D01*
X6988542Y6411759D01*
X7068542D01*
X7090065Y6416041D01*
X7108310Y6428232D01*
X7120502Y6446478D01*
X7124783Y6468000D01*
X7120502Y6489522D01*
X7108310Y6507768D01*
X7090065Y6519960D01*
X7068542Y6524241D01*
D02*
G37*
G36*
X8042532Y6528666D02*
X8025375D01*
X8008802Y6524226D01*
X7993944Y6515647D01*
X7981812Y6503516D01*
X7973234Y6488657D01*
X7968793Y6472085D01*
Y6454928D01*
X7973234Y6438356D01*
X7981812Y6423497D01*
X7993944Y6411366D01*
X8008802Y6402787D01*
X8025375Y6398347D01*
X8042532D01*
X8059104Y6402787D01*
X8073962Y6411366D01*
X8086094Y6423497D01*
X8094673Y6438356D01*
X8099113Y6454928D01*
Y6472085D01*
X8094673Y6488657D01*
X8086094Y6503516D01*
X8073962Y6515647D01*
X8059104Y6524226D01*
X8042532Y6528666D01*
D02*
G37*
G36*
X4671542Y7388241D02*
X4561542D01*
X4540020Y7383960D01*
X4521774Y7371768D01*
X4509583Y7353523D01*
X4505301Y7332000D01*
X4509583Y7310478D01*
X4521774Y7292232D01*
X4540020Y7280041D01*
X4561542Y7275759D01*
X4671542D01*
X4693065Y7280041D01*
X4711311Y7292232D01*
X4723502Y7310478D01*
X4727783Y7332000D01*
X4723502Y7353523D01*
X4711311Y7371768D01*
X4693065Y7383960D01*
X4671542Y7388241D01*
D02*
G37*
G36*
X4218542D02*
X4138542D01*
X4117020Y7383960D01*
X4098774Y7371768D01*
X4086583Y7353523D01*
X4082302Y7332000D01*
X4086583Y7310478D01*
X4098774Y7292232D01*
X4117020Y7280041D01*
X4138542Y7275759D01*
X4218542D01*
X4240065Y7280041D01*
X4258311Y7292232D01*
X4270502Y7310478D01*
X4274783Y7332000D01*
X4270502Y7353523D01*
X4258311Y7371768D01*
X4240065Y7383960D01*
X4218542Y7388241D01*
D02*
G37*
G36*
X4575028Y7231660D02*
X4558057D01*
X4542377Y7225165D01*
X4530377Y7213165D01*
X4523882Y7197485D01*
Y7180514D01*
X4530377Y7164835D01*
X4542377Y7152835D01*
X4558057Y7146340D01*
X4575028D01*
X4590707Y7152835D01*
X4602708Y7164835D01*
X4609202Y7180514D01*
Y7197485D01*
X4602708Y7213165D01*
X4590707Y7225165D01*
X4575028Y7231660D01*
D02*
G37*
G36*
X5729078Y7028188D02*
X5711921D01*
X5695349Y7023747D01*
X5680491Y7015169D01*
X5668359Y7003037D01*
X5659780Y6988179D01*
X5655340Y6971607D01*
Y6954449D01*
X5659780Y6937877D01*
X5668359Y6923019D01*
X5680491Y6910887D01*
X5695349Y6902309D01*
X5711921Y6897868D01*
X5729078D01*
X5745651Y6902309D01*
X5760509Y6910887D01*
X5772641Y6923019D01*
X5781219Y6937877D01*
X5785660Y6954449D01*
Y6971607D01*
X5781219Y6988179D01*
X5772641Y7003037D01*
X5760509Y7015169D01*
X5745651Y7023747D01*
X5729078Y7028188D01*
D02*
G37*
G36*
X4938191Y7122266D02*
X4718284D01*
X4706620Y7117434D01*
X4592142Y7002956D01*
X4546874D01*
X4542524Y7013457D01*
X4529117Y7026864D01*
X4511600Y7034120D01*
X4492639D01*
X4475123Y7026864D01*
X4461715Y7013457D01*
X4454460Y6995940D01*
Y6976980D01*
X4461715Y6959463D01*
X4475123Y6946056D01*
X4485624Y6941706D01*
Y6916378D01*
X4475123Y6912028D01*
X4461715Y6898621D01*
X4454460Y6881104D01*
Y6862143D01*
X4461715Y6844626D01*
X4475123Y6831219D01*
X4492639Y6823963D01*
X4511600D01*
X4514022Y6824967D01*
X4522231Y6817370D01*
Y6801295D01*
X4529487Y6783778D01*
X4542894Y6770371D01*
X4560411Y6763115D01*
X4579371D01*
X4596888Y6770371D01*
X4610295Y6783778D01*
X4617551Y6801295D01*
Y6820255D01*
X4610295Y6837772D01*
X4596888Y6851179D01*
X4586387Y6855529D01*
Y6883886D01*
X4596888Y6888236D01*
X4610295Y6901643D01*
X4617551Y6919160D01*
Y6938120D01*
X4613201Y6948622D01*
X4733534Y7068954D01*
X4922941D01*
X5004535Y6987361D01*
Y6954939D01*
X5009366Y6943275D01*
X5115143Y6837497D01*
X5110794Y6826996D01*
Y6808035D01*
X5118049Y6790519D01*
X5131457Y6777111D01*
X5148973Y6769856D01*
X5167934D01*
X5185451Y6777111D01*
X5198858Y6790519D01*
X5206114Y6808035D01*
Y6826996D01*
X5198858Y6844513D01*
X5185451Y6857920D01*
X5167934Y6865176D01*
X5148973D01*
X5138472Y6860826D01*
X5092073Y6907225D01*
X5095961Y6916612D01*
X5113700D01*
X5118049Y6906111D01*
X5131457Y6892704D01*
X5148973Y6885448D01*
X5167934D01*
X5185451Y6892704D01*
X5198858Y6906111D01*
X5206114Y6923628D01*
Y6942588D01*
X5198858Y6960105D01*
X5185451Y6973512D01*
X5167934Y6980768D01*
X5148973D01*
X5131457Y6973512D01*
X5118049Y6960105D01*
X5113700Y6949604D01*
X5078431D01*
X5057846Y6970188D01*
Y7002610D01*
X5053015Y7014274D01*
X4949855Y7117434D01*
X4938191Y7122266D01*
D02*
G37*
G36*
X4575028Y6653660D02*
X4558057D01*
X4542377Y6647165D01*
X4530377Y6635165D01*
X4523882Y6619486D01*
Y6602514D01*
X4530377Y6586835D01*
X4542377Y6574835D01*
X4558057Y6568340D01*
X4575028D01*
X4590707Y6574835D01*
X4602708Y6586835D01*
X4609202Y6602514D01*
Y6619486D01*
X4602708Y6635165D01*
X4590707Y6647165D01*
X4575028Y6653660D01*
D02*
G37*
G36*
X4671542Y6524241D02*
X4561542D01*
X4540020Y6519960D01*
X4521774Y6507768D01*
X4509583Y6489522D01*
X4505301Y6468000D01*
X4509583Y6446478D01*
X4521774Y6428232D01*
X4540020Y6416041D01*
X4561542Y6411759D01*
X4671542D01*
X4693065Y6416041D01*
X4711311Y6428232D01*
X4723502Y6446478D01*
X4727783Y6468000D01*
X4723502Y6489522D01*
X4711311Y6507768D01*
X4693065Y6519960D01*
X4671542Y6524241D01*
D02*
G37*
G36*
X4218542D02*
X4138542D01*
X4117020Y6519960D01*
X4098774Y6507768D01*
X4086583Y6489522D01*
X4082302Y6468000D01*
X4086583Y6446478D01*
X4098774Y6428232D01*
X4117020Y6416041D01*
X4138542Y6411759D01*
X4218542D01*
X4240065Y6416041D01*
X4258311Y6428232D01*
X4270502Y6446478D01*
X4274783Y6468000D01*
X4270502Y6489522D01*
X4258311Y6507768D01*
X4240065Y6519960D01*
X4218542Y6524241D01*
D02*
G37*
G36*
X5192532Y6528666D02*
X5175375D01*
X5158802Y6524226D01*
X5143944Y6515647D01*
X5131812Y6503516D01*
X5123234Y6488657D01*
X5118793Y6472085D01*
Y6454928D01*
X5123234Y6438356D01*
X5131812Y6423497D01*
X5143944Y6411366D01*
X5158802Y6402787D01*
X5175375Y6398347D01*
X5192532D01*
X5209104Y6402787D01*
X5223962Y6411366D01*
X5236094Y6423497D01*
X5244673Y6438356D01*
X5249113Y6454928D01*
Y6472085D01*
X5244673Y6488657D01*
X5236094Y6503516D01*
X5223962Y6515647D01*
X5209104Y6524226D01*
X5192532Y6528666D01*
D02*
G37*
G36*
X1821542Y7388241D02*
X1711542D01*
X1690020Y7383960D01*
X1671774Y7371768D01*
X1659583Y7353523D01*
X1655301Y7332000D01*
X1659583Y7310478D01*
X1671774Y7292232D01*
X1690020Y7280041D01*
X1711542Y7275759D01*
X1821542D01*
X1843065Y7280041D01*
X1861311Y7292232D01*
X1873502Y7310478D01*
X1877783Y7332000D01*
X1873502Y7353523D01*
X1861311Y7371768D01*
X1843065Y7383960D01*
X1821542Y7388241D01*
D02*
G37*
G36*
X1368542D02*
X1288543D01*
X1267020Y7383960D01*
X1248774Y7371768D01*
X1236583Y7353523D01*
X1232302Y7332000D01*
X1236583Y7310478D01*
X1248774Y7292232D01*
X1267020Y7280041D01*
X1288543Y7275759D01*
X1368542D01*
X1390065Y7280041D01*
X1408311Y7292232D01*
X1420502Y7310478D01*
X1424783Y7332000D01*
X1420502Y7353523D01*
X1408311Y7371768D01*
X1390065Y7383960D01*
X1368542Y7388241D01*
D02*
G37*
G36*
X1725028Y7231660D02*
X1708057D01*
X1692377Y7225165D01*
X1680377Y7213165D01*
X1673882Y7197485D01*
Y7180514D01*
X1680377Y7164835D01*
X1692377Y7152835D01*
X1708057Y7146340D01*
X1725028D01*
X1740707Y7152835D01*
X1752708Y7164835D01*
X1759202Y7180514D01*
Y7197485D01*
X1752708Y7213165D01*
X1740707Y7225165D01*
X1725028Y7231660D01*
D02*
G37*
G36*
X2879079Y7028188D02*
X2861921D01*
X2845349Y7023747D01*
X2830491Y7015169D01*
X2818359Y7003037D01*
X2809781Y6988179D01*
X2805340Y6971607D01*
Y6954449D01*
X2809781Y6937877D01*
X2818359Y6923019D01*
X2830491Y6910887D01*
X2845349Y6902309D01*
X2861921Y6897868D01*
X2879079D01*
X2895651Y6902309D01*
X2910509Y6910887D01*
X2922641Y6923019D01*
X2931219Y6937877D01*
X2935660Y6954449D01*
Y6971607D01*
X2931219Y6988179D01*
X2922641Y7003037D01*
X2910509Y7015169D01*
X2895651Y7023747D01*
X2879079Y7028188D01*
D02*
G37*
G36*
X2088191Y7122266D02*
X1868284D01*
X1856620Y7117434D01*
X1742142Y7002956D01*
X1696874D01*
X1692524Y7013457D01*
X1679117Y7026864D01*
X1661600Y7034120D01*
X1642640D01*
X1625123Y7026864D01*
X1611716Y7013457D01*
X1604460Y6995940D01*
Y6976980D01*
X1611716Y6959463D01*
X1625123Y6946056D01*
X1635624Y6941706D01*
Y6916378D01*
X1625123Y6912028D01*
X1611716Y6898621D01*
X1604460Y6881104D01*
Y6862143D01*
X1611716Y6844626D01*
X1625123Y6831219D01*
X1642640Y6823963D01*
X1661600D01*
X1664023Y6824967D01*
X1672231Y6817370D01*
Y6801295D01*
X1679487Y6783778D01*
X1692894Y6770371D01*
X1710411Y6763115D01*
X1729371D01*
X1746888Y6770371D01*
X1760295Y6783778D01*
X1767551Y6801295D01*
Y6820255D01*
X1760295Y6837772D01*
X1746888Y6851179D01*
X1736387Y6855529D01*
Y6883886D01*
X1746888Y6888236D01*
X1760295Y6901643D01*
X1767551Y6919160D01*
Y6938120D01*
X1763201Y6948622D01*
X1883534Y7068954D01*
X2072941D01*
X2154535Y6987361D01*
Y6954939D01*
X2159367Y6943275D01*
X2265144Y6837497D01*
X2260794Y6826996D01*
Y6808035D01*
X2268050Y6790519D01*
X2281457Y6777111D01*
X2298974Y6769856D01*
X2317934D01*
X2335451Y6777111D01*
X2348858Y6790519D01*
X2356114Y6808035D01*
Y6826996D01*
X2348858Y6844513D01*
X2335451Y6857920D01*
X2317934Y6865176D01*
X2298974D01*
X2288472Y6860826D01*
X2242073Y6907225D01*
X2245961Y6916612D01*
X2263700D01*
X2268050Y6906111D01*
X2281457Y6892704D01*
X2298974Y6885448D01*
X2317934D01*
X2335451Y6892704D01*
X2348858Y6906111D01*
X2356114Y6923628D01*
Y6942588D01*
X2348858Y6960105D01*
X2335451Y6973512D01*
X2317934Y6980768D01*
X2298974D01*
X2281457Y6973512D01*
X2268050Y6960105D01*
X2263700Y6949604D01*
X2228431D01*
X2207846Y6970188D01*
Y7002610D01*
X2203015Y7014274D01*
X2099855Y7117434D01*
X2088191Y7122266D01*
D02*
G37*
G36*
X1725028Y6653660D02*
X1708057D01*
X1692377Y6647165D01*
X1680377Y6635165D01*
X1673882Y6619486D01*
Y6602514D01*
X1680377Y6586835D01*
X1692377Y6574835D01*
X1708057Y6568340D01*
X1725028D01*
X1740707Y6574835D01*
X1752708Y6586835D01*
X1759202Y6602514D01*
Y6619486D01*
X1752708Y6635165D01*
X1740707Y6647165D01*
X1725028Y6653660D01*
D02*
G37*
G36*
X1821542Y6524241D02*
X1711542D01*
X1690020Y6519960D01*
X1671774Y6507768D01*
X1659583Y6489522D01*
X1655301Y6468000D01*
X1659583Y6446478D01*
X1671774Y6428232D01*
X1690020Y6416041D01*
X1711542Y6411759D01*
X1821542D01*
X1843065Y6416041D01*
X1861311Y6428232D01*
X1873502Y6446478D01*
X1877783Y6468000D01*
X1873502Y6489522D01*
X1861311Y6507768D01*
X1843065Y6519960D01*
X1821542Y6524241D01*
D02*
G37*
G36*
X1368542D02*
X1288543D01*
X1267020Y6519960D01*
X1248774Y6507768D01*
X1236583Y6489522D01*
X1232302Y6468000D01*
X1236583Y6446478D01*
X1248774Y6428232D01*
X1267020Y6416041D01*
X1288543Y6411759D01*
X1368542D01*
X1390065Y6416041D01*
X1408311Y6428232D01*
X1420502Y6446478D01*
X1424783Y6468000D01*
X1420502Y6489522D01*
X1408311Y6507768D01*
X1390065Y6519960D01*
X1368542Y6524241D01*
D02*
G37*
G36*
X2342532Y6528666D02*
X2325375D01*
X2308803Y6524226D01*
X2293944Y6515647D01*
X2281813Y6503516D01*
X2273234Y6488657D01*
X2268794Y6472085D01*
Y6454928D01*
X2273234Y6438356D01*
X2281813Y6423497D01*
X2293944Y6411366D01*
X2308803Y6402787D01*
X2325375Y6398347D01*
X2342532D01*
X2359104Y6402787D01*
X2373962Y6411366D01*
X2386094Y6423497D01*
X2394673Y6438356D01*
X2399113Y6454928D01*
Y6472085D01*
X2394673Y6488657D01*
X2386094Y6503516D01*
X2373962Y6515647D01*
X2359104Y6524226D01*
X2342532Y6528666D01*
D02*
G37*
G36*
X7521542Y5488241D02*
X7411542D01*
X7390020Y5483960D01*
X7371774Y5471768D01*
X7359582Y5453522D01*
X7355301Y5432000D01*
X7359582Y5410478D01*
X7371774Y5392232D01*
X7390020Y5380041D01*
X7411542Y5375759D01*
X7521542D01*
X7543065Y5380041D01*
X7561311Y5392232D01*
X7573502Y5410478D01*
X7577783Y5432000D01*
X7573502Y5453522D01*
X7561311Y5471768D01*
X7543065Y5483960D01*
X7521542Y5488241D01*
D02*
G37*
G36*
X7068542D02*
X6988542D01*
X6967020Y5483960D01*
X6948774Y5471768D01*
X6936583Y5453522D01*
X6932302Y5432000D01*
X6936583Y5410478D01*
X6948774Y5392232D01*
X6967020Y5380041D01*
X6988542Y5375759D01*
X7068542D01*
X7090065Y5380041D01*
X7108310Y5392232D01*
X7120502Y5410478D01*
X7124783Y5432000D01*
X7120502Y5453522D01*
X7108310Y5471768D01*
X7090065Y5483960D01*
X7068542Y5488241D01*
D02*
G37*
G36*
X7425028Y5331660D02*
X7408057D01*
X7392377Y5325165D01*
X7380377Y5313165D01*
X7373882Y5297485D01*
Y5280514D01*
X7380377Y5264835D01*
X7392377Y5252835D01*
X7408057Y5246340D01*
X7425028D01*
X7440707Y5252835D01*
X7452707Y5264835D01*
X7459202Y5280514D01*
Y5297485D01*
X7452707Y5313165D01*
X7440707Y5325165D01*
X7425028Y5331660D01*
D02*
G37*
G36*
X8579078Y5128188D02*
X8561921D01*
X8545349Y5123747D01*
X8530491Y5115169D01*
X8518359Y5103037D01*
X8509780Y5088179D01*
X8505340Y5071607D01*
Y5054449D01*
X8509780Y5037877D01*
X8518359Y5023019D01*
X8530491Y5010887D01*
X8545349Y5002309D01*
X8561921Y4997868D01*
X8579078D01*
X8595651Y5002309D01*
X8610509Y5010887D01*
X8622641Y5023019D01*
X8631219Y5037877D01*
X8635660Y5054449D01*
Y5071607D01*
X8631219Y5088179D01*
X8622641Y5103037D01*
X8610509Y5115169D01*
X8595651Y5123747D01*
X8579078Y5128188D01*
D02*
G37*
G36*
X7788191Y5222266D02*
X7568284D01*
X7556620Y5217434D01*
X7442142Y5102956D01*
X7396874D01*
X7392524Y5113457D01*
X7379117Y5126864D01*
X7361600Y5134120D01*
X7342639D01*
X7325123Y5126864D01*
X7311715Y5113457D01*
X7304460Y5095940D01*
Y5076980D01*
X7311715Y5059463D01*
X7325123Y5046056D01*
X7335624Y5041706D01*
Y5016378D01*
X7325123Y5012028D01*
X7311715Y4998621D01*
X7304460Y4981104D01*
Y4962143D01*
X7311715Y4944626D01*
X7325123Y4931219D01*
X7342639Y4923963D01*
X7361600D01*
X7364022Y4924967D01*
X7372231Y4917370D01*
Y4901295D01*
X7379487Y4883778D01*
X7392894Y4870371D01*
X7410411Y4863115D01*
X7429371D01*
X7446888Y4870371D01*
X7460295Y4883778D01*
X7467551Y4901295D01*
Y4920255D01*
X7460295Y4937772D01*
X7446888Y4951179D01*
X7436387Y4955529D01*
Y4983886D01*
X7446888Y4988236D01*
X7460295Y5001643D01*
X7467551Y5019160D01*
Y5038120D01*
X7463201Y5048622D01*
X7583534Y5168954D01*
X7772941D01*
X7854535Y5087361D01*
Y5054939D01*
X7859366Y5043275D01*
X7965143Y4937497D01*
X7960794Y4926996D01*
Y4908035D01*
X7968049Y4890519D01*
X7981456Y4877111D01*
X7998973Y4869856D01*
X8017934D01*
X8035451Y4877111D01*
X8048858Y4890519D01*
X8056114Y4908035D01*
Y4926996D01*
X8048858Y4944513D01*
X8035451Y4957920D01*
X8017934Y4965176D01*
X7998973D01*
X7988472Y4960826D01*
X7942073Y5007225D01*
X7945961Y5016612D01*
X7963700D01*
X7968049Y5006111D01*
X7981456Y4992704D01*
X7998973Y4985448D01*
X8017934D01*
X8035451Y4992704D01*
X8048858Y5006111D01*
X8056114Y5023627D01*
Y5042588D01*
X8048858Y5060105D01*
X8035451Y5073512D01*
X8017934Y5080768D01*
X7998973D01*
X7981456Y5073512D01*
X7968049Y5060105D01*
X7963700Y5049604D01*
X7928431D01*
X7907846Y5070188D01*
Y5102610D01*
X7903015Y5114274D01*
X7799855Y5217434D01*
X7788191Y5222266D01*
D02*
G37*
G36*
X7425028Y4753660D02*
X7408057D01*
X7392377Y4747165D01*
X7380377Y4735165D01*
X7373882Y4719486D01*
Y4702514D01*
X7380377Y4686835D01*
X7392377Y4674835D01*
X7408057Y4668340D01*
X7425028D01*
X7440707Y4674835D01*
X7452707Y4686835D01*
X7459202Y4702514D01*
Y4719486D01*
X7452707Y4735165D01*
X7440707Y4747165D01*
X7425028Y4753660D01*
D02*
G37*
G36*
X7521542Y4624241D02*
X7411542D01*
X7390020Y4619960D01*
X7371774Y4607768D01*
X7359582Y4589522D01*
X7355301Y4568000D01*
X7359582Y4546478D01*
X7371774Y4528232D01*
X7390020Y4516040D01*
X7411542Y4511759D01*
X7521542D01*
X7543065Y4516040D01*
X7561311Y4528232D01*
X7573502Y4546478D01*
X7577783Y4568000D01*
X7573502Y4589522D01*
X7561311Y4607768D01*
X7543065Y4619960D01*
X7521542Y4624241D01*
D02*
G37*
G36*
X7068542D02*
X6988542D01*
X6967020Y4619960D01*
X6948774Y4607768D01*
X6936583Y4589522D01*
X6932302Y4568000D01*
X6936583Y4546478D01*
X6948774Y4528232D01*
X6967020Y4516040D01*
X6988542Y4511759D01*
X7068542D01*
X7090065Y4516040D01*
X7108310Y4528232D01*
X7120502Y4546478D01*
X7124783Y4568000D01*
X7120502Y4589522D01*
X7108310Y4607768D01*
X7090065Y4619960D01*
X7068542Y4624241D01*
D02*
G37*
G36*
X8042532Y4628666D02*
X8025375D01*
X8008802Y4624226D01*
X7993944Y4615647D01*
X7981812Y4603516D01*
X7973234Y4588657D01*
X7968793Y4572085D01*
Y4554928D01*
X7973234Y4538356D01*
X7981812Y4523497D01*
X7993944Y4511366D01*
X8008802Y4502787D01*
X8025375Y4498347D01*
X8042532D01*
X8059104Y4502787D01*
X8073962Y4511366D01*
X8086094Y4523497D01*
X8094673Y4538356D01*
X8099113Y4554928D01*
Y4572085D01*
X8094673Y4588657D01*
X8086094Y4603516D01*
X8073962Y4615647D01*
X8059104Y4624226D01*
X8042532Y4628666D01*
D02*
G37*
G36*
X4671542Y5488241D02*
X4561542D01*
X4540020Y5483960D01*
X4521774Y5471768D01*
X4509583Y5453522D01*
X4505301Y5432000D01*
X4509583Y5410478D01*
X4521774Y5392232D01*
X4540020Y5380041D01*
X4561542Y5375759D01*
X4671542D01*
X4693065Y5380041D01*
X4711311Y5392232D01*
X4723502Y5410478D01*
X4727783Y5432000D01*
X4723502Y5453522D01*
X4711311Y5471768D01*
X4693065Y5483960D01*
X4671542Y5488241D01*
D02*
G37*
G36*
X4218542D02*
X4138542D01*
X4117020Y5483960D01*
X4098774Y5471768D01*
X4086583Y5453522D01*
X4082302Y5432000D01*
X4086583Y5410478D01*
X4098774Y5392232D01*
X4117020Y5380041D01*
X4138542Y5375759D01*
X4218542D01*
X4240065Y5380041D01*
X4258311Y5392232D01*
X4270502Y5410478D01*
X4274783Y5432000D01*
X4270502Y5453522D01*
X4258311Y5471768D01*
X4240065Y5483960D01*
X4218542Y5488241D01*
D02*
G37*
G36*
X4575028Y5331660D02*
X4558057D01*
X4542377Y5325165D01*
X4530377Y5313165D01*
X4523882Y5297485D01*
Y5280514D01*
X4530377Y5264835D01*
X4542377Y5252835D01*
X4558057Y5246340D01*
X4575028D01*
X4590707Y5252835D01*
X4602708Y5264835D01*
X4609202Y5280514D01*
Y5297485D01*
X4602708Y5313165D01*
X4590707Y5325165D01*
X4575028Y5331660D01*
D02*
G37*
G36*
X5729078Y5128188D02*
X5711921D01*
X5695349Y5123747D01*
X5680491Y5115169D01*
X5668359Y5103037D01*
X5659780Y5088179D01*
X5655340Y5071607D01*
Y5054449D01*
X5659780Y5037877D01*
X5668359Y5023019D01*
X5680491Y5010887D01*
X5695349Y5002309D01*
X5711921Y4997868D01*
X5729078D01*
X5745651Y5002309D01*
X5760509Y5010887D01*
X5772641Y5023019D01*
X5781219Y5037877D01*
X5785660Y5054449D01*
Y5071607D01*
X5781219Y5088179D01*
X5772641Y5103037D01*
X5760509Y5115169D01*
X5745651Y5123747D01*
X5729078Y5128188D01*
D02*
G37*
G36*
X4938191Y5222266D02*
X4718284D01*
X4706620Y5217434D01*
X4592142Y5102956D01*
X4546874D01*
X4542524Y5113457D01*
X4529117Y5126864D01*
X4511600Y5134120D01*
X4492639D01*
X4475123Y5126864D01*
X4461715Y5113457D01*
X4454460Y5095940D01*
Y5076980D01*
X4461715Y5059463D01*
X4475123Y5046056D01*
X4485624Y5041706D01*
Y5016378D01*
X4475123Y5012028D01*
X4461715Y4998621D01*
X4454460Y4981104D01*
Y4962143D01*
X4461715Y4944626D01*
X4475123Y4931219D01*
X4492639Y4923963D01*
X4511600D01*
X4514022Y4924967D01*
X4522231Y4917370D01*
Y4901295D01*
X4529487Y4883778D01*
X4542894Y4870371D01*
X4560411Y4863115D01*
X4579371D01*
X4596888Y4870371D01*
X4610295Y4883778D01*
X4617551Y4901295D01*
Y4920255D01*
X4610295Y4937772D01*
X4596888Y4951179D01*
X4586387Y4955529D01*
Y4983886D01*
X4596888Y4988236D01*
X4610295Y5001643D01*
X4617551Y5019160D01*
Y5038120D01*
X4613201Y5048622D01*
X4733534Y5168954D01*
X4922941D01*
X5004535Y5087361D01*
Y5054939D01*
X5009366Y5043275D01*
X5115143Y4937497D01*
X5110794Y4926996D01*
Y4908035D01*
X5118049Y4890519D01*
X5131457Y4877111D01*
X5148973Y4869856D01*
X5167934D01*
X5185451Y4877111D01*
X5198858Y4890519D01*
X5206114Y4908035D01*
Y4926996D01*
X5198858Y4944513D01*
X5185451Y4957920D01*
X5167934Y4965176D01*
X5148973D01*
X5138472Y4960826D01*
X5092073Y5007225D01*
X5095961Y5016612D01*
X5113700D01*
X5118049Y5006111D01*
X5131457Y4992704D01*
X5148973Y4985448D01*
X5167934D01*
X5185451Y4992704D01*
X5198858Y5006111D01*
X5206114Y5023627D01*
Y5042588D01*
X5198858Y5060105D01*
X5185451Y5073512D01*
X5167934Y5080768D01*
X5148973D01*
X5131457Y5073512D01*
X5118049Y5060105D01*
X5113700Y5049604D01*
X5078431D01*
X5057846Y5070188D01*
Y5102610D01*
X5053015Y5114274D01*
X4949855Y5217434D01*
X4938191Y5222266D01*
D02*
G37*
G36*
X4575028Y4753660D02*
X4558057D01*
X4542377Y4747165D01*
X4530377Y4735165D01*
X4523882Y4719486D01*
Y4702514D01*
X4530377Y4686835D01*
X4542377Y4674835D01*
X4558057Y4668340D01*
X4575028D01*
X4590707Y4674835D01*
X4602708Y4686835D01*
X4609202Y4702514D01*
Y4719486D01*
X4602708Y4735165D01*
X4590707Y4747165D01*
X4575028Y4753660D01*
D02*
G37*
G36*
X4671542Y4624241D02*
X4561542D01*
X4540020Y4619960D01*
X4521774Y4607768D01*
X4509583Y4589522D01*
X4505301Y4568000D01*
X4509583Y4546478D01*
X4521774Y4528232D01*
X4540020Y4516040D01*
X4561542Y4511759D01*
X4671542D01*
X4693065Y4516040D01*
X4711311Y4528232D01*
X4723502Y4546478D01*
X4727783Y4568000D01*
X4723502Y4589522D01*
X4711311Y4607768D01*
X4693065Y4619960D01*
X4671542Y4624241D01*
D02*
G37*
G36*
X4218542D02*
X4138542D01*
X4117020Y4619960D01*
X4098774Y4607768D01*
X4086583Y4589522D01*
X4082302Y4568000D01*
X4086583Y4546478D01*
X4098774Y4528232D01*
X4117020Y4516040D01*
X4138542Y4511759D01*
X4218542D01*
X4240065Y4516040D01*
X4258311Y4528232D01*
X4270502Y4546478D01*
X4274783Y4568000D01*
X4270502Y4589522D01*
X4258311Y4607768D01*
X4240065Y4619960D01*
X4218542Y4624241D01*
D02*
G37*
G36*
X5192532Y4628666D02*
X5175375D01*
X5158802Y4624226D01*
X5143944Y4615647D01*
X5131812Y4603516D01*
X5123234Y4588657D01*
X5118793Y4572085D01*
Y4554928D01*
X5123234Y4538356D01*
X5131812Y4523497D01*
X5143944Y4511366D01*
X5158802Y4502787D01*
X5175375Y4498347D01*
X5192532D01*
X5209104Y4502787D01*
X5223962Y4511366D01*
X5236094Y4523497D01*
X5244673Y4538356D01*
X5249113Y4554928D01*
Y4572085D01*
X5244673Y4588657D01*
X5236094Y4603516D01*
X5223962Y4615647D01*
X5209104Y4624226D01*
X5192532Y4628666D01*
D02*
G37*
G36*
X1821542Y5488241D02*
X1711542D01*
X1690020Y5483960D01*
X1671774Y5471768D01*
X1659583Y5453522D01*
X1655301Y5432000D01*
X1659583Y5410478D01*
X1671774Y5392232D01*
X1690020Y5380041D01*
X1711542Y5375759D01*
X1821542D01*
X1843065Y5380041D01*
X1861311Y5392232D01*
X1873502Y5410478D01*
X1877783Y5432000D01*
X1873502Y5453522D01*
X1861311Y5471768D01*
X1843065Y5483960D01*
X1821542Y5488241D01*
D02*
G37*
G36*
X1368542D02*
X1288543D01*
X1267020Y5483960D01*
X1248774Y5471768D01*
X1236583Y5453522D01*
X1232302Y5432000D01*
X1236583Y5410478D01*
X1248774Y5392232D01*
X1267020Y5380041D01*
X1288543Y5375759D01*
X1368542D01*
X1390065Y5380041D01*
X1408311Y5392232D01*
X1420502Y5410478D01*
X1424783Y5432000D01*
X1420502Y5453522D01*
X1408311Y5471768D01*
X1390065Y5483960D01*
X1368542Y5488241D01*
D02*
G37*
G36*
X1725028Y5331660D02*
X1708057D01*
X1692377Y5325165D01*
X1680377Y5313165D01*
X1673882Y5297485D01*
Y5280514D01*
X1680377Y5264835D01*
X1692377Y5252835D01*
X1708057Y5246340D01*
X1725028D01*
X1740707Y5252835D01*
X1752708Y5264835D01*
X1759202Y5280514D01*
Y5297485D01*
X1752708Y5313165D01*
X1740707Y5325165D01*
X1725028Y5331660D01*
D02*
G37*
G36*
X2879079Y5128188D02*
X2861921D01*
X2845349Y5123747D01*
X2830491Y5115169D01*
X2818359Y5103037D01*
X2809781Y5088179D01*
X2805340Y5071607D01*
Y5054449D01*
X2809781Y5037877D01*
X2818359Y5023019D01*
X2830491Y5010887D01*
X2845349Y5002309D01*
X2861921Y4997868D01*
X2879079D01*
X2895651Y5002309D01*
X2910509Y5010887D01*
X2922641Y5023019D01*
X2931219Y5037877D01*
X2935660Y5054449D01*
Y5071607D01*
X2931219Y5088179D01*
X2922641Y5103037D01*
X2910509Y5115169D01*
X2895651Y5123747D01*
X2879079Y5128188D01*
D02*
G37*
G36*
X2088191Y5222266D02*
X1868284D01*
X1856620Y5217434D01*
X1742142Y5102956D01*
X1696874D01*
X1692524Y5113457D01*
X1679117Y5126864D01*
X1661600Y5134120D01*
X1642640D01*
X1625123Y5126864D01*
X1611716Y5113457D01*
X1604460Y5095940D01*
Y5076980D01*
X1611716Y5059463D01*
X1625123Y5046056D01*
X1635624Y5041706D01*
Y5016378D01*
X1625123Y5012028D01*
X1611716Y4998621D01*
X1604460Y4981104D01*
Y4962143D01*
X1611716Y4944626D01*
X1625123Y4931219D01*
X1642640Y4923963D01*
X1661600D01*
X1664023Y4924967D01*
X1672231Y4917370D01*
Y4901295D01*
X1679487Y4883778D01*
X1692894Y4870371D01*
X1710411Y4863115D01*
X1729371D01*
X1746888Y4870371D01*
X1760295Y4883778D01*
X1767551Y4901295D01*
Y4920255D01*
X1760295Y4937772D01*
X1746888Y4951179D01*
X1736387Y4955529D01*
Y4983886D01*
X1746888Y4988236D01*
X1760295Y5001643D01*
X1767551Y5019160D01*
Y5038120D01*
X1763201Y5048622D01*
X1883534Y5168954D01*
X2072941D01*
X2154535Y5087361D01*
Y5054939D01*
X2159367Y5043275D01*
X2265144Y4937497D01*
X2260794Y4926996D01*
Y4908035D01*
X2268050Y4890519D01*
X2281457Y4877111D01*
X2298974Y4869856D01*
X2317934D01*
X2335451Y4877111D01*
X2348858Y4890519D01*
X2356114Y4908035D01*
Y4926996D01*
X2348858Y4944513D01*
X2335451Y4957920D01*
X2317934Y4965176D01*
X2298974D01*
X2288472Y4960826D01*
X2242073Y5007225D01*
X2245961Y5016612D01*
X2263700D01*
X2268050Y5006111D01*
X2281457Y4992704D01*
X2298974Y4985448D01*
X2317934D01*
X2335451Y4992704D01*
X2348858Y5006111D01*
X2356114Y5023627D01*
Y5042588D01*
X2348858Y5060105D01*
X2335451Y5073512D01*
X2317934Y5080768D01*
X2298974D01*
X2281457Y5073512D01*
X2268050Y5060105D01*
X2263700Y5049604D01*
X2228431D01*
X2207846Y5070188D01*
Y5102610D01*
X2203015Y5114274D01*
X2099855Y5217434D01*
X2088191Y5222266D01*
D02*
G37*
G36*
X1725028Y4753660D02*
X1708057D01*
X1692377Y4747165D01*
X1680377Y4735165D01*
X1673882Y4719486D01*
Y4702514D01*
X1680377Y4686835D01*
X1692377Y4674835D01*
X1708057Y4668340D01*
X1725028D01*
X1740707Y4674835D01*
X1752708Y4686835D01*
X1759202Y4702514D01*
Y4719486D01*
X1752708Y4735165D01*
X1740707Y4747165D01*
X1725028Y4753660D01*
D02*
G37*
G36*
X1821542Y4624241D02*
X1711542D01*
X1690020Y4619960D01*
X1671774Y4607768D01*
X1659583Y4589522D01*
X1655301Y4568000D01*
X1659583Y4546478D01*
X1671774Y4528232D01*
X1690020Y4516040D01*
X1711542Y4511759D01*
X1821542D01*
X1843065Y4516040D01*
X1861311Y4528232D01*
X1873502Y4546478D01*
X1877783Y4568000D01*
X1873502Y4589522D01*
X1861311Y4607768D01*
X1843065Y4619960D01*
X1821542Y4624241D01*
D02*
G37*
G36*
X1368542D02*
X1288543D01*
X1267020Y4619960D01*
X1248774Y4607768D01*
X1236583Y4589522D01*
X1232302Y4568000D01*
X1236583Y4546478D01*
X1248774Y4528232D01*
X1267020Y4516040D01*
X1288543Y4511759D01*
X1368542D01*
X1390065Y4516040D01*
X1408311Y4528232D01*
X1420502Y4546478D01*
X1424783Y4568000D01*
X1420502Y4589522D01*
X1408311Y4607768D01*
X1390065Y4619960D01*
X1368542Y4624241D01*
D02*
G37*
G36*
X2342532Y4628666D02*
X2325375D01*
X2308803Y4624226D01*
X2293944Y4615647D01*
X2281813Y4603516D01*
X2273234Y4588657D01*
X2268794Y4572085D01*
Y4554928D01*
X2273234Y4538356D01*
X2281813Y4523497D01*
X2293944Y4511366D01*
X2308803Y4502787D01*
X2325375Y4498347D01*
X2342532D01*
X2359104Y4502787D01*
X2373962Y4511366D01*
X2386094Y4523497D01*
X2394673Y4538356D01*
X2399113Y4554928D01*
Y4572085D01*
X2394673Y4588657D01*
X2386094Y4603516D01*
X2373962Y4615647D01*
X2359104Y4624226D01*
X2342532Y4628666D01*
D02*
G37*
G36*
X7521542Y3588241D02*
X7411542D01*
X7390020Y3583960D01*
X7371774Y3571768D01*
X7359582Y3553522D01*
X7355301Y3532000D01*
X7359582Y3510478D01*
X7371774Y3492232D01*
X7390020Y3480041D01*
X7411542Y3475759D01*
X7521542D01*
X7543065Y3480041D01*
X7561311Y3492232D01*
X7573502Y3510478D01*
X7577783Y3532000D01*
X7573502Y3553522D01*
X7561311Y3571768D01*
X7543065Y3583960D01*
X7521542Y3588241D01*
D02*
G37*
G36*
X7068542D02*
X6988542D01*
X6967020Y3583960D01*
X6948774Y3571768D01*
X6936583Y3553522D01*
X6932302Y3532000D01*
X6936583Y3510478D01*
X6948774Y3492232D01*
X6967020Y3480041D01*
X6988542Y3475759D01*
X7068542D01*
X7090065Y3480041D01*
X7108310Y3492232D01*
X7120502Y3510478D01*
X7124783Y3532000D01*
X7120502Y3553522D01*
X7108310Y3571768D01*
X7090065Y3583960D01*
X7068542Y3588241D01*
D02*
G37*
G36*
X7425028Y3431660D02*
X7408057D01*
X7392377Y3425165D01*
X7380377Y3413165D01*
X7373882Y3397485D01*
Y3380514D01*
X7380377Y3364835D01*
X7392377Y3352835D01*
X7408057Y3346340D01*
X7425028D01*
X7440707Y3352835D01*
X7452707Y3364835D01*
X7459202Y3380514D01*
Y3397485D01*
X7452707Y3413165D01*
X7440707Y3425165D01*
X7425028Y3431660D01*
D02*
G37*
G36*
X8579078Y3228188D02*
X8561921D01*
X8545349Y3223747D01*
X8530491Y3215169D01*
X8518359Y3203037D01*
X8509780Y3188179D01*
X8505340Y3171607D01*
Y3154449D01*
X8509780Y3137877D01*
X8518359Y3123019D01*
X8530491Y3110887D01*
X8545349Y3102309D01*
X8561921Y3097868D01*
X8579078D01*
X8595651Y3102309D01*
X8610509Y3110887D01*
X8622641Y3123019D01*
X8631219Y3137877D01*
X8635660Y3154449D01*
Y3171607D01*
X8631219Y3188179D01*
X8622641Y3203037D01*
X8610509Y3215169D01*
X8595651Y3223747D01*
X8579078Y3228188D01*
D02*
G37*
G36*
X7788191Y3322266D02*
X7568284D01*
X7556620Y3317434D01*
X7442142Y3202956D01*
X7396874D01*
X7392524Y3213457D01*
X7379117Y3226864D01*
X7361600Y3234120D01*
X7342639D01*
X7325123Y3226864D01*
X7311715Y3213457D01*
X7304460Y3195940D01*
Y3176980D01*
X7311715Y3159463D01*
X7325123Y3146056D01*
X7335624Y3141706D01*
Y3116378D01*
X7325123Y3112028D01*
X7311715Y3098621D01*
X7304460Y3081104D01*
Y3062143D01*
X7311715Y3044626D01*
X7325123Y3031219D01*
X7342639Y3023963D01*
X7361600D01*
X7364022Y3024967D01*
X7372231Y3017370D01*
Y3001295D01*
X7379487Y2983778D01*
X7392894Y2970371D01*
X7410411Y2963115D01*
X7429371D01*
X7446888Y2970371D01*
X7460295Y2983778D01*
X7467551Y3001295D01*
Y3020255D01*
X7460295Y3037772D01*
X7446888Y3051179D01*
X7436387Y3055529D01*
Y3083886D01*
X7446888Y3088236D01*
X7460295Y3101643D01*
X7467551Y3119160D01*
Y3138120D01*
X7463201Y3148622D01*
X7583534Y3268954D01*
X7772941D01*
X7854535Y3187361D01*
Y3154939D01*
X7859366Y3143275D01*
X7965143Y3037497D01*
X7960794Y3026996D01*
Y3008035D01*
X7968049Y2990519D01*
X7981456Y2977111D01*
X7998973Y2969856D01*
X8017934D01*
X8035451Y2977111D01*
X8048858Y2990519D01*
X8056114Y3008035D01*
Y3026996D01*
X8048858Y3044513D01*
X8035451Y3057920D01*
X8017934Y3065176D01*
X7998973D01*
X7988472Y3060826D01*
X7942073Y3107225D01*
X7945961Y3116612D01*
X7963700D01*
X7968049Y3106111D01*
X7981456Y3092703D01*
X7998973Y3085448D01*
X8017934D01*
X8035451Y3092703D01*
X8048858Y3106111D01*
X8056114Y3123627D01*
Y3142588D01*
X8048858Y3160105D01*
X8035451Y3173512D01*
X8017934Y3180768D01*
X7998973D01*
X7981456Y3173512D01*
X7968049Y3160105D01*
X7963700Y3149604D01*
X7928431D01*
X7907846Y3170188D01*
Y3202610D01*
X7903015Y3214274D01*
X7799855Y3317434D01*
X7788191Y3322266D01*
D02*
G37*
G36*
X7425028Y2853660D02*
X7408057D01*
X7392377Y2847165D01*
X7380377Y2835165D01*
X7373882Y2819486D01*
Y2802514D01*
X7380377Y2786835D01*
X7392377Y2774835D01*
X7408057Y2768340D01*
X7425028D01*
X7440707Y2774835D01*
X7452707Y2786835D01*
X7459202Y2802514D01*
Y2819486D01*
X7452707Y2835165D01*
X7440707Y2847165D01*
X7425028Y2853660D01*
D02*
G37*
G36*
X7521542Y2724241D02*
X7411542D01*
X7390020Y2719960D01*
X7371774Y2707768D01*
X7359582Y2689522D01*
X7355301Y2668000D01*
X7359582Y2646478D01*
X7371774Y2628232D01*
X7390020Y2616040D01*
X7411542Y2611759D01*
X7521542D01*
X7543065Y2616040D01*
X7561311Y2628232D01*
X7573502Y2646478D01*
X7577783Y2668000D01*
X7573502Y2689522D01*
X7561311Y2707768D01*
X7543065Y2719960D01*
X7521542Y2724241D01*
D02*
G37*
G36*
X7068542D02*
X6988542D01*
X6967020Y2719960D01*
X6948774Y2707768D01*
X6936583Y2689522D01*
X6932302Y2668000D01*
X6936583Y2646478D01*
X6948774Y2628232D01*
X6967020Y2616040D01*
X6988542Y2611759D01*
X7068542D01*
X7090065Y2616040D01*
X7108310Y2628232D01*
X7120502Y2646478D01*
X7124783Y2668000D01*
X7120502Y2689522D01*
X7108310Y2707768D01*
X7090065Y2719960D01*
X7068542Y2724241D01*
D02*
G37*
G36*
X8042532Y2728666D02*
X8025375D01*
X8008802Y2724226D01*
X7993944Y2715647D01*
X7981812Y2703516D01*
X7973234Y2688657D01*
X7968793Y2672085D01*
Y2654928D01*
X7973234Y2638356D01*
X7981812Y2623497D01*
X7993944Y2611366D01*
X8008802Y2602787D01*
X8025375Y2598347D01*
X8042532D01*
X8059104Y2602787D01*
X8073962Y2611366D01*
X8086094Y2623497D01*
X8094673Y2638356D01*
X8099113Y2654928D01*
Y2672085D01*
X8094673Y2688657D01*
X8086094Y2703516D01*
X8073962Y2715647D01*
X8059104Y2724226D01*
X8042532Y2728666D01*
D02*
G37*
G36*
X4671542Y3588241D02*
X4561542D01*
X4540020Y3583960D01*
X4521774Y3571768D01*
X4509583Y3553522D01*
X4505301Y3532000D01*
X4509583Y3510478D01*
X4521774Y3492232D01*
X4540020Y3480041D01*
X4561542Y3475759D01*
X4671542D01*
X4693065Y3480041D01*
X4711311Y3492232D01*
X4723502Y3510478D01*
X4727783Y3532000D01*
X4723502Y3553522D01*
X4711311Y3571768D01*
X4693065Y3583960D01*
X4671542Y3588241D01*
D02*
G37*
G36*
X4218542D02*
X4138542D01*
X4117020Y3583960D01*
X4098774Y3571768D01*
X4086583Y3553522D01*
X4082302Y3532000D01*
X4086583Y3510478D01*
X4098774Y3492232D01*
X4117020Y3480041D01*
X4138542Y3475759D01*
X4218542D01*
X4240065Y3480041D01*
X4258311Y3492232D01*
X4270502Y3510478D01*
X4274783Y3532000D01*
X4270502Y3553522D01*
X4258311Y3571768D01*
X4240065Y3583960D01*
X4218542Y3588241D01*
D02*
G37*
G36*
X4575028Y3431660D02*
X4558057D01*
X4542377Y3425165D01*
X4530377Y3413165D01*
X4523882Y3397485D01*
Y3380514D01*
X4530377Y3364835D01*
X4542377Y3352835D01*
X4558057Y3346340D01*
X4575028D01*
X4590707Y3352835D01*
X4602708Y3364835D01*
X4609202Y3380514D01*
Y3397485D01*
X4602708Y3413165D01*
X4590707Y3425165D01*
X4575028Y3431660D01*
D02*
G37*
G36*
X5729078Y3228188D02*
X5711921D01*
X5695349Y3223747D01*
X5680491Y3215169D01*
X5668359Y3203037D01*
X5659780Y3188179D01*
X5655340Y3171607D01*
Y3154449D01*
X5659780Y3137877D01*
X5668359Y3123019D01*
X5680491Y3110887D01*
X5695349Y3102309D01*
X5711921Y3097868D01*
X5729078D01*
X5745651Y3102309D01*
X5760509Y3110887D01*
X5772641Y3123019D01*
X5781219Y3137877D01*
X5785660Y3154449D01*
Y3171607D01*
X5781219Y3188179D01*
X5772641Y3203037D01*
X5760509Y3215169D01*
X5745651Y3223747D01*
X5729078Y3228188D01*
D02*
G37*
G36*
X4938191Y3322266D02*
X4718284D01*
X4706620Y3317434D01*
X4592142Y3202956D01*
X4546874D01*
X4542524Y3213457D01*
X4529117Y3226864D01*
X4511600Y3234120D01*
X4492639D01*
X4475123Y3226864D01*
X4461715Y3213457D01*
X4454460Y3195940D01*
Y3176980D01*
X4461715Y3159463D01*
X4475123Y3146056D01*
X4485624Y3141706D01*
Y3116378D01*
X4475123Y3112028D01*
X4461715Y3098621D01*
X4454460Y3081104D01*
Y3062143D01*
X4461715Y3044626D01*
X4475123Y3031219D01*
X4492639Y3023963D01*
X4511600D01*
X4514022Y3024967D01*
X4522231Y3017370D01*
Y3001295D01*
X4529487Y2983778D01*
X4542894Y2970371D01*
X4560411Y2963115D01*
X4579371D01*
X4596888Y2970371D01*
X4610295Y2983778D01*
X4617551Y3001295D01*
Y3020255D01*
X4610295Y3037772D01*
X4596888Y3051179D01*
X4586387Y3055529D01*
Y3083886D01*
X4596888Y3088236D01*
X4610295Y3101643D01*
X4617551Y3119160D01*
Y3138120D01*
X4613201Y3148622D01*
X4733534Y3268954D01*
X4922941D01*
X5004535Y3187361D01*
Y3154939D01*
X5009366Y3143275D01*
X5115143Y3037497D01*
X5110794Y3026996D01*
Y3008035D01*
X5118049Y2990519D01*
X5131457Y2977111D01*
X5148973Y2969856D01*
X5167934D01*
X5185451Y2977111D01*
X5198858Y2990519D01*
X5206114Y3008035D01*
Y3026996D01*
X5198858Y3044513D01*
X5185451Y3057920D01*
X5167934Y3065176D01*
X5148973D01*
X5138472Y3060826D01*
X5092073Y3107225D01*
X5095961Y3116612D01*
X5113700D01*
X5118049Y3106111D01*
X5131457Y3092703D01*
X5148973Y3085448D01*
X5167934D01*
X5185451Y3092703D01*
X5198858Y3106111D01*
X5206114Y3123627D01*
Y3142588D01*
X5198858Y3160105D01*
X5185451Y3173512D01*
X5167934Y3180768D01*
X5148973D01*
X5131457Y3173512D01*
X5118049Y3160105D01*
X5113700Y3149604D01*
X5078431D01*
X5057846Y3170188D01*
Y3202610D01*
X5053015Y3214274D01*
X4949855Y3317434D01*
X4938191Y3322266D01*
D02*
G37*
G36*
X4575028Y2853660D02*
X4558057D01*
X4542377Y2847165D01*
X4530377Y2835165D01*
X4523882Y2819486D01*
Y2802514D01*
X4530377Y2786835D01*
X4542377Y2774835D01*
X4558057Y2768340D01*
X4575028D01*
X4590707Y2774835D01*
X4602708Y2786835D01*
X4609202Y2802514D01*
Y2819486D01*
X4602708Y2835165D01*
X4590707Y2847165D01*
X4575028Y2853660D01*
D02*
G37*
G36*
X4671542Y2724241D02*
X4561542D01*
X4540020Y2719960D01*
X4521774Y2707768D01*
X4509583Y2689522D01*
X4505301Y2668000D01*
X4509583Y2646478D01*
X4521774Y2628232D01*
X4540020Y2616040D01*
X4561542Y2611759D01*
X4671542D01*
X4693065Y2616040D01*
X4711311Y2628232D01*
X4723502Y2646478D01*
X4727783Y2668000D01*
X4723502Y2689522D01*
X4711311Y2707768D01*
X4693065Y2719960D01*
X4671542Y2724241D01*
D02*
G37*
G36*
X4218542D02*
X4138542D01*
X4117020Y2719960D01*
X4098774Y2707768D01*
X4086583Y2689522D01*
X4082302Y2668000D01*
X4086583Y2646478D01*
X4098774Y2628232D01*
X4117020Y2616040D01*
X4138542Y2611759D01*
X4218542D01*
X4240065Y2616040D01*
X4258311Y2628232D01*
X4270502Y2646478D01*
X4274783Y2668000D01*
X4270502Y2689522D01*
X4258311Y2707768D01*
X4240065Y2719960D01*
X4218542Y2724241D01*
D02*
G37*
G36*
X5192532Y2728666D02*
X5175375D01*
X5158802Y2724226D01*
X5143944Y2715647D01*
X5131812Y2703516D01*
X5123234Y2688657D01*
X5118793Y2672085D01*
Y2654928D01*
X5123234Y2638356D01*
X5131812Y2623497D01*
X5143944Y2611366D01*
X5158802Y2602787D01*
X5175375Y2598347D01*
X5192532D01*
X5209104Y2602787D01*
X5223962Y2611366D01*
X5236094Y2623497D01*
X5244673Y2638356D01*
X5249113Y2654928D01*
Y2672085D01*
X5244673Y2688657D01*
X5236094Y2703516D01*
X5223962Y2715647D01*
X5209104Y2724226D01*
X5192532Y2728666D01*
D02*
G37*
G36*
X1821542Y3588241D02*
X1711542D01*
X1690020Y3583960D01*
X1671774Y3571768D01*
X1659583Y3553522D01*
X1655301Y3532000D01*
X1659583Y3510478D01*
X1671774Y3492232D01*
X1690020Y3480041D01*
X1711542Y3475759D01*
X1821542D01*
X1843065Y3480041D01*
X1861311Y3492232D01*
X1873502Y3510478D01*
X1877783Y3532000D01*
X1873502Y3553522D01*
X1861311Y3571768D01*
X1843065Y3583960D01*
X1821542Y3588241D01*
D02*
G37*
G36*
X1368542D02*
X1288543D01*
X1267020Y3583960D01*
X1248774Y3571768D01*
X1236583Y3553522D01*
X1232302Y3532000D01*
X1236583Y3510478D01*
X1248774Y3492232D01*
X1267020Y3480041D01*
X1288543Y3475759D01*
X1368542D01*
X1390065Y3480041D01*
X1408311Y3492232D01*
X1420502Y3510478D01*
X1424783Y3532000D01*
X1420502Y3553522D01*
X1408311Y3571768D01*
X1390065Y3583960D01*
X1368542Y3588241D01*
D02*
G37*
G36*
X1725028Y3431660D02*
X1708057D01*
X1692377Y3425165D01*
X1680377Y3413165D01*
X1673882Y3397485D01*
Y3380514D01*
X1680377Y3364835D01*
X1692377Y3352835D01*
X1708057Y3346340D01*
X1725028D01*
X1740707Y3352835D01*
X1752708Y3364835D01*
X1759202Y3380514D01*
Y3397485D01*
X1752708Y3413165D01*
X1740707Y3425165D01*
X1725028Y3431660D01*
D02*
G37*
G36*
X2879079Y3228188D02*
X2861921D01*
X2845349Y3223747D01*
X2830491Y3215169D01*
X2818359Y3203037D01*
X2809781Y3188179D01*
X2805340Y3171607D01*
Y3154449D01*
X2809781Y3137877D01*
X2818359Y3123019D01*
X2830491Y3110887D01*
X2845349Y3102309D01*
X2861921Y3097868D01*
X2879079D01*
X2895651Y3102309D01*
X2910509Y3110887D01*
X2922641Y3123019D01*
X2931219Y3137877D01*
X2935660Y3154449D01*
Y3171607D01*
X2931219Y3188179D01*
X2922641Y3203037D01*
X2910509Y3215169D01*
X2895651Y3223747D01*
X2879079Y3228188D01*
D02*
G37*
G36*
X2088191Y3322266D02*
X1868284D01*
X1856620Y3317434D01*
X1742142Y3202956D01*
X1696874D01*
X1692524Y3213457D01*
X1679117Y3226864D01*
X1661600Y3234120D01*
X1642640D01*
X1625123Y3226864D01*
X1611716Y3213457D01*
X1604460Y3195940D01*
Y3176980D01*
X1611716Y3159463D01*
X1625123Y3146056D01*
X1635624Y3141706D01*
Y3116378D01*
X1625123Y3112028D01*
X1611716Y3098621D01*
X1604460Y3081104D01*
Y3062143D01*
X1611716Y3044626D01*
X1625123Y3031219D01*
X1642640Y3023963D01*
X1661600D01*
X1664023Y3024967D01*
X1672231Y3017370D01*
Y3001295D01*
X1679487Y2983778D01*
X1692894Y2970371D01*
X1710411Y2963115D01*
X1729371D01*
X1746888Y2970371D01*
X1760295Y2983778D01*
X1767551Y3001295D01*
Y3020255D01*
X1760295Y3037772D01*
X1746888Y3051179D01*
X1736387Y3055529D01*
Y3083886D01*
X1746888Y3088236D01*
X1760295Y3101643D01*
X1767551Y3119160D01*
Y3138120D01*
X1763201Y3148622D01*
X1883534Y3268954D01*
X2072941D01*
X2154535Y3187361D01*
Y3154939D01*
X2159367Y3143275D01*
X2265144Y3037497D01*
X2260794Y3026996D01*
Y3008035D01*
X2268050Y2990519D01*
X2281457Y2977111D01*
X2298974Y2969856D01*
X2317934D01*
X2335451Y2977111D01*
X2348858Y2990519D01*
X2356114Y3008035D01*
Y3026996D01*
X2348858Y3044513D01*
X2335451Y3057920D01*
X2317934Y3065176D01*
X2298974D01*
X2288472Y3060826D01*
X2242073Y3107225D01*
X2245961Y3116612D01*
X2263700D01*
X2268050Y3106111D01*
X2281457Y3092703D01*
X2298974Y3085448D01*
X2317934D01*
X2335451Y3092703D01*
X2348858Y3106111D01*
X2356114Y3123627D01*
Y3142588D01*
X2348858Y3160105D01*
X2335451Y3173512D01*
X2317934Y3180768D01*
X2298974D01*
X2281457Y3173512D01*
X2268050Y3160105D01*
X2263700Y3149604D01*
X2228431D01*
X2207846Y3170188D01*
Y3202610D01*
X2203015Y3214274D01*
X2099855Y3317434D01*
X2088191Y3322266D01*
D02*
G37*
G36*
X1725028Y2853660D02*
X1708057D01*
X1692377Y2847165D01*
X1680377Y2835165D01*
X1673882Y2819486D01*
Y2802514D01*
X1680377Y2786835D01*
X1692377Y2774835D01*
X1708057Y2768340D01*
X1725028D01*
X1740707Y2774835D01*
X1752708Y2786835D01*
X1759202Y2802514D01*
Y2819486D01*
X1752708Y2835165D01*
X1740707Y2847165D01*
X1725028Y2853660D01*
D02*
G37*
G36*
X1821542Y2724241D02*
X1711542D01*
X1690020Y2719960D01*
X1671774Y2707768D01*
X1659583Y2689522D01*
X1655301Y2668000D01*
X1659583Y2646478D01*
X1671774Y2628232D01*
X1690020Y2616040D01*
X1711542Y2611759D01*
X1821542D01*
X1843065Y2616040D01*
X1861311Y2628232D01*
X1873502Y2646478D01*
X1877783Y2668000D01*
X1873502Y2689522D01*
X1861311Y2707768D01*
X1843065Y2719960D01*
X1821542Y2724241D01*
D02*
G37*
G36*
X1368542D02*
X1288543D01*
X1267020Y2719960D01*
X1248774Y2707768D01*
X1236583Y2689522D01*
X1232302Y2668000D01*
X1236583Y2646478D01*
X1248774Y2628232D01*
X1267020Y2616040D01*
X1288543Y2611759D01*
X1368542D01*
X1390065Y2616040D01*
X1408311Y2628232D01*
X1420502Y2646478D01*
X1424783Y2668000D01*
X1420502Y2689522D01*
X1408311Y2707768D01*
X1390065Y2719960D01*
X1368542Y2724241D01*
D02*
G37*
G36*
X2342532Y2728666D02*
X2325375D01*
X2308803Y2724226D01*
X2293944Y2715647D01*
X2281813Y2703516D01*
X2273234Y2688657D01*
X2268794Y2672085D01*
Y2654928D01*
X2273234Y2638356D01*
X2281813Y2623497D01*
X2293944Y2611366D01*
X2308803Y2602787D01*
X2325375Y2598347D01*
X2342532D01*
X2359104Y2602787D01*
X2373962Y2611366D01*
X2386094Y2623497D01*
X2394673Y2638356D01*
X2399113Y2654928D01*
Y2672085D01*
X2394673Y2688657D01*
X2386094Y2703516D01*
X2373962Y2715647D01*
X2359104Y2724226D01*
X2342532Y2728666D01*
D02*
G37*
G36*
X7521542Y1688241D02*
X7411542D01*
X7390020Y1683960D01*
X7371774Y1671768D01*
X7359582Y1653522D01*
X7355301Y1632000D01*
X7359582Y1610478D01*
X7371774Y1592232D01*
X7390020Y1580041D01*
X7411542Y1575759D01*
X7521542D01*
X7543065Y1580041D01*
X7561311Y1592232D01*
X7573502Y1610478D01*
X7577783Y1632000D01*
X7573502Y1653522D01*
X7561311Y1671768D01*
X7543065Y1683960D01*
X7521542Y1688241D01*
D02*
G37*
G36*
X7068542D02*
X6988542D01*
X6967020Y1683960D01*
X6948774Y1671768D01*
X6936583Y1653522D01*
X6932302Y1632000D01*
X6936583Y1610478D01*
X6948774Y1592232D01*
X6967020Y1580041D01*
X6988542Y1575759D01*
X7068542D01*
X7090065Y1580041D01*
X7108310Y1592232D01*
X7120502Y1610478D01*
X7124783Y1632000D01*
X7120502Y1653522D01*
X7108310Y1671768D01*
X7090065Y1683960D01*
X7068542Y1688241D01*
D02*
G37*
G36*
X7425028Y1531660D02*
X7408057D01*
X7392377Y1525165D01*
X7380377Y1513165D01*
X7373882Y1497485D01*
Y1480514D01*
X7380377Y1464835D01*
X7392377Y1452835D01*
X7408057Y1446340D01*
X7425028D01*
X7440707Y1452835D01*
X7452707Y1464835D01*
X7459202Y1480514D01*
Y1497485D01*
X7452707Y1513165D01*
X7440707Y1525165D01*
X7425028Y1531660D01*
D02*
G37*
G36*
X8579078Y1328188D02*
X8561921D01*
X8545349Y1323747D01*
X8530491Y1315169D01*
X8518359Y1303037D01*
X8509780Y1288179D01*
X8505340Y1271607D01*
Y1254449D01*
X8509780Y1237877D01*
X8518359Y1223019D01*
X8530491Y1210887D01*
X8545349Y1202308D01*
X8561921Y1197868D01*
X8579078D01*
X8595651Y1202308D01*
X8610509Y1210887D01*
X8622641Y1223019D01*
X8631219Y1237877D01*
X8635660Y1254449D01*
Y1271607D01*
X8631219Y1288179D01*
X8622641Y1303037D01*
X8610509Y1315169D01*
X8595651Y1323747D01*
X8579078Y1328188D01*
D02*
G37*
G36*
X7788191Y1422266D02*
X7568284D01*
X7556620Y1417434D01*
X7442142Y1302956D01*
X7396874D01*
X7392524Y1313457D01*
X7379117Y1326864D01*
X7361600Y1334120D01*
X7342639D01*
X7325123Y1326864D01*
X7311715Y1313457D01*
X7304460Y1295940D01*
Y1276980D01*
X7311715Y1259463D01*
X7325123Y1246056D01*
X7335624Y1241706D01*
Y1216378D01*
X7325123Y1212028D01*
X7311715Y1198621D01*
X7304460Y1181104D01*
Y1162143D01*
X7311715Y1144626D01*
X7325123Y1131219D01*
X7342639Y1123963D01*
X7361600D01*
X7364022Y1124967D01*
X7372231Y1117370D01*
Y1101295D01*
X7379487Y1083778D01*
X7392894Y1070371D01*
X7410411Y1063115D01*
X7429371D01*
X7446888Y1070371D01*
X7460295Y1083778D01*
X7467551Y1101295D01*
Y1120255D01*
X7460295Y1137772D01*
X7446888Y1151179D01*
X7436387Y1155529D01*
Y1183886D01*
X7446888Y1188236D01*
X7460295Y1201643D01*
X7467551Y1219160D01*
Y1238120D01*
X7463201Y1248622D01*
X7583534Y1368954D01*
X7772941D01*
X7854535Y1287361D01*
Y1254939D01*
X7859366Y1243275D01*
X7965143Y1137497D01*
X7960794Y1126996D01*
Y1108035D01*
X7968049Y1090519D01*
X7981456Y1077111D01*
X7998973Y1069856D01*
X8017934D01*
X8035451Y1077111D01*
X8048858Y1090519D01*
X8056114Y1108035D01*
Y1126996D01*
X8048858Y1144513D01*
X8035451Y1157920D01*
X8017934Y1165176D01*
X7998973D01*
X7988472Y1160826D01*
X7942073Y1207225D01*
X7945961Y1216612D01*
X7963700D01*
X7968049Y1206111D01*
X7981456Y1192703D01*
X7998973Y1185448D01*
X8017934D01*
X8035451Y1192703D01*
X8048858Y1206111D01*
X8056114Y1223627D01*
Y1242588D01*
X8048858Y1260105D01*
X8035451Y1273512D01*
X8017934Y1280768D01*
X7998973D01*
X7981456Y1273512D01*
X7968049Y1260105D01*
X7963700Y1249604D01*
X7928431D01*
X7907846Y1270188D01*
Y1302610D01*
X7903015Y1314274D01*
X7799855Y1417434D01*
X7788191Y1422266D01*
D02*
G37*
G36*
X7425028Y953660D02*
X7408057D01*
X7392377Y947165D01*
X7380377Y935165D01*
X7373882Y919486D01*
Y902514D01*
X7380377Y886835D01*
X7392377Y874835D01*
X7408057Y868340D01*
X7425028D01*
X7440707Y874835D01*
X7452707Y886835D01*
X7459202Y902514D01*
Y919486D01*
X7452707Y935165D01*
X7440707Y947165D01*
X7425028Y953660D01*
D02*
G37*
G36*
X7521542Y824241D02*
X7411542D01*
X7390020Y819959D01*
X7371774Y807768D01*
X7359582Y789522D01*
X7355301Y768000D01*
X7359582Y746478D01*
X7371774Y728232D01*
X7390020Y716040D01*
X7411542Y711759D01*
X7521542D01*
X7543065Y716040D01*
X7561311Y728232D01*
X7573502Y746478D01*
X7577783Y768000D01*
X7573502Y789522D01*
X7561311Y807768D01*
X7543065Y819959D01*
X7521542Y824241D01*
D02*
G37*
G36*
X7068542D02*
X6988542D01*
X6967020Y819959D01*
X6948774Y807768D01*
X6936583Y789522D01*
X6932302Y768000D01*
X6936583Y746478D01*
X6948774Y728232D01*
X6967020Y716040D01*
X6988542Y711759D01*
X7068542D01*
X7090065Y716040D01*
X7108310Y728232D01*
X7120502Y746478D01*
X7124783Y768000D01*
X7120502Y789522D01*
X7108310Y807768D01*
X7090065Y819959D01*
X7068542Y824241D01*
D02*
G37*
G36*
X8042532Y828666D02*
X8025375D01*
X8008802Y824226D01*
X7993944Y815647D01*
X7981812Y803516D01*
X7973234Y788657D01*
X7968793Y772085D01*
Y754928D01*
X7973234Y738356D01*
X7981812Y723497D01*
X7993944Y711366D01*
X8008802Y702787D01*
X8025375Y698347D01*
X8042532D01*
X8059104Y702787D01*
X8073962Y711366D01*
X8086094Y723497D01*
X8094673Y738356D01*
X8099113Y754928D01*
Y772085D01*
X8094673Y788657D01*
X8086094Y803516D01*
X8073962Y815647D01*
X8059104Y824226D01*
X8042532Y828666D01*
D02*
G37*
G36*
X4671542Y1688241D02*
X4561542D01*
X4540020Y1683960D01*
X4521774Y1671768D01*
X4509583Y1653522D01*
X4505301Y1632000D01*
X4509583Y1610478D01*
X4521774Y1592232D01*
X4540020Y1580041D01*
X4561542Y1575759D01*
X4671542D01*
X4693065Y1580041D01*
X4711311Y1592232D01*
X4723502Y1610478D01*
X4727783Y1632000D01*
X4723502Y1653522D01*
X4711311Y1671768D01*
X4693065Y1683960D01*
X4671542Y1688241D01*
D02*
G37*
G36*
X4218542D02*
X4138542D01*
X4117020Y1683960D01*
X4098774Y1671768D01*
X4086583Y1653522D01*
X4082302Y1632000D01*
X4086583Y1610478D01*
X4098774Y1592232D01*
X4117020Y1580041D01*
X4138542Y1575759D01*
X4218542D01*
X4240065Y1580041D01*
X4258311Y1592232D01*
X4270502Y1610478D01*
X4274783Y1632000D01*
X4270502Y1653522D01*
X4258311Y1671768D01*
X4240065Y1683960D01*
X4218542Y1688241D01*
D02*
G37*
G36*
X4575028Y1531660D02*
X4558057D01*
X4542377Y1525165D01*
X4530377Y1513165D01*
X4523882Y1497485D01*
Y1480514D01*
X4530377Y1464835D01*
X4542377Y1452835D01*
X4558057Y1446340D01*
X4575028D01*
X4590707Y1452835D01*
X4602708Y1464835D01*
X4609202Y1480514D01*
Y1497485D01*
X4602708Y1513165D01*
X4590707Y1525165D01*
X4575028Y1531660D01*
D02*
G37*
G36*
X5729078Y1328188D02*
X5711921D01*
X5695349Y1323747D01*
X5680491Y1315169D01*
X5668359Y1303037D01*
X5659780Y1288179D01*
X5655340Y1271607D01*
Y1254449D01*
X5659780Y1237877D01*
X5668359Y1223019D01*
X5680491Y1210887D01*
X5695349Y1202308D01*
X5711921Y1197868D01*
X5729078D01*
X5745651Y1202308D01*
X5760509Y1210887D01*
X5772641Y1223019D01*
X5781219Y1237877D01*
X5785660Y1254449D01*
Y1271607D01*
X5781219Y1288179D01*
X5772641Y1303037D01*
X5760509Y1315169D01*
X5745651Y1323747D01*
X5729078Y1328188D01*
D02*
G37*
G36*
X4938191Y1422266D02*
X4718284D01*
X4706620Y1417434D01*
X4592142Y1302956D01*
X4546874D01*
X4542524Y1313457D01*
X4529117Y1326864D01*
X4511600Y1334120D01*
X4492639D01*
X4475123Y1326864D01*
X4461715Y1313457D01*
X4454460Y1295940D01*
Y1276980D01*
X4461715Y1259463D01*
X4475123Y1246056D01*
X4485624Y1241706D01*
Y1216378D01*
X4475123Y1212028D01*
X4461715Y1198621D01*
X4454460Y1181104D01*
Y1162143D01*
X4461715Y1144626D01*
X4475123Y1131219D01*
X4492639Y1123963D01*
X4511600D01*
X4514022Y1124967D01*
X4522231Y1117370D01*
Y1101295D01*
X4529487Y1083778D01*
X4542894Y1070371D01*
X4560411Y1063115D01*
X4579371D01*
X4596888Y1070371D01*
X4610295Y1083778D01*
X4617551Y1101295D01*
Y1120255D01*
X4610295Y1137772D01*
X4596888Y1151179D01*
X4586387Y1155529D01*
Y1183886D01*
X4596888Y1188236D01*
X4610295Y1201643D01*
X4617551Y1219160D01*
Y1238120D01*
X4613201Y1248622D01*
X4733534Y1368954D01*
X4922941D01*
X5004535Y1287361D01*
Y1254939D01*
X5009366Y1243275D01*
X5115143Y1137497D01*
X5110794Y1126996D01*
Y1108035D01*
X5118049Y1090519D01*
X5131457Y1077111D01*
X5148973Y1069856D01*
X5167934D01*
X5185451Y1077111D01*
X5198858Y1090519D01*
X5206114Y1108035D01*
Y1126996D01*
X5198858Y1144513D01*
X5185451Y1157920D01*
X5167934Y1165176D01*
X5148973D01*
X5138472Y1160826D01*
X5092073Y1207225D01*
X5095961Y1216612D01*
X5113700D01*
X5118049Y1206111D01*
X5131457Y1192703D01*
X5148973Y1185448D01*
X5167934D01*
X5185451Y1192703D01*
X5198858Y1206111D01*
X5206114Y1223627D01*
Y1242588D01*
X5198858Y1260105D01*
X5185451Y1273512D01*
X5167934Y1280768D01*
X5148973D01*
X5131457Y1273512D01*
X5118049Y1260105D01*
X5113700Y1249604D01*
X5078431D01*
X5057846Y1270188D01*
Y1302610D01*
X5053015Y1314274D01*
X4949855Y1417434D01*
X4938191Y1422266D01*
D02*
G37*
G36*
X4575028Y953660D02*
X4558057D01*
X4542377Y947165D01*
X4530377Y935165D01*
X4523882Y919486D01*
Y902514D01*
X4530377Y886835D01*
X4542377Y874835D01*
X4558057Y868340D01*
X4575028D01*
X4590707Y874835D01*
X4602708Y886835D01*
X4609202Y902514D01*
Y919486D01*
X4602708Y935165D01*
X4590707Y947165D01*
X4575028Y953660D01*
D02*
G37*
G36*
X4671542Y824241D02*
X4561542D01*
X4540020Y819959D01*
X4521774Y807768D01*
X4509583Y789522D01*
X4505301Y768000D01*
X4509583Y746478D01*
X4521774Y728232D01*
X4540020Y716040D01*
X4561542Y711759D01*
X4671542D01*
X4693065Y716040D01*
X4711311Y728232D01*
X4723502Y746478D01*
X4727783Y768000D01*
X4723502Y789522D01*
X4711311Y807768D01*
X4693065Y819959D01*
X4671542Y824241D01*
D02*
G37*
G36*
X4218542D02*
X4138542D01*
X4117020Y819959D01*
X4098774Y807768D01*
X4086583Y789522D01*
X4082302Y768000D01*
X4086583Y746478D01*
X4098774Y728232D01*
X4117020Y716040D01*
X4138542Y711759D01*
X4218542D01*
X4240065Y716040D01*
X4258311Y728232D01*
X4270502Y746478D01*
X4274783Y768000D01*
X4270502Y789522D01*
X4258311Y807768D01*
X4240065Y819959D01*
X4218542Y824241D01*
D02*
G37*
G36*
X5192532Y828666D02*
X5175375D01*
X5158802Y824226D01*
X5143944Y815647D01*
X5131812Y803516D01*
X5123234Y788657D01*
X5118793Y772085D01*
Y754928D01*
X5123234Y738356D01*
X5131812Y723497D01*
X5143944Y711366D01*
X5158802Y702787D01*
X5175375Y698347D01*
X5192532D01*
X5209104Y702787D01*
X5223962Y711366D01*
X5236094Y723497D01*
X5244673Y738356D01*
X5249113Y754928D01*
Y772085D01*
X5244673Y788657D01*
X5236094Y803516D01*
X5223962Y815647D01*
X5209104Y824226D01*
X5192532Y828666D01*
D02*
G37*
G36*
X1821542Y1688241D02*
X1711542D01*
X1690020Y1683960D01*
X1671774Y1671768D01*
X1659583Y1653522D01*
X1655301Y1632000D01*
X1659583Y1610478D01*
X1671774Y1592232D01*
X1690020Y1580041D01*
X1711542Y1575759D01*
X1821542D01*
X1843065Y1580041D01*
X1861311Y1592232D01*
X1873502Y1610478D01*
X1877783Y1632000D01*
X1873502Y1653522D01*
X1861311Y1671768D01*
X1843065Y1683960D01*
X1821542Y1688241D01*
D02*
G37*
G36*
X1368542D02*
X1288543D01*
X1267020Y1683960D01*
X1248774Y1671768D01*
X1236583Y1653522D01*
X1232302Y1632000D01*
X1236583Y1610478D01*
X1248774Y1592232D01*
X1267020Y1580041D01*
X1288543Y1575759D01*
X1368542D01*
X1390065Y1580041D01*
X1408311Y1592232D01*
X1420502Y1610478D01*
X1424783Y1632000D01*
X1420502Y1653522D01*
X1408311Y1671768D01*
X1390065Y1683960D01*
X1368542Y1688241D01*
D02*
G37*
G36*
X1725028Y1531660D02*
X1708057D01*
X1692377Y1525165D01*
X1680377Y1513165D01*
X1673882Y1497485D01*
Y1480514D01*
X1680377Y1464835D01*
X1692377Y1452835D01*
X1708057Y1446340D01*
X1725028D01*
X1740707Y1452835D01*
X1752708Y1464835D01*
X1759202Y1480514D01*
Y1497485D01*
X1752708Y1513165D01*
X1740707Y1525165D01*
X1725028Y1531660D01*
D02*
G37*
G36*
X2879079Y1328188D02*
X2861921D01*
X2845349Y1323747D01*
X2830491Y1315169D01*
X2818359Y1303037D01*
X2809781Y1288179D01*
X2805340Y1271607D01*
Y1254449D01*
X2809781Y1237877D01*
X2818359Y1223019D01*
X2830491Y1210887D01*
X2845349Y1202308D01*
X2861921Y1197868D01*
X2879079D01*
X2895651Y1202308D01*
X2910509Y1210887D01*
X2922641Y1223019D01*
X2931219Y1237877D01*
X2935660Y1254449D01*
Y1271607D01*
X2931219Y1288179D01*
X2922641Y1303037D01*
X2910509Y1315169D01*
X2895651Y1323747D01*
X2879079Y1328188D01*
D02*
G37*
G36*
X2088191Y1422266D02*
X1868284D01*
X1856620Y1417434D01*
X1742142Y1302956D01*
X1696874D01*
X1692524Y1313457D01*
X1679117Y1326864D01*
X1661600Y1334120D01*
X1642640D01*
X1625123Y1326864D01*
X1611716Y1313457D01*
X1604460Y1295940D01*
Y1276980D01*
X1611716Y1259463D01*
X1625123Y1246056D01*
X1635624Y1241706D01*
Y1216378D01*
X1625123Y1212028D01*
X1611716Y1198621D01*
X1604460Y1181104D01*
Y1162143D01*
X1611716Y1144626D01*
X1625123Y1131219D01*
X1642640Y1123963D01*
X1661600D01*
X1664023Y1124967D01*
X1672231Y1117370D01*
Y1101295D01*
X1679487Y1083778D01*
X1692894Y1070371D01*
X1710411Y1063115D01*
X1729371D01*
X1746888Y1070371D01*
X1760295Y1083778D01*
X1767551Y1101295D01*
Y1120255D01*
X1760295Y1137772D01*
X1746888Y1151179D01*
X1736387Y1155529D01*
Y1183886D01*
X1746888Y1188236D01*
X1760295Y1201643D01*
X1767551Y1219160D01*
Y1238120D01*
X1763201Y1248622D01*
X1883534Y1368954D01*
X2072941D01*
X2154535Y1287361D01*
Y1254939D01*
X2159367Y1243275D01*
X2265144Y1137497D01*
X2260794Y1126996D01*
Y1108035D01*
X2268050Y1090519D01*
X2281457Y1077111D01*
X2298974Y1069856D01*
X2317934D01*
X2335451Y1077111D01*
X2348858Y1090519D01*
X2356114Y1108035D01*
Y1126996D01*
X2348858Y1144513D01*
X2335451Y1157920D01*
X2317934Y1165176D01*
X2298974D01*
X2288472Y1160826D01*
X2242073Y1207225D01*
X2245961Y1216612D01*
X2263700D01*
X2268050Y1206111D01*
X2281457Y1192703D01*
X2298974Y1185448D01*
X2317934D01*
X2335451Y1192703D01*
X2348858Y1206111D01*
X2356114Y1223627D01*
Y1242588D01*
X2348858Y1260105D01*
X2335451Y1273512D01*
X2317934Y1280768D01*
X2298974D01*
X2281457Y1273512D01*
X2268050Y1260105D01*
X2263700Y1249604D01*
X2228431D01*
X2207846Y1270188D01*
Y1302610D01*
X2203015Y1314274D01*
X2099855Y1417434D01*
X2088191Y1422266D01*
D02*
G37*
G36*
X1725028Y953660D02*
X1708057D01*
X1692377Y947165D01*
X1680377Y935165D01*
X1673882Y919486D01*
Y902514D01*
X1680377Y886835D01*
X1692377Y874835D01*
X1708057Y868340D01*
X1725028D01*
X1740707Y874835D01*
X1752708Y886835D01*
X1759202Y902514D01*
Y919486D01*
X1752708Y935165D01*
X1740707Y947165D01*
X1725028Y953660D01*
D02*
G37*
G36*
X1821542Y824241D02*
X1711542D01*
X1690020Y819959D01*
X1671774Y807768D01*
X1659583Y789522D01*
X1655301Y768000D01*
X1659583Y746478D01*
X1671774Y728232D01*
X1690020Y716040D01*
X1711542Y711759D01*
X1821542D01*
X1843065Y716040D01*
X1861311Y728232D01*
X1873502Y746478D01*
X1877783Y768000D01*
X1873502Y789522D01*
X1861311Y807768D01*
X1843065Y819959D01*
X1821542Y824241D01*
D02*
G37*
G36*
X1368542D02*
X1288543D01*
X1267020Y819959D01*
X1248774Y807768D01*
X1236583Y789522D01*
X1232302Y768000D01*
X1236583Y746478D01*
X1248774Y728232D01*
X1267020Y716040D01*
X1288543Y711759D01*
X1368542D01*
X1390065Y716040D01*
X1408311Y728232D01*
X1420502Y746478D01*
X1424783Y768000D01*
X1420502Y789522D01*
X1408311Y807768D01*
X1390065Y819959D01*
X1368542Y824241D01*
D02*
G37*
G36*
X2342532Y828666D02*
X2325375D01*
X2308803Y824226D01*
X2293944Y815647D01*
X2281813Y803516D01*
X2273234Y788657D01*
X2268794Y772085D01*
Y754928D01*
X2273234Y738356D01*
X2281813Y723497D01*
X2293944Y711366D01*
X2308803Y702787D01*
X2325375Y698347D01*
X2342532D01*
X2359104Y702787D01*
X2373962Y711366D01*
X2386094Y723497D01*
X2394673Y738356D01*
X2399113Y754928D01*
Y772085D01*
X2394673Y788657D01*
X2386094Y803516D01*
X2373962Y815647D01*
X2359104Y824226D01*
X2342532Y828666D01*
D02*
G37*
%LPD*%
D10*
X1719891Y1110775D02*
Y1228640D01*
X1876701Y1385450D01*
X1748974Y1286460D02*
X1868284Y1405770D01*
X2088191D01*
X1652120Y1286460D02*
X1748974D01*
X1876701Y1385450D02*
X2079774D01*
X1652120Y1171624D02*
Y1286460D01*
X2088191Y1405770D02*
X2191351Y1302610D01*
X2079774Y1385450D02*
X2171031Y1294193D01*
X2191351Y1263356D02*
Y1302610D01*
X2171031Y1254939D02*
Y1294193D01*
X2191351Y1263356D02*
X2221599Y1233108D01*
X2308454D01*
X2171031Y1254939D02*
X2308454Y1117516D01*
X4569891Y1110775D02*
Y1228640D01*
X4726701Y1385450D01*
X4598974Y1286460D02*
X4718284Y1405770D01*
X4938191D01*
X4502120Y1286460D02*
X4598974D01*
X4726701Y1385450D02*
X4929774D01*
X4502120Y1171624D02*
Y1286460D01*
X4938191Y1405770D02*
X5041351Y1302610D01*
X4929774Y1385450D02*
X5021031Y1294193D01*
X5041351Y1263356D02*
Y1302610D01*
X5021031Y1254939D02*
Y1294193D01*
X5041351Y1263356D02*
X5071598Y1233108D01*
X5158454D01*
X5021031Y1254939D02*
X5158454Y1117516D01*
X7419891Y1110775D02*
Y1228640D01*
X7576701Y1385450D01*
X7448974Y1286460D02*
X7568284Y1405770D01*
X7788191D01*
X7352120Y1286460D02*
X7448974D01*
X7576701Y1385450D02*
X7779774D01*
X7352120Y1171624D02*
Y1286460D01*
X7788191Y1405770D02*
X7891350Y1302610D01*
X7779774Y1385450D02*
X7871030Y1294193D01*
X7891350Y1263356D02*
Y1302610D01*
X7871030Y1254939D02*
Y1294193D01*
X7891350Y1263356D02*
X7921598Y1233108D01*
X8008454D01*
X7871030Y1254939D02*
X8008454Y1117516D01*
X1719891Y3010775D02*
Y3128640D01*
X1876701Y3285450D01*
X1748974Y3186460D02*
X1868284Y3305770D01*
X2088191D01*
X1652120Y3186460D02*
X1748974D01*
X1876701Y3285450D02*
X2079774D01*
X1652120Y3071624D02*
Y3186460D01*
X2088191Y3305770D02*
X2191351Y3202610D01*
X2079774Y3285450D02*
X2171031Y3194193D01*
X2191351Y3163356D02*
Y3202610D01*
X2171031Y3154939D02*
Y3194193D01*
X2191351Y3163356D02*
X2221599Y3133108D01*
X2308454D01*
X2171031Y3154939D02*
X2308454Y3017516D01*
X4569891Y3010775D02*
Y3128640D01*
X4726701Y3285450D01*
X4598974Y3186460D02*
X4718284Y3305770D01*
X4938191D01*
X4502120Y3186460D02*
X4598974D01*
X4726701Y3285450D02*
X4929774D01*
X4502120Y3071624D02*
Y3186460D01*
X4938191Y3305770D02*
X5041351Y3202610D01*
X4929774Y3285450D02*
X5021031Y3194193D01*
X5041351Y3163356D02*
Y3202610D01*
X5021031Y3154939D02*
Y3194193D01*
X5041351Y3163356D02*
X5071598Y3133108D01*
X5158454D01*
X5021031Y3154939D02*
X5158454Y3017516D01*
X7419891Y3010775D02*
Y3128640D01*
X7576701Y3285450D01*
X7448974Y3186460D02*
X7568284Y3305770D01*
X7788191D01*
X7352120Y3186460D02*
X7448974D01*
X7576701Y3285450D02*
X7779774D01*
X7352120Y3071624D02*
Y3186460D01*
X7788191Y3305770D02*
X7891350Y3202610D01*
X7779774Y3285450D02*
X7871030Y3194193D01*
X7891350Y3163356D02*
Y3202610D01*
X7871030Y3154939D02*
Y3194193D01*
X7891350Y3163356D02*
X7921598Y3133108D01*
X8008454D01*
X7871030Y3154939D02*
X8008454Y3017516D01*
X1719891Y4910775D02*
Y5028640D01*
X1876701Y5185450D01*
X1748974Y5086460D02*
X1868284Y5205770D01*
X2088191D01*
X1652120Y5086460D02*
X1748974D01*
X1876701Y5185450D02*
X2079774D01*
X1652120Y4971624D02*
Y5086460D01*
X2088191Y5205770D02*
X2191351Y5102610D01*
X2079774Y5185450D02*
X2171031Y5094193D01*
X2191351Y5063356D02*
Y5102610D01*
X2171031Y5054939D02*
Y5094193D01*
X2191351Y5063356D02*
X2221599Y5033108D01*
X2308454D01*
X2171031Y5054939D02*
X2308454Y4917516D01*
X4569891Y4910775D02*
Y5028640D01*
X4726701Y5185450D01*
X4598974Y5086460D02*
X4718284Y5205770D01*
X4938191D01*
X4502120Y5086460D02*
X4598974D01*
X4726701Y5185450D02*
X4929774D01*
X4502120Y4971624D02*
Y5086460D01*
X4938191Y5205770D02*
X5041351Y5102610D01*
X4929774Y5185450D02*
X5021031Y5094193D01*
X5041351Y5063356D02*
Y5102610D01*
X5021031Y5054939D02*
Y5094193D01*
X5041351Y5063356D02*
X5071598Y5033108D01*
X5158454D01*
X5021031Y5054939D02*
X5158454Y4917516D01*
X7419891Y4910775D02*
Y5028640D01*
X7576701Y5185450D01*
X7448974Y5086460D02*
X7568284Y5205770D01*
X7788191D01*
X7352120Y5086460D02*
X7448974D01*
X7576701Y5185450D02*
X7779774D01*
X7352120Y4971624D02*
Y5086460D01*
X7788191Y5205770D02*
X7891350Y5102610D01*
X7779774Y5185450D02*
X7871030Y5094193D01*
X7891350Y5063356D02*
Y5102610D01*
X7871030Y5054939D02*
Y5094193D01*
X7891350Y5063356D02*
X7921598Y5033108D01*
X8008454D01*
X7871030Y5054939D02*
X8008454Y4917516D01*
X1719891Y6810775D02*
Y6928640D01*
X1876701Y7085450D01*
X1748974Y6986460D02*
X1868284Y7105770D01*
X2088191D01*
X1652120Y6986460D02*
X1748974D01*
X1876701Y7085450D02*
X2079774D01*
X1652120Y6871624D02*
Y6986460D01*
X2088191Y7105770D02*
X2191351Y7002610D01*
X2079774Y7085450D02*
X2171031Y6994193D01*
X2191351Y6963356D02*
Y7002610D01*
X2171031Y6954939D02*
Y6994193D01*
X2191351Y6963356D02*
X2221599Y6933108D01*
X2308454D01*
X2171031Y6954939D02*
X2308454Y6817516D01*
X4569891Y6810775D02*
Y6928640D01*
X4726701Y7085450D01*
X4598974Y6986460D02*
X4718284Y7105770D01*
X4938191D01*
X4502120Y6986460D02*
X4598974D01*
X4726701Y7085450D02*
X4929774D01*
X4502120Y6871624D02*
Y6986460D01*
X4938191Y7105770D02*
X5041351Y7002610D01*
X4929774Y7085450D02*
X5021031Y6994193D01*
X5041351Y6963356D02*
Y7002610D01*
X5021031Y6954939D02*
Y6994193D01*
X5041351Y6963356D02*
X5071598Y6933108D01*
X5158454D01*
X5021031Y6954939D02*
X5158454Y6817516D01*
X7419891Y6810775D02*
Y6928640D01*
X7576701Y7085450D01*
X7448974Y6986460D02*
X7568284Y7105770D01*
X7788191D01*
X7352120Y6986460D02*
X7448974D01*
X7576701Y7085450D02*
X7779774D01*
X7352120Y6871624D02*
Y6986460D01*
X7788191Y7105770D02*
X7891350Y7002610D01*
X7779774Y7085450D02*
X7871030Y6994193D01*
X7891350Y6963356D02*
Y7002610D01*
X7871030Y6954939D02*
Y6994193D01*
X7891350Y6963356D02*
X7921598Y6933108D01*
X8008454D01*
X7871030Y6954939D02*
X8008454Y6817516D01*
X1719891Y8710775D02*
Y8828640D01*
X1876701Y8985450D01*
X1748974Y8886460D02*
X1868284Y9005770D01*
X2088191D01*
X1652120Y8886460D02*
X1748974D01*
X1876701Y8985450D02*
X2079774D01*
X1652120Y8771624D02*
Y8886460D01*
X2088191Y9005770D02*
X2191351Y8902610D01*
X2079774Y8985450D02*
X2171031Y8894193D01*
X2191351Y8863356D02*
Y8902610D01*
X2171031Y8854939D02*
Y8894193D01*
X2191351Y8863356D02*
X2221599Y8833108D01*
X2308454D01*
X2171031Y8854939D02*
X2308454Y8717516D01*
X4569891Y8710775D02*
Y8828640D01*
X4726701Y8985450D01*
X4598974Y8886460D02*
X4718284Y9005770D01*
X4938191D01*
X4502120Y8886460D02*
X4598974D01*
X4726701Y8985450D02*
X4929774D01*
X4502120Y8771624D02*
Y8886460D01*
X4938191Y9005770D02*
X5041351Y8902610D01*
X4929774Y8985450D02*
X5021031Y8894193D01*
X5041351Y8863356D02*
Y8902610D01*
X5021031Y8854939D02*
Y8894193D01*
X5041351Y8863356D02*
X5071598Y8833108D01*
X5158454D01*
X5021031Y8854939D02*
X5158454Y8717516D01*
X7419891Y8710775D02*
Y8828640D01*
X7576701Y8985450D01*
X7448974Y8886460D02*
X7568284Y9005770D01*
X7788191D01*
X7352120Y8886460D02*
X7448974D01*
X7576701Y8985450D02*
X7779774D01*
X7352120Y8771624D02*
Y8886460D01*
X7788191Y9005770D02*
X7891350Y8902610D01*
X7779774Y8985450D02*
X7871030Y8894193D01*
X7891350Y8863356D02*
Y8902610D01*
X7871030Y8854939D02*
Y8894193D01*
X7891350Y8863356D02*
X7921598Y8833108D01*
X8008454D01*
X7871030Y8854939D02*
X8008454Y8717516D01*
D11*
X2025500Y1174700D02*
D03*
X4875500D02*
D03*
X7725500D02*
D03*
X2025500Y3074700D02*
D03*
X4875500D02*
D03*
X7725500D02*
D03*
X2025500Y4974700D02*
D03*
X4875500D02*
D03*
X7725500D02*
D03*
X2025500Y6874700D02*
D03*
X4875500D02*
D03*
X7725500D02*
D03*
X2025500Y8774700D02*
D03*
X4875500D02*
D03*
X7725500D02*
D03*
D12*
X3100500Y1174700D02*
D03*
X5950500D02*
D03*
X8800500D02*
D03*
X3100500Y3074700D02*
D03*
X5950500D02*
D03*
X8800500D02*
D03*
X3100500Y4974700D02*
D03*
X5950500D02*
D03*
X8800500D02*
D03*
X3100500Y6874700D02*
D03*
X5950500D02*
D03*
X8800500D02*
D03*
X3100500Y8774700D02*
D03*
X5950500D02*
D03*
X8800500D02*
D03*
D13*
X2313000Y474700D02*
D03*
X2813000D02*
D03*
X2563000Y1924700D02*
D03*
X2313000D02*
D03*
X2813000D02*
D03*
X5163000Y474700D02*
D03*
X5663000D02*
D03*
X5413000Y1924700D02*
D03*
X5163000D02*
D03*
X5663000D02*
D03*
X8013000Y474700D02*
D03*
X8513000D02*
D03*
X8263000Y1924700D02*
D03*
X8013000D02*
D03*
X8513000D02*
D03*
X2313000Y2374700D02*
D03*
X2813000D02*
D03*
X2563000Y3824700D02*
D03*
X2313000D02*
D03*
X2813000D02*
D03*
X5163000Y2374700D02*
D03*
X5663000D02*
D03*
X5413000Y3824700D02*
D03*
X5163000D02*
D03*
X5663000D02*
D03*
X8013000Y2374700D02*
D03*
X8513000D02*
D03*
X8263000Y3824700D02*
D03*
X8013000D02*
D03*
X8513000D02*
D03*
X2313000Y4274700D02*
D03*
X2813000D02*
D03*
X2563000Y5724700D02*
D03*
X2313000D02*
D03*
X2813000D02*
D03*
X5163000Y4274700D02*
D03*
X5663000D02*
D03*
X5413000Y5724700D02*
D03*
X5163000D02*
D03*
X5663000D02*
D03*
X8013000Y4274700D02*
D03*
X8513000D02*
D03*
X8263000Y5724700D02*
D03*
X8013000D02*
D03*
X8513000D02*
D03*
X2313000Y6174700D02*
D03*
X2813000D02*
D03*
X2563000Y7624700D02*
D03*
X2313000D02*
D03*
X2813000D02*
D03*
X5163000Y6174700D02*
D03*
X5663000D02*
D03*
X5413000Y7624700D02*
D03*
X5163000D02*
D03*
X5663000D02*
D03*
X8013000Y6174700D02*
D03*
X8513000D02*
D03*
X8263000Y7624700D02*
D03*
X8013000D02*
D03*
X8513000D02*
D03*
X2313000Y8074700D02*
D03*
X2813000D02*
D03*
X2563000Y9524700D02*
D03*
X2313000D02*
D03*
X2813000D02*
D03*
X5163000Y8074700D02*
D03*
X5663000D02*
D03*
X5413000Y9524700D02*
D03*
X5163000D02*
D03*
X5663000D02*
D03*
X8013000Y8074700D02*
D03*
X8513000D02*
D03*
X8263000Y9524700D02*
D03*
X8013000D02*
D03*
X8513000D02*
D03*
D14*
X1328542Y1632000D02*
D03*
Y768000D02*
D03*
X4178542Y1632000D02*
D03*
Y768000D02*
D03*
X7028542Y1632000D02*
D03*
Y768000D02*
D03*
X1328542Y3532000D02*
D03*
Y2668000D02*
D03*
X4178542Y3532000D02*
D03*
Y2668000D02*
D03*
X7028542Y3532000D02*
D03*
Y2668000D02*
D03*
X1328542Y5432000D02*
D03*
Y4568000D02*
D03*
X4178542Y5432000D02*
D03*
Y4568000D02*
D03*
X7028542Y5432000D02*
D03*
Y4568000D02*
D03*
X1328542Y7332000D02*
D03*
Y6468000D02*
D03*
X4178542Y7332000D02*
D03*
Y6468000D02*
D03*
X7028542Y7332000D02*
D03*
Y6468000D02*
D03*
X1328542Y9232000D02*
D03*
Y8368000D02*
D03*
X4178542Y9232000D02*
D03*
Y8368000D02*
D03*
X7028542Y9232000D02*
D03*
Y8368000D02*
D03*
D15*
X1766542Y1632000D02*
D03*
Y768000D02*
D03*
X4616542Y1632000D02*
D03*
Y768000D02*
D03*
X7466542Y1632000D02*
D03*
Y768000D02*
D03*
X1766542Y3532000D02*
D03*
Y2668000D02*
D03*
X4616542Y3532000D02*
D03*
Y2668000D02*
D03*
X7466542Y3532000D02*
D03*
Y2668000D02*
D03*
X1766542Y5432000D02*
D03*
Y4568000D02*
D03*
X4616542Y5432000D02*
D03*
Y4568000D02*
D03*
X7466542Y5432000D02*
D03*
Y4568000D02*
D03*
X1766542Y7332000D02*
D03*
Y6468000D02*
D03*
X4616542Y7332000D02*
D03*
Y6468000D02*
D03*
X7466542Y7332000D02*
D03*
Y6468000D02*
D03*
X1766542Y9232000D02*
D03*
Y8368000D02*
D03*
X4616542Y9232000D02*
D03*
Y8368000D02*
D03*
X7466542Y9232000D02*
D03*
Y8368000D02*
D03*
D16*
X3026041Y763506D02*
D03*
X2870500Y1263028D02*
D03*
X2333953Y763506D02*
D03*
X5876041D02*
D03*
X5720500Y1263028D02*
D03*
X5183953Y763506D02*
D03*
X8726041D02*
D03*
X8570500Y1263028D02*
D03*
X8033953Y763506D02*
D03*
X3026041Y2663506D02*
D03*
X2870500Y3163028D02*
D03*
X2333953Y2663506D02*
D03*
X5876041D02*
D03*
X5720500Y3163028D02*
D03*
X5183953Y2663506D02*
D03*
X8726041D02*
D03*
X8570500Y3163028D02*
D03*
X8033953Y2663506D02*
D03*
X3026041Y4563506D02*
D03*
X2870500Y5063028D02*
D03*
X2333953Y4563506D02*
D03*
X5876041D02*
D03*
X5720500Y5063028D02*
D03*
X5183953Y4563506D02*
D03*
X8726041D02*
D03*
X8570500Y5063028D02*
D03*
X8033953Y4563506D02*
D03*
X3026041Y6463507D02*
D03*
X2870500Y6963028D02*
D03*
X2333953Y6463507D02*
D03*
X5876041D02*
D03*
X5720500Y6963028D02*
D03*
X5183953Y6463507D02*
D03*
X8726041D02*
D03*
X8570500Y6963028D02*
D03*
X8033953Y6463507D02*
D03*
X3026041Y8363507D02*
D03*
X2870500Y8863028D02*
D03*
X2333953Y8363507D02*
D03*
X5876041D02*
D03*
X5720500Y8863028D02*
D03*
X5183953Y8363507D02*
D03*
X8726041D02*
D03*
X8570500Y8863028D02*
D03*
X8033953Y8363507D02*
D03*
D17*
X1719891Y1110775D02*
D03*
X1652120Y1171624D02*
D03*
X1719891Y1228640D02*
D03*
X1652120Y1286460D02*
D03*
X2653242Y1538464D02*
D03*
X2988424Y1593385D02*
D03*
X1901753Y1582804D02*
D03*
X2355028Y1390281D02*
D03*
X2002949Y875528D02*
D03*
X2173345Y801271D02*
D03*
X2323356Y1659314D02*
D03*
X2798421Y1593237D02*
D03*
X2450131Y1395739D02*
D03*
X2490155Y1027516D02*
D03*
X2308454Y1233108D02*
D03*
Y1117516D02*
D03*
X2268269Y1605250D02*
D03*
X2555536Y907938D02*
D03*
X2560013Y1118145D02*
D03*
X2665401Y1336673D02*
D03*
X1921197Y875973D02*
D03*
X1924417Y1503912D02*
D03*
X4569891Y1110775D02*
D03*
X4502120Y1171624D02*
D03*
X4569891Y1228640D02*
D03*
X4502120Y1286460D02*
D03*
X5503242Y1538464D02*
D03*
X5838423Y1593385D02*
D03*
X4751753Y1582804D02*
D03*
X5205028Y1390281D02*
D03*
X4852949Y875528D02*
D03*
X5023345Y801271D02*
D03*
X5173356Y1659314D02*
D03*
X5648421Y1593237D02*
D03*
X5300131Y1395739D02*
D03*
X5340155Y1027516D02*
D03*
X5158454Y1233108D02*
D03*
Y1117516D02*
D03*
X5118269Y1605250D02*
D03*
X5405536Y907938D02*
D03*
X5410013Y1118145D02*
D03*
X5515401Y1336673D02*
D03*
X4771197Y875973D02*
D03*
X4774416Y1503912D02*
D03*
X7419891Y1110775D02*
D03*
X7352120Y1171624D02*
D03*
X7419891Y1228640D02*
D03*
X7352120Y1286460D02*
D03*
X8353242Y1538464D02*
D03*
X8688423Y1593385D02*
D03*
X7601753Y1582804D02*
D03*
X8055028Y1390281D02*
D03*
X7702949Y875528D02*
D03*
X7873345Y801271D02*
D03*
X8023356Y1659314D02*
D03*
X8498421Y1593237D02*
D03*
X8150131Y1395739D02*
D03*
X8190155Y1027516D02*
D03*
X8008454Y1233108D02*
D03*
Y1117516D02*
D03*
X7968269Y1605250D02*
D03*
X8255536Y907938D02*
D03*
X8260013Y1118145D02*
D03*
X8365401Y1336673D02*
D03*
X7621197Y875973D02*
D03*
X7624416Y1503912D02*
D03*
X1719891Y3010775D02*
D03*
X1652120Y3071624D02*
D03*
X1719891Y3128640D02*
D03*
X1652120Y3186460D02*
D03*
X2653242Y3438464D02*
D03*
X2988424Y3493385D02*
D03*
X1901753Y3482804D02*
D03*
X2355028Y3290281D02*
D03*
X2002949Y2775528D02*
D03*
X2173345Y2701271D02*
D03*
X2323356Y3559314D02*
D03*
X2798421Y3493237D02*
D03*
X2450131Y3295739D02*
D03*
X2490155Y2927516D02*
D03*
X2308454Y3133108D02*
D03*
Y3017516D02*
D03*
X2268269Y3505250D02*
D03*
X2555536Y2807938D02*
D03*
X2560013Y3018145D02*
D03*
X2665401Y3236673D02*
D03*
X1921197Y2775973D02*
D03*
X1924417Y3403912D02*
D03*
X4569891Y3010775D02*
D03*
X4502120Y3071624D02*
D03*
X4569891Y3128640D02*
D03*
X4502120Y3186460D02*
D03*
X5503242Y3438464D02*
D03*
X5838423Y3493385D02*
D03*
X4751753Y3482804D02*
D03*
X5205028Y3290281D02*
D03*
X4852949Y2775528D02*
D03*
X5023345Y2701271D02*
D03*
X5173356Y3559314D02*
D03*
X5648421Y3493237D02*
D03*
X5300131Y3295739D02*
D03*
X5340155Y2927516D02*
D03*
X5158454Y3133108D02*
D03*
Y3017516D02*
D03*
X5118269Y3505250D02*
D03*
X5405536Y2807938D02*
D03*
X5410013Y3018145D02*
D03*
X5515401Y3236673D02*
D03*
X4771197Y2775973D02*
D03*
X4774416Y3403912D02*
D03*
X7419891Y3010775D02*
D03*
X7352120Y3071624D02*
D03*
X7419891Y3128640D02*
D03*
X7352120Y3186460D02*
D03*
X8353242Y3438464D02*
D03*
X8688423Y3493385D02*
D03*
X7601753Y3482804D02*
D03*
X8055028Y3290281D02*
D03*
X7702949Y2775528D02*
D03*
X7873345Y2701271D02*
D03*
X8023356Y3559314D02*
D03*
X8498421Y3493237D02*
D03*
X8150131Y3295739D02*
D03*
X8190155Y2927516D02*
D03*
X8008454Y3133108D02*
D03*
Y3017516D02*
D03*
X7968269Y3505250D02*
D03*
X8255536Y2807938D02*
D03*
X8260013Y3018145D02*
D03*
X8365401Y3236673D02*
D03*
X7621197Y2775973D02*
D03*
X7624416Y3403912D02*
D03*
X1719891Y4910775D02*
D03*
X1652120Y4971624D02*
D03*
X1719891Y5028640D02*
D03*
X1652120Y5086460D02*
D03*
X2653242Y5338464D02*
D03*
X2988424Y5393385D02*
D03*
X1901753Y5382804D02*
D03*
X2355028Y5190281D02*
D03*
X2002949Y4675528D02*
D03*
X2173345Y4601271D02*
D03*
X2323356Y5459314D02*
D03*
X2798421Y5393237D02*
D03*
X2450131Y5195739D02*
D03*
X2490155Y4827516D02*
D03*
X2308454Y5033108D02*
D03*
Y4917516D02*
D03*
X2268269Y5405250D02*
D03*
X2555536Y4707938D02*
D03*
X2560013Y4918145D02*
D03*
X2665401Y5136673D02*
D03*
X1921197Y4675973D02*
D03*
X1924417Y5303912D02*
D03*
X4569891Y4910775D02*
D03*
X4502120Y4971624D02*
D03*
X4569891Y5028640D02*
D03*
X4502120Y5086460D02*
D03*
X5503242Y5338464D02*
D03*
X5838423Y5393385D02*
D03*
X4751753Y5382804D02*
D03*
X5205028Y5190281D02*
D03*
X4852949Y4675528D02*
D03*
X5023345Y4601271D02*
D03*
X5173356Y5459314D02*
D03*
X5648421Y5393237D02*
D03*
X5300131Y5195739D02*
D03*
X5340155Y4827516D02*
D03*
X5158454Y5033108D02*
D03*
Y4917516D02*
D03*
X5118269Y5405250D02*
D03*
X5405536Y4707938D02*
D03*
X5410013Y4918145D02*
D03*
X5515401Y5136673D02*
D03*
X4771197Y4675973D02*
D03*
X4774416Y5303912D02*
D03*
X7419891Y4910775D02*
D03*
X7352120Y4971624D02*
D03*
X7419891Y5028640D02*
D03*
X7352120Y5086460D02*
D03*
X8353242Y5338464D02*
D03*
X8688423Y5393385D02*
D03*
X7601753Y5382804D02*
D03*
X8055028Y5190281D02*
D03*
X7702949Y4675528D02*
D03*
X7873345Y4601271D02*
D03*
X8023356Y5459314D02*
D03*
X8498421Y5393237D02*
D03*
X8150131Y5195739D02*
D03*
X8190155Y4827516D02*
D03*
X8008454Y5033108D02*
D03*
Y4917516D02*
D03*
X7968269Y5405250D02*
D03*
X8255536Y4707938D02*
D03*
X8260013Y4918145D02*
D03*
X8365401Y5136673D02*
D03*
X7621197Y4675973D02*
D03*
X7624416Y5303912D02*
D03*
X1719891Y6810775D02*
D03*
X1652120Y6871624D02*
D03*
X1719891Y6928640D02*
D03*
X1652120Y6986460D02*
D03*
X2653242Y7238464D02*
D03*
X2988424Y7293385D02*
D03*
X1901753Y7282804D02*
D03*
X2355028Y7090281D02*
D03*
X2002949Y6575528D02*
D03*
X2173345Y6501271D02*
D03*
X2323356Y7359314D02*
D03*
X2798421Y7293237D02*
D03*
X2450131Y7095739D02*
D03*
X2490155Y6727516D02*
D03*
X2308454Y6933108D02*
D03*
Y6817516D02*
D03*
X2268269Y7305250D02*
D03*
X2555536Y6607938D02*
D03*
X2560013Y6818145D02*
D03*
X2665401Y7036673D02*
D03*
X1921197Y6575973D02*
D03*
X1924417Y7203912D02*
D03*
X4569891Y6810775D02*
D03*
X4502120Y6871624D02*
D03*
X4569891Y6928640D02*
D03*
X4502120Y6986460D02*
D03*
X5503242Y7238464D02*
D03*
X5838423Y7293385D02*
D03*
X4751753Y7282804D02*
D03*
X5205028Y7090281D02*
D03*
X4852949Y6575528D02*
D03*
X5023345Y6501271D02*
D03*
X5173356Y7359314D02*
D03*
X5648421Y7293237D02*
D03*
X5300131Y7095739D02*
D03*
X5340155Y6727516D02*
D03*
X5158454Y6933108D02*
D03*
Y6817516D02*
D03*
X5118269Y7305250D02*
D03*
X5405536Y6607938D02*
D03*
X5410013Y6818145D02*
D03*
X5515401Y7036673D02*
D03*
X4771197Y6575973D02*
D03*
X4774416Y7203912D02*
D03*
X7419891Y6810775D02*
D03*
X7352120Y6871624D02*
D03*
X7419891Y6928640D02*
D03*
X7352120Y6986460D02*
D03*
X8353242Y7238464D02*
D03*
X8688423Y7293385D02*
D03*
X7601753Y7282804D02*
D03*
X8055028Y7090281D02*
D03*
X7702949Y6575528D02*
D03*
X7873345Y6501271D02*
D03*
X8023356Y7359314D02*
D03*
X8498421Y7293237D02*
D03*
X8150131Y7095739D02*
D03*
X8190155Y6727516D02*
D03*
X8008454Y6933108D02*
D03*
Y6817516D02*
D03*
X7968269Y7305250D02*
D03*
X8255536Y6607938D02*
D03*
X8260013Y6818145D02*
D03*
X8365401Y7036673D02*
D03*
X7621197Y6575973D02*
D03*
X7624416Y7203912D02*
D03*
X1719891Y8710775D02*
D03*
X1652120Y8771624D02*
D03*
X1719891Y8828640D02*
D03*
X1652120Y8886460D02*
D03*
X2653242Y9138464D02*
D03*
X2988424Y9193385D02*
D03*
X1901753Y9182804D02*
D03*
X2355028Y8990281D02*
D03*
X2002949Y8475528D02*
D03*
X2173345Y8401271D02*
D03*
X2323356Y9259314D02*
D03*
X2798421Y9193237D02*
D03*
X2450131Y8995739D02*
D03*
X2490155Y8627516D02*
D03*
X2308454Y8833108D02*
D03*
Y8717516D02*
D03*
X2268269Y9205250D02*
D03*
X2555536Y8507938D02*
D03*
X2560013Y8718145D02*
D03*
X2665401Y8936673D02*
D03*
X1921197Y8475973D02*
D03*
X1924417Y9103912D02*
D03*
X4569891Y8710775D02*
D03*
X4502120Y8771624D02*
D03*
X4569891Y8828640D02*
D03*
X4502120Y8886460D02*
D03*
X5503242Y9138464D02*
D03*
X5838423Y9193385D02*
D03*
X4751753Y9182804D02*
D03*
X5205028Y8990281D02*
D03*
X4852949Y8475528D02*
D03*
X5023345Y8401271D02*
D03*
X5173356Y9259314D02*
D03*
X5648421Y9193237D02*
D03*
X5300131Y8995739D02*
D03*
X5340155Y8627516D02*
D03*
X5158454Y8833108D02*
D03*
Y8717516D02*
D03*
X5118269Y9205250D02*
D03*
X5405536Y8507938D02*
D03*
X5410013Y8718145D02*
D03*
X5515401Y8936673D02*
D03*
X4771197Y8475973D02*
D03*
X4774416Y9103912D02*
D03*
X7419891Y8710775D02*
D03*
X7352120Y8771624D02*
D03*
X7419891Y8828640D02*
D03*
X7352120Y8886460D02*
D03*
X8353242Y9138464D02*
D03*
X8688423Y9193385D02*
D03*
X7601753Y9182804D02*
D03*
X8055028Y8990281D02*
D03*
X7702949Y8475528D02*
D03*
X7873345Y8401271D02*
D03*
X8023356Y9259314D02*
D03*
X8498421Y9193237D02*
D03*
X8150131Y8995739D02*
D03*
X8190155Y8627516D02*
D03*
X8008454Y8833108D02*
D03*
Y8717516D02*
D03*
X7968269Y9205250D02*
D03*
X8255536Y8507938D02*
D03*
X8260013Y8718145D02*
D03*
X8365401Y8936673D02*
D03*
X7621197Y8475973D02*
D03*
X7624416Y9103912D02*
D03*
%TF.MD5,0724a007f13b1ed4417330ec68687fdd*%
M02*
