M48
;Layer_Color=5050912
;FILE_FORMAT=4:4
METRIC,LZ
;TYPE=NON_PLATED
T06F00S00C0.6500
%
T06
X00171654Y000911
X00456654
X00741654
Y001489
Y002811
Y003389
Y004711
Y005289
X00456654
Y004711
Y003389
Y002811
Y001489
X00171654
Y002811
Y003389
Y004711
Y005289
Y006611
Y007189
Y008511
Y009089
X00456654
Y008511
Y007189
Y006611
X00741654
Y007189
Y008511
Y009089
M30
