%TF.GenerationSoftware,Altium Limited,Altium Designer,25.4.2 (15)*%
G04 Layer_Color=128*
%FSLAX45Y45*%
%MOMM*%
%TF.SameCoordinates,6791CEA5-0592-433A-98BD-FF1B9D05833A*%
%TF.FilePolarity,Positive*%
%TF.FileFunction,Paste,Bot*%
%TF.Part,CustomerPanel*%
G01*
G75*
%TA.AperFunction,SMDPad,CuDef*%
%ADD18O,0.30000X1.25000*%
G04:AMPARAMS|DCode=19|XSize=0.6mm|YSize=0.9mm|CornerRadius=0.03mm|HoleSize=0mm|Usage=FLASHONLY|Rotation=0.000|XOffset=0mm|YOffset=0mm|HoleType=Round|Shape=RoundedRectangle|*
%AMROUNDEDRECTD19*
21,1,0.60000,0.84000,0,0,0.0*
21,1,0.54000,0.90000,0,0,0.0*
1,1,0.06000,0.27000,-0.42000*
1,1,0.06000,-0.27000,-0.42000*
1,1,0.06000,-0.27000,0.42000*
1,1,0.06000,0.27000,0.42000*
%
%ADD19ROUNDEDRECTD19*%
G04:AMPARAMS|DCode=22|XSize=0.9mm|YSize=0.7mm|CornerRadius=0.0035mm|HoleSize=0mm|Usage=FLASHONLY|Rotation=270.000|XOffset=0mm|YOffset=0mm|HoleType=Round|Shape=RoundedRectangle|*
%AMROUNDEDRECTD22*
21,1,0.90000,0.69300,0,0,270.0*
21,1,0.89300,0.70000,0,0,270.0*
1,1,0.00700,-0.34650,-0.44650*
1,1,0.00700,-0.34650,0.44650*
1,1,0.00700,0.34650,0.44650*
1,1,0.00700,0.34650,-0.44650*
%
%ADD22ROUNDEDRECTD22*%
G04:AMPARAMS|DCode=23|XSize=0.85mm|YSize=0.75mm|CornerRadius=0.00375mm|HoleSize=0mm|Usage=FLASHONLY|Rotation=180.000|XOffset=0mm|YOffset=0mm|HoleType=Round|Shape=RoundedRectangle|*
%AMROUNDEDRECTD23*
21,1,0.85000,0.74250,0,0,180.0*
21,1,0.84250,0.75000,0,0,180.0*
1,1,0.00750,-0.42125,0.37125*
1,1,0.00750,0.42125,0.37125*
1,1,0.00750,0.42125,-0.37125*
1,1,0.00750,-0.42125,-0.37125*
%
%ADD23ROUNDEDRECTD23*%
G04:AMPARAMS|DCode=24|XSize=0.8mm|YSize=0.7mm|CornerRadius=0.0035mm|HoleSize=0mm|Usage=FLASHONLY|Rotation=180.000|XOffset=0mm|YOffset=0mm|HoleType=Round|Shape=RoundedRectangle|*
%AMROUNDEDRECTD24*
21,1,0.80000,0.69300,0,0,180.0*
21,1,0.79300,0.70000,0,0,180.0*
1,1,0.00700,-0.39650,0.34650*
1,1,0.00700,0.39650,0.34650*
1,1,0.00700,0.39650,-0.34650*
1,1,0.00700,-0.39650,-0.34650*
%
%ADD24ROUNDEDRECTD24*%
G04:AMPARAMS|DCode=25|XSize=0.4mm|YSize=0.4mm|CornerRadius=0.002mm|HoleSize=0mm|Usage=FLASHONLY|Rotation=0.000|XOffset=0mm|YOffset=0mm|HoleType=Round|Shape=RoundedRectangle|*
%AMROUNDEDRECTD25*
21,1,0.40000,0.39600,0,0,0.0*
21,1,0.39600,0.40000,0,0,0.0*
1,1,0.00400,0.19800,-0.19800*
1,1,0.00400,-0.19800,-0.19800*
1,1,0.00400,-0.19800,0.19800*
1,1,0.00400,0.19800,0.19800*
%
%ADD25ROUNDEDRECTD25*%
D18*
X2560500Y1438000D02*
D03*
X2610500D02*
D03*
X2660500D02*
D03*
X2710500D02*
D03*
X2760500D02*
D03*
X2560500Y1013000D02*
D03*
X2610500D02*
D03*
X2660500D02*
D03*
X2710500D02*
D03*
X2760500D02*
D03*
X5410500Y1438000D02*
D03*
X5460500D02*
D03*
X5510500D02*
D03*
X5560500D02*
D03*
X5610500D02*
D03*
X5410500Y1013000D02*
D03*
X5460500D02*
D03*
X5510500D02*
D03*
X5560500D02*
D03*
X5610500D02*
D03*
X8260500Y1438000D02*
D03*
X8310500D02*
D03*
X8360500D02*
D03*
X8410500D02*
D03*
X8460500D02*
D03*
X8260500Y1013000D02*
D03*
X8310500D02*
D03*
X8360500D02*
D03*
X8410500D02*
D03*
X8460500D02*
D03*
X2560500Y3338000D02*
D03*
X2610500D02*
D03*
X2660500D02*
D03*
X2710500D02*
D03*
X2760500D02*
D03*
X2560500Y2913000D02*
D03*
X2610500D02*
D03*
X2660500D02*
D03*
X2710500D02*
D03*
X2760500D02*
D03*
X5410500Y3338000D02*
D03*
X5460500D02*
D03*
X5510500D02*
D03*
X5560500D02*
D03*
X5610500D02*
D03*
X5410500Y2913000D02*
D03*
X5460500D02*
D03*
X5510500D02*
D03*
X5560500D02*
D03*
X5610500D02*
D03*
X8260500Y3338000D02*
D03*
X8310500D02*
D03*
X8360500D02*
D03*
X8410500D02*
D03*
X8460500D02*
D03*
X8260500Y2913000D02*
D03*
X8310500D02*
D03*
X8360500D02*
D03*
X8410500D02*
D03*
X8460500D02*
D03*
X2560500Y5238000D02*
D03*
X2610500D02*
D03*
X2660500D02*
D03*
X2710500D02*
D03*
X2760500D02*
D03*
X2560500Y4813000D02*
D03*
X2610500D02*
D03*
X2660500D02*
D03*
X2710500D02*
D03*
X2760500D02*
D03*
X5410500Y5238000D02*
D03*
X5460500D02*
D03*
X5510500D02*
D03*
X5560500D02*
D03*
X5610500D02*
D03*
X5410500Y4813000D02*
D03*
X5460500D02*
D03*
X5510500D02*
D03*
X5560500D02*
D03*
X5610500D02*
D03*
X8260500Y5238000D02*
D03*
X8310500D02*
D03*
X8360500D02*
D03*
X8410500D02*
D03*
X8460500D02*
D03*
X8260500Y4813000D02*
D03*
X8310500D02*
D03*
X8360500D02*
D03*
X8410500D02*
D03*
X8460500D02*
D03*
X2560500Y7138000D02*
D03*
X2610500D02*
D03*
X2660500D02*
D03*
X2710500D02*
D03*
X2760500D02*
D03*
X2560500Y6713000D02*
D03*
X2610500D02*
D03*
X2660500D02*
D03*
X2710500D02*
D03*
X2760500D02*
D03*
X5410500Y7138000D02*
D03*
X5460500D02*
D03*
X5510500D02*
D03*
X5560500D02*
D03*
X5610500D02*
D03*
X5410500Y6713000D02*
D03*
X5460500D02*
D03*
X5510500D02*
D03*
X5560500D02*
D03*
X5610500D02*
D03*
X8260500Y7138000D02*
D03*
X8310500D02*
D03*
X8360500D02*
D03*
X8410500D02*
D03*
X8460500D02*
D03*
X8260500Y6713000D02*
D03*
X8310500D02*
D03*
X8360500D02*
D03*
X8410500D02*
D03*
X8460500D02*
D03*
X2560500Y9038000D02*
D03*
X2610500D02*
D03*
X2660500D02*
D03*
X2710500D02*
D03*
X2760500D02*
D03*
X2560500Y8613000D02*
D03*
X2610500D02*
D03*
X2660500D02*
D03*
X2710500D02*
D03*
X2760500D02*
D03*
X5410500Y9038000D02*
D03*
X5460500D02*
D03*
X5510500D02*
D03*
X5560500D02*
D03*
X5610500D02*
D03*
X5410500Y8613000D02*
D03*
X5460500D02*
D03*
X5510500D02*
D03*
X5560500D02*
D03*
X5610500D02*
D03*
X8260500Y9038000D02*
D03*
X8310500D02*
D03*
X8360500D02*
D03*
X8410500D02*
D03*
X8460500D02*
D03*
X8260500Y8613000D02*
D03*
X8310500D02*
D03*
X8360500D02*
D03*
X8410500D02*
D03*
X8460500D02*
D03*
D19*
X2039194Y1454514D02*
D03*
X2173194D02*
D03*
X4889194D02*
D03*
X5023194D02*
D03*
X7739194D02*
D03*
X7873194D02*
D03*
X2039194Y3354514D02*
D03*
X2173194D02*
D03*
X4889194D02*
D03*
X5023194D02*
D03*
X7739194D02*
D03*
X7873194D02*
D03*
X2039194Y5254514D02*
D03*
X2173194D02*
D03*
X4889194D02*
D03*
X5023194D02*
D03*
X7739194D02*
D03*
X7873194D02*
D03*
X2039194Y7154514D02*
D03*
X2173194D02*
D03*
X4889194D02*
D03*
X5023194D02*
D03*
X7739194D02*
D03*
X7873194D02*
D03*
X2039194Y9054514D02*
D03*
X2173194D02*
D03*
X4889194D02*
D03*
X5023194D02*
D03*
X7739194D02*
D03*
X7873194D02*
D03*
D22*
X2180800Y1605000D02*
D03*
X2030800D02*
D03*
X2049405Y1783824D02*
D03*
X2199405D02*
D03*
X2568960D02*
D03*
X2718960D02*
D03*
X2760500Y646380D02*
D03*
X2610500D02*
D03*
X3038368Y1744754D02*
D03*
X2888367D02*
D03*
X2173044Y703663D02*
D03*
X2023044D02*
D03*
X2183953Y897792D02*
D03*
X2333953D02*
D03*
X5030800Y1605000D02*
D03*
X4880800D02*
D03*
X4899405Y1783824D02*
D03*
X5049405D02*
D03*
X5418959D02*
D03*
X5568960D02*
D03*
X5610500Y646380D02*
D03*
X5460500D02*
D03*
X5888367Y1744754D02*
D03*
X5738367D02*
D03*
X5023044Y703663D02*
D03*
X4873044D02*
D03*
X5033953Y897792D02*
D03*
X5183953D02*
D03*
X7880800Y1605000D02*
D03*
X7730800D02*
D03*
X7749405Y1783824D02*
D03*
X7899405D02*
D03*
X8268959D02*
D03*
X8418960D02*
D03*
X8460500Y646380D02*
D03*
X8310500D02*
D03*
X8738367Y1744754D02*
D03*
X8588367D02*
D03*
X7873044Y703663D02*
D03*
X7723043D02*
D03*
X7883953Y897792D02*
D03*
X8033953D02*
D03*
X2180800Y3505000D02*
D03*
X2030800D02*
D03*
X2049405Y3683824D02*
D03*
X2199405D02*
D03*
X2568960D02*
D03*
X2718960D02*
D03*
X2760500Y2546380D02*
D03*
X2610500D02*
D03*
X3038368Y3644754D02*
D03*
X2888367D02*
D03*
X2173044Y2603663D02*
D03*
X2023044D02*
D03*
X2183953Y2797792D02*
D03*
X2333953D02*
D03*
X5030800Y3505000D02*
D03*
X4880800D02*
D03*
X4899405Y3683824D02*
D03*
X5049405D02*
D03*
X5418959D02*
D03*
X5568960D02*
D03*
X5610500Y2546380D02*
D03*
X5460500D02*
D03*
X5888367Y3644754D02*
D03*
X5738367D02*
D03*
X5023044Y2603663D02*
D03*
X4873044D02*
D03*
X5033953Y2797792D02*
D03*
X5183953D02*
D03*
X7880800Y3505000D02*
D03*
X7730800D02*
D03*
X7749405Y3683824D02*
D03*
X7899405D02*
D03*
X8268959D02*
D03*
X8418960D02*
D03*
X8460500Y2546380D02*
D03*
X8310500D02*
D03*
X8738367Y3644754D02*
D03*
X8588367D02*
D03*
X7873044Y2603663D02*
D03*
X7723043D02*
D03*
X7883953Y2797792D02*
D03*
X8033953D02*
D03*
X2180800Y5405000D02*
D03*
X2030800D02*
D03*
X2049405Y5583824D02*
D03*
X2199405D02*
D03*
X2568960D02*
D03*
X2718960D02*
D03*
X2760500Y4446380D02*
D03*
X2610500D02*
D03*
X3038368Y5544754D02*
D03*
X2888367D02*
D03*
X2173044Y4503663D02*
D03*
X2023044D02*
D03*
X2183953Y4697792D02*
D03*
X2333953D02*
D03*
X5030800Y5405000D02*
D03*
X4880800D02*
D03*
X4899405Y5583824D02*
D03*
X5049405D02*
D03*
X5418959D02*
D03*
X5568960D02*
D03*
X5610500Y4446380D02*
D03*
X5460500D02*
D03*
X5888367Y5544754D02*
D03*
X5738367D02*
D03*
X5023044Y4503663D02*
D03*
X4873044D02*
D03*
X5033953Y4697792D02*
D03*
X5183953D02*
D03*
X7880800Y5405000D02*
D03*
X7730800D02*
D03*
X7749405Y5583824D02*
D03*
X7899405D02*
D03*
X8268959D02*
D03*
X8418960D02*
D03*
X8460500Y4446380D02*
D03*
X8310500D02*
D03*
X8738367Y5544754D02*
D03*
X8588367D02*
D03*
X7873044Y4503663D02*
D03*
X7723043D02*
D03*
X7883953Y4697792D02*
D03*
X8033953D02*
D03*
X2180800Y7305000D02*
D03*
X2030800D02*
D03*
X2049405Y7483825D02*
D03*
X2199405D02*
D03*
X2568960D02*
D03*
X2718960D02*
D03*
X2760500Y6346380D02*
D03*
X2610500D02*
D03*
X3038368Y7444754D02*
D03*
X2888367D02*
D03*
X2173044Y6403663D02*
D03*
X2023044D02*
D03*
X2183953Y6597792D02*
D03*
X2333953D02*
D03*
X5030800Y7305000D02*
D03*
X4880800D02*
D03*
X4899405Y7483825D02*
D03*
X5049405D02*
D03*
X5418959D02*
D03*
X5568960D02*
D03*
X5610500Y6346380D02*
D03*
X5460500D02*
D03*
X5888367Y7444754D02*
D03*
X5738367D02*
D03*
X5023044Y6403663D02*
D03*
X4873044D02*
D03*
X5033953Y6597792D02*
D03*
X5183953D02*
D03*
X7880800Y7305000D02*
D03*
X7730800D02*
D03*
X7749405Y7483825D02*
D03*
X7899405D02*
D03*
X8268959D02*
D03*
X8418960D02*
D03*
X8460500Y6346380D02*
D03*
X8310500D02*
D03*
X8738367Y7444754D02*
D03*
X8588367D02*
D03*
X7873044Y6403663D02*
D03*
X7723043D02*
D03*
X7883953Y6597792D02*
D03*
X8033953D02*
D03*
X2180800Y9205000D02*
D03*
X2030800D02*
D03*
X2049405Y9383825D02*
D03*
X2199405D02*
D03*
X2568960D02*
D03*
X2718960D02*
D03*
X2760500Y8246380D02*
D03*
X2610500D02*
D03*
X3038368Y9344754D02*
D03*
X2888367D02*
D03*
X2173044Y8303663D02*
D03*
X2023044D02*
D03*
X2183953Y8497792D02*
D03*
X2333953D02*
D03*
X5030800Y9205000D02*
D03*
X4880800D02*
D03*
X4899405Y9383825D02*
D03*
X5049405D02*
D03*
X5418959D02*
D03*
X5568960D02*
D03*
X5610500Y8246380D02*
D03*
X5460500D02*
D03*
X5888367Y9344754D02*
D03*
X5738367D02*
D03*
X5023044Y8303663D02*
D03*
X4873044D02*
D03*
X5033953Y8497792D02*
D03*
X5183953D02*
D03*
X7880800Y9205000D02*
D03*
X7730800D02*
D03*
X7749405Y9383825D02*
D03*
X7899405D02*
D03*
X8268959D02*
D03*
X8418960D02*
D03*
X8460500Y8246380D02*
D03*
X8310500D02*
D03*
X8738367Y9344754D02*
D03*
X8588367D02*
D03*
X7873044Y8303663D02*
D03*
X7723043D02*
D03*
X7883953Y8497792D02*
D03*
X8033953D02*
D03*
D23*
X2893368Y1593000D02*
D03*
Y1438000D02*
D03*
X2418400Y1659100D02*
D03*
Y1504100D02*
D03*
X5743367Y1593000D02*
D03*
Y1438000D02*
D03*
X5268400Y1659100D02*
D03*
Y1504100D02*
D03*
X8593367Y1593000D02*
D03*
Y1438000D02*
D03*
X8118400Y1659100D02*
D03*
Y1504100D02*
D03*
X2893368Y3493000D02*
D03*
Y3338000D02*
D03*
X2418400Y3559100D02*
D03*
Y3404100D02*
D03*
X5743367Y3493000D02*
D03*
Y3338000D02*
D03*
X5268400Y3559100D02*
D03*
Y3404100D02*
D03*
X8593367Y3493000D02*
D03*
Y3338000D02*
D03*
X8118400Y3559100D02*
D03*
Y3404100D02*
D03*
X2893368Y5393000D02*
D03*
Y5238000D02*
D03*
X2418400Y5459100D02*
D03*
Y5304100D02*
D03*
X5743367Y5393000D02*
D03*
Y5238000D02*
D03*
X5268400Y5459100D02*
D03*
Y5304100D02*
D03*
X8593367Y5393000D02*
D03*
Y5238000D02*
D03*
X8118400Y5459100D02*
D03*
Y5304100D02*
D03*
X2893368Y7293000D02*
D03*
Y7138000D02*
D03*
X2418400Y7359100D02*
D03*
Y7204100D02*
D03*
X5743367Y7293000D02*
D03*
Y7138000D02*
D03*
X5268400Y7359100D02*
D03*
Y7204100D02*
D03*
X8593367Y7293000D02*
D03*
Y7138000D02*
D03*
X8118400Y7359100D02*
D03*
Y7204100D02*
D03*
X2893368Y9193000D02*
D03*
Y9038000D02*
D03*
X2418400Y9259100D02*
D03*
Y9104100D02*
D03*
X5743367Y9193000D02*
D03*
Y9038000D02*
D03*
X5268400Y9259100D02*
D03*
Y9104100D02*
D03*
X8593367Y9193000D02*
D03*
Y9038000D02*
D03*
X8118400Y9259100D02*
D03*
Y9104100D02*
D03*
D24*
X3120520Y1607695D02*
D03*
Y1442695D02*
D03*
X5970520Y1607695D02*
D03*
Y1442695D02*
D03*
X8820520Y1607695D02*
D03*
Y1442695D02*
D03*
X3120520Y3507695D02*
D03*
Y3342695D02*
D03*
X5970520Y3507695D02*
D03*
Y3342695D02*
D03*
X8820520Y3507695D02*
D03*
Y3342695D02*
D03*
X3120520Y5407695D02*
D03*
Y5242695D02*
D03*
X5970520Y5407695D02*
D03*
Y5242695D02*
D03*
X8820520Y5407695D02*
D03*
Y5242695D02*
D03*
X3120520Y7307695D02*
D03*
Y7142695D02*
D03*
X5970520Y7307695D02*
D03*
Y7142695D02*
D03*
X8820520Y7307695D02*
D03*
Y7142695D02*
D03*
X3120520Y9207695D02*
D03*
Y9042695D02*
D03*
X5970520Y9207695D02*
D03*
Y9042695D02*
D03*
X8820520Y9207695D02*
D03*
Y9042695D02*
D03*
D25*
X2450420Y1323108D02*
D03*
Y1233108D02*
D03*
X2417500Y1027516D02*
D03*
Y1117516D02*
D03*
X2282075Y1388700D02*
D03*
Y1478700D02*
D03*
X5300420Y1323108D02*
D03*
Y1233108D02*
D03*
X5267500Y1027516D02*
D03*
Y1117516D02*
D03*
X5132075Y1388700D02*
D03*
Y1478700D02*
D03*
X8150420Y1323108D02*
D03*
Y1233108D02*
D03*
X8117500Y1027516D02*
D03*
Y1117516D02*
D03*
X7982075Y1388700D02*
D03*
Y1478700D02*
D03*
X2450420Y3223108D02*
D03*
Y3133108D02*
D03*
X2417500Y2927516D02*
D03*
Y3017516D02*
D03*
X2282075Y3288700D02*
D03*
Y3378700D02*
D03*
X5300420Y3223108D02*
D03*
Y3133108D02*
D03*
X5267500Y2927516D02*
D03*
Y3017516D02*
D03*
X5132075Y3288700D02*
D03*
Y3378700D02*
D03*
X8150420Y3223108D02*
D03*
Y3133108D02*
D03*
X8117500Y2927516D02*
D03*
Y3017516D02*
D03*
X7982075Y3288700D02*
D03*
Y3378700D02*
D03*
X2450420Y5123108D02*
D03*
Y5033108D02*
D03*
X2417500Y4827516D02*
D03*
Y4917516D02*
D03*
X2282075Y5188700D02*
D03*
Y5278700D02*
D03*
X5300420Y5123108D02*
D03*
Y5033108D02*
D03*
X5267500Y4827516D02*
D03*
Y4917516D02*
D03*
X5132075Y5188700D02*
D03*
Y5278700D02*
D03*
X8150420Y5123108D02*
D03*
Y5033108D02*
D03*
X8117500Y4827516D02*
D03*
Y4917516D02*
D03*
X7982075Y5188700D02*
D03*
Y5278700D02*
D03*
X2450420Y7023108D02*
D03*
Y6933108D02*
D03*
X2417500Y6727516D02*
D03*
Y6817516D02*
D03*
X2282075Y7088700D02*
D03*
Y7178700D02*
D03*
X5300420Y7023108D02*
D03*
Y6933108D02*
D03*
X5267500Y6727516D02*
D03*
Y6817516D02*
D03*
X5132075Y7088700D02*
D03*
Y7178700D02*
D03*
X8150420Y7023108D02*
D03*
Y6933108D02*
D03*
X8117500Y6727516D02*
D03*
Y6817516D02*
D03*
X7982075Y7088700D02*
D03*
Y7178700D02*
D03*
X2450420Y8923108D02*
D03*
Y8833108D02*
D03*
X2417500Y8627516D02*
D03*
Y8717516D02*
D03*
X2282075Y8988700D02*
D03*
Y9078700D02*
D03*
X5300420Y8923108D02*
D03*
Y8833108D02*
D03*
X5267500Y8627516D02*
D03*
Y8717516D02*
D03*
X5132075Y8988700D02*
D03*
Y9078700D02*
D03*
X8150420Y8923108D02*
D03*
Y8833108D02*
D03*
X8117500Y8627516D02*
D03*
Y8717516D02*
D03*
X7982075Y8988700D02*
D03*
Y9078700D02*
D03*
%TF.MD5,eab1e03ee42f09f987e4912e28e5367d*%
M02*
