M48
;Layer_Color=5050912
;FILE_FORMAT=4:4
METRIC,LZ
;TYPE=PLATED
T01F00S00C0.3500
T04F00S00C0.8000
%
T01
X0019212Y00087597
X00200295Y00087553
X00217334Y00080127
X00230845Y00111752
Y00123311
X00235503Y00139028
X00245013Y00139574
X0026654Y00133667
X00256001Y00111814
X00249016Y00102752
X00255554Y00090794
X00171989Y00111077
Y00122864
X00165212Y00117162
Y00128646
X00450212
Y00117162
X00456989Y00122864
Y00111077
X0047712Y00087597
X00485295Y00087553
X00502335Y00080127
X00515845Y00111752
Y00123311
X00520503Y00139028
X00530013Y00139574
X00541001Y00111814
X00534016Y00102752
X00540554Y00090794
X0055154Y00133667
X00735212Y00128646
Y00117162
X00741989Y00122864
Y00111077
X0076212Y00087597
X00770295Y00087553
X00787335Y00080127
X00800845Y00111752
Y00123311
X00805503Y00139028
X00815013Y00139574
X0083654Y00133667
X00826001Y00111814
X00819016Y00102752
X00825554Y00090794
X00835324Y00153846
X00849842Y00159324
X00868842Y00159339
X00802336Y00165931
X00796827Y00160525
X00760175Y0015828
X00762442Y00150391
X0076212Y00277597
X00770295Y00277553
X00787335Y00270127
X00800845Y00301752
Y00313311
X00805503Y00329028
X00815013Y00329574
X0083654Y00323667
X00835324Y00343846
X00849842Y00349324
X00868842Y00349338
X00802336Y00355931
X00796827Y00350525
X00760175Y0034828
X00762442Y00340391
X00741989Y00312864
Y00301077
X00735212Y00307162
Y00318646
X00826001Y00301814
X00819016Y00292752
X00825554Y00280794
Y00470794
X00819016Y00482752
X00826001Y00491814
X00800845Y00491752
Y00503311
X00805503Y00519028
X00815013Y00519574
X0083654Y00513667
X00835324Y00533846
X00849842Y00539324
X00868842Y00539338
X00796827Y00540525
X00760175Y0053828
X00762442Y00530391
X00741989Y00502864
Y00491077
X00735212Y00497162
Y00508646
X0076212Y00467597
X00770295Y00467553
X00787335Y00460127
X00583842Y00539338
X00564842Y00539324
X00550324Y00533846
X0055154Y00513667
X00550324Y00343846
X00564842Y00349324
X00583842Y00349338
X0055154Y00323667
X00550324Y00153846
X00564842Y00159324
X00583842Y00159339
X00517336Y00165931
X00511827Y00160525
X00475175Y0015828
X00477442Y00150391
X0047712Y00277597
X00485295Y00277553
X00502335Y00270127
X00515845Y00301752
Y00313311
X00520503Y00329028
X00530013Y00329574
X00541001Y00301814
X00534016Y00292752
X00540554Y00280794
X00517336Y00355931
X00511827Y00350525
X00475175Y0034828
X00477442Y00340391
X00456989Y00312864
Y00301077
X00450212Y00307162
Y00318646
X0047712Y00467597
X00485295Y00467553
X00502335Y00460127
X00515845Y00491752
Y00503311
X00520503Y00519028
X00530013Y00519574
X00541001Y00491814
X00534016Y00482752
X00540554Y00470794
X00511827Y00540525
X00475175Y0053828
X00477442Y00530391
X00456989Y00502864
Y00491077
X00450212Y00497162
Y00508646
X00298842Y00539338
X00279842Y00539324
X00265324Y00533846
X0026654Y00513667
X00245013Y00519574
X00235503Y00519028
X00230845Y00503311
Y00491752
X00256001Y00491814
X00249016Y00482752
X00255554Y00470794
X00217334Y00460127
X00200295Y00467553
X0019212Y00467597
X00171989Y00491077
Y00502864
X00165212Y00497162
Y00508646
X00192442Y00530391
X00190175Y0053828
X00226827Y00540525
Y00350525
X00232336Y00355931
X00235503Y00329028
X00245013Y00329574
X0026654Y00323667
X00265324Y00343846
X00279842Y00349324
X00298842Y00349338
X00256001Y00301814
X00249016Y00292752
X00255554Y00280794
X00230845Y00301752
Y00313311
X00217334Y00270127
X00200295Y00277553
X0019212Y00277597
X00171989Y00301077
Y00312864
X00165212Y00307162
Y00318646
X00192442Y00340391
X00190175Y0034828
Y0015828
X00192442Y00150391
X00226827Y00160525
X00232336Y00165931
X00265324Y00153846
X00279842Y00159324
X00298842Y00159339
X00232336Y00545931
X00217334Y00650127
X00200295Y00657553
X0019212Y00657597
X00171989Y00681077
Y00692864
X00165212Y00687162
Y00698646
X00192442Y00720391
X00190175Y0072828
X00226827Y00730525
X00232336Y00735931
X00235503Y00709028
X00245013Y00709574
X0026654Y00703667
X00265324Y00723846
X00279842Y00729324
X00298842Y00729339
X00256001Y00681814
X00249016Y00672752
X00255554Y00660794
X00230845Y00681752
Y00693311
X00217334Y00840127
X00200295Y00847553
X0019212Y00847597
X00171989Y00871077
Y00882864
X00165212Y00877162
Y00888646
X00192442Y00910391
X00190175Y0091828
X00226827Y00920525
X00232336Y00925931
X00235503Y00899028
X00245013Y00899574
X0026654Y00893667
X00265324Y00913846
X00279842Y00919324
X00298842Y00919339
X00256001Y00871814
X00249016Y00862752
X00255554Y00850794
X00230845Y00871752
Y00883311
X00450212Y00888646
Y00877162
X00456989Y00882864
Y00871077
X0047712Y00847597
X00485295Y00847553
X00502335Y00840127
X00515845Y00871752
Y00883311
X00520503Y00899028
X00530013Y00899574
X00541001Y00871814
X00534016Y00862752
X00540554Y00850794
X00517336Y00925931
X00511827Y00920525
X00475175Y0091828
X00477442Y00910391
X00475175Y0072828
X00477442Y00720391
X00511827Y00730525
X00517336Y00735931
X00520503Y00709028
X00530013Y00709574
X00515845Y00693311
Y00681752
X00541001Y00681814
X00534016Y00672752
X00540554Y00660794
X00502335Y00650127
X00485295Y00657553
X0047712Y00657597
X00456989Y00681077
Y00692864
X00450212Y00687162
Y00698646
X00517336Y00545931
X0055154Y00703667
X00550324Y00723846
X00564842Y00729324
X00583842Y00729339
X00760175Y0072828
X00762442Y00720391
X00796827Y00730525
X00802336Y00735931
X00805503Y00709028
X00815013Y00709574
X0083654Y00703667
X00835324Y00723846
X00849842Y00729324
X00868842Y00729339
X00826001Y00681814
X00819016Y00672752
X00825554Y00660794
X00800845Y00681752
Y00693311
X00787335Y00650127
X00770295Y00657553
X0076212Y00657597
X00741989Y00681077
Y00692864
X00735212Y00687162
Y00698646
X0076212Y00847597
X00770295Y00847553
X00787335Y00840127
X00800845Y00871752
Y00883311
X00805503Y00899028
X00815013Y00899574
X0083654Y00893667
X00835324Y00913846
X00849842Y00919324
X00868842Y00919339
X00802336Y00925931
X00796827Y00920525
X00760175Y0091828
X00762442Y00910391
X00741989Y00882864
Y00871077
X00735212Y00877162
Y00888646
X00826001Y00871814
X00819016Y00862752
X00825554Y00850794
X00583842Y00919339
X00564842Y00919324
X00550324Y00913846
X0055154Y00893667
X00802336Y00545931
T04
X00233395Y00076351
X00302604
X0028705Y00126303
X00518395Y00076351
X00587604
X0057205Y00126303
X00803395Y00076351
X00872604
X0085705Y00126303
X00872604Y00266351
X0085705Y00316303
X00803395Y00266351
Y00456351
X00872604
X0085705Y00506303
X0057205
X00587604Y00456351
X0057205Y00316303
X00587604Y00266351
X00518395
Y00456351
X00302604
X0028705Y00506303
X00233395Y00456351
Y00266351
X00302604
X0028705Y00316303
X00302604Y00646351
X0028705Y00696303
X00233395Y00646351
Y00836351
X00302604
X0028705Y00886303
X00518395Y00836351
Y00646351
X00587604
X0057205Y00696303
X00587604Y00836351
X0057205Y00886303
X00803395Y00836351
X00872604
X0085705Y00886303
Y00696303
X00872604Y00646351
X00803395
M30
