%TF.GenerationSoftware,Altium Limited,Altium Designer,25.4.2 (15)*%
G04 Layer_Color=16777215*
%FSLAX45Y45*%
%MOMM*%
%TF.SameCoordinates,6791CEA5-0592-433A-98BD-FF1B9D05833A*%
%TF.FilePolarity,Positive*%
%TF.FileFunction,Legend,Bot*%
%TF.Part,CustomerPanel*%
G01*
G75*
%TA.AperFunction,NonConductor*%
%ADD29C,0.10160*%
%ADD30C,0.12700*%
%ADD31C,0.20000*%
%ADD32C,0.10000*%
D29*
X2794800Y1149300D02*
G03*
X2794800Y1149300I-20000J0D01*
G01*
X2510500Y1115500D02*
Y1335500D01*
X2810500Y1115500D02*
Y1335500D01*
X2510500D02*
X2810500D01*
X2510500Y1115500D02*
X2810500D01*
X2218694Y1394514D02*
Y1429514D01*
X1993694Y1394514D02*
X2218694D01*
X1993694D02*
Y1429514D01*
X2218694Y1479514D02*
Y1514514D01*
X1993694D02*
X2218694D01*
X1993694Y1479514D02*
Y1514514D01*
X2123300Y1622500D02*
X2128300Y1605000D01*
X2113300Y1585000D02*
X2123300Y1622500D01*
X2103300D02*
X2113300Y1585000D01*
X2093300D02*
X2103300Y1622500D01*
X2083300Y1610000D02*
X2093300Y1585000D01*
X1975800Y1545000D02*
X2235800D01*
Y1665000D01*
X1975800D02*
X2235800D01*
X1975800Y1545000D02*
Y1665000D01*
X2101905Y1783824D02*
X2106905Y1766325D01*
X2116905Y1803825D01*
X2126905Y1766325D01*
X2136905Y1803825D01*
X2146905Y1778824D01*
X1994405Y1843824D02*
X2254405D01*
X1994405Y1723825D02*
Y1843824D01*
Y1723825D02*
X2254405D01*
Y1843824D01*
X2621460Y1783824D02*
X2626460Y1766325D01*
X2636460Y1803825D01*
X2646460Y1766325D01*
X2656460Y1803825D01*
X2666459Y1778824D01*
X2513960Y1843824D02*
X2773960D01*
X2513960Y1723825D02*
Y1843824D01*
Y1723825D02*
X2773960D01*
Y1843824D01*
X2703000Y663880D02*
X2708000Y646380D01*
X2693000Y626380D02*
X2703000Y663880D01*
X2683000D02*
X2693000Y626380D01*
X2673000D02*
X2683000Y663880D01*
X2663000Y651380D02*
X2673000Y626380D01*
X2555500Y586380D02*
X2815500D01*
Y706380D01*
X2555500D02*
X2815500D01*
X2555500Y586380D02*
Y706380D01*
X2953367Y1385500D02*
Y1445500D01*
X2833368Y1385500D02*
Y1445500D01*
X2953367Y1585500D02*
Y1645500D01*
X2833368Y1585500D02*
Y1645500D01*
X2868368Y1528000D02*
X2918368D01*
X2868368Y1503000D02*
X2918368D01*
X2893368Y1528000D02*
Y1540500D01*
Y1490500D02*
Y1503000D01*
X2833368Y1645500D02*
X2953367D01*
X2833368Y1385500D02*
X2953367D01*
X2980868Y1762254D02*
X2985868Y1744754D01*
X2970868Y1724754D02*
X2980868Y1762254D01*
X2960867D02*
X2970868Y1724754D01*
X2950867D02*
X2960867Y1762254D01*
X2940868Y1749754D02*
X2950867Y1724754D01*
X2833367Y1684754D02*
X3093367D01*
Y1804754D01*
X2833367D02*
X3093367D01*
X2833367Y1684754D02*
Y1804754D01*
X3120520Y1525195D02*
Y1557695D01*
X3095520Y1525195D02*
X3120520D01*
X3095520D02*
X3120520Y1497695D01*
X3145520Y1525195D01*
X3120520D02*
X3145520D01*
X3075520Y1507695D02*
X3085520Y1517695D01*
X3083020Y1497695D02*
X3093020Y1507695D01*
X3180000Y1395000D02*
Y1655000D01*
X3060000D02*
X3180000D01*
X3060000Y1395000D02*
Y1655000D01*
Y1395000D02*
X3180000D01*
X2478400Y1451600D02*
Y1511600D01*
X2358400Y1451600D02*
Y1511600D01*
X2478400Y1651600D02*
Y1711600D01*
X2358400Y1651600D02*
Y1711600D01*
X2393400Y1594100D02*
X2443400D01*
X2393400Y1569100D02*
X2443400D01*
X2418400Y1594100D02*
Y1606600D01*
Y1556600D02*
Y1569100D01*
X2358400Y1711600D02*
X2478400D01*
X2358400Y1451600D02*
X2478400D01*
X2450420Y1262868D02*
X2460580Y1275568D01*
X2437720D02*
X2460580D01*
X2437720D02*
X2450420Y1262868D01*
Y1290808D01*
X2407340Y1075056D02*
X2417500Y1087756D01*
X2407340Y1075056D02*
X2430200D01*
X2417500Y1087756D02*
X2430200Y1075056D01*
X2417500Y1059816D02*
Y1087756D01*
X2271915Y1436240D02*
X2282075Y1448940D01*
X2271915Y1436240D02*
X2294775D01*
X2282075Y1448940D02*
X2294775Y1436240D01*
X2282075Y1421000D02*
Y1448940D01*
X2115544Y721163D02*
X2120544Y703663D01*
X2105544Y683663D02*
X2115544Y721163D01*
X2095544D02*
X2105544Y683663D01*
X2085544D02*
X2095544Y721163D01*
X2075544Y708663D02*
X2085544Y683663D01*
X1968044Y643663D02*
X2228044D01*
Y763663D01*
X1968044D02*
X2228044D01*
X1968044Y643663D02*
Y763663D01*
X2236453Y897792D02*
X2241453Y880292D01*
X2251453Y917792D01*
X2261453Y880292D01*
X2271453Y917792D01*
X2281453Y892792D01*
X2128953Y957792D02*
X2388953D01*
X2128953Y837792D02*
Y957792D01*
Y837792D02*
X2388953D01*
Y957792D01*
X5644800Y1149300D02*
G03*
X5644800Y1149300I-20000J0D01*
G01*
X5360500Y1115500D02*
Y1335500D01*
X5660500Y1115500D02*
Y1335500D01*
X5360500D02*
X5660500D01*
X5360500Y1115500D02*
X5660500D01*
X5068694Y1394514D02*
Y1429514D01*
X4843694Y1394514D02*
X5068694D01*
X4843694D02*
Y1429514D01*
X5068694Y1479514D02*
Y1514514D01*
X4843694D02*
X5068694D01*
X4843694Y1479514D02*
Y1514514D01*
X4973300Y1622500D02*
X4978300Y1605000D01*
X4963300Y1585000D02*
X4973300Y1622500D01*
X4953300D02*
X4963300Y1585000D01*
X4943300D02*
X4953300Y1622500D01*
X4933300Y1610000D02*
X4943300Y1585000D01*
X4825800Y1545000D02*
X5085800D01*
Y1665000D01*
X4825800D02*
X5085800D01*
X4825800Y1545000D02*
Y1665000D01*
X4951905Y1783824D02*
X4956905Y1766325D01*
X4966905Y1803825D01*
X4976905Y1766325D01*
X4986905Y1803825D01*
X4996905Y1778824D01*
X4844405Y1843824D02*
X5104405D01*
X4844405Y1723825D02*
Y1843824D01*
Y1723825D02*
X5104405D01*
Y1843824D01*
X5471459Y1783824D02*
X5476459Y1766325D01*
X5486459Y1803825D01*
X5496460Y1766325D01*
X5506460Y1803825D01*
X5516459Y1778824D01*
X5363960Y1843824D02*
X5623960D01*
X5363960Y1723825D02*
Y1843824D01*
Y1723825D02*
X5623960D01*
Y1843824D01*
X5553000Y663880D02*
X5558000Y646380D01*
X5543000Y626380D02*
X5553000Y663880D01*
X5533000D02*
X5543000Y626380D01*
X5523000D02*
X5533000Y663880D01*
X5513000Y651380D02*
X5523000Y626380D01*
X5405500Y586380D02*
X5665500D01*
Y706380D01*
X5405500D02*
X5665500D01*
X5405500Y586380D02*
Y706380D01*
X5803367Y1385500D02*
Y1445500D01*
X5683368Y1385500D02*
Y1445500D01*
X5803367Y1585500D02*
Y1645500D01*
X5683368Y1585500D02*
Y1645500D01*
X5718368Y1528000D02*
X5768367D01*
X5718368Y1503000D02*
X5768367D01*
X5743367Y1528000D02*
Y1540500D01*
Y1490500D02*
Y1503000D01*
X5683368Y1645500D02*
X5803367D01*
X5683368Y1385500D02*
X5803367D01*
X5830867Y1762254D02*
X5835867Y1744754D01*
X5820867Y1724754D02*
X5830867Y1762254D01*
X5810867D02*
X5820867Y1724754D01*
X5800867D02*
X5810867Y1762254D01*
X5790868Y1749754D02*
X5800867Y1724754D01*
X5683367Y1684754D02*
X5943367D01*
Y1804754D01*
X5683367D02*
X5943367D01*
X5683367Y1684754D02*
Y1804754D01*
X5970520Y1525195D02*
Y1557695D01*
X5945520Y1525195D02*
X5970520D01*
X5945520D02*
X5970520Y1497695D01*
X5995520Y1525195D01*
X5970520D02*
X5995520D01*
X5925520Y1507695D02*
X5935520Y1517695D01*
X5933020Y1497695D02*
X5943020Y1507695D01*
X6030000Y1395000D02*
Y1655000D01*
X5910000D02*
X6030000D01*
X5910000Y1395000D02*
Y1655000D01*
Y1395000D02*
X6030000D01*
X5328400Y1451600D02*
Y1511600D01*
X5208400Y1451600D02*
Y1511600D01*
X5328400Y1651600D02*
Y1711600D01*
X5208400Y1651600D02*
Y1711600D01*
X5243400Y1594100D02*
X5293400D01*
X5243400Y1569100D02*
X5293400D01*
X5268400Y1594100D02*
Y1606600D01*
Y1556600D02*
Y1569100D01*
X5208400Y1711600D02*
X5328400D01*
X5208400Y1451600D02*
X5328400D01*
X5300420Y1262868D02*
X5310580Y1275568D01*
X5287720D02*
X5310580D01*
X5287720D02*
X5300420Y1262868D01*
Y1290808D01*
X5257340Y1075056D02*
X5267500Y1087756D01*
X5257340Y1075056D02*
X5280200D01*
X5267500Y1087756D02*
X5280200Y1075056D01*
X5267500Y1059816D02*
Y1087756D01*
X5121915Y1436240D02*
X5132075Y1448940D01*
X5121915Y1436240D02*
X5144775D01*
X5132075Y1448940D02*
X5144775Y1436240D01*
X5132075Y1421000D02*
Y1448940D01*
X4965544Y721163D02*
X4970544Y703663D01*
X4955544Y683663D02*
X4965544Y721163D01*
X4945544D02*
X4955544Y683663D01*
X4935544D02*
X4945544Y721163D01*
X4925544Y708663D02*
X4935544Y683663D01*
X4818044Y643663D02*
X5078044D01*
Y763663D01*
X4818044D02*
X5078044D01*
X4818044Y643663D02*
Y763663D01*
X5086453Y897792D02*
X5091453Y880292D01*
X5101453Y917792D01*
X5111453Y880292D01*
X5121453Y917792D01*
X5131453Y892792D01*
X4978953Y957792D02*
X5238953D01*
X4978953Y837792D02*
Y957792D01*
Y837792D02*
X5238953D01*
Y957792D01*
X8494800Y1149300D02*
G03*
X8494800Y1149300I-20000J0D01*
G01*
X8210500Y1115500D02*
Y1335500D01*
X8510500Y1115500D02*
Y1335500D01*
X8210500D02*
X8510500D01*
X8210500Y1115500D02*
X8510500D01*
X7918694Y1394514D02*
Y1429514D01*
X7693694Y1394514D02*
X7918694D01*
X7693694D02*
Y1429514D01*
X7918694Y1479514D02*
Y1514514D01*
X7693694D02*
X7918694D01*
X7693694Y1479514D02*
Y1514514D01*
X7823300Y1622500D02*
X7828300Y1605000D01*
X7813300Y1585000D02*
X7823300Y1622500D01*
X7803300D02*
X7813300Y1585000D01*
X7793300D02*
X7803300Y1622500D01*
X7783300Y1610000D02*
X7793300Y1585000D01*
X7675800Y1545000D02*
X7935800D01*
Y1665000D01*
X7675800D02*
X7935800D01*
X7675800Y1545000D02*
Y1665000D01*
X7801905Y1783824D02*
X7806905Y1766325D01*
X7816905Y1803825D01*
X7826905Y1766325D01*
X7836905Y1803825D01*
X7846905Y1778824D01*
X7694405Y1843824D02*
X7954405D01*
X7694405Y1723825D02*
Y1843824D01*
Y1723825D02*
X7954405D01*
Y1843824D01*
X8321459Y1783824D02*
X8326459Y1766325D01*
X8336459Y1803825D01*
X8346460Y1766325D01*
X8356460Y1803825D01*
X8366459Y1778824D01*
X8213959Y1843824D02*
X8473959D01*
X8213959Y1723825D02*
Y1843824D01*
Y1723825D02*
X8473959D01*
Y1843824D01*
X8403000Y663880D02*
X8408000Y646380D01*
X8393000Y626380D02*
X8403000Y663880D01*
X8382999D02*
X8393000Y626380D01*
X8373000D02*
X8382999Y663880D01*
X8363000Y651380D02*
X8373000Y626380D01*
X8255500Y586380D02*
X8515500D01*
Y706380D01*
X8255500D02*
X8515500D01*
X8255500Y586380D02*
Y706380D01*
X8653367Y1385500D02*
Y1445500D01*
X8533367Y1385500D02*
Y1445500D01*
X8653367Y1585500D02*
Y1645500D01*
X8533367Y1585500D02*
Y1645500D01*
X8568367Y1528000D02*
X8618367D01*
X8568367Y1503000D02*
X8618367D01*
X8593367Y1528000D02*
Y1540500D01*
Y1490500D02*
Y1503000D01*
X8533367Y1645500D02*
X8653367D01*
X8533367Y1385500D02*
X8653367D01*
X8680867Y1762254D02*
X8685867Y1744754D01*
X8670867Y1724754D02*
X8680867Y1762254D01*
X8660867D02*
X8670867Y1724754D01*
X8650867D02*
X8660867Y1762254D01*
X8640867Y1749754D02*
X8650867Y1724754D01*
X8533367Y1684754D02*
X8793367D01*
Y1804754D01*
X8533367D02*
X8793367D01*
X8533367Y1684754D02*
Y1804754D01*
X8820520Y1525195D02*
Y1557695D01*
X8795520Y1525195D02*
X8820520D01*
X8795520D02*
X8820520Y1497695D01*
X8845520Y1525195D01*
X8820520D02*
X8845520D01*
X8775520Y1507695D02*
X8785520Y1517695D01*
X8783020Y1497695D02*
X8793020Y1507695D01*
X8880000Y1395000D02*
Y1655000D01*
X8760000D02*
X8880000D01*
X8760000Y1395000D02*
Y1655000D01*
Y1395000D02*
X8880000D01*
X8178399Y1451600D02*
Y1511600D01*
X8058400Y1451600D02*
Y1511600D01*
X8178399Y1651600D02*
Y1711600D01*
X8058400Y1651600D02*
Y1711600D01*
X8093400Y1594100D02*
X8143400D01*
X8093400Y1569100D02*
X8143400D01*
X8118400Y1594100D02*
Y1606600D01*
Y1556600D02*
Y1569100D01*
X8058400Y1711600D02*
X8178399D01*
X8058400Y1451600D02*
X8178399D01*
X8150420Y1262868D02*
X8160580Y1275568D01*
X8137720D02*
X8160580D01*
X8137720D02*
X8150420Y1262868D01*
Y1290808D01*
X8107340Y1075056D02*
X8117500Y1087756D01*
X8107340Y1075056D02*
X8130200D01*
X8117500Y1087756D02*
X8130200Y1075056D01*
X8117500Y1059816D02*
Y1087756D01*
X7971915Y1436240D02*
X7982075Y1448940D01*
X7971915Y1436240D02*
X7994775D01*
X7982075Y1448940D02*
X7994775Y1436240D01*
X7982075Y1421000D02*
Y1448940D01*
X7815544Y721163D02*
X7820544Y703663D01*
X7805544Y683663D02*
X7815544Y721163D01*
X7795543D02*
X7805544Y683663D01*
X7785543D02*
X7795543Y721163D01*
X7775544Y708663D02*
X7785543Y683663D01*
X7668044Y643663D02*
X7928044D01*
Y763663D01*
X7668044D02*
X7928044D01*
X7668044Y643663D02*
Y763663D01*
X7936453Y897792D02*
X7941453Y880292D01*
X7951453Y917792D01*
X7961453Y880292D01*
X7971453Y917792D01*
X7981453Y892792D01*
X7828953Y957792D02*
X8088953D01*
X7828953Y837792D02*
Y957792D01*
Y837792D02*
X8088953D01*
Y957792D01*
X2794800Y3049300D02*
G03*
X2794800Y3049300I-20000J0D01*
G01*
X2510500Y3015500D02*
Y3235500D01*
X2810500Y3015500D02*
Y3235500D01*
X2510500D02*
X2810500D01*
X2510500Y3015500D02*
X2810500D01*
X2218694Y3294514D02*
Y3329514D01*
X1993694Y3294514D02*
X2218694D01*
X1993694D02*
Y3329514D01*
X2218694Y3379514D02*
Y3414514D01*
X1993694D02*
X2218694D01*
X1993694Y3379514D02*
Y3414514D01*
X2123300Y3522500D02*
X2128300Y3505000D01*
X2113300Y3485000D02*
X2123300Y3522500D01*
X2103300D02*
X2113300Y3485000D01*
X2093300D02*
X2103300Y3522500D01*
X2083300Y3510000D02*
X2093300Y3485000D01*
X1975800Y3445000D02*
X2235800D01*
Y3565000D01*
X1975800D02*
X2235800D01*
X1975800Y3445000D02*
Y3565000D01*
X2101905Y3683824D02*
X2106905Y3666325D01*
X2116905Y3703825D01*
X2126905Y3666325D01*
X2136905Y3703825D01*
X2146905Y3678824D01*
X1994405Y3743824D02*
X2254405D01*
X1994405Y3623825D02*
Y3743824D01*
Y3623825D02*
X2254405D01*
Y3743824D01*
X2621460Y3683824D02*
X2626460Y3666325D01*
X2636460Y3703825D01*
X2646460Y3666325D01*
X2656460Y3703825D01*
X2666459Y3678824D01*
X2513960Y3743824D02*
X2773960D01*
X2513960Y3623825D02*
Y3743824D01*
Y3623825D02*
X2773960D01*
Y3743824D01*
X2703000Y2563880D02*
X2708000Y2546380D01*
X2693000Y2526380D02*
X2703000Y2563880D01*
X2683000D02*
X2693000Y2526380D01*
X2673000D02*
X2683000Y2563880D01*
X2663000Y2551380D02*
X2673000Y2526380D01*
X2555500Y2486380D02*
X2815500D01*
Y2606380D01*
X2555500D02*
X2815500D01*
X2555500Y2486380D02*
Y2606380D01*
X2953367Y3285500D02*
Y3345500D01*
X2833368Y3285500D02*
Y3345500D01*
X2953367Y3485500D02*
Y3545500D01*
X2833368Y3485500D02*
Y3545500D01*
X2868368Y3428000D02*
X2918368D01*
X2868368Y3403000D02*
X2918368D01*
X2893368Y3428000D02*
Y3440500D01*
Y3390500D02*
Y3403000D01*
X2833368Y3545500D02*
X2953367D01*
X2833368Y3285500D02*
X2953367D01*
X2980868Y3662254D02*
X2985868Y3644754D01*
X2970868Y3624754D02*
X2980868Y3662254D01*
X2960867D02*
X2970868Y3624754D01*
X2950867D02*
X2960867Y3662254D01*
X2940868Y3649754D02*
X2950867Y3624754D01*
X2833367Y3584754D02*
X3093367D01*
Y3704754D01*
X2833367D02*
X3093367D01*
X2833367Y3584754D02*
Y3704754D01*
X3120520Y3425195D02*
Y3457695D01*
X3095520Y3425195D02*
X3120520D01*
X3095520D02*
X3120520Y3397695D01*
X3145520Y3425195D01*
X3120520D02*
X3145520D01*
X3075520Y3407695D02*
X3085520Y3417695D01*
X3083020Y3397695D02*
X3093020Y3407695D01*
X3180000Y3295000D02*
Y3555000D01*
X3060000D02*
X3180000D01*
X3060000Y3295000D02*
Y3555000D01*
Y3295000D02*
X3180000D01*
X2478400Y3351600D02*
Y3411600D01*
X2358400Y3351600D02*
Y3411600D01*
X2478400Y3551600D02*
Y3611600D01*
X2358400Y3551600D02*
Y3611600D01*
X2393400Y3494100D02*
X2443400D01*
X2393400Y3469100D02*
X2443400D01*
X2418400Y3494100D02*
Y3506600D01*
Y3456600D02*
Y3469100D01*
X2358400Y3611600D02*
X2478400D01*
X2358400Y3351600D02*
X2478400D01*
X2450420Y3162868D02*
X2460580Y3175568D01*
X2437720D02*
X2460580D01*
X2437720D02*
X2450420Y3162868D01*
Y3190808D01*
X2407340Y2975056D02*
X2417500Y2987756D01*
X2407340Y2975056D02*
X2430200D01*
X2417500Y2987756D02*
X2430200Y2975056D01*
X2417500Y2959816D02*
Y2987756D01*
X2271915Y3336240D02*
X2282075Y3348940D01*
X2271915Y3336240D02*
X2294775D01*
X2282075Y3348940D02*
X2294775Y3336240D01*
X2282075Y3321000D02*
Y3348940D01*
X2115544Y2621163D02*
X2120544Y2603663D01*
X2105544Y2583663D02*
X2115544Y2621163D01*
X2095544D02*
X2105544Y2583663D01*
X2085544D02*
X2095544Y2621163D01*
X2075544Y2608663D02*
X2085544Y2583663D01*
X1968044Y2543663D02*
X2228044D01*
Y2663663D01*
X1968044D02*
X2228044D01*
X1968044Y2543663D02*
Y2663663D01*
X2236453Y2797792D02*
X2241453Y2780292D01*
X2251453Y2817792D01*
X2261453Y2780292D01*
X2271453Y2817792D01*
X2281453Y2792792D01*
X2128953Y2857792D02*
X2388953D01*
X2128953Y2737792D02*
Y2857792D01*
Y2737792D02*
X2388953D01*
Y2857792D01*
X5644800Y3049300D02*
G03*
X5644800Y3049300I-20000J0D01*
G01*
X5360500Y3015500D02*
Y3235500D01*
X5660500Y3015500D02*
Y3235500D01*
X5360500D02*
X5660500D01*
X5360500Y3015500D02*
X5660500D01*
X5068694Y3294514D02*
Y3329514D01*
X4843694Y3294514D02*
X5068694D01*
X4843694D02*
Y3329514D01*
X5068694Y3379514D02*
Y3414514D01*
X4843694D02*
X5068694D01*
X4843694Y3379514D02*
Y3414514D01*
X4973300Y3522500D02*
X4978300Y3505000D01*
X4963300Y3485000D02*
X4973300Y3522500D01*
X4953300D02*
X4963300Y3485000D01*
X4943300D02*
X4953300Y3522500D01*
X4933300Y3510000D02*
X4943300Y3485000D01*
X4825800Y3445000D02*
X5085800D01*
Y3565000D01*
X4825800D02*
X5085800D01*
X4825800Y3445000D02*
Y3565000D01*
X4951905Y3683824D02*
X4956905Y3666325D01*
X4966905Y3703825D01*
X4976905Y3666325D01*
X4986905Y3703825D01*
X4996905Y3678824D01*
X4844405Y3743824D02*
X5104405D01*
X4844405Y3623825D02*
Y3743824D01*
Y3623825D02*
X5104405D01*
Y3743824D01*
X5471459Y3683824D02*
X5476459Y3666325D01*
X5486459Y3703825D01*
X5496460Y3666325D01*
X5506460Y3703825D01*
X5516459Y3678824D01*
X5363960Y3743824D02*
X5623960D01*
X5363960Y3623825D02*
Y3743824D01*
Y3623825D02*
X5623960D01*
Y3743824D01*
X5553000Y2563880D02*
X5558000Y2546380D01*
X5543000Y2526380D02*
X5553000Y2563880D01*
X5533000D02*
X5543000Y2526380D01*
X5523000D02*
X5533000Y2563880D01*
X5513000Y2551380D02*
X5523000Y2526380D01*
X5405500Y2486380D02*
X5665500D01*
Y2606380D01*
X5405500D02*
X5665500D01*
X5405500Y2486380D02*
Y2606380D01*
X5803367Y3285500D02*
Y3345500D01*
X5683368Y3285500D02*
Y3345500D01*
X5803367Y3485500D02*
Y3545500D01*
X5683368Y3485500D02*
Y3545500D01*
X5718368Y3428000D02*
X5768367D01*
X5718368Y3403000D02*
X5768367D01*
X5743367Y3428000D02*
Y3440500D01*
Y3390500D02*
Y3403000D01*
X5683368Y3545500D02*
X5803367D01*
X5683368Y3285500D02*
X5803367D01*
X5830867Y3662254D02*
X5835867Y3644754D01*
X5820867Y3624754D02*
X5830867Y3662254D01*
X5810867D02*
X5820867Y3624754D01*
X5800867D02*
X5810867Y3662254D01*
X5790868Y3649754D02*
X5800867Y3624754D01*
X5683367Y3584754D02*
X5943367D01*
Y3704754D01*
X5683367D02*
X5943367D01*
X5683367Y3584754D02*
Y3704754D01*
X5970520Y3425195D02*
Y3457695D01*
X5945520Y3425195D02*
X5970520D01*
X5945520D02*
X5970520Y3397695D01*
X5995520Y3425195D01*
X5970520D02*
X5995520D01*
X5925520Y3407695D02*
X5935520Y3417695D01*
X5933020Y3397695D02*
X5943020Y3407695D01*
X6030000Y3295000D02*
Y3555000D01*
X5910000D02*
X6030000D01*
X5910000Y3295000D02*
Y3555000D01*
Y3295000D02*
X6030000D01*
X5328400Y3351600D02*
Y3411600D01*
X5208400Y3351600D02*
Y3411600D01*
X5328400Y3551600D02*
Y3611600D01*
X5208400Y3551600D02*
Y3611600D01*
X5243400Y3494100D02*
X5293400D01*
X5243400Y3469100D02*
X5293400D01*
X5268400Y3494100D02*
Y3506600D01*
Y3456600D02*
Y3469100D01*
X5208400Y3611600D02*
X5328400D01*
X5208400Y3351600D02*
X5328400D01*
X5300420Y3162868D02*
X5310580Y3175568D01*
X5287720D02*
X5310580D01*
X5287720D02*
X5300420Y3162868D01*
Y3190808D01*
X5257340Y2975056D02*
X5267500Y2987756D01*
X5257340Y2975056D02*
X5280200D01*
X5267500Y2987756D02*
X5280200Y2975056D01*
X5267500Y2959816D02*
Y2987756D01*
X5121915Y3336240D02*
X5132075Y3348940D01*
X5121915Y3336240D02*
X5144775D01*
X5132075Y3348940D02*
X5144775Y3336240D01*
X5132075Y3321000D02*
Y3348940D01*
X4965544Y2621163D02*
X4970544Y2603663D01*
X4955544Y2583663D02*
X4965544Y2621163D01*
X4945544D02*
X4955544Y2583663D01*
X4935544D02*
X4945544Y2621163D01*
X4925544Y2608663D02*
X4935544Y2583663D01*
X4818044Y2543663D02*
X5078044D01*
Y2663663D01*
X4818044D02*
X5078044D01*
X4818044Y2543663D02*
Y2663663D01*
X5086453Y2797792D02*
X5091453Y2780292D01*
X5101453Y2817792D01*
X5111453Y2780292D01*
X5121453Y2817792D01*
X5131453Y2792792D01*
X4978953Y2857792D02*
X5238953D01*
X4978953Y2737792D02*
Y2857792D01*
Y2737792D02*
X5238953D01*
Y2857792D01*
X8494800Y3049300D02*
G03*
X8494800Y3049300I-20000J0D01*
G01*
X8210500Y3015500D02*
Y3235500D01*
X8510500Y3015500D02*
Y3235500D01*
X8210500D02*
X8510500D01*
X8210500Y3015500D02*
X8510500D01*
X7918694Y3294514D02*
Y3329514D01*
X7693694Y3294514D02*
X7918694D01*
X7693694D02*
Y3329514D01*
X7918694Y3379514D02*
Y3414514D01*
X7693694D02*
X7918694D01*
X7693694Y3379514D02*
Y3414514D01*
X7823300Y3522500D02*
X7828300Y3505000D01*
X7813300Y3485000D02*
X7823300Y3522500D01*
X7803300D02*
X7813300Y3485000D01*
X7793300D02*
X7803300Y3522500D01*
X7783300Y3510000D02*
X7793300Y3485000D01*
X7675800Y3445000D02*
X7935800D01*
Y3565000D01*
X7675800D02*
X7935800D01*
X7675800Y3445000D02*
Y3565000D01*
X7801905Y3683824D02*
X7806905Y3666325D01*
X7816905Y3703825D01*
X7826905Y3666325D01*
X7836905Y3703825D01*
X7846905Y3678824D01*
X7694405Y3743824D02*
X7954405D01*
X7694405Y3623825D02*
Y3743824D01*
Y3623825D02*
X7954405D01*
Y3743824D01*
X8321459Y3683824D02*
X8326459Y3666325D01*
X8336459Y3703825D01*
X8346460Y3666325D01*
X8356460Y3703825D01*
X8366459Y3678824D01*
X8213959Y3743824D02*
X8473959D01*
X8213959Y3623825D02*
Y3743824D01*
Y3623825D02*
X8473959D01*
Y3743824D01*
X8403000Y2563880D02*
X8408000Y2546380D01*
X8393000Y2526380D02*
X8403000Y2563880D01*
X8382999D02*
X8393000Y2526380D01*
X8373000D02*
X8382999Y2563880D01*
X8363000Y2551380D02*
X8373000Y2526380D01*
X8255500Y2486380D02*
X8515500D01*
Y2606380D01*
X8255500D02*
X8515500D01*
X8255500Y2486380D02*
Y2606380D01*
X8653367Y3285500D02*
Y3345500D01*
X8533367Y3285500D02*
Y3345500D01*
X8653367Y3485500D02*
Y3545500D01*
X8533367Y3485500D02*
Y3545500D01*
X8568367Y3428000D02*
X8618367D01*
X8568367Y3403000D02*
X8618367D01*
X8593367Y3428000D02*
Y3440500D01*
Y3390500D02*
Y3403000D01*
X8533367Y3545500D02*
X8653367D01*
X8533367Y3285500D02*
X8653367D01*
X8680867Y3662254D02*
X8685867Y3644754D01*
X8670867Y3624754D02*
X8680867Y3662254D01*
X8660867D02*
X8670867Y3624754D01*
X8650867D02*
X8660867Y3662254D01*
X8640867Y3649754D02*
X8650867Y3624754D01*
X8533367Y3584754D02*
X8793367D01*
Y3704754D01*
X8533367D02*
X8793367D01*
X8533367Y3584754D02*
Y3704754D01*
X8820520Y3425195D02*
Y3457695D01*
X8795520Y3425195D02*
X8820520D01*
X8795520D02*
X8820520Y3397695D01*
X8845520Y3425195D01*
X8820520D02*
X8845520D01*
X8775520Y3407695D02*
X8785520Y3417695D01*
X8783020Y3397695D02*
X8793020Y3407695D01*
X8880000Y3295000D02*
Y3555000D01*
X8760000D02*
X8880000D01*
X8760000Y3295000D02*
Y3555000D01*
Y3295000D02*
X8880000D01*
X8178399Y3351600D02*
Y3411600D01*
X8058400Y3351600D02*
Y3411600D01*
X8178399Y3551600D02*
Y3611600D01*
X8058400Y3551600D02*
Y3611600D01*
X8093400Y3494100D02*
X8143400D01*
X8093400Y3469100D02*
X8143400D01*
X8118400Y3494100D02*
Y3506600D01*
Y3456600D02*
Y3469100D01*
X8058400Y3611600D02*
X8178399D01*
X8058400Y3351600D02*
X8178399D01*
X8150420Y3162868D02*
X8160580Y3175568D01*
X8137720D02*
X8160580D01*
X8137720D02*
X8150420Y3162868D01*
Y3190808D01*
X8107340Y2975056D02*
X8117500Y2987756D01*
X8107340Y2975056D02*
X8130200D01*
X8117500Y2987756D02*
X8130200Y2975056D01*
X8117500Y2959816D02*
Y2987756D01*
X7971915Y3336240D02*
X7982075Y3348940D01*
X7971915Y3336240D02*
X7994775D01*
X7982075Y3348940D02*
X7994775Y3336240D01*
X7982075Y3321000D02*
Y3348940D01*
X7815544Y2621163D02*
X7820544Y2603663D01*
X7805544Y2583663D02*
X7815544Y2621163D01*
X7795543D02*
X7805544Y2583663D01*
X7785543D02*
X7795543Y2621163D01*
X7775544Y2608663D02*
X7785543Y2583663D01*
X7668044Y2543663D02*
X7928044D01*
Y2663663D01*
X7668044D02*
X7928044D01*
X7668044Y2543663D02*
Y2663663D01*
X7936453Y2797792D02*
X7941453Y2780292D01*
X7951453Y2817792D01*
X7961453Y2780292D01*
X7971453Y2817792D01*
X7981453Y2792792D01*
X7828953Y2857792D02*
X8088953D01*
X7828953Y2737792D02*
Y2857792D01*
Y2737792D02*
X8088953D01*
Y2857792D01*
X2794800Y4949300D02*
G03*
X2794800Y4949300I-20000J0D01*
G01*
X2510500Y4915500D02*
Y5135500D01*
X2810500Y4915500D02*
Y5135500D01*
X2510500D02*
X2810500D01*
X2510500Y4915500D02*
X2810500D01*
X2218694Y5194514D02*
Y5229514D01*
X1993694Y5194514D02*
X2218694D01*
X1993694D02*
Y5229514D01*
X2218694Y5279514D02*
Y5314514D01*
X1993694D02*
X2218694D01*
X1993694Y5279514D02*
Y5314514D01*
X2123300Y5422500D02*
X2128300Y5405000D01*
X2113300Y5385000D02*
X2123300Y5422500D01*
X2103300D02*
X2113300Y5385000D01*
X2093300D02*
X2103300Y5422500D01*
X2083300Y5410000D02*
X2093300Y5385000D01*
X1975800Y5345000D02*
X2235800D01*
Y5465000D01*
X1975800D02*
X2235800D01*
X1975800Y5345000D02*
Y5465000D01*
X2101905Y5583824D02*
X2106905Y5566325D01*
X2116905Y5603825D01*
X2126905Y5566325D01*
X2136905Y5603825D01*
X2146905Y5578825D01*
X1994405Y5643824D02*
X2254405D01*
X1994405Y5523825D02*
Y5643824D01*
Y5523825D02*
X2254405D01*
Y5643824D01*
X2621460Y5583824D02*
X2626460Y5566325D01*
X2636460Y5603825D01*
X2646460Y5566325D01*
X2656460Y5603825D01*
X2666459Y5578825D01*
X2513960Y5643824D02*
X2773960D01*
X2513960Y5523825D02*
Y5643824D01*
Y5523825D02*
X2773960D01*
Y5643824D01*
X2703000Y4463880D02*
X2708000Y4446380D01*
X2693000Y4426380D02*
X2703000Y4463880D01*
X2683000D02*
X2693000Y4426380D01*
X2673000D02*
X2683000Y4463880D01*
X2663000Y4451380D02*
X2673000Y4426380D01*
X2555500Y4386380D02*
X2815500D01*
Y4506380D01*
X2555500D02*
X2815500D01*
X2555500Y4386380D02*
Y4506380D01*
X2953367Y5185500D02*
Y5245500D01*
X2833368Y5185500D02*
Y5245500D01*
X2953367Y5385500D02*
Y5445500D01*
X2833368Y5385500D02*
Y5445500D01*
X2868368Y5328000D02*
X2918368D01*
X2868368Y5303000D02*
X2918368D01*
X2893368Y5328000D02*
Y5340500D01*
Y5290500D02*
Y5303000D01*
X2833368Y5445500D02*
X2953367D01*
X2833368Y5185500D02*
X2953367D01*
X2980868Y5562254D02*
X2985868Y5544754D01*
X2970868Y5524754D02*
X2980868Y5562254D01*
X2960867D02*
X2970868Y5524754D01*
X2950867D02*
X2960867Y5562254D01*
X2940868Y5549754D02*
X2950867Y5524754D01*
X2833367Y5484754D02*
X3093367D01*
Y5604754D01*
X2833367D02*
X3093367D01*
X2833367Y5484754D02*
Y5604754D01*
X3120520Y5325195D02*
Y5357695D01*
X3095520Y5325195D02*
X3120520D01*
X3095520D02*
X3120520Y5297695D01*
X3145520Y5325195D01*
X3120520D02*
X3145520D01*
X3075520Y5307695D02*
X3085520Y5317695D01*
X3083020Y5297695D02*
X3093020Y5307695D01*
X3180000Y5195000D02*
Y5455000D01*
X3060000D02*
X3180000D01*
X3060000Y5195000D02*
Y5455000D01*
Y5195000D02*
X3180000D01*
X2478400Y5251600D02*
Y5311600D01*
X2358400Y5251600D02*
Y5311600D01*
X2478400Y5451600D02*
Y5511600D01*
X2358400Y5451600D02*
Y5511600D01*
X2393400Y5394100D02*
X2443400D01*
X2393400Y5369100D02*
X2443400D01*
X2418400Y5394100D02*
Y5406600D01*
Y5356600D02*
Y5369100D01*
X2358400Y5511600D02*
X2478400D01*
X2358400Y5251600D02*
X2478400D01*
X2450420Y5062868D02*
X2460580Y5075568D01*
X2437720D02*
X2460580D01*
X2437720D02*
X2450420Y5062868D01*
Y5090808D01*
X2407340Y4875056D02*
X2417500Y4887756D01*
X2407340Y4875056D02*
X2430200D01*
X2417500Y4887756D02*
X2430200Y4875056D01*
X2417500Y4859816D02*
Y4887756D01*
X2271915Y5236240D02*
X2282075Y5248940D01*
X2271915Y5236240D02*
X2294775D01*
X2282075Y5248940D02*
X2294775Y5236240D01*
X2282075Y5221000D02*
Y5248940D01*
X2115544Y4521163D02*
X2120544Y4503663D01*
X2105544Y4483663D02*
X2115544Y4521163D01*
X2095544D02*
X2105544Y4483663D01*
X2085544D02*
X2095544Y4521163D01*
X2075544Y4508663D02*
X2085544Y4483663D01*
X1968044Y4443663D02*
X2228044D01*
Y4563663D01*
X1968044D02*
X2228044D01*
X1968044Y4443663D02*
Y4563663D01*
X2236453Y4697792D02*
X2241453Y4680292D01*
X2251453Y4717792D01*
X2261453Y4680292D01*
X2271453Y4717792D01*
X2281453Y4692792D01*
X2128953Y4757792D02*
X2388953D01*
X2128953Y4637792D02*
Y4757792D01*
Y4637792D02*
X2388953D01*
Y4757792D01*
X5644800Y4949300D02*
G03*
X5644800Y4949300I-20000J0D01*
G01*
X5360500Y4915500D02*
Y5135500D01*
X5660500Y4915500D02*
Y5135500D01*
X5360500D02*
X5660500D01*
X5360500Y4915500D02*
X5660500D01*
X5068694Y5194514D02*
Y5229514D01*
X4843694Y5194514D02*
X5068694D01*
X4843694D02*
Y5229514D01*
X5068694Y5279514D02*
Y5314514D01*
X4843694D02*
X5068694D01*
X4843694Y5279514D02*
Y5314514D01*
X4973300Y5422500D02*
X4978300Y5405000D01*
X4963300Y5385000D02*
X4973300Y5422500D01*
X4953300D02*
X4963300Y5385000D01*
X4943300D02*
X4953300Y5422500D01*
X4933300Y5410000D02*
X4943300Y5385000D01*
X4825800Y5345000D02*
X5085800D01*
Y5465000D01*
X4825800D02*
X5085800D01*
X4825800Y5345000D02*
Y5465000D01*
X4951905Y5583824D02*
X4956905Y5566325D01*
X4966905Y5603825D01*
X4976905Y5566325D01*
X4986905Y5603825D01*
X4996905Y5578825D01*
X4844405Y5643824D02*
X5104405D01*
X4844405Y5523825D02*
Y5643824D01*
Y5523825D02*
X5104405D01*
Y5643824D01*
X5471459Y5583824D02*
X5476459Y5566325D01*
X5486459Y5603825D01*
X5496460Y5566325D01*
X5506460Y5603825D01*
X5516459Y5578825D01*
X5363960Y5643824D02*
X5623960D01*
X5363960Y5523825D02*
Y5643824D01*
Y5523825D02*
X5623960D01*
Y5643824D01*
X5553000Y4463880D02*
X5558000Y4446380D01*
X5543000Y4426380D02*
X5553000Y4463880D01*
X5533000D02*
X5543000Y4426380D01*
X5523000D02*
X5533000Y4463880D01*
X5513000Y4451380D02*
X5523000Y4426380D01*
X5405500Y4386380D02*
X5665500D01*
Y4506380D01*
X5405500D02*
X5665500D01*
X5405500Y4386380D02*
Y4506380D01*
X5803367Y5185500D02*
Y5245500D01*
X5683368Y5185500D02*
Y5245500D01*
X5803367Y5385500D02*
Y5445500D01*
X5683368Y5385500D02*
Y5445500D01*
X5718368Y5328000D02*
X5768367D01*
X5718368Y5303000D02*
X5768367D01*
X5743367Y5328000D02*
Y5340500D01*
Y5290500D02*
Y5303000D01*
X5683368Y5445500D02*
X5803367D01*
X5683368Y5185500D02*
X5803367D01*
X5830867Y5562254D02*
X5835867Y5544754D01*
X5820867Y5524754D02*
X5830867Y5562254D01*
X5810867D02*
X5820867Y5524754D01*
X5800867D02*
X5810867Y5562254D01*
X5790868Y5549754D02*
X5800867Y5524754D01*
X5683367Y5484754D02*
X5943367D01*
Y5604754D01*
X5683367D02*
X5943367D01*
X5683367Y5484754D02*
Y5604754D01*
X5970520Y5325195D02*
Y5357695D01*
X5945520Y5325195D02*
X5970520D01*
X5945520D02*
X5970520Y5297695D01*
X5995520Y5325195D01*
X5970520D02*
X5995520D01*
X5925520Y5307695D02*
X5935520Y5317695D01*
X5933020Y5297695D02*
X5943020Y5307695D01*
X6030000Y5195000D02*
Y5455000D01*
X5910000D02*
X6030000D01*
X5910000Y5195000D02*
Y5455000D01*
Y5195000D02*
X6030000D01*
X5328400Y5251600D02*
Y5311600D01*
X5208400Y5251600D02*
Y5311600D01*
X5328400Y5451600D02*
Y5511600D01*
X5208400Y5451600D02*
Y5511600D01*
X5243400Y5394100D02*
X5293400D01*
X5243400Y5369100D02*
X5293400D01*
X5268400Y5394100D02*
Y5406600D01*
Y5356600D02*
Y5369100D01*
X5208400Y5511600D02*
X5328400D01*
X5208400Y5251600D02*
X5328400D01*
X5300420Y5062868D02*
X5310580Y5075568D01*
X5287720D02*
X5310580D01*
X5287720D02*
X5300420Y5062868D01*
Y5090808D01*
X5257340Y4875056D02*
X5267500Y4887756D01*
X5257340Y4875056D02*
X5280200D01*
X5267500Y4887756D02*
X5280200Y4875056D01*
X5267500Y4859816D02*
Y4887756D01*
X5121915Y5236240D02*
X5132075Y5248940D01*
X5121915Y5236240D02*
X5144775D01*
X5132075Y5248940D02*
X5144775Y5236240D01*
X5132075Y5221000D02*
Y5248940D01*
X4965544Y4521163D02*
X4970544Y4503663D01*
X4955544Y4483663D02*
X4965544Y4521163D01*
X4945544D02*
X4955544Y4483663D01*
X4935544D02*
X4945544Y4521163D01*
X4925544Y4508663D02*
X4935544Y4483663D01*
X4818044Y4443663D02*
X5078044D01*
Y4563663D01*
X4818044D02*
X5078044D01*
X4818044Y4443663D02*
Y4563663D01*
X5086453Y4697792D02*
X5091453Y4680292D01*
X5101453Y4717792D01*
X5111453Y4680292D01*
X5121453Y4717792D01*
X5131453Y4692792D01*
X4978953Y4757792D02*
X5238953D01*
X4978953Y4637792D02*
Y4757792D01*
Y4637792D02*
X5238953D01*
Y4757792D01*
X8494800Y4949300D02*
G03*
X8494800Y4949300I-20000J0D01*
G01*
X8210500Y4915500D02*
Y5135500D01*
X8510500Y4915500D02*
Y5135500D01*
X8210500D02*
X8510500D01*
X8210500Y4915500D02*
X8510500D01*
X7918694Y5194514D02*
Y5229514D01*
X7693694Y5194514D02*
X7918694D01*
X7693694D02*
Y5229514D01*
X7918694Y5279514D02*
Y5314514D01*
X7693694D02*
X7918694D01*
X7693694Y5279514D02*
Y5314514D01*
X7823300Y5422500D02*
X7828300Y5405000D01*
X7813300Y5385000D02*
X7823300Y5422500D01*
X7803300D02*
X7813300Y5385000D01*
X7793300D02*
X7803300Y5422500D01*
X7783300Y5410000D02*
X7793300Y5385000D01*
X7675800Y5345000D02*
X7935800D01*
Y5465000D01*
X7675800D02*
X7935800D01*
X7675800Y5345000D02*
Y5465000D01*
X7801905Y5583824D02*
X7806905Y5566325D01*
X7816905Y5603825D01*
X7826905Y5566325D01*
X7836905Y5603825D01*
X7846905Y5578825D01*
X7694405Y5643824D02*
X7954405D01*
X7694405Y5523825D02*
Y5643824D01*
Y5523825D02*
X7954405D01*
Y5643824D01*
X8321459Y5583824D02*
X8326459Y5566325D01*
X8336459Y5603825D01*
X8346460Y5566325D01*
X8356460Y5603825D01*
X8366459Y5578825D01*
X8213959Y5643824D02*
X8473959D01*
X8213959Y5523825D02*
Y5643824D01*
Y5523825D02*
X8473959D01*
Y5643824D01*
X8403000Y4463880D02*
X8408000Y4446380D01*
X8393000Y4426380D02*
X8403000Y4463880D01*
X8382999D02*
X8393000Y4426380D01*
X8373000D02*
X8382999Y4463880D01*
X8363000Y4451380D02*
X8373000Y4426380D01*
X8255500Y4386380D02*
X8515500D01*
Y4506380D01*
X8255500D02*
X8515500D01*
X8255500Y4386380D02*
Y4506380D01*
X8653367Y5185500D02*
Y5245500D01*
X8533367Y5185500D02*
Y5245500D01*
X8653367Y5385500D02*
Y5445500D01*
X8533367Y5385500D02*
Y5445500D01*
X8568367Y5328000D02*
X8618367D01*
X8568367Y5303000D02*
X8618367D01*
X8593367Y5328000D02*
Y5340500D01*
Y5290500D02*
Y5303000D01*
X8533367Y5445500D02*
X8653367D01*
X8533367Y5185500D02*
X8653367D01*
X8680867Y5562254D02*
X8685867Y5544754D01*
X8670867Y5524754D02*
X8680867Y5562254D01*
X8660867D02*
X8670867Y5524754D01*
X8650867D02*
X8660867Y5562254D01*
X8640867Y5549754D02*
X8650867Y5524754D01*
X8533367Y5484754D02*
X8793367D01*
Y5604754D01*
X8533367D02*
X8793367D01*
X8533367Y5484754D02*
Y5604754D01*
X8820520Y5325195D02*
Y5357695D01*
X8795520Y5325195D02*
X8820520D01*
X8795520D02*
X8820520Y5297695D01*
X8845520Y5325195D01*
X8820520D02*
X8845520D01*
X8775520Y5307695D02*
X8785520Y5317695D01*
X8783020Y5297695D02*
X8793020Y5307695D01*
X8880000Y5195000D02*
Y5455000D01*
X8760000D02*
X8880000D01*
X8760000Y5195000D02*
Y5455000D01*
Y5195000D02*
X8880000D01*
X8178399Y5251600D02*
Y5311600D01*
X8058400Y5251600D02*
Y5311600D01*
X8178399Y5451600D02*
Y5511600D01*
X8058400Y5451600D02*
Y5511600D01*
X8093400Y5394100D02*
X8143400D01*
X8093400Y5369100D02*
X8143400D01*
X8118400Y5394100D02*
Y5406600D01*
Y5356600D02*
Y5369100D01*
X8058400Y5511600D02*
X8178399D01*
X8058400Y5251600D02*
X8178399D01*
X8150420Y5062868D02*
X8160580Y5075568D01*
X8137720D02*
X8160580D01*
X8137720D02*
X8150420Y5062868D01*
Y5090808D01*
X8107340Y4875056D02*
X8117500Y4887756D01*
X8107340Y4875056D02*
X8130200D01*
X8117500Y4887756D02*
X8130200Y4875056D01*
X8117500Y4859816D02*
Y4887756D01*
X7971915Y5236240D02*
X7982075Y5248940D01*
X7971915Y5236240D02*
X7994775D01*
X7982075Y5248940D02*
X7994775Y5236240D01*
X7982075Y5221000D02*
Y5248940D01*
X7815544Y4521163D02*
X7820544Y4503663D01*
X7805544Y4483663D02*
X7815544Y4521163D01*
X7795543D02*
X7805544Y4483663D01*
X7785543D02*
X7795543Y4521163D01*
X7775544Y4508663D02*
X7785543Y4483663D01*
X7668044Y4443663D02*
X7928044D01*
Y4563663D01*
X7668044D02*
X7928044D01*
X7668044Y4443663D02*
Y4563663D01*
X7936453Y4697792D02*
X7941453Y4680292D01*
X7951453Y4717792D01*
X7961453Y4680292D01*
X7971453Y4717792D01*
X7981453Y4692792D01*
X7828953Y4757792D02*
X8088953D01*
X7828953Y4637792D02*
Y4757792D01*
Y4637792D02*
X8088953D01*
Y4757792D01*
X2794800Y6849300D02*
G03*
X2794800Y6849300I-20000J0D01*
G01*
X2510500Y6815500D02*
Y7035500D01*
X2810500Y6815500D02*
Y7035500D01*
X2510500D02*
X2810500D01*
X2510500Y6815500D02*
X2810500D01*
X2218694Y7094514D02*
Y7129514D01*
X1993694Y7094514D02*
X2218694D01*
X1993694D02*
Y7129514D01*
X2218694Y7179514D02*
Y7214514D01*
X1993694D02*
X2218694D01*
X1993694Y7179514D02*
Y7214514D01*
X2123300Y7322500D02*
X2128300Y7305000D01*
X2113300Y7285000D02*
X2123300Y7322500D01*
X2103300D02*
X2113300Y7285000D01*
X2093300D02*
X2103300Y7322500D01*
X2083300Y7310000D02*
X2093300Y7285000D01*
X1975800Y7245000D02*
X2235800D01*
Y7365000D01*
X1975800D02*
X2235800D01*
X1975800Y7245000D02*
Y7365000D01*
X2101905Y7483825D02*
X2106905Y7466325D01*
X2116905Y7503825D01*
X2126905Y7466325D01*
X2136905Y7503825D01*
X2146905Y7478825D01*
X1994405Y7543824D02*
X2254405D01*
X1994405Y7423825D02*
Y7543824D01*
Y7423825D02*
X2254405D01*
Y7543824D01*
X2621460Y7483825D02*
X2626460Y7466325D01*
X2636460Y7503825D01*
X2646460Y7466325D01*
X2656460Y7503825D01*
X2666459Y7478825D01*
X2513960Y7543824D02*
X2773960D01*
X2513960Y7423825D02*
Y7543824D01*
Y7423825D02*
X2773960D01*
Y7543824D01*
X2703000Y6363880D02*
X2708000Y6346380D01*
X2693000Y6326380D02*
X2703000Y6363880D01*
X2683000D02*
X2693000Y6326380D01*
X2673000D02*
X2683000Y6363880D01*
X2663000Y6351380D02*
X2673000Y6326380D01*
X2555500Y6286380D02*
X2815500D01*
Y6406380D01*
X2555500D02*
X2815500D01*
X2555500Y6286380D02*
Y6406380D01*
X2953367Y7085500D02*
Y7145500D01*
X2833368Y7085500D02*
Y7145500D01*
X2953367Y7285500D02*
Y7345500D01*
X2833368Y7285500D02*
Y7345500D01*
X2868368Y7228000D02*
X2918368D01*
X2868368Y7203000D02*
X2918368D01*
X2893368Y7228000D02*
Y7240500D01*
Y7190500D02*
Y7203000D01*
X2833368Y7345500D02*
X2953367D01*
X2833368Y7085500D02*
X2953367D01*
X2980868Y7462254D02*
X2985868Y7444754D01*
X2970868Y7424754D02*
X2980868Y7462254D01*
X2960867D02*
X2970868Y7424754D01*
X2950867D02*
X2960867Y7462254D01*
X2940868Y7449754D02*
X2950867Y7424754D01*
X2833367Y7384754D02*
X3093367D01*
Y7504754D01*
X2833367D02*
X3093367D01*
X2833367Y7384754D02*
Y7504754D01*
X3120520Y7225195D02*
Y7257695D01*
X3095520Y7225195D02*
X3120520D01*
X3095520D02*
X3120520Y7197695D01*
X3145520Y7225195D01*
X3120520D02*
X3145520D01*
X3075520Y7207695D02*
X3085520Y7217695D01*
X3083020Y7197695D02*
X3093020Y7207695D01*
X3180000Y7095000D02*
Y7355000D01*
X3060000D02*
X3180000D01*
X3060000Y7095000D02*
Y7355000D01*
Y7095000D02*
X3180000D01*
X2478400Y7151600D02*
Y7211600D01*
X2358400Y7151600D02*
Y7211600D01*
X2478400Y7351600D02*
Y7411600D01*
X2358400Y7351600D02*
Y7411600D01*
X2393400Y7294100D02*
X2443400D01*
X2393400Y7269100D02*
X2443400D01*
X2418400Y7294100D02*
Y7306600D01*
Y7256600D02*
Y7269100D01*
X2358400Y7411600D02*
X2478400D01*
X2358400Y7151600D02*
X2478400D01*
X2450420Y6962868D02*
X2460580Y6975568D01*
X2437720D02*
X2460580D01*
X2437720D02*
X2450420Y6962868D01*
Y6990808D01*
X2407340Y6775056D02*
X2417500Y6787756D01*
X2407340Y6775056D02*
X2430200D01*
X2417500Y6787756D02*
X2430200Y6775056D01*
X2417500Y6759816D02*
Y6787756D01*
X2271915Y7136240D02*
X2282075Y7148940D01*
X2271915Y7136240D02*
X2294775D01*
X2282075Y7148940D02*
X2294775Y7136240D01*
X2282075Y7121000D02*
Y7148940D01*
X2115544Y6421163D02*
X2120544Y6403663D01*
X2105544Y6383663D02*
X2115544Y6421163D01*
X2095544D02*
X2105544Y6383663D01*
X2085544D02*
X2095544Y6421163D01*
X2075544Y6408663D02*
X2085544Y6383663D01*
X1968044Y6343663D02*
X2228044D01*
Y6463663D01*
X1968044D02*
X2228044D01*
X1968044Y6343663D02*
Y6463663D01*
X2236453Y6597792D02*
X2241453Y6580292D01*
X2251453Y6617792D01*
X2261453Y6580292D01*
X2271453Y6617792D01*
X2281453Y6592792D01*
X2128953Y6657792D02*
X2388953D01*
X2128953Y6537792D02*
Y6657792D01*
Y6537792D02*
X2388953D01*
Y6657792D01*
X5644800Y6849300D02*
G03*
X5644800Y6849300I-20000J0D01*
G01*
X5360500Y6815500D02*
Y7035500D01*
X5660500Y6815500D02*
Y7035500D01*
X5360500D02*
X5660500D01*
X5360500Y6815500D02*
X5660500D01*
X5068694Y7094514D02*
Y7129514D01*
X4843694Y7094514D02*
X5068694D01*
X4843694D02*
Y7129514D01*
X5068694Y7179514D02*
Y7214514D01*
X4843694D02*
X5068694D01*
X4843694Y7179514D02*
Y7214514D01*
X4973300Y7322500D02*
X4978300Y7305000D01*
X4963300Y7285000D02*
X4973300Y7322500D01*
X4953300D02*
X4963300Y7285000D01*
X4943300D02*
X4953300Y7322500D01*
X4933300Y7310000D02*
X4943300Y7285000D01*
X4825800Y7245000D02*
X5085800D01*
Y7365000D01*
X4825800D02*
X5085800D01*
X4825800Y7245000D02*
Y7365000D01*
X4951905Y7483825D02*
X4956905Y7466325D01*
X4966905Y7503825D01*
X4976905Y7466325D01*
X4986905Y7503825D01*
X4996905Y7478825D01*
X4844405Y7543824D02*
X5104405D01*
X4844405Y7423825D02*
Y7543824D01*
Y7423825D02*
X5104405D01*
Y7543824D01*
X5471459Y7483825D02*
X5476459Y7466325D01*
X5486459Y7503825D01*
X5496460Y7466325D01*
X5506460Y7503825D01*
X5516459Y7478825D01*
X5363960Y7543824D02*
X5623960D01*
X5363960Y7423825D02*
Y7543824D01*
Y7423825D02*
X5623960D01*
Y7543824D01*
X5553000Y6363880D02*
X5558000Y6346380D01*
X5543000Y6326380D02*
X5553000Y6363880D01*
X5533000D02*
X5543000Y6326380D01*
X5523000D02*
X5533000Y6363880D01*
X5513000Y6351380D02*
X5523000Y6326380D01*
X5405500Y6286380D02*
X5665500D01*
Y6406380D01*
X5405500D02*
X5665500D01*
X5405500Y6286380D02*
Y6406380D01*
X5803367Y7085500D02*
Y7145500D01*
X5683368Y7085500D02*
Y7145500D01*
X5803367Y7285500D02*
Y7345500D01*
X5683368Y7285500D02*
Y7345500D01*
X5718368Y7228000D02*
X5768367D01*
X5718368Y7203000D02*
X5768367D01*
X5743367Y7228000D02*
Y7240500D01*
Y7190500D02*
Y7203000D01*
X5683368Y7345500D02*
X5803367D01*
X5683368Y7085500D02*
X5803367D01*
X5830867Y7462254D02*
X5835867Y7444754D01*
X5820867Y7424754D02*
X5830867Y7462254D01*
X5810867D02*
X5820867Y7424754D01*
X5800867D02*
X5810867Y7462254D01*
X5790868Y7449754D02*
X5800867Y7424754D01*
X5683367Y7384754D02*
X5943367D01*
Y7504754D01*
X5683367D02*
X5943367D01*
X5683367Y7384754D02*
Y7504754D01*
X5970520Y7225195D02*
Y7257695D01*
X5945520Y7225195D02*
X5970520D01*
X5945520D02*
X5970520Y7197695D01*
X5995520Y7225195D01*
X5970520D02*
X5995520D01*
X5925520Y7207695D02*
X5935520Y7217695D01*
X5933020Y7197695D02*
X5943020Y7207695D01*
X6030000Y7095000D02*
Y7355000D01*
X5910000D02*
X6030000D01*
X5910000Y7095000D02*
Y7355000D01*
Y7095000D02*
X6030000D01*
X5328400Y7151600D02*
Y7211600D01*
X5208400Y7151600D02*
Y7211600D01*
X5328400Y7351600D02*
Y7411600D01*
X5208400Y7351600D02*
Y7411600D01*
X5243400Y7294100D02*
X5293400D01*
X5243400Y7269100D02*
X5293400D01*
X5268400Y7294100D02*
Y7306600D01*
Y7256600D02*
Y7269100D01*
X5208400Y7411600D02*
X5328400D01*
X5208400Y7151600D02*
X5328400D01*
X5300420Y6962868D02*
X5310580Y6975568D01*
X5287720D02*
X5310580D01*
X5287720D02*
X5300420Y6962868D01*
Y6990808D01*
X5257340Y6775056D02*
X5267500Y6787756D01*
X5257340Y6775056D02*
X5280200D01*
X5267500Y6787756D02*
X5280200Y6775056D01*
X5267500Y6759816D02*
Y6787756D01*
X5121915Y7136240D02*
X5132075Y7148940D01*
X5121915Y7136240D02*
X5144775D01*
X5132075Y7148940D02*
X5144775Y7136240D01*
X5132075Y7121000D02*
Y7148940D01*
X4965544Y6421163D02*
X4970544Y6403663D01*
X4955544Y6383663D02*
X4965544Y6421163D01*
X4945544D02*
X4955544Y6383663D01*
X4935544D02*
X4945544Y6421163D01*
X4925544Y6408663D02*
X4935544Y6383663D01*
X4818044Y6343663D02*
X5078044D01*
Y6463663D01*
X4818044D02*
X5078044D01*
X4818044Y6343663D02*
Y6463663D01*
X5086453Y6597792D02*
X5091453Y6580292D01*
X5101453Y6617792D01*
X5111453Y6580292D01*
X5121453Y6617792D01*
X5131453Y6592792D01*
X4978953Y6657792D02*
X5238953D01*
X4978953Y6537792D02*
Y6657792D01*
Y6537792D02*
X5238953D01*
Y6657792D01*
X8494800Y6849300D02*
G03*
X8494800Y6849300I-20000J0D01*
G01*
X8210500Y6815500D02*
Y7035500D01*
X8510500Y6815500D02*
Y7035500D01*
X8210500D02*
X8510500D01*
X8210500Y6815500D02*
X8510500D01*
X7918694Y7094514D02*
Y7129514D01*
X7693694Y7094514D02*
X7918694D01*
X7693694D02*
Y7129514D01*
X7918694Y7179514D02*
Y7214514D01*
X7693694D02*
X7918694D01*
X7693694Y7179514D02*
Y7214514D01*
X7823300Y7322500D02*
X7828300Y7305000D01*
X7813300Y7285000D02*
X7823300Y7322500D01*
X7803300D02*
X7813300Y7285000D01*
X7793300D02*
X7803300Y7322500D01*
X7783300Y7310000D02*
X7793300Y7285000D01*
X7675800Y7245000D02*
X7935800D01*
Y7365000D01*
X7675800D02*
X7935800D01*
X7675800Y7245000D02*
Y7365000D01*
X7801905Y7483825D02*
X7806905Y7466325D01*
X7816905Y7503825D01*
X7826905Y7466325D01*
X7836905Y7503825D01*
X7846905Y7478825D01*
X7694405Y7543824D02*
X7954405D01*
X7694405Y7423825D02*
Y7543824D01*
Y7423825D02*
X7954405D01*
Y7543824D01*
X8321459Y7483825D02*
X8326459Y7466325D01*
X8336459Y7503825D01*
X8346460Y7466325D01*
X8356460Y7503825D01*
X8366459Y7478825D01*
X8213959Y7543824D02*
X8473959D01*
X8213959Y7423825D02*
Y7543824D01*
Y7423825D02*
X8473959D01*
Y7543824D01*
X8403000Y6363880D02*
X8408000Y6346380D01*
X8393000Y6326380D02*
X8403000Y6363880D01*
X8382999D02*
X8393000Y6326380D01*
X8373000D02*
X8382999Y6363880D01*
X8363000Y6351380D02*
X8373000Y6326380D01*
X8255500Y6286380D02*
X8515500D01*
Y6406380D01*
X8255500D02*
X8515500D01*
X8255500Y6286380D02*
Y6406380D01*
X8653367Y7085500D02*
Y7145500D01*
X8533367Y7085500D02*
Y7145500D01*
X8653367Y7285500D02*
Y7345500D01*
X8533367Y7285500D02*
Y7345500D01*
X8568367Y7228000D02*
X8618367D01*
X8568367Y7203000D02*
X8618367D01*
X8593367Y7228000D02*
Y7240500D01*
Y7190500D02*
Y7203000D01*
X8533367Y7345500D02*
X8653367D01*
X8533367Y7085500D02*
X8653367D01*
X8680867Y7462254D02*
X8685867Y7444754D01*
X8670867Y7424754D02*
X8680867Y7462254D01*
X8660867D02*
X8670867Y7424754D01*
X8650867D02*
X8660867Y7462254D01*
X8640867Y7449754D02*
X8650867Y7424754D01*
X8533367Y7384754D02*
X8793367D01*
Y7504754D01*
X8533367D02*
X8793367D01*
X8533367Y7384754D02*
Y7504754D01*
X8820520Y7225195D02*
Y7257695D01*
X8795520Y7225195D02*
X8820520D01*
X8795520D02*
X8820520Y7197695D01*
X8845520Y7225195D01*
X8820520D02*
X8845520D01*
X8775520Y7207695D02*
X8785520Y7217695D01*
X8783020Y7197695D02*
X8793020Y7207695D01*
X8880000Y7095000D02*
Y7355000D01*
X8760000D02*
X8880000D01*
X8760000Y7095000D02*
Y7355000D01*
Y7095000D02*
X8880000D01*
X8178399Y7151600D02*
Y7211600D01*
X8058400Y7151600D02*
Y7211600D01*
X8178399Y7351600D02*
Y7411600D01*
X8058400Y7351600D02*
Y7411600D01*
X8093400Y7294100D02*
X8143400D01*
X8093400Y7269100D02*
X8143400D01*
X8118400Y7294100D02*
Y7306600D01*
Y7256600D02*
Y7269100D01*
X8058400Y7411600D02*
X8178399D01*
X8058400Y7151600D02*
X8178399D01*
X8150420Y6962868D02*
X8160580Y6975568D01*
X8137720D02*
X8160580D01*
X8137720D02*
X8150420Y6962868D01*
Y6990808D01*
X8107340Y6775056D02*
X8117500Y6787756D01*
X8107340Y6775056D02*
X8130200D01*
X8117500Y6787756D02*
X8130200Y6775056D01*
X8117500Y6759816D02*
Y6787756D01*
X7971915Y7136240D02*
X7982075Y7148940D01*
X7971915Y7136240D02*
X7994775D01*
X7982075Y7148940D02*
X7994775Y7136240D01*
X7982075Y7121000D02*
Y7148940D01*
X7815544Y6421163D02*
X7820544Y6403663D01*
X7805544Y6383663D02*
X7815544Y6421163D01*
X7795543D02*
X7805544Y6383663D01*
X7785543D02*
X7795543Y6421163D01*
X7775544Y6408663D02*
X7785543Y6383663D01*
X7668044Y6343663D02*
X7928044D01*
Y6463663D01*
X7668044D02*
X7928044D01*
X7668044Y6343663D02*
Y6463663D01*
X7936453Y6597792D02*
X7941453Y6580292D01*
X7951453Y6617792D01*
X7961453Y6580292D01*
X7971453Y6617792D01*
X7981453Y6592792D01*
X7828953Y6657792D02*
X8088953D01*
X7828953Y6537792D02*
Y6657792D01*
Y6537792D02*
X8088953D01*
Y6657792D01*
X2794800Y8749300D02*
G03*
X2794800Y8749300I-20000J0D01*
G01*
X2510500Y8715500D02*
Y8935500D01*
X2810500Y8715500D02*
Y8935500D01*
X2510500D02*
X2810500D01*
X2510500Y8715500D02*
X2810500D01*
X2218694Y8994514D02*
Y9029514D01*
X1993694Y8994514D02*
X2218694D01*
X1993694D02*
Y9029514D01*
X2218694Y9079514D02*
Y9114514D01*
X1993694D02*
X2218694D01*
X1993694Y9079514D02*
Y9114514D01*
X2123300Y9222500D02*
X2128300Y9205000D01*
X2113300Y9185000D02*
X2123300Y9222500D01*
X2103300D02*
X2113300Y9185000D01*
X2093300D02*
X2103300Y9222500D01*
X2083300Y9210000D02*
X2093300Y9185000D01*
X1975800Y9145000D02*
X2235800D01*
Y9265000D01*
X1975800D02*
X2235800D01*
X1975800Y9145000D02*
Y9265000D01*
X2101905Y9383825D02*
X2106905Y9366325D01*
X2116905Y9403825D01*
X2126905Y9366325D01*
X2136905Y9403825D01*
X2146905Y9378825D01*
X1994405Y9443824D02*
X2254405D01*
X1994405Y9323825D02*
Y9443824D01*
Y9323825D02*
X2254405D01*
Y9443824D01*
X2621460Y9383825D02*
X2626460Y9366325D01*
X2636460Y9403825D01*
X2646460Y9366325D01*
X2656460Y9403825D01*
X2666459Y9378825D01*
X2513960Y9443824D02*
X2773960D01*
X2513960Y9323825D02*
Y9443824D01*
Y9323825D02*
X2773960D01*
Y9443824D01*
X2703000Y8263880D02*
X2708000Y8246380D01*
X2693000Y8226380D02*
X2703000Y8263880D01*
X2683000D02*
X2693000Y8226380D01*
X2673000D02*
X2683000Y8263880D01*
X2663000Y8251380D02*
X2673000Y8226380D01*
X2555500Y8186380D02*
X2815500D01*
Y8306380D01*
X2555500D02*
X2815500D01*
X2555500Y8186380D02*
Y8306380D01*
X2953367Y8985500D02*
Y9045500D01*
X2833368Y8985500D02*
Y9045500D01*
X2953367Y9185500D02*
Y9245500D01*
X2833368Y9185500D02*
Y9245500D01*
X2868368Y9128000D02*
X2918368D01*
X2868368Y9103000D02*
X2918368D01*
X2893368Y9128000D02*
Y9140500D01*
Y9090500D02*
Y9103000D01*
X2833368Y9245500D02*
X2953367D01*
X2833368Y8985500D02*
X2953367D01*
X2980868Y9362254D02*
X2985868Y9344754D01*
X2970868Y9324754D02*
X2980868Y9362254D01*
X2960867D02*
X2970868Y9324754D01*
X2950867D02*
X2960867Y9362254D01*
X2940868Y9349754D02*
X2950867Y9324754D01*
X2833367Y9284754D02*
X3093367D01*
Y9404754D01*
X2833367D02*
X3093367D01*
X2833367Y9284754D02*
Y9404754D01*
X3120520Y9125195D02*
Y9157695D01*
X3095520Y9125195D02*
X3120520D01*
X3095520D02*
X3120520Y9097695D01*
X3145520Y9125195D01*
X3120520D02*
X3145520D01*
X3075520Y9107695D02*
X3085520Y9117695D01*
X3083020Y9097695D02*
X3093020Y9107695D01*
X3180000Y8995000D02*
Y9255000D01*
X3060000D02*
X3180000D01*
X3060000Y8995000D02*
Y9255000D01*
Y8995000D02*
X3180000D01*
X2478400Y9051600D02*
Y9111600D01*
X2358400Y9051600D02*
Y9111600D01*
X2478400Y9251600D02*
Y9311600D01*
X2358400Y9251600D02*
Y9311600D01*
X2393400Y9194100D02*
X2443400D01*
X2393400Y9169100D02*
X2443400D01*
X2418400Y9194100D02*
Y9206600D01*
Y9156600D02*
Y9169100D01*
X2358400Y9311600D02*
X2478400D01*
X2358400Y9051600D02*
X2478400D01*
X2450420Y8862868D02*
X2460580Y8875568D01*
X2437720D02*
X2460580D01*
X2437720D02*
X2450420Y8862868D01*
Y8890808D01*
X2407340Y8675056D02*
X2417500Y8687756D01*
X2407340Y8675056D02*
X2430200D01*
X2417500Y8687756D02*
X2430200Y8675056D01*
X2417500Y8659816D02*
Y8687756D01*
X2271915Y9036240D02*
X2282075Y9048940D01*
X2271915Y9036240D02*
X2294775D01*
X2282075Y9048940D02*
X2294775Y9036240D01*
X2282075Y9021000D02*
Y9048940D01*
X2115544Y8321163D02*
X2120544Y8303663D01*
X2105544Y8283663D02*
X2115544Y8321163D01*
X2095544D02*
X2105544Y8283663D01*
X2085544D02*
X2095544Y8321163D01*
X2075544Y8308663D02*
X2085544Y8283663D01*
X1968044Y8243663D02*
X2228044D01*
Y8363663D01*
X1968044D02*
X2228044D01*
X1968044Y8243663D02*
Y8363663D01*
X2236453Y8497792D02*
X2241453Y8480292D01*
X2251453Y8517792D01*
X2261453Y8480292D01*
X2271453Y8517792D01*
X2281453Y8492792D01*
X2128953Y8557792D02*
X2388953D01*
X2128953Y8437792D02*
Y8557792D01*
Y8437792D02*
X2388953D01*
Y8557792D01*
X5644800Y8749300D02*
G03*
X5644800Y8749300I-20000J0D01*
G01*
X5360500Y8715500D02*
Y8935500D01*
X5660500Y8715500D02*
Y8935500D01*
X5360500D02*
X5660500D01*
X5360500Y8715500D02*
X5660500D01*
X5068694Y8994514D02*
Y9029514D01*
X4843694Y8994514D02*
X5068694D01*
X4843694D02*
Y9029514D01*
X5068694Y9079514D02*
Y9114514D01*
X4843694D02*
X5068694D01*
X4843694Y9079514D02*
Y9114514D01*
X4973300Y9222500D02*
X4978300Y9205000D01*
X4963300Y9185000D02*
X4973300Y9222500D01*
X4953300D02*
X4963300Y9185000D01*
X4943300D02*
X4953300Y9222500D01*
X4933300Y9210000D02*
X4943300Y9185000D01*
X4825800Y9145000D02*
X5085800D01*
Y9265000D01*
X4825800D02*
X5085800D01*
X4825800Y9145000D02*
Y9265000D01*
X4951905Y9383825D02*
X4956905Y9366325D01*
X4966905Y9403825D01*
X4976905Y9366325D01*
X4986905Y9403825D01*
X4996905Y9378825D01*
X4844405Y9443824D02*
X5104405D01*
X4844405Y9323825D02*
Y9443824D01*
Y9323825D02*
X5104405D01*
Y9443824D01*
X5471459Y9383825D02*
X5476459Y9366325D01*
X5486459Y9403825D01*
X5496460Y9366325D01*
X5506460Y9403825D01*
X5516459Y9378825D01*
X5363960Y9443824D02*
X5623960D01*
X5363960Y9323825D02*
Y9443824D01*
Y9323825D02*
X5623960D01*
Y9443824D01*
X5553000Y8263880D02*
X5558000Y8246380D01*
X5543000Y8226380D02*
X5553000Y8263880D01*
X5533000D02*
X5543000Y8226380D01*
X5523000D02*
X5533000Y8263880D01*
X5513000Y8251380D02*
X5523000Y8226380D01*
X5405500Y8186380D02*
X5665500D01*
Y8306380D01*
X5405500D02*
X5665500D01*
X5405500Y8186380D02*
Y8306380D01*
X5803367Y8985500D02*
Y9045500D01*
X5683368Y8985500D02*
Y9045500D01*
X5803367Y9185500D02*
Y9245500D01*
X5683368Y9185500D02*
Y9245500D01*
X5718368Y9128000D02*
X5768367D01*
X5718368Y9103000D02*
X5768367D01*
X5743367Y9128000D02*
Y9140500D01*
Y9090500D02*
Y9103000D01*
X5683368Y9245500D02*
X5803367D01*
X5683368Y8985500D02*
X5803367D01*
X5830867Y9362254D02*
X5835867Y9344754D01*
X5820867Y9324754D02*
X5830867Y9362254D01*
X5810867D02*
X5820867Y9324754D01*
X5800867D02*
X5810867Y9362254D01*
X5790868Y9349754D02*
X5800867Y9324754D01*
X5683367Y9284754D02*
X5943367D01*
Y9404754D01*
X5683367D02*
X5943367D01*
X5683367Y9284754D02*
Y9404754D01*
X5970520Y9125195D02*
Y9157695D01*
X5945520Y9125195D02*
X5970520D01*
X5945520D02*
X5970520Y9097695D01*
X5995520Y9125195D01*
X5970520D02*
X5995520D01*
X5925520Y9107695D02*
X5935520Y9117695D01*
X5933020Y9097695D02*
X5943020Y9107695D01*
X6030000Y8995000D02*
Y9255000D01*
X5910000D02*
X6030000D01*
X5910000Y8995000D02*
Y9255000D01*
Y8995000D02*
X6030000D01*
X5328400Y9051600D02*
Y9111600D01*
X5208400Y9051600D02*
Y9111600D01*
X5328400Y9251600D02*
Y9311600D01*
X5208400Y9251600D02*
Y9311600D01*
X5243400Y9194100D02*
X5293400D01*
X5243400Y9169100D02*
X5293400D01*
X5268400Y9194100D02*
Y9206600D01*
Y9156600D02*
Y9169100D01*
X5208400Y9311600D02*
X5328400D01*
X5208400Y9051600D02*
X5328400D01*
X5300420Y8862868D02*
X5310580Y8875568D01*
X5287720D02*
X5310580D01*
X5287720D02*
X5300420Y8862868D01*
Y8890808D01*
X5257340Y8675056D02*
X5267500Y8687756D01*
X5257340Y8675056D02*
X5280200D01*
X5267500Y8687756D02*
X5280200Y8675056D01*
X5267500Y8659816D02*
Y8687756D01*
X5121915Y9036240D02*
X5132075Y9048940D01*
X5121915Y9036240D02*
X5144775D01*
X5132075Y9048940D02*
X5144775Y9036240D01*
X5132075Y9021000D02*
Y9048940D01*
X4965544Y8321163D02*
X4970544Y8303663D01*
X4955544Y8283663D02*
X4965544Y8321163D01*
X4945544D02*
X4955544Y8283663D01*
X4935544D02*
X4945544Y8321163D01*
X4925544Y8308663D02*
X4935544Y8283663D01*
X4818044Y8243663D02*
X5078044D01*
Y8363663D01*
X4818044D02*
X5078044D01*
X4818044Y8243663D02*
Y8363663D01*
X5086453Y8497792D02*
X5091453Y8480292D01*
X5101453Y8517792D01*
X5111453Y8480292D01*
X5121453Y8517792D01*
X5131453Y8492792D01*
X4978953Y8557792D02*
X5238953D01*
X4978953Y8437792D02*
Y8557792D01*
Y8437792D02*
X5238953D01*
Y8557792D01*
X8494800Y8749300D02*
G03*
X8494800Y8749300I-20000J0D01*
G01*
X8210500Y8715500D02*
Y8935500D01*
X8510500Y8715500D02*
Y8935500D01*
X8210500D02*
X8510500D01*
X8210500Y8715500D02*
X8510500D01*
X7918694Y8994514D02*
Y9029514D01*
X7693694Y8994514D02*
X7918694D01*
X7693694D02*
Y9029514D01*
X7918694Y9079514D02*
Y9114514D01*
X7693694D02*
X7918694D01*
X7693694Y9079514D02*
Y9114514D01*
X7823300Y9222500D02*
X7828300Y9205000D01*
X7813300Y9185000D02*
X7823300Y9222500D01*
X7803300D02*
X7813300Y9185000D01*
X7793300D02*
X7803300Y9222500D01*
X7783300Y9210000D02*
X7793300Y9185000D01*
X7675800Y9145000D02*
X7935800D01*
Y9265000D01*
X7675800D02*
X7935800D01*
X7675800Y9145000D02*
Y9265000D01*
X7801905Y9383825D02*
X7806905Y9366325D01*
X7816905Y9403825D01*
X7826905Y9366325D01*
X7836905Y9403825D01*
X7846905Y9378825D01*
X7694405Y9443824D02*
X7954405D01*
X7694405Y9323825D02*
Y9443824D01*
Y9323825D02*
X7954405D01*
Y9443824D01*
X8321459Y9383825D02*
X8326459Y9366325D01*
X8336459Y9403825D01*
X8346460Y9366325D01*
X8356460Y9403825D01*
X8366459Y9378825D01*
X8213959Y9443824D02*
X8473959D01*
X8213959Y9323825D02*
Y9443824D01*
Y9323825D02*
X8473959D01*
Y9443824D01*
X8403000Y8263880D02*
X8408000Y8246380D01*
X8393000Y8226380D02*
X8403000Y8263880D01*
X8382999D02*
X8393000Y8226380D01*
X8373000D02*
X8382999Y8263880D01*
X8363000Y8251380D02*
X8373000Y8226380D01*
X8255500Y8186380D02*
X8515500D01*
Y8306380D01*
X8255500D02*
X8515500D01*
X8255500Y8186380D02*
Y8306380D01*
X8653367Y8985500D02*
Y9045500D01*
X8533367Y8985500D02*
Y9045500D01*
X8653367Y9185500D02*
Y9245500D01*
X8533367Y9185500D02*
Y9245500D01*
X8568367Y9128000D02*
X8618367D01*
X8568367Y9103000D02*
X8618367D01*
X8593367Y9128000D02*
Y9140500D01*
Y9090500D02*
Y9103000D01*
X8533367Y9245500D02*
X8653367D01*
X8533367Y8985500D02*
X8653367D01*
X8680867Y9362254D02*
X8685867Y9344754D01*
X8670867Y9324754D02*
X8680867Y9362254D01*
X8660867D02*
X8670867Y9324754D01*
X8650867D02*
X8660867Y9362254D01*
X8640867Y9349754D02*
X8650867Y9324754D01*
X8533367Y9284754D02*
X8793367D01*
Y9404754D01*
X8533367D02*
X8793367D01*
X8533367Y9284754D02*
Y9404754D01*
X8820520Y9125195D02*
Y9157695D01*
X8795520Y9125195D02*
X8820520D01*
X8795520D02*
X8820520Y9097695D01*
X8845520Y9125195D01*
X8820520D02*
X8845520D01*
X8775520Y9107695D02*
X8785520Y9117695D01*
X8783020Y9097695D02*
X8793020Y9107695D01*
X8880000Y8995000D02*
Y9255000D01*
X8760000D02*
X8880000D01*
X8760000Y8995000D02*
Y9255000D01*
Y8995000D02*
X8880000D01*
X8178399Y9051600D02*
Y9111600D01*
X8058400Y9051600D02*
Y9111600D01*
X8178399Y9251600D02*
Y9311600D01*
X8058400Y9251600D02*
Y9311600D01*
X8093400Y9194100D02*
X8143400D01*
X8093400Y9169100D02*
X8143400D01*
X8118400Y9194100D02*
Y9206600D01*
Y9156600D02*
Y9169100D01*
X8058400Y9311600D02*
X8178399D01*
X8058400Y9051600D02*
X8178399D01*
X8150420Y8862868D02*
X8160580Y8875568D01*
X8137720D02*
X8160580D01*
X8137720D02*
X8150420Y8862868D01*
Y8890808D01*
X8107340Y8675056D02*
X8117500Y8687756D01*
X8107340Y8675056D02*
X8130200D01*
X8117500Y8687756D02*
X8130200Y8675056D01*
X8117500Y8659816D02*
Y8687756D01*
X7971915Y9036240D02*
X7982075Y9048940D01*
X7971915Y9036240D02*
X7994775D01*
X7982075Y9048940D02*
X7994775Y9036240D01*
X7982075Y9021000D02*
Y9048940D01*
X7815544Y8321163D02*
X7820544Y8303663D01*
X7805544Y8283663D02*
X7815544Y8321163D01*
X7795543D02*
X7805544Y8283663D01*
X7785543D02*
X7795543Y8321163D01*
X7775544Y8308663D02*
X7785543Y8283663D01*
X7668044Y8243663D02*
X7928044D01*
Y8363663D01*
X7668044D02*
X7928044D01*
X7668044Y8243663D02*
Y8363663D01*
X7936453Y8497792D02*
X7941453Y8480292D01*
X7951453Y8517792D01*
X7961453Y8480292D01*
X7971453Y8517792D01*
X7981453Y8492792D01*
X7828953Y8557792D02*
X8088953D01*
X7828953Y8437792D02*
Y8557792D01*
Y8437792D02*
X8088953D01*
Y8557792D01*
D30*
X1965830Y1440133D02*
Y1406277D01*
X1940439D01*
Y1423205D01*
Y1406277D01*
X1915047D01*
Y1490916D02*
Y1457060D01*
X1948902Y1490916D01*
X1957366D01*
X1965830Y1482452D01*
Y1465524D01*
X1957366Y1457060D01*
X2264268Y1564181D02*
X2315052D01*
Y1589572D01*
X2306588Y1598036D01*
X2289660D01*
X2281196Y1589572D01*
Y1564181D01*
Y1581108D02*
X2264268Y1598036D01*
X2306588Y1614964D02*
X2315052Y1623428D01*
Y1640356D01*
X2306588Y1648820D01*
X2298124D01*
X2289660Y1640356D01*
Y1631892D01*
Y1640356D01*
X2281196Y1648820D01*
X2272732D01*
X2264268Y1640356D01*
Y1623428D01*
X2272732Y1614964D01*
X2105015Y783259D02*
Y834043D01*
X2079623D01*
X2071159Y825579D01*
Y808651D01*
X2079623Y800187D01*
X2105015D01*
X2088087D02*
X2071159Y783259D01*
X2020376D02*
X2054232D01*
X2020376Y817115D01*
Y825579D01*
X2028840Y834043D01*
X2045768D01*
X2054232Y825579D01*
X1601398Y712271D02*
Y669952D01*
X1592934Y661488D01*
X1576006D01*
X1567542Y669952D01*
Y712271D01*
X1516759Y703808D02*
X1525223Y712271D01*
X1542150D01*
X1550614Y703808D01*
Y695344D01*
X1542150Y686880D01*
X1525223D01*
X1516759Y678416D01*
Y669952D01*
X1525223Y661488D01*
X1542150D01*
X1550614Y669952D01*
X1499831Y712271D02*
Y661488D01*
X1474439D01*
X1465975Y669952D01*
Y678416D01*
X1474439Y686880D01*
X1499831D01*
X1474439D01*
X1465975Y695344D01*
Y703808D01*
X1474439Y712271D01*
X1499831D01*
X2628856Y1575392D02*
Y1533072D01*
X2620392Y1524608D01*
X2603464D01*
X2595000Y1533072D01*
Y1575392D01*
X2578072Y1524608D02*
X2561144D01*
X2569608D01*
Y1575392D01*
X2578072Y1566928D01*
X2319854Y986187D02*
Y1036970D01*
X2294462D01*
X2285998Y1028507D01*
Y1011579D01*
X2294462Y1003115D01*
X2319854D01*
X2302926D02*
X2285998Y986187D01*
X2269070D02*
X2252142D01*
X2260606D01*
Y1036970D01*
X2269070Y1028507D01*
X2226750D02*
X2218286Y1036970D01*
X2201359D01*
X2192895Y1028507D01*
Y994651D01*
X2201359Y986187D01*
X2218286D01*
X2226750Y994651D01*
Y1028507D01*
X2683104Y1644475D02*
Y1695259D01*
X2657712D01*
X2649248Y1686795D01*
Y1669867D01*
X2657712Y1661403D01*
X2683104D01*
X2666176D02*
X2649248Y1644475D01*
X2632320Y1686795D02*
X2623856Y1695259D01*
X2606928D01*
X2598465Y1686795D01*
Y1678331D01*
X2606928Y1669867D01*
X2598465Y1661403D01*
Y1652939D01*
X2606928Y1644475D01*
X2623856D01*
X2632320Y1652939D01*
Y1661403D01*
X2623856Y1669867D01*
X2632320Y1678331D01*
Y1686795D01*
X2623856Y1669867D02*
X2606928D01*
X1973474Y1759895D02*
Y1810679D01*
X1948082D01*
X1939618Y1802215D01*
Y1785287D01*
X1948082Y1776823D01*
X1973474D01*
X1956546D02*
X1939618Y1759895D01*
X1922691Y1810679D02*
X1888835D01*
Y1802215D01*
X1922691Y1768359D01*
Y1759895D01*
X2723135Y730846D02*
Y781630D01*
X2697743D01*
X2689280Y773166D01*
Y756238D01*
X2697743Y747774D01*
X2723135D01*
X2706207D02*
X2689280Y730846D01*
X2638496Y781630D02*
X2655424Y773166D01*
X2672352Y756238D01*
Y739310D01*
X2663888Y730846D01*
X2646960D01*
X2638496Y739310D01*
Y747774D01*
X2646960Y756238D01*
X2672352D01*
X3004586Y1830170D02*
Y1880954D01*
X2979194D01*
X2970730Y1872490D01*
Y1855562D01*
X2979194Y1847098D01*
X3004586D01*
X2987658D02*
X2970730Y1830170D01*
X2953802D02*
X2936874D01*
X2945338D01*
Y1880954D01*
X2953802Y1872490D01*
X2417031Y640126D02*
Y690909D01*
X2391639D01*
X2383175Y682445D01*
Y665518D01*
X2391639Y657054D01*
X2417031D01*
X2332392Y682445D02*
X2340855Y690909D01*
X2357783D01*
X2366247Y682445D01*
Y648590D01*
X2357783Y640126D01*
X2340855D01*
X2332392Y648590D01*
Y665518D01*
X2349319D01*
X2315464Y640126D02*
Y690909D01*
X2298536Y673981D01*
X2281608Y690909D01*
Y640126D01*
X3068644Y669364D02*
X3077108Y677828D01*
X3094036D01*
X3102500Y669364D01*
Y635509D01*
X3094036Y627045D01*
X3077108D01*
X3068644Y635509D01*
Y652437D01*
X3085572D01*
X3051716Y627045D02*
Y677828D01*
X3017861Y627045D01*
Y677828D01*
X3000933D02*
Y627045D01*
X2975541D01*
X2967077Y635509D01*
Y669364D01*
X2975541Y677828D01*
X3000933D01*
X2333372Y1339018D02*
Y1288235D01*
X2307980D01*
X2299516Y1296699D01*
Y1330554D01*
X2307980Y1339018D01*
X2333372D01*
X2282588Y1330554D02*
X2274124Y1339018D01*
X2257196D01*
X2248732Y1330554D01*
Y1322090D01*
X2257196Y1313627D01*
X2248732Y1305162D01*
Y1296699D01*
X2257196Y1288235D01*
X2274124D01*
X2282588Y1296699D01*
Y1305162D01*
X2274124Y1313627D01*
X2282588Y1322090D01*
Y1330554D01*
X2274124Y1313627D02*
X2257196D01*
X2415829Y1208253D02*
Y1157469D01*
X2390437D01*
X2381974Y1165933D01*
Y1199789D01*
X2390437Y1208253D01*
X2415829D01*
X2365046D02*
X2331190D01*
Y1199789D01*
X2365046Y1165933D01*
Y1157469D01*
X2488023Y1423543D02*
Y1372759D01*
X2462631D01*
X2454168Y1381223D01*
Y1415079D01*
X2462631Y1423543D01*
X2488023D01*
X2403384D02*
X2420312Y1415079D01*
X2437240Y1398151D01*
Y1381223D01*
X2428776Y1372759D01*
X2411848D01*
X2403384Y1381223D01*
Y1389687D01*
X2411848Y1398151D01*
X2437240D01*
X3037725Y1555992D02*
Y1505208D01*
X3012333D01*
X3003869Y1513672D01*
Y1547528D01*
X3012333Y1555992D01*
X3037725D01*
X2986941Y1505208D02*
X2970014D01*
X2978477D01*
Y1555992D01*
X2986941Y1547528D01*
X2409038Y1774243D02*
X2417502Y1782707D01*
X2434430D01*
X2442894Y1774243D01*
Y1740387D01*
X2434430Y1731923D01*
X2417502D01*
X2409038Y1740387D01*
X2392110Y1782707D02*
X2358255D01*
Y1774243D01*
X2392110Y1740387D01*
Y1731923D01*
X2787534Y1560980D02*
X2795998Y1569443D01*
X2812926D01*
X2821390Y1560980D01*
Y1527124D01*
X2812926Y1518660D01*
X2795998D01*
X2787534Y1527124D01*
X2736751Y1569443D02*
X2753679Y1560980D01*
X2770606Y1544052D01*
Y1527124D01*
X2762142Y1518660D01*
X2745214D01*
X2736751Y1527124D01*
Y1535588D01*
X2745214Y1544052D01*
X2770606D01*
X2964598Y1175398D02*
X2956134Y1183862D01*
X2939206D01*
X2930742Y1175398D01*
Y1166934D01*
X2939206Y1158471D01*
X2947670D01*
X2939206D01*
X2930742Y1150007D01*
Y1141543D01*
X2939206Y1133079D01*
X2956134D01*
X2964598Y1141543D01*
X2913814Y1183862D02*
Y1150007D01*
X2896886Y1133079D01*
X2879958Y1150007D01*
Y1183862D01*
X2863031Y1175398D02*
X2854567Y1183862D01*
X2837639D01*
X2829175Y1175398D01*
Y1166934D01*
X2837639Y1158471D01*
X2846103D01*
X2837639D01*
X2829175Y1150007D01*
Y1141543D01*
X2837639Y1133079D01*
X2854567D01*
X2863031Y1141543D01*
X4815830Y1440133D02*
Y1406277D01*
X4790438D01*
Y1423205D01*
Y1406277D01*
X4765047D01*
Y1490916D02*
Y1457060D01*
X4798902Y1490916D01*
X4807366D01*
X4815830Y1482452D01*
Y1465524D01*
X4807366Y1457060D01*
X5114268Y1564181D02*
X5165052D01*
Y1589572D01*
X5156588Y1598036D01*
X5139660D01*
X5131196Y1589572D01*
Y1564181D01*
Y1581108D02*
X5114268Y1598036D01*
X5156588Y1614964D02*
X5165052Y1623428D01*
Y1640356D01*
X5156588Y1648820D01*
X5148124D01*
X5139660Y1640356D01*
Y1631892D01*
Y1640356D01*
X5131196Y1648820D01*
X5122732D01*
X5114268Y1640356D01*
Y1623428D01*
X5122732Y1614964D01*
X4955015Y783259D02*
Y834043D01*
X4929623D01*
X4921159Y825579D01*
Y808651D01*
X4929623Y800187D01*
X4955015D01*
X4938087D02*
X4921159Y783259D01*
X4870376D02*
X4904231D01*
X4870376Y817115D01*
Y825579D01*
X4878840Y834043D01*
X4895767D01*
X4904231Y825579D01*
X4451398Y712271D02*
Y669952D01*
X4442934Y661488D01*
X4426006D01*
X4417542Y669952D01*
Y712271D01*
X4366759Y703808D02*
X4375222Y712271D01*
X4392150D01*
X4400614Y703808D01*
Y695344D01*
X4392150Y686880D01*
X4375222D01*
X4366759Y678416D01*
Y669952D01*
X4375222Y661488D01*
X4392150D01*
X4400614Y669952D01*
X4349831Y712271D02*
Y661488D01*
X4324439D01*
X4315975Y669952D01*
Y678416D01*
X4324439Y686880D01*
X4349831D01*
X4324439D01*
X4315975Y695344D01*
Y703808D01*
X4324439Y712271D01*
X4349831D01*
X5478855Y1575392D02*
Y1533072D01*
X5470391Y1524608D01*
X5453464D01*
X5445000Y1533072D01*
Y1575392D01*
X5428072Y1524608D02*
X5411144D01*
X5419608D01*
Y1575392D01*
X5428072Y1566928D01*
X5169854Y986187D02*
Y1036970D01*
X5144462D01*
X5135998Y1028507D01*
Y1011579D01*
X5144462Y1003115D01*
X5169854D01*
X5152926D02*
X5135998Y986187D01*
X5119070D02*
X5102142D01*
X5110606D01*
Y1036970D01*
X5119070Y1028507D01*
X5076750D02*
X5068286Y1036970D01*
X5051358D01*
X5042895Y1028507D01*
Y994651D01*
X5051358Y986187D01*
X5068286D01*
X5076750Y994651D01*
Y1028507D01*
X5533104Y1644475D02*
Y1695259D01*
X5507712D01*
X5499248Y1686795D01*
Y1669867D01*
X5507712Y1661403D01*
X5533104D01*
X5516176D02*
X5499248Y1644475D01*
X5482320Y1686795D02*
X5473856Y1695259D01*
X5456928D01*
X5448465Y1686795D01*
Y1678331D01*
X5456928Y1669867D01*
X5448465Y1661403D01*
Y1652939D01*
X5456928Y1644475D01*
X5473856D01*
X5482320Y1652939D01*
Y1661403D01*
X5473856Y1669867D01*
X5482320Y1678331D01*
Y1686795D01*
X5473856Y1669867D02*
X5456928D01*
X4823474Y1759895D02*
Y1810679D01*
X4798082D01*
X4789618Y1802215D01*
Y1785287D01*
X4798082Y1776823D01*
X4823474D01*
X4806546D02*
X4789618Y1759895D01*
X4772690Y1810679D02*
X4738835D01*
Y1802215D01*
X4772690Y1768359D01*
Y1759895D01*
X5573135Y730846D02*
Y781630D01*
X5547743D01*
X5539279Y773166D01*
Y756238D01*
X5547743Y747774D01*
X5573135D01*
X5556207D02*
X5539279Y730846D01*
X5488496Y781630D02*
X5505424Y773166D01*
X5522352Y756238D01*
Y739310D01*
X5513888Y730846D01*
X5496960D01*
X5488496Y739310D01*
Y747774D01*
X5496960Y756238D01*
X5522352D01*
X5854586Y1830170D02*
Y1880954D01*
X5829194D01*
X5820730Y1872490D01*
Y1855562D01*
X5829194Y1847098D01*
X5854586D01*
X5837658D02*
X5820730Y1830170D01*
X5803802D02*
X5786874D01*
X5795338D01*
Y1880954D01*
X5803802Y1872490D01*
X5267031Y640126D02*
Y690909D01*
X5241639D01*
X5233175Y682445D01*
Y665518D01*
X5241639Y657054D01*
X5267031D01*
X5182391Y682445D02*
X5190855Y690909D01*
X5207783D01*
X5216247Y682445D01*
Y648590D01*
X5207783Y640126D01*
X5190855D01*
X5182391Y648590D01*
Y665518D01*
X5199319D01*
X5165464Y640126D02*
Y690909D01*
X5148536Y673981D01*
X5131608Y690909D01*
Y640126D01*
X5918644Y669364D02*
X5927108Y677828D01*
X5944036D01*
X5952500Y669364D01*
Y635509D01*
X5944036Y627045D01*
X5927108D01*
X5918644Y635509D01*
Y652437D01*
X5935572D01*
X5901716Y627045D02*
Y677828D01*
X5867861Y627045D01*
Y677828D01*
X5850933D02*
Y627045D01*
X5825541D01*
X5817077Y635509D01*
Y669364D01*
X5825541Y677828D01*
X5850933D01*
X5183371Y1339018D02*
Y1288235D01*
X5157980D01*
X5149516Y1296699D01*
Y1330554D01*
X5157980Y1339018D01*
X5183371D01*
X5132588Y1330554D02*
X5124124Y1339018D01*
X5107196D01*
X5098732Y1330554D01*
Y1322090D01*
X5107196Y1313627D01*
X5098732Y1305162D01*
Y1296699D01*
X5107196Y1288235D01*
X5124124D01*
X5132588Y1296699D01*
Y1305162D01*
X5124124Y1313627D01*
X5132588Y1322090D01*
Y1330554D01*
X5124124Y1313627D02*
X5107196D01*
X5265829Y1208253D02*
Y1157469D01*
X5240437D01*
X5231974Y1165933D01*
Y1199789D01*
X5240437Y1208253D01*
X5265829D01*
X5215046D02*
X5181190D01*
Y1199789D01*
X5215046Y1165933D01*
Y1157469D01*
X5338023Y1423543D02*
Y1372759D01*
X5312631D01*
X5304167Y1381223D01*
Y1415079D01*
X5312631Y1423543D01*
X5338023D01*
X5253384D02*
X5270312Y1415079D01*
X5287240Y1398151D01*
Y1381223D01*
X5278776Y1372759D01*
X5261848D01*
X5253384Y1381223D01*
Y1389687D01*
X5261848Y1398151D01*
X5287240D01*
X5887725Y1555992D02*
Y1505208D01*
X5862333D01*
X5853869Y1513672D01*
Y1547528D01*
X5862333Y1555992D01*
X5887725D01*
X5836941Y1505208D02*
X5820014D01*
X5828477D01*
Y1555992D01*
X5836941Y1547528D01*
X5259038Y1774243D02*
X5267502Y1782707D01*
X5284430D01*
X5292894Y1774243D01*
Y1740387D01*
X5284430Y1731923D01*
X5267502D01*
X5259038Y1740387D01*
X5242110Y1782707D02*
X5208255D01*
Y1774243D01*
X5242110Y1740387D01*
Y1731923D01*
X5637534Y1560980D02*
X5645998Y1569443D01*
X5662926D01*
X5671390Y1560980D01*
Y1527124D01*
X5662926Y1518660D01*
X5645998D01*
X5637534Y1527124D01*
X5586751Y1569443D02*
X5603678Y1560980D01*
X5620606Y1544052D01*
Y1527124D01*
X5612142Y1518660D01*
X5595214D01*
X5586751Y1527124D01*
Y1535588D01*
X5595214Y1544052D01*
X5620606D01*
X5814597Y1175398D02*
X5806133Y1183862D01*
X5789206D01*
X5780742Y1175398D01*
Y1166934D01*
X5789206Y1158471D01*
X5797670D01*
X5789206D01*
X5780742Y1150007D01*
Y1141543D01*
X5789206Y1133079D01*
X5806133D01*
X5814597Y1141543D01*
X5763814Y1183862D02*
Y1150007D01*
X5746886Y1133079D01*
X5729958Y1150007D01*
Y1183862D01*
X5713030Y1175398D02*
X5704566Y1183862D01*
X5687639D01*
X5679175Y1175398D01*
Y1166934D01*
X5687639Y1158471D01*
X5696103D01*
X5687639D01*
X5679175Y1150007D01*
Y1141543D01*
X5687639Y1133079D01*
X5704566D01*
X5713030Y1141543D01*
X7665830Y1440133D02*
Y1406277D01*
X7640438D01*
Y1423205D01*
Y1406277D01*
X7615046D01*
Y1490916D02*
Y1457060D01*
X7648902Y1490916D01*
X7657366D01*
X7665830Y1482452D01*
Y1465524D01*
X7657366Y1457060D01*
X7964268Y1564181D02*
X8015052D01*
Y1589572D01*
X8006588Y1598036D01*
X7989660D01*
X7981196Y1589572D01*
Y1564181D01*
Y1581108D02*
X7964268Y1598036D01*
X8006588Y1614964D02*
X8015052Y1623428D01*
Y1640356D01*
X8006588Y1648820D01*
X7998124D01*
X7989660Y1640356D01*
Y1631892D01*
Y1640356D01*
X7981196Y1648820D01*
X7972732D01*
X7964268Y1640356D01*
Y1623428D01*
X7972732Y1614964D01*
X7805015Y783259D02*
Y834043D01*
X7779623D01*
X7771159Y825579D01*
Y808651D01*
X7779623Y800187D01*
X7805015D01*
X7788087D02*
X7771159Y783259D01*
X7720376D02*
X7754231D01*
X7720376Y817115D01*
Y825579D01*
X7728840Y834043D01*
X7745767D01*
X7754231Y825579D01*
X7301398Y712271D02*
Y669952D01*
X7292934Y661488D01*
X7276006D01*
X7267542Y669952D01*
Y712271D01*
X7216758Y703808D02*
X7225222Y712271D01*
X7242150D01*
X7250614Y703808D01*
Y695344D01*
X7242150Y686880D01*
X7225222D01*
X7216758Y678416D01*
Y669952D01*
X7225222Y661488D01*
X7242150D01*
X7250614Y669952D01*
X7199831Y712271D02*
Y661488D01*
X7174439D01*
X7165975Y669952D01*
Y678416D01*
X7174439Y686880D01*
X7199831D01*
X7174439D01*
X7165975Y695344D01*
Y703808D01*
X7174439Y712271D01*
X7199831D01*
X8328855Y1575392D02*
Y1533072D01*
X8320391Y1524608D01*
X8303463D01*
X8295000Y1533072D01*
Y1575392D01*
X8278072Y1524608D02*
X8261144D01*
X8269608D01*
Y1575392D01*
X8278072Y1566928D01*
X8019853Y986187D02*
Y1036970D01*
X7994462D01*
X7985998Y1028507D01*
Y1011579D01*
X7994462Y1003115D01*
X8019853D01*
X8002926D02*
X7985998Y986187D01*
X7969070D02*
X7952142D01*
X7960606D01*
Y1036970D01*
X7969070Y1028507D01*
X7926750D02*
X7918286Y1036970D01*
X7901358D01*
X7892895Y1028507D01*
Y994651D01*
X7901358Y986187D01*
X7918286D01*
X7926750Y994651D01*
Y1028507D01*
X8383104Y1644475D02*
Y1695259D01*
X8357712D01*
X8349248Y1686795D01*
Y1669867D01*
X8357712Y1661403D01*
X8383104D01*
X8366176D02*
X8349248Y1644475D01*
X8332320Y1686795D02*
X8323856Y1695259D01*
X8306928D01*
X8298464Y1686795D01*
Y1678331D01*
X8306928Y1669867D01*
X8298464Y1661403D01*
Y1652939D01*
X8306928Y1644475D01*
X8323856D01*
X8332320Y1652939D01*
Y1661403D01*
X8323856Y1669867D01*
X8332320Y1678331D01*
Y1686795D01*
X8323856Y1669867D02*
X8306928D01*
X7673474Y1759895D02*
Y1810679D01*
X7648082D01*
X7639618Y1802215D01*
Y1785287D01*
X7648082Y1776823D01*
X7673474D01*
X7656546D02*
X7639618Y1759895D01*
X7622690Y1810679D02*
X7588835D01*
Y1802215D01*
X7622690Y1768359D01*
Y1759895D01*
X8423135Y730846D02*
Y781630D01*
X8397743D01*
X8389279Y773166D01*
Y756238D01*
X8397743Y747774D01*
X8423135D01*
X8406207D02*
X8389279Y730846D01*
X8338496Y781630D02*
X8355424Y773166D01*
X8372352Y756238D01*
Y739310D01*
X8363888Y730846D01*
X8346960D01*
X8338496Y739310D01*
Y747774D01*
X8346960Y756238D01*
X8372352D01*
X8704586Y1830170D02*
Y1880954D01*
X8679194D01*
X8670730Y1872490D01*
Y1855562D01*
X8679194Y1847098D01*
X8704586D01*
X8687658D02*
X8670730Y1830170D01*
X8653802D02*
X8636874D01*
X8645338D01*
Y1880954D01*
X8653802Y1872490D01*
X8117031Y640126D02*
Y690909D01*
X8091639D01*
X8083175Y682445D01*
Y665518D01*
X8091639Y657054D01*
X8117031D01*
X8032391Y682445D02*
X8040855Y690909D01*
X8057783D01*
X8066247Y682445D01*
Y648590D01*
X8057783Y640126D01*
X8040855D01*
X8032391Y648590D01*
Y665518D01*
X8049319D01*
X8015464Y640126D02*
Y690909D01*
X7998536Y673981D01*
X7981608Y690909D01*
Y640126D01*
X8768644Y669364D02*
X8777108Y677828D01*
X8794035D01*
X8802500Y669364D01*
Y635509D01*
X8794035Y627045D01*
X8777108D01*
X8768644Y635509D01*
Y652437D01*
X8785572D01*
X8751716Y627045D02*
Y677828D01*
X8717860Y627045D01*
Y677828D01*
X8700933D02*
Y627045D01*
X8675541D01*
X8667077Y635509D01*
Y669364D01*
X8675541Y677828D01*
X8700933D01*
X8033371Y1339018D02*
Y1288235D01*
X8007979D01*
X7999516Y1296699D01*
Y1330554D01*
X8007979Y1339018D01*
X8033371D01*
X7982588Y1330554D02*
X7974124Y1339018D01*
X7957196D01*
X7948732Y1330554D01*
Y1322090D01*
X7957196Y1313627D01*
X7948732Y1305162D01*
Y1296699D01*
X7957196Y1288235D01*
X7974124D01*
X7982588Y1296699D01*
Y1305162D01*
X7974124Y1313627D01*
X7982588Y1322090D01*
Y1330554D01*
X7974124Y1313627D02*
X7957196D01*
X8115829Y1208253D02*
Y1157469D01*
X8090437D01*
X8081973Y1165933D01*
Y1199789D01*
X8090437Y1208253D01*
X8115829D01*
X8065046D02*
X8031190D01*
Y1199789D01*
X8065046Y1165933D01*
Y1157469D01*
X8188023Y1423543D02*
Y1372759D01*
X8162631D01*
X8154167Y1381223D01*
Y1415079D01*
X8162631Y1423543D01*
X8188023D01*
X8103384D02*
X8120312Y1415079D01*
X8137240Y1398151D01*
Y1381223D01*
X8128775Y1372759D01*
X8111848D01*
X8103384Y1381223D01*
Y1389687D01*
X8111848Y1398151D01*
X8137240D01*
X8737725Y1555992D02*
Y1505208D01*
X8712333D01*
X8703869Y1513672D01*
Y1547528D01*
X8712333Y1555992D01*
X8737725D01*
X8686941Y1505208D02*
X8670013D01*
X8678477D01*
Y1555992D01*
X8686941Y1547528D01*
X8109038Y1774243D02*
X8117502Y1782707D01*
X8134430D01*
X8142894Y1774243D01*
Y1740387D01*
X8134430Y1731923D01*
X8117502D01*
X8109038Y1740387D01*
X8092110Y1782707D02*
X8058254D01*
Y1774243D01*
X8092110Y1740387D01*
Y1731923D01*
X8487534Y1560980D02*
X8495998Y1569443D01*
X8512926D01*
X8521390Y1560980D01*
Y1527124D01*
X8512926Y1518660D01*
X8495998D01*
X8487534Y1527124D01*
X8436750Y1569443D02*
X8453678Y1560980D01*
X8470606Y1544052D01*
Y1527124D01*
X8462142Y1518660D01*
X8445214D01*
X8436750Y1527124D01*
Y1535588D01*
X8445214Y1544052D01*
X8470606D01*
X8664597Y1175398D02*
X8656133Y1183862D01*
X8639205D01*
X8630742Y1175398D01*
Y1166934D01*
X8639205Y1158471D01*
X8647670D01*
X8639205D01*
X8630742Y1150007D01*
Y1141543D01*
X8639205Y1133079D01*
X8656133D01*
X8664597Y1141543D01*
X8613814Y1183862D02*
Y1150007D01*
X8596886Y1133079D01*
X8579958Y1150007D01*
Y1183862D01*
X8563030Y1175398D02*
X8554566Y1183862D01*
X8537638D01*
X8529175Y1175398D01*
Y1166934D01*
X8537638Y1158471D01*
X8546103D01*
X8537638D01*
X8529175Y1150007D01*
Y1141543D01*
X8537638Y1133079D01*
X8554566D01*
X8563030Y1141543D01*
X1965830Y3340133D02*
Y3306277D01*
X1940439D01*
Y3323205D01*
Y3306277D01*
X1915047D01*
Y3390916D02*
Y3357060D01*
X1948902Y3390916D01*
X1957366D01*
X1965830Y3382452D01*
Y3365524D01*
X1957366Y3357060D01*
X2264268Y3464181D02*
X2315052D01*
Y3489572D01*
X2306588Y3498036D01*
X2289660D01*
X2281196Y3489572D01*
Y3464181D01*
Y3481108D02*
X2264268Y3498036D01*
X2306588Y3514964D02*
X2315052Y3523428D01*
Y3540356D01*
X2306588Y3548820D01*
X2298124D01*
X2289660Y3540356D01*
Y3531892D01*
Y3540356D01*
X2281196Y3548820D01*
X2272732D01*
X2264268Y3540356D01*
Y3523428D01*
X2272732Y3514964D01*
X2105015Y2683259D02*
Y2734043D01*
X2079623D01*
X2071159Y2725579D01*
Y2708651D01*
X2079623Y2700187D01*
X2105015D01*
X2088087D02*
X2071159Y2683259D01*
X2020376D02*
X2054232D01*
X2020376Y2717115D01*
Y2725579D01*
X2028840Y2734043D01*
X2045768D01*
X2054232Y2725579D01*
X1601398Y2612271D02*
Y2569952D01*
X1592934Y2561488D01*
X1576006D01*
X1567542Y2569952D01*
Y2612271D01*
X1516759Y2603808D02*
X1525223Y2612271D01*
X1542150D01*
X1550614Y2603808D01*
Y2595344D01*
X1542150Y2586880D01*
X1525223D01*
X1516759Y2578416D01*
Y2569952D01*
X1525223Y2561488D01*
X1542150D01*
X1550614Y2569952D01*
X1499831Y2612271D02*
Y2561488D01*
X1474439D01*
X1465975Y2569952D01*
Y2578416D01*
X1474439Y2586880D01*
X1499831D01*
X1474439D01*
X1465975Y2595344D01*
Y2603808D01*
X1474439Y2612271D01*
X1499831D01*
X2628856Y3475392D02*
Y3433072D01*
X2620392Y3424608D01*
X2603464D01*
X2595000Y3433072D01*
Y3475392D01*
X2578072Y3424608D02*
X2561144D01*
X2569608D01*
Y3475392D01*
X2578072Y3466928D01*
X2319854Y2886187D02*
Y2936971D01*
X2294462D01*
X2285998Y2928507D01*
Y2911579D01*
X2294462Y2903115D01*
X2319854D01*
X2302926D02*
X2285998Y2886187D01*
X2269070D02*
X2252142D01*
X2260606D01*
Y2936971D01*
X2269070Y2928507D01*
X2226750D02*
X2218286Y2936971D01*
X2201359D01*
X2192895Y2928507D01*
Y2894651D01*
X2201359Y2886187D01*
X2218286D01*
X2226750Y2894651D01*
Y2928507D01*
X2683104Y3544475D02*
Y3595259D01*
X2657712D01*
X2649248Y3586795D01*
Y3569867D01*
X2657712Y3561403D01*
X2683104D01*
X2666176D02*
X2649248Y3544475D01*
X2632320Y3586795D02*
X2623856Y3595259D01*
X2606928D01*
X2598465Y3586795D01*
Y3578331D01*
X2606928Y3569867D01*
X2598465Y3561403D01*
Y3552939D01*
X2606928Y3544475D01*
X2623856D01*
X2632320Y3552939D01*
Y3561403D01*
X2623856Y3569867D01*
X2632320Y3578331D01*
Y3586795D01*
X2623856Y3569867D02*
X2606928D01*
X1973474Y3659895D02*
Y3710679D01*
X1948082D01*
X1939618Y3702215D01*
Y3685287D01*
X1948082Y3676823D01*
X1973474D01*
X1956546D02*
X1939618Y3659895D01*
X1922691Y3710679D02*
X1888835D01*
Y3702215D01*
X1922691Y3668359D01*
Y3659895D01*
X2723135Y2630846D02*
Y2681630D01*
X2697743D01*
X2689280Y2673166D01*
Y2656238D01*
X2697743Y2647774D01*
X2723135D01*
X2706207D02*
X2689280Y2630846D01*
X2638496Y2681630D02*
X2655424Y2673166D01*
X2672352Y2656238D01*
Y2639310D01*
X2663888Y2630846D01*
X2646960D01*
X2638496Y2639310D01*
Y2647774D01*
X2646960Y2656238D01*
X2672352D01*
X3004586Y3730170D02*
Y3780954D01*
X2979194D01*
X2970730Y3772490D01*
Y3755562D01*
X2979194Y3747098D01*
X3004586D01*
X2987658D02*
X2970730Y3730170D01*
X2953802D02*
X2936874D01*
X2945338D01*
Y3780954D01*
X2953802Y3772490D01*
X2417031Y2540126D02*
Y2590909D01*
X2391639D01*
X2383175Y2582445D01*
Y2565518D01*
X2391639Y2557054D01*
X2417031D01*
X2332392Y2582445D02*
X2340855Y2590909D01*
X2357783D01*
X2366247Y2582445D01*
Y2548590D01*
X2357783Y2540126D01*
X2340855D01*
X2332392Y2548590D01*
Y2565518D01*
X2349319D01*
X2315464Y2540126D02*
Y2590909D01*
X2298536Y2573981D01*
X2281608Y2590909D01*
Y2540126D01*
X3068644Y2569364D02*
X3077108Y2577828D01*
X3094036D01*
X3102500Y2569364D01*
Y2535509D01*
X3094036Y2527045D01*
X3077108D01*
X3068644Y2535509D01*
Y2552437D01*
X3085572D01*
X3051716Y2527045D02*
Y2577828D01*
X3017861Y2527045D01*
Y2577828D01*
X3000933D02*
Y2527045D01*
X2975541D01*
X2967077Y2535509D01*
Y2569364D01*
X2975541Y2577828D01*
X3000933D01*
X2333372Y3239018D02*
Y3188235D01*
X2307980D01*
X2299516Y3196699D01*
Y3230554D01*
X2307980Y3239018D01*
X2333372D01*
X2282588Y3230554D02*
X2274124Y3239018D01*
X2257196D01*
X2248732Y3230554D01*
Y3222090D01*
X2257196Y3213627D01*
X2248732Y3205163D01*
Y3196699D01*
X2257196Y3188235D01*
X2274124D01*
X2282588Y3196699D01*
Y3205163D01*
X2274124Y3213627D01*
X2282588Y3222090D01*
Y3230554D01*
X2274124Y3213627D02*
X2257196D01*
X2415829Y3108253D02*
Y3057469D01*
X2390437D01*
X2381974Y3065933D01*
Y3099789D01*
X2390437Y3108253D01*
X2415829D01*
X2365046D02*
X2331190D01*
Y3099789D01*
X2365046Y3065933D01*
Y3057469D01*
X2488023Y3323543D02*
Y3272759D01*
X2462631D01*
X2454168Y3281223D01*
Y3315079D01*
X2462631Y3323543D01*
X2488023D01*
X2403384D02*
X2420312Y3315079D01*
X2437240Y3298151D01*
Y3281223D01*
X2428776Y3272759D01*
X2411848D01*
X2403384Y3281223D01*
Y3289687D01*
X2411848Y3298151D01*
X2437240D01*
X3037725Y3455992D02*
Y3405208D01*
X3012333D01*
X3003869Y3413672D01*
Y3447528D01*
X3012333Y3455992D01*
X3037725D01*
X2986941Y3405208D02*
X2970014D01*
X2978477D01*
Y3455992D01*
X2986941Y3447528D01*
X2409038Y3674243D02*
X2417502Y3682707D01*
X2434430D01*
X2442894Y3674243D01*
Y3640387D01*
X2434430Y3631923D01*
X2417502D01*
X2409038Y3640387D01*
X2392110Y3682707D02*
X2358255D01*
Y3674243D01*
X2392110Y3640387D01*
Y3631923D01*
X2787534Y3460980D02*
X2795998Y3469443D01*
X2812926D01*
X2821390Y3460980D01*
Y3427124D01*
X2812926Y3418660D01*
X2795998D01*
X2787534Y3427124D01*
X2736751Y3469443D02*
X2753679Y3460980D01*
X2770606Y3444052D01*
Y3427124D01*
X2762142Y3418660D01*
X2745214D01*
X2736751Y3427124D01*
Y3435588D01*
X2745214Y3444052D01*
X2770606D01*
X2964598Y3075398D02*
X2956134Y3083862D01*
X2939206D01*
X2930742Y3075398D01*
Y3066934D01*
X2939206Y3058471D01*
X2947670D01*
X2939206D01*
X2930742Y3050007D01*
Y3041543D01*
X2939206Y3033079D01*
X2956134D01*
X2964598Y3041543D01*
X2913814Y3083862D02*
Y3050007D01*
X2896886Y3033079D01*
X2879958Y3050007D01*
Y3083862D01*
X2863031Y3075398D02*
X2854567Y3083862D01*
X2837639D01*
X2829175Y3075398D01*
Y3066934D01*
X2837639Y3058471D01*
X2846103D01*
X2837639D01*
X2829175Y3050007D01*
Y3041543D01*
X2837639Y3033079D01*
X2854567D01*
X2863031Y3041543D01*
X4815830Y3340133D02*
Y3306277D01*
X4790438D01*
Y3323205D01*
Y3306277D01*
X4765047D01*
Y3390916D02*
Y3357060D01*
X4798902Y3390916D01*
X4807366D01*
X4815830Y3382452D01*
Y3365524D01*
X4807366Y3357060D01*
X5114268Y3464181D02*
X5165052D01*
Y3489572D01*
X5156588Y3498036D01*
X5139660D01*
X5131196Y3489572D01*
Y3464181D01*
Y3481108D02*
X5114268Y3498036D01*
X5156588Y3514964D02*
X5165052Y3523428D01*
Y3540356D01*
X5156588Y3548820D01*
X5148124D01*
X5139660Y3540356D01*
Y3531892D01*
Y3540356D01*
X5131196Y3548820D01*
X5122732D01*
X5114268Y3540356D01*
Y3523428D01*
X5122732Y3514964D01*
X4955015Y2683259D02*
Y2734043D01*
X4929623D01*
X4921159Y2725579D01*
Y2708651D01*
X4929623Y2700187D01*
X4955015D01*
X4938087D02*
X4921159Y2683259D01*
X4870376D02*
X4904231D01*
X4870376Y2717115D01*
Y2725579D01*
X4878840Y2734043D01*
X4895767D01*
X4904231Y2725579D01*
X4451398Y2612271D02*
Y2569952D01*
X4442934Y2561488D01*
X4426006D01*
X4417542Y2569952D01*
Y2612271D01*
X4366759Y2603808D02*
X4375222Y2612271D01*
X4392150D01*
X4400614Y2603808D01*
Y2595344D01*
X4392150Y2586880D01*
X4375222D01*
X4366759Y2578416D01*
Y2569952D01*
X4375222Y2561488D01*
X4392150D01*
X4400614Y2569952D01*
X4349831Y2612271D02*
Y2561488D01*
X4324439D01*
X4315975Y2569952D01*
Y2578416D01*
X4324439Y2586880D01*
X4349831D01*
X4324439D01*
X4315975Y2595344D01*
Y2603808D01*
X4324439Y2612271D01*
X4349831D01*
X5478855Y3475392D02*
Y3433072D01*
X5470391Y3424608D01*
X5453464D01*
X5445000Y3433072D01*
Y3475392D01*
X5428072Y3424608D02*
X5411144D01*
X5419608D01*
Y3475392D01*
X5428072Y3466928D01*
X5169854Y2886187D02*
Y2936971D01*
X5144462D01*
X5135998Y2928507D01*
Y2911579D01*
X5144462Y2903115D01*
X5169854D01*
X5152926D02*
X5135998Y2886187D01*
X5119070D02*
X5102142D01*
X5110606D01*
Y2936971D01*
X5119070Y2928507D01*
X5076750D02*
X5068286Y2936971D01*
X5051358D01*
X5042895Y2928507D01*
Y2894651D01*
X5051358Y2886187D01*
X5068286D01*
X5076750Y2894651D01*
Y2928507D01*
X5533104Y3544475D02*
Y3595259D01*
X5507712D01*
X5499248Y3586795D01*
Y3569867D01*
X5507712Y3561403D01*
X5533104D01*
X5516176D02*
X5499248Y3544475D01*
X5482320Y3586795D02*
X5473856Y3595259D01*
X5456928D01*
X5448465Y3586795D01*
Y3578331D01*
X5456928Y3569867D01*
X5448465Y3561403D01*
Y3552939D01*
X5456928Y3544475D01*
X5473856D01*
X5482320Y3552939D01*
Y3561403D01*
X5473856Y3569867D01*
X5482320Y3578331D01*
Y3586795D01*
X5473856Y3569867D02*
X5456928D01*
X4823474Y3659895D02*
Y3710679D01*
X4798082D01*
X4789618Y3702215D01*
Y3685287D01*
X4798082Y3676823D01*
X4823474D01*
X4806546D02*
X4789618Y3659895D01*
X4772690Y3710679D02*
X4738835D01*
Y3702215D01*
X4772690Y3668359D01*
Y3659895D01*
X5573135Y2630846D02*
Y2681630D01*
X5547743D01*
X5539279Y2673166D01*
Y2656238D01*
X5547743Y2647774D01*
X5573135D01*
X5556207D02*
X5539279Y2630846D01*
X5488496Y2681630D02*
X5505424Y2673166D01*
X5522352Y2656238D01*
Y2639310D01*
X5513888Y2630846D01*
X5496960D01*
X5488496Y2639310D01*
Y2647774D01*
X5496960Y2656238D01*
X5522352D01*
X5854586Y3730170D02*
Y3780954D01*
X5829194D01*
X5820730Y3772490D01*
Y3755562D01*
X5829194Y3747098D01*
X5854586D01*
X5837658D02*
X5820730Y3730170D01*
X5803802D02*
X5786874D01*
X5795338D01*
Y3780954D01*
X5803802Y3772490D01*
X5267031Y2540126D02*
Y2590909D01*
X5241639D01*
X5233175Y2582445D01*
Y2565518D01*
X5241639Y2557054D01*
X5267031D01*
X5182391Y2582445D02*
X5190855Y2590909D01*
X5207783D01*
X5216247Y2582445D01*
Y2548590D01*
X5207783Y2540126D01*
X5190855D01*
X5182391Y2548590D01*
Y2565518D01*
X5199319D01*
X5165464Y2540126D02*
Y2590909D01*
X5148536Y2573981D01*
X5131608Y2590909D01*
Y2540126D01*
X5918644Y2569364D02*
X5927108Y2577828D01*
X5944036D01*
X5952500Y2569364D01*
Y2535509D01*
X5944036Y2527045D01*
X5927108D01*
X5918644Y2535509D01*
Y2552437D01*
X5935572D01*
X5901716Y2527045D02*
Y2577828D01*
X5867861Y2527045D01*
Y2577828D01*
X5850933D02*
Y2527045D01*
X5825541D01*
X5817077Y2535509D01*
Y2569364D01*
X5825541Y2577828D01*
X5850933D01*
X5183371Y3239018D02*
Y3188235D01*
X5157980D01*
X5149516Y3196699D01*
Y3230554D01*
X5157980Y3239018D01*
X5183371D01*
X5132588Y3230554D02*
X5124124Y3239018D01*
X5107196D01*
X5098732Y3230554D01*
Y3222090D01*
X5107196Y3213627D01*
X5098732Y3205163D01*
Y3196699D01*
X5107196Y3188235D01*
X5124124D01*
X5132588Y3196699D01*
Y3205163D01*
X5124124Y3213627D01*
X5132588Y3222090D01*
Y3230554D01*
X5124124Y3213627D02*
X5107196D01*
X5265829Y3108253D02*
Y3057469D01*
X5240437D01*
X5231974Y3065933D01*
Y3099789D01*
X5240437Y3108253D01*
X5265829D01*
X5215046D02*
X5181190D01*
Y3099789D01*
X5215046Y3065933D01*
Y3057469D01*
X5338023Y3323543D02*
Y3272759D01*
X5312631D01*
X5304167Y3281223D01*
Y3315079D01*
X5312631Y3323543D01*
X5338023D01*
X5253384D02*
X5270312Y3315079D01*
X5287240Y3298151D01*
Y3281223D01*
X5278776Y3272759D01*
X5261848D01*
X5253384Y3281223D01*
Y3289687D01*
X5261848Y3298151D01*
X5287240D01*
X5887725Y3455992D02*
Y3405208D01*
X5862333D01*
X5853869Y3413672D01*
Y3447528D01*
X5862333Y3455992D01*
X5887725D01*
X5836941Y3405208D02*
X5820014D01*
X5828477D01*
Y3455992D01*
X5836941Y3447528D01*
X5259038Y3674243D02*
X5267502Y3682707D01*
X5284430D01*
X5292894Y3674243D01*
Y3640387D01*
X5284430Y3631923D01*
X5267502D01*
X5259038Y3640387D01*
X5242110Y3682707D02*
X5208255D01*
Y3674243D01*
X5242110Y3640387D01*
Y3631923D01*
X5637534Y3460980D02*
X5645998Y3469443D01*
X5662926D01*
X5671390Y3460980D01*
Y3427124D01*
X5662926Y3418660D01*
X5645998D01*
X5637534Y3427124D01*
X5586751Y3469443D02*
X5603678Y3460980D01*
X5620606Y3444052D01*
Y3427124D01*
X5612142Y3418660D01*
X5595214D01*
X5586751Y3427124D01*
Y3435588D01*
X5595214Y3444052D01*
X5620606D01*
X5814597Y3075398D02*
X5806133Y3083862D01*
X5789206D01*
X5780742Y3075398D01*
Y3066934D01*
X5789206Y3058471D01*
X5797670D01*
X5789206D01*
X5780742Y3050007D01*
Y3041543D01*
X5789206Y3033079D01*
X5806133D01*
X5814597Y3041543D01*
X5763814Y3083862D02*
Y3050007D01*
X5746886Y3033079D01*
X5729958Y3050007D01*
Y3083862D01*
X5713030Y3075398D02*
X5704566Y3083862D01*
X5687639D01*
X5679175Y3075398D01*
Y3066934D01*
X5687639Y3058471D01*
X5696103D01*
X5687639D01*
X5679175Y3050007D01*
Y3041543D01*
X5687639Y3033079D01*
X5704566D01*
X5713030Y3041543D01*
X7665830Y3340133D02*
Y3306277D01*
X7640438D01*
Y3323205D01*
Y3306277D01*
X7615046D01*
Y3390916D02*
Y3357060D01*
X7648902Y3390916D01*
X7657366D01*
X7665830Y3382452D01*
Y3365524D01*
X7657366Y3357060D01*
X7964268Y3464181D02*
X8015052D01*
Y3489572D01*
X8006588Y3498036D01*
X7989660D01*
X7981196Y3489572D01*
Y3464181D01*
Y3481108D02*
X7964268Y3498036D01*
X8006588Y3514964D02*
X8015052Y3523428D01*
Y3540356D01*
X8006588Y3548820D01*
X7998124D01*
X7989660Y3540356D01*
Y3531892D01*
Y3540356D01*
X7981196Y3548820D01*
X7972732D01*
X7964268Y3540356D01*
Y3523428D01*
X7972732Y3514964D01*
X7805015Y2683259D02*
Y2734043D01*
X7779623D01*
X7771159Y2725579D01*
Y2708651D01*
X7779623Y2700187D01*
X7805015D01*
X7788087D02*
X7771159Y2683259D01*
X7720376D02*
X7754231D01*
X7720376Y2717115D01*
Y2725579D01*
X7728840Y2734043D01*
X7745767D01*
X7754231Y2725579D01*
X7301398Y2612271D02*
Y2569952D01*
X7292934Y2561488D01*
X7276006D01*
X7267542Y2569952D01*
Y2612271D01*
X7216758Y2603808D02*
X7225222Y2612271D01*
X7242150D01*
X7250614Y2603808D01*
Y2595344D01*
X7242150Y2586880D01*
X7225222D01*
X7216758Y2578416D01*
Y2569952D01*
X7225222Y2561488D01*
X7242150D01*
X7250614Y2569952D01*
X7199831Y2612271D02*
Y2561488D01*
X7174439D01*
X7165975Y2569952D01*
Y2578416D01*
X7174439Y2586880D01*
X7199831D01*
X7174439D01*
X7165975Y2595344D01*
Y2603808D01*
X7174439Y2612271D01*
X7199831D01*
X8328855Y3475392D02*
Y3433072D01*
X8320391Y3424608D01*
X8303463D01*
X8295000Y3433072D01*
Y3475392D01*
X8278072Y3424608D02*
X8261144D01*
X8269608D01*
Y3475392D01*
X8278072Y3466928D01*
X8019853Y2886187D02*
Y2936971D01*
X7994462D01*
X7985998Y2928507D01*
Y2911579D01*
X7994462Y2903115D01*
X8019853D01*
X8002926D02*
X7985998Y2886187D01*
X7969070D02*
X7952142D01*
X7960606D01*
Y2936971D01*
X7969070Y2928507D01*
X7926750D02*
X7918286Y2936971D01*
X7901358D01*
X7892895Y2928507D01*
Y2894651D01*
X7901358Y2886187D01*
X7918286D01*
X7926750Y2894651D01*
Y2928507D01*
X8383104Y3544475D02*
Y3595259D01*
X8357712D01*
X8349248Y3586795D01*
Y3569867D01*
X8357712Y3561403D01*
X8383104D01*
X8366176D02*
X8349248Y3544475D01*
X8332320Y3586795D02*
X8323856Y3595259D01*
X8306928D01*
X8298464Y3586795D01*
Y3578331D01*
X8306928Y3569867D01*
X8298464Y3561403D01*
Y3552939D01*
X8306928Y3544475D01*
X8323856D01*
X8332320Y3552939D01*
Y3561403D01*
X8323856Y3569867D01*
X8332320Y3578331D01*
Y3586795D01*
X8323856Y3569867D02*
X8306928D01*
X7673474Y3659895D02*
Y3710679D01*
X7648082D01*
X7639618Y3702215D01*
Y3685287D01*
X7648082Y3676823D01*
X7673474D01*
X7656546D02*
X7639618Y3659895D01*
X7622690Y3710679D02*
X7588835D01*
Y3702215D01*
X7622690Y3668359D01*
Y3659895D01*
X8423135Y2630846D02*
Y2681630D01*
X8397743D01*
X8389279Y2673166D01*
Y2656238D01*
X8397743Y2647774D01*
X8423135D01*
X8406207D02*
X8389279Y2630846D01*
X8338496Y2681630D02*
X8355424Y2673166D01*
X8372352Y2656238D01*
Y2639310D01*
X8363888Y2630846D01*
X8346960D01*
X8338496Y2639310D01*
Y2647774D01*
X8346960Y2656238D01*
X8372352D01*
X8704586Y3730170D02*
Y3780954D01*
X8679194D01*
X8670730Y3772490D01*
Y3755562D01*
X8679194Y3747098D01*
X8704586D01*
X8687658D02*
X8670730Y3730170D01*
X8653802D02*
X8636874D01*
X8645338D01*
Y3780954D01*
X8653802Y3772490D01*
X8117031Y2540126D02*
Y2590909D01*
X8091639D01*
X8083175Y2582445D01*
Y2565518D01*
X8091639Y2557054D01*
X8117031D01*
X8032391Y2582445D02*
X8040855Y2590909D01*
X8057783D01*
X8066247Y2582445D01*
Y2548590D01*
X8057783Y2540126D01*
X8040855D01*
X8032391Y2548590D01*
Y2565518D01*
X8049319D01*
X8015464Y2540126D02*
Y2590909D01*
X7998536Y2573981D01*
X7981608Y2590909D01*
Y2540126D01*
X8768644Y2569364D02*
X8777108Y2577828D01*
X8794035D01*
X8802500Y2569364D01*
Y2535509D01*
X8794035Y2527045D01*
X8777108D01*
X8768644Y2535509D01*
Y2552437D01*
X8785572D01*
X8751716Y2527045D02*
Y2577828D01*
X8717860Y2527045D01*
Y2577828D01*
X8700933D02*
Y2527045D01*
X8675541D01*
X8667077Y2535509D01*
Y2569364D01*
X8675541Y2577828D01*
X8700933D01*
X8033371Y3239018D02*
Y3188235D01*
X8007979D01*
X7999516Y3196699D01*
Y3230554D01*
X8007979Y3239018D01*
X8033371D01*
X7982588Y3230554D02*
X7974124Y3239018D01*
X7957196D01*
X7948732Y3230554D01*
Y3222090D01*
X7957196Y3213627D01*
X7948732Y3205163D01*
Y3196699D01*
X7957196Y3188235D01*
X7974124D01*
X7982588Y3196699D01*
Y3205163D01*
X7974124Y3213627D01*
X7982588Y3222090D01*
Y3230554D01*
X7974124Y3213627D02*
X7957196D01*
X8115829Y3108253D02*
Y3057469D01*
X8090437D01*
X8081973Y3065933D01*
Y3099789D01*
X8090437Y3108253D01*
X8115829D01*
X8065046D02*
X8031190D01*
Y3099789D01*
X8065046Y3065933D01*
Y3057469D01*
X8188023Y3323543D02*
Y3272759D01*
X8162631D01*
X8154167Y3281223D01*
Y3315079D01*
X8162631Y3323543D01*
X8188023D01*
X8103384D02*
X8120312Y3315079D01*
X8137240Y3298151D01*
Y3281223D01*
X8128775Y3272759D01*
X8111848D01*
X8103384Y3281223D01*
Y3289687D01*
X8111848Y3298151D01*
X8137240D01*
X8737725Y3455992D02*
Y3405208D01*
X8712333D01*
X8703869Y3413672D01*
Y3447528D01*
X8712333Y3455992D01*
X8737725D01*
X8686941Y3405208D02*
X8670013D01*
X8678477D01*
Y3455992D01*
X8686941Y3447528D01*
X8109038Y3674243D02*
X8117502Y3682707D01*
X8134430D01*
X8142894Y3674243D01*
Y3640387D01*
X8134430Y3631923D01*
X8117502D01*
X8109038Y3640387D01*
X8092110Y3682707D02*
X8058254D01*
Y3674243D01*
X8092110Y3640387D01*
Y3631923D01*
X8487534Y3460980D02*
X8495998Y3469443D01*
X8512926D01*
X8521390Y3460980D01*
Y3427124D01*
X8512926Y3418660D01*
X8495998D01*
X8487534Y3427124D01*
X8436750Y3469443D02*
X8453678Y3460980D01*
X8470606Y3444052D01*
Y3427124D01*
X8462142Y3418660D01*
X8445214D01*
X8436750Y3427124D01*
Y3435588D01*
X8445214Y3444052D01*
X8470606D01*
X8664597Y3075398D02*
X8656133Y3083862D01*
X8639205D01*
X8630742Y3075398D01*
Y3066934D01*
X8639205Y3058471D01*
X8647670D01*
X8639205D01*
X8630742Y3050007D01*
Y3041543D01*
X8639205Y3033079D01*
X8656133D01*
X8664597Y3041543D01*
X8613814Y3083862D02*
Y3050007D01*
X8596886Y3033079D01*
X8579958Y3050007D01*
Y3083862D01*
X8563030Y3075398D02*
X8554566Y3083862D01*
X8537638D01*
X8529175Y3075398D01*
Y3066934D01*
X8537638Y3058471D01*
X8546103D01*
X8537638D01*
X8529175Y3050007D01*
Y3041543D01*
X8537638Y3033079D01*
X8554566D01*
X8563030Y3041543D01*
X1965830Y5240133D02*
Y5206277D01*
X1940439D01*
Y5223205D01*
Y5206277D01*
X1915047D01*
Y5290916D02*
Y5257060D01*
X1948902Y5290916D01*
X1957366D01*
X1965830Y5282452D01*
Y5265524D01*
X1957366Y5257060D01*
X2264268Y5364181D02*
X2315052D01*
Y5389572D01*
X2306588Y5398036D01*
X2289660D01*
X2281196Y5389572D01*
Y5364181D01*
Y5381108D02*
X2264268Y5398036D01*
X2306588Y5414964D02*
X2315052Y5423428D01*
Y5440356D01*
X2306588Y5448820D01*
X2298124D01*
X2289660Y5440356D01*
Y5431892D01*
Y5440356D01*
X2281196Y5448820D01*
X2272732D01*
X2264268Y5440356D01*
Y5423428D01*
X2272732Y5414964D01*
X2105015Y4583259D02*
Y4634043D01*
X2079623D01*
X2071159Y4625579D01*
Y4608651D01*
X2079623Y4600187D01*
X2105015D01*
X2088087D02*
X2071159Y4583259D01*
X2020376D02*
X2054232D01*
X2020376Y4617115D01*
Y4625579D01*
X2028840Y4634043D01*
X2045768D01*
X2054232Y4625579D01*
X1601398Y4512271D02*
Y4469952D01*
X1592934Y4461488D01*
X1576006D01*
X1567542Y4469952D01*
Y4512271D01*
X1516759Y4503808D02*
X1525223Y4512271D01*
X1542150D01*
X1550614Y4503808D01*
Y4495344D01*
X1542150Y4486880D01*
X1525223D01*
X1516759Y4478416D01*
Y4469952D01*
X1525223Y4461488D01*
X1542150D01*
X1550614Y4469952D01*
X1499831Y4512271D02*
Y4461488D01*
X1474439D01*
X1465975Y4469952D01*
Y4478416D01*
X1474439Y4486880D01*
X1499831D01*
X1474439D01*
X1465975Y4495344D01*
Y4503808D01*
X1474439Y4512271D01*
X1499831D01*
X2628856Y5375392D02*
Y5333072D01*
X2620392Y5324608D01*
X2603464D01*
X2595000Y5333072D01*
Y5375392D01*
X2578072Y5324608D02*
X2561144D01*
X2569608D01*
Y5375392D01*
X2578072Y5366928D01*
X2319854Y4786187D02*
Y4836971D01*
X2294462D01*
X2285998Y4828507D01*
Y4811579D01*
X2294462Y4803115D01*
X2319854D01*
X2302926D02*
X2285998Y4786187D01*
X2269070D02*
X2252142D01*
X2260606D01*
Y4836971D01*
X2269070Y4828507D01*
X2226750D02*
X2218286Y4836971D01*
X2201359D01*
X2192895Y4828507D01*
Y4794651D01*
X2201359Y4786187D01*
X2218286D01*
X2226750Y4794651D01*
Y4828507D01*
X2683104Y5444475D02*
Y5495259D01*
X2657712D01*
X2649248Y5486795D01*
Y5469867D01*
X2657712Y5461403D01*
X2683104D01*
X2666176D02*
X2649248Y5444475D01*
X2632320Y5486795D02*
X2623856Y5495259D01*
X2606928D01*
X2598465Y5486795D01*
Y5478331D01*
X2606928Y5469867D01*
X2598465Y5461403D01*
Y5452939D01*
X2606928Y5444475D01*
X2623856D01*
X2632320Y5452939D01*
Y5461403D01*
X2623856Y5469867D01*
X2632320Y5478331D01*
Y5486795D01*
X2623856Y5469867D02*
X2606928D01*
X1973474Y5559895D02*
Y5610679D01*
X1948082D01*
X1939618Y5602215D01*
Y5585287D01*
X1948082Y5576823D01*
X1973474D01*
X1956546D02*
X1939618Y5559895D01*
X1922691Y5610679D02*
X1888835D01*
Y5602215D01*
X1922691Y5568359D01*
Y5559895D01*
X2723135Y4530846D02*
Y4581630D01*
X2697743D01*
X2689280Y4573166D01*
Y4556238D01*
X2697743Y4547774D01*
X2723135D01*
X2706207D02*
X2689280Y4530846D01*
X2638496Y4581630D02*
X2655424Y4573166D01*
X2672352Y4556238D01*
Y4539310D01*
X2663888Y4530846D01*
X2646960D01*
X2638496Y4539310D01*
Y4547774D01*
X2646960Y4556238D01*
X2672352D01*
X3004586Y5630170D02*
Y5680954D01*
X2979194D01*
X2970730Y5672490D01*
Y5655562D01*
X2979194Y5647098D01*
X3004586D01*
X2987658D02*
X2970730Y5630170D01*
X2953802D02*
X2936874D01*
X2945338D01*
Y5680954D01*
X2953802Y5672490D01*
X2417031Y4440126D02*
Y4490909D01*
X2391639D01*
X2383175Y4482445D01*
Y4465518D01*
X2391639Y4457054D01*
X2417031D01*
X2332392Y4482445D02*
X2340855Y4490909D01*
X2357783D01*
X2366247Y4482445D01*
Y4448590D01*
X2357783Y4440126D01*
X2340855D01*
X2332392Y4448590D01*
Y4465518D01*
X2349319D01*
X2315464Y4440126D02*
Y4490909D01*
X2298536Y4473981D01*
X2281608Y4490909D01*
Y4440126D01*
X3068644Y4469364D02*
X3077108Y4477828D01*
X3094036D01*
X3102500Y4469364D01*
Y4435509D01*
X3094036Y4427045D01*
X3077108D01*
X3068644Y4435509D01*
Y4452437D01*
X3085572D01*
X3051716Y4427045D02*
Y4477828D01*
X3017861Y4427045D01*
Y4477828D01*
X3000933D02*
Y4427045D01*
X2975541D01*
X2967077Y4435509D01*
Y4469364D01*
X2975541Y4477828D01*
X3000933D01*
X2333372Y5139018D02*
Y5088235D01*
X2307980D01*
X2299516Y5096699D01*
Y5130554D01*
X2307980Y5139018D01*
X2333372D01*
X2282588Y5130554D02*
X2274124Y5139018D01*
X2257196D01*
X2248732Y5130554D01*
Y5122090D01*
X2257196Y5113627D01*
X2248732Y5105163D01*
Y5096699D01*
X2257196Y5088235D01*
X2274124D01*
X2282588Y5096699D01*
Y5105163D01*
X2274124Y5113627D01*
X2282588Y5122090D01*
Y5130554D01*
X2274124Y5113627D02*
X2257196D01*
X2415829Y5008253D02*
Y4957469D01*
X2390437D01*
X2381974Y4965933D01*
Y4999789D01*
X2390437Y5008253D01*
X2415829D01*
X2365046D02*
X2331190D01*
Y4999789D01*
X2365046Y4965933D01*
Y4957469D01*
X2488023Y5223543D02*
Y5172759D01*
X2462631D01*
X2454168Y5181223D01*
Y5215079D01*
X2462631Y5223543D01*
X2488023D01*
X2403384D02*
X2420312Y5215079D01*
X2437240Y5198151D01*
Y5181223D01*
X2428776Y5172759D01*
X2411848D01*
X2403384Y5181223D01*
Y5189687D01*
X2411848Y5198151D01*
X2437240D01*
X3037725Y5355992D02*
Y5305208D01*
X3012333D01*
X3003869Y5313672D01*
Y5347528D01*
X3012333Y5355992D01*
X3037725D01*
X2986941Y5305208D02*
X2970014D01*
X2978477D01*
Y5355992D01*
X2986941Y5347528D01*
X2409038Y5574243D02*
X2417502Y5582707D01*
X2434430D01*
X2442894Y5574243D01*
Y5540387D01*
X2434430Y5531923D01*
X2417502D01*
X2409038Y5540387D01*
X2392110Y5582707D02*
X2358255D01*
Y5574243D01*
X2392110Y5540387D01*
Y5531923D01*
X2787534Y5360980D02*
X2795998Y5369443D01*
X2812926D01*
X2821390Y5360980D01*
Y5327124D01*
X2812926Y5318660D01*
X2795998D01*
X2787534Y5327124D01*
X2736751Y5369443D02*
X2753679Y5360980D01*
X2770606Y5344052D01*
Y5327124D01*
X2762142Y5318660D01*
X2745214D01*
X2736751Y5327124D01*
Y5335588D01*
X2745214Y5344052D01*
X2770606D01*
X2964598Y4975398D02*
X2956134Y4983862D01*
X2939206D01*
X2930742Y4975398D01*
Y4966934D01*
X2939206Y4958471D01*
X2947670D01*
X2939206D01*
X2930742Y4950007D01*
Y4941543D01*
X2939206Y4933079D01*
X2956134D01*
X2964598Y4941543D01*
X2913814Y4983862D02*
Y4950007D01*
X2896886Y4933079D01*
X2879958Y4950007D01*
Y4983862D01*
X2863031Y4975398D02*
X2854567Y4983862D01*
X2837639D01*
X2829175Y4975398D01*
Y4966934D01*
X2837639Y4958471D01*
X2846103D01*
X2837639D01*
X2829175Y4950007D01*
Y4941543D01*
X2837639Y4933079D01*
X2854567D01*
X2863031Y4941543D01*
X4815830Y5240133D02*
Y5206277D01*
X4790438D01*
Y5223205D01*
Y5206277D01*
X4765047D01*
Y5290916D02*
Y5257060D01*
X4798902Y5290916D01*
X4807366D01*
X4815830Y5282452D01*
Y5265524D01*
X4807366Y5257060D01*
X5114268Y5364181D02*
X5165052D01*
Y5389572D01*
X5156588Y5398036D01*
X5139660D01*
X5131196Y5389572D01*
Y5364181D01*
Y5381108D02*
X5114268Y5398036D01*
X5156588Y5414964D02*
X5165052Y5423428D01*
Y5440356D01*
X5156588Y5448820D01*
X5148124D01*
X5139660Y5440356D01*
Y5431892D01*
Y5440356D01*
X5131196Y5448820D01*
X5122732D01*
X5114268Y5440356D01*
Y5423428D01*
X5122732Y5414964D01*
X4955015Y4583259D02*
Y4634043D01*
X4929623D01*
X4921159Y4625579D01*
Y4608651D01*
X4929623Y4600187D01*
X4955015D01*
X4938087D02*
X4921159Y4583259D01*
X4870376D02*
X4904231D01*
X4870376Y4617115D01*
Y4625579D01*
X4878840Y4634043D01*
X4895767D01*
X4904231Y4625579D01*
X4451398Y4512271D02*
Y4469952D01*
X4442934Y4461488D01*
X4426006D01*
X4417542Y4469952D01*
Y4512271D01*
X4366759Y4503808D02*
X4375222Y4512271D01*
X4392150D01*
X4400614Y4503808D01*
Y4495344D01*
X4392150Y4486880D01*
X4375222D01*
X4366759Y4478416D01*
Y4469952D01*
X4375222Y4461488D01*
X4392150D01*
X4400614Y4469952D01*
X4349831Y4512271D02*
Y4461488D01*
X4324439D01*
X4315975Y4469952D01*
Y4478416D01*
X4324439Y4486880D01*
X4349831D01*
X4324439D01*
X4315975Y4495344D01*
Y4503808D01*
X4324439Y4512271D01*
X4349831D01*
X5478855Y5375392D02*
Y5333072D01*
X5470391Y5324608D01*
X5453464D01*
X5445000Y5333072D01*
Y5375392D01*
X5428072Y5324608D02*
X5411144D01*
X5419608D01*
Y5375392D01*
X5428072Y5366928D01*
X5169854Y4786187D02*
Y4836971D01*
X5144462D01*
X5135998Y4828507D01*
Y4811579D01*
X5144462Y4803115D01*
X5169854D01*
X5152926D02*
X5135998Y4786187D01*
X5119070D02*
X5102142D01*
X5110606D01*
Y4836971D01*
X5119070Y4828507D01*
X5076750D02*
X5068286Y4836971D01*
X5051358D01*
X5042895Y4828507D01*
Y4794651D01*
X5051358Y4786187D01*
X5068286D01*
X5076750Y4794651D01*
Y4828507D01*
X5533104Y5444475D02*
Y5495259D01*
X5507712D01*
X5499248Y5486795D01*
Y5469867D01*
X5507712Y5461403D01*
X5533104D01*
X5516176D02*
X5499248Y5444475D01*
X5482320Y5486795D02*
X5473856Y5495259D01*
X5456928D01*
X5448465Y5486795D01*
Y5478331D01*
X5456928Y5469867D01*
X5448465Y5461403D01*
Y5452939D01*
X5456928Y5444475D01*
X5473856D01*
X5482320Y5452939D01*
Y5461403D01*
X5473856Y5469867D01*
X5482320Y5478331D01*
Y5486795D01*
X5473856Y5469867D02*
X5456928D01*
X4823474Y5559895D02*
Y5610679D01*
X4798082D01*
X4789618Y5602215D01*
Y5585287D01*
X4798082Y5576823D01*
X4823474D01*
X4806546D02*
X4789618Y5559895D01*
X4772690Y5610679D02*
X4738835D01*
Y5602215D01*
X4772690Y5568359D01*
Y5559895D01*
X5573135Y4530846D02*
Y4581630D01*
X5547743D01*
X5539279Y4573166D01*
Y4556238D01*
X5547743Y4547774D01*
X5573135D01*
X5556207D02*
X5539279Y4530846D01*
X5488496Y4581630D02*
X5505424Y4573166D01*
X5522352Y4556238D01*
Y4539310D01*
X5513888Y4530846D01*
X5496960D01*
X5488496Y4539310D01*
Y4547774D01*
X5496960Y4556238D01*
X5522352D01*
X5854586Y5630170D02*
Y5680954D01*
X5829194D01*
X5820730Y5672490D01*
Y5655562D01*
X5829194Y5647098D01*
X5854586D01*
X5837658D02*
X5820730Y5630170D01*
X5803802D02*
X5786874D01*
X5795338D01*
Y5680954D01*
X5803802Y5672490D01*
X5267031Y4440126D02*
Y4490909D01*
X5241639D01*
X5233175Y4482445D01*
Y4465518D01*
X5241639Y4457054D01*
X5267031D01*
X5182391Y4482445D02*
X5190855Y4490909D01*
X5207783D01*
X5216247Y4482445D01*
Y4448590D01*
X5207783Y4440126D01*
X5190855D01*
X5182391Y4448590D01*
Y4465518D01*
X5199319D01*
X5165464Y4440126D02*
Y4490909D01*
X5148536Y4473981D01*
X5131608Y4490909D01*
Y4440126D01*
X5918644Y4469364D02*
X5927108Y4477828D01*
X5944036D01*
X5952500Y4469364D01*
Y4435509D01*
X5944036Y4427045D01*
X5927108D01*
X5918644Y4435509D01*
Y4452437D01*
X5935572D01*
X5901716Y4427045D02*
Y4477828D01*
X5867861Y4427045D01*
Y4477828D01*
X5850933D02*
Y4427045D01*
X5825541D01*
X5817077Y4435509D01*
Y4469364D01*
X5825541Y4477828D01*
X5850933D01*
X5183371Y5139018D02*
Y5088235D01*
X5157980D01*
X5149516Y5096699D01*
Y5130554D01*
X5157980Y5139018D01*
X5183371D01*
X5132588Y5130554D02*
X5124124Y5139018D01*
X5107196D01*
X5098732Y5130554D01*
Y5122090D01*
X5107196Y5113627D01*
X5098732Y5105163D01*
Y5096699D01*
X5107196Y5088235D01*
X5124124D01*
X5132588Y5096699D01*
Y5105163D01*
X5124124Y5113627D01*
X5132588Y5122090D01*
Y5130554D01*
X5124124Y5113627D02*
X5107196D01*
X5265829Y5008253D02*
Y4957469D01*
X5240437D01*
X5231974Y4965933D01*
Y4999789D01*
X5240437Y5008253D01*
X5265829D01*
X5215046D02*
X5181190D01*
Y4999789D01*
X5215046Y4965933D01*
Y4957469D01*
X5338023Y5223543D02*
Y5172759D01*
X5312631D01*
X5304167Y5181223D01*
Y5215079D01*
X5312631Y5223543D01*
X5338023D01*
X5253384D02*
X5270312Y5215079D01*
X5287240Y5198151D01*
Y5181223D01*
X5278776Y5172759D01*
X5261848D01*
X5253384Y5181223D01*
Y5189687D01*
X5261848Y5198151D01*
X5287240D01*
X5887725Y5355992D02*
Y5305208D01*
X5862333D01*
X5853869Y5313672D01*
Y5347528D01*
X5862333Y5355992D01*
X5887725D01*
X5836941Y5305208D02*
X5820014D01*
X5828477D01*
Y5355992D01*
X5836941Y5347528D01*
X5259038Y5574243D02*
X5267502Y5582707D01*
X5284430D01*
X5292894Y5574243D01*
Y5540387D01*
X5284430Y5531923D01*
X5267502D01*
X5259038Y5540387D01*
X5242110Y5582707D02*
X5208255D01*
Y5574243D01*
X5242110Y5540387D01*
Y5531923D01*
X5637534Y5360980D02*
X5645998Y5369443D01*
X5662926D01*
X5671390Y5360980D01*
Y5327124D01*
X5662926Y5318660D01*
X5645998D01*
X5637534Y5327124D01*
X5586751Y5369443D02*
X5603678Y5360980D01*
X5620606Y5344052D01*
Y5327124D01*
X5612142Y5318660D01*
X5595214D01*
X5586751Y5327124D01*
Y5335588D01*
X5595214Y5344052D01*
X5620606D01*
X5814597Y4975398D02*
X5806133Y4983862D01*
X5789206D01*
X5780742Y4975398D01*
Y4966934D01*
X5789206Y4958471D01*
X5797670D01*
X5789206D01*
X5780742Y4950007D01*
Y4941543D01*
X5789206Y4933079D01*
X5806133D01*
X5814597Y4941543D01*
X5763814Y4983862D02*
Y4950007D01*
X5746886Y4933079D01*
X5729958Y4950007D01*
Y4983862D01*
X5713030Y4975398D02*
X5704566Y4983862D01*
X5687639D01*
X5679175Y4975398D01*
Y4966934D01*
X5687639Y4958471D01*
X5696103D01*
X5687639D01*
X5679175Y4950007D01*
Y4941543D01*
X5687639Y4933079D01*
X5704566D01*
X5713030Y4941543D01*
X7665830Y5240133D02*
Y5206277D01*
X7640438D01*
Y5223205D01*
Y5206277D01*
X7615046D01*
Y5290916D02*
Y5257060D01*
X7648902Y5290916D01*
X7657366D01*
X7665830Y5282452D01*
Y5265524D01*
X7657366Y5257060D01*
X7964268Y5364181D02*
X8015052D01*
Y5389572D01*
X8006588Y5398036D01*
X7989660D01*
X7981196Y5389572D01*
Y5364181D01*
Y5381108D02*
X7964268Y5398036D01*
X8006588Y5414964D02*
X8015052Y5423428D01*
Y5440356D01*
X8006588Y5448820D01*
X7998124D01*
X7989660Y5440356D01*
Y5431892D01*
Y5440356D01*
X7981196Y5448820D01*
X7972732D01*
X7964268Y5440356D01*
Y5423428D01*
X7972732Y5414964D01*
X7805015Y4583259D02*
Y4634043D01*
X7779623D01*
X7771159Y4625579D01*
Y4608651D01*
X7779623Y4600187D01*
X7805015D01*
X7788087D02*
X7771159Y4583259D01*
X7720376D02*
X7754231D01*
X7720376Y4617115D01*
Y4625579D01*
X7728840Y4634043D01*
X7745767D01*
X7754231Y4625579D01*
X7301398Y4512271D02*
Y4469952D01*
X7292934Y4461488D01*
X7276006D01*
X7267542Y4469952D01*
Y4512271D01*
X7216758Y4503808D02*
X7225222Y4512271D01*
X7242150D01*
X7250614Y4503808D01*
Y4495344D01*
X7242150Y4486880D01*
X7225222D01*
X7216758Y4478416D01*
Y4469952D01*
X7225222Y4461488D01*
X7242150D01*
X7250614Y4469952D01*
X7199831Y4512271D02*
Y4461488D01*
X7174439D01*
X7165975Y4469952D01*
Y4478416D01*
X7174439Y4486880D01*
X7199831D01*
X7174439D01*
X7165975Y4495344D01*
Y4503808D01*
X7174439Y4512271D01*
X7199831D01*
X8328855Y5375392D02*
Y5333072D01*
X8320391Y5324608D01*
X8303463D01*
X8295000Y5333072D01*
Y5375392D01*
X8278072Y5324608D02*
X8261144D01*
X8269608D01*
Y5375392D01*
X8278072Y5366928D01*
X8019853Y4786187D02*
Y4836971D01*
X7994462D01*
X7985998Y4828507D01*
Y4811579D01*
X7994462Y4803115D01*
X8019853D01*
X8002926D02*
X7985998Y4786187D01*
X7969070D02*
X7952142D01*
X7960606D01*
Y4836971D01*
X7969070Y4828507D01*
X7926750D02*
X7918286Y4836971D01*
X7901358D01*
X7892895Y4828507D01*
Y4794651D01*
X7901358Y4786187D01*
X7918286D01*
X7926750Y4794651D01*
Y4828507D01*
X8383104Y5444475D02*
Y5495259D01*
X8357712D01*
X8349248Y5486795D01*
Y5469867D01*
X8357712Y5461403D01*
X8383104D01*
X8366176D02*
X8349248Y5444475D01*
X8332320Y5486795D02*
X8323856Y5495259D01*
X8306928D01*
X8298464Y5486795D01*
Y5478331D01*
X8306928Y5469867D01*
X8298464Y5461403D01*
Y5452939D01*
X8306928Y5444475D01*
X8323856D01*
X8332320Y5452939D01*
Y5461403D01*
X8323856Y5469867D01*
X8332320Y5478331D01*
Y5486795D01*
X8323856Y5469867D02*
X8306928D01*
X7673474Y5559895D02*
Y5610679D01*
X7648082D01*
X7639618Y5602215D01*
Y5585287D01*
X7648082Y5576823D01*
X7673474D01*
X7656546D02*
X7639618Y5559895D01*
X7622690Y5610679D02*
X7588835D01*
Y5602215D01*
X7622690Y5568359D01*
Y5559895D01*
X8423135Y4530846D02*
Y4581630D01*
X8397743D01*
X8389279Y4573166D01*
Y4556238D01*
X8397743Y4547774D01*
X8423135D01*
X8406207D02*
X8389279Y4530846D01*
X8338496Y4581630D02*
X8355424Y4573166D01*
X8372352Y4556238D01*
Y4539310D01*
X8363888Y4530846D01*
X8346960D01*
X8338496Y4539310D01*
Y4547774D01*
X8346960Y4556238D01*
X8372352D01*
X8704586Y5630170D02*
Y5680954D01*
X8679194D01*
X8670730Y5672490D01*
Y5655562D01*
X8679194Y5647098D01*
X8704586D01*
X8687658D02*
X8670730Y5630170D01*
X8653802D02*
X8636874D01*
X8645338D01*
Y5680954D01*
X8653802Y5672490D01*
X8117031Y4440126D02*
Y4490909D01*
X8091639D01*
X8083175Y4482445D01*
Y4465518D01*
X8091639Y4457054D01*
X8117031D01*
X8032391Y4482445D02*
X8040855Y4490909D01*
X8057783D01*
X8066247Y4482445D01*
Y4448590D01*
X8057783Y4440126D01*
X8040855D01*
X8032391Y4448590D01*
Y4465518D01*
X8049319D01*
X8015464Y4440126D02*
Y4490909D01*
X7998536Y4473981D01*
X7981608Y4490909D01*
Y4440126D01*
X8768644Y4469364D02*
X8777108Y4477828D01*
X8794035D01*
X8802500Y4469364D01*
Y4435509D01*
X8794035Y4427045D01*
X8777108D01*
X8768644Y4435509D01*
Y4452437D01*
X8785572D01*
X8751716Y4427045D02*
Y4477828D01*
X8717860Y4427045D01*
Y4477828D01*
X8700933D02*
Y4427045D01*
X8675541D01*
X8667077Y4435509D01*
Y4469364D01*
X8675541Y4477828D01*
X8700933D01*
X8033371Y5139018D02*
Y5088235D01*
X8007979D01*
X7999516Y5096699D01*
Y5130554D01*
X8007979Y5139018D01*
X8033371D01*
X7982588Y5130554D02*
X7974124Y5139018D01*
X7957196D01*
X7948732Y5130554D01*
Y5122090D01*
X7957196Y5113627D01*
X7948732Y5105163D01*
Y5096699D01*
X7957196Y5088235D01*
X7974124D01*
X7982588Y5096699D01*
Y5105163D01*
X7974124Y5113627D01*
X7982588Y5122090D01*
Y5130554D01*
X7974124Y5113627D02*
X7957196D01*
X8115829Y5008253D02*
Y4957469D01*
X8090437D01*
X8081973Y4965933D01*
Y4999789D01*
X8090437Y5008253D01*
X8115829D01*
X8065046D02*
X8031190D01*
Y4999789D01*
X8065046Y4965933D01*
Y4957469D01*
X8188023Y5223543D02*
Y5172759D01*
X8162631D01*
X8154167Y5181223D01*
Y5215079D01*
X8162631Y5223543D01*
X8188023D01*
X8103384D02*
X8120312Y5215079D01*
X8137240Y5198151D01*
Y5181223D01*
X8128775Y5172759D01*
X8111848D01*
X8103384Y5181223D01*
Y5189687D01*
X8111848Y5198151D01*
X8137240D01*
X8737725Y5355992D02*
Y5305208D01*
X8712333D01*
X8703869Y5313672D01*
Y5347528D01*
X8712333Y5355992D01*
X8737725D01*
X8686941Y5305208D02*
X8670013D01*
X8678477D01*
Y5355992D01*
X8686941Y5347528D01*
X8109038Y5574243D02*
X8117502Y5582707D01*
X8134430D01*
X8142894Y5574243D01*
Y5540387D01*
X8134430Y5531923D01*
X8117502D01*
X8109038Y5540387D01*
X8092110Y5582707D02*
X8058254D01*
Y5574243D01*
X8092110Y5540387D01*
Y5531923D01*
X8487534Y5360980D02*
X8495998Y5369443D01*
X8512926D01*
X8521390Y5360980D01*
Y5327124D01*
X8512926Y5318660D01*
X8495998D01*
X8487534Y5327124D01*
X8436750Y5369443D02*
X8453678Y5360980D01*
X8470606Y5344052D01*
Y5327124D01*
X8462142Y5318660D01*
X8445214D01*
X8436750Y5327124D01*
Y5335588D01*
X8445214Y5344052D01*
X8470606D01*
X8664597Y4975398D02*
X8656133Y4983862D01*
X8639205D01*
X8630742Y4975398D01*
Y4966934D01*
X8639205Y4958471D01*
X8647670D01*
X8639205D01*
X8630742Y4950007D01*
Y4941543D01*
X8639205Y4933079D01*
X8656133D01*
X8664597Y4941543D01*
X8613814Y4983862D02*
Y4950007D01*
X8596886Y4933079D01*
X8579958Y4950007D01*
Y4983862D01*
X8563030Y4975398D02*
X8554566Y4983862D01*
X8537638D01*
X8529175Y4975398D01*
Y4966934D01*
X8537638Y4958471D01*
X8546103D01*
X8537638D01*
X8529175Y4950007D01*
Y4941543D01*
X8537638Y4933079D01*
X8554566D01*
X8563030Y4941543D01*
X1965830Y7140133D02*
Y7106277D01*
X1940439D01*
Y7123205D01*
Y7106277D01*
X1915047D01*
Y7190916D02*
Y7157060D01*
X1948902Y7190916D01*
X1957366D01*
X1965830Y7182452D01*
Y7165524D01*
X1957366Y7157060D01*
X2264268Y7264181D02*
X2315052D01*
Y7289572D01*
X2306588Y7298036D01*
X2289660D01*
X2281196Y7289572D01*
Y7264181D01*
Y7281108D02*
X2264268Y7298036D01*
X2306588Y7314964D02*
X2315052Y7323428D01*
Y7340356D01*
X2306588Y7348820D01*
X2298124D01*
X2289660Y7340356D01*
Y7331892D01*
Y7340356D01*
X2281196Y7348820D01*
X2272732D01*
X2264268Y7340356D01*
Y7323428D01*
X2272732Y7314964D01*
X2105015Y6483259D02*
Y6534043D01*
X2079623D01*
X2071159Y6525579D01*
Y6508651D01*
X2079623Y6500187D01*
X2105015D01*
X2088087D02*
X2071159Y6483259D01*
X2020376D02*
X2054232D01*
X2020376Y6517115D01*
Y6525579D01*
X2028840Y6534043D01*
X2045768D01*
X2054232Y6525579D01*
X1601398Y6412271D02*
Y6369952D01*
X1592934Y6361488D01*
X1576006D01*
X1567542Y6369952D01*
Y6412271D01*
X1516759Y6403808D02*
X1525223Y6412271D01*
X1542150D01*
X1550614Y6403808D01*
Y6395344D01*
X1542150Y6386880D01*
X1525223D01*
X1516759Y6378416D01*
Y6369952D01*
X1525223Y6361488D01*
X1542150D01*
X1550614Y6369952D01*
X1499831Y6412271D02*
Y6361488D01*
X1474439D01*
X1465975Y6369952D01*
Y6378416D01*
X1474439Y6386880D01*
X1499831D01*
X1474439D01*
X1465975Y6395344D01*
Y6403808D01*
X1474439Y6412271D01*
X1499831D01*
X2628856Y7275392D02*
Y7233072D01*
X2620392Y7224608D01*
X2603464D01*
X2595000Y7233072D01*
Y7275392D01*
X2578072Y7224608D02*
X2561144D01*
X2569608D01*
Y7275392D01*
X2578072Y7266928D01*
X2319854Y6686187D02*
Y6736971D01*
X2294462D01*
X2285998Y6728507D01*
Y6711579D01*
X2294462Y6703115D01*
X2319854D01*
X2302926D02*
X2285998Y6686187D01*
X2269070D02*
X2252142D01*
X2260606D01*
Y6736971D01*
X2269070Y6728507D01*
X2226750D02*
X2218286Y6736971D01*
X2201359D01*
X2192895Y6728507D01*
Y6694651D01*
X2201359Y6686187D01*
X2218286D01*
X2226750Y6694651D01*
Y6728507D01*
X2683104Y7344475D02*
Y7395259D01*
X2657712D01*
X2649248Y7386795D01*
Y7369867D01*
X2657712Y7361403D01*
X2683104D01*
X2666176D02*
X2649248Y7344475D01*
X2632320Y7386795D02*
X2623856Y7395259D01*
X2606928D01*
X2598465Y7386795D01*
Y7378331D01*
X2606928Y7369867D01*
X2598465Y7361403D01*
Y7352939D01*
X2606928Y7344475D01*
X2623856D01*
X2632320Y7352939D01*
Y7361403D01*
X2623856Y7369867D01*
X2632320Y7378331D01*
Y7386795D01*
X2623856Y7369867D02*
X2606928D01*
X1973474Y7459895D02*
Y7510679D01*
X1948082D01*
X1939618Y7502215D01*
Y7485287D01*
X1948082Y7476823D01*
X1973474D01*
X1956546D02*
X1939618Y7459895D01*
X1922691Y7510679D02*
X1888835D01*
Y7502215D01*
X1922691Y7468359D01*
Y7459895D01*
X2723135Y6430846D02*
Y6481630D01*
X2697743D01*
X2689280Y6473166D01*
Y6456238D01*
X2697743Y6447774D01*
X2723135D01*
X2706207D02*
X2689280Y6430846D01*
X2638496Y6481630D02*
X2655424Y6473166D01*
X2672352Y6456238D01*
Y6439310D01*
X2663888Y6430846D01*
X2646960D01*
X2638496Y6439310D01*
Y6447774D01*
X2646960Y6456238D01*
X2672352D01*
X3004586Y7530170D02*
Y7580954D01*
X2979194D01*
X2970730Y7572490D01*
Y7555562D01*
X2979194Y7547098D01*
X3004586D01*
X2987658D02*
X2970730Y7530170D01*
X2953802D02*
X2936874D01*
X2945338D01*
Y7580954D01*
X2953802Y7572490D01*
X2417031Y6340126D02*
Y6390909D01*
X2391639D01*
X2383175Y6382445D01*
Y6365518D01*
X2391639Y6357054D01*
X2417031D01*
X2332392Y6382445D02*
X2340855Y6390909D01*
X2357783D01*
X2366247Y6382445D01*
Y6348590D01*
X2357783Y6340126D01*
X2340855D01*
X2332392Y6348590D01*
Y6365518D01*
X2349319D01*
X2315464Y6340126D02*
Y6390909D01*
X2298536Y6373981D01*
X2281608Y6390909D01*
Y6340126D01*
X3068644Y6369364D02*
X3077108Y6377828D01*
X3094036D01*
X3102500Y6369364D01*
Y6335509D01*
X3094036Y6327045D01*
X3077108D01*
X3068644Y6335509D01*
Y6352437D01*
X3085572D01*
X3051716Y6327045D02*
Y6377828D01*
X3017861Y6327045D01*
Y6377828D01*
X3000933D02*
Y6327045D01*
X2975541D01*
X2967077Y6335509D01*
Y6369364D01*
X2975541Y6377828D01*
X3000933D01*
X2333372Y7039018D02*
Y6988235D01*
X2307980D01*
X2299516Y6996699D01*
Y7030554D01*
X2307980Y7039018D01*
X2333372D01*
X2282588Y7030554D02*
X2274124Y7039018D01*
X2257196D01*
X2248732Y7030554D01*
Y7022090D01*
X2257196Y7013627D01*
X2248732Y7005163D01*
Y6996699D01*
X2257196Y6988235D01*
X2274124D01*
X2282588Y6996699D01*
Y7005163D01*
X2274124Y7013627D01*
X2282588Y7022090D01*
Y7030554D01*
X2274124Y7013627D02*
X2257196D01*
X2415829Y6908253D02*
Y6857469D01*
X2390437D01*
X2381974Y6865933D01*
Y6899789D01*
X2390437Y6908253D01*
X2415829D01*
X2365046D02*
X2331190D01*
Y6899789D01*
X2365046Y6865933D01*
Y6857469D01*
X2488023Y7123543D02*
Y7072759D01*
X2462631D01*
X2454168Y7081223D01*
Y7115079D01*
X2462631Y7123543D01*
X2488023D01*
X2403384D02*
X2420312Y7115079D01*
X2437240Y7098151D01*
Y7081223D01*
X2428776Y7072759D01*
X2411848D01*
X2403384Y7081223D01*
Y7089687D01*
X2411848Y7098151D01*
X2437240D01*
X3037725Y7255992D02*
Y7205208D01*
X3012333D01*
X3003869Y7213672D01*
Y7247528D01*
X3012333Y7255992D01*
X3037725D01*
X2986941Y7205208D02*
X2970014D01*
X2978477D01*
Y7255992D01*
X2986941Y7247528D01*
X2409038Y7474243D02*
X2417502Y7482707D01*
X2434430D01*
X2442894Y7474243D01*
Y7440387D01*
X2434430Y7431923D01*
X2417502D01*
X2409038Y7440387D01*
X2392110Y7482707D02*
X2358255D01*
Y7474243D01*
X2392110Y7440387D01*
Y7431923D01*
X2787534Y7260980D02*
X2795998Y7269443D01*
X2812926D01*
X2821390Y7260980D01*
Y7227124D01*
X2812926Y7218660D01*
X2795998D01*
X2787534Y7227124D01*
X2736751Y7269443D02*
X2753679Y7260980D01*
X2770606Y7244052D01*
Y7227124D01*
X2762142Y7218660D01*
X2745214D01*
X2736751Y7227124D01*
Y7235588D01*
X2745214Y7244052D01*
X2770606D01*
X2964598Y6875398D02*
X2956134Y6883862D01*
X2939206D01*
X2930742Y6875398D01*
Y6866934D01*
X2939206Y6858471D01*
X2947670D01*
X2939206D01*
X2930742Y6850007D01*
Y6841543D01*
X2939206Y6833079D01*
X2956134D01*
X2964598Y6841543D01*
X2913814Y6883862D02*
Y6850007D01*
X2896886Y6833079D01*
X2879958Y6850007D01*
Y6883862D01*
X2863031Y6875398D02*
X2854567Y6883862D01*
X2837639D01*
X2829175Y6875398D01*
Y6866934D01*
X2837639Y6858471D01*
X2846103D01*
X2837639D01*
X2829175Y6850007D01*
Y6841543D01*
X2837639Y6833079D01*
X2854567D01*
X2863031Y6841543D01*
X4815830Y7140133D02*
Y7106277D01*
X4790438D01*
Y7123205D01*
Y7106277D01*
X4765047D01*
Y7190916D02*
Y7157060D01*
X4798902Y7190916D01*
X4807366D01*
X4815830Y7182452D01*
Y7165524D01*
X4807366Y7157060D01*
X5114268Y7264181D02*
X5165052D01*
Y7289572D01*
X5156588Y7298036D01*
X5139660D01*
X5131196Y7289572D01*
Y7264181D01*
Y7281108D02*
X5114268Y7298036D01*
X5156588Y7314964D02*
X5165052Y7323428D01*
Y7340356D01*
X5156588Y7348820D01*
X5148124D01*
X5139660Y7340356D01*
Y7331892D01*
Y7340356D01*
X5131196Y7348820D01*
X5122732D01*
X5114268Y7340356D01*
Y7323428D01*
X5122732Y7314964D01*
X4955015Y6483259D02*
Y6534043D01*
X4929623D01*
X4921159Y6525579D01*
Y6508651D01*
X4929623Y6500187D01*
X4955015D01*
X4938087D02*
X4921159Y6483259D01*
X4870376D02*
X4904231D01*
X4870376Y6517115D01*
Y6525579D01*
X4878840Y6534043D01*
X4895767D01*
X4904231Y6525579D01*
X4451398Y6412271D02*
Y6369952D01*
X4442934Y6361488D01*
X4426006D01*
X4417542Y6369952D01*
Y6412271D01*
X4366759Y6403808D02*
X4375222Y6412271D01*
X4392150D01*
X4400614Y6403808D01*
Y6395344D01*
X4392150Y6386880D01*
X4375222D01*
X4366759Y6378416D01*
Y6369952D01*
X4375222Y6361488D01*
X4392150D01*
X4400614Y6369952D01*
X4349831Y6412271D02*
Y6361488D01*
X4324439D01*
X4315975Y6369952D01*
Y6378416D01*
X4324439Y6386880D01*
X4349831D01*
X4324439D01*
X4315975Y6395344D01*
Y6403808D01*
X4324439Y6412271D01*
X4349831D01*
X5478855Y7275392D02*
Y7233072D01*
X5470391Y7224608D01*
X5453464D01*
X5445000Y7233072D01*
Y7275392D01*
X5428072Y7224608D02*
X5411144D01*
X5419608D01*
Y7275392D01*
X5428072Y7266928D01*
X5169854Y6686187D02*
Y6736971D01*
X5144462D01*
X5135998Y6728507D01*
Y6711579D01*
X5144462Y6703115D01*
X5169854D01*
X5152926D02*
X5135998Y6686187D01*
X5119070D02*
X5102142D01*
X5110606D01*
Y6736971D01*
X5119070Y6728507D01*
X5076750D02*
X5068286Y6736971D01*
X5051358D01*
X5042895Y6728507D01*
Y6694651D01*
X5051358Y6686187D01*
X5068286D01*
X5076750Y6694651D01*
Y6728507D01*
X5533104Y7344475D02*
Y7395259D01*
X5507712D01*
X5499248Y7386795D01*
Y7369867D01*
X5507712Y7361403D01*
X5533104D01*
X5516176D02*
X5499248Y7344475D01*
X5482320Y7386795D02*
X5473856Y7395259D01*
X5456928D01*
X5448465Y7386795D01*
Y7378331D01*
X5456928Y7369867D01*
X5448465Y7361403D01*
Y7352939D01*
X5456928Y7344475D01*
X5473856D01*
X5482320Y7352939D01*
Y7361403D01*
X5473856Y7369867D01*
X5482320Y7378331D01*
Y7386795D01*
X5473856Y7369867D02*
X5456928D01*
X4823474Y7459895D02*
Y7510679D01*
X4798082D01*
X4789618Y7502215D01*
Y7485287D01*
X4798082Y7476823D01*
X4823474D01*
X4806546D02*
X4789618Y7459895D01*
X4772690Y7510679D02*
X4738835D01*
Y7502215D01*
X4772690Y7468359D01*
Y7459895D01*
X5573135Y6430846D02*
Y6481630D01*
X5547743D01*
X5539279Y6473166D01*
Y6456238D01*
X5547743Y6447774D01*
X5573135D01*
X5556207D02*
X5539279Y6430846D01*
X5488496Y6481630D02*
X5505424Y6473166D01*
X5522352Y6456238D01*
Y6439310D01*
X5513888Y6430846D01*
X5496960D01*
X5488496Y6439310D01*
Y6447774D01*
X5496960Y6456238D01*
X5522352D01*
X5854586Y7530170D02*
Y7580954D01*
X5829194D01*
X5820730Y7572490D01*
Y7555562D01*
X5829194Y7547098D01*
X5854586D01*
X5837658D02*
X5820730Y7530170D01*
X5803802D02*
X5786874D01*
X5795338D01*
Y7580954D01*
X5803802Y7572490D01*
X5267031Y6340126D02*
Y6390909D01*
X5241639D01*
X5233175Y6382445D01*
Y6365518D01*
X5241639Y6357054D01*
X5267031D01*
X5182391Y6382445D02*
X5190855Y6390909D01*
X5207783D01*
X5216247Y6382445D01*
Y6348590D01*
X5207783Y6340126D01*
X5190855D01*
X5182391Y6348590D01*
Y6365518D01*
X5199319D01*
X5165464Y6340126D02*
Y6390909D01*
X5148536Y6373981D01*
X5131608Y6390909D01*
Y6340126D01*
X5918644Y6369364D02*
X5927108Y6377828D01*
X5944036D01*
X5952500Y6369364D01*
Y6335509D01*
X5944036Y6327045D01*
X5927108D01*
X5918644Y6335509D01*
Y6352437D01*
X5935572D01*
X5901716Y6327045D02*
Y6377828D01*
X5867861Y6327045D01*
Y6377828D01*
X5850933D02*
Y6327045D01*
X5825541D01*
X5817077Y6335509D01*
Y6369364D01*
X5825541Y6377828D01*
X5850933D01*
X5183371Y7039018D02*
Y6988235D01*
X5157980D01*
X5149516Y6996699D01*
Y7030554D01*
X5157980Y7039018D01*
X5183371D01*
X5132588Y7030554D02*
X5124124Y7039018D01*
X5107196D01*
X5098732Y7030554D01*
Y7022090D01*
X5107196Y7013627D01*
X5098732Y7005163D01*
Y6996699D01*
X5107196Y6988235D01*
X5124124D01*
X5132588Y6996699D01*
Y7005163D01*
X5124124Y7013627D01*
X5132588Y7022090D01*
Y7030554D01*
X5124124Y7013627D02*
X5107196D01*
X5265829Y6908253D02*
Y6857469D01*
X5240437D01*
X5231974Y6865933D01*
Y6899789D01*
X5240437Y6908253D01*
X5265829D01*
X5215046D02*
X5181190D01*
Y6899789D01*
X5215046Y6865933D01*
Y6857469D01*
X5338023Y7123543D02*
Y7072759D01*
X5312631D01*
X5304167Y7081223D01*
Y7115079D01*
X5312631Y7123543D01*
X5338023D01*
X5253384D02*
X5270312Y7115079D01*
X5287240Y7098151D01*
Y7081223D01*
X5278776Y7072759D01*
X5261848D01*
X5253384Y7081223D01*
Y7089687D01*
X5261848Y7098151D01*
X5287240D01*
X5887725Y7255992D02*
Y7205208D01*
X5862333D01*
X5853869Y7213672D01*
Y7247528D01*
X5862333Y7255992D01*
X5887725D01*
X5836941Y7205208D02*
X5820014D01*
X5828477D01*
Y7255992D01*
X5836941Y7247528D01*
X5259038Y7474243D02*
X5267502Y7482707D01*
X5284430D01*
X5292894Y7474243D01*
Y7440387D01*
X5284430Y7431923D01*
X5267502D01*
X5259038Y7440387D01*
X5242110Y7482707D02*
X5208255D01*
Y7474243D01*
X5242110Y7440387D01*
Y7431923D01*
X5637534Y7260980D02*
X5645998Y7269443D01*
X5662926D01*
X5671390Y7260980D01*
Y7227124D01*
X5662926Y7218660D01*
X5645998D01*
X5637534Y7227124D01*
X5586751Y7269443D02*
X5603678Y7260980D01*
X5620606Y7244052D01*
Y7227124D01*
X5612142Y7218660D01*
X5595214D01*
X5586751Y7227124D01*
Y7235588D01*
X5595214Y7244052D01*
X5620606D01*
X5814597Y6875398D02*
X5806133Y6883862D01*
X5789206D01*
X5780742Y6875398D01*
Y6866934D01*
X5789206Y6858471D01*
X5797670D01*
X5789206D01*
X5780742Y6850007D01*
Y6841543D01*
X5789206Y6833079D01*
X5806133D01*
X5814597Y6841543D01*
X5763814Y6883862D02*
Y6850007D01*
X5746886Y6833079D01*
X5729958Y6850007D01*
Y6883862D01*
X5713030Y6875398D02*
X5704566Y6883862D01*
X5687639D01*
X5679175Y6875398D01*
Y6866934D01*
X5687639Y6858471D01*
X5696103D01*
X5687639D01*
X5679175Y6850007D01*
Y6841543D01*
X5687639Y6833079D01*
X5704566D01*
X5713030Y6841543D01*
X7665830Y7140133D02*
Y7106277D01*
X7640438D01*
Y7123205D01*
Y7106277D01*
X7615046D01*
Y7190916D02*
Y7157060D01*
X7648902Y7190916D01*
X7657366D01*
X7665830Y7182452D01*
Y7165524D01*
X7657366Y7157060D01*
X7964268Y7264181D02*
X8015052D01*
Y7289572D01*
X8006588Y7298036D01*
X7989660D01*
X7981196Y7289572D01*
Y7264181D01*
Y7281108D02*
X7964268Y7298036D01*
X8006588Y7314964D02*
X8015052Y7323428D01*
Y7340356D01*
X8006588Y7348820D01*
X7998124D01*
X7989660Y7340356D01*
Y7331892D01*
Y7340356D01*
X7981196Y7348820D01*
X7972732D01*
X7964268Y7340356D01*
Y7323428D01*
X7972732Y7314964D01*
X7805015Y6483259D02*
Y6534043D01*
X7779623D01*
X7771159Y6525579D01*
Y6508651D01*
X7779623Y6500187D01*
X7805015D01*
X7788087D02*
X7771159Y6483259D01*
X7720376D02*
X7754231D01*
X7720376Y6517115D01*
Y6525579D01*
X7728840Y6534043D01*
X7745767D01*
X7754231Y6525579D01*
X7301398Y6412271D02*
Y6369952D01*
X7292934Y6361488D01*
X7276006D01*
X7267542Y6369952D01*
Y6412271D01*
X7216758Y6403808D02*
X7225222Y6412271D01*
X7242150D01*
X7250614Y6403808D01*
Y6395344D01*
X7242150Y6386880D01*
X7225222D01*
X7216758Y6378416D01*
Y6369952D01*
X7225222Y6361488D01*
X7242150D01*
X7250614Y6369952D01*
X7199831Y6412271D02*
Y6361488D01*
X7174439D01*
X7165975Y6369952D01*
Y6378416D01*
X7174439Y6386880D01*
X7199831D01*
X7174439D01*
X7165975Y6395344D01*
Y6403808D01*
X7174439Y6412271D01*
X7199831D01*
X8328855Y7275392D02*
Y7233072D01*
X8320391Y7224608D01*
X8303463D01*
X8295000Y7233072D01*
Y7275392D01*
X8278072Y7224608D02*
X8261144D01*
X8269608D01*
Y7275392D01*
X8278072Y7266928D01*
X8019853Y6686187D02*
Y6736971D01*
X7994462D01*
X7985998Y6728507D01*
Y6711579D01*
X7994462Y6703115D01*
X8019853D01*
X8002926D02*
X7985998Y6686187D01*
X7969070D02*
X7952142D01*
X7960606D01*
Y6736971D01*
X7969070Y6728507D01*
X7926750D02*
X7918286Y6736971D01*
X7901358D01*
X7892895Y6728507D01*
Y6694651D01*
X7901358Y6686187D01*
X7918286D01*
X7926750Y6694651D01*
Y6728507D01*
X8383104Y7344475D02*
Y7395259D01*
X8357712D01*
X8349248Y7386795D01*
Y7369867D01*
X8357712Y7361403D01*
X8383104D01*
X8366176D02*
X8349248Y7344475D01*
X8332320Y7386795D02*
X8323856Y7395259D01*
X8306928D01*
X8298464Y7386795D01*
Y7378331D01*
X8306928Y7369867D01*
X8298464Y7361403D01*
Y7352939D01*
X8306928Y7344475D01*
X8323856D01*
X8332320Y7352939D01*
Y7361403D01*
X8323856Y7369867D01*
X8332320Y7378331D01*
Y7386795D01*
X8323856Y7369867D02*
X8306928D01*
X7673474Y7459895D02*
Y7510679D01*
X7648082D01*
X7639618Y7502215D01*
Y7485287D01*
X7648082Y7476823D01*
X7673474D01*
X7656546D02*
X7639618Y7459895D01*
X7622690Y7510679D02*
X7588835D01*
Y7502215D01*
X7622690Y7468359D01*
Y7459895D01*
X8423135Y6430846D02*
Y6481630D01*
X8397743D01*
X8389279Y6473166D01*
Y6456238D01*
X8397743Y6447774D01*
X8423135D01*
X8406207D02*
X8389279Y6430846D01*
X8338496Y6481630D02*
X8355424Y6473166D01*
X8372352Y6456238D01*
Y6439310D01*
X8363888Y6430846D01*
X8346960D01*
X8338496Y6439310D01*
Y6447774D01*
X8346960Y6456238D01*
X8372352D01*
X8704586Y7530170D02*
Y7580954D01*
X8679194D01*
X8670730Y7572490D01*
Y7555562D01*
X8679194Y7547098D01*
X8704586D01*
X8687658D02*
X8670730Y7530170D01*
X8653802D02*
X8636874D01*
X8645338D01*
Y7580954D01*
X8653802Y7572490D01*
X8117031Y6340126D02*
Y6390909D01*
X8091639D01*
X8083175Y6382445D01*
Y6365518D01*
X8091639Y6357054D01*
X8117031D01*
X8032391Y6382445D02*
X8040855Y6390909D01*
X8057783D01*
X8066247Y6382445D01*
Y6348590D01*
X8057783Y6340126D01*
X8040855D01*
X8032391Y6348590D01*
Y6365518D01*
X8049319D01*
X8015464Y6340126D02*
Y6390909D01*
X7998536Y6373981D01*
X7981608Y6390909D01*
Y6340126D01*
X8768644Y6369364D02*
X8777108Y6377828D01*
X8794035D01*
X8802500Y6369364D01*
Y6335509D01*
X8794035Y6327045D01*
X8777108D01*
X8768644Y6335509D01*
Y6352437D01*
X8785572D01*
X8751716Y6327045D02*
Y6377828D01*
X8717860Y6327045D01*
Y6377828D01*
X8700933D02*
Y6327045D01*
X8675541D01*
X8667077Y6335509D01*
Y6369364D01*
X8675541Y6377828D01*
X8700933D01*
X8033371Y7039018D02*
Y6988235D01*
X8007979D01*
X7999516Y6996699D01*
Y7030554D01*
X8007979Y7039018D01*
X8033371D01*
X7982588Y7030554D02*
X7974124Y7039018D01*
X7957196D01*
X7948732Y7030554D01*
Y7022090D01*
X7957196Y7013627D01*
X7948732Y7005163D01*
Y6996699D01*
X7957196Y6988235D01*
X7974124D01*
X7982588Y6996699D01*
Y7005163D01*
X7974124Y7013627D01*
X7982588Y7022090D01*
Y7030554D01*
X7974124Y7013627D02*
X7957196D01*
X8115829Y6908253D02*
Y6857469D01*
X8090437D01*
X8081973Y6865933D01*
Y6899789D01*
X8090437Y6908253D01*
X8115829D01*
X8065046D02*
X8031190D01*
Y6899789D01*
X8065046Y6865933D01*
Y6857469D01*
X8188023Y7123543D02*
Y7072759D01*
X8162631D01*
X8154167Y7081223D01*
Y7115079D01*
X8162631Y7123543D01*
X8188023D01*
X8103384D02*
X8120312Y7115079D01*
X8137240Y7098151D01*
Y7081223D01*
X8128775Y7072759D01*
X8111848D01*
X8103384Y7081223D01*
Y7089687D01*
X8111848Y7098151D01*
X8137240D01*
X8737725Y7255992D02*
Y7205208D01*
X8712333D01*
X8703869Y7213672D01*
Y7247528D01*
X8712333Y7255992D01*
X8737725D01*
X8686941Y7205208D02*
X8670013D01*
X8678477D01*
Y7255992D01*
X8686941Y7247528D01*
X8109038Y7474243D02*
X8117502Y7482707D01*
X8134430D01*
X8142894Y7474243D01*
Y7440387D01*
X8134430Y7431923D01*
X8117502D01*
X8109038Y7440387D01*
X8092110Y7482707D02*
X8058254D01*
Y7474243D01*
X8092110Y7440387D01*
Y7431923D01*
X8487534Y7260980D02*
X8495998Y7269443D01*
X8512926D01*
X8521390Y7260980D01*
Y7227124D01*
X8512926Y7218660D01*
X8495998D01*
X8487534Y7227124D01*
X8436750Y7269443D02*
X8453678Y7260980D01*
X8470606Y7244052D01*
Y7227124D01*
X8462142Y7218660D01*
X8445214D01*
X8436750Y7227124D01*
Y7235588D01*
X8445214Y7244052D01*
X8470606D01*
X8664597Y6875398D02*
X8656133Y6883862D01*
X8639205D01*
X8630742Y6875398D01*
Y6866934D01*
X8639205Y6858471D01*
X8647670D01*
X8639205D01*
X8630742Y6850007D01*
Y6841543D01*
X8639205Y6833079D01*
X8656133D01*
X8664597Y6841543D01*
X8613814Y6883862D02*
Y6850007D01*
X8596886Y6833079D01*
X8579958Y6850007D01*
Y6883862D01*
X8563030Y6875398D02*
X8554566Y6883862D01*
X8537638D01*
X8529175Y6875398D01*
Y6866934D01*
X8537638Y6858471D01*
X8546103D01*
X8537638D01*
X8529175Y6850007D01*
Y6841543D01*
X8537638Y6833079D01*
X8554566D01*
X8563030Y6841543D01*
X1965830Y9040133D02*
Y9006277D01*
X1940439D01*
Y9023205D01*
Y9006277D01*
X1915047D01*
Y9090916D02*
Y9057060D01*
X1948902Y9090916D01*
X1957366D01*
X1965830Y9082452D01*
Y9065524D01*
X1957366Y9057060D01*
X2264268Y9164181D02*
X2315052D01*
Y9189572D01*
X2306588Y9198036D01*
X2289660D01*
X2281196Y9189572D01*
Y9164181D01*
Y9181108D02*
X2264268Y9198036D01*
X2306588Y9214964D02*
X2315052Y9223428D01*
Y9240356D01*
X2306588Y9248820D01*
X2298124D01*
X2289660Y9240356D01*
Y9231892D01*
Y9240356D01*
X2281196Y9248820D01*
X2272732D01*
X2264268Y9240356D01*
Y9223428D01*
X2272732Y9214964D01*
X2105015Y8383259D02*
Y8434043D01*
X2079623D01*
X2071159Y8425579D01*
Y8408651D01*
X2079623Y8400187D01*
X2105015D01*
X2088087D02*
X2071159Y8383259D01*
X2020376D02*
X2054232D01*
X2020376Y8417115D01*
Y8425579D01*
X2028840Y8434043D01*
X2045768D01*
X2054232Y8425579D01*
X1601398Y8312271D02*
Y8269952D01*
X1592934Y8261488D01*
X1576006D01*
X1567542Y8269952D01*
Y8312271D01*
X1516759Y8303808D02*
X1525223Y8312271D01*
X1542150D01*
X1550614Y8303808D01*
Y8295344D01*
X1542150Y8286880D01*
X1525223D01*
X1516759Y8278416D01*
Y8269952D01*
X1525223Y8261488D01*
X1542150D01*
X1550614Y8269952D01*
X1499831Y8312271D02*
Y8261488D01*
X1474439D01*
X1465975Y8269952D01*
Y8278416D01*
X1474439Y8286880D01*
X1499831D01*
X1474439D01*
X1465975Y8295344D01*
Y8303808D01*
X1474439Y8312271D01*
X1499831D01*
X2628856Y9175392D02*
Y9133072D01*
X2620392Y9124608D01*
X2603464D01*
X2595000Y9133072D01*
Y9175392D01*
X2578072Y9124608D02*
X2561144D01*
X2569608D01*
Y9175392D01*
X2578072Y9166928D01*
X2319854Y8586187D02*
Y8636971D01*
X2294462D01*
X2285998Y8628507D01*
Y8611579D01*
X2294462Y8603115D01*
X2319854D01*
X2302926D02*
X2285998Y8586187D01*
X2269070D02*
X2252142D01*
X2260606D01*
Y8636971D01*
X2269070Y8628507D01*
X2226750D02*
X2218286Y8636971D01*
X2201359D01*
X2192895Y8628507D01*
Y8594651D01*
X2201359Y8586187D01*
X2218286D01*
X2226750Y8594651D01*
Y8628507D01*
X2683104Y9244475D02*
Y9295259D01*
X2657712D01*
X2649248Y9286795D01*
Y9269867D01*
X2657712Y9261403D01*
X2683104D01*
X2666176D02*
X2649248Y9244475D01*
X2632320Y9286795D02*
X2623856Y9295259D01*
X2606928D01*
X2598465Y9286795D01*
Y9278331D01*
X2606928Y9269867D01*
X2598465Y9261403D01*
Y9252939D01*
X2606928Y9244475D01*
X2623856D01*
X2632320Y9252939D01*
Y9261403D01*
X2623856Y9269867D01*
X2632320Y9278331D01*
Y9286795D01*
X2623856Y9269867D02*
X2606928D01*
X1973474Y9359895D02*
Y9410679D01*
X1948082D01*
X1939618Y9402215D01*
Y9385287D01*
X1948082Y9376823D01*
X1973474D01*
X1956546D02*
X1939618Y9359895D01*
X1922691Y9410679D02*
X1888835D01*
Y9402215D01*
X1922691Y9368359D01*
Y9359895D01*
X2723135Y8330846D02*
Y8381630D01*
X2697743D01*
X2689280Y8373166D01*
Y8356238D01*
X2697743Y8347774D01*
X2723135D01*
X2706207D02*
X2689280Y8330846D01*
X2638496Y8381630D02*
X2655424Y8373166D01*
X2672352Y8356238D01*
Y8339310D01*
X2663888Y8330846D01*
X2646960D01*
X2638496Y8339310D01*
Y8347774D01*
X2646960Y8356238D01*
X2672352D01*
X3004586Y9430170D02*
Y9480954D01*
X2979194D01*
X2970730Y9472490D01*
Y9455562D01*
X2979194Y9447098D01*
X3004586D01*
X2987658D02*
X2970730Y9430170D01*
X2953802D02*
X2936874D01*
X2945338D01*
Y9480954D01*
X2953802Y9472490D01*
X2417031Y8240126D02*
Y8290909D01*
X2391639D01*
X2383175Y8282445D01*
Y8265518D01*
X2391639Y8257054D01*
X2417031D01*
X2332392Y8282445D02*
X2340855Y8290909D01*
X2357783D01*
X2366247Y8282445D01*
Y8248590D01*
X2357783Y8240126D01*
X2340855D01*
X2332392Y8248590D01*
Y8265518D01*
X2349319D01*
X2315464Y8240126D02*
Y8290909D01*
X2298536Y8273981D01*
X2281608Y8290909D01*
Y8240126D01*
X3068644Y8269364D02*
X3077108Y8277828D01*
X3094036D01*
X3102500Y8269364D01*
Y8235509D01*
X3094036Y8227045D01*
X3077108D01*
X3068644Y8235509D01*
Y8252437D01*
X3085572D01*
X3051716Y8227045D02*
Y8277828D01*
X3017861Y8227045D01*
Y8277828D01*
X3000933D02*
Y8227045D01*
X2975541D01*
X2967077Y8235509D01*
Y8269364D01*
X2975541Y8277828D01*
X3000933D01*
X2333372Y8939018D02*
Y8888235D01*
X2307980D01*
X2299516Y8896699D01*
Y8930554D01*
X2307980Y8939018D01*
X2333372D01*
X2282588Y8930554D02*
X2274124Y8939018D01*
X2257196D01*
X2248732Y8930554D01*
Y8922090D01*
X2257196Y8913627D01*
X2248732Y8905163D01*
Y8896699D01*
X2257196Y8888235D01*
X2274124D01*
X2282588Y8896699D01*
Y8905163D01*
X2274124Y8913627D01*
X2282588Y8922090D01*
Y8930554D01*
X2274124Y8913627D02*
X2257196D01*
X2415829Y8808253D02*
Y8757469D01*
X2390437D01*
X2381974Y8765933D01*
Y8799789D01*
X2390437Y8808253D01*
X2415829D01*
X2365046D02*
X2331190D01*
Y8799789D01*
X2365046Y8765933D01*
Y8757469D01*
X2488023Y9023543D02*
Y8972759D01*
X2462631D01*
X2454168Y8981223D01*
Y9015079D01*
X2462631Y9023543D01*
X2488023D01*
X2403384D02*
X2420312Y9015079D01*
X2437240Y8998151D01*
Y8981223D01*
X2428776Y8972759D01*
X2411848D01*
X2403384Y8981223D01*
Y8989687D01*
X2411848Y8998151D01*
X2437240D01*
X3037725Y9155992D02*
Y9105208D01*
X3012333D01*
X3003869Y9113672D01*
Y9147528D01*
X3012333Y9155992D01*
X3037725D01*
X2986941Y9105208D02*
X2970014D01*
X2978477D01*
Y9155992D01*
X2986941Y9147528D01*
X2409038Y9374243D02*
X2417502Y9382707D01*
X2434430D01*
X2442894Y9374243D01*
Y9340387D01*
X2434430Y9331923D01*
X2417502D01*
X2409038Y9340387D01*
X2392110Y9382707D02*
X2358255D01*
Y9374243D01*
X2392110Y9340387D01*
Y9331923D01*
X2787534Y9160980D02*
X2795998Y9169443D01*
X2812926D01*
X2821390Y9160980D01*
Y9127124D01*
X2812926Y9118660D01*
X2795998D01*
X2787534Y9127124D01*
X2736751Y9169443D02*
X2753679Y9160980D01*
X2770606Y9144052D01*
Y9127124D01*
X2762142Y9118660D01*
X2745214D01*
X2736751Y9127124D01*
Y9135588D01*
X2745214Y9144052D01*
X2770606D01*
X2964598Y8775399D02*
X2956134Y8783862D01*
X2939206D01*
X2930742Y8775399D01*
Y8766934D01*
X2939206Y8758471D01*
X2947670D01*
X2939206D01*
X2930742Y8750007D01*
Y8741543D01*
X2939206Y8733079D01*
X2956134D01*
X2964598Y8741543D01*
X2913814Y8783862D02*
Y8750007D01*
X2896886Y8733079D01*
X2879958Y8750007D01*
Y8783862D01*
X2863031Y8775399D02*
X2854567Y8783862D01*
X2837639D01*
X2829175Y8775399D01*
Y8766934D01*
X2837639Y8758471D01*
X2846103D01*
X2837639D01*
X2829175Y8750007D01*
Y8741543D01*
X2837639Y8733079D01*
X2854567D01*
X2863031Y8741543D01*
X4815830Y9040133D02*
Y9006277D01*
X4790438D01*
Y9023205D01*
Y9006277D01*
X4765047D01*
Y9090916D02*
Y9057060D01*
X4798902Y9090916D01*
X4807366D01*
X4815830Y9082452D01*
Y9065524D01*
X4807366Y9057060D01*
X5114268Y9164181D02*
X5165052D01*
Y9189572D01*
X5156588Y9198036D01*
X5139660D01*
X5131196Y9189572D01*
Y9164181D01*
Y9181108D02*
X5114268Y9198036D01*
X5156588Y9214964D02*
X5165052Y9223428D01*
Y9240356D01*
X5156588Y9248820D01*
X5148124D01*
X5139660Y9240356D01*
Y9231892D01*
Y9240356D01*
X5131196Y9248820D01*
X5122732D01*
X5114268Y9240356D01*
Y9223428D01*
X5122732Y9214964D01*
X4955015Y8383259D02*
Y8434043D01*
X4929623D01*
X4921159Y8425579D01*
Y8408651D01*
X4929623Y8400187D01*
X4955015D01*
X4938087D02*
X4921159Y8383259D01*
X4870376D02*
X4904231D01*
X4870376Y8417115D01*
Y8425579D01*
X4878840Y8434043D01*
X4895767D01*
X4904231Y8425579D01*
X4451398Y8312271D02*
Y8269952D01*
X4442934Y8261488D01*
X4426006D01*
X4417542Y8269952D01*
Y8312271D01*
X4366759Y8303808D02*
X4375222Y8312271D01*
X4392150D01*
X4400614Y8303808D01*
Y8295344D01*
X4392150Y8286880D01*
X4375222D01*
X4366759Y8278416D01*
Y8269952D01*
X4375222Y8261488D01*
X4392150D01*
X4400614Y8269952D01*
X4349831Y8312271D02*
Y8261488D01*
X4324439D01*
X4315975Y8269952D01*
Y8278416D01*
X4324439Y8286880D01*
X4349831D01*
X4324439D01*
X4315975Y8295344D01*
Y8303808D01*
X4324439Y8312271D01*
X4349831D01*
X5478855Y9175392D02*
Y9133072D01*
X5470391Y9124608D01*
X5453464D01*
X5445000Y9133072D01*
Y9175392D01*
X5428072Y9124608D02*
X5411144D01*
X5419608D01*
Y9175392D01*
X5428072Y9166928D01*
X5169854Y8586187D02*
Y8636971D01*
X5144462D01*
X5135998Y8628507D01*
Y8611579D01*
X5144462Y8603115D01*
X5169854D01*
X5152926D02*
X5135998Y8586187D01*
X5119070D02*
X5102142D01*
X5110606D01*
Y8636971D01*
X5119070Y8628507D01*
X5076750D02*
X5068286Y8636971D01*
X5051358D01*
X5042895Y8628507D01*
Y8594651D01*
X5051358Y8586187D01*
X5068286D01*
X5076750Y8594651D01*
Y8628507D01*
X5533104Y9244475D02*
Y9295259D01*
X5507712D01*
X5499248Y9286795D01*
Y9269867D01*
X5507712Y9261403D01*
X5533104D01*
X5516176D02*
X5499248Y9244475D01*
X5482320Y9286795D02*
X5473856Y9295259D01*
X5456928D01*
X5448465Y9286795D01*
Y9278331D01*
X5456928Y9269867D01*
X5448465Y9261403D01*
Y9252939D01*
X5456928Y9244475D01*
X5473856D01*
X5482320Y9252939D01*
Y9261403D01*
X5473856Y9269867D01*
X5482320Y9278331D01*
Y9286795D01*
X5473856Y9269867D02*
X5456928D01*
X4823474Y9359895D02*
Y9410679D01*
X4798082D01*
X4789618Y9402215D01*
Y9385287D01*
X4798082Y9376823D01*
X4823474D01*
X4806546D02*
X4789618Y9359895D01*
X4772690Y9410679D02*
X4738835D01*
Y9402215D01*
X4772690Y9368359D01*
Y9359895D01*
X5573135Y8330846D02*
Y8381630D01*
X5547743D01*
X5539279Y8373166D01*
Y8356238D01*
X5547743Y8347774D01*
X5573135D01*
X5556207D02*
X5539279Y8330846D01*
X5488496Y8381630D02*
X5505424Y8373166D01*
X5522352Y8356238D01*
Y8339310D01*
X5513888Y8330846D01*
X5496960D01*
X5488496Y8339310D01*
Y8347774D01*
X5496960Y8356238D01*
X5522352D01*
X5854586Y9430170D02*
Y9480954D01*
X5829194D01*
X5820730Y9472490D01*
Y9455562D01*
X5829194Y9447098D01*
X5854586D01*
X5837658D02*
X5820730Y9430170D01*
X5803802D02*
X5786874D01*
X5795338D01*
Y9480954D01*
X5803802Y9472490D01*
X5267031Y8240126D02*
Y8290909D01*
X5241639D01*
X5233175Y8282445D01*
Y8265518D01*
X5241639Y8257054D01*
X5267031D01*
X5182391Y8282445D02*
X5190855Y8290909D01*
X5207783D01*
X5216247Y8282445D01*
Y8248590D01*
X5207783Y8240126D01*
X5190855D01*
X5182391Y8248590D01*
Y8265518D01*
X5199319D01*
X5165464Y8240126D02*
Y8290909D01*
X5148536Y8273981D01*
X5131608Y8290909D01*
Y8240126D01*
X5918644Y8269364D02*
X5927108Y8277828D01*
X5944036D01*
X5952500Y8269364D01*
Y8235509D01*
X5944036Y8227045D01*
X5927108D01*
X5918644Y8235509D01*
Y8252437D01*
X5935572D01*
X5901716Y8227045D02*
Y8277828D01*
X5867861Y8227045D01*
Y8277828D01*
X5850933D02*
Y8227045D01*
X5825541D01*
X5817077Y8235509D01*
Y8269364D01*
X5825541Y8277828D01*
X5850933D01*
X5183371Y8939018D02*
Y8888235D01*
X5157980D01*
X5149516Y8896699D01*
Y8930554D01*
X5157980Y8939018D01*
X5183371D01*
X5132588Y8930554D02*
X5124124Y8939018D01*
X5107196D01*
X5098732Y8930554D01*
Y8922090D01*
X5107196Y8913627D01*
X5098732Y8905163D01*
Y8896699D01*
X5107196Y8888235D01*
X5124124D01*
X5132588Y8896699D01*
Y8905163D01*
X5124124Y8913627D01*
X5132588Y8922090D01*
Y8930554D01*
X5124124Y8913627D02*
X5107196D01*
X5265829Y8808253D02*
Y8757469D01*
X5240437D01*
X5231974Y8765933D01*
Y8799789D01*
X5240437Y8808253D01*
X5265829D01*
X5215046D02*
X5181190D01*
Y8799789D01*
X5215046Y8765933D01*
Y8757469D01*
X5338023Y9023543D02*
Y8972759D01*
X5312631D01*
X5304167Y8981223D01*
Y9015079D01*
X5312631Y9023543D01*
X5338023D01*
X5253384D02*
X5270312Y9015079D01*
X5287240Y8998151D01*
Y8981223D01*
X5278776Y8972759D01*
X5261848D01*
X5253384Y8981223D01*
Y8989687D01*
X5261848Y8998151D01*
X5287240D01*
X5887725Y9155992D02*
Y9105208D01*
X5862333D01*
X5853869Y9113672D01*
Y9147528D01*
X5862333Y9155992D01*
X5887725D01*
X5836941Y9105208D02*
X5820014D01*
X5828477D01*
Y9155992D01*
X5836941Y9147528D01*
X5259038Y9374243D02*
X5267502Y9382707D01*
X5284430D01*
X5292894Y9374243D01*
Y9340387D01*
X5284430Y9331923D01*
X5267502D01*
X5259038Y9340387D01*
X5242110Y9382707D02*
X5208255D01*
Y9374243D01*
X5242110Y9340387D01*
Y9331923D01*
X5637534Y9160980D02*
X5645998Y9169443D01*
X5662926D01*
X5671390Y9160980D01*
Y9127124D01*
X5662926Y9118660D01*
X5645998D01*
X5637534Y9127124D01*
X5586751Y9169443D02*
X5603678Y9160980D01*
X5620606Y9144052D01*
Y9127124D01*
X5612142Y9118660D01*
X5595214D01*
X5586751Y9127124D01*
Y9135588D01*
X5595214Y9144052D01*
X5620606D01*
X5814597Y8775399D02*
X5806133Y8783862D01*
X5789206D01*
X5780742Y8775399D01*
Y8766934D01*
X5789206Y8758471D01*
X5797670D01*
X5789206D01*
X5780742Y8750007D01*
Y8741543D01*
X5789206Y8733079D01*
X5806133D01*
X5814597Y8741543D01*
X5763814Y8783862D02*
Y8750007D01*
X5746886Y8733079D01*
X5729958Y8750007D01*
Y8783862D01*
X5713030Y8775399D02*
X5704566Y8783862D01*
X5687639D01*
X5679175Y8775399D01*
Y8766934D01*
X5687639Y8758471D01*
X5696103D01*
X5687639D01*
X5679175Y8750007D01*
Y8741543D01*
X5687639Y8733079D01*
X5704566D01*
X5713030Y8741543D01*
X7665830Y9040133D02*
Y9006277D01*
X7640438D01*
Y9023205D01*
Y9006277D01*
X7615046D01*
Y9090916D02*
Y9057060D01*
X7648902Y9090916D01*
X7657366D01*
X7665830Y9082452D01*
Y9065524D01*
X7657366Y9057060D01*
X7964268Y9164181D02*
X8015052D01*
Y9189572D01*
X8006588Y9198036D01*
X7989660D01*
X7981196Y9189572D01*
Y9164181D01*
Y9181108D02*
X7964268Y9198036D01*
X8006588Y9214964D02*
X8015052Y9223428D01*
Y9240356D01*
X8006588Y9248820D01*
X7998124D01*
X7989660Y9240356D01*
Y9231892D01*
Y9240356D01*
X7981196Y9248820D01*
X7972732D01*
X7964268Y9240356D01*
Y9223428D01*
X7972732Y9214964D01*
X7805015Y8383259D02*
Y8434043D01*
X7779623D01*
X7771159Y8425579D01*
Y8408651D01*
X7779623Y8400187D01*
X7805015D01*
X7788087D02*
X7771159Y8383259D01*
X7720376D02*
X7754231D01*
X7720376Y8417115D01*
Y8425579D01*
X7728840Y8434043D01*
X7745767D01*
X7754231Y8425579D01*
X7301398Y8312271D02*
Y8269952D01*
X7292934Y8261488D01*
X7276006D01*
X7267542Y8269952D01*
Y8312271D01*
X7216758Y8303808D02*
X7225222Y8312271D01*
X7242150D01*
X7250614Y8303808D01*
Y8295344D01*
X7242150Y8286880D01*
X7225222D01*
X7216758Y8278416D01*
Y8269952D01*
X7225222Y8261488D01*
X7242150D01*
X7250614Y8269952D01*
X7199831Y8312271D02*
Y8261488D01*
X7174439D01*
X7165975Y8269952D01*
Y8278416D01*
X7174439Y8286880D01*
X7199831D01*
X7174439D01*
X7165975Y8295344D01*
Y8303808D01*
X7174439Y8312271D01*
X7199831D01*
X8328855Y9175392D02*
Y9133072D01*
X8320391Y9124608D01*
X8303463D01*
X8295000Y9133072D01*
Y9175392D01*
X8278072Y9124608D02*
X8261144D01*
X8269608D01*
Y9175392D01*
X8278072Y9166928D01*
X8019853Y8586187D02*
Y8636971D01*
X7994462D01*
X7985998Y8628507D01*
Y8611579D01*
X7994462Y8603115D01*
X8019853D01*
X8002926D02*
X7985998Y8586187D01*
X7969070D02*
X7952142D01*
X7960606D01*
Y8636971D01*
X7969070Y8628507D01*
X7926750D02*
X7918286Y8636971D01*
X7901358D01*
X7892895Y8628507D01*
Y8594651D01*
X7901358Y8586187D01*
X7918286D01*
X7926750Y8594651D01*
Y8628507D01*
X8383104Y9244475D02*
Y9295259D01*
X8357712D01*
X8349248Y9286795D01*
Y9269867D01*
X8357712Y9261403D01*
X8383104D01*
X8366176D02*
X8349248Y9244475D01*
X8332320Y9286795D02*
X8323856Y9295259D01*
X8306928D01*
X8298464Y9286795D01*
Y9278331D01*
X8306928Y9269867D01*
X8298464Y9261403D01*
Y9252939D01*
X8306928Y9244475D01*
X8323856D01*
X8332320Y9252939D01*
Y9261403D01*
X8323856Y9269867D01*
X8332320Y9278331D01*
Y9286795D01*
X8323856Y9269867D02*
X8306928D01*
X7673474Y9359895D02*
Y9410679D01*
X7648082D01*
X7639618Y9402215D01*
Y9385287D01*
X7648082Y9376823D01*
X7673474D01*
X7656546D02*
X7639618Y9359895D01*
X7622690Y9410679D02*
X7588835D01*
Y9402215D01*
X7622690Y9368359D01*
Y9359895D01*
X8423135Y8330846D02*
Y8381630D01*
X8397743D01*
X8389279Y8373166D01*
Y8356238D01*
X8397743Y8347774D01*
X8423135D01*
X8406207D02*
X8389279Y8330846D01*
X8338496Y8381630D02*
X8355424Y8373166D01*
X8372352Y8356238D01*
Y8339310D01*
X8363888Y8330846D01*
X8346960D01*
X8338496Y8339310D01*
Y8347774D01*
X8346960Y8356238D01*
X8372352D01*
X8704586Y9430170D02*
Y9480954D01*
X8679194D01*
X8670730Y9472490D01*
Y9455562D01*
X8679194Y9447098D01*
X8704586D01*
X8687658D02*
X8670730Y9430170D01*
X8653802D02*
X8636874D01*
X8645338D01*
Y9480954D01*
X8653802Y9472490D01*
X8117031Y8240126D02*
Y8290909D01*
X8091639D01*
X8083175Y8282445D01*
Y8265518D01*
X8091639Y8257054D01*
X8117031D01*
X8032391Y8282445D02*
X8040855Y8290909D01*
X8057783D01*
X8066247Y8282445D01*
Y8248590D01*
X8057783Y8240126D01*
X8040855D01*
X8032391Y8248590D01*
Y8265518D01*
X8049319D01*
X8015464Y8240126D02*
Y8290909D01*
X7998536Y8273981D01*
X7981608Y8290909D01*
Y8240126D01*
X8768644Y8269364D02*
X8777108Y8277828D01*
X8794035D01*
X8802500Y8269364D01*
Y8235509D01*
X8794035Y8227045D01*
X8777108D01*
X8768644Y8235509D01*
Y8252437D01*
X8785572D01*
X8751716Y8227045D02*
Y8277828D01*
X8717860Y8227045D01*
Y8277828D01*
X8700933D02*
Y8227045D01*
X8675541D01*
X8667077Y8235509D01*
Y8269364D01*
X8675541Y8277828D01*
X8700933D01*
X8033371Y8939018D02*
Y8888235D01*
X8007979D01*
X7999516Y8896699D01*
Y8930554D01*
X8007979Y8939018D01*
X8033371D01*
X7982588Y8930554D02*
X7974124Y8939018D01*
X7957196D01*
X7948732Y8930554D01*
Y8922090D01*
X7957196Y8913627D01*
X7948732Y8905163D01*
Y8896699D01*
X7957196Y8888235D01*
X7974124D01*
X7982588Y8896699D01*
Y8905163D01*
X7974124Y8913627D01*
X7982588Y8922090D01*
Y8930554D01*
X7974124Y8913627D02*
X7957196D01*
X8115829Y8808253D02*
Y8757469D01*
X8090437D01*
X8081973Y8765933D01*
Y8799789D01*
X8090437Y8808253D01*
X8115829D01*
X8065046D02*
X8031190D01*
Y8799789D01*
X8065046Y8765933D01*
Y8757469D01*
X8188023Y9023543D02*
Y8972759D01*
X8162631D01*
X8154167Y8981223D01*
Y9015079D01*
X8162631Y9023543D01*
X8188023D01*
X8103384D02*
X8120312Y9015079D01*
X8137240Y8998151D01*
Y8981223D01*
X8128775Y8972759D01*
X8111848D01*
X8103384Y8981223D01*
Y8989687D01*
X8111848Y8998151D01*
X8137240D01*
X8737725Y9155992D02*
Y9105208D01*
X8712333D01*
X8703869Y9113672D01*
Y9147528D01*
X8712333Y9155992D01*
X8737725D01*
X8686941Y9105208D02*
X8670013D01*
X8678477D01*
Y9155992D01*
X8686941Y9147528D01*
X8109038Y9374243D02*
X8117502Y9382707D01*
X8134430D01*
X8142894Y9374243D01*
Y9340387D01*
X8134430Y9331923D01*
X8117502D01*
X8109038Y9340387D01*
X8092110Y9382707D02*
X8058254D01*
Y9374243D01*
X8092110Y9340387D01*
Y9331923D01*
X8487534Y9160980D02*
X8495998Y9169443D01*
X8512926D01*
X8521390Y9160980D01*
Y9127124D01*
X8512926Y9118660D01*
X8495998D01*
X8487534Y9127124D01*
X8436750Y9169443D02*
X8453678Y9160980D01*
X8470606Y9144052D01*
Y9127124D01*
X8462142Y9118660D01*
X8445214D01*
X8436750Y9127124D01*
Y9135588D01*
X8445214Y9144052D01*
X8470606D01*
X8664597Y8775399D02*
X8656133Y8783862D01*
X8639205D01*
X8630742Y8775399D01*
Y8766934D01*
X8639205Y8758471D01*
X8647670D01*
X8639205D01*
X8630742Y8750007D01*
Y8741543D01*
X8639205Y8733079D01*
X8656133D01*
X8664597Y8741543D01*
X8613814Y8783862D02*
Y8750007D01*
X8596886Y8733079D01*
X8579958Y8750007D01*
Y8783862D01*
X8563030Y8775399D02*
X8554566Y8783862D01*
X8537638D01*
X8529175Y8775399D01*
Y8766934D01*
X8537638Y8758471D01*
X8546103D01*
X8537638D01*
X8529175Y8750007D01*
Y8741543D01*
X8537638Y8733079D01*
X8554566D01*
X8563030Y8741543D01*
D31*
X3045000Y1435000D02*
G03*
X3045000Y1435000I-5000J0D01*
G01*
X5895000D02*
G03*
X5895000Y1435000I-5000J0D01*
G01*
X8745000D02*
G03*
X8745000Y1435000I-5000J0D01*
G01*
X3045000Y3335000D02*
G03*
X3045000Y3335000I-5000J0D01*
G01*
X5895000D02*
G03*
X5895000Y3335000I-5000J0D01*
G01*
X8745000D02*
G03*
X8745000Y3335000I-5000J0D01*
G01*
X3045000Y5235000D02*
G03*
X3045000Y5235000I-5000J0D01*
G01*
X5895000D02*
G03*
X5895000Y5235000I-5000J0D01*
G01*
X8745000D02*
G03*
X8745000Y5235000I-5000J0D01*
G01*
X3045000Y7135000D02*
G03*
X3045000Y7135000I-5000J0D01*
G01*
X5895000D02*
G03*
X5895000Y7135000I-5000J0D01*
G01*
X8745000D02*
G03*
X8745000Y7135000I-5000J0D01*
G01*
X3045000Y9035000D02*
G03*
X3045000Y9035000I-5000J0D01*
G01*
X5895000D02*
G03*
X5895000Y9035000I-5000J0D01*
G01*
X8745000D02*
G03*
X8745000Y9035000I-5000J0D01*
G01*
D32*
X2495420Y1228108D02*
G03*
X2495420Y1228108I-5000J0D01*
G01*
X2382500Y1122516D02*
G03*
X2382500Y1122516I-5000J0D01*
G01*
X2247075Y1483700D02*
G03*
X2247075Y1483700I-5000J0D01*
G01*
X5345420Y1228108D02*
G03*
X5345420Y1228108I-5000J0D01*
G01*
X5232500Y1122516D02*
G03*
X5232500Y1122516I-5000J0D01*
G01*
X5097075Y1483700D02*
G03*
X5097075Y1483700I-5000J0D01*
G01*
X8195420Y1228108D02*
G03*
X8195420Y1228108I-5000J0D01*
G01*
X8082500Y1122516D02*
G03*
X8082500Y1122516I-5000J0D01*
G01*
X7947075Y1483700D02*
G03*
X7947075Y1483700I-5000J0D01*
G01*
X2495420Y3128108D02*
G03*
X2495420Y3128108I-5000J0D01*
G01*
X2382500Y3022516D02*
G03*
X2382500Y3022516I-5000J0D01*
G01*
X2247075Y3383700D02*
G03*
X2247075Y3383700I-5000J0D01*
G01*
X5345420Y3128108D02*
G03*
X5345420Y3128108I-5000J0D01*
G01*
X5232500Y3022516D02*
G03*
X5232500Y3022516I-5000J0D01*
G01*
X5097075Y3383700D02*
G03*
X5097075Y3383700I-5000J0D01*
G01*
X8195420Y3128108D02*
G03*
X8195420Y3128108I-5000J0D01*
G01*
X8082500Y3022516D02*
G03*
X8082500Y3022516I-5000J0D01*
G01*
X7947075Y3383700D02*
G03*
X7947075Y3383700I-5000J0D01*
G01*
X2495420Y5028108D02*
G03*
X2495420Y5028108I-5000J0D01*
G01*
X2382500Y4922516D02*
G03*
X2382500Y4922516I-5000J0D01*
G01*
X2247075Y5283700D02*
G03*
X2247075Y5283700I-5000J0D01*
G01*
X5345420Y5028108D02*
G03*
X5345420Y5028108I-5000J0D01*
G01*
X5232500Y4922516D02*
G03*
X5232500Y4922516I-5000J0D01*
G01*
X5097075Y5283700D02*
G03*
X5097075Y5283700I-5000J0D01*
G01*
X8195420Y5028108D02*
G03*
X8195420Y5028108I-5000J0D01*
G01*
X8082500Y4922516D02*
G03*
X8082500Y4922516I-5000J0D01*
G01*
X7947075Y5283700D02*
G03*
X7947075Y5283700I-5000J0D01*
G01*
X2495420Y6928108D02*
G03*
X2495420Y6928108I-5000J0D01*
G01*
X2382500Y6822516D02*
G03*
X2382500Y6822516I-5000J0D01*
G01*
X2247075Y7183700D02*
G03*
X2247075Y7183700I-5000J0D01*
G01*
X5345420Y6928108D02*
G03*
X5345420Y6928108I-5000J0D01*
G01*
X5232500Y6822516D02*
G03*
X5232500Y6822516I-5000J0D01*
G01*
X5097075Y7183700D02*
G03*
X5097075Y7183700I-5000J0D01*
G01*
X8195420Y6928108D02*
G03*
X8195420Y6928108I-5000J0D01*
G01*
X8082500Y6822516D02*
G03*
X8082500Y6822516I-5000J0D01*
G01*
X7947075Y7183700D02*
G03*
X7947075Y7183700I-5000J0D01*
G01*
X2495420Y8828108D02*
G03*
X2495420Y8828108I-5000J0D01*
G01*
X2382500Y8722516D02*
G03*
X2382500Y8722516I-5000J0D01*
G01*
X2247075Y9083700D02*
G03*
X2247075Y9083700I-5000J0D01*
G01*
X5345420Y8828108D02*
G03*
X5345420Y8828108I-5000J0D01*
G01*
X5232500Y8722516D02*
G03*
X5232500Y8722516I-5000J0D01*
G01*
X5097075Y9083700D02*
G03*
X5097075Y9083700I-5000J0D01*
G01*
X8195420Y8828108D02*
G03*
X8195420Y8828108I-5000J0D01*
G01*
X8082500Y8722516D02*
G03*
X8082500Y8722516I-5000J0D01*
G01*
X7947075Y9083700D02*
G03*
X7947075Y9083700I-5000J0D01*
G01*
%TF.MD5,f87dadc6b43c69f46e343a23fd854307*%
M02*
