%TF.GenerationSoftware,Altium Limited,Altium Designer,25.4.2 (15)*%
G04 Layer_Color=7949734*
%FSLAX45Y45*%
%MOMM*%
%TF.SameCoordinates,6791CEA5-0592-433A-98BD-FF1B9D05833A*%
%TF.FilePolarity,Positive*%
%TF.FileFunction,Keep-out,Top*%
%TF.Part,CustomerPanel*%
G01*
G75*
%TA.AperFunction,NonConductor*%
%ADD29C,0.10160*%
D29*
X0Y0D02*
Y10000000D01*
X10000000D01*
Y0D02*
Y10000000D01*
X0Y0D02*
X10000000D01*
X1495200Y2000200D02*
X2950000D01*
X1200000Y1705000D02*
X1495200Y2000200D01*
X1200000Y695000D02*
X1495000Y400000D01*
X1200000Y695000D02*
Y1705000D01*
X2950000Y400000D02*
X3244700Y694700D01*
X1495000Y400000D02*
X2950000D01*
Y2000000D02*
X3244700Y1705300D01*
Y694700D02*
Y1705300D01*
X4345200Y2000200D02*
X5800000D01*
X4050000Y1705000D02*
X4345200Y2000200D01*
X4050000Y695000D02*
X4345000Y400000D01*
X4050000Y695000D02*
Y1705000D01*
X5800000Y400000D02*
X6094700Y694700D01*
X4345000Y400000D02*
X5800000D01*
Y2000000D02*
X6094700Y1705300D01*
Y694700D02*
Y1705300D01*
X7195199Y2000200D02*
X8650000D01*
X6900000Y1705000D02*
X7195199Y2000200D01*
X6900000Y695000D02*
X7195000Y400000D01*
X6900000Y695000D02*
Y1705000D01*
X8650000Y400000D02*
X8944700Y694700D01*
X7195000Y400000D02*
X8650000D01*
Y2000000D02*
X8944700Y1705300D01*
Y694700D02*
Y1705300D01*
X1495200Y3900200D02*
X2950000D01*
X1200000Y3605000D02*
X1495200Y3900200D01*
X1200000Y2595000D02*
X1495000Y2300000D01*
X1200000Y2595000D02*
Y3605000D01*
X2950000Y2300000D02*
X3244700Y2594700D01*
X1495000Y2300000D02*
X2950000D01*
Y3900000D02*
X3244700Y3605300D01*
Y2594700D02*
Y3605300D01*
X4345200Y3900200D02*
X5800000D01*
X4050000Y3605000D02*
X4345200Y3900200D01*
X4050000Y2595000D02*
X4345000Y2300000D01*
X4050000Y2595000D02*
Y3605000D01*
X5800000Y2300000D02*
X6094700Y2594700D01*
X4345000Y2300000D02*
X5800000D01*
Y3900000D02*
X6094700Y3605300D01*
Y2594700D02*
Y3605300D01*
X7195199Y3900200D02*
X8650000D01*
X6900000Y3605000D02*
X7195199Y3900200D01*
X6900000Y2595000D02*
X7195000Y2300000D01*
X6900000Y2595000D02*
Y3605000D01*
X8650000Y2300000D02*
X8944700Y2594700D01*
X7195000Y2300000D02*
X8650000D01*
Y3900000D02*
X8944700Y3605300D01*
Y2594700D02*
Y3605300D01*
X1495200Y5800200D02*
X2950000D01*
X1200000Y5505000D02*
X1495200Y5800200D01*
X1200000Y4495000D02*
X1495000Y4200000D01*
X1200000Y4495000D02*
Y5505000D01*
X2950000Y4200000D02*
X3244700Y4494700D01*
X1495000Y4200000D02*
X2950000D01*
Y5800000D02*
X3244700Y5505300D01*
Y4494700D02*
Y5505300D01*
X4345200Y5800200D02*
X5800000D01*
X4050000Y5505000D02*
X4345200Y5800200D01*
X4050000Y4495000D02*
X4345000Y4200000D01*
X4050000Y4495000D02*
Y5505000D01*
X5800000Y4200000D02*
X6094700Y4494700D01*
X4345000Y4200000D02*
X5800000D01*
Y5800000D02*
X6094700Y5505300D01*
Y4494700D02*
Y5505300D01*
X7195199Y5800200D02*
X8650000D01*
X6900000Y5505000D02*
X7195199Y5800200D01*
X6900000Y4495000D02*
X7195000Y4200000D01*
X6900000Y4495000D02*
Y5505000D01*
X8650000Y4200000D02*
X8944700Y4494700D01*
X7195000Y4200000D02*
X8650000D01*
Y5800000D02*
X8944700Y5505300D01*
Y4494700D02*
Y5505300D01*
X1495200Y7700200D02*
X2950000D01*
X1200000Y7405000D02*
X1495200Y7700200D01*
X1200000Y6395000D02*
X1495000Y6100000D01*
X1200000Y6395000D02*
Y7405000D01*
X2950000Y6100000D02*
X3244700Y6394700D01*
X1495000Y6100000D02*
X2950000D01*
Y7700000D02*
X3244700Y7405300D01*
Y6394700D02*
Y7405300D01*
X4345200Y7700200D02*
X5800000D01*
X4050000Y7405000D02*
X4345200Y7700200D01*
X4050000Y6395000D02*
X4345000Y6100000D01*
X4050000Y6395000D02*
Y7405000D01*
X5800000Y6100000D02*
X6094700Y6394700D01*
X4345000Y6100000D02*
X5800000D01*
Y7700000D02*
X6094700Y7405300D01*
Y6394700D02*
Y7405300D01*
X7195199Y7700200D02*
X8650000D01*
X6900000Y7405000D02*
X7195199Y7700200D01*
X6900000Y6395000D02*
X7195000Y6100000D01*
X6900000Y6395000D02*
Y7405000D01*
X8650000Y6100000D02*
X8944700Y6394700D01*
X7195000Y6100000D02*
X8650000D01*
Y7700000D02*
X8944700Y7405300D01*
Y6394700D02*
Y7405300D01*
X1495200Y9600200D02*
X2950000D01*
X1200000Y9305000D02*
X1495200Y9600200D01*
X1200000Y8295000D02*
X1495000Y8000000D01*
X1200000Y8295000D02*
Y9305000D01*
X2950000Y8000000D02*
X3244700Y8294700D01*
X1495000Y8000000D02*
X2950000D01*
Y9600000D02*
X3244700Y9305300D01*
Y8294700D02*
Y9305300D01*
X4345200Y9600200D02*
X5800000D01*
X4050000Y9305000D02*
X4345200Y9600200D01*
X4050000Y8295000D02*
X4345000Y8000000D01*
X4050000Y8295000D02*
Y9305000D01*
X5800000Y8000000D02*
X6094700Y8294700D01*
X4345000Y8000000D02*
X5800000D01*
Y9600000D02*
X6094700Y9305300D01*
Y8294700D02*
Y9305300D01*
X7195199Y9600200D02*
X8650000D01*
X6900000Y9305000D02*
X7195199Y9600200D01*
X6900000Y8295000D02*
X7195000Y8000000D01*
X6900000Y8295000D02*
Y9305000D01*
X8650000Y8000000D02*
X8944700Y8294700D01*
X7195000Y8000000D02*
X8650000D01*
Y9600000D02*
X8944700Y9305300D01*
Y8294700D02*
Y9305300D01*
%TF.MD5,84eef63d91eb68784b3bf716122e1f2a*%
M02*
