%TF.GenerationSoftware,Altium Limited,Altium Designer,25.4.2 (15)*%
G04 Layer_Color=16777215*
%FSLAX45Y45*%
%MOMM*%
%TF.SameCoordinates,6791CEA5-0592-433A-98BD-FF1B9D05833A*%
%TF.FilePolarity,Positive*%
%TF.FileFunction,Legend,Top*%
%TF.Part,CustomerPanel*%
G01*
G75*
%TA.AperFunction,NonConductor*%
%ADD29C,0.10160*%
%ADD30C,0.12700*%
D29*
X3103000Y574700D02*
X3153000Y624700D01*
X2023000Y574700D02*
X3103000D01*
X1973000Y624700D02*
X2023000Y574700D01*
X3153000Y624700D02*
Y1724700D01*
X3103000Y1774700D02*
X3153000Y1724700D01*
X2023000Y1774700D02*
X3103000D01*
X1973000Y1724700D02*
X2023000Y1774700D01*
X1973000Y624700D02*
Y1724700D01*
X5953000Y574700D02*
X6003000Y624700D01*
X4873000Y574700D02*
X5953000D01*
X4823000Y624700D02*
X4873000Y574700D01*
X6003000Y624700D02*
Y1724700D01*
X5953000Y1774700D02*
X6003000Y1724700D01*
X4873000Y1774700D02*
X5953000D01*
X4823000Y1724700D02*
X4873000Y1774700D01*
X4823000Y624700D02*
Y1724700D01*
X8803000Y574700D02*
X8853000Y624700D01*
X7723000Y574700D02*
X8803000D01*
X7673000Y624700D02*
X7723000Y574700D01*
X8853000Y624700D02*
Y1724700D01*
X8803000Y1774700D02*
X8853000Y1724700D01*
X7723000Y1774700D02*
X8803000D01*
X7673000Y1724700D02*
X7723000Y1774700D01*
X7673000Y624700D02*
Y1724700D01*
X3103000Y2474700D02*
X3153000Y2524700D01*
X2023000Y2474700D02*
X3103000D01*
X1973000Y2524700D02*
X2023000Y2474700D01*
X3153000Y2524700D02*
Y3624700D01*
X3103000Y3674700D02*
X3153000Y3624700D01*
X2023000Y3674700D02*
X3103000D01*
X1973000Y3624700D02*
X2023000Y3674700D01*
X1973000Y2524700D02*
Y3624700D01*
X5953000Y2474700D02*
X6003000Y2524700D01*
X4873000Y2474700D02*
X5953000D01*
X4823000Y2524700D02*
X4873000Y2474700D01*
X6003000Y2524700D02*
Y3624700D01*
X5953000Y3674700D02*
X6003000Y3624700D01*
X4873000Y3674700D02*
X5953000D01*
X4823000Y3624700D02*
X4873000Y3674700D01*
X4823000Y2524700D02*
Y3624700D01*
X8803000Y2474700D02*
X8853000Y2524700D01*
X7723000Y2474700D02*
X8803000D01*
X7673000Y2524700D02*
X7723000Y2474700D01*
X8853000Y2524700D02*
Y3624700D01*
X8803000Y3674700D02*
X8853000Y3624700D01*
X7723000Y3674700D02*
X8803000D01*
X7673000Y3624700D02*
X7723000Y3674700D01*
X7673000Y2524700D02*
Y3624700D01*
X3103000Y4374700D02*
X3153000Y4424700D01*
X2023000Y4374700D02*
X3103000D01*
X1973000Y4424700D02*
X2023000Y4374700D01*
X3153000Y4424700D02*
Y5524700D01*
X3103000Y5574700D02*
X3153000Y5524700D01*
X2023000Y5574700D02*
X3103000D01*
X1973000Y5524700D02*
X2023000Y5574700D01*
X1973000Y4424700D02*
Y5524700D01*
X5953000Y4374700D02*
X6003000Y4424700D01*
X4873000Y4374700D02*
X5953000D01*
X4823000Y4424700D02*
X4873000Y4374700D01*
X6003000Y4424700D02*
Y5524700D01*
X5953000Y5574700D02*
X6003000Y5524700D01*
X4873000Y5574700D02*
X5953000D01*
X4823000Y5524700D02*
X4873000Y5574700D01*
X4823000Y4424700D02*
Y5524700D01*
X8803000Y4374700D02*
X8853000Y4424700D01*
X7723000Y4374700D02*
X8803000D01*
X7673000Y4424700D02*
X7723000Y4374700D01*
X8853000Y4424700D02*
Y5524700D01*
X8803000Y5574700D02*
X8853000Y5524700D01*
X7723000Y5574700D02*
X8803000D01*
X7673000Y5524700D02*
X7723000Y5574700D01*
X7673000Y4424700D02*
Y5524700D01*
X3103000Y6274700D02*
X3153000Y6324700D01*
X2023000Y6274700D02*
X3103000D01*
X1973000Y6324700D02*
X2023000Y6274700D01*
X3153000Y6324700D02*
Y7424700D01*
X3103000Y7474700D02*
X3153000Y7424700D01*
X2023000Y7474700D02*
X3103000D01*
X1973000Y7424700D02*
X2023000Y7474700D01*
X1973000Y6324700D02*
Y7424700D01*
X5953000Y6274700D02*
X6003000Y6324700D01*
X4873000Y6274700D02*
X5953000D01*
X4823000Y6324700D02*
X4873000Y6274700D01*
X6003000Y6324700D02*
Y7424700D01*
X5953000Y7474700D02*
X6003000Y7424700D01*
X4873000Y7474700D02*
X5953000D01*
X4823000Y7424700D02*
X4873000Y7474700D01*
X4823000Y6324700D02*
Y7424700D01*
X8803000Y6274700D02*
X8853000Y6324700D01*
X7723000Y6274700D02*
X8803000D01*
X7673000Y6324700D02*
X7723000Y6274700D01*
X8853000Y6324700D02*
Y7424700D01*
X8803000Y7474700D02*
X8853000Y7424700D01*
X7723000Y7474700D02*
X8803000D01*
X7673000Y7424700D02*
X7723000Y7474700D01*
X7673000Y6324700D02*
Y7424700D01*
X3103000Y8174700D02*
X3153000Y8224700D01*
X2023000Y8174700D02*
X3103000D01*
X1973000Y8224700D02*
X2023000Y8174700D01*
X3153000Y8224700D02*
Y9324700D01*
X3103000Y9374700D02*
X3153000Y9324700D01*
X2023000Y9374700D02*
X3103000D01*
X1973000Y9324700D02*
X2023000Y9374700D01*
X1973000Y8224700D02*
Y9324700D01*
X5953000Y8174700D02*
X6003000Y8224700D01*
X4873000Y8174700D02*
X5953000D01*
X4823000Y8224700D02*
X4873000Y8174700D01*
X6003000Y8224700D02*
Y9324700D01*
X5953000Y9374700D02*
X6003000Y9324700D01*
X4873000Y9374700D02*
X5953000D01*
X4823000Y9324700D02*
X4873000Y9374700D01*
X4823000Y8224700D02*
Y9324700D01*
X8803000Y8174700D02*
X8853000Y8224700D01*
X7723000Y8174700D02*
X8803000D01*
X7673000Y8224700D02*
X7723000Y8174700D01*
X8853000Y8224700D02*
Y9324700D01*
X8803000Y9374700D02*
X8853000Y9324700D01*
X7723000Y9374700D02*
X8803000D01*
X7673000Y9324700D02*
X7723000Y9374700D01*
X7673000Y8224700D02*
Y9324700D01*
D30*
X1861879Y851985D02*
X1811096D01*
Y877377D01*
X1819560Y885841D01*
X1836488D01*
X1844952Y877377D01*
Y851985D01*
Y868913D02*
X1861879Y885841D01*
X1811096Y928161D02*
Y911233D01*
X1819560Y902769D01*
X1853415D01*
X1861879Y911233D01*
Y928161D01*
X1853415Y936624D01*
X1819560D01*
X1811096Y928161D01*
Y953552D02*
Y987408D01*
Y970480D01*
X1861879D01*
Y1004336D02*
X1828024D01*
X1811096Y1021264D01*
X1828024Y1038191D01*
X1861879D01*
X1836488D01*
Y1004336D01*
X1861879Y1055119D02*
X1811096D01*
Y1080511D01*
X1819560Y1088975D01*
X1836488D01*
X1844952Y1080511D01*
Y1055119D01*
Y1072047D02*
X1861879Y1088975D01*
X1811096Y1105903D02*
X1819560D01*
X1836488Y1122831D01*
X1819560Y1139758D01*
X1811096D01*
X1836488Y1122831D02*
X1861879D01*
X1870343Y1156686D02*
Y1190542D01*
X1811096Y1241325D02*
Y1207470D01*
X1861879D01*
Y1241325D01*
X1836488Y1207470D02*
Y1224398D01*
X1861879Y1258253D02*
X1811096D01*
X1861879Y1292109D01*
X1811096D01*
X1819560Y1342892D02*
X1811096Y1334429D01*
Y1317501D01*
X1819560Y1309037D01*
X1853415D01*
X1861879Y1317501D01*
Y1334429D01*
X1853415Y1342892D01*
X1811096Y1385212D02*
Y1368284D01*
X1819560Y1359820D01*
X1853415D01*
X1861879Y1368284D01*
Y1385212D01*
X1853415Y1393676D01*
X1819560D01*
X1811096Y1385212D01*
Y1410604D02*
X1861879D01*
Y1435996D01*
X1853415Y1444459D01*
X1819560D01*
X1811096Y1435996D01*
Y1410604D01*
Y1495243D02*
Y1461387D01*
X1861879D01*
Y1495243D01*
X1836488Y1461387D02*
Y1478315D01*
X1861879Y1512171D02*
X1811096D01*
Y1537563D01*
X1819560Y1546026D01*
X1836488D01*
X1844952Y1537563D01*
Y1512171D01*
Y1529099D02*
X1861879Y1546026D01*
X4711879Y851985D02*
X4661096D01*
Y877377D01*
X4669560Y885841D01*
X4686487D01*
X4694951Y877377D01*
Y851985D01*
Y868913D02*
X4711879Y885841D01*
X4661096Y928161D02*
Y911233D01*
X4669560Y902769D01*
X4703415D01*
X4711879Y911233D01*
Y928161D01*
X4703415Y936624D01*
X4669560D01*
X4661096Y928161D01*
Y953552D02*
Y987408D01*
Y970480D01*
X4711879D01*
Y1004336D02*
X4678024D01*
X4661096Y1021264D01*
X4678024Y1038191D01*
X4711879D01*
X4686487D01*
Y1004336D01*
X4711879Y1055119D02*
X4661096D01*
Y1080511D01*
X4669560Y1088975D01*
X4686487D01*
X4694951Y1080511D01*
Y1055119D01*
Y1072047D02*
X4711879Y1088975D01*
X4661096Y1105903D02*
X4669560D01*
X4686487Y1122831D01*
X4669560Y1139758D01*
X4661096D01*
X4686487Y1122831D02*
X4711879D01*
X4720343Y1156686D02*
Y1190542D01*
X4661096Y1241325D02*
Y1207470D01*
X4711879D01*
Y1241325D01*
X4686487Y1207470D02*
Y1224398D01*
X4711879Y1258253D02*
X4661096D01*
X4711879Y1292109D01*
X4661096D01*
X4669560Y1342892D02*
X4661096Y1334429D01*
Y1317501D01*
X4669560Y1309037D01*
X4703415D01*
X4711879Y1317501D01*
Y1334429D01*
X4703415Y1342892D01*
X4661096Y1385212D02*
Y1368284D01*
X4669560Y1359820D01*
X4703415D01*
X4711879Y1368284D01*
Y1385212D01*
X4703415Y1393676D01*
X4669560D01*
X4661096Y1385212D01*
Y1410604D02*
X4711879D01*
Y1435996D01*
X4703415Y1444459D01*
X4669560D01*
X4661096Y1435996D01*
Y1410604D01*
Y1495243D02*
Y1461387D01*
X4711879D01*
Y1495243D01*
X4686487Y1461387D02*
Y1478315D01*
X4711879Y1512171D02*
X4661096D01*
Y1537563D01*
X4669560Y1546026D01*
X4686487D01*
X4694951Y1537563D01*
Y1512171D01*
Y1529099D02*
X4711879Y1546026D01*
X7561879Y851985D02*
X7511096D01*
Y877377D01*
X7519560Y885841D01*
X7536487D01*
X7544951Y877377D01*
Y851985D01*
Y868913D02*
X7561879Y885841D01*
X7511096Y928161D02*
Y911233D01*
X7519560Y902769D01*
X7553415D01*
X7561879Y911233D01*
Y928161D01*
X7553415Y936624D01*
X7519560D01*
X7511096Y928161D01*
Y953552D02*
Y987408D01*
Y970480D01*
X7561879D01*
Y1004336D02*
X7528024D01*
X7511096Y1021264D01*
X7528024Y1038191D01*
X7561879D01*
X7536487D01*
Y1004336D01*
X7561879Y1055119D02*
X7511096D01*
Y1080511D01*
X7519560Y1088975D01*
X7536487D01*
X7544951Y1080511D01*
Y1055119D01*
Y1072047D02*
X7561879Y1088975D01*
X7511096Y1105903D02*
X7519560D01*
X7536487Y1122831D01*
X7519560Y1139758D01*
X7511096D01*
X7536487Y1122831D02*
X7561879D01*
X7570343Y1156686D02*
Y1190542D01*
X7511096Y1241325D02*
Y1207470D01*
X7561879D01*
Y1241325D01*
X7536487Y1207470D02*
Y1224398D01*
X7561879Y1258253D02*
X7511096D01*
X7561879Y1292109D01*
X7511096D01*
X7519560Y1342892D02*
X7511096Y1334429D01*
Y1317501D01*
X7519560Y1309037D01*
X7553415D01*
X7561879Y1317501D01*
Y1334429D01*
X7553415Y1342892D01*
X7511096Y1385212D02*
Y1368284D01*
X7519560Y1359820D01*
X7553415D01*
X7561879Y1368284D01*
Y1385212D01*
X7553415Y1393676D01*
X7519560D01*
X7511096Y1385212D01*
Y1410604D02*
X7561879D01*
Y1435996D01*
X7553415Y1444459D01*
X7519560D01*
X7511096Y1435996D01*
Y1410604D01*
Y1495243D02*
Y1461387D01*
X7561879D01*
Y1495243D01*
X7536487Y1461387D02*
Y1478315D01*
X7561879Y1512171D02*
X7511096D01*
Y1537563D01*
X7519560Y1546026D01*
X7536487D01*
X7544951Y1537563D01*
Y1512171D01*
Y1529099D02*
X7561879Y1546026D01*
X1861879Y2751985D02*
X1811096D01*
Y2777377D01*
X1819560Y2785841D01*
X1836488D01*
X1844952Y2777377D01*
Y2751985D01*
Y2768913D02*
X1861879Y2785841D01*
X1811096Y2828161D02*
Y2811233D01*
X1819560Y2802769D01*
X1853415D01*
X1861879Y2811233D01*
Y2828161D01*
X1853415Y2836625D01*
X1819560D01*
X1811096Y2828161D01*
Y2853552D02*
Y2887408D01*
Y2870480D01*
X1861879D01*
Y2904336D02*
X1828024D01*
X1811096Y2921264D01*
X1828024Y2938191D01*
X1861879D01*
X1836488D01*
Y2904336D01*
X1861879Y2955119D02*
X1811096D01*
Y2980511D01*
X1819560Y2988975D01*
X1836488D01*
X1844952Y2980511D01*
Y2955119D01*
Y2972047D02*
X1861879Y2988975D01*
X1811096Y3005903D02*
X1819560D01*
X1836488Y3022831D01*
X1819560Y3039758D01*
X1811096D01*
X1836488Y3022831D02*
X1861879D01*
X1870343Y3056686D02*
Y3090542D01*
X1811096Y3141325D02*
Y3107470D01*
X1861879D01*
Y3141325D01*
X1836488Y3107470D02*
Y3124398D01*
X1861879Y3158253D02*
X1811096D01*
X1861879Y3192109D01*
X1811096D01*
X1819560Y3242892D02*
X1811096Y3234429D01*
Y3217501D01*
X1819560Y3209037D01*
X1853415D01*
X1861879Y3217501D01*
Y3234429D01*
X1853415Y3242892D01*
X1811096Y3285212D02*
Y3268284D01*
X1819560Y3259820D01*
X1853415D01*
X1861879Y3268284D01*
Y3285212D01*
X1853415Y3293676D01*
X1819560D01*
X1811096Y3285212D01*
Y3310604D02*
X1861879D01*
Y3335996D01*
X1853415Y3344459D01*
X1819560D01*
X1811096Y3335996D01*
Y3310604D01*
Y3395243D02*
Y3361387D01*
X1861879D01*
Y3395243D01*
X1836488Y3361387D02*
Y3378315D01*
X1861879Y3412171D02*
X1811096D01*
Y3437563D01*
X1819560Y3446026D01*
X1836488D01*
X1844952Y3437563D01*
Y3412171D01*
Y3429099D02*
X1861879Y3446026D01*
X4711879Y2751985D02*
X4661096D01*
Y2777377D01*
X4669560Y2785841D01*
X4686487D01*
X4694951Y2777377D01*
Y2751985D01*
Y2768913D02*
X4711879Y2785841D01*
X4661096Y2828161D02*
Y2811233D01*
X4669560Y2802769D01*
X4703415D01*
X4711879Y2811233D01*
Y2828161D01*
X4703415Y2836625D01*
X4669560D01*
X4661096Y2828161D01*
Y2853552D02*
Y2887408D01*
Y2870480D01*
X4711879D01*
Y2904336D02*
X4678024D01*
X4661096Y2921264D01*
X4678024Y2938191D01*
X4711879D01*
X4686487D01*
Y2904336D01*
X4711879Y2955119D02*
X4661096D01*
Y2980511D01*
X4669560Y2988975D01*
X4686487D01*
X4694951Y2980511D01*
Y2955119D01*
Y2972047D02*
X4711879Y2988975D01*
X4661096Y3005903D02*
X4669560D01*
X4686487Y3022831D01*
X4669560Y3039758D01*
X4661096D01*
X4686487Y3022831D02*
X4711879D01*
X4720343Y3056686D02*
Y3090542D01*
X4661096Y3141325D02*
Y3107470D01*
X4711879D01*
Y3141325D01*
X4686487Y3107470D02*
Y3124398D01*
X4711879Y3158253D02*
X4661096D01*
X4711879Y3192109D01*
X4661096D01*
X4669560Y3242892D02*
X4661096Y3234429D01*
Y3217501D01*
X4669560Y3209037D01*
X4703415D01*
X4711879Y3217501D01*
Y3234429D01*
X4703415Y3242892D01*
X4661096Y3285212D02*
Y3268284D01*
X4669560Y3259820D01*
X4703415D01*
X4711879Y3268284D01*
Y3285212D01*
X4703415Y3293676D01*
X4669560D01*
X4661096Y3285212D01*
Y3310604D02*
X4711879D01*
Y3335996D01*
X4703415Y3344459D01*
X4669560D01*
X4661096Y3335996D01*
Y3310604D01*
Y3395243D02*
Y3361387D01*
X4711879D01*
Y3395243D01*
X4686487Y3361387D02*
Y3378315D01*
X4711879Y3412171D02*
X4661096D01*
Y3437563D01*
X4669560Y3446026D01*
X4686487D01*
X4694951Y3437563D01*
Y3412171D01*
Y3429099D02*
X4711879Y3446026D01*
X7561879Y2751985D02*
X7511096D01*
Y2777377D01*
X7519560Y2785841D01*
X7536487D01*
X7544951Y2777377D01*
Y2751985D01*
Y2768913D02*
X7561879Y2785841D01*
X7511096Y2828161D02*
Y2811233D01*
X7519560Y2802769D01*
X7553415D01*
X7561879Y2811233D01*
Y2828161D01*
X7553415Y2836625D01*
X7519560D01*
X7511096Y2828161D01*
Y2853552D02*
Y2887408D01*
Y2870480D01*
X7561879D01*
Y2904336D02*
X7528024D01*
X7511096Y2921264D01*
X7528024Y2938191D01*
X7561879D01*
X7536487D01*
Y2904336D01*
X7561879Y2955119D02*
X7511096D01*
Y2980511D01*
X7519560Y2988975D01*
X7536487D01*
X7544951Y2980511D01*
Y2955119D01*
Y2972047D02*
X7561879Y2988975D01*
X7511096Y3005903D02*
X7519560D01*
X7536487Y3022831D01*
X7519560Y3039758D01*
X7511096D01*
X7536487Y3022831D02*
X7561879D01*
X7570343Y3056686D02*
Y3090542D01*
X7511096Y3141325D02*
Y3107470D01*
X7561879D01*
Y3141325D01*
X7536487Y3107470D02*
Y3124398D01*
X7561879Y3158253D02*
X7511096D01*
X7561879Y3192109D01*
X7511096D01*
X7519560Y3242892D02*
X7511096Y3234429D01*
Y3217501D01*
X7519560Y3209037D01*
X7553415D01*
X7561879Y3217501D01*
Y3234429D01*
X7553415Y3242892D01*
X7511096Y3285212D02*
Y3268284D01*
X7519560Y3259820D01*
X7553415D01*
X7561879Y3268284D01*
Y3285212D01*
X7553415Y3293676D01*
X7519560D01*
X7511096Y3285212D01*
Y3310604D02*
X7561879D01*
Y3335996D01*
X7553415Y3344459D01*
X7519560D01*
X7511096Y3335996D01*
Y3310604D01*
Y3395243D02*
Y3361387D01*
X7561879D01*
Y3395243D01*
X7536487Y3361387D02*
Y3378315D01*
X7561879Y3412171D02*
X7511096D01*
Y3437563D01*
X7519560Y3446026D01*
X7536487D01*
X7544951Y3437563D01*
Y3412171D01*
Y3429099D02*
X7561879Y3446026D01*
X1861879Y4651985D02*
X1811096D01*
Y4677377D01*
X1819560Y4685841D01*
X1836488D01*
X1844952Y4677377D01*
Y4651985D01*
Y4668913D02*
X1861879Y4685841D01*
X1811096Y4728161D02*
Y4711233D01*
X1819560Y4702769D01*
X1853415D01*
X1861879Y4711233D01*
Y4728161D01*
X1853415Y4736625D01*
X1819560D01*
X1811096Y4728161D01*
Y4753552D02*
Y4787408D01*
Y4770480D01*
X1861879D01*
Y4804336D02*
X1828024D01*
X1811096Y4821264D01*
X1828024Y4838191D01*
X1861879D01*
X1836488D01*
Y4804336D01*
X1861879Y4855119D02*
X1811096D01*
Y4880511D01*
X1819560Y4888975D01*
X1836488D01*
X1844952Y4880511D01*
Y4855119D01*
Y4872047D02*
X1861879Y4888975D01*
X1811096Y4905903D02*
X1819560D01*
X1836488Y4922831D01*
X1819560Y4939758D01*
X1811096D01*
X1836488Y4922831D02*
X1861879D01*
X1870343Y4956686D02*
Y4990542D01*
X1811096Y5041325D02*
Y5007470D01*
X1861879D01*
Y5041325D01*
X1836488Y5007470D02*
Y5024398D01*
X1861879Y5058253D02*
X1811096D01*
X1861879Y5092109D01*
X1811096D01*
X1819560Y5142892D02*
X1811096Y5134429D01*
Y5117501D01*
X1819560Y5109037D01*
X1853415D01*
X1861879Y5117501D01*
Y5134429D01*
X1853415Y5142892D01*
X1811096Y5185212D02*
Y5168284D01*
X1819560Y5159820D01*
X1853415D01*
X1861879Y5168284D01*
Y5185212D01*
X1853415Y5193676D01*
X1819560D01*
X1811096Y5185212D01*
Y5210604D02*
X1861879D01*
Y5235996D01*
X1853415Y5244459D01*
X1819560D01*
X1811096Y5235996D01*
Y5210604D01*
Y5295243D02*
Y5261387D01*
X1861879D01*
Y5295243D01*
X1836488Y5261387D02*
Y5278315D01*
X1861879Y5312171D02*
X1811096D01*
Y5337563D01*
X1819560Y5346026D01*
X1836488D01*
X1844952Y5337563D01*
Y5312171D01*
Y5329099D02*
X1861879Y5346026D01*
X4711879Y4651985D02*
X4661096D01*
Y4677377D01*
X4669560Y4685841D01*
X4686487D01*
X4694951Y4677377D01*
Y4651985D01*
Y4668913D02*
X4711879Y4685841D01*
X4661096Y4728161D02*
Y4711233D01*
X4669560Y4702769D01*
X4703415D01*
X4711879Y4711233D01*
Y4728161D01*
X4703415Y4736625D01*
X4669560D01*
X4661096Y4728161D01*
Y4753552D02*
Y4787408D01*
Y4770480D01*
X4711879D01*
Y4804336D02*
X4678024D01*
X4661096Y4821264D01*
X4678024Y4838191D01*
X4711879D01*
X4686487D01*
Y4804336D01*
X4711879Y4855119D02*
X4661096D01*
Y4880511D01*
X4669560Y4888975D01*
X4686487D01*
X4694951Y4880511D01*
Y4855119D01*
Y4872047D02*
X4711879Y4888975D01*
X4661096Y4905903D02*
X4669560D01*
X4686487Y4922831D01*
X4669560Y4939758D01*
X4661096D01*
X4686487Y4922831D02*
X4711879D01*
X4720343Y4956686D02*
Y4990542D01*
X4661096Y5041325D02*
Y5007470D01*
X4711879D01*
Y5041325D01*
X4686487Y5007470D02*
Y5024398D01*
X4711879Y5058253D02*
X4661096D01*
X4711879Y5092109D01*
X4661096D01*
X4669560Y5142892D02*
X4661096Y5134429D01*
Y5117501D01*
X4669560Y5109037D01*
X4703415D01*
X4711879Y5117501D01*
Y5134429D01*
X4703415Y5142892D01*
X4661096Y5185212D02*
Y5168284D01*
X4669560Y5159820D01*
X4703415D01*
X4711879Y5168284D01*
Y5185212D01*
X4703415Y5193676D01*
X4669560D01*
X4661096Y5185212D01*
Y5210604D02*
X4711879D01*
Y5235996D01*
X4703415Y5244459D01*
X4669560D01*
X4661096Y5235996D01*
Y5210604D01*
Y5295243D02*
Y5261387D01*
X4711879D01*
Y5295243D01*
X4686487Y5261387D02*
Y5278315D01*
X4711879Y5312171D02*
X4661096D01*
Y5337563D01*
X4669560Y5346026D01*
X4686487D01*
X4694951Y5337563D01*
Y5312171D01*
Y5329099D02*
X4711879Y5346026D01*
X7561879Y4651985D02*
X7511096D01*
Y4677377D01*
X7519560Y4685841D01*
X7536487D01*
X7544951Y4677377D01*
Y4651985D01*
Y4668913D02*
X7561879Y4685841D01*
X7511096Y4728161D02*
Y4711233D01*
X7519560Y4702769D01*
X7553415D01*
X7561879Y4711233D01*
Y4728161D01*
X7553415Y4736625D01*
X7519560D01*
X7511096Y4728161D01*
Y4753552D02*
Y4787408D01*
Y4770480D01*
X7561879D01*
Y4804336D02*
X7528024D01*
X7511096Y4821264D01*
X7528024Y4838191D01*
X7561879D01*
X7536487D01*
Y4804336D01*
X7561879Y4855119D02*
X7511096D01*
Y4880511D01*
X7519560Y4888975D01*
X7536487D01*
X7544951Y4880511D01*
Y4855119D01*
Y4872047D02*
X7561879Y4888975D01*
X7511096Y4905903D02*
X7519560D01*
X7536487Y4922831D01*
X7519560Y4939758D01*
X7511096D01*
X7536487Y4922831D02*
X7561879D01*
X7570343Y4956686D02*
Y4990542D01*
X7511096Y5041325D02*
Y5007470D01*
X7561879D01*
Y5041325D01*
X7536487Y5007470D02*
Y5024398D01*
X7561879Y5058253D02*
X7511096D01*
X7561879Y5092109D01*
X7511096D01*
X7519560Y5142892D02*
X7511096Y5134429D01*
Y5117501D01*
X7519560Y5109037D01*
X7553415D01*
X7561879Y5117501D01*
Y5134429D01*
X7553415Y5142892D01*
X7511096Y5185212D02*
Y5168284D01*
X7519560Y5159820D01*
X7553415D01*
X7561879Y5168284D01*
Y5185212D01*
X7553415Y5193676D01*
X7519560D01*
X7511096Y5185212D01*
Y5210604D02*
X7561879D01*
Y5235996D01*
X7553415Y5244459D01*
X7519560D01*
X7511096Y5235996D01*
Y5210604D01*
Y5295243D02*
Y5261387D01*
X7561879D01*
Y5295243D01*
X7536487Y5261387D02*
Y5278315D01*
X7561879Y5312171D02*
X7511096D01*
Y5337563D01*
X7519560Y5346026D01*
X7536487D01*
X7544951Y5337563D01*
Y5312171D01*
Y5329099D02*
X7561879Y5346026D01*
X1861879Y6551985D02*
X1811096D01*
Y6577377D01*
X1819560Y6585841D01*
X1836488D01*
X1844952Y6577377D01*
Y6551985D01*
Y6568913D02*
X1861879Y6585841D01*
X1811096Y6628161D02*
Y6611233D01*
X1819560Y6602769D01*
X1853415D01*
X1861879Y6611233D01*
Y6628161D01*
X1853415Y6636625D01*
X1819560D01*
X1811096Y6628161D01*
Y6653552D02*
Y6687408D01*
Y6670480D01*
X1861879D01*
Y6704336D02*
X1828024D01*
X1811096Y6721264D01*
X1828024Y6738192D01*
X1861879D01*
X1836488D01*
Y6704336D01*
X1861879Y6755119D02*
X1811096D01*
Y6780511D01*
X1819560Y6788975D01*
X1836488D01*
X1844952Y6780511D01*
Y6755119D01*
Y6772047D02*
X1861879Y6788975D01*
X1811096Y6805903D02*
X1819560D01*
X1836488Y6822831D01*
X1819560Y6839758D01*
X1811096D01*
X1836488Y6822831D02*
X1861879D01*
X1870343Y6856686D02*
Y6890542D01*
X1811096Y6941325D02*
Y6907470D01*
X1861879D01*
Y6941325D01*
X1836488Y6907470D02*
Y6924398D01*
X1861879Y6958253D02*
X1811096D01*
X1861879Y6992109D01*
X1811096D01*
X1819560Y7042892D02*
X1811096Y7034429D01*
Y7017501D01*
X1819560Y7009037D01*
X1853415D01*
X1861879Y7017501D01*
Y7034429D01*
X1853415Y7042892D01*
X1811096Y7085212D02*
Y7068284D01*
X1819560Y7059820D01*
X1853415D01*
X1861879Y7068284D01*
Y7085212D01*
X1853415Y7093676D01*
X1819560D01*
X1811096Y7085212D01*
Y7110604D02*
X1861879D01*
Y7135996D01*
X1853415Y7144459D01*
X1819560D01*
X1811096Y7135996D01*
Y7110604D01*
Y7195243D02*
Y7161387D01*
X1861879D01*
Y7195243D01*
X1836488Y7161387D02*
Y7178315D01*
X1861879Y7212171D02*
X1811096D01*
Y7237563D01*
X1819560Y7246026D01*
X1836488D01*
X1844952Y7237563D01*
Y7212171D01*
Y7229099D02*
X1861879Y7246026D01*
X4711879Y6551985D02*
X4661096D01*
Y6577377D01*
X4669560Y6585841D01*
X4686487D01*
X4694951Y6577377D01*
Y6551985D01*
Y6568913D02*
X4711879Y6585841D01*
X4661096Y6628161D02*
Y6611233D01*
X4669560Y6602769D01*
X4703415D01*
X4711879Y6611233D01*
Y6628161D01*
X4703415Y6636625D01*
X4669560D01*
X4661096Y6628161D01*
Y6653552D02*
Y6687408D01*
Y6670480D01*
X4711879D01*
Y6704336D02*
X4678024D01*
X4661096Y6721264D01*
X4678024Y6738192D01*
X4711879D01*
X4686487D01*
Y6704336D01*
X4711879Y6755119D02*
X4661096D01*
Y6780511D01*
X4669560Y6788975D01*
X4686487D01*
X4694951Y6780511D01*
Y6755119D01*
Y6772047D02*
X4711879Y6788975D01*
X4661096Y6805903D02*
X4669560D01*
X4686487Y6822831D01*
X4669560Y6839758D01*
X4661096D01*
X4686487Y6822831D02*
X4711879D01*
X4720343Y6856686D02*
Y6890542D01*
X4661096Y6941325D02*
Y6907470D01*
X4711879D01*
Y6941325D01*
X4686487Y6907470D02*
Y6924398D01*
X4711879Y6958253D02*
X4661096D01*
X4711879Y6992109D01*
X4661096D01*
X4669560Y7042892D02*
X4661096Y7034429D01*
Y7017501D01*
X4669560Y7009037D01*
X4703415D01*
X4711879Y7017501D01*
Y7034429D01*
X4703415Y7042892D01*
X4661096Y7085212D02*
Y7068284D01*
X4669560Y7059820D01*
X4703415D01*
X4711879Y7068284D01*
Y7085212D01*
X4703415Y7093676D01*
X4669560D01*
X4661096Y7085212D01*
Y7110604D02*
X4711879D01*
Y7135996D01*
X4703415Y7144459D01*
X4669560D01*
X4661096Y7135996D01*
Y7110604D01*
Y7195243D02*
Y7161387D01*
X4711879D01*
Y7195243D01*
X4686487Y7161387D02*
Y7178315D01*
X4711879Y7212171D02*
X4661096D01*
Y7237563D01*
X4669560Y7246026D01*
X4686487D01*
X4694951Y7237563D01*
Y7212171D01*
Y7229099D02*
X4711879Y7246026D01*
X7561879Y6551985D02*
X7511096D01*
Y6577377D01*
X7519560Y6585841D01*
X7536487D01*
X7544951Y6577377D01*
Y6551985D01*
Y6568913D02*
X7561879Y6585841D01*
X7511096Y6628161D02*
Y6611233D01*
X7519560Y6602769D01*
X7553415D01*
X7561879Y6611233D01*
Y6628161D01*
X7553415Y6636625D01*
X7519560D01*
X7511096Y6628161D01*
Y6653552D02*
Y6687408D01*
Y6670480D01*
X7561879D01*
Y6704336D02*
X7528024D01*
X7511096Y6721264D01*
X7528024Y6738192D01*
X7561879D01*
X7536487D01*
Y6704336D01*
X7561879Y6755119D02*
X7511096D01*
Y6780511D01*
X7519560Y6788975D01*
X7536487D01*
X7544951Y6780511D01*
Y6755119D01*
Y6772047D02*
X7561879Y6788975D01*
X7511096Y6805903D02*
X7519560D01*
X7536487Y6822831D01*
X7519560Y6839758D01*
X7511096D01*
X7536487Y6822831D02*
X7561879D01*
X7570343Y6856686D02*
Y6890542D01*
X7511096Y6941325D02*
Y6907470D01*
X7561879D01*
Y6941325D01*
X7536487Y6907470D02*
Y6924398D01*
X7561879Y6958253D02*
X7511096D01*
X7561879Y6992109D01*
X7511096D01*
X7519560Y7042892D02*
X7511096Y7034429D01*
Y7017501D01*
X7519560Y7009037D01*
X7553415D01*
X7561879Y7017501D01*
Y7034429D01*
X7553415Y7042892D01*
X7511096Y7085212D02*
Y7068284D01*
X7519560Y7059820D01*
X7553415D01*
X7561879Y7068284D01*
Y7085212D01*
X7553415Y7093676D01*
X7519560D01*
X7511096Y7085212D01*
Y7110604D02*
X7561879D01*
Y7135996D01*
X7553415Y7144459D01*
X7519560D01*
X7511096Y7135996D01*
Y7110604D01*
Y7195243D02*
Y7161387D01*
X7561879D01*
Y7195243D01*
X7536487Y7161387D02*
Y7178315D01*
X7561879Y7212171D02*
X7511096D01*
Y7237563D01*
X7519560Y7246026D01*
X7536487D01*
X7544951Y7237563D01*
Y7212171D01*
Y7229099D02*
X7561879Y7246026D01*
X1861879Y8451985D02*
X1811096D01*
Y8477377D01*
X1819560Y8485841D01*
X1836488D01*
X1844952Y8477377D01*
Y8451985D01*
Y8468913D02*
X1861879Y8485841D01*
X1811096Y8528161D02*
Y8511233D01*
X1819560Y8502769D01*
X1853415D01*
X1861879Y8511233D01*
Y8528161D01*
X1853415Y8536625D01*
X1819560D01*
X1811096Y8528161D01*
Y8553552D02*
Y8587408D01*
Y8570480D01*
X1861879D01*
Y8604336D02*
X1828024D01*
X1811096Y8621264D01*
X1828024Y8638192D01*
X1861879D01*
X1836488D01*
Y8604336D01*
X1861879Y8655119D02*
X1811096D01*
Y8680511D01*
X1819560Y8688975D01*
X1836488D01*
X1844952Y8680511D01*
Y8655119D01*
Y8672047D02*
X1861879Y8688975D01*
X1811096Y8705903D02*
X1819560D01*
X1836488Y8722831D01*
X1819560Y8739758D01*
X1811096D01*
X1836488Y8722831D02*
X1861879D01*
X1870343Y8756686D02*
Y8790542D01*
X1811096Y8841325D02*
Y8807470D01*
X1861879D01*
Y8841325D01*
X1836488Y8807470D02*
Y8824398D01*
X1861879Y8858253D02*
X1811096D01*
X1861879Y8892109D01*
X1811096D01*
X1819560Y8942892D02*
X1811096Y8934429D01*
Y8917501D01*
X1819560Y8909037D01*
X1853415D01*
X1861879Y8917501D01*
Y8934429D01*
X1853415Y8942892D01*
X1811096Y8985212D02*
Y8968284D01*
X1819560Y8959820D01*
X1853415D01*
X1861879Y8968284D01*
Y8985212D01*
X1853415Y8993676D01*
X1819560D01*
X1811096Y8985212D01*
Y9010604D02*
X1861879D01*
Y9035996D01*
X1853415Y9044459D01*
X1819560D01*
X1811096Y9035996D01*
Y9010604D01*
Y9095243D02*
Y9061387D01*
X1861879D01*
Y9095243D01*
X1836488Y9061387D02*
Y9078315D01*
X1861879Y9112171D02*
X1811096D01*
Y9137563D01*
X1819560Y9146026D01*
X1836488D01*
X1844952Y9137563D01*
Y9112171D01*
Y9129099D02*
X1861879Y9146026D01*
X4711879Y8451985D02*
X4661096D01*
Y8477377D01*
X4669560Y8485841D01*
X4686487D01*
X4694951Y8477377D01*
Y8451985D01*
Y8468913D02*
X4711879Y8485841D01*
X4661096Y8528161D02*
Y8511233D01*
X4669560Y8502769D01*
X4703415D01*
X4711879Y8511233D01*
Y8528161D01*
X4703415Y8536625D01*
X4669560D01*
X4661096Y8528161D01*
Y8553552D02*
Y8587408D01*
Y8570480D01*
X4711879D01*
Y8604336D02*
X4678024D01*
X4661096Y8621264D01*
X4678024Y8638192D01*
X4711879D01*
X4686487D01*
Y8604336D01*
X4711879Y8655119D02*
X4661096D01*
Y8680511D01*
X4669560Y8688975D01*
X4686487D01*
X4694951Y8680511D01*
Y8655119D01*
Y8672047D02*
X4711879Y8688975D01*
X4661096Y8705903D02*
X4669560D01*
X4686487Y8722831D01*
X4669560Y8739758D01*
X4661096D01*
X4686487Y8722831D02*
X4711879D01*
X4720343Y8756686D02*
Y8790542D01*
X4661096Y8841325D02*
Y8807470D01*
X4711879D01*
Y8841325D01*
X4686487Y8807470D02*
Y8824398D01*
X4711879Y8858253D02*
X4661096D01*
X4711879Y8892109D01*
X4661096D01*
X4669560Y8942892D02*
X4661096Y8934429D01*
Y8917501D01*
X4669560Y8909037D01*
X4703415D01*
X4711879Y8917501D01*
Y8934429D01*
X4703415Y8942892D01*
X4661096Y8985212D02*
Y8968284D01*
X4669560Y8959820D01*
X4703415D01*
X4711879Y8968284D01*
Y8985212D01*
X4703415Y8993676D01*
X4669560D01*
X4661096Y8985212D01*
Y9010604D02*
X4711879D01*
Y9035996D01*
X4703415Y9044459D01*
X4669560D01*
X4661096Y9035996D01*
Y9010604D01*
Y9095243D02*
Y9061387D01*
X4711879D01*
Y9095243D01*
X4686487Y9061387D02*
Y9078315D01*
X4711879Y9112171D02*
X4661096D01*
Y9137563D01*
X4669560Y9146026D01*
X4686487D01*
X4694951Y9137563D01*
Y9112171D01*
Y9129099D02*
X4711879Y9146026D01*
X7561879Y8451985D02*
X7511096D01*
Y8477377D01*
X7519560Y8485841D01*
X7536487D01*
X7544951Y8477377D01*
Y8451985D01*
Y8468913D02*
X7561879Y8485841D01*
X7511096Y8528161D02*
Y8511233D01*
X7519560Y8502769D01*
X7553415D01*
X7561879Y8511233D01*
Y8528161D01*
X7553415Y8536625D01*
X7519560D01*
X7511096Y8528161D01*
Y8553552D02*
Y8587408D01*
Y8570480D01*
X7561879D01*
Y8604336D02*
X7528024D01*
X7511096Y8621264D01*
X7528024Y8638192D01*
X7561879D01*
X7536487D01*
Y8604336D01*
X7561879Y8655119D02*
X7511096D01*
Y8680511D01*
X7519560Y8688975D01*
X7536487D01*
X7544951Y8680511D01*
Y8655119D01*
Y8672047D02*
X7561879Y8688975D01*
X7511096Y8705903D02*
X7519560D01*
X7536487Y8722831D01*
X7519560Y8739758D01*
X7511096D01*
X7536487Y8722831D02*
X7561879D01*
X7570343Y8756686D02*
Y8790542D01*
X7511096Y8841325D02*
Y8807470D01*
X7561879D01*
Y8841325D01*
X7536487Y8807470D02*
Y8824398D01*
X7561879Y8858253D02*
X7511096D01*
X7561879Y8892109D01*
X7511096D01*
X7519560Y8942892D02*
X7511096Y8934429D01*
Y8917501D01*
X7519560Y8909037D01*
X7553415D01*
X7561879Y8917501D01*
Y8934429D01*
X7553415Y8942892D01*
X7511096Y8985212D02*
Y8968284D01*
X7519560Y8959820D01*
X7553415D01*
X7561879Y8968284D01*
Y8985212D01*
X7553415Y8993676D01*
X7519560D01*
X7511096Y8985212D01*
Y9010604D02*
X7561879D01*
Y9035996D01*
X7553415Y9044459D01*
X7519560D01*
X7511096Y9035996D01*
Y9010604D01*
Y9095243D02*
Y9061387D01*
X7561879D01*
Y9095243D01*
X7536487Y9061387D02*
Y9078315D01*
X7561879Y9112171D02*
X7511096D01*
Y9137563D01*
X7519560Y9146026D01*
X7536487D01*
X7544951Y9137563D01*
Y9112171D01*
Y9129099D02*
X7561879Y9146026D01*
%TF.MD5,4b11d34aa8061a09e3004ab71ad27c83*%
M02*
