%TF.GenerationSoftware,Altium Limited,Altium Designer,25.4.2 (15)*%
G04 Layer_Color=8388736*
%FSLAX45Y45*%
%MOMM*%
%TF.SameCoordinates,6791CEA5-0592-433A-98BD-FF1B9D05833A*%
%TF.FilePolarity,Negative*%
%TF.FileFunction,Soldermask,Top*%
%TF.Part,CustomerPanel*%
G01*
G75*
%TA.AperFunction,ComponentPad*%
%ADD33O,2.35000X3.85000*%
G04:AMPARAMS|DCode=34|XSize=2.35mm|YSize=3.85mm|CornerRadius=1.175mm|HoleSize=0mm|Usage=FLASHONLY|Rotation=180.000|XOffset=0mm|YOffset=0mm|HoleType=Round|Shape=RoundedRectangle|*
%AMROUNDEDRECTD34*
21,1,2.35000,1.50000,0,0,180.0*
21,1,0.00000,3.85000,0,0,180.0*
1,1,2.35000,0.00000,0.75000*
1,1,2.35000,0.00000,0.75000*
1,1,2.35000,0.00000,-0.75000*
1,1,2.35000,0.00000,-0.75000*
%
%ADD34ROUNDEDRECTD34*%
%ADD35O,1.80000X1.10000*%
%ADD36O,1.80000X1.00000*%
%ADD37O,2.10000X1.00000*%
G04:AMPARAMS|DCode=38|XSize=1.2mm|YSize=1.2mm|CornerRadius=0.6mm|HoleSize=0mm|Usage=FLASHONLY|Rotation=90.000|XOffset=0mm|YOffset=0mm|HoleType=Round|Shape=RoundedRectangle|*
%AMROUNDEDRECTD38*
21,1,1.20000,0.00000,0,0,90.0*
21,1,0.00000,1.20000,0,0,90.0*
1,1,1.20000,0.00000,0.00000*
1,1,1.20000,0.00000,0.00000*
1,1,1.20000,0.00000,0.00000*
1,1,1.20000,0.00000,0.00000*
%
%ADD38ROUNDEDRECTD38*%
D33*
X2025500Y1174700D02*
D03*
X4875500D02*
D03*
X7725500D02*
D03*
X2025500Y3074700D02*
D03*
X4875500D02*
D03*
X7725500D02*
D03*
X2025500Y4974700D02*
D03*
X4875500D02*
D03*
X7725500D02*
D03*
X2025500Y6874700D02*
D03*
X4875500D02*
D03*
X7725500D02*
D03*
X2025500Y8774700D02*
D03*
X4875500D02*
D03*
X7725500D02*
D03*
D34*
X3100500Y1174700D02*
D03*
X5950500D02*
D03*
X8800500D02*
D03*
X3100500Y3074700D02*
D03*
X5950500D02*
D03*
X8800500D02*
D03*
X3100500Y4974700D02*
D03*
X5950500D02*
D03*
X8800500D02*
D03*
X3100500Y6874700D02*
D03*
X5950500D02*
D03*
X8800500D02*
D03*
X3100500Y8774700D02*
D03*
X5950500D02*
D03*
X8800500D02*
D03*
D35*
X2313000Y474700D02*
D03*
X2813000D02*
D03*
X2563000Y1924700D02*
D03*
X2313000D02*
D03*
X2813000D02*
D03*
X5163000Y474700D02*
D03*
X5663000D02*
D03*
X5413000Y1924700D02*
D03*
X5163000D02*
D03*
X5663000D02*
D03*
X8013000Y474700D02*
D03*
X8513000D02*
D03*
X8263000Y1924700D02*
D03*
X8013000D02*
D03*
X8513000D02*
D03*
X2313000Y2374700D02*
D03*
X2813000D02*
D03*
X2563000Y3824700D02*
D03*
X2313000D02*
D03*
X2813000D02*
D03*
X5163000Y2374700D02*
D03*
X5663000D02*
D03*
X5413000Y3824700D02*
D03*
X5163000D02*
D03*
X5663000D02*
D03*
X8013000Y2374700D02*
D03*
X8513000D02*
D03*
X8263000Y3824700D02*
D03*
X8013000D02*
D03*
X8513000D02*
D03*
X2313000Y4274700D02*
D03*
X2813000D02*
D03*
X2563000Y5724700D02*
D03*
X2313000D02*
D03*
X2813000D02*
D03*
X5163000Y4274700D02*
D03*
X5663000D02*
D03*
X5413000Y5724700D02*
D03*
X5163000D02*
D03*
X5663000D02*
D03*
X8013000Y4274700D02*
D03*
X8513000D02*
D03*
X8263000Y5724700D02*
D03*
X8013000D02*
D03*
X8513000D02*
D03*
X2313000Y6174700D02*
D03*
X2813000D02*
D03*
X2563000Y7624700D02*
D03*
X2313000D02*
D03*
X2813000D02*
D03*
X5163000Y6174700D02*
D03*
X5663000D02*
D03*
X5413000Y7624700D02*
D03*
X5163000D02*
D03*
X5663000D02*
D03*
X8013000Y6174700D02*
D03*
X8513000D02*
D03*
X8263000Y7624700D02*
D03*
X8013000D02*
D03*
X8513000D02*
D03*
X2313000Y8074700D02*
D03*
X2813000D02*
D03*
X2563000Y9524700D02*
D03*
X2313000D02*
D03*
X2813000D02*
D03*
X5163000Y8074700D02*
D03*
X5663000D02*
D03*
X5413000Y9524700D02*
D03*
X5163000D02*
D03*
X5663000D02*
D03*
X8013000Y8074700D02*
D03*
X8513000D02*
D03*
X8263000Y9524700D02*
D03*
X8013000D02*
D03*
X8513000D02*
D03*
D36*
X1328542Y1632000D02*
D03*
Y768000D02*
D03*
X4178542Y1632000D02*
D03*
Y768000D02*
D03*
X7028542Y1632000D02*
D03*
Y768000D02*
D03*
X1328542Y3532000D02*
D03*
Y2668000D02*
D03*
X4178542Y3532000D02*
D03*
Y2668000D02*
D03*
X7028542Y3532000D02*
D03*
Y2668000D02*
D03*
X1328542Y5432000D02*
D03*
Y4568000D02*
D03*
X4178542Y5432000D02*
D03*
Y4568000D02*
D03*
X7028542Y5432000D02*
D03*
Y4568000D02*
D03*
X1328542Y7332000D02*
D03*
Y6468000D02*
D03*
X4178542Y7332000D02*
D03*
Y6468000D02*
D03*
X7028542Y7332000D02*
D03*
Y6468000D02*
D03*
X1328542Y9232000D02*
D03*
Y8368000D02*
D03*
X4178542Y9232000D02*
D03*
Y8368000D02*
D03*
X7028542Y9232000D02*
D03*
Y8368000D02*
D03*
D37*
X1766542Y1632000D02*
D03*
Y768000D02*
D03*
X4616542Y1632000D02*
D03*
Y768000D02*
D03*
X7466542Y1632000D02*
D03*
Y768000D02*
D03*
X1766542Y3532000D02*
D03*
Y2668000D02*
D03*
X4616542Y3532000D02*
D03*
Y2668000D02*
D03*
X7466542Y3532000D02*
D03*
Y2668000D02*
D03*
X1766542Y5432000D02*
D03*
Y4568000D02*
D03*
X4616542Y5432000D02*
D03*
Y4568000D02*
D03*
X7466542Y5432000D02*
D03*
Y4568000D02*
D03*
X1766542Y7332000D02*
D03*
Y6468000D02*
D03*
X4616542Y7332000D02*
D03*
Y6468000D02*
D03*
X7466542Y7332000D02*
D03*
Y6468000D02*
D03*
X1766542Y9232000D02*
D03*
Y8368000D02*
D03*
X4616542Y9232000D02*
D03*
Y8368000D02*
D03*
X7466542Y9232000D02*
D03*
Y8368000D02*
D03*
D38*
X3026041Y763506D02*
D03*
X2870500Y1263028D02*
D03*
X2333953Y763506D02*
D03*
X5876041D02*
D03*
X5720500Y1263028D02*
D03*
X5183953Y763506D02*
D03*
X8726041D02*
D03*
X8570500Y1263028D02*
D03*
X8033953Y763506D02*
D03*
X3026041Y2663506D02*
D03*
X2870500Y3163028D02*
D03*
X2333953Y2663506D02*
D03*
X5876041D02*
D03*
X5720500Y3163028D02*
D03*
X5183953Y2663506D02*
D03*
X8726041D02*
D03*
X8570500Y3163028D02*
D03*
X8033953Y2663506D02*
D03*
X3026041Y4563506D02*
D03*
X2870500Y5063028D02*
D03*
X2333953Y4563506D02*
D03*
X5876041D02*
D03*
X5720500Y5063028D02*
D03*
X5183953Y4563506D02*
D03*
X8726041D02*
D03*
X8570500Y5063028D02*
D03*
X8033953Y4563506D02*
D03*
X3026041Y6463507D02*
D03*
X2870500Y6963028D02*
D03*
X2333953Y6463507D02*
D03*
X5876041D02*
D03*
X5720500Y6963028D02*
D03*
X5183953Y6463507D02*
D03*
X8726041D02*
D03*
X8570500Y6963028D02*
D03*
X8033953Y6463507D02*
D03*
X3026041Y8363507D02*
D03*
X2870500Y8863028D02*
D03*
X2333953Y8363507D02*
D03*
X5876041D02*
D03*
X5720500Y8863028D02*
D03*
X5183953Y8363507D02*
D03*
X8726041D02*
D03*
X8570500Y8863028D02*
D03*
X8033953Y8363507D02*
D03*
%TF.MD5,faf79be887ed020f3b59531892748be2*%
M02*
