M48
;Layer_Color=0
;FILE_FORMAT=4:4
METRIC
;TYPE=PLATED
T1F00S00C0.3500
T3F00S00C0.8000
%
T01
X00024622Y00032294
X00086393Y00053646
Y00060906
X00103123
Y00053646
X00134429Y00044908
X00126539Y00014739
X00118181Y00103522
X00134877Y00106700
X00163228
Y00098923
X00171110
Y00106700
Y00114477
X00163228
X00123698Y00134641
X00115681Y00128589
X00034083Y00130574
X00009144Y00112268
X00050752Y00095504
T03
X00174880Y00010668
Y00036068
Y00061468
M30
