%TF.GenerationSoftware,Altium Limited,Altium Designer,20.1.8 (145)*%
G04 Layer_Physical_Order=2*
G04 Layer_Color=16729670*
%FSLAX45Y45*%
%MOMM*%
%TF.SameCoordinates,CA905C98-E8E4-4B69-B290-3362CF0B177B*%
%TF.FilePolarity,Positive*%
%TF.FileFunction,Copper,L2,Bot,Signal*%
%TF.Part,Single*%
G01*
G75*
%TA.AperFunction,ComponentPad*%
G04:AMPARAMS|DCode=10|XSize=1.1mm|YSize=1.4mm|CornerRadius=0.55mm|HoleSize=0mm|Usage=FLASHONLY|Rotation=270.000|XOffset=0mm|YOffset=0mm|HoleType=Round|Shape=RoundedRectangle|*
%AMROUNDEDRECTD10*
21,1,1.10000,0.30000,0,0,270.0*
21,1,0.00000,1.40000,0,0,270.0*
1,1,1.10000,-0.15000,0.00000*
1,1,1.10000,-0.15000,0.00000*
1,1,1.10000,0.15000,0.00000*
1,1,1.10000,0.15000,0.00000*
%
%ADD10ROUNDEDRECTD10*%
G04:AMPARAMS|DCode=11|XSize=2.25mm|YSize=3.75mm|CornerRadius=1.125mm|HoleSize=0mm|Usage=FLASHONLY|Rotation=180.000|XOffset=0mm|YOffset=0mm|HoleType=Round|Shape=RoundedRectangle|*
%AMROUNDEDRECTD11*
21,1,2.25000,1.50000,0,0,180.0*
21,1,0.00000,3.75000,0,0,180.0*
1,1,2.25000,0.00000,0.75000*
1,1,2.25000,0.00000,0.75000*
1,1,2.25000,0.00000,-0.75000*
1,1,2.25000,0.00000,-0.75000*
%
%ADD11ROUNDEDRECTD11*%
%ADD12O,2.25000X3.75000*%
%ADD13O,1.70000X1.00000*%
%ADD14O,2.00000X1.50000*%
%TA.AperFunction,ViaPad*%
%ADD15C,0.61000*%
%TA.AperFunction,SMDPad,CuDef*%
G04:AMPARAMS|DCode=16|XSize=0.4mm|YSize=0.3mm|CornerRadius=0.0015mm|HoleSize=0mm|Usage=FLASHONLY|Rotation=270.000|XOffset=0mm|YOffset=0mm|HoleType=Round|Shape=RoundedRectangle|*
%AMROUNDEDRECTD16*
21,1,0.40000,0.29700,0,0,270.0*
21,1,0.39700,0.30000,0,0,270.0*
1,1,0.00300,-0.14850,-0.19850*
1,1,0.00300,-0.14850,0.19850*
1,1,0.00300,0.14850,0.19850*
1,1,0.00300,0.14850,-0.19850*
%
%ADD16ROUNDEDRECTD16*%
G04:AMPARAMS|DCode=17|XSize=0.85mm|YSize=1.4mm|CornerRadius=0.00425mm|HoleSize=0mm|Usage=FLASHONLY|Rotation=180.000|XOffset=0mm|YOffset=0mm|HoleType=Round|Shape=RoundedRectangle|*
%AMROUNDEDRECTD17*
21,1,0.85000,1.39150,0,0,180.0*
21,1,0.84150,1.40000,0,0,180.0*
1,1,0.00850,-0.42075,0.69575*
1,1,0.00850,0.42075,0.69575*
1,1,0.00850,0.42075,-0.69575*
1,1,0.00850,-0.42075,-0.69575*
%
%ADD17ROUNDEDRECTD17*%
%TA.AperFunction,ConnectorPad*%
G04:AMPARAMS|DCode=18|XSize=0.8mm|YSize=0.7mm|CornerRadius=0.0035mm|HoleSize=0mm|Usage=FLASHONLY|Rotation=90.000|XOffset=0mm|YOffset=0mm|HoleType=Round|Shape=RoundedRectangle|*
%AMROUNDEDRECTD18*
21,1,0.80000,0.69300,0,0,90.0*
21,1,0.79300,0.70000,0,0,90.0*
1,1,0.00700,0.34650,0.39650*
1,1,0.00700,0.34650,-0.39650*
1,1,0.00700,-0.34650,-0.39650*
1,1,0.00700,-0.34650,0.39650*
%
%ADD18ROUNDEDRECTD18*%
%TA.AperFunction,SMDPad,CuDef*%
G04:AMPARAMS|DCode=19|XSize=0.85mm|YSize=0.75mm|CornerRadius=0.00375mm|HoleSize=0mm|Usage=FLASHONLY|Rotation=90.000|XOffset=0mm|YOffset=0mm|HoleType=Round|Shape=RoundedRectangle|*
%AMROUNDEDRECTD19*
21,1,0.85000,0.74250,0,0,90.0*
21,1,0.84250,0.75000,0,0,90.0*
1,1,0.00750,0.37125,0.42125*
1,1,0.00750,0.37125,-0.42125*
1,1,0.00750,-0.37125,-0.42125*
1,1,0.00750,-0.37125,0.42125*
%
%ADD19ROUNDEDRECTD19*%
%TA.AperFunction,ConnectorPad*%
G04:AMPARAMS|DCode=20|XSize=0.85mm|YSize=0.75mm|CornerRadius=0.00375mm|HoleSize=0mm|Usage=FLASHONLY|Rotation=0.000|XOffset=0mm|YOffset=0mm|HoleType=Round|Shape=RoundedRectangle|*
%AMROUNDEDRECTD20*
21,1,0.85000,0.74250,0,0,0.0*
21,1,0.84250,0.75000,0,0,0.0*
1,1,0.00750,0.42125,-0.37125*
1,1,0.00750,-0.42125,-0.37125*
1,1,0.00750,-0.42125,0.37125*
1,1,0.00750,0.42125,0.37125*
%
%ADD20ROUNDEDRECTD20*%
%TA.AperFunction,SMDPad,CuDef*%
G04:AMPARAMS|DCode=21|XSize=0.8mm|YSize=0.7mm|CornerRadius=0.0035mm|HoleSize=0mm|Usage=FLASHONLY|Rotation=90.000|XOffset=0mm|YOffset=0mm|HoleType=Round|Shape=RoundedRectangle|*
%AMROUNDEDRECTD21*
21,1,0.80000,0.69300,0,0,90.0*
21,1,0.79300,0.70000,0,0,90.0*
1,1,0.00700,0.34650,0.39650*
1,1,0.00700,0.34650,-0.39650*
1,1,0.00700,-0.34650,-0.39650*
1,1,0.00700,-0.34650,0.39650*
%
%ADD21ROUNDEDRECTD21*%
G04:AMPARAMS|DCode=22|XSize=0.85mm|YSize=0.75mm|CornerRadius=0.00375mm|HoleSize=0mm|Usage=FLASHONLY|Rotation=0.000|XOffset=0mm|YOffset=0mm|HoleType=Round|Shape=RoundedRectangle|*
%AMROUNDEDRECTD22*
21,1,0.85000,0.74250,0,0,0.0*
21,1,0.84250,0.75000,0,0,0.0*
1,1,0.00750,0.42125,-0.37125*
1,1,0.00750,-0.42125,-0.37125*
1,1,0.00750,-0.42125,0.37125*
1,1,0.00750,0.42125,0.37125*
%
%ADD22ROUNDEDRECTD22*%
%ADD23O,1.05000X0.60000*%
%TA.AperFunction,ConnectorPad*%
G04:AMPARAMS|DCode=24|XSize=2.1mm|YSize=1.6mm|CornerRadius=0.008mm|HoleSize=0mm|Usage=FLASHONLY|Rotation=270.000|XOffset=0mm|YOffset=0mm|HoleType=Round|Shape=RoundedRectangle|*
%AMROUNDEDRECTD24*
21,1,2.10000,1.58400,0,0,270.0*
21,1,2.08400,1.60000,0,0,270.0*
1,1,0.01600,-0.79200,-1.04200*
1,1,0.01600,-0.79200,1.04200*
1,1,0.01600,0.79200,1.04200*
1,1,0.01600,0.79200,-1.04200*
%
%ADD24ROUNDEDRECTD24*%
G04:AMPARAMS|DCode=25|XSize=0.35mm|YSize=2mm|CornerRadius=0.175mm|HoleSize=0mm|Usage=FLASHONLY|Rotation=270.000|XOffset=0mm|YOffset=0mm|HoleType=Round|Shape=RoundedRectangle|*
%AMROUNDEDRECTD25*
21,1,0.35000,1.65000,0,0,270.0*
21,1,0.00000,2.00000,0,0,270.0*
1,1,0.35000,-0.82500,0.00000*
1,1,0.35000,-0.82500,0.00000*
1,1,0.35000,0.82500,0.00000*
1,1,0.35000,0.82500,0.00000*
%
%ADD25ROUNDEDRECTD25*%
%TA.AperFunction,SMDPad,CuDef*%
G04:AMPARAMS|DCode=26|XSize=0.4mm|YSize=0.3mm|CornerRadius=0.0015mm|HoleSize=0mm|Usage=FLASHONLY|Rotation=180.000|XOffset=0mm|YOffset=0mm|HoleType=Round|Shape=RoundedRectangle|*
%AMROUNDEDRECTD26*
21,1,0.40000,0.29700,0,0,180.0*
21,1,0.39700,0.30000,0,0,180.0*
1,1,0.00300,-0.19850,0.14850*
1,1,0.00300,0.19850,0.14850*
1,1,0.00300,0.19850,-0.14850*
1,1,0.00300,-0.19850,-0.14850*
%
%ADD26ROUNDEDRECTD26*%
%TA.AperFunction,Conductor*%
%ADD27C,0.12700*%
%ADD28C,0.15240*%
G36*
X1883167Y16833D02*
X517746D01*
X514216Y21482D01*
X510910Y32073D01*
X518987Y42599D01*
X525561Y58469D01*
X527803Y75500D01*
X525561Y92531D01*
X518987Y108401D01*
X508529Y122029D01*
X494901Y132487D01*
X479031Y139061D01*
X462000Y141303D01*
X392000D01*
X374969Y139061D01*
X359099Y132487D01*
X345470Y122029D01*
X335013Y108401D01*
X330503Y97513D01*
X291765D01*
Y140550D01*
X290555Y146633D01*
X287109Y151790D01*
X281952Y155235D01*
X275870Y156445D01*
X206570D01*
X200487Y155235D01*
X195330Y151790D01*
X191885Y146633D01*
X190674Y140550D01*
Y61250D01*
X191885Y55167D01*
X195330Y50010D01*
X200487Y46565D01*
X206570Y45355D01*
X275870D01*
X281952Y46565D01*
X287109Y50010D01*
X289432Y53487D01*
X330503D01*
X335013Y42599D01*
X343089Y32073D01*
X339784Y21482D01*
X336253Y16833D01*
X16833D01*
Y1583167D01*
X335642D01*
X337310Y1581277D01*
X342322Y1567927D01*
X335013Y1558402D01*
X330503Y1547513D01*
X285127D01*
X282110Y1552030D01*
X276953Y1555475D01*
X270870Y1556685D01*
X201570D01*
X195487Y1555475D01*
X190330Y1552030D01*
X186885Y1546873D01*
X185675Y1540790D01*
Y1461490D01*
X186885Y1455407D01*
X190330Y1450250D01*
X195487Y1446805D01*
X201570Y1445595D01*
X270870D01*
X276953Y1446805D01*
X282110Y1450250D01*
X285555Y1455407D01*
X286765Y1461490D01*
Y1503487D01*
X330503D01*
X335013Y1492599D01*
X345470Y1478971D01*
X359099Y1468513D01*
X374969Y1461939D01*
X392000Y1459697D01*
X462000D01*
X479031Y1461939D01*
X494901Y1468513D01*
X508529Y1478971D01*
X518987Y1492599D01*
X525561Y1508469D01*
X527803Y1525500D01*
X525561Y1542531D01*
X518987Y1558402D01*
X511678Y1567927D01*
X516690Y1581277D01*
X518358Y1583167D01*
X835642D01*
X837310Y1581277D01*
X842322Y1567927D01*
X835013Y1558402D01*
X828439Y1542531D01*
X826197Y1525500D01*
X828439Y1508469D01*
X834304Y1494311D01*
X805508Y1465515D01*
X802105D01*
X801964Y1465543D01*
X732664D01*
X726581Y1464333D01*
X721425Y1460887D01*
X717979Y1455730D01*
X716769Y1449648D01*
Y1370348D01*
X717979Y1364265D01*
X721425Y1359108D01*
X726581Y1355663D01*
X732664Y1354452D01*
X801964D01*
X808047Y1355663D01*
X813204Y1359108D01*
X816649Y1364265D01*
X817859Y1370348D01*
Y1419436D01*
X824082Y1420674D01*
X831643Y1425726D01*
X869940Y1464022D01*
X874969Y1461939D01*
X892000Y1459697D01*
X962000D01*
X979031Y1461939D01*
X994901Y1468513D01*
X1008529Y1478971D01*
X1018987Y1492599D01*
X1025561Y1508469D01*
X1027803Y1525500D01*
X1025561Y1542531D01*
X1018987Y1558402D01*
X1011678Y1567927D01*
X1016690Y1581277D01*
X1018358Y1583167D01*
X1883167D01*
Y16833D01*
D02*
G37*
%LPC*%
G36*
X377955Y1442644D02*
X348450D01*
Y1392215D01*
X393875D01*
Y1426723D01*
X392663Y1432816D01*
X389212Y1437980D01*
X384047Y1441432D01*
X377955Y1442644D01*
D02*
G37*
G36*
X333210D02*
X303704D01*
X297612Y1441432D01*
X292447Y1437980D01*
X288995Y1432816D01*
X287784Y1426723D01*
Y1392215D01*
X333210D01*
Y1442644D01*
D02*
G37*
G36*
X1170379Y1378989D02*
X1163155D01*
Y1350098D01*
X1187037D01*
Y1362331D01*
X1182158Y1374110D01*
X1170379Y1378989D01*
D02*
G37*
G36*
X1147915D02*
X1140679D01*
X1128900Y1374110D01*
X1124021Y1362331D01*
Y1350098D01*
X1147915D01*
Y1378989D01*
D02*
G37*
G36*
X393875Y1376975D02*
X348450D01*
Y1326552D01*
X377955D01*
X384047Y1327764D01*
X389212Y1331215D01*
X392663Y1336380D01*
X393875Y1342473D01*
Y1376975D01*
D02*
G37*
G36*
X333210D02*
X287784D01*
Y1342473D01*
X288995Y1336380D01*
X292447Y1331215D01*
X297612Y1327764D01*
X303704Y1326552D01*
X333210D01*
Y1376975D01*
D02*
G37*
G36*
X1773800Y1506019D02*
X1723800D01*
X1700243Y1502917D01*
X1678291Y1493824D01*
X1659440Y1479360D01*
X1644976Y1460509D01*
X1635883Y1438557D01*
X1632781Y1415000D01*
X1635883Y1391443D01*
X1644976Y1369491D01*
X1659440Y1350640D01*
X1678291Y1336176D01*
X1700243Y1327083D01*
X1723800Y1323981D01*
X1773800D01*
X1797358Y1327083D01*
X1819310Y1336176D01*
X1838160Y1350640D01*
X1852625Y1369491D01*
X1861718Y1391443D01*
X1864819Y1415000D01*
X1861718Y1438557D01*
X1852625Y1460509D01*
X1838160Y1479360D01*
X1819310Y1493824D01*
X1797358Y1502917D01*
X1773800Y1506019D01*
D02*
G37*
G36*
X1187037Y1334858D02*
X1163155D01*
Y1305973D01*
X1170379D01*
X1182158Y1310852D01*
X1187037Y1322631D01*
Y1334858D01*
D02*
G37*
G36*
X1147915D02*
X1124021D01*
Y1322631D01*
X1128900Y1310852D01*
X1140679Y1305973D01*
X1147915D01*
Y1334858D01*
D02*
G37*
G36*
X1145515Y1566987D02*
X1061365D01*
X1055253Y1565771D01*
X1050071Y1562309D01*
X1046609Y1557127D01*
X1045393Y1551015D01*
Y1411865D01*
X1046609Y1405753D01*
X1047301Y1404717D01*
Y1378123D01*
X864174D01*
X855255Y1376349D01*
X847693Y1371296D01*
X711826Y1235428D01*
X706773Y1227867D01*
X704999Y1218947D01*
Y576592D01*
X706773Y567672D01*
X711826Y560111D01*
X841377Y430559D01*
X848939Y425506D01*
X857858Y423732D01*
X886844D01*
X893064Y414424D01*
X908028Y404425D01*
X925680Y400914D01*
X970680D01*
X988332Y404425D01*
X1003296Y414424D01*
X1009516Y423732D01*
X1063398D01*
Y406954D01*
X1064610Y400862D01*
X1068061Y395697D01*
X1073226Y392245D01*
X1079318Y391034D01*
X1153569D01*
X1159661Y392245D01*
X1164826Y395697D01*
X1168278Y400862D01*
X1169489Y406954D01*
Y491205D01*
X1168278Y497297D01*
X1164826Y502462D01*
X1159661Y505913D01*
X1153569Y507125D01*
X1079318D01*
X1073226Y505913D01*
X1068061Y502462D01*
X1064610Y497297D01*
X1063398Y491205D01*
Y470348D01*
X1009516D01*
X1003296Y479656D01*
X988332Y489655D01*
X970680Y493166D01*
X925680D01*
X908028Y489655D01*
X893064Y479656D01*
X886844Y470348D01*
X867513D01*
X751614Y586246D01*
Y1209293D01*
X873829Y1331507D01*
X1034021D01*
Y1322631D01*
X1038900Y1310852D01*
X1050679Y1305973D01*
X1080379D01*
X1092158Y1310852D01*
X1097037Y1322631D01*
Y1362331D01*
X1093917Y1369863D01*
Y1395893D01*
X1145515D01*
X1151627Y1397109D01*
X1156809Y1400571D01*
X1160271Y1405753D01*
X1161487Y1411865D01*
Y1551015D01*
X1160271Y1557127D01*
X1156809Y1562309D01*
X1151627Y1565771D01*
X1145515Y1566987D01*
D02*
G37*
G36*
X1256830Y1326033D02*
X1244600D01*
Y1302145D01*
X1273488D01*
Y1309375D01*
X1268609Y1321154D01*
X1256830Y1326033D01*
D02*
G37*
G36*
X1229360D02*
X1217130D01*
X1205351Y1321154D01*
X1200472Y1309375D01*
Y1302145D01*
X1229360D01*
Y1326033D01*
D02*
G37*
G36*
X1273488Y1286905D02*
X1244600D01*
Y1263017D01*
X1256830D01*
X1268609Y1267896D01*
X1273488Y1279675D01*
Y1286905D01*
D02*
G37*
G36*
X1229360D02*
X1200472D01*
Y1279675D01*
X1205351Y1267896D01*
X1217130Y1263017D01*
X1229360D01*
Y1286905D01*
D02*
G37*
G36*
X1355515Y1566987D02*
X1271365D01*
X1265253Y1565771D01*
X1260071Y1562309D01*
X1256609Y1557127D01*
X1255393Y1551015D01*
Y1411865D01*
X1256609Y1405753D01*
X1260071Y1400571D01*
X1265253Y1397109D01*
X1271365Y1395893D01*
X1319443D01*
Y1276879D01*
X1321217Y1267960D01*
X1326270Y1260398D01*
X1341149Y1245519D01*
X1348711Y1240466D01*
X1357630Y1238692D01*
X1363609D01*
X1369988Y1223452D01*
X1365614Y1219013D01*
X1304423D01*
X1303345Y1220090D01*
X1296204Y1224862D01*
X1287780Y1226538D01*
X1270521D01*
X1268609Y1231154D01*
X1256830Y1236033D01*
X1217130D01*
X1205351Y1231154D01*
X1203439Y1226538D01*
X1102489D01*
X1019948Y1309079D01*
X1012806Y1313851D01*
X1004382Y1315526D01*
X892151D01*
X883727Y1313851D01*
X876585Y1309079D01*
X821819Y1254312D01*
X817047Y1247171D01*
X815371Y1238747D01*
Y724570D01*
X817047Y716146D01*
X821819Y709004D01*
X845349Y685474D01*
X852490Y680703D01*
X860914Y679027D01*
X885979D01*
X893064Y668424D01*
X908028Y658425D01*
X925680Y654914D01*
X970680D01*
X988332Y658425D01*
X1003296Y668424D01*
X1013295Y683388D01*
X1016806Y701040D01*
X1013295Y718692D01*
X1003296Y733656D01*
X988332Y743655D01*
X970680Y747166D01*
X925680D01*
X908028Y743655D01*
X893064Y733656D01*
X885979Y723053D01*
X870032D01*
X859397Y733688D01*
Y1229629D01*
X901269Y1271501D01*
X995264D01*
X1077805Y1188960D01*
X1084947Y1184188D01*
X1093371Y1182512D01*
X1203439D01*
X1205351Y1177896D01*
X1217130Y1173017D01*
X1256830D01*
X1268609Y1177896D01*
X1284601Y1178186D01*
X1286881Y1176663D01*
X1295305Y1174987D01*
X1364885D01*
X1371264Y1159747D01*
X1365614Y1154013D01*
X1294560D01*
X1286136Y1152337D01*
X1284601Y1151311D01*
X1268609Y1151849D01*
X1256830Y1156728D01*
X1217130D01*
X1205351Y1151849D01*
X1203439Y1147233D01*
X1097037D01*
X1088613Y1145557D01*
X1081472Y1140786D01*
X1039666Y1098979D01*
X1034894Y1091838D01*
X1033218Y1083414D01*
Y918372D01*
X985971Y871125D01*
X970680Y874166D01*
X925680D01*
X908028Y870655D01*
X893064Y860656D01*
X883065Y845692D01*
X879554Y828040D01*
X883065Y810388D01*
X893064Y795424D01*
X908028Y785425D01*
X925680Y781914D01*
X970680D01*
X985971Y784955D01*
X1058397Y712529D01*
Y644958D01*
X1060073Y636534D01*
X1064844Y629393D01*
X1143392Y550845D01*
X1150534Y546073D01*
X1158958Y544397D01*
X1279835D01*
X1288259Y546073D01*
X1295401Y550845D01*
X1304158Y559602D01*
X1352243D01*
X1354590Y559135D01*
X1423890D01*
X1429973Y560345D01*
X1435129Y563790D01*
X1438575Y568947D01*
X1439785Y575030D01*
Y654330D01*
X1438575Y660413D01*
X1435129Y665570D01*
X1429973Y669015D01*
X1423890Y670225D01*
X1354590D01*
X1348507Y669015D01*
X1343350Y665570D01*
X1339905Y660413D01*
X1338695Y654330D01*
Y603627D01*
X1295040D01*
X1286616Y601952D01*
X1279474Y597180D01*
X1270717Y588423D01*
X1168076D01*
X1102423Y654076D01*
Y721647D01*
X1100747Y730071D01*
X1095975Y737212D01*
X1014872Y818315D01*
X1016806Y828040D01*
X1014872Y837764D01*
X1070796Y893689D01*
X1075568Y900830D01*
X1077244Y909254D01*
Y1074296D01*
X1106155Y1103207D01*
X1203439D01*
X1205351Y1098591D01*
X1217130Y1093712D01*
X1256830D01*
X1268609Y1098591D01*
X1270521Y1103207D01*
X1287780D01*
X1296204Y1104883D01*
X1303345Y1109655D01*
X1303678Y1109987D01*
X1379133D01*
X1380196Y1108396D01*
X1391025Y1101160D01*
X1403800Y1098619D01*
X1568800D01*
X1581575Y1101160D01*
X1592404Y1108396D01*
X1599640Y1119226D01*
X1602181Y1132000D01*
X1599640Y1144774D01*
X1592404Y1155604D01*
Y1173396D01*
X1599640Y1184226D01*
X1602181Y1197000D01*
X1599640Y1209775D01*
X1592404Y1220604D01*
Y1238396D01*
X1599640Y1249226D01*
X1602181Y1262000D01*
X1599640Y1274774D01*
X1592404Y1285604D01*
X1581575Y1292840D01*
X1568800Y1295381D01*
X1557003D01*
X1549858Y1308053D01*
X1556916Y1321446D01*
X1573000D01*
X1579258Y1322691D01*
X1584564Y1326236D01*
X1588109Y1331541D01*
X1589354Y1337800D01*
Y1546200D01*
X1588109Y1552458D01*
X1584564Y1557764D01*
X1579258Y1561309D01*
X1573000Y1562554D01*
X1414600D01*
X1408342Y1561309D01*
X1403036Y1557764D01*
X1399491Y1552458D01*
X1398246Y1546200D01*
Y1337800D01*
X1399491Y1331541D01*
X1403036Y1326236D01*
X1408342Y1322691D01*
X1414600Y1321446D01*
X1470684D01*
X1477743Y1308053D01*
X1470597Y1295381D01*
X1403800D01*
X1391025Y1292840D01*
X1381189Y1286267D01*
X1366059Y1289790D01*
Y1400070D01*
X1366809Y1400571D01*
X1370271Y1405753D01*
X1371487Y1411865D01*
Y1551015D01*
X1370271Y1557127D01*
X1366809Y1562309D01*
X1361627Y1565771D01*
X1355515Y1566987D01*
D02*
G37*
G36*
X133565Y1249326D02*
X99060D01*
Y1203900D01*
X149486D01*
Y1233405D01*
X148274Y1239498D01*
X144823Y1244663D01*
X139658Y1248114D01*
X133565Y1249326D01*
D02*
G37*
G36*
X83820D02*
X49315D01*
X43222Y1248114D01*
X38057Y1244663D01*
X34606Y1239498D01*
X33394Y1233405D01*
Y1203900D01*
X83820D01*
Y1249326D01*
D02*
G37*
G36*
X970680Y1255166D02*
X925680D01*
X908028Y1251655D01*
X893064Y1241656D01*
X883065Y1226692D01*
X879554Y1209040D01*
X883065Y1191388D01*
X893064Y1176424D01*
X908028Y1166425D01*
X925680Y1162914D01*
X970680D01*
X988332Y1166425D01*
X1003296Y1176424D01*
X1013295Y1191388D01*
X1016806Y1209040D01*
X1013295Y1226692D01*
X1003296Y1241656D01*
X988332Y1251655D01*
X970680Y1255166D01*
D02*
G37*
G36*
X430680D02*
X385680D01*
X368028Y1251655D01*
X353064Y1241656D01*
X343065Y1226692D01*
X339554Y1209040D01*
X343065Y1191388D01*
X353064Y1176424D01*
X368028Y1166425D01*
X385680Y1162914D01*
X430680D01*
X448332Y1166425D01*
X463296Y1176424D01*
X473295Y1191388D01*
X476806Y1209040D01*
X473295Y1226692D01*
X463296Y1241656D01*
X448332Y1251655D01*
X430680Y1255166D01*
D02*
G37*
G36*
X149486Y1188660D02*
X99060D01*
Y1143234D01*
X133565D01*
X139658Y1144446D01*
X144823Y1147897D01*
X148274Y1153062D01*
X149486Y1159155D01*
Y1188660D01*
D02*
G37*
G36*
X83820D02*
X33394D01*
Y1159155D01*
X34606Y1153062D01*
X38057Y1147897D01*
X43222Y1144446D01*
X49315Y1143234D01*
X83820D01*
Y1188660D01*
D02*
G37*
G36*
X1256830Y1066728D02*
X1244586D01*
Y1042844D01*
X1273488D01*
Y1050070D01*
X1268609Y1061849D01*
X1256830Y1066728D01*
D02*
G37*
G36*
X1229346D02*
X1217130D01*
X1205351Y1061849D01*
X1200472Y1050070D01*
Y1042844D01*
X1229346D01*
Y1066728D01*
D02*
G37*
G36*
X970680Y1128166D02*
X925680D01*
X908028Y1124655D01*
X893064Y1114656D01*
X883065Y1099692D01*
X879554Y1082040D01*
X883065Y1064388D01*
X893064Y1049424D01*
X908028Y1039425D01*
X925680Y1035914D01*
X970680D01*
X988332Y1039425D01*
X1003296Y1049424D01*
X1013295Y1064388D01*
X1016806Y1082040D01*
X1013295Y1099692D01*
X1003296Y1114656D01*
X988332Y1124655D01*
X970680Y1128166D01*
D02*
G37*
G36*
X430680D02*
X385680D01*
X368028Y1124655D01*
X353064Y1114656D01*
X343065Y1099692D01*
X339554Y1082040D01*
X343065Y1064388D01*
X353064Y1049424D01*
X368028Y1039425D01*
X385680Y1035914D01*
X430680D01*
X448332Y1039425D01*
X463296Y1049424D01*
X473295Y1064388D01*
X476806Y1082040D01*
X473295Y1099692D01*
X463296Y1114656D01*
X448332Y1124655D01*
X430680Y1128166D01*
D02*
G37*
G36*
X1273488Y1027604D02*
X1244586D01*
Y1003712D01*
X1256830D01*
X1268609Y1008591D01*
X1273488Y1020370D01*
Y1027604D01*
D02*
G37*
G36*
X1229346D02*
X1200472D01*
Y1020370D01*
X1205351Y1008591D01*
X1217130Y1003712D01*
X1229346D01*
Y1027604D01*
D02*
G37*
G36*
X970680Y1001166D02*
X925680D01*
X908028Y997655D01*
X893064Y987656D01*
X883065Y972692D01*
X879554Y955040D01*
X883065Y937388D01*
X893064Y922424D01*
X908028Y912425D01*
X925680Y908914D01*
X970680D01*
X988332Y912425D01*
X1003296Y922424D01*
X1013295Y937388D01*
X1016806Y955040D01*
X1013295Y972692D01*
X1003296Y987656D01*
X988332Y997655D01*
X970680Y1001166D01*
D02*
G37*
G36*
X1773800Y940019D02*
X1723800D01*
X1700243Y936917D01*
X1678291Y927824D01*
X1659440Y913360D01*
X1644976Y894510D01*
X1635883Y872557D01*
X1632781Y849000D01*
X1635883Y825443D01*
X1644976Y803491D01*
X1659440Y784640D01*
X1678291Y770176D01*
X1700243Y761083D01*
X1723800Y757981D01*
X1773800D01*
X1797358Y761083D01*
X1819310Y770176D01*
X1838160Y784640D01*
X1852625Y803491D01*
X1861718Y825443D01*
X1864819Y849000D01*
X1861718Y872557D01*
X1852625Y894510D01*
X1838160Y913360D01*
X1819310Y927824D01*
X1797358Y936917D01*
X1773800Y940019D01*
D02*
G37*
G36*
X1568800Y1035381D02*
X1403800D01*
X1391025Y1032840D01*
X1380196Y1025604D01*
X1372960Y1014774D01*
X1370419Y1002000D01*
X1372960Y989226D01*
X1380196Y978396D01*
X1391025Y971160D01*
X1403800Y968619D01*
X1470597D01*
X1477743Y955947D01*
X1470684Y942554D01*
X1414600D01*
X1408342Y941310D01*
X1403036Y937764D01*
X1399491Y932459D01*
X1398246Y926200D01*
Y717800D01*
X1399491Y711542D01*
X1403036Y706236D01*
X1408342Y702691D01*
X1414600Y701446D01*
X1573000D01*
X1579258Y702691D01*
X1584564Y706236D01*
X1588109Y711542D01*
X1589354Y717800D01*
Y926200D01*
X1588109Y932459D01*
X1584564Y937764D01*
X1579258Y941310D01*
X1573000Y942554D01*
X1556916D01*
X1549858Y955947D01*
X1557003Y968619D01*
X1568800D01*
X1581575Y971160D01*
X1592404Y978396D01*
X1599640Y989226D01*
X1602181Y1002000D01*
X1599640Y1014774D01*
X1592404Y1025604D01*
X1581575Y1032840D01*
X1568800Y1035381D01*
D02*
G37*
G36*
X1763800Y685526D02*
X1733800D01*
X1715464Y683112D01*
X1698377Y676034D01*
X1683705Y664776D01*
X1672446Y650103D01*
X1666891Y636693D01*
X1589785D01*
Y654330D01*
X1588575Y660413D01*
X1585130Y665570D01*
X1579973Y669015D01*
X1573890Y670225D01*
X1504590D01*
X1498507Y669015D01*
X1493350Y665570D01*
X1489905Y660413D01*
X1488695Y654330D01*
Y575030D01*
X1489905Y568947D01*
X1493350Y563790D01*
X1498507Y560345D01*
X1504590Y559135D01*
X1573890D01*
X1579973Y560345D01*
X1585130Y563790D01*
X1588575Y568947D01*
X1589785Y575030D01*
Y592667D01*
X1666891D01*
X1672446Y579257D01*
X1683705Y564584D01*
X1698377Y553326D01*
X1715464Y546248D01*
X1733800Y543834D01*
X1763800D01*
X1782136Y546248D01*
X1799223Y553326D01*
X1813896Y564584D01*
X1825155Y579257D01*
X1832232Y596344D01*
X1834646Y614680D01*
X1832232Y633016D01*
X1825155Y650103D01*
X1813896Y664776D01*
X1799223Y676034D01*
X1782136Y683112D01*
X1763800Y685526D01*
D02*
G37*
G36*
X1308569Y507125D02*
X1279056D01*
Y456707D01*
X1324489D01*
Y491205D01*
X1323278Y497297D01*
X1319826Y502462D01*
X1314661Y505913D01*
X1308569Y507125D01*
D02*
G37*
G36*
X1263816D02*
X1234318D01*
X1228226Y505913D01*
X1223061Y502462D01*
X1219609Y497297D01*
X1218398Y491205D01*
Y456707D01*
X1263816D01*
Y507125D01*
D02*
G37*
G36*
X430680Y493166D02*
X385680D01*
X368028Y489655D01*
X353064Y479656D01*
X345979Y469053D01*
X185641D01*
X177218Y467377D01*
X170076Y462606D01*
X75654Y368183D01*
X70882Y361042D01*
X69207Y352618D01*
Y301886D01*
X54094D01*
X48002Y300674D01*
X42837Y297223D01*
X39385Y292058D01*
X38174Y285965D01*
Y201715D01*
X39385Y195622D01*
X42837Y190457D01*
X48002Y187006D01*
X54094Y185794D01*
X69207D01*
Y156445D01*
X56570D01*
X50487Y155235D01*
X45330Y151790D01*
X41884Y146633D01*
X40674Y140550D01*
Y61250D01*
X41884Y55167D01*
X45330Y50010D01*
X50487Y46565D01*
X56570Y45355D01*
X125869D01*
X131952Y46565D01*
X137109Y50010D01*
X140555Y55167D01*
X141765Y61250D01*
Y140550D01*
X140555Y146633D01*
X137109Y151790D01*
X131952Y155235D01*
X125869Y156445D01*
X113232D01*
Y185794D01*
X128345D01*
X134437Y187006D01*
X139602Y190457D01*
X143054Y195622D01*
X144265Y201715D01*
Y285965D01*
X143054Y292058D01*
X139602Y297223D01*
X134437Y300674D01*
X128345Y301886D01*
X113232D01*
Y343500D01*
X194760Y425027D01*
X345979D01*
X353064Y414424D01*
X368028Y404425D01*
X385680Y400914D01*
X430680D01*
X448332Y404425D01*
X463296Y414424D01*
X473295Y429388D01*
X476806Y447040D01*
X473295Y464692D01*
X463296Y479656D01*
X448332Y489655D01*
X430680Y493166D01*
D02*
G37*
G36*
X1324489Y441467D02*
X1279056D01*
Y391034D01*
X1308569D01*
X1314661Y392245D01*
X1319826Y395697D01*
X1323278Y400862D01*
X1324489Y406954D01*
Y441467D01*
D02*
G37*
G36*
X1263816D02*
X1218398D01*
Y406954D01*
X1219609Y400862D01*
X1223061Y395697D01*
X1228226Y392245D01*
X1234318Y391034D01*
X1263816D01*
Y441467D01*
D02*
G37*
G36*
X1763800Y431526D02*
X1733800D01*
X1715464Y429112D01*
X1698377Y422034D01*
X1683705Y410776D01*
X1672446Y396103D01*
X1667427Y383988D01*
X1523909D01*
X1514989Y382214D01*
X1507428Y377161D01*
X1455963Y325696D01*
X1244712D01*
Y339513D01*
X1243500Y345606D01*
X1240049Y350771D01*
X1234884Y354222D01*
X1228791Y355434D01*
X1144541D01*
X1138448Y354222D01*
X1133283Y350771D01*
X1129832Y345606D01*
X1128620Y339513D01*
Y313891D01*
X1021853D01*
X1016806Y320040D01*
X1013295Y337692D01*
X1003296Y352656D01*
X988332Y362655D01*
X970680Y366166D01*
X925680D01*
X908028Y362655D01*
X893064Y352656D01*
X883065Y337692D01*
X879554Y320040D01*
X883065Y302388D01*
X893064Y287424D01*
X908028Y277425D01*
X925680Y273914D01*
X970680D01*
X978831Y267224D01*
Y246138D01*
X973630D01*
X967547Y244928D01*
X962390Y241482D01*
X958945Y236325D01*
X957735Y230243D01*
Y150943D01*
X958945Y144860D01*
X962390Y139703D01*
X967547Y136258D01*
X973630Y135047D01*
X1042930D01*
X1049013Y136258D01*
X1054170Y139703D01*
X1057615Y144860D01*
X1058825Y150943D01*
Y230243D01*
X1057615Y236325D01*
X1054170Y241482D01*
X1049013Y244928D01*
X1042930Y246138D01*
X1025447D01*
Y267276D01*
X1128620D01*
Y265263D01*
X1129832Y259170D01*
X1133283Y254006D01*
X1138448Y250554D01*
X1144541Y249342D01*
X1228791D01*
X1234884Y250554D01*
X1240049Y254006D01*
X1243500Y259170D01*
X1244712Y265263D01*
Y279080D01*
X1465617D01*
X1474536Y280855D01*
X1482098Y285907D01*
X1533563Y337372D01*
X1667427D01*
X1672446Y325257D01*
X1683705Y310584D01*
X1698377Y299326D01*
X1715464Y292248D01*
X1733800Y289834D01*
X1763800D01*
X1782136Y292248D01*
X1799223Y299326D01*
X1813896Y310584D01*
X1825155Y325257D01*
X1832232Y342344D01*
X1834646Y360680D01*
X1832232Y379016D01*
X1825155Y396103D01*
X1813896Y410776D01*
X1799223Y422034D01*
X1782136Y429112D01*
X1763800Y431526D01*
D02*
G37*
G36*
X430680Y366166D02*
X385680D01*
X368028Y362655D01*
X353064Y352656D01*
X343065Y337692D01*
X339554Y320040D01*
X343065Y302388D01*
X353064Y287424D01*
X368028Y277425D01*
X385680Y273914D01*
X430680D01*
X448332Y277425D01*
X463296Y287424D01*
X473295Y302388D01*
X476806Y320040D01*
X473295Y337692D01*
X463296Y352656D01*
X448332Y362655D01*
X430680Y366166D01*
D02*
G37*
G36*
X283345Y301886D02*
X253846D01*
Y251468D01*
X299265D01*
Y285965D01*
X298054Y292058D01*
X294602Y297223D01*
X289437Y300674D01*
X283345Y301886D01*
D02*
G37*
G36*
X238606D02*
X209094D01*
X203002Y300674D01*
X197837Y297223D01*
X194385Y292058D01*
X193174Y285965D01*
Y251468D01*
X238606D01*
Y301886D01*
D02*
G37*
G36*
X892930Y246138D02*
X823630D01*
X817547Y244928D01*
X812390Y241482D01*
X808945Y236325D01*
X807734Y230243D01*
Y213901D01*
X779525D01*
Y225027D01*
X778315Y231110D01*
X774870Y236267D01*
X769713Y239712D01*
X763630Y240923D01*
X694330D01*
X688247Y239712D01*
X683090Y236267D01*
X679645Y231110D01*
X678435Y225027D01*
Y145727D01*
X679645Y139645D01*
X683090Y134488D01*
X688247Y131042D01*
X694330Y129832D01*
X763630D01*
X769713Y131042D01*
X774870Y134488D01*
X778315Y139645D01*
X779525Y145727D01*
Y167285D01*
X807734D01*
Y150943D01*
X808945Y144860D01*
X812390Y139703D01*
X817547Y136258D01*
X823630Y135047D01*
X892930D01*
X899012Y136258D01*
X904169Y139703D01*
X907615Y144860D01*
X908825Y150943D01*
Y230243D01*
X907615Y236325D01*
X904169Y241482D01*
X899012Y244928D01*
X892930Y246138D01*
D02*
G37*
G36*
X299265Y236228D02*
X253846D01*
Y185794D01*
X283345D01*
X289437Y187006D01*
X294602Y190457D01*
X298054Y195622D01*
X299265Y201715D01*
Y236228D01*
D02*
G37*
G36*
X238606D02*
X193174D01*
Y201715D01*
X194385Y195622D01*
X197837Y190457D01*
X203002Y187006D01*
X209094Y185794D01*
X238606D01*
Y236228D01*
D02*
G37*
G36*
X1228791Y200434D02*
X1194286D01*
Y155008D01*
X1244712D01*
Y184513D01*
X1243500Y190606D01*
X1240049Y195771D01*
X1234884Y199222D01*
X1228791Y200434D01*
D02*
G37*
G36*
X1179046D02*
X1144541D01*
X1138448Y199222D01*
X1133283Y195771D01*
X1129832Y190606D01*
X1128620Y184513D01*
Y155008D01*
X1179046D01*
Y200434D01*
D02*
G37*
G36*
X120870Y1556685D02*
X51570D01*
X45487Y1555475D01*
X40330Y1552030D01*
X36885Y1546873D01*
X35675Y1540790D01*
Y1461490D01*
X36885Y1455407D01*
X40330Y1450250D01*
X45487Y1446805D01*
X51570Y1445595D01*
X67522D01*
Y1404326D01*
X49315D01*
X43222Y1403114D01*
X38057Y1399663D01*
X34606Y1394498D01*
X33394Y1388405D01*
Y1314155D01*
X34606Y1308062D01*
X38057Y1302897D01*
X43222Y1299446D01*
X49315Y1298234D01*
X114381D01*
X114970Y1298117D01*
X143721D01*
X251577Y1190261D01*
Y613301D01*
X253253Y604877D01*
X258025Y597736D01*
X297286Y558474D01*
X304427Y553703D01*
X312851Y552027D01*
X345979D01*
X353064Y541424D01*
X368028Y531425D01*
X385680Y527914D01*
X430680D01*
X448332Y531425D01*
X463296Y541424D01*
X473295Y556388D01*
X476806Y574040D01*
X473295Y591692D01*
X463296Y606656D01*
X455004Y612197D01*
X459627Y627437D01*
X492052D01*
X541967Y577522D01*
Y240923D01*
X529330D01*
X523247Y239712D01*
X518090Y236267D01*
X514645Y231110D01*
X513435Y225027D01*
Y145727D01*
X514645Y139645D01*
X518090Y134488D01*
X523247Y131042D01*
X529330Y129832D01*
X598630D01*
X604713Y131042D01*
X609870Y134488D01*
X613315Y139645D01*
X614525Y145727D01*
Y225027D01*
X613315Y231110D01*
X609870Y236267D01*
X604713Y239712D01*
X598630Y240923D01*
X585993D01*
Y586640D01*
X584317Y595064D01*
X579545Y602206D01*
X516735Y665015D01*
X509594Y669787D01*
X501170Y671463D01*
X482261D01*
X473955Y686703D01*
X476806Y701040D01*
X474055Y714873D01*
X637960Y878777D01*
X642731Y885919D01*
X644407Y894343D01*
Y1354452D01*
X651964D01*
X658047Y1355663D01*
X663204Y1359108D01*
X666649Y1364265D01*
X667859Y1370348D01*
Y1449648D01*
X666649Y1455730D01*
X663204Y1460887D01*
X658047Y1464333D01*
X651964Y1465543D01*
X582664D01*
X576581Y1464333D01*
X571424Y1460887D01*
X567979Y1455730D01*
X566769Y1449648D01*
Y1418297D01*
X548875D01*
Y1426723D01*
X547663Y1432816D01*
X544212Y1437980D01*
X539047Y1441432D01*
X532954Y1442644D01*
X458704D01*
X452611Y1441432D01*
X447447Y1437980D01*
X443995Y1432816D01*
X442783Y1426723D01*
Y1342473D01*
X443995Y1336380D01*
X447447Y1331215D01*
X452611Y1327764D01*
X458704Y1326552D01*
X532954D01*
X539047Y1327764D01*
X544212Y1331215D01*
X547663Y1336380D01*
X548875Y1342473D01*
Y1374271D01*
X566769D01*
Y1370348D01*
X567979Y1364265D01*
X571424Y1359108D01*
X576581Y1355663D01*
X582664Y1354452D01*
X600381D01*
Y903461D01*
X441862Y744942D01*
X430680Y747166D01*
X385680D01*
X371343Y744314D01*
X356103Y752621D01*
Y768292D01*
X372372Y784561D01*
X385680Y781914D01*
X430680D01*
X448332Y785425D01*
X463296Y795424D01*
X473295Y810388D01*
X476806Y828040D01*
X473295Y845692D01*
X463296Y860656D01*
X448332Y870655D01*
X430680Y874166D01*
X385680D01*
X368028Y870655D01*
X353064Y860656D01*
X343065Y845692D01*
X339554Y828040D01*
X341882Y816333D01*
X318525Y792975D01*
X313753Y785833D01*
X312077Y777409D01*
Y679671D01*
X313753Y671247D01*
X318525Y664106D01*
X348745Y633885D01*
X355887Y629113D01*
X358471Y628599D01*
X361988Y612619D01*
X353064Y606656D01*
X345979Y596053D01*
X321969D01*
X295603Y622419D01*
Y1199379D01*
X293927Y1207803D01*
X289155Y1214944D01*
X168404Y1335695D01*
X161263Y1340467D01*
X152839Y1342143D01*
X149486D01*
Y1388405D01*
X148274Y1394498D01*
X144823Y1399663D01*
X139658Y1403114D01*
X133565Y1404326D01*
X111548D01*
Y1445595D01*
X120870D01*
X126953Y1446805D01*
X132109Y1450250D01*
X135555Y1455407D01*
X136765Y1461490D01*
Y1540790D01*
X135555Y1546873D01*
X132109Y1552030D01*
X126953Y1555475D01*
X120870Y1556685D01*
D02*
G37*
G36*
X1244712Y139768D02*
X1194286D01*
Y94342D01*
X1228791D01*
X1234884Y95554D01*
X1240049Y99006D01*
X1243500Y104170D01*
X1244712Y110263D01*
Y139768D01*
D02*
G37*
G36*
X1179046D02*
X1128620D01*
Y110263D01*
X1129832Y104170D01*
X1133283Y99006D01*
X1138448Y95554D01*
X1144541Y94342D01*
X1179046D01*
Y139768D01*
D02*
G37*
%LPD*%
D10*
X1748800Y106680D02*
D03*
Y614680D02*
D03*
Y360680D02*
D03*
D11*
X1214500Y775500D02*
D03*
D12*
X139500D02*
D03*
D13*
X427000Y75500D02*
D03*
X927000D02*
D03*
X677000Y1525500D02*
D03*
X427000D02*
D03*
X927000D02*
D03*
D14*
X1748800Y849000D02*
D03*
Y1415000D02*
D03*
D15*
X1181807Y1035220D02*
D03*
X1031233Y609063D02*
D03*
X863926D02*
D03*
Y536463D02*
D03*
X1031233D02*
D03*
X340829Y1305737D02*
D03*
X507516Y955040D02*
D03*
X91440Y1122680D02*
D03*
X246219Y322942D02*
D03*
X1265389Y147388D02*
D03*
X1344294Y449079D02*
D03*
X1632276Y1144774D02*
D03*
X1711100D02*
D03*
Y989226D02*
D03*
X1632276D02*
D03*
X1711100Y1067000D02*
D03*
X1632276D02*
D03*
X1348769D02*
D03*
X1236980Y1346408D02*
D03*
X1156809Y1285894D02*
D03*
D16*
X1155529Y1342481D02*
D03*
X1065529D02*
D03*
D17*
X1103440Y1481440D02*
D03*
X1313440D02*
D03*
D18*
X236220Y1501140D02*
D03*
X86220D02*
D03*
D19*
X1271443Y449079D02*
D03*
X1116444D02*
D03*
X246219Y243840D02*
D03*
X91220D02*
D03*
X340829Y1384598D02*
D03*
X495829D02*
D03*
D20*
X1186666Y147388D02*
D03*
Y302388D02*
D03*
D21*
X1008280Y190593D02*
D03*
X858280D02*
D03*
X563980Y185377D02*
D03*
X728980D02*
D03*
X241220Y100900D02*
D03*
X91220D02*
D03*
X767314Y1409998D02*
D03*
X617314D02*
D03*
X1539240Y614680D02*
D03*
X1389240D02*
D03*
D22*
X91440Y1196280D02*
D03*
Y1351280D02*
D03*
D23*
X948180Y1209040D02*
D03*
Y1082040D02*
D03*
Y955040D02*
D03*
Y828040D02*
D03*
Y701040D02*
D03*
Y574040D02*
D03*
Y447040D02*
D03*
Y320040D02*
D03*
X408180Y1209040D02*
D03*
Y1082040D02*
D03*
Y955040D02*
D03*
Y828040D02*
D03*
Y701040D02*
D03*
Y574040D02*
D03*
Y447040D02*
D03*
Y320040D02*
D03*
D24*
X1493800Y822000D02*
D03*
Y1442000D02*
D03*
D25*
X1486300Y1002000D02*
D03*
Y1067000D02*
D03*
Y1132000D02*
D03*
Y1262000D02*
D03*
Y1197000D02*
D03*
D26*
X1236980Y1035220D02*
D03*
Y1125220D02*
D03*
Y1294525D02*
D03*
Y1204525D02*
D03*
D27*
X1279835Y566410D02*
X1295040Y581615D01*
X1389240Y610265D02*
Y614680D01*
X1360590Y581615D02*
X1389240Y610265D01*
X1295040Y581615D02*
X1360590D01*
X1158958Y566410D02*
X1279835D01*
X837384Y724570D02*
X860914Y701040D01*
X837384Y1238747D02*
X892151Y1293514D01*
X837384Y724570D02*
Y1238747D01*
X1055231Y909254D02*
Y1083414D01*
X1097037Y1125220D02*
X1236980D01*
X1055231Y1083414D02*
X1097037Y1125220D01*
X892151Y1293514D02*
X1004382D01*
X1093371Y1204525D01*
X1236980D01*
X334090Y679671D02*
X364311Y649450D01*
X501170D02*
X563980Y586640D01*
X364311Y649450D02*
X501170D01*
X1539240Y614680D02*
X1748800D01*
X1080410Y644958D02*
X1158958Y566410D01*
X974017Y828040D02*
X1080410Y721647D01*
Y644958D02*
Y721647D01*
X429091Y701040D02*
X622394Y894343D01*
Y1409998D01*
X495829Y1384598D02*
X507516Y1396284D01*
X608680D02*
X622394Y1409998D01*
X507516Y1396284D02*
X608680D01*
X563980Y185377D02*
Y586640D01*
X91220Y243840D02*
Y352618D01*
X185641Y447040D02*
X408180D01*
X91220Y352618D02*
X185641Y447040D01*
X266620Y75500D02*
X427000D01*
X241220Y100900D02*
X266620Y75500D01*
X860914Y701040D02*
X948180D01*
X114970Y1320130D02*
X152839D01*
X273590Y613301D02*
Y1199379D01*
X152839Y1320130D02*
X273590Y1199379D01*
X87630Y1347470D02*
X114970Y1320130D01*
X89535Y1353185D02*
X91440Y1351280D01*
X86220Y1501140D02*
X89535Y1497825D01*
Y1353185D02*
Y1497825D01*
X1236980Y1125220D02*
X1287780D01*
X384721Y828040D02*
X408180D01*
X334090Y679671D02*
Y777409D01*
X384721Y828040D01*
X948180D02*
X974017D01*
X408180Y701040D02*
X429091D01*
X312851Y574040D02*
X408180D01*
X273590Y613301D02*
X312851Y574040D01*
X1287780Y1125220D02*
X1294560Y1132000D01*
X974017Y828040D02*
X1055231Y909254D01*
X1236980Y1204525D02*
X1287780D01*
X1294560Y1132000D02*
X1486300D01*
X91220Y100900D02*
Y243840D01*
X236220Y1501140D02*
X260580Y1525500D01*
X427000D01*
X1295305Y1197000D02*
X1486300D01*
X1287780Y1204525D02*
X1295305Y1197000D01*
D28*
X728307Y576592D02*
Y1218947D01*
X864174Y1354815D02*
X1058149D01*
X728307Y1218947D02*
X864174Y1354815D01*
X1070609Y1347435D02*
Y1446069D01*
X1058149Y1354815D02*
X1065529Y1347435D01*
X1186666Y302388D02*
X1465617D01*
X1523909Y360680D02*
X1748800D01*
X1465617Y302388D02*
X1523909Y360680D01*
X728307Y576592D02*
X857858Y447040D01*
X948180D02*
X1114404D01*
X857858D02*
X948180D01*
X1002139Y290583D02*
X1174861D01*
X1186666Y302388D01*
X1002139Y196734D02*
Y290583D01*
Y196734D02*
X1008280Y190593D01*
X972682Y320040D02*
X1002139Y290583D01*
X948180Y320040D02*
X972682D01*
X734195Y190593D02*
X858280D01*
X728980Y185377D02*
X734195Y190593D01*
X1070609Y1446069D02*
X1103440Y1478900D01*
X1357630Y1262000D02*
X1486300D01*
X1342751Y1276879D02*
Y1449589D01*
X1313440Y1478900D02*
X1342751Y1449589D01*
Y1276879D02*
X1357630Y1262000D01*
X1114404Y447040D02*
X1116444Y449079D01*
X815162Y1442207D02*
X898455Y1525500D01*
X799774Y1442207D02*
X815162D01*
X898455Y1525500D02*
X927000D01*
X772394Y1409998D02*
Y1414827D01*
X799774Y1442207D01*
%TF.MD5,37d117afbb6d878daf19b1bfbc8d19ac*%
M02*
