%TF.GenerationSoftware,Altium Limited,Altium Designer,20.1.8 (145)*%
G04 Layer_Color=65535*
%FSLAX45Y45*%
%MOMM*%
%TF.SameCoordinates,CA905C98-E8E4-4B69-B290-3362CF0B177B*%
%TF.FilePolarity,Positive*%
%TF.FileFunction,Legend,Top*%
%TF.Part,Single*%
G01*
G75*
%TA.AperFunction,NonConductor*%
%ADD33C,0.12700*%
%ADD51C,0.25400*%
D33*
X1428319Y766352D02*
X1377536D01*
Y791743D01*
X1386000Y800207D01*
X1402928D01*
X1411392Y791743D01*
Y766352D01*
Y783279D02*
X1428319Y800207D01*
X1377536Y842527D02*
Y825599D01*
X1386000Y817135D01*
X1419855D01*
X1428319Y825599D01*
Y842527D01*
X1419855Y850991D01*
X1386000D01*
X1377536Y842527D01*
Y867919D02*
Y901774D01*
Y884846D01*
X1428319D01*
Y918702D02*
X1394464D01*
X1377536Y935630D01*
X1394464Y952558D01*
X1428319D01*
X1402928D01*
Y918702D01*
X1428319Y969485D02*
X1377536D01*
Y994877D01*
X1386000Y1003341D01*
X1402928D01*
X1411392Y994877D01*
Y969485D01*
Y986413D02*
X1428319Y1003341D01*
X1377536Y1020269D02*
X1386000D01*
X1402928Y1037197D01*
X1386000Y1054125D01*
X1377536D01*
X1402928Y1037197D02*
X1428319D01*
X1436784Y1071052D02*
Y1104908D01*
X1377536Y1155692D02*
Y1121836D01*
X1428319D01*
Y1155692D01*
X1402928Y1121836D02*
Y1138764D01*
X1428319Y1172619D02*
X1377536D01*
X1428319Y1206475D01*
X1377536D01*
X1386000Y1257259D02*
X1377536Y1248795D01*
Y1231867D01*
X1386000Y1223403D01*
X1419855D01*
X1428319Y1231867D01*
Y1248795D01*
X1419855Y1257259D01*
X1377536Y1299578D02*
Y1282650D01*
X1386000Y1274186D01*
X1419855D01*
X1428319Y1282650D01*
Y1299578D01*
X1419855Y1308042D01*
X1386000D01*
X1377536Y1299578D01*
Y1324970D02*
X1428319D01*
Y1350362D01*
X1419855Y1358826D01*
X1386000D01*
X1377536Y1350362D01*
Y1324970D01*
Y1409609D02*
Y1375753D01*
X1428319D01*
Y1409609D01*
X1402928Y1375753D02*
Y1392681D01*
X1428319Y1426537D02*
X1377536D01*
Y1451929D01*
X1386000Y1460393D01*
X1402928D01*
X1411392Y1451929D01*
Y1426537D01*
Y1443465D02*
X1428319Y1460393D01*
Y1477320D02*
Y1494248D01*
Y1485784D01*
X1377536D01*
X1386000Y1477320D01*
D51*
X57000Y1035500D02*
Y1445500D01*
Y105500D02*
Y515500D01*
X1297000Y1035500D02*
Y1445500D01*
Y105500D02*
Y515500D01*
%TF.MD5,b4f1b4731096de3273cd8e638cd56f2b*%
M02*
