M48
;Layer_Color=0
;FILE_FORMAT=4:4
METRIC
;TYPE=PLATED
T2F00S00C0.5000
T4F00S00C0.9000
T5F00S00C1.2500
%
G90
G05
T02
G00X00101530Y00077550
M15
G01X00094030
M16
G00X00151530Y00077550
M15
G01X00144030
M16
G00X00291530Y00077550
M15
G01X00284030
M16
G00X00341530Y00077550
M15
G01X00334030
M16
G00X00341530Y00222550
M15
G01X00334030
M16
G00X00316530Y00222550
M15
G01X00309030
M16
G00X00291530Y00222550
M15
G01X00284030
M16
G00X00291530Y00247550
M15
G01X00284030
M16
G00X00341530Y00247550
M15
G01X00334030
M16
G00X00151530Y00247550
M15
G01X00144030
M16
G00X00151530Y00222550
M15
G01X00144030
M16
G00X00126530Y00222550
M15
G01X00119030
M16
G00X00101530Y00222550
M15
G01X00094030
M16
G00X00101530Y00247550
M15
G01X00094030
M16
G00X00101530Y00392550
M15
G01X00094030
M16
G00X00126530Y00392550
M15
G01X00119030
M16
G00X00151530Y00392550
M15
G01X00144030
M16
G00X00151530Y00417550
M15
G01X00144030
M16
G00X00101530Y00417550
M15
G01X00094030
M16
G00X00101530Y00562550
M15
G01X00094030
M16
G00X00126530Y00562550
M15
G01X00119030
M16
G00X00151530Y00562550
M15
G01X00144030
M16
G00X00151530Y00587550
M15
G01X00144030
M16
G00X00101530Y00587550
M15
G01X00094030
M16
G00X00101530Y00732550
M15
G01X00094030
M16
G00X00126530Y00732550
M15
G01X00119030
M16
G00X00151530Y00732550
M15
G01X00144030
M16
G00X00291530Y00732550
M15
G01X00284030
M16
G00X00316530Y00732550
M15
G01X00309030
M16
G00X00341530Y00732550
M15
G01X00334030
M16
G00X00341530Y00587550
M15
G01X00334030
M16
G00X00341530Y00562550
M15
G01X00334030
M16
G00X00316530Y00562550
M15
G01X00309030
M16
G00X00291530Y00562550
M15
G01X00284030
M16
G00X00291530Y00587550
M15
G01X00284030
M16
G00X00291530Y00417550
M15
G01X00284030
M16
G00X00291530Y00392550
M15
G01X00284030
M16
G00X00316530Y00392550
M15
G01X00309030
M16
G00X00341530Y00392550
M15
G01X00334030
M16
G00X00341530Y00417550
M15
G01X00334030
M16
G00X00341530Y00757550
M15
G01X00334030
M16
G00X00291530Y00757550
M15
G01X00284030
M16
G00X00151530Y00757550
M15
G01X00144030
M16
G00X00101530Y00757550
M15
G01X00094030
M16
G00X00101530Y00902550
M15
G01X00094030
M16
G00X00126530Y00902550
M15
G01X00119030
M16
G00X00151530Y00902550
M15
G01X00144030
M16
G00X00291530Y00902550
M15
G01X00284030
M16
G00X00316530Y00902550
M15
G01X00309030
M16
G00X00341530Y00902550
M15
G01X00334030
M16
T04
G00X00227380Y00154900
M15
G01X00222380
M16
G00X00227380Y00211500
M15
G01X00222380
M16
G00X00227380Y00324900
M15
G01X00222380
M16
G00X00417380Y00324900
M15
G01X00412380
M16
G00X00417380Y00211500
M15
G01X00412380
M16
G00X00417380Y00154900
M15
G01X00412380
M16
G00X00417380Y00381500
M15
G01X00412380
M16
G00X00417380Y00494900
M15
G01X00412380
M16
G00X00417380Y00551500
M15
G01X00412380
M16
G00X00417380Y00664900
M15
G01X00412380
M16
G00X00417380Y00721500
M15
G01X00412380
M16
G00X00227380Y00721500
M15
G01X00222380
M16
G00X00227380Y00664900
M15
G01X00222380
M16
G00X00227380Y00551500
M15
G01X00222380
M16
G00X00227380Y00494900
M15
G01X00222380
M16
G00X00227380Y00381500
M15
G01X00222380
M16
G00X00227380Y00834900
M15
G01X00222380
M16
G00X00227380Y00891500
M15
G01X00222380
M16
G00X00417380Y00891500
M15
G01X00412380
M16
G00X00417380Y00834900
M15
G01X00412380
M16
T05
G00X00069030Y00156300
M15
G01Y00143800
M16
G00X00176530Y00156300
M15
G01Y00143800
M16
G00X00259030Y00156300
M15
G01Y00143800
M16
G00X00259030Y00326300
M15
G01Y00313800
M16
G00X00176530Y00326300
M15
G01Y00313800
M16
G00X00069030Y00326300
M15
G01Y00313800
M16
G00X00366530Y00326300
M15
G01Y00313800
M16
G00X00366530Y00156300
M15
G01Y00143800
M16
G00X00366530Y00496300
M15
G01Y00483800
M16
G00X00366530Y00666300
M15
G01Y00653800
M16
G00X00259030Y00666300
M15
G01Y00653800
M16
G00X00176530Y00666300
M15
G01Y00653800
M16
G00X00069030Y00666300
M15
G01Y00653800
M16
G00X00069030Y00496300
M15
G01Y00483800
M16
G00X00176530Y00496300
M15
G01Y00483800
M16
G00X00259030Y00496300
M15
G01Y00483800
M16
G00X00259030Y00836300
M15
G01Y00823800
M16
G00X00176530Y00836300
M15
G01Y00823800
M16
G00X00069030Y00836300
M15
G01Y00823800
M16
G00X00366530Y00836300
M15
G01Y00823800
M16
M17
M30
