%TF.GenerationSoftware,Altium Limited,Altium Designer,20.1.8 (145)*%
G04 Layer_Color=16711833*
%FSLAX45Y45*%
%MOMM*%
%TF.SameCoordinates,B3CF18BB-8163-4733-9D89-4CFBB204D872*%
%TF.FilePolarity,Negative*%
%TF.FileFunction,Soldermask,Bot*%
%TF.Part,CustomerPanel*%
G01*
G75*
%TA.AperFunction,SMDPad,CuDef*%
%ADD33C,2.20320*%
G04:AMPARAMS|DCode=34|XSize=1.7mm|YSize=1.7mm|CornerRadius=0.058mm|HoleSize=0mm|Usage=FLASHONLY|Rotation=270.000|XOffset=0mm|YOffset=0mm|HoleType=Round|Shape=RoundedRectangle|*
%AMROUNDEDRECTD34*
21,1,1.70000,1.58400,0,0,270.0*
21,1,1.58400,1.70000,0,0,270.0*
1,1,0.11600,-0.79200,-0.79200*
1,1,0.11600,-0.79200,0.79200*
1,1,0.11600,0.79200,0.79200*
1,1,0.11600,0.79200,-0.79200*
%
%ADD34ROUNDEDRECTD34*%
%TA.AperFunction,ConnectorPad*%
G04:AMPARAMS|DCode=35|XSize=0.45mm|YSize=2.1mm|CornerRadius=0.225mm|HoleSize=0mm|Usage=FLASHONLY|Rotation=270.000|XOffset=0mm|YOffset=0mm|HoleType=Round|Shape=RoundedRectangle|*
%AMROUNDEDRECTD35*
21,1,0.45000,1.65000,0,0,270.0*
21,1,0.00000,2.10000,0,0,270.0*
1,1,0.45000,-0.82500,0.00000*
1,1,0.45000,-0.82500,0.00000*
1,1,0.45000,0.82500,0.00000*
1,1,0.45000,0.82500,0.00000*
%
%ADD35ROUNDEDRECTD35*%
%TA.AperFunction,SMDPad,CuDef*%
G04:AMPARAMS|DCode=36|XSize=1mm|YSize=1mm|CornerRadius=0.095mm|HoleSize=0mm|Usage=FLASHONLY|Rotation=180.000|XOffset=0mm|YOffset=0mm|HoleType=Round|Shape=RoundedRectangle|*
%AMROUNDEDRECTD36*
21,1,1.00000,0.81000,0,0,180.0*
21,1,0.81000,1.00000,0,0,180.0*
1,1,0.19000,-0.40500,0.40500*
1,1,0.19000,0.40500,0.40500*
1,1,0.19000,0.40500,-0.40500*
1,1,0.19000,-0.40500,-0.40500*
%
%ADD36ROUNDEDRECTD36*%
%ADD37O,1.15000X0.70000*%
G04:AMPARAMS|DCode=38|XSize=0.5mm|YSize=0.5mm|CornerRadius=0.052mm|HoleSize=0mm|Usage=FLASHONLY|Rotation=270.000|XOffset=0mm|YOffset=0mm|HoleType=Round|Shape=RoundedRectangle|*
%AMROUNDEDRECTD38*
21,1,0.50000,0.39600,0,0,270.0*
21,1,0.39600,0.50000,0,0,270.0*
1,1,0.10400,-0.19800,-0.19800*
1,1,0.10400,-0.19800,0.19800*
1,1,0.10400,0.19800,0.19800*
1,1,0.10400,0.19800,-0.19800*
%
%ADD38ROUNDEDRECTD38*%
G04:AMPARAMS|DCode=39|XSize=1mm|YSize=1mm|CornerRadius=0.0545mm|HoleSize=0mm|Usage=FLASHONLY|Rotation=0.000|XOffset=0mm|YOffset=0mm|HoleType=Round|Shape=RoundedRectangle|*
%AMROUNDEDRECTD39*
21,1,1.00000,0.89100,0,0,0.0*
21,1,0.89100,1.00000,0,0,0.0*
1,1,0.10900,0.44550,-0.44550*
1,1,0.10900,-0.44550,-0.44550*
1,1,0.10900,-0.44550,0.44550*
1,1,0.10900,0.44550,0.44550*
%
%ADD39ROUNDEDRECTD39*%
G04:AMPARAMS|DCode=40|XSize=1mm|YSize=1mm|CornerRadius=0.0545mm|HoleSize=0mm|Usage=FLASHONLY|Rotation=90.000|XOffset=0mm|YOffset=0mm|HoleType=Round|Shape=RoundedRectangle|*
%AMROUNDEDRECTD40*
21,1,1.00000,0.89100,0,0,90.0*
21,1,0.89100,1.00000,0,0,90.0*
1,1,0.10900,0.44550,0.44550*
1,1,0.10900,0.44550,-0.44550*
1,1,0.10900,-0.44550,-0.44550*
1,1,0.10900,-0.44550,0.44550*
%
%ADD40ROUNDEDRECTD40*%
%TA.AperFunction,WasherPad*%
%ADD41C,0.20320*%
%TA.AperFunction,ComponentPad*%
G04:AMPARAMS|DCode=42|XSize=2.1mm|YSize=3.35mm|CornerRadius=1.05mm|HoleSize=0mm|Usage=FLASHONLY|Rotation=180.000|XOffset=0mm|YOffset=0mm|HoleType=Round|Shape=RoundedRectangle|*
%AMROUNDEDRECTD42*
21,1,2.10000,1.25000,0,0,180.0*
21,1,0.00000,3.35000,0,0,180.0*
1,1,2.10000,0.00000,0.62500*
1,1,2.10000,0.00000,0.62500*
1,1,2.10000,0.00000,-0.62500*
1,1,2.10000,0.00000,-0.62500*
%
%ADD42ROUNDEDRECTD42*%
%ADD43O,2.10000X3.35000*%
%ADD44O,1.80000X1.10000*%
%ADD45O,2.10000X1.60000*%
%ADD46C,0.50000*%
G04:AMPARAMS|DCode=47|XSize=1.5mm|YSize=1.5mm|CornerRadius=0.75mm|HoleSize=0mm|Usage=FLASHONLY|Rotation=270.000|XOffset=0mm|YOffset=0mm|HoleType=Round|Shape=RoundedRectangle|*
%AMROUNDEDRECTD47*
21,1,1.50000,0.00000,0,0,270.0*
21,1,0.00000,1.50000,0,0,270.0*
1,1,1.50000,0.00000,0.00000*
1,1,1.50000,0.00000,0.00000*
1,1,1.50000,0.00000,0.00000*
1,1,1.50000,0.00000,0.00000*
%
%ADD47ROUNDEDRECTD47*%
D33*
X4100000Y9500000D02*
D03*
X700000D02*
D03*
X4100000Y300000D02*
D03*
X700000D02*
D03*
D34*
X1993800Y1492000D02*
D03*
Y2172000D02*
D03*
X3893800Y1492000D02*
D03*
Y2172000D02*
D03*
X1993800Y3192000D02*
D03*
Y3872000D02*
D03*
X3893800Y3192000D02*
D03*
Y3872000D02*
D03*
X1993800Y4892000D02*
D03*
Y5572000D02*
D03*
X3893800Y4892000D02*
D03*
Y5572000D02*
D03*
X1993800Y6592000D02*
D03*
Y7272000D02*
D03*
X3893800Y6592000D02*
D03*
Y7272000D02*
D03*
X1993800Y8292000D02*
D03*
Y8972000D02*
D03*
X3893800Y8292000D02*
D03*
Y8972000D02*
D03*
D35*
X1986300Y1832000D02*
D03*
Y1702000D02*
D03*
Y1767000D02*
D03*
Y1962000D02*
D03*
Y1897000D02*
D03*
X3886300Y1832000D02*
D03*
Y1702000D02*
D03*
Y1767000D02*
D03*
Y1962000D02*
D03*
Y1897000D02*
D03*
X1986300Y3532000D02*
D03*
Y3402000D02*
D03*
Y3467000D02*
D03*
Y3662000D02*
D03*
Y3597000D02*
D03*
X3886300Y3532000D02*
D03*
Y3402000D02*
D03*
Y3467000D02*
D03*
Y3662000D02*
D03*
Y3597000D02*
D03*
X1986300Y5232000D02*
D03*
Y5102000D02*
D03*
Y5167000D02*
D03*
Y5362000D02*
D03*
Y5297000D02*
D03*
X3886300Y5232000D02*
D03*
Y5102000D02*
D03*
Y5167000D02*
D03*
Y5362000D02*
D03*
Y5297000D02*
D03*
X1986300Y6932000D02*
D03*
Y6802000D02*
D03*
Y6867000D02*
D03*
Y7062000D02*
D03*
Y6997000D02*
D03*
X3886300Y6932000D02*
D03*
Y6802000D02*
D03*
Y6867000D02*
D03*
Y7062000D02*
D03*
Y6997000D02*
D03*
X1986300Y8632000D02*
D03*
Y8502000D02*
D03*
Y8567000D02*
D03*
Y8762000D02*
D03*
Y8697000D02*
D03*
X3886300Y8632000D02*
D03*
Y8502000D02*
D03*
Y8567000D02*
D03*
Y8762000D02*
D03*
Y8697000D02*
D03*
D36*
X1801140Y2112860D02*
D03*
X1641140D02*
D03*
X3701140D02*
D03*
X3541140D02*
D03*
X1801140Y3812860D02*
D03*
X1641140D02*
D03*
X3701140D02*
D03*
X3541140D02*
D03*
X1801140Y5512860D02*
D03*
X1641140D02*
D03*
X3701140D02*
D03*
X3541140D02*
D03*
X1801140Y7212860D02*
D03*
X1641140D02*
D03*
X3701140D02*
D03*
X3541140D02*
D03*
X1801140Y8912860D02*
D03*
X1641140D02*
D03*
X3701140D02*
D03*
X3541140D02*
D03*
D37*
X958980Y984480D02*
D03*
Y1111480D02*
D03*
Y1238480D02*
D03*
Y1365480D02*
D03*
Y1492480D02*
D03*
Y1619480D02*
D03*
Y1746480D02*
D03*
Y1873480D02*
D03*
X1498980Y984480D02*
D03*
Y1111480D02*
D03*
Y1238480D02*
D03*
Y1365480D02*
D03*
Y1492480D02*
D03*
Y1619480D02*
D03*
Y1746480D02*
D03*
Y1873480D02*
D03*
X2858980Y984480D02*
D03*
Y1111480D02*
D03*
Y1238480D02*
D03*
Y1365480D02*
D03*
Y1492480D02*
D03*
Y1619480D02*
D03*
Y1746480D02*
D03*
Y1873480D02*
D03*
X3398980Y984480D02*
D03*
Y1111480D02*
D03*
Y1238480D02*
D03*
Y1365480D02*
D03*
Y1492480D02*
D03*
Y1619480D02*
D03*
Y1746480D02*
D03*
Y1873480D02*
D03*
X958980Y2684480D02*
D03*
Y2811480D02*
D03*
Y2938480D02*
D03*
Y3065480D02*
D03*
Y3192480D02*
D03*
Y3319480D02*
D03*
Y3446480D02*
D03*
Y3573480D02*
D03*
X1498980Y2684480D02*
D03*
Y2811480D02*
D03*
Y2938480D02*
D03*
Y3065480D02*
D03*
Y3192480D02*
D03*
Y3319480D02*
D03*
Y3446480D02*
D03*
Y3573480D02*
D03*
X2858980Y2684480D02*
D03*
Y2811480D02*
D03*
Y2938480D02*
D03*
Y3065480D02*
D03*
Y3192480D02*
D03*
Y3319480D02*
D03*
Y3446480D02*
D03*
Y3573480D02*
D03*
X3398980Y2684480D02*
D03*
Y2811480D02*
D03*
Y2938480D02*
D03*
Y3065480D02*
D03*
Y3192480D02*
D03*
Y3319480D02*
D03*
Y3446480D02*
D03*
Y3573480D02*
D03*
X958980Y4384480D02*
D03*
Y4511480D02*
D03*
Y4638480D02*
D03*
Y4765480D02*
D03*
Y4892480D02*
D03*
Y5019480D02*
D03*
Y5146480D02*
D03*
Y5273480D02*
D03*
X1498980Y4384480D02*
D03*
Y4511480D02*
D03*
Y4638480D02*
D03*
Y4765480D02*
D03*
Y4892480D02*
D03*
Y5019480D02*
D03*
Y5146480D02*
D03*
Y5273480D02*
D03*
X2858980Y4384480D02*
D03*
Y4511480D02*
D03*
Y4638480D02*
D03*
Y4765480D02*
D03*
Y4892480D02*
D03*
Y5019480D02*
D03*
Y5146480D02*
D03*
Y5273480D02*
D03*
X3398980Y4384480D02*
D03*
Y4511480D02*
D03*
Y4638480D02*
D03*
Y4765480D02*
D03*
Y4892480D02*
D03*
Y5019480D02*
D03*
Y5146480D02*
D03*
Y5273480D02*
D03*
X958980Y6084480D02*
D03*
Y6211480D02*
D03*
Y6338480D02*
D03*
Y6465480D02*
D03*
Y6592480D02*
D03*
Y6719480D02*
D03*
Y6846480D02*
D03*
Y6973480D02*
D03*
X1498980Y6084480D02*
D03*
Y6211480D02*
D03*
Y6338480D02*
D03*
Y6465480D02*
D03*
Y6592480D02*
D03*
Y6719480D02*
D03*
Y6846480D02*
D03*
Y6973480D02*
D03*
X2858980Y6084480D02*
D03*
Y6211480D02*
D03*
Y6338480D02*
D03*
Y6465480D02*
D03*
Y6592480D02*
D03*
Y6719480D02*
D03*
Y6846480D02*
D03*
Y6973480D02*
D03*
X3398980Y6084480D02*
D03*
Y6211480D02*
D03*
Y6338480D02*
D03*
Y6465480D02*
D03*
Y6592480D02*
D03*
Y6719480D02*
D03*
Y6846480D02*
D03*
Y6973480D02*
D03*
X958980Y7784480D02*
D03*
Y7911480D02*
D03*
Y8038480D02*
D03*
Y8165480D02*
D03*
Y8292480D02*
D03*
Y8419480D02*
D03*
Y8546480D02*
D03*
Y8673480D02*
D03*
X1498980Y7784480D02*
D03*
Y7911480D02*
D03*
Y8038480D02*
D03*
Y8165480D02*
D03*
Y8292480D02*
D03*
Y8419480D02*
D03*
Y8546480D02*
D03*
Y8673480D02*
D03*
X2858980Y7784480D02*
D03*
Y7911480D02*
D03*
Y8038480D02*
D03*
Y8165480D02*
D03*
Y8292480D02*
D03*
Y8419480D02*
D03*
Y8546480D02*
D03*
Y8673480D02*
D03*
X3398980Y7784480D02*
D03*
Y7911480D02*
D03*
Y8038480D02*
D03*
Y8165480D02*
D03*
Y8292480D02*
D03*
Y8419480D02*
D03*
Y8546480D02*
D03*
Y8673480D02*
D03*
D38*
X1788248Y1799620D02*
D03*
Y1709619D02*
D03*
Y1992080D02*
D03*
Y1902080D02*
D03*
X1641440Y1992080D02*
D03*
Y1902080D02*
D03*
X3688248Y1799620D02*
D03*
Y1709619D02*
D03*
Y1992080D02*
D03*
Y1902080D02*
D03*
X3541440Y1992080D02*
D03*
Y1902080D02*
D03*
X1788248Y3499620D02*
D03*
Y3409620D02*
D03*
Y3692080D02*
D03*
Y3602080D02*
D03*
X1641440Y3692080D02*
D03*
Y3602080D02*
D03*
X3688248Y3499620D02*
D03*
Y3409620D02*
D03*
Y3692080D02*
D03*
Y3602080D02*
D03*
X3541440Y3692080D02*
D03*
Y3602080D02*
D03*
X1788248Y5199620D02*
D03*
Y5109620D02*
D03*
Y5392080D02*
D03*
Y5302080D02*
D03*
X1641440Y5392080D02*
D03*
Y5302080D02*
D03*
X3688248Y5199620D02*
D03*
Y5109620D02*
D03*
Y5392080D02*
D03*
Y5302080D02*
D03*
X3541440Y5392080D02*
D03*
Y5302080D02*
D03*
X1788248Y6899620D02*
D03*
Y6809620D02*
D03*
Y7092080D02*
D03*
Y7002080D02*
D03*
X1641440Y7092080D02*
D03*
Y7002080D02*
D03*
X3688248Y6899620D02*
D03*
Y6809620D02*
D03*
Y7092080D02*
D03*
Y7002080D02*
D03*
X3541440Y7092080D02*
D03*
Y7002080D02*
D03*
X1788248Y8599620D02*
D03*
Y8509620D02*
D03*
Y8792080D02*
D03*
Y8702080D02*
D03*
X1641440Y8792080D02*
D03*
Y8702080D02*
D03*
X3688248Y8599620D02*
D03*
Y8509620D02*
D03*
Y8792080D02*
D03*
Y8702080D02*
D03*
X3541440Y8792080D02*
D03*
Y8702080D02*
D03*
D39*
X1152840Y775500D02*
D03*
X1312840D02*
D03*
X680340Y969240D02*
D03*
Y1129240D02*
D03*
X816600Y1751540D02*
D03*
Y1911540D02*
D03*
X817500Y969240D02*
D03*
Y1129240D02*
D03*
X3052840Y775500D02*
D03*
X3212840D02*
D03*
X2580340Y969240D02*
D03*
Y1129240D02*
D03*
X2716600Y1751540D02*
D03*
Y1911540D02*
D03*
X2717500Y969240D02*
D03*
Y1129240D02*
D03*
X1152840Y2475500D02*
D03*
X1312840D02*
D03*
X680340Y2669240D02*
D03*
Y2829240D02*
D03*
X816600Y3451540D02*
D03*
Y3611540D02*
D03*
X817500Y2669240D02*
D03*
Y2829240D02*
D03*
X3052840Y2475500D02*
D03*
X3212840D02*
D03*
X2580340Y2669240D02*
D03*
Y2829240D02*
D03*
X2716600Y3451540D02*
D03*
Y3611540D02*
D03*
X2717500Y2669240D02*
D03*
Y2829240D02*
D03*
X1152840Y4175500D02*
D03*
X1312840D02*
D03*
X680340Y4369240D02*
D03*
Y4529240D02*
D03*
X816600Y5151540D02*
D03*
Y5311540D02*
D03*
X817500Y4369240D02*
D03*
Y4529240D02*
D03*
X3052840Y4175500D02*
D03*
X3212840D02*
D03*
X2580340Y4369240D02*
D03*
Y4529240D02*
D03*
X2716600Y5151540D02*
D03*
Y5311540D02*
D03*
X2717500Y4369240D02*
D03*
Y4529240D02*
D03*
X1152840Y5875500D02*
D03*
X1312840D02*
D03*
X680340Y6069240D02*
D03*
Y6229240D02*
D03*
X816600Y6851540D02*
D03*
Y7011540D02*
D03*
X817500Y6069240D02*
D03*
Y6229240D02*
D03*
X3052840Y5875500D02*
D03*
X3212840D02*
D03*
X2580340Y6069240D02*
D03*
Y6229240D02*
D03*
X2716600Y6851540D02*
D03*
Y7011540D02*
D03*
X2717500Y6069240D02*
D03*
Y6229240D02*
D03*
X1152840Y7575500D02*
D03*
X1312840D02*
D03*
X680340Y7769240D02*
D03*
Y7929240D02*
D03*
X816600Y8551540D02*
D03*
Y8711540D02*
D03*
X817500Y7769240D02*
D03*
Y7929240D02*
D03*
X3052840Y7575500D02*
D03*
X3212840D02*
D03*
X2580340Y7769240D02*
D03*
Y7929240D02*
D03*
X2716600Y8551540D02*
D03*
Y8711540D02*
D03*
X2717500Y7769240D02*
D03*
Y7929240D02*
D03*
D40*
X1674904Y1127602D02*
D03*
X1834904D02*
D03*
X1674904Y849969D02*
D03*
X1834904D02*
D03*
X1674904Y988785D02*
D03*
X1834904D02*
D03*
X1674904Y1266418D02*
D03*
X1834904D02*
D03*
X763340Y2046325D02*
D03*
X923340D02*
D03*
X1348199D02*
D03*
X1508199D02*
D03*
X1215770D02*
D03*
X1055770D02*
D03*
X3574904Y1127602D02*
D03*
X3734904D02*
D03*
X3574904Y849969D02*
D03*
X3734904D02*
D03*
X3574904Y988785D02*
D03*
X3734904D02*
D03*
X3574904Y1266418D02*
D03*
X3734904D02*
D03*
X2663340Y2046325D02*
D03*
X2823340D02*
D03*
X3248199D02*
D03*
X3408199D02*
D03*
X3115770D02*
D03*
X2955770D02*
D03*
X1674904Y2827602D02*
D03*
X1834904D02*
D03*
X1674904Y2549969D02*
D03*
X1834904D02*
D03*
X1674904Y2688785D02*
D03*
X1834904D02*
D03*
X1674904Y2966419D02*
D03*
X1834904D02*
D03*
X763340Y3746325D02*
D03*
X923340D02*
D03*
X1348199D02*
D03*
X1508199D02*
D03*
X1215770D02*
D03*
X1055770D02*
D03*
X3574904Y2827602D02*
D03*
X3734904D02*
D03*
X3574904Y2549969D02*
D03*
X3734904D02*
D03*
X3574904Y2688785D02*
D03*
X3734904D02*
D03*
X3574904Y2966419D02*
D03*
X3734904D02*
D03*
X2663340Y3746325D02*
D03*
X2823340D02*
D03*
X3248199D02*
D03*
X3408199D02*
D03*
X3115770D02*
D03*
X2955770D02*
D03*
X1674904Y4527602D02*
D03*
X1834904D02*
D03*
X1674904Y4249969D02*
D03*
X1834904D02*
D03*
X1674904Y4388785D02*
D03*
X1834904D02*
D03*
X1674904Y4666419D02*
D03*
X1834904D02*
D03*
X763340Y5446325D02*
D03*
X923340D02*
D03*
X1348199D02*
D03*
X1508199D02*
D03*
X1215770D02*
D03*
X1055770D02*
D03*
X3574904Y4527602D02*
D03*
X3734904D02*
D03*
X3574904Y4249969D02*
D03*
X3734904D02*
D03*
X3574904Y4388785D02*
D03*
X3734904D02*
D03*
X3574904Y4666419D02*
D03*
X3734904D02*
D03*
X2663340Y5446325D02*
D03*
X2823340D02*
D03*
X3248199D02*
D03*
X3408199D02*
D03*
X3115770D02*
D03*
X2955770D02*
D03*
X1674904Y6227602D02*
D03*
X1834904D02*
D03*
X1674904Y5949969D02*
D03*
X1834904D02*
D03*
X1674904Y6088786D02*
D03*
X1834904D02*
D03*
X1674904Y6366419D02*
D03*
X1834904D02*
D03*
X763340Y7146325D02*
D03*
X923340D02*
D03*
X1348199D02*
D03*
X1508199D02*
D03*
X1215770D02*
D03*
X1055770D02*
D03*
X3574904Y6227602D02*
D03*
X3734904D02*
D03*
X3574904Y5949969D02*
D03*
X3734904D02*
D03*
X3574904Y6088786D02*
D03*
X3734904D02*
D03*
X3574904Y6366419D02*
D03*
X3734904D02*
D03*
X2663340Y7146325D02*
D03*
X2823340D02*
D03*
X3248199D02*
D03*
X3408199D02*
D03*
X3115770D02*
D03*
X2955770D02*
D03*
X1674904Y7927602D02*
D03*
X1834904D02*
D03*
X1674904Y7649969D02*
D03*
X1834904D02*
D03*
X1674904Y7788786D02*
D03*
X1834904D02*
D03*
X1674904Y8066419D02*
D03*
X1834904D02*
D03*
X763340Y8846325D02*
D03*
X923340D02*
D03*
X1348199D02*
D03*
X1508199D02*
D03*
X1215770D02*
D03*
X1055770D02*
D03*
X3574904Y7927602D02*
D03*
X3734904D02*
D03*
X3574904Y7649969D02*
D03*
X3734904D02*
D03*
X3574904Y7788786D02*
D03*
X3734904D02*
D03*
X3574904Y8066419D02*
D03*
X3734904D02*
D03*
X2663340Y8846325D02*
D03*
X2823340D02*
D03*
X3248199D02*
D03*
X3408199D02*
D03*
X3115770D02*
D03*
X2955770D02*
D03*
D41*
X4500000Y9500000D02*
D03*
X300000D02*
D03*
X4500000Y300000D02*
D03*
X300000D02*
D03*
D42*
X1765300Y1500500D02*
D03*
X3665300D02*
D03*
X1765300Y3200500D02*
D03*
X3665300D02*
D03*
X1765300Y4900500D02*
D03*
X3665300D02*
D03*
X1765300Y6600500D02*
D03*
X3665300D02*
D03*
X1765300Y8300500D02*
D03*
X3665300D02*
D03*
D43*
X690300Y1500500D02*
D03*
X2590300D02*
D03*
X690300Y3200500D02*
D03*
X2590300D02*
D03*
X690300Y4900500D02*
D03*
X2590300D02*
D03*
X690300Y6600500D02*
D03*
X2590300D02*
D03*
X690300Y8300500D02*
D03*
X2590300D02*
D03*
D44*
X1477800Y2225500D02*
D03*
X977800D02*
D03*
X1227800D02*
D03*
X1477800Y775500D02*
D03*
X977800D02*
D03*
X3377800Y2225500D02*
D03*
X2877800D02*
D03*
X3127800D02*
D03*
X3377800Y775500D02*
D03*
X2877800D02*
D03*
X1477800Y3925500D02*
D03*
X977800D02*
D03*
X1227800D02*
D03*
X1477800Y2475500D02*
D03*
X977800D02*
D03*
X3377800Y3925500D02*
D03*
X2877800D02*
D03*
X3127800D02*
D03*
X3377800Y2475500D02*
D03*
X2877800D02*
D03*
X1477800Y5625500D02*
D03*
X977800D02*
D03*
X1227800D02*
D03*
X1477800Y4175500D02*
D03*
X977800D02*
D03*
X3377800Y5625500D02*
D03*
X2877800D02*
D03*
X3127800D02*
D03*
X3377800Y4175500D02*
D03*
X2877800D02*
D03*
X1477800Y7325500D02*
D03*
X977800D02*
D03*
X1227800D02*
D03*
X1477800Y5875500D02*
D03*
X977800D02*
D03*
X3377800Y7325500D02*
D03*
X2877800D02*
D03*
X3127800D02*
D03*
X3377800Y5875500D02*
D03*
X2877800D02*
D03*
X1477800Y9025500D02*
D03*
X977800D02*
D03*
X1227800D02*
D03*
X1477800Y7575500D02*
D03*
X977800D02*
D03*
X3377800Y9025500D02*
D03*
X2877800D02*
D03*
X3127800D02*
D03*
X3377800Y7575500D02*
D03*
X2877800D02*
D03*
D45*
X2248800Y1549000D02*
D03*
Y2115000D02*
D03*
X4148800Y1549000D02*
D03*
Y2115000D02*
D03*
X2248800Y3249000D02*
D03*
Y3815000D02*
D03*
X4148800Y3249000D02*
D03*
Y3815000D02*
D03*
X2248800Y4949000D02*
D03*
Y5515000D02*
D03*
X4148800Y4949000D02*
D03*
Y5515000D02*
D03*
X2248800Y6649000D02*
D03*
Y7215000D02*
D03*
X4148800Y6649000D02*
D03*
Y7215000D02*
D03*
X2248800Y8349000D02*
D03*
Y8915000D02*
D03*
X4148800Y8349000D02*
D03*
Y8915000D02*
D03*
D46*
X2013800Y1632000D02*
D03*
Y2032000D02*
D03*
X3913800Y1632000D02*
D03*
Y2032000D02*
D03*
X2013800Y3332000D02*
D03*
Y3732000D02*
D03*
X3913800Y3332000D02*
D03*
Y3732000D02*
D03*
X2013800Y5032000D02*
D03*
Y5432000D02*
D03*
X3913800Y5032000D02*
D03*
Y5432000D02*
D03*
X2013800Y6732000D02*
D03*
Y7132000D02*
D03*
X3913800Y6732000D02*
D03*
Y7132000D02*
D03*
X2013800Y8432000D02*
D03*
Y8832000D02*
D03*
X3913800Y8432000D02*
D03*
Y8832000D02*
D03*
D47*
X2248800Y806680D02*
D03*
Y1314680D02*
D03*
Y1060680D02*
D03*
X4148800Y806680D02*
D03*
Y1314680D02*
D03*
Y1060680D02*
D03*
X2248800Y2506680D02*
D03*
Y3014680D02*
D03*
Y2760680D02*
D03*
X4148800Y2506680D02*
D03*
Y3014680D02*
D03*
Y2760680D02*
D03*
X2248800Y4206680D02*
D03*
Y4714680D02*
D03*
Y4460680D02*
D03*
X4148800Y4206680D02*
D03*
Y4714680D02*
D03*
Y4460680D02*
D03*
X2248800Y5906680D02*
D03*
Y6414680D02*
D03*
Y6160680D02*
D03*
X4148800Y5906680D02*
D03*
Y6414680D02*
D03*
Y6160680D02*
D03*
X2248800Y7606680D02*
D03*
Y8114680D02*
D03*
Y7860680D02*
D03*
X4148800Y7606680D02*
D03*
Y8114680D02*
D03*
Y7860680D02*
D03*
%TF.MD5,081d11030a6e67d2da710cbe3cf7867b*%
M02*
