%TF.GenerationSoftware,Altium Limited,Altium Designer,20.1.8 (145)*%
G04 Layer_Physical_Order=2*
G04 Layer_Color=16728128*
%FSLAX45Y45*%
%MOMM*%
%TF.SameCoordinates,B3CF18BB-8163-4733-9D89-4CFBB204D872*%
%TF.FilePolarity,Positive*%
%TF.FileFunction,Copper,L2,Bot,Signal*%
%TF.Part,CustomerPanel*%
G01*
G75*
%TA.AperFunction,ComponentPad*%
G04:AMPARAMS|DCode=10|XSize=2mm|YSize=3.25mm|CornerRadius=1mm|HoleSize=0mm|Usage=FLASHONLY|Rotation=180.000|XOffset=0mm|YOffset=0mm|HoleType=Round|Shape=RoundedRectangle|*
%AMROUNDEDRECTD10*
21,1,2.00000,1.25000,0,0,180.0*
21,1,0.00000,3.25000,0,0,180.0*
1,1,2.00000,0.00000,0.62500*
1,1,2.00000,0.00000,0.62500*
1,1,2.00000,0.00000,-0.62500*
1,1,2.00000,0.00000,-0.62500*
%
%ADD10ROUNDEDRECTD10*%
%ADD11O,2.00000X3.25000*%
%ADD12O,1.70000X1.00000*%
%ADD13O,2.00000X1.50000*%
G04:AMPARAMS|DCode=14|XSize=1.4mm|YSize=1.4mm|CornerRadius=0.7mm|HoleSize=0mm|Usage=FLASHONLY|Rotation=270.000|XOffset=0mm|YOffset=0mm|HoleType=Round|Shape=RoundedRectangle|*
%AMROUNDEDRECTD14*
21,1,1.40000,0.00000,0,0,270.0*
21,1,0.00000,1.40000,0,0,270.0*
1,1,1.40000,0.00000,0.00000*
1,1,1.40000,0.00000,0.00000*
1,1,1.40000,0.00000,0.00000*
1,1,1.40000,0.00000,0.00000*
%
%ADD14ROUNDEDRECTD14*%
%TA.AperFunction,ViaPad*%
%ADD15C,0.61000*%
%TA.AperFunction,SMDPad,CuDef*%
%ADD16C,2.00000*%
G04:AMPARAMS|DCode=17|XSize=1.6mm|YSize=1.6mm|CornerRadius=0.008mm|HoleSize=0mm|Usage=FLASHONLY|Rotation=270.000|XOffset=0mm|YOffset=0mm|HoleType=Round|Shape=RoundedRectangle|*
%AMROUNDEDRECTD17*
21,1,1.60000,1.58400,0,0,270.0*
21,1,1.58400,1.60000,0,0,270.0*
1,1,0.01600,-0.79200,-0.79200*
1,1,0.01600,-0.79200,0.79200*
1,1,0.01600,0.79200,0.79200*
1,1,0.01600,0.79200,-0.79200*
%
%ADD17ROUNDEDRECTD17*%
%TA.AperFunction,ConnectorPad*%
G04:AMPARAMS|DCode=18|XSize=0.35mm|YSize=2mm|CornerRadius=0.175mm|HoleSize=0mm|Usage=FLASHONLY|Rotation=270.000|XOffset=0mm|YOffset=0mm|HoleType=Round|Shape=RoundedRectangle|*
%AMROUNDEDRECTD18*
21,1,0.35000,1.65000,0,0,270.0*
21,1,0.00000,2.00000,0,0,270.0*
1,1,0.35000,-0.82500,0.00000*
1,1,0.35000,-0.82500,0.00000*
1,1,0.35000,0.82500,0.00000*
1,1,0.35000,0.82500,0.00000*
%
%ADD18ROUNDEDRECTD18*%
%TA.AperFunction,SMDPad,CuDef*%
G04:AMPARAMS|DCode=19|XSize=0.9mm|YSize=0.9mm|CornerRadius=0.045mm|HoleSize=0mm|Usage=FLASHONLY|Rotation=180.000|XOffset=0mm|YOffset=0mm|HoleType=Round|Shape=RoundedRectangle|*
%AMROUNDEDRECTD19*
21,1,0.90000,0.81000,0,0,180.0*
21,1,0.81000,0.90000,0,0,180.0*
1,1,0.09000,-0.40500,0.40500*
1,1,0.09000,0.40500,0.40500*
1,1,0.09000,0.40500,-0.40500*
1,1,0.09000,-0.40500,-0.40500*
%
%ADD19ROUNDEDRECTD19*%
%ADD20O,1.05000X0.60000*%
G04:AMPARAMS|DCode=21|XSize=0.4mm|YSize=0.4mm|CornerRadius=0.002mm|HoleSize=0mm|Usage=FLASHONLY|Rotation=270.000|XOffset=0mm|YOffset=0mm|HoleType=Round|Shape=RoundedRectangle|*
%AMROUNDEDRECTD21*
21,1,0.40000,0.39600,0,0,270.0*
21,1,0.39600,0.40000,0,0,270.0*
1,1,0.00400,-0.19800,-0.19800*
1,1,0.00400,-0.19800,0.19800*
1,1,0.00400,0.19800,0.19800*
1,1,0.00400,0.19800,-0.19800*
%
%ADD21ROUNDEDRECTD21*%
G04:AMPARAMS|DCode=22|XSize=0.9mm|YSize=0.9mm|CornerRadius=0.0045mm|HoleSize=0mm|Usage=FLASHONLY|Rotation=0.000|XOffset=0mm|YOffset=0mm|HoleType=Round|Shape=RoundedRectangle|*
%AMROUNDEDRECTD22*
21,1,0.90000,0.89100,0,0,0.0*
21,1,0.89100,0.90000,0,0,0.0*
1,1,0.00900,0.44550,-0.44550*
1,1,0.00900,-0.44550,-0.44550*
1,1,0.00900,-0.44550,0.44550*
1,1,0.00900,0.44550,0.44550*
%
%ADD22ROUNDEDRECTD22*%
G04:AMPARAMS|DCode=23|XSize=0.9mm|YSize=0.9mm|CornerRadius=0.0045mm|HoleSize=0mm|Usage=FLASHONLY|Rotation=90.000|XOffset=0mm|YOffset=0mm|HoleType=Round|Shape=RoundedRectangle|*
%AMROUNDEDRECTD23*
21,1,0.90000,0.89100,0,0,90.0*
21,1,0.89100,0.90000,0,0,90.0*
1,1,0.00900,0.44550,0.44550*
1,1,0.00900,0.44550,-0.44550*
1,1,0.00900,-0.44550,-0.44550*
1,1,0.00900,-0.44550,0.44550*
%
%ADD23ROUNDEDRECTD23*%
%TA.AperFunction,Conductor*%
%ADD24C,0.15240*%
%ADD25C,0.12700*%
%ADD26C,0.22860*%
%ADD27C,0.27940*%
%ADD28C,0.35560*%
D10*
X1765300Y1500500D02*
D03*
X3665300D02*
D03*
X1765300Y3200500D02*
D03*
X3665300D02*
D03*
X1765300Y4900500D02*
D03*
X3665300D02*
D03*
X1765300Y6600500D02*
D03*
X3665300D02*
D03*
X1765300Y8300500D02*
D03*
X3665300D02*
D03*
D11*
X690300Y1500500D02*
D03*
X2590300D02*
D03*
X690300Y3200500D02*
D03*
X2590300D02*
D03*
X690300Y4900500D02*
D03*
X2590300D02*
D03*
X690300Y6600500D02*
D03*
X2590300D02*
D03*
X690300Y8300500D02*
D03*
X2590300D02*
D03*
D12*
X1477800Y2225500D02*
D03*
X977800D02*
D03*
X1227800D02*
D03*
X1477800Y775500D02*
D03*
X977800D02*
D03*
X3377800Y2225500D02*
D03*
X2877800D02*
D03*
X3127800D02*
D03*
X3377800Y775500D02*
D03*
X2877800D02*
D03*
X1477800Y3925500D02*
D03*
X977800D02*
D03*
X1227800D02*
D03*
X1477800Y2475500D02*
D03*
X977800D02*
D03*
X3377800Y3925500D02*
D03*
X2877800D02*
D03*
X3127800D02*
D03*
X3377800Y2475500D02*
D03*
X2877800D02*
D03*
X1477800Y5625500D02*
D03*
X977800D02*
D03*
X1227800D02*
D03*
X1477800Y4175500D02*
D03*
X977800D02*
D03*
X3377800Y5625500D02*
D03*
X2877800D02*
D03*
X3127800D02*
D03*
X3377800Y4175500D02*
D03*
X2877800D02*
D03*
X1477800Y7325500D02*
D03*
X977800D02*
D03*
X1227800D02*
D03*
X1477800Y5875500D02*
D03*
X977800D02*
D03*
X3377800Y7325500D02*
D03*
X2877800D02*
D03*
X3127800D02*
D03*
X3377800Y5875500D02*
D03*
X2877800D02*
D03*
X1477800Y9025500D02*
D03*
X977800D02*
D03*
X1227800D02*
D03*
X1477800Y7575500D02*
D03*
X977800D02*
D03*
X3377800Y9025500D02*
D03*
X2877800D02*
D03*
X3127800D02*
D03*
X3377800Y7575500D02*
D03*
X2877800D02*
D03*
D13*
X2248800Y1549000D02*
D03*
Y2115000D02*
D03*
X4148800Y1549000D02*
D03*
Y2115000D02*
D03*
X2248800Y3249000D02*
D03*
Y3815000D02*
D03*
X4148800Y3249000D02*
D03*
Y3815000D02*
D03*
X2248800Y4949000D02*
D03*
Y5515000D02*
D03*
X4148800Y4949000D02*
D03*
Y5515000D02*
D03*
X2248800Y6649000D02*
D03*
Y7215000D02*
D03*
X4148800Y6649000D02*
D03*
Y7215000D02*
D03*
X2248800Y8349000D02*
D03*
Y8915000D02*
D03*
X4148800Y8349000D02*
D03*
Y8915000D02*
D03*
D14*
X2248800Y806680D02*
D03*
Y1314680D02*
D03*
Y1060680D02*
D03*
X4148800Y806680D02*
D03*
Y1314680D02*
D03*
Y1060680D02*
D03*
X2248800Y2506680D02*
D03*
Y3014680D02*
D03*
Y2760680D02*
D03*
X4148800Y2506680D02*
D03*
Y3014680D02*
D03*
Y2760680D02*
D03*
X2248800Y4206680D02*
D03*
Y4714680D02*
D03*
Y4460680D02*
D03*
X4148800Y4206680D02*
D03*
Y4714680D02*
D03*
Y4460680D02*
D03*
X2248800Y5906680D02*
D03*
Y6414680D02*
D03*
Y6160680D02*
D03*
X4148800Y5906680D02*
D03*
Y6414680D02*
D03*
Y6160680D02*
D03*
X2248800Y7606680D02*
D03*
Y8114680D02*
D03*
Y7860680D02*
D03*
X4148800Y7606680D02*
D03*
Y8114680D02*
D03*
Y7860680D02*
D03*
D15*
X1709428Y1947080D02*
D03*
X817500Y1210842D02*
D03*
X1583234Y1238480D02*
D03*
X1912875Y1127602D02*
D03*
X735356Y1751540D02*
D03*
X1912875Y988785D02*
D03*
X2120520Y1702000D02*
D03*
X1414726Y1238480D02*
D03*
X1055770Y1965042D02*
D03*
X1045616Y1619480D02*
D03*
X1852243Y1702000D02*
D03*
X3609428Y1947080D02*
D03*
X2717500Y1210842D02*
D03*
X3483234Y1238480D02*
D03*
X3812875Y1127602D02*
D03*
X2635356Y1751540D02*
D03*
X3812875Y988785D02*
D03*
X4020520Y1702000D02*
D03*
X3314726Y1238480D02*
D03*
X2955770Y1965042D02*
D03*
X2945616Y1619480D02*
D03*
X3752243Y1702000D02*
D03*
X1709428Y3647080D02*
D03*
X817500Y2910842D02*
D03*
X1583234Y2938480D02*
D03*
X1912875Y2827602D02*
D03*
X735356Y3451540D02*
D03*
X1912875Y2688785D02*
D03*
X2120520Y3402000D02*
D03*
X1414726Y2938480D02*
D03*
X1055770Y3665042D02*
D03*
X1045616Y3319480D02*
D03*
X1852243Y3402000D02*
D03*
X3609428Y3647080D02*
D03*
X2717500Y2910842D02*
D03*
X3483234Y2938480D02*
D03*
X3812875Y2827602D02*
D03*
X2635356Y3451540D02*
D03*
X3812875Y2688785D02*
D03*
X4020520Y3402000D02*
D03*
X3314726Y2938480D02*
D03*
X2955770Y3665042D02*
D03*
X2945616Y3319480D02*
D03*
X3752243Y3402000D02*
D03*
X1709428Y5347080D02*
D03*
X817500Y4610842D02*
D03*
X1583234Y4638480D02*
D03*
X1912875Y4527602D02*
D03*
X735356Y5151540D02*
D03*
X1912875Y4388785D02*
D03*
X2120520Y5102000D02*
D03*
X1414726Y4638480D02*
D03*
X1055770Y5365043D02*
D03*
X1045616Y5019480D02*
D03*
X1852243Y5102000D02*
D03*
X3609428Y5347080D02*
D03*
X2717500Y4610842D02*
D03*
X3483234Y4638480D02*
D03*
X3812875Y4527602D02*
D03*
X2635356Y5151540D02*
D03*
X3812875Y4388785D02*
D03*
X4020520Y5102000D02*
D03*
X3314726Y4638480D02*
D03*
X2955770Y5365043D02*
D03*
X2945616Y5019480D02*
D03*
X3752243Y5102000D02*
D03*
X1709428Y7047080D02*
D03*
X817500Y6310843D02*
D03*
X1583234Y6338480D02*
D03*
X1912875Y6227602D02*
D03*
X735356Y6851540D02*
D03*
X1912875Y6088786D02*
D03*
X2120520Y6802000D02*
D03*
X1414726Y6338480D02*
D03*
X1055770Y7065043D02*
D03*
X1045616Y6719480D02*
D03*
X1852243Y6802000D02*
D03*
X3609428Y7047080D02*
D03*
X2717500Y6310843D02*
D03*
X3483234Y6338480D02*
D03*
X3812875Y6227602D02*
D03*
X2635356Y6851540D02*
D03*
X3812875Y6088786D02*
D03*
X4020520Y6802000D02*
D03*
X3314726Y6338480D02*
D03*
X2955770Y7065043D02*
D03*
X2945616Y6719480D02*
D03*
X3752243Y6802000D02*
D03*
X1709428Y8747080D02*
D03*
X817500Y8010843D02*
D03*
X1583234Y8038480D02*
D03*
X1912875Y7927602D02*
D03*
X735356Y8551540D02*
D03*
X1912875Y7788786D02*
D03*
X2120520Y8502000D02*
D03*
X1414726Y8038480D02*
D03*
X1055770Y8765043D02*
D03*
X1045616Y8419480D02*
D03*
X1852243Y8502000D02*
D03*
X3609428Y8747080D02*
D03*
X2717500Y8010843D02*
D03*
X3483234Y8038480D02*
D03*
X3812875Y7927602D02*
D03*
X2635356Y8551540D02*
D03*
X3812875Y7788786D02*
D03*
X4020520Y8502000D02*
D03*
X3314726Y8038480D02*
D03*
X2955770Y8765043D02*
D03*
X2945616Y8419480D02*
D03*
X3752243Y8502000D02*
D03*
D16*
X4100000Y9500000D02*
D03*
X700000D02*
D03*
X4100000Y300000D02*
D03*
X700000D02*
D03*
D17*
X1993800Y1492000D02*
D03*
Y2172000D02*
D03*
X3893800Y1492000D02*
D03*
Y2172000D02*
D03*
X1993800Y3192000D02*
D03*
Y3872000D02*
D03*
X3893800Y3192000D02*
D03*
Y3872000D02*
D03*
X1993800Y4892000D02*
D03*
Y5572000D02*
D03*
X3893800Y4892000D02*
D03*
Y5572000D02*
D03*
X1993800Y6592000D02*
D03*
Y7272000D02*
D03*
X3893800Y6592000D02*
D03*
Y7272000D02*
D03*
X1993800Y8292000D02*
D03*
Y8972000D02*
D03*
X3893800Y8292000D02*
D03*
Y8972000D02*
D03*
D18*
X1986300Y1832000D02*
D03*
Y1702000D02*
D03*
Y1767000D02*
D03*
Y1962000D02*
D03*
Y1897000D02*
D03*
X3886300Y1832000D02*
D03*
Y1702000D02*
D03*
Y1767000D02*
D03*
Y1962000D02*
D03*
Y1897000D02*
D03*
X1986300Y3532000D02*
D03*
Y3402000D02*
D03*
Y3467000D02*
D03*
Y3662000D02*
D03*
Y3597000D02*
D03*
X3886300Y3532000D02*
D03*
Y3402000D02*
D03*
Y3467000D02*
D03*
Y3662000D02*
D03*
Y3597000D02*
D03*
X1986300Y5232000D02*
D03*
Y5102000D02*
D03*
Y5167000D02*
D03*
Y5362000D02*
D03*
Y5297000D02*
D03*
X3886300Y5232000D02*
D03*
Y5102000D02*
D03*
Y5167000D02*
D03*
Y5362000D02*
D03*
Y5297000D02*
D03*
X1986300Y6932000D02*
D03*
Y6802000D02*
D03*
Y6867000D02*
D03*
Y7062000D02*
D03*
Y6997000D02*
D03*
X3886300Y6932000D02*
D03*
Y6802000D02*
D03*
Y6867000D02*
D03*
Y7062000D02*
D03*
Y6997000D02*
D03*
X1986300Y8632000D02*
D03*
Y8502000D02*
D03*
Y8567000D02*
D03*
Y8762000D02*
D03*
Y8697000D02*
D03*
X3886300Y8632000D02*
D03*
Y8502000D02*
D03*
Y8567000D02*
D03*
Y8762000D02*
D03*
Y8697000D02*
D03*
D19*
X1801140Y2112860D02*
D03*
X1641140D02*
D03*
X3701140D02*
D03*
X3541140D02*
D03*
X1801140Y3812860D02*
D03*
X1641140D02*
D03*
X3701140D02*
D03*
X3541140D02*
D03*
X1801140Y5512860D02*
D03*
X1641140D02*
D03*
X3701140D02*
D03*
X3541140D02*
D03*
X1801140Y7212860D02*
D03*
X1641140D02*
D03*
X3701140D02*
D03*
X3541140D02*
D03*
X1801140Y8912860D02*
D03*
X1641140D02*
D03*
X3701140D02*
D03*
X3541140D02*
D03*
D20*
X958980Y984480D02*
D03*
Y1111480D02*
D03*
Y1238480D02*
D03*
Y1365480D02*
D03*
Y1492480D02*
D03*
Y1619480D02*
D03*
Y1746480D02*
D03*
Y1873480D02*
D03*
X1498980Y984480D02*
D03*
Y1111480D02*
D03*
Y1238480D02*
D03*
Y1365480D02*
D03*
Y1492480D02*
D03*
Y1619480D02*
D03*
Y1746480D02*
D03*
Y1873480D02*
D03*
X2858980Y984480D02*
D03*
Y1111480D02*
D03*
Y1238480D02*
D03*
Y1365480D02*
D03*
Y1492480D02*
D03*
Y1619480D02*
D03*
Y1746480D02*
D03*
Y1873480D02*
D03*
X3398980Y984480D02*
D03*
Y1111480D02*
D03*
Y1238480D02*
D03*
Y1365480D02*
D03*
Y1492480D02*
D03*
Y1619480D02*
D03*
Y1746480D02*
D03*
Y1873480D02*
D03*
X958980Y2684480D02*
D03*
Y2811480D02*
D03*
Y2938480D02*
D03*
Y3065480D02*
D03*
Y3192480D02*
D03*
Y3319480D02*
D03*
Y3446480D02*
D03*
Y3573480D02*
D03*
X1498980Y2684480D02*
D03*
Y2811480D02*
D03*
Y2938480D02*
D03*
Y3065480D02*
D03*
Y3192480D02*
D03*
Y3319480D02*
D03*
Y3446480D02*
D03*
Y3573480D02*
D03*
X2858980Y2684480D02*
D03*
Y2811480D02*
D03*
Y2938480D02*
D03*
Y3065480D02*
D03*
Y3192480D02*
D03*
Y3319480D02*
D03*
Y3446480D02*
D03*
Y3573480D02*
D03*
X3398980Y2684480D02*
D03*
Y2811480D02*
D03*
Y2938480D02*
D03*
Y3065480D02*
D03*
Y3192480D02*
D03*
Y3319480D02*
D03*
Y3446480D02*
D03*
Y3573480D02*
D03*
X958980Y4384480D02*
D03*
Y4511480D02*
D03*
Y4638480D02*
D03*
Y4765480D02*
D03*
Y4892480D02*
D03*
Y5019480D02*
D03*
Y5146480D02*
D03*
Y5273480D02*
D03*
X1498980Y4384480D02*
D03*
Y4511480D02*
D03*
Y4638480D02*
D03*
Y4765480D02*
D03*
Y4892480D02*
D03*
Y5019480D02*
D03*
Y5146480D02*
D03*
Y5273480D02*
D03*
X2858980Y4384480D02*
D03*
Y4511480D02*
D03*
Y4638480D02*
D03*
Y4765480D02*
D03*
Y4892480D02*
D03*
Y5019480D02*
D03*
Y5146480D02*
D03*
Y5273480D02*
D03*
X3398980Y4384480D02*
D03*
Y4511480D02*
D03*
Y4638480D02*
D03*
Y4765480D02*
D03*
Y4892480D02*
D03*
Y5019480D02*
D03*
Y5146480D02*
D03*
Y5273480D02*
D03*
X958980Y6084480D02*
D03*
Y6211480D02*
D03*
Y6338480D02*
D03*
Y6465480D02*
D03*
Y6592480D02*
D03*
Y6719480D02*
D03*
Y6846480D02*
D03*
Y6973480D02*
D03*
X1498980Y6084480D02*
D03*
Y6211480D02*
D03*
Y6338480D02*
D03*
Y6465480D02*
D03*
Y6592480D02*
D03*
Y6719480D02*
D03*
Y6846480D02*
D03*
Y6973480D02*
D03*
X2858980Y6084480D02*
D03*
Y6211480D02*
D03*
Y6338480D02*
D03*
Y6465480D02*
D03*
Y6592480D02*
D03*
Y6719480D02*
D03*
Y6846480D02*
D03*
Y6973480D02*
D03*
X3398980Y6084480D02*
D03*
Y6211480D02*
D03*
Y6338480D02*
D03*
Y6465480D02*
D03*
Y6592480D02*
D03*
Y6719480D02*
D03*
Y6846480D02*
D03*
Y6973480D02*
D03*
X958980Y7784480D02*
D03*
Y7911480D02*
D03*
Y8038480D02*
D03*
Y8165480D02*
D03*
Y8292480D02*
D03*
Y8419480D02*
D03*
Y8546480D02*
D03*
Y8673480D02*
D03*
X1498980Y7784480D02*
D03*
Y7911480D02*
D03*
Y8038480D02*
D03*
Y8165480D02*
D03*
Y8292480D02*
D03*
Y8419480D02*
D03*
Y8546480D02*
D03*
Y8673480D02*
D03*
X2858980Y7784480D02*
D03*
Y7911480D02*
D03*
Y8038480D02*
D03*
Y8165480D02*
D03*
Y8292480D02*
D03*
Y8419480D02*
D03*
Y8546480D02*
D03*
Y8673480D02*
D03*
X3398980Y7784480D02*
D03*
Y7911480D02*
D03*
Y8038480D02*
D03*
Y8165480D02*
D03*
Y8292480D02*
D03*
Y8419480D02*
D03*
Y8546480D02*
D03*
Y8673480D02*
D03*
D21*
X1788248Y1799620D02*
D03*
Y1709619D02*
D03*
Y1992080D02*
D03*
Y1902080D02*
D03*
X1641440Y1992080D02*
D03*
Y1902080D02*
D03*
X3688248Y1799620D02*
D03*
Y1709619D02*
D03*
Y1992080D02*
D03*
Y1902080D02*
D03*
X3541440Y1992080D02*
D03*
Y1902080D02*
D03*
X1788248Y3499620D02*
D03*
Y3409620D02*
D03*
Y3692080D02*
D03*
Y3602080D02*
D03*
X1641440Y3692080D02*
D03*
Y3602080D02*
D03*
X3688248Y3499620D02*
D03*
Y3409620D02*
D03*
Y3692080D02*
D03*
Y3602080D02*
D03*
X3541440Y3692080D02*
D03*
Y3602080D02*
D03*
X1788248Y5199620D02*
D03*
Y5109620D02*
D03*
Y5392080D02*
D03*
Y5302080D02*
D03*
X1641440Y5392080D02*
D03*
Y5302080D02*
D03*
X3688248Y5199620D02*
D03*
Y5109620D02*
D03*
Y5392080D02*
D03*
Y5302080D02*
D03*
X3541440Y5392080D02*
D03*
Y5302080D02*
D03*
X1788248Y6899620D02*
D03*
Y6809620D02*
D03*
Y7092080D02*
D03*
Y7002080D02*
D03*
X1641440Y7092080D02*
D03*
Y7002080D02*
D03*
X3688248Y6899620D02*
D03*
Y6809620D02*
D03*
Y7092080D02*
D03*
Y7002080D02*
D03*
X3541440Y7092080D02*
D03*
Y7002080D02*
D03*
X1788248Y8599620D02*
D03*
Y8509620D02*
D03*
Y8792080D02*
D03*
Y8702080D02*
D03*
X1641440Y8792080D02*
D03*
Y8702080D02*
D03*
X3688248Y8599620D02*
D03*
Y8509620D02*
D03*
Y8792080D02*
D03*
Y8702080D02*
D03*
X3541440Y8792080D02*
D03*
Y8702080D02*
D03*
D22*
X1152840Y775500D02*
D03*
X1312840D02*
D03*
X680340Y969240D02*
D03*
Y1129240D02*
D03*
X816600Y1751540D02*
D03*
Y1911540D02*
D03*
X817500Y969240D02*
D03*
Y1129240D02*
D03*
X3052840Y775500D02*
D03*
X3212840D02*
D03*
X2580340Y969240D02*
D03*
Y1129240D02*
D03*
X2716600Y1751540D02*
D03*
Y1911540D02*
D03*
X2717500Y969240D02*
D03*
Y1129240D02*
D03*
X1152840Y2475500D02*
D03*
X1312840D02*
D03*
X680340Y2669240D02*
D03*
Y2829240D02*
D03*
X816600Y3451540D02*
D03*
Y3611540D02*
D03*
X817500Y2669240D02*
D03*
Y2829240D02*
D03*
X3052840Y2475500D02*
D03*
X3212840D02*
D03*
X2580340Y2669240D02*
D03*
Y2829240D02*
D03*
X2716600Y3451540D02*
D03*
Y3611540D02*
D03*
X2717500Y2669240D02*
D03*
Y2829240D02*
D03*
X1152840Y4175500D02*
D03*
X1312840D02*
D03*
X680340Y4369240D02*
D03*
Y4529240D02*
D03*
X816600Y5151540D02*
D03*
Y5311540D02*
D03*
X817500Y4369240D02*
D03*
Y4529240D02*
D03*
X3052840Y4175500D02*
D03*
X3212840D02*
D03*
X2580340Y4369240D02*
D03*
Y4529240D02*
D03*
X2716600Y5151540D02*
D03*
Y5311540D02*
D03*
X2717500Y4369240D02*
D03*
Y4529240D02*
D03*
X1152840Y5875500D02*
D03*
X1312840D02*
D03*
X680340Y6069240D02*
D03*
Y6229240D02*
D03*
X816600Y6851540D02*
D03*
Y7011540D02*
D03*
X817500Y6069240D02*
D03*
Y6229240D02*
D03*
X3052840Y5875500D02*
D03*
X3212840D02*
D03*
X2580340Y6069240D02*
D03*
Y6229240D02*
D03*
X2716600Y6851540D02*
D03*
Y7011540D02*
D03*
X2717500Y6069240D02*
D03*
Y6229240D02*
D03*
X1152840Y7575500D02*
D03*
X1312840D02*
D03*
X680340Y7769240D02*
D03*
Y7929240D02*
D03*
X816600Y8551540D02*
D03*
Y8711540D02*
D03*
X817500Y7769240D02*
D03*
Y7929240D02*
D03*
X3052840Y7575500D02*
D03*
X3212840D02*
D03*
X2580340Y7769240D02*
D03*
Y7929240D02*
D03*
X2716600Y8551540D02*
D03*
Y8711540D02*
D03*
X2717500Y7769240D02*
D03*
Y7929240D02*
D03*
D23*
X1674904Y1127602D02*
D03*
X1834904D02*
D03*
X1674904Y849969D02*
D03*
X1834904D02*
D03*
X1674904Y988785D02*
D03*
X1834904D02*
D03*
X1674904Y1266418D02*
D03*
X1834904D02*
D03*
X763340Y2046325D02*
D03*
X923340D02*
D03*
X1348199D02*
D03*
X1508199D02*
D03*
X1215770D02*
D03*
X1055770D02*
D03*
X3574904Y1127602D02*
D03*
X3734904D02*
D03*
X3574904Y849969D02*
D03*
X3734904D02*
D03*
X3574904Y988785D02*
D03*
X3734904D02*
D03*
X3574904Y1266418D02*
D03*
X3734904D02*
D03*
X2663340Y2046325D02*
D03*
X2823340D02*
D03*
X3248199D02*
D03*
X3408199D02*
D03*
X3115770D02*
D03*
X2955770D02*
D03*
X1674904Y2827602D02*
D03*
X1834904D02*
D03*
X1674904Y2549969D02*
D03*
X1834904D02*
D03*
X1674904Y2688785D02*
D03*
X1834904D02*
D03*
X1674904Y2966419D02*
D03*
X1834904D02*
D03*
X763340Y3746325D02*
D03*
X923340D02*
D03*
X1348199D02*
D03*
X1508199D02*
D03*
X1215770D02*
D03*
X1055770D02*
D03*
X3574904Y2827602D02*
D03*
X3734904D02*
D03*
X3574904Y2549969D02*
D03*
X3734904D02*
D03*
X3574904Y2688785D02*
D03*
X3734904D02*
D03*
X3574904Y2966419D02*
D03*
X3734904D02*
D03*
X2663340Y3746325D02*
D03*
X2823340D02*
D03*
X3248199D02*
D03*
X3408199D02*
D03*
X3115770D02*
D03*
X2955770D02*
D03*
X1674904Y4527602D02*
D03*
X1834904D02*
D03*
X1674904Y4249969D02*
D03*
X1834904D02*
D03*
X1674904Y4388785D02*
D03*
X1834904D02*
D03*
X1674904Y4666419D02*
D03*
X1834904D02*
D03*
X763340Y5446325D02*
D03*
X923340D02*
D03*
X1348199D02*
D03*
X1508199D02*
D03*
X1215770D02*
D03*
X1055770D02*
D03*
X3574904Y4527602D02*
D03*
X3734904D02*
D03*
X3574904Y4249969D02*
D03*
X3734904D02*
D03*
X3574904Y4388785D02*
D03*
X3734904D02*
D03*
X3574904Y4666419D02*
D03*
X3734904D02*
D03*
X2663340Y5446325D02*
D03*
X2823340D02*
D03*
X3248199D02*
D03*
X3408199D02*
D03*
X3115770D02*
D03*
X2955770D02*
D03*
X1674904Y6227602D02*
D03*
X1834904D02*
D03*
X1674904Y5949969D02*
D03*
X1834904D02*
D03*
X1674904Y6088786D02*
D03*
X1834904D02*
D03*
X1674904Y6366419D02*
D03*
X1834904D02*
D03*
X763340Y7146325D02*
D03*
X923340D02*
D03*
X1348199D02*
D03*
X1508199D02*
D03*
X1215770D02*
D03*
X1055770D02*
D03*
X3574904Y6227602D02*
D03*
X3734904D02*
D03*
X3574904Y5949969D02*
D03*
X3734904D02*
D03*
X3574904Y6088786D02*
D03*
X3734904D02*
D03*
X3574904Y6366419D02*
D03*
X3734904D02*
D03*
X2663340Y7146325D02*
D03*
X2823340D02*
D03*
X3248199D02*
D03*
X3408199D02*
D03*
X3115770D02*
D03*
X2955770D02*
D03*
X1674904Y7927602D02*
D03*
X1834904D02*
D03*
X1674904Y7649969D02*
D03*
X1834904D02*
D03*
X1674904Y7788786D02*
D03*
X1834904D02*
D03*
X1674904Y8066419D02*
D03*
X1834904D02*
D03*
X763340Y8846325D02*
D03*
X923340D02*
D03*
X1348199D02*
D03*
X1508199D02*
D03*
X1215770D02*
D03*
X1055770D02*
D03*
X3574904Y7927602D02*
D03*
X3734904D02*
D03*
X3574904Y7649969D02*
D03*
X3734904D02*
D03*
X3574904Y7788786D02*
D03*
X3734904D02*
D03*
X3574904Y8066419D02*
D03*
X3734904D02*
D03*
X2663340Y8846325D02*
D03*
X2823340D02*
D03*
X3248199D02*
D03*
X3408199D02*
D03*
X3115770D02*
D03*
X2955770D02*
D03*
D24*
X1712284Y951405D02*
X1728147D01*
X1754904Y914131D02*
Y924648D01*
X1728147Y951405D02*
X1754904Y924648D01*
X1781686Y887349D02*
X1797524D01*
X1754904Y914131D02*
X1781686Y887349D01*
X1674904Y988785D02*
X1712284Y951405D01*
X1674904Y988785D02*
X1679209Y984480D01*
X1498980Y1111480D02*
X1658782D01*
X1674904Y1127602D01*
X1498980Y984480D02*
X1679209D01*
X1834904Y849969D02*
X2021746D01*
X2232457Y1060680D01*
X1797524Y887349D02*
X1834904Y849969D01*
X1350221Y812880D02*
X1377141D01*
X1414229Y849969D02*
X1674904D01*
X1377141Y812880D02*
X1414229Y849969D01*
X1312840Y775500D02*
X1350221Y812880D01*
X1359363Y1831117D02*
X1480777Y1952532D01*
X1567569D02*
X1594737Y1979700D01*
X1480777Y1952532D02*
X1567569D01*
X1359363Y1190906D02*
Y1831117D01*
X1438789Y1111480D02*
X1498980D01*
X1359363Y1190906D02*
X1438789Y1111480D01*
X1641140Y1992380D02*
X1641440Y1992080D01*
X1641140Y1992380D02*
Y2112860D01*
X1629060Y1979700D02*
X1641440Y1992080D01*
X1838421Y2025039D02*
Y2075579D01*
X1901461Y1962000D02*
X1986300D01*
X1838421Y2025039D02*
X1901461Y1962000D01*
X1801140Y2112860D02*
X1838421Y2075579D01*
X1594737Y1979700D02*
X1629060D01*
X2232457Y1060680D02*
X2248800D01*
X3612284Y951405D02*
X3628147D01*
X3654904Y914131D02*
Y924648D01*
X3628147Y951405D02*
X3654904Y924648D01*
X3681686Y887349D02*
X3697524D01*
X3654904Y914131D02*
X3681686Y887349D01*
X3574904Y988785D02*
X3612284Y951405D01*
X3574904Y988785D02*
X3579209Y984480D01*
X3398980Y1111480D02*
X3558782D01*
X3574904Y1127602D01*
X3398980Y984480D02*
X3579209D01*
X3734904Y849969D02*
X3921746D01*
X4132457Y1060680D01*
X3697524Y887349D02*
X3734904Y849969D01*
X3250221Y812880D02*
X3277141D01*
X3314229Y849969D02*
X3574904D01*
X3277141Y812880D02*
X3314229Y849969D01*
X3212840Y775500D02*
X3250221Y812880D01*
X3259363Y1831117D02*
X3380777Y1952532D01*
X3467569D02*
X3494737Y1979700D01*
X3380777Y1952532D02*
X3467569D01*
X3259363Y1190906D02*
Y1831117D01*
X3338789Y1111480D02*
X3398980D01*
X3259363Y1190906D02*
X3338789Y1111480D01*
X3541140Y1992380D02*
X3541440Y1992080D01*
X3541140Y1992380D02*
Y2112860D01*
X3529060Y1979700D02*
X3541440Y1992080D01*
X3738421Y2025039D02*
Y2075579D01*
X3801461Y1962000D02*
X3886300D01*
X3738421Y2025039D02*
X3801461Y1962000D01*
X3701140Y2112860D02*
X3738421Y2075579D01*
X3494737Y1979700D02*
X3529060D01*
X4132457Y1060680D02*
X4148800D01*
X1712284Y2651405D02*
X1728147D01*
X1754904Y2614131D02*
Y2624649D01*
X1728147Y2651405D02*
X1754904Y2624649D01*
X1781686Y2587349D02*
X1797524D01*
X1754904Y2614131D02*
X1781686Y2587349D01*
X1674904Y2688785D02*
X1712284Y2651405D01*
X1674904Y2688785D02*
X1679209Y2684480D01*
X1498980Y2811480D02*
X1658782D01*
X1674904Y2827602D01*
X1498980Y2684480D02*
X1679209D01*
X1834904Y2549969D02*
X2021746D01*
X2232457Y2760680D01*
X1797524Y2587349D02*
X1834904Y2549969D01*
X1350221Y2512880D02*
X1377141D01*
X1414229Y2549969D02*
X1674904D01*
X1377141Y2512880D02*
X1414229Y2549969D01*
X1312840Y2475500D02*
X1350221Y2512880D01*
X1359363Y3531117D02*
X1480777Y3652532D01*
X1567569D02*
X1594737Y3679700D01*
X1480777Y3652532D02*
X1567569D01*
X1359363Y2890906D02*
Y3531117D01*
X1438789Y2811480D02*
X1498980D01*
X1359363Y2890906D02*
X1438789Y2811480D01*
X1641140Y3692380D02*
X1641440Y3692080D01*
X1641140Y3692380D02*
Y3812860D01*
X1629060Y3679700D02*
X1641440Y3692080D01*
X1838421Y3725040D02*
Y3775579D01*
X1901461Y3662000D02*
X1986300D01*
X1838421Y3725040D02*
X1901461Y3662000D01*
X1801140Y3812860D02*
X1838421Y3775579D01*
X1594737Y3679700D02*
X1629060D01*
X2232457Y2760680D02*
X2248800D01*
X3612284Y2651405D02*
X3628147D01*
X3654904Y2614131D02*
Y2624649D01*
X3628147Y2651405D02*
X3654904Y2624649D01*
X3681686Y2587349D02*
X3697524D01*
X3654904Y2614131D02*
X3681686Y2587349D01*
X3574904Y2688785D02*
X3612284Y2651405D01*
X3574904Y2688785D02*
X3579209Y2684480D01*
X3398980Y2811480D02*
X3558782D01*
X3574904Y2827602D01*
X3398980Y2684480D02*
X3579209D01*
X3734904Y2549969D02*
X3921746D01*
X4132457Y2760680D01*
X3697524Y2587349D02*
X3734904Y2549969D01*
X3250221Y2512880D02*
X3277141D01*
X3314229Y2549969D02*
X3574904D01*
X3277141Y2512880D02*
X3314229Y2549969D01*
X3212840Y2475500D02*
X3250221Y2512880D01*
X3259363Y3531117D02*
X3380777Y3652532D01*
X3467569D02*
X3494737Y3679700D01*
X3380777Y3652532D02*
X3467569D01*
X3259363Y2890906D02*
Y3531117D01*
X3338789Y2811480D02*
X3398980D01*
X3259363Y2890906D02*
X3338789Y2811480D01*
X3541140Y3692380D02*
X3541440Y3692080D01*
X3541140Y3692380D02*
Y3812860D01*
X3529060Y3679700D02*
X3541440Y3692080D01*
X3738421Y3725040D02*
Y3775579D01*
X3801461Y3662000D02*
X3886300D01*
X3738421Y3725040D02*
X3801461Y3662000D01*
X3701140Y3812860D02*
X3738421Y3775579D01*
X3494737Y3679700D02*
X3529060D01*
X4132457Y2760680D02*
X4148800D01*
X1712284Y4351405D02*
X1728147D01*
X1754904Y4314131D02*
Y4324649D01*
X1728147Y4351405D02*
X1754904Y4324649D01*
X1781686Y4287349D02*
X1797524D01*
X1754904Y4314131D02*
X1781686Y4287349D01*
X1674904Y4388785D02*
X1712284Y4351405D01*
X1674904Y4388785D02*
X1679209Y4384480D01*
X1498980Y4511480D02*
X1658782D01*
X1674904Y4527602D01*
X1498980Y4384480D02*
X1679209D01*
X1834904Y4249969D02*
X2021746D01*
X2232457Y4460680D01*
X1797524Y4287349D02*
X1834904Y4249969D01*
X1350221Y4212880D02*
X1377141D01*
X1414229Y4249969D02*
X1674904D01*
X1377141Y4212880D02*
X1414229Y4249969D01*
X1312840Y4175500D02*
X1350221Y4212880D01*
X1359363Y5231118D02*
X1480777Y5352532D01*
X1567569D02*
X1594737Y5379700D01*
X1480777Y5352532D02*
X1567569D01*
X1359363Y4590906D02*
Y5231118D01*
X1438789Y4511480D02*
X1498980D01*
X1359363Y4590906D02*
X1438789Y4511480D01*
X1641140Y5392380D02*
X1641440Y5392080D01*
X1641140Y5392380D02*
Y5512860D01*
X1629060Y5379700D02*
X1641440Y5392080D01*
X1838421Y5425040D02*
Y5475579D01*
X1901461Y5362000D02*
X1986300D01*
X1838421Y5425040D02*
X1901461Y5362000D01*
X1801140Y5512860D02*
X1838421Y5475579D01*
X1594737Y5379700D02*
X1629060D01*
X2232457Y4460680D02*
X2248800D01*
X3612284Y4351405D02*
X3628147D01*
X3654904Y4314131D02*
Y4324649D01*
X3628147Y4351405D02*
X3654904Y4324649D01*
X3681686Y4287349D02*
X3697524D01*
X3654904Y4314131D02*
X3681686Y4287349D01*
X3574904Y4388785D02*
X3612284Y4351405D01*
X3574904Y4388785D02*
X3579209Y4384480D01*
X3398980Y4511480D02*
X3558782D01*
X3574904Y4527602D01*
X3398980Y4384480D02*
X3579209D01*
X3734904Y4249969D02*
X3921746D01*
X4132457Y4460680D01*
X3697524Y4287349D02*
X3734904Y4249969D01*
X3250221Y4212880D02*
X3277141D01*
X3314229Y4249969D02*
X3574904D01*
X3277141Y4212880D02*
X3314229Y4249969D01*
X3212840Y4175500D02*
X3250221Y4212880D01*
X3259363Y5231118D02*
X3380777Y5352532D01*
X3467569D02*
X3494737Y5379700D01*
X3380777Y5352532D02*
X3467569D01*
X3259363Y4590906D02*
Y5231118D01*
X3338789Y4511480D02*
X3398980D01*
X3259363Y4590906D02*
X3338789Y4511480D01*
X3541140Y5392380D02*
X3541440Y5392080D01*
X3541140Y5392380D02*
Y5512860D01*
X3529060Y5379700D02*
X3541440Y5392080D01*
X3738421Y5425040D02*
Y5475579D01*
X3801461Y5362000D02*
X3886300D01*
X3738421Y5425040D02*
X3801461Y5362000D01*
X3701140Y5512860D02*
X3738421Y5475579D01*
X3494737Y5379700D02*
X3529060D01*
X4132457Y4460680D02*
X4148800D01*
X1712284Y6051405D02*
X1728147D01*
X1754904Y6014131D02*
Y6024649D01*
X1728147Y6051405D02*
X1754904Y6024649D01*
X1781686Y5987349D02*
X1797524D01*
X1754904Y6014131D02*
X1781686Y5987349D01*
X1674904Y6088786D02*
X1712284Y6051405D01*
X1674904Y6088786D02*
X1679209Y6084480D01*
X1498980Y6211480D02*
X1658782D01*
X1674904Y6227602D01*
X1498980Y6084480D02*
X1679209D01*
X1834904Y5949969D02*
X2021746D01*
X2232457Y6160680D01*
X1797524Y5987349D02*
X1834904Y5949969D01*
X1350221Y5912880D02*
X1377141D01*
X1414229Y5949969D02*
X1674904D01*
X1377141Y5912880D02*
X1414229Y5949969D01*
X1312840Y5875500D02*
X1350221Y5912880D01*
X1359363Y6931118D02*
X1480777Y7052532D01*
X1567569D02*
X1594737Y7079700D01*
X1480777Y7052532D02*
X1567569D01*
X1359363Y6290906D02*
Y6931118D01*
X1438789Y6211480D02*
X1498980D01*
X1359363Y6290906D02*
X1438789Y6211480D01*
X1641140Y7092380D02*
X1641440Y7092080D01*
X1641140Y7092380D02*
Y7212860D01*
X1629060Y7079700D02*
X1641440Y7092080D01*
X1838421Y7125040D02*
Y7175579D01*
X1901461Y7062000D02*
X1986300D01*
X1838421Y7125040D02*
X1901461Y7062000D01*
X1801140Y7212860D02*
X1838421Y7175579D01*
X1594737Y7079700D02*
X1629060D01*
X2232457Y6160680D02*
X2248800D01*
X3612284Y6051405D02*
X3628147D01*
X3654904Y6014131D02*
Y6024649D01*
X3628147Y6051405D02*
X3654904Y6024649D01*
X3681686Y5987349D02*
X3697524D01*
X3654904Y6014131D02*
X3681686Y5987349D01*
X3574904Y6088786D02*
X3612284Y6051405D01*
X3574904Y6088786D02*
X3579209Y6084480D01*
X3398980Y6211480D02*
X3558782D01*
X3574904Y6227602D01*
X3398980Y6084480D02*
X3579209D01*
X3734904Y5949969D02*
X3921746D01*
X4132457Y6160680D01*
X3697524Y5987349D02*
X3734904Y5949969D01*
X3250221Y5912880D02*
X3277141D01*
X3314229Y5949969D02*
X3574904D01*
X3277141Y5912880D02*
X3314229Y5949969D01*
X3212840Y5875500D02*
X3250221Y5912880D01*
X3259363Y6931118D02*
X3380777Y7052532D01*
X3467569D02*
X3494737Y7079700D01*
X3380777Y7052532D02*
X3467569D01*
X3259363Y6290906D02*
Y6931118D01*
X3338789Y6211480D02*
X3398980D01*
X3259363Y6290906D02*
X3338789Y6211480D01*
X3541140Y7092380D02*
X3541440Y7092080D01*
X3541140Y7092380D02*
Y7212860D01*
X3529060Y7079700D02*
X3541440Y7092080D01*
X3738421Y7125040D02*
Y7175579D01*
X3801461Y7062000D02*
X3886300D01*
X3738421Y7125040D02*
X3801461Y7062000D01*
X3701140Y7212860D02*
X3738421Y7175579D01*
X3494737Y7079700D02*
X3529060D01*
X4132457Y6160680D02*
X4148800D01*
X1712284Y7751406D02*
X1728147D01*
X1754904Y7714131D02*
Y7724649D01*
X1728147Y7751406D02*
X1754904Y7724649D01*
X1781686Y7687349D02*
X1797524D01*
X1754904Y7714131D02*
X1781686Y7687349D01*
X1674904Y7788786D02*
X1712284Y7751406D01*
X1674904Y7788786D02*
X1679209Y7784480D01*
X1498980Y7911480D02*
X1658782D01*
X1674904Y7927602D01*
X1498980Y7784480D02*
X1679209D01*
X1834904Y7649969D02*
X2021746D01*
X2232457Y7860680D01*
X1797524Y7687349D02*
X1834904Y7649969D01*
X1350221Y7612880D02*
X1377141D01*
X1414229Y7649969D02*
X1674904D01*
X1377141Y7612880D02*
X1414229Y7649969D01*
X1312840Y7575500D02*
X1350221Y7612880D01*
X1359363Y8631118D02*
X1480777Y8752532D01*
X1567569D02*
X1594737Y8779700D01*
X1480777Y8752532D02*
X1567569D01*
X1359363Y7990907D02*
Y8631118D01*
X1438789Y7911480D02*
X1498980D01*
X1359363Y7990907D02*
X1438789Y7911480D01*
X1641140Y8792380D02*
X1641440Y8792080D01*
X1641140Y8792380D02*
Y8912860D01*
X1629060Y8779700D02*
X1641440Y8792080D01*
X1838421Y8825040D02*
Y8875579D01*
X1901461Y8762000D02*
X1986300D01*
X1838421Y8825040D02*
X1901461Y8762000D01*
X1801140Y8912860D02*
X1838421Y8875579D01*
X1594737Y8779700D02*
X1629060D01*
X2232457Y7860680D02*
X2248800D01*
X3612284Y7751406D02*
X3628147D01*
X3654904Y7714131D02*
Y7724649D01*
X3628147Y7751406D02*
X3654904Y7724649D01*
X3681686Y7687349D02*
X3697524D01*
X3654904Y7714131D02*
X3681686Y7687349D01*
X3574904Y7788786D02*
X3612284Y7751406D01*
X3574904Y7788786D02*
X3579209Y7784480D01*
X3398980Y7911480D02*
X3558782D01*
X3574904Y7927602D01*
X3398980Y7784480D02*
X3579209D01*
X3734904Y7649969D02*
X3921746D01*
X4132457Y7860680D01*
X3697524Y7687349D02*
X3734904Y7649969D01*
X3250221Y7612880D02*
X3277141D01*
X3314229Y7649969D02*
X3574904D01*
X3277141Y7612880D02*
X3314229Y7649969D01*
X3212840Y7575500D02*
X3250221Y7612880D01*
X3259363Y8631118D02*
X3380777Y8752532D01*
X3467569D02*
X3494737Y8779700D01*
X3380777Y8752532D02*
X3467569D01*
X3259363Y7990907D02*
Y8631118D01*
X3338789Y7911480D02*
X3398980D01*
X3259363Y7990907D02*
X3338789Y7911480D01*
X3541140Y8792380D02*
X3541440Y8792080D01*
X3541140Y8792380D02*
Y8912860D01*
X3529060Y8779700D02*
X3541440Y8792080D01*
X3738421Y8825040D02*
Y8875579D01*
X3801461Y8762000D02*
X3886300D01*
X3738421Y8825040D02*
X3801461Y8762000D01*
X3701140Y8912860D02*
X3738421Y8875579D01*
X3494737Y8779700D02*
X3529060D01*
X4132457Y7860680D02*
X4148800D01*
D25*
X1834904Y1266418D02*
X2016921D01*
X2065182Y1314679D02*
X2248800D01*
X2016921Y1266418D02*
X2065182Y1314679D01*
X2248800D02*
X2248800Y1314680D01*
X1636254Y1305069D02*
Y1492480D01*
Y1305069D02*
X1674904Y1266418D01*
X1498980Y1492480D02*
X1636254D01*
Y1678653D01*
X1757220Y1799620D01*
X1788248D01*
X1827348D01*
X1783169Y1897000D02*
X1788248Y1902080D01*
X1744959Y1897000D02*
X1783169D01*
X1788248Y1902080D02*
X1793988Y1896340D01*
X1985640D02*
X1986300Y1897000D01*
X1793988Y1896340D02*
X1985640D01*
X1152840Y740793D02*
Y973000D01*
X1019111Y1106730D02*
X1152840Y973000D01*
X1827348Y1799620D02*
X1859728Y1832000D01*
X795033Y2225500D02*
X977800D01*
X763340Y2193807D02*
X795033Y2225500D01*
X1477800Y2076724D02*
X1508199Y2046325D01*
X1477800Y2076724D02*
Y2225500D01*
X963730Y1106730D02*
X1019111D01*
X958980Y1111480D02*
X963730Y1106730D01*
X958980Y1746480D02*
X1019150D01*
X1215770Y1943100D02*
Y2046325D01*
X1019150Y1746480D02*
X1215770Y1943100D01*
X1468179Y1684308D02*
X1532267D01*
X1413966Y1630095D02*
X1468179Y1684308D01*
X1532267D02*
X1744959Y1897000D01*
X1859728Y1832000D02*
X1986300D01*
X680340Y969240D02*
X817500D01*
X832740Y984480D01*
X958980D01*
X735356Y1751540D02*
X816600D01*
X1055770Y1965042D02*
Y2046325D01*
X1413966Y1427634D02*
X1476120Y1365480D01*
X1413966Y1427634D02*
Y1630095D01*
X939600Y1932179D02*
Y2030065D01*
Y1892860D02*
Y1932179D01*
X572215Y862209D02*
X658924Y775500D01*
X572215Y1086526D02*
X614928Y1129240D01*
X572215Y862209D02*
Y1086526D01*
X614928Y1129240D02*
X680340D01*
X658924Y775500D02*
X977800D01*
X816600Y1911540D02*
X837239Y1932179D01*
X939600D01*
X923340Y2046325D02*
X939600Y2030065D01*
Y1892860D02*
X958980Y1873480D01*
X817500Y1129240D02*
Y1210842D01*
X1476120Y1365480D02*
X1498980D01*
X763340Y2046325D02*
Y2193807D01*
X1215770Y2046325D02*
X1348199D01*
X958980Y1619480D02*
X1045616D01*
X3734904Y1266418D02*
X3916921D01*
X3965182Y1314679D02*
X4148800D01*
X3916921Y1266418D02*
X3965182Y1314679D01*
X4148800D02*
X4148800Y1314680D01*
X3536254Y1305069D02*
Y1492480D01*
Y1305069D02*
X3574904Y1266418D01*
X3398980Y1492480D02*
X3536254D01*
Y1678653D01*
X3657220Y1799620D01*
X3688248D01*
X3727348D01*
X3683169Y1897000D02*
X3688248Y1902080D01*
X3644959Y1897000D02*
X3683169D01*
X3688248Y1902080D02*
X3693988Y1896340D01*
X3885640D02*
X3886300Y1897000D01*
X3693988Y1896340D02*
X3885640D01*
X3052840Y740793D02*
Y973000D01*
X2919111Y1106730D02*
X3052840Y973000D01*
X3727348Y1799620D02*
X3759728Y1832000D01*
X2695033Y2225500D02*
X2877800D01*
X2663340Y2193807D02*
X2695033Y2225500D01*
X3377800Y2076724D02*
X3408199Y2046325D01*
X3377800Y2076724D02*
Y2225500D01*
X2863730Y1106730D02*
X2919111D01*
X2858980Y1111480D02*
X2863730Y1106730D01*
X2858980Y1746480D02*
X2919150D01*
X3115770Y1943100D02*
Y2046325D01*
X2919150Y1746480D02*
X3115770Y1943100D01*
X3368179Y1684308D02*
X3432267D01*
X3313966Y1630095D02*
X3368179Y1684308D01*
X3432267D02*
X3644959Y1897000D01*
X3759728Y1832000D02*
X3886300D01*
X2580340Y969240D02*
X2717500D01*
X2732740Y984480D01*
X2858980D01*
X2635356Y1751540D02*
X2716600D01*
X2955770Y1965042D02*
Y2046325D01*
X3313966Y1427634D02*
X3376121Y1365480D01*
X3313966Y1427634D02*
Y1630095D01*
X2839600Y1932179D02*
Y2030065D01*
Y1892860D02*
Y1932179D01*
X2472215Y862209D02*
X2558924Y775500D01*
X2472215Y1086526D02*
X2514928Y1129240D01*
X2472215Y862209D02*
Y1086526D01*
X2514928Y1129240D02*
X2580340D01*
X2558924Y775500D02*
X2877800D01*
X2716600Y1911540D02*
X2737239Y1932179D01*
X2839600D01*
X2823340Y2046325D02*
X2839600Y2030065D01*
Y1892860D02*
X2858980Y1873480D01*
X2717500Y1129240D02*
Y1210842D01*
X3376121Y1365480D02*
X3398980D01*
X2663340Y2046325D02*
Y2193807D01*
X3115770Y2046325D02*
X3248199D01*
X2858980Y1619480D02*
X2945616D01*
X1834904Y2966419D02*
X2016921D01*
X2065182Y3014680D02*
X2248800D01*
X2016921Y2966419D02*
X2065182Y3014680D01*
X2248800D02*
X2248800Y3014680D01*
X1636254Y3005069D02*
Y3192480D01*
Y3005069D02*
X1674904Y2966419D01*
X1498980Y3192480D02*
X1636254D01*
Y3378653D01*
X1757220Y3499620D01*
X1788248D01*
X1827348D01*
X1783169Y3597000D02*
X1788248Y3602080D01*
X1744959Y3597000D02*
X1783169D01*
X1788248Y3602080D02*
X1793988Y3596340D01*
X1985640D02*
X1986300Y3597000D01*
X1793988Y3596340D02*
X1985640D01*
X1152840Y2440793D02*
Y2673000D01*
X1019111Y2806730D02*
X1152840Y2673000D01*
X1827348Y3499620D02*
X1859728Y3532000D01*
X795033Y3925500D02*
X977800D01*
X763340Y3893807D02*
X795033Y3925500D01*
X1477800Y3776724D02*
X1508199Y3746325D01*
X1477800Y3776724D02*
Y3925500D01*
X963730Y2806730D02*
X1019111D01*
X958980Y2811480D02*
X963730Y2806730D01*
X958980Y3446480D02*
X1019150D01*
X1215770Y3643100D02*
Y3746325D01*
X1019150Y3446480D02*
X1215770Y3643100D01*
X1468179Y3384308D02*
X1532267D01*
X1413966Y3330095D02*
X1468179Y3384308D01*
X1532267D02*
X1744959Y3597000D01*
X1859728Y3532000D02*
X1986300D01*
X680340Y2669240D02*
X817500D01*
X832740Y2684480D01*
X958980D01*
X735356Y3451540D02*
X816600D01*
X1055770Y3665042D02*
Y3746325D01*
X1413966Y3127634D02*
X1476120Y3065480D01*
X1413966Y3127634D02*
Y3330095D01*
X939600Y3632179D02*
Y3730065D01*
Y3592860D02*
Y3632179D01*
X572215Y2562210D02*
X658924Y2475500D01*
X572215Y2786526D02*
X614928Y2829240D01*
X572215Y2562210D02*
Y2786526D01*
X614928Y2829240D02*
X680340D01*
X658924Y2475500D02*
X977800D01*
X816600Y3611540D02*
X837239Y3632179D01*
X939600D01*
X923340Y3746325D02*
X939600Y3730065D01*
Y3592860D02*
X958980Y3573480D01*
X817500Y2829240D02*
Y2910842D01*
X1476120Y3065480D02*
X1498980D01*
X763340Y3746325D02*
Y3893807D01*
X1215770Y3746325D02*
X1348199D01*
X958980Y3319480D02*
X1045616D01*
X3734904Y2966419D02*
X3916921D01*
X3965182Y3014680D02*
X4148800D01*
X3916921Y2966419D02*
X3965182Y3014680D01*
X4148800D02*
X4148800Y3014680D01*
X3536254Y3005069D02*
Y3192480D01*
Y3005069D02*
X3574904Y2966419D01*
X3398980Y3192480D02*
X3536254D01*
Y3378653D01*
X3657220Y3499620D01*
X3688248D01*
X3727348D01*
X3683169Y3597000D02*
X3688248Y3602080D01*
X3644959Y3597000D02*
X3683169D01*
X3688248Y3602080D02*
X3693988Y3596340D01*
X3885640D02*
X3886300Y3597000D01*
X3693988Y3596340D02*
X3885640D01*
X3052840Y2440793D02*
Y2673000D01*
X2919111Y2806730D02*
X3052840Y2673000D01*
X3727348Y3499620D02*
X3759728Y3532000D01*
X2695033Y3925500D02*
X2877800D01*
X2663340Y3893807D02*
X2695033Y3925500D01*
X3377800Y3776724D02*
X3408199Y3746325D01*
X3377800Y3776724D02*
Y3925500D01*
X2863730Y2806730D02*
X2919111D01*
X2858980Y2811480D02*
X2863730Y2806730D01*
X2858980Y3446480D02*
X2919150D01*
X3115770Y3643100D02*
Y3746325D01*
X2919150Y3446480D02*
X3115770Y3643100D01*
X3368179Y3384308D02*
X3432267D01*
X3313966Y3330095D02*
X3368179Y3384308D01*
X3432267D02*
X3644959Y3597000D01*
X3759728Y3532000D02*
X3886300D01*
X2580340Y2669240D02*
X2717500D01*
X2732740Y2684480D01*
X2858980D01*
X2635356Y3451540D02*
X2716600D01*
X2955770Y3665042D02*
Y3746325D01*
X3313966Y3127634D02*
X3376121Y3065480D01*
X3313966Y3127634D02*
Y3330095D01*
X2839600Y3632179D02*
Y3730065D01*
Y3592860D02*
Y3632179D01*
X2472215Y2562210D02*
X2558924Y2475500D01*
X2472215Y2786526D02*
X2514928Y2829240D01*
X2472215Y2562210D02*
Y2786526D01*
X2514928Y2829240D02*
X2580340D01*
X2558924Y2475500D02*
X2877800D01*
X2716600Y3611540D02*
X2737239Y3632179D01*
X2839600D01*
X2823340Y3746325D02*
X2839600Y3730065D01*
Y3592860D02*
X2858980Y3573480D01*
X2717500Y2829240D02*
Y2910842D01*
X3376121Y3065480D02*
X3398980D01*
X2663340Y3746325D02*
Y3893807D01*
X3115770Y3746325D02*
X3248199D01*
X2858980Y3319480D02*
X2945616D01*
X1834904Y4666419D02*
X2016921D01*
X2065182Y4714680D02*
X2248800D01*
X2016921Y4666419D02*
X2065182Y4714680D01*
X2248800D02*
X2248800Y4714680D01*
X1636254Y4705069D02*
Y4892480D01*
Y4705069D02*
X1674904Y4666419D01*
X1498980Y4892480D02*
X1636254D01*
Y5078654D01*
X1757220Y5199620D01*
X1788248D01*
X1827348D01*
X1783169Y5297000D02*
X1788248Y5302080D01*
X1744959Y5297000D02*
X1783169D01*
X1788248Y5302080D02*
X1793988Y5296340D01*
X1985640D02*
X1986300Y5297000D01*
X1793988Y5296340D02*
X1985640D01*
X1152840Y4140793D02*
Y4373000D01*
X1019111Y4506730D02*
X1152840Y4373000D01*
X1827348Y5199620D02*
X1859728Y5232000D01*
X795033Y5625500D02*
X977800D01*
X763340Y5593807D02*
X795033Y5625500D01*
X1477800Y5476725D02*
X1508199Y5446325D01*
X1477800Y5476725D02*
Y5625500D01*
X963730Y4506730D02*
X1019111D01*
X958980Y4511480D02*
X963730Y4506730D01*
X958980Y5146480D02*
X1019150D01*
X1215770Y5343100D02*
Y5446325D01*
X1019150Y5146480D02*
X1215770Y5343100D01*
X1468179Y5084308D02*
X1532267D01*
X1413966Y5030095D02*
X1468179Y5084308D01*
X1532267D02*
X1744959Y5297000D01*
X1859728Y5232000D02*
X1986300D01*
X680340Y4369240D02*
X817500D01*
X832740Y4384480D01*
X958980D01*
X735356Y5151540D02*
X816600D01*
X1055770Y5365043D02*
Y5446325D01*
X1413966Y4827634D02*
X1476120Y4765480D01*
X1413966Y4827634D02*
Y5030095D01*
X939600Y5332180D02*
Y5430065D01*
Y5292860D02*
Y5332180D01*
X572215Y4262210D02*
X658924Y4175500D01*
X572215Y4486526D02*
X614928Y4529240D01*
X572215Y4262210D02*
Y4486526D01*
X614928Y4529240D02*
X680340D01*
X658924Y4175500D02*
X977800D01*
X816600Y5311540D02*
X837239Y5332180D01*
X939600D01*
X923340Y5446325D02*
X939600Y5430065D01*
Y5292860D02*
X958980Y5273480D01*
X817500Y4529240D02*
Y4610842D01*
X1476120Y4765480D02*
X1498980D01*
X763340Y5446325D02*
Y5593807D01*
X1215770Y5446325D02*
X1348199D01*
X958980Y5019480D02*
X1045616D01*
X3734904Y4666419D02*
X3916921D01*
X3965182Y4714680D02*
X4148800D01*
X3916921Y4666419D02*
X3965182Y4714680D01*
X4148800D02*
X4148800Y4714680D01*
X3536254Y4705069D02*
Y4892480D01*
Y4705069D02*
X3574904Y4666419D01*
X3398980Y4892480D02*
X3536254D01*
Y5078654D01*
X3657220Y5199620D01*
X3688248D01*
X3727348D01*
X3683169Y5297000D02*
X3688248Y5302080D01*
X3644959Y5297000D02*
X3683169D01*
X3688248Y5302080D02*
X3693988Y5296340D01*
X3885640D02*
X3886300Y5297000D01*
X3693988Y5296340D02*
X3885640D01*
X3052840Y4140793D02*
Y4373000D01*
X2919111Y4506730D02*
X3052840Y4373000D01*
X3727348Y5199620D02*
X3759728Y5232000D01*
X2695033Y5625500D02*
X2877800D01*
X2663340Y5593807D02*
X2695033Y5625500D01*
X3377800Y5476725D02*
X3408199Y5446325D01*
X3377800Y5476725D02*
Y5625500D01*
X2863730Y4506730D02*
X2919111D01*
X2858980Y4511480D02*
X2863730Y4506730D01*
X2858980Y5146480D02*
X2919150D01*
X3115770Y5343100D02*
Y5446325D01*
X2919150Y5146480D02*
X3115770Y5343100D01*
X3368179Y5084308D02*
X3432267D01*
X3313966Y5030095D02*
X3368179Y5084308D01*
X3432267D02*
X3644959Y5297000D01*
X3759728Y5232000D02*
X3886300D01*
X2580340Y4369240D02*
X2717500D01*
X2732740Y4384480D01*
X2858980D01*
X2635356Y5151540D02*
X2716600D01*
X2955770Y5365043D02*
Y5446325D01*
X3313966Y4827634D02*
X3376121Y4765480D01*
X3313966Y4827634D02*
Y5030095D01*
X2839600Y5332180D02*
Y5430065D01*
Y5292860D02*
Y5332180D01*
X2472215Y4262210D02*
X2558924Y4175500D01*
X2472215Y4486526D02*
X2514928Y4529240D01*
X2472215Y4262210D02*
Y4486526D01*
X2514928Y4529240D02*
X2580340D01*
X2558924Y4175500D02*
X2877800D01*
X2716600Y5311540D02*
X2737239Y5332180D01*
X2839600D01*
X2823340Y5446325D02*
X2839600Y5430065D01*
Y5292860D02*
X2858980Y5273480D01*
X2717500Y4529240D02*
Y4610842D01*
X3376121Y4765480D02*
X3398980D01*
X2663340Y5446325D02*
Y5593807D01*
X3115770Y5446325D02*
X3248199D01*
X2858980Y5019480D02*
X2945616D01*
X1834904Y6366419D02*
X2016921D01*
X2065182Y6414680D02*
X2248800D01*
X2016921Y6366419D02*
X2065182Y6414680D01*
X2248800D02*
X2248800Y6414680D01*
X1636254Y6405069D02*
Y6592480D01*
Y6405069D02*
X1674904Y6366419D01*
X1498980Y6592480D02*
X1636254D01*
Y6778654D01*
X1757220Y6899620D01*
X1788248D01*
X1827348D01*
X1783169Y6997000D02*
X1788248Y7002080D01*
X1744959Y6997000D02*
X1783169D01*
X1788248Y7002080D02*
X1793988Y6996340D01*
X1985640D02*
X1986300Y6997000D01*
X1793988Y6996340D02*
X1985640D01*
X1152840Y5840793D02*
Y6073001D01*
X1019111Y6206730D02*
X1152840Y6073001D01*
X1827348Y6899620D02*
X1859728Y6932000D01*
X795033Y7325500D02*
X977800D01*
X763340Y7293807D02*
X795033Y7325500D01*
X1477800Y7176725D02*
X1508199Y7146325D01*
X1477800Y7176725D02*
Y7325500D01*
X963730Y6206730D02*
X1019111D01*
X958980Y6211480D02*
X963730Y6206730D01*
X958980Y6846480D02*
X1019150D01*
X1215770Y7043100D02*
Y7146325D01*
X1019150Y6846480D02*
X1215770Y7043100D01*
X1468179Y6784308D02*
X1532267D01*
X1413966Y6730095D02*
X1468179Y6784308D01*
X1532267D02*
X1744959Y6997000D01*
X1859728Y6932000D02*
X1986300D01*
X680340Y6069240D02*
X817500D01*
X832740Y6084480D01*
X958980D01*
X735356Y6851540D02*
X816600D01*
X1055770Y7065043D02*
Y7146325D01*
X1413966Y6527634D02*
X1476120Y6465480D01*
X1413966Y6527634D02*
Y6730095D01*
X939600Y7032180D02*
Y7130065D01*
Y6992860D02*
Y7032180D01*
X572215Y5962210D02*
X658924Y5875500D01*
X572215Y6186526D02*
X614928Y6229240D01*
X572215Y5962210D02*
Y6186526D01*
X614928Y6229240D02*
X680340D01*
X658924Y5875500D02*
X977800D01*
X816600Y7011540D02*
X837239Y7032180D01*
X939600D01*
X923340Y7146325D02*
X939600Y7130065D01*
Y6992860D02*
X958980Y6973480D01*
X817500Y6229240D02*
Y6310843D01*
X1476120Y6465480D02*
X1498980D01*
X763340Y7146325D02*
Y7293807D01*
X1215770Y7146325D02*
X1348199D01*
X958980Y6719480D02*
X1045616D01*
X3734904Y6366419D02*
X3916921D01*
X3965182Y6414680D02*
X4148800D01*
X3916921Y6366419D02*
X3965182Y6414680D01*
X4148800D02*
X4148800Y6414680D01*
X3536254Y6405069D02*
Y6592480D01*
Y6405069D02*
X3574904Y6366419D01*
X3398980Y6592480D02*
X3536254D01*
Y6778654D01*
X3657220Y6899620D01*
X3688248D01*
X3727348D01*
X3683169Y6997000D02*
X3688248Y7002080D01*
X3644959Y6997000D02*
X3683169D01*
X3688248Y7002080D02*
X3693988Y6996340D01*
X3885640D02*
X3886300Y6997000D01*
X3693988Y6996340D02*
X3885640D01*
X3052840Y5840793D02*
Y6073001D01*
X2919111Y6206730D02*
X3052840Y6073001D01*
X3727348Y6899620D02*
X3759728Y6932000D01*
X2695033Y7325500D02*
X2877800D01*
X2663340Y7293807D02*
X2695033Y7325500D01*
X3377800Y7176725D02*
X3408199Y7146325D01*
X3377800Y7176725D02*
Y7325500D01*
X2863730Y6206730D02*
X2919111D01*
X2858980Y6211480D02*
X2863730Y6206730D01*
X2858980Y6846480D02*
X2919150D01*
X3115770Y7043100D02*
Y7146325D01*
X2919150Y6846480D02*
X3115770Y7043100D01*
X3368179Y6784308D02*
X3432267D01*
X3313966Y6730095D02*
X3368179Y6784308D01*
X3432267D02*
X3644959Y6997000D01*
X3759728Y6932000D02*
X3886300D01*
X2580340Y6069240D02*
X2717500D01*
X2732740Y6084480D01*
X2858980D01*
X2635356Y6851540D02*
X2716600D01*
X2955770Y7065043D02*
Y7146325D01*
X3313966Y6527634D02*
X3376121Y6465480D01*
X3313966Y6527634D02*
Y6730095D01*
X2839600Y7032180D02*
Y7130065D01*
Y6992860D02*
Y7032180D01*
X2472215Y5962210D02*
X2558924Y5875500D01*
X2472215Y6186526D02*
X2514928Y6229240D01*
X2472215Y5962210D02*
Y6186526D01*
X2514928Y6229240D02*
X2580340D01*
X2558924Y5875500D02*
X2877800D01*
X2716600Y7011540D02*
X2737239Y7032180D01*
X2839600D01*
X2823340Y7146325D02*
X2839600Y7130065D01*
Y6992860D02*
X2858980Y6973480D01*
X2717500Y6229240D02*
Y6310843D01*
X3376121Y6465480D02*
X3398980D01*
X2663340Y7146325D02*
Y7293807D01*
X3115770Y7146325D02*
X3248199D01*
X2858980Y6719480D02*
X2945616D01*
X1834904Y8066419D02*
X2016921D01*
X2065182Y8114680D02*
X2248800D01*
X2016921Y8066419D02*
X2065182Y8114680D01*
X2248800D02*
X2248800Y8114680D01*
X1636254Y8105069D02*
Y8292480D01*
Y8105069D02*
X1674904Y8066419D01*
X1498980Y8292480D02*
X1636254D01*
Y8478654D01*
X1757220Y8599620D01*
X1788248D01*
X1827348D01*
X1783169Y8697000D02*
X1788248Y8702080D01*
X1744959Y8697000D02*
X1783169D01*
X1788248Y8702080D02*
X1793988Y8696340D01*
X1985640D02*
X1986300Y8697000D01*
X1793988Y8696340D02*
X1985640D01*
X1152840Y7540793D02*
Y7773001D01*
X1019111Y7906730D02*
X1152840Y7773001D01*
X1827348Y8599620D02*
X1859728Y8632000D01*
X795033Y9025500D02*
X977800D01*
X763340Y8993808D02*
X795033Y9025500D01*
X1477800Y8876725D02*
X1508199Y8846325D01*
X1477800Y8876725D02*
Y9025500D01*
X963730Y7906730D02*
X1019111D01*
X958980Y7911480D02*
X963730Y7906730D01*
X958980Y8546480D02*
X1019150D01*
X1215770Y8743100D02*
Y8846325D01*
X1019150Y8546480D02*
X1215770Y8743100D01*
X1468179Y8484308D02*
X1532267D01*
X1413966Y8430095D02*
X1468179Y8484308D01*
X1532267D02*
X1744959Y8697000D01*
X1859728Y8632000D02*
X1986300D01*
X680340Y7769240D02*
X817500D01*
X832740Y7784480D01*
X958980D01*
X735356Y8551540D02*
X816600D01*
X1055770Y8765043D02*
Y8846325D01*
X1413966Y8227634D02*
X1476120Y8165480D01*
X1413966Y8227634D02*
Y8430095D01*
X939600Y8732180D02*
Y8830065D01*
Y8692860D02*
Y8732180D01*
X572215Y7662210D02*
X658924Y7575500D01*
X572215Y7886527D02*
X614928Y7929240D01*
X572215Y7662210D02*
Y7886527D01*
X614928Y7929240D02*
X680340D01*
X658924Y7575500D02*
X977800D01*
X816600Y8711540D02*
X837239Y8732180D01*
X939600D01*
X923340Y8846325D02*
X939600Y8830065D01*
Y8692860D02*
X958980Y8673480D01*
X817500Y7929240D02*
Y8010843D01*
X1476120Y8165480D02*
X1498980D01*
X763340Y8846325D02*
Y8993808D01*
X1215770Y8846325D02*
X1348199D01*
X958980Y8419480D02*
X1045616D01*
X3734904Y8066419D02*
X3916921D01*
X3965182Y8114680D02*
X4148800D01*
X3916921Y8066419D02*
X3965182Y8114680D01*
X4148800D02*
X4148800Y8114680D01*
X3536254Y8105069D02*
Y8292480D01*
Y8105069D02*
X3574904Y8066419D01*
X3398980Y8292480D02*
X3536254D01*
Y8478654D01*
X3657220Y8599620D01*
X3688248D01*
X3727348D01*
X3683169Y8697000D02*
X3688248Y8702080D01*
X3644959Y8697000D02*
X3683169D01*
X3688248Y8702080D02*
X3693988Y8696340D01*
X3885640D02*
X3886300Y8697000D01*
X3693988Y8696340D02*
X3885640D01*
X3052840Y7540793D02*
Y7773001D01*
X2919111Y7906730D02*
X3052840Y7773001D01*
X3727348Y8599620D02*
X3759728Y8632000D01*
X2695033Y9025500D02*
X2877800D01*
X2663340Y8993808D02*
X2695033Y9025500D01*
X3377800Y8876725D02*
X3408199Y8846325D01*
X3377800Y8876725D02*
Y9025500D01*
X2863730Y7906730D02*
X2919111D01*
X2858980Y7911480D02*
X2863730Y7906730D01*
X2858980Y8546480D02*
X2919150D01*
X3115770Y8743100D02*
Y8846325D01*
X2919150Y8546480D02*
X3115770Y8743100D01*
X3368179Y8484308D02*
X3432267D01*
X3313966Y8430095D02*
X3368179Y8484308D01*
X3432267D02*
X3644959Y8697000D01*
X3759728Y8632000D02*
X3886300D01*
X2580340Y7769240D02*
X2717500D01*
X2732740Y7784480D01*
X2858980D01*
X2635356Y8551540D02*
X2716600D01*
X2955770Y8765043D02*
Y8846325D01*
X3313966Y8227634D02*
X3376121Y8165480D01*
X3313966Y8227634D02*
Y8430095D01*
X2839600Y8732180D02*
Y8830065D01*
Y8692860D02*
Y8732180D01*
X2472215Y7662210D02*
X2558924Y7575500D01*
X2472215Y7886527D02*
X2514928Y7929240D01*
X2472215Y7662210D02*
Y7886527D01*
X2514928Y7929240D02*
X2580340D01*
X2558924Y7575500D02*
X2877800D01*
X2716600Y8711540D02*
X2737239Y8732180D01*
X2839600D01*
X2823340Y8846325D02*
X2839600Y8830065D01*
Y8692860D02*
X2858980Y8673480D01*
X2717500Y7929240D02*
Y8010843D01*
X3376121Y8165480D02*
X3398980D01*
X2663340Y8846325D02*
Y8993808D01*
X3115770Y8846325D02*
X3248199D01*
X2858980Y8419480D02*
X2945616D01*
D26*
X1709428Y1947080D02*
X1745859Y1983510D01*
X1672998Y1910649D02*
X1709428Y1947080D01*
X1795868Y1702000D02*
X1852243D01*
X1788248Y1709619D02*
X1795868Y1702000D01*
X1650010Y1910649D02*
X1672998D01*
X1641440Y1902080D02*
X1650010Y1910649D01*
X1745859Y1983510D02*
X1779678D01*
X1788248Y1992080D01*
X3609428Y1947080D02*
X3645859Y1983510D01*
X3572998Y1910649D02*
X3609428Y1947080D01*
X3695868Y1702000D02*
X3752243D01*
X3688248Y1709619D02*
X3695868Y1702000D01*
X3550010Y1910649D02*
X3572998D01*
X3541440Y1902080D02*
X3550010Y1910649D01*
X3645859Y1983510D02*
X3679678D01*
X3688248Y1992080D01*
X1709428Y3647080D02*
X1745859Y3683510D01*
X1672998Y3610650D02*
X1709428Y3647080D01*
X1795868Y3402000D02*
X1852243D01*
X1788248Y3409620D02*
X1795868Y3402000D01*
X1650010Y3610650D02*
X1672998D01*
X1641440Y3602080D02*
X1650010Y3610650D01*
X1745859Y3683510D02*
X1779678D01*
X1788248Y3692080D01*
X3609428Y3647080D02*
X3645859Y3683510D01*
X3572998Y3610650D02*
X3609428Y3647080D01*
X3695868Y3402000D02*
X3752243D01*
X3688248Y3409620D02*
X3695868Y3402000D01*
X3550010Y3610650D02*
X3572998D01*
X3541440Y3602080D02*
X3550010Y3610650D01*
X3645859Y3683510D02*
X3679678D01*
X3688248Y3692080D01*
X1709428Y5347080D02*
X1745859Y5383510D01*
X1672998Y5310650D02*
X1709428Y5347080D01*
X1795868Y5102000D02*
X1852243D01*
X1788248Y5109620D02*
X1795868Y5102000D01*
X1650010Y5310650D02*
X1672998D01*
X1641440Y5302080D02*
X1650010Y5310650D01*
X1745859Y5383510D02*
X1779678D01*
X1788248Y5392080D01*
X3609428Y5347080D02*
X3645859Y5383510D01*
X3572998Y5310650D02*
X3609428Y5347080D01*
X3695868Y5102000D02*
X3752243D01*
X3688248Y5109620D02*
X3695868Y5102000D01*
X3550010Y5310650D02*
X3572998D01*
X3541440Y5302080D02*
X3550010Y5310650D01*
X3645859Y5383510D02*
X3679678D01*
X3688248Y5392080D01*
X1709428Y7047080D02*
X1745859Y7083510D01*
X1672998Y7010650D02*
X1709428Y7047080D01*
X1795868Y6802000D02*
X1852243D01*
X1788248Y6809620D02*
X1795868Y6802000D01*
X1650010Y7010650D02*
X1672998D01*
X1641440Y7002080D02*
X1650010Y7010650D01*
X1745859Y7083510D02*
X1779678D01*
X1788248Y7092080D01*
X3609428Y7047080D02*
X3645859Y7083510D01*
X3572998Y7010650D02*
X3609428Y7047080D01*
X3695868Y6802000D02*
X3752243D01*
X3688248Y6809620D02*
X3695868Y6802000D01*
X3550010Y7010650D02*
X3572998D01*
X3541440Y7002080D02*
X3550010Y7010650D01*
X3645859Y7083510D02*
X3679678D01*
X3688248Y7092080D01*
X1709428Y8747080D02*
X1745859Y8783510D01*
X1672998Y8710650D02*
X1709428Y8747080D01*
X1795868Y8502000D02*
X1852243D01*
X1788248Y8509620D02*
X1795868Y8502000D01*
X1650010Y8710650D02*
X1672998D01*
X1641440Y8702080D02*
X1650010Y8710650D01*
X1745859Y8783510D02*
X1779678D01*
X1788248Y8792080D01*
X3609428Y8747080D02*
X3645859Y8783510D01*
X3572998Y8710650D02*
X3609428Y8747080D01*
X3695868Y8502000D02*
X3752243D01*
X3688248Y8509620D02*
X3695868Y8502000D01*
X3550010Y8710650D02*
X3572998D01*
X3541440Y8702080D02*
X3550010Y8710650D01*
X3645859Y8783510D02*
X3679678D01*
X3688248Y8792080D01*
D27*
X1834904Y988785D02*
X1912875D01*
X1834904Y1127602D02*
X1912875D01*
X1498980Y1238480D02*
X1583234D01*
X1414726D02*
X1498980D01*
X3734904Y988785D02*
X3812875D01*
X3734904Y1127602D02*
X3812875D01*
X3398980Y1238480D02*
X3483234D01*
X3314726D02*
X3398980D01*
X1834904Y2688785D02*
X1912875D01*
X1834904Y2827602D02*
X1912875D01*
X1498980Y2938480D02*
X1583234D01*
X1414726D02*
X1498980D01*
X3734904Y2688785D02*
X3812875D01*
X3734904Y2827602D02*
X3812875D01*
X3398980Y2938480D02*
X3483234D01*
X3314726D02*
X3398980D01*
X1834904Y4388785D02*
X1912875D01*
X1834904Y4527602D02*
X1912875D01*
X1498980Y4638480D02*
X1583234D01*
X1414726D02*
X1498980D01*
X3734904Y4388785D02*
X3812875D01*
X3734904Y4527602D02*
X3812875D01*
X3398980Y4638480D02*
X3483234D01*
X3314726D02*
X3398980D01*
X1834904Y6088786D02*
X1912875D01*
X1834904Y6227602D02*
X1912875D01*
X1498980Y6338480D02*
X1583234D01*
X1414726D02*
X1498980D01*
X3734904Y6088786D02*
X3812875D01*
X3734904Y6227602D02*
X3812875D01*
X3398980Y6338480D02*
X3483234D01*
X3314726D02*
X3398980D01*
X1834904Y7788786D02*
X1912875D01*
X1834904Y7927602D02*
X1912875D01*
X1498980Y8038480D02*
X1583234D01*
X1414726D02*
X1498980D01*
X3734904Y7788786D02*
X3812875D01*
X3734904Y7927602D02*
X3812875D01*
X3398980Y8038480D02*
X3483234D01*
X3314726D02*
X3398980D01*
D28*
X1986300Y1702000D02*
X2120520D01*
X1852243D02*
X1986300D01*
X3886300D02*
X4020520D01*
X3752243D02*
X3886300D01*
X1986300Y3402000D02*
X2120520D01*
X1852243D02*
X1986300D01*
X3886300D02*
X4020520D01*
X3752243D02*
X3886300D01*
X1986300Y5102000D02*
X2120520D01*
X1852243D02*
X1986300D01*
X3886300D02*
X4020520D01*
X3752243D02*
X3886300D01*
X1986300Y6802000D02*
X2120520D01*
X1852243D02*
X1986300D01*
X3886300D02*
X4020520D01*
X3752243D02*
X3886300D01*
X1986300Y8502000D02*
X2120520D01*
X1852243D02*
X1986300D01*
X3886300D02*
X4020520D01*
X3752243D02*
X3886300D01*
%TF.MD5,01eb5faeea24b2e72fcd072141159128*%
M02*
