%TF.GenerationSoftware,Altium Limited,Altium Designer,20.1.8 (145)*%
G04 Layer_Color=0*
%FSLAX45Y45*%
%MOMM*%
%TF.SameCoordinates,B3CF18BB-8163-4733-9D89-4CFBB204D872*%
%TF.FilePolarity,Positive*%
%TF.FileFunction,NonPlated,1,2,NPTH,Drill*%
%TF.Part,CustomerPanel*%
G01*
G75*
%TA.AperFunction,OtherDrill,Pad Free-1 (45mm,95mm)*%
%ADD51C,3.00000*%
%TA.AperFunction,OtherDrill,Pad Free-1 (3mm,95mm)*%
%ADD52C,3.00000*%
%TA.AperFunction,OtherDrill,Pad Free-1 (45mm,3mm)*%
%ADD53C,3.00000*%
%TA.AperFunction,OtherDrill,Pad Free-1 (3mm,3mm)*%
%ADD54C,3.00000*%
%TA.AperFunction,ComponentDrill*%
%ADD55C,0.50000*%
D51*
X4500000Y9500000D02*
D03*
D52*
X300000D02*
D03*
D53*
X4500000Y300000D02*
D03*
D54*
X300000D02*
D03*
D55*
X2013800Y1632000D02*
D03*
Y2032000D02*
D03*
X3913800Y1632000D02*
D03*
Y2032000D02*
D03*
X2013800Y3332000D02*
D03*
Y3732000D02*
D03*
X3913800Y3332000D02*
D03*
Y3732000D02*
D03*
X2013800Y5032000D02*
D03*
Y5432000D02*
D03*
X3913800Y5032000D02*
D03*
Y5432000D02*
D03*
X2013800Y6732000D02*
D03*
Y7132000D02*
D03*
X3913800Y6732000D02*
D03*
Y7132000D02*
D03*
X2013800Y8432000D02*
D03*
Y8832000D02*
D03*
X3913800Y8432000D02*
D03*
Y8832000D02*
D03*
%TF.MD5,da5c4b5165ed71ef76bd56c13f2ed486*%
M02*
