M48
;Layer_Color=0
;FILE_FORMAT=4:4
METRIC
;TYPE=PLATED
T1F00S00C0.3500
T3F00S00C0.8000
%
T01
X00081750Y00121084
X00073536Y00175154
X00104562Y00161948
X00105577Y00196504
X00170943Y00194708
X00185224Y00170200
X00212052
X00263536Y00175154
X00294562Y00161948
X00295577Y00196504
X00271750Y00121084
X00331473Y00123848
X00191287Y00112760
Y00098878
X00158323Y00123848
X00141473
Y00293848
X00158323
X00191287Y00282760
Y00268878
X00185224Y00340200
X00212052
X00263536Y00345154
X00294562Y00331948
X00271750Y00291084
X00331473Y00293848
X00081750Y00291084
X00073536Y00345154
X00104562Y00331948
X00375224Y00340200
X00402052
X00381287Y00282760
Y00268878
X00348323Y00293848
X00360943Y00194708
X00375224Y00170200
X00402052
X00381287Y00112760
Y00098878
X00348323Y00123848
X00360943Y00364708
X00381287Y00438879
Y00452760
X00348323Y00463848
X00375224Y00510200
X00402052
X00360943Y00534708
X00381287Y00608879
Y00622760
X00348323Y00633848
X00375224Y00680200
X00402052
X00360943Y00704708
X00295577Y00706504
X00294562Y00671948
X00263536Y00685154
X00212052Y00680200
X00185224
X00170943Y00704708
X00105577Y00706504
X00104562Y00671948
X00073536Y00685154
X00081750Y00631084
X00141473Y00633848
X00158323
X00191287Y00622760
Y00608879
X00170943Y00534708
X00185224Y00510200
X00212052
X00263536Y00515154
X00294562Y00501948
X00295577Y00536504
X00271750Y00461084
X00331473Y00463848
X00295577Y00366504
X00170943Y00364708
X00105577Y00366504
X00081750Y00461084
X00073536Y00515154
X00104562Y00501948
X00105577Y00536504
X00141473Y00463848
X00158323
X00191287Y00452760
Y00438879
X00271750Y00631084
X00331473Y00633848
Y00803848
X00271750Y00801084
X00263536Y00855154
X00294562Y00841948
X00295577Y00876504
X00212052Y00850200
X00185224
X00170943Y00874708
X00105577Y00876504
X00104562Y00841948
X00073536Y00855154
X00081750Y00801084
X00141473Y00803848
X00158323
X00191287Y00792760
Y00778879
X00348323Y00803848
X00381287Y00792760
Y00778879
X00375224Y00850200
X00402052
X00360943Y00874708
T03
X00224880Y00080668
Y00106068
Y00131468
Y00250668
Y00276068
Y00301468
X00414880
Y00276068
Y00250668
Y00131468
Y00106068
Y00080668
Y00420668
Y00446068
Y00471468
Y00590668
Y00616068
Y00641468
X00224880
Y00616068
Y00590668
Y00471468
Y00446068
Y00420668
Y00760668
Y00786068
Y00811468
X00414880
Y00786068
Y00760668
M30
