%TF.GenerationSoftware,Altium Limited,Altium Designer,20.1.8 (145)*%
G04 Layer_Color=65535*
%FSLAX45Y45*%
%MOMM*%
%TF.SameCoordinates,B3CF18BB-8163-4733-9D89-4CFBB204D872*%
%TF.FilePolarity,Positive*%
%TF.FileFunction,Legend,Bot*%
%TF.Part,CustomerPanel*%
G01*
G75*
%TA.AperFunction,NonConductor*%
%ADD29C,0.25000*%
%ADD30C,0.60000*%
%ADD31C,0.10160*%
%ADD32C,0.12700*%
G36*
X3561440Y8827080D02*
X3521440D01*
X3541440Y8847080D01*
X3561440Y8827080D01*
D02*
G37*
G36*
X1661440D02*
X1621440D01*
X1641440Y8847080D01*
X1661440Y8827080D01*
D02*
G37*
G36*
X3692019Y8650850D02*
X3708249Y8634620D01*
X3668248D01*
X3684478Y8650850D01*
X3668248Y8667080D01*
X3708249D01*
X3692019Y8650850D01*
D02*
G37*
G36*
X1792019D02*
X1808249Y8634620D01*
X1768248D01*
X1784478Y8650850D01*
X1768248Y8667080D01*
X1808249D01*
X1792019Y8650850D01*
D02*
G37*
G36*
X2992840Y7545500D02*
X2962840Y7575500D01*
X2992840Y7605500D01*
Y7545500D01*
D02*
G37*
G36*
X1092840D02*
X1062840Y7575500D01*
X1092840Y7605500D01*
Y7545500D01*
D02*
G37*
G36*
X3561440Y7127080D02*
X3521440D01*
X3541440Y7147080D01*
X3561440Y7127080D01*
D02*
G37*
G36*
X1661440D02*
X1621440D01*
X1641440Y7147080D01*
X1661440Y7127080D01*
D02*
G37*
G36*
X3692019Y6950850D02*
X3708249Y6934620D01*
X3668248D01*
X3684478Y6950850D01*
X3668248Y6967080D01*
X3708249D01*
X3692019Y6950850D01*
D02*
G37*
G36*
X1792019D02*
X1808249Y6934620D01*
X1768248D01*
X1784478Y6950850D01*
X1768248Y6967080D01*
X1808249D01*
X1792019Y6950850D01*
D02*
G37*
G36*
X2992840Y5845500D02*
X2962840Y5875500D01*
X2992840Y5905500D01*
Y5845500D01*
D02*
G37*
G36*
X1092840D02*
X1062840Y5875500D01*
X1092840Y5905500D01*
Y5845500D01*
D02*
G37*
G36*
X3561440Y5427080D02*
X3521440D01*
X3541440Y5447080D01*
X3561440Y5427080D01*
D02*
G37*
G36*
X1661440D02*
X1621440D01*
X1641440Y5447080D01*
X1661440Y5427080D01*
D02*
G37*
G36*
X3692019Y5250850D02*
X3708249Y5234620D01*
X3668248D01*
X3684478Y5250850D01*
X3668248Y5267080D01*
X3708249D01*
X3692019Y5250850D01*
D02*
G37*
G36*
X1792019D02*
X1808249Y5234620D01*
X1768248D01*
X1784478Y5250850D01*
X1768248Y5267080D01*
X1808249D01*
X1792019Y5250850D01*
D02*
G37*
G36*
X2992840Y4145500D02*
X2962840Y4175500D01*
X2992840Y4205500D01*
Y4145500D01*
D02*
G37*
G36*
X1092840D02*
X1062840Y4175500D01*
X1092840Y4205500D01*
Y4145500D01*
D02*
G37*
G36*
X3561440Y3727080D02*
X3521440D01*
X3541440Y3747080D01*
X3561440Y3727080D01*
D02*
G37*
G36*
X1661440D02*
X1621440D01*
X1641440Y3747080D01*
X1661440Y3727080D01*
D02*
G37*
G36*
X3692019Y3550850D02*
X3708249Y3534620D01*
X3668248D01*
X3684478Y3550850D01*
X3668248Y3567080D01*
X3708249D01*
X3692019Y3550850D01*
D02*
G37*
G36*
X1792019D02*
X1808249Y3534620D01*
X1768248D01*
X1784478Y3550850D01*
X1768248Y3567080D01*
X1808249D01*
X1792019Y3550850D01*
D02*
G37*
G36*
X2992840Y2445500D02*
X2962840Y2475500D01*
X2992840Y2505500D01*
Y2445500D01*
D02*
G37*
G36*
X1092840D02*
X1062840Y2475500D01*
X1092840Y2505500D01*
Y2445500D01*
D02*
G37*
G36*
X3561440Y2027080D02*
X3521440D01*
X3541440Y2047080D01*
X3561440Y2027080D01*
D02*
G37*
G36*
X1661440D02*
X1621440D01*
X1641440Y2047080D01*
X1661440Y2027080D01*
D02*
G37*
G36*
X3692019Y1850850D02*
X3708249Y1834620D01*
X3668248D01*
X3684478Y1850850D01*
X3668248Y1867080D01*
X3708249D01*
X3692019Y1850850D01*
D02*
G37*
G36*
X1792019D02*
X1808249Y1834620D01*
X1768248D01*
X1784478Y1850850D01*
X1768248Y1867080D01*
X1808249D01*
X1792019Y1850850D01*
D02*
G37*
G36*
X2992840Y745500D02*
X2962840Y775500D01*
X2992840Y805500D01*
Y745500D01*
D02*
G37*
G36*
X1092840D02*
X1062840Y775500D01*
X1092840Y805500D01*
Y745500D01*
D02*
G37*
D29*
X1091480Y958979D02*
G03*
X1091480Y958979I-12500J0D01*
G01*
X2991480D02*
G03*
X2991480Y958979I-12500J0D01*
G01*
X1091480Y2658979D02*
G03*
X1091480Y2658979I-12500J0D01*
G01*
X2991480D02*
G03*
X2991480Y2658979I-12500J0D01*
G01*
X1091480Y4358980D02*
G03*
X1091480Y4358980I-12500J0D01*
G01*
X2991480D02*
G03*
X2991480Y4358980I-12500J0D01*
G01*
X1091480Y6058980D02*
G03*
X1091480Y6058980I-12500J0D01*
G01*
X2991480D02*
G03*
X2991480Y6058980I-12500J0D01*
G01*
X1091480Y7758980D02*
G03*
X1091480Y7758980I-12500J0D01*
G01*
X2991480D02*
G03*
X2991480Y7758980I-12500J0D01*
G01*
D30*
X1176560Y1024060D02*
G03*
X1176560Y1024060I-30000J0D01*
G01*
X3076560D02*
G03*
X3076560Y1024060I-30000J0D01*
G01*
X1176560Y2724060D02*
G03*
X1176560Y2724060I-30000J0D01*
G01*
X3076560D02*
G03*
X3076560Y2724060I-30000J0D01*
G01*
X1176560Y4424060D02*
G03*
X1176560Y4424060I-30000J0D01*
G01*
X3076560D02*
G03*
X3076560Y4424060I-30000J0D01*
G01*
X1176560Y6124060D02*
G03*
X1176560Y6124060I-30000J0D01*
G01*
X3076560D02*
G03*
X3076560Y6124060I-30000J0D01*
G01*
X1176560Y7824060D02*
G03*
X1176560Y7824060I-30000J0D01*
G01*
X3076560D02*
G03*
X3076560Y7824060I-30000J0D01*
G01*
D31*
X2366300Y1549000D02*
Y2115000D01*
X2095566Y1549000D02*
X2126300D01*
X2089039Y2115000D02*
X2126300D01*
X1961300Y1646000D02*
Y1666000D01*
Y1997261D02*
Y2017261D01*
X1581140Y2125360D02*
Y2172860D01*
X1861140D01*
Y2125360D02*
Y2172860D01*
X1581140Y2052860D02*
Y2100360D01*
Y2052860D02*
X1861140D01*
Y2100360D01*
X1028980Y918980D02*
Y1938980D01*
X1428980Y918980D02*
Y1938980D01*
X1028980Y918980D02*
X1428980D01*
X1028980Y1938980D02*
X1428980D01*
X1758249Y1674619D02*
Y1834620D01*
Y1674619D02*
X1818248D01*
Y1834620D01*
X1758249D02*
X1818248D01*
X1758249Y1867080D02*
X1818248D01*
X1758249D02*
Y2027080D01*
X1818248D01*
Y1867080D02*
Y2027080D01*
X1611440Y1867080D02*
Y2027080D01*
Y1867080D02*
X1671440D01*
Y2027080D01*
X1611440D02*
X1671440D01*
X1092840Y715500D02*
X1372840D01*
Y835499D01*
X1092840D02*
X1372840D01*
X1092840Y715500D02*
Y835499D01*
X1754904Y1067602D02*
Y1187602D01*
X1894904Y1067602D02*
Y1187602D01*
X1614904Y1067602D02*
X1894904D01*
X1614904D02*
Y1187602D01*
X1894904D01*
X1614904Y909968D02*
X1894904D01*
X1614904Y789969D02*
Y909968D01*
Y789969D02*
X1894904D01*
Y909968D01*
X1754904Y928785D02*
Y1048785D01*
X1894904Y928785D02*
Y1048785D01*
X1614904Y928785D02*
X1894904D01*
X1614904D02*
Y1048785D01*
X1894904D01*
X1614904Y1326418D02*
X1894904D01*
X1614904Y1206418D02*
Y1326418D01*
Y1206418D02*
X1894904D01*
Y1326418D01*
X620340Y909240D02*
Y1189240D01*
Y909240D02*
X740340D01*
Y1189240D01*
X620340D02*
X740340D01*
X703340Y1986325D02*
Y2106325D01*
X983340D01*
Y1986325D02*
Y2106325D01*
X703340Y1986325D02*
X983340D01*
X1288199Y2106325D02*
X1568199D01*
X1288199Y1986325D02*
Y2106325D01*
Y1986325D02*
X1568199D01*
Y2106325D01*
X1135770Y1986325D02*
Y2106325D01*
X995770Y1986325D02*
Y2106325D01*
X1275770D01*
Y1986325D02*
Y2106325D01*
X995770Y1986325D02*
X1275770D01*
X876600Y1691540D02*
Y1971540D01*
X756600D02*
X876600D01*
X756600Y1691540D02*
Y1971540D01*
Y1691540D02*
X876600D01*
X756600Y1831540D02*
X876600D01*
X757500Y1049240D02*
X877500D01*
X757500Y1189240D02*
X877500D01*
Y909240D02*
Y1189240D01*
X757500Y909240D02*
X877500D01*
X757500D02*
Y1189240D01*
X4266300Y1549000D02*
Y2115000D01*
X3995566Y1549000D02*
X4026300D01*
X3989039Y2115000D02*
X4026300D01*
X3861300Y1646000D02*
Y1666000D01*
Y1997261D02*
Y2017261D01*
X3481140Y2125360D02*
Y2172860D01*
X3761140D01*
Y2125360D02*
Y2172860D01*
X3481140Y2052860D02*
Y2100360D01*
Y2052860D02*
X3761140D01*
Y2100360D01*
X2928980Y918980D02*
Y1938980D01*
X3328980Y918980D02*
Y1938980D01*
X2928980Y918980D02*
X3328980D01*
X2928980Y1938980D02*
X3328980D01*
X3658249Y1674619D02*
Y1834620D01*
Y1674619D02*
X3718248D01*
Y1834620D01*
X3658249D02*
X3718248D01*
X3658249Y1867080D02*
X3718248D01*
X3658249D02*
Y2027080D01*
X3718248D01*
Y1867080D02*
Y2027080D01*
X3511440Y1867080D02*
Y2027080D01*
Y1867080D02*
X3571440D01*
Y2027080D01*
X3511440D02*
X3571440D01*
X2992840Y715500D02*
X3272840D01*
Y835499D01*
X2992840D02*
X3272840D01*
X2992840Y715500D02*
Y835499D01*
X3654904Y1067602D02*
Y1187602D01*
X3794904Y1067602D02*
Y1187602D01*
X3514904Y1067602D02*
X3794904D01*
X3514904D02*
Y1187602D01*
X3794904D01*
X3514904Y909968D02*
X3794904D01*
X3514904Y789969D02*
Y909968D01*
Y789969D02*
X3794904D01*
Y909968D01*
X3654904Y928785D02*
Y1048785D01*
X3794904Y928785D02*
Y1048785D01*
X3514904Y928785D02*
X3794904D01*
X3514904D02*
Y1048785D01*
X3794904D01*
X3514904Y1326418D02*
X3794904D01*
X3514904Y1206418D02*
Y1326418D01*
Y1206418D02*
X3794904D01*
Y1326418D01*
X2520340Y909240D02*
Y1189240D01*
Y909240D02*
X2640340D01*
Y1189240D01*
X2520340D02*
X2640340D01*
X2603340Y1986325D02*
Y2106325D01*
X2883340D01*
Y1986325D02*
Y2106325D01*
X2603340Y1986325D02*
X2883340D01*
X3188199Y2106325D02*
X3468199D01*
X3188199Y1986325D02*
Y2106325D01*
Y1986325D02*
X3468199D01*
Y2106325D01*
X3035770Y1986325D02*
Y2106325D01*
X2895770Y1986325D02*
Y2106325D01*
X3175770D01*
Y1986325D02*
Y2106325D01*
X2895770Y1986325D02*
X3175770D01*
X2776600Y1691540D02*
Y1971540D01*
X2656600D02*
X2776600D01*
X2656600Y1691540D02*
Y1971540D01*
Y1691540D02*
X2776600D01*
X2656600Y1831540D02*
X2776600D01*
X2657500Y1049240D02*
X2777500D01*
X2657500Y1189240D02*
X2777500D01*
Y909240D02*
Y1189240D01*
X2657500Y909240D02*
X2777500D01*
X2657500D02*
Y1189240D01*
X2366300Y3249000D02*
Y3815000D01*
X2095566Y3249000D02*
X2126300D01*
X2089039Y3815000D02*
X2126300D01*
X1961300Y3346000D02*
Y3366000D01*
Y3697261D02*
Y3717261D01*
X1581140Y3825360D02*
Y3872860D01*
X1861140D01*
Y3825360D02*
Y3872860D01*
X1581140Y3752860D02*
Y3800360D01*
Y3752860D02*
X1861140D01*
Y3800360D01*
X1028980Y2618980D02*
Y3638980D01*
X1428980Y2618980D02*
Y3638980D01*
X1028980Y2618980D02*
X1428980D01*
X1028980Y3638980D02*
X1428980D01*
X1758249Y3374620D02*
Y3534620D01*
Y3374620D02*
X1818248D01*
Y3534620D01*
X1758249D02*
X1818248D01*
X1758249Y3567080D02*
X1818248D01*
X1758249D02*
Y3727080D01*
X1818248D01*
Y3567080D02*
Y3727080D01*
X1611440Y3567080D02*
Y3727080D01*
Y3567080D02*
X1671440D01*
Y3727080D01*
X1611440D02*
X1671440D01*
X1092840Y2415500D02*
X1372840D01*
Y2535500D01*
X1092840D02*
X1372840D01*
X1092840Y2415500D02*
Y2535500D01*
X1754904Y2767602D02*
Y2887602D01*
X1894904Y2767602D02*
Y2887602D01*
X1614904Y2767602D02*
X1894904D01*
X1614904D02*
Y2887602D01*
X1894904D01*
X1614904Y2609969D02*
X1894904D01*
X1614904Y2489969D02*
Y2609969D01*
Y2489969D02*
X1894904D01*
Y2609969D01*
X1754904Y2628785D02*
Y2748785D01*
X1894904Y2628785D02*
Y2748785D01*
X1614904Y2628785D02*
X1894904D01*
X1614904D02*
Y2748785D01*
X1894904D01*
X1614904Y3026418D02*
X1894904D01*
X1614904Y2906419D02*
Y3026418D01*
Y2906419D02*
X1894904D01*
Y3026418D01*
X620340Y2609240D02*
Y2889240D01*
Y2609240D02*
X740340D01*
Y2889240D01*
X620340D02*
X740340D01*
X703340Y3686325D02*
Y3806325D01*
X983340D01*
Y3686325D02*
Y3806325D01*
X703340Y3686325D02*
X983340D01*
X1288199Y3806325D02*
X1568199D01*
X1288199Y3686325D02*
Y3806325D01*
Y3686325D02*
X1568199D01*
Y3806325D01*
X1135770Y3686325D02*
Y3806325D01*
X995770Y3686325D02*
Y3806325D01*
X1275770D01*
Y3686325D02*
Y3806325D01*
X995770Y3686325D02*
X1275770D01*
X876600Y3391540D02*
Y3671540D01*
X756600D02*
X876600D01*
X756600Y3391540D02*
Y3671540D01*
Y3391540D02*
X876600D01*
X756600Y3531540D02*
X876600D01*
X757500Y2749240D02*
X877500D01*
X757500Y2889240D02*
X877500D01*
Y2609240D02*
Y2889240D01*
X757500Y2609240D02*
X877500D01*
X757500D02*
Y2889240D01*
X4266300Y3249000D02*
Y3815000D01*
X3995566Y3249000D02*
X4026300D01*
X3989039Y3815000D02*
X4026300D01*
X3861300Y3346000D02*
Y3366000D01*
Y3697261D02*
Y3717261D01*
X3481140Y3825360D02*
Y3872860D01*
X3761140D01*
Y3825360D02*
Y3872860D01*
X3481140Y3752860D02*
Y3800360D01*
Y3752860D02*
X3761140D01*
Y3800360D01*
X2928980Y2618980D02*
Y3638980D01*
X3328980Y2618980D02*
Y3638980D01*
X2928980Y2618980D02*
X3328980D01*
X2928980Y3638980D02*
X3328980D01*
X3658249Y3374620D02*
Y3534620D01*
Y3374620D02*
X3718248D01*
Y3534620D01*
X3658249D02*
X3718248D01*
X3658249Y3567080D02*
X3718248D01*
X3658249D02*
Y3727080D01*
X3718248D01*
Y3567080D02*
Y3727080D01*
X3511440Y3567080D02*
Y3727080D01*
Y3567080D02*
X3571440D01*
Y3727080D01*
X3511440D02*
X3571440D01*
X2992840Y2415500D02*
X3272840D01*
Y2535500D01*
X2992840D02*
X3272840D01*
X2992840Y2415500D02*
Y2535500D01*
X3654904Y2767602D02*
Y2887602D01*
X3794904Y2767602D02*
Y2887602D01*
X3514904Y2767602D02*
X3794904D01*
X3514904D02*
Y2887602D01*
X3794904D01*
X3514904Y2609969D02*
X3794904D01*
X3514904Y2489969D02*
Y2609969D01*
Y2489969D02*
X3794904D01*
Y2609969D01*
X3654904Y2628785D02*
Y2748785D01*
X3794904Y2628785D02*
Y2748785D01*
X3514904Y2628785D02*
X3794904D01*
X3514904D02*
Y2748785D01*
X3794904D01*
X3514904Y3026418D02*
X3794904D01*
X3514904Y2906419D02*
Y3026418D01*
Y2906419D02*
X3794904D01*
Y3026418D01*
X2520340Y2609240D02*
Y2889240D01*
Y2609240D02*
X2640340D01*
Y2889240D01*
X2520340D02*
X2640340D01*
X2603340Y3686325D02*
Y3806325D01*
X2883340D01*
Y3686325D02*
Y3806325D01*
X2603340Y3686325D02*
X2883340D01*
X3188199Y3806325D02*
X3468199D01*
X3188199Y3686325D02*
Y3806325D01*
Y3686325D02*
X3468199D01*
Y3806325D01*
X3035770Y3686325D02*
Y3806325D01*
X2895770Y3686325D02*
Y3806325D01*
X3175770D01*
Y3686325D02*
Y3806325D01*
X2895770Y3686325D02*
X3175770D01*
X2776600Y3391540D02*
Y3671540D01*
X2656600D02*
X2776600D01*
X2656600Y3391540D02*
Y3671540D01*
Y3391540D02*
X2776600D01*
X2656600Y3531540D02*
X2776600D01*
X2657500Y2749240D02*
X2777500D01*
X2657500Y2889240D02*
X2777500D01*
Y2609240D02*
Y2889240D01*
X2657500Y2609240D02*
X2777500D01*
X2657500D02*
Y2889240D01*
X2366300Y4949000D02*
Y5515000D01*
X2095566Y4949000D02*
X2126300D01*
X2089039Y5515000D02*
X2126300D01*
X1961300Y5046000D02*
Y5066000D01*
Y5397261D02*
Y5417261D01*
X1581140Y5525360D02*
Y5572860D01*
X1861140D01*
Y5525360D02*
Y5572860D01*
X1581140Y5452860D02*
Y5500360D01*
Y5452860D02*
X1861140D01*
Y5500360D01*
X1028980Y4318980D02*
Y5338980D01*
X1428980Y4318980D02*
Y5338980D01*
X1028980Y4318980D02*
X1428980D01*
X1028980Y5338980D02*
X1428980D01*
X1758249Y5074620D02*
Y5234620D01*
Y5074620D02*
X1818248D01*
Y5234620D01*
X1758249D02*
X1818248D01*
X1758249Y5267080D02*
X1818248D01*
X1758249D02*
Y5427080D01*
X1818248D01*
Y5267080D02*
Y5427080D01*
X1611440Y5267080D02*
Y5427080D01*
Y5267080D02*
X1671440D01*
Y5427080D01*
X1611440D02*
X1671440D01*
X1092840Y4115500D02*
X1372840D01*
Y4235500D01*
X1092840D02*
X1372840D01*
X1092840Y4115500D02*
Y4235500D01*
X1754904Y4467602D02*
Y4587602D01*
X1894904Y4467602D02*
Y4587602D01*
X1614904Y4467602D02*
X1894904D01*
X1614904D02*
Y4587602D01*
X1894904D01*
X1614904Y4309969D02*
X1894904D01*
X1614904Y4189969D02*
Y4309969D01*
Y4189969D02*
X1894904D01*
Y4309969D01*
X1754904Y4328786D02*
Y4448785D01*
X1894904Y4328786D02*
Y4448785D01*
X1614904Y4328786D02*
X1894904D01*
X1614904D02*
Y4448785D01*
X1894904D01*
X1614904Y4726419D02*
X1894904D01*
X1614904Y4606419D02*
Y4726419D01*
Y4606419D02*
X1894904D01*
Y4726419D01*
X620340Y4309240D02*
Y4589240D01*
Y4309240D02*
X740340D01*
Y4589240D01*
X620340D02*
X740340D01*
X703340Y5386325D02*
Y5506325D01*
X983340D01*
Y5386325D02*
Y5506325D01*
X703340Y5386325D02*
X983340D01*
X1288199Y5506325D02*
X1568199D01*
X1288199Y5386325D02*
Y5506325D01*
Y5386325D02*
X1568199D01*
Y5506325D01*
X1135770Y5386325D02*
Y5506325D01*
X995770Y5386325D02*
Y5506325D01*
X1275770D01*
Y5386325D02*
Y5506325D01*
X995770Y5386325D02*
X1275770D01*
X876600Y5091540D02*
Y5371540D01*
X756600D02*
X876600D01*
X756600Y5091540D02*
Y5371540D01*
Y5091540D02*
X876600D01*
X756600Y5231540D02*
X876600D01*
X757500Y4449240D02*
X877500D01*
X757500Y4589240D02*
X877500D01*
Y4309240D02*
Y4589240D01*
X757500Y4309240D02*
X877500D01*
X757500D02*
Y4589240D01*
X4266300Y4949000D02*
Y5515000D01*
X3995566Y4949000D02*
X4026300D01*
X3989039Y5515000D02*
X4026300D01*
X3861300Y5046000D02*
Y5066000D01*
Y5397261D02*
Y5417261D01*
X3481140Y5525360D02*
Y5572860D01*
X3761140D01*
Y5525360D02*
Y5572860D01*
X3481140Y5452860D02*
Y5500360D01*
Y5452860D02*
X3761140D01*
Y5500360D01*
X2928980Y4318980D02*
Y5338980D01*
X3328980Y4318980D02*
Y5338980D01*
X2928980Y4318980D02*
X3328980D01*
X2928980Y5338980D02*
X3328980D01*
X3658249Y5074620D02*
Y5234620D01*
Y5074620D02*
X3718248D01*
Y5234620D01*
X3658249D02*
X3718248D01*
X3658249Y5267080D02*
X3718248D01*
X3658249D02*
Y5427080D01*
X3718248D01*
Y5267080D02*
Y5427080D01*
X3511440Y5267080D02*
Y5427080D01*
Y5267080D02*
X3571440D01*
Y5427080D01*
X3511440D02*
X3571440D01*
X2992840Y4115500D02*
X3272840D01*
Y4235500D01*
X2992840D02*
X3272840D01*
X2992840Y4115500D02*
Y4235500D01*
X3654904Y4467602D02*
Y4587602D01*
X3794904Y4467602D02*
Y4587602D01*
X3514904Y4467602D02*
X3794904D01*
X3514904D02*
Y4587602D01*
X3794904D01*
X3514904Y4309969D02*
X3794904D01*
X3514904Y4189969D02*
Y4309969D01*
Y4189969D02*
X3794904D01*
Y4309969D01*
X3654904Y4328786D02*
Y4448785D01*
X3794904Y4328786D02*
Y4448785D01*
X3514904Y4328786D02*
X3794904D01*
X3514904D02*
Y4448785D01*
X3794904D01*
X3514904Y4726419D02*
X3794904D01*
X3514904Y4606419D02*
Y4726419D01*
Y4606419D02*
X3794904D01*
Y4726419D01*
X2520340Y4309240D02*
Y4589240D01*
Y4309240D02*
X2640340D01*
Y4589240D01*
X2520340D02*
X2640340D01*
X2603340Y5386325D02*
Y5506325D01*
X2883340D01*
Y5386325D02*
Y5506325D01*
X2603340Y5386325D02*
X2883340D01*
X3188199Y5506325D02*
X3468199D01*
X3188199Y5386325D02*
Y5506325D01*
Y5386325D02*
X3468199D01*
Y5506325D01*
X3035770Y5386325D02*
Y5506325D01*
X2895770Y5386325D02*
Y5506325D01*
X3175770D01*
Y5386325D02*
Y5506325D01*
X2895770Y5386325D02*
X3175770D01*
X2776600Y5091540D02*
Y5371540D01*
X2656600D02*
X2776600D01*
X2656600Y5091540D02*
Y5371540D01*
Y5091540D02*
X2776600D01*
X2656600Y5231540D02*
X2776600D01*
X2657500Y4449240D02*
X2777500D01*
X2657500Y4589240D02*
X2777500D01*
Y4309240D02*
Y4589240D01*
X2657500Y4309240D02*
X2777500D01*
X2657500D02*
Y4589240D01*
X2366300Y6649000D02*
Y7215000D01*
X2095566Y6649000D02*
X2126300D01*
X2089039Y7215000D02*
X2126300D01*
X1961300Y6746000D02*
Y6766000D01*
Y7097261D02*
Y7117261D01*
X1581140Y7225360D02*
Y7272860D01*
X1861140D01*
Y7225360D02*
Y7272860D01*
X1581140Y7152860D02*
Y7200360D01*
Y7152860D02*
X1861140D01*
Y7200360D01*
X1028980Y6018980D02*
Y7038980D01*
X1428980Y6018980D02*
Y7038980D01*
X1028980Y6018980D02*
X1428980D01*
X1028980Y7038980D02*
X1428980D01*
X1758249Y6774620D02*
Y6934620D01*
Y6774620D02*
X1818248D01*
Y6934620D01*
X1758249D02*
X1818248D01*
X1758249Y6967080D02*
X1818248D01*
X1758249D02*
Y7127080D01*
X1818248D01*
Y6967080D02*
Y7127080D01*
X1611440Y6967080D02*
Y7127080D01*
Y6967080D02*
X1671440D01*
Y7127080D01*
X1611440D02*
X1671440D01*
X1092840Y5815500D02*
X1372840D01*
Y5935500D01*
X1092840D02*
X1372840D01*
X1092840Y5815500D02*
Y5935500D01*
X1754904Y6167602D02*
Y6287602D01*
X1894904Y6167602D02*
Y6287602D01*
X1614904Y6167602D02*
X1894904D01*
X1614904D02*
Y6287602D01*
X1894904D01*
X1614904Y6009969D02*
X1894904D01*
X1614904Y5889969D02*
Y6009969D01*
Y5889969D02*
X1894904D01*
Y6009969D01*
X1754904Y6028786D02*
Y6148786D01*
X1894904Y6028786D02*
Y6148786D01*
X1614904Y6028786D02*
X1894904D01*
X1614904D02*
Y6148786D01*
X1894904D01*
X1614904Y6426419D02*
X1894904D01*
X1614904Y6306419D02*
Y6426419D01*
Y6306419D02*
X1894904D01*
Y6426419D01*
X620340Y6009240D02*
Y6289240D01*
Y6009240D02*
X740340D01*
Y6289240D01*
X620340D02*
X740340D01*
X703340Y7086325D02*
Y7206325D01*
X983340D01*
Y7086325D02*
Y7206325D01*
X703340Y7086325D02*
X983340D01*
X1288199Y7206325D02*
X1568199D01*
X1288199Y7086325D02*
Y7206325D01*
Y7086325D02*
X1568199D01*
Y7206325D01*
X1135770Y7086325D02*
Y7206325D01*
X995770Y7086325D02*
Y7206325D01*
X1275770D01*
Y7086325D02*
Y7206325D01*
X995770Y7086325D02*
X1275770D01*
X876600Y6791540D02*
Y7071540D01*
X756600D02*
X876600D01*
X756600Y6791540D02*
Y7071540D01*
Y6791540D02*
X876600D01*
X756600Y6931540D02*
X876600D01*
X757500Y6149240D02*
X877500D01*
X757500Y6289240D02*
X877500D01*
Y6009240D02*
Y6289240D01*
X757500Y6009240D02*
X877500D01*
X757500D02*
Y6289240D01*
X4266300Y6649000D02*
Y7215000D01*
X3995566Y6649000D02*
X4026300D01*
X3989039Y7215000D02*
X4026300D01*
X3861300Y6746000D02*
Y6766000D01*
Y7097261D02*
Y7117261D01*
X3481140Y7225360D02*
Y7272860D01*
X3761140D01*
Y7225360D02*
Y7272860D01*
X3481140Y7152860D02*
Y7200360D01*
Y7152860D02*
X3761140D01*
Y7200360D01*
X2928980Y6018980D02*
Y7038980D01*
X3328980Y6018980D02*
Y7038980D01*
X2928980Y6018980D02*
X3328980D01*
X2928980Y7038980D02*
X3328980D01*
X3658249Y6774620D02*
Y6934620D01*
Y6774620D02*
X3718248D01*
Y6934620D01*
X3658249D02*
X3718248D01*
X3658249Y6967080D02*
X3718248D01*
X3658249D02*
Y7127080D01*
X3718248D01*
Y6967080D02*
Y7127080D01*
X3511440Y6967080D02*
Y7127080D01*
Y6967080D02*
X3571440D01*
Y7127080D01*
X3511440D02*
X3571440D01*
X2992840Y5815500D02*
X3272840D01*
Y5935500D01*
X2992840D02*
X3272840D01*
X2992840Y5815500D02*
Y5935500D01*
X3654904Y6167602D02*
Y6287602D01*
X3794904Y6167602D02*
Y6287602D01*
X3514904Y6167602D02*
X3794904D01*
X3514904D02*
Y6287602D01*
X3794904D01*
X3514904Y6009969D02*
X3794904D01*
X3514904Y5889969D02*
Y6009969D01*
Y5889969D02*
X3794904D01*
Y6009969D01*
X3654904Y6028786D02*
Y6148786D01*
X3794904Y6028786D02*
Y6148786D01*
X3514904Y6028786D02*
X3794904D01*
X3514904D02*
Y6148786D01*
X3794904D01*
X3514904Y6426419D02*
X3794904D01*
X3514904Y6306419D02*
Y6426419D01*
Y6306419D02*
X3794904D01*
Y6426419D01*
X2520340Y6009240D02*
Y6289240D01*
Y6009240D02*
X2640340D01*
Y6289240D01*
X2520340D02*
X2640340D01*
X2603340Y7086325D02*
Y7206325D01*
X2883340D01*
Y7086325D02*
Y7206325D01*
X2603340Y7086325D02*
X2883340D01*
X3188199Y7206325D02*
X3468199D01*
X3188199Y7086325D02*
Y7206325D01*
Y7086325D02*
X3468199D01*
Y7206325D01*
X3035770Y7086325D02*
Y7206325D01*
X2895770Y7086325D02*
Y7206325D01*
X3175770D01*
Y7086325D02*
Y7206325D01*
X2895770Y7086325D02*
X3175770D01*
X2776600Y6791540D02*
Y7071540D01*
X2656600D02*
X2776600D01*
X2656600Y6791540D02*
Y7071540D01*
Y6791540D02*
X2776600D01*
X2656600Y6931540D02*
X2776600D01*
X2657500Y6149240D02*
X2777500D01*
X2657500Y6289240D02*
X2777500D01*
Y6009240D02*
Y6289240D01*
X2657500Y6009240D02*
X2777500D01*
X2657500D02*
Y6289240D01*
X2366300Y8349000D02*
Y8915000D01*
X2095566Y8349000D02*
X2126300D01*
X2089039Y8915000D02*
X2126300D01*
X1961300Y8446000D02*
Y8466000D01*
Y8797262D02*
Y8817262D01*
X1581140Y8925360D02*
Y8972860D01*
X1861140D01*
Y8925360D02*
Y8972860D01*
X1581140Y8852860D02*
Y8900360D01*
Y8852860D02*
X1861140D01*
Y8900360D01*
X1028980Y7718980D02*
Y8738980D01*
X1428980Y7718980D02*
Y8738980D01*
X1028980Y7718980D02*
X1428980D01*
X1028980Y8738980D02*
X1428980D01*
X1758249Y8474620D02*
Y8634620D01*
Y8474620D02*
X1818248D01*
Y8634620D01*
X1758249D02*
X1818248D01*
X1758249Y8667080D02*
X1818248D01*
X1758249D02*
Y8827080D01*
X1818248D01*
Y8667080D02*
Y8827080D01*
X1611440Y8667080D02*
Y8827080D01*
Y8667080D02*
X1671440D01*
Y8827080D01*
X1611440D02*
X1671440D01*
X1092840Y7515500D02*
X1372840D01*
Y7635500D01*
X1092840D02*
X1372840D01*
X1092840Y7515500D02*
Y7635500D01*
X1754904Y7867603D02*
Y7987602D01*
X1894904Y7867603D02*
Y7987602D01*
X1614904Y7867603D02*
X1894904D01*
X1614904D02*
Y7987602D01*
X1894904D01*
X1614904Y7709969D02*
X1894904D01*
X1614904Y7589969D02*
Y7709969D01*
Y7589969D02*
X1894904D01*
Y7709969D01*
X1754904Y7728786D02*
Y7848786D01*
X1894904Y7728786D02*
Y7848786D01*
X1614904Y7728786D02*
X1894904D01*
X1614904D02*
Y7848786D01*
X1894904D01*
X1614904Y8126419D02*
X1894904D01*
X1614904Y8006419D02*
Y8126419D01*
Y8006419D02*
X1894904D01*
Y8126419D01*
X620340Y7709240D02*
Y7989240D01*
Y7709240D02*
X740340D01*
Y7989240D01*
X620340D02*
X740340D01*
X703340Y8786326D02*
Y8906325D01*
X983340D01*
Y8786326D02*
Y8906325D01*
X703340Y8786326D02*
X983340D01*
X1288199Y8906325D02*
X1568199D01*
X1288199Y8786326D02*
Y8906325D01*
Y8786326D02*
X1568199D01*
Y8906325D01*
X1135770Y8786326D02*
Y8906325D01*
X995770Y8786326D02*
Y8906325D01*
X1275770D01*
Y8786326D02*
Y8906325D01*
X995770Y8786326D02*
X1275770D01*
X876600Y8491540D02*
Y8771540D01*
X756600D02*
X876600D01*
X756600Y8491540D02*
Y8771540D01*
Y8491540D02*
X876600D01*
X756600Y8631540D02*
X876600D01*
X757500Y7849240D02*
X877500D01*
X757500Y7989240D02*
X877500D01*
Y7709240D02*
Y7989240D01*
X757500Y7709240D02*
X877500D01*
X757500D02*
Y7989240D01*
X4266300Y8349000D02*
Y8915000D01*
X3995566Y8349000D02*
X4026300D01*
X3989039Y8915000D02*
X4026300D01*
X3861300Y8446000D02*
Y8466000D01*
Y8797262D02*
Y8817262D01*
X3481140Y8925360D02*
Y8972860D01*
X3761140D01*
Y8925360D02*
Y8972860D01*
X3481140Y8852860D02*
Y8900360D01*
Y8852860D02*
X3761140D01*
Y8900360D01*
X2928980Y7718980D02*
Y8738980D01*
X3328980Y7718980D02*
Y8738980D01*
X2928980Y7718980D02*
X3328980D01*
X2928980Y8738980D02*
X3328980D01*
X3658249Y8474620D02*
Y8634620D01*
Y8474620D02*
X3718248D01*
Y8634620D01*
X3658249D02*
X3718248D01*
X3658249Y8667080D02*
X3718248D01*
X3658249D02*
Y8827080D01*
X3718248D01*
Y8667080D02*
Y8827080D01*
X3511440Y8667080D02*
Y8827080D01*
Y8667080D02*
X3571440D01*
Y8827080D01*
X3511440D02*
X3571440D01*
X2992840Y7515500D02*
X3272840D01*
Y7635500D01*
X2992840D02*
X3272840D01*
X2992840Y7515500D02*
Y7635500D01*
X3654904Y7867603D02*
Y7987602D01*
X3794904Y7867603D02*
Y7987602D01*
X3514904Y7867603D02*
X3794904D01*
X3514904D02*
Y7987602D01*
X3794904D01*
X3514904Y7709969D02*
X3794904D01*
X3514904Y7589969D02*
Y7709969D01*
Y7589969D02*
X3794904D01*
Y7709969D01*
X3654904Y7728786D02*
Y7848786D01*
X3794904Y7728786D02*
Y7848786D01*
X3514904Y7728786D02*
X3794904D01*
X3514904D02*
Y7848786D01*
X3794904D01*
X3514904Y8126419D02*
X3794904D01*
X3514904Y8006419D02*
Y8126419D01*
Y8006419D02*
X3794904D01*
Y8126419D01*
X2520340Y7709240D02*
Y7989240D01*
Y7709240D02*
X2640340D01*
Y7989240D01*
X2520340D02*
X2640340D01*
X2603340Y8786326D02*
Y8906325D01*
X2883340D01*
Y8786326D02*
Y8906325D01*
X2603340Y8786326D02*
X2883340D01*
X3188199Y8906325D02*
X3468199D01*
X3188199Y8786326D02*
Y8906325D01*
Y8786326D02*
X3468199D01*
Y8906325D01*
X3035770Y8786326D02*
Y8906325D01*
X2895770Y8786326D02*
Y8906325D01*
X3175770D01*
Y8786326D02*
Y8906325D01*
X2895770Y8786326D02*
X3175770D01*
X2776600Y8491540D02*
Y8771540D01*
X2656600D02*
X2776600D01*
X2656600Y8491540D02*
Y8771540D01*
Y8491540D02*
X2776600D01*
X2656600Y8631540D02*
X2776600D01*
X2657500Y7849240D02*
X2777500D01*
X2657500Y7989240D02*
X2777500D01*
Y7709240D02*
Y7989240D01*
X2657500Y7709240D02*
X2777500D01*
X2657500D02*
Y7989240D01*
D32*
X2315172Y1188210D02*
X2306708Y1196674D01*
X2289780D01*
X2281316Y1188210D01*
Y1179746D01*
X2289780Y1171282D01*
X2298244D01*
X2289780D01*
X2281316Y1162818D01*
Y1154354D01*
X2289780Y1145890D01*
X2306708D01*
X2315172Y1154354D01*
X2264388Y1179746D02*
X2247460Y1145890D01*
X2230532Y1179746D01*
X2213605Y1188210D02*
X2205141Y1196674D01*
X2188213D01*
X2179749Y1188210D01*
Y1179746D01*
X2188213Y1171282D01*
X2196677D01*
X2188213D01*
X2179749Y1162818D01*
Y1154354D01*
X2188213Y1145890D01*
X2205141D01*
X2213605Y1154354D01*
X2281982Y931347D02*
X2290446Y939811D01*
X2307374D01*
X2315838Y931347D01*
Y897492D01*
X2307374Y889028D01*
X2290446D01*
X2281982Y897492D01*
Y914420D01*
X2298910D01*
X2265055Y889028D02*
Y939811D01*
X2231199Y889028D01*
Y939811D01*
X2214271D02*
Y889028D01*
X2188879D01*
X2180416Y897492D01*
Y931347D01*
X2188879Y939811D01*
X2214271D01*
X2316667Y1398074D02*
Y1448857D01*
X2291275D01*
X2282812Y1440393D01*
Y1423466D01*
X2291275Y1415001D01*
X2316667D01*
X2232028Y1440393D02*
X2240492Y1448857D01*
X2257420D01*
X2265884Y1440393D01*
Y1406538D01*
X2257420Y1398074D01*
X2240492D01*
X2232028Y1406538D01*
Y1423466D01*
X2248956D01*
X2215100Y1398074D02*
Y1448857D01*
X2198172Y1431929D01*
X2181245Y1448857D01*
Y1398074D01*
X1668703Y1851712D02*
Y1800929D01*
X1643311D01*
X1634847Y1809393D01*
Y1843248D01*
X1643311Y1851712D01*
X1668703D01*
X1617920Y1843248D02*
X1609456Y1851712D01*
X1592528D01*
X1584064Y1843248D01*
Y1834784D01*
X1592528Y1826320D01*
X1584064Y1817856D01*
Y1809393D01*
X1592528Y1800929D01*
X1609456D01*
X1617920Y1809393D01*
Y1817856D01*
X1609456Y1826320D01*
X1617920Y1834784D01*
Y1843248D01*
X1609456Y1826320D02*
X1592528D01*
X1985044Y1005713D02*
X1993508Y1014177D01*
X2010436D01*
X2018900Y1005713D01*
Y971858D01*
X2010436Y963394D01*
X1993508D01*
X1985044Y971858D01*
X1934261Y1014177D02*
X1951188Y1005713D01*
X1968116Y988785D01*
Y971858D01*
X1959652Y963394D01*
X1942724D01*
X1934261Y971858D01*
Y980321D01*
X1942724Y988785D01*
X1968116D01*
X1985044Y1144530D02*
X1993508Y1152994D01*
X2010436D01*
X2018900Y1144530D01*
Y1110674D01*
X2010436Y1102210D01*
X1993508D01*
X1985044Y1110674D01*
X1968116Y1152994D02*
X1934261D01*
Y1144530D01*
X1968116Y1110674D01*
Y1102210D01*
X2041759Y1241027D02*
Y1291811D01*
X2016368D01*
X2007904Y1283347D01*
Y1266419D01*
X2016368Y1257955D01*
X2041759D01*
X2024832D02*
X2007904Y1241027D01*
X1990976D02*
X1974048D01*
X1982512D01*
Y1291811D01*
X1990976Y1283347D01*
X1948656D02*
X1940192Y1291811D01*
X1923264D01*
X1914801Y1283347D01*
Y1249492D01*
X1923264Y1241027D01*
X1940192D01*
X1948656Y1249492D01*
Y1283347D01*
X2021400Y824577D02*
Y875360D01*
X1996008D01*
X1987544Y866897D01*
Y849969D01*
X1996008Y841505D01*
X2021400D01*
X2004472D02*
X1987544Y824577D01*
X1970616Y833041D02*
X1962152Y824577D01*
X1945224D01*
X1936760Y833041D01*
Y866897D01*
X1945224Y875360D01*
X1962152D01*
X1970616Y866897D01*
Y858433D01*
X1962152Y849969D01*
X1936760D01*
X2312691Y2267171D02*
Y2224852D01*
X2304227Y2216388D01*
X2287299D01*
X2278836Y2224852D01*
Y2267171D01*
X2228052Y2258708D02*
X2236516Y2267171D01*
X2253444D01*
X2261908Y2258708D01*
Y2250244D01*
X2253444Y2241780D01*
X2236516D01*
X2228052Y2233316D01*
Y2224852D01*
X2236516Y2216388D01*
X2253444D01*
X2261908Y2224852D01*
X2211124Y2267171D02*
Y2216388D01*
X2185732D01*
X2177269Y2224852D01*
Y2233316D01*
X2185732Y2241780D01*
X2211124D01*
X2185732D01*
X2177269Y2250244D01*
Y2258708D01*
X2185732Y2267171D01*
X2211124D01*
X1004163Y909628D02*
Y867309D01*
X995699Y858845D01*
X978771D01*
X970308Y867309D01*
Y909628D01*
X953380Y858845D02*
X936452D01*
X944916D01*
Y909628D01*
X953380Y901164D01*
X1404153Y2122440D02*
Y2173223D01*
X1378761D01*
X1370297Y2164759D01*
Y2147832D01*
X1378761Y2139368D01*
X1404153D01*
X1387225D02*
X1370297Y2122440D01*
X1353369Y2164759D02*
X1344905Y2173223D01*
X1327978D01*
X1319514Y2164759D01*
Y2156295D01*
X1327978Y2147832D01*
X1319514Y2139368D01*
Y2130904D01*
X1327978Y2122440D01*
X1344905D01*
X1353369Y2130904D01*
Y2139368D01*
X1344905Y2147832D01*
X1353369Y2156295D01*
Y2164759D01*
X1344905Y2147832D02*
X1327978D01*
X885847Y2120895D02*
Y2171679D01*
X860455D01*
X851991Y2163215D01*
Y2146287D01*
X860455Y2137823D01*
X885847D01*
X868919D02*
X851991Y2120895D01*
X835063Y2171679D02*
X801207D01*
Y2163215D01*
X835063Y2129359D01*
Y2120895D01*
X715039Y1210548D02*
Y1261331D01*
X689648D01*
X681184Y1252868D01*
Y1235940D01*
X689648Y1227476D01*
X715039D01*
X698112D02*
X681184Y1210548D01*
X630400Y1261331D02*
X647328Y1252868D01*
X664256Y1235940D01*
Y1219012D01*
X655792Y1210548D01*
X638864D01*
X630400Y1219012D01*
Y1227476D01*
X638864Y1235940D01*
X664256D01*
X1731575Y2246751D02*
X1765430D01*
Y2221359D01*
X1748502D01*
X1765430D01*
Y2195967D01*
X1680791D02*
X1714647D01*
X1680791Y2229823D01*
Y2238287D01*
X1689255Y2246751D01*
X1706183D01*
X1714647Y2238287D01*
X1741021Y1907920D02*
X1690237D01*
Y1933312D01*
X1698701Y1941776D01*
X1732557D01*
X1741021Y1933312D01*
Y1907920D01*
Y1958704D02*
Y1992559D01*
X1732557D01*
X1698701Y1958704D01*
X1690237D01*
X1741075Y1776804D02*
Y1726021D01*
X1715683D01*
X1707219Y1734485D01*
Y1768341D01*
X1715683Y1776804D01*
X1741075D01*
X1656436D02*
X1673363Y1768341D01*
X1690291Y1751413D01*
Y1734485D01*
X1681827Y1726021D01*
X1664899D01*
X1656436Y1734485D01*
Y1742949D01*
X1664899Y1751413D01*
X1690291D01*
X1266708Y900216D02*
Y849432D01*
X1241317D01*
X1232853Y857896D01*
Y891752D01*
X1241317Y900216D01*
X1266708D01*
X1182069D02*
X1215925D01*
Y874824D01*
X1198997Y883288D01*
X1190533D01*
X1182069Y874824D01*
Y857896D01*
X1190533Y849432D01*
X1207461D01*
X1215925Y857896D01*
X847124Y1255408D02*
X855588Y1263871D01*
X872515D01*
X880979Y1255408D01*
Y1221552D01*
X872515Y1213088D01*
X855588D01*
X847124Y1221552D01*
X830196Y1213088D02*
X813268D01*
X821732D01*
Y1263871D01*
X830196Y1255408D01*
X787876D02*
X779412Y1263871D01*
X762484D01*
X754021Y1255408D01*
Y1221552D01*
X762484Y1213088D01*
X779412D01*
X787876Y1221552D01*
Y1255408D01*
X704330Y1847264D02*
X712793Y1855728D01*
X729721D01*
X738185Y1847264D01*
Y1813408D01*
X729721Y1804944D01*
X712793D01*
X704330Y1813408D01*
X687402D02*
X678938Y1804944D01*
X662010D01*
X653546Y1813408D01*
Y1847264D01*
X662010Y1855728D01*
X678938D01*
X687402Y1847264D01*
Y1838800D01*
X678938Y1830336D01*
X653546D01*
X1126181Y2165800D02*
X1134645Y2174264D01*
X1151572D01*
X1160037Y2165800D01*
Y2131944D01*
X1151572Y2123480D01*
X1134645D01*
X1126181Y2131944D01*
X1109253Y2165800D02*
X1100789Y2174264D01*
X1083861D01*
X1075397Y2165800D01*
Y2157336D01*
X1083861Y2148872D01*
X1075397Y2140408D01*
Y2131944D01*
X1083861Y2123480D01*
X1100789D01*
X1109253Y2131944D01*
Y2140408D01*
X1100789Y2148872D01*
X1109253Y2157336D01*
Y2165800D01*
X1100789Y2148872D02*
X1083861D01*
X4215172Y1188210D02*
X4206708Y1196674D01*
X4189780D01*
X4181316Y1188210D01*
Y1179746D01*
X4189780Y1171282D01*
X4198244D01*
X4189780D01*
X4181316Y1162818D01*
Y1154354D01*
X4189780Y1145890D01*
X4206708D01*
X4215172Y1154354D01*
X4164388Y1179746D02*
X4147460Y1145890D01*
X4130533Y1179746D01*
X4113605Y1188210D02*
X4105141Y1196674D01*
X4088213D01*
X4079749Y1188210D01*
Y1179746D01*
X4088213Y1171282D01*
X4096677D01*
X4088213D01*
X4079749Y1162818D01*
Y1154354D01*
X4088213Y1145890D01*
X4105141D01*
X4113605Y1154354D01*
X4181982Y931347D02*
X4190446Y939811D01*
X4207374D01*
X4215838Y931347D01*
Y897492D01*
X4207374Y889028D01*
X4190446D01*
X4181982Y897492D01*
Y914420D01*
X4198910D01*
X4165055Y889028D02*
Y939811D01*
X4131199Y889028D01*
Y939811D01*
X4114271D02*
Y889028D01*
X4088879D01*
X4080416Y897492D01*
Y931347D01*
X4088879Y939811D01*
X4114271D01*
X4216667Y1398074D02*
Y1448857D01*
X4191275D01*
X4182812Y1440393D01*
Y1423466D01*
X4191275Y1415001D01*
X4216667D01*
X4132028Y1440393D02*
X4140492Y1448857D01*
X4157420D01*
X4165884Y1440393D01*
Y1406538D01*
X4157420Y1398074D01*
X4140492D01*
X4132028Y1406538D01*
Y1423466D01*
X4148956D01*
X4115100Y1398074D02*
Y1448857D01*
X4098172Y1431929D01*
X4081245Y1448857D01*
Y1398074D01*
X3568703Y1851712D02*
Y1800929D01*
X3543311D01*
X3534847Y1809393D01*
Y1843248D01*
X3543311Y1851712D01*
X3568703D01*
X3517920Y1843248D02*
X3509456Y1851712D01*
X3492528D01*
X3484064Y1843248D01*
Y1834784D01*
X3492528Y1826320D01*
X3484064Y1817856D01*
Y1809393D01*
X3492528Y1800929D01*
X3509456D01*
X3517920Y1809393D01*
Y1817856D01*
X3509456Y1826320D01*
X3517920Y1834784D01*
Y1843248D01*
X3509456Y1826320D02*
X3492528D01*
X3885044Y1005713D02*
X3893508Y1014177D01*
X3910436D01*
X3918900Y1005713D01*
Y971858D01*
X3910436Y963394D01*
X3893508D01*
X3885044Y971858D01*
X3834261Y1014177D02*
X3851188Y1005713D01*
X3868116Y988785D01*
Y971858D01*
X3859652Y963394D01*
X3842724D01*
X3834261Y971858D01*
Y980321D01*
X3842724Y988785D01*
X3868116D01*
X3885044Y1144530D02*
X3893508Y1152994D01*
X3910436D01*
X3918900Y1144530D01*
Y1110674D01*
X3910436Y1102210D01*
X3893508D01*
X3885044Y1110674D01*
X3868116Y1152994D02*
X3834261D01*
Y1144530D01*
X3868116Y1110674D01*
Y1102210D01*
X3941759Y1241027D02*
Y1291811D01*
X3916368D01*
X3907904Y1283347D01*
Y1266419D01*
X3916368Y1257955D01*
X3941759D01*
X3924832D02*
X3907904Y1241027D01*
X3890976D02*
X3874048D01*
X3882512D01*
Y1291811D01*
X3890976Y1283347D01*
X3848656D02*
X3840192Y1291811D01*
X3823264D01*
X3814801Y1283347D01*
Y1249492D01*
X3823264Y1241027D01*
X3840192D01*
X3848656Y1249492D01*
Y1283347D01*
X3921400Y824577D02*
Y875360D01*
X3896008D01*
X3887544Y866897D01*
Y849969D01*
X3896008Y841505D01*
X3921400D01*
X3904472D02*
X3887544Y824577D01*
X3870616Y833041D02*
X3862152Y824577D01*
X3845224D01*
X3836760Y833041D01*
Y866897D01*
X3845224Y875360D01*
X3862152D01*
X3870616Y866897D01*
Y858433D01*
X3862152Y849969D01*
X3836760D01*
X4212691Y2267171D02*
Y2224852D01*
X4204227Y2216388D01*
X4187299D01*
X4178836Y2224852D01*
Y2267171D01*
X4128052Y2258708D02*
X4136516Y2267171D01*
X4153444D01*
X4161908Y2258708D01*
Y2250244D01*
X4153444Y2241780D01*
X4136516D01*
X4128052Y2233316D01*
Y2224852D01*
X4136516Y2216388D01*
X4153444D01*
X4161908Y2224852D01*
X4111124Y2267171D02*
Y2216388D01*
X4085732D01*
X4077269Y2224852D01*
Y2233316D01*
X4085732Y2241780D01*
X4111124D01*
X4085732D01*
X4077269Y2250244D01*
Y2258708D01*
X4085732Y2267171D01*
X4111124D01*
X2904163Y909628D02*
Y867309D01*
X2895699Y858845D01*
X2878771D01*
X2870308Y867309D01*
Y909628D01*
X2853380Y858845D02*
X2836452D01*
X2844916D01*
Y909628D01*
X2853380Y901164D01*
X3304153Y2122440D02*
Y2173223D01*
X3278761D01*
X3270297Y2164759D01*
Y2147832D01*
X3278761Y2139368D01*
X3304153D01*
X3287225D02*
X3270297Y2122440D01*
X3253369Y2164759D02*
X3244905Y2173223D01*
X3227978D01*
X3219514Y2164759D01*
Y2156295D01*
X3227978Y2147832D01*
X3219514Y2139368D01*
Y2130904D01*
X3227978Y2122440D01*
X3244905D01*
X3253369Y2130904D01*
Y2139368D01*
X3244905Y2147832D01*
X3253369Y2156295D01*
Y2164759D01*
X3244905Y2147832D02*
X3227978D01*
X2785847Y2120895D02*
Y2171679D01*
X2760455D01*
X2751991Y2163215D01*
Y2146287D01*
X2760455Y2137823D01*
X2785847D01*
X2768919D02*
X2751991Y2120895D01*
X2735063Y2171679D02*
X2701207D01*
Y2163215D01*
X2735063Y2129359D01*
Y2120895D01*
X2615039Y1210548D02*
Y1261331D01*
X2589648D01*
X2581184Y1252868D01*
Y1235940D01*
X2589648Y1227476D01*
X2615039D01*
X2598112D02*
X2581184Y1210548D01*
X2530400Y1261331D02*
X2547328Y1252868D01*
X2564256Y1235940D01*
Y1219012D01*
X2555792Y1210548D01*
X2538864D01*
X2530400Y1219012D01*
Y1227476D01*
X2538864Y1235940D01*
X2564256D01*
X3631575Y2246751D02*
X3665430D01*
Y2221359D01*
X3648502D01*
X3665430D01*
Y2195967D01*
X3580791D02*
X3614647D01*
X3580791Y2229823D01*
Y2238287D01*
X3589255Y2246751D01*
X3606183D01*
X3614647Y2238287D01*
X3641021Y1907920D02*
X3590237D01*
Y1933312D01*
X3598701Y1941776D01*
X3632557D01*
X3641021Y1933312D01*
Y1907920D01*
Y1958704D02*
Y1992559D01*
X3632557D01*
X3598701Y1958704D01*
X3590237D01*
X3641075Y1776804D02*
Y1726021D01*
X3615683D01*
X3607219Y1734485D01*
Y1768341D01*
X3615683Y1776804D01*
X3641075D01*
X3556436D02*
X3573363Y1768341D01*
X3590291Y1751413D01*
Y1734485D01*
X3581827Y1726021D01*
X3564899D01*
X3556436Y1734485D01*
Y1742949D01*
X3564899Y1751413D01*
X3590291D01*
X3166708Y900216D02*
Y849432D01*
X3141317D01*
X3132853Y857896D01*
Y891752D01*
X3141317Y900216D01*
X3166708D01*
X3082069D02*
X3115925D01*
Y874824D01*
X3098997Y883288D01*
X3090533D01*
X3082069Y874824D01*
Y857896D01*
X3090533Y849432D01*
X3107461D01*
X3115925Y857896D01*
X2747124Y1255408D02*
X2755588Y1263871D01*
X2772515D01*
X2780979Y1255408D01*
Y1221552D01*
X2772515Y1213088D01*
X2755588D01*
X2747124Y1221552D01*
X2730196Y1213088D02*
X2713268D01*
X2721732D01*
Y1263871D01*
X2730196Y1255408D01*
X2687876D02*
X2679412Y1263871D01*
X2662484D01*
X2654021Y1255408D01*
Y1221552D01*
X2662484Y1213088D01*
X2679412D01*
X2687876Y1221552D01*
Y1255408D01*
X2604330Y1847264D02*
X2612793Y1855728D01*
X2629721D01*
X2638185Y1847264D01*
Y1813408D01*
X2629721Y1804944D01*
X2612793D01*
X2604330Y1813408D01*
X2587402D02*
X2578938Y1804944D01*
X2562010D01*
X2553546Y1813408D01*
Y1847264D01*
X2562010Y1855728D01*
X2578938D01*
X2587402Y1847264D01*
Y1838800D01*
X2578938Y1830336D01*
X2553546D01*
X3026181Y2165800D02*
X3034645Y2174264D01*
X3051573D01*
X3060037Y2165800D01*
Y2131944D01*
X3051573Y2123480D01*
X3034645D01*
X3026181Y2131944D01*
X3009253Y2165800D02*
X3000789Y2174264D01*
X2983861D01*
X2975397Y2165800D01*
Y2157336D01*
X2983861Y2148872D01*
X2975397Y2140408D01*
Y2131944D01*
X2983861Y2123480D01*
X3000789D01*
X3009253Y2131944D01*
Y2140408D01*
X3000789Y2148872D01*
X3009253Y2157336D01*
Y2165800D01*
X3000789Y2148872D02*
X2983861D01*
X2315172Y2888210D02*
X2306708Y2896674D01*
X2289780D01*
X2281316Y2888210D01*
Y2879746D01*
X2289780Y2871282D01*
X2298244D01*
X2289780D01*
X2281316Y2862818D01*
Y2854354D01*
X2289780Y2845890D01*
X2306708D01*
X2315172Y2854354D01*
X2264388Y2879746D02*
X2247460Y2845890D01*
X2230532Y2879746D01*
X2213605Y2888210D02*
X2205141Y2896674D01*
X2188213D01*
X2179749Y2888210D01*
Y2879746D01*
X2188213Y2871282D01*
X2196677D01*
X2188213D01*
X2179749Y2862818D01*
Y2854354D01*
X2188213Y2845890D01*
X2205141D01*
X2213605Y2854354D01*
X2281982Y2631348D02*
X2290446Y2639811D01*
X2307374D01*
X2315838Y2631348D01*
Y2597492D01*
X2307374Y2589028D01*
X2290446D01*
X2281982Y2597492D01*
Y2614420D01*
X2298910D01*
X2265055Y2589028D02*
Y2639811D01*
X2231199Y2589028D01*
Y2639811D01*
X2214271D02*
Y2589028D01*
X2188879D01*
X2180416Y2597492D01*
Y2631348D01*
X2188879Y2639811D01*
X2214271D01*
X2316667Y3098074D02*
Y3148857D01*
X2291275D01*
X2282812Y3140394D01*
Y3123466D01*
X2291275Y3115002D01*
X2316667D01*
X2232028Y3140394D02*
X2240492Y3148857D01*
X2257420D01*
X2265884Y3140394D01*
Y3106538D01*
X2257420Y3098074D01*
X2240492D01*
X2232028Y3106538D01*
Y3123466D01*
X2248956D01*
X2215100Y3098074D02*
Y3148857D01*
X2198172Y3131929D01*
X2181245Y3148857D01*
Y3098074D01*
X1668703Y3551712D02*
Y3500929D01*
X1643311D01*
X1634847Y3509393D01*
Y3543248D01*
X1643311Y3551712D01*
X1668703D01*
X1617920Y3543248D02*
X1609456Y3551712D01*
X1592528D01*
X1584064Y3543248D01*
Y3534784D01*
X1592528Y3526321D01*
X1584064Y3517857D01*
Y3509393D01*
X1592528Y3500929D01*
X1609456D01*
X1617920Y3509393D01*
Y3517857D01*
X1609456Y3526321D01*
X1617920Y3534784D01*
Y3543248D01*
X1609456Y3526321D02*
X1592528D01*
X1985044Y2705713D02*
X1993508Y2714177D01*
X2010436D01*
X2018900Y2705713D01*
Y2671858D01*
X2010436Y2663394D01*
X1993508D01*
X1985044Y2671858D01*
X1934261Y2714177D02*
X1951188Y2705713D01*
X1968116Y2688786D01*
Y2671858D01*
X1959652Y2663394D01*
X1942724D01*
X1934261Y2671858D01*
Y2680322D01*
X1942724Y2688786D01*
X1968116D01*
X1985044Y2844530D02*
X1993508Y2852994D01*
X2010436D01*
X2018900Y2844530D01*
Y2810674D01*
X2010436Y2802210D01*
X1993508D01*
X1985044Y2810674D01*
X1968116Y2852994D02*
X1934261D01*
Y2844530D01*
X1968116Y2810674D01*
Y2802210D01*
X2041759Y2941028D02*
Y2991811D01*
X2016368D01*
X2007904Y2983347D01*
Y2966420D01*
X2016368Y2957955D01*
X2041759D01*
X2024832D02*
X2007904Y2941028D01*
X1990976D02*
X1974048D01*
X1982512D01*
Y2991811D01*
X1990976Y2983347D01*
X1948656D02*
X1940192Y2991811D01*
X1923264D01*
X1914801Y2983347D01*
Y2949492D01*
X1923264Y2941028D01*
X1940192D01*
X1948656Y2949492D01*
Y2983347D01*
X2021400Y2524577D02*
Y2575361D01*
X1996008D01*
X1987544Y2566897D01*
Y2549969D01*
X1996008Y2541505D01*
X2021400D01*
X2004472D02*
X1987544Y2524577D01*
X1970616Y2533041D02*
X1962152Y2524577D01*
X1945224D01*
X1936760Y2533041D01*
Y2566897D01*
X1945224Y2575361D01*
X1962152D01*
X1970616Y2566897D01*
Y2558433D01*
X1962152Y2549969D01*
X1936760D01*
X2312691Y3967172D02*
Y3924852D01*
X2304227Y3916388D01*
X2287299D01*
X2278836Y3924852D01*
Y3967172D01*
X2228052Y3958708D02*
X2236516Y3967172D01*
X2253444D01*
X2261908Y3958708D01*
Y3950244D01*
X2253444Y3941780D01*
X2236516D01*
X2228052Y3933316D01*
Y3924852D01*
X2236516Y3916388D01*
X2253444D01*
X2261908Y3924852D01*
X2211124Y3967172D02*
Y3916388D01*
X2185732D01*
X2177269Y3924852D01*
Y3933316D01*
X2185732Y3941780D01*
X2211124D01*
X2185732D01*
X2177269Y3950244D01*
Y3958708D01*
X2185732Y3967172D01*
X2211124D01*
X1004163Y2609628D02*
Y2567309D01*
X995699Y2558845D01*
X978771D01*
X970308Y2567309D01*
Y2609628D01*
X953380Y2558845D02*
X936452D01*
X944916D01*
Y2609628D01*
X953380Y2601164D01*
X1404153Y3822440D02*
Y3873223D01*
X1378761D01*
X1370297Y3864760D01*
Y3847832D01*
X1378761Y3839368D01*
X1404153D01*
X1387225D02*
X1370297Y3822440D01*
X1353369Y3864760D02*
X1344905Y3873223D01*
X1327978D01*
X1319514Y3864760D01*
Y3856296D01*
X1327978Y3847832D01*
X1319514Y3839368D01*
Y3830904D01*
X1327978Y3822440D01*
X1344905D01*
X1353369Y3830904D01*
Y3839368D01*
X1344905Y3847832D01*
X1353369Y3856296D01*
Y3864760D01*
X1344905Y3847832D02*
X1327978D01*
X885847Y3820896D02*
Y3871679D01*
X860455D01*
X851991Y3863215D01*
Y3846287D01*
X860455Y3837823D01*
X885847D01*
X868919D02*
X851991Y3820896D01*
X835063Y3871679D02*
X801207D01*
Y3863215D01*
X835063Y3829360D01*
Y3820896D01*
X715039Y2910548D02*
Y2961332D01*
X689648D01*
X681184Y2952868D01*
Y2935940D01*
X689648Y2927476D01*
X715039D01*
X698112D02*
X681184Y2910548D01*
X630400Y2961332D02*
X647328Y2952868D01*
X664256Y2935940D01*
Y2919012D01*
X655792Y2910548D01*
X638864D01*
X630400Y2919012D01*
Y2927476D01*
X638864Y2935940D01*
X664256D01*
X1731575Y3946751D02*
X1765430D01*
Y3921359D01*
X1748502D01*
X1765430D01*
Y3895967D01*
X1680791D02*
X1714647D01*
X1680791Y3929823D01*
Y3938287D01*
X1689255Y3946751D01*
X1706183D01*
X1714647Y3938287D01*
X1741021Y3607920D02*
X1690237D01*
Y3633312D01*
X1698701Y3641776D01*
X1732557D01*
X1741021Y3633312D01*
Y3607920D01*
Y3658704D02*
Y3692560D01*
X1732557D01*
X1698701Y3658704D01*
X1690237D01*
X1741075Y3476805D02*
Y3426021D01*
X1715683D01*
X1707219Y3434485D01*
Y3468341D01*
X1715683Y3476805D01*
X1741075D01*
X1656436D02*
X1673363Y3468341D01*
X1690291Y3451413D01*
Y3434485D01*
X1681827Y3426021D01*
X1664899D01*
X1656436Y3434485D01*
Y3442949D01*
X1664899Y3451413D01*
X1690291D01*
X1266708Y2600216D02*
Y2549433D01*
X1241317D01*
X1232853Y2557897D01*
Y2591752D01*
X1241317Y2600216D01*
X1266708D01*
X1182069D02*
X1215925D01*
Y2574824D01*
X1198997Y2583288D01*
X1190533D01*
X1182069Y2574824D01*
Y2557897D01*
X1190533Y2549433D01*
X1207461D01*
X1215925Y2557897D01*
X847124Y2955408D02*
X855588Y2963872D01*
X872515D01*
X880979Y2955408D01*
Y2921552D01*
X872515Y2913088D01*
X855588D01*
X847124Y2921552D01*
X830196Y2913088D02*
X813268D01*
X821732D01*
Y2963872D01*
X830196Y2955408D01*
X787876D02*
X779412Y2963872D01*
X762484D01*
X754021Y2955408D01*
Y2921552D01*
X762484Y2913088D01*
X779412D01*
X787876Y2921552D01*
Y2955408D01*
X704330Y3547264D02*
X712793Y3555728D01*
X729721D01*
X738185Y3547264D01*
Y3513408D01*
X729721Y3504944D01*
X712793D01*
X704330Y3513408D01*
X687402D02*
X678938Y3504944D01*
X662010D01*
X653546Y3513408D01*
Y3547264D01*
X662010Y3555728D01*
X678938D01*
X687402Y3547264D01*
Y3538800D01*
X678938Y3530336D01*
X653546D01*
X1126181Y3865800D02*
X1134645Y3874264D01*
X1151572D01*
X1160037Y3865800D01*
Y3831944D01*
X1151572Y3823480D01*
X1134645D01*
X1126181Y3831944D01*
X1109253Y3865800D02*
X1100789Y3874264D01*
X1083861D01*
X1075397Y3865800D01*
Y3857336D01*
X1083861Y3848872D01*
X1075397Y3840408D01*
Y3831944D01*
X1083861Y3823480D01*
X1100789D01*
X1109253Y3831944D01*
Y3840408D01*
X1100789Y3848872D01*
X1109253Y3857336D01*
Y3865800D01*
X1100789Y3848872D02*
X1083861D01*
X4215172Y2888210D02*
X4206708Y2896674D01*
X4189780D01*
X4181316Y2888210D01*
Y2879746D01*
X4189780Y2871282D01*
X4198244D01*
X4189780D01*
X4181316Y2862818D01*
Y2854354D01*
X4189780Y2845890D01*
X4206708D01*
X4215172Y2854354D01*
X4164388Y2879746D02*
X4147460Y2845890D01*
X4130533Y2879746D01*
X4113605Y2888210D02*
X4105141Y2896674D01*
X4088213D01*
X4079749Y2888210D01*
Y2879746D01*
X4088213Y2871282D01*
X4096677D01*
X4088213D01*
X4079749Y2862818D01*
Y2854354D01*
X4088213Y2845890D01*
X4105141D01*
X4113605Y2854354D01*
X4181982Y2631348D02*
X4190446Y2639811D01*
X4207374D01*
X4215838Y2631348D01*
Y2597492D01*
X4207374Y2589028D01*
X4190446D01*
X4181982Y2597492D01*
Y2614420D01*
X4198910D01*
X4165055Y2589028D02*
Y2639811D01*
X4131199Y2589028D01*
Y2639811D01*
X4114271D02*
Y2589028D01*
X4088879D01*
X4080416Y2597492D01*
Y2631348D01*
X4088879Y2639811D01*
X4114271D01*
X4216667Y3098074D02*
Y3148857D01*
X4191275D01*
X4182812Y3140394D01*
Y3123466D01*
X4191275Y3115002D01*
X4216667D01*
X4132028Y3140394D02*
X4140492Y3148857D01*
X4157420D01*
X4165884Y3140394D01*
Y3106538D01*
X4157420Y3098074D01*
X4140492D01*
X4132028Y3106538D01*
Y3123466D01*
X4148956D01*
X4115100Y3098074D02*
Y3148857D01*
X4098172Y3131929D01*
X4081245Y3148857D01*
Y3098074D01*
X3568703Y3551712D02*
Y3500929D01*
X3543311D01*
X3534847Y3509393D01*
Y3543248D01*
X3543311Y3551712D01*
X3568703D01*
X3517920Y3543248D02*
X3509456Y3551712D01*
X3492528D01*
X3484064Y3543248D01*
Y3534784D01*
X3492528Y3526321D01*
X3484064Y3517857D01*
Y3509393D01*
X3492528Y3500929D01*
X3509456D01*
X3517920Y3509393D01*
Y3517857D01*
X3509456Y3526321D01*
X3517920Y3534784D01*
Y3543248D01*
X3509456Y3526321D02*
X3492528D01*
X3885044Y2705713D02*
X3893508Y2714177D01*
X3910436D01*
X3918900Y2705713D01*
Y2671858D01*
X3910436Y2663394D01*
X3893508D01*
X3885044Y2671858D01*
X3834261Y2714177D02*
X3851188Y2705713D01*
X3868116Y2688786D01*
Y2671858D01*
X3859652Y2663394D01*
X3842724D01*
X3834261Y2671858D01*
Y2680322D01*
X3842724Y2688786D01*
X3868116D01*
X3885044Y2844530D02*
X3893508Y2852994D01*
X3910436D01*
X3918900Y2844530D01*
Y2810674D01*
X3910436Y2802210D01*
X3893508D01*
X3885044Y2810674D01*
X3868116Y2852994D02*
X3834261D01*
Y2844530D01*
X3868116Y2810674D01*
Y2802210D01*
X3941759Y2941028D02*
Y2991811D01*
X3916368D01*
X3907904Y2983347D01*
Y2966420D01*
X3916368Y2957955D01*
X3941759D01*
X3924832D02*
X3907904Y2941028D01*
X3890976D02*
X3874048D01*
X3882512D01*
Y2991811D01*
X3890976Y2983347D01*
X3848656D02*
X3840192Y2991811D01*
X3823264D01*
X3814801Y2983347D01*
Y2949492D01*
X3823264Y2941028D01*
X3840192D01*
X3848656Y2949492D01*
Y2983347D01*
X3921400Y2524577D02*
Y2575361D01*
X3896008D01*
X3887544Y2566897D01*
Y2549969D01*
X3896008Y2541505D01*
X3921400D01*
X3904472D02*
X3887544Y2524577D01*
X3870616Y2533041D02*
X3862152Y2524577D01*
X3845224D01*
X3836760Y2533041D01*
Y2566897D01*
X3845224Y2575361D01*
X3862152D01*
X3870616Y2566897D01*
Y2558433D01*
X3862152Y2549969D01*
X3836760D01*
X4212691Y3967172D02*
Y3924852D01*
X4204227Y3916388D01*
X4187299D01*
X4178836Y3924852D01*
Y3967172D01*
X4128052Y3958708D02*
X4136516Y3967172D01*
X4153444D01*
X4161908Y3958708D01*
Y3950244D01*
X4153444Y3941780D01*
X4136516D01*
X4128052Y3933316D01*
Y3924852D01*
X4136516Y3916388D01*
X4153444D01*
X4161908Y3924852D01*
X4111124Y3967172D02*
Y3916388D01*
X4085732D01*
X4077269Y3924852D01*
Y3933316D01*
X4085732Y3941780D01*
X4111124D01*
X4085732D01*
X4077269Y3950244D01*
Y3958708D01*
X4085732Y3967172D01*
X4111124D01*
X2904163Y2609628D02*
Y2567309D01*
X2895699Y2558845D01*
X2878771D01*
X2870308Y2567309D01*
Y2609628D01*
X2853380Y2558845D02*
X2836452D01*
X2844916D01*
Y2609628D01*
X2853380Y2601164D01*
X3304153Y3822440D02*
Y3873223D01*
X3278761D01*
X3270297Y3864760D01*
Y3847832D01*
X3278761Y3839368D01*
X3304153D01*
X3287225D02*
X3270297Y3822440D01*
X3253369Y3864760D02*
X3244905Y3873223D01*
X3227978D01*
X3219514Y3864760D01*
Y3856296D01*
X3227978Y3847832D01*
X3219514Y3839368D01*
Y3830904D01*
X3227978Y3822440D01*
X3244905D01*
X3253369Y3830904D01*
Y3839368D01*
X3244905Y3847832D01*
X3253369Y3856296D01*
Y3864760D01*
X3244905Y3847832D02*
X3227978D01*
X2785847Y3820896D02*
Y3871679D01*
X2760455D01*
X2751991Y3863215D01*
Y3846287D01*
X2760455Y3837823D01*
X2785847D01*
X2768919D02*
X2751991Y3820896D01*
X2735063Y3871679D02*
X2701207D01*
Y3863215D01*
X2735063Y3829360D01*
Y3820896D01*
X2615039Y2910548D02*
Y2961332D01*
X2589648D01*
X2581184Y2952868D01*
Y2935940D01*
X2589648Y2927476D01*
X2615039D01*
X2598112D02*
X2581184Y2910548D01*
X2530400Y2961332D02*
X2547328Y2952868D01*
X2564256Y2935940D01*
Y2919012D01*
X2555792Y2910548D01*
X2538864D01*
X2530400Y2919012D01*
Y2927476D01*
X2538864Y2935940D01*
X2564256D01*
X3631575Y3946751D02*
X3665430D01*
Y3921359D01*
X3648502D01*
X3665430D01*
Y3895967D01*
X3580791D02*
X3614647D01*
X3580791Y3929823D01*
Y3938287D01*
X3589255Y3946751D01*
X3606183D01*
X3614647Y3938287D01*
X3641021Y3607920D02*
X3590237D01*
Y3633312D01*
X3598701Y3641776D01*
X3632557D01*
X3641021Y3633312D01*
Y3607920D01*
Y3658704D02*
Y3692560D01*
X3632557D01*
X3598701Y3658704D01*
X3590237D01*
X3641075Y3476805D02*
Y3426021D01*
X3615683D01*
X3607219Y3434485D01*
Y3468341D01*
X3615683Y3476805D01*
X3641075D01*
X3556436D02*
X3573363Y3468341D01*
X3590291Y3451413D01*
Y3434485D01*
X3581827Y3426021D01*
X3564899D01*
X3556436Y3434485D01*
Y3442949D01*
X3564899Y3451413D01*
X3590291D01*
X3166708Y2600216D02*
Y2549433D01*
X3141317D01*
X3132853Y2557897D01*
Y2591752D01*
X3141317Y2600216D01*
X3166708D01*
X3082069D02*
X3115925D01*
Y2574824D01*
X3098997Y2583288D01*
X3090533D01*
X3082069Y2574824D01*
Y2557897D01*
X3090533Y2549433D01*
X3107461D01*
X3115925Y2557897D01*
X2747124Y2955408D02*
X2755588Y2963872D01*
X2772515D01*
X2780979Y2955408D01*
Y2921552D01*
X2772515Y2913088D01*
X2755588D01*
X2747124Y2921552D01*
X2730196Y2913088D02*
X2713268D01*
X2721732D01*
Y2963872D01*
X2730196Y2955408D01*
X2687876D02*
X2679412Y2963872D01*
X2662484D01*
X2654021Y2955408D01*
Y2921552D01*
X2662484Y2913088D01*
X2679412D01*
X2687876Y2921552D01*
Y2955408D01*
X2604330Y3547264D02*
X2612793Y3555728D01*
X2629721D01*
X2638185Y3547264D01*
Y3513408D01*
X2629721Y3504944D01*
X2612793D01*
X2604330Y3513408D01*
X2587402D02*
X2578938Y3504944D01*
X2562010D01*
X2553546Y3513408D01*
Y3547264D01*
X2562010Y3555728D01*
X2578938D01*
X2587402Y3547264D01*
Y3538800D01*
X2578938Y3530336D01*
X2553546D01*
X3026181Y3865800D02*
X3034645Y3874264D01*
X3051573D01*
X3060037Y3865800D01*
Y3831944D01*
X3051573Y3823480D01*
X3034645D01*
X3026181Y3831944D01*
X3009253Y3865800D02*
X3000789Y3874264D01*
X2983861D01*
X2975397Y3865800D01*
Y3857336D01*
X2983861Y3848872D01*
X2975397Y3840408D01*
Y3831944D01*
X2983861Y3823480D01*
X3000789D01*
X3009253Y3831944D01*
Y3840408D01*
X3000789Y3848872D01*
X3009253Y3857336D01*
Y3865800D01*
X3000789Y3848872D02*
X2983861D01*
X2315172Y4588210D02*
X2306708Y4596674D01*
X2289780D01*
X2281316Y4588210D01*
Y4579746D01*
X2289780Y4571282D01*
X2298244D01*
X2289780D01*
X2281316Y4562818D01*
Y4554354D01*
X2289780Y4545890D01*
X2306708D01*
X2315172Y4554354D01*
X2264388Y4579746D02*
X2247460Y4545890D01*
X2230532Y4579746D01*
X2213605Y4588210D02*
X2205141Y4596674D01*
X2188213D01*
X2179749Y4588210D01*
Y4579746D01*
X2188213Y4571282D01*
X2196677D01*
X2188213D01*
X2179749Y4562818D01*
Y4554354D01*
X2188213Y4545890D01*
X2205141D01*
X2213605Y4554354D01*
X2281982Y4331348D02*
X2290446Y4339811D01*
X2307374D01*
X2315838Y4331348D01*
Y4297492D01*
X2307374Y4289028D01*
X2290446D01*
X2281982Y4297492D01*
Y4314420D01*
X2298910D01*
X2265055Y4289028D02*
Y4339811D01*
X2231199Y4289028D01*
Y4339811D01*
X2214271D02*
Y4289028D01*
X2188879D01*
X2180416Y4297492D01*
Y4331348D01*
X2188879Y4339811D01*
X2214271D01*
X2316667Y4798074D02*
Y4848857D01*
X2291275D01*
X2282812Y4840394D01*
Y4823466D01*
X2291275Y4815002D01*
X2316667D01*
X2232028Y4840394D02*
X2240492Y4848857D01*
X2257420D01*
X2265884Y4840394D01*
Y4806538D01*
X2257420Y4798074D01*
X2240492D01*
X2232028Y4806538D01*
Y4823466D01*
X2248956D01*
X2215100Y4798074D02*
Y4848857D01*
X2198172Y4831930D01*
X2181245Y4848857D01*
Y4798074D01*
X1668703Y5251712D02*
Y5200929D01*
X1643311D01*
X1634847Y5209393D01*
Y5243249D01*
X1643311Y5251712D01*
X1668703D01*
X1617920Y5243249D02*
X1609456Y5251712D01*
X1592528D01*
X1584064Y5243249D01*
Y5234785D01*
X1592528Y5226321D01*
X1584064Y5217857D01*
Y5209393D01*
X1592528Y5200929D01*
X1609456D01*
X1617920Y5209393D01*
Y5217857D01*
X1609456Y5226321D01*
X1617920Y5234785D01*
Y5243249D01*
X1609456Y5226321D02*
X1592528D01*
X1985044Y4405714D02*
X1993508Y4414177D01*
X2010436D01*
X2018900Y4405714D01*
Y4371858D01*
X2010436Y4363394D01*
X1993508D01*
X1985044Y4371858D01*
X1934261Y4414177D02*
X1951188Y4405714D01*
X1968116Y4388786D01*
Y4371858D01*
X1959652Y4363394D01*
X1942724D01*
X1934261Y4371858D01*
Y4380322D01*
X1942724Y4388786D01*
X1968116D01*
X1985044Y4544530D02*
X1993508Y4552994D01*
X2010436D01*
X2018900Y4544530D01*
Y4510674D01*
X2010436Y4502210D01*
X1993508D01*
X1985044Y4510674D01*
X1968116Y4552994D02*
X1934261D01*
Y4544530D01*
X1968116Y4510674D01*
Y4502210D01*
X2041759Y4641028D02*
Y4691811D01*
X2016368D01*
X2007904Y4683348D01*
Y4666420D01*
X2016368Y4657956D01*
X2041759D01*
X2024832D02*
X2007904Y4641028D01*
X1990976D02*
X1974048D01*
X1982512D01*
Y4691811D01*
X1990976Y4683348D01*
X1948656D02*
X1940192Y4691811D01*
X1923264D01*
X1914801Y4683348D01*
Y4649492D01*
X1923264Y4641028D01*
X1940192D01*
X1948656Y4649492D01*
Y4683348D01*
X2021400Y4224577D02*
Y4275361D01*
X1996008D01*
X1987544Y4266897D01*
Y4249969D01*
X1996008Y4241505D01*
X2021400D01*
X2004472D02*
X1987544Y4224577D01*
X1970616Y4233041D02*
X1962152Y4224577D01*
X1945224D01*
X1936760Y4233041D01*
Y4266897D01*
X1945224Y4275361D01*
X1962152D01*
X1970616Y4266897D01*
Y4258433D01*
X1962152Y4249969D01*
X1936760D01*
X2312691Y5667172D02*
Y5624852D01*
X2304227Y5616388D01*
X2287299D01*
X2278836Y5624852D01*
Y5667172D01*
X2228052Y5658708D02*
X2236516Y5667172D01*
X2253444D01*
X2261908Y5658708D01*
Y5650244D01*
X2253444Y5641780D01*
X2236516D01*
X2228052Y5633316D01*
Y5624852D01*
X2236516Y5616388D01*
X2253444D01*
X2261908Y5624852D01*
X2211124Y5667172D02*
Y5616388D01*
X2185732D01*
X2177269Y5624852D01*
Y5633316D01*
X2185732Y5641780D01*
X2211124D01*
X2185732D01*
X2177269Y5650244D01*
Y5658708D01*
X2185732Y5667172D01*
X2211124D01*
X1004163Y4309628D02*
Y4267309D01*
X995699Y4258845D01*
X978771D01*
X970308Y4267309D01*
Y4309628D01*
X953380Y4258845D02*
X936452D01*
X944916D01*
Y4309628D01*
X953380Y4301165D01*
X1404153Y5522440D02*
Y5573224D01*
X1378761D01*
X1370297Y5564760D01*
Y5547832D01*
X1378761Y5539368D01*
X1404153D01*
X1387225D02*
X1370297Y5522440D01*
X1353369Y5564760D02*
X1344905Y5573224D01*
X1327978D01*
X1319514Y5564760D01*
Y5556296D01*
X1327978Y5547832D01*
X1319514Y5539368D01*
Y5530904D01*
X1327978Y5522440D01*
X1344905D01*
X1353369Y5530904D01*
Y5539368D01*
X1344905Y5547832D01*
X1353369Y5556296D01*
Y5564760D01*
X1344905Y5547832D02*
X1327978D01*
X885847Y5520896D02*
Y5571679D01*
X860455D01*
X851991Y5563215D01*
Y5546288D01*
X860455Y5537824D01*
X885847D01*
X868919D02*
X851991Y5520896D01*
X835063Y5571679D02*
X801207D01*
Y5563215D01*
X835063Y5529360D01*
Y5520896D01*
X715039Y4610548D02*
Y4661332D01*
X689648D01*
X681184Y4652868D01*
Y4635940D01*
X689648Y4627476D01*
X715039D01*
X698112D02*
X681184Y4610548D01*
X630400Y4661332D02*
X647328Y4652868D01*
X664256Y4635940D01*
Y4619012D01*
X655792Y4610548D01*
X638864D01*
X630400Y4619012D01*
Y4627476D01*
X638864Y4635940D01*
X664256D01*
X1731575Y5646751D02*
X1765430D01*
Y5621359D01*
X1748502D01*
X1765430D01*
Y5595967D01*
X1680791D02*
X1714647D01*
X1680791Y5629823D01*
Y5638287D01*
X1689255Y5646751D01*
X1706183D01*
X1714647Y5638287D01*
X1741021Y5307921D02*
X1690237D01*
Y5333312D01*
X1698701Y5341776D01*
X1732557D01*
X1741021Y5333312D01*
Y5307921D01*
Y5358704D02*
Y5392560D01*
X1732557D01*
X1698701Y5358704D01*
X1690237D01*
X1741075Y5176805D02*
Y5126021D01*
X1715683D01*
X1707219Y5134485D01*
Y5168341D01*
X1715683Y5176805D01*
X1741075D01*
X1656436D02*
X1673363Y5168341D01*
X1690291Y5151413D01*
Y5134485D01*
X1681827Y5126021D01*
X1664899D01*
X1656436Y5134485D01*
Y5142949D01*
X1664899Y5151413D01*
X1690291D01*
X1266708Y4300216D02*
Y4249433D01*
X1241317D01*
X1232853Y4257897D01*
Y4291752D01*
X1241317Y4300216D01*
X1266708D01*
X1182069D02*
X1215925D01*
Y4274825D01*
X1198997Y4283288D01*
X1190533D01*
X1182069Y4274825D01*
Y4257897D01*
X1190533Y4249433D01*
X1207461D01*
X1215925Y4257897D01*
X847124Y4655408D02*
X855588Y4663872D01*
X872515D01*
X880979Y4655408D01*
Y4621552D01*
X872515Y4613088D01*
X855588D01*
X847124Y4621552D01*
X830196Y4613088D02*
X813268D01*
X821732D01*
Y4663872D01*
X830196Y4655408D01*
X787876D02*
X779412Y4663872D01*
X762484D01*
X754021Y4655408D01*
Y4621552D01*
X762484Y4613088D01*
X779412D01*
X787876Y4621552D01*
Y4655408D01*
X704330Y5247264D02*
X712793Y5255728D01*
X729721D01*
X738185Y5247264D01*
Y5213408D01*
X729721Y5204944D01*
X712793D01*
X704330Y5213408D01*
X687402D02*
X678938Y5204944D01*
X662010D01*
X653546Y5213408D01*
Y5247264D01*
X662010Y5255728D01*
X678938D01*
X687402Y5247264D01*
Y5238800D01*
X678938Y5230336D01*
X653546D01*
X1126181Y5565800D02*
X1134645Y5574264D01*
X1151572D01*
X1160037Y5565800D01*
Y5531944D01*
X1151572Y5523480D01*
X1134645D01*
X1126181Y5531944D01*
X1109253Y5565800D02*
X1100789Y5574264D01*
X1083861D01*
X1075397Y5565800D01*
Y5557336D01*
X1083861Y5548872D01*
X1075397Y5540408D01*
Y5531944D01*
X1083861Y5523480D01*
X1100789D01*
X1109253Y5531944D01*
Y5540408D01*
X1100789Y5548872D01*
X1109253Y5557336D01*
Y5565800D01*
X1100789Y5548872D02*
X1083861D01*
X4215172Y4588210D02*
X4206708Y4596674D01*
X4189780D01*
X4181316Y4588210D01*
Y4579746D01*
X4189780Y4571282D01*
X4198244D01*
X4189780D01*
X4181316Y4562818D01*
Y4554354D01*
X4189780Y4545890D01*
X4206708D01*
X4215172Y4554354D01*
X4164388Y4579746D02*
X4147460Y4545890D01*
X4130533Y4579746D01*
X4113605Y4588210D02*
X4105141Y4596674D01*
X4088213D01*
X4079749Y4588210D01*
Y4579746D01*
X4088213Y4571282D01*
X4096677D01*
X4088213D01*
X4079749Y4562818D01*
Y4554354D01*
X4088213Y4545890D01*
X4105141D01*
X4113605Y4554354D01*
X4181982Y4331348D02*
X4190446Y4339811D01*
X4207374D01*
X4215838Y4331348D01*
Y4297492D01*
X4207374Y4289028D01*
X4190446D01*
X4181982Y4297492D01*
Y4314420D01*
X4198910D01*
X4165055Y4289028D02*
Y4339811D01*
X4131199Y4289028D01*
Y4339811D01*
X4114271D02*
Y4289028D01*
X4088879D01*
X4080416Y4297492D01*
Y4331348D01*
X4088879Y4339811D01*
X4114271D01*
X4216667Y4798074D02*
Y4848857D01*
X4191275D01*
X4182812Y4840394D01*
Y4823466D01*
X4191275Y4815002D01*
X4216667D01*
X4132028Y4840394D02*
X4140492Y4848857D01*
X4157420D01*
X4165884Y4840394D01*
Y4806538D01*
X4157420Y4798074D01*
X4140492D01*
X4132028Y4806538D01*
Y4823466D01*
X4148956D01*
X4115100Y4798074D02*
Y4848857D01*
X4098172Y4831930D01*
X4081245Y4848857D01*
Y4798074D01*
X3568703Y5251712D02*
Y5200929D01*
X3543311D01*
X3534847Y5209393D01*
Y5243249D01*
X3543311Y5251712D01*
X3568703D01*
X3517920Y5243249D02*
X3509456Y5251712D01*
X3492528D01*
X3484064Y5243249D01*
Y5234785D01*
X3492528Y5226321D01*
X3484064Y5217857D01*
Y5209393D01*
X3492528Y5200929D01*
X3509456D01*
X3517920Y5209393D01*
Y5217857D01*
X3509456Y5226321D01*
X3517920Y5234785D01*
Y5243249D01*
X3509456Y5226321D02*
X3492528D01*
X3885044Y4405714D02*
X3893508Y4414177D01*
X3910436D01*
X3918900Y4405714D01*
Y4371858D01*
X3910436Y4363394D01*
X3893508D01*
X3885044Y4371858D01*
X3834261Y4414177D02*
X3851188Y4405714D01*
X3868116Y4388786D01*
Y4371858D01*
X3859652Y4363394D01*
X3842724D01*
X3834261Y4371858D01*
Y4380322D01*
X3842724Y4388786D01*
X3868116D01*
X3885044Y4544530D02*
X3893508Y4552994D01*
X3910436D01*
X3918900Y4544530D01*
Y4510674D01*
X3910436Y4502210D01*
X3893508D01*
X3885044Y4510674D01*
X3868116Y4552994D02*
X3834261D01*
Y4544530D01*
X3868116Y4510674D01*
Y4502210D01*
X3941759Y4641028D02*
Y4691811D01*
X3916368D01*
X3907904Y4683348D01*
Y4666420D01*
X3916368Y4657956D01*
X3941759D01*
X3924832D02*
X3907904Y4641028D01*
X3890976D02*
X3874048D01*
X3882512D01*
Y4691811D01*
X3890976Y4683348D01*
X3848656D02*
X3840192Y4691811D01*
X3823264D01*
X3814801Y4683348D01*
Y4649492D01*
X3823264Y4641028D01*
X3840192D01*
X3848656Y4649492D01*
Y4683348D01*
X3921400Y4224577D02*
Y4275361D01*
X3896008D01*
X3887544Y4266897D01*
Y4249969D01*
X3896008Y4241505D01*
X3921400D01*
X3904472D02*
X3887544Y4224577D01*
X3870616Y4233041D02*
X3862152Y4224577D01*
X3845224D01*
X3836760Y4233041D01*
Y4266897D01*
X3845224Y4275361D01*
X3862152D01*
X3870616Y4266897D01*
Y4258433D01*
X3862152Y4249969D01*
X3836760D01*
X4212691Y5667172D02*
Y5624852D01*
X4204227Y5616388D01*
X4187299D01*
X4178836Y5624852D01*
Y5667172D01*
X4128052Y5658708D02*
X4136516Y5667172D01*
X4153444D01*
X4161908Y5658708D01*
Y5650244D01*
X4153444Y5641780D01*
X4136516D01*
X4128052Y5633316D01*
Y5624852D01*
X4136516Y5616388D01*
X4153444D01*
X4161908Y5624852D01*
X4111124Y5667172D02*
Y5616388D01*
X4085732D01*
X4077269Y5624852D01*
Y5633316D01*
X4085732Y5641780D01*
X4111124D01*
X4085732D01*
X4077269Y5650244D01*
Y5658708D01*
X4085732Y5667172D01*
X4111124D01*
X2904163Y4309628D02*
Y4267309D01*
X2895699Y4258845D01*
X2878771D01*
X2870308Y4267309D01*
Y4309628D01*
X2853380Y4258845D02*
X2836452D01*
X2844916D01*
Y4309628D01*
X2853380Y4301165D01*
X3304153Y5522440D02*
Y5573224D01*
X3278761D01*
X3270297Y5564760D01*
Y5547832D01*
X3278761Y5539368D01*
X3304153D01*
X3287225D02*
X3270297Y5522440D01*
X3253369Y5564760D02*
X3244905Y5573224D01*
X3227978D01*
X3219514Y5564760D01*
Y5556296D01*
X3227978Y5547832D01*
X3219514Y5539368D01*
Y5530904D01*
X3227978Y5522440D01*
X3244905D01*
X3253369Y5530904D01*
Y5539368D01*
X3244905Y5547832D01*
X3253369Y5556296D01*
Y5564760D01*
X3244905Y5547832D02*
X3227978D01*
X2785847Y5520896D02*
Y5571679D01*
X2760455D01*
X2751991Y5563215D01*
Y5546288D01*
X2760455Y5537824D01*
X2785847D01*
X2768919D02*
X2751991Y5520896D01*
X2735063Y5571679D02*
X2701207D01*
Y5563215D01*
X2735063Y5529360D01*
Y5520896D01*
X2615039Y4610548D02*
Y4661332D01*
X2589648D01*
X2581184Y4652868D01*
Y4635940D01*
X2589648Y4627476D01*
X2615039D01*
X2598112D02*
X2581184Y4610548D01*
X2530400Y4661332D02*
X2547328Y4652868D01*
X2564256Y4635940D01*
Y4619012D01*
X2555792Y4610548D01*
X2538864D01*
X2530400Y4619012D01*
Y4627476D01*
X2538864Y4635940D01*
X2564256D01*
X3631575Y5646751D02*
X3665430D01*
Y5621359D01*
X3648502D01*
X3665430D01*
Y5595967D01*
X3580791D02*
X3614647D01*
X3580791Y5629823D01*
Y5638287D01*
X3589255Y5646751D01*
X3606183D01*
X3614647Y5638287D01*
X3641021Y5307921D02*
X3590237D01*
Y5333312D01*
X3598701Y5341776D01*
X3632557D01*
X3641021Y5333312D01*
Y5307921D01*
Y5358704D02*
Y5392560D01*
X3632557D01*
X3598701Y5358704D01*
X3590237D01*
X3641075Y5176805D02*
Y5126021D01*
X3615683D01*
X3607219Y5134485D01*
Y5168341D01*
X3615683Y5176805D01*
X3641075D01*
X3556436D02*
X3573363Y5168341D01*
X3590291Y5151413D01*
Y5134485D01*
X3581827Y5126021D01*
X3564899D01*
X3556436Y5134485D01*
Y5142949D01*
X3564899Y5151413D01*
X3590291D01*
X3166708Y4300216D02*
Y4249433D01*
X3141317D01*
X3132853Y4257897D01*
Y4291752D01*
X3141317Y4300216D01*
X3166708D01*
X3082069D02*
X3115925D01*
Y4274825D01*
X3098997Y4283288D01*
X3090533D01*
X3082069Y4274825D01*
Y4257897D01*
X3090533Y4249433D01*
X3107461D01*
X3115925Y4257897D01*
X2747124Y4655408D02*
X2755588Y4663872D01*
X2772515D01*
X2780979Y4655408D01*
Y4621552D01*
X2772515Y4613088D01*
X2755588D01*
X2747124Y4621552D01*
X2730196Y4613088D02*
X2713268D01*
X2721732D01*
Y4663872D01*
X2730196Y4655408D01*
X2687876D02*
X2679412Y4663872D01*
X2662484D01*
X2654021Y4655408D01*
Y4621552D01*
X2662484Y4613088D01*
X2679412D01*
X2687876Y4621552D01*
Y4655408D01*
X2604330Y5247264D02*
X2612793Y5255728D01*
X2629721D01*
X2638185Y5247264D01*
Y5213408D01*
X2629721Y5204944D01*
X2612793D01*
X2604330Y5213408D01*
X2587402D02*
X2578938Y5204944D01*
X2562010D01*
X2553546Y5213408D01*
Y5247264D01*
X2562010Y5255728D01*
X2578938D01*
X2587402Y5247264D01*
Y5238800D01*
X2578938Y5230336D01*
X2553546D01*
X3026181Y5565800D02*
X3034645Y5574264D01*
X3051573D01*
X3060037Y5565800D01*
Y5531944D01*
X3051573Y5523480D01*
X3034645D01*
X3026181Y5531944D01*
X3009253Y5565800D02*
X3000789Y5574264D01*
X2983861D01*
X2975397Y5565800D01*
Y5557336D01*
X2983861Y5548872D01*
X2975397Y5540408D01*
Y5531944D01*
X2983861Y5523480D01*
X3000789D01*
X3009253Y5531944D01*
Y5540408D01*
X3000789Y5548872D01*
X3009253Y5557336D01*
Y5565800D01*
X3000789Y5548872D02*
X2983861D01*
X2315172Y6288210D02*
X2306708Y6296674D01*
X2289780D01*
X2281316Y6288210D01*
Y6279746D01*
X2289780Y6271282D01*
X2298244D01*
X2289780D01*
X2281316Y6262818D01*
Y6254355D01*
X2289780Y6245890D01*
X2306708D01*
X2315172Y6254355D01*
X2264388Y6279746D02*
X2247460Y6245890D01*
X2230532Y6279746D01*
X2213605Y6288210D02*
X2205141Y6296674D01*
X2188213D01*
X2179749Y6288210D01*
Y6279746D01*
X2188213Y6271282D01*
X2196677D01*
X2188213D01*
X2179749Y6262818D01*
Y6254355D01*
X2188213Y6245890D01*
X2205141D01*
X2213605Y6254355D01*
X2281982Y6031348D02*
X2290446Y6039812D01*
X2307374D01*
X2315838Y6031348D01*
Y5997492D01*
X2307374Y5989028D01*
X2290446D01*
X2281982Y5997492D01*
Y6014420D01*
X2298910D01*
X2265055Y5989028D02*
Y6039812D01*
X2231199Y5989028D01*
Y6039812D01*
X2214271D02*
Y5989028D01*
X2188879D01*
X2180416Y5997492D01*
Y6031348D01*
X2188879Y6039812D01*
X2214271D01*
X2316667Y6498074D02*
Y6548858D01*
X2291275D01*
X2282812Y6540394D01*
Y6523466D01*
X2291275Y6515002D01*
X2316667D01*
X2232028Y6540394D02*
X2240492Y6548858D01*
X2257420D01*
X2265884Y6540394D01*
Y6506538D01*
X2257420Y6498074D01*
X2240492D01*
X2232028Y6506538D01*
Y6523466D01*
X2248956D01*
X2215100Y6498074D02*
Y6548858D01*
X2198172Y6531930D01*
X2181245Y6548858D01*
Y6498074D01*
X1668703Y6951713D02*
Y6900929D01*
X1643311D01*
X1634847Y6909393D01*
Y6943249D01*
X1643311Y6951713D01*
X1668703D01*
X1617920Y6943249D02*
X1609456Y6951713D01*
X1592528D01*
X1584064Y6943249D01*
Y6934785D01*
X1592528Y6926321D01*
X1584064Y6917857D01*
Y6909393D01*
X1592528Y6900929D01*
X1609456D01*
X1617920Y6909393D01*
Y6917857D01*
X1609456Y6926321D01*
X1617920Y6934785D01*
Y6943249D01*
X1609456Y6926321D02*
X1592528D01*
X1985044Y6105714D02*
X1993508Y6114178D01*
X2010436D01*
X2018900Y6105714D01*
Y6071858D01*
X2010436Y6063394D01*
X1993508D01*
X1985044Y6071858D01*
X1934261Y6114178D02*
X1951188Y6105714D01*
X1968116Y6088786D01*
Y6071858D01*
X1959652Y6063394D01*
X1942724D01*
X1934261Y6071858D01*
Y6080322D01*
X1942724Y6088786D01*
X1968116D01*
X1985044Y6244530D02*
X1993508Y6252994D01*
X2010436D01*
X2018900Y6244530D01*
Y6210675D01*
X2010436Y6202211D01*
X1993508D01*
X1985044Y6210675D01*
X1968116Y6252994D02*
X1934261D01*
Y6244530D01*
X1968116Y6210675D01*
Y6202211D01*
X2041759Y6341028D02*
Y6391811D01*
X2016368D01*
X2007904Y6383348D01*
Y6366420D01*
X2016368Y6357956D01*
X2041759D01*
X2024832D02*
X2007904Y6341028D01*
X1990976D02*
X1974048D01*
X1982512D01*
Y6391811D01*
X1990976Y6383348D01*
X1948656D02*
X1940192Y6391811D01*
X1923264D01*
X1914801Y6383348D01*
Y6349492D01*
X1923264Y6341028D01*
X1940192D01*
X1948656Y6349492D01*
Y6383348D01*
X2021400Y5924577D02*
Y5975361D01*
X1996008D01*
X1987544Y5966897D01*
Y5949969D01*
X1996008Y5941505D01*
X2021400D01*
X2004472D02*
X1987544Y5924577D01*
X1970616Y5933041D02*
X1962152Y5924577D01*
X1945224D01*
X1936760Y5933041D01*
Y5966897D01*
X1945224Y5975361D01*
X1962152D01*
X1970616Y5966897D01*
Y5958433D01*
X1962152Y5949969D01*
X1936760D01*
X2312691Y7367172D02*
Y7324853D01*
X2304227Y7316388D01*
X2287299D01*
X2278836Y7324853D01*
Y7367172D01*
X2228052Y7358708D02*
X2236516Y7367172D01*
X2253444D01*
X2261908Y7358708D01*
Y7350244D01*
X2253444Y7341780D01*
X2236516D01*
X2228052Y7333316D01*
Y7324853D01*
X2236516Y7316388D01*
X2253444D01*
X2261908Y7324853D01*
X2211124Y7367172D02*
Y7316388D01*
X2185732D01*
X2177269Y7324853D01*
Y7333316D01*
X2185732Y7341780D01*
X2211124D01*
X2185732D01*
X2177269Y7350244D01*
Y7358708D01*
X2185732Y7367172D01*
X2211124D01*
X1004163Y6009629D02*
Y5967309D01*
X995699Y5958845D01*
X978771D01*
X970308Y5967309D01*
Y6009629D01*
X953380Y5958845D02*
X936452D01*
X944916D01*
Y6009629D01*
X953380Y6001165D01*
X1404153Y7222440D02*
Y7273224D01*
X1378761D01*
X1370297Y7264760D01*
Y7247832D01*
X1378761Y7239368D01*
X1404153D01*
X1387225D02*
X1370297Y7222440D01*
X1353369Y7264760D02*
X1344905Y7273224D01*
X1327978D01*
X1319514Y7264760D01*
Y7256296D01*
X1327978Y7247832D01*
X1319514Y7239368D01*
Y7230904D01*
X1327978Y7222440D01*
X1344905D01*
X1353369Y7230904D01*
Y7239368D01*
X1344905Y7247832D01*
X1353369Y7256296D01*
Y7264760D01*
X1344905Y7247832D02*
X1327978D01*
X885847Y7220896D02*
Y7271679D01*
X860455D01*
X851991Y7263216D01*
Y7246288D01*
X860455Y7237824D01*
X885847D01*
X868919D02*
X851991Y7220896D01*
X835063Y7271679D02*
X801207D01*
Y7263216D01*
X835063Y7229360D01*
Y7220896D01*
X715039Y6310548D02*
Y6361332D01*
X689648D01*
X681184Y6352868D01*
Y6335940D01*
X689648Y6327476D01*
X715039D01*
X698112D02*
X681184Y6310548D01*
X630400Y6361332D02*
X647328Y6352868D01*
X664256Y6335940D01*
Y6319013D01*
X655792Y6310548D01*
X638864D01*
X630400Y6319013D01*
Y6327476D01*
X638864Y6335940D01*
X664256D01*
X1731575Y7346751D02*
X1765430D01*
Y7321359D01*
X1748502D01*
X1765430D01*
Y7295968D01*
X1680791D02*
X1714647D01*
X1680791Y7329823D01*
Y7338287D01*
X1689255Y7346751D01*
X1706183D01*
X1714647Y7338287D01*
X1741021Y7007921D02*
X1690237D01*
Y7033313D01*
X1698701Y7041776D01*
X1732557D01*
X1741021Y7033313D01*
Y7007921D01*
Y7058704D02*
Y7092560D01*
X1732557D01*
X1698701Y7058704D01*
X1690237D01*
X1741075Y6876805D02*
Y6826021D01*
X1715683D01*
X1707219Y6834485D01*
Y6868341D01*
X1715683Y6876805D01*
X1741075D01*
X1656436D02*
X1673363Y6868341D01*
X1690291Y6851413D01*
Y6834485D01*
X1681827Y6826021D01*
X1664899D01*
X1656436Y6834485D01*
Y6842949D01*
X1664899Y6851413D01*
X1690291D01*
X1266708Y6000216D02*
Y5949433D01*
X1241317D01*
X1232853Y5957897D01*
Y5991753D01*
X1241317Y6000216D01*
X1266708D01*
X1182069D02*
X1215925D01*
Y5974825D01*
X1198997Y5983289D01*
X1190533D01*
X1182069Y5974825D01*
Y5957897D01*
X1190533Y5949433D01*
X1207461D01*
X1215925Y5957897D01*
X847124Y6355408D02*
X855588Y6363872D01*
X872515D01*
X880979Y6355408D01*
Y6321553D01*
X872515Y6313088D01*
X855588D01*
X847124Y6321553D01*
X830196Y6313088D02*
X813268D01*
X821732D01*
Y6363872D01*
X830196Y6355408D01*
X787876D02*
X779412Y6363872D01*
X762484D01*
X754021Y6355408D01*
Y6321553D01*
X762484Y6313088D01*
X779412D01*
X787876Y6321553D01*
Y6355408D01*
X704330Y6947264D02*
X712793Y6955728D01*
X729721D01*
X738185Y6947264D01*
Y6913409D01*
X729721Y6904945D01*
X712793D01*
X704330Y6913409D01*
X687402D02*
X678938Y6904945D01*
X662010D01*
X653546Y6913409D01*
Y6947264D01*
X662010Y6955728D01*
X678938D01*
X687402Y6947264D01*
Y6938800D01*
X678938Y6930336D01*
X653546D01*
X1126181Y7265800D02*
X1134645Y7274264D01*
X1151572D01*
X1160037Y7265800D01*
Y7231945D01*
X1151572Y7223481D01*
X1134645D01*
X1126181Y7231945D01*
X1109253Y7265800D02*
X1100789Y7274264D01*
X1083861D01*
X1075397Y7265800D01*
Y7257336D01*
X1083861Y7248872D01*
X1075397Y7240408D01*
Y7231945D01*
X1083861Y7223481D01*
X1100789D01*
X1109253Y7231945D01*
Y7240408D01*
X1100789Y7248872D01*
X1109253Y7257336D01*
Y7265800D01*
X1100789Y7248872D02*
X1083861D01*
X4215172Y6288210D02*
X4206708Y6296674D01*
X4189780D01*
X4181316Y6288210D01*
Y6279746D01*
X4189780Y6271282D01*
X4198244D01*
X4189780D01*
X4181316Y6262818D01*
Y6254355D01*
X4189780Y6245890D01*
X4206708D01*
X4215172Y6254355D01*
X4164388Y6279746D02*
X4147460Y6245890D01*
X4130533Y6279746D01*
X4113605Y6288210D02*
X4105141Y6296674D01*
X4088213D01*
X4079749Y6288210D01*
Y6279746D01*
X4088213Y6271282D01*
X4096677D01*
X4088213D01*
X4079749Y6262818D01*
Y6254355D01*
X4088213Y6245890D01*
X4105141D01*
X4113605Y6254355D01*
X4181982Y6031348D02*
X4190446Y6039812D01*
X4207374D01*
X4215838Y6031348D01*
Y5997492D01*
X4207374Y5989028D01*
X4190446D01*
X4181982Y5997492D01*
Y6014420D01*
X4198910D01*
X4165055Y5989028D02*
Y6039812D01*
X4131199Y5989028D01*
Y6039812D01*
X4114271D02*
Y5989028D01*
X4088879D01*
X4080416Y5997492D01*
Y6031348D01*
X4088879Y6039812D01*
X4114271D01*
X4216667Y6498074D02*
Y6548858D01*
X4191275D01*
X4182812Y6540394D01*
Y6523466D01*
X4191275Y6515002D01*
X4216667D01*
X4132028Y6540394D02*
X4140492Y6548858D01*
X4157420D01*
X4165884Y6540394D01*
Y6506538D01*
X4157420Y6498074D01*
X4140492D01*
X4132028Y6506538D01*
Y6523466D01*
X4148956D01*
X4115100Y6498074D02*
Y6548858D01*
X4098172Y6531930D01*
X4081245Y6548858D01*
Y6498074D01*
X3568703Y6951713D02*
Y6900929D01*
X3543311D01*
X3534847Y6909393D01*
Y6943249D01*
X3543311Y6951713D01*
X3568703D01*
X3517920Y6943249D02*
X3509456Y6951713D01*
X3492528D01*
X3484064Y6943249D01*
Y6934785D01*
X3492528Y6926321D01*
X3484064Y6917857D01*
Y6909393D01*
X3492528Y6900929D01*
X3509456D01*
X3517920Y6909393D01*
Y6917857D01*
X3509456Y6926321D01*
X3517920Y6934785D01*
Y6943249D01*
X3509456Y6926321D02*
X3492528D01*
X3885044Y6105714D02*
X3893508Y6114178D01*
X3910436D01*
X3918900Y6105714D01*
Y6071858D01*
X3910436Y6063394D01*
X3893508D01*
X3885044Y6071858D01*
X3834261Y6114178D02*
X3851188Y6105714D01*
X3868116Y6088786D01*
Y6071858D01*
X3859652Y6063394D01*
X3842724D01*
X3834261Y6071858D01*
Y6080322D01*
X3842724Y6088786D01*
X3868116D01*
X3885044Y6244530D02*
X3893508Y6252994D01*
X3910436D01*
X3918900Y6244530D01*
Y6210675D01*
X3910436Y6202211D01*
X3893508D01*
X3885044Y6210675D01*
X3868116Y6252994D02*
X3834261D01*
Y6244530D01*
X3868116Y6210675D01*
Y6202211D01*
X3941759Y6341028D02*
Y6391811D01*
X3916368D01*
X3907904Y6383348D01*
Y6366420D01*
X3916368Y6357956D01*
X3941759D01*
X3924832D02*
X3907904Y6341028D01*
X3890976D02*
X3874048D01*
X3882512D01*
Y6391811D01*
X3890976Y6383348D01*
X3848656D02*
X3840192Y6391811D01*
X3823264D01*
X3814801Y6383348D01*
Y6349492D01*
X3823264Y6341028D01*
X3840192D01*
X3848656Y6349492D01*
Y6383348D01*
X3921400Y5924577D02*
Y5975361D01*
X3896008D01*
X3887544Y5966897D01*
Y5949969D01*
X3896008Y5941505D01*
X3921400D01*
X3904472D02*
X3887544Y5924577D01*
X3870616Y5933041D02*
X3862152Y5924577D01*
X3845224D01*
X3836760Y5933041D01*
Y5966897D01*
X3845224Y5975361D01*
X3862152D01*
X3870616Y5966897D01*
Y5958433D01*
X3862152Y5949969D01*
X3836760D01*
X4212691Y7367172D02*
Y7324853D01*
X4204227Y7316388D01*
X4187299D01*
X4178836Y7324853D01*
Y7367172D01*
X4128052Y7358708D02*
X4136516Y7367172D01*
X4153444D01*
X4161908Y7358708D01*
Y7350244D01*
X4153444Y7341780D01*
X4136516D01*
X4128052Y7333316D01*
Y7324853D01*
X4136516Y7316388D01*
X4153444D01*
X4161908Y7324853D01*
X4111124Y7367172D02*
Y7316388D01*
X4085732D01*
X4077269Y7324853D01*
Y7333316D01*
X4085732Y7341780D01*
X4111124D01*
X4085732D01*
X4077269Y7350244D01*
Y7358708D01*
X4085732Y7367172D01*
X4111124D01*
X2904163Y6009629D02*
Y5967309D01*
X2895699Y5958845D01*
X2878771D01*
X2870308Y5967309D01*
Y6009629D01*
X2853380Y5958845D02*
X2836452D01*
X2844916D01*
Y6009629D01*
X2853380Y6001165D01*
X3304153Y7222440D02*
Y7273224D01*
X3278761D01*
X3270297Y7264760D01*
Y7247832D01*
X3278761Y7239368D01*
X3304153D01*
X3287225D02*
X3270297Y7222440D01*
X3253369Y7264760D02*
X3244905Y7273224D01*
X3227978D01*
X3219514Y7264760D01*
Y7256296D01*
X3227978Y7247832D01*
X3219514Y7239368D01*
Y7230904D01*
X3227978Y7222440D01*
X3244905D01*
X3253369Y7230904D01*
Y7239368D01*
X3244905Y7247832D01*
X3253369Y7256296D01*
Y7264760D01*
X3244905Y7247832D02*
X3227978D01*
X2785847Y7220896D02*
Y7271679D01*
X2760455D01*
X2751991Y7263216D01*
Y7246288D01*
X2760455Y7237824D01*
X2785847D01*
X2768919D02*
X2751991Y7220896D01*
X2735063Y7271679D02*
X2701207D01*
Y7263216D01*
X2735063Y7229360D01*
Y7220896D01*
X2615039Y6310548D02*
Y6361332D01*
X2589648D01*
X2581184Y6352868D01*
Y6335940D01*
X2589648Y6327476D01*
X2615039D01*
X2598112D02*
X2581184Y6310548D01*
X2530400Y6361332D02*
X2547328Y6352868D01*
X2564256Y6335940D01*
Y6319013D01*
X2555792Y6310548D01*
X2538864D01*
X2530400Y6319013D01*
Y6327476D01*
X2538864Y6335940D01*
X2564256D01*
X3631575Y7346751D02*
X3665430D01*
Y7321359D01*
X3648502D01*
X3665430D01*
Y7295968D01*
X3580791D02*
X3614647D01*
X3580791Y7329823D01*
Y7338287D01*
X3589255Y7346751D01*
X3606183D01*
X3614647Y7338287D01*
X3641021Y7007921D02*
X3590237D01*
Y7033313D01*
X3598701Y7041776D01*
X3632557D01*
X3641021Y7033313D01*
Y7007921D01*
Y7058704D02*
Y7092560D01*
X3632557D01*
X3598701Y7058704D01*
X3590237D01*
X3641075Y6876805D02*
Y6826021D01*
X3615683D01*
X3607219Y6834485D01*
Y6868341D01*
X3615683Y6876805D01*
X3641075D01*
X3556436D02*
X3573363Y6868341D01*
X3590291Y6851413D01*
Y6834485D01*
X3581827Y6826021D01*
X3564899D01*
X3556436Y6834485D01*
Y6842949D01*
X3564899Y6851413D01*
X3590291D01*
X3166708Y6000216D02*
Y5949433D01*
X3141317D01*
X3132853Y5957897D01*
Y5991753D01*
X3141317Y6000216D01*
X3166708D01*
X3082069D02*
X3115925D01*
Y5974825D01*
X3098997Y5983289D01*
X3090533D01*
X3082069Y5974825D01*
Y5957897D01*
X3090533Y5949433D01*
X3107461D01*
X3115925Y5957897D01*
X2747124Y6355408D02*
X2755588Y6363872D01*
X2772515D01*
X2780979Y6355408D01*
Y6321553D01*
X2772515Y6313088D01*
X2755588D01*
X2747124Y6321553D01*
X2730196Y6313088D02*
X2713268D01*
X2721732D01*
Y6363872D01*
X2730196Y6355408D01*
X2687876D02*
X2679412Y6363872D01*
X2662484D01*
X2654021Y6355408D01*
Y6321553D01*
X2662484Y6313088D01*
X2679412D01*
X2687876Y6321553D01*
Y6355408D01*
X2604330Y6947264D02*
X2612793Y6955728D01*
X2629721D01*
X2638185Y6947264D01*
Y6913409D01*
X2629721Y6904945D01*
X2612793D01*
X2604330Y6913409D01*
X2587402D02*
X2578938Y6904945D01*
X2562010D01*
X2553546Y6913409D01*
Y6947264D01*
X2562010Y6955728D01*
X2578938D01*
X2587402Y6947264D01*
Y6938800D01*
X2578938Y6930336D01*
X2553546D01*
X3026181Y7265800D02*
X3034645Y7274264D01*
X3051573D01*
X3060037Y7265800D01*
Y7231945D01*
X3051573Y7223481D01*
X3034645D01*
X3026181Y7231945D01*
X3009253Y7265800D02*
X3000789Y7274264D01*
X2983861D01*
X2975397Y7265800D01*
Y7257336D01*
X2983861Y7248872D01*
X2975397Y7240408D01*
Y7231945D01*
X2983861Y7223481D01*
X3000789D01*
X3009253Y7231945D01*
Y7240408D01*
X3000789Y7248872D01*
X3009253Y7257336D01*
Y7265800D01*
X3000789Y7248872D02*
X2983861D01*
X2315172Y7988210D02*
X2306708Y7996674D01*
X2289780D01*
X2281316Y7988210D01*
Y7979746D01*
X2289780Y7971283D01*
X2298244D01*
X2289780D01*
X2281316Y7962818D01*
Y7954355D01*
X2289780Y7945891D01*
X2306708D01*
X2315172Y7954355D01*
X2264388Y7979746D02*
X2247460Y7945891D01*
X2230532Y7979746D01*
X2213605Y7988210D02*
X2205141Y7996674D01*
X2188213D01*
X2179749Y7988210D01*
Y7979746D01*
X2188213Y7971283D01*
X2196677D01*
X2188213D01*
X2179749Y7962818D01*
Y7954355D01*
X2188213Y7945891D01*
X2205141D01*
X2213605Y7954355D01*
X2281982Y7731348D02*
X2290446Y7739812D01*
X2307374D01*
X2315838Y7731348D01*
Y7697492D01*
X2307374Y7689028D01*
X2290446D01*
X2281982Y7697492D01*
Y7714420D01*
X2298910D01*
X2265055Y7689028D02*
Y7739812D01*
X2231199Y7689028D01*
Y7739812D01*
X2214271D02*
Y7689028D01*
X2188879D01*
X2180416Y7697492D01*
Y7731348D01*
X2188879Y7739812D01*
X2214271D01*
X2316667Y8198074D02*
Y8248858D01*
X2291275D01*
X2282812Y8240394D01*
Y8223466D01*
X2291275Y8215002D01*
X2316667D01*
X2232028Y8240394D02*
X2240492Y8248858D01*
X2257420D01*
X2265884Y8240394D01*
Y8206538D01*
X2257420Y8198074D01*
X2240492D01*
X2232028Y8206538D01*
Y8223466D01*
X2248956D01*
X2215100Y8198074D02*
Y8248858D01*
X2198172Y8231930D01*
X2181245Y8248858D01*
Y8198074D01*
X1668703Y8651713D02*
Y8600929D01*
X1643311D01*
X1634847Y8609393D01*
Y8643249D01*
X1643311Y8651713D01*
X1668703D01*
X1617920Y8643249D02*
X1609456Y8651713D01*
X1592528D01*
X1584064Y8643249D01*
Y8634785D01*
X1592528Y8626321D01*
X1584064Y8617857D01*
Y8609393D01*
X1592528Y8600929D01*
X1609456D01*
X1617920Y8609393D01*
Y8617857D01*
X1609456Y8626321D01*
X1617920Y8634785D01*
Y8643249D01*
X1609456Y8626321D02*
X1592528D01*
X1985044Y7805714D02*
X1993508Y7814178D01*
X2010436D01*
X2018900Y7805714D01*
Y7771858D01*
X2010436Y7763394D01*
X1993508D01*
X1985044Y7771858D01*
X1934261Y7814178D02*
X1951188Y7805714D01*
X1968116Y7788786D01*
Y7771858D01*
X1959652Y7763394D01*
X1942724D01*
X1934261Y7771858D01*
Y7780322D01*
X1942724Y7788786D01*
X1968116D01*
X1985044Y7944530D02*
X1993508Y7952994D01*
X2010436D01*
X2018900Y7944530D01*
Y7910675D01*
X2010436Y7902211D01*
X1993508D01*
X1985044Y7910675D01*
X1968116Y7952994D02*
X1934261D01*
Y7944530D01*
X1968116Y7910675D01*
Y7902211D01*
X2041759Y8041028D02*
Y8091812D01*
X2016368D01*
X2007904Y8083348D01*
Y8066420D01*
X2016368Y8057956D01*
X2041759D01*
X2024832D02*
X2007904Y8041028D01*
X1990976D02*
X1974048D01*
X1982512D01*
Y8091812D01*
X1990976Y8083348D01*
X1948656D02*
X1940192Y8091812D01*
X1923264D01*
X1914801Y8083348D01*
Y8049492D01*
X1923264Y8041028D01*
X1940192D01*
X1948656Y8049492D01*
Y8083348D01*
X2021400Y7624578D02*
Y7675361D01*
X1996008D01*
X1987544Y7666897D01*
Y7649969D01*
X1996008Y7641505D01*
X2021400D01*
X2004472D02*
X1987544Y7624578D01*
X1970616Y7633042D02*
X1962152Y7624578D01*
X1945224D01*
X1936760Y7633042D01*
Y7666897D01*
X1945224Y7675361D01*
X1962152D01*
X1970616Y7666897D01*
Y7658433D01*
X1962152Y7649969D01*
X1936760D01*
X2312691Y9067172D02*
Y9024853D01*
X2304227Y9016389D01*
X2287299D01*
X2278836Y9024853D01*
Y9067172D01*
X2228052Y9058708D02*
X2236516Y9067172D01*
X2253444D01*
X2261908Y9058708D01*
Y9050244D01*
X2253444Y9041780D01*
X2236516D01*
X2228052Y9033316D01*
Y9024853D01*
X2236516Y9016389D01*
X2253444D01*
X2261908Y9024853D01*
X2211124Y9067172D02*
Y9016389D01*
X2185732D01*
X2177269Y9024853D01*
Y9033316D01*
X2185732Y9041780D01*
X2211124D01*
X2185732D01*
X2177269Y9050244D01*
Y9058708D01*
X2185732Y9067172D01*
X2211124D01*
X1004163Y7709629D02*
Y7667309D01*
X995699Y7658845D01*
X978771D01*
X970308Y7667309D01*
Y7709629D01*
X953380Y7658845D02*
X936452D01*
X944916D01*
Y7709629D01*
X953380Y7701165D01*
X1404153Y8922440D02*
Y8973224D01*
X1378761D01*
X1370297Y8964760D01*
Y8947832D01*
X1378761Y8939368D01*
X1404153D01*
X1387225D02*
X1370297Y8922440D01*
X1353369Y8964760D02*
X1344905Y8973224D01*
X1327978D01*
X1319514Y8964760D01*
Y8956296D01*
X1327978Y8947832D01*
X1319514Y8939368D01*
Y8930904D01*
X1327978Y8922440D01*
X1344905D01*
X1353369Y8930904D01*
Y8939368D01*
X1344905Y8947832D01*
X1353369Y8956296D01*
Y8964760D01*
X1344905Y8947832D02*
X1327978D01*
X885847Y8920896D02*
Y8971680D01*
X860455D01*
X851991Y8963216D01*
Y8946288D01*
X860455Y8937824D01*
X885847D01*
X868919D02*
X851991Y8920896D01*
X835063Y8971680D02*
X801207D01*
Y8963216D01*
X835063Y8929360D01*
Y8920896D01*
X715039Y8010549D02*
Y8061332D01*
X689648D01*
X681184Y8052868D01*
Y8035940D01*
X689648Y8027476D01*
X715039D01*
X698112D02*
X681184Y8010549D01*
X630400Y8061332D02*
X647328Y8052868D01*
X664256Y8035940D01*
Y8019013D01*
X655792Y8010549D01*
X638864D01*
X630400Y8019013D01*
Y8027476D01*
X638864Y8035940D01*
X664256D01*
X1731575Y9046751D02*
X1765430D01*
Y9021360D01*
X1748502D01*
X1765430D01*
Y8995968D01*
X1680791D02*
X1714647D01*
X1680791Y9029823D01*
Y9038287D01*
X1689255Y9046751D01*
X1706183D01*
X1714647Y9038287D01*
X1741021Y8707921D02*
X1690237D01*
Y8733313D01*
X1698701Y8741777D01*
X1732557D01*
X1741021Y8733313D01*
Y8707921D01*
Y8758704D02*
Y8792560D01*
X1732557D01*
X1698701Y8758704D01*
X1690237D01*
X1741075Y8576805D02*
Y8526022D01*
X1715683D01*
X1707219Y8534486D01*
Y8568341D01*
X1715683Y8576805D01*
X1741075D01*
X1656436D02*
X1673363Y8568341D01*
X1690291Y8551413D01*
Y8534486D01*
X1681827Y8526022D01*
X1664899D01*
X1656436Y8534486D01*
Y8542949D01*
X1664899Y8551413D01*
X1690291D01*
X1266708Y7700217D02*
Y7649433D01*
X1241317D01*
X1232853Y7657897D01*
Y7691753D01*
X1241317Y7700217D01*
X1266708D01*
X1182069D02*
X1215925D01*
Y7674825D01*
X1198997Y7683289D01*
X1190533D01*
X1182069Y7674825D01*
Y7657897D01*
X1190533Y7649433D01*
X1207461D01*
X1215925Y7657897D01*
X847124Y8055408D02*
X855588Y8063872D01*
X872515D01*
X880979Y8055408D01*
Y8021553D01*
X872515Y8013089D01*
X855588D01*
X847124Y8021553D01*
X830196Y8013089D02*
X813268D01*
X821732D01*
Y8063872D01*
X830196Y8055408D01*
X787876D02*
X779412Y8063872D01*
X762484D01*
X754021Y8055408D01*
Y8021553D01*
X762484Y8013089D01*
X779412D01*
X787876Y8021553D01*
Y8055408D01*
X704330Y8647264D02*
X712793Y8655728D01*
X729721D01*
X738185Y8647264D01*
Y8613409D01*
X729721Y8604945D01*
X712793D01*
X704330Y8613409D01*
X687402D02*
X678938Y8604945D01*
X662010D01*
X653546Y8613409D01*
Y8647264D01*
X662010Y8655728D01*
X678938D01*
X687402Y8647264D01*
Y8638800D01*
X678938Y8630337D01*
X653546D01*
X1126181Y8965800D02*
X1134645Y8974264D01*
X1151572D01*
X1160037Y8965800D01*
Y8931945D01*
X1151572Y8923481D01*
X1134645D01*
X1126181Y8931945D01*
X1109253Y8965800D02*
X1100789Y8974264D01*
X1083861D01*
X1075397Y8965800D01*
Y8957336D01*
X1083861Y8948873D01*
X1075397Y8940409D01*
Y8931945D01*
X1083861Y8923481D01*
X1100789D01*
X1109253Y8931945D01*
Y8940409D01*
X1100789Y8948873D01*
X1109253Y8957336D01*
Y8965800D01*
X1100789Y8948873D02*
X1083861D01*
X4215172Y7988210D02*
X4206708Y7996674D01*
X4189780D01*
X4181316Y7988210D01*
Y7979746D01*
X4189780Y7971283D01*
X4198244D01*
X4189780D01*
X4181316Y7962818D01*
Y7954355D01*
X4189780Y7945891D01*
X4206708D01*
X4215172Y7954355D01*
X4164388Y7979746D02*
X4147460Y7945891D01*
X4130533Y7979746D01*
X4113605Y7988210D02*
X4105141Y7996674D01*
X4088213D01*
X4079749Y7988210D01*
Y7979746D01*
X4088213Y7971283D01*
X4096677D01*
X4088213D01*
X4079749Y7962818D01*
Y7954355D01*
X4088213Y7945891D01*
X4105141D01*
X4113605Y7954355D01*
X4181982Y7731348D02*
X4190446Y7739812D01*
X4207374D01*
X4215838Y7731348D01*
Y7697492D01*
X4207374Y7689028D01*
X4190446D01*
X4181982Y7697492D01*
Y7714420D01*
X4198910D01*
X4165055Y7689028D02*
Y7739812D01*
X4131199Y7689028D01*
Y7739812D01*
X4114271D02*
Y7689028D01*
X4088879D01*
X4080416Y7697492D01*
Y7731348D01*
X4088879Y7739812D01*
X4114271D01*
X4216667Y8198074D02*
Y8248858D01*
X4191275D01*
X4182812Y8240394D01*
Y8223466D01*
X4191275Y8215002D01*
X4216667D01*
X4132028Y8240394D02*
X4140492Y8248858D01*
X4157420D01*
X4165884Y8240394D01*
Y8206538D01*
X4157420Y8198074D01*
X4140492D01*
X4132028Y8206538D01*
Y8223466D01*
X4148956D01*
X4115100Y8198074D02*
Y8248858D01*
X4098172Y8231930D01*
X4081245Y8248858D01*
Y8198074D01*
X3568703Y8651713D02*
Y8600929D01*
X3543311D01*
X3534847Y8609393D01*
Y8643249D01*
X3543311Y8651713D01*
X3568703D01*
X3517920Y8643249D02*
X3509456Y8651713D01*
X3492528D01*
X3484064Y8643249D01*
Y8634785D01*
X3492528Y8626321D01*
X3484064Y8617857D01*
Y8609393D01*
X3492528Y8600929D01*
X3509456D01*
X3517920Y8609393D01*
Y8617857D01*
X3509456Y8626321D01*
X3517920Y8634785D01*
Y8643249D01*
X3509456Y8626321D02*
X3492528D01*
X3885044Y7805714D02*
X3893508Y7814178D01*
X3910436D01*
X3918900Y7805714D01*
Y7771858D01*
X3910436Y7763394D01*
X3893508D01*
X3885044Y7771858D01*
X3834261Y7814178D02*
X3851188Y7805714D01*
X3868116Y7788786D01*
Y7771858D01*
X3859652Y7763394D01*
X3842724D01*
X3834261Y7771858D01*
Y7780322D01*
X3842724Y7788786D01*
X3868116D01*
X3885044Y7944530D02*
X3893508Y7952994D01*
X3910436D01*
X3918900Y7944530D01*
Y7910675D01*
X3910436Y7902211D01*
X3893508D01*
X3885044Y7910675D01*
X3868116Y7952994D02*
X3834261D01*
Y7944530D01*
X3868116Y7910675D01*
Y7902211D01*
X3941759Y8041028D02*
Y8091812D01*
X3916368D01*
X3907904Y8083348D01*
Y8066420D01*
X3916368Y8057956D01*
X3941759D01*
X3924832D02*
X3907904Y8041028D01*
X3890976D02*
X3874048D01*
X3882512D01*
Y8091812D01*
X3890976Y8083348D01*
X3848656D02*
X3840192Y8091812D01*
X3823264D01*
X3814801Y8083348D01*
Y8049492D01*
X3823264Y8041028D01*
X3840192D01*
X3848656Y8049492D01*
Y8083348D01*
X3921400Y7624578D02*
Y7675361D01*
X3896008D01*
X3887544Y7666897D01*
Y7649969D01*
X3896008Y7641505D01*
X3921400D01*
X3904472D02*
X3887544Y7624578D01*
X3870616Y7633042D02*
X3862152Y7624578D01*
X3845224D01*
X3836760Y7633042D01*
Y7666897D01*
X3845224Y7675361D01*
X3862152D01*
X3870616Y7666897D01*
Y7658433D01*
X3862152Y7649969D01*
X3836760D01*
X4212691Y9067172D02*
Y9024853D01*
X4204227Y9016389D01*
X4187299D01*
X4178836Y9024853D01*
Y9067172D01*
X4128052Y9058708D02*
X4136516Y9067172D01*
X4153444D01*
X4161908Y9058708D01*
Y9050244D01*
X4153444Y9041780D01*
X4136516D01*
X4128052Y9033316D01*
Y9024853D01*
X4136516Y9016389D01*
X4153444D01*
X4161908Y9024853D01*
X4111124Y9067172D02*
Y9016389D01*
X4085732D01*
X4077269Y9024853D01*
Y9033316D01*
X4085732Y9041780D01*
X4111124D01*
X4085732D01*
X4077269Y9050244D01*
Y9058708D01*
X4085732Y9067172D01*
X4111124D01*
X2904163Y7709629D02*
Y7667309D01*
X2895699Y7658845D01*
X2878771D01*
X2870308Y7667309D01*
Y7709629D01*
X2853380Y7658845D02*
X2836452D01*
X2844916D01*
Y7709629D01*
X2853380Y7701165D01*
X3304153Y8922440D02*
Y8973224D01*
X3278761D01*
X3270297Y8964760D01*
Y8947832D01*
X3278761Y8939368D01*
X3304153D01*
X3287225D02*
X3270297Y8922440D01*
X3253369Y8964760D02*
X3244905Y8973224D01*
X3227978D01*
X3219514Y8964760D01*
Y8956296D01*
X3227978Y8947832D01*
X3219514Y8939368D01*
Y8930904D01*
X3227978Y8922440D01*
X3244905D01*
X3253369Y8930904D01*
Y8939368D01*
X3244905Y8947832D01*
X3253369Y8956296D01*
Y8964760D01*
X3244905Y8947832D02*
X3227978D01*
X2785847Y8920896D02*
Y8971680D01*
X2760455D01*
X2751991Y8963216D01*
Y8946288D01*
X2760455Y8937824D01*
X2785847D01*
X2768919D02*
X2751991Y8920896D01*
X2735063Y8971680D02*
X2701207D01*
Y8963216D01*
X2735063Y8929360D01*
Y8920896D01*
X2615039Y8010549D02*
Y8061332D01*
X2589648D01*
X2581184Y8052868D01*
Y8035940D01*
X2589648Y8027476D01*
X2615039D01*
X2598112D02*
X2581184Y8010549D01*
X2530400Y8061332D02*
X2547328Y8052868D01*
X2564256Y8035940D01*
Y8019013D01*
X2555792Y8010549D01*
X2538864D01*
X2530400Y8019013D01*
Y8027476D01*
X2538864Y8035940D01*
X2564256D01*
X3631575Y9046751D02*
X3665430D01*
Y9021360D01*
X3648502D01*
X3665430D01*
Y8995968D01*
X3580791D02*
X3614647D01*
X3580791Y9029823D01*
Y9038287D01*
X3589255Y9046751D01*
X3606183D01*
X3614647Y9038287D01*
X3641021Y8707921D02*
X3590237D01*
Y8733313D01*
X3598701Y8741777D01*
X3632557D01*
X3641021Y8733313D01*
Y8707921D01*
Y8758704D02*
Y8792560D01*
X3632557D01*
X3598701Y8758704D01*
X3590237D01*
X3641075Y8576805D02*
Y8526022D01*
X3615683D01*
X3607219Y8534486D01*
Y8568341D01*
X3615683Y8576805D01*
X3641075D01*
X3556436D02*
X3573363Y8568341D01*
X3590291Y8551413D01*
Y8534486D01*
X3581827Y8526022D01*
X3564899D01*
X3556436Y8534486D01*
Y8542949D01*
X3564899Y8551413D01*
X3590291D01*
X3166708Y7700217D02*
Y7649433D01*
X3141317D01*
X3132853Y7657897D01*
Y7691753D01*
X3141317Y7700217D01*
X3166708D01*
X3082069D02*
X3115925D01*
Y7674825D01*
X3098997Y7683289D01*
X3090533D01*
X3082069Y7674825D01*
Y7657897D01*
X3090533Y7649433D01*
X3107461D01*
X3115925Y7657897D01*
X2747124Y8055408D02*
X2755588Y8063872D01*
X2772515D01*
X2780979Y8055408D01*
Y8021553D01*
X2772515Y8013089D01*
X2755588D01*
X2747124Y8021553D01*
X2730196Y8013089D02*
X2713268D01*
X2721732D01*
Y8063872D01*
X2730196Y8055408D01*
X2687876D02*
X2679412Y8063872D01*
X2662484D01*
X2654021Y8055408D01*
Y8021553D01*
X2662484Y8013089D01*
X2679412D01*
X2687876Y8021553D01*
Y8055408D01*
X2604330Y8647264D02*
X2612793Y8655728D01*
X2629721D01*
X2638185Y8647264D01*
Y8613409D01*
X2629721Y8604945D01*
X2612793D01*
X2604330Y8613409D01*
X2587402D02*
X2578938Y8604945D01*
X2562010D01*
X2553546Y8613409D01*
Y8647264D01*
X2562010Y8655728D01*
X2578938D01*
X2587402Y8647264D01*
Y8638800D01*
X2578938Y8630337D01*
X2553546D01*
X3026181Y8965800D02*
X3034645Y8974264D01*
X3051573D01*
X3060037Y8965800D01*
Y8931945D01*
X3051573Y8923481D01*
X3034645D01*
X3026181Y8931945D01*
X3009253Y8965800D02*
X3000789Y8974264D01*
X2983861D01*
X2975397Y8965800D01*
Y8957336D01*
X2983861Y8948873D01*
X2975397Y8940409D01*
Y8931945D01*
X2983861Y8923481D01*
X3000789D01*
X3009253Y8931945D01*
Y8940409D01*
X3000789Y8948873D01*
X3009253Y8957336D01*
Y8965800D01*
X3000789Y8948873D02*
X2983861D01*
%TF.MD5,b2a39163118688f665d3d561d5180853*%
M02*
