%TF.GenerationSoftware,Altium Limited,Altium Designer,20.1.8 (145)*%
G04 Layer_Physical_Order=1*
G04 Layer_Color=2232046*
%FSLAX45Y45*%
%MOMM*%
%TF.SameCoordinates,B3CF18BB-8163-4733-9D89-4CFBB204D872*%
%TF.FilePolarity,Positive*%
%TF.FileFunction,Copper,L1,Top,Signal*%
%TF.Part,CustomerPanel*%
G01*
G75*
%TA.AperFunction,ComponentPad*%
G04:AMPARAMS|DCode=10|XSize=2mm|YSize=3.25mm|CornerRadius=1mm|HoleSize=0mm|Usage=FLASHONLY|Rotation=180.000|XOffset=0mm|YOffset=0mm|HoleType=Round|Shape=RoundedRectangle|*
%AMROUNDEDRECTD10*
21,1,2.00000,1.25000,0,0,180.0*
21,1,0.00000,3.25000,0,0,180.0*
1,1,2.00000,0.00000,0.62500*
1,1,2.00000,0.00000,0.62500*
1,1,2.00000,0.00000,-0.62500*
1,1,2.00000,0.00000,-0.62500*
%
%ADD10ROUNDEDRECTD10*%
%ADD11O,2.00000X3.25000*%
%ADD12O,1.70000X1.00000*%
%ADD13O,2.00000X1.50000*%
G04:AMPARAMS|DCode=14|XSize=1.4mm|YSize=1.4mm|CornerRadius=0.7mm|HoleSize=0mm|Usage=FLASHONLY|Rotation=270.000|XOffset=0mm|YOffset=0mm|HoleType=Round|Shape=RoundedRectangle|*
%AMROUNDEDRECTD14*
21,1,1.40000,0.00000,0,0,270.0*
21,1,0.00000,1.40000,0,0,270.0*
1,1,1.40000,0.00000,0.00000*
1,1,1.40000,0.00000,0.00000*
1,1,1.40000,0.00000,0.00000*
1,1,1.40000,0.00000,0.00000*
%
%ADD14ROUNDEDRECTD14*%
%TA.AperFunction,ViaPad*%
%ADD15C,0.61000*%
G36*
X4283167Y7516834D02*
X2964374D01*
X2960172Y7526945D01*
X2959761Y7529534D01*
X2969787Y7542599D01*
X2976361Y7558469D01*
X2978603Y7575500D01*
X2976361Y7592531D01*
X2969787Y7608402D01*
X2959329Y7622030D01*
X2945701Y7632487D01*
X2929831Y7639061D01*
X2912800Y7641303D01*
X2842800D01*
X2825769Y7639061D01*
X2809899Y7632487D01*
X2796271Y7622030D01*
X2785813Y7608402D01*
X2779239Y7592531D01*
X2776997Y7575500D01*
X2779239Y7558469D01*
X2785813Y7542599D01*
X2795838Y7529534D01*
X2795428Y7526945D01*
X2791226Y7516834D01*
X2416833D01*
Y9083167D01*
X2789923D01*
X2793611Y9076696D01*
X2795071Y9070467D01*
X2785813Y9058402D01*
X2779239Y9042531D01*
X2776997Y9025500D01*
X2779239Y9008469D01*
X2785813Y8992599D01*
X2796271Y8978971D01*
X2809899Y8968513D01*
X2825769Y8961940D01*
X2842800Y8959698D01*
X2912800D01*
X2929831Y8961940D01*
X2945701Y8968513D01*
X2959329Y8978971D01*
X2969787Y8992599D01*
X2976361Y9008469D01*
X2978603Y9025500D01*
X2976361Y9042531D01*
X2969787Y9058402D01*
X2960529Y9070467D01*
X2961989Y9076696D01*
X2965677Y9083167D01*
X3289923D01*
X3293611Y9076696D01*
X3295071Y9070467D01*
X3285813Y9058402D01*
X3279239Y9042531D01*
X3276997Y9025500D01*
X3279239Y9008469D01*
X3285813Y8992599D01*
X3296271Y8978971D01*
X3309899Y8968513D01*
X3325769Y8961940D01*
X3342800Y8959698D01*
X3412800D01*
X3429831Y8961940D01*
X3445701Y8968513D01*
X3459329Y8978971D01*
X3469787Y8992599D01*
X3476361Y9008469D01*
X3478603Y9025500D01*
X3476361Y9042531D01*
X3469787Y9058402D01*
X3460529Y9070467D01*
X3461989Y9076696D01*
X3465677Y9083167D01*
X4283167D01*
Y7516834D01*
D02*
G37*
G36*
X2383167D02*
X1064374D01*
X1060172Y7526945D01*
X1059761Y7529534D01*
X1069787Y7542599D01*
X1076361Y7558469D01*
X1078603Y7575500D01*
X1076361Y7592531D01*
X1069787Y7608402D01*
X1059329Y7622030D01*
X1045701Y7632487D01*
X1029831Y7639061D01*
X1012800Y7641303D01*
X942800D01*
X925769Y7639061D01*
X909899Y7632487D01*
X896270Y7622030D01*
X885813Y7608402D01*
X879239Y7592531D01*
X876997Y7575500D01*
X879239Y7558469D01*
X885813Y7542599D01*
X895838Y7529534D01*
X895428Y7526945D01*
X891226Y7516834D01*
X516833D01*
Y9083167D01*
X889923D01*
X893611Y9076696D01*
X895071Y9070467D01*
X885813Y9058402D01*
X879239Y9042531D01*
X876997Y9025500D01*
X879239Y9008469D01*
X885813Y8992599D01*
X896270Y8978971D01*
X909899Y8968513D01*
X925769Y8961940D01*
X942800Y8959698D01*
X1012800D01*
X1029831Y8961940D01*
X1045701Y8968513D01*
X1059329Y8978971D01*
X1069787Y8992599D01*
X1076361Y9008469D01*
X1078603Y9025500D01*
X1076361Y9042531D01*
X1069787Y9058402D01*
X1060529Y9070467D01*
X1061989Y9076696D01*
X1065677Y9083167D01*
X1389923D01*
X1393611Y9076696D01*
X1395071Y9070467D01*
X1385813Y9058402D01*
X1379239Y9042531D01*
X1376997Y9025500D01*
X1379239Y9008469D01*
X1385813Y8992599D01*
X1396271Y8978971D01*
X1409899Y8968513D01*
X1425769Y8961940D01*
X1442800Y8959698D01*
X1512800D01*
X1529831Y8961940D01*
X1545701Y8968513D01*
X1559329Y8978971D01*
X1569787Y8992599D01*
X1576361Y9008469D01*
X1578603Y9025500D01*
X1576361Y9042531D01*
X1569787Y9058402D01*
X1560529Y9070467D01*
X1561989Y9076696D01*
X1565677Y9083167D01*
X2383167D01*
Y7516834D01*
D02*
G37*
G36*
X4283167Y5816833D02*
X2964374D01*
X2960172Y5826945D01*
X2959761Y5829533D01*
X2969787Y5842599D01*
X2976361Y5858469D01*
X2978603Y5875500D01*
X2976361Y5892531D01*
X2969787Y5908401D01*
X2959329Y5922030D01*
X2945701Y5932487D01*
X2929831Y5939061D01*
X2912800Y5941303D01*
X2842800D01*
X2825769Y5939061D01*
X2809899Y5932487D01*
X2796271Y5922030D01*
X2785813Y5908401D01*
X2779239Y5892531D01*
X2776997Y5875500D01*
X2779239Y5858469D01*
X2785813Y5842599D01*
X2795838Y5829533D01*
X2795428Y5826945D01*
X2791226Y5816833D01*
X2416833D01*
Y7383167D01*
X2789923D01*
X2793611Y7376695D01*
X2795071Y7370467D01*
X2785813Y7358402D01*
X2779239Y7342531D01*
X2776997Y7325500D01*
X2779239Y7308469D01*
X2785813Y7292599D01*
X2796271Y7278971D01*
X2809899Y7268513D01*
X2825769Y7261940D01*
X2842800Y7259697D01*
X2912800D01*
X2929831Y7261940D01*
X2945701Y7268513D01*
X2959329Y7278971D01*
X2969787Y7292599D01*
X2976361Y7308469D01*
X2978603Y7325500D01*
X2976361Y7342531D01*
X2969787Y7358402D01*
X2960529Y7370467D01*
X2961989Y7376695D01*
X2965677Y7383167D01*
X3289923D01*
X3293611Y7376695D01*
X3295071Y7370467D01*
X3285813Y7358402D01*
X3279239Y7342531D01*
X3276997Y7325500D01*
X3279239Y7308469D01*
X3285813Y7292599D01*
X3296271Y7278971D01*
X3309899Y7268513D01*
X3325769Y7261940D01*
X3342800Y7259697D01*
X3412800D01*
X3429831Y7261940D01*
X3445701Y7268513D01*
X3459329Y7278971D01*
X3469787Y7292599D01*
X3476361Y7308469D01*
X3478603Y7325500D01*
X3476361Y7342531D01*
X3469787Y7358402D01*
X3460529Y7370467D01*
X3461989Y7376695D01*
X3465677Y7383167D01*
X4283167D01*
Y5816833D01*
D02*
G37*
G36*
X2383167D02*
X1064374D01*
X1060172Y5826945D01*
X1059761Y5829533D01*
X1069787Y5842599D01*
X1076361Y5858469D01*
X1078603Y5875500D01*
X1076361Y5892531D01*
X1069787Y5908401D01*
X1059329Y5922030D01*
X1045701Y5932487D01*
X1029831Y5939061D01*
X1012800Y5941303D01*
X942800D01*
X925769Y5939061D01*
X909899Y5932487D01*
X896270Y5922030D01*
X885813Y5908401D01*
X879239Y5892531D01*
X876997Y5875500D01*
X879239Y5858469D01*
X885813Y5842599D01*
X895838Y5829533D01*
X895428Y5826945D01*
X891226Y5816833D01*
X516833D01*
Y7383167D01*
X889923D01*
X893611Y7376695D01*
X895071Y7370467D01*
X885813Y7358402D01*
X879239Y7342531D01*
X876997Y7325500D01*
X879239Y7308469D01*
X885813Y7292599D01*
X896270Y7278971D01*
X909899Y7268513D01*
X925769Y7261940D01*
X942800Y7259697D01*
X1012800D01*
X1029831Y7261940D01*
X1045701Y7268513D01*
X1059329Y7278971D01*
X1069787Y7292599D01*
X1076361Y7308469D01*
X1078603Y7325500D01*
X1076361Y7342531D01*
X1069787Y7358402D01*
X1060529Y7370467D01*
X1061989Y7376695D01*
X1065677Y7383167D01*
X1389923D01*
X1393611Y7376695D01*
X1395071Y7370467D01*
X1385813Y7358402D01*
X1379239Y7342531D01*
X1376997Y7325500D01*
X1379239Y7308469D01*
X1385813Y7292599D01*
X1396271Y7278971D01*
X1409899Y7268513D01*
X1425769Y7261940D01*
X1442800Y7259697D01*
X1512800D01*
X1529831Y7261940D01*
X1545701Y7268513D01*
X1559329Y7278971D01*
X1569787Y7292599D01*
X1576361Y7308469D01*
X1578603Y7325500D01*
X1576361Y7342531D01*
X1569787Y7358402D01*
X1560529Y7370467D01*
X1561989Y7376695D01*
X1565677Y7383167D01*
X2383167D01*
Y5816833D01*
D02*
G37*
G36*
X4283167Y4116833D02*
X2964374D01*
X2960172Y4126945D01*
X2959761Y4129533D01*
X2969787Y4142599D01*
X2976361Y4158469D01*
X2978603Y4175500D01*
X2976361Y4192531D01*
X2969787Y4208401D01*
X2959329Y4222029D01*
X2945701Y4232487D01*
X2929831Y4239061D01*
X2912800Y4241303D01*
X2842800D01*
X2825769Y4239061D01*
X2809899Y4232487D01*
X2796271Y4222029D01*
X2785813Y4208401D01*
X2779239Y4192531D01*
X2776997Y4175500D01*
X2779239Y4158469D01*
X2785813Y4142599D01*
X2795838Y4129533D01*
X2795428Y4126945D01*
X2791226Y4116833D01*
X2416833D01*
Y5683167D01*
X2789923D01*
X2793611Y5676695D01*
X2795071Y5670467D01*
X2785813Y5658401D01*
X2779239Y5642531D01*
X2776997Y5625500D01*
X2779239Y5608469D01*
X2785813Y5592599D01*
X2796271Y5578971D01*
X2809899Y5568513D01*
X2825769Y5561939D01*
X2842800Y5559697D01*
X2912800D01*
X2929831Y5561939D01*
X2945701Y5568513D01*
X2959329Y5578971D01*
X2969787Y5592599D01*
X2976361Y5608469D01*
X2978603Y5625500D01*
X2976361Y5642531D01*
X2969787Y5658401D01*
X2960529Y5670467D01*
X2961989Y5676695D01*
X2965677Y5683167D01*
X3289923D01*
X3293611Y5676695D01*
X3295071Y5670467D01*
X3285813Y5658401D01*
X3279239Y5642531D01*
X3276997Y5625500D01*
X3279239Y5608469D01*
X3285813Y5592599D01*
X3296271Y5578971D01*
X3309899Y5568513D01*
X3325769Y5561939D01*
X3342800Y5559697D01*
X3412800D01*
X3429831Y5561939D01*
X3445701Y5568513D01*
X3459329Y5578971D01*
X3469787Y5592599D01*
X3476361Y5608469D01*
X3478603Y5625500D01*
X3476361Y5642531D01*
X3469787Y5658401D01*
X3460529Y5670467D01*
X3461989Y5676695D01*
X3465677Y5683167D01*
X4283167D01*
Y4116833D01*
D02*
G37*
G36*
X2383167D02*
X1064374D01*
X1060172Y4126945D01*
X1059761Y4129533D01*
X1069787Y4142599D01*
X1076361Y4158469D01*
X1078603Y4175500D01*
X1076361Y4192531D01*
X1069787Y4208401D01*
X1059329Y4222029D01*
X1045701Y4232487D01*
X1029831Y4239061D01*
X1012800Y4241303D01*
X942800D01*
X925769Y4239061D01*
X909899Y4232487D01*
X896270Y4222029D01*
X885813Y4208401D01*
X879239Y4192531D01*
X876997Y4175500D01*
X879239Y4158469D01*
X885813Y4142599D01*
X895838Y4129533D01*
X895428Y4126945D01*
X891226Y4116833D01*
X516833D01*
Y5683167D01*
X889923D01*
X893611Y5676695D01*
X895071Y5670467D01*
X885813Y5658401D01*
X879239Y5642531D01*
X876997Y5625500D01*
X879239Y5608469D01*
X885813Y5592599D01*
X896270Y5578971D01*
X909899Y5568513D01*
X925769Y5561939D01*
X942800Y5559697D01*
X1012800D01*
X1029831Y5561939D01*
X1045701Y5568513D01*
X1059329Y5578971D01*
X1069787Y5592599D01*
X1076361Y5608469D01*
X1078603Y5625500D01*
X1076361Y5642531D01*
X1069787Y5658401D01*
X1060529Y5670467D01*
X1061989Y5676695D01*
X1065677Y5683167D01*
X1389923D01*
X1393611Y5676695D01*
X1395071Y5670467D01*
X1385813Y5658401D01*
X1379239Y5642531D01*
X1376997Y5625500D01*
X1379239Y5608469D01*
X1385813Y5592599D01*
X1396271Y5578971D01*
X1409899Y5568513D01*
X1425769Y5561939D01*
X1442800Y5559697D01*
X1512800D01*
X1529831Y5561939D01*
X1545701Y5568513D01*
X1559329Y5578971D01*
X1569787Y5592599D01*
X1576361Y5608469D01*
X1578603Y5625500D01*
X1576361Y5642531D01*
X1569787Y5658401D01*
X1560529Y5670467D01*
X1561989Y5676695D01*
X1565677Y5683167D01*
X2383167D01*
Y4116833D01*
D02*
G37*
G36*
X4283167Y2416833D02*
X2964374D01*
X2960172Y2426944D01*
X2959761Y2429533D01*
X2969787Y2442598D01*
X2976361Y2458469D01*
X2978603Y2475500D01*
X2976361Y2492531D01*
X2969787Y2508401D01*
X2959329Y2522029D01*
X2945701Y2532487D01*
X2929831Y2539060D01*
X2912800Y2541303D01*
X2842800D01*
X2825769Y2539060D01*
X2809899Y2532487D01*
X2796271Y2522029D01*
X2785813Y2508401D01*
X2779239Y2492531D01*
X2776997Y2475500D01*
X2779239Y2458469D01*
X2785813Y2442598D01*
X2795838Y2429533D01*
X2795428Y2426944D01*
X2791226Y2416833D01*
X2416833D01*
Y3983167D01*
X2789923D01*
X2793611Y3976695D01*
X2795071Y3970467D01*
X2785813Y3958401D01*
X2779239Y3942531D01*
X2776997Y3925500D01*
X2779239Y3908469D01*
X2785813Y3892599D01*
X2796271Y3878970D01*
X2809899Y3868513D01*
X2825769Y3861939D01*
X2842800Y3859697D01*
X2912800D01*
X2929831Y3861939D01*
X2945701Y3868513D01*
X2959329Y3878970D01*
X2969787Y3892599D01*
X2976361Y3908469D01*
X2978603Y3925500D01*
X2976361Y3942531D01*
X2969787Y3958401D01*
X2960529Y3970467D01*
X2961989Y3976695D01*
X2965677Y3983167D01*
X3289923D01*
X3293611Y3976695D01*
X3295071Y3970467D01*
X3285813Y3958401D01*
X3279239Y3942531D01*
X3276997Y3925500D01*
X3279239Y3908469D01*
X3285813Y3892599D01*
X3296271Y3878970D01*
X3309899Y3868513D01*
X3325769Y3861939D01*
X3342800Y3859697D01*
X3412800D01*
X3429831Y3861939D01*
X3445701Y3868513D01*
X3459329Y3878970D01*
X3469787Y3892599D01*
X3476361Y3908469D01*
X3478603Y3925500D01*
X3476361Y3942531D01*
X3469787Y3958401D01*
X3460529Y3970467D01*
X3461989Y3976695D01*
X3465677Y3983167D01*
X4283167D01*
Y2416833D01*
D02*
G37*
G36*
X2383167D02*
X1064374D01*
X1060172Y2426944D01*
X1059761Y2429533D01*
X1069787Y2442598D01*
X1076361Y2458469D01*
X1078603Y2475500D01*
X1076361Y2492531D01*
X1069787Y2508401D01*
X1059329Y2522029D01*
X1045701Y2532487D01*
X1029831Y2539060D01*
X1012800Y2541303D01*
X942800D01*
X925769Y2539060D01*
X909899Y2532487D01*
X896270Y2522029D01*
X885813Y2508401D01*
X879239Y2492531D01*
X876997Y2475500D01*
X879239Y2458469D01*
X885813Y2442598D01*
X895838Y2429533D01*
X895428Y2426944D01*
X891226Y2416833D01*
X516833D01*
Y3983167D01*
X889923D01*
X893611Y3976695D01*
X895071Y3970467D01*
X885813Y3958401D01*
X879239Y3942531D01*
X876997Y3925500D01*
X879239Y3908469D01*
X885813Y3892599D01*
X896270Y3878970D01*
X909899Y3868513D01*
X925769Y3861939D01*
X942800Y3859697D01*
X1012800D01*
X1029831Y3861939D01*
X1045701Y3868513D01*
X1059329Y3878970D01*
X1069787Y3892599D01*
X1076361Y3908469D01*
X1078603Y3925500D01*
X1076361Y3942531D01*
X1069787Y3958401D01*
X1060529Y3970467D01*
X1061989Y3976695D01*
X1065677Y3983167D01*
X1389923D01*
X1393611Y3976695D01*
X1395071Y3970467D01*
X1385813Y3958401D01*
X1379239Y3942531D01*
X1376997Y3925500D01*
X1379239Y3908469D01*
X1385813Y3892599D01*
X1396271Y3878970D01*
X1409899Y3868513D01*
X1425769Y3861939D01*
X1442800Y3859697D01*
X1512800D01*
X1529831Y3861939D01*
X1545701Y3868513D01*
X1559329Y3878970D01*
X1569787Y3892599D01*
X1576361Y3908469D01*
X1578603Y3925500D01*
X1576361Y3942531D01*
X1569787Y3958401D01*
X1560529Y3970467D01*
X1561989Y3976695D01*
X1565677Y3983167D01*
X2383167D01*
Y2416833D01*
D02*
G37*
G36*
X4283167Y716833D02*
X2964374D01*
X2960172Y726944D01*
X2959761Y729533D01*
X2969787Y742598D01*
X2976361Y758469D01*
X2978603Y775500D01*
X2976361Y792531D01*
X2969787Y808401D01*
X2959329Y822029D01*
X2945701Y832487D01*
X2929831Y839060D01*
X2912800Y841302D01*
X2842800D01*
X2825769Y839060D01*
X2809899Y832487D01*
X2796271Y822029D01*
X2785813Y808401D01*
X2779239Y792531D01*
X2776997Y775500D01*
X2779239Y758469D01*
X2785813Y742598D01*
X2795838Y729533D01*
X2795428Y726944D01*
X2791226Y716833D01*
X2416833D01*
Y2283166D01*
X2789923D01*
X2793611Y2276695D01*
X2795071Y2270466D01*
X2785813Y2258401D01*
X2779239Y2242531D01*
X2776997Y2225500D01*
X2779239Y2208469D01*
X2785813Y2192598D01*
X2796271Y2178970D01*
X2809899Y2168513D01*
X2825769Y2161939D01*
X2842800Y2159697D01*
X2912800D01*
X2929831Y2161939D01*
X2945701Y2168513D01*
X2959329Y2178970D01*
X2969787Y2192598D01*
X2976361Y2208469D01*
X2978603Y2225500D01*
X2976361Y2242531D01*
X2969787Y2258401D01*
X2960529Y2270466D01*
X2961989Y2276695D01*
X2965677Y2283166D01*
X3289923D01*
X3293611Y2276695D01*
X3295071Y2270466D01*
X3285813Y2258401D01*
X3279239Y2242531D01*
X3276997Y2225500D01*
X3279239Y2208469D01*
X3285813Y2192598D01*
X3296271Y2178970D01*
X3309899Y2168513D01*
X3325769Y2161939D01*
X3342800Y2159697D01*
X3412800D01*
X3429831Y2161939D01*
X3445701Y2168513D01*
X3459329Y2178970D01*
X3469787Y2192598D01*
X3476361Y2208469D01*
X3478603Y2225500D01*
X3476361Y2242531D01*
X3469787Y2258401D01*
X3460529Y2270466D01*
X3461989Y2276695D01*
X3465677Y2283166D01*
X4283167D01*
Y716833D01*
D02*
G37*
G36*
X2383167D02*
X1064374D01*
X1060172Y726944D01*
X1059761Y729533D01*
X1069787Y742598D01*
X1076361Y758469D01*
X1078603Y775500D01*
X1076361Y792531D01*
X1069787Y808401D01*
X1059329Y822029D01*
X1045701Y832487D01*
X1029831Y839060D01*
X1012800Y841302D01*
X942800D01*
X925769Y839060D01*
X909899Y832487D01*
X896270Y822029D01*
X885813Y808401D01*
X879239Y792531D01*
X876997Y775500D01*
X879239Y758469D01*
X885813Y742598D01*
X895838Y729533D01*
X895428Y726944D01*
X891226Y716833D01*
X516833D01*
Y2283166D01*
X889923D01*
X893611Y2276695D01*
X895071Y2270466D01*
X885813Y2258401D01*
X879239Y2242531D01*
X876997Y2225500D01*
X879239Y2208469D01*
X885813Y2192598D01*
X896270Y2178970D01*
X909899Y2168513D01*
X925769Y2161939D01*
X942800Y2159697D01*
X1012800D01*
X1029831Y2161939D01*
X1045701Y2168513D01*
X1059329Y2178970D01*
X1069787Y2192598D01*
X1076361Y2208469D01*
X1078603Y2225500D01*
X1076361Y2242531D01*
X1069787Y2258401D01*
X1060529Y2270466D01*
X1061989Y2276695D01*
X1065677Y2283166D01*
X1389923D01*
X1393611Y2276695D01*
X1395071Y2270466D01*
X1385813Y2258401D01*
X1379239Y2242531D01*
X1376997Y2225500D01*
X1379239Y2208469D01*
X1385813Y2192598D01*
X1396271Y2178970D01*
X1409899Y2168513D01*
X1425769Y2161939D01*
X1442800Y2159697D01*
X1512800D01*
X1529831Y2161939D01*
X1545701Y2168513D01*
X1559329Y2178970D01*
X1569787Y2192598D01*
X1576361Y2208469D01*
X1578603Y2225500D01*
X1576361Y2242531D01*
X1569787Y2258401D01*
X1560529Y2270466D01*
X1561989Y2276695D01*
X1565677Y2283166D01*
X2383167D01*
Y716833D01*
D02*
G37*
%LPC*%
G36*
X4173800Y9006019D02*
X4123800D01*
X4100243Y9002917D01*
X4078291Y8993825D01*
X4059440Y8979360D01*
X4044976Y8960510D01*
X4035883Y8938557D01*
X4032781Y8915000D01*
X4035883Y8891443D01*
X4044976Y8869491D01*
X4059440Y8850640D01*
X4078291Y8836176D01*
X4100243Y8827083D01*
X4123800Y8823982D01*
X4173800D01*
X4197358Y8827083D01*
X4219310Y8836176D01*
X4238160Y8850640D01*
X4252625Y8869491D01*
X4261718Y8891443D01*
X4264819Y8915000D01*
X4261718Y8938557D01*
X4252625Y8960510D01*
X4238160Y8979360D01*
X4219310Y8993825D01*
X4197358Y9002917D01*
X4173800Y9006019D01*
D02*
G37*
G36*
X3913800Y8873029D02*
X3898099Y8869906D01*
X3884789Y8861012D01*
X3875895Y8847701D01*
X3872772Y8832000D01*
X3875895Y8816300D01*
X3884789Y8802989D01*
X3898099Y8794095D01*
X3913800Y8790972D01*
X3929501Y8794095D01*
X3942812Y8802989D01*
X3951705Y8816300D01*
X3954829Y8832000D01*
X3951705Y8847701D01*
X3942812Y8861012D01*
X3929501Y8869906D01*
X3913800Y8873029D01*
D02*
G37*
G36*
Y8473029D02*
X3898099Y8469905D01*
X3884789Y8461012D01*
X3875895Y8447701D01*
X3872772Y8432000D01*
X3875895Y8416299D01*
X3884789Y8402989D01*
X3898099Y8394095D01*
X3913800Y8390972D01*
X3929501Y8394095D01*
X3942812Y8402989D01*
X3951705Y8416299D01*
X3954829Y8432000D01*
X3951705Y8447701D01*
X3942812Y8461012D01*
X3929501Y8469905D01*
X3913800Y8473029D01*
D02*
G37*
G36*
X4173800Y8440019D02*
X4123800D01*
X4100243Y8436918D01*
X4078291Y8427825D01*
X4059440Y8413360D01*
X4044976Y8394510D01*
X4035883Y8372558D01*
X4032781Y8349000D01*
X4035883Y8325443D01*
X4044976Y8303491D01*
X4059440Y8284641D01*
X4078291Y8270176D01*
X4100243Y8261083D01*
X4123800Y8257982D01*
X4173800D01*
X4197358Y8261083D01*
X4219310Y8270176D01*
X4238160Y8284641D01*
X4252625Y8303491D01*
X4261718Y8325443D01*
X4264819Y8349000D01*
X4261718Y8372558D01*
X4252625Y8394510D01*
X4238160Y8413360D01*
X4219310Y8427825D01*
X4197358Y8436918D01*
X4173800Y8440019D01*
D02*
G37*
G36*
X3665300Y8479235D02*
X3635216Y8475274D01*
X3607183Y8463662D01*
X3583110Y8445190D01*
X3564638Y8421118D01*
X3553026Y8393084D01*
X3549066Y8363000D01*
Y8238000D01*
X3553026Y8207917D01*
X3564638Y8179883D01*
X3583110Y8155810D01*
X3607183Y8137338D01*
X3635216Y8125726D01*
X3665300Y8121766D01*
X3695384Y8125726D01*
X3723417Y8137338D01*
X3747490Y8155810D01*
X3765962Y8179883D01*
X3777574Y8207917D01*
X3781534Y8238000D01*
Y8363000D01*
X3777574Y8393084D01*
X3765962Y8421118D01*
X3747490Y8445190D01*
X3723417Y8463662D01*
X3695384Y8475274D01*
X3665300Y8479235D01*
D02*
G37*
G36*
X2590300D02*
X2560216Y8475274D01*
X2532183Y8463662D01*
X2508110Y8445190D01*
X2489638Y8421118D01*
X2478026Y8393084D01*
X2474065Y8363000D01*
Y8238000D01*
X2478026Y8207917D01*
X2489638Y8179883D01*
X2508110Y8155810D01*
X2532183Y8137338D01*
X2560216Y8125726D01*
X2590300Y8121766D01*
X2620384Y8125726D01*
X2648417Y8137338D01*
X2672490Y8155810D01*
X2690962Y8179883D01*
X2702574Y8207917D01*
X2706534Y8238000D01*
Y8363000D01*
X2702574Y8393084D01*
X2690962Y8421118D01*
X2672490Y8445190D01*
X2648417Y8463662D01*
X2620384Y8475274D01*
X2590300Y8479235D01*
D02*
G37*
G36*
X4148800Y8200656D02*
X4126548Y8197726D01*
X4105812Y8189137D01*
X4088006Y8175474D01*
X4074343Y8157668D01*
X4065754Y8136932D01*
X4062825Y8114680D01*
X4065754Y8092428D01*
X4074343Y8071693D01*
X4088006Y8053886D01*
X4105812Y8040223D01*
X4126548Y8031634D01*
X4148800Y8028705D01*
X4171052Y8031634D01*
X4191788Y8040223D01*
X4209594Y8053886D01*
X4223257Y8071693D01*
X4231846Y8092428D01*
X4234776Y8114680D01*
X4231846Y8136932D01*
X4223257Y8157668D01*
X4209594Y8175474D01*
X4191788Y8189137D01*
X4171052Y8197726D01*
X4148800Y8200656D01*
D02*
G37*
G36*
Y7946656D02*
X4126548Y7943726D01*
X4105812Y7935137D01*
X4088006Y7921474D01*
X4074343Y7903668D01*
X4065754Y7882932D01*
X4062825Y7860680D01*
X4065754Y7838428D01*
X4074343Y7817693D01*
X4088006Y7799886D01*
X4105812Y7786223D01*
X4126548Y7777634D01*
X4148800Y7774705D01*
X4171052Y7777634D01*
X4191788Y7786223D01*
X4209594Y7799886D01*
X4223257Y7817693D01*
X4231846Y7838428D01*
X4234776Y7860680D01*
X4231846Y7882932D01*
X4223257Y7903668D01*
X4209594Y7921474D01*
X4191788Y7935137D01*
X4171052Y7943726D01*
X4148800Y7946656D01*
D02*
G37*
G36*
X2273800Y9006019D02*
X2223800D01*
X2200243Y9002917D01*
X2178291Y8993825D01*
X2159440Y8979360D01*
X2144976Y8960510D01*
X2135883Y8938557D01*
X2132781Y8915000D01*
X2135883Y8891443D01*
X2144976Y8869491D01*
X2159440Y8850640D01*
X2178291Y8836176D01*
X2200243Y8827083D01*
X2223800Y8823982D01*
X2273800D01*
X2297358Y8827083D01*
X2319310Y8836176D01*
X2338160Y8850640D01*
X2352625Y8869491D01*
X2361718Y8891443D01*
X2364819Y8915000D01*
X2361718Y8938557D01*
X2352625Y8960510D01*
X2338160Y8979360D01*
X2319310Y8993825D01*
X2297358Y9002917D01*
X2273800Y9006019D01*
D02*
G37*
G36*
X2013800Y8873029D02*
X1998099Y8869906D01*
X1984789Y8861012D01*
X1975895Y8847701D01*
X1972772Y8832000D01*
X1975895Y8816300D01*
X1984789Y8802989D01*
X1998099Y8794095D01*
X2013800Y8790972D01*
X2029501Y8794095D01*
X2042812Y8802989D01*
X2051705Y8816300D01*
X2054829Y8832000D01*
X2051705Y8847701D01*
X2042812Y8861012D01*
X2029501Y8869906D01*
X2013800Y8873029D01*
D02*
G37*
G36*
Y8473029D02*
X1998099Y8469905D01*
X1984789Y8461012D01*
X1975895Y8447701D01*
X1972772Y8432000D01*
X1975895Y8416299D01*
X1984789Y8402989D01*
X1998099Y8394095D01*
X2013800Y8390972D01*
X2029501Y8394095D01*
X2042812Y8402989D01*
X2051705Y8416299D01*
X2054829Y8432000D01*
X2051705Y8447701D01*
X2042812Y8461012D01*
X2029501Y8469905D01*
X2013800Y8473029D01*
D02*
G37*
G36*
X2273800Y8440019D02*
X2223800D01*
X2200243Y8436918D01*
X2178291Y8427825D01*
X2159440Y8413360D01*
X2144976Y8394510D01*
X2135883Y8372558D01*
X2132781Y8349000D01*
X2135883Y8325443D01*
X2144976Y8303491D01*
X2159440Y8284641D01*
X2178291Y8270176D01*
X2200243Y8261083D01*
X2223800Y8257982D01*
X2273800D01*
X2297358Y8261083D01*
X2319310Y8270176D01*
X2338160Y8284641D01*
X2352625Y8303491D01*
X2361718Y8325443D01*
X2364819Y8349000D01*
X2361718Y8372558D01*
X2352625Y8394510D01*
X2338160Y8413360D01*
X2319310Y8427825D01*
X2297358Y8436918D01*
X2273800Y8440019D01*
D02*
G37*
G36*
X1765300Y8479235D02*
X1735216Y8475274D01*
X1707183Y8463662D01*
X1683110Y8445190D01*
X1664638Y8421118D01*
X1653026Y8393084D01*
X1649066Y8363000D01*
Y8238000D01*
X1653026Y8207917D01*
X1664638Y8179883D01*
X1683110Y8155810D01*
X1707183Y8137338D01*
X1735216Y8125726D01*
X1765300Y8121766D01*
X1795384Y8125726D01*
X1823417Y8137338D01*
X1847490Y8155810D01*
X1865962Y8179883D01*
X1877574Y8207917D01*
X1881534Y8238000D01*
Y8363000D01*
X1877574Y8393084D01*
X1865962Y8421118D01*
X1847490Y8445190D01*
X1823417Y8463662D01*
X1795384Y8475274D01*
X1765300Y8479235D01*
D02*
G37*
G36*
X690300D02*
X660216Y8475274D01*
X632183Y8463662D01*
X608110Y8445190D01*
X589638Y8421118D01*
X578026Y8393084D01*
X574065Y8363000D01*
Y8238000D01*
X578026Y8207917D01*
X589638Y8179883D01*
X608110Y8155810D01*
X632183Y8137338D01*
X660216Y8125726D01*
X690300Y8121766D01*
X720384Y8125726D01*
X748417Y8137338D01*
X772490Y8155810D01*
X790962Y8179883D01*
X802574Y8207917D01*
X806534Y8238000D01*
Y8363000D01*
X802574Y8393084D01*
X790962Y8421118D01*
X772490Y8445190D01*
X748417Y8463662D01*
X720384Y8475274D01*
X690300Y8479235D01*
D02*
G37*
G36*
X2248800Y8200656D02*
X2226548Y8197726D01*
X2205812Y8189137D01*
X2188006Y8175474D01*
X2174343Y8157668D01*
X2165754Y8136932D01*
X2162825Y8114680D01*
X2165754Y8092428D01*
X2174343Y8071693D01*
X2188006Y8053886D01*
X2205812Y8040223D01*
X2226548Y8031634D01*
X2248800Y8028705D01*
X2271052Y8031634D01*
X2291788Y8040223D01*
X2309594Y8053886D01*
X2323257Y8071693D01*
X2331846Y8092428D01*
X2334776Y8114680D01*
X2331846Y8136932D01*
X2323257Y8157668D01*
X2309594Y8175474D01*
X2291788Y8189137D01*
X2271052Y8197726D01*
X2248800Y8200656D01*
D02*
G37*
G36*
Y7946656D02*
X2226548Y7943726D01*
X2205812Y7935137D01*
X2188006Y7921474D01*
X2174343Y7903668D01*
X2165754Y7882932D01*
X2162825Y7860680D01*
X2165754Y7838428D01*
X2174343Y7817693D01*
X2188006Y7799886D01*
X2205812Y7786223D01*
X2226548Y7777634D01*
X2248800Y7774705D01*
X2271052Y7777634D01*
X2291788Y7786223D01*
X2309594Y7799886D01*
X2323257Y7817693D01*
X2331846Y7838428D01*
X2334776Y7860680D01*
X2331846Y7882932D01*
X2323257Y7903668D01*
X2309594Y7921474D01*
X2291788Y7935137D01*
X2271052Y7943726D01*
X2248800Y7946656D01*
D02*
G37*
G36*
X4173800Y7306019D02*
X4123800D01*
X4100243Y7302917D01*
X4078291Y7293824D01*
X4059440Y7279360D01*
X4044976Y7260509D01*
X4035883Y7238557D01*
X4032781Y7215000D01*
X4035883Y7191443D01*
X4044976Y7169491D01*
X4059440Y7150640D01*
X4078291Y7136176D01*
X4100243Y7127083D01*
X4123800Y7123981D01*
X4173800D01*
X4197358Y7127083D01*
X4219310Y7136176D01*
X4238160Y7150640D01*
X4252625Y7169491D01*
X4261718Y7191443D01*
X4264819Y7215000D01*
X4261718Y7238557D01*
X4252625Y7260509D01*
X4238160Y7279360D01*
X4219310Y7293824D01*
X4197358Y7302917D01*
X4173800Y7306019D01*
D02*
G37*
G36*
X3913800Y7173029D02*
X3898099Y7169905D01*
X3884789Y7161012D01*
X3875895Y7147701D01*
X3872772Y7132000D01*
X3875895Y7116299D01*
X3884789Y7102989D01*
X3898099Y7094095D01*
X3913800Y7090972D01*
X3929501Y7094095D01*
X3942812Y7102989D01*
X3951705Y7116299D01*
X3954829Y7132000D01*
X3951705Y7147701D01*
X3942812Y7161012D01*
X3929501Y7169905D01*
X3913800Y7173029D01*
D02*
G37*
G36*
Y6773028D02*
X3898099Y6769905D01*
X3884789Y6761011D01*
X3875895Y6747701D01*
X3872772Y6732000D01*
X3875895Y6716299D01*
X3884789Y6702989D01*
X3898099Y6694095D01*
X3913800Y6690972D01*
X3929501Y6694095D01*
X3942812Y6702989D01*
X3951705Y6716299D01*
X3954829Y6732000D01*
X3951705Y6747701D01*
X3942812Y6761011D01*
X3929501Y6769905D01*
X3913800Y6773028D01*
D02*
G37*
G36*
X4173800Y6740019D02*
X4123800D01*
X4100243Y6736917D01*
X4078291Y6727824D01*
X4059440Y6713360D01*
X4044976Y6694510D01*
X4035883Y6672557D01*
X4032781Y6649000D01*
X4035883Y6625443D01*
X4044976Y6603491D01*
X4059440Y6584640D01*
X4078291Y6570176D01*
X4100243Y6561083D01*
X4123800Y6557982D01*
X4173800D01*
X4197358Y6561083D01*
X4219310Y6570176D01*
X4238160Y6584640D01*
X4252625Y6603491D01*
X4261718Y6625443D01*
X4264819Y6649000D01*
X4261718Y6672557D01*
X4252625Y6694510D01*
X4238160Y6713360D01*
X4219310Y6727824D01*
X4197358Y6736917D01*
X4173800Y6740019D01*
D02*
G37*
G36*
X3665300Y6779235D02*
X3635216Y6775274D01*
X3607183Y6763662D01*
X3583110Y6745190D01*
X3564638Y6721117D01*
X3553026Y6693084D01*
X3549066Y6663000D01*
Y6538000D01*
X3553026Y6507916D01*
X3564638Y6479883D01*
X3583110Y6455810D01*
X3607183Y6437338D01*
X3635216Y6425726D01*
X3665300Y6421766D01*
X3695384Y6425726D01*
X3723417Y6437338D01*
X3747490Y6455810D01*
X3765962Y6479883D01*
X3777574Y6507916D01*
X3781534Y6538000D01*
Y6663000D01*
X3777574Y6693084D01*
X3765962Y6721117D01*
X3747490Y6745190D01*
X3723417Y6763662D01*
X3695384Y6775274D01*
X3665300Y6779235D01*
D02*
G37*
G36*
X2590300D02*
X2560216Y6775274D01*
X2532183Y6763662D01*
X2508110Y6745190D01*
X2489638Y6721117D01*
X2478026Y6693084D01*
X2474065Y6663000D01*
Y6538000D01*
X2478026Y6507916D01*
X2489638Y6479883D01*
X2508110Y6455810D01*
X2532183Y6437338D01*
X2560216Y6425726D01*
X2590300Y6421766D01*
X2620384Y6425726D01*
X2648417Y6437338D01*
X2672490Y6455810D01*
X2690962Y6479883D01*
X2702574Y6507916D01*
X2706534Y6538000D01*
Y6663000D01*
X2702574Y6693084D01*
X2690962Y6721117D01*
X2672490Y6745190D01*
X2648417Y6763662D01*
X2620384Y6775274D01*
X2590300Y6779235D01*
D02*
G37*
G36*
X4148800Y6500656D02*
X4126548Y6497726D01*
X4105812Y6489137D01*
X4088006Y6475474D01*
X4074343Y6457668D01*
X4065754Y6436932D01*
X4062825Y6414680D01*
X4065754Y6392428D01*
X4074343Y6371692D01*
X4088006Y6353886D01*
X4105812Y6340223D01*
X4126548Y6331634D01*
X4148800Y6328705D01*
X4171052Y6331634D01*
X4191788Y6340223D01*
X4209594Y6353886D01*
X4223257Y6371692D01*
X4231846Y6392428D01*
X4234776Y6414680D01*
X4231846Y6436932D01*
X4223257Y6457668D01*
X4209594Y6475474D01*
X4191788Y6489137D01*
X4171052Y6497726D01*
X4148800Y6500656D01*
D02*
G37*
G36*
Y6246656D02*
X4126548Y6243726D01*
X4105812Y6235137D01*
X4088006Y6221474D01*
X4074343Y6203668D01*
X4065754Y6182932D01*
X4062825Y6160680D01*
X4065754Y6138428D01*
X4074343Y6117692D01*
X4088006Y6099886D01*
X4105812Y6086223D01*
X4126548Y6077634D01*
X4148800Y6074705D01*
X4171052Y6077634D01*
X4191788Y6086223D01*
X4209594Y6099886D01*
X4223257Y6117692D01*
X4231846Y6138428D01*
X4234776Y6160680D01*
X4231846Y6182932D01*
X4223257Y6203668D01*
X4209594Y6221474D01*
X4191788Y6235137D01*
X4171052Y6243726D01*
X4148800Y6246656D01*
D02*
G37*
G36*
X2273800Y7306019D02*
X2223800D01*
X2200243Y7302917D01*
X2178291Y7293824D01*
X2159440Y7279360D01*
X2144976Y7260509D01*
X2135883Y7238557D01*
X2132781Y7215000D01*
X2135883Y7191443D01*
X2144976Y7169491D01*
X2159440Y7150640D01*
X2178291Y7136176D01*
X2200243Y7127083D01*
X2223800Y7123981D01*
X2273800D01*
X2297358Y7127083D01*
X2319310Y7136176D01*
X2338160Y7150640D01*
X2352625Y7169491D01*
X2361718Y7191443D01*
X2364819Y7215000D01*
X2361718Y7238557D01*
X2352625Y7260509D01*
X2338160Y7279360D01*
X2319310Y7293824D01*
X2297358Y7302917D01*
X2273800Y7306019D01*
D02*
G37*
G36*
X2013800Y7173029D02*
X1998099Y7169905D01*
X1984789Y7161012D01*
X1975895Y7147701D01*
X1972772Y7132000D01*
X1975895Y7116299D01*
X1984789Y7102989D01*
X1998099Y7094095D01*
X2013800Y7090972D01*
X2029501Y7094095D01*
X2042812Y7102989D01*
X2051705Y7116299D01*
X2054829Y7132000D01*
X2051705Y7147701D01*
X2042812Y7161012D01*
X2029501Y7169905D01*
X2013800Y7173029D01*
D02*
G37*
G36*
Y6773028D02*
X1998099Y6769905D01*
X1984789Y6761011D01*
X1975895Y6747701D01*
X1972772Y6732000D01*
X1975895Y6716299D01*
X1984789Y6702989D01*
X1998099Y6694095D01*
X2013800Y6690972D01*
X2029501Y6694095D01*
X2042812Y6702989D01*
X2051705Y6716299D01*
X2054829Y6732000D01*
X2051705Y6747701D01*
X2042812Y6761011D01*
X2029501Y6769905D01*
X2013800Y6773028D01*
D02*
G37*
G36*
X2273800Y6740019D02*
X2223800D01*
X2200243Y6736917D01*
X2178291Y6727824D01*
X2159440Y6713360D01*
X2144976Y6694510D01*
X2135883Y6672557D01*
X2132781Y6649000D01*
X2135883Y6625443D01*
X2144976Y6603491D01*
X2159440Y6584640D01*
X2178291Y6570176D01*
X2200243Y6561083D01*
X2223800Y6557982D01*
X2273800D01*
X2297358Y6561083D01*
X2319310Y6570176D01*
X2338160Y6584640D01*
X2352625Y6603491D01*
X2361718Y6625443D01*
X2364819Y6649000D01*
X2361718Y6672557D01*
X2352625Y6694510D01*
X2338160Y6713360D01*
X2319310Y6727824D01*
X2297358Y6736917D01*
X2273800Y6740019D01*
D02*
G37*
G36*
X1765300Y6779235D02*
X1735216Y6775274D01*
X1707183Y6763662D01*
X1683110Y6745190D01*
X1664638Y6721117D01*
X1653026Y6693084D01*
X1649066Y6663000D01*
Y6538000D01*
X1653026Y6507916D01*
X1664638Y6479883D01*
X1683110Y6455810D01*
X1707183Y6437338D01*
X1735216Y6425726D01*
X1765300Y6421766D01*
X1795384Y6425726D01*
X1823417Y6437338D01*
X1847490Y6455810D01*
X1865962Y6479883D01*
X1877574Y6507916D01*
X1881534Y6538000D01*
Y6663000D01*
X1877574Y6693084D01*
X1865962Y6721117D01*
X1847490Y6745190D01*
X1823417Y6763662D01*
X1795384Y6775274D01*
X1765300Y6779235D01*
D02*
G37*
G36*
X690300D02*
X660216Y6775274D01*
X632183Y6763662D01*
X608110Y6745190D01*
X589638Y6721117D01*
X578026Y6693084D01*
X574065Y6663000D01*
Y6538000D01*
X578026Y6507916D01*
X589638Y6479883D01*
X608110Y6455810D01*
X632183Y6437338D01*
X660216Y6425726D01*
X690300Y6421766D01*
X720384Y6425726D01*
X748417Y6437338D01*
X772490Y6455810D01*
X790962Y6479883D01*
X802574Y6507916D01*
X806534Y6538000D01*
Y6663000D01*
X802574Y6693084D01*
X790962Y6721117D01*
X772490Y6745190D01*
X748417Y6763662D01*
X720384Y6775274D01*
X690300Y6779235D01*
D02*
G37*
G36*
X2248800Y6500656D02*
X2226548Y6497726D01*
X2205812Y6489137D01*
X2188006Y6475474D01*
X2174343Y6457668D01*
X2165754Y6436932D01*
X2162825Y6414680D01*
X2165754Y6392428D01*
X2174343Y6371692D01*
X2188006Y6353886D01*
X2205812Y6340223D01*
X2226548Y6331634D01*
X2248800Y6328705D01*
X2271052Y6331634D01*
X2291788Y6340223D01*
X2309594Y6353886D01*
X2323257Y6371692D01*
X2331846Y6392428D01*
X2334776Y6414680D01*
X2331846Y6436932D01*
X2323257Y6457668D01*
X2309594Y6475474D01*
X2291788Y6489137D01*
X2271052Y6497726D01*
X2248800Y6500656D01*
D02*
G37*
G36*
Y6246656D02*
X2226548Y6243726D01*
X2205812Y6235137D01*
X2188006Y6221474D01*
X2174343Y6203668D01*
X2165754Y6182932D01*
X2162825Y6160680D01*
X2165754Y6138428D01*
X2174343Y6117692D01*
X2188006Y6099886D01*
X2205812Y6086223D01*
X2226548Y6077634D01*
X2248800Y6074705D01*
X2271052Y6077634D01*
X2291788Y6086223D01*
X2309594Y6099886D01*
X2323257Y6117692D01*
X2331846Y6138428D01*
X2334776Y6160680D01*
X2331846Y6182932D01*
X2323257Y6203668D01*
X2309594Y6221474D01*
X2291788Y6235137D01*
X2271052Y6243726D01*
X2248800Y6246656D01*
D02*
G37*
G36*
X4173800Y5606019D02*
X4123800D01*
X4100243Y5602917D01*
X4078291Y5593824D01*
X4059440Y5579360D01*
X4044976Y5560509D01*
X4035883Y5538557D01*
X4032781Y5515000D01*
X4035883Y5491443D01*
X4044976Y5469490D01*
X4059440Y5450640D01*
X4078291Y5436176D01*
X4100243Y5427083D01*
X4123800Y5423981D01*
X4173800D01*
X4197358Y5427083D01*
X4219310Y5436176D01*
X4238160Y5450640D01*
X4252625Y5469490D01*
X4261718Y5491443D01*
X4264819Y5515000D01*
X4261718Y5538557D01*
X4252625Y5560509D01*
X4238160Y5579360D01*
X4219310Y5593824D01*
X4197358Y5602917D01*
X4173800Y5606019D01*
D02*
G37*
G36*
X3913800Y5473028D02*
X3898099Y5469905D01*
X3884789Y5461011D01*
X3875895Y5447701D01*
X3872772Y5432000D01*
X3875895Y5416299D01*
X3884789Y5402989D01*
X3898099Y5394095D01*
X3913800Y5390972D01*
X3929501Y5394095D01*
X3942812Y5402989D01*
X3951705Y5416299D01*
X3954829Y5432000D01*
X3951705Y5447701D01*
X3942812Y5461011D01*
X3929501Y5469905D01*
X3913800Y5473028D01*
D02*
G37*
G36*
Y5073028D02*
X3898099Y5069905D01*
X3884789Y5061011D01*
X3875895Y5047701D01*
X3872772Y5032000D01*
X3875895Y5016299D01*
X3884789Y5002988D01*
X3898099Y4994095D01*
X3913800Y4990971D01*
X3929501Y4994095D01*
X3942812Y5002988D01*
X3951705Y5016299D01*
X3954829Y5032000D01*
X3951705Y5047701D01*
X3942812Y5061011D01*
X3929501Y5069905D01*
X3913800Y5073028D01*
D02*
G37*
G36*
X4173800Y5040019D02*
X4123800D01*
X4100243Y5036917D01*
X4078291Y5027824D01*
X4059440Y5013360D01*
X4044976Y4994509D01*
X4035883Y4972557D01*
X4032781Y4949000D01*
X4035883Y4925443D01*
X4044976Y4903491D01*
X4059440Y4884640D01*
X4078291Y4870176D01*
X4100243Y4861083D01*
X4123800Y4857981D01*
X4173800D01*
X4197358Y4861083D01*
X4219310Y4870176D01*
X4238160Y4884640D01*
X4252625Y4903491D01*
X4261718Y4925443D01*
X4264819Y4949000D01*
X4261718Y4972557D01*
X4252625Y4994509D01*
X4238160Y5013360D01*
X4219310Y5027824D01*
X4197358Y5036917D01*
X4173800Y5040019D01*
D02*
G37*
G36*
X3665300Y5079234D02*
X3635216Y5075274D01*
X3607183Y5063662D01*
X3583110Y5045190D01*
X3564638Y5021117D01*
X3553026Y4993084D01*
X3549066Y4963000D01*
Y4838000D01*
X3553026Y4807916D01*
X3564638Y4779883D01*
X3583110Y4755810D01*
X3607183Y4737338D01*
X3635216Y4725726D01*
X3665300Y4721766D01*
X3695384Y4725726D01*
X3723417Y4737338D01*
X3747490Y4755810D01*
X3765962Y4779883D01*
X3777574Y4807916D01*
X3781534Y4838000D01*
Y4963000D01*
X3777574Y4993084D01*
X3765962Y5021117D01*
X3747490Y5045190D01*
X3723417Y5063662D01*
X3695384Y5075274D01*
X3665300Y5079234D01*
D02*
G37*
G36*
X2590300D02*
X2560216Y5075274D01*
X2532183Y5063662D01*
X2508110Y5045190D01*
X2489638Y5021117D01*
X2478026Y4993084D01*
X2474065Y4963000D01*
Y4838000D01*
X2478026Y4807916D01*
X2489638Y4779883D01*
X2508110Y4755810D01*
X2532183Y4737338D01*
X2560216Y4725726D01*
X2590300Y4721766D01*
X2620384Y4725726D01*
X2648417Y4737338D01*
X2672490Y4755810D01*
X2690962Y4779883D01*
X2702574Y4807916D01*
X2706534Y4838000D01*
Y4963000D01*
X2702574Y4993084D01*
X2690962Y5021117D01*
X2672490Y5045190D01*
X2648417Y5063662D01*
X2620384Y5075274D01*
X2590300Y5079234D01*
D02*
G37*
G36*
X4148800Y4800655D02*
X4126548Y4797726D01*
X4105812Y4789137D01*
X4088006Y4775474D01*
X4074343Y4757668D01*
X4065754Y4736932D01*
X4062825Y4714680D01*
X4065754Y4692428D01*
X4074343Y4671692D01*
X4088006Y4653886D01*
X4105812Y4640223D01*
X4126548Y4631634D01*
X4148800Y4628704D01*
X4171052Y4631634D01*
X4191788Y4640223D01*
X4209594Y4653886D01*
X4223257Y4671692D01*
X4231846Y4692428D01*
X4234776Y4714680D01*
X4231846Y4736932D01*
X4223257Y4757668D01*
X4209594Y4775474D01*
X4191788Y4789137D01*
X4171052Y4797726D01*
X4148800Y4800655D01*
D02*
G37*
G36*
Y4546655D02*
X4126548Y4543726D01*
X4105812Y4535137D01*
X4088006Y4521474D01*
X4074343Y4503668D01*
X4065754Y4482932D01*
X4062825Y4460680D01*
X4065754Y4438428D01*
X4074343Y4417692D01*
X4088006Y4399886D01*
X4105812Y4386223D01*
X4126548Y4377634D01*
X4148800Y4374704D01*
X4171052Y4377634D01*
X4191788Y4386223D01*
X4209594Y4399886D01*
X4223257Y4417692D01*
X4231846Y4438428D01*
X4234776Y4460680D01*
X4231846Y4482932D01*
X4223257Y4503668D01*
X4209594Y4521474D01*
X4191788Y4535137D01*
X4171052Y4543726D01*
X4148800Y4546655D01*
D02*
G37*
G36*
X2273800Y5606019D02*
X2223800D01*
X2200243Y5602917D01*
X2178291Y5593824D01*
X2159440Y5579360D01*
X2144976Y5560509D01*
X2135883Y5538557D01*
X2132781Y5515000D01*
X2135883Y5491443D01*
X2144976Y5469490D01*
X2159440Y5450640D01*
X2178291Y5436176D01*
X2200243Y5427083D01*
X2223800Y5423981D01*
X2273800D01*
X2297358Y5427083D01*
X2319310Y5436176D01*
X2338160Y5450640D01*
X2352625Y5469490D01*
X2361718Y5491443D01*
X2364819Y5515000D01*
X2361718Y5538557D01*
X2352625Y5560509D01*
X2338160Y5579360D01*
X2319310Y5593824D01*
X2297358Y5602917D01*
X2273800Y5606019D01*
D02*
G37*
G36*
X2013800Y5473028D02*
X1998099Y5469905D01*
X1984789Y5461011D01*
X1975895Y5447701D01*
X1972772Y5432000D01*
X1975895Y5416299D01*
X1984789Y5402989D01*
X1998099Y5394095D01*
X2013800Y5390972D01*
X2029501Y5394095D01*
X2042812Y5402989D01*
X2051705Y5416299D01*
X2054829Y5432000D01*
X2051705Y5447701D01*
X2042812Y5461011D01*
X2029501Y5469905D01*
X2013800Y5473028D01*
D02*
G37*
G36*
Y5073028D02*
X1998099Y5069905D01*
X1984789Y5061011D01*
X1975895Y5047701D01*
X1972772Y5032000D01*
X1975895Y5016299D01*
X1984789Y5002988D01*
X1998099Y4994095D01*
X2013800Y4990971D01*
X2029501Y4994095D01*
X2042812Y5002988D01*
X2051705Y5016299D01*
X2054829Y5032000D01*
X2051705Y5047701D01*
X2042812Y5061011D01*
X2029501Y5069905D01*
X2013800Y5073028D01*
D02*
G37*
G36*
X2273800Y5040019D02*
X2223800D01*
X2200243Y5036917D01*
X2178291Y5027824D01*
X2159440Y5013360D01*
X2144976Y4994509D01*
X2135883Y4972557D01*
X2132781Y4949000D01*
X2135883Y4925443D01*
X2144976Y4903491D01*
X2159440Y4884640D01*
X2178291Y4870176D01*
X2200243Y4861083D01*
X2223800Y4857981D01*
X2273800D01*
X2297358Y4861083D01*
X2319310Y4870176D01*
X2338160Y4884640D01*
X2352625Y4903491D01*
X2361718Y4925443D01*
X2364819Y4949000D01*
X2361718Y4972557D01*
X2352625Y4994509D01*
X2338160Y5013360D01*
X2319310Y5027824D01*
X2297358Y5036917D01*
X2273800Y5040019D01*
D02*
G37*
G36*
X1765300Y5079234D02*
X1735216Y5075274D01*
X1707183Y5063662D01*
X1683110Y5045190D01*
X1664638Y5021117D01*
X1653026Y4993084D01*
X1649066Y4963000D01*
Y4838000D01*
X1653026Y4807916D01*
X1664638Y4779883D01*
X1683110Y4755810D01*
X1707183Y4737338D01*
X1735216Y4725726D01*
X1765300Y4721766D01*
X1795384Y4725726D01*
X1823417Y4737338D01*
X1847490Y4755810D01*
X1865962Y4779883D01*
X1877574Y4807916D01*
X1881534Y4838000D01*
Y4963000D01*
X1877574Y4993084D01*
X1865962Y5021117D01*
X1847490Y5045190D01*
X1823417Y5063662D01*
X1795384Y5075274D01*
X1765300Y5079234D01*
D02*
G37*
G36*
X690300D02*
X660216Y5075274D01*
X632183Y5063662D01*
X608110Y5045190D01*
X589638Y5021117D01*
X578026Y4993084D01*
X574065Y4963000D01*
Y4838000D01*
X578026Y4807916D01*
X589638Y4779883D01*
X608110Y4755810D01*
X632183Y4737338D01*
X660216Y4725726D01*
X690300Y4721766D01*
X720384Y4725726D01*
X748417Y4737338D01*
X772490Y4755810D01*
X790962Y4779883D01*
X802574Y4807916D01*
X806534Y4838000D01*
Y4963000D01*
X802574Y4993084D01*
X790962Y5021117D01*
X772490Y5045190D01*
X748417Y5063662D01*
X720384Y5075274D01*
X690300Y5079234D01*
D02*
G37*
G36*
X2248800Y4800655D02*
X2226548Y4797726D01*
X2205812Y4789137D01*
X2188006Y4775474D01*
X2174343Y4757668D01*
X2165754Y4736932D01*
X2162825Y4714680D01*
X2165754Y4692428D01*
X2174343Y4671692D01*
X2188006Y4653886D01*
X2205812Y4640223D01*
X2226548Y4631634D01*
X2248800Y4628704D01*
X2271052Y4631634D01*
X2291788Y4640223D01*
X2309594Y4653886D01*
X2323257Y4671692D01*
X2331846Y4692428D01*
X2334776Y4714680D01*
X2331846Y4736932D01*
X2323257Y4757668D01*
X2309594Y4775474D01*
X2291788Y4789137D01*
X2271052Y4797726D01*
X2248800Y4800655D01*
D02*
G37*
G36*
Y4546655D02*
X2226548Y4543726D01*
X2205812Y4535137D01*
X2188006Y4521474D01*
X2174343Y4503668D01*
X2165754Y4482932D01*
X2162825Y4460680D01*
X2165754Y4438428D01*
X2174343Y4417692D01*
X2188006Y4399886D01*
X2205812Y4386223D01*
X2226548Y4377634D01*
X2248800Y4374704D01*
X2271052Y4377634D01*
X2291788Y4386223D01*
X2309594Y4399886D01*
X2323257Y4417692D01*
X2331846Y4438428D01*
X2334776Y4460680D01*
X2331846Y4482932D01*
X2323257Y4503668D01*
X2309594Y4521474D01*
X2291788Y4535137D01*
X2271052Y4543726D01*
X2248800Y4546655D01*
D02*
G37*
G36*
X4173800Y3906018D02*
X4123800D01*
X4100243Y3902917D01*
X4078291Y3893824D01*
X4059440Y3879360D01*
X4044976Y3860509D01*
X4035883Y3838557D01*
X4032781Y3815000D01*
X4035883Y3791443D01*
X4044976Y3769490D01*
X4059440Y3750640D01*
X4078291Y3736175D01*
X4100243Y3727082D01*
X4123800Y3723981D01*
X4173800D01*
X4197358Y3727082D01*
X4219310Y3736175D01*
X4238160Y3750640D01*
X4252625Y3769490D01*
X4261718Y3791443D01*
X4264819Y3815000D01*
X4261718Y3838557D01*
X4252625Y3860509D01*
X4238160Y3879360D01*
X4219310Y3893824D01*
X4197358Y3902917D01*
X4173800Y3906018D01*
D02*
G37*
G36*
X3913800Y3773028D02*
X3898099Y3769905D01*
X3884789Y3761011D01*
X3875895Y3747701D01*
X3872772Y3732000D01*
X3875895Y3716299D01*
X3884789Y3702989D01*
X3898099Y3694095D01*
X3913800Y3690972D01*
X3929501Y3694095D01*
X3942812Y3702989D01*
X3951705Y3716299D01*
X3954829Y3732000D01*
X3951705Y3747701D01*
X3942812Y3761011D01*
X3929501Y3769905D01*
X3913800Y3773028D01*
D02*
G37*
G36*
Y3373028D02*
X3898099Y3369905D01*
X3884789Y3361011D01*
X3875895Y3347700D01*
X3872772Y3332000D01*
X3875895Y3316299D01*
X3884789Y3302988D01*
X3898099Y3294095D01*
X3913800Y3290971D01*
X3929501Y3294095D01*
X3942812Y3302988D01*
X3951705Y3316299D01*
X3954829Y3332000D01*
X3951705Y3347700D01*
X3942812Y3361011D01*
X3929501Y3369905D01*
X3913800Y3373028D01*
D02*
G37*
G36*
X4173800Y3340018D02*
X4123800D01*
X4100243Y3336917D01*
X4078291Y3327824D01*
X4059440Y3313360D01*
X4044976Y3294509D01*
X4035883Y3272557D01*
X4032781Y3249000D01*
X4035883Y3225443D01*
X4044976Y3203490D01*
X4059440Y3184640D01*
X4078291Y3170176D01*
X4100243Y3161083D01*
X4123800Y3157981D01*
X4173800D01*
X4197358Y3161083D01*
X4219310Y3170176D01*
X4238160Y3184640D01*
X4252625Y3203490D01*
X4261718Y3225443D01*
X4264819Y3249000D01*
X4261718Y3272557D01*
X4252625Y3294509D01*
X4238160Y3313360D01*
X4219310Y3327824D01*
X4197358Y3336917D01*
X4173800Y3340018D01*
D02*
G37*
G36*
X3665300Y3379234D02*
X3635216Y3375274D01*
X3607183Y3363662D01*
X3583110Y3345190D01*
X3564638Y3321117D01*
X3553026Y3293084D01*
X3549066Y3263000D01*
Y3138000D01*
X3553026Y3107916D01*
X3564638Y3079883D01*
X3583110Y3055810D01*
X3607183Y3037338D01*
X3635216Y3025726D01*
X3665300Y3021765D01*
X3695384Y3025726D01*
X3723417Y3037338D01*
X3747490Y3055810D01*
X3765962Y3079883D01*
X3777574Y3107916D01*
X3781534Y3138000D01*
Y3263000D01*
X3777574Y3293084D01*
X3765962Y3321117D01*
X3747490Y3345190D01*
X3723417Y3363662D01*
X3695384Y3375274D01*
X3665300Y3379234D01*
D02*
G37*
G36*
X2590300D02*
X2560216Y3375274D01*
X2532183Y3363662D01*
X2508110Y3345190D01*
X2489638Y3321117D01*
X2478026Y3293084D01*
X2474065Y3263000D01*
Y3138000D01*
X2478026Y3107916D01*
X2489638Y3079883D01*
X2508110Y3055810D01*
X2532183Y3037338D01*
X2560216Y3025726D01*
X2590300Y3021765D01*
X2620384Y3025726D01*
X2648417Y3037338D01*
X2672490Y3055810D01*
X2690962Y3079883D01*
X2702574Y3107916D01*
X2706534Y3138000D01*
Y3263000D01*
X2702574Y3293084D01*
X2690962Y3321117D01*
X2672490Y3345190D01*
X2648417Y3363662D01*
X2620384Y3375274D01*
X2590300Y3379234D01*
D02*
G37*
G36*
X4148800Y3100655D02*
X4126548Y3097726D01*
X4105812Y3089137D01*
X4088006Y3075474D01*
X4074343Y3057667D01*
X4065754Y3036932D01*
X4062825Y3014680D01*
X4065754Y2992428D01*
X4074343Y2971692D01*
X4088006Y2953886D01*
X4105812Y2940223D01*
X4126548Y2931634D01*
X4148800Y2928704D01*
X4171052Y2931634D01*
X4191788Y2940223D01*
X4209594Y2953886D01*
X4223257Y2971692D01*
X4231846Y2992428D01*
X4234776Y3014680D01*
X4231846Y3036932D01*
X4223257Y3057667D01*
X4209594Y3075474D01*
X4191788Y3089137D01*
X4171052Y3097726D01*
X4148800Y3100655D01*
D02*
G37*
G36*
Y2846655D02*
X4126548Y2843726D01*
X4105812Y2835137D01*
X4088006Y2821474D01*
X4074343Y2803667D01*
X4065754Y2782932D01*
X4062825Y2760680D01*
X4065754Y2738428D01*
X4074343Y2717692D01*
X4088006Y2699886D01*
X4105812Y2686223D01*
X4126548Y2677634D01*
X4148800Y2674704D01*
X4171052Y2677634D01*
X4191788Y2686223D01*
X4209594Y2699886D01*
X4223257Y2717692D01*
X4231846Y2738428D01*
X4234776Y2760680D01*
X4231846Y2782932D01*
X4223257Y2803667D01*
X4209594Y2821474D01*
X4191788Y2835137D01*
X4171052Y2843726D01*
X4148800Y2846655D01*
D02*
G37*
G36*
X2273800Y3906018D02*
X2223800D01*
X2200243Y3902917D01*
X2178291Y3893824D01*
X2159440Y3879360D01*
X2144976Y3860509D01*
X2135883Y3838557D01*
X2132781Y3815000D01*
X2135883Y3791443D01*
X2144976Y3769490D01*
X2159440Y3750640D01*
X2178291Y3736175D01*
X2200243Y3727082D01*
X2223800Y3723981D01*
X2273800D01*
X2297358Y3727082D01*
X2319310Y3736175D01*
X2338160Y3750640D01*
X2352625Y3769490D01*
X2361718Y3791443D01*
X2364819Y3815000D01*
X2361718Y3838557D01*
X2352625Y3860509D01*
X2338160Y3879360D01*
X2319310Y3893824D01*
X2297358Y3902917D01*
X2273800Y3906018D01*
D02*
G37*
G36*
X2013800Y3773028D02*
X1998099Y3769905D01*
X1984789Y3761011D01*
X1975895Y3747701D01*
X1972772Y3732000D01*
X1975895Y3716299D01*
X1984789Y3702989D01*
X1998099Y3694095D01*
X2013800Y3690972D01*
X2029501Y3694095D01*
X2042812Y3702989D01*
X2051705Y3716299D01*
X2054829Y3732000D01*
X2051705Y3747701D01*
X2042812Y3761011D01*
X2029501Y3769905D01*
X2013800Y3773028D01*
D02*
G37*
G36*
Y3373028D02*
X1998099Y3369905D01*
X1984789Y3361011D01*
X1975895Y3347700D01*
X1972772Y3332000D01*
X1975895Y3316299D01*
X1984789Y3302988D01*
X1998099Y3294095D01*
X2013800Y3290971D01*
X2029501Y3294095D01*
X2042812Y3302988D01*
X2051705Y3316299D01*
X2054829Y3332000D01*
X2051705Y3347700D01*
X2042812Y3361011D01*
X2029501Y3369905D01*
X2013800Y3373028D01*
D02*
G37*
G36*
X2273800Y3340018D02*
X2223800D01*
X2200243Y3336917D01*
X2178291Y3327824D01*
X2159440Y3313360D01*
X2144976Y3294509D01*
X2135883Y3272557D01*
X2132781Y3249000D01*
X2135883Y3225443D01*
X2144976Y3203490D01*
X2159440Y3184640D01*
X2178291Y3170176D01*
X2200243Y3161083D01*
X2223800Y3157981D01*
X2273800D01*
X2297358Y3161083D01*
X2319310Y3170176D01*
X2338160Y3184640D01*
X2352625Y3203490D01*
X2361718Y3225443D01*
X2364819Y3249000D01*
X2361718Y3272557D01*
X2352625Y3294509D01*
X2338160Y3313360D01*
X2319310Y3327824D01*
X2297358Y3336917D01*
X2273800Y3340018D01*
D02*
G37*
G36*
X1765300Y3379234D02*
X1735216Y3375274D01*
X1707183Y3363662D01*
X1683110Y3345190D01*
X1664638Y3321117D01*
X1653026Y3293084D01*
X1649066Y3263000D01*
Y3138000D01*
X1653026Y3107916D01*
X1664638Y3079883D01*
X1683110Y3055810D01*
X1707183Y3037338D01*
X1735216Y3025726D01*
X1765300Y3021765D01*
X1795384Y3025726D01*
X1823417Y3037338D01*
X1847490Y3055810D01*
X1865962Y3079883D01*
X1877574Y3107916D01*
X1881534Y3138000D01*
Y3263000D01*
X1877574Y3293084D01*
X1865962Y3321117D01*
X1847490Y3345190D01*
X1823417Y3363662D01*
X1795384Y3375274D01*
X1765300Y3379234D01*
D02*
G37*
G36*
X690300D02*
X660216Y3375274D01*
X632183Y3363662D01*
X608110Y3345190D01*
X589638Y3321117D01*
X578026Y3293084D01*
X574065Y3263000D01*
Y3138000D01*
X578026Y3107916D01*
X589638Y3079883D01*
X608110Y3055810D01*
X632183Y3037338D01*
X660216Y3025726D01*
X690300Y3021765D01*
X720384Y3025726D01*
X748417Y3037338D01*
X772490Y3055810D01*
X790962Y3079883D01*
X802574Y3107916D01*
X806534Y3138000D01*
Y3263000D01*
X802574Y3293084D01*
X790962Y3321117D01*
X772490Y3345190D01*
X748417Y3363662D01*
X720384Y3375274D01*
X690300Y3379234D01*
D02*
G37*
G36*
X2248800Y3100655D02*
X2226548Y3097726D01*
X2205812Y3089137D01*
X2188006Y3075474D01*
X2174343Y3057667D01*
X2165754Y3036932D01*
X2162825Y3014680D01*
X2165754Y2992428D01*
X2174343Y2971692D01*
X2188006Y2953886D01*
X2205812Y2940223D01*
X2226548Y2931634D01*
X2248800Y2928704D01*
X2271052Y2931634D01*
X2291788Y2940223D01*
X2309594Y2953886D01*
X2323257Y2971692D01*
X2331846Y2992428D01*
X2334776Y3014680D01*
X2331846Y3036932D01*
X2323257Y3057667D01*
X2309594Y3075474D01*
X2291788Y3089137D01*
X2271052Y3097726D01*
X2248800Y3100655D01*
D02*
G37*
G36*
Y2846655D02*
X2226548Y2843726D01*
X2205812Y2835137D01*
X2188006Y2821474D01*
X2174343Y2803667D01*
X2165754Y2782932D01*
X2162825Y2760680D01*
X2165754Y2738428D01*
X2174343Y2717692D01*
X2188006Y2699886D01*
X2205812Y2686223D01*
X2226548Y2677634D01*
X2248800Y2674704D01*
X2271052Y2677634D01*
X2291788Y2686223D01*
X2309594Y2699886D01*
X2323257Y2717692D01*
X2331846Y2738428D01*
X2334776Y2760680D01*
X2331846Y2782932D01*
X2323257Y2803667D01*
X2309594Y2821474D01*
X2291788Y2835137D01*
X2271052Y2843726D01*
X2248800Y2846655D01*
D02*
G37*
G36*
X4173800Y2206018D02*
X4123800D01*
X4100243Y2202917D01*
X4078291Y2193824D01*
X4059440Y2179359D01*
X4044976Y2160509D01*
X4035883Y2138557D01*
X4032781Y2115000D01*
X4035883Y2091442D01*
X4044976Y2069490D01*
X4059440Y2050640D01*
X4078291Y2036175D01*
X4100243Y2027082D01*
X4123800Y2023981D01*
X4173800D01*
X4197358Y2027082D01*
X4219310Y2036175D01*
X4238160Y2050640D01*
X4252625Y2069490D01*
X4261718Y2091442D01*
X4264819Y2115000D01*
X4261718Y2138557D01*
X4252625Y2160509D01*
X4238160Y2179359D01*
X4219310Y2193824D01*
X4197358Y2202917D01*
X4173800Y2206018D01*
D02*
G37*
G36*
X3913800Y2073028D02*
X3898099Y2069905D01*
X3884789Y2061011D01*
X3875895Y2047701D01*
X3872772Y2032000D01*
X3875895Y2016299D01*
X3884789Y2002988D01*
X3898099Y1994095D01*
X3913800Y1990971D01*
X3929501Y1994095D01*
X3942812Y2002988D01*
X3951705Y2016299D01*
X3954829Y2032000D01*
X3951705Y2047701D01*
X3942812Y2061011D01*
X3929501Y2069905D01*
X3913800Y2073028D01*
D02*
G37*
G36*
Y1673028D02*
X3898099Y1669905D01*
X3884789Y1661011D01*
X3875895Y1647700D01*
X3872772Y1632000D01*
X3875895Y1616299D01*
X3884789Y1602988D01*
X3898099Y1594094D01*
X3913800Y1590971D01*
X3929501Y1594094D01*
X3942812Y1602988D01*
X3951705Y1616299D01*
X3954829Y1632000D01*
X3951705Y1647700D01*
X3942812Y1661011D01*
X3929501Y1669905D01*
X3913800Y1673028D01*
D02*
G37*
G36*
X4173800Y1640018D02*
X4123800D01*
X4100243Y1636917D01*
X4078291Y1627824D01*
X4059440Y1613359D01*
X4044976Y1594509D01*
X4035883Y1572557D01*
X4032781Y1549000D01*
X4035883Y1525442D01*
X4044976Y1503490D01*
X4059440Y1484640D01*
X4078291Y1470175D01*
X4100243Y1461082D01*
X4123800Y1457981D01*
X4173800D01*
X4197358Y1461082D01*
X4219310Y1470175D01*
X4238160Y1484640D01*
X4252625Y1503490D01*
X4261718Y1525442D01*
X4264819Y1549000D01*
X4261718Y1572557D01*
X4252625Y1594509D01*
X4238160Y1613359D01*
X4219310Y1627824D01*
X4197358Y1636917D01*
X4173800Y1640018D01*
D02*
G37*
G36*
X3665300Y1679234D02*
X3635216Y1675274D01*
X3607183Y1663662D01*
X3583110Y1645190D01*
X3564638Y1621117D01*
X3553026Y1593083D01*
X3549066Y1563000D01*
Y1438000D01*
X3553026Y1407916D01*
X3564638Y1379882D01*
X3583110Y1355810D01*
X3607183Y1337338D01*
X3635216Y1325726D01*
X3665300Y1321765D01*
X3695384Y1325726D01*
X3723417Y1337338D01*
X3747490Y1355810D01*
X3765962Y1379882D01*
X3777574Y1407916D01*
X3781534Y1438000D01*
Y1563000D01*
X3777574Y1593083D01*
X3765962Y1621117D01*
X3747490Y1645190D01*
X3723417Y1663662D01*
X3695384Y1675274D01*
X3665300Y1679234D01*
D02*
G37*
G36*
X2590300D02*
X2560216Y1675274D01*
X2532183Y1663662D01*
X2508110Y1645190D01*
X2489638Y1621117D01*
X2478026Y1593083D01*
X2474065Y1563000D01*
Y1438000D01*
X2478026Y1407916D01*
X2489638Y1379882D01*
X2508110Y1355810D01*
X2532183Y1337338D01*
X2560216Y1325726D01*
X2590300Y1321765D01*
X2620384Y1325726D01*
X2648417Y1337338D01*
X2672490Y1355810D01*
X2690962Y1379882D01*
X2702574Y1407916D01*
X2706534Y1438000D01*
Y1563000D01*
X2702574Y1593083D01*
X2690962Y1621117D01*
X2672490Y1645190D01*
X2648417Y1663662D01*
X2620384Y1675274D01*
X2590300Y1679234D01*
D02*
G37*
G36*
X4148800Y1400655D02*
X4126548Y1397725D01*
X4105812Y1389136D01*
X4088006Y1375474D01*
X4074343Y1357667D01*
X4065754Y1336932D01*
X4062825Y1314680D01*
X4065754Y1292427D01*
X4074343Y1271692D01*
X4088006Y1253886D01*
X4105812Y1240223D01*
X4126548Y1231634D01*
X4148800Y1228704D01*
X4171052Y1231634D01*
X4191788Y1240223D01*
X4209594Y1253886D01*
X4223257Y1271692D01*
X4231846Y1292427D01*
X4234776Y1314680D01*
X4231846Y1336932D01*
X4223257Y1357667D01*
X4209594Y1375474D01*
X4191788Y1389136D01*
X4171052Y1397725D01*
X4148800Y1400655D01*
D02*
G37*
G36*
Y1146655D02*
X4126548Y1143725D01*
X4105812Y1135136D01*
X4088006Y1121473D01*
X4074343Y1103667D01*
X4065754Y1082932D01*
X4062825Y1060680D01*
X4065754Y1038427D01*
X4074343Y1017692D01*
X4088006Y999886D01*
X4105812Y986223D01*
X4126548Y977634D01*
X4148800Y974704D01*
X4171052Y977634D01*
X4191788Y986223D01*
X4209594Y999886D01*
X4223257Y1017692D01*
X4231846Y1038427D01*
X4234776Y1060680D01*
X4231846Y1082932D01*
X4223257Y1103667D01*
X4209594Y1121473D01*
X4191788Y1135136D01*
X4171052Y1143725D01*
X4148800Y1146655D01*
D02*
G37*
G36*
X2273800Y2206018D02*
X2223800D01*
X2200243Y2202917D01*
X2178291Y2193824D01*
X2159440Y2179359D01*
X2144976Y2160509D01*
X2135883Y2138557D01*
X2132781Y2115000D01*
X2135883Y2091442D01*
X2144976Y2069490D01*
X2159440Y2050640D01*
X2178291Y2036175D01*
X2200243Y2027082D01*
X2223800Y2023981D01*
X2273800D01*
X2297358Y2027082D01*
X2319310Y2036175D01*
X2338160Y2050640D01*
X2352625Y2069490D01*
X2361718Y2091442D01*
X2364819Y2115000D01*
X2361718Y2138557D01*
X2352625Y2160509D01*
X2338160Y2179359D01*
X2319310Y2193824D01*
X2297358Y2202917D01*
X2273800Y2206018D01*
D02*
G37*
G36*
X2013800Y2073028D02*
X1998099Y2069905D01*
X1984789Y2061011D01*
X1975895Y2047701D01*
X1972772Y2032000D01*
X1975895Y2016299D01*
X1984789Y2002988D01*
X1998099Y1994095D01*
X2013800Y1990971D01*
X2029501Y1994095D01*
X2042812Y2002988D01*
X2051705Y2016299D01*
X2054829Y2032000D01*
X2051705Y2047701D01*
X2042812Y2061011D01*
X2029501Y2069905D01*
X2013800Y2073028D01*
D02*
G37*
G36*
Y1673028D02*
X1998099Y1669905D01*
X1984789Y1661011D01*
X1975895Y1647700D01*
X1972772Y1632000D01*
X1975895Y1616299D01*
X1984789Y1602988D01*
X1998099Y1594094D01*
X2013800Y1590971D01*
X2029501Y1594094D01*
X2042812Y1602988D01*
X2051705Y1616299D01*
X2054829Y1632000D01*
X2051705Y1647700D01*
X2042812Y1661011D01*
X2029501Y1669905D01*
X2013800Y1673028D01*
D02*
G37*
G36*
X2273800Y1640018D02*
X2223800D01*
X2200243Y1636917D01*
X2178291Y1627824D01*
X2159440Y1613359D01*
X2144976Y1594509D01*
X2135883Y1572557D01*
X2132781Y1549000D01*
X2135883Y1525442D01*
X2144976Y1503490D01*
X2159440Y1484640D01*
X2178291Y1470175D01*
X2200243Y1461082D01*
X2223800Y1457981D01*
X2273800D01*
X2297358Y1461082D01*
X2319310Y1470175D01*
X2338160Y1484640D01*
X2352625Y1503490D01*
X2361718Y1525442D01*
X2364819Y1549000D01*
X2361718Y1572557D01*
X2352625Y1594509D01*
X2338160Y1613359D01*
X2319310Y1627824D01*
X2297358Y1636917D01*
X2273800Y1640018D01*
D02*
G37*
G36*
X1765300Y1679234D02*
X1735216Y1675274D01*
X1707183Y1663662D01*
X1683110Y1645190D01*
X1664638Y1621117D01*
X1653026Y1593083D01*
X1649066Y1563000D01*
Y1438000D01*
X1653026Y1407916D01*
X1664638Y1379882D01*
X1683110Y1355810D01*
X1707183Y1337338D01*
X1735216Y1325726D01*
X1765300Y1321765D01*
X1795384Y1325726D01*
X1823417Y1337338D01*
X1847490Y1355810D01*
X1865962Y1379882D01*
X1877574Y1407916D01*
X1881534Y1438000D01*
Y1563000D01*
X1877574Y1593083D01*
X1865962Y1621117D01*
X1847490Y1645190D01*
X1823417Y1663662D01*
X1795384Y1675274D01*
X1765300Y1679234D01*
D02*
G37*
G36*
X690300D02*
X660216Y1675274D01*
X632183Y1663662D01*
X608110Y1645190D01*
X589638Y1621117D01*
X578026Y1593083D01*
X574065Y1563000D01*
Y1438000D01*
X578026Y1407916D01*
X589638Y1379882D01*
X608110Y1355810D01*
X632183Y1337338D01*
X660216Y1325726D01*
X690300Y1321765D01*
X720384Y1325726D01*
X748417Y1337338D01*
X772490Y1355810D01*
X790962Y1379882D01*
X802574Y1407916D01*
X806534Y1438000D01*
Y1563000D01*
X802574Y1593083D01*
X790962Y1621117D01*
X772490Y1645190D01*
X748417Y1663662D01*
X720384Y1675274D01*
X690300Y1679234D01*
D02*
G37*
G36*
X2248800Y1400655D02*
X2226548Y1397725D01*
X2205812Y1389136D01*
X2188006Y1375474D01*
X2174343Y1357667D01*
X2165754Y1336932D01*
X2162825Y1314680D01*
X2165754Y1292427D01*
X2174343Y1271692D01*
X2188006Y1253886D01*
X2205812Y1240223D01*
X2226548Y1231634D01*
X2248800Y1228704D01*
X2271052Y1231634D01*
X2291788Y1240223D01*
X2309594Y1253886D01*
X2323257Y1271692D01*
X2331846Y1292427D01*
X2334776Y1314680D01*
X2331846Y1336932D01*
X2323257Y1357667D01*
X2309594Y1375474D01*
X2291788Y1389136D01*
X2271052Y1397725D01*
X2248800Y1400655D01*
D02*
G37*
G36*
Y1146655D02*
X2226548Y1143725D01*
X2205812Y1135136D01*
X2188006Y1121473D01*
X2174343Y1103667D01*
X2165754Y1082932D01*
X2162825Y1060680D01*
X2165754Y1038427D01*
X2174343Y1017692D01*
X2188006Y999886D01*
X2205812Y986223D01*
X2226548Y977634D01*
X2248800Y974704D01*
X2271052Y977634D01*
X2291788Y986223D01*
X2309594Y999886D01*
X2323257Y1017692D01*
X2331846Y1038427D01*
X2334776Y1060680D01*
X2331846Y1082932D01*
X2323257Y1103667D01*
X2309594Y1121473D01*
X2291788Y1135136D01*
X2271052Y1143725D01*
X2248800Y1146655D01*
D02*
G37*
%LPD*%
D10*
X1765300Y1500500D02*
D03*
X3665300D02*
D03*
X1765300Y3200500D02*
D03*
X3665300D02*
D03*
X1765300Y4900500D02*
D03*
X3665300D02*
D03*
X1765300Y6600500D02*
D03*
X3665300D02*
D03*
X1765300Y8300500D02*
D03*
X3665300D02*
D03*
D11*
X690300Y1500500D02*
D03*
X2590300D02*
D03*
X690300Y3200500D02*
D03*
X2590300D02*
D03*
X690300Y4900500D02*
D03*
X2590300D02*
D03*
X690300Y6600500D02*
D03*
X2590300D02*
D03*
X690300Y8300500D02*
D03*
X2590300D02*
D03*
D12*
X1477800Y2225500D02*
D03*
X977800D02*
D03*
X1227800D02*
D03*
X1477800Y775500D02*
D03*
X977800D02*
D03*
X3377800Y2225500D02*
D03*
X2877800D02*
D03*
X3127800D02*
D03*
X3377800Y775500D02*
D03*
X2877800D02*
D03*
X1477800Y3925500D02*
D03*
X977800D02*
D03*
X1227800D02*
D03*
X1477800Y2475500D02*
D03*
X977800D02*
D03*
X3377800Y3925500D02*
D03*
X2877800D02*
D03*
X3127800D02*
D03*
X3377800Y2475500D02*
D03*
X2877800D02*
D03*
X1477800Y5625500D02*
D03*
X977800D02*
D03*
X1227800D02*
D03*
X1477800Y4175500D02*
D03*
X977800D02*
D03*
X3377800Y5625500D02*
D03*
X2877800D02*
D03*
X3127800D02*
D03*
X3377800Y4175500D02*
D03*
X2877800D02*
D03*
X1477800Y7325500D02*
D03*
X977800D02*
D03*
X1227800D02*
D03*
X1477800Y5875500D02*
D03*
X977800D02*
D03*
X3377800Y7325500D02*
D03*
X2877800D02*
D03*
X3127800D02*
D03*
X3377800Y5875500D02*
D03*
X2877800D02*
D03*
X1477800Y9025500D02*
D03*
X977800D02*
D03*
X1227800D02*
D03*
X1477800Y7575500D02*
D03*
X977800D02*
D03*
X3377800Y9025500D02*
D03*
X2877800D02*
D03*
X3127800D02*
D03*
X3377800Y7575500D02*
D03*
X2877800D02*
D03*
D13*
X2248800Y1549000D02*
D03*
Y2115000D02*
D03*
X4148800Y1549000D02*
D03*
Y2115000D02*
D03*
X2248800Y3249000D02*
D03*
Y3815000D02*
D03*
X4148800Y3249000D02*
D03*
Y3815000D02*
D03*
X2248800Y4949000D02*
D03*
Y5515000D02*
D03*
X4148800Y4949000D02*
D03*
Y5515000D02*
D03*
X2248800Y6649000D02*
D03*
Y7215000D02*
D03*
X4148800Y6649000D02*
D03*
Y7215000D02*
D03*
X2248800Y8349000D02*
D03*
Y8915000D02*
D03*
X4148800Y8349000D02*
D03*
Y8915000D02*
D03*
D14*
X2248800Y806680D02*
D03*
Y1314680D02*
D03*
Y1060680D02*
D03*
X4148800Y806680D02*
D03*
Y1314680D02*
D03*
Y1060680D02*
D03*
X2248800Y2506680D02*
D03*
Y3014680D02*
D03*
Y2760680D02*
D03*
X4148800Y2506680D02*
D03*
Y3014680D02*
D03*
Y2760680D02*
D03*
X2248800Y4206680D02*
D03*
Y4714680D02*
D03*
Y4460680D02*
D03*
X4148800Y4206680D02*
D03*
Y4714680D02*
D03*
Y4460680D02*
D03*
X2248800Y5906680D02*
D03*
Y6414680D02*
D03*
Y6160680D02*
D03*
X4148800Y5906680D02*
D03*
Y6414680D02*
D03*
Y6160680D02*
D03*
X2248800Y7606680D02*
D03*
Y8114680D02*
D03*
Y7860680D02*
D03*
X4148800Y7606680D02*
D03*
Y8114680D02*
D03*
Y7860680D02*
D03*
D15*
X1709428Y1947080D02*
D03*
X817500Y1210842D02*
D03*
X1583234Y1238480D02*
D03*
X1912875Y1127602D02*
D03*
X735356Y1751540D02*
D03*
X1912875Y988785D02*
D03*
X2120520Y1702000D02*
D03*
X1414726Y1238480D02*
D03*
X1055770Y1965042D02*
D03*
X1045616Y1619480D02*
D03*
X1852243Y1702000D02*
D03*
X3609428Y1947080D02*
D03*
X2717500Y1210842D02*
D03*
X3483234Y1238480D02*
D03*
X3812875Y1127602D02*
D03*
X2635356Y1751540D02*
D03*
X3812875Y988785D02*
D03*
X4020520Y1702000D02*
D03*
X3314726Y1238480D02*
D03*
X2955770Y1965042D02*
D03*
X2945616Y1619480D02*
D03*
X3752243Y1702000D02*
D03*
X1709428Y3647080D02*
D03*
X817500Y2910842D02*
D03*
X1583234Y2938480D02*
D03*
X1912875Y2827602D02*
D03*
X735356Y3451540D02*
D03*
X1912875Y2688785D02*
D03*
X2120520Y3402000D02*
D03*
X1414726Y2938480D02*
D03*
X1055770Y3665042D02*
D03*
X1045616Y3319480D02*
D03*
X1852243Y3402000D02*
D03*
X3609428Y3647080D02*
D03*
X2717500Y2910842D02*
D03*
X3483234Y2938480D02*
D03*
X3812875Y2827602D02*
D03*
X2635356Y3451540D02*
D03*
X3812875Y2688785D02*
D03*
X4020520Y3402000D02*
D03*
X3314726Y2938480D02*
D03*
X2955770Y3665042D02*
D03*
X2945616Y3319480D02*
D03*
X3752243Y3402000D02*
D03*
X1709428Y5347080D02*
D03*
X817500Y4610842D02*
D03*
X1583234Y4638480D02*
D03*
X1912875Y4527602D02*
D03*
X735356Y5151540D02*
D03*
X1912875Y4388785D02*
D03*
X2120520Y5102000D02*
D03*
X1414726Y4638480D02*
D03*
X1055770Y5365043D02*
D03*
X1045616Y5019480D02*
D03*
X1852243Y5102000D02*
D03*
X3609428Y5347080D02*
D03*
X2717500Y4610842D02*
D03*
X3483234Y4638480D02*
D03*
X3812875Y4527602D02*
D03*
X2635356Y5151540D02*
D03*
X3812875Y4388785D02*
D03*
X4020520Y5102000D02*
D03*
X3314726Y4638480D02*
D03*
X2955770Y5365043D02*
D03*
X2945616Y5019480D02*
D03*
X3752243Y5102000D02*
D03*
X1709428Y7047080D02*
D03*
X817500Y6310843D02*
D03*
X1583234Y6338480D02*
D03*
X1912875Y6227602D02*
D03*
X735356Y6851540D02*
D03*
X1912875Y6088786D02*
D03*
X2120520Y6802000D02*
D03*
X1414726Y6338480D02*
D03*
X1055770Y7065043D02*
D03*
X1045616Y6719480D02*
D03*
X1852243Y6802000D02*
D03*
X3609428Y7047080D02*
D03*
X2717500Y6310843D02*
D03*
X3483234Y6338480D02*
D03*
X3812875Y6227602D02*
D03*
X2635356Y6851540D02*
D03*
X3812875Y6088786D02*
D03*
X4020520Y6802000D02*
D03*
X3314726Y6338480D02*
D03*
X2955770Y7065043D02*
D03*
X2945616Y6719480D02*
D03*
X3752243Y6802000D02*
D03*
X1709428Y8747080D02*
D03*
X817500Y8010843D02*
D03*
X1583234Y8038480D02*
D03*
X1912875Y7927602D02*
D03*
X735356Y8551540D02*
D03*
X1912875Y7788786D02*
D03*
X2120520Y8502000D02*
D03*
X1414726Y8038480D02*
D03*
X1055770Y8765043D02*
D03*
X1045616Y8419480D02*
D03*
X1852243Y8502000D02*
D03*
X3609428Y8747080D02*
D03*
X2717500Y8010843D02*
D03*
X3483234Y8038480D02*
D03*
X3812875Y7927602D02*
D03*
X2635356Y8551540D02*
D03*
X3812875Y7788786D02*
D03*
X4020520Y8502000D02*
D03*
X3314726Y8038480D02*
D03*
X2955770Y8765043D02*
D03*
X2945616Y8419480D02*
D03*
X3752243Y8502000D02*
D03*
%TF.MD5,51294cb0066561554df91248aafb0c73*%
M02*
