%TF.GenerationSoftware,Altium Limited,Altium Designer,20.1.8 (145)*%
G04 Layer_Color=0*
%FSLAX45Y45*%
%MOMM*%
%TF.SameCoordinates,B3CF18BB-8163-4733-9D89-4CFBB204D872*%
%TF.FilePolarity,Positive*%
%TF.FileFunction,Plated,1,2,PTH,Drill*%
%TF.Part,CustomerPanel*%
G01*
G75*
%TA.AperFunction,ComponentDrill*%
%ADD56O,1.25000X2.50000*%
%ADD57O,1.25000X0.50000*%
%ADD58O,1.40000X0.90000*%
%ADD59C,0.80000*%
%TA.AperFunction,ViaDrill,NotFilled*%
%ADD60C,0.35000*%
D56*
X1765300Y1500500D02*
D03*
X690300D02*
D03*
X3665300D02*
D03*
X2590300D02*
D03*
X1765300Y3200500D02*
D03*
X690300D02*
D03*
X3665300D02*
D03*
X2590300D02*
D03*
X1765300Y4900500D02*
D03*
X690300D02*
D03*
X3665300D02*
D03*
X2590300D02*
D03*
X1765300Y6600500D02*
D03*
X690300D02*
D03*
X3665300D02*
D03*
X2590300D02*
D03*
X1765300Y8300500D02*
D03*
X690300D02*
D03*
X3665300D02*
D03*
X2590300D02*
D03*
D57*
X1477800Y2225500D02*
D03*
X977800D02*
D03*
X1227800D02*
D03*
X1477800Y775500D02*
D03*
X977800D02*
D03*
X3377800Y2225500D02*
D03*
X2877800D02*
D03*
X3127800D02*
D03*
X3377800Y775500D02*
D03*
X2877800D02*
D03*
X1477800Y3925500D02*
D03*
X977800D02*
D03*
X1227800D02*
D03*
X1477800Y2475500D02*
D03*
X977800D02*
D03*
X3377800Y3925500D02*
D03*
X2877800D02*
D03*
X3127800D02*
D03*
X3377800Y2475500D02*
D03*
X2877800D02*
D03*
X1477800Y5625500D02*
D03*
X977800D02*
D03*
X1227800D02*
D03*
X1477800Y4175500D02*
D03*
X977800D02*
D03*
X3377800Y5625500D02*
D03*
X2877800D02*
D03*
X3127800D02*
D03*
X3377800Y4175500D02*
D03*
X2877800D02*
D03*
X1477800Y7325500D02*
D03*
X977800D02*
D03*
X1227800D02*
D03*
X1477800Y5875500D02*
D03*
X977800D02*
D03*
X3377800Y7325500D02*
D03*
X2877800D02*
D03*
X3127800D02*
D03*
X3377800Y5875500D02*
D03*
X2877800D02*
D03*
X1477800Y9025500D02*
D03*
X977800D02*
D03*
X1227800D02*
D03*
X1477800Y7575500D02*
D03*
X977800D02*
D03*
X3377800Y9025500D02*
D03*
X2877800D02*
D03*
X3127800D02*
D03*
X3377800Y7575500D02*
D03*
X2877800D02*
D03*
D58*
X2248800Y1549000D02*
D03*
Y2115000D02*
D03*
X4148800Y1549000D02*
D03*
Y2115000D02*
D03*
X2248800Y3249000D02*
D03*
Y3815000D02*
D03*
X4148800Y3249000D02*
D03*
Y3815000D02*
D03*
X2248800Y4949000D02*
D03*
Y5515000D02*
D03*
X4148800Y4949000D02*
D03*
Y5515000D02*
D03*
X2248800Y6649000D02*
D03*
Y7215000D02*
D03*
X4148800Y6649000D02*
D03*
Y7215000D02*
D03*
X2248800Y8349000D02*
D03*
Y8915000D02*
D03*
X4148800Y8349000D02*
D03*
Y8915000D02*
D03*
D59*
X2248800Y806680D02*
D03*
Y1314680D02*
D03*
Y1060680D02*
D03*
X4148800Y806680D02*
D03*
Y1314680D02*
D03*
Y1060680D02*
D03*
X2248800Y2506680D02*
D03*
Y3014680D02*
D03*
Y2760680D02*
D03*
X4148800Y2506680D02*
D03*
Y3014680D02*
D03*
Y2760680D02*
D03*
X2248800Y4206680D02*
D03*
Y4714680D02*
D03*
Y4460680D02*
D03*
X4148800Y4206680D02*
D03*
Y4714680D02*
D03*
Y4460680D02*
D03*
X2248800Y5906680D02*
D03*
Y6414680D02*
D03*
Y6160680D02*
D03*
X4148800Y5906680D02*
D03*
Y6414680D02*
D03*
Y6160680D02*
D03*
X2248800Y7606680D02*
D03*
Y8114680D02*
D03*
Y7860680D02*
D03*
X4148800Y7606680D02*
D03*
Y8114680D02*
D03*
Y7860680D02*
D03*
D60*
X1709428Y1947080D02*
D03*
X817500Y1210842D02*
D03*
X1583234Y1238480D02*
D03*
X1912875Y1127602D02*
D03*
X735356Y1751540D02*
D03*
X1912875Y988785D02*
D03*
X2120520Y1702000D02*
D03*
X1414726Y1238480D02*
D03*
X1055770Y1965042D02*
D03*
X1045616Y1619480D02*
D03*
X1852243Y1702000D02*
D03*
X3609428Y1947080D02*
D03*
X2717500Y1210842D02*
D03*
X3483234Y1238480D02*
D03*
X3812875Y1127602D02*
D03*
X2635356Y1751540D02*
D03*
X3812875Y988785D02*
D03*
X4020520Y1702000D02*
D03*
X3314726Y1238480D02*
D03*
X2955770Y1965042D02*
D03*
X2945616Y1619480D02*
D03*
X3752243Y1702000D02*
D03*
X1709428Y3647080D02*
D03*
X817500Y2910842D02*
D03*
X1583234Y2938480D02*
D03*
X1912875Y2827602D02*
D03*
X735356Y3451540D02*
D03*
X1912875Y2688785D02*
D03*
X2120520Y3402000D02*
D03*
X1414726Y2938480D02*
D03*
X1055770Y3665042D02*
D03*
X1045616Y3319480D02*
D03*
X1852243Y3402000D02*
D03*
X3609428Y3647080D02*
D03*
X2717500Y2910842D02*
D03*
X3483234Y2938480D02*
D03*
X3812875Y2827602D02*
D03*
X2635356Y3451540D02*
D03*
X3812875Y2688785D02*
D03*
X4020520Y3402000D02*
D03*
X3314726Y2938480D02*
D03*
X2955770Y3665042D02*
D03*
X2945616Y3319480D02*
D03*
X3752243Y3402000D02*
D03*
X1709428Y5347080D02*
D03*
X817500Y4610842D02*
D03*
X1583234Y4638480D02*
D03*
X1912875Y4527602D02*
D03*
X735356Y5151540D02*
D03*
X1912875Y4388785D02*
D03*
X2120520Y5102000D02*
D03*
X1414726Y4638480D02*
D03*
X1055770Y5365043D02*
D03*
X1045616Y5019480D02*
D03*
X1852243Y5102000D02*
D03*
X3609428Y5347080D02*
D03*
X2717500Y4610842D02*
D03*
X3483234Y4638480D02*
D03*
X3812875Y4527602D02*
D03*
X2635356Y5151540D02*
D03*
X3812875Y4388785D02*
D03*
X4020520Y5102000D02*
D03*
X3314726Y4638480D02*
D03*
X2955770Y5365043D02*
D03*
X2945616Y5019480D02*
D03*
X3752243Y5102000D02*
D03*
X1709428Y7047080D02*
D03*
X817500Y6310843D02*
D03*
X1583234Y6338480D02*
D03*
X1912875Y6227602D02*
D03*
X735356Y6851540D02*
D03*
X1912875Y6088786D02*
D03*
X2120520Y6802000D02*
D03*
X1414726Y6338480D02*
D03*
X1055770Y7065043D02*
D03*
X1045616Y6719480D02*
D03*
X1852243Y6802000D02*
D03*
X3609428Y7047080D02*
D03*
X2717500Y6310843D02*
D03*
X3483234Y6338480D02*
D03*
X3812875Y6227602D02*
D03*
X2635356Y6851540D02*
D03*
X3812875Y6088786D02*
D03*
X4020520Y6802000D02*
D03*
X3314726Y6338480D02*
D03*
X2955770Y7065043D02*
D03*
X2945616Y6719480D02*
D03*
X3752243Y6802000D02*
D03*
X1709428Y8747080D02*
D03*
X817500Y8010843D02*
D03*
X1583234Y8038480D02*
D03*
X1912875Y7927602D02*
D03*
X735356Y8551540D02*
D03*
X1912875Y7788786D02*
D03*
X2120520Y8502000D02*
D03*
X1414726Y8038480D02*
D03*
X1055770Y8765043D02*
D03*
X1045616Y8419480D02*
D03*
X1852243Y8502000D02*
D03*
X3609428Y8747080D02*
D03*
X2717500Y8010843D02*
D03*
X3483234Y8038480D02*
D03*
X3812875Y7927602D02*
D03*
X2635356Y8551540D02*
D03*
X3812875Y7788786D02*
D03*
X4020520Y8502000D02*
D03*
X3314726Y8038480D02*
D03*
X2955770Y8765043D02*
D03*
X2945616Y8419480D02*
D03*
X3752243Y8502000D02*
D03*
%TF.MD5,324df28938369282b2a76f2dc4153b88*%
M02*
