M48
;Layer_Color=0
;FILE_FORMAT=4:4
METRIC
;TYPE=NON_PLATED
T6F00S00C0.5000
T7F00S00C3.0000
%
T06
X00201380Y00163200
Y00203200
Y00333200
X00391380
Y00203200
Y00163200
Y00373200
Y00503200
Y00543200
Y00673200
Y00713200
X00201380
Y00673200
Y00543200
Y00503200
Y00373200
Y00843200
Y00883200
X00391380
Y00843200
T07
X00030000Y00030000
X00450000
X00030000Y00950000
X00450000
M30
