%TF.GenerationSoftware,Altium Limited,Altium Designer,20.1.8 (145)*%
G04 Layer_Color=39423*
%FSLAX45Y45*%
%MOMM*%
%TF.SameCoordinates,0E9F4796-1360-41E2-86C3-8BEED11D2ECA*%
%TF.FilePolarity,Negative*%
%TF.FileFunction,Soldermask,Top*%
%TF.Part,CustomerPanel*%
G01*
G75*
%TA.AperFunction,WasherPad*%
%ADD41C,0.20320*%
%TA.AperFunction,ComponentPad*%
G04:AMPARAMS|DCode=42|XSize=2.1mm|YSize=3.35mm|CornerRadius=1.05mm|HoleSize=0mm|Usage=FLASHONLY|Rotation=180.000|XOffset=0mm|YOffset=0mm|HoleType=Round|Shape=RoundedRectangle|*
%AMROUNDEDRECTD42*
21,1,2.10000,1.25000,0,0,180.0*
21,1,0.00000,3.35000,0,0,180.0*
1,1,2.10000,0.00000,0.62500*
1,1,2.10000,0.00000,0.62500*
1,1,2.10000,0.00000,-0.62500*
1,1,2.10000,0.00000,-0.62500*
%
%ADD42ROUNDEDRECTD42*%
%ADD43O,2.10000X3.35000*%
%ADD44O,1.80000X1.10000*%
%ADD45O,2.10000X1.60000*%
%ADD46C,0.50000*%
G04:AMPARAMS|DCode=47|XSize=1.5mm|YSize=1.5mm|CornerRadius=0.75mm|HoleSize=0mm|Usage=FLASHONLY|Rotation=270.000|XOffset=0mm|YOffset=0mm|HoleType=Round|Shape=RoundedRectangle|*
%AMROUNDEDRECTD47*
21,1,1.50000,0.00000,0,0,270.0*
21,1,0.00000,1.50000,0,0,270.0*
1,1,1.50000,0.00000,0.00000*
1,1,1.50000,0.00000,0.00000*
1,1,1.50000,0.00000,0.00000*
1,1,1.50000,0.00000,0.00000*
%
%ADD47ROUNDEDRECTD47*%
D41*
X6600000Y9500000D02*
D03*
X300000D02*
D03*
X6600000Y300000D02*
D03*
X300000D02*
D03*
D42*
X2765300Y1500500D02*
D03*
X4665300D02*
D03*
X2765300Y3200500D02*
D03*
X4665300D02*
D03*
X2765300Y4900500D02*
D03*
X4665300D02*
D03*
X2765300Y6600500D02*
D03*
X4665300D02*
D03*
X2765300Y8300500D02*
D03*
X4665300D02*
D03*
D43*
X1690300Y1500500D02*
D03*
X3590300D02*
D03*
X1690300Y3200500D02*
D03*
X3590300D02*
D03*
X1690300Y4900500D02*
D03*
X3590300D02*
D03*
X1690300Y6600500D02*
D03*
X3590300D02*
D03*
X1690300Y8300500D02*
D03*
X3590300D02*
D03*
D44*
X2477800Y2225500D02*
D03*
X1977800D02*
D03*
X2227800D02*
D03*
X2477800Y775500D02*
D03*
X1977800D02*
D03*
X4377800Y2225500D02*
D03*
X3877800D02*
D03*
X4127800D02*
D03*
X4377800Y775500D02*
D03*
X3877800D02*
D03*
X2477800Y3925500D02*
D03*
X1977800D02*
D03*
X2227800D02*
D03*
X2477800Y2475500D02*
D03*
X1977800D02*
D03*
X4377800Y3925500D02*
D03*
X3877800D02*
D03*
X4127800D02*
D03*
X4377800Y2475500D02*
D03*
X3877800D02*
D03*
X2477800Y5625500D02*
D03*
X1977800D02*
D03*
X2227800D02*
D03*
X2477800Y4175500D02*
D03*
X1977800D02*
D03*
X4377800Y5625500D02*
D03*
X3877800D02*
D03*
X4127800D02*
D03*
X4377800Y4175500D02*
D03*
X3877800D02*
D03*
X2477800Y7325500D02*
D03*
X1977800D02*
D03*
X2227800D02*
D03*
X2477800Y5875500D02*
D03*
X1977800D02*
D03*
X4377800Y7325500D02*
D03*
X3877800D02*
D03*
X4127800D02*
D03*
X4377800Y5875500D02*
D03*
X3877800D02*
D03*
X2477800Y9025500D02*
D03*
X1977800D02*
D03*
X2227800D02*
D03*
X2477800Y7575500D02*
D03*
X1977800D02*
D03*
X4377800Y9025500D02*
D03*
X3877800D02*
D03*
X4127800D02*
D03*
X4377800Y7575500D02*
D03*
X3877800D02*
D03*
D45*
X3248800Y1549000D02*
D03*
Y2115000D02*
D03*
X5148800Y1549000D02*
D03*
Y2115000D02*
D03*
X3248800Y3249000D02*
D03*
Y3815000D02*
D03*
X5148800Y3249000D02*
D03*
Y3815000D02*
D03*
X3248800Y4949000D02*
D03*
Y5515000D02*
D03*
X5148800Y4949000D02*
D03*
Y5515000D02*
D03*
X3248800Y6649000D02*
D03*
Y7215000D02*
D03*
X5148800Y6649000D02*
D03*
Y7215000D02*
D03*
X3248800Y8349000D02*
D03*
Y8915000D02*
D03*
X5148800Y8349000D02*
D03*
Y8915000D02*
D03*
D46*
X3013800Y1632000D02*
D03*
Y2032000D02*
D03*
X4913800Y1632000D02*
D03*
Y2032000D02*
D03*
X3013800Y3332000D02*
D03*
Y3732000D02*
D03*
X4913800Y3332000D02*
D03*
Y3732000D02*
D03*
X3013800Y5032000D02*
D03*
Y5432000D02*
D03*
X4913800Y5032000D02*
D03*
Y5432000D02*
D03*
X3013800Y6732000D02*
D03*
Y7132000D02*
D03*
X4913800Y6732000D02*
D03*
Y7132000D02*
D03*
X3013800Y8432000D02*
D03*
Y8832000D02*
D03*
X4913800Y8432000D02*
D03*
Y8832000D02*
D03*
D47*
X3248800Y806680D02*
D03*
Y1314680D02*
D03*
Y1060680D02*
D03*
X5148800Y806680D02*
D03*
Y1314680D02*
D03*
Y1060680D02*
D03*
X3248800Y2506680D02*
D03*
Y3014680D02*
D03*
Y2760680D02*
D03*
X5148800Y2506680D02*
D03*
Y3014680D02*
D03*
Y2760680D02*
D03*
X3248800Y4206680D02*
D03*
Y4714680D02*
D03*
Y4460680D02*
D03*
X5148800Y4206680D02*
D03*
Y4714680D02*
D03*
Y4460680D02*
D03*
X3248800Y5906680D02*
D03*
Y6414680D02*
D03*
Y6160680D02*
D03*
X5148800Y5906680D02*
D03*
Y6414680D02*
D03*
Y6160680D02*
D03*
X3248800Y7606680D02*
D03*
Y8114680D02*
D03*
Y7860680D02*
D03*
X5148800Y7606680D02*
D03*
Y8114680D02*
D03*
Y7860680D02*
D03*
%TF.MD5,31efa6008eae5cd4d304e4a2897e55fa*%
M02*
