%TF.GenerationSoftware,Altium Limited,Altium Designer,20.1.8 (145)*%
G04 Layer_Physical_Order=2*
G04 Layer_Color=16728128*
%FSLAX45Y45*%
%MOMM*%
%TF.SameCoordinates,0E9F4796-1360-41E2-86C3-8BEED11D2ECA*%
%TF.FilePolarity,Positive*%
%TF.FileFunction,Copper,L2,Bot,Signal*%
%TF.Part,CustomerPanel*%
G01*
G75*
%TA.AperFunction,ComponentPad*%
G04:AMPARAMS|DCode=10|XSize=2mm|YSize=3.25mm|CornerRadius=1mm|HoleSize=0mm|Usage=FLASHONLY|Rotation=180.000|XOffset=0mm|YOffset=0mm|HoleType=Round|Shape=RoundedRectangle|*
%AMROUNDEDRECTD10*
21,1,2.00000,1.25000,0,0,180.0*
21,1,0.00000,3.25000,0,0,180.0*
1,1,2.00000,0.00000,0.62500*
1,1,2.00000,0.00000,0.62500*
1,1,2.00000,0.00000,-0.62500*
1,1,2.00000,0.00000,-0.62500*
%
%ADD10ROUNDEDRECTD10*%
%ADD11O,2.00000X3.25000*%
%ADD12O,1.70000X1.00000*%
%ADD13O,2.00000X1.50000*%
G04:AMPARAMS|DCode=14|XSize=1.4mm|YSize=1.4mm|CornerRadius=0.7mm|HoleSize=0mm|Usage=FLASHONLY|Rotation=270.000|XOffset=0mm|YOffset=0mm|HoleType=Round|Shape=RoundedRectangle|*
%AMROUNDEDRECTD14*
21,1,1.40000,0.00000,0,0,270.0*
21,1,0.00000,1.40000,0,0,270.0*
1,1,1.40000,0.00000,0.00000*
1,1,1.40000,0.00000,0.00000*
1,1,1.40000,0.00000,0.00000*
1,1,1.40000,0.00000,0.00000*
%
%ADD14ROUNDEDRECTD14*%
%TA.AperFunction,ViaPad*%
%ADD15C,0.61000*%
%TA.AperFunction,SMDPad,CuDef*%
%ADD16C,2.00000*%
G04:AMPARAMS|DCode=17|XSize=1.6mm|YSize=1.6mm|CornerRadius=0.008mm|HoleSize=0mm|Usage=FLASHONLY|Rotation=270.000|XOffset=0mm|YOffset=0mm|HoleType=Round|Shape=RoundedRectangle|*
%AMROUNDEDRECTD17*
21,1,1.60000,1.58400,0,0,270.0*
21,1,1.58400,1.60000,0,0,270.0*
1,1,0.01600,-0.79200,-0.79200*
1,1,0.01600,-0.79200,0.79200*
1,1,0.01600,0.79200,0.79200*
1,1,0.01600,0.79200,-0.79200*
%
%ADD17ROUNDEDRECTD17*%
%TA.AperFunction,ConnectorPad*%
G04:AMPARAMS|DCode=18|XSize=0.35mm|YSize=2mm|CornerRadius=0.175mm|HoleSize=0mm|Usage=FLASHONLY|Rotation=270.000|XOffset=0mm|YOffset=0mm|HoleType=Round|Shape=RoundedRectangle|*
%AMROUNDEDRECTD18*
21,1,0.35000,1.65000,0,0,270.0*
21,1,0.00000,2.00000,0,0,270.0*
1,1,0.35000,-0.82500,0.00000*
1,1,0.35000,-0.82500,0.00000*
1,1,0.35000,0.82500,0.00000*
1,1,0.35000,0.82500,0.00000*
%
%ADD18ROUNDEDRECTD18*%
%TA.AperFunction,SMDPad,CuDef*%
G04:AMPARAMS|DCode=19|XSize=0.9mm|YSize=0.9mm|CornerRadius=0.045mm|HoleSize=0mm|Usage=FLASHONLY|Rotation=180.000|XOffset=0mm|YOffset=0mm|HoleType=Round|Shape=RoundedRectangle|*
%AMROUNDEDRECTD19*
21,1,0.90000,0.81000,0,0,180.0*
21,1,0.81000,0.90000,0,0,180.0*
1,1,0.09000,-0.40500,0.40500*
1,1,0.09000,0.40500,0.40500*
1,1,0.09000,0.40500,-0.40500*
1,1,0.09000,-0.40500,-0.40500*
%
%ADD19ROUNDEDRECTD19*%
%ADD20O,1.05000X0.60000*%
G04:AMPARAMS|DCode=21|XSize=0.4mm|YSize=0.4mm|CornerRadius=0.002mm|HoleSize=0mm|Usage=FLASHONLY|Rotation=270.000|XOffset=0mm|YOffset=0mm|HoleType=Round|Shape=RoundedRectangle|*
%AMROUNDEDRECTD21*
21,1,0.40000,0.39600,0,0,270.0*
21,1,0.39600,0.40000,0,0,270.0*
1,1,0.00400,-0.19800,-0.19800*
1,1,0.00400,-0.19800,0.19800*
1,1,0.00400,0.19800,0.19800*
1,1,0.00400,0.19800,-0.19800*
%
%ADD21ROUNDEDRECTD21*%
G04:AMPARAMS|DCode=22|XSize=0.9mm|YSize=0.9mm|CornerRadius=0.0045mm|HoleSize=0mm|Usage=FLASHONLY|Rotation=0.000|XOffset=0mm|YOffset=0mm|HoleType=Round|Shape=RoundedRectangle|*
%AMROUNDEDRECTD22*
21,1,0.90000,0.89100,0,0,0.0*
21,1,0.89100,0.90000,0,0,0.0*
1,1,0.00900,0.44550,-0.44550*
1,1,0.00900,-0.44550,-0.44550*
1,1,0.00900,-0.44550,0.44550*
1,1,0.00900,0.44550,0.44550*
%
%ADD22ROUNDEDRECTD22*%
G04:AMPARAMS|DCode=23|XSize=0.9mm|YSize=0.9mm|CornerRadius=0.0045mm|HoleSize=0mm|Usage=FLASHONLY|Rotation=90.000|XOffset=0mm|YOffset=0mm|HoleType=Round|Shape=RoundedRectangle|*
%AMROUNDEDRECTD23*
21,1,0.90000,0.89100,0,0,90.0*
21,1,0.89100,0.90000,0,0,90.0*
1,1,0.00900,0.44550,0.44550*
1,1,0.00900,0.44550,-0.44550*
1,1,0.00900,-0.44550,-0.44550*
1,1,0.00900,-0.44550,0.44550*
%
%ADD23ROUNDEDRECTD23*%
%TA.AperFunction,Conductor*%
%ADD24C,0.12700*%
%ADD25C,0.15240*%
%ADD26C,0.22860*%
%ADD27C,0.27940*%
%ADD28C,0.35560*%
D10*
X2765300Y1500500D02*
D03*
X4665300D02*
D03*
X2765300Y3200500D02*
D03*
X4665300D02*
D03*
X2765300Y4900500D02*
D03*
X4665300D02*
D03*
X2765300Y6600500D02*
D03*
X4665300D02*
D03*
X2765300Y8300500D02*
D03*
X4665300D02*
D03*
D11*
X1690300Y1500500D02*
D03*
X3590300D02*
D03*
X1690300Y3200500D02*
D03*
X3590300D02*
D03*
X1690300Y4900500D02*
D03*
X3590300D02*
D03*
X1690300Y6600500D02*
D03*
X3590300D02*
D03*
X1690300Y8300500D02*
D03*
X3590300D02*
D03*
D12*
X2477800Y2225500D02*
D03*
X1977800D02*
D03*
X2227800D02*
D03*
X2477800Y775500D02*
D03*
X1977800D02*
D03*
X4377800Y2225500D02*
D03*
X3877800D02*
D03*
X4127800D02*
D03*
X4377800Y775500D02*
D03*
X3877800D02*
D03*
X2477800Y3925500D02*
D03*
X1977800D02*
D03*
X2227800D02*
D03*
X2477800Y2475500D02*
D03*
X1977800D02*
D03*
X4377800Y3925500D02*
D03*
X3877800D02*
D03*
X4127800D02*
D03*
X4377800Y2475500D02*
D03*
X3877800D02*
D03*
X2477800Y5625500D02*
D03*
X1977800D02*
D03*
X2227800D02*
D03*
X2477800Y4175500D02*
D03*
X1977800D02*
D03*
X4377800Y5625500D02*
D03*
X3877800D02*
D03*
X4127800D02*
D03*
X4377800Y4175500D02*
D03*
X3877800D02*
D03*
X2477800Y7325500D02*
D03*
X1977800D02*
D03*
X2227800D02*
D03*
X2477800Y5875500D02*
D03*
X1977800D02*
D03*
X4377800Y7325500D02*
D03*
X3877800D02*
D03*
X4127800D02*
D03*
X4377800Y5875500D02*
D03*
X3877800D02*
D03*
X2477800Y9025500D02*
D03*
X1977800D02*
D03*
X2227800D02*
D03*
X2477800Y7575500D02*
D03*
X1977800D02*
D03*
X4377800Y9025500D02*
D03*
X3877800D02*
D03*
X4127800D02*
D03*
X4377800Y7575500D02*
D03*
X3877800D02*
D03*
D13*
X3248800Y1549000D02*
D03*
Y2115000D02*
D03*
X5148800Y1549000D02*
D03*
Y2115000D02*
D03*
X3248800Y3249000D02*
D03*
Y3815000D02*
D03*
X5148800Y3249000D02*
D03*
Y3815000D02*
D03*
X3248800Y4949000D02*
D03*
Y5515000D02*
D03*
X5148800Y4949000D02*
D03*
Y5515000D02*
D03*
X3248800Y6649000D02*
D03*
Y7215000D02*
D03*
X5148800Y6649000D02*
D03*
Y7215000D02*
D03*
X3248800Y8349000D02*
D03*
Y8915000D02*
D03*
X5148800Y8349000D02*
D03*
Y8915000D02*
D03*
D14*
X3248800Y806680D02*
D03*
Y1314680D02*
D03*
Y1060680D02*
D03*
X5148800Y806680D02*
D03*
Y1314680D02*
D03*
Y1060680D02*
D03*
X3248800Y2506680D02*
D03*
Y3014680D02*
D03*
Y2760680D02*
D03*
X5148800Y2506680D02*
D03*
Y3014680D02*
D03*
Y2760680D02*
D03*
X3248800Y4206680D02*
D03*
Y4714680D02*
D03*
Y4460680D02*
D03*
X5148800Y4206680D02*
D03*
Y4714680D02*
D03*
Y4460680D02*
D03*
X3248800Y5906680D02*
D03*
Y6414680D02*
D03*
Y6160680D02*
D03*
X5148800Y5906680D02*
D03*
Y6414680D02*
D03*
Y6160680D02*
D03*
X3248800Y7606680D02*
D03*
Y8114680D02*
D03*
Y7860680D02*
D03*
X5148800Y7606680D02*
D03*
Y8114680D02*
D03*
Y7860680D02*
D03*
D15*
X2709428Y1947080D02*
D03*
X1817500Y1210842D02*
D03*
X2583234Y1238480D02*
D03*
X2912875Y1127602D02*
D03*
X1735356Y1751540D02*
D03*
X2912875Y988785D02*
D03*
X3120520Y1702000D02*
D03*
X2414726Y1238480D02*
D03*
X2055770Y1965042D02*
D03*
X2045616Y1619480D02*
D03*
X2852243Y1702000D02*
D03*
X4609428Y1947080D02*
D03*
X3717500Y1210842D02*
D03*
X4483234Y1238480D02*
D03*
X4812875Y1127602D02*
D03*
X3635356Y1751540D02*
D03*
X4812875Y988785D02*
D03*
X5020520Y1702000D02*
D03*
X4314726Y1238480D02*
D03*
X3955770Y1965042D02*
D03*
X3945616Y1619480D02*
D03*
X4752243Y1702000D02*
D03*
X2709428Y3647080D02*
D03*
X1817500Y2910842D02*
D03*
X2583234Y2938480D02*
D03*
X2912875Y2827602D02*
D03*
X1735356Y3451540D02*
D03*
X2912875Y2688785D02*
D03*
X3120520Y3402000D02*
D03*
X2414726Y2938480D02*
D03*
X2055770Y3665042D02*
D03*
X2045616Y3319480D02*
D03*
X2852243Y3402000D02*
D03*
X4609428Y3647080D02*
D03*
X3717500Y2910842D02*
D03*
X4483234Y2938480D02*
D03*
X4812875Y2827602D02*
D03*
X3635356Y3451540D02*
D03*
X4812875Y2688785D02*
D03*
X5020520Y3402000D02*
D03*
X4314726Y2938480D02*
D03*
X3955770Y3665042D02*
D03*
X3945616Y3319480D02*
D03*
X4752243Y3402000D02*
D03*
X2709428Y5347080D02*
D03*
X1817500Y4610842D02*
D03*
X2583234Y4638480D02*
D03*
X2912875Y4527602D02*
D03*
X1735356Y5151540D02*
D03*
X2912875Y4388785D02*
D03*
X3120520Y5102000D02*
D03*
X2414726Y4638480D02*
D03*
X2055770Y5365043D02*
D03*
X2045616Y5019480D02*
D03*
X2852243Y5102000D02*
D03*
X4609428Y5347080D02*
D03*
X3717500Y4610842D02*
D03*
X4483234Y4638480D02*
D03*
X4812875Y4527602D02*
D03*
X3635356Y5151540D02*
D03*
X4812875Y4388785D02*
D03*
X5020520Y5102000D02*
D03*
X4314726Y4638480D02*
D03*
X3955770Y5365043D02*
D03*
X3945616Y5019480D02*
D03*
X4752243Y5102000D02*
D03*
X2709428Y7047080D02*
D03*
X1817500Y6310843D02*
D03*
X2583234Y6338480D02*
D03*
X2912875Y6227602D02*
D03*
X1735356Y6851540D02*
D03*
X2912875Y6088786D02*
D03*
X3120520Y6802000D02*
D03*
X2414726Y6338480D02*
D03*
X2055770Y7065043D02*
D03*
X2045616Y6719480D02*
D03*
X2852243Y6802000D02*
D03*
X4609428Y7047080D02*
D03*
X3717500Y6310843D02*
D03*
X4483234Y6338480D02*
D03*
X4812875Y6227602D02*
D03*
X3635356Y6851540D02*
D03*
X4812875Y6088786D02*
D03*
X5020520Y6802000D02*
D03*
X4314726Y6338480D02*
D03*
X3955770Y7065043D02*
D03*
X3945616Y6719480D02*
D03*
X4752243Y6802000D02*
D03*
X2709428Y8747080D02*
D03*
X1817500Y8010843D02*
D03*
X2583234Y8038480D02*
D03*
X2912875Y7927602D02*
D03*
X1735356Y8551540D02*
D03*
X2912875Y7788786D02*
D03*
X3120520Y8502000D02*
D03*
X2414726Y8038480D02*
D03*
X2055770Y8765043D02*
D03*
X2045616Y8419480D02*
D03*
X2852243Y8502000D02*
D03*
X4609428Y8747080D02*
D03*
X3717500Y8010843D02*
D03*
X4483234Y8038480D02*
D03*
X4812875Y7927602D02*
D03*
X3635356Y8551540D02*
D03*
X4812875Y7788786D02*
D03*
X5020520Y8502000D02*
D03*
X4314726Y8038480D02*
D03*
X3955770Y8765043D02*
D03*
X3945616Y8419480D02*
D03*
X4752243Y8502000D02*
D03*
D16*
X6200000Y9500000D02*
D03*
X700000D02*
D03*
X6200000Y300000D02*
D03*
X700000D02*
D03*
D17*
X2993800Y1492000D02*
D03*
Y2172000D02*
D03*
X4893800Y1492000D02*
D03*
Y2172000D02*
D03*
X2993800Y3192000D02*
D03*
Y3872000D02*
D03*
X4893800Y3192000D02*
D03*
Y3872000D02*
D03*
X2993800Y4892000D02*
D03*
Y5572000D02*
D03*
X4893800Y4892000D02*
D03*
Y5572000D02*
D03*
X2993800Y6592000D02*
D03*
Y7272000D02*
D03*
X4893800Y6592000D02*
D03*
Y7272000D02*
D03*
X2993800Y8292000D02*
D03*
Y8972000D02*
D03*
X4893800Y8292000D02*
D03*
Y8972000D02*
D03*
D18*
X2986300Y1832000D02*
D03*
Y1702000D02*
D03*
Y1767000D02*
D03*
Y1962000D02*
D03*
Y1897000D02*
D03*
X4886300Y1832000D02*
D03*
Y1702000D02*
D03*
Y1767000D02*
D03*
Y1962000D02*
D03*
Y1897000D02*
D03*
X2986300Y3532000D02*
D03*
Y3402000D02*
D03*
Y3467000D02*
D03*
Y3662000D02*
D03*
Y3597000D02*
D03*
X4886300Y3532000D02*
D03*
Y3402000D02*
D03*
Y3467000D02*
D03*
Y3662000D02*
D03*
Y3597000D02*
D03*
X2986300Y5232000D02*
D03*
Y5102000D02*
D03*
Y5167000D02*
D03*
Y5362000D02*
D03*
Y5297000D02*
D03*
X4886300Y5232000D02*
D03*
Y5102000D02*
D03*
Y5167000D02*
D03*
Y5362000D02*
D03*
Y5297000D02*
D03*
X2986300Y6932000D02*
D03*
Y6802000D02*
D03*
Y6867000D02*
D03*
Y7062000D02*
D03*
Y6997000D02*
D03*
X4886300Y6932000D02*
D03*
Y6802000D02*
D03*
Y6867000D02*
D03*
Y7062000D02*
D03*
Y6997000D02*
D03*
X2986300Y8632000D02*
D03*
Y8502000D02*
D03*
Y8567000D02*
D03*
Y8762000D02*
D03*
Y8697000D02*
D03*
X4886300Y8632000D02*
D03*
Y8502000D02*
D03*
Y8567000D02*
D03*
Y8762000D02*
D03*
Y8697000D02*
D03*
D19*
X2801140Y2112860D02*
D03*
X2641140D02*
D03*
X4701140D02*
D03*
X4541140D02*
D03*
X2801140Y3812860D02*
D03*
X2641140D02*
D03*
X4701140D02*
D03*
X4541140D02*
D03*
X2801140Y5512860D02*
D03*
X2641140D02*
D03*
X4701140D02*
D03*
X4541140D02*
D03*
X2801140Y7212860D02*
D03*
X2641140D02*
D03*
X4701140D02*
D03*
X4541140D02*
D03*
X2801140Y8912860D02*
D03*
X2641140D02*
D03*
X4701140D02*
D03*
X4541140D02*
D03*
D20*
X1958980Y984480D02*
D03*
Y1111480D02*
D03*
Y1238480D02*
D03*
Y1365480D02*
D03*
Y1492480D02*
D03*
Y1619480D02*
D03*
Y1746480D02*
D03*
Y1873480D02*
D03*
X2498980Y984480D02*
D03*
Y1111480D02*
D03*
Y1238480D02*
D03*
Y1365480D02*
D03*
Y1492480D02*
D03*
Y1619480D02*
D03*
Y1746480D02*
D03*
Y1873480D02*
D03*
X3858980Y984480D02*
D03*
Y1111480D02*
D03*
Y1238480D02*
D03*
Y1365480D02*
D03*
Y1492480D02*
D03*
Y1619480D02*
D03*
Y1746480D02*
D03*
Y1873480D02*
D03*
X4398980Y984480D02*
D03*
Y1111480D02*
D03*
Y1238480D02*
D03*
Y1365480D02*
D03*
Y1492480D02*
D03*
Y1619480D02*
D03*
Y1746480D02*
D03*
Y1873480D02*
D03*
X1958980Y2684480D02*
D03*
Y2811480D02*
D03*
Y2938480D02*
D03*
Y3065480D02*
D03*
Y3192480D02*
D03*
Y3319480D02*
D03*
Y3446480D02*
D03*
Y3573480D02*
D03*
X2498980Y2684480D02*
D03*
Y2811480D02*
D03*
Y2938480D02*
D03*
Y3065480D02*
D03*
Y3192480D02*
D03*
Y3319480D02*
D03*
Y3446480D02*
D03*
Y3573480D02*
D03*
X3858980Y2684480D02*
D03*
Y2811480D02*
D03*
Y2938480D02*
D03*
Y3065480D02*
D03*
Y3192480D02*
D03*
Y3319480D02*
D03*
Y3446480D02*
D03*
Y3573480D02*
D03*
X4398980Y2684480D02*
D03*
Y2811480D02*
D03*
Y2938480D02*
D03*
Y3065480D02*
D03*
Y3192480D02*
D03*
Y3319480D02*
D03*
Y3446480D02*
D03*
Y3573480D02*
D03*
X1958980Y4384480D02*
D03*
Y4511480D02*
D03*
Y4638480D02*
D03*
Y4765480D02*
D03*
Y4892480D02*
D03*
Y5019480D02*
D03*
Y5146480D02*
D03*
Y5273480D02*
D03*
X2498980Y4384480D02*
D03*
Y4511480D02*
D03*
Y4638480D02*
D03*
Y4765480D02*
D03*
Y4892480D02*
D03*
Y5019480D02*
D03*
Y5146480D02*
D03*
Y5273480D02*
D03*
X3858980Y4384480D02*
D03*
Y4511480D02*
D03*
Y4638480D02*
D03*
Y4765480D02*
D03*
Y4892480D02*
D03*
Y5019480D02*
D03*
Y5146480D02*
D03*
Y5273480D02*
D03*
X4398980Y4384480D02*
D03*
Y4511480D02*
D03*
Y4638480D02*
D03*
Y4765480D02*
D03*
Y4892480D02*
D03*
Y5019480D02*
D03*
Y5146480D02*
D03*
Y5273480D02*
D03*
X1958980Y6084480D02*
D03*
Y6211480D02*
D03*
Y6338480D02*
D03*
Y6465480D02*
D03*
Y6592480D02*
D03*
Y6719480D02*
D03*
Y6846480D02*
D03*
Y6973480D02*
D03*
X2498980Y6084480D02*
D03*
Y6211480D02*
D03*
Y6338480D02*
D03*
Y6465480D02*
D03*
Y6592480D02*
D03*
Y6719480D02*
D03*
Y6846480D02*
D03*
Y6973480D02*
D03*
X3858980Y6084480D02*
D03*
Y6211480D02*
D03*
Y6338480D02*
D03*
Y6465480D02*
D03*
Y6592480D02*
D03*
Y6719480D02*
D03*
Y6846480D02*
D03*
Y6973480D02*
D03*
X4398980Y6084480D02*
D03*
Y6211480D02*
D03*
Y6338480D02*
D03*
Y6465480D02*
D03*
Y6592480D02*
D03*
Y6719480D02*
D03*
Y6846480D02*
D03*
Y6973480D02*
D03*
X1958980Y7784480D02*
D03*
Y7911480D02*
D03*
Y8038480D02*
D03*
Y8165480D02*
D03*
Y8292480D02*
D03*
Y8419480D02*
D03*
Y8546480D02*
D03*
Y8673480D02*
D03*
X2498980Y7784480D02*
D03*
Y7911480D02*
D03*
Y8038480D02*
D03*
Y8165480D02*
D03*
Y8292480D02*
D03*
Y8419480D02*
D03*
Y8546480D02*
D03*
Y8673480D02*
D03*
X3858980Y7784480D02*
D03*
Y7911480D02*
D03*
Y8038480D02*
D03*
Y8165480D02*
D03*
Y8292480D02*
D03*
Y8419480D02*
D03*
Y8546480D02*
D03*
Y8673480D02*
D03*
X4398980Y7784480D02*
D03*
Y7911480D02*
D03*
Y8038480D02*
D03*
Y8165480D02*
D03*
Y8292480D02*
D03*
Y8419480D02*
D03*
Y8546480D02*
D03*
Y8673480D02*
D03*
D21*
X2788248Y1799620D02*
D03*
Y1709619D02*
D03*
Y1992080D02*
D03*
Y1902080D02*
D03*
X2641440Y1992080D02*
D03*
Y1902080D02*
D03*
X4688248Y1799620D02*
D03*
Y1709619D02*
D03*
Y1992080D02*
D03*
Y1902080D02*
D03*
X4541440Y1992080D02*
D03*
Y1902080D02*
D03*
X2788248Y3499620D02*
D03*
Y3409620D02*
D03*
Y3692080D02*
D03*
Y3602080D02*
D03*
X2641440Y3692080D02*
D03*
Y3602080D02*
D03*
X4688248Y3499620D02*
D03*
Y3409620D02*
D03*
Y3692080D02*
D03*
Y3602080D02*
D03*
X4541440Y3692080D02*
D03*
Y3602080D02*
D03*
X2788248Y5199620D02*
D03*
Y5109620D02*
D03*
Y5392080D02*
D03*
Y5302080D02*
D03*
X2641440Y5392080D02*
D03*
Y5302080D02*
D03*
X4688248Y5199620D02*
D03*
Y5109620D02*
D03*
Y5392080D02*
D03*
Y5302080D02*
D03*
X4541440Y5392080D02*
D03*
Y5302080D02*
D03*
X2788248Y6899620D02*
D03*
Y6809620D02*
D03*
Y7092080D02*
D03*
Y7002080D02*
D03*
X2641440Y7092080D02*
D03*
Y7002080D02*
D03*
X4688248Y6899620D02*
D03*
Y6809620D02*
D03*
Y7092080D02*
D03*
Y7002080D02*
D03*
X4541440Y7092080D02*
D03*
Y7002080D02*
D03*
X2788248Y8599620D02*
D03*
Y8509620D02*
D03*
Y8792080D02*
D03*
Y8702080D02*
D03*
X2641440Y8792080D02*
D03*
Y8702080D02*
D03*
X4688248Y8599620D02*
D03*
Y8509620D02*
D03*
Y8792080D02*
D03*
Y8702080D02*
D03*
X4541440Y8792080D02*
D03*
Y8702080D02*
D03*
D22*
X2152840Y775500D02*
D03*
X2312840D02*
D03*
X1680340Y969240D02*
D03*
Y1129240D02*
D03*
X1816600Y1751540D02*
D03*
Y1911540D02*
D03*
X1817500Y969240D02*
D03*
Y1129240D02*
D03*
X4052840Y775500D02*
D03*
X4212840D02*
D03*
X3580340Y969240D02*
D03*
Y1129240D02*
D03*
X3716600Y1751540D02*
D03*
Y1911540D02*
D03*
X3717500Y969240D02*
D03*
Y1129240D02*
D03*
X2152840Y2475500D02*
D03*
X2312840D02*
D03*
X1680340Y2669240D02*
D03*
Y2829240D02*
D03*
X1816600Y3451540D02*
D03*
Y3611540D02*
D03*
X1817500Y2669240D02*
D03*
Y2829240D02*
D03*
X4052840Y2475500D02*
D03*
X4212840D02*
D03*
X3580340Y2669240D02*
D03*
Y2829240D02*
D03*
X3716600Y3451540D02*
D03*
Y3611540D02*
D03*
X3717500Y2669240D02*
D03*
Y2829240D02*
D03*
X2152840Y4175500D02*
D03*
X2312840D02*
D03*
X1680340Y4369240D02*
D03*
Y4529240D02*
D03*
X1816600Y5151540D02*
D03*
Y5311540D02*
D03*
X1817500Y4369240D02*
D03*
Y4529240D02*
D03*
X4052840Y4175500D02*
D03*
X4212840D02*
D03*
X3580340Y4369240D02*
D03*
Y4529240D02*
D03*
X3716600Y5151540D02*
D03*
Y5311540D02*
D03*
X3717500Y4369240D02*
D03*
Y4529240D02*
D03*
X2152840Y5875500D02*
D03*
X2312840D02*
D03*
X1680340Y6069240D02*
D03*
Y6229240D02*
D03*
X1816600Y6851540D02*
D03*
Y7011540D02*
D03*
X1817500Y6069240D02*
D03*
Y6229240D02*
D03*
X4052840Y5875500D02*
D03*
X4212840D02*
D03*
X3580340Y6069240D02*
D03*
Y6229240D02*
D03*
X3716600Y6851540D02*
D03*
Y7011540D02*
D03*
X3717500Y6069240D02*
D03*
Y6229240D02*
D03*
X2152840Y7575500D02*
D03*
X2312840D02*
D03*
X1680340Y7769240D02*
D03*
Y7929240D02*
D03*
X1816600Y8551540D02*
D03*
Y8711540D02*
D03*
X1817500Y7769240D02*
D03*
Y7929240D02*
D03*
X4052840Y7575500D02*
D03*
X4212840D02*
D03*
X3580340Y7769240D02*
D03*
Y7929240D02*
D03*
X3716600Y8551540D02*
D03*
Y8711540D02*
D03*
X3717500Y7769240D02*
D03*
Y7929240D02*
D03*
D23*
X2674904Y1127602D02*
D03*
X2834904D02*
D03*
X2674904Y849969D02*
D03*
X2834904D02*
D03*
X2674904Y988785D02*
D03*
X2834904D02*
D03*
X2674904Y1266418D02*
D03*
X2834904D02*
D03*
X1763340Y2046325D02*
D03*
X1923340D02*
D03*
X2348199D02*
D03*
X2508199D02*
D03*
X2215770D02*
D03*
X2055770D02*
D03*
X4574904Y1127602D02*
D03*
X4734904D02*
D03*
X4574904Y849969D02*
D03*
X4734904D02*
D03*
X4574904Y988785D02*
D03*
X4734904D02*
D03*
X4574904Y1266418D02*
D03*
X4734904D02*
D03*
X3663340Y2046325D02*
D03*
X3823340D02*
D03*
X4248199D02*
D03*
X4408199D02*
D03*
X4115770D02*
D03*
X3955770D02*
D03*
X2674904Y2827602D02*
D03*
X2834904D02*
D03*
X2674904Y2549969D02*
D03*
X2834904D02*
D03*
X2674904Y2688785D02*
D03*
X2834904D02*
D03*
X2674904Y2966419D02*
D03*
X2834904D02*
D03*
X1763340Y3746325D02*
D03*
X1923340D02*
D03*
X2348199D02*
D03*
X2508199D02*
D03*
X2215770D02*
D03*
X2055770D02*
D03*
X4574904Y2827602D02*
D03*
X4734904D02*
D03*
X4574904Y2549969D02*
D03*
X4734904D02*
D03*
X4574904Y2688785D02*
D03*
X4734904D02*
D03*
X4574904Y2966419D02*
D03*
X4734904D02*
D03*
X3663340Y3746325D02*
D03*
X3823340D02*
D03*
X4248199D02*
D03*
X4408199D02*
D03*
X4115770D02*
D03*
X3955770D02*
D03*
X2674904Y4527602D02*
D03*
X2834904D02*
D03*
X2674904Y4249969D02*
D03*
X2834904D02*
D03*
X2674904Y4388785D02*
D03*
X2834904D02*
D03*
X2674904Y4666419D02*
D03*
X2834904D02*
D03*
X1763340Y5446325D02*
D03*
X1923340D02*
D03*
X2348199D02*
D03*
X2508199D02*
D03*
X2215770D02*
D03*
X2055770D02*
D03*
X4574904Y4527602D02*
D03*
X4734904D02*
D03*
X4574904Y4249969D02*
D03*
X4734904D02*
D03*
X4574904Y4388785D02*
D03*
X4734904D02*
D03*
X4574904Y4666419D02*
D03*
X4734904D02*
D03*
X3663340Y5446325D02*
D03*
X3823340D02*
D03*
X4248199D02*
D03*
X4408199D02*
D03*
X4115770D02*
D03*
X3955770D02*
D03*
X2674904Y6227602D02*
D03*
X2834904D02*
D03*
X2674904Y5949969D02*
D03*
X2834904D02*
D03*
X2674904Y6088786D02*
D03*
X2834904D02*
D03*
X2674904Y6366419D02*
D03*
X2834904D02*
D03*
X1763340Y7146325D02*
D03*
X1923340D02*
D03*
X2348199D02*
D03*
X2508199D02*
D03*
X2215770D02*
D03*
X2055770D02*
D03*
X4574904Y6227602D02*
D03*
X4734904D02*
D03*
X4574904Y5949969D02*
D03*
X4734904D02*
D03*
X4574904Y6088786D02*
D03*
X4734904D02*
D03*
X4574904Y6366419D02*
D03*
X4734904D02*
D03*
X3663340Y7146325D02*
D03*
X3823340D02*
D03*
X4248199D02*
D03*
X4408199D02*
D03*
X4115770D02*
D03*
X3955770D02*
D03*
X2674904Y7927602D02*
D03*
X2834904D02*
D03*
X2674904Y7649969D02*
D03*
X2834904D02*
D03*
X2674904Y7788786D02*
D03*
X2834904D02*
D03*
X2674904Y8066419D02*
D03*
X2834904D02*
D03*
X1763340Y8846325D02*
D03*
X1923340D02*
D03*
X2348199D02*
D03*
X2508199D02*
D03*
X2215770D02*
D03*
X2055770D02*
D03*
X4574904Y7927602D02*
D03*
X4734904D02*
D03*
X4574904Y7649969D02*
D03*
X4734904D02*
D03*
X4574904Y7788786D02*
D03*
X4734904D02*
D03*
X4574904Y8066419D02*
D03*
X4734904D02*
D03*
X3663340Y8846325D02*
D03*
X3823340D02*
D03*
X4248199D02*
D03*
X4408199D02*
D03*
X4115770D02*
D03*
X3955770D02*
D03*
D24*
X2019111Y1106730D02*
X2152840Y973000D01*
Y740793D02*
Y973000D01*
X1958980Y1111480D02*
X1963730Y1106730D01*
X2019111D01*
X2834904Y1266418D02*
X3016921D01*
X3065182Y1314679D02*
X3248800D01*
X3016921Y1266418D02*
X3065182Y1314679D01*
X3248800D02*
X3248800Y1314680D01*
X2636254Y1305069D02*
Y1492480D01*
Y1305069D02*
X2674904Y1266418D01*
X2498980Y1492480D02*
X2636254D01*
Y1678653D01*
X2757220Y1799620D01*
X2788248D01*
X2827348D01*
X2783169Y1897000D02*
X2788248Y1902080D01*
X2744959Y1897000D02*
X2783169D01*
X2788248Y1902080D02*
X2793988Y1896340D01*
X2985640D02*
X2986300Y1897000D01*
X2793988Y1896340D02*
X2985640D01*
X2827348Y1799620D02*
X2859728Y1832000D01*
X1795033Y2225500D02*
X1977800D01*
X1763340Y2193807D02*
X1795033Y2225500D01*
X2477800Y2076724D02*
X2508199Y2046325D01*
X2477800Y2076724D02*
Y2225500D01*
X1958980Y1746480D02*
X2019150D01*
X2215770Y1943100D02*
Y2046325D01*
X2019150Y1746480D02*
X2215770Y1943100D01*
X2468179Y1684308D02*
X2532267D01*
X2413966Y1630095D02*
X2468179Y1684308D01*
X2532267D02*
X2744959Y1897000D01*
X2859728Y1832000D02*
X2986300D01*
X1680340Y969240D02*
X1817500D01*
X1832740Y984480D01*
X1958980D01*
X1735356Y1751540D02*
X1816600D01*
X2055770Y1965042D02*
Y2046325D01*
X2413966Y1427634D02*
X2476121Y1365480D01*
X2413966Y1427634D02*
Y1630095D01*
X1939600Y1932179D02*
Y2030065D01*
Y1892860D02*
Y1932179D01*
X1572215Y862209D02*
X1658924Y775500D01*
X1572215Y1086526D02*
X1614928Y1129240D01*
X1572215Y862209D02*
Y1086526D01*
X1614928Y1129240D02*
X1680340D01*
X1658924Y775500D02*
X1977800D01*
X1816600Y1911540D02*
X1837239Y1932179D01*
X1939600D01*
X1923340Y2046325D02*
X1939600Y2030065D01*
Y1892860D02*
X1958980Y1873480D01*
X1817500Y1129240D02*
Y1210842D01*
X2476121Y1365480D02*
X2498980D01*
X1763340Y2046325D02*
Y2193807D01*
X2215770Y2046325D02*
X2348199D01*
X1958980Y1619480D02*
X2045616D01*
X3919111Y1106730D02*
X4052840Y973000D01*
Y740793D02*
Y973000D01*
X3858980Y1111480D02*
X3863730Y1106730D01*
X3919111D01*
X4734904Y1266418D02*
X4916921D01*
X4965182Y1314679D02*
X5148800D01*
X4916921Y1266418D02*
X4965182Y1314679D01*
X5148800D02*
X5148800Y1314680D01*
X4536254Y1305069D02*
Y1492480D01*
Y1305069D02*
X4574904Y1266418D01*
X4398980Y1492480D02*
X4536254D01*
Y1678653D01*
X4657220Y1799620D01*
X4688248D01*
X4727348D01*
X4683169Y1897000D02*
X4688248Y1902080D01*
X4644959Y1897000D02*
X4683169D01*
X4688248Y1902080D02*
X4693988Y1896340D01*
X4885640D02*
X4886300Y1897000D01*
X4693988Y1896340D02*
X4885640D01*
X4727348Y1799620D02*
X4759728Y1832000D01*
X3695033Y2225500D02*
X3877800D01*
X3663340Y2193807D02*
X3695033Y2225500D01*
X4377800Y2076724D02*
X4408199Y2046325D01*
X4377800Y2076724D02*
Y2225500D01*
X3858980Y1746480D02*
X3919150D01*
X4115770Y1943100D02*
Y2046325D01*
X3919150Y1746480D02*
X4115770Y1943100D01*
X4368179Y1684308D02*
X4432267D01*
X4313966Y1630095D02*
X4368179Y1684308D01*
X4432267D02*
X4644959Y1897000D01*
X4759728Y1832000D02*
X4886300D01*
X3580340Y969240D02*
X3717500D01*
X3732740Y984480D01*
X3858980D01*
X3635356Y1751540D02*
X3716600D01*
X3955770Y1965042D02*
Y2046325D01*
X4313966Y1427634D02*
X4376121Y1365480D01*
X4313966Y1427634D02*
Y1630095D01*
X3839600Y1932179D02*
Y2030065D01*
Y1892860D02*
Y1932179D01*
X3472215Y862209D02*
X3558924Y775500D01*
X3472215Y1086526D02*
X3514928Y1129240D01*
X3472215Y862209D02*
Y1086526D01*
X3514928Y1129240D02*
X3580340D01*
X3558924Y775500D02*
X3877800D01*
X3716600Y1911540D02*
X3737239Y1932179D01*
X3839600D01*
X3823340Y2046325D02*
X3839600Y2030065D01*
Y1892860D02*
X3858980Y1873480D01*
X3717500Y1129240D02*
Y1210842D01*
X4376121Y1365480D02*
X4398980D01*
X3663340Y2046325D02*
Y2193807D01*
X4115770Y2046325D02*
X4248199D01*
X3858980Y1619480D02*
X3945616D01*
X2019111Y2806730D02*
X2152840Y2673000D01*
Y2440793D02*
Y2673000D01*
X1958980Y2811480D02*
X1963730Y2806730D01*
X2019111D01*
X2834904Y2966419D02*
X3016921D01*
X3065182Y3014680D02*
X3248800D01*
X3016921Y2966419D02*
X3065182Y3014680D01*
X3248800D02*
X3248800Y3014680D01*
X2636254Y3005069D02*
Y3192480D01*
Y3005069D02*
X2674904Y2966419D01*
X2498980Y3192480D02*
X2636254D01*
Y3378653D01*
X2757220Y3499620D01*
X2788248D01*
X2827348D01*
X2783169Y3597000D02*
X2788248Y3602080D01*
X2744959Y3597000D02*
X2783169D01*
X2788248Y3602080D02*
X2793988Y3596340D01*
X2985640D02*
X2986300Y3597000D01*
X2793988Y3596340D02*
X2985640D01*
X2827348Y3499620D02*
X2859728Y3532000D01*
X1795033Y3925500D02*
X1977800D01*
X1763340Y3893807D02*
X1795033Y3925500D01*
X2477800Y3776724D02*
X2508199Y3746325D01*
X2477800Y3776724D02*
Y3925500D01*
X1958980Y3446480D02*
X2019150D01*
X2215770Y3643100D02*
Y3746325D01*
X2019150Y3446480D02*
X2215770Y3643100D01*
X2468179Y3384308D02*
X2532267D01*
X2413966Y3330095D02*
X2468179Y3384308D01*
X2532267D02*
X2744959Y3597000D01*
X2859728Y3532000D02*
X2986300D01*
X1680340Y2669240D02*
X1817500D01*
X1832740Y2684480D01*
X1958980D01*
X1735356Y3451540D02*
X1816600D01*
X2055770Y3665042D02*
Y3746325D01*
X2413966Y3127634D02*
X2476121Y3065480D01*
X2413966Y3127634D02*
Y3330095D01*
X1939600Y3632179D02*
Y3730065D01*
Y3592860D02*
Y3632179D01*
X1572215Y2562210D02*
X1658924Y2475500D01*
X1572215Y2786526D02*
X1614928Y2829240D01*
X1572215Y2562210D02*
Y2786526D01*
X1614928Y2829240D02*
X1680340D01*
X1658924Y2475500D02*
X1977800D01*
X1816600Y3611540D02*
X1837239Y3632179D01*
X1939600D01*
X1923340Y3746325D02*
X1939600Y3730065D01*
Y3592860D02*
X1958980Y3573480D01*
X1817500Y2829240D02*
Y2910842D01*
X2476121Y3065480D02*
X2498980D01*
X1763340Y3746325D02*
Y3893807D01*
X2215770Y3746325D02*
X2348199D01*
X1958980Y3319480D02*
X2045616D01*
X3919111Y2806730D02*
X4052840Y2673000D01*
Y2440793D02*
Y2673000D01*
X3858980Y2811480D02*
X3863730Y2806730D01*
X3919111D01*
X4734904Y2966419D02*
X4916921D01*
X4965182Y3014680D02*
X5148800D01*
X4916921Y2966419D02*
X4965182Y3014680D01*
X5148800D02*
X5148800Y3014680D01*
X4536254Y3005069D02*
Y3192480D01*
Y3005069D02*
X4574904Y2966419D01*
X4398980Y3192480D02*
X4536254D01*
Y3378653D01*
X4657220Y3499620D01*
X4688248D01*
X4727348D01*
X4683169Y3597000D02*
X4688248Y3602080D01*
X4644959Y3597000D02*
X4683169D01*
X4688248Y3602080D02*
X4693988Y3596340D01*
X4885640D02*
X4886300Y3597000D01*
X4693988Y3596340D02*
X4885640D01*
X4727348Y3499620D02*
X4759728Y3532000D01*
X3695033Y3925500D02*
X3877800D01*
X3663340Y3893807D02*
X3695033Y3925500D01*
X4377800Y3776724D02*
X4408199Y3746325D01*
X4377800Y3776724D02*
Y3925500D01*
X3858980Y3446480D02*
X3919150D01*
X4115770Y3643100D02*
Y3746325D01*
X3919150Y3446480D02*
X4115770Y3643100D01*
X4368179Y3384308D02*
X4432267D01*
X4313966Y3330095D02*
X4368179Y3384308D01*
X4432267D02*
X4644959Y3597000D01*
X4759728Y3532000D02*
X4886300D01*
X3580340Y2669240D02*
X3717500D01*
X3732740Y2684480D01*
X3858980D01*
X3635356Y3451540D02*
X3716600D01*
X3955770Y3665042D02*
Y3746325D01*
X4313966Y3127634D02*
X4376121Y3065480D01*
X4313966Y3127634D02*
Y3330095D01*
X3839600Y3632179D02*
Y3730065D01*
Y3592860D02*
Y3632179D01*
X3472215Y2562210D02*
X3558924Y2475500D01*
X3472215Y2786526D02*
X3514928Y2829240D01*
X3472215Y2562210D02*
Y2786526D01*
X3514928Y2829240D02*
X3580340D01*
X3558924Y2475500D02*
X3877800D01*
X3716600Y3611540D02*
X3737239Y3632179D01*
X3839600D01*
X3823340Y3746325D02*
X3839600Y3730065D01*
Y3592860D02*
X3858980Y3573480D01*
X3717500Y2829240D02*
Y2910842D01*
X4376121Y3065480D02*
X4398980D01*
X3663340Y3746325D02*
Y3893807D01*
X4115770Y3746325D02*
X4248199D01*
X3858980Y3319480D02*
X3945616D01*
X2019111Y4506730D02*
X2152840Y4373000D01*
Y4140793D02*
Y4373000D01*
X1958980Y4511480D02*
X1963730Y4506730D01*
X2019111D01*
X2834904Y4666419D02*
X3016921D01*
X3065182Y4714680D02*
X3248800D01*
X3016921Y4666419D02*
X3065182Y4714680D01*
X3248800D02*
X3248800Y4714680D01*
X2636254Y4705069D02*
Y4892480D01*
Y4705069D02*
X2674904Y4666419D01*
X2498980Y4892480D02*
X2636254D01*
Y5078654D01*
X2757220Y5199620D01*
X2788248D01*
X2827348D01*
X2783169Y5297000D02*
X2788248Y5302080D01*
X2744959Y5297000D02*
X2783169D01*
X2788248Y5302080D02*
X2793988Y5296340D01*
X2985640D02*
X2986300Y5297000D01*
X2793988Y5296340D02*
X2985640D01*
X2827348Y5199620D02*
X2859728Y5232000D01*
X1795033Y5625500D02*
X1977800D01*
X1763340Y5593807D02*
X1795033Y5625500D01*
X2477800Y5476725D02*
X2508199Y5446325D01*
X2477800Y5476725D02*
Y5625500D01*
X1958980Y5146480D02*
X2019150D01*
X2215770Y5343100D02*
Y5446325D01*
X2019150Y5146480D02*
X2215770Y5343100D01*
X2468179Y5084308D02*
X2532267D01*
X2413966Y5030095D02*
X2468179Y5084308D01*
X2532267D02*
X2744959Y5297000D01*
X2859728Y5232000D02*
X2986300D01*
X1680340Y4369240D02*
X1817500D01*
X1832740Y4384480D01*
X1958980D01*
X1735356Y5151540D02*
X1816600D01*
X2055770Y5365043D02*
Y5446325D01*
X2413966Y4827634D02*
X2476121Y4765480D01*
X2413966Y4827634D02*
Y5030095D01*
X1939600Y5332180D02*
Y5430065D01*
Y5292860D02*
Y5332180D01*
X1572215Y4262210D02*
X1658924Y4175500D01*
X1572215Y4486526D02*
X1614928Y4529240D01*
X1572215Y4262210D02*
Y4486526D01*
X1614928Y4529240D02*
X1680340D01*
X1658924Y4175500D02*
X1977800D01*
X1816600Y5311540D02*
X1837239Y5332180D01*
X1939600D01*
X1923340Y5446325D02*
X1939600Y5430065D01*
Y5292860D02*
X1958980Y5273480D01*
X1817500Y4529240D02*
Y4610842D01*
X2476121Y4765480D02*
X2498980D01*
X1763340Y5446325D02*
Y5593807D01*
X2215770Y5446325D02*
X2348199D01*
X1958980Y5019480D02*
X2045616D01*
X3919111Y4506730D02*
X4052840Y4373000D01*
Y4140793D02*
Y4373000D01*
X3858980Y4511480D02*
X3863730Y4506730D01*
X3919111D01*
X4734904Y4666419D02*
X4916921D01*
X4965182Y4714680D02*
X5148800D01*
X4916921Y4666419D02*
X4965182Y4714680D01*
X5148800D02*
X5148800Y4714680D01*
X4536254Y4705069D02*
Y4892480D01*
Y4705069D02*
X4574904Y4666419D01*
X4398980Y4892480D02*
X4536254D01*
Y5078654D01*
X4657220Y5199620D01*
X4688248D01*
X4727348D01*
X4683169Y5297000D02*
X4688248Y5302080D01*
X4644959Y5297000D02*
X4683169D01*
X4688248Y5302080D02*
X4693988Y5296340D01*
X4885640D02*
X4886300Y5297000D01*
X4693988Y5296340D02*
X4885640D01*
X4727348Y5199620D02*
X4759728Y5232000D01*
X3695033Y5625500D02*
X3877800D01*
X3663340Y5593807D02*
X3695033Y5625500D01*
X4377800Y5476725D02*
X4408199Y5446325D01*
X4377800Y5476725D02*
Y5625500D01*
X3858980Y5146480D02*
X3919150D01*
X4115770Y5343100D02*
Y5446325D01*
X3919150Y5146480D02*
X4115770Y5343100D01*
X4368179Y5084308D02*
X4432267D01*
X4313966Y5030095D02*
X4368179Y5084308D01*
X4432267D02*
X4644959Y5297000D01*
X4759728Y5232000D02*
X4886300D01*
X3580340Y4369240D02*
X3717500D01*
X3732740Y4384480D01*
X3858980D01*
X3635356Y5151540D02*
X3716600D01*
X3955770Y5365043D02*
Y5446325D01*
X4313966Y4827634D02*
X4376121Y4765480D01*
X4313966Y4827634D02*
Y5030095D01*
X3839600Y5332180D02*
Y5430065D01*
Y5292860D02*
Y5332180D01*
X3472215Y4262210D02*
X3558924Y4175500D01*
X3472215Y4486526D02*
X3514928Y4529240D01*
X3472215Y4262210D02*
Y4486526D01*
X3514928Y4529240D02*
X3580340D01*
X3558924Y4175500D02*
X3877800D01*
X3716600Y5311540D02*
X3737239Y5332180D01*
X3839600D01*
X3823340Y5446325D02*
X3839600Y5430065D01*
Y5292860D02*
X3858980Y5273480D01*
X3717500Y4529240D02*
Y4610842D01*
X4376121Y4765480D02*
X4398980D01*
X3663340Y5446325D02*
Y5593807D01*
X4115770Y5446325D02*
X4248199D01*
X3858980Y5019480D02*
X3945616D01*
X2019111Y6206730D02*
X2152840Y6073001D01*
Y5840793D02*
Y6073001D01*
X1958980Y6211480D02*
X1963730Y6206730D01*
X2019111D01*
X2834904Y6366419D02*
X3016921D01*
X3065182Y6414680D02*
X3248800D01*
X3016921Y6366419D02*
X3065182Y6414680D01*
X3248800D02*
X3248800Y6414680D01*
X2636254Y6405069D02*
Y6592480D01*
Y6405069D02*
X2674904Y6366419D01*
X2498980Y6592480D02*
X2636254D01*
Y6778654D01*
X2757220Y6899620D01*
X2788248D01*
X2827348D01*
X2783169Y6997000D02*
X2788248Y7002080D01*
X2744959Y6997000D02*
X2783169D01*
X2788248Y7002080D02*
X2793988Y6996340D01*
X2985640D02*
X2986300Y6997000D01*
X2793988Y6996340D02*
X2985640D01*
X2827348Y6899620D02*
X2859728Y6932000D01*
X1795033Y7325500D02*
X1977800D01*
X1763340Y7293807D02*
X1795033Y7325500D01*
X2477800Y7176725D02*
X2508199Y7146325D01*
X2477800Y7176725D02*
Y7325500D01*
X1958980Y6846480D02*
X2019150D01*
X2215770Y7043100D02*
Y7146325D01*
X2019150Y6846480D02*
X2215770Y7043100D01*
X2468179Y6784308D02*
X2532267D01*
X2413966Y6730095D02*
X2468179Y6784308D01*
X2532267D02*
X2744959Y6997000D01*
X2859728Y6932000D02*
X2986300D01*
X1680340Y6069240D02*
X1817500D01*
X1832740Y6084480D01*
X1958980D01*
X1735356Y6851540D02*
X1816600D01*
X2055770Y7065043D02*
Y7146325D01*
X2413966Y6527634D02*
X2476121Y6465480D01*
X2413966Y6527634D02*
Y6730095D01*
X1939600Y7032180D02*
Y7130065D01*
Y6992860D02*
Y7032180D01*
X1572215Y5962210D02*
X1658924Y5875500D01*
X1572215Y6186526D02*
X1614928Y6229240D01*
X1572215Y5962210D02*
Y6186526D01*
X1614928Y6229240D02*
X1680340D01*
X1658924Y5875500D02*
X1977800D01*
X1816600Y7011540D02*
X1837239Y7032180D01*
X1939600D01*
X1923340Y7146325D02*
X1939600Y7130065D01*
Y6992860D02*
X1958980Y6973480D01*
X1817500Y6229240D02*
Y6310843D01*
X2476121Y6465480D02*
X2498980D01*
X1763340Y7146325D02*
Y7293807D01*
X2215770Y7146325D02*
X2348199D01*
X1958980Y6719480D02*
X2045616D01*
X3919111Y6206730D02*
X4052840Y6073001D01*
Y5840793D02*
Y6073001D01*
X3858980Y6211480D02*
X3863730Y6206730D01*
X3919111D01*
X4734904Y6366419D02*
X4916921D01*
X4965182Y6414680D02*
X5148800D01*
X4916921Y6366419D02*
X4965182Y6414680D01*
X5148800D02*
X5148800Y6414680D01*
X4536254Y6405069D02*
Y6592480D01*
Y6405069D02*
X4574904Y6366419D01*
X4398980Y6592480D02*
X4536254D01*
Y6778654D01*
X4657220Y6899620D01*
X4688248D01*
X4727348D01*
X4683169Y6997000D02*
X4688248Y7002080D01*
X4644959Y6997000D02*
X4683169D01*
X4688248Y7002080D02*
X4693988Y6996340D01*
X4885640D02*
X4886300Y6997000D01*
X4693988Y6996340D02*
X4885640D01*
X4727348Y6899620D02*
X4759728Y6932000D01*
X3695033Y7325500D02*
X3877800D01*
X3663340Y7293807D02*
X3695033Y7325500D01*
X4377800Y7176725D02*
X4408199Y7146325D01*
X4377800Y7176725D02*
Y7325500D01*
X3858980Y6846480D02*
X3919150D01*
X4115770Y7043100D02*
Y7146325D01*
X3919150Y6846480D02*
X4115770Y7043100D01*
X4368179Y6784308D02*
X4432267D01*
X4313966Y6730095D02*
X4368179Y6784308D01*
X4432267D02*
X4644959Y6997000D01*
X4759728Y6932000D02*
X4886300D01*
X3580340Y6069240D02*
X3717500D01*
X3732740Y6084480D01*
X3858980D01*
X3635356Y6851540D02*
X3716600D01*
X3955770Y7065043D02*
Y7146325D01*
X4313966Y6527634D02*
X4376121Y6465480D01*
X4313966Y6527634D02*
Y6730095D01*
X3839600Y7032180D02*
Y7130065D01*
Y6992860D02*
Y7032180D01*
X3472215Y5962210D02*
X3558924Y5875500D01*
X3472215Y6186526D02*
X3514928Y6229240D01*
X3472215Y5962210D02*
Y6186526D01*
X3514928Y6229240D02*
X3580340D01*
X3558924Y5875500D02*
X3877800D01*
X3716600Y7011540D02*
X3737239Y7032180D01*
X3839600D01*
X3823340Y7146325D02*
X3839600Y7130065D01*
Y6992860D02*
X3858980Y6973480D01*
X3717500Y6229240D02*
Y6310843D01*
X4376121Y6465480D02*
X4398980D01*
X3663340Y7146325D02*
Y7293807D01*
X4115770Y7146325D02*
X4248199D01*
X3858980Y6719480D02*
X3945616D01*
X2019111Y7906730D02*
X2152840Y7773001D01*
Y7540793D02*
Y7773001D01*
X1958980Y7911480D02*
X1963730Y7906730D01*
X2019111D01*
X2834904Y8066419D02*
X3016921D01*
X3065182Y8114680D02*
X3248800D01*
X3016921Y8066419D02*
X3065182Y8114680D01*
X3248800D02*
X3248800Y8114680D01*
X2636254Y8105069D02*
Y8292480D01*
Y8105069D02*
X2674904Y8066419D01*
X2498980Y8292480D02*
X2636254D01*
Y8478654D01*
X2757220Y8599620D01*
X2788248D01*
X2827348D01*
X2783169Y8697000D02*
X2788248Y8702080D01*
X2744959Y8697000D02*
X2783169D01*
X2788248Y8702080D02*
X2793988Y8696340D01*
X2985640D02*
X2986300Y8697000D01*
X2793988Y8696340D02*
X2985640D01*
X2827348Y8599620D02*
X2859728Y8632000D01*
X1795033Y9025500D02*
X1977800D01*
X1763340Y8993808D02*
X1795033Y9025500D01*
X2477800Y8876725D02*
X2508199Y8846325D01*
X2477800Y8876725D02*
Y9025500D01*
X1958980Y8546480D02*
X2019150D01*
X2215770Y8743100D02*
Y8846325D01*
X2019150Y8546480D02*
X2215770Y8743100D01*
X2468179Y8484308D02*
X2532267D01*
X2413966Y8430095D02*
X2468179Y8484308D01*
X2532267D02*
X2744959Y8697000D01*
X2859728Y8632000D02*
X2986300D01*
X1680340Y7769240D02*
X1817500D01*
X1832740Y7784480D01*
X1958980D01*
X1735356Y8551540D02*
X1816600D01*
X2055770Y8765043D02*
Y8846325D01*
X2413966Y8227634D02*
X2476121Y8165480D01*
X2413966Y8227634D02*
Y8430095D01*
X1939600Y8732180D02*
Y8830065D01*
Y8692860D02*
Y8732180D01*
X1572215Y7662210D02*
X1658924Y7575500D01*
X1572215Y7886527D02*
X1614928Y7929240D01*
X1572215Y7662210D02*
Y7886527D01*
X1614928Y7929240D02*
X1680340D01*
X1658924Y7575500D02*
X1977800D01*
X1816600Y8711540D02*
X1837239Y8732180D01*
X1939600D01*
X1923340Y8846325D02*
X1939600Y8830065D01*
Y8692860D02*
X1958980Y8673480D01*
X1817500Y7929240D02*
Y8010843D01*
X2476121Y8165480D02*
X2498980D01*
X1763340Y8846325D02*
Y8993808D01*
X2215770Y8846325D02*
X2348199D01*
X1958980Y8419480D02*
X2045616D01*
X3919111Y7906730D02*
X4052840Y7773001D01*
Y7540793D02*
Y7773001D01*
X3858980Y7911480D02*
X3863730Y7906730D01*
X3919111D01*
X4734904Y8066419D02*
X4916921D01*
X4965182Y8114680D02*
X5148800D01*
X4916921Y8066419D02*
X4965182Y8114680D01*
X5148800D02*
X5148800Y8114680D01*
X4536254Y8105069D02*
Y8292480D01*
Y8105069D02*
X4574904Y8066419D01*
X4398980Y8292480D02*
X4536254D01*
Y8478654D01*
X4657220Y8599620D01*
X4688248D01*
X4727348D01*
X4683169Y8697000D02*
X4688248Y8702080D01*
X4644959Y8697000D02*
X4683169D01*
X4688248Y8702080D02*
X4693988Y8696340D01*
X4885640D02*
X4886300Y8697000D01*
X4693988Y8696340D02*
X4885640D01*
X4727348Y8599620D02*
X4759728Y8632000D01*
X3695033Y9025500D02*
X3877800D01*
X3663340Y8993808D02*
X3695033Y9025500D01*
X4377800Y8876725D02*
X4408199Y8846325D01*
X4377800Y8876725D02*
Y9025500D01*
X3858980Y8546480D02*
X3919150D01*
X4115770Y8743100D02*
Y8846325D01*
X3919150Y8546480D02*
X4115770Y8743100D01*
X4368179Y8484308D02*
X4432267D01*
X4313966Y8430095D02*
X4368179Y8484308D01*
X4432267D02*
X4644959Y8697000D01*
X4759728Y8632000D02*
X4886300D01*
X3580340Y7769240D02*
X3717500D01*
X3732740Y7784480D01*
X3858980D01*
X3635356Y8551540D02*
X3716600D01*
X3955770Y8765043D02*
Y8846325D01*
X4313966Y8227634D02*
X4376121Y8165480D01*
X4313966Y8227634D02*
Y8430095D01*
X3839600Y8732180D02*
Y8830065D01*
Y8692860D02*
Y8732180D01*
X3472215Y7662210D02*
X3558924Y7575500D01*
X3472215Y7886527D02*
X3514928Y7929240D01*
X3472215Y7662210D02*
Y7886527D01*
X3514928Y7929240D02*
X3580340D01*
X3558924Y7575500D02*
X3877800D01*
X3716600Y8711540D02*
X3737239Y8732180D01*
X3839600D01*
X3823340Y8846325D02*
X3839600Y8830065D01*
Y8692860D02*
X3858980Y8673480D01*
X3717500Y7929240D02*
Y8010843D01*
X4376121Y8165480D02*
X4398980D01*
X3663340Y8846325D02*
Y8993808D01*
X4115770Y8846325D02*
X4248199D01*
X3858980Y8419480D02*
X3945616D01*
D25*
X2712284Y951405D02*
X2728147D01*
X2754904Y914131D02*
Y924648D01*
X2728147Y951405D02*
X2754904Y924648D01*
X2781686Y887349D02*
X2797524D01*
X2754904Y914131D02*
X2781686Y887349D01*
X2674904Y988785D02*
X2712284Y951405D01*
X2674904Y988785D02*
X2679209Y984480D01*
X2498980Y1111480D02*
X2658782D01*
X2674904Y1127602D01*
X2498980Y984480D02*
X2679209D01*
X2834904Y849969D02*
X3021746D01*
X3232457Y1060680D01*
X2797524Y887349D02*
X2834904Y849969D01*
X2350221Y812880D02*
X2377141D01*
X2414229Y849969D02*
X2674904D01*
X2377141Y812880D02*
X2414229Y849969D01*
X2312840Y775500D02*
X2350221Y812880D01*
X2359363Y1831117D02*
X2480777Y1952532D01*
X2567569D02*
X2594737Y1979700D01*
X2480777Y1952532D02*
X2567569D01*
X2359363Y1190906D02*
Y1831117D01*
X2438789Y1111480D02*
X2498980D01*
X2359363Y1190906D02*
X2438789Y1111480D01*
X2641140Y1992380D02*
X2641440Y1992080D01*
X2641140Y1992380D02*
Y2112860D01*
X2629060Y1979700D02*
X2641440Y1992080D01*
X2838421Y2025039D02*
Y2075579D01*
X2901461Y1962000D02*
X2986300D01*
X2838421Y2025039D02*
X2901461Y1962000D01*
X2801140Y2112860D02*
X2838421Y2075579D01*
X2594737Y1979700D02*
X2629060D01*
X3232457Y1060680D02*
X3248800D01*
X4612284Y951405D02*
X4628147D01*
X4654904Y914131D02*
Y924648D01*
X4628147Y951405D02*
X4654904Y924648D01*
X4681686Y887349D02*
X4697524D01*
X4654904Y914131D02*
X4681686Y887349D01*
X4574904Y988785D02*
X4612284Y951405D01*
X4574904Y988785D02*
X4579209Y984480D01*
X4398980Y1111480D02*
X4558782D01*
X4574904Y1127602D01*
X4398980Y984480D02*
X4579209D01*
X4734904Y849969D02*
X4921746D01*
X5132457Y1060680D01*
X4697524Y887349D02*
X4734904Y849969D01*
X4250221Y812880D02*
X4277141D01*
X4314229Y849969D02*
X4574904D01*
X4277141Y812880D02*
X4314229Y849969D01*
X4212840Y775500D02*
X4250221Y812880D01*
X4259363Y1831117D02*
X4380777Y1952532D01*
X4467569D02*
X4494737Y1979700D01*
X4380777Y1952532D02*
X4467569D01*
X4259363Y1190906D02*
Y1831117D01*
X4338789Y1111480D02*
X4398980D01*
X4259363Y1190906D02*
X4338789Y1111480D01*
X4541140Y1992380D02*
X4541440Y1992080D01*
X4541140Y1992380D02*
Y2112860D01*
X4529060Y1979700D02*
X4541440Y1992080D01*
X4738421Y2025039D02*
Y2075579D01*
X4801461Y1962000D02*
X4886300D01*
X4738421Y2025039D02*
X4801461Y1962000D01*
X4701140Y2112860D02*
X4738421Y2075579D01*
X4494737Y1979700D02*
X4529060D01*
X5132457Y1060680D02*
X5148800D01*
X2712284Y2651405D02*
X2728147D01*
X2754904Y2614131D02*
Y2624649D01*
X2728147Y2651405D02*
X2754904Y2624649D01*
X2781686Y2587349D02*
X2797524D01*
X2754904Y2614131D02*
X2781686Y2587349D01*
X2674904Y2688785D02*
X2712284Y2651405D01*
X2674904Y2688785D02*
X2679209Y2684480D01*
X2498980Y2811480D02*
X2658782D01*
X2674904Y2827602D01*
X2498980Y2684480D02*
X2679209D01*
X2834904Y2549969D02*
X3021746D01*
X3232457Y2760680D01*
X2797524Y2587349D02*
X2834904Y2549969D01*
X2350221Y2512880D02*
X2377141D01*
X2414229Y2549969D02*
X2674904D01*
X2377141Y2512880D02*
X2414229Y2549969D01*
X2312840Y2475500D02*
X2350221Y2512880D01*
X2359363Y3531117D02*
X2480777Y3652532D01*
X2567569D02*
X2594737Y3679700D01*
X2480777Y3652532D02*
X2567569D01*
X2359363Y2890906D02*
Y3531117D01*
X2438789Y2811480D02*
X2498980D01*
X2359363Y2890906D02*
X2438789Y2811480D01*
X2641140Y3692380D02*
X2641440Y3692080D01*
X2641140Y3692380D02*
Y3812860D01*
X2629060Y3679700D02*
X2641440Y3692080D01*
X2838421Y3725040D02*
Y3775579D01*
X2901461Y3662000D02*
X2986300D01*
X2838421Y3725040D02*
X2901461Y3662000D01*
X2801140Y3812860D02*
X2838421Y3775579D01*
X2594737Y3679700D02*
X2629060D01*
X3232457Y2760680D02*
X3248800D01*
X4612284Y2651405D02*
X4628147D01*
X4654904Y2614131D02*
Y2624649D01*
X4628147Y2651405D02*
X4654904Y2624649D01*
X4681686Y2587349D02*
X4697524D01*
X4654904Y2614131D02*
X4681686Y2587349D01*
X4574904Y2688785D02*
X4612284Y2651405D01*
X4574904Y2688785D02*
X4579209Y2684480D01*
X4398980Y2811480D02*
X4558782D01*
X4574904Y2827602D01*
X4398980Y2684480D02*
X4579209D01*
X4734904Y2549969D02*
X4921746D01*
X5132457Y2760680D01*
X4697524Y2587349D02*
X4734904Y2549969D01*
X4250221Y2512880D02*
X4277141D01*
X4314229Y2549969D02*
X4574904D01*
X4277141Y2512880D02*
X4314229Y2549969D01*
X4212840Y2475500D02*
X4250221Y2512880D01*
X4259363Y3531117D02*
X4380777Y3652532D01*
X4467569D02*
X4494737Y3679700D01*
X4380777Y3652532D02*
X4467569D01*
X4259363Y2890906D02*
Y3531117D01*
X4338789Y2811480D02*
X4398980D01*
X4259363Y2890906D02*
X4338789Y2811480D01*
X4541140Y3692380D02*
X4541440Y3692080D01*
X4541140Y3692380D02*
Y3812860D01*
X4529060Y3679700D02*
X4541440Y3692080D01*
X4738421Y3725040D02*
Y3775579D01*
X4801461Y3662000D02*
X4886300D01*
X4738421Y3725040D02*
X4801461Y3662000D01*
X4701140Y3812860D02*
X4738421Y3775579D01*
X4494737Y3679700D02*
X4529060D01*
X5132457Y2760680D02*
X5148800D01*
X2712284Y4351405D02*
X2728147D01*
X2754904Y4314131D02*
Y4324649D01*
X2728147Y4351405D02*
X2754904Y4324649D01*
X2781686Y4287349D02*
X2797524D01*
X2754904Y4314131D02*
X2781686Y4287349D01*
X2674904Y4388785D02*
X2712284Y4351405D01*
X2674904Y4388785D02*
X2679209Y4384480D01*
X2498980Y4511480D02*
X2658782D01*
X2674904Y4527602D01*
X2498980Y4384480D02*
X2679209D01*
X2834904Y4249969D02*
X3021746D01*
X3232457Y4460680D01*
X2797524Y4287349D02*
X2834904Y4249969D01*
X2350221Y4212880D02*
X2377141D01*
X2414229Y4249969D02*
X2674904D01*
X2377141Y4212880D02*
X2414229Y4249969D01*
X2312840Y4175500D02*
X2350221Y4212880D01*
X2359363Y5231118D02*
X2480777Y5352532D01*
X2567569D02*
X2594737Y5379700D01*
X2480777Y5352532D02*
X2567569D01*
X2359363Y4590906D02*
Y5231118D01*
X2438789Y4511480D02*
X2498980D01*
X2359363Y4590906D02*
X2438789Y4511480D01*
X2641140Y5392380D02*
X2641440Y5392080D01*
X2641140Y5392380D02*
Y5512860D01*
X2629060Y5379700D02*
X2641440Y5392080D01*
X2838421Y5425040D02*
Y5475579D01*
X2901461Y5362000D02*
X2986300D01*
X2838421Y5425040D02*
X2901461Y5362000D01*
X2801140Y5512860D02*
X2838421Y5475579D01*
X2594737Y5379700D02*
X2629060D01*
X3232457Y4460680D02*
X3248800D01*
X4612284Y4351405D02*
X4628147D01*
X4654904Y4314131D02*
Y4324649D01*
X4628147Y4351405D02*
X4654904Y4324649D01*
X4681686Y4287349D02*
X4697524D01*
X4654904Y4314131D02*
X4681686Y4287349D01*
X4574904Y4388785D02*
X4612284Y4351405D01*
X4574904Y4388785D02*
X4579209Y4384480D01*
X4398980Y4511480D02*
X4558782D01*
X4574904Y4527602D01*
X4398980Y4384480D02*
X4579209D01*
X4734904Y4249969D02*
X4921746D01*
X5132457Y4460680D01*
X4697524Y4287349D02*
X4734904Y4249969D01*
X4250221Y4212880D02*
X4277141D01*
X4314229Y4249969D02*
X4574904D01*
X4277141Y4212880D02*
X4314229Y4249969D01*
X4212840Y4175500D02*
X4250221Y4212880D01*
X4259363Y5231118D02*
X4380777Y5352532D01*
X4467569D02*
X4494737Y5379700D01*
X4380777Y5352532D02*
X4467569D01*
X4259363Y4590906D02*
Y5231118D01*
X4338789Y4511480D02*
X4398980D01*
X4259363Y4590906D02*
X4338789Y4511480D01*
X4541140Y5392380D02*
X4541440Y5392080D01*
X4541140Y5392380D02*
Y5512860D01*
X4529060Y5379700D02*
X4541440Y5392080D01*
X4738421Y5425040D02*
Y5475579D01*
X4801461Y5362000D02*
X4886300D01*
X4738421Y5425040D02*
X4801461Y5362000D01*
X4701140Y5512860D02*
X4738421Y5475579D01*
X4494737Y5379700D02*
X4529060D01*
X5132457Y4460680D02*
X5148800D01*
X2712284Y6051405D02*
X2728147D01*
X2754904Y6014131D02*
Y6024649D01*
X2728147Y6051405D02*
X2754904Y6024649D01*
X2781686Y5987349D02*
X2797524D01*
X2754904Y6014131D02*
X2781686Y5987349D01*
X2674904Y6088786D02*
X2712284Y6051405D01*
X2674904Y6088786D02*
X2679209Y6084480D01*
X2498980Y6211480D02*
X2658782D01*
X2674904Y6227602D01*
X2498980Y6084480D02*
X2679209D01*
X2834904Y5949969D02*
X3021746D01*
X3232457Y6160680D01*
X2797524Y5987349D02*
X2834904Y5949969D01*
X2350221Y5912880D02*
X2377141D01*
X2414229Y5949969D02*
X2674904D01*
X2377141Y5912880D02*
X2414229Y5949969D01*
X2312840Y5875500D02*
X2350221Y5912880D01*
X2359363Y6931118D02*
X2480777Y7052532D01*
X2567569D02*
X2594737Y7079700D01*
X2480777Y7052532D02*
X2567569D01*
X2359363Y6290906D02*
Y6931118D01*
X2438789Y6211480D02*
X2498980D01*
X2359363Y6290906D02*
X2438789Y6211480D01*
X2641140Y7092380D02*
X2641440Y7092080D01*
X2641140Y7092380D02*
Y7212860D01*
X2629060Y7079700D02*
X2641440Y7092080D01*
X2838421Y7125040D02*
Y7175579D01*
X2901461Y7062000D02*
X2986300D01*
X2838421Y7125040D02*
X2901461Y7062000D01*
X2801140Y7212860D02*
X2838421Y7175579D01*
X2594737Y7079700D02*
X2629060D01*
X3232457Y6160680D02*
X3248800D01*
X4612284Y6051405D02*
X4628147D01*
X4654904Y6014131D02*
Y6024649D01*
X4628147Y6051405D02*
X4654904Y6024649D01*
X4681686Y5987349D02*
X4697524D01*
X4654904Y6014131D02*
X4681686Y5987349D01*
X4574904Y6088786D02*
X4612284Y6051405D01*
X4574904Y6088786D02*
X4579209Y6084480D01*
X4398980Y6211480D02*
X4558782D01*
X4574904Y6227602D01*
X4398980Y6084480D02*
X4579209D01*
X4734904Y5949969D02*
X4921746D01*
X5132457Y6160680D01*
X4697524Y5987349D02*
X4734904Y5949969D01*
X4250221Y5912880D02*
X4277141D01*
X4314229Y5949969D02*
X4574904D01*
X4277141Y5912880D02*
X4314229Y5949969D01*
X4212840Y5875500D02*
X4250221Y5912880D01*
X4259363Y6931118D02*
X4380777Y7052532D01*
X4467569D02*
X4494737Y7079700D01*
X4380777Y7052532D02*
X4467569D01*
X4259363Y6290906D02*
Y6931118D01*
X4338789Y6211480D02*
X4398980D01*
X4259363Y6290906D02*
X4338789Y6211480D01*
X4541140Y7092380D02*
X4541440Y7092080D01*
X4541140Y7092380D02*
Y7212860D01*
X4529060Y7079700D02*
X4541440Y7092080D01*
X4738421Y7125040D02*
Y7175579D01*
X4801461Y7062000D02*
X4886300D01*
X4738421Y7125040D02*
X4801461Y7062000D01*
X4701140Y7212860D02*
X4738421Y7175579D01*
X4494737Y7079700D02*
X4529060D01*
X5132457Y6160680D02*
X5148800D01*
X2712284Y7751406D02*
X2728147D01*
X2754904Y7714131D02*
Y7724649D01*
X2728147Y7751406D02*
X2754904Y7724649D01*
X2781686Y7687349D02*
X2797524D01*
X2754904Y7714131D02*
X2781686Y7687349D01*
X2674904Y7788786D02*
X2712284Y7751406D01*
X2674904Y7788786D02*
X2679209Y7784480D01*
X2498980Y7911480D02*
X2658782D01*
X2674904Y7927602D01*
X2498980Y7784480D02*
X2679209D01*
X2834904Y7649969D02*
X3021746D01*
X3232457Y7860680D01*
X2797524Y7687349D02*
X2834904Y7649969D01*
X2350221Y7612880D02*
X2377141D01*
X2414229Y7649969D02*
X2674904D01*
X2377141Y7612880D02*
X2414229Y7649969D01*
X2312840Y7575500D02*
X2350221Y7612880D01*
X2359363Y8631118D02*
X2480777Y8752532D01*
X2567569D02*
X2594737Y8779700D01*
X2480777Y8752532D02*
X2567569D01*
X2359363Y7990907D02*
Y8631118D01*
X2438789Y7911480D02*
X2498980D01*
X2359363Y7990907D02*
X2438789Y7911480D01*
X2641140Y8792380D02*
X2641440Y8792080D01*
X2641140Y8792380D02*
Y8912860D01*
X2629060Y8779700D02*
X2641440Y8792080D01*
X2838421Y8825040D02*
Y8875579D01*
X2901461Y8762000D02*
X2986300D01*
X2838421Y8825040D02*
X2901461Y8762000D01*
X2801140Y8912860D02*
X2838421Y8875579D01*
X2594737Y8779700D02*
X2629060D01*
X3232457Y7860680D02*
X3248800D01*
X4612284Y7751406D02*
X4628147D01*
X4654904Y7714131D02*
Y7724649D01*
X4628147Y7751406D02*
X4654904Y7724649D01*
X4681686Y7687349D02*
X4697524D01*
X4654904Y7714131D02*
X4681686Y7687349D01*
X4574904Y7788786D02*
X4612284Y7751406D01*
X4574904Y7788786D02*
X4579209Y7784480D01*
X4398980Y7911480D02*
X4558782D01*
X4574904Y7927602D01*
X4398980Y7784480D02*
X4579209D01*
X4734904Y7649969D02*
X4921746D01*
X5132457Y7860680D01*
X4697524Y7687349D02*
X4734904Y7649969D01*
X4250221Y7612880D02*
X4277141D01*
X4314229Y7649969D02*
X4574904D01*
X4277141Y7612880D02*
X4314229Y7649969D01*
X4212840Y7575500D02*
X4250221Y7612880D01*
X4259363Y8631118D02*
X4380777Y8752532D01*
X4467569D02*
X4494737Y8779700D01*
X4380777Y8752532D02*
X4467569D01*
X4259363Y7990907D02*
Y8631118D01*
X4338789Y7911480D02*
X4398980D01*
X4259363Y7990907D02*
X4338789Y7911480D01*
X4541140Y8792380D02*
X4541440Y8792080D01*
X4541140Y8792380D02*
Y8912860D01*
X4529060Y8779700D02*
X4541440Y8792080D01*
X4738421Y8825040D02*
Y8875579D01*
X4801461Y8762000D02*
X4886300D01*
X4738421Y8825040D02*
X4801461Y8762000D01*
X4701140Y8912860D02*
X4738421Y8875579D01*
X4494737Y8779700D02*
X4529060D01*
X5132457Y7860680D02*
X5148800D01*
D26*
X2709428Y1947080D02*
X2745859Y1983510D01*
X2672998Y1910649D02*
X2709428Y1947080D01*
X2795868Y1702000D02*
X2852243D01*
X2788248Y1709619D02*
X2795868Y1702000D01*
X2650010Y1910649D02*
X2672998D01*
X2641440Y1902080D02*
X2650010Y1910649D01*
X2745859Y1983510D02*
X2779678D01*
X2788248Y1992080D01*
X4609428Y1947080D02*
X4645859Y1983510D01*
X4572998Y1910649D02*
X4609428Y1947080D01*
X4695868Y1702000D02*
X4752243D01*
X4688248Y1709619D02*
X4695868Y1702000D01*
X4550010Y1910649D02*
X4572998D01*
X4541440Y1902080D02*
X4550010Y1910649D01*
X4645859Y1983510D02*
X4679678D01*
X4688248Y1992080D01*
X2709428Y3647080D02*
X2745859Y3683510D01*
X2672998Y3610650D02*
X2709428Y3647080D01*
X2795868Y3402000D02*
X2852243D01*
X2788248Y3409620D02*
X2795868Y3402000D01*
X2650010Y3610650D02*
X2672998D01*
X2641440Y3602080D02*
X2650010Y3610650D01*
X2745859Y3683510D02*
X2779678D01*
X2788248Y3692080D01*
X4609428Y3647080D02*
X4645859Y3683510D01*
X4572998Y3610650D02*
X4609428Y3647080D01*
X4695868Y3402000D02*
X4752243D01*
X4688248Y3409620D02*
X4695868Y3402000D01*
X4550010Y3610650D02*
X4572998D01*
X4541440Y3602080D02*
X4550010Y3610650D01*
X4645859Y3683510D02*
X4679678D01*
X4688248Y3692080D01*
X2709428Y5347080D02*
X2745859Y5383510D01*
X2672998Y5310650D02*
X2709428Y5347080D01*
X2795868Y5102000D02*
X2852243D01*
X2788248Y5109620D02*
X2795868Y5102000D01*
X2650010Y5310650D02*
X2672998D01*
X2641440Y5302080D02*
X2650010Y5310650D01*
X2745859Y5383510D02*
X2779678D01*
X2788248Y5392080D01*
X4609428Y5347080D02*
X4645859Y5383510D01*
X4572998Y5310650D02*
X4609428Y5347080D01*
X4695868Y5102000D02*
X4752243D01*
X4688248Y5109620D02*
X4695868Y5102000D01*
X4550010Y5310650D02*
X4572998D01*
X4541440Y5302080D02*
X4550010Y5310650D01*
X4645859Y5383510D02*
X4679678D01*
X4688248Y5392080D01*
X2709428Y7047080D02*
X2745859Y7083510D01*
X2672998Y7010650D02*
X2709428Y7047080D01*
X2795868Y6802000D02*
X2852243D01*
X2788248Y6809620D02*
X2795868Y6802000D01*
X2650010Y7010650D02*
X2672998D01*
X2641440Y7002080D02*
X2650010Y7010650D01*
X2745859Y7083510D02*
X2779678D01*
X2788248Y7092080D01*
X4609428Y7047080D02*
X4645859Y7083510D01*
X4572998Y7010650D02*
X4609428Y7047080D01*
X4695868Y6802000D02*
X4752243D01*
X4688248Y6809620D02*
X4695868Y6802000D01*
X4550010Y7010650D02*
X4572998D01*
X4541440Y7002080D02*
X4550010Y7010650D01*
X4645859Y7083510D02*
X4679678D01*
X4688248Y7092080D01*
X2709428Y8747080D02*
X2745859Y8783510D01*
X2672998Y8710650D02*
X2709428Y8747080D01*
X2795868Y8502000D02*
X2852243D01*
X2788248Y8509620D02*
X2795868Y8502000D01*
X2650010Y8710650D02*
X2672998D01*
X2641440Y8702080D02*
X2650010Y8710650D01*
X2745859Y8783510D02*
X2779678D01*
X2788248Y8792080D01*
X4609428Y8747080D02*
X4645859Y8783510D01*
X4572998Y8710650D02*
X4609428Y8747080D01*
X4695868Y8502000D02*
X4752243D01*
X4688248Y8509620D02*
X4695868Y8502000D01*
X4550010Y8710650D02*
X4572998D01*
X4541440Y8702080D02*
X4550010Y8710650D01*
X4645859Y8783510D02*
X4679678D01*
X4688248Y8792080D01*
D27*
X2834904Y988785D02*
X2912875D01*
X2834904Y1127602D02*
X2912875D01*
X2498980Y1238480D02*
X2583234D01*
X2414726D02*
X2498980D01*
X4734904Y988785D02*
X4812875D01*
X4734904Y1127602D02*
X4812875D01*
X4398980Y1238480D02*
X4483234D01*
X4314726D02*
X4398980D01*
X2834904Y2688785D02*
X2912875D01*
X2834904Y2827602D02*
X2912875D01*
X2498980Y2938480D02*
X2583234D01*
X2414726D02*
X2498980D01*
X4734904Y2688785D02*
X4812875D01*
X4734904Y2827602D02*
X4812875D01*
X4398980Y2938480D02*
X4483234D01*
X4314726D02*
X4398980D01*
X2834904Y4388785D02*
X2912875D01*
X2834904Y4527602D02*
X2912875D01*
X2498980Y4638480D02*
X2583234D01*
X2414726D02*
X2498980D01*
X4734904Y4388785D02*
X4812875D01*
X4734904Y4527602D02*
X4812875D01*
X4398980Y4638480D02*
X4483234D01*
X4314726D02*
X4398980D01*
X2834904Y6088786D02*
X2912875D01*
X2834904Y6227602D02*
X2912875D01*
X2498980Y6338480D02*
X2583234D01*
X2414726D02*
X2498980D01*
X4734904Y6088786D02*
X4812875D01*
X4734904Y6227602D02*
X4812875D01*
X4398980Y6338480D02*
X4483234D01*
X4314726D02*
X4398980D01*
X2834904Y7788786D02*
X2912875D01*
X2834904Y7927602D02*
X2912875D01*
X2498980Y8038480D02*
X2583234D01*
X2414726D02*
X2498980D01*
X4734904Y7788786D02*
X4812875D01*
X4734904Y7927602D02*
X4812875D01*
X4398980Y8038480D02*
X4483234D01*
X4314726D02*
X4398980D01*
D28*
X2986300Y1702000D02*
X3120520D01*
X2852243D02*
X2986300D01*
X4886300D02*
X5020520D01*
X4752243D02*
X4886300D01*
X2986300Y3402000D02*
X3120520D01*
X2852243D02*
X2986300D01*
X4886300D02*
X5020520D01*
X4752243D02*
X4886300D01*
X2986300Y5102000D02*
X3120520D01*
X2852243D02*
X2986300D01*
X4886300D02*
X5020520D01*
X4752243D02*
X4886300D01*
X2986300Y6802000D02*
X3120520D01*
X2852243D02*
X2986300D01*
X4886300D02*
X5020520D01*
X4752243D02*
X4886300D01*
X2986300Y8502000D02*
X3120520D01*
X2852243D02*
X2986300D01*
X4886300D02*
X5020520D01*
X4752243D02*
X4886300D01*
%TF.MD5,fd61ce435d571165bb04f64fa3a2783a*%
M02*
