%TF.GenerationSoftware,Altium Limited,Altium Designer,20.1.8 (145)*%
G04 Layer_Color=16777215*
%FSLAX45Y45*%
%MOMM*%
%TF.SameCoordinates,0E9F4796-1360-41E2-86C3-8BEED11D2ECA*%
%TF.FilePolarity,Positive*%
%TF.FileFunction,Legend,Top*%
%TF.Part,CustomerPanel*%
G01*
G75*
%TA.AperFunction,NonConductor*%
%ADD31C,0.10160*%
%ADD32C,0.12700*%
D31*
X2836130Y895500D02*
Y2105500D01*
X1620740Y895500D02*
X2836130D01*
X1620740Y2105500D02*
X2836130D01*
X1620740Y895500D02*
Y2105500D01*
X4736130Y895500D02*
Y2105500D01*
X3520740Y895500D02*
X4736130D01*
X3520740Y2105500D02*
X4736130D01*
X3520740Y895500D02*
Y2105500D01*
X2836130Y2595500D02*
Y3805500D01*
X1620740Y2595500D02*
X2836130D01*
X1620740Y3805500D02*
X2836130D01*
X1620740Y2595500D02*
Y3805500D01*
X4736130Y2595500D02*
Y3805500D01*
X3520740Y2595500D02*
X4736130D01*
X3520740Y3805500D02*
X4736130D01*
X3520740Y2595500D02*
Y3805500D01*
X2836130Y4295500D02*
Y5505500D01*
X1620740Y4295500D02*
X2836130D01*
X1620740Y5505500D02*
X2836130D01*
X1620740Y4295500D02*
Y5505500D01*
X4736130Y4295500D02*
Y5505500D01*
X3520740Y4295500D02*
X4736130D01*
X3520740Y5505500D02*
X4736130D01*
X3520740Y4295500D02*
Y5505500D01*
X2836130Y5995500D02*
Y7205500D01*
X1620740Y5995500D02*
X2836130D01*
X1620740Y7205500D02*
X2836130D01*
X1620740Y5995500D02*
Y7205500D01*
X4736130Y5995500D02*
Y7205500D01*
X3520740Y5995500D02*
X4736130D01*
X3520740Y7205500D02*
X4736130D01*
X3520740Y5995500D02*
Y7205500D01*
X2836130Y7695500D02*
Y8905500D01*
X1620740Y7695500D02*
X2836130D01*
X1620740Y8905500D02*
X2836130D01*
X1620740Y7695500D02*
Y8905500D01*
X4736130Y7695500D02*
Y8905500D01*
X3520740Y7695500D02*
X4736130D01*
X3520740Y8905500D02*
X4736130D01*
X3520740Y7695500D02*
Y8905500D01*
D32*
X2960492Y1040495D02*
X2899551D01*
Y1070965D01*
X2909708Y1081122D01*
X2930022D01*
X2940178Y1070965D01*
Y1040495D01*
Y1060808D02*
X2960492Y1081122D01*
X2899551Y1131905D02*
Y1111592D01*
X2909708Y1101435D01*
X2950335D01*
X2960492Y1111592D01*
Y1131905D01*
X2950335Y1142062D01*
X2909708D01*
X2899551Y1131905D01*
Y1162375D02*
Y1203002D01*
Y1182689D01*
X2960492D01*
Y1223316D02*
X2919865D01*
X2899551Y1243629D01*
X2919865Y1263942D01*
X2960492D01*
X2930022D01*
Y1223316D01*
X2960492Y1284256D02*
X2899551D01*
Y1314726D01*
X2909708Y1324883D01*
X2930022D01*
X2940178Y1314726D01*
Y1284256D01*
Y1304569D02*
X2960492Y1324883D01*
X2899551Y1345196D02*
X2909708D01*
X2930022Y1365509D01*
X2909708Y1385823D01*
X2899551D01*
X2930022Y1365509D02*
X2960492D01*
X2970648Y1406136D02*
Y1446763D01*
X2899551Y1507703D02*
Y1467076D01*
X2960492D01*
Y1507703D01*
X2930022Y1467076D02*
Y1487390D01*
X2960492Y1528017D02*
X2899551D01*
X2960492Y1568643D01*
X2899551D01*
X2909708Y1629583D02*
X2899551Y1619427D01*
Y1599113D01*
X2909708Y1588957D01*
X2950335D01*
X2960492Y1599113D01*
Y1619427D01*
X2950335Y1629583D01*
X2899551Y1680367D02*
Y1660054D01*
X2909708Y1649897D01*
X2950335D01*
X2960492Y1660054D01*
Y1680367D01*
X2950335Y1690524D01*
X2909708D01*
X2899551Y1680367D01*
Y1710837D02*
X2960492D01*
Y1741307D01*
X2950335Y1751464D01*
X2909708D01*
X2899551Y1741307D01*
Y1710837D01*
Y1812404D02*
Y1771777D01*
X2960492D01*
Y1812404D01*
X2930022Y1771777D02*
Y1792091D01*
X2960492Y1832717D02*
X2899551D01*
Y1863188D01*
X2909708Y1873344D01*
X2930022D01*
X2940178Y1863188D01*
Y1832717D01*
Y1853031D02*
X2960492Y1873344D01*
X4860492Y1040495D02*
X4799551D01*
Y1070965D01*
X4809708Y1081122D01*
X4830022D01*
X4840178Y1070965D01*
Y1040495D01*
Y1060808D02*
X4860492Y1081122D01*
X4799551Y1131905D02*
Y1111592D01*
X4809708Y1101435D01*
X4850335D01*
X4860492Y1111592D01*
Y1131905D01*
X4850335Y1142062D01*
X4809708D01*
X4799551Y1131905D01*
Y1162375D02*
Y1203002D01*
Y1182689D01*
X4860492D01*
Y1223316D02*
X4819865D01*
X4799551Y1243629D01*
X4819865Y1263942D01*
X4860492D01*
X4830022D01*
Y1223316D01*
X4860492Y1284256D02*
X4799551D01*
Y1314726D01*
X4809708Y1324883D01*
X4830022D01*
X4840178Y1314726D01*
Y1284256D01*
Y1304569D02*
X4860492Y1324883D01*
X4799551Y1345196D02*
X4809708D01*
X4830022Y1365509D01*
X4809708Y1385823D01*
X4799551D01*
X4830022Y1365509D02*
X4860492D01*
X4870648Y1406136D02*
Y1446763D01*
X4799551Y1507703D02*
Y1467076D01*
X4860492D01*
Y1507703D01*
X4830022Y1467076D02*
Y1487390D01*
X4860492Y1528017D02*
X4799551D01*
X4860492Y1568643D01*
X4799551D01*
X4809708Y1629583D02*
X4799551Y1619427D01*
Y1599113D01*
X4809708Y1588957D01*
X4850335D01*
X4860492Y1599113D01*
Y1619427D01*
X4850335Y1629583D01*
X4799551Y1680367D02*
Y1660054D01*
X4809708Y1649897D01*
X4850335D01*
X4860492Y1660054D01*
Y1680367D01*
X4850335Y1690524D01*
X4809708D01*
X4799551Y1680367D01*
Y1710837D02*
X4860492D01*
Y1741307D01*
X4850335Y1751464D01*
X4809708D01*
X4799551Y1741307D01*
Y1710837D01*
Y1812404D02*
Y1771777D01*
X4860492D01*
Y1812404D01*
X4830022Y1771777D02*
Y1792091D01*
X4860492Y1832717D02*
X4799551D01*
Y1863188D01*
X4809708Y1873344D01*
X4830022D01*
X4840178Y1863188D01*
Y1832717D01*
Y1853031D02*
X4860492Y1873344D01*
X2960492Y2740495D02*
X2899551D01*
Y2770965D01*
X2909708Y2781122D01*
X2930022D01*
X2940178Y2770965D01*
Y2740495D01*
Y2760809D02*
X2960492Y2781122D01*
X2899551Y2831905D02*
Y2811592D01*
X2909708Y2801435D01*
X2950335D01*
X2960492Y2811592D01*
Y2831905D01*
X2950335Y2842062D01*
X2909708D01*
X2899551Y2831905D01*
Y2862376D02*
Y2903002D01*
Y2882689D01*
X2960492D01*
Y2923316D02*
X2919865D01*
X2899551Y2943629D01*
X2919865Y2963943D01*
X2960492D01*
X2930022D01*
Y2923316D01*
X2960492Y2984256D02*
X2899551D01*
Y3014726D01*
X2909708Y3024883D01*
X2930022D01*
X2940178Y3014726D01*
Y2984256D01*
Y3004569D02*
X2960492Y3024883D01*
X2899551Y3045196D02*
X2909708D01*
X2930022Y3065509D01*
X2909708Y3085823D01*
X2899551D01*
X2930022Y3065509D02*
X2960492D01*
X2970648Y3106136D02*
Y3146763D01*
X2899551Y3207703D02*
Y3167076D01*
X2960492D01*
Y3207703D01*
X2930022Y3167076D02*
Y3187390D01*
X2960492Y3228017D02*
X2899551D01*
X2960492Y3268643D01*
X2899551D01*
X2909708Y3329584D02*
X2899551Y3319427D01*
Y3299114D01*
X2909708Y3288957D01*
X2950335D01*
X2960492Y3299114D01*
Y3319427D01*
X2950335Y3329584D01*
X2899551Y3380367D02*
Y3360054D01*
X2909708Y3349897D01*
X2950335D01*
X2960492Y3360054D01*
Y3380367D01*
X2950335Y3390524D01*
X2909708D01*
X2899551Y3380367D01*
Y3410837D02*
X2960492D01*
Y3441307D01*
X2950335Y3451464D01*
X2909708D01*
X2899551Y3441307D01*
Y3410837D01*
Y3512404D02*
Y3471777D01*
X2960492D01*
Y3512404D01*
X2930022Y3471777D02*
Y3492091D01*
X2960492Y3532718D02*
X2899551D01*
Y3563188D01*
X2909708Y3573344D01*
X2930022D01*
X2940178Y3563188D01*
Y3532718D01*
Y3553031D02*
X2960492Y3573344D01*
X4860492Y2740495D02*
X4799551D01*
Y2770965D01*
X4809708Y2781122D01*
X4830022D01*
X4840178Y2770965D01*
Y2740495D01*
Y2760809D02*
X4860492Y2781122D01*
X4799551Y2831905D02*
Y2811592D01*
X4809708Y2801435D01*
X4850335D01*
X4860492Y2811592D01*
Y2831905D01*
X4850335Y2842062D01*
X4809708D01*
X4799551Y2831905D01*
Y2862376D02*
Y2903002D01*
Y2882689D01*
X4860492D01*
Y2923316D02*
X4819865D01*
X4799551Y2943629D01*
X4819865Y2963943D01*
X4860492D01*
X4830022D01*
Y2923316D01*
X4860492Y2984256D02*
X4799551D01*
Y3014726D01*
X4809708Y3024883D01*
X4830022D01*
X4840178Y3014726D01*
Y2984256D01*
Y3004569D02*
X4860492Y3024883D01*
X4799551Y3045196D02*
X4809708D01*
X4830022Y3065509D01*
X4809708Y3085823D01*
X4799551D01*
X4830022Y3065509D02*
X4860492D01*
X4870648Y3106136D02*
Y3146763D01*
X4799551Y3207703D02*
Y3167076D01*
X4860492D01*
Y3207703D01*
X4830022Y3167076D02*
Y3187390D01*
X4860492Y3228017D02*
X4799551D01*
X4860492Y3268643D01*
X4799551D01*
X4809708Y3329584D02*
X4799551Y3319427D01*
Y3299114D01*
X4809708Y3288957D01*
X4850335D01*
X4860492Y3299114D01*
Y3319427D01*
X4850335Y3329584D01*
X4799551Y3380367D02*
Y3360054D01*
X4809708Y3349897D01*
X4850335D01*
X4860492Y3360054D01*
Y3380367D01*
X4850335Y3390524D01*
X4809708D01*
X4799551Y3380367D01*
Y3410837D02*
X4860492D01*
Y3441307D01*
X4850335Y3451464D01*
X4809708D01*
X4799551Y3441307D01*
Y3410837D01*
Y3512404D02*
Y3471777D01*
X4860492D01*
Y3512404D01*
X4830022Y3471777D02*
Y3492091D01*
X4860492Y3532718D02*
X4799551D01*
Y3563188D01*
X4809708Y3573344D01*
X4830022D01*
X4840178Y3563188D01*
Y3532718D01*
Y3553031D02*
X4860492Y3573344D01*
X2960492Y4440495D02*
X2899551D01*
Y4470965D01*
X2909708Y4481122D01*
X2930022D01*
X2940178Y4470965D01*
Y4440495D01*
Y4460809D02*
X2960492Y4481122D01*
X2899551Y4531906D02*
Y4511592D01*
X2909708Y4501435D01*
X2950335D01*
X2960492Y4511592D01*
Y4531906D01*
X2950335Y4542062D01*
X2909708D01*
X2899551Y4531906D01*
Y4562376D02*
Y4603002D01*
Y4582689D01*
X2960492D01*
Y4623316D02*
X2919865D01*
X2899551Y4643629D01*
X2919865Y4663943D01*
X2960492D01*
X2930022D01*
Y4623316D01*
X2960492Y4684256D02*
X2899551D01*
Y4714726D01*
X2909708Y4724883D01*
X2930022D01*
X2940178Y4714726D01*
Y4684256D01*
Y4704569D02*
X2960492Y4724883D01*
X2899551Y4745196D02*
X2909708D01*
X2930022Y4765510D01*
X2909708Y4785823D01*
X2899551D01*
X2930022Y4765510D02*
X2960492D01*
X2970648Y4806136D02*
Y4846763D01*
X2899551Y4907703D02*
Y4867077D01*
X2960492D01*
Y4907703D01*
X2930022Y4867077D02*
Y4887390D01*
X2960492Y4928017D02*
X2899551D01*
X2960492Y4968644D01*
X2899551D01*
X2909708Y5029584D02*
X2899551Y5019427D01*
Y4999114D01*
X2909708Y4988957D01*
X2950335D01*
X2960492Y4999114D01*
Y5019427D01*
X2950335Y5029584D01*
X2899551Y5080367D02*
Y5060054D01*
X2909708Y5049897D01*
X2950335D01*
X2960492Y5060054D01*
Y5080367D01*
X2950335Y5090524D01*
X2909708D01*
X2899551Y5080367D01*
Y5110837D02*
X2960492D01*
Y5141307D01*
X2950335Y5151464D01*
X2909708D01*
X2899551Y5141307D01*
Y5110837D01*
Y5212404D02*
Y5171778D01*
X2960492D01*
Y5212404D01*
X2930022Y5171778D02*
Y5192091D01*
X2960492Y5232718D02*
X2899551D01*
Y5263188D01*
X2909708Y5273345D01*
X2930022D01*
X2940178Y5263188D01*
Y5232718D01*
Y5253031D02*
X2960492Y5273345D01*
X4860492Y4440495D02*
X4799551D01*
Y4470965D01*
X4809708Y4481122D01*
X4830022D01*
X4840178Y4470965D01*
Y4440495D01*
Y4460809D02*
X4860492Y4481122D01*
X4799551Y4531906D02*
Y4511592D01*
X4809708Y4501435D01*
X4850335D01*
X4860492Y4511592D01*
Y4531906D01*
X4850335Y4542062D01*
X4809708D01*
X4799551Y4531906D01*
Y4562376D02*
Y4603002D01*
Y4582689D01*
X4860492D01*
Y4623316D02*
X4819865D01*
X4799551Y4643629D01*
X4819865Y4663943D01*
X4860492D01*
X4830022D01*
Y4623316D01*
X4860492Y4684256D02*
X4799551D01*
Y4714726D01*
X4809708Y4724883D01*
X4830022D01*
X4840178Y4714726D01*
Y4684256D01*
Y4704569D02*
X4860492Y4724883D01*
X4799551Y4745196D02*
X4809708D01*
X4830022Y4765510D01*
X4809708Y4785823D01*
X4799551D01*
X4830022Y4765510D02*
X4860492D01*
X4870648Y4806136D02*
Y4846763D01*
X4799551Y4907703D02*
Y4867077D01*
X4860492D01*
Y4907703D01*
X4830022Y4867077D02*
Y4887390D01*
X4860492Y4928017D02*
X4799551D01*
X4860492Y4968644D01*
X4799551D01*
X4809708Y5029584D02*
X4799551Y5019427D01*
Y4999114D01*
X4809708Y4988957D01*
X4850335D01*
X4860492Y4999114D01*
Y5019427D01*
X4850335Y5029584D01*
X4799551Y5080367D02*
Y5060054D01*
X4809708Y5049897D01*
X4850335D01*
X4860492Y5060054D01*
Y5080367D01*
X4850335Y5090524D01*
X4809708D01*
X4799551Y5080367D01*
Y5110837D02*
X4860492D01*
Y5141307D01*
X4850335Y5151464D01*
X4809708D01*
X4799551Y5141307D01*
Y5110837D01*
Y5212404D02*
Y5171778D01*
X4860492D01*
Y5212404D01*
X4830022Y5171778D02*
Y5192091D01*
X4860492Y5232718D02*
X4799551D01*
Y5263188D01*
X4809708Y5273345D01*
X4830022D01*
X4840178Y5263188D01*
Y5232718D01*
Y5253031D02*
X4860492Y5273345D01*
X2960492Y6140495D02*
X2899551D01*
Y6170966D01*
X2909708Y6181122D01*
X2930022D01*
X2940178Y6170966D01*
Y6140495D01*
Y6160809D02*
X2960492Y6181122D01*
X2899551Y6231906D02*
Y6211592D01*
X2909708Y6201436D01*
X2950335D01*
X2960492Y6211592D01*
Y6231906D01*
X2950335Y6242062D01*
X2909708D01*
X2899551Y6231906D01*
Y6262376D02*
Y6303003D01*
Y6282689D01*
X2960492D01*
Y6323316D02*
X2919865D01*
X2899551Y6343629D01*
X2919865Y6363943D01*
X2960492D01*
X2930022D01*
Y6323316D01*
X2960492Y6384256D02*
X2899551D01*
Y6414726D01*
X2909708Y6424883D01*
X2930022D01*
X2940178Y6414726D01*
Y6384256D01*
Y6404570D02*
X2960492Y6424883D01*
X2899551Y6445196D02*
X2909708D01*
X2930022Y6465510D01*
X2909708Y6485823D01*
X2899551D01*
X2930022Y6465510D02*
X2960492D01*
X2970648Y6506137D02*
Y6546763D01*
X2899551Y6607704D02*
Y6567077D01*
X2960492D01*
Y6607704D01*
X2930022Y6567077D02*
Y6587390D01*
X2960492Y6628017D02*
X2899551D01*
X2960492Y6668644D01*
X2899551D01*
X2909708Y6729584D02*
X2899551Y6719427D01*
Y6699114D01*
X2909708Y6688957D01*
X2950335D01*
X2960492Y6699114D01*
Y6719427D01*
X2950335Y6729584D01*
X2899551Y6780367D02*
Y6760054D01*
X2909708Y6749897D01*
X2950335D01*
X2960492Y6760054D01*
Y6780367D01*
X2950335Y6790524D01*
X2909708D01*
X2899551Y6780367D01*
Y6810838D02*
X2960492D01*
Y6841308D01*
X2950335Y6851464D01*
X2909708D01*
X2899551Y6841308D01*
Y6810838D01*
Y6912405D02*
Y6871778D01*
X2960492D01*
Y6912405D01*
X2930022Y6871778D02*
Y6892091D01*
X2960492Y6932718D02*
X2899551D01*
Y6963188D01*
X2909708Y6973345D01*
X2930022D01*
X2940178Y6963188D01*
Y6932718D01*
Y6953031D02*
X2960492Y6973345D01*
X4860492Y6140495D02*
X4799551D01*
Y6170966D01*
X4809708Y6181122D01*
X4830022D01*
X4840178Y6170966D01*
Y6140495D01*
Y6160809D02*
X4860492Y6181122D01*
X4799551Y6231906D02*
Y6211592D01*
X4809708Y6201436D01*
X4850335D01*
X4860492Y6211592D01*
Y6231906D01*
X4850335Y6242062D01*
X4809708D01*
X4799551Y6231906D01*
Y6262376D02*
Y6303003D01*
Y6282689D01*
X4860492D01*
Y6323316D02*
X4819865D01*
X4799551Y6343629D01*
X4819865Y6363943D01*
X4860492D01*
X4830022D01*
Y6323316D01*
X4860492Y6384256D02*
X4799551D01*
Y6414726D01*
X4809708Y6424883D01*
X4830022D01*
X4840178Y6414726D01*
Y6384256D01*
Y6404570D02*
X4860492Y6424883D01*
X4799551Y6445196D02*
X4809708D01*
X4830022Y6465510D01*
X4809708Y6485823D01*
X4799551D01*
X4830022Y6465510D02*
X4860492D01*
X4870648Y6506137D02*
Y6546763D01*
X4799551Y6607704D02*
Y6567077D01*
X4860492D01*
Y6607704D01*
X4830022Y6567077D02*
Y6587390D01*
X4860492Y6628017D02*
X4799551D01*
X4860492Y6668644D01*
X4799551D01*
X4809708Y6729584D02*
X4799551Y6719427D01*
Y6699114D01*
X4809708Y6688957D01*
X4850335D01*
X4860492Y6699114D01*
Y6719427D01*
X4850335Y6729584D01*
X4799551Y6780367D02*
Y6760054D01*
X4809708Y6749897D01*
X4850335D01*
X4860492Y6760054D01*
Y6780367D01*
X4850335Y6790524D01*
X4809708D01*
X4799551Y6780367D01*
Y6810838D02*
X4860492D01*
Y6841308D01*
X4850335Y6851464D01*
X4809708D01*
X4799551Y6841308D01*
Y6810838D01*
Y6912405D02*
Y6871778D01*
X4860492D01*
Y6912405D01*
X4830022Y6871778D02*
Y6892091D01*
X4860492Y6932718D02*
X4799551D01*
Y6963188D01*
X4809708Y6973345D01*
X4830022D01*
X4840178Y6963188D01*
Y6932718D01*
Y6953031D02*
X4860492Y6973345D01*
X2960492Y7840496D02*
X2899551D01*
Y7870966D01*
X2909708Y7881122D01*
X2930022D01*
X2940178Y7870966D01*
Y7840496D01*
Y7860809D02*
X2960492Y7881122D01*
X2899551Y7931906D02*
Y7911593D01*
X2909708Y7901436D01*
X2950335D01*
X2960492Y7911593D01*
Y7931906D01*
X2950335Y7942063D01*
X2909708D01*
X2899551Y7931906D01*
Y7962376D02*
Y8003003D01*
Y7982689D01*
X2960492D01*
Y8023316D02*
X2919865D01*
X2899551Y8043630D01*
X2919865Y8063943D01*
X2960492D01*
X2930022D01*
Y8023316D01*
X2960492Y8084256D02*
X2899551D01*
Y8114726D01*
X2909708Y8124883D01*
X2930022D01*
X2940178Y8114726D01*
Y8084256D01*
Y8104570D02*
X2960492Y8124883D01*
X2899551Y8145197D02*
X2909708D01*
X2930022Y8165510D01*
X2909708Y8185823D01*
X2899551D01*
X2930022Y8165510D02*
X2960492D01*
X2970648Y8206137D02*
Y8246764D01*
X2899551Y8307704D02*
Y8267077D01*
X2960492D01*
Y8307704D01*
X2930022Y8267077D02*
Y8287390D01*
X2960492Y8328017D02*
X2899551D01*
X2960492Y8368644D01*
X2899551D01*
X2909708Y8429584D02*
X2899551Y8419427D01*
Y8399114D01*
X2909708Y8388957D01*
X2950335D01*
X2960492Y8399114D01*
Y8419427D01*
X2950335Y8429584D01*
X2899551Y8480368D02*
Y8460054D01*
X2909708Y8449898D01*
X2950335D01*
X2960492Y8460054D01*
Y8480368D01*
X2950335Y8490524D01*
X2909708D01*
X2899551Y8480368D01*
Y8510838D02*
X2960492D01*
Y8541308D01*
X2950335Y8551464D01*
X2909708D01*
X2899551Y8541308D01*
Y8510838D01*
Y8612405D02*
Y8571778D01*
X2960492D01*
Y8612405D01*
X2930022Y8571778D02*
Y8592091D01*
X2960492Y8632718D02*
X2899551D01*
Y8663188D01*
X2909708Y8673345D01*
X2930022D01*
X2940178Y8663188D01*
Y8632718D01*
Y8653031D02*
X2960492Y8673345D01*
X4860492Y7840496D02*
X4799551D01*
Y7870966D01*
X4809708Y7881122D01*
X4830022D01*
X4840178Y7870966D01*
Y7840496D01*
Y7860809D02*
X4860492Y7881122D01*
X4799551Y7931906D02*
Y7911593D01*
X4809708Y7901436D01*
X4850335D01*
X4860492Y7911593D01*
Y7931906D01*
X4850335Y7942063D01*
X4809708D01*
X4799551Y7931906D01*
Y7962376D02*
Y8003003D01*
Y7982689D01*
X4860492D01*
Y8023316D02*
X4819865D01*
X4799551Y8043630D01*
X4819865Y8063943D01*
X4860492D01*
X4830022D01*
Y8023316D01*
X4860492Y8084256D02*
X4799551D01*
Y8114726D01*
X4809708Y8124883D01*
X4830022D01*
X4840178Y8114726D01*
Y8084256D01*
Y8104570D02*
X4860492Y8124883D01*
X4799551Y8145197D02*
X4809708D01*
X4830022Y8165510D01*
X4809708Y8185823D01*
X4799551D01*
X4830022Y8165510D02*
X4860492D01*
X4870648Y8206137D02*
Y8246764D01*
X4799551Y8307704D02*
Y8267077D01*
X4860492D01*
Y8307704D01*
X4830022Y8267077D02*
Y8287390D01*
X4860492Y8328017D02*
X4799551D01*
X4860492Y8368644D01*
X4799551D01*
X4809708Y8429584D02*
X4799551Y8419427D01*
Y8399114D01*
X4809708Y8388957D01*
X4850335D01*
X4860492Y8399114D01*
Y8419427D01*
X4850335Y8429584D01*
X4799551Y8480368D02*
Y8460054D01*
X4809708Y8449898D01*
X4850335D01*
X4860492Y8460054D01*
Y8480368D01*
X4850335Y8490524D01*
X4809708D01*
X4799551Y8480368D01*
Y8510838D02*
X4860492D01*
Y8541308D01*
X4850335Y8551464D01*
X4809708D01*
X4799551Y8541308D01*
Y8510838D01*
Y8612405D02*
Y8571778D01*
X4860492D01*
Y8612405D01*
X4830022Y8571778D02*
Y8592091D01*
X4860492Y8632718D02*
X4799551D01*
Y8663188D01*
X4809708Y8673345D01*
X4830022D01*
X4840178Y8663188D01*
Y8632718D01*
Y8653031D02*
X4860492Y8673345D01*
%TF.MD5,17e9bbb34493f05d810717dbc662407f*%
M02*
