M48
;Layer_Color=0
;FILE_FORMAT=4:4
METRIC
;TYPE=PLATED
T1F00S00C0.3500
T3F00S00C0.8000
%
T01
X00181750Y00121084
X00173536Y00175154
X00204562Y00161948
X00205577Y00196504
X00270943Y00194708
X00285224Y00170200
X00312052
X00291287Y00112760
Y00098878
X00258323Y00123848
X00241473
Y00293848
X00258323
X00291287Y00282760
Y00268878
X00285224Y00340200
X00312052
X00204562Y00331948
X00173536Y00345154
X00181750Y00291084
X00371750
X00363536Y00345154
X00394562Y00331948
X00431473Y00293848
X00448323
X00481287Y00282760
Y00268878
X00475224Y00340200
X00502052
Y00170200
X00475224
X00460943Y00194708
X00395577Y00196504
X00394562Y00161948
X00363536Y00175154
X00371750Y00121084
X00431473Y00123848
X00448323
X00481287Y00112760
Y00098878
X00460943Y00364708
X00395577Y00366504
X00371750Y00461084
X00363536Y00515154
X00394562Y00501948
X00395577Y00536504
X00460943Y00534708
X00475224Y00510200
X00502052
X00481287Y00452760
Y00438879
X00448323Y00463848
X00431473
Y00633848
X00448323
X00481287Y00622760
Y00608879
X00475224Y00680200
X00502052
X00460943Y00704708
X00395577Y00706504
X00394562Y00671948
X00363536Y00685154
X00371750Y00631084
X00291287Y00622760
Y00608879
X00258323Y00633848
X00241473
X00181750Y00631084
X00173536Y00685154
X00204562Y00671948
X00205577Y00706504
X00270943Y00704708
X00285224Y00680200
X00312052
Y00510200
X00285224
X00270943Y00534708
X00205577Y00536504
X00204562Y00501948
X00173536Y00515154
X00181750Y00461084
X00241473Y00463848
X00258323
X00291287Y00452760
Y00438879
X00270943Y00364708
X00205577Y00366504
X00181750Y00801084
X00173536Y00855154
X00204562Y00841948
X00205577Y00876504
X00270943Y00874708
X00285224Y00850200
X00312052
X00291287Y00792760
Y00778879
X00258323Y00803848
X00241473
X00371750Y00801084
X00363536Y00855154
X00394562Y00841948
X00395577Y00876504
X00460943Y00874708
X00475224Y00850200
X00502052
X00481287Y00792760
Y00778879
X00448323Y00803848
X00431473
T03
X00324880Y00080668
Y00106068
Y00131468
Y00250668
Y00276068
Y00301468
X00514880
Y00276068
Y00250668
Y00131468
Y00106068
Y00080668
Y00420668
Y00446068
Y00471468
Y00590668
Y00616068
Y00641468
X00324880
Y00616068
Y00590668
Y00471468
Y00446068
Y00420668
Y00760668
Y00786068
Y00811468
X00514880
Y00786068
Y00760668
M30
