M48
;Layer_Color=0
;FILE_FORMAT=4:4
METRIC
;TYPE=PLATED
T2F00S00C0.5000
T4F00S00C0.9000
T5F00S00C1.2500
%
G90
G05
T02
G00X00201530Y00077550
M15
G01X00194030
M16
G00X00251530Y00077550
M15
G01X00244030
M16
G00X00251530Y00222550
M15
G01X00244030
M16
G00X00226530Y00222550
M15
G01X00219030
M16
G00X00201530Y00222550
M15
G01X00194030
M16
G00X00201530Y00247550
M15
G01X00194030
M16
G00X00251530Y00247550
M15
G01X00244030
M16
G00X00391530Y00247550
M15
G01X00384030
M16
G00X00391530Y00222550
M15
G01X00384030
M16
G00X00416530Y00222550
M15
G01X00409030
M16
G00X00441530Y00222550
M15
G01X00434030
M16
G00X00441530Y00247550
M15
G01X00434030
M16
G00X00441530Y00077550
M15
G01X00434030
M16
G00X00391530Y00077550
M15
G01X00384030
M16
G00X00391530Y00392550
M15
G01X00384030
M16
G00X00416530Y00392550
M15
G01X00409030
M16
G00X00441530Y00392550
M15
G01X00434030
M16
G00X00441530Y00417550
M15
G01X00434030
M16
G00X00391530Y00417550
M15
G01X00384030
M16
G00X00391530Y00562550
M15
G01X00384030
M16
G00X00416530Y00562550
M15
G01X00409030
M16
G00X00441530Y00562550
M15
G01X00434030
M16
G00X00441530Y00587550
M15
G01X00434030
M16
G00X00391530Y00587550
M15
G01X00384030
M16
G00X00391530Y00732550
M15
G01X00384030
M16
G00X00416530Y00732550
M15
G01X00409030
M16
G00X00441530Y00732550
M15
G01X00434030
M16
G00X00251530Y00732550
M15
G01X00244030
M16
G00X00226530Y00732550
M15
G01X00219030
M16
G00X00201530Y00732550
M15
G01X00194030
M16
G00X00201530Y00587550
M15
G01X00194030
M16
G00X00201530Y00562550
M15
G01X00194030
M16
G00X00226530Y00562550
M15
G01X00219030
M16
G00X00251530Y00562550
M15
G01X00244030
M16
G00X00251530Y00587550
M15
G01X00244030
M16
G00X00251530Y00417550
M15
G01X00244030
M16
G00X00251530Y00392550
M15
G01X00244030
M16
G00X00226530Y00392550
M15
G01X00219030
M16
G00X00201530Y00392550
M15
G01X00194030
M16
G00X00201530Y00417550
M15
G01X00194030
M16
G00X00201530Y00757550
M15
G01X00194030
M16
G00X00251530Y00757550
M15
G01X00244030
M16
G00X00251530Y00902550
M15
G01X00244030
M16
G00X00226530Y00902550
M15
G01X00219030
M16
G00X00201530Y00902550
M15
G01X00194030
M16
G00X00391530Y00902550
M15
G01X00384030
M16
G00X00416530Y00902550
M15
G01X00409030
M16
G00X00441530Y00902550
M15
G01X00434030
M16
G00X00441530Y00757550
M15
G01X00434030
M16
G00X00391530Y00757550
M15
G01X00384030
M16
T04
G00X00327380Y00154900
M15
G01X00322380
M16
G00X00327380Y00211500
M15
G01X00322380
M16
G00X00327380Y00324900
M15
G01X00322380
M16
G00X00517380Y00324900
M15
G01X00512380
M16
G00X00517380Y00211500
M15
G01X00512380
M16
G00X00517380Y00154900
M15
G01X00512380
M16
G00X00517380Y00381500
M15
G01X00512380
M16
G00X00517380Y00494900
M15
G01X00512380
M16
G00X00517380Y00551500
M15
G01X00512380
M16
G00X00517380Y00664900
M15
G01X00512380
M16
G00X00517380Y00721500
M15
G01X00512380
M16
G00X00327380Y00721500
M15
G01X00322380
M16
G00X00327380Y00664900
M15
G01X00322380
M16
G00X00327380Y00551500
M15
G01X00322380
M16
G00X00327380Y00494900
M15
G01X00322380
M16
G00X00327380Y00381500
M15
G01X00322380
M16
G00X00327380Y00834900
M15
G01X00322380
M16
G00X00327380Y00891500
M15
G01X00322380
M16
G00X00517380Y00891500
M15
G01X00512380
M16
G00X00517380Y00834900
M15
G01X00512380
M16
T05
G00X00169030Y00156300
M15
G01Y00143800
M16
G00X00276530Y00156300
M15
G01Y00143800
M16
G00X00276530Y00326300
M15
G01Y00313800
M16
G00X00169030Y00326300
M15
G01Y00313800
M16
G00X00359030Y00326300
M15
G01Y00313800
M16
G00X00466530Y00326300
M15
G01Y00313800
M16
G00X00466530Y00156300
M15
G01Y00143800
M16
G00X00359030Y00156300
M15
G01Y00143800
M16
G00X00359030Y00496300
M15
G01Y00483800
M16
G00X00466530Y00496300
M15
G01Y00483800
M16
G00X00466530Y00666300
M15
G01Y00653800
M16
G00X00359030Y00666300
M15
G01Y00653800
M16
G00X00276530Y00666300
M15
G01Y00653800
M16
G00X00169030Y00666300
M15
G01Y00653800
M16
G00X00169030Y00496300
M15
G01Y00483800
M16
G00X00276530Y00496300
M15
G01Y00483800
M16
G00X00276530Y00836300
M15
G01Y00823800
M16
G00X00169030Y00836300
M15
G01Y00823800
M16
G00X00359030Y00836300
M15
G01Y00823800
M16
G00X00466530Y00836300
M15
G01Y00823800
M16
M17
M30
