%TF.GenerationSoftware,Altium Limited,Altium Designer,20.1.8 (145)*%
G04 Layer_Color=65535*
%FSLAX45Y45*%
%MOMM*%
%TF.SameCoordinates,0E9F4796-1360-41E2-86C3-8BEED11D2ECA*%
%TF.FilePolarity,Positive*%
%TF.FileFunction,Legend,Bot*%
%TF.Part,CustomerPanel*%
G01*
G75*
%TA.AperFunction,NonConductor*%
%ADD29C,0.25000*%
%ADD30C,0.60000*%
%ADD31C,0.10160*%
%ADD32C,0.12700*%
G36*
X4561440Y8827080D02*
X4521440D01*
X4541440Y8847080D01*
X4561440Y8827080D01*
D02*
G37*
G36*
X2661440D02*
X2621440D01*
X2641440Y8847080D01*
X2661440Y8827080D01*
D02*
G37*
G36*
X4692019Y8650850D02*
X4708249Y8634620D01*
X4668248D01*
X4684478Y8650850D01*
X4668248Y8667080D01*
X4708249D01*
X4692019Y8650850D01*
D02*
G37*
G36*
X2792019D02*
X2808249Y8634620D01*
X2768248D01*
X2784478Y8650850D01*
X2768248Y8667080D01*
X2808249D01*
X2792019Y8650850D01*
D02*
G37*
G36*
X3992840Y7545500D02*
X3962840Y7575500D01*
X3992840Y7605500D01*
Y7545500D01*
D02*
G37*
G36*
X2092840D02*
X2062840Y7575500D01*
X2092840Y7605500D01*
Y7545500D01*
D02*
G37*
G36*
X4561440Y7127080D02*
X4521440D01*
X4541440Y7147080D01*
X4561440Y7127080D01*
D02*
G37*
G36*
X2661440D02*
X2621440D01*
X2641440Y7147080D01*
X2661440Y7127080D01*
D02*
G37*
G36*
X4692019Y6950850D02*
X4708249Y6934620D01*
X4668248D01*
X4684478Y6950850D01*
X4668248Y6967080D01*
X4708249D01*
X4692019Y6950850D01*
D02*
G37*
G36*
X2792019D02*
X2808249Y6934620D01*
X2768248D01*
X2784478Y6950850D01*
X2768248Y6967080D01*
X2808249D01*
X2792019Y6950850D01*
D02*
G37*
G36*
X3992840Y5845500D02*
X3962840Y5875500D01*
X3992840Y5905500D01*
Y5845500D01*
D02*
G37*
G36*
X2092840D02*
X2062840Y5875500D01*
X2092840Y5905500D01*
Y5845500D01*
D02*
G37*
G36*
X4561440Y5427080D02*
X4521440D01*
X4541440Y5447080D01*
X4561440Y5427080D01*
D02*
G37*
G36*
X2661440D02*
X2621440D01*
X2641440Y5447080D01*
X2661440Y5427080D01*
D02*
G37*
G36*
X4692019Y5250850D02*
X4708249Y5234620D01*
X4668248D01*
X4684478Y5250850D01*
X4668248Y5267080D01*
X4708249D01*
X4692019Y5250850D01*
D02*
G37*
G36*
X2792019D02*
X2808249Y5234620D01*
X2768248D01*
X2784478Y5250850D01*
X2768248Y5267080D01*
X2808249D01*
X2792019Y5250850D01*
D02*
G37*
G36*
X3992840Y4145500D02*
X3962840Y4175500D01*
X3992840Y4205500D01*
Y4145500D01*
D02*
G37*
G36*
X2092840D02*
X2062840Y4175500D01*
X2092840Y4205500D01*
Y4145500D01*
D02*
G37*
G36*
X4561440Y3727080D02*
X4521440D01*
X4541440Y3747080D01*
X4561440Y3727080D01*
D02*
G37*
G36*
X2661440D02*
X2621440D01*
X2641440Y3747080D01*
X2661440Y3727080D01*
D02*
G37*
G36*
X4692019Y3550850D02*
X4708249Y3534620D01*
X4668248D01*
X4684478Y3550850D01*
X4668248Y3567080D01*
X4708249D01*
X4692019Y3550850D01*
D02*
G37*
G36*
X2792019D02*
X2808249Y3534620D01*
X2768248D01*
X2784478Y3550850D01*
X2768248Y3567080D01*
X2808249D01*
X2792019Y3550850D01*
D02*
G37*
G36*
X3992840Y2445500D02*
X3962840Y2475500D01*
X3992840Y2505500D01*
Y2445500D01*
D02*
G37*
G36*
X2092840D02*
X2062840Y2475500D01*
X2092840Y2505500D01*
Y2445500D01*
D02*
G37*
G36*
X4561440Y2027080D02*
X4521440D01*
X4541440Y2047080D01*
X4561440Y2027080D01*
D02*
G37*
G36*
X2661440D02*
X2621440D01*
X2641440Y2047080D01*
X2661440Y2027080D01*
D02*
G37*
G36*
X4692019Y1850850D02*
X4708249Y1834620D01*
X4668248D01*
X4684478Y1850850D01*
X4668248Y1867080D01*
X4708249D01*
X4692019Y1850850D01*
D02*
G37*
G36*
X2792019D02*
X2808249Y1834620D01*
X2768248D01*
X2784478Y1850850D01*
X2768248Y1867080D01*
X2808249D01*
X2792019Y1850850D01*
D02*
G37*
G36*
X3992840Y745500D02*
X3962840Y775500D01*
X3992840Y805500D01*
Y745500D01*
D02*
G37*
G36*
X2092840D02*
X2062840Y775500D01*
X2092840Y805500D01*
Y745500D01*
D02*
G37*
D29*
X2091480Y958979D02*
G03*
X2091480Y958979I-12500J0D01*
G01*
X3991480D02*
G03*
X3991480Y958979I-12500J0D01*
G01*
X2091480Y2658979D02*
G03*
X2091480Y2658979I-12500J0D01*
G01*
X3991480D02*
G03*
X3991480Y2658979I-12500J0D01*
G01*
X2091480Y4358980D02*
G03*
X2091480Y4358980I-12500J0D01*
G01*
X3991480D02*
G03*
X3991480Y4358980I-12500J0D01*
G01*
X2091480Y6058980D02*
G03*
X2091480Y6058980I-12500J0D01*
G01*
X3991480D02*
G03*
X3991480Y6058980I-12500J0D01*
G01*
X2091480Y7758980D02*
G03*
X2091480Y7758980I-12500J0D01*
G01*
X3991480D02*
G03*
X3991480Y7758980I-12500J0D01*
G01*
D30*
X2176560Y1024060D02*
G03*
X2176560Y1024060I-30000J0D01*
G01*
X4076560D02*
G03*
X4076560Y1024060I-30000J0D01*
G01*
X2176560Y2724060D02*
G03*
X2176560Y2724060I-30000J0D01*
G01*
X4076560D02*
G03*
X4076560Y2724060I-30000J0D01*
G01*
X2176560Y4424060D02*
G03*
X2176560Y4424060I-30000J0D01*
G01*
X4076560D02*
G03*
X4076560Y4424060I-30000J0D01*
G01*
X2176560Y6124060D02*
G03*
X2176560Y6124060I-30000J0D01*
G01*
X4076560D02*
G03*
X4076560Y6124060I-30000J0D01*
G01*
X2176560Y7824060D02*
G03*
X2176560Y7824060I-30000J0D01*
G01*
X4076560D02*
G03*
X4076560Y7824060I-30000J0D01*
G01*
D31*
X3366300Y1549000D02*
Y2115000D01*
X3095566Y1549000D02*
X3126300D01*
X3089039Y2115000D02*
X3126300D01*
X2961300Y1646000D02*
Y1666000D01*
Y1997261D02*
Y2017261D01*
X2581140Y2125360D02*
Y2172860D01*
X2861140D01*
Y2125360D02*
Y2172860D01*
X2581140Y2052860D02*
Y2100360D01*
Y2052860D02*
X2861140D01*
Y2100360D01*
X2028980Y918980D02*
Y1938980D01*
X2428980Y918980D02*
Y1938980D01*
X2028980Y918980D02*
X2428980D01*
X2028980Y1938980D02*
X2428980D01*
X2758249Y1674619D02*
Y1834620D01*
Y1674619D02*
X2818248D01*
Y1834620D01*
X2758249D02*
X2818248D01*
X2758249Y1867080D02*
X2818248D01*
X2758249D02*
Y2027080D01*
X2818248D01*
Y1867080D02*
Y2027080D01*
X2611440Y1867080D02*
Y2027080D01*
Y1867080D02*
X2671440D01*
Y2027080D01*
X2611440D02*
X2671440D01*
X2092840Y715500D02*
X2372840D01*
Y835499D01*
X2092840D02*
X2372840D01*
X2092840Y715500D02*
Y835499D01*
X2754904Y1067602D02*
Y1187602D01*
X2894904Y1067602D02*
Y1187602D01*
X2614904Y1067602D02*
X2894904D01*
X2614904D02*
Y1187602D01*
X2894904D01*
X2614904Y909968D02*
X2894904D01*
X2614904Y789969D02*
Y909968D01*
Y789969D02*
X2894904D01*
Y909968D01*
X2754904Y928785D02*
Y1048785D01*
X2894904Y928785D02*
Y1048785D01*
X2614904Y928785D02*
X2894904D01*
X2614904D02*
Y1048785D01*
X2894904D01*
X2614904Y1326418D02*
X2894904D01*
X2614904Y1206418D02*
Y1326418D01*
Y1206418D02*
X2894904D01*
Y1326418D01*
X1620340Y909240D02*
Y1189240D01*
Y909240D02*
X1740340D01*
Y1189240D01*
X1620340D02*
X1740340D01*
X1703340Y1986325D02*
Y2106325D01*
X1983340D01*
Y1986325D02*
Y2106325D01*
X1703340Y1986325D02*
X1983340D01*
X2288199Y2106325D02*
X2568199D01*
X2288199Y1986325D02*
Y2106325D01*
Y1986325D02*
X2568199D01*
Y2106325D01*
X2135770Y1986325D02*
Y2106325D01*
X1995770Y1986325D02*
Y2106325D01*
X2275770D01*
Y1986325D02*
Y2106325D01*
X1995770Y1986325D02*
X2275770D01*
X1876600Y1691540D02*
Y1971540D01*
X1756600D02*
X1876600D01*
X1756600Y1691540D02*
Y1971540D01*
Y1691540D02*
X1876600D01*
X1756600Y1831540D02*
X1876600D01*
X1757500Y1049240D02*
X1877500D01*
X1757500Y1189240D02*
X1877500D01*
Y909240D02*
Y1189240D01*
X1757500Y909240D02*
X1877500D01*
X1757500D02*
Y1189240D01*
X5266300Y1549000D02*
Y2115000D01*
X4995566Y1549000D02*
X5026300D01*
X4989039Y2115000D02*
X5026300D01*
X4861300Y1646000D02*
Y1666000D01*
Y1997261D02*
Y2017261D01*
X4481140Y2125360D02*
Y2172860D01*
X4761140D01*
Y2125360D02*
Y2172860D01*
X4481140Y2052860D02*
Y2100360D01*
Y2052860D02*
X4761140D01*
Y2100360D01*
X3928980Y918980D02*
Y1938980D01*
X4328980Y918980D02*
Y1938980D01*
X3928980Y918980D02*
X4328980D01*
X3928980Y1938980D02*
X4328980D01*
X4658249Y1674619D02*
Y1834620D01*
Y1674619D02*
X4718248D01*
Y1834620D01*
X4658249D02*
X4718248D01*
X4658249Y1867080D02*
X4718248D01*
X4658249D02*
Y2027080D01*
X4718248D01*
Y1867080D02*
Y2027080D01*
X4511440Y1867080D02*
Y2027080D01*
Y1867080D02*
X4571440D01*
Y2027080D01*
X4511440D02*
X4571440D01*
X3992840Y715500D02*
X4272840D01*
Y835499D01*
X3992840D02*
X4272840D01*
X3992840Y715500D02*
Y835499D01*
X4654904Y1067602D02*
Y1187602D01*
X4794904Y1067602D02*
Y1187602D01*
X4514904Y1067602D02*
X4794904D01*
X4514904D02*
Y1187602D01*
X4794904D01*
X4514904Y909968D02*
X4794904D01*
X4514904Y789969D02*
Y909968D01*
Y789969D02*
X4794904D01*
Y909968D01*
X4654904Y928785D02*
Y1048785D01*
X4794904Y928785D02*
Y1048785D01*
X4514904Y928785D02*
X4794904D01*
X4514904D02*
Y1048785D01*
X4794904D01*
X4514904Y1326418D02*
X4794904D01*
X4514904Y1206418D02*
Y1326418D01*
Y1206418D02*
X4794904D01*
Y1326418D01*
X3520340Y909240D02*
Y1189240D01*
Y909240D02*
X3640340D01*
Y1189240D01*
X3520340D02*
X3640340D01*
X3603340Y1986325D02*
Y2106325D01*
X3883340D01*
Y1986325D02*
Y2106325D01*
X3603340Y1986325D02*
X3883340D01*
X4188199Y2106325D02*
X4468199D01*
X4188199Y1986325D02*
Y2106325D01*
Y1986325D02*
X4468199D01*
Y2106325D01*
X4035770Y1986325D02*
Y2106325D01*
X3895770Y1986325D02*
Y2106325D01*
X4175770D01*
Y1986325D02*
Y2106325D01*
X3895770Y1986325D02*
X4175770D01*
X3776600Y1691540D02*
Y1971540D01*
X3656600D02*
X3776600D01*
X3656600Y1691540D02*
Y1971540D01*
Y1691540D02*
X3776600D01*
X3656600Y1831540D02*
X3776600D01*
X3657500Y1049240D02*
X3777500D01*
X3657500Y1189240D02*
X3777500D01*
Y909240D02*
Y1189240D01*
X3657500Y909240D02*
X3777500D01*
X3657500D02*
Y1189240D01*
X3366300Y3249000D02*
Y3815000D01*
X3095566Y3249000D02*
X3126300D01*
X3089039Y3815000D02*
X3126300D01*
X2961300Y3346000D02*
Y3366000D01*
Y3697261D02*
Y3717261D01*
X2581140Y3825360D02*
Y3872860D01*
X2861140D01*
Y3825360D02*
Y3872860D01*
X2581140Y3752860D02*
Y3800360D01*
Y3752860D02*
X2861140D01*
Y3800360D01*
X2028980Y2618980D02*
Y3638980D01*
X2428980Y2618980D02*
Y3638980D01*
X2028980Y2618980D02*
X2428980D01*
X2028980Y3638980D02*
X2428980D01*
X2758249Y3374620D02*
Y3534620D01*
Y3374620D02*
X2818248D01*
Y3534620D01*
X2758249D02*
X2818248D01*
X2758249Y3567080D02*
X2818248D01*
X2758249D02*
Y3727080D01*
X2818248D01*
Y3567080D02*
Y3727080D01*
X2611440Y3567080D02*
Y3727080D01*
Y3567080D02*
X2671440D01*
Y3727080D01*
X2611440D02*
X2671440D01*
X2092840Y2415500D02*
X2372840D01*
Y2535500D01*
X2092840D02*
X2372840D01*
X2092840Y2415500D02*
Y2535500D01*
X2754904Y2767602D02*
Y2887602D01*
X2894904Y2767602D02*
Y2887602D01*
X2614904Y2767602D02*
X2894904D01*
X2614904D02*
Y2887602D01*
X2894904D01*
X2614904Y2609969D02*
X2894904D01*
X2614904Y2489969D02*
Y2609969D01*
Y2489969D02*
X2894904D01*
Y2609969D01*
X2754904Y2628785D02*
Y2748785D01*
X2894904Y2628785D02*
Y2748785D01*
X2614904Y2628785D02*
X2894904D01*
X2614904D02*
Y2748785D01*
X2894904D01*
X2614904Y3026418D02*
X2894904D01*
X2614904Y2906419D02*
Y3026418D01*
Y2906419D02*
X2894904D01*
Y3026418D01*
X1620340Y2609240D02*
Y2889240D01*
Y2609240D02*
X1740340D01*
Y2889240D01*
X1620340D02*
X1740340D01*
X1703340Y3686325D02*
Y3806325D01*
X1983340D01*
Y3686325D02*
Y3806325D01*
X1703340Y3686325D02*
X1983340D01*
X2288199Y3806325D02*
X2568199D01*
X2288199Y3686325D02*
Y3806325D01*
Y3686325D02*
X2568199D01*
Y3806325D01*
X2135770Y3686325D02*
Y3806325D01*
X1995770Y3686325D02*
Y3806325D01*
X2275770D01*
Y3686325D02*
Y3806325D01*
X1995770Y3686325D02*
X2275770D01*
X1876600Y3391540D02*
Y3671540D01*
X1756600D02*
X1876600D01*
X1756600Y3391540D02*
Y3671540D01*
Y3391540D02*
X1876600D01*
X1756600Y3531540D02*
X1876600D01*
X1757500Y2749240D02*
X1877500D01*
X1757500Y2889240D02*
X1877500D01*
Y2609240D02*
Y2889240D01*
X1757500Y2609240D02*
X1877500D01*
X1757500D02*
Y2889240D01*
X5266300Y3249000D02*
Y3815000D01*
X4995566Y3249000D02*
X5026300D01*
X4989039Y3815000D02*
X5026300D01*
X4861300Y3346000D02*
Y3366000D01*
Y3697261D02*
Y3717261D01*
X4481140Y3825360D02*
Y3872860D01*
X4761140D01*
Y3825360D02*
Y3872860D01*
X4481140Y3752860D02*
Y3800360D01*
Y3752860D02*
X4761140D01*
Y3800360D01*
X3928980Y2618980D02*
Y3638980D01*
X4328980Y2618980D02*
Y3638980D01*
X3928980Y2618980D02*
X4328980D01*
X3928980Y3638980D02*
X4328980D01*
X4658249Y3374620D02*
Y3534620D01*
Y3374620D02*
X4718248D01*
Y3534620D01*
X4658249D02*
X4718248D01*
X4658249Y3567080D02*
X4718248D01*
X4658249D02*
Y3727080D01*
X4718248D01*
Y3567080D02*
Y3727080D01*
X4511440Y3567080D02*
Y3727080D01*
Y3567080D02*
X4571440D01*
Y3727080D01*
X4511440D02*
X4571440D01*
X3992840Y2415500D02*
X4272840D01*
Y2535500D01*
X3992840D02*
X4272840D01*
X3992840Y2415500D02*
Y2535500D01*
X4654904Y2767602D02*
Y2887602D01*
X4794904Y2767602D02*
Y2887602D01*
X4514904Y2767602D02*
X4794904D01*
X4514904D02*
Y2887602D01*
X4794904D01*
X4514904Y2609969D02*
X4794904D01*
X4514904Y2489969D02*
Y2609969D01*
Y2489969D02*
X4794904D01*
Y2609969D01*
X4654904Y2628785D02*
Y2748785D01*
X4794904Y2628785D02*
Y2748785D01*
X4514904Y2628785D02*
X4794904D01*
X4514904D02*
Y2748785D01*
X4794904D01*
X4514904Y3026418D02*
X4794904D01*
X4514904Y2906419D02*
Y3026418D01*
Y2906419D02*
X4794904D01*
Y3026418D01*
X3520340Y2609240D02*
Y2889240D01*
Y2609240D02*
X3640340D01*
Y2889240D01*
X3520340D02*
X3640340D01*
X3603340Y3686325D02*
Y3806325D01*
X3883340D01*
Y3686325D02*
Y3806325D01*
X3603340Y3686325D02*
X3883340D01*
X4188199Y3806325D02*
X4468199D01*
X4188199Y3686325D02*
Y3806325D01*
Y3686325D02*
X4468199D01*
Y3806325D01*
X4035770Y3686325D02*
Y3806325D01*
X3895770Y3686325D02*
Y3806325D01*
X4175770D01*
Y3686325D02*
Y3806325D01*
X3895770Y3686325D02*
X4175770D01*
X3776600Y3391540D02*
Y3671540D01*
X3656600D02*
X3776600D01*
X3656600Y3391540D02*
Y3671540D01*
Y3391540D02*
X3776600D01*
X3656600Y3531540D02*
X3776600D01*
X3657500Y2749240D02*
X3777500D01*
X3657500Y2889240D02*
X3777500D01*
Y2609240D02*
Y2889240D01*
X3657500Y2609240D02*
X3777500D01*
X3657500D02*
Y2889240D01*
X3366300Y4949000D02*
Y5515000D01*
X3095566Y4949000D02*
X3126300D01*
X3089039Y5515000D02*
X3126300D01*
X2961300Y5046000D02*
Y5066000D01*
Y5397261D02*
Y5417261D01*
X2581140Y5525360D02*
Y5572860D01*
X2861140D01*
Y5525360D02*
Y5572860D01*
X2581140Y5452860D02*
Y5500360D01*
Y5452860D02*
X2861140D01*
Y5500360D01*
X2028980Y4318980D02*
Y5338980D01*
X2428980Y4318980D02*
Y5338980D01*
X2028980Y4318980D02*
X2428980D01*
X2028980Y5338980D02*
X2428980D01*
X2758249Y5074620D02*
Y5234620D01*
Y5074620D02*
X2818248D01*
Y5234620D01*
X2758249D02*
X2818248D01*
X2758249Y5267080D02*
X2818248D01*
X2758249D02*
Y5427080D01*
X2818248D01*
Y5267080D02*
Y5427080D01*
X2611440Y5267080D02*
Y5427080D01*
Y5267080D02*
X2671440D01*
Y5427080D01*
X2611440D02*
X2671440D01*
X2092840Y4115500D02*
X2372840D01*
Y4235500D01*
X2092840D02*
X2372840D01*
X2092840Y4115500D02*
Y4235500D01*
X2754904Y4467602D02*
Y4587602D01*
X2894904Y4467602D02*
Y4587602D01*
X2614904Y4467602D02*
X2894904D01*
X2614904D02*
Y4587602D01*
X2894904D01*
X2614904Y4309969D02*
X2894904D01*
X2614904Y4189969D02*
Y4309969D01*
Y4189969D02*
X2894904D01*
Y4309969D01*
X2754904Y4328786D02*
Y4448785D01*
X2894904Y4328786D02*
Y4448785D01*
X2614904Y4328786D02*
X2894904D01*
X2614904D02*
Y4448785D01*
X2894904D01*
X2614904Y4726419D02*
X2894904D01*
X2614904Y4606419D02*
Y4726419D01*
Y4606419D02*
X2894904D01*
Y4726419D01*
X1620340Y4309240D02*
Y4589240D01*
Y4309240D02*
X1740340D01*
Y4589240D01*
X1620340D02*
X1740340D01*
X1703340Y5386325D02*
Y5506325D01*
X1983340D01*
Y5386325D02*
Y5506325D01*
X1703340Y5386325D02*
X1983340D01*
X2288199Y5506325D02*
X2568199D01*
X2288199Y5386325D02*
Y5506325D01*
Y5386325D02*
X2568199D01*
Y5506325D01*
X2135770Y5386325D02*
Y5506325D01*
X1995770Y5386325D02*
Y5506325D01*
X2275770D01*
Y5386325D02*
Y5506325D01*
X1995770Y5386325D02*
X2275770D01*
X1876600Y5091540D02*
Y5371540D01*
X1756600D02*
X1876600D01*
X1756600Y5091540D02*
Y5371540D01*
Y5091540D02*
X1876600D01*
X1756600Y5231540D02*
X1876600D01*
X1757500Y4449240D02*
X1877500D01*
X1757500Y4589240D02*
X1877500D01*
Y4309240D02*
Y4589240D01*
X1757500Y4309240D02*
X1877500D01*
X1757500D02*
Y4589240D01*
X5266300Y4949000D02*
Y5515000D01*
X4995566Y4949000D02*
X5026300D01*
X4989039Y5515000D02*
X5026300D01*
X4861300Y5046000D02*
Y5066000D01*
Y5397261D02*
Y5417261D01*
X4481140Y5525360D02*
Y5572860D01*
X4761140D01*
Y5525360D02*
Y5572860D01*
X4481140Y5452860D02*
Y5500360D01*
Y5452860D02*
X4761140D01*
Y5500360D01*
X3928980Y4318980D02*
Y5338980D01*
X4328980Y4318980D02*
Y5338980D01*
X3928980Y4318980D02*
X4328980D01*
X3928980Y5338980D02*
X4328980D01*
X4658249Y5074620D02*
Y5234620D01*
Y5074620D02*
X4718248D01*
Y5234620D01*
X4658249D02*
X4718248D01*
X4658249Y5267080D02*
X4718248D01*
X4658249D02*
Y5427080D01*
X4718248D01*
Y5267080D02*
Y5427080D01*
X4511440Y5267080D02*
Y5427080D01*
Y5267080D02*
X4571440D01*
Y5427080D01*
X4511440D02*
X4571440D01*
X3992840Y4115500D02*
X4272840D01*
Y4235500D01*
X3992840D02*
X4272840D01*
X3992840Y4115500D02*
Y4235500D01*
X4654904Y4467602D02*
Y4587602D01*
X4794904Y4467602D02*
Y4587602D01*
X4514904Y4467602D02*
X4794904D01*
X4514904D02*
Y4587602D01*
X4794904D01*
X4514904Y4309969D02*
X4794904D01*
X4514904Y4189969D02*
Y4309969D01*
Y4189969D02*
X4794904D01*
Y4309969D01*
X4654904Y4328786D02*
Y4448785D01*
X4794904Y4328786D02*
Y4448785D01*
X4514904Y4328786D02*
X4794904D01*
X4514904D02*
Y4448785D01*
X4794904D01*
X4514904Y4726419D02*
X4794904D01*
X4514904Y4606419D02*
Y4726419D01*
Y4606419D02*
X4794904D01*
Y4726419D01*
X3520340Y4309240D02*
Y4589240D01*
Y4309240D02*
X3640340D01*
Y4589240D01*
X3520340D02*
X3640340D01*
X3603340Y5386325D02*
Y5506325D01*
X3883340D01*
Y5386325D02*
Y5506325D01*
X3603340Y5386325D02*
X3883340D01*
X4188199Y5506325D02*
X4468199D01*
X4188199Y5386325D02*
Y5506325D01*
Y5386325D02*
X4468199D01*
Y5506325D01*
X4035770Y5386325D02*
Y5506325D01*
X3895770Y5386325D02*
Y5506325D01*
X4175770D01*
Y5386325D02*
Y5506325D01*
X3895770Y5386325D02*
X4175770D01*
X3776600Y5091540D02*
Y5371540D01*
X3656600D02*
X3776600D01*
X3656600Y5091540D02*
Y5371540D01*
Y5091540D02*
X3776600D01*
X3656600Y5231540D02*
X3776600D01*
X3657500Y4449240D02*
X3777500D01*
X3657500Y4589240D02*
X3777500D01*
Y4309240D02*
Y4589240D01*
X3657500Y4309240D02*
X3777500D01*
X3657500D02*
Y4589240D01*
X3366300Y6649000D02*
Y7215000D01*
X3095566Y6649000D02*
X3126300D01*
X3089039Y7215000D02*
X3126300D01*
X2961300Y6746000D02*
Y6766000D01*
Y7097261D02*
Y7117261D01*
X2581140Y7225360D02*
Y7272860D01*
X2861140D01*
Y7225360D02*
Y7272860D01*
X2581140Y7152860D02*
Y7200360D01*
Y7152860D02*
X2861140D01*
Y7200360D01*
X2028980Y6018980D02*
Y7038980D01*
X2428980Y6018980D02*
Y7038980D01*
X2028980Y6018980D02*
X2428980D01*
X2028980Y7038980D02*
X2428980D01*
X2758249Y6774620D02*
Y6934620D01*
Y6774620D02*
X2818248D01*
Y6934620D01*
X2758249D02*
X2818248D01*
X2758249Y6967080D02*
X2818248D01*
X2758249D02*
Y7127080D01*
X2818248D01*
Y6967080D02*
Y7127080D01*
X2611440Y6967080D02*
Y7127080D01*
Y6967080D02*
X2671440D01*
Y7127080D01*
X2611440D02*
X2671440D01*
X2092840Y5815500D02*
X2372840D01*
Y5935500D01*
X2092840D02*
X2372840D01*
X2092840Y5815500D02*
Y5935500D01*
X2754904Y6167602D02*
Y6287602D01*
X2894904Y6167602D02*
Y6287602D01*
X2614904Y6167602D02*
X2894904D01*
X2614904D02*
Y6287602D01*
X2894904D01*
X2614904Y6009969D02*
X2894904D01*
X2614904Y5889969D02*
Y6009969D01*
Y5889969D02*
X2894904D01*
Y6009969D01*
X2754904Y6028786D02*
Y6148786D01*
X2894904Y6028786D02*
Y6148786D01*
X2614904Y6028786D02*
X2894904D01*
X2614904D02*
Y6148786D01*
X2894904D01*
X2614904Y6426419D02*
X2894904D01*
X2614904Y6306419D02*
Y6426419D01*
Y6306419D02*
X2894904D01*
Y6426419D01*
X1620340Y6009240D02*
Y6289240D01*
Y6009240D02*
X1740340D01*
Y6289240D01*
X1620340D02*
X1740340D01*
X1703340Y7086325D02*
Y7206325D01*
X1983340D01*
Y7086325D02*
Y7206325D01*
X1703340Y7086325D02*
X1983340D01*
X2288199Y7206325D02*
X2568199D01*
X2288199Y7086325D02*
Y7206325D01*
Y7086325D02*
X2568199D01*
Y7206325D01*
X2135770Y7086325D02*
Y7206325D01*
X1995770Y7086325D02*
Y7206325D01*
X2275770D01*
Y7086325D02*
Y7206325D01*
X1995770Y7086325D02*
X2275770D01*
X1876600Y6791540D02*
Y7071540D01*
X1756600D02*
X1876600D01*
X1756600Y6791540D02*
Y7071540D01*
Y6791540D02*
X1876600D01*
X1756600Y6931540D02*
X1876600D01*
X1757500Y6149240D02*
X1877500D01*
X1757500Y6289240D02*
X1877500D01*
Y6009240D02*
Y6289240D01*
X1757500Y6009240D02*
X1877500D01*
X1757500D02*
Y6289240D01*
X5266300Y6649000D02*
Y7215000D01*
X4995566Y6649000D02*
X5026300D01*
X4989039Y7215000D02*
X5026300D01*
X4861300Y6746000D02*
Y6766000D01*
Y7097261D02*
Y7117261D01*
X4481140Y7225360D02*
Y7272860D01*
X4761140D01*
Y7225360D02*
Y7272860D01*
X4481140Y7152860D02*
Y7200360D01*
Y7152860D02*
X4761140D01*
Y7200360D01*
X3928980Y6018980D02*
Y7038980D01*
X4328980Y6018980D02*
Y7038980D01*
X3928980Y6018980D02*
X4328980D01*
X3928980Y7038980D02*
X4328980D01*
X4658249Y6774620D02*
Y6934620D01*
Y6774620D02*
X4718248D01*
Y6934620D01*
X4658249D02*
X4718248D01*
X4658249Y6967080D02*
X4718248D01*
X4658249D02*
Y7127080D01*
X4718248D01*
Y6967080D02*
Y7127080D01*
X4511440Y6967080D02*
Y7127080D01*
Y6967080D02*
X4571440D01*
Y7127080D01*
X4511440D02*
X4571440D01*
X3992840Y5815500D02*
X4272840D01*
Y5935500D01*
X3992840D02*
X4272840D01*
X3992840Y5815500D02*
Y5935500D01*
X4654904Y6167602D02*
Y6287602D01*
X4794904Y6167602D02*
Y6287602D01*
X4514904Y6167602D02*
X4794904D01*
X4514904D02*
Y6287602D01*
X4794904D01*
X4514904Y6009969D02*
X4794904D01*
X4514904Y5889969D02*
Y6009969D01*
Y5889969D02*
X4794904D01*
Y6009969D01*
X4654904Y6028786D02*
Y6148786D01*
X4794904Y6028786D02*
Y6148786D01*
X4514904Y6028786D02*
X4794904D01*
X4514904D02*
Y6148786D01*
X4794904D01*
X4514904Y6426419D02*
X4794904D01*
X4514904Y6306419D02*
Y6426419D01*
Y6306419D02*
X4794904D01*
Y6426419D01*
X3520340Y6009240D02*
Y6289240D01*
Y6009240D02*
X3640340D01*
Y6289240D01*
X3520340D02*
X3640340D01*
X3603340Y7086325D02*
Y7206325D01*
X3883340D01*
Y7086325D02*
Y7206325D01*
X3603340Y7086325D02*
X3883340D01*
X4188199Y7206325D02*
X4468199D01*
X4188199Y7086325D02*
Y7206325D01*
Y7086325D02*
X4468199D01*
Y7206325D01*
X4035770Y7086325D02*
Y7206325D01*
X3895770Y7086325D02*
Y7206325D01*
X4175770D01*
Y7086325D02*
Y7206325D01*
X3895770Y7086325D02*
X4175770D01*
X3776600Y6791540D02*
Y7071540D01*
X3656600D02*
X3776600D01*
X3656600Y6791540D02*
Y7071540D01*
Y6791540D02*
X3776600D01*
X3656600Y6931540D02*
X3776600D01*
X3657500Y6149240D02*
X3777500D01*
X3657500Y6289240D02*
X3777500D01*
Y6009240D02*
Y6289240D01*
X3657500Y6009240D02*
X3777500D01*
X3657500D02*
Y6289240D01*
X3366300Y8349000D02*
Y8915000D01*
X3095566Y8349000D02*
X3126300D01*
X3089039Y8915000D02*
X3126300D01*
X2961300Y8446000D02*
Y8466000D01*
Y8797262D02*
Y8817262D01*
X2581140Y8925360D02*
Y8972860D01*
X2861140D01*
Y8925360D02*
Y8972860D01*
X2581140Y8852860D02*
Y8900360D01*
Y8852860D02*
X2861140D01*
Y8900360D01*
X2028980Y7718980D02*
Y8738980D01*
X2428980Y7718980D02*
Y8738980D01*
X2028980Y7718980D02*
X2428980D01*
X2028980Y8738980D02*
X2428980D01*
X2758249Y8474620D02*
Y8634620D01*
Y8474620D02*
X2818248D01*
Y8634620D01*
X2758249D02*
X2818248D01*
X2758249Y8667080D02*
X2818248D01*
X2758249D02*
Y8827080D01*
X2818248D01*
Y8667080D02*
Y8827080D01*
X2611440Y8667080D02*
Y8827080D01*
Y8667080D02*
X2671440D01*
Y8827080D01*
X2611440D02*
X2671440D01*
X2092840Y7515500D02*
X2372840D01*
Y7635500D01*
X2092840D02*
X2372840D01*
X2092840Y7515500D02*
Y7635500D01*
X2754904Y7867603D02*
Y7987602D01*
X2894904Y7867603D02*
Y7987602D01*
X2614904Y7867603D02*
X2894904D01*
X2614904D02*
Y7987602D01*
X2894904D01*
X2614904Y7709969D02*
X2894904D01*
X2614904Y7589969D02*
Y7709969D01*
Y7589969D02*
X2894904D01*
Y7709969D01*
X2754904Y7728786D02*
Y7848786D01*
X2894904Y7728786D02*
Y7848786D01*
X2614904Y7728786D02*
X2894904D01*
X2614904D02*
Y7848786D01*
X2894904D01*
X2614904Y8126419D02*
X2894904D01*
X2614904Y8006419D02*
Y8126419D01*
Y8006419D02*
X2894904D01*
Y8126419D01*
X1620340Y7709240D02*
Y7989240D01*
Y7709240D02*
X1740340D01*
Y7989240D01*
X1620340D02*
X1740340D01*
X1703340Y8786326D02*
Y8906325D01*
X1983340D01*
Y8786326D02*
Y8906325D01*
X1703340Y8786326D02*
X1983340D01*
X2288199Y8906325D02*
X2568199D01*
X2288199Y8786326D02*
Y8906325D01*
Y8786326D02*
X2568199D01*
Y8906325D01*
X2135770Y8786326D02*
Y8906325D01*
X1995770Y8786326D02*
Y8906325D01*
X2275770D01*
Y8786326D02*
Y8906325D01*
X1995770Y8786326D02*
X2275770D01*
X1876600Y8491540D02*
Y8771540D01*
X1756600D02*
X1876600D01*
X1756600Y8491540D02*
Y8771540D01*
Y8491540D02*
X1876600D01*
X1756600Y8631540D02*
X1876600D01*
X1757500Y7849240D02*
X1877500D01*
X1757500Y7989240D02*
X1877500D01*
Y7709240D02*
Y7989240D01*
X1757500Y7709240D02*
X1877500D01*
X1757500D02*
Y7989240D01*
X5266300Y8349000D02*
Y8915000D01*
X4995566Y8349000D02*
X5026300D01*
X4989039Y8915000D02*
X5026300D01*
X4861300Y8446000D02*
Y8466000D01*
Y8797262D02*
Y8817262D01*
X4481140Y8925360D02*
Y8972860D01*
X4761140D01*
Y8925360D02*
Y8972860D01*
X4481140Y8852860D02*
Y8900360D01*
Y8852860D02*
X4761140D01*
Y8900360D01*
X3928980Y7718980D02*
Y8738980D01*
X4328980Y7718980D02*
Y8738980D01*
X3928980Y7718980D02*
X4328980D01*
X3928980Y8738980D02*
X4328980D01*
X4658249Y8474620D02*
Y8634620D01*
Y8474620D02*
X4718248D01*
Y8634620D01*
X4658249D02*
X4718248D01*
X4658249Y8667080D02*
X4718248D01*
X4658249D02*
Y8827080D01*
X4718248D01*
Y8667080D02*
Y8827080D01*
X4511440Y8667080D02*
Y8827080D01*
Y8667080D02*
X4571440D01*
Y8827080D01*
X4511440D02*
X4571440D01*
X3992840Y7515500D02*
X4272840D01*
Y7635500D01*
X3992840D02*
X4272840D01*
X3992840Y7515500D02*
Y7635500D01*
X4654904Y7867603D02*
Y7987602D01*
X4794904Y7867603D02*
Y7987602D01*
X4514904Y7867603D02*
X4794904D01*
X4514904D02*
Y7987602D01*
X4794904D01*
X4514904Y7709969D02*
X4794904D01*
X4514904Y7589969D02*
Y7709969D01*
Y7589969D02*
X4794904D01*
Y7709969D01*
X4654904Y7728786D02*
Y7848786D01*
X4794904Y7728786D02*
Y7848786D01*
X4514904Y7728786D02*
X4794904D01*
X4514904D02*
Y7848786D01*
X4794904D01*
X4514904Y8126419D02*
X4794904D01*
X4514904Y8006419D02*
Y8126419D01*
Y8006419D02*
X4794904D01*
Y8126419D01*
X3520340Y7709240D02*
Y7989240D01*
Y7709240D02*
X3640340D01*
Y7989240D01*
X3520340D02*
X3640340D01*
X3603340Y8786326D02*
Y8906325D01*
X3883340D01*
Y8786326D02*
Y8906325D01*
X3603340Y8786326D02*
X3883340D01*
X4188199Y8906325D02*
X4468199D01*
X4188199Y8786326D02*
Y8906325D01*
Y8786326D02*
X4468199D01*
Y8906325D01*
X4035770Y8786326D02*
Y8906325D01*
X3895770Y8786326D02*
Y8906325D01*
X4175770D01*
Y8786326D02*
Y8906325D01*
X3895770Y8786326D02*
X4175770D01*
X3776600Y8491540D02*
Y8771540D01*
X3656600D02*
X3776600D01*
X3656600Y8491540D02*
Y8771540D01*
Y8491540D02*
X3776600D01*
X3656600Y8631540D02*
X3776600D01*
X3657500Y7849240D02*
X3777500D01*
X3657500Y7989240D02*
X3777500D01*
Y7709240D02*
Y7989240D01*
X3657500Y7709240D02*
X3777500D01*
X3657500D02*
Y7989240D01*
D32*
X3281983Y931347D02*
X3290446Y939811D01*
X3307374D01*
X3315838Y931347D01*
Y897492D01*
X3307374Y889028D01*
X3290446D01*
X3281983Y897492D01*
Y914420D01*
X3298910D01*
X3265055Y889028D02*
Y939811D01*
X3231199Y889028D01*
Y939811D01*
X3214271D02*
Y889028D01*
X3188879D01*
X3180416Y897492D01*
Y931347D01*
X3188879Y939811D01*
X3214271D01*
X3316667Y1398074D02*
Y1448857D01*
X3291275D01*
X3282812Y1440393D01*
Y1423466D01*
X3291275Y1415001D01*
X3316667D01*
X3232028Y1440393D02*
X3240492Y1448857D01*
X3257420D01*
X3265884Y1440393D01*
Y1406538D01*
X3257420Y1398074D01*
X3240492D01*
X3232028Y1406538D01*
Y1423466D01*
X3248956D01*
X3215100Y1398074D02*
Y1448857D01*
X3198172Y1431929D01*
X3181245Y1448857D01*
Y1398074D01*
X3315172Y1188210D02*
X3306708Y1196674D01*
X3289780D01*
X3281316Y1188210D01*
Y1179746D01*
X3289780Y1171282D01*
X3298244D01*
X3289780D01*
X3281316Y1162818D01*
Y1154354D01*
X3289780Y1145890D01*
X3306708D01*
X3315172Y1154354D01*
X3264388Y1179746D02*
X3247460Y1145890D01*
X3230533Y1179746D01*
X3213605Y1188210D02*
X3205141Y1196674D01*
X3188213D01*
X3179749Y1188210D01*
Y1179746D01*
X3188213Y1171282D01*
X3196677D01*
X3188213D01*
X3179749Y1162818D01*
Y1154354D01*
X3188213Y1145890D01*
X3205141D01*
X3213605Y1154354D01*
X2668703Y1851712D02*
Y1800929D01*
X2643311D01*
X2634847Y1809393D01*
Y1843248D01*
X2643311Y1851712D01*
X2668703D01*
X2617920Y1843248D02*
X2609456Y1851712D01*
X2592528D01*
X2584064Y1843248D01*
Y1834784D01*
X2592528Y1826320D01*
X2584064Y1817856D01*
Y1809393D01*
X2592528Y1800929D01*
X2609456D01*
X2617920Y1809393D01*
Y1817856D01*
X2609456Y1826320D01*
X2617920Y1834784D01*
Y1843248D01*
X2609456Y1826320D02*
X2592528D01*
X2985044Y1005713D02*
X2993508Y1014177D01*
X3010436D01*
X3018900Y1005713D01*
Y971858D01*
X3010436Y963394D01*
X2993508D01*
X2985044Y971858D01*
X2934261Y1014177D02*
X2951188Y1005713D01*
X2968116Y988785D01*
Y971858D01*
X2959652Y963394D01*
X2942724D01*
X2934261Y971858D01*
Y980321D01*
X2942724Y988785D01*
X2968116D01*
X2985044Y1144530D02*
X2993508Y1152994D01*
X3010436D01*
X3018900Y1144530D01*
Y1110674D01*
X3010436Y1102210D01*
X2993508D01*
X2985044Y1110674D01*
X2968116Y1152994D02*
X2934261D01*
Y1144530D01*
X2968116Y1110674D01*
Y1102210D01*
X3041759Y1241027D02*
Y1291811D01*
X3016368D01*
X3007904Y1283347D01*
Y1266419D01*
X3016368Y1257955D01*
X3041759D01*
X3024832D02*
X3007904Y1241027D01*
X2990976D02*
X2974048D01*
X2982512D01*
Y1291811D01*
X2990976Y1283347D01*
X2948656D02*
X2940192Y1291811D01*
X2923264D01*
X2914801Y1283347D01*
Y1249492D01*
X2923264Y1241027D01*
X2940192D01*
X2948656Y1249492D01*
Y1283347D01*
X3021400Y824577D02*
Y875360D01*
X2996008D01*
X2987544Y866897D01*
Y849969D01*
X2996008Y841505D01*
X3021400D01*
X3004472D02*
X2987544Y824577D01*
X2970616Y833041D02*
X2962152Y824577D01*
X2945224D01*
X2936760Y833041D01*
Y866897D01*
X2945224Y875360D01*
X2962152D01*
X2970616Y866897D01*
Y858433D01*
X2962152Y849969D01*
X2936760D01*
X3312691Y2267171D02*
Y2224852D01*
X3304227Y2216388D01*
X3287299D01*
X3278836Y2224852D01*
Y2267171D01*
X3228052Y2258708D02*
X3236516Y2267171D01*
X3253444D01*
X3261908Y2258708D01*
Y2250244D01*
X3253444Y2241780D01*
X3236516D01*
X3228052Y2233316D01*
Y2224852D01*
X3236516Y2216388D01*
X3253444D01*
X3261908Y2224852D01*
X3211124Y2267171D02*
Y2216388D01*
X3185733D01*
X3177269Y2224852D01*
Y2233316D01*
X3185733Y2241780D01*
X3211124D01*
X3185733D01*
X3177269Y2250244D01*
Y2258708D01*
X3185733Y2267171D01*
X3211124D01*
X2004163Y909628D02*
Y867309D01*
X1995699Y858845D01*
X1978772D01*
X1970308Y867309D01*
Y909628D01*
X1953380Y858845D02*
X1936452D01*
X1944916D01*
Y909628D01*
X1953380Y901164D01*
X2404153Y2122440D02*
Y2173223D01*
X2378761D01*
X2370297Y2164759D01*
Y2147832D01*
X2378761Y2139368D01*
X2404153D01*
X2387225D02*
X2370297Y2122440D01*
X2353369Y2164759D02*
X2344905Y2173223D01*
X2327978D01*
X2319514Y2164759D01*
Y2156295D01*
X2327978Y2147832D01*
X2319514Y2139368D01*
Y2130904D01*
X2327978Y2122440D01*
X2344905D01*
X2353369Y2130904D01*
Y2139368D01*
X2344905Y2147832D01*
X2353369Y2156295D01*
Y2164759D01*
X2344905Y2147832D02*
X2327978D01*
X1885847Y2120895D02*
Y2171679D01*
X1860455D01*
X1851991Y2163215D01*
Y2146287D01*
X1860455Y2137823D01*
X1885847D01*
X1868919D02*
X1851991Y2120895D01*
X1835063Y2171679D02*
X1801207D01*
Y2163215D01*
X1835063Y2129359D01*
Y2120895D01*
X1715039Y1210548D02*
Y1261331D01*
X1689648D01*
X1681184Y1252868D01*
Y1235940D01*
X1689648Y1227476D01*
X1715039D01*
X1698112D02*
X1681184Y1210548D01*
X1630400Y1261331D02*
X1647328Y1252868D01*
X1664256Y1235940D01*
Y1219012D01*
X1655792Y1210548D01*
X1638864D01*
X1630400Y1219012D01*
Y1227476D01*
X1638864Y1235940D01*
X1664256D01*
X2731575Y2246751D02*
X2765430D01*
Y2221359D01*
X2748503D01*
X2765430D01*
Y2195967D01*
X2680791D02*
X2714647D01*
X2680791Y2229823D01*
Y2238287D01*
X2689255Y2246751D01*
X2706183D01*
X2714647Y2238287D01*
X2741021Y1907920D02*
X2690237D01*
Y1933312D01*
X2698701Y1941776D01*
X2732557D01*
X2741021Y1933312D01*
Y1907920D01*
Y1958704D02*
Y1992559D01*
X2732557D01*
X2698701Y1958704D01*
X2690237D01*
X2741075Y1776804D02*
Y1726021D01*
X2715683D01*
X2707219Y1734485D01*
Y1768341D01*
X2715683Y1776804D01*
X2741075D01*
X2656436D02*
X2673363Y1768341D01*
X2690291Y1751413D01*
Y1734485D01*
X2681827Y1726021D01*
X2664899D01*
X2656436Y1734485D01*
Y1742949D01*
X2664899Y1751413D01*
X2690291D01*
X2266708Y900216D02*
Y849432D01*
X2241317D01*
X2232853Y857896D01*
Y891752D01*
X2241317Y900216D01*
X2266708D01*
X2182069D02*
X2215925D01*
Y874824D01*
X2198997Y883288D01*
X2190533D01*
X2182069Y874824D01*
Y857896D01*
X2190533Y849432D01*
X2207461D01*
X2215925Y857896D01*
X1847124Y1255408D02*
X1855588Y1263871D01*
X1872515D01*
X1880979Y1255408D01*
Y1221552D01*
X1872515Y1213088D01*
X1855588D01*
X1847124Y1221552D01*
X1830196Y1213088D02*
X1813268D01*
X1821732D01*
Y1263871D01*
X1830196Y1255408D01*
X1787876D02*
X1779412Y1263871D01*
X1762484D01*
X1754021Y1255408D01*
Y1221552D01*
X1762484Y1213088D01*
X1779412D01*
X1787876Y1221552D01*
Y1255408D01*
X1704330Y1847264D02*
X1712793Y1855728D01*
X1729721D01*
X1738185Y1847264D01*
Y1813408D01*
X1729721Y1804944D01*
X1712793D01*
X1704330Y1813408D01*
X1687402D02*
X1678938Y1804944D01*
X1662010D01*
X1653546Y1813408D01*
Y1847264D01*
X1662010Y1855728D01*
X1678938D01*
X1687402Y1847264D01*
Y1838800D01*
X1678938Y1830336D01*
X1653546D01*
X2126181Y2165800D02*
X2134645Y2174264D01*
X2151573D01*
X2160037Y2165800D01*
Y2131944D01*
X2151573Y2123480D01*
X2134645D01*
X2126181Y2131944D01*
X2109253Y2165800D02*
X2100789Y2174264D01*
X2083861D01*
X2075397Y2165800D01*
Y2157336D01*
X2083861Y2148872D01*
X2075397Y2140408D01*
Y2131944D01*
X2083861Y2123480D01*
X2100789D01*
X2109253Y2131944D01*
Y2140408D01*
X2100789Y2148872D01*
X2109253Y2157336D01*
Y2165800D01*
X2100789Y2148872D02*
X2083861D01*
X5181983Y931347D02*
X5190446Y939811D01*
X5207374D01*
X5215838Y931347D01*
Y897492D01*
X5207374Y889028D01*
X5190446D01*
X5181983Y897492D01*
Y914420D01*
X5198910D01*
X5165055Y889028D02*
Y939811D01*
X5131199Y889028D01*
Y939811D01*
X5114271D02*
Y889028D01*
X5088879D01*
X5080416Y897492D01*
Y931347D01*
X5088879Y939811D01*
X5114271D01*
X5216667Y1398074D02*
Y1448857D01*
X5191275D01*
X5182812Y1440393D01*
Y1423466D01*
X5191275Y1415001D01*
X5216667D01*
X5132028Y1440393D02*
X5140492Y1448857D01*
X5157420D01*
X5165884Y1440393D01*
Y1406538D01*
X5157420Y1398074D01*
X5140492D01*
X5132028Y1406538D01*
Y1423466D01*
X5148956D01*
X5115100Y1398074D02*
Y1448857D01*
X5098172Y1431929D01*
X5081245Y1448857D01*
Y1398074D01*
X5215172Y1188210D02*
X5206708Y1196674D01*
X5189780D01*
X5181316Y1188210D01*
Y1179746D01*
X5189780Y1171282D01*
X5198244D01*
X5189780D01*
X5181316Y1162818D01*
Y1154354D01*
X5189780Y1145890D01*
X5206708D01*
X5215172Y1154354D01*
X5164388Y1179746D02*
X5147460Y1145890D01*
X5130533Y1179746D01*
X5113605Y1188210D02*
X5105141Y1196674D01*
X5088213D01*
X5079749Y1188210D01*
Y1179746D01*
X5088213Y1171282D01*
X5096677D01*
X5088213D01*
X5079749Y1162818D01*
Y1154354D01*
X5088213Y1145890D01*
X5105141D01*
X5113605Y1154354D01*
X4568703Y1851712D02*
Y1800929D01*
X4543311D01*
X4534847Y1809393D01*
Y1843248D01*
X4543311Y1851712D01*
X4568703D01*
X4517920Y1843248D02*
X4509456Y1851712D01*
X4492528D01*
X4484064Y1843248D01*
Y1834784D01*
X4492528Y1826320D01*
X4484064Y1817856D01*
Y1809393D01*
X4492528Y1800929D01*
X4509456D01*
X4517920Y1809393D01*
Y1817856D01*
X4509456Y1826320D01*
X4517920Y1834784D01*
Y1843248D01*
X4509456Y1826320D02*
X4492528D01*
X4885044Y1005713D02*
X4893508Y1014177D01*
X4910436D01*
X4918900Y1005713D01*
Y971858D01*
X4910436Y963394D01*
X4893508D01*
X4885044Y971858D01*
X4834261Y1014177D02*
X4851188Y1005713D01*
X4868116Y988785D01*
Y971858D01*
X4859652Y963394D01*
X4842724D01*
X4834261Y971858D01*
Y980321D01*
X4842724Y988785D01*
X4868116D01*
X4885044Y1144530D02*
X4893508Y1152994D01*
X4910436D01*
X4918900Y1144530D01*
Y1110674D01*
X4910436Y1102210D01*
X4893508D01*
X4885044Y1110674D01*
X4868116Y1152994D02*
X4834261D01*
Y1144530D01*
X4868116Y1110674D01*
Y1102210D01*
X4941759Y1241027D02*
Y1291811D01*
X4916368D01*
X4907904Y1283347D01*
Y1266419D01*
X4916368Y1257955D01*
X4941759D01*
X4924832D02*
X4907904Y1241027D01*
X4890976D02*
X4874048D01*
X4882512D01*
Y1291811D01*
X4890976Y1283347D01*
X4848656D02*
X4840192Y1291811D01*
X4823264D01*
X4814801Y1283347D01*
Y1249492D01*
X4823264Y1241027D01*
X4840192D01*
X4848656Y1249492D01*
Y1283347D01*
X4921400Y824577D02*
Y875360D01*
X4896008D01*
X4887544Y866897D01*
Y849969D01*
X4896008Y841505D01*
X4921400D01*
X4904472D02*
X4887544Y824577D01*
X4870616Y833041D02*
X4862152Y824577D01*
X4845224D01*
X4836760Y833041D01*
Y866897D01*
X4845224Y875360D01*
X4862152D01*
X4870616Y866897D01*
Y858433D01*
X4862152Y849969D01*
X4836760D01*
X5212691Y2267171D02*
Y2224852D01*
X5204227Y2216388D01*
X5187300D01*
X5178836Y2224852D01*
Y2267171D01*
X5128052Y2258708D02*
X5136516Y2267171D01*
X5153444D01*
X5161908Y2258708D01*
Y2250244D01*
X5153444Y2241780D01*
X5136516D01*
X5128052Y2233316D01*
Y2224852D01*
X5136516Y2216388D01*
X5153444D01*
X5161908Y2224852D01*
X5111124Y2267171D02*
Y2216388D01*
X5085733D01*
X5077269Y2224852D01*
Y2233316D01*
X5085733Y2241780D01*
X5111124D01*
X5085733D01*
X5077269Y2250244D01*
Y2258708D01*
X5085733Y2267171D01*
X5111124D01*
X3904163Y909628D02*
Y867309D01*
X3895699Y858845D01*
X3878772D01*
X3870308Y867309D01*
Y909628D01*
X3853380Y858845D02*
X3836452D01*
X3844916D01*
Y909628D01*
X3853380Y901164D01*
X4304153Y2122440D02*
Y2173223D01*
X4278761D01*
X4270297Y2164759D01*
Y2147832D01*
X4278761Y2139368D01*
X4304153D01*
X4287225D02*
X4270297Y2122440D01*
X4253369Y2164759D02*
X4244905Y2173223D01*
X4227978D01*
X4219514Y2164759D01*
Y2156295D01*
X4227978Y2147832D01*
X4219514Y2139368D01*
Y2130904D01*
X4227978Y2122440D01*
X4244905D01*
X4253369Y2130904D01*
Y2139368D01*
X4244905Y2147832D01*
X4253369Y2156295D01*
Y2164759D01*
X4244905Y2147832D02*
X4227978D01*
X3785847Y2120895D02*
Y2171679D01*
X3760455D01*
X3751991Y2163215D01*
Y2146287D01*
X3760455Y2137823D01*
X3785847D01*
X3768919D02*
X3751991Y2120895D01*
X3735063Y2171679D02*
X3701207D01*
Y2163215D01*
X3735063Y2129359D01*
Y2120895D01*
X3615040Y1210548D02*
Y1261331D01*
X3589648D01*
X3581184Y1252868D01*
Y1235940D01*
X3589648Y1227476D01*
X3615040D01*
X3598112D02*
X3581184Y1210548D01*
X3530400Y1261331D02*
X3547328Y1252868D01*
X3564256Y1235940D01*
Y1219012D01*
X3555792Y1210548D01*
X3538864D01*
X3530400Y1219012D01*
Y1227476D01*
X3538864Y1235940D01*
X3564256D01*
X4631575Y2246751D02*
X4665430D01*
Y2221359D01*
X4648503D01*
X4665430D01*
Y2195967D01*
X4580791D02*
X4614647D01*
X4580791Y2229823D01*
Y2238287D01*
X4589255Y2246751D01*
X4606183D01*
X4614647Y2238287D01*
X4641021Y1907920D02*
X4590237D01*
Y1933312D01*
X4598701Y1941776D01*
X4632557D01*
X4641021Y1933312D01*
Y1907920D01*
Y1958704D02*
Y1992559D01*
X4632557D01*
X4598701Y1958704D01*
X4590237D01*
X4641075Y1776804D02*
Y1726021D01*
X4615683D01*
X4607219Y1734485D01*
Y1768341D01*
X4615683Y1776804D01*
X4641075D01*
X4556436D02*
X4573363Y1768341D01*
X4590291Y1751413D01*
Y1734485D01*
X4581827Y1726021D01*
X4564899D01*
X4556436Y1734485D01*
Y1742949D01*
X4564899Y1751413D01*
X4590291D01*
X4166708Y900216D02*
Y849432D01*
X4141317D01*
X4132853Y857896D01*
Y891752D01*
X4141317Y900216D01*
X4166708D01*
X4082069D02*
X4115925D01*
Y874824D01*
X4098997Y883288D01*
X4090533D01*
X4082069Y874824D01*
Y857896D01*
X4090533Y849432D01*
X4107461D01*
X4115925Y857896D01*
X3747124Y1255408D02*
X3755588Y1263871D01*
X3772515D01*
X3780979Y1255408D01*
Y1221552D01*
X3772515Y1213088D01*
X3755588D01*
X3747124Y1221552D01*
X3730196Y1213088D02*
X3713268D01*
X3721732D01*
Y1263871D01*
X3730196Y1255408D01*
X3687876D02*
X3679412Y1263871D01*
X3662484D01*
X3654021Y1255408D01*
Y1221552D01*
X3662484Y1213088D01*
X3679412D01*
X3687876Y1221552D01*
Y1255408D01*
X3604330Y1847264D02*
X3612793Y1855728D01*
X3629721D01*
X3638185Y1847264D01*
Y1813408D01*
X3629721Y1804944D01*
X3612793D01*
X3604330Y1813408D01*
X3587402D02*
X3578938Y1804944D01*
X3562010D01*
X3553546Y1813408D01*
Y1847264D01*
X3562010Y1855728D01*
X3578938D01*
X3587402Y1847264D01*
Y1838800D01*
X3578938Y1830336D01*
X3553546D01*
X4026181Y2165800D02*
X4034645Y2174264D01*
X4051573D01*
X4060037Y2165800D01*
Y2131944D01*
X4051573Y2123480D01*
X4034645D01*
X4026181Y2131944D01*
X4009253Y2165800D02*
X4000789Y2174264D01*
X3983861D01*
X3975397Y2165800D01*
Y2157336D01*
X3983861Y2148872D01*
X3975397Y2140408D01*
Y2131944D01*
X3983861Y2123480D01*
X4000789D01*
X4009253Y2131944D01*
Y2140408D01*
X4000789Y2148872D01*
X4009253Y2157336D01*
Y2165800D01*
X4000789Y2148872D02*
X3983861D01*
X3281983Y2631348D02*
X3290446Y2639811D01*
X3307374D01*
X3315838Y2631348D01*
Y2597492D01*
X3307374Y2589028D01*
X3290446D01*
X3281983Y2597492D01*
Y2614420D01*
X3298910D01*
X3265055Y2589028D02*
Y2639811D01*
X3231199Y2589028D01*
Y2639811D01*
X3214271D02*
Y2589028D01*
X3188879D01*
X3180416Y2597492D01*
Y2631348D01*
X3188879Y2639811D01*
X3214271D01*
X3316667Y3098074D02*
Y3148857D01*
X3291275D01*
X3282812Y3140394D01*
Y3123466D01*
X3291275Y3115002D01*
X3316667D01*
X3232028Y3140394D02*
X3240492Y3148857D01*
X3257420D01*
X3265884Y3140394D01*
Y3106538D01*
X3257420Y3098074D01*
X3240492D01*
X3232028Y3106538D01*
Y3123466D01*
X3248956D01*
X3215100Y3098074D02*
Y3148857D01*
X3198172Y3131929D01*
X3181245Y3148857D01*
Y3098074D01*
X3315172Y2888210D02*
X3306708Y2896674D01*
X3289780D01*
X3281316Y2888210D01*
Y2879746D01*
X3289780Y2871282D01*
X3298244D01*
X3289780D01*
X3281316Y2862818D01*
Y2854354D01*
X3289780Y2845890D01*
X3306708D01*
X3315172Y2854354D01*
X3264388Y2879746D02*
X3247460Y2845890D01*
X3230533Y2879746D01*
X3213605Y2888210D02*
X3205141Y2896674D01*
X3188213D01*
X3179749Y2888210D01*
Y2879746D01*
X3188213Y2871282D01*
X3196677D01*
X3188213D01*
X3179749Y2862818D01*
Y2854354D01*
X3188213Y2845890D01*
X3205141D01*
X3213605Y2854354D01*
X2668703Y3551712D02*
Y3500929D01*
X2643311D01*
X2634847Y3509393D01*
Y3543248D01*
X2643311Y3551712D01*
X2668703D01*
X2617920Y3543248D02*
X2609456Y3551712D01*
X2592528D01*
X2584064Y3543248D01*
Y3534784D01*
X2592528Y3526321D01*
X2584064Y3517857D01*
Y3509393D01*
X2592528Y3500929D01*
X2609456D01*
X2617920Y3509393D01*
Y3517857D01*
X2609456Y3526321D01*
X2617920Y3534784D01*
Y3543248D01*
X2609456Y3526321D02*
X2592528D01*
X2985044Y2705713D02*
X2993508Y2714177D01*
X3010436D01*
X3018900Y2705713D01*
Y2671858D01*
X3010436Y2663394D01*
X2993508D01*
X2985044Y2671858D01*
X2934261Y2714177D02*
X2951188Y2705713D01*
X2968116Y2688786D01*
Y2671858D01*
X2959652Y2663394D01*
X2942724D01*
X2934261Y2671858D01*
Y2680322D01*
X2942724Y2688786D01*
X2968116D01*
X2985044Y2844530D02*
X2993508Y2852994D01*
X3010436D01*
X3018900Y2844530D01*
Y2810674D01*
X3010436Y2802210D01*
X2993508D01*
X2985044Y2810674D01*
X2968116Y2852994D02*
X2934261D01*
Y2844530D01*
X2968116Y2810674D01*
Y2802210D01*
X3041759Y2941028D02*
Y2991811D01*
X3016368D01*
X3007904Y2983347D01*
Y2966420D01*
X3016368Y2957955D01*
X3041759D01*
X3024832D02*
X3007904Y2941028D01*
X2990976D02*
X2974048D01*
X2982512D01*
Y2991811D01*
X2990976Y2983347D01*
X2948656D02*
X2940192Y2991811D01*
X2923264D01*
X2914801Y2983347D01*
Y2949492D01*
X2923264Y2941028D01*
X2940192D01*
X2948656Y2949492D01*
Y2983347D01*
X3021400Y2524577D02*
Y2575361D01*
X2996008D01*
X2987544Y2566897D01*
Y2549969D01*
X2996008Y2541505D01*
X3021400D01*
X3004472D02*
X2987544Y2524577D01*
X2970616Y2533041D02*
X2962152Y2524577D01*
X2945224D01*
X2936760Y2533041D01*
Y2566897D01*
X2945224Y2575361D01*
X2962152D01*
X2970616Y2566897D01*
Y2558433D01*
X2962152Y2549969D01*
X2936760D01*
X3312691Y3967172D02*
Y3924852D01*
X3304227Y3916388D01*
X3287299D01*
X3278836Y3924852D01*
Y3967172D01*
X3228052Y3958708D02*
X3236516Y3967172D01*
X3253444D01*
X3261908Y3958708D01*
Y3950244D01*
X3253444Y3941780D01*
X3236516D01*
X3228052Y3933316D01*
Y3924852D01*
X3236516Y3916388D01*
X3253444D01*
X3261908Y3924852D01*
X3211124Y3967172D02*
Y3916388D01*
X3185733D01*
X3177269Y3924852D01*
Y3933316D01*
X3185733Y3941780D01*
X3211124D01*
X3185733D01*
X3177269Y3950244D01*
Y3958708D01*
X3185733Y3967172D01*
X3211124D01*
X2004163Y2609628D02*
Y2567309D01*
X1995699Y2558845D01*
X1978772D01*
X1970308Y2567309D01*
Y2609628D01*
X1953380Y2558845D02*
X1936452D01*
X1944916D01*
Y2609628D01*
X1953380Y2601164D01*
X2404153Y3822440D02*
Y3873223D01*
X2378761D01*
X2370297Y3864760D01*
Y3847832D01*
X2378761Y3839368D01*
X2404153D01*
X2387225D02*
X2370297Y3822440D01*
X2353369Y3864760D02*
X2344905Y3873223D01*
X2327978D01*
X2319514Y3864760D01*
Y3856296D01*
X2327978Y3847832D01*
X2319514Y3839368D01*
Y3830904D01*
X2327978Y3822440D01*
X2344905D01*
X2353369Y3830904D01*
Y3839368D01*
X2344905Y3847832D01*
X2353369Y3856296D01*
Y3864760D01*
X2344905Y3847832D02*
X2327978D01*
X1885847Y3820896D02*
Y3871679D01*
X1860455D01*
X1851991Y3863215D01*
Y3846287D01*
X1860455Y3837823D01*
X1885847D01*
X1868919D02*
X1851991Y3820896D01*
X1835063Y3871679D02*
X1801207D01*
Y3863215D01*
X1835063Y3829360D01*
Y3820896D01*
X1715039Y2910548D02*
Y2961332D01*
X1689648D01*
X1681184Y2952868D01*
Y2935940D01*
X1689648Y2927476D01*
X1715039D01*
X1698112D02*
X1681184Y2910548D01*
X1630400Y2961332D02*
X1647328Y2952868D01*
X1664256Y2935940D01*
Y2919012D01*
X1655792Y2910548D01*
X1638864D01*
X1630400Y2919012D01*
Y2927476D01*
X1638864Y2935940D01*
X1664256D01*
X2731575Y3946751D02*
X2765430D01*
Y3921359D01*
X2748503D01*
X2765430D01*
Y3895967D01*
X2680791D02*
X2714647D01*
X2680791Y3929823D01*
Y3938287D01*
X2689255Y3946751D01*
X2706183D01*
X2714647Y3938287D01*
X2741021Y3607920D02*
X2690237D01*
Y3633312D01*
X2698701Y3641776D01*
X2732557D01*
X2741021Y3633312D01*
Y3607920D01*
Y3658704D02*
Y3692560D01*
X2732557D01*
X2698701Y3658704D01*
X2690237D01*
X2741075Y3476805D02*
Y3426021D01*
X2715683D01*
X2707219Y3434485D01*
Y3468341D01*
X2715683Y3476805D01*
X2741075D01*
X2656436D02*
X2673363Y3468341D01*
X2690291Y3451413D01*
Y3434485D01*
X2681827Y3426021D01*
X2664899D01*
X2656436Y3434485D01*
Y3442949D01*
X2664899Y3451413D01*
X2690291D01*
X2266708Y2600216D02*
Y2549433D01*
X2241317D01*
X2232853Y2557897D01*
Y2591752D01*
X2241317Y2600216D01*
X2266708D01*
X2182069D02*
X2215925D01*
Y2574824D01*
X2198997Y2583288D01*
X2190533D01*
X2182069Y2574824D01*
Y2557897D01*
X2190533Y2549433D01*
X2207461D01*
X2215925Y2557897D01*
X1847124Y2955408D02*
X1855588Y2963872D01*
X1872515D01*
X1880979Y2955408D01*
Y2921552D01*
X1872515Y2913088D01*
X1855588D01*
X1847124Y2921552D01*
X1830196Y2913088D02*
X1813268D01*
X1821732D01*
Y2963872D01*
X1830196Y2955408D01*
X1787876D02*
X1779412Y2963872D01*
X1762484D01*
X1754021Y2955408D01*
Y2921552D01*
X1762484Y2913088D01*
X1779412D01*
X1787876Y2921552D01*
Y2955408D01*
X1704330Y3547264D02*
X1712793Y3555728D01*
X1729721D01*
X1738185Y3547264D01*
Y3513408D01*
X1729721Y3504944D01*
X1712793D01*
X1704330Y3513408D01*
X1687402D02*
X1678938Y3504944D01*
X1662010D01*
X1653546Y3513408D01*
Y3547264D01*
X1662010Y3555728D01*
X1678938D01*
X1687402Y3547264D01*
Y3538800D01*
X1678938Y3530336D01*
X1653546D01*
X2126181Y3865800D02*
X2134645Y3874264D01*
X2151573D01*
X2160037Y3865800D01*
Y3831944D01*
X2151573Y3823480D01*
X2134645D01*
X2126181Y3831944D01*
X2109253Y3865800D02*
X2100789Y3874264D01*
X2083861D01*
X2075397Y3865800D01*
Y3857336D01*
X2083861Y3848872D01*
X2075397Y3840408D01*
Y3831944D01*
X2083861Y3823480D01*
X2100789D01*
X2109253Y3831944D01*
Y3840408D01*
X2100789Y3848872D01*
X2109253Y3857336D01*
Y3865800D01*
X2100789Y3848872D02*
X2083861D01*
X5181983Y2631348D02*
X5190446Y2639811D01*
X5207374D01*
X5215838Y2631348D01*
Y2597492D01*
X5207374Y2589028D01*
X5190446D01*
X5181983Y2597492D01*
Y2614420D01*
X5198910D01*
X5165055Y2589028D02*
Y2639811D01*
X5131199Y2589028D01*
Y2639811D01*
X5114271D02*
Y2589028D01*
X5088879D01*
X5080416Y2597492D01*
Y2631348D01*
X5088879Y2639811D01*
X5114271D01*
X5216667Y3098074D02*
Y3148857D01*
X5191275D01*
X5182812Y3140394D01*
Y3123466D01*
X5191275Y3115002D01*
X5216667D01*
X5132028Y3140394D02*
X5140492Y3148857D01*
X5157420D01*
X5165884Y3140394D01*
Y3106538D01*
X5157420Y3098074D01*
X5140492D01*
X5132028Y3106538D01*
Y3123466D01*
X5148956D01*
X5115100Y3098074D02*
Y3148857D01*
X5098172Y3131929D01*
X5081245Y3148857D01*
Y3098074D01*
X5215172Y2888210D02*
X5206708Y2896674D01*
X5189780D01*
X5181316Y2888210D01*
Y2879746D01*
X5189780Y2871282D01*
X5198244D01*
X5189780D01*
X5181316Y2862818D01*
Y2854354D01*
X5189780Y2845890D01*
X5206708D01*
X5215172Y2854354D01*
X5164388Y2879746D02*
X5147460Y2845890D01*
X5130533Y2879746D01*
X5113605Y2888210D02*
X5105141Y2896674D01*
X5088213D01*
X5079749Y2888210D01*
Y2879746D01*
X5088213Y2871282D01*
X5096677D01*
X5088213D01*
X5079749Y2862818D01*
Y2854354D01*
X5088213Y2845890D01*
X5105141D01*
X5113605Y2854354D01*
X4568703Y3551712D02*
Y3500929D01*
X4543311D01*
X4534847Y3509393D01*
Y3543248D01*
X4543311Y3551712D01*
X4568703D01*
X4517920Y3543248D02*
X4509456Y3551712D01*
X4492528D01*
X4484064Y3543248D01*
Y3534784D01*
X4492528Y3526321D01*
X4484064Y3517857D01*
Y3509393D01*
X4492528Y3500929D01*
X4509456D01*
X4517920Y3509393D01*
Y3517857D01*
X4509456Y3526321D01*
X4517920Y3534784D01*
Y3543248D01*
X4509456Y3526321D02*
X4492528D01*
X4885044Y2705713D02*
X4893508Y2714177D01*
X4910436D01*
X4918900Y2705713D01*
Y2671858D01*
X4910436Y2663394D01*
X4893508D01*
X4885044Y2671858D01*
X4834261Y2714177D02*
X4851188Y2705713D01*
X4868116Y2688786D01*
Y2671858D01*
X4859652Y2663394D01*
X4842724D01*
X4834261Y2671858D01*
Y2680322D01*
X4842724Y2688786D01*
X4868116D01*
X4885044Y2844530D02*
X4893508Y2852994D01*
X4910436D01*
X4918900Y2844530D01*
Y2810674D01*
X4910436Y2802210D01*
X4893508D01*
X4885044Y2810674D01*
X4868116Y2852994D02*
X4834261D01*
Y2844530D01*
X4868116Y2810674D01*
Y2802210D01*
X4941759Y2941028D02*
Y2991811D01*
X4916368D01*
X4907904Y2983347D01*
Y2966420D01*
X4916368Y2957955D01*
X4941759D01*
X4924832D02*
X4907904Y2941028D01*
X4890976D02*
X4874048D01*
X4882512D01*
Y2991811D01*
X4890976Y2983347D01*
X4848656D02*
X4840192Y2991811D01*
X4823264D01*
X4814801Y2983347D01*
Y2949492D01*
X4823264Y2941028D01*
X4840192D01*
X4848656Y2949492D01*
Y2983347D01*
X4921400Y2524577D02*
Y2575361D01*
X4896008D01*
X4887544Y2566897D01*
Y2549969D01*
X4896008Y2541505D01*
X4921400D01*
X4904472D02*
X4887544Y2524577D01*
X4870616Y2533041D02*
X4862152Y2524577D01*
X4845224D01*
X4836760Y2533041D01*
Y2566897D01*
X4845224Y2575361D01*
X4862152D01*
X4870616Y2566897D01*
Y2558433D01*
X4862152Y2549969D01*
X4836760D01*
X5212691Y3967172D02*
Y3924852D01*
X5204227Y3916388D01*
X5187300D01*
X5178836Y3924852D01*
Y3967172D01*
X5128052Y3958708D02*
X5136516Y3967172D01*
X5153444D01*
X5161908Y3958708D01*
Y3950244D01*
X5153444Y3941780D01*
X5136516D01*
X5128052Y3933316D01*
Y3924852D01*
X5136516Y3916388D01*
X5153444D01*
X5161908Y3924852D01*
X5111124Y3967172D02*
Y3916388D01*
X5085733D01*
X5077269Y3924852D01*
Y3933316D01*
X5085733Y3941780D01*
X5111124D01*
X5085733D01*
X5077269Y3950244D01*
Y3958708D01*
X5085733Y3967172D01*
X5111124D01*
X3904163Y2609628D02*
Y2567309D01*
X3895699Y2558845D01*
X3878772D01*
X3870308Y2567309D01*
Y2609628D01*
X3853380Y2558845D02*
X3836452D01*
X3844916D01*
Y2609628D01*
X3853380Y2601164D01*
X4304153Y3822440D02*
Y3873223D01*
X4278761D01*
X4270297Y3864760D01*
Y3847832D01*
X4278761Y3839368D01*
X4304153D01*
X4287225D02*
X4270297Y3822440D01*
X4253369Y3864760D02*
X4244905Y3873223D01*
X4227978D01*
X4219514Y3864760D01*
Y3856296D01*
X4227978Y3847832D01*
X4219514Y3839368D01*
Y3830904D01*
X4227978Y3822440D01*
X4244905D01*
X4253369Y3830904D01*
Y3839368D01*
X4244905Y3847832D01*
X4253369Y3856296D01*
Y3864760D01*
X4244905Y3847832D02*
X4227978D01*
X3785847Y3820896D02*
Y3871679D01*
X3760455D01*
X3751991Y3863215D01*
Y3846287D01*
X3760455Y3837823D01*
X3785847D01*
X3768919D02*
X3751991Y3820896D01*
X3735063Y3871679D02*
X3701207D01*
Y3863215D01*
X3735063Y3829360D01*
Y3820896D01*
X3615040Y2910548D02*
Y2961332D01*
X3589648D01*
X3581184Y2952868D01*
Y2935940D01*
X3589648Y2927476D01*
X3615040D01*
X3598112D02*
X3581184Y2910548D01*
X3530400Y2961332D02*
X3547328Y2952868D01*
X3564256Y2935940D01*
Y2919012D01*
X3555792Y2910548D01*
X3538864D01*
X3530400Y2919012D01*
Y2927476D01*
X3538864Y2935940D01*
X3564256D01*
X4631575Y3946751D02*
X4665430D01*
Y3921359D01*
X4648503D01*
X4665430D01*
Y3895967D01*
X4580791D02*
X4614647D01*
X4580791Y3929823D01*
Y3938287D01*
X4589255Y3946751D01*
X4606183D01*
X4614647Y3938287D01*
X4641021Y3607920D02*
X4590237D01*
Y3633312D01*
X4598701Y3641776D01*
X4632557D01*
X4641021Y3633312D01*
Y3607920D01*
Y3658704D02*
Y3692560D01*
X4632557D01*
X4598701Y3658704D01*
X4590237D01*
X4641075Y3476805D02*
Y3426021D01*
X4615683D01*
X4607219Y3434485D01*
Y3468341D01*
X4615683Y3476805D01*
X4641075D01*
X4556436D02*
X4573363Y3468341D01*
X4590291Y3451413D01*
Y3434485D01*
X4581827Y3426021D01*
X4564899D01*
X4556436Y3434485D01*
Y3442949D01*
X4564899Y3451413D01*
X4590291D01*
X4166708Y2600216D02*
Y2549433D01*
X4141317D01*
X4132853Y2557897D01*
Y2591752D01*
X4141317Y2600216D01*
X4166708D01*
X4082069D02*
X4115925D01*
Y2574824D01*
X4098997Y2583288D01*
X4090533D01*
X4082069Y2574824D01*
Y2557897D01*
X4090533Y2549433D01*
X4107461D01*
X4115925Y2557897D01*
X3747124Y2955408D02*
X3755588Y2963872D01*
X3772515D01*
X3780979Y2955408D01*
Y2921552D01*
X3772515Y2913088D01*
X3755588D01*
X3747124Y2921552D01*
X3730196Y2913088D02*
X3713268D01*
X3721732D01*
Y2963872D01*
X3730196Y2955408D01*
X3687876D02*
X3679412Y2963872D01*
X3662484D01*
X3654021Y2955408D01*
Y2921552D01*
X3662484Y2913088D01*
X3679412D01*
X3687876Y2921552D01*
Y2955408D01*
X3604330Y3547264D02*
X3612793Y3555728D01*
X3629721D01*
X3638185Y3547264D01*
Y3513408D01*
X3629721Y3504944D01*
X3612793D01*
X3604330Y3513408D01*
X3587402D02*
X3578938Y3504944D01*
X3562010D01*
X3553546Y3513408D01*
Y3547264D01*
X3562010Y3555728D01*
X3578938D01*
X3587402Y3547264D01*
Y3538800D01*
X3578938Y3530336D01*
X3553546D01*
X4026181Y3865800D02*
X4034645Y3874264D01*
X4051573D01*
X4060037Y3865800D01*
Y3831944D01*
X4051573Y3823480D01*
X4034645D01*
X4026181Y3831944D01*
X4009253Y3865800D02*
X4000789Y3874264D01*
X3983861D01*
X3975397Y3865800D01*
Y3857336D01*
X3983861Y3848872D01*
X3975397Y3840408D01*
Y3831944D01*
X3983861Y3823480D01*
X4000789D01*
X4009253Y3831944D01*
Y3840408D01*
X4000789Y3848872D01*
X4009253Y3857336D01*
Y3865800D01*
X4000789Y3848872D02*
X3983861D01*
X3281983Y4331348D02*
X3290446Y4339811D01*
X3307374D01*
X3315838Y4331348D01*
Y4297492D01*
X3307374Y4289028D01*
X3290446D01*
X3281983Y4297492D01*
Y4314420D01*
X3298910D01*
X3265055Y4289028D02*
Y4339811D01*
X3231199Y4289028D01*
Y4339811D01*
X3214271D02*
Y4289028D01*
X3188879D01*
X3180416Y4297492D01*
Y4331348D01*
X3188879Y4339811D01*
X3214271D01*
X3316667Y4798074D02*
Y4848857D01*
X3291275D01*
X3282812Y4840394D01*
Y4823466D01*
X3291275Y4815002D01*
X3316667D01*
X3232028Y4840394D02*
X3240492Y4848857D01*
X3257420D01*
X3265884Y4840394D01*
Y4806538D01*
X3257420Y4798074D01*
X3240492D01*
X3232028Y4806538D01*
Y4823466D01*
X3248956D01*
X3215100Y4798074D02*
Y4848857D01*
X3198172Y4831930D01*
X3181245Y4848857D01*
Y4798074D01*
X3315172Y4588210D02*
X3306708Y4596674D01*
X3289780D01*
X3281316Y4588210D01*
Y4579746D01*
X3289780Y4571282D01*
X3298244D01*
X3289780D01*
X3281316Y4562818D01*
Y4554354D01*
X3289780Y4545890D01*
X3306708D01*
X3315172Y4554354D01*
X3264388Y4579746D02*
X3247460Y4545890D01*
X3230533Y4579746D01*
X3213605Y4588210D02*
X3205141Y4596674D01*
X3188213D01*
X3179749Y4588210D01*
Y4579746D01*
X3188213Y4571282D01*
X3196677D01*
X3188213D01*
X3179749Y4562818D01*
Y4554354D01*
X3188213Y4545890D01*
X3205141D01*
X3213605Y4554354D01*
X2668703Y5251712D02*
Y5200929D01*
X2643311D01*
X2634847Y5209393D01*
Y5243249D01*
X2643311Y5251712D01*
X2668703D01*
X2617920Y5243249D02*
X2609456Y5251712D01*
X2592528D01*
X2584064Y5243249D01*
Y5234785D01*
X2592528Y5226321D01*
X2584064Y5217857D01*
Y5209393D01*
X2592528Y5200929D01*
X2609456D01*
X2617920Y5209393D01*
Y5217857D01*
X2609456Y5226321D01*
X2617920Y5234785D01*
Y5243249D01*
X2609456Y5226321D02*
X2592528D01*
X2985044Y4405714D02*
X2993508Y4414177D01*
X3010436D01*
X3018900Y4405714D01*
Y4371858D01*
X3010436Y4363394D01*
X2993508D01*
X2985044Y4371858D01*
X2934261Y4414177D02*
X2951188Y4405714D01*
X2968116Y4388786D01*
Y4371858D01*
X2959652Y4363394D01*
X2942724D01*
X2934261Y4371858D01*
Y4380322D01*
X2942724Y4388786D01*
X2968116D01*
X2985044Y4544530D02*
X2993508Y4552994D01*
X3010436D01*
X3018900Y4544530D01*
Y4510674D01*
X3010436Y4502210D01*
X2993508D01*
X2985044Y4510674D01*
X2968116Y4552994D02*
X2934261D01*
Y4544530D01*
X2968116Y4510674D01*
Y4502210D01*
X3041759Y4641028D02*
Y4691811D01*
X3016368D01*
X3007904Y4683348D01*
Y4666420D01*
X3016368Y4657956D01*
X3041759D01*
X3024832D02*
X3007904Y4641028D01*
X2990976D02*
X2974048D01*
X2982512D01*
Y4691811D01*
X2990976Y4683348D01*
X2948656D02*
X2940192Y4691811D01*
X2923264D01*
X2914801Y4683348D01*
Y4649492D01*
X2923264Y4641028D01*
X2940192D01*
X2948656Y4649492D01*
Y4683348D01*
X3021400Y4224577D02*
Y4275361D01*
X2996008D01*
X2987544Y4266897D01*
Y4249969D01*
X2996008Y4241505D01*
X3021400D01*
X3004472D02*
X2987544Y4224577D01*
X2970616Y4233041D02*
X2962152Y4224577D01*
X2945224D01*
X2936760Y4233041D01*
Y4266897D01*
X2945224Y4275361D01*
X2962152D01*
X2970616Y4266897D01*
Y4258433D01*
X2962152Y4249969D01*
X2936760D01*
X3312691Y5667172D02*
Y5624852D01*
X3304227Y5616388D01*
X3287299D01*
X3278836Y5624852D01*
Y5667172D01*
X3228052Y5658708D02*
X3236516Y5667172D01*
X3253444D01*
X3261908Y5658708D01*
Y5650244D01*
X3253444Y5641780D01*
X3236516D01*
X3228052Y5633316D01*
Y5624852D01*
X3236516Y5616388D01*
X3253444D01*
X3261908Y5624852D01*
X3211124Y5667172D02*
Y5616388D01*
X3185733D01*
X3177269Y5624852D01*
Y5633316D01*
X3185733Y5641780D01*
X3211124D01*
X3185733D01*
X3177269Y5650244D01*
Y5658708D01*
X3185733Y5667172D01*
X3211124D01*
X2004163Y4309628D02*
Y4267309D01*
X1995699Y4258845D01*
X1978772D01*
X1970308Y4267309D01*
Y4309628D01*
X1953380Y4258845D02*
X1936452D01*
X1944916D01*
Y4309628D01*
X1953380Y4301165D01*
X2404153Y5522440D02*
Y5573224D01*
X2378761D01*
X2370297Y5564760D01*
Y5547832D01*
X2378761Y5539368D01*
X2404153D01*
X2387225D02*
X2370297Y5522440D01*
X2353369Y5564760D02*
X2344905Y5573224D01*
X2327978D01*
X2319514Y5564760D01*
Y5556296D01*
X2327978Y5547832D01*
X2319514Y5539368D01*
Y5530904D01*
X2327978Y5522440D01*
X2344905D01*
X2353369Y5530904D01*
Y5539368D01*
X2344905Y5547832D01*
X2353369Y5556296D01*
Y5564760D01*
X2344905Y5547832D02*
X2327978D01*
X1885847Y5520896D02*
Y5571679D01*
X1860455D01*
X1851991Y5563215D01*
Y5546288D01*
X1860455Y5537824D01*
X1885847D01*
X1868919D02*
X1851991Y5520896D01*
X1835063Y5571679D02*
X1801207D01*
Y5563215D01*
X1835063Y5529360D01*
Y5520896D01*
X1715039Y4610548D02*
Y4661332D01*
X1689648D01*
X1681184Y4652868D01*
Y4635940D01*
X1689648Y4627476D01*
X1715039D01*
X1698112D02*
X1681184Y4610548D01*
X1630400Y4661332D02*
X1647328Y4652868D01*
X1664256Y4635940D01*
Y4619012D01*
X1655792Y4610548D01*
X1638864D01*
X1630400Y4619012D01*
Y4627476D01*
X1638864Y4635940D01*
X1664256D01*
X2731575Y5646751D02*
X2765430D01*
Y5621359D01*
X2748503D01*
X2765430D01*
Y5595967D01*
X2680791D02*
X2714647D01*
X2680791Y5629823D01*
Y5638287D01*
X2689255Y5646751D01*
X2706183D01*
X2714647Y5638287D01*
X2741021Y5307921D02*
X2690237D01*
Y5333312D01*
X2698701Y5341776D01*
X2732557D01*
X2741021Y5333312D01*
Y5307921D01*
Y5358704D02*
Y5392560D01*
X2732557D01*
X2698701Y5358704D01*
X2690237D01*
X2741075Y5176805D02*
Y5126021D01*
X2715683D01*
X2707219Y5134485D01*
Y5168341D01*
X2715683Y5176805D01*
X2741075D01*
X2656436D02*
X2673363Y5168341D01*
X2690291Y5151413D01*
Y5134485D01*
X2681827Y5126021D01*
X2664899D01*
X2656436Y5134485D01*
Y5142949D01*
X2664899Y5151413D01*
X2690291D01*
X2266708Y4300216D02*
Y4249433D01*
X2241317D01*
X2232853Y4257897D01*
Y4291752D01*
X2241317Y4300216D01*
X2266708D01*
X2182069D02*
X2215925D01*
Y4274825D01*
X2198997Y4283288D01*
X2190533D01*
X2182069Y4274825D01*
Y4257897D01*
X2190533Y4249433D01*
X2207461D01*
X2215925Y4257897D01*
X1847124Y4655408D02*
X1855588Y4663872D01*
X1872515D01*
X1880979Y4655408D01*
Y4621552D01*
X1872515Y4613088D01*
X1855588D01*
X1847124Y4621552D01*
X1830196Y4613088D02*
X1813268D01*
X1821732D01*
Y4663872D01*
X1830196Y4655408D01*
X1787876D02*
X1779412Y4663872D01*
X1762484D01*
X1754021Y4655408D01*
Y4621552D01*
X1762484Y4613088D01*
X1779412D01*
X1787876Y4621552D01*
Y4655408D01*
X1704330Y5247264D02*
X1712793Y5255728D01*
X1729721D01*
X1738185Y5247264D01*
Y5213408D01*
X1729721Y5204944D01*
X1712793D01*
X1704330Y5213408D01*
X1687402D02*
X1678938Y5204944D01*
X1662010D01*
X1653546Y5213408D01*
Y5247264D01*
X1662010Y5255728D01*
X1678938D01*
X1687402Y5247264D01*
Y5238800D01*
X1678938Y5230336D01*
X1653546D01*
X2126181Y5565800D02*
X2134645Y5574264D01*
X2151573D01*
X2160037Y5565800D01*
Y5531944D01*
X2151573Y5523480D01*
X2134645D01*
X2126181Y5531944D01*
X2109253Y5565800D02*
X2100789Y5574264D01*
X2083861D01*
X2075397Y5565800D01*
Y5557336D01*
X2083861Y5548872D01*
X2075397Y5540408D01*
Y5531944D01*
X2083861Y5523480D01*
X2100789D01*
X2109253Y5531944D01*
Y5540408D01*
X2100789Y5548872D01*
X2109253Y5557336D01*
Y5565800D01*
X2100789Y5548872D02*
X2083861D01*
X5181983Y4331348D02*
X5190446Y4339811D01*
X5207374D01*
X5215838Y4331348D01*
Y4297492D01*
X5207374Y4289028D01*
X5190446D01*
X5181983Y4297492D01*
Y4314420D01*
X5198910D01*
X5165055Y4289028D02*
Y4339811D01*
X5131199Y4289028D01*
Y4339811D01*
X5114271D02*
Y4289028D01*
X5088879D01*
X5080416Y4297492D01*
Y4331348D01*
X5088879Y4339811D01*
X5114271D01*
X5216667Y4798074D02*
Y4848857D01*
X5191275D01*
X5182812Y4840394D01*
Y4823466D01*
X5191275Y4815002D01*
X5216667D01*
X5132028Y4840394D02*
X5140492Y4848857D01*
X5157420D01*
X5165884Y4840394D01*
Y4806538D01*
X5157420Y4798074D01*
X5140492D01*
X5132028Y4806538D01*
Y4823466D01*
X5148956D01*
X5115100Y4798074D02*
Y4848857D01*
X5098172Y4831930D01*
X5081245Y4848857D01*
Y4798074D01*
X5215172Y4588210D02*
X5206708Y4596674D01*
X5189780D01*
X5181316Y4588210D01*
Y4579746D01*
X5189780Y4571282D01*
X5198244D01*
X5189780D01*
X5181316Y4562818D01*
Y4554354D01*
X5189780Y4545890D01*
X5206708D01*
X5215172Y4554354D01*
X5164388Y4579746D02*
X5147460Y4545890D01*
X5130533Y4579746D01*
X5113605Y4588210D02*
X5105141Y4596674D01*
X5088213D01*
X5079749Y4588210D01*
Y4579746D01*
X5088213Y4571282D01*
X5096677D01*
X5088213D01*
X5079749Y4562818D01*
Y4554354D01*
X5088213Y4545890D01*
X5105141D01*
X5113605Y4554354D01*
X4568703Y5251712D02*
Y5200929D01*
X4543311D01*
X4534847Y5209393D01*
Y5243249D01*
X4543311Y5251712D01*
X4568703D01*
X4517920Y5243249D02*
X4509456Y5251712D01*
X4492528D01*
X4484064Y5243249D01*
Y5234785D01*
X4492528Y5226321D01*
X4484064Y5217857D01*
Y5209393D01*
X4492528Y5200929D01*
X4509456D01*
X4517920Y5209393D01*
Y5217857D01*
X4509456Y5226321D01*
X4517920Y5234785D01*
Y5243249D01*
X4509456Y5226321D02*
X4492528D01*
X4885044Y4405714D02*
X4893508Y4414177D01*
X4910436D01*
X4918900Y4405714D01*
Y4371858D01*
X4910436Y4363394D01*
X4893508D01*
X4885044Y4371858D01*
X4834261Y4414177D02*
X4851188Y4405714D01*
X4868116Y4388786D01*
Y4371858D01*
X4859652Y4363394D01*
X4842724D01*
X4834261Y4371858D01*
Y4380322D01*
X4842724Y4388786D01*
X4868116D01*
X4885044Y4544530D02*
X4893508Y4552994D01*
X4910436D01*
X4918900Y4544530D01*
Y4510674D01*
X4910436Y4502210D01*
X4893508D01*
X4885044Y4510674D01*
X4868116Y4552994D02*
X4834261D01*
Y4544530D01*
X4868116Y4510674D01*
Y4502210D01*
X4941759Y4641028D02*
Y4691811D01*
X4916368D01*
X4907904Y4683348D01*
Y4666420D01*
X4916368Y4657956D01*
X4941759D01*
X4924832D02*
X4907904Y4641028D01*
X4890976D02*
X4874048D01*
X4882512D01*
Y4691811D01*
X4890976Y4683348D01*
X4848656D02*
X4840192Y4691811D01*
X4823264D01*
X4814801Y4683348D01*
Y4649492D01*
X4823264Y4641028D01*
X4840192D01*
X4848656Y4649492D01*
Y4683348D01*
X4921400Y4224577D02*
Y4275361D01*
X4896008D01*
X4887544Y4266897D01*
Y4249969D01*
X4896008Y4241505D01*
X4921400D01*
X4904472D02*
X4887544Y4224577D01*
X4870616Y4233041D02*
X4862152Y4224577D01*
X4845224D01*
X4836760Y4233041D01*
Y4266897D01*
X4845224Y4275361D01*
X4862152D01*
X4870616Y4266897D01*
Y4258433D01*
X4862152Y4249969D01*
X4836760D01*
X5212691Y5667172D02*
Y5624852D01*
X5204227Y5616388D01*
X5187300D01*
X5178836Y5624852D01*
Y5667172D01*
X5128052Y5658708D02*
X5136516Y5667172D01*
X5153444D01*
X5161908Y5658708D01*
Y5650244D01*
X5153444Y5641780D01*
X5136516D01*
X5128052Y5633316D01*
Y5624852D01*
X5136516Y5616388D01*
X5153444D01*
X5161908Y5624852D01*
X5111124Y5667172D02*
Y5616388D01*
X5085733D01*
X5077269Y5624852D01*
Y5633316D01*
X5085733Y5641780D01*
X5111124D01*
X5085733D01*
X5077269Y5650244D01*
Y5658708D01*
X5085733Y5667172D01*
X5111124D01*
X3904163Y4309628D02*
Y4267309D01*
X3895699Y4258845D01*
X3878772D01*
X3870308Y4267309D01*
Y4309628D01*
X3853380Y4258845D02*
X3836452D01*
X3844916D01*
Y4309628D01*
X3853380Y4301165D01*
X4304153Y5522440D02*
Y5573224D01*
X4278761D01*
X4270297Y5564760D01*
Y5547832D01*
X4278761Y5539368D01*
X4304153D01*
X4287225D02*
X4270297Y5522440D01*
X4253369Y5564760D02*
X4244905Y5573224D01*
X4227978D01*
X4219514Y5564760D01*
Y5556296D01*
X4227978Y5547832D01*
X4219514Y5539368D01*
Y5530904D01*
X4227978Y5522440D01*
X4244905D01*
X4253369Y5530904D01*
Y5539368D01*
X4244905Y5547832D01*
X4253369Y5556296D01*
Y5564760D01*
X4244905Y5547832D02*
X4227978D01*
X3785847Y5520896D02*
Y5571679D01*
X3760455D01*
X3751991Y5563215D01*
Y5546288D01*
X3760455Y5537824D01*
X3785847D01*
X3768919D02*
X3751991Y5520896D01*
X3735063Y5571679D02*
X3701207D01*
Y5563215D01*
X3735063Y5529360D01*
Y5520896D01*
X3615040Y4610548D02*
Y4661332D01*
X3589648D01*
X3581184Y4652868D01*
Y4635940D01*
X3589648Y4627476D01*
X3615040D01*
X3598112D02*
X3581184Y4610548D01*
X3530400Y4661332D02*
X3547328Y4652868D01*
X3564256Y4635940D01*
Y4619012D01*
X3555792Y4610548D01*
X3538864D01*
X3530400Y4619012D01*
Y4627476D01*
X3538864Y4635940D01*
X3564256D01*
X4631575Y5646751D02*
X4665430D01*
Y5621359D01*
X4648503D01*
X4665430D01*
Y5595967D01*
X4580791D02*
X4614647D01*
X4580791Y5629823D01*
Y5638287D01*
X4589255Y5646751D01*
X4606183D01*
X4614647Y5638287D01*
X4641021Y5307921D02*
X4590237D01*
Y5333312D01*
X4598701Y5341776D01*
X4632557D01*
X4641021Y5333312D01*
Y5307921D01*
Y5358704D02*
Y5392560D01*
X4632557D01*
X4598701Y5358704D01*
X4590237D01*
X4641075Y5176805D02*
Y5126021D01*
X4615683D01*
X4607219Y5134485D01*
Y5168341D01*
X4615683Y5176805D01*
X4641075D01*
X4556436D02*
X4573363Y5168341D01*
X4590291Y5151413D01*
Y5134485D01*
X4581827Y5126021D01*
X4564899D01*
X4556436Y5134485D01*
Y5142949D01*
X4564899Y5151413D01*
X4590291D01*
X4166708Y4300216D02*
Y4249433D01*
X4141317D01*
X4132853Y4257897D01*
Y4291752D01*
X4141317Y4300216D01*
X4166708D01*
X4082069D02*
X4115925D01*
Y4274825D01*
X4098997Y4283288D01*
X4090533D01*
X4082069Y4274825D01*
Y4257897D01*
X4090533Y4249433D01*
X4107461D01*
X4115925Y4257897D01*
X3747124Y4655408D02*
X3755588Y4663872D01*
X3772515D01*
X3780979Y4655408D01*
Y4621552D01*
X3772515Y4613088D01*
X3755588D01*
X3747124Y4621552D01*
X3730196Y4613088D02*
X3713268D01*
X3721732D01*
Y4663872D01*
X3730196Y4655408D01*
X3687876D02*
X3679412Y4663872D01*
X3662484D01*
X3654021Y4655408D01*
Y4621552D01*
X3662484Y4613088D01*
X3679412D01*
X3687876Y4621552D01*
Y4655408D01*
X3604330Y5247264D02*
X3612793Y5255728D01*
X3629721D01*
X3638185Y5247264D01*
Y5213408D01*
X3629721Y5204944D01*
X3612793D01*
X3604330Y5213408D01*
X3587402D02*
X3578938Y5204944D01*
X3562010D01*
X3553546Y5213408D01*
Y5247264D01*
X3562010Y5255728D01*
X3578938D01*
X3587402Y5247264D01*
Y5238800D01*
X3578938Y5230336D01*
X3553546D01*
X4026181Y5565800D02*
X4034645Y5574264D01*
X4051573D01*
X4060037Y5565800D01*
Y5531944D01*
X4051573Y5523480D01*
X4034645D01*
X4026181Y5531944D01*
X4009253Y5565800D02*
X4000789Y5574264D01*
X3983861D01*
X3975397Y5565800D01*
Y5557336D01*
X3983861Y5548872D01*
X3975397Y5540408D01*
Y5531944D01*
X3983861Y5523480D01*
X4000789D01*
X4009253Y5531944D01*
Y5540408D01*
X4000789Y5548872D01*
X4009253Y5557336D01*
Y5565800D01*
X4000789Y5548872D02*
X3983861D01*
X3281983Y6031348D02*
X3290446Y6039812D01*
X3307374D01*
X3315838Y6031348D01*
Y5997492D01*
X3307374Y5989028D01*
X3290446D01*
X3281983Y5997492D01*
Y6014420D01*
X3298910D01*
X3265055Y5989028D02*
Y6039812D01*
X3231199Y5989028D01*
Y6039812D01*
X3214271D02*
Y5989028D01*
X3188879D01*
X3180416Y5997492D01*
Y6031348D01*
X3188879Y6039812D01*
X3214271D01*
X3316667Y6498074D02*
Y6548858D01*
X3291275D01*
X3282812Y6540394D01*
Y6523466D01*
X3291275Y6515002D01*
X3316667D01*
X3232028Y6540394D02*
X3240492Y6548858D01*
X3257420D01*
X3265884Y6540394D01*
Y6506538D01*
X3257420Y6498074D01*
X3240492D01*
X3232028Y6506538D01*
Y6523466D01*
X3248956D01*
X3215100Y6498074D02*
Y6548858D01*
X3198172Y6531930D01*
X3181245Y6548858D01*
Y6498074D01*
X3315172Y6288210D02*
X3306708Y6296674D01*
X3289780D01*
X3281316Y6288210D01*
Y6279746D01*
X3289780Y6271282D01*
X3298244D01*
X3289780D01*
X3281316Y6262818D01*
Y6254355D01*
X3289780Y6245890D01*
X3306708D01*
X3315172Y6254355D01*
X3264388Y6279746D02*
X3247460Y6245890D01*
X3230533Y6279746D01*
X3213605Y6288210D02*
X3205141Y6296674D01*
X3188213D01*
X3179749Y6288210D01*
Y6279746D01*
X3188213Y6271282D01*
X3196677D01*
X3188213D01*
X3179749Y6262818D01*
Y6254355D01*
X3188213Y6245890D01*
X3205141D01*
X3213605Y6254355D01*
X2668703Y6951713D02*
Y6900929D01*
X2643311D01*
X2634847Y6909393D01*
Y6943249D01*
X2643311Y6951713D01*
X2668703D01*
X2617920Y6943249D02*
X2609456Y6951713D01*
X2592528D01*
X2584064Y6943249D01*
Y6934785D01*
X2592528Y6926321D01*
X2584064Y6917857D01*
Y6909393D01*
X2592528Y6900929D01*
X2609456D01*
X2617920Y6909393D01*
Y6917857D01*
X2609456Y6926321D01*
X2617920Y6934785D01*
Y6943249D01*
X2609456Y6926321D02*
X2592528D01*
X2985044Y6105714D02*
X2993508Y6114178D01*
X3010436D01*
X3018900Y6105714D01*
Y6071858D01*
X3010436Y6063394D01*
X2993508D01*
X2985044Y6071858D01*
X2934261Y6114178D02*
X2951188Y6105714D01*
X2968116Y6088786D01*
Y6071858D01*
X2959652Y6063394D01*
X2942724D01*
X2934261Y6071858D01*
Y6080322D01*
X2942724Y6088786D01*
X2968116D01*
X2985044Y6244530D02*
X2993508Y6252994D01*
X3010436D01*
X3018900Y6244530D01*
Y6210675D01*
X3010436Y6202211D01*
X2993508D01*
X2985044Y6210675D01*
X2968116Y6252994D02*
X2934261D01*
Y6244530D01*
X2968116Y6210675D01*
Y6202211D01*
X3041759Y6341028D02*
Y6391811D01*
X3016368D01*
X3007904Y6383348D01*
Y6366420D01*
X3016368Y6357956D01*
X3041759D01*
X3024832D02*
X3007904Y6341028D01*
X2990976D02*
X2974048D01*
X2982512D01*
Y6391811D01*
X2990976Y6383348D01*
X2948656D02*
X2940192Y6391811D01*
X2923264D01*
X2914801Y6383348D01*
Y6349492D01*
X2923264Y6341028D01*
X2940192D01*
X2948656Y6349492D01*
Y6383348D01*
X3021400Y5924577D02*
Y5975361D01*
X2996008D01*
X2987544Y5966897D01*
Y5949969D01*
X2996008Y5941505D01*
X3021400D01*
X3004472D02*
X2987544Y5924577D01*
X2970616Y5933041D02*
X2962152Y5924577D01*
X2945224D01*
X2936760Y5933041D01*
Y5966897D01*
X2945224Y5975361D01*
X2962152D01*
X2970616Y5966897D01*
Y5958433D01*
X2962152Y5949969D01*
X2936760D01*
X3312691Y7367172D02*
Y7324853D01*
X3304227Y7316388D01*
X3287299D01*
X3278836Y7324853D01*
Y7367172D01*
X3228052Y7358708D02*
X3236516Y7367172D01*
X3253444D01*
X3261908Y7358708D01*
Y7350244D01*
X3253444Y7341780D01*
X3236516D01*
X3228052Y7333316D01*
Y7324853D01*
X3236516Y7316388D01*
X3253444D01*
X3261908Y7324853D01*
X3211124Y7367172D02*
Y7316388D01*
X3185733D01*
X3177269Y7324853D01*
Y7333316D01*
X3185733Y7341780D01*
X3211124D01*
X3185733D01*
X3177269Y7350244D01*
Y7358708D01*
X3185733Y7367172D01*
X3211124D01*
X2004163Y6009629D02*
Y5967309D01*
X1995699Y5958845D01*
X1978772D01*
X1970308Y5967309D01*
Y6009629D01*
X1953380Y5958845D02*
X1936452D01*
X1944916D01*
Y6009629D01*
X1953380Y6001165D01*
X2404153Y7222440D02*
Y7273224D01*
X2378761D01*
X2370297Y7264760D01*
Y7247832D01*
X2378761Y7239368D01*
X2404153D01*
X2387225D02*
X2370297Y7222440D01*
X2353369Y7264760D02*
X2344905Y7273224D01*
X2327978D01*
X2319514Y7264760D01*
Y7256296D01*
X2327978Y7247832D01*
X2319514Y7239368D01*
Y7230904D01*
X2327978Y7222440D01*
X2344905D01*
X2353369Y7230904D01*
Y7239368D01*
X2344905Y7247832D01*
X2353369Y7256296D01*
Y7264760D01*
X2344905Y7247832D02*
X2327978D01*
X1885847Y7220896D02*
Y7271679D01*
X1860455D01*
X1851991Y7263216D01*
Y7246288D01*
X1860455Y7237824D01*
X1885847D01*
X1868919D02*
X1851991Y7220896D01*
X1835063Y7271679D02*
X1801207D01*
Y7263216D01*
X1835063Y7229360D01*
Y7220896D01*
X1715039Y6310548D02*
Y6361332D01*
X1689648D01*
X1681184Y6352868D01*
Y6335940D01*
X1689648Y6327476D01*
X1715039D01*
X1698112D02*
X1681184Y6310548D01*
X1630400Y6361332D02*
X1647328Y6352868D01*
X1664256Y6335940D01*
Y6319013D01*
X1655792Y6310548D01*
X1638864D01*
X1630400Y6319013D01*
Y6327476D01*
X1638864Y6335940D01*
X1664256D01*
X2731575Y7346751D02*
X2765430D01*
Y7321359D01*
X2748503D01*
X2765430D01*
Y7295968D01*
X2680791D02*
X2714647D01*
X2680791Y7329823D01*
Y7338287D01*
X2689255Y7346751D01*
X2706183D01*
X2714647Y7338287D01*
X2741021Y7007921D02*
X2690237D01*
Y7033313D01*
X2698701Y7041776D01*
X2732557D01*
X2741021Y7033313D01*
Y7007921D01*
Y7058704D02*
Y7092560D01*
X2732557D01*
X2698701Y7058704D01*
X2690237D01*
X2741075Y6876805D02*
Y6826021D01*
X2715683D01*
X2707219Y6834485D01*
Y6868341D01*
X2715683Y6876805D01*
X2741075D01*
X2656436D02*
X2673363Y6868341D01*
X2690291Y6851413D01*
Y6834485D01*
X2681827Y6826021D01*
X2664899D01*
X2656436Y6834485D01*
Y6842949D01*
X2664899Y6851413D01*
X2690291D01*
X2266708Y6000216D02*
Y5949433D01*
X2241317D01*
X2232853Y5957897D01*
Y5991753D01*
X2241317Y6000216D01*
X2266708D01*
X2182069D02*
X2215925D01*
Y5974825D01*
X2198997Y5983289D01*
X2190533D01*
X2182069Y5974825D01*
Y5957897D01*
X2190533Y5949433D01*
X2207461D01*
X2215925Y5957897D01*
X1847124Y6355408D02*
X1855588Y6363872D01*
X1872515D01*
X1880979Y6355408D01*
Y6321553D01*
X1872515Y6313088D01*
X1855588D01*
X1847124Y6321553D01*
X1830196Y6313088D02*
X1813268D01*
X1821732D01*
Y6363872D01*
X1830196Y6355408D01*
X1787876D02*
X1779412Y6363872D01*
X1762484D01*
X1754021Y6355408D01*
Y6321553D01*
X1762484Y6313088D01*
X1779412D01*
X1787876Y6321553D01*
Y6355408D01*
X1704330Y6947264D02*
X1712793Y6955728D01*
X1729721D01*
X1738185Y6947264D01*
Y6913409D01*
X1729721Y6904945D01*
X1712793D01*
X1704330Y6913409D01*
X1687402D02*
X1678938Y6904945D01*
X1662010D01*
X1653546Y6913409D01*
Y6947264D01*
X1662010Y6955728D01*
X1678938D01*
X1687402Y6947264D01*
Y6938800D01*
X1678938Y6930336D01*
X1653546D01*
X2126181Y7265800D02*
X2134645Y7274264D01*
X2151573D01*
X2160037Y7265800D01*
Y7231945D01*
X2151573Y7223481D01*
X2134645D01*
X2126181Y7231945D01*
X2109253Y7265800D02*
X2100789Y7274264D01*
X2083861D01*
X2075397Y7265800D01*
Y7257336D01*
X2083861Y7248872D01*
X2075397Y7240408D01*
Y7231945D01*
X2083861Y7223481D01*
X2100789D01*
X2109253Y7231945D01*
Y7240408D01*
X2100789Y7248872D01*
X2109253Y7257336D01*
Y7265800D01*
X2100789Y7248872D02*
X2083861D01*
X5181983Y6031348D02*
X5190446Y6039812D01*
X5207374D01*
X5215838Y6031348D01*
Y5997492D01*
X5207374Y5989028D01*
X5190446D01*
X5181983Y5997492D01*
Y6014420D01*
X5198910D01*
X5165055Y5989028D02*
Y6039812D01*
X5131199Y5989028D01*
Y6039812D01*
X5114271D02*
Y5989028D01*
X5088879D01*
X5080416Y5997492D01*
Y6031348D01*
X5088879Y6039812D01*
X5114271D01*
X5216667Y6498074D02*
Y6548858D01*
X5191275D01*
X5182812Y6540394D01*
Y6523466D01*
X5191275Y6515002D01*
X5216667D01*
X5132028Y6540394D02*
X5140492Y6548858D01*
X5157420D01*
X5165884Y6540394D01*
Y6506538D01*
X5157420Y6498074D01*
X5140492D01*
X5132028Y6506538D01*
Y6523466D01*
X5148956D01*
X5115100Y6498074D02*
Y6548858D01*
X5098172Y6531930D01*
X5081245Y6548858D01*
Y6498074D01*
X5215172Y6288210D02*
X5206708Y6296674D01*
X5189780D01*
X5181316Y6288210D01*
Y6279746D01*
X5189780Y6271282D01*
X5198244D01*
X5189780D01*
X5181316Y6262818D01*
Y6254355D01*
X5189780Y6245890D01*
X5206708D01*
X5215172Y6254355D01*
X5164388Y6279746D02*
X5147460Y6245890D01*
X5130533Y6279746D01*
X5113605Y6288210D02*
X5105141Y6296674D01*
X5088213D01*
X5079749Y6288210D01*
Y6279746D01*
X5088213Y6271282D01*
X5096677D01*
X5088213D01*
X5079749Y6262818D01*
Y6254355D01*
X5088213Y6245890D01*
X5105141D01*
X5113605Y6254355D01*
X4568703Y6951713D02*
Y6900929D01*
X4543311D01*
X4534847Y6909393D01*
Y6943249D01*
X4543311Y6951713D01*
X4568703D01*
X4517920Y6943249D02*
X4509456Y6951713D01*
X4492528D01*
X4484064Y6943249D01*
Y6934785D01*
X4492528Y6926321D01*
X4484064Y6917857D01*
Y6909393D01*
X4492528Y6900929D01*
X4509456D01*
X4517920Y6909393D01*
Y6917857D01*
X4509456Y6926321D01*
X4517920Y6934785D01*
Y6943249D01*
X4509456Y6926321D02*
X4492528D01*
X4885044Y6105714D02*
X4893508Y6114178D01*
X4910436D01*
X4918900Y6105714D01*
Y6071858D01*
X4910436Y6063394D01*
X4893508D01*
X4885044Y6071858D01*
X4834261Y6114178D02*
X4851188Y6105714D01*
X4868116Y6088786D01*
Y6071858D01*
X4859652Y6063394D01*
X4842724D01*
X4834261Y6071858D01*
Y6080322D01*
X4842724Y6088786D01*
X4868116D01*
X4885044Y6244530D02*
X4893508Y6252994D01*
X4910436D01*
X4918900Y6244530D01*
Y6210675D01*
X4910436Y6202211D01*
X4893508D01*
X4885044Y6210675D01*
X4868116Y6252994D02*
X4834261D01*
Y6244530D01*
X4868116Y6210675D01*
Y6202211D01*
X4941759Y6341028D02*
Y6391811D01*
X4916368D01*
X4907904Y6383348D01*
Y6366420D01*
X4916368Y6357956D01*
X4941759D01*
X4924832D02*
X4907904Y6341028D01*
X4890976D02*
X4874048D01*
X4882512D01*
Y6391811D01*
X4890976Y6383348D01*
X4848656D02*
X4840192Y6391811D01*
X4823264D01*
X4814801Y6383348D01*
Y6349492D01*
X4823264Y6341028D01*
X4840192D01*
X4848656Y6349492D01*
Y6383348D01*
X4921400Y5924577D02*
Y5975361D01*
X4896008D01*
X4887544Y5966897D01*
Y5949969D01*
X4896008Y5941505D01*
X4921400D01*
X4904472D02*
X4887544Y5924577D01*
X4870616Y5933041D02*
X4862152Y5924577D01*
X4845224D01*
X4836760Y5933041D01*
Y5966897D01*
X4845224Y5975361D01*
X4862152D01*
X4870616Y5966897D01*
Y5958433D01*
X4862152Y5949969D01*
X4836760D01*
X5212691Y7367172D02*
Y7324853D01*
X5204227Y7316388D01*
X5187300D01*
X5178836Y7324853D01*
Y7367172D01*
X5128052Y7358708D02*
X5136516Y7367172D01*
X5153444D01*
X5161908Y7358708D01*
Y7350244D01*
X5153444Y7341780D01*
X5136516D01*
X5128052Y7333316D01*
Y7324853D01*
X5136516Y7316388D01*
X5153444D01*
X5161908Y7324853D01*
X5111124Y7367172D02*
Y7316388D01*
X5085733D01*
X5077269Y7324853D01*
Y7333316D01*
X5085733Y7341780D01*
X5111124D01*
X5085733D01*
X5077269Y7350244D01*
Y7358708D01*
X5085733Y7367172D01*
X5111124D01*
X3904163Y6009629D02*
Y5967309D01*
X3895699Y5958845D01*
X3878772D01*
X3870308Y5967309D01*
Y6009629D01*
X3853380Y5958845D02*
X3836452D01*
X3844916D01*
Y6009629D01*
X3853380Y6001165D01*
X4304153Y7222440D02*
Y7273224D01*
X4278761D01*
X4270297Y7264760D01*
Y7247832D01*
X4278761Y7239368D01*
X4304153D01*
X4287225D02*
X4270297Y7222440D01*
X4253369Y7264760D02*
X4244905Y7273224D01*
X4227978D01*
X4219514Y7264760D01*
Y7256296D01*
X4227978Y7247832D01*
X4219514Y7239368D01*
Y7230904D01*
X4227978Y7222440D01*
X4244905D01*
X4253369Y7230904D01*
Y7239368D01*
X4244905Y7247832D01*
X4253369Y7256296D01*
Y7264760D01*
X4244905Y7247832D02*
X4227978D01*
X3785847Y7220896D02*
Y7271679D01*
X3760455D01*
X3751991Y7263216D01*
Y7246288D01*
X3760455Y7237824D01*
X3785847D01*
X3768919D02*
X3751991Y7220896D01*
X3735063Y7271679D02*
X3701207D01*
Y7263216D01*
X3735063Y7229360D01*
Y7220896D01*
X3615040Y6310548D02*
Y6361332D01*
X3589648D01*
X3581184Y6352868D01*
Y6335940D01*
X3589648Y6327476D01*
X3615040D01*
X3598112D02*
X3581184Y6310548D01*
X3530400Y6361332D02*
X3547328Y6352868D01*
X3564256Y6335940D01*
Y6319013D01*
X3555792Y6310548D01*
X3538864D01*
X3530400Y6319013D01*
Y6327476D01*
X3538864Y6335940D01*
X3564256D01*
X4631575Y7346751D02*
X4665430D01*
Y7321359D01*
X4648503D01*
X4665430D01*
Y7295968D01*
X4580791D02*
X4614647D01*
X4580791Y7329823D01*
Y7338287D01*
X4589255Y7346751D01*
X4606183D01*
X4614647Y7338287D01*
X4641021Y7007921D02*
X4590237D01*
Y7033313D01*
X4598701Y7041776D01*
X4632557D01*
X4641021Y7033313D01*
Y7007921D01*
Y7058704D02*
Y7092560D01*
X4632557D01*
X4598701Y7058704D01*
X4590237D01*
X4641075Y6876805D02*
Y6826021D01*
X4615683D01*
X4607219Y6834485D01*
Y6868341D01*
X4615683Y6876805D01*
X4641075D01*
X4556436D02*
X4573363Y6868341D01*
X4590291Y6851413D01*
Y6834485D01*
X4581827Y6826021D01*
X4564899D01*
X4556436Y6834485D01*
Y6842949D01*
X4564899Y6851413D01*
X4590291D01*
X4166708Y6000216D02*
Y5949433D01*
X4141317D01*
X4132853Y5957897D01*
Y5991753D01*
X4141317Y6000216D01*
X4166708D01*
X4082069D02*
X4115925D01*
Y5974825D01*
X4098997Y5983289D01*
X4090533D01*
X4082069Y5974825D01*
Y5957897D01*
X4090533Y5949433D01*
X4107461D01*
X4115925Y5957897D01*
X3747124Y6355408D02*
X3755588Y6363872D01*
X3772515D01*
X3780979Y6355408D01*
Y6321553D01*
X3772515Y6313088D01*
X3755588D01*
X3747124Y6321553D01*
X3730196Y6313088D02*
X3713268D01*
X3721732D01*
Y6363872D01*
X3730196Y6355408D01*
X3687876D02*
X3679412Y6363872D01*
X3662484D01*
X3654021Y6355408D01*
Y6321553D01*
X3662484Y6313088D01*
X3679412D01*
X3687876Y6321553D01*
Y6355408D01*
X3604330Y6947264D02*
X3612793Y6955728D01*
X3629721D01*
X3638185Y6947264D01*
Y6913409D01*
X3629721Y6904945D01*
X3612793D01*
X3604330Y6913409D01*
X3587402D02*
X3578938Y6904945D01*
X3562010D01*
X3553546Y6913409D01*
Y6947264D01*
X3562010Y6955728D01*
X3578938D01*
X3587402Y6947264D01*
Y6938800D01*
X3578938Y6930336D01*
X3553546D01*
X4026181Y7265800D02*
X4034645Y7274264D01*
X4051573D01*
X4060037Y7265800D01*
Y7231945D01*
X4051573Y7223481D01*
X4034645D01*
X4026181Y7231945D01*
X4009253Y7265800D02*
X4000789Y7274264D01*
X3983861D01*
X3975397Y7265800D01*
Y7257336D01*
X3983861Y7248872D01*
X3975397Y7240408D01*
Y7231945D01*
X3983861Y7223481D01*
X4000789D01*
X4009253Y7231945D01*
Y7240408D01*
X4000789Y7248872D01*
X4009253Y7257336D01*
Y7265800D01*
X4000789Y7248872D02*
X3983861D01*
X3281983Y7731348D02*
X3290446Y7739812D01*
X3307374D01*
X3315838Y7731348D01*
Y7697492D01*
X3307374Y7689028D01*
X3290446D01*
X3281983Y7697492D01*
Y7714420D01*
X3298910D01*
X3265055Y7689028D02*
Y7739812D01*
X3231199Y7689028D01*
Y7739812D01*
X3214271D02*
Y7689028D01*
X3188879D01*
X3180416Y7697492D01*
Y7731348D01*
X3188879Y7739812D01*
X3214271D01*
X3316667Y8198074D02*
Y8248858D01*
X3291275D01*
X3282812Y8240394D01*
Y8223466D01*
X3291275Y8215002D01*
X3316667D01*
X3232028Y8240394D02*
X3240492Y8248858D01*
X3257420D01*
X3265884Y8240394D01*
Y8206538D01*
X3257420Y8198074D01*
X3240492D01*
X3232028Y8206538D01*
Y8223466D01*
X3248956D01*
X3215100Y8198074D02*
Y8248858D01*
X3198172Y8231930D01*
X3181245Y8248858D01*
Y8198074D01*
X3315172Y7988210D02*
X3306708Y7996674D01*
X3289780D01*
X3281316Y7988210D01*
Y7979746D01*
X3289780Y7971283D01*
X3298244D01*
X3289780D01*
X3281316Y7962818D01*
Y7954355D01*
X3289780Y7945891D01*
X3306708D01*
X3315172Y7954355D01*
X3264388Y7979746D02*
X3247460Y7945891D01*
X3230533Y7979746D01*
X3213605Y7988210D02*
X3205141Y7996674D01*
X3188213D01*
X3179749Y7988210D01*
Y7979746D01*
X3188213Y7971283D01*
X3196677D01*
X3188213D01*
X3179749Y7962818D01*
Y7954355D01*
X3188213Y7945891D01*
X3205141D01*
X3213605Y7954355D01*
X2668703Y8651713D02*
Y8600929D01*
X2643311D01*
X2634847Y8609393D01*
Y8643249D01*
X2643311Y8651713D01*
X2668703D01*
X2617920Y8643249D02*
X2609456Y8651713D01*
X2592528D01*
X2584064Y8643249D01*
Y8634785D01*
X2592528Y8626321D01*
X2584064Y8617857D01*
Y8609393D01*
X2592528Y8600929D01*
X2609456D01*
X2617920Y8609393D01*
Y8617857D01*
X2609456Y8626321D01*
X2617920Y8634785D01*
Y8643249D01*
X2609456Y8626321D02*
X2592528D01*
X2985044Y7805714D02*
X2993508Y7814178D01*
X3010436D01*
X3018900Y7805714D01*
Y7771858D01*
X3010436Y7763394D01*
X2993508D01*
X2985044Y7771858D01*
X2934261Y7814178D02*
X2951188Y7805714D01*
X2968116Y7788786D01*
Y7771858D01*
X2959652Y7763394D01*
X2942724D01*
X2934261Y7771858D01*
Y7780322D01*
X2942724Y7788786D01*
X2968116D01*
X2985044Y7944530D02*
X2993508Y7952994D01*
X3010436D01*
X3018900Y7944530D01*
Y7910675D01*
X3010436Y7902211D01*
X2993508D01*
X2985044Y7910675D01*
X2968116Y7952994D02*
X2934261D01*
Y7944530D01*
X2968116Y7910675D01*
Y7902211D01*
X3041759Y8041028D02*
Y8091812D01*
X3016368D01*
X3007904Y8083348D01*
Y8066420D01*
X3016368Y8057956D01*
X3041759D01*
X3024832D02*
X3007904Y8041028D01*
X2990976D02*
X2974048D01*
X2982512D01*
Y8091812D01*
X2990976Y8083348D01*
X2948656D02*
X2940192Y8091812D01*
X2923264D01*
X2914801Y8083348D01*
Y8049492D01*
X2923264Y8041028D01*
X2940192D01*
X2948656Y8049492D01*
Y8083348D01*
X3021400Y7624578D02*
Y7675361D01*
X2996008D01*
X2987544Y7666897D01*
Y7649969D01*
X2996008Y7641505D01*
X3021400D01*
X3004472D02*
X2987544Y7624578D01*
X2970616Y7633042D02*
X2962152Y7624578D01*
X2945224D01*
X2936760Y7633042D01*
Y7666897D01*
X2945224Y7675361D01*
X2962152D01*
X2970616Y7666897D01*
Y7658433D01*
X2962152Y7649969D01*
X2936760D01*
X3312691Y9067172D02*
Y9024853D01*
X3304227Y9016389D01*
X3287299D01*
X3278836Y9024853D01*
Y9067172D01*
X3228052Y9058708D02*
X3236516Y9067172D01*
X3253444D01*
X3261908Y9058708D01*
Y9050244D01*
X3253444Y9041780D01*
X3236516D01*
X3228052Y9033316D01*
Y9024853D01*
X3236516Y9016389D01*
X3253444D01*
X3261908Y9024853D01*
X3211124Y9067172D02*
Y9016389D01*
X3185733D01*
X3177269Y9024853D01*
Y9033316D01*
X3185733Y9041780D01*
X3211124D01*
X3185733D01*
X3177269Y9050244D01*
Y9058708D01*
X3185733Y9067172D01*
X3211124D01*
X2004163Y7709629D02*
Y7667309D01*
X1995699Y7658845D01*
X1978772D01*
X1970308Y7667309D01*
Y7709629D01*
X1953380Y7658845D02*
X1936452D01*
X1944916D01*
Y7709629D01*
X1953380Y7701165D01*
X2404153Y8922440D02*
Y8973224D01*
X2378761D01*
X2370297Y8964760D01*
Y8947832D01*
X2378761Y8939368D01*
X2404153D01*
X2387225D02*
X2370297Y8922440D01*
X2353369Y8964760D02*
X2344905Y8973224D01*
X2327978D01*
X2319514Y8964760D01*
Y8956296D01*
X2327978Y8947832D01*
X2319514Y8939368D01*
Y8930904D01*
X2327978Y8922440D01*
X2344905D01*
X2353369Y8930904D01*
Y8939368D01*
X2344905Y8947832D01*
X2353369Y8956296D01*
Y8964760D01*
X2344905Y8947832D02*
X2327978D01*
X1885847Y8920896D02*
Y8971680D01*
X1860455D01*
X1851991Y8963216D01*
Y8946288D01*
X1860455Y8937824D01*
X1885847D01*
X1868919D02*
X1851991Y8920896D01*
X1835063Y8971680D02*
X1801207D01*
Y8963216D01*
X1835063Y8929360D01*
Y8920896D01*
X1715039Y8010549D02*
Y8061332D01*
X1689648D01*
X1681184Y8052868D01*
Y8035940D01*
X1689648Y8027476D01*
X1715039D01*
X1698112D02*
X1681184Y8010549D01*
X1630400Y8061332D02*
X1647328Y8052868D01*
X1664256Y8035940D01*
Y8019013D01*
X1655792Y8010549D01*
X1638864D01*
X1630400Y8019013D01*
Y8027476D01*
X1638864Y8035940D01*
X1664256D01*
X2731575Y9046751D02*
X2765430D01*
Y9021360D01*
X2748503D01*
X2765430D01*
Y8995968D01*
X2680791D02*
X2714647D01*
X2680791Y9029823D01*
Y9038287D01*
X2689255Y9046751D01*
X2706183D01*
X2714647Y9038287D01*
X2741021Y8707921D02*
X2690237D01*
Y8733313D01*
X2698701Y8741777D01*
X2732557D01*
X2741021Y8733313D01*
Y8707921D01*
Y8758704D02*
Y8792560D01*
X2732557D01*
X2698701Y8758704D01*
X2690237D01*
X2741075Y8576805D02*
Y8526022D01*
X2715683D01*
X2707219Y8534486D01*
Y8568341D01*
X2715683Y8576805D01*
X2741075D01*
X2656436D02*
X2673363Y8568341D01*
X2690291Y8551413D01*
Y8534486D01*
X2681827Y8526022D01*
X2664899D01*
X2656436Y8534486D01*
Y8542949D01*
X2664899Y8551413D01*
X2690291D01*
X2266708Y7700217D02*
Y7649433D01*
X2241317D01*
X2232853Y7657897D01*
Y7691753D01*
X2241317Y7700217D01*
X2266708D01*
X2182069D02*
X2215925D01*
Y7674825D01*
X2198997Y7683289D01*
X2190533D01*
X2182069Y7674825D01*
Y7657897D01*
X2190533Y7649433D01*
X2207461D01*
X2215925Y7657897D01*
X1847124Y8055408D02*
X1855588Y8063872D01*
X1872515D01*
X1880979Y8055408D01*
Y8021553D01*
X1872515Y8013089D01*
X1855588D01*
X1847124Y8021553D01*
X1830196Y8013089D02*
X1813268D01*
X1821732D01*
Y8063872D01*
X1830196Y8055408D01*
X1787876D02*
X1779412Y8063872D01*
X1762484D01*
X1754021Y8055408D01*
Y8021553D01*
X1762484Y8013089D01*
X1779412D01*
X1787876Y8021553D01*
Y8055408D01*
X1704330Y8647264D02*
X1712793Y8655728D01*
X1729721D01*
X1738185Y8647264D01*
Y8613409D01*
X1729721Y8604945D01*
X1712793D01*
X1704330Y8613409D01*
X1687402D02*
X1678938Y8604945D01*
X1662010D01*
X1653546Y8613409D01*
Y8647264D01*
X1662010Y8655728D01*
X1678938D01*
X1687402Y8647264D01*
Y8638800D01*
X1678938Y8630337D01*
X1653546D01*
X2126181Y8965800D02*
X2134645Y8974264D01*
X2151573D01*
X2160037Y8965800D01*
Y8931945D01*
X2151573Y8923481D01*
X2134645D01*
X2126181Y8931945D01*
X2109253Y8965800D02*
X2100789Y8974264D01*
X2083861D01*
X2075397Y8965800D01*
Y8957336D01*
X2083861Y8948873D01*
X2075397Y8940409D01*
Y8931945D01*
X2083861Y8923481D01*
X2100789D01*
X2109253Y8931945D01*
Y8940409D01*
X2100789Y8948873D01*
X2109253Y8957336D01*
Y8965800D01*
X2100789Y8948873D02*
X2083861D01*
X5181983Y7731348D02*
X5190446Y7739812D01*
X5207374D01*
X5215838Y7731348D01*
Y7697492D01*
X5207374Y7689028D01*
X5190446D01*
X5181983Y7697492D01*
Y7714420D01*
X5198910D01*
X5165055Y7689028D02*
Y7739812D01*
X5131199Y7689028D01*
Y7739812D01*
X5114271D02*
Y7689028D01*
X5088879D01*
X5080416Y7697492D01*
Y7731348D01*
X5088879Y7739812D01*
X5114271D01*
X5216667Y8198074D02*
Y8248858D01*
X5191275D01*
X5182812Y8240394D01*
Y8223466D01*
X5191275Y8215002D01*
X5216667D01*
X5132028Y8240394D02*
X5140492Y8248858D01*
X5157420D01*
X5165884Y8240394D01*
Y8206538D01*
X5157420Y8198074D01*
X5140492D01*
X5132028Y8206538D01*
Y8223466D01*
X5148956D01*
X5115100Y8198074D02*
Y8248858D01*
X5098172Y8231930D01*
X5081245Y8248858D01*
Y8198074D01*
X5215172Y7988210D02*
X5206708Y7996674D01*
X5189780D01*
X5181316Y7988210D01*
Y7979746D01*
X5189780Y7971283D01*
X5198244D01*
X5189780D01*
X5181316Y7962818D01*
Y7954355D01*
X5189780Y7945891D01*
X5206708D01*
X5215172Y7954355D01*
X5164388Y7979746D02*
X5147460Y7945891D01*
X5130533Y7979746D01*
X5113605Y7988210D02*
X5105141Y7996674D01*
X5088213D01*
X5079749Y7988210D01*
Y7979746D01*
X5088213Y7971283D01*
X5096677D01*
X5088213D01*
X5079749Y7962818D01*
Y7954355D01*
X5088213Y7945891D01*
X5105141D01*
X5113605Y7954355D01*
X4568703Y8651713D02*
Y8600929D01*
X4543311D01*
X4534847Y8609393D01*
Y8643249D01*
X4543311Y8651713D01*
X4568703D01*
X4517920Y8643249D02*
X4509456Y8651713D01*
X4492528D01*
X4484064Y8643249D01*
Y8634785D01*
X4492528Y8626321D01*
X4484064Y8617857D01*
Y8609393D01*
X4492528Y8600929D01*
X4509456D01*
X4517920Y8609393D01*
Y8617857D01*
X4509456Y8626321D01*
X4517920Y8634785D01*
Y8643249D01*
X4509456Y8626321D02*
X4492528D01*
X4885044Y7805714D02*
X4893508Y7814178D01*
X4910436D01*
X4918900Y7805714D01*
Y7771858D01*
X4910436Y7763394D01*
X4893508D01*
X4885044Y7771858D01*
X4834261Y7814178D02*
X4851188Y7805714D01*
X4868116Y7788786D01*
Y7771858D01*
X4859652Y7763394D01*
X4842724D01*
X4834261Y7771858D01*
Y7780322D01*
X4842724Y7788786D01*
X4868116D01*
X4885044Y7944530D02*
X4893508Y7952994D01*
X4910436D01*
X4918900Y7944530D01*
Y7910675D01*
X4910436Y7902211D01*
X4893508D01*
X4885044Y7910675D01*
X4868116Y7952994D02*
X4834261D01*
Y7944530D01*
X4868116Y7910675D01*
Y7902211D01*
X4941759Y8041028D02*
Y8091812D01*
X4916368D01*
X4907904Y8083348D01*
Y8066420D01*
X4916368Y8057956D01*
X4941759D01*
X4924832D02*
X4907904Y8041028D01*
X4890976D02*
X4874048D01*
X4882512D01*
Y8091812D01*
X4890976Y8083348D01*
X4848656D02*
X4840192Y8091812D01*
X4823264D01*
X4814801Y8083348D01*
Y8049492D01*
X4823264Y8041028D01*
X4840192D01*
X4848656Y8049492D01*
Y8083348D01*
X4921400Y7624578D02*
Y7675361D01*
X4896008D01*
X4887544Y7666897D01*
Y7649969D01*
X4896008Y7641505D01*
X4921400D01*
X4904472D02*
X4887544Y7624578D01*
X4870616Y7633042D02*
X4862152Y7624578D01*
X4845224D01*
X4836760Y7633042D01*
Y7666897D01*
X4845224Y7675361D01*
X4862152D01*
X4870616Y7666897D01*
Y7658433D01*
X4862152Y7649969D01*
X4836760D01*
X5212691Y9067172D02*
Y9024853D01*
X5204227Y9016389D01*
X5187300D01*
X5178836Y9024853D01*
Y9067172D01*
X5128052Y9058708D02*
X5136516Y9067172D01*
X5153444D01*
X5161908Y9058708D01*
Y9050244D01*
X5153444Y9041780D01*
X5136516D01*
X5128052Y9033316D01*
Y9024853D01*
X5136516Y9016389D01*
X5153444D01*
X5161908Y9024853D01*
X5111124Y9067172D02*
Y9016389D01*
X5085733D01*
X5077269Y9024853D01*
Y9033316D01*
X5085733Y9041780D01*
X5111124D01*
X5085733D01*
X5077269Y9050244D01*
Y9058708D01*
X5085733Y9067172D01*
X5111124D01*
X3904163Y7709629D02*
Y7667309D01*
X3895699Y7658845D01*
X3878772D01*
X3870308Y7667309D01*
Y7709629D01*
X3853380Y7658845D02*
X3836452D01*
X3844916D01*
Y7709629D01*
X3853380Y7701165D01*
X4304153Y8922440D02*
Y8973224D01*
X4278761D01*
X4270297Y8964760D01*
Y8947832D01*
X4278761Y8939368D01*
X4304153D01*
X4287225D02*
X4270297Y8922440D01*
X4253369Y8964760D02*
X4244905Y8973224D01*
X4227978D01*
X4219514Y8964760D01*
Y8956296D01*
X4227978Y8947832D01*
X4219514Y8939368D01*
Y8930904D01*
X4227978Y8922440D01*
X4244905D01*
X4253369Y8930904D01*
Y8939368D01*
X4244905Y8947832D01*
X4253369Y8956296D01*
Y8964760D01*
X4244905Y8947832D02*
X4227978D01*
X3785847Y8920896D02*
Y8971680D01*
X3760455D01*
X3751991Y8963216D01*
Y8946288D01*
X3760455Y8937824D01*
X3785847D01*
X3768919D02*
X3751991Y8920896D01*
X3735063Y8971680D02*
X3701207D01*
Y8963216D01*
X3735063Y8929360D01*
Y8920896D01*
X3615040Y8010549D02*
Y8061332D01*
X3589648D01*
X3581184Y8052868D01*
Y8035940D01*
X3589648Y8027476D01*
X3615040D01*
X3598112D02*
X3581184Y8010549D01*
X3530400Y8061332D02*
X3547328Y8052868D01*
X3564256Y8035940D01*
Y8019013D01*
X3555792Y8010549D01*
X3538864D01*
X3530400Y8019013D01*
Y8027476D01*
X3538864Y8035940D01*
X3564256D01*
X4631575Y9046751D02*
X4665430D01*
Y9021360D01*
X4648503D01*
X4665430D01*
Y8995968D01*
X4580791D02*
X4614647D01*
X4580791Y9029823D01*
Y9038287D01*
X4589255Y9046751D01*
X4606183D01*
X4614647Y9038287D01*
X4641021Y8707921D02*
X4590237D01*
Y8733313D01*
X4598701Y8741777D01*
X4632557D01*
X4641021Y8733313D01*
Y8707921D01*
Y8758704D02*
Y8792560D01*
X4632557D01*
X4598701Y8758704D01*
X4590237D01*
X4641075Y8576805D02*
Y8526022D01*
X4615683D01*
X4607219Y8534486D01*
Y8568341D01*
X4615683Y8576805D01*
X4641075D01*
X4556436D02*
X4573363Y8568341D01*
X4590291Y8551413D01*
Y8534486D01*
X4581827Y8526022D01*
X4564899D01*
X4556436Y8534486D01*
Y8542949D01*
X4564899Y8551413D01*
X4590291D01*
X4166708Y7700217D02*
Y7649433D01*
X4141317D01*
X4132853Y7657897D01*
Y7691753D01*
X4141317Y7700217D01*
X4166708D01*
X4082069D02*
X4115925D01*
Y7674825D01*
X4098997Y7683289D01*
X4090533D01*
X4082069Y7674825D01*
Y7657897D01*
X4090533Y7649433D01*
X4107461D01*
X4115925Y7657897D01*
X3747124Y8055408D02*
X3755588Y8063872D01*
X3772515D01*
X3780979Y8055408D01*
Y8021553D01*
X3772515Y8013089D01*
X3755588D01*
X3747124Y8021553D01*
X3730196Y8013089D02*
X3713268D01*
X3721732D01*
Y8063872D01*
X3730196Y8055408D01*
X3687876D02*
X3679412Y8063872D01*
X3662484D01*
X3654021Y8055408D01*
Y8021553D01*
X3662484Y8013089D01*
X3679412D01*
X3687876Y8021553D01*
Y8055408D01*
X3604330Y8647264D02*
X3612793Y8655728D01*
X3629721D01*
X3638185Y8647264D01*
Y8613409D01*
X3629721Y8604945D01*
X3612793D01*
X3604330Y8613409D01*
X3587402D02*
X3578938Y8604945D01*
X3562010D01*
X3553546Y8613409D01*
Y8647264D01*
X3562010Y8655728D01*
X3578938D01*
X3587402Y8647264D01*
Y8638800D01*
X3578938Y8630337D01*
X3553546D01*
X4026181Y8965800D02*
X4034645Y8974264D01*
X4051573D01*
X4060037Y8965800D01*
Y8931945D01*
X4051573Y8923481D01*
X4034645D01*
X4026181Y8931945D01*
X4009253Y8965800D02*
X4000789Y8974264D01*
X3983861D01*
X3975397Y8965800D01*
Y8957336D01*
X3983861Y8948873D01*
X3975397Y8940409D01*
Y8931945D01*
X3983861Y8923481D01*
X4000789D01*
X4009253Y8931945D01*
Y8940409D01*
X4000789Y8948873D01*
X4009253Y8957336D01*
Y8965800D01*
X4000789Y8948873D02*
X3983861D01*
%TF.MD5,c8252947374b29649078d221c75a6749*%
M02*
