%TF.GenerationSoftware,Altium Limited,Altium Designer,20.1.8 (145)*%
G04 Layer_Color=0*
%FSLAX45Y45*%
%MOMM*%
%TF.SameCoordinates,0E9F4796-1360-41E2-86C3-8BEED11D2ECA*%
%TF.FilePolarity,Positive*%
%TF.FileFunction,NonPlated,1,2,NPTH,Drill*%
%TF.Part,CustomerPanel*%
G01*
G75*
%TA.AperFunction,OtherDrill,Pad Free-1 (66mm,95mm)*%
%ADD51C,3.00000*%
%TA.AperFunction,OtherDrill,Pad Free-1 (3mm,95mm)*%
%ADD52C,3.00000*%
%TA.AperFunction,OtherDrill,Pad Free-1 (66mm,3mm)*%
%ADD53C,3.00000*%
%TA.AperFunction,OtherDrill,Pad Free-1 (3mm,3mm)*%
%ADD54C,3.00000*%
%TA.AperFunction,ComponentDrill*%
%ADD55C,0.50000*%
D51*
X6600000Y9500000D02*
D03*
D52*
X300000D02*
D03*
D53*
X6600000Y300000D02*
D03*
D54*
X300000D02*
D03*
D55*
X3013800Y1632000D02*
D03*
Y2032000D02*
D03*
X4913800Y1632000D02*
D03*
Y2032000D02*
D03*
X3013800Y3332000D02*
D03*
Y3732000D02*
D03*
X4913800Y3332000D02*
D03*
Y3732000D02*
D03*
X3013800Y5032000D02*
D03*
Y5432000D02*
D03*
X4913800Y5032000D02*
D03*
Y5432000D02*
D03*
X3013800Y6732000D02*
D03*
Y7132000D02*
D03*
X4913800Y6732000D02*
D03*
Y7132000D02*
D03*
X3013800Y8432000D02*
D03*
Y8832000D02*
D03*
X4913800Y8432000D02*
D03*
Y8832000D02*
D03*
%TF.MD5,2c92b8728ebb493e1083cb9d87547e7f*%
M02*
